<?xml version="1.0" standalone="no"?>
<!DOCTYPE svg PUBLIC "-//W3C//DTD SVG 1.1//EN" "http://www.w3.org/Graphics/SVG/1.1/DTD/svg11.dtd" >
<svg xmlns="http://www.w3.org/2000/svg" xmlns:xlink="http://www.w3.org/1999/xlink" version="1.1">
<metadata>
Created by FontForge 20201107 at Wed Mar  8 16:58:28 2023
 By 
Copyright 2020 The Anybody Project Authors (https://github.com/Etcetera-Type-Co/Anybody)
</metadata>
<defs>
<font id="Anybody-SemiBoldItalic" horiz-adv-x="0" >
  <font-face 
    font-family="Anybody SemiBold"
    font-weight="600"
    font-style="italic"
    font-stretch="normal"
    units-per-em="2000"
    panose-1="0 0 0 0 0 0 0 0 0 0"
    ascent="1600"
    descent="-400"
    x-height="1185"
    cap-height="1350"
    bbox="-429 -530 2764 1938"
    underline-thickness="96"
    underline-position="-258"
    slope="-10"
    unicode-range="U+000D-FB02"
  />
<missing-glyph horiz-adv-x="583" 
d="M28 146h348l184 1042h-348zM144 226l200 172l-16 20l-200 -172zM296 228l22 18l-140 172l-22 -18zM204 564l200 172l-16 20l-200 -172zM356 566l22 18l-140 172l-22 -18zM58 172l176 990h296l-176 -990h-296zM264 902l200 172l-16 20l-202 -172zM416 904l20 18l-138 172
l-22 -18z" />
    <glyph glyph-name="fi" unicode="fi" horiz-adv-x="1496" 
d="M164 0h280l176 992h326l34 193h-327l11 55q16 92 96 122t235 30h32l32 186h-39q-273 0 -438.5 -76t-198.5 -261l-11 -56h-242l-34 -193h243zM972 0h282l208 1186h-281zM1242 1529l-38 -212h281l38 212h-281z" />
    <glyph glyph-name="fl" unicode="fl" horiz-adv-x="1482" 
d="M164 0h280l176 992h326l34 193h-327l11 55q16 92 96 122t235 30h32l32 186h-39q-273 0 -438.5 -76t-198.5 -261l-11 -56h-242l-34 -193h243zM958 0h282l276 1570h-281z" />
    <glyph glyph-name="f_f" unicode="ff" horiz-adv-x="1892" 
d="M164 0h280l176 992h326l34 193h-327l11 55q16 92 96 122t235 30h32l32 186h-39q-273 0 -438.5 -76t-198.5 -261l-11 -56h-242l-34 -193h243zM1085 0h280l176 992h326l34 193h-327l11 55q16 92 96 122t235 30h32l32 186h-39q-273 0 -438.5 -76t-198.5 -261l-11 -56h-242
l-34 -193h243z" />
    <glyph glyph-name="f_f_i" unicode="ffi" horiz-adv-x="2417" 
d="M164 0h280l176 992h326l34 193h-327l11 55q16 92 96 122t235 30h32l32 186h-39q-273 0 -438.5 -76t-198.5 -261l-11 -56h-242l-34 -193h243zM1085 0h280l176 992h326l34 193h-327l11 55q16 92 96 122t235 30h32l32 186h-39q-273 0 -438.5 -76t-198.5 -261l-11 -56h-242
l-34 -193h243zM1893 0h282l208 1186h-281zM2163 1529l-38 -212h281l38 212h-281z" />
    <glyph glyph-name="f_f_l" unicode="ffl" horiz-adv-x="2402" 
d="M164 0h280l176 992h326l34 193h-327l11 55q16 92 96 122t235 30h32l32 186h-39q-273 0 -438.5 -76t-198.5 -261l-11 -56h-242l-34 -193h243zM1085 0h280l176 992h326l34 193h-327l11 55q16 92 96 122t235 30h32l32 186h-39q-273 0 -438.5 -76t-198.5 -261l-11 -56h-242
l-34 -193h243zM1879 0h282l276 1570h-281z" />
    <glyph glyph-name=".notdef" horiz-adv-x="583" 
d="M28 146h348l184 1042h-348zM144 226l200 172l-16 20l-200 -172zM296 228l22 18l-140 172l-22 -18zM204 564l200 172l-16 20l-200 -172zM356 566l22 18l-140 172l-22 -18zM58 172l176 990h296l-176 -990h-296zM264 902l200 172l-16 20l-202 -172zM416 904l20 18l-138 172
l-22 -18z" />
    <glyph glyph-name=".null" 
 />
    <glyph glyph-name="nonmarkingreturn" horiz-adv-x="666" 
 />
    <glyph glyph-name="CR" unicode="&#xd;" horiz-adv-x="413" 
 />
    <glyph glyph-name="space" unicode=" " horiz-adv-x="508" 
 />
    <glyph glyph-name="exclam" unicode="!" horiz-adv-x="467" 
d="M62 372h272l199 978h-325zM-20 -13h280l41 233h-280z" />
    <glyph glyph-name="quotedbl" unicode="&#x22;" horiz-adv-x="500" 
d="M338 868h161l85 482h-162zM99 868h168l84 482h-168z" />
    <glyph glyph-name="numbersign" unicode="#" horiz-adv-x="1402" 
d="M677 0h215l431 1350h-214zM-12 334h1260l29 166h-1261zM65 0h215l431 1350h-215zM110 846h1260l30 168h-1261z" />
    <glyph glyph-name="dollar" unicode="$" horiz-adv-x="1187" 
d="M601 1218l174 -1l30 164h-176zM379 -30h175l29 160h-176zM515 80q228 0 393.5 85t190.5 262q25 176 -75.5 249t-310.5 107q-158 27 -247 56t-76 113q8 67 75.5 107.5t187.5 40.5q126 0 194 -57.5t69 -166.5l263 88q-6 175 -135.5 247.5t-359.5 72.5q-228 0 -388 -81
t-183 -249q-25 -175 73.5 -251.5t293.5 -108.5q167 -32 259.5 -62t79.5 -120q-9 -64 -79 -104.5t-194 -40.5q-135 0 -205 56t-71 177l-262 -89q10 -183 145.5 -257t361.5 -74z" />
    <glyph glyph-name="percent" unicode="%" horiz-adv-x="1387" 
d="M-36 0h199l1282 1348h-197zM406 826q163 0 253 53t112 176l14 81q22 124 -53 177.5t-239 53.5q-162 0 -252.5 -53.5t-113.5 -177.5l-14 -81q-22 -122 54 -175.5t239 -53.5zM421 937q-77 0 -108 25.5t-20 90.5l16 86q11 65 50.5 90.5t116.5 25.5t109 -25.5t20 -90.5
l-15 -86q-12 -65 -52 -90.5t-117 -25.5zM940 -7q163 0 252.5 53.5t111.5 176.5l14 81q23 123 -52.5 176t-238.5 53q-164 0 -254.5 -53.5t-111.5 -175.5l-15 -81q-21 -122 55 -176t239 -54zM954 104q-77 0 -108 26t-20 91l16 86q12 65 51.5 90t116.5 25q76 0 108 -25.5
t20 -89.5l-15 -86q-11 -65 -51.5 -91t-117.5 -26z" />
    <glyph glyph-name="ampersand" unicode="&#x26;" horiz-adv-x="1548" 
d="M524 -12q330 0 610 172t342 519h-253q-46 -265 -245 -380t-413 -115q-174 0 -244.5 44t-56.5 136q14 93 119 154t291 131q182 77 330 162t169 230q25 162 -88.5 241.5t-312.5 79.5q-182 0 -327 -80t-168 -243q-20 -123 52.5 -226t140.5 -174l589 -639h322l-687 774
q-74 72 -117.5 133t-30.5 132q11 72 65 105t135 33q84 0 128 -33.5t33 -103.5q-12 -71 -101.5 -126t-238.5 -105q-158 -67 -361.5 -173.5t-223.5 -290.5q-20 -179 115 -268t427 -89z" />
    <glyph glyph-name="quotesingle" unicode="'" horiz-adv-x="314" 
d="M113 892h204l81 458h-204z" />
    <glyph glyph-name="parenleft" unicode="(" horiz-adv-x="670" 
d="M202 -459l227 122q-21 27 -49.5 75.5t-55.5 121.5t-45 170.5t-17.5 223t27.5 280.5q28 155 72.5 281.5t96.5 225.5t105 173t99 123.5t76 75.5l-185 122q-30 -24 -81 -76t-112 -134t-122.5 -196.5t-114 -262.5t-84.5 -332t-32 -331.5t21.5 -259.5t53.5 -193t64.5 -132.5
t55.5 -76.5z" />
    <glyph glyph-name="parenright" unicode=")" horiz-adv-x="670" 
d="M101 -459q31 25 82 76.5t111 132.5t121.5 193t113.5 259.5t85 331.5q32 184 32 332t-21 262.5t-53 196.5t-65 134t-55 76l-227 -122q21 -26 49.5 -75t55.5 -123t44.5 -173t17 -226t-28.5 -282q-27 -154 -71 -279.5t-96.5 -223.5t-105 -171t-98 -121.5t-76.5 -75.5z" />
    <glyph glyph-name="asterisk" unicode="*" horiz-adv-x="562" 
d="M212 1194l433 235l-34 79l-433 -236zM556 1194l58 74l-347 240l-59 -76zM331 1158h92l68 384h-92z" />
    <glyph glyph-name="plus" unicode="+" horiz-adv-x="572" 
d="M136 201h184l33 193h165l31 172h-164l33 194h-183l-34 -194h-166l-32 -172h168z" />
    <glyph glyph-name="comma" unicode="," horiz-adv-x="565" 
d="M-111 -251h164l272 390h-266z" />
    <glyph glyph-name="hyphen" unicode="-" horiz-adv-x="886" 
d="M12 385h732l34 186h-732z" />
    <glyph glyph-name="period" unicode="." horiz-adv-x="438" 
d="M10 222l-39 -222h264l39 222h-264z" />
    <glyph glyph-name="slash" unicode="/" horiz-adv-x="840" 
d="M-89 0h239l806 1348h-241z" />
    <glyph glyph-name="zero" unicode="0" horiz-adv-x="1137" 
d="M436 -14q251 0 388.5 90.5t173.5 282.5l112 629q36 192 -70 282.5t-357 90.5q-252 0 -390 -90.5t-173 -282.5l-113 -629q-35 -192 70.5 -282.5t358.5 -90.5zM470 180q-114 0 -155 46.5t-22 145.5l107 603q18 99 75.5 145t172.5 46q112 0 153.5 -46.5t22.5 -144.5
l-107 -603q-18 -98 -76.5 -145t-170.5 -47z" />
    <glyph glyph-name="one" unicode="1" horiz-adv-x="1067" 
d="M-35 0h924l34 194h-318l204 1158h-234l-398 -102l-36 -208l347 81l-164 -929h-325z" />
    <glyph glyph-name="two" unicode="2" horiz-adv-x="1156" 
d="M-42 0h1000l34 194h-703q11 61 97.5 129t270.5 163q191 105 325 219.5t153 286.5q17 142 -56.5 255.5t-375.5 113.5q-304 0 -430 -135t-162 -342h282q30 167 100 224.5t182 57.5q101 0 145.5 -39.5t30.5 -138.5q-17 -103 -90 -173.5t-284 -174.5q-227 -109 -346 -223.5
t-143 -250.5z" />
    <glyph glyph-name="three" unicode="3" horiz-adv-x="1176" 
d="M470 -14q317 0 436.5 110t143.5 291q17 131 -39.5 208t-213.5 82q160 6 249.5 86t107.5 213q23 170 -53 277.5t-390 107.5q-303 0 -430 -128.5t-167 -360.5h280q35 195 103.5 246.5t182.5 51.5t161.5 -46.5t24.5 -191.5q-14 -91 -83.5 -129.5t-230.5 -41.5l-32 -176
q162 -2 216 -38t39 -128q-23 -148 -89 -195.5t-182 -47.5t-165.5 50t-18.5 228h-280q-39 -222 43 -345t387 -123z" />
    <glyph glyph-name="four" unicode="4" horiz-adv-x="1154" 
d="M518 0h280l55 311h171l32 183h-171l151 856h-417l-607 -853l-32 -186h593zM294 494l423 655h3l-115 -655h-311z" />
    <glyph glyph-name="five" unicode="5" horiz-adv-x="1146" 
d="M447 -13q296 0 430.5 120.5t167.5 371.5q29 218 -40.5 328.5t-275.5 110.5q-188 0 -345 -83.5t-199 -250.5l157 -5q17 75 86.5 120.5t170.5 45.5q99 0 142.5 -50t16.5 -221q-30 -192 -97.5 -245t-173.5 -53q-107 0 -151 47t-23 190h-281q-25 -186 57.5 -306t357.5 -120z
M61 579h280l102 578h690l34 193h-970z" />
    <glyph glyph-name="six" unicode="6" horiz-adv-x="1157" 
d="M451 -13q321 0 440.5 132.5t152.5 357.5q32 221 -33 328.5t-285 107.5q-198 0 -348.5 -96.5t-174.5 -196.5l125 -63q22 79 95.5 132.5t177.5 53.5q105 0 146 -50t9 -231q-30 -170 -92 -228.5t-174 -58.5t-157.5 70t4.5 356q70 398 150.5 486t191.5 88q97 0 129 -52.5
t20 -146.5h282q23 132 -43 258.5t-355 126.5q-319 0 -455.5 -172.5t-196.5 -558.5q-50 -331 17.5 -487t373.5 -156z" />
    <glyph glyph-name="seven" unicode="7" horiz-adv-x="1049" 
d="M172 0h305q58 335 218.5 616.5t415.5 540.5l33 193h-976l-34 -194h680l-1 -4q-244 -228 -411.5 -517t-229.5 -635z" />
    <glyph glyph-name="eight" unicode="8" horiz-adv-x="1144" 
d="M461 -14q284 0 415 125t160 310q29 180 -85.5 269.5t-352.5 89.5t-387 -88.5t-178 -270.5q-30 -184 50.5 -309.5t377.5 -125.5zM491 176q-109 0 -156 53.5t-23 182.5q22 130 85 176t176 46q112 0 158.5 -46t23.5 -176q-24 -129 -89 -182.5t-175 -53.5zM580 660
q237 0 372.5 79.5t164.5 252.5q24 151 -62 260t-359 109q-286 0 -403 -109t-139 -260q-28 -173 80 -252.5t346 -79.5zM602 800q-109 0 -152.5 42.5t-23.5 154.5q15 90 76 133.5t166 43.5q104 0 149.5 -43.5t29.5 -133.5q-20 -111 -78 -154t-167 -43z" />
    <glyph glyph-name="nine" unicode="9" horiz-adv-x="1151" 
d="M464 -13q317 0 448 175t195 556q54 318 -14.5 480.5t-371.5 162.5q-324 0 -444.5 -125t-150.5 -347q-30 -219 34 -336.5t283 -117.5q198 0 347.5 96.5t173.5 196.5l-124 63q-18 -79 -92 -129.5t-178 -50.5q-105 0 -148.5 51t-13.5 225q27 172 94 227.5t179 55.5t155 -69
t-5 -354q-70 -410 -148 -492t-190 -82q-100 0 -132.5 52.5t-21.5 144.5h-282q-20 -120 42 -251.5t365 -131.5z" />
    <glyph glyph-name="colon" unicode=":" horiz-adv-x="452" 
d="M20 222l-39 -222h264l39 222h-264zM181 1129l-39 -222h264l39 222h-264z" />
    <glyph glyph-name="semicolon" unicode=";" horiz-adv-x="526" 
d="M203 1131l-39 -222h264l39 222h-264zM-107 -158h164l272 390h-266z" />
    <glyph glyph-name="less" unicode="&#x3c;" horiz-adv-x="808" 
d="M643 -6l44 249l-456 243l542 244l44 248l-756 -388l-37 -208z" />
    <glyph glyph-name="equal" unicode="=" horiz-adv-x="609" 
d="M41 611h537l30 167h-537zM-33 193h537l30 166h-538z" />
    <glyph glyph-name="greater" unicode="&#x3e;" horiz-adv-x="809" 
d="M-33 -6l756 388l36 208l-618 388l-43 -248l456 -242l-543 -245z" />
    <glyph glyph-name="question" unicode="?" horiz-adv-x="1131" 
d="M363 358h275q19 94 64.5 166.5t147.5 148.5q87 63 169.5 152.5t97.5 226.5q20 157 -79 232.5t-358 75.5q-254 0 -394 -96t-183 -337h273q24 136 92.5 195.5t185.5 59.5q118 0 156.5 -45t25.5 -132q-14 -81 -73 -135.5t-133 -109.5q-106 -72 -174 -165.5t-93 -236.5z
M350 210l-39 -222h264l39 222h-264z" />
    <glyph glyph-name="at" unicode="@" horiz-adv-x="1815" 
d="M688 -31q99 0 184.5 13.5t154.5 33.5t116 42t70 39l-133 131q-7 -7 -33 -23t-71.5 -33t-108.5 -29t-144 -12q-79 0 -149 17.5t-126.5 54.5t-94 95t-50.5 140t1 189q22 152 88.5 261.5t167.5 179t226 102t265 32.5q105 0 187.5 -17t140.5 -52t92 -87.5t44 -122.5t-5 -157
q-16 -96 -45 -166t-66.5 -115t-82.5 -66.5t-93 -21.5q-34 0 -60 11t-37 34.5t0 63.5l141 518h-135l-28 -98q3 19 -12.5 45.5t-51.5 46.5t-93 20q-61 0 -124.5 -25t-119 -75.5t-96.5 -126t-60 -177.5q-16 -83 -5.5 -144.5t40.5 -102.5t76 -61.5t100 -20.5q66 0 119.5 16.5
t90 43t50.5 56.5q-6 -27 2 -54t30.5 -49t59.5 -34.5t86 -12.5q65 0 134 18t134 56t121.5 98t97.5 144t61 192q26 138 -3.5 246.5t-111.5 184.5t-215 115t-313 39q-159 0 -303 -27.5t-267 -85t-219 -147t-159 -211t-86 -277.5q-20 -139 3 -246t80 -183t140 -124t185 -71
t213 -23zM825 426q-40 0 -67 27.5t-36 77.5t2 118q9 58 34.5 106t58.5 83t69 53.5t68 18.5q30 0 58.5 -12.5t44 -36.5t9.5 -59l-71 -270q-16 -45 -63.5 -75.5t-106.5 -30.5z" />
    <glyph glyph-name="A" unicode="A" horiz-adv-x="1404" 
d="M-46 0h293l164 348h492l40 -348h294l-202 1352h-404zM491 536l313 649h3l82 -649h-398z" />
    <glyph glyph-name="B" unicode="B" horiz-adv-x="1307" 
d="M-21 0h774q227 0 312.5 112t105.5 290q16 139 -29.5 228.5t-161.5 95.5q114 5 188 98.5t87 228.5q11 108 -29 202.5t-264 94.5h-745zM297 194l78 441h392q94 0 118 -53.5t5 -165.5q-19 -111 -57.5 -166.5t-115.5 -55.5h-420zM406 809l61 348h389q80 0 99.5 -39.5
t4.5 -123.5q-14 -81 -54.5 -133t-126.5 -52h-373z" />
    <glyph glyph-name="C" unicode="C" horiz-adv-x="1313" 
d="M545 -8q337 0 481 160.5t184 390.5h-287q-35 -204 -122.5 -280.5t-227.5 -76.5q-144 0 -207.5 89t-13.5 403q51 323 150.5 406t242.5 83q141 0 199.5 -72t25.5 -284h287q36 239 -53 395t-427 156q-336 0 -496.5 -166.5t-216.5 -517.5q-55 -343 44.5 -514.5t436.5 -171.5z
" />
    <glyph glyph-name="D" unicode="D" horiz-adv-x="1299" 
d="M-21 0h646q271 0 409.5 147.5t197.5 528.5q57 373 -26.5 523.5t-354.5 150.5h-634zM297 194l169 962h280q146 0 200.5 -83.5t1.5 -396.5q-54 -319 -139.5 -400.5t-231.5 -81.5h-280z" />
    <glyph glyph-name="E" unicode="E" horiz-adv-x="1125" 
d="M-32 0h948l34 194h-663l70 400h620l33 185h-620l66 377h663l35 194h-948z" />
    <glyph glyph-name="F" unicode="F" horiz-adv-x="1050" 
d="M-46 0h284l93 528h565l32 185h-564l77 443h616l34 194h-899z" />
    <glyph glyph-name="G" unicode="G" horiz-adv-x="1341" 
d="M520 -8q321 0 433 193l-1 -185h162l119 681h-548l-30 -169h256l-13 -71q-31 -138 -105 -196.5t-216 -58.5q-151 0 -208.5 98.5t-14.5 383.5q50 323 147 411.5t247 88.5q145 0 199.5 -72t30.5 -246h285q30 208 -70 360t-417 152q-338 0 -497.5 -167t-209.5 -518
q-48 -342 42 -513.5t409 -171.5z" />
    <glyph glyph-name="H" unicode="H" horiz-adv-x="1317" 
d="M-21 0h284l103 585h542l-103 -585h285l238 1350h-285l-101 -570h-541l101 570h-285z" />
    <glyph glyph-name="I" unicode="I" horiz-adv-x="580" 
d="M27 0h283l239 1350h-283z" />
    <glyph glyph-name="J" unicode="J" horiz-adv-x="1275" 
d="M497 -11q273 0 422.5 100.5t185.5 305.5l168 955h-283l-161 -915q-23 -132 -93.5 -193t-212.5 -61q-143 0 -190 62t-23 191l31 174h-284l-36 -207q-39 -212 83 -312t393 -100z" />
    <glyph glyph-name="K" unicode="K" horiz-adv-x="1219" 
d="M-21 0h282l106 599l375 -599h319l-423 671l662 679h-325l-581 -598l105 598h-282z" />
    <glyph glyph-name="L" unicode="L" horiz-adv-x="1021" 
d="M-21 0h850l34 193h-566l205 1157h-285z" />
    <glyph glyph-name="M" unicode="M" horiz-adv-x="1728" 
d="M-22 0h281l204 1154h3l117 -1102h332l505 1102h3l-203 -1154h281l237 1350h-465l-492 -1096h-3l-107 1096h-454z" />
    <glyph glyph-name="N" unicode="N" horiz-adv-x="1491" 
d="M-21 0h282l203 1147h3l354 -1147h443l238 1350h-283l-202 -1133h-4l-351 1133h-445z" />
    <glyph glyph-name="O" unicode="O" horiz-adv-x="1369" 
d="M565 -10q333 0 508 169t229 516q53 347 -54.5 517t-441.5 170t-509 -169.5t-229 -517.5q-52 -346 55 -515.5t442 -169.5zM599 184q-151 0 -224 90t-23 401q50 315 160 403.5t260 88.5t223.5 -88.5t22.5 -403.5q-50 -311 -160 -401t-259 -90z" />
    <glyph glyph-name="P" unicode="P" horiz-adv-x="1228" 
d="M-21 0h284l66 374h397q242 0 350 156t128 356q22 176 -27.5 320t-291.5 144h-667zM364 569l103 587h305q111 0 141.5 -72t8.5 -215q-21 -152 -81.5 -226t-171.5 -74h-305z" />
    <glyph glyph-name="Q" unicode="Q" horiz-adv-x="1377" 
d="M907 -230l219 103l-171 323l-226 -93zM571 -10q338 0 505 160.5t226 524.5q57 360 -54 523.5t-449 163.5q-337 0 -504.5 -161t-226.5 -526q-58 -360 53.5 -522.5t449.5 -162.5zM599 184q-155 0 -229 89t-18 402q55 317 160.5 404.5t259.5 87.5t228 -87.5t18 -404.5
q-55 -313 -160.5 -402t-258.5 -89z" />
    <glyph glyph-name="R" unicode="R" horiz-adv-x="1266" 
d="M-21 0h285l97 557h432q219 0 316 112.5t123 277.5q27 164 -24 283.5t-264 119.5h-727zM776 0h308l-192 646l-283 -14zM393 733l74 423h350q96 0 121.5 -56.5t7.5 -155.5q-17 -98 -63 -154.5t-140 -56.5h-350z" />
    <glyph glyph-name="S" unicode="S" horiz-adv-x="1299" 
d="M527 -8q326 0 473 119t166 289q22 167 -65 238.5t-355 134.5q-179 41 -269 81t-75 144q12 80 101 124t224 44q131 0 199.5 -52t36.5 -246h284q40 236 -59 365t-426 129q-323 0 -475 -117t-166 -281q-17 -156 69 -239t346 -144q172 -40 265.5 -79t77.5 -141
q-13 -86 -99.5 -131t-221.5 -45q-136 0 -202 54t-33 254h-285q-43 -250 55.5 -375.5t433.5 -125.5z" />
    <glyph glyph-name="T" unicode="T" horiz-adv-x="1238" 
d="M356 0h284l204 1156h405l35 194h-1097l-35 -194h407z" />
    <glyph glyph-name="U" unicode="U" horiz-adv-x="1359" 
d="M554 -8q288 0 450.5 102.5t205.5 343.5l160 912h-284l-155 -880q-27 -156 -106.5 -219.5t-236.5 -63.5q-155 0 -212 64t-30 219l156 880h-285l-160 -912q-43 -241 83 -343.5t414 -102.5z" />
    <glyph glyph-name="V" unicode="V" horiz-adv-x="1324" 
d="M345 0h388l647 1350h-294l-515 -1149h-2l-109 1149h-285z" />
    <glyph glyph-name="W" unicode="W" horiz-adv-x="1949" 
d="M192 0h433l430 1156h3l19 -1156h434l497 1350h-312l-385 -1142h-3l-36 1142h-374l-439 -1141h-3l23 1141h-302z" />
    <glyph glyph-name="X" unicode="X" horiz-adv-x="1325" 
d="M-75 0h328l399 549l206 -549h327l-300 668l526 682h-327l-389 -561l-191 561h-327l282 -682z" />
    <glyph glyph-name="Y" unicode="Y" horiz-adv-x="1349" 
d="M409 0h284l91 516l646 834h-312l-439 -608h-2l-226 608h-305l353 -836z" />
    <glyph glyph-name="Z" unicode="Z" horiz-adv-x="1148" 
d="M-43 0h989l35 194h-673l818 962l35 194h-954l-33 -193h637l-818 -956z" />
    <glyph glyph-name="bracketleft" unicode="[" horiz-adv-x="675" 
d="M-95 -363h545l33 186h-313l251 1435h314l34 186h-545z" />
    <glyph glyph-name="backslash" unicode="\" horiz-adv-x="843" 
d="M436 0h254l-265 1348h-251z" />
    <glyph glyph-name="bracketright" unicode="]" horiz-adv-x="677" 
d="M-91 -363h546l319 1807h-545l-34 -186h313l-252 -1436h-314z" />
    <glyph glyph-name="asciicircum" unicode="^" horiz-adv-x="766" 
d="M133 1214h182l266 232h-168zM644 1216h171l-194 230h-162z" />
    <glyph glyph-name="underscore" unicode="_" horiz-adv-x="1260" 
d="M-146 -226h1262l34 184h-1263z" />
    <glyph glyph-name="grave" unicode="`" horiz-adv-x="644" 
d="M434 1212h130l-122 191h-191z" />
    <glyph glyph-name="a" unicode="a" horiz-adv-x="1270" 
d="M390 -12q82 0 151.5 14t125 37t94 49.5t58.5 53.5l-2 -142h235l132 746q29 164 -18 262.5t-162 143.5t-291 45q-99 0 -190.5 -18.5t-169.5 -58t-137.5 -105t-95.5 -160.5l262 -75q28 84 75 133.5t105.5 71.5t124.5 22q81 0 134.5 -24t75.5 -78.5t7 -144.5l-10 -54h-380
q-67 0 -135 -9.5t-129.5 -33t-110.5 -65t-81 -106t-40 -155.5q-14 -137 26 -212.5t128.5 -106t217.5 -30.5zM483 170q-61 0 -104 15t-62.5 56t-11.5 117q6 61 28 99t55.5 58.5t75.5 28t89 7.5h310l-44 -251q-25 -33 -74.5 -63t-116.5 -48.5t-145 -18.5z" />
    <glyph glyph-name="b" unicode="b" horiz-adv-x="1277" 
d="M-17 0h256l56 177l245 1393h-281zM640 -7q229 0 367.5 159.5t181.5 448.5q41 280 -34 437.5t-305 157.5q-204 0 -369 -98.5t-185 -212.5l101 -129q17 100 113 173t210 73q121 0 172.5 -85t11.5 -320q-39 -241 -123 -326.5t-205 -85.5q-114 0 -184.5 73t-52.5 175
l-146 -131q-21 -114 110.5 -211.5t336.5 -97.5z" />
    <glyph glyph-name="c" unicode="c" horiz-adv-x="1217" 
d="M513 -10q276 0 408.5 130.5t170.5 264.5l-234 89q-29 -128 -111.5 -209.5t-202.5 -81.5q-118 0 -173.5 88t-31.5 296q27 255 123.5 344.5t224.5 89.5q119 0 173 -76t39 -218l266 86q7 147 -83 275t-366 128q-314 0 -476 -160.5t-188 -481.5q-23 -262 67 -413t394 -151z
" />
    <glyph glyph-name="d" unicode="d" horiz-adv-x="1268" 
d="M790 0h262l276 1570h-280l-245 -1393zM399 -7q206 0 368 97.5t183 211.5l-101 131q-18 -101 -113 -174.5t-210 -73.5q-117 0 -167.5 81t-21.5 308q30 250 116.5 339t217.5 89q114 0 183 -73t52 -173l146 129q20 114 -110.5 212.5t-335.5 98.5q-244 0 -387 -169.5
t-167 -480.5q-24 -253 52 -403t295 -150z" />
    <glyph glyph-name="e" unicode="e" horiz-adv-x="1276" 
d="M528 -10l33 182q-138 0 -200 93q-63 91 -22 329q41 246 138 334q98 87 228 87q134 0 194 -82q46 -72 24 -252h-596l-30 -171h876q12 39 20 86q50 287 -47 445q-97 156 -409 156q-302 0 -462 -155q-159 -156 -209 -448q-47 -281 52 -443q99 -161 410 -161zM561 172
l-33 -182q167 0 276 36q106 36 189 114q82 77 123 196l-240 70q-32 -73 -73 -130q-43 -57 -101 -81q-61 -23 -141 -23z" />
    <glyph glyph-name="f" unicode="f" horiz-adv-x="971" 
d="M164 0h280l176 992h326l34 193h-327l11 55q16 92 96 122t235 30h32l32 186h-39q-273 0 -438.5 -76t-198.5 -261l-11 -56h-242l-34 -193h243z" />
    <glyph glyph-name="g" unicode="g" horiz-adv-x="1286" 
d="M416 -467q172 0 294 46t219 160t132 313l200 1133h-206l-117 -237l-164 -924q-33 -193 -116 -252.5t-202 -59.5q-71 0 -123 23t-75.5 72t-17.5 129h-275q-18 -222 113.5 -312.5t337.5 -90.5zM397 -7q205 0 368 96t183 212l-101 132q-17 -101 -112.5 -174.5t-209.5 -73.5
q-122 0 -174 84t-12 325q41 241 125 324.5t205 83.5q114 0 183.5 -73t51.5 -173l146 123q20 113 -109 215t-335 102q-230 0 -368.5 -154.5t-182.5 -446.5q-43 -290 34.5 -446t307.5 -156z" />
    <glyph glyph-name="h" unicode="h" horiz-adv-x="1258" 
d="M-19 0h281l278 1570h-281zM751 0h281l116 660q44 249 -20 392.5t-283 143.5q-228 0 -393 -142.5t-193 -295.5l124 -70q25 138 117.5 226t206.5 88q110 0 152.5 -76.5t6.5 -277.5z" />
    <glyph glyph-name="i" unicode="i" horiz-adv-x="544" 
d="M20 0h282l208 1186h-281zM290 1529l-38 -212h281l38 212h-281z" />
    <glyph glyph-name="j" unicode="j" horiz-adv-x="559" 
d="M-318 -460q271 0 429.5 99.5t207.5 381.5l206 1165h-280l-208 -1176q-28 -162 -108.5 -218t-211.5 -56zM305 1529l-38 -212h282l37 212h-281z" />
    <glyph glyph-name="k" unicode="k" horiz-adv-x="1207" 
d="M-18 0h281l64 371l219 186l191 -557h299l-263 748l457 438h-331l-514 -499l154 883h-281z" />
    <glyph glyph-name="l" unicode="l" horiz-adv-x="528" 
d="M4 0h282l276 1570h-281z" />
    <glyph glyph-name="m" unicode="m" horiz-adv-x="1859" 
d="M-18 0h281l176 999l-30 186h-219zM669 0h280l125 706q35 203 -16 346t-270 143q-192 0 -354.5 -142t-192.5 -313l138 -64q29 159 106 242t177 83q97 0 127 -75t0 -242zM1352 0h281l124 706q36 202 -13.5 345.5t-268.5 143.5q-192 0 -355.5 -144t-192.5 -311l140 -64
q27 159 104.5 242t177.5 83q97 0 125 -75t-2 -242z" />
    <glyph glyph-name="n" unicode="n" horiz-adv-x="1248" 
d="M-18 0h280l172 978l-24 208h-219zM741 0h281l114 652q44 249 -18 396.5t-282 147.5q-227 0 -393.5 -142.5t-193.5 -295.5l124 -70q25 138 118.5 226t207.5 88q110 0 151.5 -76.5t5.5 -277.5z" />
    <glyph glyph-name="o" unicode="o" horiz-adv-x="1281" 
d="M522 -9q299 0 462.5 152.5t209.5 453.5q45 296 -60.5 448.5t-405.5 152.5t-464 -150.5t-209 -450.5q-45 -297 60.5 -451.5t406.5 -154.5zM552 183q-126 0 -189.5 84.5t-26.5 327.5q38 242 137 327t224 85q126 0 190 -84.5t26 -327.5q-38 -241 -137 -326.5t-224 -85.5z
" />
    <glyph glyph-name="p" unicode="p" horiz-adv-x="1276" 
d="M-97 -443h281l253 1435l-28 193h-218zM638 -7q230 0 367 156.5t183 445.5q44 289 -32.5 445t-306.5 156q-204 0 -369 -98.5t-185 -212.5l101 -129q17 100 113.5 173t209.5 73q122 0 172.5 -85t12.5 -323q-40 -241 -124 -325t-205 -84q-114 0 -184.5 73t-52.5 175
l-146 -131q-21 -114 110.5 -211.5t335.5 -97.5z" />
    <glyph glyph-name="q" unicode="q" horiz-adv-x="1282" 
d="M692 -443h281l287 1628h-218l-99 -209zM397 -7q206 0 369.5 97.5t184.5 211.5l-101 131q-18 -101 -113 -174.5t-209 -73.5q-118 0 -168.5 81.5t-21.5 307.5q30 251 116.5 339.5t217.5 88.5q114 0 183 -73t52 -173l145 129q21 114 -109.5 212.5t-335.5 98.5
q-239 0 -378.5 -159.5t-174.5 -461.5q-34 -275 42 -428.5t301 -153.5z" />
    <glyph glyph-name="r" unicode="r" horiz-adv-x="1225" 
d="M827 615h281q52 300 -5 440.5t-278 140.5q-210 0 -356 -111.5t-175 -273.5l98 -68q18 100 98.5 179t195.5 79q101 0 141 -77t0 -309zM-19 0h281l171 970l-24 215h-219z" />
    <glyph glyph-name="s" unicode="s" horiz-adv-x="1250" 
d="M520 -9q226 0 392 85t191 262q25 175 -75.5 248t-311.5 108q-157 26 -246 55.5t-76 114.5q8 66 75.5 106t187.5 40q126 0 194 -58t69 -165l263 88q-6 174 -135.5 247.5t-359.5 73.5q-229 0 -388.5 -81.5t-182.5 -249.5q-25 -176 73 -252t295 -109q166 -32 258.5 -62
t79.5 -119q-9 -64 -79 -105t-194 -41q-135 0 -205 56t-70 177l-263 -88q10 -184 145.5 -257.5t362.5 -73.5z" />
    <glyph glyph-name="t" unicode="t" horiz-adv-x="1026" 
d="M537 -14q125 0 243 26l33 188q-75 -25 -149 -25q-77 0 -113 32t-18 134l115 650h375l35 194h-376l48 270h-282l-47 -270h-273l-35 -194h274l-126 -713q-29 -166 60 -229t236 -63z" />
    <glyph glyph-name="u" unicode="u" horiz-adv-x="1250" 
d="M802 0h217l208 1185h-280l-174 -984zM460 1186h-281l-116 -660q-44 -248 16.5 -392t283.5 -144q240 0 400.5 143t187.5 295l-125 65q-24 -138 -119.5 -223.5t-209.5 -85.5q-110 0 -148.5 76.5t-2.5 278.5z" />
    <glyph glyph-name="v" unicode="v" horiz-adv-x="1215" 
d="M293 0h385l582 1186h-299l-445 -995h-3l-93 995h-290z" />
    <glyph glyph-name="w" unicode="w" horiz-adv-x="1782" 
d="M202 0h379l353 904l39 -904h375l462 1185h-295l-334 -997h-3l-54 997h-283l-407 -999h-3l13 999h-288z" />
    <glyph glyph-name="x" unicode="x" horiz-adv-x="1240" 
d="M-79 0h316l351 478l188 -478h318l-278 593l479 592h-316l-339 -477l-178 477h-318l269 -592z" />
    <glyph glyph-name="y" unicode="y" horiz-adv-x="1165" 
d="M261 0h430l545 1185h-295l-432 -998h-2l-84 998h-293zM-90 -464q278 0 461.5 87t319.5 377l-261 1q-78 -168 -187 -220.5t-300 -52.5z" />
    <glyph glyph-name="z" unicode="z" horiz-adv-x="1050" 
d="M-35 0h891l34 193h-555l1 3l686 797l34 192h-877l-34 -193h551l-1 -1l-696 -798z" />
    <glyph glyph-name="braceleft" unicode="{" horiz-adv-x="732" 
d="M504 -364l34 186q-25 0 -57.5 4.5t-61 20.5t-43 51t-4.5 96l52 292q10 54 -1.5 91.5t-35.5 62.5t-51 39.5t-49 21t-30 8.5q9 3 33 7.5t55 15.5t63 32.5t56 57.5t34 90l59 333q11 61 38 98.5t61.5 57.5t69 27t59.5 7l35 186q-62 0 -125 -9t-121 -30.5t-107 -58.5
t-83.5 -93t-48.5 -134l-51 -292q-13 -77 -48 -120t-80.5 -61t-90.5 -18l-35 -189q47 0 86.5 -16.5t59.5 -55.5t8 -105l-45 -258q-14 -76 0.5 -134t49 -98t85 -65t110 -36.5t120.5 -11.5z" />
    <glyph glyph-name="bar" unicode="|" horiz-adv-x="370" 
d="M-83 -226h231l290 1648h-231z" />
    <glyph glyph-name="braceright" unicode="}" horiz-adv-x="719" 
d="M-94 -363q62 0 125 9t121 30t106.5 58.5t83.5 93t48 133.5l52 293q13 77 48 120.5t80.5 61t90.5 17.5l34 188q-46 0 -85 17t-59.5 56t-8.5 104l45 259q14 78 0 135.5t-49 97.5t-85 64t-109.5 35.5t-122.5 11.5l-34 -186q26 0 59 -4t61 -20t42.5 -50.5t3.5 -96.5l-52 -292
q-9 -53 3 -90.5t35.5 -62.5t50 -39.5t49.5 -21.5t29 -10q-8 -1 -32 -6t-55 -16t-63 -33t-56.5 -57.5t-34.5 -89.5l-58 -334q-10 -59 -37 -97t-62 -58t-69.5 -27.5t-60.5 -7.5z" />
    <glyph glyph-name="asciitilde" unicode="~" horiz-adv-x="839" 
d="M591 561q56 0 104 15.5t80 34.5t40 28l-103 154q-5 -6 -33.5 -23.5t-85.5 -17.5q-45 0 -74 10.5t-53.5 25t-57 25t-85.5 10.5q-60 0 -113 -17t-93 -40t-58 -39l105 -147q15 15 58 38.5t98 23.5q43 0 70.5 -12.5t53 -28.5t59.5 -28t88 -12z" />
    <glyph glyph-name="uni00A0" unicode="&#xa0;" horiz-adv-x="508" 
 />
    <glyph glyph-name="exclamdown" unicode="&#xa1;" horiz-adv-x="427" 
d="M376 801h-272l-198 -978h324zM416 955l41 231h-279l-42 -231h280z" />
    <glyph glyph-name="cent" unicode="&#xa2;" horiz-adv-x="1221" 
d="M613 1226h196l27 154h-196zM391 -30h196l28 160h-196zM523 70q276 0 408 131t170 265l-234 89q-28 -128 -111 -209.5t-203 -81.5q-117 0 -172.5 88.5t-32.5 295.5q26 255 123 345t225 90q120 0 173.5 -76.5t38.5 -218.5l265 86q7 148 -82 276t-365 128
q-315 0 -476.5 -161t-187.5 -482q-24 -262 66 -413.5t395 -151.5z" />
    <glyph glyph-name="sterling" unicode="&#xa3;" horiz-adv-x="1205" 
d="M115 -26l-74 165q11 6 38 23.5t59 48.5t59.5 75t36.5 102q14 81 13.5 142.5t-7.5 113.5t-14.5 102t-8 105.5t10.5 125.5q14 76 49.5 145.5t98.5 123.5t158 86t225 32q115 0 193.5 -24t128 -62.5t75.5 -81t37 -81.5l-243 -84q-9 40 -32.5 73.5t-66.5 54t-111 20.5
q-65 0 -114.5 -25t-81 -72.5t-43.5 -115.5q-11 -60 -11.5 -113t4 -103.5t8 -104t1 -114t-15.5 -134.5q-11 -65 -40.5 -118.5t-64.5 -89.5q23 5 54 8.5t59 3.5q48 0 84.5 -5t67.5 -13t62 -13t69 -6q65 1 106.5 6.5t68.5 15.5l48 -183q-12 -4 -49.5 -9.5t-92.5 -10t-118 -4.5
q-52 1 -89.5 7.5t-73 15.5t-77.5 16t-105 7q-105 0 -178.5 -17t-102.5 -34zM40 573l39 186h783l-38 -186h-784z" />
    <glyph glyph-name="currency" unicode="&#xa4;" horiz-adv-x="1232" 
d="M545 188q313 0 450.5 123t171.5 324t-58.5 327t-405.5 126t-450.5 -125t-171.5 -325q-34 -201 58.5 -325.5t405.5 -124.5zM73 78l275 233l-107 102l-276 -234zM975 78l143 101l-192 234l-142 -102zM573 354q-129 0 -183 64.5t-28 219.5q26 156 105 219.5t208 63.5
t182.5 -64t28.5 -219t-104.5 -219.5t-208.5 -64.5zM320 860l142 101l-191 233l-143 -101zM1004 860l276 233l-108 101l-275 -233z" />
    <glyph glyph-name="yen" unicode="&#xa5;" horiz-adv-x="1353" 
d="M183 463h901l27 152h-901zM138 211h901l27 152h-901zM409 0h284l91 516l646 834h-312l-439 -608h-2l-226 608h-305l353 -836z" />
    <glyph glyph-name="brokenbar" unicode="&#xa6;" horiz-adv-x="369" 
d="M-86 -156h231l118 660h-233zM76 764h233l116 658h-233z" />
    <glyph glyph-name="section" unicode="&#xa7;" horiz-adv-x="1239" 
d="M447 -278q85 0 158 12t134.5 34.5t108 53.5t77 69.5t39.5 81.5q13 52 4 93t-29.5 72.5t-42 51.5t-34.5 29q17 9 46.5 22.5t64.5 33t68.5 47.5t58.5 65t33 87q11 57 -8 104.5t-60.5 88t-97 74t-118.5 61.5t-127 53q-55 28 -108.5 53t-95.5 51t-65 55t-19 63q6 43 40 71.5
t92 43.5t137 15q71 0 121.5 -12.5t74.5 -43t14 -84.5l-11 -56h238l10 56q11 60 -9.5 113t-73 93.5t-137.5 63.5t-206 23q-106 0 -194 -18t-154 -50.5t-107 -78t-53 -99.5q-8 -40 -2 -78t23 -70.5t39 -57.5t44 -41q-25 -11 -67.5 -30t-88 -48.5t-79 -74t-43.5 -108.5
q-10 -71 16.5 -124.5t78.5 -93.5t118.5 -70.5t134.5 -57.5q76 -31 142.5 -59t116.5 -55.5t76 -59t18 -70.5q-8 -45 -45 -76t-95.5 -48t-134.5 -17q-70 0 -119 14t-71.5 45t-13.5 84l9 53h-235l-11 -56q-10 -61 8.5 -114t68.5 -93.5t135 -63t208 -22.5zM741 308
q-45 21 -98.5 41.5t-106 41t-95.5 42.5q-58 22 -100 48t-63 57.5t-14 72.5q7 33 28.5 60.5t51 49.5t59.5 39t52 27q34 -18 77 -36t87.5 -37t82.5 -39q42 -18 84.5 -39t75.5 -44.5t50 -51.5t9 -61q-7 -33 -28.5 -60.5t-50 -48.5t-56 -36t-45.5 -26z" />
    <glyph glyph-name="dieresis" unicode="&#xa8;" horiz-adv-x="859" 
d="M343 1200q37 0 67.5 28.5t30.5 68.5q0 32 -21 53t-52 21q-39 0 -69 -28.5t-30 -68.5q0 -32 20.5 -53t53.5 -21zM702 1200q39 0 68.5 28.5t29.5 68.5q0 32 -20 53t-53 21q-38 0 -68 -28.5t-30 -68.5q0 -32 21 -53t52 -21z" />
    <glyph glyph-name="copyright" unicode="&#xa9;" horiz-adv-x="1368" 
d="M556 -18q172 0 299.5 42.5t214.5 115.5t138 169t70 203l55 318q20 107 3 202.5t-78.5 169t-174 115t-286.5 41.5q-171 0 -297.5 -41.5t-213 -114.5t-137.5 -168.5t-70 -203.5l-57 -318q-19 -106 -1.5 -202t79 -169.5t173.5 -116t283 -42.5zM579 116q-113 0 -188.5 22
t-120.5 60t-65 89.5t-21 111.5t9 122l52 298q10 59 30.5 116.5t58.5 109.5t97 93t143.5 64t199.5 23q118 0 195.5 -23t121.5 -63.5t62.5 -92.5t18.5 -110t-10 -118l-53 -302q-10 -57 -30 -114.5t-56.5 -109t-94.5 -91t-144 -62.5t-205 -23zM601 255q76 0 142 17.5t117 50.5
t84 80.5t43 106.5l12 66h-156l-6 -36q-4 -20 -12 -42t-22.5 -42t-38.5 -35.5t-59 -25t-84 -9.5q-62 0 -96 14.5t-47 39t-12.5 54.5t5.5 61l42 232q7 32 17.5 62t32.5 54.5t61.5 38.5t100.5 14q50 0 82 -8.5t50 -23t24.5 -34.5t6.5 -41t-4 -42l-7 -38h156l11 63q9 49 0.5 89
t-32 70.5t-62 51.5t-89.5 32t-114 11q-76 0 -141 -18.5t-115.5 -54.5t-82.5 -87.5t-46 -118.5l-50 -285q-11 -61 3.5 -110t53 -84t97.5 -54t135 -19z" />
    <glyph glyph-name="ordfeminine" unicode="&#xaa;" horiz-adv-x="750" 
d="M533 831h145l53 300q21 116 -30.5 174t-212.5 58q-143 0 -217 -40.5t-90 -111.5l95 -49q9 47 60 74t125 27q81 0 103 -30t10 -101l-47 -267zM330 825q122 0 202 42t91 107l-73 22q-6 -35 -47.5 -55t-117.5 -20q-61 0 -83.5 14.5t-16.5 47.5q5 31 36 48.5t97 20.5
q73 1 166 3l15 84q-114 0 -194 -5q-142 -6 -204 -46.5t-72 -109.5q-11 -77 36 -115t165 -38z" />
    <glyph glyph-name="guillemotleft" unicode="&#xab;" horiz-adv-x="1252" 
d="M379 80h282l-348 414l499 414h-291l-491 -414zM829 80h282l-348 414l498 414h-290l-492 -414z" />
    <glyph glyph-name="logicalnot" unicode="&#xac;" horiz-adv-x="939" 
d="M626 195h187l68 382h-813l-32 -174h627z" />
    <glyph glyph-name="uni00AD" unicode="&#xad;" horiz-adv-x="627" 
d="M27 385h498l33 186h-498z" />
    <glyph glyph-name="registered" unicode="&#xae;" horiz-adv-x="1242" 
d="M560 417q156 0 270.5 34.5t193 96.5t123.5 143.5t61 174.5l27 155q17 95 1 178t-71.5 145.5t-158 98t-258.5 35.5q-155 0 -270 -36t-193 -99t-123 -144t-60 -170l-26 -156q-13 -70 -6 -137.5t38 -125.5t89 -101t148 -67.5t215 -24.5zM579 546q-94 0 -160.5 13.5
t-109 39.5t-64 65.5t-25 91.5t7.5 117l25 139q13 80 45.5 143t88 106t140.5 66t205 23q95 0 161.5 -14t108.5 -41.5t63.5 -68t25 -93t-8.5 -117.5l-25 -137q-13 -79 -44.5 -141t-87 -104.5t-140.5 -65t-206 -22.5zM368 645h136l43 244h146l21 -244h140l-38 254
q44 10 70 48.5t33 83.5l12 65q8 45 -0.5 80t-41 55t-93.5 20h-322zM565 987l26 160h153q27 0 38.5 -6.5t13 -19.5t-2.5 -34l-5 -34q-7 -41 -23.5 -53.5t-45.5 -12.5h-154z" />
    <glyph glyph-name="macron" unicode="&#xaf;" horiz-adv-x="947" 
d="M242 1298h645l18 105h-644z" />
    <glyph glyph-name="degree" unicode="&#xb0;" horiz-adv-x="291" 
d="M263 1160q45 0 82.5 31t44.5 75q11 57 -20 97.5t-86 40.5q-44 0 -81 -30t-46 -75q-10 -56 21.5 -97.5t84.5 -41.5zM266 1241q-15 0 -24.5 12t-6.5 29q4 20 16 30.5t28 10.5q17 0 25.5 -11t4.5 -30q-3 -20 -14 -30.5t-29 -10.5z" />
    <glyph glyph-name="plusminus" unicode="&#xb1;" horiz-adv-x="577" 
d="M171 400h184l33 194h165l31 171h-164l33 194h-183l-34 -194h-166l-32 -171h168zM-11 128h439l33 172h-439z" />
    <glyph glyph-name="uni00B2" unicode="&#xb2;" horiz-adv-x="730" 
d="M74 750h618l16 97h-478q5 26 62.5 52.5t185.5 68.5q126 48 205 94.5t87 123.5q7 67 -47 122t-234 55t-255.5 -63t-91.5 -151h133q11 60 64 88t141 28q83 0 123.5 -16t32.5 -61q-6 -42 -60.5 -71t-185.5 -73q-145 -47 -218 -97t-85 -114z" />
    <glyph glyph-name="uni00B3" unicode="&#xb3;" horiz-adv-x="755" 
d="M396 744q192 0 264.5 51t80.5 130q5 56 -25.5 92.5t-137.5 37.5q108 2 155.5 39.5t54.5 95.5q8 73 -47.5 123t-245.5 50q-184 0 -258 -60.5t-91 -159.5h132q14 73 65 98.5t143 25.5q94 0 134 -23t30 -78q-5 -37 -57 -52.5t-172 -16.5l-16 -88q129 0 170 -14.5t36 -52.5
q-9 -55 -58 -79t-143 -24q-97 0 -137 25t-28 92h-133q-17 -96 39.5 -154t244.5 -58z" />
    <glyph glyph-name="acute" unicode="&#xb4;" horiz-adv-x="642" 
d="M240 1212h136l251 191h-199z" />
    <glyph glyph-name="uni00B5" unicode="&#xb5;" horiz-adv-x="1246" 
d="M-108 -443h281l128 728l-123 901zM802 0h217l208 1185h-280l-174 -984zM460 1186h-281l-116 -660q-44 -248 16.5 -392t283.5 -144q240 0 400.5 143t187.5 295l-125 65q-24 -138 -119.5 -223.5t-209.5 -85.5q-110 0 -148.5 76.5t-2.5 278.5z" />
    <glyph glyph-name="paragraph" unicode="&#xb6;" horiz-adv-x="1176" 
d="M356 -156h183l232 1320h245l-232 -1320h185l266 1506h-640q-151 0 -254.5 -38t-163.5 -114t-81 -189q-17 -98 3 -170.5t72 -119.5t130.5 -70t179.5 -23h12z" />
    <glyph glyph-name="periodcentered" unicode="&#xb7;" horiz-adv-x="447" 
d="M126 777l-39 -222h264l39 222h-264z" />
    <glyph glyph-name="cedilla" unicode="&#xb8;" horiz-adv-x="771" 
d="M180 -331q54 0 107 11t98.5 32.5t75.5 53.5t37 73q10 56 -24.5 83t-97.5 27q-50 0 -94 -14.5t-68 -33.5l-13 -50q17 10 40.5 17t44.5 7q24 0 36.5 -7.5t8.5 -25.5q-4 -23 -36.5 -38t-91.5 -15q-38 0 -71 5.5t-56 11.5l-60 -118q39 -9 81.5 -14t82.5 -5zM201 -149l79 149
h-115l-65 -137z" />
    <glyph glyph-name="uni00B9" unicode="&#xb9;" horiz-adv-x="674" 
d="M78 750h561l18 97h-214l91 511h-110l-255 -50l-18 -103l230 40l-70 -398h-216z" />
    <glyph glyph-name="ordmasculine" unicode="&#xba;" horiz-adv-x="716" 
d="M415 826q162 0 252.5 53t111.5 176l15 81q21 124 -53.5 177.5t-238.5 53.5q-163 0 -253.5 -53.5t-112.5 -177.5l-15 -81q-22 -122 54 -175.5t240 -53.5zM429 937q-77 0 -108 25.5t-20 90.5l16 86q12 65 51.5 90.5t116.5 25.5q76 0 108 -25.5t21 -90.5l-16 -86
q-12 -65 -52 -90.5t-117 -25.5z" />
    <glyph glyph-name="guillemotright" unicode="&#xbb;" horiz-adv-x="1255" 
d="M425 80h291l490 414l-348 414h-283l348 -414zM-25 80h291l491 414l-349 414h-283l350 -414z" />
    <glyph glyph-name="onequarter" unicode="&#xbc;" horiz-adv-x="1895" 
d="M78 750h561l18 97h-214l91 511h-110l-255 -50l-18 -103l230 40l-70 -398h-216zM271 0h146l1171 1348h-146zM1476 0h131l25 137h124l16 91h-125l68 380h-204l-391 -379l-16 -92h396zM1273 228l286 289h8l-51 -289h-243z" />
    <glyph glyph-name="onehalf" unicode="&#xbd;" horiz-adv-x="1888" 
d="M78 750h561l18 97h-214l91 511h-110l-255 -50l-18 -103l230 40l-70 -398h-216zM271 0h146l1171 1348h-146zM1100 0h618l16 97h-478q5 26 62.5 52.5t185.5 68.5q126 48 205 94.5t87 123.5q7 67 -47 122t-234 55t-255.5 -63t-91.5 -151h133q11 60 64 88t141 28
q83 0 123.5 -16t32.5 -61q-6 -42 -60.5 -71t-185.5 -73q-145 -47 -218 -97t-85 -114z" />
    <glyph glyph-name="threequarters" unicode="&#xbe;" horiz-adv-x="1975" 
d="M396 744q192 0 264.5 51t80.5 130q5 56 -25.5 92.5t-137.5 37.5q108 2 155.5 39.5t54.5 95.5q8 73 -47.5 123t-245.5 50q-184 0 -258 -60.5t-91 -159.5h132q14 73 65 98.5t143 25.5q94 0 134 -23t30 -78q-5 -37 -57 -52.5t-172 -16.5l-16 -88q129 0 170 -14.5t36 -52.5
q-9 -55 -58 -79t-143 -24q-97 0 -137 25t-28 92h-133q-17 -96 39.5 -154t244.5 -58zM352 0h146l1171 1348h-146zM1556 0h131l25 137h124l16 91h-125l68 380h-204l-391 -379l-16 -92h396zM1353 228l286 289h8l-51 -289h-243z" />
    <glyph glyph-name="questiondown" unicode="&#xbf;" horiz-adv-x="1095" 
d="M727 816h-275q-19 -94 -64 -166.5t-147 -148.5q-87 -63 -169.5 -152t-97.5 -227q-20 -157 78.5 -232.5t357.5 -75.5q254 0 394.5 96t183.5 336h-273q-24 -135 -92.5 -194.5t-185.5 -59.5t-156.5 45t-25.5 132q14 81 73 136t133 109q105 72 173.5 165.5t92.5 236.5z
M741 965l39 221h-264l-39 -221h264z" />
    <glyph glyph-name="Agrave" unicode="&#xc0;" horiz-adv-x="1404" 
d="M-46 0h293l164 348h492l40 -348h294l-202 1352h-404zM491 536l313 649h3l82 -649h-398zM897 1405h130l-122 191h-191z" />
    <glyph glyph-name="Aacute" unicode="&#xc1;" horiz-adv-x="1404" 
d="M-46 0h293l164 348h492l40 -348h294l-202 1352h-404zM491 536l313 649h3l82 -649h-398zM671 1392h136l251 191h-199z" />
    <glyph glyph-name="Acircumflex" unicode="&#xc2;" horiz-adv-x="1404" 
d="M-46 0h293l164 348h492l40 -348h294l-202 1352h-404zM491 536l313 649h3l82 -649h-398zM547 1401h165l161 135l114 -135h165l-179 195h-181z" />
    <glyph glyph-name="Atilde" unicode="&#xc3;" horiz-adv-x="1404" 
d="M-46 0h293l164 348h492l40 -348h294l-202 1352h-404zM491 536l313 649h3l82 -649h-398zM974 1420q62 0 104.5 20.5t68 50.5t39 59.5t17.5 48.5h-137q-3 -12 -14 -28t-30 -27.5t-44 -11.5q-31 0 -52 11.5t-41.5 27t-47 26.5t-67.5 11q-63 0 -106 -19t-69.5 -48.5
t-40 -58.5t-18.5 -50h139q3 12 13.5 28.5t29.5 27.5t47 11t47.5 -12t41 -27.5t49.5 -27.5t71 -12z" />
    <glyph glyph-name="Adieresis" unicode="&#xc4;" horiz-adv-x="1404" 
d="M-46 0h293l164 348h492l40 -348h294l-202 1352h-404zM491 536l313 649h3l82 -649h-398zM670 1414q37 0 67.5 28.5t30.5 68.5q0 32 -21 53t-52 21q-39 0 -69 -28.5t-30 -68.5q0 -32 20.5 -53t53.5 -21zM1029 1414q39 0 68.5 28.5t29.5 68.5q0 32 -20 53t-53 21
q-38 0 -68 -28.5t-30 -68.5q0 -32 21 -53t52 -21z" />
    <glyph glyph-name="Aring" unicode="&#xc5;" horiz-adv-x="1404" 
d="M-46 0h293l164 348h492l40 -348h294l-202 1352h-404zM491 536l313 649h3l82 -649h-398zM851 1389q42 0 78.5 20t60.5 54t30 76q11 63 -26 105.5t-100 42.5q-43 0 -78.5 -19.5t-59.5 -53t-31 -75.5q-10 -64 26.5 -107t99.5 -43zM865 1491q-18 0 -29 14t-9 34q4 20 19.5 33
t32.5 13q20 0 31.5 -13t7.5 -33q-2 -20 -17.5 -34t-35.5 -14z" />
    <glyph glyph-name="AE" unicode="&#xc6;" horiz-adv-x="1946" 
d="M-46 0h300l785 1247l20 103h-246zM308 285h586l34 189h-528zM789 0h948l34 194h-663l70 400h620l33 185h-620l66 377h663l35 194h-948z" />
    <glyph glyph-name="Ccedilla" unicode="&#xc7;" horiz-adv-x="1313" 
d="M545 -8q337 0 481 160.5t184 390.5h-287q-35 -204 -122.5 -280.5t-227.5 -76.5q-144 0 -207.5 89t-13.5 403q51 323 150.5 406t242.5 83q141 0 199.5 -72t25.5 -284h287q36 239 -53 395t-427 156q-336 0 -496.5 -166.5t-216.5 -517.5q-55 -343 44.5 -514.5t436.5 -171.5z
M480 -331q54 0 107 11t98.5 32.5t75.5 53.5t37 73q10 56 -24.5 83t-97.5 27q-50 0 -94 -14.5t-68 -33.5l-13 -50q17 10 40.5 17t44.5 7q24 0 36.5 -7.5t8.5 -25.5q-4 -23 -36.5 -38t-91.5 -15q-38 0 -71 5.5t-56 11.5l-60 -118q39 -9 81.5 -14t82.5 -5zM501 -149l79 149
h-115l-65 -137z" />
    <glyph glyph-name="Egrave" unicode="&#xc8;" horiz-adv-x="1125" 
d="M-32 0h948l34 194h-663l70 400h620l33 185h-620l66 377h663l35 194h-948zM731 1405h130l-122 191h-191z" />
    <glyph glyph-name="Eacute" unicode="&#xc9;" horiz-adv-x="1125" 
d="M-32 0h948l34 194h-663l70 400h620l33 185h-620l66 377h663l35 194h-948zM506 1392h136l251 191h-199z" />
    <glyph glyph-name="Ecircumflex" unicode="&#xca;" horiz-adv-x="1125" 
d="M-32 0h948l34 194h-663l70 400h620l33 185h-620l66 377h663l35 194h-948zM381 1401h165l161 135l114 -135h165l-179 195h-181z" />
    <glyph glyph-name="Edieresis" unicode="&#xcb;" horiz-adv-x="1125" 
d="M-32 0h948l34 194h-663l70 400h620l33 185h-620l66 377h663l35 194h-948zM505 1414q37 0 67.5 28.5t30.5 68.5q0 32 -21 53t-52 21q-39 0 -69 -28.5t-30 -68.5q0 -32 20.5 -53t53.5 -21zM864 1414q39 0 68.5 28.5t29.5 68.5q0 32 -20 53t-53 21q-38 0 -68 -28.5
t-30 -68.5q0 -32 21 -53t52 -21z" />
    <glyph glyph-name="Igrave" unicode="&#xcc;" horiz-adv-x="580" 
d="M27 0h283l239 1350h-283zM477 1405h130l-122 191h-191z" />
    <glyph glyph-name="Iacute" unicode="&#xcd;" horiz-adv-x="580" 
d="M27 0h283l239 1350h-283zM251 1392h136l251 191h-199z" />
    <glyph glyph-name="Icircumflex" unicode="&#xce;" horiz-adv-x="580" 
d="M27 0h283l239 1350h-283zM126 1401h165l161 135l114 -135h165l-179 195h-181z" />
    <glyph glyph-name="Idieresis" unicode="&#xcf;" horiz-adv-x="580" 
d="M27 0h283l239 1350h-283zM250 1414q37 0 67.5 28.5t30.5 68.5q0 32 -21 53t-52 21q-39 0 -69 -28.5t-30 -68.5q0 -32 20.5 -53t53.5 -21zM609 1414q39 0 68.5 28.5t29.5 68.5q0 32 -20 53t-53 21q-38 0 -68 -28.5t-30 -68.5q0 -32 21 -53t52 -21z" />
    <glyph glyph-name="Eth" unicode="&#xd0;" horiz-adv-x="1339" 
d="M-37 583h619l30 186h-618zM18 0h647q271 0 409 147.5t198 528.5q57 373 -27 523.5t-354 150.5h-635zM336 194l169 962h281q145 0 199.5 -83.5t1.5 -396.5q-54 -319 -139.5 -400.5t-230.5 -81.5h-281z" />
    <glyph glyph-name="Ntilde" unicode="&#xd1;" horiz-adv-x="1491" 
d="M-21 0h282l203 1147h3l354 -1147h443l238 1350h-283l-202 -1133h-4l-351 1133h-445zM1006 1420q62 0 104.5 20.5t68 50.5t39 59.5t17.5 48.5h-137q-3 -12 -14 -28t-30 -27.5t-44 -11.5q-31 0 -52 11.5t-41.5 27t-47 26.5t-67.5 11q-63 0 -106 -19t-69.5 -48.5t-40 -58.5
t-18.5 -50h139q3 12 13.5 28.5t29.5 27.5t47 11t47.5 -12t41 -27.5t49.5 -27.5t71 -12z" />
    <glyph glyph-name="Ograve" unicode="&#xd2;" horiz-adv-x="1369" 
d="M565 -10q333 0 508 169t229 516q53 347 -54.5 517t-441.5 170t-509 -169.5t-229 -517.5q-52 -346 55 -515.5t442 -169.5zM599 184q-151 0 -224 90t-23 401q50 315 160 403.5t260 88.5t223.5 -88.5t22.5 -403.5q-50 -311 -160 -401t-259 -90zM860 1405h130l-122 191h-191z
" />
    <glyph glyph-name="Oacute" unicode="&#xd3;" horiz-adv-x="1369" 
d="M565 -10q333 0 508 169t229 516q53 347 -54.5 517t-441.5 170t-509 -169.5t-229 -517.5q-52 -346 55 -515.5t442 -169.5zM599 184q-151 0 -224 90t-23 401q50 315 160 403.5t260 88.5t223.5 -88.5t22.5 -403.5q-50 -311 -160 -401t-259 -90zM634 1392h136l251 191h-199z
" />
    <glyph glyph-name="Ocircumflex" unicode="&#xd4;" horiz-adv-x="1369" 
d="M565 -10q333 0 508 169t229 516q53 347 -54.5 517t-441.5 170t-509 -169.5t-229 -517.5q-52 -346 55 -515.5t442 -169.5zM599 184q-151 0 -224 90t-23 401q50 315 160 403.5t260 88.5t223.5 -88.5t22.5 -403.5q-50 -311 -160 -401t-259 -90zM509 1401h165l161 135
l114 -135h165l-179 195h-181z" />
    <glyph glyph-name="Otilde" unicode="&#xd5;" horiz-adv-x="1369" 
d="M565 -10q333 0 508 169t229 516q53 347 -54.5 517t-441.5 170t-509 -169.5t-229 -517.5q-52 -346 55 -515.5t442 -169.5zM599 184q-151 0 -224 90t-23 401q50 315 160 403.5t260 88.5t223.5 -88.5t22.5 -403.5q-50 -311 -160 -401t-259 -90zM937 1420q62 0 104.5 20.5
t68 50.5t39 59.5t17.5 48.5h-137q-3 -12 -14 -28t-30 -27.5t-44 -11.5q-31 0 -52 11.5t-41.5 27t-47 26.5t-67.5 11q-63 0 -106 -19t-69.5 -48.5t-40 -58.5t-18.5 -50h139q3 12 13.5 28.5t29.5 27.5t47 11t47.5 -12t41 -27.5t49.5 -27.5t71 -12z" />
    <glyph glyph-name="Odieresis" unicode="&#xd6;" horiz-adv-x="1369" 
d="M565 -10q333 0 508 169t229 516q53 347 -54.5 517t-441.5 170t-509 -169.5t-229 -517.5q-52 -346 55 -515.5t442 -169.5zM599 184q-151 0 -224 90t-23 401q50 315 160 403.5t260 88.5t223.5 -88.5t22.5 -403.5q-50 -311 -160 -401t-259 -90zM633 1414q37 0 67.5 28.5
t30.5 68.5q0 32 -21 53t-52 21q-39 0 -69 -28.5t-30 -68.5q0 -32 20.5 -53t53.5 -21zM992 1414q39 0 68.5 28.5t29.5 68.5q0 32 -20 53t-53 21q-38 0 -68 -28.5t-30 -68.5q0 -32 21 -53t52 -21z" />
    <glyph glyph-name="multiply" unicode="&#xd7;" horiz-adv-x="558" 
d="M358 224l139 122l-316 385l-139 -119zM99 224l444 388l-103 119l-445 -385z" />
    <glyph glyph-name="Oslash" unicode="&#xd8;" horiz-adv-x="1271" 
d="M-69 0h151l1257 1348h-148zM565 -10q333 0 508 169t229 516q53 347 -54.5 517t-441.5 170t-509 -169.5t-229 -517.5q-52 -346 55 -515.5t442 -169.5zM599 184q-151 0 -224 90t-23 401q50 315 160 403.5t260 88.5t223.5 -88.5t22.5 -403.5q-50 -311 -160 -401t-259 -90z
" />
    <glyph glyph-name="Ugrave" unicode="&#xd9;" horiz-adv-x="1359" 
d="M554 -8q288 0 450.5 102.5t205.5 343.5l160 912h-284l-155 -880q-27 -156 -106.5 -219.5t-236.5 -63.5q-155 0 -212 64t-30 219l156 880h-285l-160 -912q-43 -241 83 -343.5t414 -102.5zM865 1405h130l-122 191h-191z" />
    <glyph glyph-name="Uacute" unicode="&#xda;" horiz-adv-x="1359" 
d="M554 -8q288 0 450.5 102.5t205.5 343.5l160 912h-284l-155 -880q-27 -156 -106.5 -219.5t-236.5 -63.5q-155 0 -212 64t-30 219l156 880h-285l-160 -912q-43 -241 83 -343.5t414 -102.5zM641 1392h136l251 191h-199z" />
    <glyph glyph-name="Ucircumflex" unicode="&#xdb;" horiz-adv-x="1359" 
d="M554 -8q288 0 450.5 102.5t205.5 343.5l160 912h-284l-155 -880q-27 -156 -106.5 -219.5t-236.5 -63.5q-155 0 -212 64t-30 219l156 880h-285l-160 -912q-43 -241 83 -343.5t414 -102.5zM516 1401h165l161 135l114 -135h165l-179 195h-181z" />
    <glyph glyph-name="Udieresis" unicode="&#xdc;" horiz-adv-x="1359" 
d="M554 -8q288 0 450.5 102.5t205.5 343.5l160 912h-284l-155 -880q-27 -156 -106.5 -219.5t-236.5 -63.5q-155 0 -212 64t-30 219l156 880h-285l-160 -912q-43 -241 83 -343.5t414 -102.5zM639 1414q37 0 67.5 28.5t30.5 68.5q0 32 -21 53t-52 21q-39 0 -69 -28.5
t-30 -68.5q0 -32 20.5 -53t53.5 -21zM998 1414q39 0 68.5 28.5t29.5 68.5q0 32 -20 53t-53 21q-38 0 -68 -28.5t-30 -68.5q0 -32 21 -53t52 -21z" />
    <glyph glyph-name="Yacute" unicode="&#xdd;" horiz-adv-x="1349" 
d="M409 0h284l91 516l646 834h-312l-439 -608h-2l-226 608h-305l353 -836zM634 1392h136l251 191h-199z" />
    <glyph glyph-name="Thorn" unicode="&#xde;" horiz-adv-x="1215" 
d="M-40 0h282l40 228h466q110 0 181 35t111.5 104t59.5 174l49 279q18 99 -1 168.5t-78 106.5t-165 37h-463l38 218h-282zM314 412l94 534h357q49 0 72.5 -19.5t28.5 -55.5t-5 -86l-36 -206q-10 -51 -27 -88.5t-47.5 -58t-79.5 -20.5h-357z" />
    <glyph glyph-name="germandbls" unicode="&#xdf;" horiz-adv-x="1327" 
d="M-21 0h282l171 972q14 75 41.5 132.5t68.5 97t95.5 59.5t122.5 20q112 0 155 -46.5t30 -127.5q-7 -47 -31 -86t-52.5 -76t-53 -78t-32.5 -92q-7 -41 5 -75.5t33 -65.5t41.5 -64t32.5 -71.5t4 -87.5q-10 -56 -41 -98t-86 -68.5t-135.5 -40t-186.5 -13.5l-34 -191
q178 0 316 21t235 67t154 120t75 181q12 68 -0.5 119.5t-36 89t-49 67.5t-42 56.5t-11.5 54.5q5 35 29 68.5t55 72t58 89t38 119.5q11 71 -7.5 134t-71 110.5t-142.5 74t-220 26.5q-142 0 -252.5 -35.5t-189.5 -103t-129 -162t-71 -213.5z" />
    <glyph glyph-name="agrave" unicode="&#xe0;" horiz-adv-x="1270" 
d="M390 -12q82 0 151.5 14t125 37t94 49.5t58.5 53.5l-2 -142h235l132 746q29 164 -18 262.5t-162 143.5t-291 45q-99 0 -190.5 -18.5t-169.5 -58t-137.5 -105t-95.5 -160.5l262 -75q28 84 75 133.5t105.5 71.5t124.5 22q81 0 134.5 -24t75.5 -78.5t7 -144.5l-10 -54h-380
q-67 0 -135 -9.5t-129.5 -33t-110.5 -65t-81 -106t-40 -155.5q-14 -137 26 -212.5t128.5 -106t217.5 -30.5zM483 170q-61 0 -104 15t-62.5 56t-11.5 117q6 61 28 99t55.5 58.5t75.5 28t89 7.5h310l-44 -251q-25 -33 -74.5 -63t-116.5 -48.5t-145 -18.5zM781 1236h130
l-122 191h-191z" />
    <glyph glyph-name="aacute" unicode="&#xe1;" horiz-adv-x="1270" 
d="M390 -12q82 0 151.5 14t125 37t94 49.5t58.5 53.5l-2 -142h235l132 746q29 164 -18 262.5t-162 143.5t-291 45q-99 0 -190.5 -18.5t-169.5 -58t-137.5 -105t-95.5 -160.5l262 -75q28 84 75 133.5t105.5 71.5t124.5 22q81 0 134.5 -24t75.5 -78.5t7 -144.5l-10 -54h-380
q-67 0 -135 -9.5t-129.5 -33t-110.5 -65t-81 -106t-40 -155.5q-14 -137 26 -212.5t128.5 -106t217.5 -30.5zM483 170q-61 0 -104 15t-62.5 56t-11.5 117q6 61 28 99t55.5 58.5t75.5 28t89 7.5h310l-44 -251q-25 -33 -74.5 -63t-116.5 -48.5t-145 -18.5zM560 1228h136
l251 191h-199z" />
    <glyph glyph-name="acircumflex" unicode="&#xe2;" horiz-adv-x="1270" 
d="M390 -12q82 0 151.5 14t125 37t94 49.5t58.5 53.5l-2 -142h235l132 746q29 164 -18 262.5t-162 143.5t-291 45q-99 0 -190.5 -18.5t-169.5 -58t-137.5 -105t-95.5 -160.5l262 -75q28 84 75 133.5t105.5 71.5t124.5 22q81 0 134.5 -24t75.5 -78.5t7 -144.5l-10 -54h-380
q-67 0 -135 -9.5t-129.5 -33t-110.5 -65t-81 -106t-40 -155.5q-14 -137 26 -212.5t128.5 -106t217.5 -30.5zM483 170q-61 0 -104 15t-62.5 56t-11.5 117q6 61 28 99t55.5 58.5t75.5 28t89 7.5h310l-44 -251q-25 -33 -74.5 -63t-116.5 -48.5t-145 -18.5zM436 1237h165
l161 135l114 -135h165l-179 195h-181z" />
    <glyph glyph-name="atilde" unicode="&#xe3;" horiz-adv-x="1270" 
d="M390 -12q82 0 151.5 14t125 37t94 49.5t58.5 53.5l-2 -142h235l132 746q29 164 -18 262.5t-162 143.5t-291 45q-99 0 -190.5 -18.5t-169.5 -58t-137.5 -105t-95.5 -160.5l262 -75q28 84 75 133.5t105.5 71.5t124.5 22q81 0 134.5 -24t75.5 -78.5t7 -144.5l-10 -54h-380
q-67 0 -135 -9.5t-129.5 -33t-110.5 -65t-81 -106t-40 -155.5q-14 -137 26 -212.5t128.5 -106t217.5 -30.5zM483 170q-61 0 -104 15t-62.5 56t-11.5 117q6 61 28 99t55.5 58.5t75.5 28t89 7.5h310l-44 -251q-25 -33 -74.5 -63t-116.5 -48.5t-145 -18.5zM863 1256
q62 0 104.5 20.5t68 50.5t39 59.5t17.5 48.5h-137q-3 -12 -14 -28t-30 -27.5t-44 -11.5q-31 0 -52 11.5t-41.5 27t-47 26.5t-67.5 11q-63 0 -106 -19t-69.5 -48.5t-40 -58.5t-18.5 -50h139q3 12 13.5 28.5t29.5 27.5t47 11t47.5 -12t41 -27.5t49.5 -27.5t71 -12z" />
    <glyph glyph-name="adieresis" unicode="&#xe4;" horiz-adv-x="1270" 
d="M390 -12q82 0 151.5 14t125 37t94 49.5t58.5 53.5l-2 -142h235l132 746q29 164 -18 262.5t-162 143.5t-291 45q-99 0 -190.5 -18.5t-169.5 -58t-137.5 -105t-95.5 -160.5l262 -75q28 84 75 133.5t105.5 71.5t124.5 22q81 0 134.5 -24t75.5 -78.5t7 -144.5l-10 -54h-380
q-67 0 -135 -9.5t-129.5 -33t-110.5 -65t-81 -106t-40 -155.5q-14 -137 26 -212.5t128.5 -106t217.5 -30.5zM483 170q-61 0 -104 15t-62.5 56t-11.5 117q6 61 28 99t55.5 58.5t75.5 28t89 7.5h310l-44 -251q-25 -33 -74.5 -63t-116.5 -48.5t-145 -18.5zM559 1250
q37 0 67.5 28.5t30.5 68.5q0 32 -21 53t-52 21q-39 0 -69 -28.5t-30 -68.5q0 -32 20.5 -53t53.5 -21zM918 1250q39 0 68.5 28.5t29.5 68.5q0 32 -20 53t-53 21q-38 0 -68 -28.5t-30 -68.5q0 -32 21 -53t52 -21z" />
    <glyph glyph-name="aring" unicode="&#xe5;" horiz-adv-x="1270" 
d="M390 -12q82 0 151.5 14t125 37t94 49.5t58.5 53.5l-2 -142h235l132 746q29 164 -18 262.5t-162 143.5t-291 45q-99 0 -190.5 -18.5t-169.5 -58t-137.5 -105t-95.5 -160.5l262 -75q28 84 75 133.5t105.5 71.5t124.5 22q81 0 134.5 -24t75.5 -78.5t7 -144.5l-10 -54h-380
q-67 0 -135 -9.5t-129.5 -33t-110.5 -65t-81 -106t-40 -155.5q-14 -137 26 -212.5t128.5 -106t217.5 -30.5zM483 170q-61 0 -104 15t-62.5 56t-11.5 117q6 61 28 99t55.5 58.5t75.5 28t89 7.5h310l-44 -251q-25 -33 -74.5 -63t-116.5 -48.5t-145 -18.5zM741 1225
q42 0 78.5 20t60.5 54t30 76q11 63 -26 105.5t-100 42.5q-43 0 -78.5 -19.5t-59.5 -53t-31 -75.5q-10 -64 26.5 -107t99.5 -43zM755 1327q-18 0 -29 14t-9 34q4 20 19.5 33t32.5 13q20 0 31.5 -13t7.5 -33q-2 -20 -17.5 -34t-35.5 -14z" />
    <glyph glyph-name="ae" unicode="&#xe6;" horiz-adv-x="2075" 
d="M1066 268l79 447q39 224 -51.5 352.5t-371.5 128.5q-284 0 -407 -106t-186 -262l256 -77q46 149 119 206.5t190 57.5q116 0 168 -66.5t27 -213.5l-75 -430l37 -24zM395 -12q248 0 395.5 85t190.5 278l-143 82q-29 -158 -115.5 -215t-221.5 -57q-131 0 -168.5 46
t-26.5 121q15 96 75 134.5t201 38.5h279l29 160h-372q-215 0 -343.5 -70t-159.5 -263q-28 -170 69 -255t311 -85zM1328 -10l32 182q-138 0 -200 93q-63 91 -23 329q42 246 140 334q97 87 228 87q133 0 193 -82q47 -72 24 -252h-596l-30 -171h876q12 39 20 86q50 287 -46 445
q-98 156 -410 156q-303 0 -462 -155q-159 -156 -209 -448q-47 -281 52 -443q100 -161 411 -161zM1360 172l-32 -182q167 0 274 36t191 114q82 77 122 196l-240 70q-31 -73 -73 -130t-101 -81q-61 -23 -141 -23z" />
    <glyph glyph-name="ccedilla" unicode="&#xe7;" horiz-adv-x="1217" 
d="M513 -10q276 0 408.5 130.5t170.5 264.5l-234 89q-29 -128 -111.5 -209.5t-202.5 -81.5q-118 0 -173.5 88t-31.5 296q27 255 123.5 344.5t224.5 89.5q119 0 173 -76t39 -218l266 86q7 147 -83 275t-366 128q-314 0 -476 -160.5t-188 -481.5q-23 -262 67 -413t394 -151z
M468 -331q54 0 107 11t98.5 32.5t75.5 53.5t37 73q10 56 -24.5 83t-97.5 27q-50 0 -94 -14.5t-68 -33.5l-13 -50q17 10 40.5 17t44.5 7q24 0 36.5 -7.5t8.5 -25.5q-4 -23 -36.5 -38t-91.5 -15q-38 0 -71 5.5t-56 11.5l-60 -118q39 -9 81.5 -14t82.5 -5zM489 -149l79 149
h-115l-65 -137z" />
    <glyph glyph-name="egrave" unicode="&#xe8;" horiz-adv-x="1276" 
d="M528 -10l33 182q-138 0 -200 93q-63 91 -22 329q41 246 138 334q98 87 228 87q134 0 194 -82q46 -72 24 -252h-596l-30 -171h876q12 39 20 86q50 287 -47 445q-97 156 -409 156q-302 0 -462 -155q-159 -156 -209 -448q-47 -281 52 -443q99 -161 410 -161zM561 172
l-33 -182q167 0 276 36q106 36 189 114q82 77 123 196l-240 70q-32 -73 -73 -130q-43 -57 -101 -81q-61 -23 -141 -23zM791 1236h130l-122 191h-191z" />
    <glyph glyph-name="eacute" unicode="&#xe9;" horiz-adv-x="1276" 
d="M528 -10l33 182q-138 0 -200 93q-63 91 -22 329q41 246 138 334q98 87 228 87q134 0 194 -82q46 -72 24 -252h-596l-30 -171h876q12 39 20 86q50 287 -47 445q-97 156 -409 156q-302 0 -462 -155q-159 -156 -209 -448q-47 -281 52 -443q99 -161 410 -161zM561 172
l-33 -182q167 0 276 36q106 36 189 114q82 77 123 196l-240 70q-32 -73 -73 -130q-43 -57 -101 -81q-61 -23 -141 -23zM570 1228h136l251 191h-199z" />
    <glyph glyph-name="ecircumflex" unicode="&#xea;" horiz-adv-x="1276" 
d="M528 -10l33 182q-138 0 -200 93q-63 91 -22 329q41 246 138 334q98 87 228 87q134 0 194 -82q46 -72 24 -252h-596l-30 -171h876q12 39 20 86q50 287 -47 445q-97 156 -409 156q-302 0 -462 -155q-159 -156 -209 -448q-47 -281 52 -443q99 -161 410 -161zM561 172
l-33 -182q167 0 276 36q106 36 189 114q82 77 123 196l-240 70q-32 -73 -73 -130q-43 -57 -101 -81q-61 -23 -141 -23zM445 1237h165l161 135l114 -135h165l-179 195h-181z" />
    <glyph glyph-name="edieresis" unicode="&#xeb;" horiz-adv-x="1276" 
d="M528 -10l33 182q-138 0 -200 93q-63 91 -22 329q41 246 138 334q98 87 228 87q134 0 194 -82q46 -72 24 -252h-596l-30 -171h876q12 39 20 86q50 287 -47 445q-97 156 -409 156q-302 0 -462 -155q-159 -156 -209 -448q-47 -281 52 -443q99 -161 410 -161zM561 172
l-33 -182q167 0 276 36q106 36 189 114q82 77 123 196l-240 70q-32 -73 -73 -130q-43 -57 -101 -81q-61 -23 -141 -23zM568 1250q37 0 67.5 28.5t30.5 68.5q0 32 -21 53t-52 21q-39 0 -69 -28.5t-30 -68.5q0 -32 20.5 -53t53.5 -21zM927 1250q39 0 68.5 28.5t29.5 68.5
q0 32 -20 53t-53 21q-38 0 -68 -28.5t-30 -68.5q0 -32 21 -53t52 -21z" />
    <glyph glyph-name="igrave" unicode="&#xec;" horiz-adv-x="514" 
d="M-11 0h283l209 1185h-283zM394 1236h130l-122 191h-191z" />
    <glyph glyph-name="iacute" unicode="&#xed;" horiz-adv-x="514" 
d="M-11 0h283l209 1185h-283zM172 1228h136l251 191h-199z" />
    <glyph glyph-name="icircumflex" unicode="&#xee;" horiz-adv-x="514" 
d="M-11 0h283l209 1185h-283zM48 1237h165l161 135l114 -135h165l-179 195h-181z" />
    <glyph glyph-name="idieresis" unicode="&#xef;" horiz-adv-x="514" 
d="M-11 0h283l209 1185h-283zM171 1250q37 0 67.5 28.5t30.5 68.5q0 32 -21 53t-52 21q-39 0 -69 -28.5t-30 -68.5q0 -32 20.5 -53t53.5 -21zM530 1250q39 0 68.5 28.5t29.5 68.5q0 32 -20 53t-53 21q-38 0 -68 -28.5t-30 -68.5q0 -32 21 -53t52 -21z" />
    <glyph glyph-name="eth" unicode="&#xf0;" horiz-adv-x="1278" 
d="M521 -9q312 0 459.5 159.5t198.5 446.5q44 253 -72 425t-394 172q-314 0 -459.5 -158t-187.5 -442q-41 -283 50.5 -443t404.5 -160zM551 186q-136 0 -189 89.5t-15 318.5q39 230 126.5 321t222.5 91t189 -90.5t13 -321.5q-41 -230 -127 -319t-220 -89zM1193 677
q16 85 15.5 170t-18.5 161.5t-59 133.5q-19 112 -68 191t-126 129.5t-181.5 76t-236.5 30.5l-85 -164q126 -2 224.5 -21.5t167 -61.5t107 -111.5t46 -175t-19.5 -251.5zM708 1276l212 308l-144 29l-217 -309z" />
    <glyph glyph-name="ntilde" unicode="&#xf1;" horiz-adv-x="1249" 
d="M-18 0h280l172 978l-24 208h-219zM741 0h281l114 652q44 249 -18 396.5t-282 147.5q-227 0 -393.5 -142.5t-193.5 -295.5l124 -70q25 138 118.5 226t207.5 88q110 0 151.5 -76.5t5.5 -277.5zM869 1271q62 0 104.5 20.5t68 50.5t39 59.5t17.5 48.5h-137q-3 -12 -14 -28
t-30 -27.5t-44 -11.5q-31 0 -52 11.5t-41.5 27t-47 26.5t-67.5 11q-63 0 -106 -19t-69.5 -48.5t-40 -58.5t-18.5 -50h139q3 12 13.5 28.5t29.5 27.5t47 11t47.5 -12t41 -27.5t49.5 -27.5t71 -12z" />
    <glyph glyph-name="ograve" unicode="&#xf2;" horiz-adv-x="1281" 
d="M522 -9q299 0 462.5 152.5t209.5 453.5q45 296 -60.5 448.5t-405.5 152.5t-464 -150.5t-209 -450.5q-45 -297 60.5 -451.5t406.5 -154.5zM552 183q-126 0 -189.5 84.5t-26.5 327.5q38 242 137 327t224 85q126 0 190 -84.5t26 -327.5q-38 -241 -137 -326.5t-224 -85.5z
M780 1236h130l-122 191h-191z" />
    <glyph glyph-name="oacute" unicode="&#xf3;" horiz-adv-x="1281" 
d="M522 -9q299 0 462.5 152.5t209.5 453.5q45 296 -60.5 448.5t-405.5 152.5t-464 -150.5t-209 -450.5q-45 -297 60.5 -451.5t406.5 -154.5zM552 183q-126 0 -189.5 84.5t-26.5 327.5q38 242 137 327t224 85q126 0 190 -84.5t26 -327.5q-38 -241 -137 -326.5t-224 -85.5z
M559 1228h136l251 191h-199z" />
    <glyph glyph-name="ocircumflex" unicode="&#xf4;" horiz-adv-x="1281" 
d="M522 -9q299 0 462.5 152.5t209.5 453.5q45 296 -60.5 448.5t-405.5 152.5t-464 -150.5t-209 -450.5q-45 -297 60.5 -451.5t406.5 -154.5zM552 183q-126 0 -189.5 84.5t-26.5 327.5q38 242 137 327t224 85q126 0 190 -84.5t26 -327.5q-38 -241 -137 -326.5t-224 -85.5z
M435 1237h165l161 135l114 -135h165l-179 195h-181z" />
    <glyph glyph-name="otilde" unicode="&#xf5;" horiz-adv-x="1281" 
d="M522 -9q299 0 462.5 152.5t209.5 453.5q45 296 -60.5 448.5t-405.5 152.5t-464 -150.5t-209 -450.5q-45 -297 60.5 -451.5t406.5 -154.5zM552 183q-126 0 -189.5 84.5t-26.5 327.5q38 242 137 327t224 85q126 0 190 -84.5t26 -327.5q-38 -241 -137 -326.5t-224 -85.5z
M862 1256q62 0 104.5 20.5t68 50.5t39 59.5t17.5 48.5h-137q-3 -12 -14 -28t-30 -27.5t-44 -11.5q-31 0 -52 11.5t-41.5 27t-47 26.5t-67.5 11q-63 0 -106 -19t-69.5 -48.5t-40 -58.5t-18.5 -50h139q3 12 13.5 28.5t29.5 27.5t47 11t47.5 -12t41 -27.5t49.5 -27.5t71 -12z
" />
    <glyph glyph-name="odieresis" unicode="&#xf6;" horiz-adv-x="1281" 
d="M522 -9q299 0 462.5 152.5t209.5 453.5q45 296 -60.5 448.5t-405.5 152.5t-464 -150.5t-209 -450.5q-45 -297 60.5 -451.5t406.5 -154.5zM552 183q-126 0 -189.5 84.5t-26.5 327.5q38 242 137 327t224 85q126 0 190 -84.5t26 -327.5q-38 -241 -137 -326.5t-224 -85.5z
M558 1250q37 0 67.5 28.5t30.5 68.5q0 32 -21 53t-52 21q-39 0 -69 -28.5t-30 -68.5q0 -32 20.5 -53t53.5 -21zM917 1250q39 0 68.5 28.5t29.5 68.5q0 32 -20 53t-53 21q-38 0 -68 -28.5t-30 -68.5q0 -32 21 -53t52 -21z" />
    <glyph glyph-name="divide" unicode="&#xf7;" horiz-adv-x="537" 
d="M6 394h465l30 168h-465zM193 39q34 0 60.5 22t32.5 55q9 48 -16 81t-68 33q-39 0 -66 -21t-33 -52q-8 -50 17 -84t73 -34zM315 727q35 0 61.5 22.5t32.5 55.5q9 48 -16 81t-70 33q-37 0 -65 -21.5t-33 -52.5q-9 -49 16.5 -83.5t73.5 -34.5z" />
    <glyph glyph-name="oslash" unicode="&#xf8;" horiz-adv-x="1278" 
d="M-103 11l78 -74l1371 1249l-82 67zM522 -9q299 0 462.5 152.5t209.5 453.5q45 296 -60.5 448.5t-405.5 152.5t-464 -150.5t-209 -450.5q-45 -297 60.5 -451.5t406.5 -154.5zM552 183q-126 0 -189.5 84.5t-26.5 327.5q38 242 137 327t224 85q126 0 190 -84.5t26 -327.5
q-38 -241 -137 -326.5t-224 -85.5z" />
    <glyph glyph-name="ugrave" unicode="&#xf9;" horiz-adv-x="1250" 
d="M802 0h217l208 1185h-280l-174 -984zM460 1186h-281l-116 -660q-44 -248 16.5 -392t283.5 -144q240 0 400.5 143t187.5 295l-125 65q-24 -138 -119.5 -223.5t-209.5 -85.5q-110 0 -148.5 76.5t-2.5 278.5zM768 1236h130l-122 191h-191z" />
    <glyph glyph-name="uacute" unicode="&#xfa;" horiz-adv-x="1250" 
d="M802 0h217l208 1185h-280l-174 -984zM460 1186h-281l-116 -660q-44 -248 16.5 -392t283.5 -144q240 0 400.5 143t187.5 295l-125 65q-24 -138 -119.5 -223.5t-209.5 -85.5q-110 0 -148.5 76.5t-2.5 278.5zM547 1228h136l251 191h-199z" />
    <glyph glyph-name="ucircumflex" unicode="&#xfb;" horiz-adv-x="1250" 
d="M802 0h217l208 1185h-280l-174 -984zM460 1186h-281l-116 -660q-44 -248 16.5 -392t283.5 -144q240 0 400.5 143t187.5 295l-125 65q-24 -138 -119.5 -223.5t-209.5 -85.5q-110 0 -148.5 76.5t-2.5 278.5zM423 1237h165l161 135l114 -135h165l-179 195h-181z" />
    <glyph glyph-name="udieresis" unicode="&#xfc;" horiz-adv-x="1250" 
d="M802 0h217l208 1185h-280l-174 -984zM460 1186h-281l-116 -660q-44 -248 16.5 -392t283.5 -144q240 0 400.5 143t187.5 295l-125 65q-24 -138 -119.5 -223.5t-209.5 -85.5q-110 0 -148.5 76.5t-2.5 278.5zM547 1250q37 0 67.5 28.5t30.5 68.5q0 32 -21 53t-52 21
q-39 0 -69 -28.5t-30 -68.5q0 -32 20.5 -53t53.5 -21zM906 1250q39 0 68.5 28.5t29.5 68.5q0 32 -20 53t-53 21q-38 0 -68 -28.5t-30 -68.5q0 -32 21 -53t52 -21z" />
    <glyph glyph-name="yacute" unicode="&#xfd;" horiz-adv-x="1165" 
d="M261 0h430l545 1185h-295l-432 -998h-2l-84 998h-293zM-90 -464q278 0 461.5 87t319.5 377l-261 1q-78 -168 -187 -220.5t-300 -52.5zM515 1228h136l251 191h-199z" />
    <glyph glyph-name="thorn" unicode="&#xfe;" horiz-adv-x="1280" 
d="M-89 -400h280l229 1294h-279zM-14 0h257l56 177l245 1393h-282zM644 -7q230 0 368.5 159.5t179.5 448.5q43 280 -32.5 437.5t-305.5 157.5q-205 0 -369.5 -98.5t-184.5 -212.5l100 -129q19 100 114.5 173t210.5 73q121 0 172 -85t11 -320q-39 -241 -123 -326.5
t-205 -85.5q-115 0 -185 73t-52 175l-146 -131q-20 -114 110.5 -211.5t336.5 -97.5z" />
    <glyph glyph-name="ydieresis" unicode="&#xff;" horiz-adv-x="1165" 
d="M261 0h430l545 1185h-295l-432 -998h-2l-84 998h-293zM-90 -464q278 0 461.5 87t319.5 377l-261 1q-78 -168 -187 -220.5t-300 -52.5zM515 1250q37 0 67.5 28.5t30.5 68.5q0 32 -21 53t-52 21q-39 0 -69 -28.5t-30 -68.5q0 -32 20.5 -53t53.5 -21zM874 1250
q39 0 68.5 28.5t29.5 68.5q0 32 -20 53t-53 21q-38 0 -68 -28.5t-30 -68.5q0 -32 21 -53t52 -21z" />
    <glyph glyph-name="Amacron" unicode="&#x100;" horiz-adv-x="1404" 
d="M-46 0h293l164 348h492l40 -348h294l-202 1352h-404zM491 536l313 649h3l82 -649h-398zM535 1445h645l18 105h-644z" />
    <glyph glyph-name="amacron" unicode="&#x101;" horiz-adv-x="1270" 
d="M390 -12q82 0 151.5 14t125 37t94 49.5t58.5 53.5l-2 -142h235l132 746q29 164 -18 262.5t-162 143.5t-291 45q-99 0 -190.5 -18.5t-169.5 -58t-137.5 -105t-95.5 -160.5l262 -75q28 84 75 133.5t105.5 71.5t124.5 22q81 0 134.5 -24t75.5 -78.5t7 -144.5l-10 -54h-380
q-67 0 -135 -9.5t-129.5 -33t-110.5 -65t-81 -106t-40 -155.5q-14 -137 26 -212.5t128.5 -106t217.5 -30.5zM483 170q-61 0 -104 15t-62.5 56t-11.5 117q6 61 28 99t55.5 58.5t75.5 28t89 7.5h310l-44 -251q-25 -33 -74.5 -63t-116.5 -48.5t-145 -18.5zM423 1281h645l18 105
h-644z" />
    <glyph glyph-name="Abreve" unicode="&#x102;" horiz-adv-x="1404" 
d="M-46 0h293l164 348h492l40 -348h294l-202 1352h-404zM491 536l313 649h3l82 -649h-398zM851 1410q74 0 129.5 25t90 66t42.5 90h-135q-4 -25 -16.5 -44.5t-35 -30.5t-59.5 -11q-32 0 -51 11t-26 30t-2 45h-135q-8 -49 12.5 -90t67.5 -66t118 -25z" />
    <glyph glyph-name="abreve" unicode="&#x103;" horiz-adv-x="1270" 
d="M390 -12q82 0 151.5 14t125 37t94 49.5t58.5 53.5l-2 -142h235l132 746q29 164 -18 262.5t-162 143.5t-291 45q-99 0 -190.5 -18.5t-169.5 -58t-137.5 -105t-95.5 -160.5l262 -75q28 84 75 133.5t105.5 71.5t124.5 22q81 0 134.5 -24t75.5 -78.5t7 -144.5l-10 -54h-380
q-67 0 -135 -9.5t-129.5 -33t-110.5 -65t-81 -106t-40 -155.5q-14 -137 26 -212.5t128.5 -106t217.5 -30.5zM483 170q-61 0 -104 15t-62.5 56t-11.5 117q6 61 28 99t55.5 58.5t75.5 28t89 7.5h310l-44 -251q-25 -33 -74.5 -63t-116.5 -48.5t-145 -18.5zM740 1246
q74 0 129.5 25t90 66t42.5 90h-135q-4 -25 -16.5 -44.5t-35 -30.5t-59.5 -11q-32 0 -51 11t-26 30t-2 45h-135q-8 -49 12.5 -90t67.5 -66t118 -25z" />
    <glyph glyph-name="Aogonek" unicode="&#x104;" horiz-adv-x="1404" 
d="M-46 0h293l164 348h492l40 -348h294l-202 1352h-404zM491 536l313 649h3l82 -649h-398zM1152 -352q43 0 83 4.5t70 11t40 9.5l22 140q-11 -5 -36.5 -11.5t-55.5 -11t-57 -4.5q-34 0 -50.5 12t-16.5 33q0 22 16 55t37 65t36 49h-138q-26 -25 -55 -65.5t-48.5 -86
t-19.5 -87.5q0 -43 24.5 -67.5t64 -35t84.5 -10.5z" />
    <glyph glyph-name="aogonek" unicode="&#x105;" horiz-adv-x="1270" 
d="M390 -12q82 0 151.5 14t125 37t94 49.5t58.5 53.5l-2 -142h235l132 746q29 164 -18 262.5t-162 143.5t-291 45q-99 0 -190.5 -18.5t-169.5 -58t-137.5 -105t-95.5 -160.5l262 -75q28 84 75 133.5t105.5 71.5t124.5 22q81 0 134.5 -24t75.5 -78.5t7 -144.5l-10 -54h-380
q-67 0 -135 -9.5t-129.5 -33t-110.5 -65t-81 -106t-40 -155.5q-14 -137 26 -212.5t128.5 -106t217.5 -30.5zM483 170q-61 0 -104 15t-62.5 56t-11.5 117q6 61 28 99t55.5 58.5t75.5 28t89 7.5h310l-44 -251q-25 -33 -74.5 -63t-116.5 -48.5t-145 -18.5zM965 -352
q43 0 83 4.5t70 11t40 9.5l22 140q-11 -5 -36.5 -11.5t-55.5 -11t-57 -4.5q-34 0 -50.5 12t-16.5 33q0 22 16 55t37 65t36 49h-138q-26 -25 -55 -65.5t-48.5 -86t-19.5 -87.5q0 -43 24.5 -67.5t64 -35t84.5 -10.5z" />
    <glyph glyph-name="Cacute" unicode="&#x106;" horiz-adv-x="1313" 
d="M545 -8q337 0 481 160.5t184 390.5h-287q-35 -204 -122.5 -280.5t-227.5 -76.5q-144 0 -207.5 89t-13.5 403q51 323 150.5 406t242.5 83q141 0 199.5 -72t25.5 -284h287q36 239 -53 395t-427 156q-336 0 -496.5 -166.5t-216.5 -517.5q-55 -343 44.5 -514.5t436.5 -171.5z
M587 1392h136l251 191h-199z" />
    <glyph glyph-name="cacute" unicode="&#x107;" horiz-adv-x="1217" 
d="M513 -10q276 0 408.5 130.5t170.5 264.5l-234 89q-29 -128 -111.5 -209.5t-202.5 -81.5q-118 0 -173.5 88t-31.5 296q27 255 123.5 344.5t224.5 89.5q119 0 173 -76t39 -218l266 86q7 147 -83 275t-366 128q-314 0 -476 -160.5t-188 -481.5q-23 -262 67 -413t394 -151z
M544 1228h136l251 191h-199z" />
    <glyph glyph-name="Ccircumflex" unicode="&#x108;" horiz-adv-x="1313" 
d="M545 -8q337 0 481 160.5t184 390.5h-287q-35 -204 -122.5 -280.5t-227.5 -76.5q-144 0 -207.5 89t-13.5 403q51 323 150.5 406t242.5 83q141 0 199.5 -72t25.5 -284h287q36 239 -53 395t-427 156q-336 0 -496.5 -166.5t-216.5 -517.5q-55 -343 44.5 -514.5t436.5 -171.5z
M462 1401h165l161 135l114 -135h165l-179 195h-181z" />
    <glyph glyph-name="ccircumflex" unicode="&#x109;" horiz-adv-x="1217" 
d="M513 -10q276 0 408.5 130.5t170.5 264.5l-234 89q-29 -128 -111.5 -209.5t-202.5 -81.5q-118 0 -173.5 88t-31.5 296q27 255 123.5 344.5t224.5 89.5q119 0 173 -76t39 -218l266 86q7 147 -83 275t-366 128q-314 0 -476 -160.5t-188 -481.5q-23 -262 67 -413t394 -151z
M419 1237h165l161 135l114 -135h165l-179 195h-181z" />
    <glyph glyph-name="Cdotaccent" unicode="&#x10a;" horiz-adv-x="1313" 
d="M545 -8q337 0 481 160.5t184 390.5h-287q-35 -204 -122.5 -280.5t-227.5 -76.5q-144 0 -207.5 89t-13.5 403q51 323 150.5 406t242.5 83q141 0 199.5 -72t25.5 -284h287q36 239 -53 395t-427 156q-336 0 -496.5 -166.5t-216.5 -517.5q-55 -343 44.5 -514.5t436.5 -171.5z
M784 1405q37 0 62.5 26t25.5 62t-25.5 61.5t-61.5 25.5q-37 0 -62.5 -25.5t-25.5 -61.5q0 -37 25.5 -62.5t61.5 -25.5z" />
    <glyph glyph-name="cdotaccent" unicode="&#x10b;" horiz-adv-x="1217" 
d="M513 -10q276 0 408.5 130.5t170.5 264.5l-234 89q-29 -128 -111.5 -209.5t-202.5 -81.5q-118 0 -173.5 88t-31.5 296q27 255 123.5 344.5t224.5 89.5q119 0 173 -76t39 -218l266 86q7 147 -83 275t-366 128q-314 0 -476 -160.5t-188 -481.5q-23 -262 67 -413t394 -151z
M741 1241q37 0 62.5 26t25.5 62t-25.5 61.5t-61.5 25.5q-37 0 -62.5 -25.5t-25.5 -61.5q0 -37 25.5 -62.5t61.5 -25.5z" />
    <glyph glyph-name="Ccaron" unicode="&#x10c;" horiz-adv-x="1313" 
d="M545 -8q337 0 481 160.5t184 390.5h-287q-35 -204 -122.5 -280.5t-227.5 -76.5q-144 0 -207.5 89t-13.5 403q51 323 150.5 406t242.5 83q141 0 199.5 -72t25.5 -284h287q36 239 -53 395t-427 156q-336 0 -496.5 -166.5t-216.5 -517.5q-55 -343 44.5 -514.5t436.5 -171.5z
M676 1395h181l246 195h-167l-159 -134l-116 134h-164z" />
    <glyph glyph-name="ccaron" unicode="&#x10d;" horiz-adv-x="1217" 
d="M513 -10q276 0 408.5 130.5t170.5 264.5l-234 89q-29 -128 -111.5 -209.5t-202.5 -81.5q-118 0 -173.5 88t-31.5 296q27 255 123.5 344.5t224.5 89.5q119 0 173 -76t39 -218l266 86q7 147 -83 275t-366 128q-314 0 -476 -160.5t-188 -481.5q-23 -262 67 -413t394 -151z
M633 1231h181l246 195h-167l-159 -134l-116 134h-164z" />
    <glyph glyph-name="Dcaron" unicode="&#x10e;" horiz-adv-x="1299" 
d="M-21 0h646q271 0 409.5 147.5t197.5 528.5q57 373 -26.5 523.5t-354.5 150.5h-634zM297 194l169 962h280q146 0 200.5 -83.5t1.5 -396.5q-54 -319 -139.5 -400.5t-231.5 -81.5h-280zM677 1395h181l246 195h-167l-159 -134l-116 134h-164z" />
    <glyph glyph-name="dcaron" unicode="&#x10f;" horiz-adv-x="1467" 
d="M1339 1241h175l123 329h-188zM790 0h262l276 1570h-280l-245 -1393zM399 -7q206 0 368 97.5t183 211.5l-101 131q-18 -101 -113 -174.5t-210 -73.5q-117 0 -167.5 81t-21.5 308q30 250 116.5 339t217.5 89q114 0 183 -73t52 -173l146 129q20 114 -110.5 212.5
t-335.5 98.5q-244 0 -387 -169.5t-167 -480.5q-24 -253 52 -403t295 -150z" />
    <glyph glyph-name="Dcroat" unicode="&#x110;" horiz-adv-x="1339" 
d="M-37 583h619l30 186h-618zM18 0h647q271 0 409 147.5t198 528.5q57 373 -27 523.5t-354 150.5h-635zM336 194l169 962h281q145 0 199.5 -83.5t1.5 -396.5q-54 -319 -139.5 -400.5t-230.5 -81.5h-281z" />
    <glyph glyph-name="dcroat" unicode="&#x111;" horiz-adv-x="1273" 
d="M669 1320h740l24 136h-740zM790 0h262l276 1570h-280l-245 -1393zM399 -7q206 0 368 97.5t183 211.5l-101 131q-18 -101 -113 -174.5t-210 -73.5q-117 0 -167.5 81t-21.5 308q30 250 116.5 339t217.5 89q114 0 183 -73t52 -173l146 129q20 114 -110.5 212.5t-335.5 98.5
q-244 0 -387 -169.5t-167 -480.5q-24 -253 52 -403t295 -150z" />
    <glyph glyph-name="Emacron" unicode="&#x112;" horiz-adv-x="1125" 
d="M-32 0h948l34 194h-663l70 400h620l33 185h-620l66 377h663l35 194h-948zM370 1445h645l18 105h-644z" />
    <glyph glyph-name="emacron" unicode="&#x113;" horiz-adv-x="1276" 
d="M528 -10l33 182q-138 0 -200 93q-63 91 -22 329q41 246 138 334q98 87 228 87q134 0 194 -82q46 -72 24 -252h-596l-30 -171h876q12 39 20 86q50 287 -47 445q-97 156 -409 156q-302 0 -462 -155q-159 -156 -209 -448q-47 -281 52 -443q99 -161 410 -161zM561 172
l-33 -182q167 0 276 36q106 36 189 114q82 77 123 196l-240 70q-32 -73 -73 -130q-43 -57 -101 -81q-61 -23 -141 -23zM433 1281h645l18 105h-644z" />
    <glyph glyph-name="Ebreve" unicode="&#x114;" horiz-adv-x="1125" 
d="M-32 0h948l34 194h-663l70 400h620l33 185h-620l66 377h663l35 194h-948zM685 1410q74 0 129.5 25t90 66t42.5 90h-135q-4 -25 -16.5 -44.5t-35 -30.5t-59.5 -11q-32 0 -51 11t-26 30t-2 45h-135q-8 -49 12.5 -90t67.5 -66t118 -25z" />
    <glyph glyph-name="ebreve" unicode="&#x115;" horiz-adv-x="1276" 
d="M528 -10l33 182q-138 0 -200 93q-63 91 -22 329q41 246 138 334q98 87 228 87q134 0 194 -82q46 -72 24 -252h-596l-30 -171h876q12 39 20 86q50 287 -47 445q-97 156 -409 156q-302 0 -462 -155q-159 -156 -209 -448q-47 -281 52 -443q99 -161 410 -161zM561 172
l-33 -182q167 0 276 36q106 36 189 114q82 77 123 196l-240 70q-32 -73 -73 -130q-43 -57 -101 -81q-61 -23 -141 -23zM749 1246q74 0 129.5 25t90 66t42.5 90h-135q-4 -25 -16.5 -44.5t-35 -30.5t-59.5 -11q-32 0 -51 11t-26 30t-2 45h-135q-8 -49 12.5 -90t67.5 -66
t118 -25z" />
    <glyph glyph-name="Edotaccent" unicode="&#x116;" horiz-adv-x="1125" 
d="M-32 0h948l34 194h-663l70 400h620l33 185h-620l66 377h663l35 194h-948zM703 1405q37 0 62.5 26t25.5 62t-25.5 61.5t-61.5 25.5q-37 0 -62.5 -25.5t-25.5 -61.5q0 -37 25.5 -62.5t61.5 -25.5z" />
    <glyph glyph-name="edotaccent" unicode="&#x117;" horiz-adv-x="1276" 
d="M528 -10l33 182q-138 0 -200 93q-63 91 -22 329q41 246 138 334q98 87 228 87q134 0 194 -82q46 -72 24 -252h-596l-30 -171h876q12 39 20 86q50 287 -47 445q-97 156 -409 156q-302 0 -462 -155q-159 -156 -209 -448q-47 -281 52 -443q99 -161 410 -161zM561 172
l-33 -182q167 0 276 36q106 36 189 114q82 77 123 196l-240 70q-32 -73 -73 -130q-43 -57 -101 -81q-61 -23 -141 -23zM767 1241q37 0 62.5 26t25.5 62t-25.5 61.5t-61.5 25.5q-37 0 -62.5 -25.5t-25.5 -61.5q0 -37 25.5 -62.5t61.5 -25.5z" />
    <glyph glyph-name="Eogonek" unicode="&#x118;" horiz-adv-x="1125" 
d="M-32 0h948l34 194h-663l70 400h620l33 185h-620l66 377h663l35 194h-948zM527 -352q43 0 83 4.5t70 11t40 9.5l22 140q-11 -5 -36.5 -11.5t-55.5 -11t-57 -4.5q-34 0 -50.5 12t-16.5 33q0 22 16 55t37 65t36 49h-138q-26 -25 -55 -65.5t-48.5 -86t-19.5 -87.5
q0 -43 24.5 -67.5t64 -35t84.5 -10.5z" />
    <glyph glyph-name="eogonek" unicode="&#x119;" horiz-adv-x="1276" 
d="M528 -10l33 182q-138 0 -200 93q-63 91 -22 329q41 246 138 334q98 87 228 87q134 0 194 -82q46 -72 24 -252h-596l-30 -171h876q12 39 20 86q50 287 -47 445q-97 156 -409 156q-302 0 -462 -155q-159 -156 -209 -448q-47 -281 52 -443q99 -161 410 -161zM561 172
l-33 -182q167 0 276 36q106 36 189 114q82 77 123 196l-240 70q-32 -73 -73 -130q-43 -57 -101 -81q-61 -23 -141 -23zM823 -296q43 0 83 4.5t70 11t40 9.5l22 140q-11 -5 -36.5 -11.5t-55.5 -11t-57 -4.5q-34 0 -50.5 12t-16.5 33q0 22 16 55t37 65t36 49h-138
q-26 -25 -55 -65.5t-48.5 -86t-19.5 -87.5q0 -43 24.5 -67.5t64 -35t84.5 -10.5z" />
    <glyph glyph-name="Ecaron" unicode="&#x11a;" horiz-adv-x="1125" 
d="M-32 0h948l34 194h-663l70 400h620l33 185h-620l66 377h663l35 194h-948zM594 1395h181l246 195h-167l-159 -134l-116 134h-164z" />
    <glyph glyph-name="ecaron" unicode="&#x11b;" horiz-adv-x="1276" 
d="M528 -10l33 182q-138 0 -200 93q-63 91 -22 329q41 246 138 334q98 87 228 87q134 0 194 -82q46 -72 24 -252h-596l-30 -171h876q12 39 20 86q50 287 -47 445q-97 156 -409 156q-302 0 -462 -155q-159 -156 -209 -448q-47 -281 52 -443q99 -161 410 -161zM561 172
l-33 -182q167 0 276 36q106 36 189 114q82 77 123 196l-240 70q-32 -73 -73 -130q-43 -57 -101 -81q-61 -23 -141 -23zM658 1231h181l246 195h-167l-159 -134l-116 134h-164z" />
    <glyph glyph-name="Gcircumflex" unicode="&#x11c;" horiz-adv-x="1341" 
d="M520 -8q321 0 433 193l-1 -185h162l119 681h-548l-30 -169h256l-13 -71q-31 -138 -105 -196.5t-216 -58.5q-151 0 -208.5 98.5t-14.5 383.5q50 323 147 411.5t247 88.5q145 0 199.5 -72t30.5 -246h285q30 208 -70 360t-417 152q-338 0 -497.5 -167t-209.5 -518
q-48 -342 42 -513.5t409 -171.5zM493 1401h165l161 135l114 -135h165l-179 195h-181z" />
    <glyph glyph-name="gcircumflex" unicode="&#x11d;" horiz-adv-x="1286" 
d="M416 -467q172 0 294 46t219 160t132 313l200 1133h-206l-117 -237l-164 -924q-33 -193 -116 -252.5t-202 -59.5q-71 0 -123 23t-75.5 72t-17.5 129h-275q-18 -222 113.5 -312.5t337.5 -90.5zM397 -7q205 0 368 96t183 212l-101 132q-17 -101 -112.5 -174.5t-209.5 -73.5
q-122 0 -174 84t-12 325q41 241 125 324.5t205 83.5q114 0 183.5 -73t51.5 -173l146 123q20 113 -109 215t-335 102q-230 0 -368.5 -154.5t-182.5 -446.5q-43 -290 34.5 -446t307.5 -156zM438 1237h165l161 135l114 -135h165l-179 195h-181z" />
    <glyph glyph-name="Gbreve" unicode="&#x11e;" horiz-adv-x="1341" 
d="M520 -8q321 0 433 193l-1 -185h162l119 681h-548l-30 -169h256l-13 -71q-31 -138 -105 -196.5t-216 -58.5q-151 0 -208.5 98.5t-14.5 383.5q50 323 147 411.5t247 88.5q145 0 199.5 -72t30.5 -246h285q30 208 -70 360t-417 152q-338 0 -497.5 -167t-209.5 -518
q-48 -342 42 -513.5t409 -171.5zM798 1410q74 0 129.5 25t90 66t42.5 90h-135q-4 -25 -16.5 -44.5t-35 -30.5t-59.5 -11q-32 0 -51 11t-26 30t-2 45h-135q-8 -49 12.5 -90t67.5 -66t118 -25z" />
    <glyph glyph-name="gbreve" unicode="&#x11f;" horiz-adv-x="1286" 
d="M416 -467q172 0 294 46t219 160t132 313l200 1133h-206l-117 -237l-164 -924q-33 -193 -116 -252.5t-202 -59.5q-71 0 -123 23t-75.5 72t-17.5 129h-275q-18 -222 113.5 -312.5t337.5 -90.5zM397 -7q205 0 368 96t183 212l-101 132q-17 -101 -112.5 -174.5t-209.5 -73.5
q-122 0 -174 84t-12 325q41 241 125 324.5t205 83.5q114 0 183.5 -73t51.5 -173l146 123q20 113 -109 215t-335 102q-230 0 -368.5 -154.5t-182.5 -446.5q-43 -290 34.5 -446t307.5 -156zM743 1246q74 0 129.5 25t90 66t42.5 90h-135q-4 -25 -16.5 -44.5t-35 -30.5
t-59.5 -11q-32 0 -51 11t-26 30t-2 45h-135q-8 -49 12.5 -90t67.5 -66t118 -25z" />
    <glyph glyph-name="Gdotaccent" unicode="&#x120;" horiz-adv-x="1341" 
d="M520 -8q321 0 433 193l-1 -185h162l119 681h-548l-30 -169h256l-13 -71q-31 -138 -105 -196.5t-216 -58.5q-151 0 -208.5 98.5t-14.5 383.5q50 323 147 411.5t247 88.5q145 0 199.5 -72t30.5 -246h285q30 208 -70 360t-417 152q-338 0 -497.5 -167t-209.5 -518
q-48 -342 42 -513.5t409 -171.5zM815 1405q37 0 62.5 26t25.5 62t-25.5 61.5t-61.5 25.5q-37 0 -62.5 -25.5t-25.5 -61.5q0 -37 25.5 -62.5t61.5 -25.5z" />
    <glyph glyph-name="gdotaccent" unicode="&#x121;" horiz-adv-x="1286" 
d="M416 -467q172 0 294 46t219 160t132 313l200 1133h-206l-117 -237l-164 -924q-33 -193 -116 -252.5t-202 -59.5q-71 0 -123 23t-75.5 72t-17.5 129h-275q-18 -222 113.5 -312.5t337.5 -90.5zM397 -7q205 0 368 96t183 212l-101 132q-17 -101 -112.5 -174.5t-209.5 -73.5
q-122 0 -174 84t-12 325q41 241 125 324.5t205 83.5q114 0 183.5 -73t51.5 -173l146 123q20 113 -109 215t-335 102q-230 0 -368.5 -154.5t-182.5 -446.5q-43 -290 34.5 -446t307.5 -156zM759 1241q37 0 62.5 26t25.5 62t-25.5 61.5t-61.5 25.5q-37 0 -62.5 -25.5
t-25.5 -61.5q0 -37 25.5 -62.5t61.5 -25.5z" />
    <glyph glyph-name="uni0122" unicode="&#x122;" horiz-adv-x="1341" 
d="M520 -8q321 0 433 193l-1 -185h162l119 681h-548l-30 -169h256l-13 -71q-31 -138 -105 -196.5t-216 -58.5q-151 0 -208.5 98.5t-14.5 383.5q50 323 147 411.5t247 88.5q145 0 199.5 -72t30.5 -246h285q30 208 -70 360t-417 152q-338 0 -497.5 -167t-209.5 -518
q-48 -342 42 -513.5t409 -171.5zM368 -312h100l173 245h-162z" />
    <glyph glyph-name="uni0123" unicode="&#x123;" horiz-adv-x="1286" 
d="M416 -467q172 0 294 46t219 160t132 313l200 1133h-206l-117 -237l-164 -924q-33 -193 -116 -252.5t-202 -59.5q-71 0 -123 23t-75.5 72t-17.5 129h-275q-18 -222 113.5 -312.5t337.5 -90.5zM397 -7q205 0 368 96t183 212l-101 132q-17 -101 -112.5 -174.5t-209.5 -73.5
q-122 0 -174 84t-12 325q41 241 125 324.5t205 83.5q114 0 183.5 -73t51.5 -173l146 123q20 113 -109 215t-335 102q-230 0 -368.5 -154.5t-182.5 -446.5q-43 -290 34.5 -446t307.5 -156zM653 1256h132l101 225h-82z" />
    <glyph glyph-name="Hcircumflex" unicode="&#x124;" horiz-adv-x="1317" 
d="M-21 0h284l103 585h542l-103 -585h285l238 1350h-285l-101 -570h-541l101 570h-285zM480 1401h165l161 135l114 -135h165l-179 195h-181z" />
    <glyph glyph-name="hcircumflex" unicode="&#x125;" horiz-adv-x="1258" 
d="M-19 0h281l278 1570h-281zM751 0h281l116 660q44 249 -20 392.5t-283 143.5q-228 0 -393 -142.5t-193 -295.5l124 -70q25 138 117.5 226t206.5 88q110 0 152.5 -76.5t6.5 -277.5zM485 1599h165l161 135l114 -135h165l-179 195h-181z" />
    <glyph glyph-name="Hbar" unicode="&#x126;" horiz-adv-x="1303" 
d="M108 1035h1236l18 104h-1234zM-11 0h284l103 585h543l-104 -585h284l238 1350h-284l-100 -570h-542l100 570h-284z" />
    <glyph glyph-name="hbar" unicode="&#x127;" horiz-adv-x="1235" 
d="M120 1320h740l23 136h-739zM-19 0h281l278 1570h-281zM751 0h281l116 660q44 249 -20 392.5t-283 143.5q-228 0 -393 -142.5t-193 -295.5l124 -70q25 138 117.5 226t206.5 88q110 0 152.5 -76.5t6.5 -277.5z" />
    <glyph glyph-name="Itilde" unicode="&#x128;" horiz-adv-x="580" 
d="M27 0h283l239 1350h-283zM554 1420q62 0 104.5 20.5t68 50.5t39 59.5t17.5 48.5h-137q-3 -12 -14 -28t-30 -27.5t-44 -11.5q-31 0 -52 11.5t-41.5 27t-47 26.5t-67.5 11q-63 0 -106 -19t-69.5 -48.5t-40 -58.5t-18.5 -50h139q3 12 13.5 28.5t29.5 27.5t47 11t47.5 -12
t41 -27.5t49.5 -27.5t71 -12z" />
    <glyph glyph-name="itilde" unicode="&#x129;" horiz-adv-x="514" 
d="M-11 0h283l209 1185h-283zM475 1256q62 0 104.5 20.5t68 50.5t39 59.5t17.5 48.5h-137q-3 -12 -14 -28t-30 -27.5t-44 -11.5q-31 0 -52 11.5t-41.5 27t-47 26.5t-67.5 11q-63 0 -106 -19t-69.5 -48.5t-40 -58.5t-18.5 -50h139q3 12 13.5 28.5t29.5 27.5t47 11t47.5 -12
t41 -27.5t49.5 -27.5t71 -12z" />
    <glyph glyph-name="Imacron" unicode="&#x12a;" horiz-adv-x="580" 
d="M27 0h283l239 1350h-283zM116 1445h645l18 105h-644z" />
    <glyph glyph-name="imacron" unicode="&#x12b;" horiz-adv-x="514" 
d="M131 1281h451l18 105h-451zM-11 0h283l209 1185h-283z" />
    <glyph glyph-name="Ibreve" unicode="&#x12c;" horiz-adv-x="580" 
d="M27 0h283l239 1350h-283zM431 1410q74 0 129.5 25t90 66t42.5 90h-135q-4 -25 -16.5 -44.5t-35 -30.5t-59.5 -11q-32 0 -51 11t-26 30t-2 45h-135q-8 -49 12.5 -90t67.5 -66t118 -25z" />
    <glyph glyph-name="ibreve" unicode="&#x12d;" horiz-adv-x="514" 
d="M-11 0h283l209 1185h-283zM352 1246q74 0 129.5 25t90 66t42.5 90h-135q-4 -25 -16.5 -44.5t-35 -30.5t-59.5 -11q-32 0 -51 11t-26 30t-2 45h-135q-8 -49 12.5 -90t67.5 -66t118 -25z" />
    <glyph glyph-name="Iogonek" unicode="&#x12e;" horiz-adv-x="580" 
d="M27 0h283l239 1350h-283zM222 -352q43 0 83 4.5t70 11t40 9.5l22 140q-11 -5 -36.5 -11.5t-55.5 -11t-57 -4.5q-34 0 -50.5 12t-16.5 33q0 22 16 55t37 65t36 49h-138q-26 -25 -55 -65.5t-48.5 -86t-19.5 -87.5q0 -43 24.5 -67.5t64 -35t84.5 -10.5z" />
    <glyph glyph-name="iogonek" unicode="&#x12f;" horiz-adv-x="514" 
d="M263 1529l-36 -212h281l37 212h-282zM-11 0h283l209 1185h-283zM186 -352q42 0 82.5 4.5t70 11t40.5 9.5l23 140q-13 -5 -38 -11.5t-55 -11t-57 -4.5q-35 0 -51 12t-16 33q0 22 15.5 55t36.5 65t37 49h-138q-27 -25 -55.5 -65.5t-48 -86t-19.5 -87.5q0 -43 24.5 -67.5
t63.5 -35t85 -10.5z" />
    <glyph glyph-name="Idotaccent" unicode="&#x130;" horiz-adv-x="580" 
d="M27 0h283l239 1350h-283zM449 1405q37 0 62.5 26t25.5 62t-25.5 61.5t-61.5 25.5q-37 0 -62.5 -25.5t-25.5 -61.5q0 -37 25.5 -62.5t61.5 -25.5z" />
    <glyph glyph-name="dotlessi" unicode="&#x131;" horiz-adv-x="514" 
d="M-11 0h283l209 1185h-283z" />
    <glyph glyph-name="IJ" unicode="&#x132;" horiz-adv-x="1856" 
d="M27 0h283l239 1350h-283zM1077 -11q273 0 422.5 100.5t185.5 305.5l168 955h-283l-161 -915q-23 -132 -93.5 -193t-212.5 -61q-143 0 -190 62t-23 191l31 174h-284l-36 -207q-39 -212 83 -312t393 -100z" />
    <glyph glyph-name="ij" unicode="&#x133;" horiz-adv-x="1102" 
d="M20 0h282l208 1186h-281zM290 1529l-38 -212h281l38 212h-281zM226 -460q271 0 429.5 99.5t207.5 381.5l206 1165h-280l-208 -1176q-28 -162 -108.5 -218t-211.5 -56zM849 1529l-38 -212h282l37 212h-281z" />
    <glyph glyph-name="Jcircumflex" unicode="&#x134;" horiz-adv-x="1275" 
d="M497 -11q273 0 422.5 100.5t185.5 305.5l168 955h-283l-161 -915q-23 -132 -93.5 -193t-212.5 -61q-143 0 -190 62t-23 191l31 174h-284l-36 -207q-39 -212 83 -312t393 -100zM841 1401h165l161 135l114 -135h165l-179 195h-181z" />
    <glyph glyph-name="jcircumflex" unicode="&#x135;" horiz-adv-x="559" 
d="M-318 -460q271 0 429.5 99.5t207.5 381.5l207 1165h-281l-208 -1176q-28 -162 -108.5 -218t-211.5 -56zM92 1237h165l161 135l114 -135h165l-179 195h-181z" />
    <glyph glyph-name="uni0136" unicode="&#x136;" horiz-adv-x="1219" 
d="M-21 0h282l106 599l375 -599h319l-423 671l662 679h-325l-581 -598l105 598h-282zM315 -312h100l173 245h-162z" />
    <glyph glyph-name="uni0137" unicode="&#x137;" horiz-adv-x="1207" 
d="M-18 0h281l64 371l219 186l191 -557h299l-263 748l457 438h-331l-514 -499l154 883h-281zM295 -312h100l173 245h-162z" />
    <glyph glyph-name="kgreenlandic" unicode="&#x138;" horiz-adv-x="1218" 
d="M-9 0h283l209 1186h-283zM324 586l313 2l646 598h-324zM758 0h317l-437 597l-305 3z" />
    <glyph glyph-name="Lacute" unicode="&#x139;" horiz-adv-x="1021" 
d="M-21 0h850l34 193h-566l205 1157h-285zM483 1392h136l251 191h-199z" />
    <glyph glyph-name="lacute" unicode="&#x13a;" horiz-adv-x="528" 
d="M4 0h282l276 1570h-281zM256 1612h136l251 191h-199z" />
    <glyph glyph-name="uni013B" unicode="&#x13b;" horiz-adv-x="1021" 
d="M-21 0h850l34 193h-566l205 1157h-285zM234 -312h100l173 245h-162z" />
    <glyph glyph-name="uni013C" unicode="&#x13c;" horiz-adv-x="528" 
d="M4 0h282l276 1570h-281zM-30 -312h100l173 245h-162z" />
    <glyph glyph-name="Lcaron" unicode="&#x13d;" horiz-adv-x="1035" 
d="M863 1024h175l177 324h-189zM-21 0h850l34 193h-566l205 1157h-285z" />
    <glyph glyph-name="lcaron" unicode="&#x13e;" horiz-adv-x="528" 
d="M4 0h282l276 1570h-281zM345 1615h181l246 195h-167l-159 -134l-116 134h-164z" />
    <glyph glyph-name="Ldot" unicode="&#x13f;" horiz-adv-x="1088" 
d="M-21 0h850l34 193h-566l205 1157h-285zM648 803l-39 -222h264l39 222h-264z" />
    <glyph glyph-name="ldot" unicode="&#x140;" horiz-adv-x="785" 
d="M4 0h282l276 1570h-281zM506 787l-39 -222h264l39 222h-264z" />
    <glyph glyph-name="Lslash" unicode="&#x141;" horiz-adv-x="1079" 
d="M12 396l728 425l-43 141l-728 -425zM64 0h850l34 193h-566l205 1157h-285z" />
    <glyph glyph-name="lslash" unicode="&#x142;" horiz-adv-x="544" 
d="M-37 384l596 337l37 223l-595 -337zM35 0h282l277 1570h-282z" />
    <glyph glyph-name="Nacute" unicode="&#x143;" horiz-adv-x="1491" 
d="M-21 0h282l203 1147h3l354 -1147h443l238 1350h-283l-202 -1133h-4l-351 1133h-445zM703 1392h136l251 191h-199z" />
    <glyph glyph-name="nacute" unicode="&#x144;" horiz-adv-x="1249" 
d="M-18 0h280l172 978l-24 208h-219zM741 0h281l114 652q44 249 -18 396.5t-282 147.5q-227 0 -393.5 -142.5t-193.5 -295.5l124 -70q25 138 118.5 226t207.5 88q110 0 151.5 -76.5t5.5 -277.5zM565 1220h136l251 191h-199z" />
    <glyph glyph-name="uni0145" unicode="&#x145;" horiz-adv-x="1491" 
d="M-21 0h282l203 1147h3l354 -1147h443l238 1350h-283l-202 -1133h-4l-351 1133h-445zM454 -312h100l173 245h-162z" />
    <glyph glyph-name="uni0146" unicode="&#x146;" horiz-adv-x="1249" 
d="M-18 0h280l172 978l-24 208h-219zM741 0h281l114 652q44 249 -18 396.5t-282 147.5q-227 0 -393.5 -142.5t-193.5 -295.5l124 -70q25 138 118.5 226t207.5 88q110 0 151.5 -76.5t5.5 -277.5zM325 -311h100l173 245h-162z" />
    <glyph glyph-name="Ncaron" unicode="&#x147;" horiz-adv-x="1491" 
d="M-21 0h282l203 1147h3l354 -1147h443l238 1350h-283l-202 -1133h-4l-351 1133h-445zM792 1395h181l246 195h-167l-159 -134l-116 134h-164z" />
    <glyph glyph-name="ncaron" unicode="&#x148;" horiz-adv-x="1249" 
d="M-18 0h280l172 978l-24 208h-219zM741 0h281l114 652q44 249 -18 396.5t-282 147.5q-227 0 -393.5 -142.5t-193.5 -295.5l124 -70q25 138 118.5 226t207.5 88q110 0 151.5 -76.5t5.5 -277.5zM643 1223h181l246 195h-167l-159 -134l-116 134h-164z" />
    <glyph glyph-name="Eng" unicode="&#x14a;" horiz-adv-x="1492" 
d="M586 -451q104 0 198.5 18.5t175 54.5t144 90.5t104.5 126t57 161.5h-293q-9 -51 -30.5 -98.5t-61.5 -84.5t-103.5 -59t-157.5 -22zM-21 0h282l203 1147h3l354 -1147h443l238 1350h-283l-202 -1133h-4l-351 1133h-445z" />
    <glyph glyph-name="eng" unicode="&#x14b;" horiz-adv-x="1248" 
d="M403 -428q186 0 314 43t203 136.5t102 248.5h-281q-15 -89 -56.5 -143.5t-105.5 -80.5t-145 -26zM-18 0h280l172 978l-24 208h-219zM741 0h281l114 652q44 249 -18 396.5t-282 147.5q-227 0 -393.5 -142.5t-193.5 -295.5l124 -70q25 138 118.5 226t207.5 88
q110 0 151.5 -76.5t5.5 -277.5z" />
    <glyph glyph-name="Omacron" unicode="&#x14c;" horiz-adv-x="1369" 
d="M565 -10q333 0 508 169t229 516q53 347 -54.5 517t-441.5 170t-509 -169.5t-229 -517.5q-52 -346 55 -515.5t442 -169.5zM599 184q-151 0 -224 90t-23 401q50 315 160 403.5t260 88.5t223.5 -88.5t22.5 -403.5q-50 -311 -160 -401t-259 -90zM499 1445h645l18 105h-644z
" />
    <glyph glyph-name="omacron" unicode="&#x14d;" horiz-adv-x="1281" 
d="M522 -9q299 0 462.5 152.5t209.5 453.5q45 296 -60.5 448.5t-405.5 152.5t-464 -150.5t-209 -450.5q-45 -297 60.5 -451.5t406.5 -154.5zM552 183q-126 0 -189.5 84.5t-26.5 327.5q38 242 137 327t224 85q126 0 190 -84.5t26 -327.5q-38 -241 -137 -326.5t-224 -85.5z
M422 1281h645l18 105h-644z" />
    <glyph glyph-name="Obreve" unicode="&#x14e;" horiz-adv-x="1369" 
d="M565 -10q333 0 508 169t229 516q53 347 -54.5 517t-441.5 170t-509 -169.5t-229 -517.5q-52 -346 55 -515.5t442 -169.5zM599 184q-151 0 -224 90t-23 401q50 315 160 403.5t260 88.5t223.5 -88.5t22.5 -403.5q-50 -311 -160 -401t-259 -90zM814 1410q74 0 129.5 25
t90 66t42.5 90h-135q-4 -25 -16.5 -44.5t-35 -30.5t-59.5 -11q-32 0 -51 11t-26 30t-2 45h-135q-8 -49 12.5 -90t67.5 -66t118 -25z" />
    <glyph glyph-name="obreve" unicode="&#x14f;" horiz-adv-x="1281" 
d="M522 -9q299 0 462.5 152.5t209.5 453.5q45 296 -60.5 448.5t-405.5 152.5t-464 -150.5t-209 -450.5q-45 -297 60.5 -451.5t406.5 -154.5zM552 183q-126 0 -189.5 84.5t-26.5 327.5q38 242 137 327t224 85q126 0 190 -84.5t26 -327.5q-38 -241 -137 -326.5t-224 -85.5z
M739 1246q74 0 129.5 25t90 66t42.5 90h-135q-4 -25 -16.5 -44.5t-35 -30.5t-59.5 -11q-32 0 -51 11t-26 30t-2 45h-135q-8 -49 12.5 -90t67.5 -66t118 -25z" />
    <glyph glyph-name="Ohungarumlaut" unicode="&#x150;" horiz-adv-x="1369" 
d="M565 -10q333 0 508 169t229 516q53 347 -54.5 517t-441.5 170t-509 -169.5t-229 -517.5q-52 -346 55 -515.5t442 -169.5zM599 184q-151 0 -224 90t-23 401q50 315 160 403.5t260 88.5t223.5 -88.5t22.5 -403.5q-50 -311 -160 -401t-259 -90zM741 1420h132l219 171h-177z
M572 1420h131l213 171h-173z" />
    <glyph glyph-name="ohungarumlaut" unicode="&#x151;" horiz-adv-x="1281" 
d="M522 -9q299 0 462.5 152.5t209.5 453.5q45 296 -60.5 448.5t-405.5 152.5t-464 -150.5t-209 -450.5q-45 -297 60.5 -451.5t406.5 -154.5zM552 183q-126 0 -189.5 84.5t-26.5 327.5q38 242 137 327t224 85q126 0 190 -84.5t26 -327.5q-38 -241 -137 -326.5t-224 -85.5z
M665 1256h132l219 171h-177zM496 1256h131l213 171h-173z" />
    <glyph glyph-name="OE" unicode="&#x152;" horiz-adv-x="2059" 
d="M565 -10q333 0 508 169t229 516q53 347 -54.5 517t-441.5 170t-509 -169.5t-229 -517.5q-52 -346 55 -515.5t442 -169.5zM599 184q-151 0 -224 90t-23 401q50 315 160 403.5t260 88.5t223.5 -88.5t22.5 -403.5q-50 -311 -160 -401t-259 -90zM902 0h948l34 194h-663
l70 400h620l33 185h-620l66 377h663l35 194h-948z" />
    <glyph glyph-name="oe" unicode="&#x153;" horiz-adv-x="2124" 
d="M522 -9q299 0 462.5 152.5t209.5 453.5q45 296 -60.5 448.5t-405.5 152.5t-464 -150.5t-209 -450.5q-45 -297 60.5 -451.5t406.5 -154.5zM552 183q-126 0 -189.5 84.5t-26.5 327.5q38 242 137 327t224 85q126 0 190 -84.5t26 -327.5q-38 -241 -137 -326.5t-224 -85.5z
M1375 -10l33 182q-138 0 -200 93q-63 91 -22 329q41 246 138 334q98 87 228 87q134 0 194 -82q46 -72 24 -252h-596l-30 -171h876q12 39 20 86q50 287 -47 445q-97 156 -409 156q-302 0 -462 -155q-159 -156 -209 -448q-47 -281 52 -443q99 -161 410 -161zM1408 172
l-33 -182q167 0 276 36q106 36 189 114q82 77 123 196l-240 70q-32 -73 -73 -130q-43 -57 -101 -81q-61 -23 -141 -23z" />
    <glyph glyph-name="Racute" unicode="&#x154;" horiz-adv-x="1266" 
d="M-21 0h285l97 557h432q219 0 316 112.5t123 277.5q27 164 -24 283.5t-264 119.5h-727zM776 0h308l-192 646l-283 -14zM393 733l74 423h350q96 0 121.5 -56.5t7.5 -155.5q-17 -98 -63 -154.5t-140 -56.5h-350zM559 1392h136l251 191h-199z" />
    <glyph glyph-name="racute" unicode="&#x155;" horiz-adv-x="1225" 
d="M827 615h281q52 300 -5 440.5t-278 140.5q-210 0 -356 -111.5t-175 -273.5l98 -68q18 100 98.5 179t195.5 79q101 0 141 -77t0 -309zM-19 0h281l171 970l-24 215h-219zM540 1228h136l251 191h-199z" />
    <glyph glyph-name="uni0156" unicode="&#x156;" horiz-adv-x="1266" 
d="M-21 0h285l97 557h432q219 0 316 112.5t123 277.5q27 164 -24 283.5t-264 119.5h-727zM776 0h308l-192 646l-283 -14zM393 733l74 423h350q96 0 121.5 -56.5t7.5 -155.5q-17 -98 -63 -154.5t-140 -56.5h-350zM310 -312h100l173 245h-162z" />
    <glyph glyph-name="uni0157" unicode="&#x157;" horiz-adv-x="1225" 
d="M827 615h281q52 300 -5 440.5t-278 140.5q-210 0 -356 -111.5t-175 -273.5l98 -68q18 100 98.5 179t195.5 79q101 0 141 -77t0 -309zM-19 0h281l171 970l-24 215h-219zM253 -312h100l173 245h-162z" />
    <glyph glyph-name="Rcaron" unicode="&#x158;" horiz-adv-x="1266" 
d="M-21 0h285l97 557h432q219 0 316 112.5t123 277.5q27 164 -24 283.5t-264 119.5h-727zM776 0h308l-192 646l-283 -14zM393 733l74 423h350q96 0 121.5 -56.5t7.5 -155.5q-17 -98 -63 -154.5t-140 -56.5h-350zM648 1395h181l246 195h-167l-159 -134l-116 134h-164z" />
    <glyph glyph-name="rcaron" unicode="&#x159;" horiz-adv-x="1225" 
d="M827 615h281q52 300 -5 440.5t-278 140.5q-210 0 -356 -111.5t-175 -273.5l98 -68q18 100 98.5 179t195.5 79q101 0 141 -77t0 -309zM-19 0h281l171 970l-24 215h-219zM629 1231h181l246 195h-167l-159 -134l-116 134h-164z" />
    <glyph glyph-name="Sacute" unicode="&#x15a;" horiz-adv-x="1299" 
d="M611 1488h136l251 191h-199zM527 -8q326 0 473 119t166 289q22 167 -65 238.5t-355 134.5q-179 41 -269 81t-75 144q12 80 101 124t224 44q131 0 199.5 -52t36.5 -246h284q40 236 -59 365t-426 129q-323 0 -475 -117t-166 -281q-17 -156 69 -239t346 -144
q172 -40 265.5 -79t77.5 -141q-13 -86 -99.5 -131t-221.5 -45q-136 0 -202 54t-33 254h-285q-43 -250 55.5 -375.5t433.5 -125.5z" />
    <glyph glyph-name="sacute" unicode="&#x15b;" horiz-adv-x="1250" 
d="M520 -9q226 0 392 85t191 262q25 175 -75.5 248t-311.5 108q-157 26 -246 55.5t-76 114.5q8 66 75.5 106t187.5 40q126 0 194 -58t69 -165l263 88q-6 174 -135.5 247.5t-359.5 73.5q-229 0 -388.5 -81.5t-182.5 -249.5q-25 -176 73 -252t295 -109q166 -32 258.5 -62
t79.5 -119q-9 -64 -79 -105t-194 -41q-135 0 -205 56t-70 177l-263 -88q10 -184 145.5 -257.5t362.5 -73.5zM534 1228h136l251 191h-199z" />
    <glyph glyph-name="Scircumflex" unicode="&#x15c;" horiz-adv-x="1299" 
d="M527 -8q326 0 473 119t166 289q22 167 -65 238.5t-355 134.5q-179 41 -269 81t-75 144q12 80 101 124t224 44q131 0 199.5 -52t36.5 -246h284q40 236 -59 365t-426 129q-323 0 -475 -117t-166 -281q-17 -156 69 -239t346 -144q172 -40 265.5 -79t77.5 -141
q-13 -86 -99.5 -131t-221.5 -45q-136 0 -202 54t-33 254h-285q-43 -250 55.5 -375.5t433.5 -125.5zM471 1400h165l161 135l114 -135h165l-179 195h-181z" />
    <glyph glyph-name="scircumflex" unicode="&#x15d;" horiz-adv-x="1250" 
d="M520 -9q226 0 392 85t191 262q25 175 -75.5 248t-311.5 108q-157 26 -246 55.5t-76 114.5q8 66 75.5 106t187.5 40q126 0 194 -58t69 -165l263 88q-6 174 -135.5 247.5t-359.5 73.5q-229 0 -388.5 -81.5t-182.5 -249.5q-25 -176 73 -252t295 -109q166 -32 258.5 -62
t79.5 -119q-9 -64 -79 -105t-194 -41q-135 0 -205 56t-70 177l-263 -88q10 -184 145.5 -257.5t362.5 -73.5zM410 1237h165l161 135l114 -135h165l-179 195h-181z" />
    <glyph glyph-name="Scedilla" unicode="&#x15e;" horiz-adv-x="1299" 
d="M475 -331q54 0 107 11t98.5 32.5t75.5 53.5t37 73q10 56 -24.5 83t-97.5 27q-50 0 -94 -14.5t-68 -33.5l-13 -50q17 10 40.5 17t44.5 7q24 0 36.5 -7.5t8.5 -25.5q-4 -23 -36.5 -38t-91.5 -15q-38 0 -71 5.5t-56 11.5l-60 -118q39 -9 81.5 -14t82.5 -5zM496 -149l79 149
h-115l-65 -137zM527 -8q326 0 473 119t166 289q22 167 -65 238.5t-355 134.5q-179 41 -269 81t-75 144q12 80 101 124t224 44q131 0 199.5 -52t36.5 -246h284q40 236 -59 365t-426 129q-323 0 -475 -117t-166 -281q-17 -156 69 -239t346 -144q172 -40 265.5 -79t77.5 -141
q-13 -86 -99.5 -131t-221.5 -45q-136 0 -202 54t-33 254h-285q-43 -250 55.5 -375.5t433.5 -125.5z" />
    <glyph glyph-name="scedilla" unicode="&#x15f;" horiz-adv-x="1250" 
d="M520 -9q226 0 392 85t191 262q25 175 -75.5 248t-311.5 108q-157 26 -246 55.5t-76 114.5q8 66 75.5 106t187.5 40q126 0 194 -58t69 -165l263 88q-6 174 -135.5 247.5t-359.5 73.5q-229 0 -388.5 -81.5t-182.5 -249.5q-25 -176 73 -252t295 -109q166 -32 258.5 -62
t79.5 -119q-9 -64 -79 -105t-194 -41q-135 0 -205 56t-70 177l-263 -88q10 -184 145.5 -257.5t362.5 -73.5zM460 -331q54 0 107 11t98.5 32.5t75.5 53.5t37 73q10 56 -24.5 83t-97.5 27q-50 0 -94 -14.5t-68 -33.5l-13 -50q17 10 40.5 17t44.5 7q24 0 36.5 -7.5t8.5 -25.5
q-4 -23 -36.5 -38t-91.5 -15q-38 0 -71 5.5t-56 11.5l-60 -118q39 -9 81.5 -14t82.5 -5zM481 -149l79 149h-115l-65 -137z" />
    <glyph glyph-name="Scaron" unicode="&#x160;" horiz-adv-x="1299" 
d="M660 1483h181l246 195h-167l-159 -134l-116 134h-164zM527 -8q326 0 473 119t166 289q22 167 -65 238.5t-355 134.5q-179 41 -269 81t-75 144q12 80 101 124t224 44q131 0 199.5 -52t36.5 -246h284q40 236 -59 365t-426 129q-323 0 -475 -117t-166 -281q-17 -156 69 -239
t346 -144q172 -40 265.5 -79t77.5 -141q-13 -86 -99.5 -131t-221.5 -45q-136 0 -202 54t-33 254h-285q-43 -250 55.5 -375.5t433.5 -125.5z" />
    <glyph glyph-name="scaron" unicode="&#x161;" horiz-adv-x="1250" 
d="M520 -9q226 0 392 85t191 262q25 175 -75.5 248t-311.5 108q-157 26 -246 55.5t-76 114.5q8 66 75.5 106t187.5 40q126 0 194 -58t69 -165l263 88q-6 174 -135.5 247.5t-359.5 73.5q-229 0 -388.5 -81.5t-182.5 -249.5q-25 -176 73 -252t295 -109q166 -32 258.5 -62
t79.5 -119q-9 -64 -79 -105t-194 -41q-135 0 -205 56t-70 177l-263 -88q10 -184 145.5 -257.5t362.5 -73.5zM622 1231h181l246 195h-167l-159 -134l-116 134h-164z" />
    <glyph glyph-name="uni0162" unicode="&#x162;" horiz-adv-x="1238" 
d="M356 0h284l204 1156h405l35 194h-1097l-35 -194h407zM465 -331q54 0 107 11t98.5 32.5t75.5 53.5t37 73q10 56 -24.5 83t-97.5 27q-50 0 -94 -14.5t-68 -33.5l-13 -50q17 10 40.5 17t44.5 7q24 0 36.5 -7.5t8.5 -25.5q-4 -23 -36.5 -38t-91.5 -15q-38 0 -71 5.5t-56 11.5
l-60 -118q39 -9 81.5 -14t82.5 -5zM486 -149l79 149h-115l-65 -137z" />
    <glyph glyph-name="uni0163" unicode="&#x163;" horiz-adv-x="1045" 
d="M537 -14q125 0 243 26l33 188q-75 -25 -149 -25q-77 0 -113 32t-18 134l115 650h375l35 194h-376l48 270h-282l-47 -270h-273l-35 -194h274l-126 -713q-29 -166 60 -229t236 -63zM455 -331q54 0 107 11t98.5 32.5t75.5 53.5t37 73q10 56 -24.5 83t-97.5 27
q-50 0 -94 -14.5t-68 -33.5l-13 -50q17 10 40.5 17t44.5 7q24 0 36.5 -7.5t8.5 -25.5q-4 -23 -36.5 -38t-91.5 -15q-38 0 -71 5.5t-56 11.5l-60 -118q39 -9 81.5 -14t82.5 -5zM476 -149l79 149h-115l-65 -137z" />
    <glyph glyph-name="Tcaron" unicode="&#x164;" horiz-adv-x="1238" 
d="M356 0h284l204 1156h405l35 194h-1097l-35 -194h407zM660 1395h181l246 195h-167l-159 -134l-116 134h-164z" />
    <glyph glyph-name="tcaron" unicode="&#x165;" horiz-adv-x="1159" 
d="M1078 1200h132l97 252h-147zM537 -14q125 0 243 26l33 188q-75 -25 -149 -25q-77 0 -113 32t-18 134l115 650h375l35 194h-376l48 270h-282l-47 -270h-273l-35 -194h274l-126 -713q-29 -166 60 -229t236 -63z" />
    <glyph glyph-name="Tbar" unicode="&#x166;" horiz-adv-x="1239" 
d="M184 717h903l30 168h-903zM356 0h284l204 1156h405l35 194h-1097l-35 -194h407z" />
    <glyph glyph-name="tbar" unicode="&#x167;" horiz-adv-x="1026" 
d="M79 553h714l26 151h-714zM537 -14q125 0 243 26l33 188q-75 -25 -149 -25q-77 0 -113 32t-18 134l115 650h375l35 194h-376l48 270h-282l-47 -270h-273l-35 -194h274l-126 -713q-29 -166 60 -229t236 -63z" />
    <glyph glyph-name="Utilde" unicode="&#x168;" horiz-adv-x="1359" 
d="M554 -8q288 0 450.5 102.5t205.5 343.5l160 912h-284l-155 -880q-27 -156 -106.5 -219.5t-236.5 -63.5q-155 0 -212 64t-30 219l156 880h-285l-160 -912q-43 -241 83 -343.5t414 -102.5zM943 1420q62 0 104.5 20.5t68 50.5t39 59.5t17.5 48.5h-137q-3 -12 -14 -28
t-30 -27.5t-44 -11.5q-31 0 -52 11.5t-41.5 27t-47 26.5t-67.5 11q-63 0 -106 -19t-69.5 -48.5t-40 -58.5t-18.5 -50h139q3 12 13.5 28.5t29.5 27.5t47 11t47.5 -12t41 -27.5t49.5 -27.5t71 -12z" />
    <glyph glyph-name="utilde" unicode="&#x169;" horiz-adv-x="1250" 
d="M802 0h217l208 1185h-280l-174 -984zM460 1186h-281l-116 -660q-44 -248 16.5 -392t283.5 -144q240 0 400.5 143t187.5 295l-125 65q-24 -138 -119.5 -223.5t-209.5 -85.5q-110 0 -148.5 76.5t-2.5 278.5zM850 1256q62 0 104.5 20.5t68 50.5t39 59.5t17.5 48.5h-137
q-3 -12 -14 -28t-30 -27.5t-44 -11.5q-31 0 -52 11.5t-41.5 27t-47 26.5t-67.5 11q-63 0 -106 -19t-69.5 -48.5t-40 -58.5t-18.5 -50h139q3 12 13.5 28.5t29.5 27.5t47 11t47.5 -12t41 -27.5t49.5 -27.5t71 -12z" />
    <glyph glyph-name="Umacron" unicode="&#x16a;" horiz-adv-x="1359" 
d="M554 -8q288 0 450.5 102.5t205.5 343.5l160 912h-284l-155 -880q-27 -156 -106.5 -219.5t-236.5 -63.5q-155 0 -212 64t-30 219l156 880h-285l-160 -912q-43 -241 83 -343.5t414 -102.5zM504 1445h645l18 105h-644z" />
    <glyph glyph-name="umacron" unicode="&#x16b;" horiz-adv-x="1250" 
d="M802 0h217l208 1185h-280l-174 -984zM460 1186h-281l-116 -660q-44 -248 16.5 -392t283.5 -144q240 0 400.5 143t187.5 295l-125 65q-24 -138 -119.5 -223.5t-209.5 -85.5q-110 0 -148.5 76.5t-2.5 278.5zM411 1281h645l18 105h-644z" />
    <glyph glyph-name="Ubreve" unicode="&#x16c;" horiz-adv-x="1359" 
d="M554 -8q288 0 450.5 102.5t205.5 343.5l160 912h-284l-155 -880q-27 -156 -106.5 -219.5t-236.5 -63.5q-155 0 -212 64t-30 219l156 880h-285l-160 -912q-43 -241 83 -343.5t414 -102.5zM820 1410q74 0 129.5 25t90 66t42.5 90h-135q-4 -25 -16.5 -44.5t-35 -30.5
t-59.5 -11q-32 0 -51 11t-26 30t-2 45h-135q-8 -49 12.5 -90t67.5 -66t118 -25z" />
    <glyph glyph-name="ubreve" unicode="&#x16d;" horiz-adv-x="1250" 
d="M802 0h217l208 1185h-280l-174 -984zM460 1186h-281l-116 -660q-44 -248 16.5 -392t283.5 -144q240 0 400.5 143t187.5 295l-125 65q-24 -138 -119.5 -223.5t-209.5 -85.5q-110 0 -148.5 76.5t-2.5 278.5zM727 1246q74 0 129.5 25t90 66t42.5 90h-135q-4 -25 -16.5 -44.5
t-35 -30.5t-59.5 -11q-32 0 -51 11t-26 30t-2 45h-135q-8 -49 12.5 -90t67.5 -66t118 -25z" />
    <glyph glyph-name="Uring" unicode="&#x16e;" horiz-adv-x="1359" 
d="M554 -8q288 0 450.5 102.5t205.5 343.5l160 912h-284l-155 -880q-27 -156 -106.5 -219.5t-236.5 -63.5q-155 0 -212 64t-30 219l156 880h-285l-160 -912q-43 -241 83 -343.5t414 -102.5zM821 1389q42 0 78.5 20t60.5 54t30 76q11 63 -26 105.5t-100 42.5
q-43 0 -78.5 -19.5t-59.5 -53t-31 -75.5q-10 -64 26.5 -107t99.5 -43zM835 1491q-18 0 -29 14t-9 34q4 20 19.5 33t32.5 13q20 0 31.5 -13t7.5 -33q-2 -20 -17.5 -34t-35.5 -14z" />
    <glyph glyph-name="uring" unicode="&#x16f;" horiz-adv-x="1250" 
d="M802 0h217l208 1185h-280l-174 -984zM460 1186h-281l-116 -660q-44 -248 16.5 -392t283.5 -144q240 0 400.5 143t187.5 295l-125 65q-24 -138 -119.5 -223.5t-209.5 -85.5q-110 0 -148.5 76.5t-2.5 278.5zM728 1225q42 0 78.5 20t60.5 54t30 76q11 63 -26 105.5
t-100 42.5q-43 0 -78.5 -19.5t-59.5 -53t-31 -75.5q-10 -64 26.5 -107t99.5 -43zM742 1327q-18 0 -29 14t-9 34q4 20 19.5 33t32.5 13q20 0 31.5 -13t7.5 -33q-2 -20 -17.5 -34t-35.5 -14z" />
    <glyph glyph-name="Uhungarumlaut" unicode="&#x170;" horiz-adv-x="1359" 
d="M554 -8q288 0 450.5 102.5t205.5 343.5l160 912h-284l-155 -880q-27 -156 -106.5 -219.5t-236.5 -63.5q-155 0 -212 64t-30 219l156 880h-285l-160 -912q-43 -241 83 -343.5t414 -102.5zM746 1420h132l219 171h-177zM577 1420h131l213 171h-173z" />
    <glyph glyph-name="uhungarumlaut" unicode="&#x171;" horiz-adv-x="1250" 
d="M802 0h217l208 1185h-280l-174 -984zM460 1186h-281l-116 -660q-44 -248 16.5 -392t283.5 -144q240 0 400.5 143t187.5 295l-125 65q-24 -138 -119.5 -223.5t-209.5 -85.5q-110 0 -148.5 76.5t-2.5 278.5zM653 1256h132l219 171h-177zM484 1256h131l213 171h-173z" />
    <glyph glyph-name="Uogonek" unicode="&#x172;" horiz-adv-x="1359" 
d="M554 -8q288 0 450.5 102.5t205.5 343.5l160 912h-284l-155 -880q-27 -156 -106.5 -219.5t-236.5 -63.5q-155 0 -212 64t-30 219l156 880h-285l-160 -912q-43 -241 83 -343.5t414 -102.5zM476 -352q43 0 83 4.5t70 11t40 9.5l22 140q-11 -5 -36.5 -11.5t-55.5 -11
t-57 -4.5q-34 0 -50.5 12t-16.5 33q0 22 16 55t37 65t36 49h-138q-26 -25 -55 -65.5t-48.5 -86t-19.5 -87.5q0 -43 24.5 -67.5t64 -35t84.5 -10.5z" />
    <glyph glyph-name="uogonek" unicode="&#x173;" horiz-adv-x="1250" 
d="M802 0h217l208 1185h-280l-174 -984zM460 1186h-281l-116 -660q-44 -248 16.5 -392t283.5 -144q240 0 400.5 143t187.5 295l-125 65q-24 -138 -119.5 -223.5t-209.5 -85.5q-110 0 -148.5 76.5t-2.5 278.5zM931 -352q43 0 83 4.5t70 11t40 9.5l22 140q-11 -5 -36.5 -11.5
t-55.5 -11t-57 -4.5q-34 0 -50.5 12t-16.5 33q0 22 16 55t37 65t36 49h-138q-26 -25 -55 -65.5t-48.5 -86t-19.5 -87.5q0 -43 24.5 -67.5t64 -35t84.5 -10.5z" />
    <glyph glyph-name="Wcircumflex" unicode="&#x174;" horiz-adv-x="1949" 
d="M192 0h433l430 1156h3l19 -1156h434l497 1350h-312l-385 -1142h-3l-36 1142h-374l-439 -1141h-3l23 1141h-302zM803 1401h165l161 135l114 -135h165l-179 195h-181z" />
    <glyph glyph-name="wcircumflex" unicode="&#x175;" horiz-adv-x="1782" 
d="M202 0h379l353 904l39 -904h375l462 1185h-295l-334 -997h-3l-54 997h-283l-407 -999h-3l13 999h-288zM695 1237h165l161 135l114 -135h165l-179 195h-181z" />
    <glyph glyph-name="Ycircumflex" unicode="&#x176;" horiz-adv-x="1349" 
d="M409 0h284l91 516l646 834h-312l-439 -608h-2l-226 608h-305l353 -836zM510 1401h165l161 135l114 -135h165l-179 195h-181z" />
    <glyph glyph-name="ycircumflex" unicode="&#x177;" horiz-adv-x="1165" 
d="M261 0h430l545 1185h-295l-432 -998h-2l-84 998h-293zM-90 -464q278 0 461.5 87t319.5 377l-261 1q-78 -168 -187 -220.5t-300 -52.5zM391 1237h165l161 135l114 -135h165l-179 195h-181z" />
    <glyph glyph-name="Ydieresis" unicode="&#x178;" horiz-adv-x="1349" 
d="M409 0h284l91 516l646 834h-312l-439 -608h-2l-226 608h-305l353 -836zM633 1414q37 0 67.5 28.5t30.5 68.5q0 32 -21 53t-52 21q-39 0 -69 -28.5t-30 -68.5q0 -32 20.5 -53t53.5 -21zM992 1414q39 0 68.5 28.5t29.5 68.5q0 32 -20 53t-53 21q-38 0 -68 -28.5t-30 -68.5
q0 -32 21 -53t52 -21z" />
    <glyph glyph-name="Zacute" unicode="&#x179;" horiz-adv-x="1148" 
d="M-43 0h989l35 194h-673l818 962l35 194h-954l-33 -193h637l-818 -956zM526 1392h136l251 191h-199z" />
    <glyph glyph-name="zacute" unicode="&#x17a;" horiz-adv-x="1050" 
d="M-35 0h891l34 193h-555l1 3l686 797l34 192h-877l-34 -193h551l-1 -1l-696 -798zM450 1228h136l251 191h-199z" />
    <glyph glyph-name="Zdotaccent" unicode="&#x17b;" horiz-adv-x="1148" 
d="M-43 0h989l35 194h-673l818 962l35 194h-954l-33 -193h637l-818 -956zM723 1405q37 0 62.5 26t25.5 62t-25.5 61.5t-61.5 25.5q-37 0 -62.5 -25.5t-25.5 -61.5q0 -37 25.5 -62.5t61.5 -25.5z" />
    <glyph glyph-name="zdotaccent" unicode="&#x17c;" horiz-adv-x="1050" 
d="M-35 0h891l34 193h-555l1 3l686 797l34 192h-877l-34 -193h551l-1 -1l-696 -798zM647 1241q37 0 62.5 26t25.5 62t-25.5 61.5t-61.5 25.5q-37 0 -62.5 -25.5t-25.5 -61.5q0 -37 25.5 -62.5t61.5 -25.5z" />
    <glyph glyph-name="Zcaron" unicode="&#x17d;" horiz-adv-x="1148" 
d="M-43 0h989l35 194h-673l818 962l35 194h-954l-33 -193h637l-818 -956zM614 1395h181l246 195h-167l-159 -134l-116 134h-164z" />
    <glyph glyph-name="zcaron" unicode="&#x17e;" horiz-adv-x="1050" 
d="M-35 0h891l34 193h-555l1 3l686 797l34 192h-877l-34 -193h551l-1 -1l-696 -798zM538 1231h181l246 195h-167l-159 -134l-116 134h-164z" />
    <glyph glyph-name="uni018F" unicode="&#x18f;" horiz-adv-x="1262" 
d="M510 -10v0q302 0 463 165q159 165 222 523q62 349 -38 516q-101 168 -412 168l-32 -184q150 0 207 -102q55 -102 3 -402q-57 -320 -151 -411t-232 -91q-126 0 -189 86q-57 81 -19 329h602l31 174h-876q-12 -38 -21 -89q-62 -349 34 -515q96 -167 408 -167zM398 939v0
q16 58 47.5 102.5t74.5 75t92 46t101 15.5l37 108l-5 76q-81 0 -157 -13t-143.5 -39.5t-124 -67t-97.5 -96t-63 -124.5z" />
    <glyph glyph-name="florin" unicode="&#x192;" horiz-adv-x="1029" 
d="M-429 -426h137q156 0 274.5 34.5t198.5 108t119 187.5l343 1088h386l66 193h-386l20 63q26 74 98 109t189 35h148l62 180h-150q-165 0 -291 -33t-210.5 -104t-124.5 -184l-20 -66h-245l-64 -193h242l-342 -1085q-26 -79 -89.5 -116t-163.5 -37h-134z" />
    <glyph glyph-name="Ohorn" unicode="&#x1a0;" horiz-adv-x="1369" 
d="M565 -10q333 0 508 169t229 516q53 347 -54.5 517t-441.5 170t-509 -169.5t-229 -517.5q-52 -346 55 -515.5t442 -169.5zM599 184q-151 0 -224 90t-23 401q50 315 160 403.5t260 88.5t223.5 -88.5t22.5 -403.5q-50 -311 -160 -401t-259 -90zM1202 1212l-16 -94
q125 0 216 28.5t146.5 86t70.5 146.5h-162q-10 -60 -38.5 -97t-80.5 -53.5t-136 -16.5z" />
    <glyph glyph-name="ohorn" unicode="&#x1a1;" horiz-adv-x="1281" 
d="M522 -9q299 0 462.5 152.5t209.5 453.5q45 296 -60.5 448.5t-405.5 152.5t-464 -150.5t-209 -450.5q-45 -297 60.5 -451.5t406.5 -154.5zM552 183q-126 0 -189.5 84.5t-26.5 327.5q38 242 137 327t224 85q126 0 190 -84.5t26 -327.5q-38 -241 -137 -326.5t-224 -85.5z
M1089 1064l-16 -94q125 0 216 28.5t146.5 86t70.5 146.5h-162q-10 -60 -38.5 -97t-80.5 -53.5t-136 -16.5z" />
    <glyph glyph-name="Uhorn" unicode="&#x1af;" horiz-adv-x="1359" 
d="M554 -8q288 0 450.5 102.5t205.5 343.5l160 912h-284l-155 -880q-27 -156 -106.5 -219.5t-236.5 -63.5q-155 0 -212 64t-30 219l156 880h-285l-160 -912q-43 -241 83 -343.5t414 -102.5zM1344 1233l-16 -94q125 0 216 28.5t146.5 86t70.5 146.5h-162q-10 -60 -38.5 -97
t-80.5 -53.5t-136 -16.5z" />
    <glyph glyph-name="uhorn" unicode="&#x1b0;" horiz-adv-x="1250" 
d="M802 0h217l208 1185h-280l-174 -984zM460 1186h-281l-116 -660q-44 -248 16.5 -392t283.5 -144q240 0 400.5 143t187.5 295l-125 65q-24 -138 -119.5 -223.5t-209.5 -85.5q-110 0 -148.5 76.5t-2.5 278.5zM1226 1186l-16 -94q125 0 216 28.5t146.5 86t70.5 146.5h-162
q-10 -60 -38.5 -97t-80.5 -53.5t-136 -16.5z" />
    <glyph glyph-name="uni01C4" unicode="&#x1c4;" horiz-adv-x="2447" 
d="M-21 0h646q271 0 409.5 147.5t197.5 528.5q57 373 -26.5 523.5t-354.5 150.5h-634zM297 194l169 962h280q146 0 200.5 -83.5t1.5 -396.5q-54 -319 -139.5 -400.5t-231.5 -81.5h-280zM1256 0h989l35 194h-673l818 962l35 194h-954l-33 -193h637l-818 -956zM1913 1395h181
l246 195h-167l-159 -134l-116 134h-164z" />
    <glyph glyph-name="uni01C5" unicode="&#x1c5;" horiz-adv-x="2350" 
d="M-21 0h646q271 0 409.5 147.5t197.5 528.5q57 373 -26.5 523.5t-354.5 150.5h-634zM297 194l169 962h280q146 0 200.5 -83.5t1.5 -396.5q-54 -319 -139.5 -400.5t-231.5 -81.5h-280zM1264 0h891l34 193h-555l1 3l686 797l34 192h-877l-34 -193h551l-1 -1l-696 -798z
M1836 1231h181l246 195h-167l-159 -134l-116 134h-164z" />
    <glyph glyph-name="uni01C6" unicode="&#x1c6;" horiz-adv-x="2318" 
d="M790 0h262l276 1570h-280l-245 -1393zM399 -7q206 0 368 97.5t183 211.5l-101 131q-18 -101 -113 -174.5t-210 -73.5q-117 0 -167.5 81t-21.5 308q30 250 116.5 339t217.5 89q114 0 183 -73t52 -173l146 129q20 114 -110.5 212.5t-335.5 98.5q-244 0 -387 -169.5
t-167 -480.5q-24 -253 52 -403t295 -150zM1233 0h891l34 193h-555l1 3l686 797l34 192h-877l-34 -193h551l-1 -1l-696 -798zM1805 1231h181l246 195h-167l-159 -134l-116 134h-164z" />
    <glyph glyph-name="uni01C7" unicode="&#x1c7;" horiz-adv-x="2295" 
d="M-21 0h850l34 193h-566l205 1157h-285zM1518 -11q273 0 422.5 100.5t185.5 305.5l168 955h-283l-161 -915q-23 -132 -93.5 -193t-212.5 -61q-143 0 -190 62t-23 191l31 174h-284l-36 -207q-39 -212 83 -312t393 -100z" />
    <glyph glyph-name="uni01C8" unicode="&#x1c8;" horiz-adv-x="1580" 
d="M-21 0h850l34 193h-566l205 1157h-285zM703 -460q271 0 429.5 99.5t207.5 381.5l206 1165h-280l-208 -1176q-28 -162 -108.5 -218t-211.5 -56zM1326 1529l-38 -212h282l37 212h-281z" />
    <glyph glyph-name="uni01C9" unicode="&#x1c9;" horiz-adv-x="1086" 
d="M4 0h282l276 1570h-281zM210 -460q271 0 429.5 99.5t207.5 381.5l206 1165h-280l-208 -1176q-28 -162 -108.5 -218t-211.5 -56zM833 1529l-38 -212h282l37 212h-281z" />
    <glyph glyph-name="uni01CA" unicode="&#x1ca;" horiz-adv-x="2766" 
d="M-21 0h282l203 1147h3l354 -1147h443l238 1350h-283l-202 -1133h-4l-351 1133h-445zM1988 -11q273 0 422.5 100.5t185.5 305.5l168 955h-283l-161 -915q-23 -132 -93.5 -193t-212.5 -61q-143 0 -190 62t-23 191l31 174h-284l-36 -207q-39 -212 83 -312t393 -100z" />
    <glyph glyph-name="uni01CB" unicode="&#x1cb;" horiz-adv-x="2049" 
d="M-21 0h282l203 1147h3l354 -1147h443l238 1350h-283l-202 -1133h-4l-351 1133h-445zM1173 -460q271 0 429.5 99.5t207.5 381.5l206 1165h-280l-208 -1176q-28 -162 -108.5 -218t-211.5 -56zM1796 1529l-38 -212h282l37 212h-281z" />
    <glyph glyph-name="uni01CC" unicode="&#x1cc;" horiz-adv-x="1806" 
d="M-18 0h280l172 978l-24 208h-219zM741 0h281l114 652q44 249 -18 396.5t-282 147.5q-227 0 -393.5 -142.5t-193.5 -295.5l124 -70q25 138 118.5 226t207.5 88q110 0 151.5 -76.5t5.5 -277.5zM930 -460q271 0 429.5 99.5t207.5 381.5l206 1165h-280l-208 -1176
q-28 -162 -108.5 -218t-211.5 -56zM1553 1529l-38 -212h282l37 212h-281z" />
    <glyph glyph-name="uni01CD" unicode="&#x1cd;" horiz-adv-x="1404" 
d="M-46 0h293l164 348h492l40 -348h294l-202 1352h-404zM491 536l313 649h3l82 -649h-398zM759 1395h181l246 195h-167l-159 -134l-116 134h-164z" />
    <glyph glyph-name="uni01CE" unicode="&#x1ce;" horiz-adv-x="1270" 
d="M390 -12q82 0 151.5 14t125 37t94 49.5t58.5 53.5l-2 -142h235l132 746q29 164 -18 262.5t-162 143.5t-291 45q-99 0 -190.5 -18.5t-169.5 -58t-137.5 -105t-95.5 -160.5l262 -75q28 84 75 133.5t105.5 71.5t124.5 22q81 0 134.5 -24t75.5 -78.5t7 -144.5l-10 -54h-380
q-67 0 -135 -9.5t-129.5 -33t-110.5 -65t-81 -106t-40 -155.5q-14 -137 26 -212.5t128.5 -106t217.5 -30.5zM483 170q-61 0 -104 15t-62.5 56t-11.5 117q6 61 28 99t55.5 58.5t75.5 28t89 7.5h310l-44 -251q-25 -33 -74.5 -63t-116.5 -48.5t-145 -18.5zM648 1231h181
l246 195h-167l-159 -134l-116 134h-164z" />
    <glyph glyph-name="uni01CF" unicode="&#x1cf;" horiz-adv-x="580" 
d="M27 0h283l239 1350h-283zM340 1395h181l246 195h-167l-159 -134l-116 134h-164z" />
    <glyph glyph-name="uni01D0" unicode="&#x1d0;" horiz-adv-x="514" 
d="M-11 0h283l209 1185h-283zM260 1231h181l246 195h-167l-159 -134l-116 134h-164z" />
    <glyph glyph-name="uni01D1" unicode="&#x1d1;" horiz-adv-x="1369" 
d="M565 -10q333 0 508 169t229 516q53 347 -54.5 517t-441.5 170t-509 -169.5t-229 -517.5q-52 -346 55 -515.5t442 -169.5zM599 184q-151 0 -224 90t-23 401q50 315 160 403.5t260 88.5t223.5 -88.5t22.5 -403.5q-50 -311 -160 -401t-259 -90zM723 1395h181l246 195h-167
l-159 -134l-116 134h-164z" />
    <glyph glyph-name="uni01D2" unicode="&#x1d2;" horiz-adv-x="1281" 
d="M522 -9q299 0 462.5 152.5t209.5 453.5q45 296 -60.5 448.5t-405.5 152.5t-464 -150.5t-209 -450.5q-45 -297 60.5 -451.5t406.5 -154.5zM552 183q-126 0 -189.5 84.5t-26.5 327.5q38 242 137 327t224 85q126 0 190 -84.5t26 -327.5q-38 -241 -137 -326.5t-224 -85.5z
M647 1231h181l246 195h-167l-159 -134l-116 134h-164z" />
    <glyph glyph-name="uni01D3" unicode="&#x1d3;" horiz-adv-x="1359" 
d="M554 -8q288 0 450.5 102.5t205.5 343.5l160 912h-284l-155 -880q-27 -156 -106.5 -219.5t-236.5 -63.5q-155 0 -212 64t-30 219l156 880h-285l-160 -912q-43 -241 83 -343.5t414 -102.5zM729 1395h181l246 195h-167l-159 -134l-116 134h-164z" />
    <glyph glyph-name="uni01D4" unicode="&#x1d4;" horiz-adv-x="1250" 
d="M802 0h217l208 1185h-280l-174 -984zM460 1186h-281l-116 -660q-44 -248 16.5 -392t283.5 -144q240 0 400.5 143t187.5 295l-125 65q-24 -138 -119.5 -223.5t-209.5 -85.5q-110 0 -148.5 76.5t-2.5 278.5zM635 1231h181l246 195h-167l-159 -134l-116 134h-164z" />
    <glyph glyph-name="uni01D5" unicode="&#x1d5;" horiz-adv-x="1359" 
d="M554 -8q288 0 450.5 102.5t205.5 343.5l160 912h-284l-155 -880q-27 -156 -106.5 -219.5t-236.5 -63.5q-155 0 -212 64t-30 219l156 880h-285l-160 -912q-43 -241 83 -343.5t414 -102.5zM639 1414q37 0 67.5 28.5t30.5 68.5q0 32 -21 53t-52 21q-39 0 -69 -28.5
t-30 -68.5q0 -32 20.5 -53t53.5 -21zM998 1414q39 0 68.5 28.5t29.5 68.5q0 32 -20 53t-53 21q-38 0 -68 -28.5t-30 -68.5q0 -32 21 -53t52 -21zM506 1728h645l18 105h-644z" />
    <glyph glyph-name="uni01D6" unicode="&#x1d6;" horiz-adv-x="1250" 
d="M802 0h217l208 1185h-280l-174 -984zM460 1186h-281l-116 -660q-44 -248 16.5 -392t283.5 -144q240 0 400.5 143t187.5 295l-125 65q-24 -138 -119.5 -223.5t-209.5 -85.5q-110 0 -148.5 76.5t-2.5 278.5zM547 1250q37 0 67.5 28.5t30.5 68.5q0 32 -21 53t-52 21
q-39 0 -69 -28.5t-30 -68.5q0 -32 20.5 -53t53.5 -21zM906 1250q39 0 68.5 28.5t29.5 68.5q0 32 -20 53t-53 21q-38 0 -68 -28.5t-30 -68.5q0 -32 21 -53t52 -21zM448 1516h645l18 105h-644z" />
    <glyph glyph-name="uni01D7" unicode="&#x1d7;" horiz-adv-x="1359" 
d="M554 -8q288 0 450.5 102.5t205.5 343.5l160 912h-284l-155 -880q-27 -156 -106.5 -219.5t-236.5 -63.5q-155 0 -212 64t-30 219l156 880h-285l-160 -912q-43 -241 83 -343.5t414 -102.5zM639 1414q37 0 67.5 28.5t30.5 68.5q0 32 -21 53t-52 21q-39 0 -69 -28.5
t-30 -68.5q0 -32 20.5 -53t53.5 -21zM998 1414q39 0 68.5 28.5t29.5 68.5q0 32 -20 53t-53 21q-38 0 -68 -28.5t-30 -68.5q0 -32 21 -53t52 -21zM675 1688h136l251 191h-199z" />
    <glyph glyph-name="uni01D8" unicode="&#x1d8;" horiz-adv-x="1250" 
d="M802 0h217l208 1185h-280l-174 -984zM460 1186h-281l-116 -660q-44 -248 16.5 -392t283.5 -144q240 0 400.5 143t187.5 295l-125 65q-24 -138 -119.5 -223.5t-209.5 -85.5q-110 0 -148.5 76.5t-2.5 278.5zM547 1250q37 0 67.5 28.5t30.5 68.5q0 32 -21 53t-52 21
q-39 0 -69 -28.5t-30 -68.5q0 -32 20.5 -53t53.5 -21zM906 1250q39 0 68.5 28.5t29.5 68.5q0 32 -20 53t-53 21q-38 0 -68 -28.5t-30 -68.5q0 -32 21 -53t52 -21zM632 1431h136l251 191h-199z" />
    <glyph glyph-name="uni01D9" unicode="&#x1d9;" horiz-adv-x="1359" 
d="M554 -8q288 0 450.5 102.5t205.5 343.5l160 912h-284l-155 -880q-27 -156 -106.5 -219.5t-236.5 -63.5q-155 0 -212 64t-30 219l156 880h-285l-160 -912q-43 -241 83 -343.5t414 -102.5zM639 1414q37 0 67.5 28.5t30.5 68.5q0 32 -21 53t-52 21q-39 0 -69 -28.5
t-30 -68.5q0 -32 20.5 -53t53.5 -21zM998 1414q39 0 68.5 28.5t29.5 68.5q0 32 -20 53t-53 21q-38 0 -68 -28.5t-30 -68.5q0 -32 21 -53t52 -21zM729 1684h181l246 195h-167l-159 -134l-116 134h-164z" />
    <glyph glyph-name="uni01DA" unicode="&#x1da;" horiz-adv-x="1250" 
d="M802 0h217l208 1185h-280l-174 -984zM460 1186h-281l-116 -660q-44 -248 16.5 -392t283.5 -144q240 0 400.5 143t187.5 295l-125 65q-24 -138 -119.5 -223.5t-209.5 -85.5q-110 0 -148.5 76.5t-2.5 278.5zM547 1250q37 0 67.5 28.5t30.5 68.5q0 32 -21 53t-52 21
q-39 0 -69 -28.5t-30 -68.5q0 -32 20.5 -53t53.5 -21zM906 1250q39 0 68.5 28.5t29.5 68.5q0 32 -20 53t-53 21q-38 0 -68 -28.5t-30 -68.5q0 -32 21 -53t52 -21zM671 1466h181l246 195h-167l-159 -134l-116 134h-164z" />
    <glyph glyph-name="uni01DB" unicode="&#x1db;" horiz-adv-x="1359" 
d="M554 -8q288 0 450.5 102.5t205.5 343.5l160 912h-284l-155 -880q-27 -156 -106.5 -219.5t-236.5 -63.5q-155 0 -212 64t-30 219l156 880h-285l-160 -912q-43 -241 83 -343.5t414 -102.5zM639 1414q37 0 67.5 28.5t30.5 68.5q0 32 -21 53t-52 21q-39 0 -69 -28.5
t-30 -68.5q0 -32 20.5 -53t53.5 -21zM998 1414q39 0 68.5 28.5t29.5 68.5q0 32 -20 53t-53 21q-38 0 -68 -28.5t-30 -68.5q0 -32 21 -53t52 -21zM827 1684h130l-122 191h-191z" />
    <glyph glyph-name="uni01DC" unicode="&#x1dc;" horiz-adv-x="1250" 
d="M802 0h217l208 1185h-280l-174 -984zM460 1186h-281l-116 -660q-44 -248 16.5 -392t283.5 -144q240 0 400.5 143t187.5 295l-125 65q-24 -138 -119.5 -223.5t-209.5 -85.5q-110 0 -148.5 76.5t-2.5 278.5zM547 1250q37 0 67.5 28.5t30.5 68.5q0 32 -21 53t-52 21
q-39 0 -69 -28.5t-30 -68.5q0 -32 20.5 -53t53.5 -21zM906 1250q39 0 68.5 28.5t29.5 68.5q0 32 -20 53t-53 21q-38 0 -68 -28.5t-30 -68.5q0 -32 21 -53t52 -21zM733 1439h130l-122 191h-191z" />
    <glyph glyph-name="Gcaron" unicode="&#x1e6;" horiz-adv-x="1341" 
d="M520 -8q321 0 433 193l-1 -185h162l119 681h-548l-30 -169h256l-13 -71q-31 -138 -105 -196.5t-216 -58.5q-151 0 -208.5 98.5t-14.5 383.5q50 323 147 411.5t247 88.5q145 0 199.5 -72t30.5 -246h285q30 208 -70 360t-417 152q-338 0 -497.5 -167t-209.5 -518
q-48 -342 42 -513.5t409 -171.5zM706 1395h181l246 195h-167l-159 -134l-116 134h-164z" />
    <glyph glyph-name="gcaron" unicode="&#x1e7;" horiz-adv-x="1286" 
d="M416 -467q172 0 294 46t219 160t132 313l200 1133h-206l-117 -237l-164 -924q-33 -193 -116 -252.5t-202 -59.5q-71 0 -123 23t-75.5 72t-17.5 129h-275q-18 -222 113.5 -312.5t337.5 -90.5zM397 -7q205 0 368 96t183 212l-101 132q-17 -101 -112.5 -174.5t-209.5 -73.5
q-122 0 -174 84t-12 325q41 241 125 324.5t205 83.5q114 0 183.5 -73t51.5 -173l146 123q20 113 -109 215t-335 102q-230 0 -368.5 -154.5t-182.5 -446.5q-43 -290 34.5 -446t307.5 -156zM651 1231h181l246 195h-167l-159 -134l-116 134h-164z" />
    <glyph glyph-name="uni01EA" unicode="&#x1ea;" horiz-adv-x="1369" 
d="M565 -10q333 0 508 169t229 516q53 347 -54.5 517t-441.5 170t-509 -169.5t-229 -517.5q-52 -346 55 -515.5t442 -169.5zM599 184q-151 0 -224 90t-23 401q50 315 160 403.5t260 88.5t223.5 -88.5t22.5 -403.5q-50 -311 -160 -401t-259 -90zM910 -269q43 0 83 4.5t70 11
t40 9.5l22 140q-11 -5 -36.5 -11.5t-55.5 -11t-57 -4.5q-34 0 -50.5 12t-16.5 33q0 22 16 55t37 65t36 49h-138q-26 -25 -55 -65.5t-48.5 -86t-19.5 -87.5q0 -43 24.5 -67.5t64 -35t84.5 -10.5z" />
    <glyph glyph-name="uni01EB" unicode="&#x1eb;" horiz-adv-x="1281" 
d="M522 -9q299 0 462.5 152.5t209.5 453.5q45 296 -60.5 448.5t-405.5 152.5t-464 -150.5t-209 -450.5q-45 -297 60.5 -451.5t406.5 -154.5zM552 183q-126 0 -189.5 84.5t-26.5 327.5q38 242 137 327t224 85q126 0 190 -84.5t26 -327.5q-38 -241 -137 -326.5t-224 -85.5z
M438 -352q43 0 83 4.5t70 11t40 9.5l22 140q-11 -5 -36.5 -11.5t-55.5 -11t-57 -4.5q-34 0 -50.5 12t-16.5 33q0 22 16 55t37 65t36 49h-138q-26 -25 -55 -65.5t-48.5 -86t-19.5 -87.5q0 -43 24.5 -67.5t64 -35t84.5 -10.5z" />
    <glyph glyph-name="Aringacute" unicode="&#x1fa;" horiz-adv-x="1404" 
d="M-46 0h293l164 348h492l40 -348h294l-202 1352h-404zM491 536l313 649h3l82 -649h-398zM845 1373q42 0 78.5 20t60.5 54t30 76q11 63 -26 105.5t-100 42.5q-43 0 -78.5 -19.5t-59.5 -53t-31 -75.5q-10 -64 26.5 -107t99.5 -43zM859 1475q-18 0 -29 14t-9 34q4 20 19.5 33
t32.5 13q20 0 31.5 -13t7.5 -33q-2 -20 -17.5 -34t-35.5 -14zM724 1713h136l251 191h-199z" />
    <glyph glyph-name="aringacute" unicode="&#x1fb;" horiz-adv-x="1270" 
d="M390 -12q82 0 151.5 14t125 37t94 49.5t58.5 53.5l-2 -142h235l132 746q29 164 -18 262.5t-162 143.5t-291 45q-99 0 -190.5 -18.5t-169.5 -58t-137.5 -105t-95.5 -160.5l262 -75q28 84 75 133.5t105.5 71.5t124.5 22q81 0 134.5 -24t75.5 -78.5t7 -144.5l-10 -54h-380
q-67 0 -135 -9.5t-129.5 -33t-110.5 -65t-81 -106t-40 -155.5q-14 -137 26 -212.5t128.5 -106t217.5 -30.5zM483 170q-61 0 -104 15t-62.5 56t-11.5 117q6 61 28 99t55.5 58.5t75.5 28t89 7.5h310l-44 -251q-25 -33 -74.5 -63t-116.5 -48.5t-145 -18.5zM741 1225
q42 0 78.5 20t60.5 54t30 76q11 63 -26 105.5t-100 42.5q-43 0 -78.5 -19.5t-59.5 -53t-31 -75.5q-10 -64 26.5 -107t99.5 -43zM755 1327q-18 0 -29 14t-9 34q4 20 19.5 33t32.5 13q20 0 31.5 -13t7.5 -33q-2 -20 -17.5 -34t-35.5 -14zM619 1565h136l251 191h-199z" />
    <glyph glyph-name="AEacute" unicode="&#x1fc;" horiz-adv-x="1946" 
d="M-46 0h300l785 1247l20 103h-246zM308 285h586l34 189h-528zM789 0h948l34 194h-663l70 400h620l33 185h-620l66 377h663l35 194h-948zM922 1392h136l251 191h-199z" />
    <glyph glyph-name="aeacute" unicode="&#x1fd;" horiz-adv-x="2075" 
d="M1066 268l79 447q39 224 -51.5 352.5t-371.5 128.5q-284 0 -407 -106t-186 -262l256 -77q46 149 119 206.5t190 57.5q116 0 168 -66.5t27 -213.5l-75 -430l37 -24zM395 -12q248 0 395.5 85t190.5 278l-143 82q-29 -158 -115.5 -215t-221.5 -57q-131 0 -168.5 46
t-26.5 121q15 96 75 134.5t201 38.5h279l29 160h-372q-215 0 -343.5 -70t-159.5 -263q-28 -170 69 -255t311 -85zM1328 -10l32 182q-138 0 -200 93q-63 91 -23 329q42 246 140 334q97 87 228 87q133 0 193 -82q47 -72 24 -252h-596l-30 -171h876q12 39 20 86q50 287 -46 445
q-98 156 -410 156q-303 0 -462 -155q-159 -156 -209 -448q-47 -281 52 -443q100 -161 411 -161zM1360 172l-32 -182q167 0 274 36t191 114q82 77 122 196l-240 70q-31 -73 -73 -130t-101 -81q-61 -23 -141 -23zM940 1228h136l251 191h-199z" />
    <glyph glyph-name="Oslashacute" unicode="&#x1fe;" horiz-adv-x="1271" 
d="M-69 0h151l1257 1348h-148zM565 -10q333 0 508 169t229 516q53 347 -54.5 517t-441.5 170t-509 -169.5t-229 -517.5q-52 -346 55 -515.5t442 -169.5zM599 184q-151 0 -224 90t-23 401q50 315 160 403.5t260 88.5t223.5 -88.5t22.5 -403.5q-50 -311 -160 -401t-259 -90z
M611 1392h136l251 191h-199z" />
    <glyph glyph-name="oslashacute" unicode="&#x1ff;" horiz-adv-x="1278" 
d="M-103 11l78 -74l1371 1249l-82 67zM522 -9q299 0 462.5 152.5t209.5 453.5q45 296 -60.5 448.5t-405.5 152.5t-464 -150.5t-209 -450.5q-45 -297 60.5 -451.5t406.5 -154.5zM552 183q-126 0 -189.5 84.5t-26.5 327.5q38 242 137 327t224 85q126 0 190 -84.5t26 -327.5
q-38 -241 -137 -326.5t-224 -85.5zM554 1223h136l251 191h-199z" />
    <glyph glyph-name="uni0200" unicode="&#x200;" horiz-adv-x="1404" 
d="M-46 0h293l164 348h492l40 -348h294l-202 1352h-404zM491 536l313 649h3l82 -649h-398zM1040 1413h130l-122 191h-191zM765 1413h130l-122 191h-191z" />
    <glyph glyph-name="uni0201" unicode="&#x201;" horiz-adv-x="1270" 
d="M390 -12q82 0 151.5 14t125 37t94 49.5t58.5 53.5l-2 -142h235l132 746q29 164 -18 262.5t-162 143.5t-291 45q-99 0 -190.5 -18.5t-169.5 -58t-137.5 -105t-95.5 -160.5l262 -75q28 84 75 133.5t105.5 71.5t124.5 22q81 0 134.5 -24t75.5 -78.5t7 -144.5l-10 -54h-380
q-67 0 -135 -9.5t-129.5 -33t-110.5 -65t-81 -106t-40 -155.5q-14 -137 26 -212.5t128.5 -106t217.5 -30.5zM483 170q-61 0 -104 15t-62.5 56t-11.5 117q6 61 28 99t55.5 58.5t75.5 28t89 7.5h310l-44 -251q-25 -33 -74.5 -63t-116.5 -48.5t-145 -18.5zM929 1249h130
l-122 191h-191zM654 1249h130l-122 191h-191z" />
    <glyph glyph-name="uni0202" unicode="&#x202;" horiz-adv-x="1404" 
d="M-46 0h293l164 348h492l40 -348h294l-202 1352h-404zM491 536l313 649h3l82 -649h-398zM892 1596q-74 0 -129.5 -24.5t-90 -66t-43.5 -90.5h135q5 26 17.5 45t35 30t58.5 11q33 0 51.5 -10.5t25.5 -30t3 -45.5h135q8 49 -12.5 90.5t-67.5 66t-118 24.5z" />
    <glyph glyph-name="uni0203" unicode="&#x203;" horiz-adv-x="1270" 
d="M390 -12q82 0 151.5 14t125 37t94 49.5t58.5 53.5l-2 -142h235l132 746q29 164 -18 262.5t-162 143.5t-291 45q-99 0 -190.5 -18.5t-169.5 -58t-137.5 -105t-95.5 -160.5l262 -75q28 84 75 133.5t105.5 71.5t124.5 22q81 0 134.5 -24t75.5 -78.5t7 -144.5l-10 -54h-380
q-67 0 -135 -9.5t-129.5 -33t-110.5 -65t-81 -106t-40 -155.5q-14 -137 26 -212.5t128.5 -106t217.5 -30.5zM483 170q-61 0 -104 15t-62.5 56t-11.5 117q6 61 28 99t55.5 58.5t75.5 28t89 7.5h310l-44 -251q-25 -33 -74.5 -63t-116.5 -48.5t-145 -18.5zM780 1432
q-74 0 -129.5 -24.5t-90 -66t-43.5 -90.5h135q5 26 17.5 45t35 30t58.5 11q33 0 51.5 -10.5t25.5 -30t3 -45.5h135q8 49 -12.5 90.5t-67.5 66t-118 24.5z" />
    <glyph glyph-name="uni0204" unicode="&#x204;" horiz-adv-x="1125" 
d="M-32 0h948l34 194h-663l70 400h620l33 185h-620l66 377h663l35 194h-948zM875 1413h130l-122 191h-191zM599 1413h130l-122 191h-191z" />
    <glyph glyph-name="uni0205" unicode="&#x205;" horiz-adv-x="1276" 
d="M528 -10l33 182q-138 0 -200 93q-63 91 -22 329q41 246 138 334q98 87 228 87q134 0 194 -82q46 -72 24 -252h-596l-30 -171h876q12 39 20 86q50 287 -47 445q-97 156 -409 156q-302 0 -462 -155q-159 -156 -209 -448q-47 -281 52 -443q99 -161 410 -161zM561 172
l-33 -182q167 0 276 36q106 36 189 114q82 77 123 196l-240 70q-32 -73 -73 -130q-43 -57 -101 -81q-61 -23 -141 -23zM938 1249h130l-122 191h-191zM663 1249h130l-122 191h-191z" />
    <glyph glyph-name="uni0206" unicode="&#x206;" horiz-adv-x="1125" 
d="M-32 0h948l34 194h-663l70 400h620l33 185h-620l66 377h663l35 194h-948zM726 1596q-74 0 -129.5 -24.5t-90 -66t-43.5 -90.5h135q5 26 17.5 45t35 30t58.5 11q33 0 51.5 -10.5t25.5 -30t3 -45.5h135q8 49 -12.5 90.5t-67.5 66t-118 24.5z" />
    <glyph glyph-name="uni0207" unicode="&#x207;" horiz-adv-x="1276" 
d="M528 -10l33 182q-138 0 -200 93q-63 91 -22 329q41 246 138 334q98 87 228 87q134 0 194 -82q46 -72 24 -252h-596l-30 -171h876q12 39 20 86q50 287 -47 445q-97 156 -409 156q-302 0 -462 -155q-159 -156 -209 -448q-47 -281 52 -443q99 -161 410 -161zM561 172
l-33 -182q167 0 276 36q106 36 189 114q82 77 123 196l-240 70q-32 -73 -73 -130q-43 -57 -101 -81q-61 -23 -141 -23zM790 1432q-74 0 -129.5 -24.5t-90 -66t-43.5 -90.5h135q5 26 17.5 45t35 30t58.5 11q33 0 51.5 -10.5t25.5 -30t3 -45.5h135q8 49 -12.5 90.5t-67.5 66
t-118 24.5z" />
    <glyph glyph-name="uni0208" unicode="&#x208;" horiz-adv-x="580" 
d="M27 0h283l239 1350h-283zM620 1413h130l-122 191h-191zM345 1413h130l-122 191h-191z" />
    <glyph glyph-name="uni0209" unicode="&#x209;" horiz-adv-x="514" 
d="M-11 0h283l209 1185h-283zM542 1249h130l-122 191h-191zM266 1249h130l-122 191h-191z" />
    <glyph glyph-name="uni020A" unicode="&#x20a;" horiz-adv-x="580" 
d="M27 0h283l239 1350h-283zM472 1596q-74 0 -129.5 -24.5t-90 -66t-43.5 -90.5h135q5 26 17.5 45t35 30t58.5 11q33 0 51.5 -10.5t25.5 -30t3 -45.5h135q8 49 -12.5 90.5t-67.5 66t-118 24.5z" />
    <glyph glyph-name="uni020B" unicode="&#x20b;" horiz-adv-x="514" 
d="M-11 0h283l209 1185h-283zM392 1432q-74 0 -129.5 -24.5t-90 -66t-43.5 -90.5h135q5 26 17.5 45t35 30t58.5 11q33 0 51.5 -10.5t25.5 -30t3 -45.5h135q8 49 -12.5 90.5t-67.5 66t-118 24.5z" />
    <glyph glyph-name="uni020C" unicode="&#x20c;" horiz-adv-x="1369" 
d="M565 -10q333 0 508 169t229 516q53 347 -54.5 517t-441.5 170t-509 -169.5t-229 -517.5q-52 -346 55 -515.5t442 -169.5zM599 184q-151 0 -224 90t-23 401q50 315 160 403.5t260 88.5t223.5 -88.5t22.5 -403.5q-50 -311 -160 -401t-259 -90zM1003 1413h130l-122 191h-191
zM728 1413h130l-122 191h-191z" />
    <glyph glyph-name="uni020D" unicode="&#x20d;" horiz-adv-x="1281" 
d="M522 -9q299 0 462.5 152.5t209.5 453.5q45 296 -60.5 448.5t-405.5 152.5t-464 -150.5t-209 -450.5q-45 -297 60.5 -451.5t406.5 -154.5zM552 183q-126 0 -189.5 84.5t-26.5 327.5q38 242 137 327t224 85q126 0 190 -84.5t26 -327.5q-38 -241 -137 -326.5t-224 -85.5z
M928 1249h130l-122 191h-191zM653 1249h130l-122 191h-191z" />
    <glyph glyph-name="uni020E" unicode="&#x20e;" horiz-adv-x="1369" 
d="M565 -10q333 0 508 169t229 516q53 347 -54.5 517t-441.5 170t-509 -169.5t-229 -517.5q-52 -346 55 -515.5t442 -169.5zM599 184q-151 0 -224 90t-23 401q50 315 160 403.5t260 88.5t223.5 -88.5t22.5 -403.5q-50 -311 -160 -401t-259 -90zM855 1596q-74 0 -129.5 -24.5
t-90 -66t-43.5 -90.5h135q5 26 17.5 45t35 30t58.5 11q33 0 51.5 -10.5t25.5 -30t3 -45.5h135q8 49 -12.5 90.5t-67.5 66t-118 24.5z" />
    <glyph glyph-name="uni020F" unicode="&#x20f;" horiz-adv-x="1281" 
d="M522 -9q299 0 462.5 152.5t209.5 453.5q45 296 -60.5 448.5t-405.5 152.5t-464 -150.5t-209 -450.5q-45 -297 60.5 -451.5t406.5 -154.5zM552 183q-126 0 -189.5 84.5t-26.5 327.5q38 242 137 327t224 85q126 0 190 -84.5t26 -327.5q-38 -241 -137 -326.5t-224 -85.5z
M779 1432q-74 0 -129.5 -24.5t-90 -66t-43.5 -90.5h135q5 26 17.5 45t35 30t58.5 11q33 0 51.5 -10.5t25.5 -30t3 -45.5h135q8 49 -12.5 90.5t-67.5 66t-118 24.5z" />
    <glyph glyph-name="uni0210" unicode="&#x210;" horiz-adv-x="1266" 
d="M-21 0h285l97 557h432q219 0 316 112.5t123 277.5q27 164 -24 283.5t-264 119.5h-727zM776 0h308l-192 646l-283 -14zM393 733l74 423h350q96 0 121.5 -56.5t7.5 -155.5q-17 -98 -63 -154.5t-140 -56.5h-350zM929 1413h130l-122 191h-191zM654 1413h130l-122 191h-191z
" />
    <glyph glyph-name="uni0211" unicode="&#x211;" horiz-adv-x="1225" 
d="M827 615h281q52 300 -5 440.5t-278 140.5q-210 0 -356 -111.5t-175 -273.5l98 -68q18 100 98.5 179t195.5 79q101 0 141 -77t0 -309zM-19 0h281l171 970l-24 215h-219zM910 1249h130l-122 191h-191zM635 1249h130l-122 191h-191z" />
    <glyph glyph-name="uni0212" unicode="&#x212;" horiz-adv-x="1266" 
d="M-21 0h285l97 557h432q219 0 316 112.5t123 277.5q27 164 -24 283.5t-264 119.5h-727zM776 0h308l-192 646l-283 -14zM393 733l74 423h350q96 0 121.5 -56.5t7.5 -155.5q-17 -98 -63 -154.5t-140 -56.5h-350zM781 1596q-74 0 -129.5 -24.5t-90 -66t-43.5 -90.5h135
q5 26 17.5 45t35 30t58.5 11q33 0 51.5 -10.5t25.5 -30t3 -45.5h135q8 49 -12.5 90.5t-67.5 66t-118 24.5z" />
    <glyph glyph-name="uni0213" unicode="&#x213;" horiz-adv-x="1225" 
d="M827 615h281q52 300 -5 440.5t-278 140.5q-210 0 -356 -111.5t-175 -273.5l98 -68q18 100 98.5 179t195.5 79q101 0 141 -77t0 -309zM-19 0h281l171 970l-24 215h-219zM761 1432q-74 0 -129.5 -24.5t-90 -66t-43.5 -90.5h135q5 26 17.5 45t35 30t58.5 11q33 0 51.5 -10.5
t25.5 -30t3 -45.5h135q8 49 -12.5 90.5t-67.5 66t-118 24.5z" />
    <glyph glyph-name="uni0214" unicode="&#x214;" horiz-adv-x="1359" 
d="M554 -8q288 0 450.5 102.5t205.5 343.5l160 912h-284l-155 -880q-27 -156 -106.5 -219.5t-236.5 -63.5q-155 0 -212 64t-30 219l156 880h-285l-160 -912q-43 -241 83 -343.5t414 -102.5zM1009 1413h130l-122 191h-191zM734 1413h130l-122 191h-191z" />
    <glyph glyph-name="uni0215" unicode="&#x215;" horiz-adv-x="1250" 
d="M802 0h217l208 1185h-280l-174 -984zM460 1186h-281l-116 -660q-44 -248 16.5 -392t283.5 -144q240 0 400.5 143t187.5 295l-125 65q-24 -138 -119.5 -223.5t-209.5 -85.5q-110 0 -148.5 76.5t-2.5 278.5zM916 1249h130l-122 191h-191zM641 1249h130l-122 191h-191z" />
    <glyph glyph-name="uni0216" unicode="&#x216;" horiz-adv-x="1359" 
d="M554 -8q288 0 450.5 102.5t205.5 343.5l160 912h-284l-155 -880q-27 -156 -106.5 -219.5t-236.5 -63.5q-155 0 -212 64t-30 219l156 880h-285l-160 -912q-43 -241 83 -343.5t414 -102.5zM860 1596q-74 0 -129.5 -24.5t-90 -66t-43.5 -90.5h135q5 26 17.5 45t35 30
t58.5 11q33 0 51.5 -10.5t25.5 -30t3 -45.5h135q8 49 -12.5 90.5t-67.5 66t-118 24.5z" />
    <glyph glyph-name="uni0217" unicode="&#x217;" horiz-adv-x="1250" 
d="M802 0h217l208 1185h-280l-174 -984zM460 1186h-281l-116 -660q-44 -248 16.5 -392t283.5 -144q240 0 400.5 143t187.5 295l-125 65q-24 -138 -119.5 -223.5t-209.5 -85.5q-110 0 -148.5 76.5t-2.5 278.5zM768 1432q-74 0 -129.5 -24.5t-90 -66t-43.5 -90.5h135
q5 26 17.5 45t35 30t58.5 11q33 0 51.5 -10.5t25.5 -30t3 -45.5h135q8 49 -12.5 90.5t-67.5 66t-118 24.5z" />
    <glyph glyph-name="uni0218" unicode="&#x218;" horiz-adv-x="1299" 
d="M312 -312h100l173 245h-162zM527 -8q326 0 473 119t166 289q22 167 -65 238.5t-355 134.5q-179 41 -269 81t-75 144q12 80 101 124t224 44q131 0 199.5 -52t36.5 -246h284q40 236 -59 365t-426 129q-323 0 -475 -117t-166 -281q-17 -156 69 -239t346 -144
q172 -40 265.5 -79t77.5 -141q-13 -86 -99.5 -131t-221.5 -45q-136 0 -202 54t-33 254h-285q-43 -250 55.5 -375.5t433.5 -125.5z" />
    <glyph glyph-name="uni0219" unicode="&#x219;" horiz-adv-x="1250" 
d="M520 -9q226 0 392 85t191 262q25 175 -75.5 248t-311.5 108q-157 26 -246 55.5t-76 114.5q8 66 75.5 106t187.5 40q126 0 194 -58t69 -165l263 88q-6 174 -135.5 247.5t-359.5 73.5q-229 0 -388.5 -81.5t-182.5 -249.5q-25 -176 73 -252t295 -109q166 -32 258.5 -62
t79.5 -119q-9 -64 -79 -105t-194 -41q-135 0 -205 56t-70 177l-263 -88q10 -184 145.5 -257.5t362.5 -73.5zM319 -312h100l173 245h-162z" />
    <glyph glyph-name="uni021A" unicode="&#x21a;" horiz-adv-x="1238" 
d="M356 0h284l204 1156h405l35 194h-1097l-35 -194h407zM310 -312h100l173 245h-162z" />
    <glyph glyph-name="uni021B" unicode="&#x21b;" horiz-adv-x="1026" 
d="M537 -14q125 0 243 26l33 188q-75 -25 -149 -25q-77 0 -113 32t-18 134l115 650h375l35 194h-376l48 270h-282l-47 -270h-273l-35 -194h274l-126 -713q-29 -166 60 -229t236 -63zM317 -312h100l173 245h-162z" />
    <glyph glyph-name="uni022A" unicode="&#x22a;" horiz-adv-x="1369" 
d="M565 -10q333 0 508 169t229 516q53 347 -54.5 517t-441.5 170t-509 -169.5t-229 -517.5q-52 -346 55 -515.5t442 -169.5zM599 184q-151 0 -224 90t-23 401q50 315 160 403.5t260 88.5t223.5 -88.5t22.5 -403.5q-50 -311 -160 -401t-259 -90zM633 1414q37 0 67.5 28.5
t30.5 68.5q0 32 -21 53t-52 21q-39 0 -69 -28.5t-30 -68.5q0 -32 20.5 -53t53.5 -21zM992 1414q39 0 68.5 28.5t29.5 68.5q0 32 -20 53t-53 21q-38 0 -68 -28.5t-30 -68.5q0 -32 21 -53t52 -21zM535 1680h645l18 105h-644z" />
    <glyph glyph-name="uni022B" unicode="&#x22b;" horiz-adv-x="1281" 
d="M522 -9q299 0 462.5 152.5t209.5 453.5q45 296 -60.5 448.5t-405.5 152.5t-464 -150.5t-209 -450.5q-45 -297 60.5 -451.5t406.5 -154.5zM552 183q-126 0 -189.5 84.5t-26.5 327.5q38 242 137 327t224 85q126 0 190 -84.5t26 -327.5q-38 -241 -137 -326.5t-224 -85.5z
M558 1250q37 0 67.5 28.5t30.5 68.5q0 32 -21 53t-52 21q-39 0 -69 -28.5t-30 -68.5q0 -32 20.5 -53t53.5 -21zM917 1250q39 0 68.5 28.5t29.5 68.5q0 32 -20 53t-53 21q-38 0 -68 -28.5t-30 -68.5q0 -32 21 -53t52 -21zM459 1516h645l18 105h-644z" />
    <glyph glyph-name="uni022C" unicode="&#x22c;" horiz-adv-x="1369" 
d="M565 -10q333 0 508 169t229 516q53 347 -54.5 517t-441.5 170t-509 -169.5t-229 -517.5q-52 -346 55 -515.5t442 -169.5zM599 184q-151 0 -224 90t-23 401q50 315 160 403.5t260 88.5t223.5 -88.5t22.5 -403.5q-50 -311 -160 -401t-259 -90zM937 1420q62 0 104.5 20.5
t68 50.5t39 59.5t17.5 48.5h-137q-3 -12 -14 -28t-30 -27.5t-44 -11.5q-31 0 -52 11.5t-41.5 27t-47 26.5t-67.5 11q-63 0 -106 -19t-69.5 -48.5t-40 -58.5t-18.5 -50h139q3 12 13.5 28.5t29.5 27.5t47 11t47.5 -12t41 -27.5t49.5 -27.5t71 -12zM542 1700h645l18 105h-644z
" />
    <glyph glyph-name="uni022D" unicode="&#x22d;" horiz-adv-x="1281" 
d="M522 -9q299 0 462.5 152.5t209.5 453.5q45 296 -60.5 448.5t-405.5 152.5t-464 -150.5t-209 -450.5q-45 -297 60.5 -451.5t406.5 -154.5zM552 183q-126 0 -189.5 84.5t-26.5 327.5q38 242 137 327t224 85q126 0 190 -84.5t26 -327.5q-38 -241 -137 -326.5t-224 -85.5z
M862 1256q62 0 104.5 20.5t68 50.5t39 59.5t17.5 48.5h-137q-3 -12 -14 -28t-30 -27.5t-44 -11.5q-31 0 -52 11.5t-41.5 27t-47 26.5t-67.5 11q-63 0 -106 -19t-69.5 -48.5t-40 -58.5t-18.5 -50h139q3 12 13.5 28.5t29.5 27.5t47 11t47.5 -12t41 -27.5t49.5 -27.5t71 -12z
M467 1536h645l18 105h-644z" />
    <glyph glyph-name="uni0230" unicode="&#x230;" horiz-adv-x="1369" 
d="M565 -10q333 0 508 169t229 516q53 347 -54.5 517t-441.5 170t-509 -169.5t-229 -517.5q-52 -346 55 -515.5t442 -169.5zM599 184q-151 0 -224 90t-23 401q50 315 160 403.5t260 88.5t223.5 -88.5t22.5 -403.5q-50 -311 -160 -401t-259 -90zM832 1405q37 0 62.5 26
t25.5 62t-25.5 61.5t-61.5 25.5q-37 0 -62.5 -25.5t-25.5 -61.5q0 -37 25.5 -62.5t61.5 -25.5zM541 1674h645l18 105h-644z" />
    <glyph glyph-name="uni0231" unicode="&#x231;" horiz-adv-x="1281" 
d="M522 -9q299 0 462.5 152.5t209.5 453.5q45 296 -60.5 448.5t-405.5 152.5t-464 -150.5t-209 -450.5q-45 -297 60.5 -451.5t406.5 -154.5zM552 183q-126 0 -189.5 84.5t-26.5 327.5q38 242 137 327t224 85q126 0 190 -84.5t26 -327.5q-38 -241 -137 -326.5t-224 -85.5z
M756 1241q37 0 62.5 26t25.5 62t-25.5 61.5t-61.5 25.5q-37 0 -62.5 -25.5t-25.5 -61.5q0 -37 25.5 -62.5t61.5 -25.5zM465 1510h645l18 105h-644z" />
    <glyph glyph-name="uni0232" unicode="&#x232;" horiz-adv-x="1349" 
d="M409 0h284l91 516l646 834h-312l-439 -608h-2l-226 608h-305l353 -836zM498 1445h645l18 105h-644z" />
    <glyph glyph-name="uni0233" unicode="&#x233;" horiz-adv-x="1165" 
d="M261 0h430l545 1185h-295l-432 -998h-2l-84 998h-293zM-90 -464q278 0 461.5 87t319.5 377l-261 1q-78 -168 -187 -220.5t-300 -52.5zM379 1281h645l18 105h-644z" />
    <glyph glyph-name="uni0237" unicode="&#x237;" horiz-adv-x="559" 
d="M-318 -460q271 0 429.5 99.5t207.5 381.5l207 1165h-281l-208 -1176q-28 -162 -108.5 -218t-211.5 -56z" />
    <glyph glyph-name="uni0259" unicode="&#x259;" horiz-adv-x="1276" 
d="M748 1198l-32 -183q138 0 200 -92q63 -93 22 -331q-42 -246 -138 -333q-98 -86 -229 -86q-133 0 -194 81q-46 73 -23 251h596l30 171h-877q-12 -37 -19 -86q-51 -287 47 -443q97 -157 409 -157q302 0 462 155q158 155 209 448q47 282 -53 443q-99 162 -410 162zM716 1015
l32 183q-167 0 -275 -37q-107 -36 -189 -114q-83 -77 -123 -195l239 -71q32 74 73 130q43 57 103 80q60 24 140 24z" />
    <glyph glyph-name="uni02BC" unicode="&#x2bc;" horiz-adv-x="330" 
d="M457 1559h-206l-42 -237h14l-108 -246h187l112 245z" />
    <glyph glyph-name="circumflex" unicode="&#x2c6;" horiz-adv-x="815" 
d="M219 1207h165l161 135l114 -135h165l-179 195h-181z" />
    <glyph glyph-name="caron" unicode="&#x2c7;" horiz-adv-x="816" 
d="M385 1207h181l246 195h-167l-159 -134l-116 134h-164z" />
    <glyph glyph-name="uni02C9" unicode="&#x2c9;" horiz-adv-x="947" 
d="M225 1197h645l18 105h-644z" />
    <glyph glyph-name="breve" unicode="&#x2d8;" horiz-adv-x="776" 
d="M465 1222q74 0 129.5 25t90 66t42.5 90h-135q-4 -25 -16.5 -44.5t-35 -30.5t-59.5 -11q-32 0 -51 11t-26 30t-2 45h-135q-8 -49 12.5 -90t67.5 -66t118 -25z" />
    <glyph glyph-name="dotaccent" unicode="&#x2d9;" horiz-adv-x="475" 
d="M345 1203q37 0 62.5 26t25.5 62t-25.5 61.5t-61.5 25.5q-37 0 -62.5 -25.5t-25.5 -61.5q0 -37 25.5 -62.5t61.5 -25.5z" />
    <glyph glyph-name="ring" unicode="&#x2da;" horiz-adv-x="429" 
d="M310 1214q42 0 78.5 20t60.5 54t30 76q11 63 -26 105.5t-100 42.5q-43 0 -78.5 -19.5t-59.5 -53t-31 -75.5q-10 -64 26.5 -107t99.5 -43zM324 1316q-18 0 -29 14t-9 34q4 20 19.5 33t32.5 13q20 0 31.5 -13t7.5 -33q-2 -20 -17.5 -34t-35.5 -14z" />
    <glyph glyph-name="ogonek" unicode="&#x2db;" horiz-adv-x="786" 
d="M234 -352q43 0 83 4.5t70 11t40 9.5l22 140q-11 -5 -36.5 -11.5t-55.5 -11t-57 -4.5q-40 0 -55 16t-11 43q4 23 20 53t35 58.5t33 43.5h-138q-18 -17 -43.5 -49.5t-47.5 -74t-29 -85.5q-10 -56 12.5 -87t65 -43.5t92.5 -12.5z" />
    <glyph glyph-name="tilde" unicode="&#x2dc;" horiz-adv-x="719" 
d="M585 1258q62 0 104.5 20.5t68 50.5t39 59.5t17.5 48.5h-137q-3 -12 -14 -28t-30 -27.5t-44 -11.5q-31 0 -52 11.5t-41.5 27t-47 26.5t-67.5 11q-63 0 -106 -19t-69.5 -48.5t-40 -58.5t-18.5 -50h139q3 12 13.5 28.5t29.5 27.5t47 11t47.5 -12t41 -27.5t49.5 -27.5t71 -12
z" />
    <glyph glyph-name="hungarumlaut" unicode="&#x2dd;" horiz-adv-x="1028" 
d="M545 1226h132l219 171h-177zM376 1226h131l213 171h-173z" />
    <glyph glyph-name="gravecomb" unicode="&#x300;" 
d="M338 1122h130l-122 191h-191z" />
    <glyph glyph-name="acutecomb" unicode="&#x301;" 
d="M123 1122h136l251 191h-199z" />
    <glyph glyph-name="uni0302" unicode="&#x302;" 
d="M116 1117h165l161 135l114 -135h165l-179 195h-181z" />
    <glyph glyph-name="tildecomb" unicode="&#x303;" 
d="M571 1181q62 0 104.5 20.5t68 50.5t39 59.5t17.5 48.5h-137q-3 -12 -14 -28t-30 -27.5t-44 -11.5q-31 0 -52 11.5t-41.5 27t-47 26.5t-67.5 11q-63 0 -106 -19t-69.5 -48.5t-40 -58.5t-18.5 -50h139q3 12 13.5 28.5t29.5 27.5t47 11t47.5 -12t41 -27.5t49.5 -27.5t71 -12
z" />
    <glyph glyph-name="uni0304" unicode="&#x304;" 
d="M225 1197h645l18 105h-644z" />
    <glyph glyph-name="uni0306" unicode="&#x306;" 
d="M354 1132q74 0 129.5 25t90 66t42.5 90h-135q-4 -25 -16.5 -44.5t-35 -30.5t-59.5 -11q-32 0 -51 11t-26 30t-2 45h-135q-8 -49 12.5 -90t67.5 -66t118 -25z" />
    <glyph glyph-name="uni0307" unicode="&#x307;" 
d="M231 1127q37 0 62.5 26t25.5 62t-25.5 61.5t-61.5 25.5q-37 0 -62.5 -25.5t-25.5 -61.5q0 -37 25.5 -62.5t61.5 -25.5z" />
    <glyph glyph-name="uni0308" unicode="&#x308;" 
d="M238 1136q37 0 67.5 28.5t30.5 68.5q0 32 -21 53t-52 21q-39 0 -69 -28.5t-30 -68.5q0 -32 20.5 -53t53.5 -21zM597 1136q39 0 68.5 28.5t29.5 68.5q0 32 -20 53t-53 21q-38 0 -68 -28.5t-30 -68.5q0 -32 21 -53t52 -21z" />
    <glyph glyph-name="hookabovecomb" unicode="&#x309;" 
d="M176 1474l-16 -88q94 0 150 -2t80 -9.5t22 -23.5q-2 -13 -26.5 -21.5t-65.5 -11.5t-95 -3l-23 -128h102l11 58q35 0 74 6t74.5 19t59 35t27.5 54q3 34 -17 56.5t-65 35t-117.5 18t-174.5 5.5z" />
    <glyph glyph-name="uni030A" unicode="&#x30a;" 
d="M272 1125q42 0 78.5 20t60.5 54t30 76q11 63 -26 105.5t-100 42.5q-43 0 -78.5 -19.5t-59.5 -53t-31 -75.5q-10 -64 26.5 -107t99.5 -43zM286 1227q-18 0 -29 14t-9 34q4 20 19.5 33t32.5 13q20 0 31.5 -13t7.5 -33q-2 -20 -17.5 -34t-35.5 -14z" />
    <glyph glyph-name="uni030B" unicode="&#x30b;" 
d="M376 1142h132l219 171h-177zM207 1142h131l213 171h-173z" />
    <glyph glyph-name="uni030C" unicode="&#x30c;" 
d="M319 1117h181l246 195h-167l-159 -134l-116 134h-164z" />
    <glyph glyph-name="uni030F" unicode="&#x30f;" 
d="M604 1212h130l-122 191h-191zM328 1212h130l-122 191h-191z" />
    <glyph glyph-name="uni0311" unicode="&#x311;" 
d="M433 1338q-74 0 -129.5 -24.5t-90 -66t-43.5 -90.5h135q5 26 17.5 45t35 30t58.5 11q33 0 51.5 -10.5t25.5 -30t3 -45.5h135q8 49 -12.5 90.5t-67.5 66t-118 24.5z" />
    <glyph glyph-name="uni0312" unicode="&#x312;" 
d="M281 1162h175l118 278h-107z" />
    <glyph glyph-name="uni031B" unicode="&#x31b;" 
d="M133 1234l-16 -94q125 0 216 28.5t146.5 86t70.5 146.5h-162q-10 -60 -38.5 -97t-80.5 -53.5t-136 -16.5z" />
    <glyph glyph-name="dotbelowcomb" unicode="&#x323;" 
d="M80 -299q37 0 62.5 26t25.5 62t-25.5 61.5t-61.5 25.5q-37 0 -62.5 -25.5t-25.5 -61.5q0 -37 25.5 -62.5t61.5 -25.5z" />
    <glyph glyph-name="uni0324" unicode="&#x324;" 
d="M13 -252q37 0 67.5 28.5t30.5 68.5q0 32 -21 53t-52 21q-39 0 -69 -28.5t-30 -68.5q0 -32 20.5 -53t53.5 -21zM372 -252q39 0 68.5 28.5t29.5 68.5q0 32 -20 53t-53 21q-38 0 -68 -28.5t-30 -68.5q0 -32 21 -53t52 -21z" />
    <glyph glyph-name="uni0326" unicode="&#x326;" 
d="M-105 -312h100l173 245h-162z" />
    <glyph glyph-name="uni0327" unicode="&#x327;" 
d="M185 -331q54 0 107 11t98.5 32.5t75.5 53.5t37 73q10 56 -24.5 83t-97.5 27q-50 0 -94 -14.5t-68 -33.5l-13 -50q17 10 40.5 17t44.5 7q24 0 36.5 -7.5t8.5 -25.5q-4 -23 -36.5 -38t-91.5 -15q-38 0 -71 5.5t-56 11.5l-60 -118q39 -9 81.5 -14t82.5 -5zM206 -149l79 149
h-115l-65 -137z" />
    <glyph glyph-name="uni0328" unicode="&#x328;" 
d="M234 -352q43 0 83 4.5t70 11t40 9.5l22 140q-11 -5 -36.5 -11.5t-55.5 -11t-57 -4.5q-34 0 -50.5 12t-16.5 33q0 22 16 55t37 65t36 49h-138q-26 -25 -55 -65.5t-48.5 -86t-19.5 -87.5q0 -43 24.5 -67.5t64 -35t84.5 -10.5z" />
    <glyph glyph-name="uni032E" unicode="&#x32e;" 
d="M118 -291q74 0 129.5 25t90 66t42.5 90h-135q-4 -25 -16.5 -44.5t-35 -30.5t-59.5 -11q-32 0 -51 11t-26 30t-2 45h-135q-8 -49 12.5 -90t67.5 -66t118 -25z" />
    <glyph glyph-name="uni0331" unicode="&#x331;" 
d="M-133 -228h645l18 105h-644z" />
    <glyph glyph-name="uni0335" unicode="&#x335;" 
d="M184 1357h732l34 186h-732z" />
    <glyph glyph-name="uni0336" unicode="&#x336;" 
d="M225 1197h645l18 105h-644z" />
    <glyph glyph-name="uni0337" unicode="&#x337;" 
d="M16 0h138l648 972h-139z" />
    <glyph glyph-name="uni0338" unicode="&#x338;" 
d="M-89 0h239l806 1348h-241z" />
    <glyph glyph-name="uni1E08" unicode="&#x1e08;" horiz-adv-x="1313" 
d="M545 -8q337 0 481 160.5t184 390.5h-287q-35 -204 -122.5 -280.5t-227.5 -76.5q-144 0 -207.5 89t-13.5 403q51 323 150.5 406t242.5 83q141 0 199.5 -72t25.5 -284h287q36 239 -53 395t-427 156q-336 0 -496.5 -166.5t-216.5 -517.5q-55 -343 44.5 -514.5t436.5 -171.5z
M480 -331q54 0 107 11t98.5 32.5t75.5 53.5t37 73q10 56 -24.5 83t-97.5 27q-50 0 -94 -14.5t-68 -33.5l-13 -50q17 10 40.5 17t44.5 7q24 0 36.5 -7.5t8.5 -25.5q-4 -23 -36.5 -38t-91.5 -15q-38 0 -71 5.5t-56 11.5l-60 -118q39 -9 81.5 -14t82.5 -5zM501 -149l79 149
h-115l-65 -137zM587 1392h136l251 191h-199z" />
    <glyph glyph-name="uni1E09" unicode="&#x1e09;" horiz-adv-x="1217" 
d="M513 -10q276 0 408.5 130.5t170.5 264.5l-234 89q-29 -128 -111.5 -209.5t-202.5 -81.5q-118 0 -173.5 88t-31.5 296q27 255 123.5 344.5t224.5 89.5q119 0 173 -76t39 -218l266 86q7 147 -83 275t-366 128q-314 0 -476 -160.5t-188 -481.5q-23 -262 67 -413t394 -151z
M468 -331q54 0 107 11t98.5 32.5t75.5 53.5t37 73q10 56 -24.5 83t-97.5 27q-50 0 -94 -14.5t-68 -33.5l-13 -50q17 10 40.5 17t44.5 7q24 0 36.5 -7.5t8.5 -25.5q-4 -23 -36.5 -38t-91.5 -15q-38 0 -71 5.5t-56 11.5l-60 -118q39 -9 81.5 -14t82.5 -5zM489 -149l79 149
h-115l-65 -137zM544 1228h136l251 191h-199z" />
    <glyph glyph-name="uni1E0C" unicode="&#x1e0c;" horiz-adv-x="1299" 
d="M-21 0h646q271 0 409.5 147.5t197.5 528.5q57 373 -26.5 523.5t-354.5 150.5h-634zM297 194l169 962h280q146 0 200.5 -83.5t1.5 -396.5q-54 -319 -139.5 -400.5t-231.5 -81.5h-280zM490 -265q37 0 62.5 26t25.5 62t-25.5 61.5t-61.5 25.5q-37 0 -62.5 -25.5t-25.5 -61.5
q0 -37 25.5 -62.5t61.5 -25.5z" />
    <glyph glyph-name="uni1E0D" unicode="&#x1e0d;" horiz-adv-x="1268" 
d="M790 0h262l276 1570h-280l-245 -1393zM399 -7q206 0 368 97.5t183 211.5l-101 131q-18 -101 -113 -174.5t-210 -73.5q-117 0 -167.5 81t-21.5 308q30 250 116.5 339t217.5 89q114 0 183 -73t52 -173l146 129q20 114 -110.5 212.5t-335.5 98.5q-244 0 -387 -169.5
t-167 -480.5q-24 -253 52 -403t295 -150zM533 -299q37 0 62.5 26t25.5 62t-25.5 61.5t-61.5 25.5q-37 0 -62.5 -25.5t-25.5 -61.5q0 -37 25.5 -62.5t61.5 -25.5z" />
    <glyph glyph-name="Dmacronbelow" unicode="&#x1e0e;" horiz-adv-x="1299" 
d="M-21 0h646q271 0 409.5 147.5t197.5 528.5q57 373 -26.5 523.5t-354.5 150.5h-634zM297 194l169 962h280q146 0 200.5 -83.5t1.5 -396.5q-54 -319 -139.5 -400.5t-231.5 -81.5h-280zM155 -228h645l18 105h-644z" />
    <glyph glyph-name="dmacronbelow" unicode="&#x1e0f;" horiz-adv-x="1268" 
d="M790 0h262l276 1570h-280l-245 -1393zM399 -7q206 0 368 97.5t183 211.5l-101 131q-18 -101 -113 -174.5t-210 -73.5q-117 0 -167.5 81t-21.5 308q30 250 116.5 339t217.5 89q114 0 183 -73t52 -173l146 129q20 114 -110.5 212.5t-335.5 98.5q-244 0 -387 -169.5
t-167 -480.5q-24 -253 52 -403t295 -150zM206 -228h645l18 105h-644z" />
    <glyph glyph-name="uni1E14" unicode="&#x1e14;" horiz-adv-x="1125" 
d="M-32 0h948l34 194h-663l70 400h620l33 185h-620l66 377h663l35 194h-948zM370 1445h645l18 105h-644zM768 1606h130l-122 191h-191z" />
    <glyph glyph-name="uni1E15" unicode="&#x1e15;" horiz-adv-x="1276" 
d="M528 -10l33 182q-138 0 -200 93q-63 91 -22 329q41 246 138 334q98 87 228 87q134 0 194 -82q46 -72 24 -252h-596l-30 -171h876q12 39 20 86q50 287 -47 445q-97 156 -409 156q-302 0 -462 -155q-159 -156 -209 -448q-47 -281 52 -443q99 -161 410 -161zM561 172
l-33 -182q167 0 276 36q106 36 189 114q82 77 123 196l-240 70q-32 -73 -73 -130q-43 -57 -101 -81q-61 -23 -141 -23zM433 1281h645l18 105h-644zM827 1436h130l-122 191h-191z" />
    <glyph glyph-name="uni1E16" unicode="&#x1e16;" horiz-adv-x="1125" 
d="M-32 0h948l34 194h-663l70 400h620l33 185h-620l66 377h663l35 194h-948zM370 1445h645l18 105h-644zM542 1592h136l251 191h-199z" />
    <glyph glyph-name="uni1E17" unicode="&#x1e17;" horiz-adv-x="1276" 
d="M528 -10l33 182q-138 0 -200 93q-63 91 -22 329q41 246 138 334q98 87 228 87q134 0 194 -82q46 -72 24 -252h-596l-30 -171h876q12 39 20 86q50 287 -47 445q-97 156 -409 156q-302 0 -462 -155q-159 -156 -209 -448q-47 -281 52 -443q99 -161 410 -161zM561 172
l-33 -182q167 0 276 36q106 36 189 114q82 77 123 196l-240 70q-32 -73 -73 -130q-43 -57 -101 -81q-61 -23 -141 -23zM433 1281h645l18 105h-644zM605 1428h136l251 191h-199z" />
    <glyph glyph-name="uni1E1C" unicode="&#x1e1c;" horiz-adv-x="1125" 
d="M-32 0h948l34 194h-663l70 400h620l33 185h-620l66 377h663l35 194h-948zM398 -331q54 0 107 11t98.5 32.5t75.5 53.5t37 73q10 56 -24.5 83t-97.5 27q-50 0 -94 -14.5t-68 -33.5l-13 -50q17 10 40.5 17t44.5 7q24 0 36.5 -7.5t8.5 -25.5q-4 -23 -36.5 -38t-91.5 -15
q-38 0 -71 5.5t-56 11.5l-60 -118q39 -9 81.5 -14t82.5 -5zM419 -149l79 149h-115l-65 -137zM685 1410q74 0 129.5 25t90 66t42.5 90h-135q-4 -25 -16.5 -44.5t-35 -30.5t-59.5 -11q-32 0 -51 11t-26 30t-2 45h-135q-8 -49 12.5 -90t67.5 -66t118 -25z" />
    <glyph glyph-name="uni1E1D" unicode="&#x1e1d;" horiz-adv-x="1276" 
d="M528 -10l33 182q-138 0 -200 93q-63 91 -22 329q41 246 138 334q98 87 228 87q134 0 194 -82q46 -72 24 -252h-596l-30 -171h876q12 39 20 86q50 287 -47 445q-97 156 -409 156q-302 0 -462 -155q-159 -156 -209 -448q-47 -281 52 -443q99 -161 410 -161zM561 172
l-33 -182q167 0 276 36q106 36 189 114q82 77 123 196l-240 70q-32 -73 -73 -130q-43 -57 -101 -81q-61 -23 -141 -23zM472 -331q54 0 107 11t98.5 32.5t75.5 53.5t37 73q10 56 -24.5 83t-97.5 27q-50 0 -94 -14.5t-68 -33.5l-13 -50q17 10 40.5 17t44.5 7q24 0 36.5 -7.5
t8.5 -25.5q-4 -23 -36.5 -38t-91.5 -15q-38 0 -71 5.5t-56 11.5l-60 -118q39 -9 81.5 -14t82.5 -5zM493 -149l79 149h-115l-65 -137zM749 1246q74 0 129.5 25t90 66t42.5 90h-135q-4 -25 -16.5 -44.5t-35 -30.5t-59.5 -11q-32 0 -51 11t-26 30t-2 45h-135q-8 -49 12.5 -90
t67.5 -66t118 -25z" />
    <glyph glyph-name="uni1E20" unicode="&#x1e20;" horiz-adv-x="1341" 
d="M520 -8q321 0 433 193l-1 -185h162l119 681h-548l-30 -169h256l-13 -71q-31 -138 -105 -196.5t-216 -58.5q-151 0 -208.5 98.5t-14.5 383.5q50 323 147 411.5t247 88.5q145 0 199.5 -72t30.5 -246h285q30 208 -70 360t-417 152q-338 0 -497.5 -167t-209.5 -518
q-48 -342 42 -513.5t409 -171.5zM482 1445h645l18 105h-644z" />
    <glyph glyph-name="uni1E21" unicode="&#x1e21;" horiz-adv-x="1286" 
d="M416 -467q172 0 294 46t219 160t132 313l200 1133h-206l-117 -237l-164 -924q-33 -193 -116 -252.5t-202 -59.5q-71 0 -123 23t-75.5 72t-17.5 129h-275q-18 -222 113.5 -312.5t337.5 -90.5zM397 -7q205 0 368 96t183 212l-101 132q-17 -101 -112.5 -174.5t-209.5 -73.5
q-122 0 -174 84t-12 325q41 241 125 324.5t205 83.5q114 0 183.5 -73t51.5 -173l146 123q20 113 -109 215t-335 102q-230 0 -368.5 -154.5t-182.5 -446.5q-43 -290 34.5 -446t307.5 -156zM426 1281h645l18 105h-644z" />
    <glyph glyph-name="uni1E24" unicode="&#x1e24;" horiz-adv-x="1317" 
d="M-21 0h284l103 585h542l-103 -585h285l238 1350h-285l-101 -570h-541l101 570h-285zM506 -265q37 0 62.5 26t25.5 62t-25.5 61.5t-61.5 25.5q-37 0 -62.5 -25.5t-25.5 -61.5q0 -37 25.5 -62.5t61.5 -25.5z" />
    <glyph glyph-name="uni1E25" unicode="&#x1e25;" horiz-adv-x="1258" 
d="M-19 0h281l278 1570h-281zM751 0h281l116 660q44 249 -20 392.5t-283 143.5q-228 0 -393 -142.5t-193 -295.5l124 -70q25 138 117.5 226t206.5 88q110 0 152.5 -76.5t6.5 -277.5zM479 -299q37 0 62.5 26t25.5 62t-25.5 61.5t-61.5 25.5q-37 0 -62.5 -25.5t-25.5 -61.5
q0 -37 25.5 -62.5t61.5 -25.5z" />
    <glyph glyph-name="uni1E2A" unicode="&#x1e2a;" horiz-adv-x="1317" 
d="M-21 0h284l103 585h542l-103 -585h285l238 1350h-285l-101 -570h-541l101 570h-285zM483 -291q74 0 129.5 25t90 66t42.5 90h-135q-4 -25 -16.5 -44.5t-35 -30.5t-59.5 -11q-32 0 -51 11t-26 30t-2 45h-135q-8 -49 12.5 -90t67.5 -66t118 -25z" />
    <glyph glyph-name="uni1E2B" unicode="&#x1e2b;" horiz-adv-x="1258" 
d="M-19 0h281l278 1570h-281zM751 0h281l116 660q44 249 -20 392.5t-283 143.5q-228 0 -393 -142.5t-193 -295.5l124 -70q25 138 117.5 226t206.5 88q110 0 152.5 -76.5t6.5 -277.5zM465 -291q74 0 129.5 25t90 66t42.5 90h-135q-4 -25 -16.5 -44.5t-35 -30.5t-59.5 -11
q-32 0 -51 11t-26 30t-2 45h-135q-8 -49 12.5 -90t67.5 -66t118 -25z" />
    <glyph glyph-name="uni1E2E" unicode="&#x1e2e;" horiz-adv-x="580" 
d="M27 0h283l239 1350h-283zM250 1414q37 0 67.5 28.5t30.5 68.5q0 32 -21 53t-52 21q-39 0 -69 -28.5t-30 -68.5q0 -32 20.5 -53t53.5 -21zM609 1414q39 0 68.5 28.5t29.5 68.5q0 32 -20 53t-53 21q-38 0 -68 -28.5t-30 -68.5q0 -32 21 -53t52 -21zM288 1627h136l251 191
h-199z" />
    <glyph glyph-name="uni1E2F" unicode="&#x1e2f;" horiz-adv-x="514" 
d="M-11 0h283l209 1185h-283zM171 1250q37 0 67.5 28.5t30.5 68.5q0 32 -21 53t-52 21q-39 0 -69 -28.5t-30 -68.5q0 -32 20.5 -53t53.5 -21zM530 1250q39 0 68.5 28.5t29.5 68.5q0 32 -20 53t-53 21q-38 0 -68 -28.5t-30 -68.5q0 -32 21 -53t52 -21zM209 1463h136l251 191
h-199z" />
    <glyph glyph-name="uni1E36" unicode="&#x1e36;" horiz-adv-x="1021" 
d="M-21 0h850l34 193h-566l205 1157h-285zM385 -265q37 0 62.5 26t25.5 62t-25.5 61.5t-61.5 25.5q-37 0 -62.5 -25.5t-25.5 -61.5q0 -37 25.5 -62.5t61.5 -25.5z" />
    <glyph glyph-name="uni1E37" unicode="&#x1e37;" horiz-adv-x="528" 
d="M4 0h282l276 1570h-281zM113 -299q37 0 62.5 26t25.5 62t-25.5 61.5t-61.5 25.5q-37 0 -62.5 -25.5t-25.5 -61.5q0 -37 25.5 -62.5t61.5 -25.5z" />
    <glyph glyph-name="Lmacronbelow" unicode="&#x1e3a;" horiz-adv-x="1021" 
d="M-21 0h850l34 193h-566l205 1157h-285zM50 -228h645l18 105h-644z" />
    <glyph glyph-name="lmacronbelow" unicode="&#x1e3b;" horiz-adv-x="528" 
d="M4 0h282l276 1570h-281zM-213 -228h645l18 105h-644z" />
    <glyph glyph-name="uni1E42" unicode="&#x1e42;" horiz-adv-x="1728" 
d="M-22 0h281l204 1154h3l117 -1102h332l505 1102h3l-203 -1154h281l237 1350h-465l-492 -1096h-3l-107 1096h-454zM705 -265q37 0 62.5 26t25.5 62t-25.5 61.5t-61.5 25.5q-37 0 -62.5 -25.5t-25.5 -61.5q0 -37 25.5 -62.5t61.5 -25.5z" />
    <glyph glyph-name="uni1E43" unicode="&#x1e43;" horiz-adv-x="1859" 
d="M-18 0h281l176 999l-30 186h-219zM669 0h280l125 706q35 203 -16 346t-270 143q-192 0 -354.5 -142t-192.5 -313l138 -64q29 159 106 242t177 83q97 0 127 -75t0 -242zM1352 0h281l124 706q36 202 -13.5 345.5t-268.5 143.5q-192 0 -355.5 -144t-192.5 -311l140 -64
q27 159 104.5 242t177.5 83q97 0 125 -75t-2 -242zM766 -299q37 0 62.5 26t25.5 62t-25.5 61.5t-61.5 25.5q-37 0 -62.5 -25.5t-25.5 -61.5q0 -37 25.5 -62.5t61.5 -25.5z" />
    <glyph glyph-name="uni1E44" unicode="&#x1e44;" horiz-adv-x="1491" 
d="M-21 0h282l203 1147h3l354 -1147h443l238 1350h-283l-202 -1133h-4l-351 1133h-445zM900 1405q37 0 62.5 26t25.5 62t-25.5 61.5t-61.5 25.5q-37 0 -62.5 -25.5t-25.5 -61.5q0 -37 25.5 -62.5t61.5 -25.5z" />
    <glyph glyph-name="uni1E45" unicode="&#x1e45;" horiz-adv-x="1248" 
d="M-18 0h280l172 978l-24 208h-219zM741 0h281l114 652q44 249 -18 396.5t-282 147.5q-227 0 -393.5 -142.5t-193.5 -295.5l124 -70q25 138 118.5 226t207.5 88q110 0 151.5 -76.5t5.5 -277.5zM753 1241q37 0 62.5 26t25.5 62t-25.5 61.5t-61.5 25.5q-37 0 -62.5 -25.5
t-25.5 -61.5q0 -37 25.5 -62.5t61.5 -25.5z" />
    <glyph glyph-name="uni1E46" unicode="&#x1e46;" horiz-adv-x="1491" 
d="M-21 0h282l203 1147h3l354 -1147h443l238 1350h-283l-202 -1133h-4l-351 1133h-445zM606 -265q37 0 62.5 26t25.5 62t-25.5 61.5t-61.5 25.5q-37 0 -62.5 -25.5t-25.5 -61.5q0 -37 25.5 -62.5t61.5 -25.5z" />
    <glyph glyph-name="uni1E47" unicode="&#x1e47;" horiz-adv-x="1248" 
d="M-18 0h280l172 978l-24 208h-219zM741 0h281l114 652q44 249 -18 396.5t-282 147.5q-227 0 -393.5 -142.5t-193.5 -295.5l124 -70q25 138 118.5 226t207.5 88q110 0 151.5 -76.5t5.5 -277.5zM470 -299q37 0 62.5 26t25.5 62t-25.5 61.5t-61.5 25.5q-37 0 -62.5 -25.5
t-25.5 -61.5q0 -37 25.5 -62.5t61.5 -25.5z" />
    <glyph glyph-name="Nmacronbelow" unicode="&#x1e48;" horiz-adv-x="1491" 
d="M-21 0h282l203 1147h3l354 -1147h443l238 1350h-283l-202 -1133h-4l-351 1133h-445zM271 -228h645l18 105h-644z" />
    <glyph glyph-name="nmacronbelow" unicode="&#x1e49;" horiz-adv-x="1248" 
d="M-18 0h280l172 978l-24 208h-219zM741 0h281l114 652q44 249 -18 396.5t-282 147.5q-227 0 -393.5 -142.5t-193.5 -295.5l124 -70q25 138 118.5 226t207.5 88q110 0 151.5 -76.5t5.5 -277.5zM144 -228h645l18 105h-644z" />
    <glyph glyph-name="uni1E4C" unicode="&#x1e4c;" horiz-adv-x="1369" 
d="M565 -10q333 0 508 169t229 516q53 347 -54.5 517t-441.5 170t-509 -169.5t-229 -517.5q-52 -346 55 -515.5t442 -169.5zM599 184q-151 0 -224 90t-23 401q50 315 160 403.5t260 88.5t223.5 -88.5t22.5 -403.5q-50 -311 -160 -401t-259 -90zM937 1420q62 0 104.5 20.5
t68 50.5t39 59.5t17.5 48.5h-137q-3 -12 -14 -28t-30 -27.5t-44 -11.5q-31 0 -52 11.5t-41.5 27t-47 26.5t-67.5 11q-63 0 -106 -19t-69.5 -48.5t-40 -58.5t-18.5 -50h139q3 12 13.5 28.5t29.5 27.5t47 11t47.5 -12t41 -27.5t49.5 -27.5t71 -12zM678 1647h136l251 191h-199z
" />
    <glyph glyph-name="uni1E4D" unicode="&#x1e4d;" horiz-adv-x="1281" 
d="M522 -9q299 0 462.5 152.5t209.5 453.5q45 296 -60.5 448.5t-405.5 152.5t-464 -150.5t-209 -450.5q-45 -297 60.5 -451.5t406.5 -154.5zM552 183q-126 0 -189.5 84.5t-26.5 327.5q38 242 137 327t224 85q126 0 190 -84.5t26 -327.5q-38 -241 -137 -326.5t-224 -85.5z
M862 1256q62 0 104.5 20.5t68 50.5t39 59.5t17.5 48.5h-137q-3 -12 -14 -28t-30 -27.5t-44 -11.5q-31 0 -52 11.5t-41.5 27t-47 26.5t-67.5 11q-63 0 -106 -19t-69.5 -48.5t-40 -58.5t-18.5 -50h139q3 12 13.5 28.5t29.5 27.5t47 11t47.5 -12t41 -27.5t49.5 -27.5t71 -12z
M603 1483h136l251 191h-199z" />
    <glyph glyph-name="uni1E4E" unicode="&#x1e4e;" horiz-adv-x="1369" 
d="M565 -10q333 0 508 169t229 516q53 347 -54.5 517t-441.5 170t-509 -169.5t-229 -517.5q-52 -346 55 -515.5t442 -169.5zM599 184q-151 0 -224 90t-23 401q50 315 160 403.5t260 88.5t223.5 -88.5t22.5 -403.5q-50 -311 -160 -401t-259 -90zM937 1420q62 0 104.5 20.5
t68 50.5t39 59.5t17.5 48.5h-137q-3 -12 -14 -28t-30 -27.5t-44 -11.5q-31 0 -52 11.5t-41.5 27t-47 26.5t-67.5 11q-63 0 -106 -19t-69.5 -48.5t-40 -58.5t-18.5 -50h139q3 12 13.5 28.5t29.5 27.5t47 11t47.5 -12t41 -27.5t49.5 -27.5t71 -12zM677 1669q37 0 67.5 28.5
t30.5 68.5q0 32 -21 53t-52 21q-39 0 -69 -28.5t-30 -68.5q0 -32 20.5 -53t53.5 -21zM1036 1669q39 0 68.5 28.5t29.5 68.5q0 32 -20 53t-53 21q-38 0 -68 -28.5t-30 -68.5q0 -32 21 -53t52 -21z" />
    <glyph glyph-name="uni1E4F" unicode="&#x1e4f;" horiz-adv-x="1281" 
d="M522 -9q299 0 462.5 152.5t209.5 453.5q45 296 -60.5 448.5t-405.5 152.5t-464 -150.5t-209 -450.5q-45 -297 60.5 -451.5t406.5 -154.5zM552 183q-126 0 -189.5 84.5t-26.5 327.5q38 242 137 327t224 85q126 0 190 -84.5t26 -327.5q-38 -241 -137 -326.5t-224 -85.5z
M862 1256q62 0 104.5 20.5t68 50.5t39 59.5t17.5 48.5h-137q-3 -12 -14 -28t-30 -27.5t-44 -11.5q-31 0 -52 11.5t-41.5 27t-47 26.5t-67.5 11q-63 0 -106 -19t-69.5 -48.5t-40 -58.5t-18.5 -50h139q3 12 13.5 28.5t29.5 27.5t47 11t47.5 -12t41 -27.5t49.5 -27.5t71 -12z
M602 1505q37 0 67.5 28.5t30.5 68.5q0 32 -21 53t-52 21q-39 0 -69 -28.5t-30 -68.5q0 -32 20.5 -53t53.5 -21zM961 1505q39 0 68.5 28.5t29.5 68.5q0 32 -20 53t-53 21q-38 0 -68 -28.5t-30 -68.5q0 -32 21 -53t52 -21z" />
    <glyph glyph-name="uni1E50" unicode="&#x1e50;" horiz-adv-x="1369" 
d="M565 -10q333 0 508 169t229 516q53 347 -54.5 517t-441.5 170t-509 -169.5t-229 -517.5q-52 -346 55 -515.5t442 -169.5zM599 184q-151 0 -224 90t-23 401q50 315 160 403.5t260 88.5t223.5 -88.5t22.5 -403.5q-50 -311 -160 -401t-259 -90zM499 1445h645l18 105h-644z
M896 1606h130l-122 191h-191z" />
    <glyph glyph-name="uni1E51" unicode="&#x1e51;" horiz-adv-x="1281" 
d="M522 -9q299 0 462.5 152.5t209.5 453.5q45 296 -60.5 448.5t-405.5 152.5t-464 -150.5t-209 -450.5q-45 -297 60.5 -451.5t406.5 -154.5zM552 183q-126 0 -189.5 84.5t-26.5 327.5q38 242 137 327t224 85q126 0 190 -84.5t26 -327.5q-38 -241 -137 -326.5t-224 -85.5z
M422 1281h645l18 105h-644zM816 1436h130l-122 191h-191z" />
    <glyph glyph-name="uni1E52" unicode="&#x1e52;" horiz-adv-x="1369" 
d="M565 -10q333 0 508 169t229 516q53 347 -54.5 517t-441.5 170t-509 -169.5t-229 -517.5q-52 -346 55 -515.5t442 -169.5zM599 184q-151 0 -224 90t-23 401q50 315 160 403.5t260 88.5t223.5 -88.5t22.5 -403.5q-50 -311 -160 -401t-259 -90zM499 1445h645l18 105h-644z
M670 1592h136l251 191h-199z" />
    <glyph glyph-name="uni1E53" unicode="&#x1e53;" horiz-adv-x="1281" 
d="M522 -9q299 0 462.5 152.5t209.5 453.5q45 296 -60.5 448.5t-405.5 152.5t-464 -150.5t-209 -450.5q-45 -297 60.5 -451.5t406.5 -154.5zM552 183q-126 0 -189.5 84.5t-26.5 327.5q38 242 137 327t224 85q126 0 190 -84.5t26 -327.5q-38 -241 -137 -326.5t-224 -85.5z
M422 1281h645l18 105h-644zM595 1428h136l251 191h-199z" />
    <glyph glyph-name="uni1E5A" unicode="&#x1e5a;" horiz-adv-x="1266" 
d="M-21 0h285l97 557h432q219 0 316 112.5t123 277.5q27 164 -24 283.5t-264 119.5h-727zM776 0h308l-192 646l-283 -14zM393 733l74 423h350q96 0 121.5 -56.5t7.5 -155.5q-17 -98 -63 -154.5t-140 -56.5h-350zM461 -265q37 0 62.5 26t25.5 62t-25.5 61.5t-61.5 25.5
q-37 0 -62.5 -25.5t-25.5 -61.5q0 -37 25.5 -62.5t61.5 -25.5z" />
    <glyph glyph-name="uni1E5B" unicode="&#x1e5b;" horiz-adv-x="1225" 
d="M827 615h281q52 300 -5 440.5t-278 140.5q-210 0 -356 -111.5t-175 -273.5l98 -68q18 100 98.5 179t195.5 79q101 0 141 -77t0 -309zM-19 0h281l171 970l-24 215h-219zM457 -299q37 0 62.5 26t25.5 62t-25.5 61.5t-61.5 25.5q-37 0 -62.5 -25.5t-25.5 -61.5
q0 -37 25.5 -62.5t61.5 -25.5z" />
    <glyph glyph-name="Rmacronbelow" unicode="&#x1e5e;" horiz-adv-x="1266" 
d="M-21 0h285l97 557h432q219 0 316 112.5t123 277.5q27 164 -24 283.5t-264 119.5h-727zM776 0h308l-192 646l-283 -14zM393 733l74 423h350q96 0 121.5 -56.5t7.5 -155.5q-17 -98 -63 -154.5t-140 -56.5h-350zM127 -228h645l18 105h-644z" />
    <glyph glyph-name="rmacronbelow" unicode="&#x1e5f;" horiz-adv-x="1225" 
d="M827 615h281q52 300 -5 440.5t-278 140.5q-210 0 -356 -111.5t-175 -273.5l98 -68q18 100 98.5 179t195.5 79q101 0 141 -77t0 -309zM-19 0h281l171 970l-24 215h-219zM131 -228h645l18 105h-644z" />
    <glyph glyph-name="uni1E60" unicode="&#x1e60;" horiz-adv-x="1299" 
d="M527 -8q326 0 473 119t166 289q22 167 -65 238.5t-355 134.5q-179 41 -269 81t-75 144q12 80 101 124t224 44q131 0 199.5 -52t36.5 -246h284q40 236 -59 365t-426 129q-323 0 -475 -117t-166 -281q-17 -156 69 -239t346 -144q172 -40 265.5 -79t77.5 -141
q-13 -86 -99.5 -131t-221.5 -45q-136 0 -202 54t-33 254h-285q-43 -250 55.5 -375.5t433.5 -125.5zM792 1404q37 0 62.5 26t25.5 62t-25.5 61.5t-61.5 25.5q-37 0 -62.5 -25.5t-25.5 -61.5q0 -37 25.5 -62.5t61.5 -25.5z" />
    <glyph glyph-name="uni1E61" unicode="&#x1e61;" horiz-adv-x="1250" 
d="M520 -9q226 0 392 85t191 262q25 175 -75.5 248t-311.5 108q-157 26 -246 55.5t-76 114.5q8 66 75.5 106t187.5 40q126 0 194 -58t69 -165l263 88q-6 174 -135.5 247.5t-359.5 73.5q-229 0 -388.5 -81.5t-182.5 -249.5q-25 -176 73 -252t295 -109q166 -32 258.5 -62
t79.5 -119q-9 -64 -79 -105t-194 -41q-135 0 -205 56t-70 177l-263 -88q10 -184 145.5 -257.5t362.5 -73.5zM731 1241q37 0 62.5 26t25.5 62t-25.5 61.5t-61.5 25.5q-37 0 -62.5 -25.5t-25.5 -61.5q0 -37 25.5 -62.5t61.5 -25.5z" />
    <glyph glyph-name="uni1E62" unicode="&#x1e62;" horiz-adv-x="1299" 
d="M527 -8q326 0 473 119t166 289q22 167 -65 238.5t-355 134.5q-179 41 -269 81t-75 144q12 80 101 124t224 44q131 0 199.5 -52t36.5 -246h284q40 236 -59 365t-426 129q-323 0 -475 -117t-166 -281q-17 -156 69 -239t346 -144q172 -40 265.5 -79t77.5 -141
q-13 -86 -99.5 -131t-221.5 -45q-136 0 -202 54t-33 254h-285q-43 -250 55.5 -375.5t433.5 -125.5zM498 -265q37 0 62.5 26t25.5 62t-25.5 61.5t-61.5 25.5q-37 0 -62.5 -25.5t-25.5 -61.5q0 -37 25.5 -62.5t61.5 -25.5z" />
    <glyph glyph-name="uni1E63" unicode="&#x1e63;" horiz-adv-x="1250" 
d="M520 -9q226 0 392 85t191 262q25 175 -75.5 248t-311.5 108q-157 26 -246 55.5t-76 114.5q8 66 75.5 106t187.5 40q126 0 194 -58t69 -165l263 88q-6 174 -135.5 247.5t-359.5 73.5q-229 0 -388.5 -81.5t-182.5 -249.5q-25 -176 73 -252t295 -109q166 -32 258.5 -62
t79.5 -119q-9 -64 -79 -105t-194 -41q-135 0 -205 56t-70 177l-263 -88q10 -184 145.5 -257.5t362.5 -73.5zM461 -299q37 0 62.5 26t25.5 62t-25.5 61.5t-61.5 25.5q-37 0 -62.5 -25.5t-25.5 -61.5q0 -37 25.5 -62.5t61.5 -25.5z" />
    <glyph glyph-name="uni1E64" unicode="&#x1e64;" horiz-adv-x="1299" 
d="M527 -8q326 0 473 119t166 289q22 167 -65 238.5t-355 134.5q-179 41 -269 81t-75 144q12 80 101 124t224 44q131 0 199.5 -52t36.5 -246h284q40 236 -59 365t-426 129q-323 0 -475 -117t-166 -281q-17 -156 69 -239t346 -144q172 -40 265.5 -79t77.5 -141
q-13 -86 -99.5 -131t-221.5 -45q-136 0 -202 54t-33 254h-285q-43 -250 55.5 -375.5t433.5 -125.5zM595 1391h136l251 191h-199zM833 1638q37 0 62.5 26t25.5 62t-25.5 61.5t-61.5 25.5q-37 0 -62.5 -25.5t-25.5 -61.5q0 -37 25.5 -62.5t61.5 -25.5z" />
    <glyph glyph-name="uni1E65" unicode="&#x1e65;" horiz-adv-x="1250" 
d="M520 -9q226 0 392 85t191 262q25 175 -75.5 248t-311.5 108q-157 26 -246 55.5t-76 114.5q8 66 75.5 106t187.5 40q126 0 194 -58t69 -165l263 88q-6 174 -135.5 247.5t-359.5 73.5q-229 0 -388.5 -81.5t-182.5 -249.5q-25 -176 73 -252t295 -109q166 -32 258.5 -62
t79.5 -119q-9 -64 -79 -105t-194 -41q-135 0 -205 56t-70 177l-263 -88q10 -184 145.5 -257.5t362.5 -73.5zM534 1228h136l251 191h-199zM772 1475q37 0 62.5 26t25.5 62t-25.5 61.5t-61.5 25.5q-37 0 -62.5 -25.5t-25.5 -61.5q0 -37 25.5 -62.5t61.5 -25.5z" />
    <glyph glyph-name="uni1E66" unicode="&#x1e66;" horiz-adv-x="1299" 
d="M527 -8q326 0 473 119t166 289q22 167 -65 238.5t-355 134.5q-179 41 -269 81t-75 144q12 80 101 124t224 44q131 0 199.5 -52t36.5 -246h284q40 236 -59 365t-426 129q-323 0 -475 -117t-166 -281q-17 -156 69 -239t346 -144q172 -40 265.5 -79t77.5 -141
q-13 -86 -99.5 -131t-221.5 -45q-136 0 -202 54t-33 254h-285q-43 -250 55.5 -375.5t433.5 -125.5zM683 1394h181l246 195h-167l-159 -134l-116 134h-164zM835 1644q37 0 62.5 26t25.5 62t-25.5 61.5t-61.5 25.5q-37 0 -62.5 -25.5t-25.5 -61.5q0 -37 25.5 -62.5t61.5 -25.5
z" />
    <glyph glyph-name="uni1E67" unicode="&#x1e67;" horiz-adv-x="1250" 
d="M520 -9q226 0 392 85t191 262q25 175 -75.5 248t-311.5 108q-157 26 -246 55.5t-76 114.5q8 66 75.5 106t187.5 40q126 0 194 -58t69 -165l263 88q-6 174 -135.5 247.5t-359.5 73.5q-229 0 -388.5 -81.5t-182.5 -249.5q-25 -176 73 -252t295 -109q166 -32 258.5 -62
t79.5 -119q-9 -64 -79 -105t-194 -41q-135 0 -205 56t-70 177l-263 -88q10 -184 145.5 -257.5t362.5 -73.5zM622 1231h181l246 195h-167l-159 -134l-116 134h-164zM774 1481q37 0 62.5 26t25.5 62t-25.5 61.5t-61.5 25.5q-37 0 -62.5 -25.5t-25.5 -61.5q0 -37 25.5 -62.5
t61.5 -25.5z" />
    <glyph glyph-name="uni1E68" unicode="&#x1e68;" horiz-adv-x="1299" 
d="M527 -8q326 0 473 119t166 289q22 167 -65 238.5t-355 134.5q-179 41 -269 81t-75 144q12 80 101 124t224 44q131 0 199.5 -52t36.5 -246h284q40 236 -59 365t-426 129q-323 0 -475 -117t-166 -281q-17 -156 69 -239t346 -144q172 -40 265.5 -79t77.5 -141
q-13 -86 -99.5 -131t-221.5 -45q-136 0 -202 54t-33 254h-285q-43 -250 55.5 -375.5t433.5 -125.5zM498 -265q37 0 62.5 26t25.5 62t-25.5 61.5t-61.5 25.5q-37 0 -62.5 -25.5t-25.5 -61.5q0 -37 25.5 -62.5t61.5 -25.5zM792 1404q37 0 62.5 26t25.5 62t-25.5 61.5
t-61.5 25.5q-37 0 -62.5 -25.5t-25.5 -61.5q0 -37 25.5 -62.5t61.5 -25.5z" />
    <glyph glyph-name="uni1E69" unicode="&#x1e69;" horiz-adv-x="1250" 
d="M520 -9q226 0 392 85t191 262q25 175 -75.5 248t-311.5 108q-157 26 -246 55.5t-76 114.5q8 66 75.5 106t187.5 40q126 0 194 -58t69 -165l263 88q-6 174 -135.5 247.5t-359.5 73.5q-229 0 -388.5 -81.5t-182.5 -249.5q-25 -176 73 -252t295 -109q166 -32 258.5 -62
t79.5 -119q-9 -64 -79 -105t-194 -41q-135 0 -205 56t-70 177l-263 -88q10 -184 145.5 -257.5t362.5 -73.5zM461 -299q37 0 62.5 26t25.5 62t-25.5 61.5t-61.5 25.5q-37 0 -62.5 -25.5t-25.5 -61.5q0 -37 25.5 -62.5t61.5 -25.5zM731 1241q37 0 62.5 26t25.5 62t-25.5 61.5
t-61.5 25.5q-37 0 -62.5 -25.5t-25.5 -61.5q0 -37 25.5 -62.5t61.5 -25.5z" />
    <glyph glyph-name="uni1E6C" unicode="&#x1e6c;" horiz-adv-x="1238" 
d="M356 0h284l204 1156h405l35 194h-1097l-35 -194h407zM474 -265q37 0 62.5 26t25.5 62t-25.5 61.5t-61.5 25.5q-37 0 -62.5 -25.5t-25.5 -61.5q0 -37 25.5 -62.5t61.5 -25.5z" />
    <glyph glyph-name="uni1E6D" unicode="&#x1e6d;" horiz-adv-x="1026" 
d="M537 -14q125 0 243 26l33 188q-75 -25 -149 -25q-77 0 -113 32t-18 134l115 650h375l35 194h-376l48 270h-282l-47 -270h-273l-35 -194h274l-126 -713q-29 -166 60 -229t236 -63zM460 -299q37 0 62.5 26t25.5 62t-25.5 61.5t-61.5 25.5q-37 0 -62.5 -25.5t-25.5 -61.5
q0 -37 25.5 -62.5t61.5 -25.5z" />
    <glyph glyph-name="Tmacronbelow" unicode="&#x1e6e;" horiz-adv-x="1238" 
d="M356 0h284l204 1156h405l35 194h-1097l-35 -194h407zM139 -228h645l18 105h-644z" />
    <glyph glyph-name="tmacronbelow" unicode="&#x1e6f;" horiz-adv-x="1026" 
d="M537 -14q125 0 243 26l33 188q-75 -25 -149 -25q-77 0 -113 32t-18 134l115 650h375l35 194h-376l48 270h-282l-47 -270h-273l-35 -194h274l-126 -713q-29 -166 60 -229t236 -63zM133 -228h645l18 105h-644z" />
    <glyph glyph-name="uni1E78" unicode="&#x1e78;" horiz-adv-x="1359" 
d="M554 -8q288 0 450.5 102.5t205.5 343.5l160 912h-284l-155 -880q-27 -156 -106.5 -219.5t-236.5 -63.5q-155 0 -212 64t-30 219l156 880h-285l-160 -912q-43 -241 83 -343.5t414 -102.5zM943 1420q62 0 104.5 20.5t68 50.5t39 59.5t17.5 48.5h-137q-3 -12 -14 -28
t-30 -27.5t-44 -11.5q-31 0 -52 11.5t-41.5 27t-47 26.5t-67.5 11q-63 0 -106 -19t-69.5 -48.5t-40 -58.5t-18.5 -50h139q3 12 13.5 28.5t29.5 27.5t47 11t47.5 -12t41 -27.5t49.5 -27.5t71 -12zM684 1647h136l251 191h-199z" />
    <glyph glyph-name="uni1E79" unicode="&#x1e79;" horiz-adv-x="1250" 
d="M802 0h217l208 1185h-280l-174 -984zM460 1186h-281l-116 -660q-44 -248 16.5 -392t283.5 -144q240 0 400.5 143t187.5 295l-125 65q-24 -138 -119.5 -223.5t-209.5 -85.5q-110 0 -148.5 76.5t-2.5 278.5zM850 1256q62 0 104.5 20.5t68 50.5t39 59.5t17.5 48.5h-137
q-3 -12 -14 -28t-30 -27.5t-44 -11.5q-31 0 -52 11.5t-41.5 27t-47 26.5t-67.5 11q-63 0 -106 -19t-69.5 -48.5t-40 -58.5t-18.5 -50h139q3 12 13.5 28.5t29.5 27.5t47 11t47.5 -12t41 -27.5t49.5 -27.5t71 -12zM592 1483h136l251 191h-199z" />
    <glyph glyph-name="uni1E7A" unicode="&#x1e7a;" horiz-adv-x="1359" 
d="M554 -8q288 0 450.5 102.5t205.5 343.5l160 912h-284l-155 -880q-27 -156 -106.5 -219.5t-236.5 -63.5q-155 0 -212 64t-30 219l156 880h-285l-160 -912q-43 -241 83 -343.5t414 -102.5zM504 1445h645l18 105h-644zM675 1615q37 0 67.5 28.5t30.5 68.5q0 32 -21 53
t-52 21q-39 0 -69 -28.5t-30 -68.5q0 -32 20.5 -53t53.5 -21zM1034 1615q39 0 68.5 28.5t29.5 68.5q0 32 -20 53t-53 21q-38 0 -68 -28.5t-30 -68.5q0 -32 21 -53t52 -21z" />
    <glyph glyph-name="uni1E7B" unicode="&#x1e7b;" horiz-adv-x="1250" 
d="M802 0h217l208 1185h-280l-174 -984zM460 1186h-281l-116 -660q-44 -248 16.5 -392t283.5 -144q240 0 400.5 143t187.5 295l-125 65q-24 -138 -119.5 -223.5t-209.5 -85.5q-110 0 -148.5 76.5t-2.5 278.5zM411 1281h645l18 105h-644zM582 1451q37 0 67.5 28.5t30.5 68.5
q0 32 -21 53t-52 21q-39 0 -69 -28.5t-30 -68.5q0 -32 20.5 -53t53.5 -21zM941 1451q39 0 68.5 28.5t29.5 68.5q0 32 -20 53t-53 21q-38 0 -68 -28.5t-30 -68.5q0 -32 21 -53t52 -21z" />
    <glyph glyph-name="Wgrave" unicode="&#x1e80;" horiz-adv-x="1949" 
d="M192 0h433l430 1156h3l19 -1156h434l497 1350h-312l-385 -1142h-3l-36 1142h-374l-439 -1141h-3l23 1141h-302zM1149 1400h130l-122 191h-191z" />
    <glyph glyph-name="wgrave" unicode="&#x1e81;" horiz-adv-x="1782" 
d="M202 0h379l353 904l39 -904h375l462 1185h-295l-334 -997h-3l-54 997h-283l-407 -999h-3l13 999h-288zM1041 1236h130l-122 191h-191z" />
    <glyph glyph-name="Wacute" unicode="&#x1e82;" horiz-adv-x="1949" 
d="M192 0h433l430 1156h3l19 -1156h434l497 1350h-312l-385 -1142h-3l-36 1142h-374l-439 -1141h-3l23 1141h-302zM928 1392h136l251 191h-199z" />
    <glyph glyph-name="wacute" unicode="&#x1e83;" horiz-adv-x="1782" 
d="M202 0h379l353 904l39 -904h375l462 1185h-295l-334 -997h-3l-54 997h-283l-407 -999h-3l13 999h-288zM820 1228h136l251 191h-199z" />
    <glyph glyph-name="Wdieresis" unicode="&#x1e84;" horiz-adv-x="1949" 
d="M192 0h433l430 1156h3l19 -1156h434l497 1350h-312l-385 -1142h-3l-36 1142h-374l-439 -1141h-3l23 1141h-302zM927 1414q37 0 67.5 28.5t30.5 68.5q0 32 -21 53t-52 21q-39 0 -69 -28.5t-30 -68.5q0 -32 20.5 -53t53.5 -21zM1286 1414q39 0 68.5 28.5t29.5 68.5
q0 32 -20 53t-53 21q-38 0 -68 -28.5t-30 -68.5q0 -32 21 -53t52 -21z" />
    <glyph glyph-name="wdieresis" unicode="&#x1e85;" horiz-adv-x="1782" 
d="M202 0h379l353 904l39 -904h375l462 1185h-295l-334 -997h-3l-54 997h-283l-407 -999h-3l13 999h-288zM818 1250q37 0 67.5 28.5t30.5 68.5q0 32 -21 53t-52 21q-39 0 -69 -28.5t-30 -68.5q0 -32 20.5 -53t53.5 -21zM1177 1250q39 0 68.5 28.5t29.5 68.5q0 32 -20 53
t-53 21q-38 0 -68 -28.5t-30 -68.5q0 -32 21 -53t52 -21z" />
    <glyph glyph-name="uni1E8E" unicode="&#x1e8e;" horiz-adv-x="1349" 
d="M409 0h284l91 516l646 834h-312l-439 -608h-2l-226 608h-305l353 -836zM831 1405q37 0 62.5 26t25.5 62t-25.5 61.5t-61.5 25.5q-37 0 -62.5 -25.5t-25.5 -61.5q0 -37 25.5 -62.5t61.5 -25.5z" />
    <glyph glyph-name="uni1E8F" unicode="&#x1e8f;" horiz-adv-x="1165" 
d="M261 0h430l545 1185h-295l-432 -998h-2l-84 998h-293zM-90 -464q278 0 461.5 87t319.5 377l-261 1q-78 -168 -187 -220.5t-300 -52.5zM712 1241q37 0 62.5 26t25.5 62t-25.5 61.5t-61.5 25.5q-37 0 -62.5 -25.5t-25.5 -61.5q0 -37 25.5 -62.5t61.5 -25.5z" />
    <glyph glyph-name="uni1E92" unicode="&#x1e92;" horiz-adv-x="1148" 
d="M-43 0h989l35 194h-673l818 962l35 194h-954l-33 -193h637l-818 -956zM427 -265q37 0 62.5 26t25.5 62t-25.5 61.5t-61.5 25.5q-37 0 -62.5 -25.5t-25.5 -61.5q0 -37 25.5 -62.5t61.5 -25.5z" />
    <glyph glyph-name="uni1E93" unicode="&#x1e93;" horiz-adv-x="1050" 
d="M-35 0h891l34 193h-555l1 3l686 797l34 192h-877l-34 -193h551l-1 -1l-696 -798zM381 -299q37 0 62.5 26t25.5 62t-25.5 61.5t-61.5 25.5q-37 0 -62.5 -25.5t-25.5 -61.5q0 -37 25.5 -62.5t61.5 -25.5z" />
    <glyph glyph-name="uni1E97" unicode="&#x1e97;" horiz-adv-x="1026" 
d="M537 -14q125 0 243 26l33 188q-75 -25 -149 -25q-77 0 -113 32t-18 134l115 650h375l35 194h-376l48 270h-282l-47 -270h-273l-35 -194h274l-126 -713q-29 -166 60 -229t236 -63zM431 1519q37 0 67.5 28.5t30.5 68.5q0 32 -21 53t-52 21q-39 0 -69 -28.5t-30 -68.5
q0 -32 20.5 -53t53.5 -21zM790 1519q39 0 68.5 28.5t29.5 68.5q0 32 -20 53t-53 21q-38 0 -68 -28.5t-30 -68.5q0 -32 21 -53t52 -21z" />
    <glyph glyph-name="uni1E9E" unicode="&#x1e9e;" horiz-adv-x="1246" 
d="M-21 0h283l203 1150h404l-331 -331l-29 -172q88 -7 151.5 -22t103 -40.5t54.5 -65.5t8 -96q-9 -93 -51.5 -145.5t-126.5 -72.5t-220 -16l-33 -189q198 -3 331 21t213.5 75t121 130.5t53.5 189.5q11 76 -1 134.5t-51.5 100.5t-110 67.5t-178.5 38.5l421 409l33 184h-1010z
" />
    <glyph glyph-name="uni1EA0" unicode="&#x1ea0;" horiz-adv-x="1404" 
d="M-46 0h293l164 348h492l40 -348h294l-202 1352h-404zM491 536l313 649h3l82 -649h-398zM562 -265q37 0 62.5 26t25.5 62t-25.5 61.5t-61.5 25.5q-37 0 -62.5 -25.5t-25.5 -61.5q0 -37 25.5 -62.5t61.5 -25.5z" />
    <glyph glyph-name="uni1EA1" unicode="&#x1ea1;" horiz-adv-x="1270" 
d="M390 -12q82 0 151.5 14t125 37t94 49.5t58.5 53.5l-2 -142h235l132 746q29 164 -18 262.5t-162 143.5t-291 45q-99 0 -190.5 -18.5t-169.5 -58t-137.5 -105t-95.5 -160.5l262 -75q28 84 75 133.5t105.5 71.5t124.5 22q81 0 134.5 -24t75.5 -78.5t7 -144.5l-10 -54h-380
q-67 0 -135 -9.5t-129.5 -33t-110.5 -65t-81 -106t-40 -155.5q-14 -137 26 -212.5t128.5 -106t217.5 -30.5zM483 170q-61 0 -104 15t-62.5 56t-11.5 117q6 61 28 99t55.5 58.5t75.5 28t89 7.5h310l-44 -251q-25 -33 -74.5 -63t-116.5 -48.5t-145 -18.5zM484 -299
q37 0 62.5 26t25.5 62t-25.5 61.5t-61.5 25.5q-37 0 -62.5 -25.5t-25.5 -61.5q0 -37 25.5 -62.5t61.5 -25.5z" />
    <glyph glyph-name="uni1EA2" unicode="&#x1ea2;" horiz-adv-x="1404" 
d="M-46 0h293l164 348h492l40 -348h294l-202 1352h-404zM491 536l313 649h3l82 -649h-398zM772 1692l-16 -88q94 0 150 -2t80 -9.5t22 -23.5q-2 -13 -26.5 -21.5t-65.5 -11.5t-95 -3l-23 -128h102l11 58q35 0 74 6t74.5 19t59 35t27.5 54q3 34 -17 56.5t-65 35t-117.5 18
t-174.5 5.5z" />
    <glyph glyph-name="uni1EA3" unicode="&#x1ea3;" horiz-adv-x="1270" 
d="M390 -12q82 0 151.5 14t125 37t94 49.5t58.5 53.5l-2 -142h235l132 746q29 164 -18 262.5t-162 143.5t-291 45q-99 0 -190.5 -18.5t-169.5 -58t-137.5 -105t-95.5 -160.5l262 -75q28 84 75 133.5t105.5 71.5t124.5 22q81 0 134.5 -24t75.5 -78.5t7 -144.5l-10 -54h-380
q-67 0 -135 -9.5t-129.5 -33t-110.5 -65t-81 -106t-40 -155.5q-14 -137 26 -212.5t128.5 -106t217.5 -30.5zM483 170q-61 0 -104 15t-62.5 56t-11.5 117q6 61 28 99t55.5 58.5t75.5 28t89 7.5h310l-44 -251q-25 -33 -74.5 -63t-116.5 -48.5t-145 -18.5zM658 1528l-16 -88
q94 0 150 -2t80 -9.5t22 -23.5q-2 -13 -26.5 -21.5t-65.5 -11.5t-95 -3l-23 -128h102l11 58q35 0 74 6t74.5 19t59 35t27.5 54q3 34 -17 56.5t-65 35t-117.5 18t-174.5 5.5z" />
    <glyph glyph-name="uni1EA4" unicode="&#x1ea4;" horiz-adv-x="1404" 
d="M-46 0h293l164 348h492l40 -348h294l-202 1352h-404zM491 536l313 649h3l82 -649h-398zM549 1411h165l161 135l114 -135h165l-179 195h-181zM1036 1570h136l251 191h-199z" />
    <glyph glyph-name="uni1EA5" unicode="&#x1ea5;" horiz-adv-x="1270" 
d="M390 -12q82 0 151.5 14t125 37t94 49.5t58.5 53.5l-2 -142h235l132 746q29 164 -18 262.5t-162 143.5t-291 45q-99 0 -190.5 -18.5t-169.5 -58t-137.5 -105t-95.5 -160.5l262 -75q28 84 75 133.5t105.5 71.5t124.5 22q81 0 134.5 -24t75.5 -78.5t7 -144.5l-10 -54h-380
q-67 0 -135 -9.5t-129.5 -33t-110.5 -65t-81 -106t-40 -155.5q-14 -137 26 -212.5t128.5 -106t217.5 -30.5zM483 170q-61 0 -104 15t-62.5 56t-11.5 117q6 61 28 99t55.5 58.5t75.5 28t89 7.5h310l-44 -251q-25 -33 -74.5 -63t-116.5 -48.5t-145 -18.5zM439 1247h165
l161 135l114 -135h165l-179 195h-181zM925 1406h136l251 191h-199z" />
    <glyph glyph-name="uni1EA6" unicode="&#x1ea6;" horiz-adv-x="1404" 
d="M-46 0h293l164 348h492l40 -348h294l-202 1352h-404zM491 536l313 649h3l82 -649h-398zM549 1408h165l161 135l114 -135h165l-179 195h-181zM1112 1570h130l-122 191h-191z" />
    <glyph glyph-name="uni1EA7" unicode="&#x1ea7;" horiz-adv-x="1270" 
d="M390 -12q82 0 151.5 14t125 37t94 49.5t58.5 53.5l-2 -142h235l132 746q29 164 -18 262.5t-162 143.5t-291 45q-99 0 -190.5 -18.5t-169.5 -58t-137.5 -105t-95.5 -160.5l262 -75q28 84 75 133.5t105.5 71.5t124.5 22q81 0 134.5 -24t75.5 -78.5t7 -144.5l-10 -54h-380
q-67 0 -135 -9.5t-129.5 -33t-110.5 -65t-81 -106t-40 -155.5q-14 -137 26 -212.5t128.5 -106t217.5 -30.5zM483 170q-61 0 -104 15t-62.5 56t-11.5 117q6 61 28 99t55.5 58.5t75.5 28t89 7.5h310l-44 -251q-25 -33 -74.5 -63t-116.5 -48.5t-145 -18.5zM437 1244h165
l161 135l114 -135h165l-179 195h-181zM1001 1406h130l-122 191h-191z" />
    <glyph glyph-name="uni1EA8" unicode="&#x1ea8;" horiz-adv-x="1404" 
d="M-46 0h293l164 348h492l40 -348h294l-202 1352h-404zM491 536l313 649h3l82 -649h-398zM547 1401h165l161 135l114 -135h165l-179 195h-181zM811 1938l-16 -88q94 0 150 -2t80 -9.5t22 -23.5q-2 -13 -26.5 -21.5t-65.5 -11.5t-95 -3l-23 -128h102l11 58q35 0 74 6
t74.5 19t59 35t27.5 54q3 34 -17 56.5t-65 35t-117.5 18t-174.5 5.5z" />
    <glyph glyph-name="uni1EA9" unicode="&#x1ea9;" horiz-adv-x="1270" 
d="M390 -12q82 0 151.5 14t125 37t94 49.5t58.5 53.5l-2 -142h235l132 746q29 164 -18 262.5t-162 143.5t-291 45q-99 0 -190.5 -18.5t-169.5 -58t-137.5 -105t-95.5 -160.5l262 -75q28 84 75 133.5t105.5 71.5t124.5 22q81 0 134.5 -24t75.5 -78.5t7 -144.5l-10 -54h-380
q-67 0 -135 -9.5t-129.5 -33t-110.5 -65t-81 -106t-40 -155.5q-14 -137 26 -212.5t128.5 -106t217.5 -30.5zM483 170q-61 0 -104 15t-62.5 56t-11.5 117q6 61 28 99t55.5 58.5t75.5 28t89 7.5h310l-44 -251q-25 -33 -74.5 -63t-116.5 -48.5t-145 -18.5zM436 1237h165
l161 135l114 -135h165l-179 195h-181zM699 1774l-16 -88q94 0 150 -2t80 -9.5t22 -23.5q-2 -13 -26.5 -21.5t-65.5 -11.5t-95 -3l-23 -128h102l11 58q35 0 74 6t74.5 19t59 35t27.5 54q3 34 -17 56.5t-65 35t-117.5 18t-174.5 5.5z" />
    <glyph glyph-name="uni1EAA" unicode="&#x1eaa;" horiz-adv-x="1404" 
d="M-46 0h293l164 348h492l40 -348h294l-202 1352h-404zM491 536l313 649h3l82 -649h-398zM547 1401h165l161 135l114 -135h165l-179 195h-181zM1016 1667q62 0 104.5 20.5t68 50.5t39 59.5t17.5 48.5h-137q-3 -12 -14 -28t-30 -27.5t-44 -11.5q-31 0 -52 11.5t-41.5 27
t-47 26.5t-67.5 11q-63 0 -106 -19t-69.5 -48.5t-40 -58.5t-18.5 -50h139q3 12 13.5 28.5t29.5 27.5t47 11t47.5 -12t41 -27.5t49.5 -27.5t71 -12z" />
    <glyph glyph-name="uni1EAB" unicode="&#x1eab;" horiz-adv-x="1270" 
d="M390 -12q82 0 151.5 14t125 37t94 49.5t58.5 53.5l-2 -142h235l132 746q29 164 -18 262.5t-162 143.5t-291 45q-99 0 -190.5 -18.5t-169.5 -58t-137.5 -105t-95.5 -160.5l262 -75q28 84 75 133.5t105.5 71.5t124.5 22q81 0 134.5 -24t75.5 -78.5t7 -144.5l-10 -54h-380
q-67 0 -135 -9.5t-129.5 -33t-110.5 -65t-81 -106t-40 -155.5q-14 -137 26 -212.5t128.5 -106t217.5 -30.5zM483 170q-61 0 -104 15t-62.5 56t-11.5 117q6 61 28 99t55.5 58.5t75.5 28t89 7.5h310l-44 -251q-25 -33 -74.5 -63t-116.5 -48.5t-145 -18.5zM436 1237h165
l161 135l114 -135h165l-179 195h-181zM905 1503q62 0 104.5 20.5t68 50.5t39 59.5t17.5 48.5h-137q-3 -12 -14 -28t-30 -27.5t-44 -11.5q-31 0 -52 11.5t-41.5 27t-47 26.5t-67.5 11q-63 0 -106 -19t-69.5 -48.5t-40 -58.5t-18.5 -50h139q3 12 13.5 28.5t29.5 27.5t47 11
t47.5 -12t41 -27.5t49.5 -27.5t71 -12z" />
    <glyph glyph-name="uni1EAC" unicode="&#x1eac;" horiz-adv-x="1404" 
d="M-46 0h293l164 348h492l40 -348h294l-202 1352h-404zM491 536l313 649h3l82 -649h-398zM562 -265q37 0 62.5 26t25.5 62t-25.5 61.5t-61.5 25.5q-37 0 -62.5 -25.5t-25.5 -61.5q0 -37 25.5 -62.5t61.5 -25.5zM547 1401h165l161 135l114 -135h165l-179 195h-181z" />
    <glyph glyph-name="uni1EAD" unicode="&#x1ead;" horiz-adv-x="1270" 
d="M390 -12q82 0 151.5 14t125 37t94 49.5t58.5 53.5l-2 -142h235l132 746q29 164 -18 262.5t-162 143.5t-291 45q-99 0 -190.5 -18.5t-169.5 -58t-137.5 -105t-95.5 -160.5l262 -75q28 84 75 133.5t105.5 71.5t124.5 22q81 0 134.5 -24t75.5 -78.5t7 -144.5l-10 -54h-380
q-67 0 -135 -9.5t-129.5 -33t-110.5 -65t-81 -106t-40 -155.5q-14 -137 26 -212.5t128.5 -106t217.5 -30.5zM483 170q-61 0 -104 15t-62.5 56t-11.5 117q6 61 28 99t55.5 58.5t75.5 28t89 7.5h310l-44 -251q-25 -33 -74.5 -63t-116.5 -48.5t-145 -18.5zM484 -299
q37 0 62.5 26t25.5 62t-25.5 61.5t-61.5 25.5q-37 0 -62.5 -25.5t-25.5 -61.5q0 -37 25.5 -62.5t61.5 -25.5zM436 1237h165l161 135l114 -135h165l-179 195h-181z" />
    <glyph glyph-name="uni1EAE" unicode="&#x1eae;" horiz-adv-x="1404" 
d="M-46 0h293l164 348h492l40 -348h294l-202 1352h-404zM491 536l313 649h3l82 -649h-398zM851 1410q74 0 129.5 25t90 66t42.5 90h-135q-4 -25 -16.5 -44.5t-35 -30.5t-59.5 -11q-32 0 -51 11t-26 30t-2 45h-135q-8 -49 12.5 -90t67.5 -66t118 -25zM714 1633h136l251 191
h-199z" />
    <glyph glyph-name="uni1EAF" unicode="&#x1eaf;" horiz-adv-x="1270" 
d="M390 -12q82 0 151.5 14t125 37t94 49.5t58.5 53.5l-2 -142h235l132 746q29 164 -18 262.5t-162 143.5t-291 45q-99 0 -190.5 -18.5t-169.5 -58t-137.5 -105t-95.5 -160.5l262 -75q28 84 75 133.5t105.5 71.5t124.5 22q81 0 134.5 -24t75.5 -78.5t7 -144.5l-10 -54h-380
q-67 0 -135 -9.5t-129.5 -33t-110.5 -65t-81 -106t-40 -155.5q-14 -137 26 -212.5t128.5 -106t217.5 -30.5zM483 170q-61 0 -104 15t-62.5 56t-11.5 117q6 61 28 99t55.5 58.5t75.5 28t89 7.5h310l-44 -251q-25 -33 -74.5 -63t-116.5 -48.5t-145 -18.5zM740 1246
q74 0 129.5 25t90 66t42.5 90h-135q-4 -25 -16.5 -44.5t-35 -30.5t-59.5 -11q-32 0 -51 11t-26 30t-2 45h-135q-8 -49 12.5 -90t67.5 -66t118 -25zM603 1469h136l251 191h-199z" />
    <glyph glyph-name="uni1EB0" unicode="&#x1eb0;" horiz-adv-x="1404" 
d="M-46 0h293l164 348h492l40 -348h294l-202 1352h-404zM491 536l313 649h3l82 -649h-398zM851 1410q74 0 129.5 25t90 66t42.5 90h-135q-4 -25 -16.5 -44.5t-35 -30.5t-59.5 -11q-32 0 -51 11t-26 30t-2 45h-135q-8 -49 12.5 -90t67.5 -66t118 -25zM936 1641h130l-122 191
h-191z" />
    <glyph glyph-name="uni1EB1" unicode="&#x1eb1;" horiz-adv-x="1270" 
d="M390 -12q82 0 151.5 14t125 37t94 49.5t58.5 53.5l-2 -142h235l132 746q29 164 -18 262.5t-162 143.5t-291 45q-99 0 -190.5 -18.5t-169.5 -58t-137.5 -105t-95.5 -160.5l262 -75q28 84 75 133.5t105.5 71.5t124.5 22q81 0 134.5 -24t75.5 -78.5t7 -144.5l-10 -54h-380
q-67 0 -135 -9.5t-129.5 -33t-110.5 -65t-81 -106t-40 -155.5q-14 -137 26 -212.5t128.5 -106t217.5 -30.5zM483 170q-61 0 -104 15t-62.5 56t-11.5 117q6 61 28 99t55.5 58.5t75.5 28t89 7.5h310l-44 -251q-25 -33 -74.5 -63t-116.5 -48.5t-145 -18.5zM740 1246
q74 0 129.5 25t90 66t42.5 90h-135q-4 -25 -16.5 -44.5t-35 -30.5t-59.5 -11q-32 0 -51 11t-26 30t-2 45h-135q-8 -49 12.5 -90t67.5 -66t118 -25zM824 1477h130l-122 191h-191z" />
    <glyph glyph-name="uni1EB2" unicode="&#x1eb2;" horiz-adv-x="1404" 
d="M-46 0h293l164 348h492l40 -348h294l-202 1352h-404zM491 536l313 649h3l82 -649h-398zM851 1410q74 0 129.5 25t90 66t42.5 90h-135q-4 -25 -16.5 -44.5t-35 -30.5t-59.5 -11q-32 0 -51 11t-26 30t-2 45h-135q-8 -49 12.5 -90t67.5 -66t118 -25zM811 1933l-16 -88
q94 0 150 -2t80 -9.5t22 -23.5q-2 -13 -26.5 -21.5t-65.5 -11.5t-95 -3l-23 -128h102l11 58q35 0 74 6t74.5 19t59 35t27.5 54q3 34 -17 56.5t-65 35t-117.5 18t-174.5 5.5z" />
    <glyph glyph-name="uni1EB3" unicode="&#x1eb3;" horiz-adv-x="1270" 
d="M390 -12q82 0 151.5 14t125 37t94 49.5t58.5 53.5l-2 -142h235l132 746q29 164 -18 262.5t-162 143.5t-291 45q-99 0 -190.5 -18.5t-169.5 -58t-137.5 -105t-95.5 -160.5l262 -75q28 84 75 133.5t105.5 71.5t124.5 22q81 0 134.5 -24t75.5 -78.5t7 -144.5l-10 -54h-380
q-67 0 -135 -9.5t-129.5 -33t-110.5 -65t-81 -106t-40 -155.5q-14 -137 26 -212.5t128.5 -106t217.5 -30.5zM483 170q-61 0 -104 15t-62.5 56t-11.5 117q6 61 28 99t55.5 58.5t75.5 28t89 7.5h310l-44 -251q-25 -33 -74.5 -63t-116.5 -48.5t-145 -18.5zM740 1246
q74 0 129.5 25t90 66t42.5 90h-135q-4 -25 -16.5 -44.5t-35 -30.5t-59.5 -11q-32 0 -51 11t-26 30t-2 45h-135q-8 -49 12.5 -90t67.5 -66t118 -25zM700 1769l-16 -88q94 0 150 -2t80 -9.5t22 -23.5q-2 -13 -26.5 -21.5t-65.5 -11.5t-95 -3l-23 -128h102l11 58q35 0 74 6
t74.5 19t59 35t27.5 54q3 34 -17 56.5t-65 35t-117.5 18t-174.5 5.5z" />
    <glyph glyph-name="uni1EB4" unicode="&#x1eb4;" horiz-adv-x="1404" 
d="M-46 0h293l164 348h492l40 -348h294l-202 1352h-404zM491 536l313 649h3l82 -649h-398zM851 1410q74 0 129.5 25t90 66t42.5 90h-135q-4 -25 -16.5 -44.5t-35 -30.5t-59.5 -11q-32 0 -51 11t-26 30t-2 45h-135q-8 -49 12.5 -90t67.5 -66t118 -25zM1016 1662
q62 0 104.5 20.5t68 50.5t39 59.5t17.5 48.5h-137q-3 -12 -14 -28t-30 -27.5t-44 -11.5q-31 0 -52 11.5t-41.5 27t-47 26.5t-67.5 11q-63 0 -106 -19t-69.5 -48.5t-40 -58.5t-18.5 -50h139q3 12 13.5 28.5t29.5 27.5t47 11t47.5 -12t41 -27.5t49.5 -27.5t71 -12z" />
    <glyph glyph-name="uni1EB5" unicode="&#x1eb5;" horiz-adv-x="1270" 
d="M390 -12q82 0 151.5 14t125 37t94 49.5t58.5 53.5l-2 -142h235l132 746q29 164 -18 262.5t-162 143.5t-291 45q-99 0 -190.5 -18.5t-169.5 -58t-137.5 -105t-95.5 -160.5l262 -75q28 84 75 133.5t105.5 71.5t124.5 22q81 0 134.5 -24t75.5 -78.5t7 -144.5l-10 -54h-380
q-67 0 -135 -9.5t-129.5 -33t-110.5 -65t-81 -106t-40 -155.5q-14 -137 26 -212.5t128.5 -106t217.5 -30.5zM483 170q-61 0 -104 15t-62.5 56t-11.5 117q6 61 28 99t55.5 58.5t75.5 28t89 7.5h310l-44 -251q-25 -33 -74.5 -63t-116.5 -48.5t-145 -18.5zM740 1246
q74 0 129.5 25t90 66t42.5 90h-135q-4 -25 -16.5 -44.5t-35 -30.5t-59.5 -11q-32 0 -51 11t-26 30t-2 45h-135q-8 -49 12.5 -90t67.5 -66t118 -25zM905 1498q62 0 104.5 20.5t68 50.5t39 59.5t17.5 48.5h-137q-3 -12 -14 -28t-30 -27.5t-44 -11.5q-31 0 -52 11.5t-41.5 27
t-47 26.5t-67.5 11q-63 0 -106 -19t-69.5 -48.5t-40 -58.5t-18.5 -50h139q3 12 13.5 28.5t29.5 27.5t47 11t47.5 -12t41 -27.5t49.5 -27.5t71 -12z" />
    <glyph glyph-name="uni1EB6" unicode="&#x1eb6;" horiz-adv-x="1404" 
d="M-46 0h293l164 348h492l40 -348h294l-202 1352h-404zM491 536l313 649h3l82 -649h-398zM562 -265q37 0 62.5 26t25.5 62t-25.5 61.5t-61.5 25.5q-37 0 -62.5 -25.5t-25.5 -61.5q0 -37 25.5 -62.5t61.5 -25.5zM851 1410q74 0 129.5 25t90 66t42.5 90h-135
q-4 -25 -16.5 -44.5t-35 -30.5t-59.5 -11q-32 0 -51 11t-26 30t-2 45h-135q-8 -49 12.5 -90t67.5 -66t118 -25z" />
    <glyph glyph-name="uni1EB7" unicode="&#x1eb7;" horiz-adv-x="1270" 
d="M390 -12q82 0 151.5 14t125 37t94 49.5t58.5 53.5l-2 -142h235l132 746q29 164 -18 262.5t-162 143.5t-291 45q-99 0 -190.5 -18.5t-169.5 -58t-137.5 -105t-95.5 -160.5l262 -75q28 84 75 133.5t105.5 71.5t124.5 22q81 0 134.5 -24t75.5 -78.5t7 -144.5l-10 -54h-380
q-67 0 -135 -9.5t-129.5 -33t-110.5 -65t-81 -106t-40 -155.5q-14 -137 26 -212.5t128.5 -106t217.5 -30.5zM483 170q-61 0 -104 15t-62.5 56t-11.5 117q6 61 28 99t55.5 58.5t75.5 28t89 7.5h310l-44 -251q-25 -33 -74.5 -63t-116.5 -48.5t-145 -18.5zM484 -299
q37 0 62.5 26t25.5 62t-25.5 61.5t-61.5 25.5q-37 0 -62.5 -25.5t-25.5 -61.5q0 -37 25.5 -62.5t61.5 -25.5zM740 1246q74 0 129.5 25t90 66t42.5 90h-135q-4 -25 -16.5 -44.5t-35 -30.5t-59.5 -11q-32 0 -51 11t-26 30t-2 45h-135q-8 -49 12.5 -90t67.5 -66t118 -25z" />
    <glyph glyph-name="uni1EB8" unicode="&#x1eb8;" horiz-adv-x="1125" 
d="M-32 0h948l34 194h-663l70 400h620l33 185h-620l66 377h663l35 194h-948zM407 -265q37 0 62.5 26t25.5 62t-25.5 61.5t-61.5 25.5q-37 0 -62.5 -25.5t-25.5 -61.5q0 -37 25.5 -62.5t61.5 -25.5z" />
    <glyph glyph-name="uni1EB9" unicode="&#x1eb9;" horiz-adv-x="1276" 
d="M528 -10l33 182q-138 0 -200 93q-63 91 -22 329q41 246 138 334q98 87 228 87q134 0 194 -82q46 -72 24 -252h-596l-30 -171h876q12 39 20 86q50 287 -47 445q-97 156 -409 156q-302 0 -462 -155q-159 -156 -209 -448q-47 -281 52 -443q99 -161 410 -161zM561 172
l-33 -182q167 0 276 36q106 36 189 114q82 77 123 196l-240 70q-32 -73 -73 -130q-43 -57 -101 -81q-61 -23 -141 -23zM473 -299q37 0 62.5 26t25.5 62t-25.5 61.5t-61.5 25.5q-37 0 -62.5 -25.5t-25.5 -61.5q0 -37 25.5 -62.5t61.5 -25.5z" />
    <glyph glyph-name="uni1EBA" unicode="&#x1eba;" horiz-adv-x="1125" 
d="M-32 0h948l34 194h-663l70 400h620l33 185h-620l66 377h663l35 194h-948zM608 1692l-16 -88q94 0 150 -2t80 -9.5t22 -23.5q-2 -13 -26.5 -21.5t-65.5 -11.5t-95 -3l-23 -128h102l11 58q35 0 74 6t74.5 19t59 35t27.5 54q3 34 -17 56.5t-65 35t-117.5 18t-174.5 5.5z" />
    <glyph glyph-name="uni1EBB" unicode="&#x1ebb;" horiz-adv-x="1276" 
d="M528 -10l33 182q-138 0 -200 93q-63 91 -22 329q41 246 138 334q98 87 228 87q134 0 194 -82q46 -72 24 -252h-596l-30 -171h876q12 39 20 86q50 287 -47 445q-97 156 -409 156q-302 0 -462 -155q-159 -156 -209 -448q-47 -281 52 -443q99 -161 410 -161zM561 172
l-33 -182q167 0 276 36q106 36 189 114q82 77 123 196l-240 70q-32 -73 -73 -130q-43 -57 -101 -81q-61 -23 -141 -23zM667 1528l-16 -88q94 0 150 -2t80 -9.5t22 -23.5q-2 -13 -26.5 -21.5t-65.5 -11.5t-95 -3l-23 -128h102l11 58q35 0 74 6t74.5 19t59 35t27.5 54
q3 34 -17 56.5t-65 35t-117.5 18t-174.5 5.5z" />
    <glyph glyph-name="uni1EBC" unicode="&#x1ebc;" horiz-adv-x="1125" 
d="M-32 0h948l34 194h-663l70 400h620l33 185h-620l66 377h663l35 194h-948zM808 1420q62 0 104.5 20.5t68 50.5t39 59.5t17.5 48.5h-137q-3 -12 -14 -28t-30 -27.5t-44 -11.5q-31 0 -52 11.5t-41.5 27t-47 26.5t-67.5 11q-63 0 -106 -19t-69.5 -48.5t-40 -58.5t-18.5 -50
h139q3 12 13.5 28.5t29.5 27.5t47 11t47.5 -12t41 -27.5t49.5 -27.5t71 -12z" />
    <glyph glyph-name="uni1EBD" unicode="&#x1ebd;" horiz-adv-x="1276" 
d="M528 -10l33 182q-138 0 -200 93q-63 91 -22 329q41 246 138 334q98 87 228 87q134 0 194 -82q46 -72 24 -252h-596l-30 -171h876q12 39 20 86q50 287 -47 445q-97 156 -409 156q-302 0 -462 -155q-159 -156 -209 -448q-47 -281 52 -443q99 -161 410 -161zM561 172
l-33 -182q167 0 276 36q106 36 189 114q82 77 123 196l-240 70q-32 -73 -73 -130q-43 -57 -101 -81q-61 -23 -141 -23zM872 1256q62 0 104.5 20.5t68 50.5t39 59.5t17.5 48.5h-137q-3 -12 -14 -28t-30 -27.5t-44 -11.5q-31 0 -52 11.5t-41.5 27t-47 26.5t-67.5 11
q-63 0 -106 -19t-69.5 -48.5t-40 -58.5t-18.5 -50h139q3 12 13.5 28.5t29.5 27.5t47 11t47.5 -12t41 -27.5t49.5 -27.5t71 -12z" />
    <glyph glyph-name="uni1EBE" unicode="&#x1ebe;" horiz-adv-x="1125" 
d="M-32 0h948l34 194h-663l70 400h620l33 185h-620l66 377h663l35 194h-948zM384 1411h165l161 135l114 -135h165l-179 195h-181zM872 1570h136l251 191h-199z" />
    <glyph glyph-name="uni1EBF" unicode="&#x1ebf;" horiz-adv-x="1276" 
d="M528 -10l33 182q-138 0 -200 93q-63 91 -22 329q41 246 138 334q98 87 228 87q134 0 194 -82q46 -72 24 -252h-596l-30 -171h876q12 39 20 86q50 287 -47 445q-97 156 -409 156q-302 0 -462 -155q-159 -156 -209 -448q-47 -281 52 -443q99 -161 410 -161zM561 172
l-33 -182q167 0 276 36q106 36 189 114q82 77 123 196l-240 70q-32 -73 -73 -130q-43 -57 -101 -81q-61 -23 -141 -23zM448 1247h165l161 135l114 -135h165l-179 195h-181zM935 1406h136l251 191h-199z" />
    <glyph glyph-name="uni1EC0" unicode="&#x1ec0;" horiz-adv-x="1125" 
d="M-32 0h948l34 194h-663l70 400h620l33 185h-620l66 377h663l35 194h-948zM384 1408h165l161 135l114 -135h165l-179 195h-181zM946 1570h130l-122 191h-191z" />
    <glyph glyph-name="uni1EC1" unicode="&#x1ec1;" horiz-adv-x="1276" 
d="M528 -10l33 182q-138 0 -200 93q-63 91 -22 329q41 246 138 334q98 87 228 87q134 0 194 -82q46 -72 24 -252h-596l-30 -171h876q12 39 20 86q50 287 -47 445q-97 156 -409 156q-302 0 -462 -155q-159 -156 -209 -448q-47 -281 52 -443q99 -161 410 -161zM561 172
l-33 -182q167 0 276 36q106 36 189 114q82 77 123 196l-240 70q-32 -73 -73 -130q-43 -57 -101 -81q-61 -23 -141 -23zM447 1244h165l161 135l114 -135h165l-179 195h-181zM1009 1406h130l-122 191h-191z" />
    <glyph glyph-name="uni1EC2" unicode="&#x1ec2;" horiz-adv-x="1125" 
d="M-32 0h948l34 194h-663l70 400h620l33 185h-620l66 377h663l35 194h-948zM381 1401h165l161 135l114 -135h165l-179 195h-181zM646 1938l-16 -88q94 0 150 -2t80 -9.5t22 -23.5q-2 -13 -26.5 -21.5t-65.5 -11.5t-95 -3l-23 -128h102l11 58q35 0 74 6t74.5 19t59 35
t27.5 54q3 34 -17 56.5t-65 35t-117.5 18t-174.5 5.5z" />
    <glyph glyph-name="uni1EC3" unicode="&#x1ec3;" horiz-adv-x="1276" 
d="M528 -10l33 182q-138 0 -200 93q-63 91 -22 329q41 246 138 334q98 87 228 87q134 0 194 -82q46 -72 24 -252h-596l-30 -171h876q12 39 20 86q50 287 -47 445q-97 156 -409 156q-302 0 -462 -155q-159 -156 -209 -448q-47 -281 52 -443q99 -161 410 -161zM561 172
l-33 -182q167 0 276 36q106 36 189 114q82 77 123 196l-240 70q-32 -73 -73 -130q-43 -57 -101 -81q-61 -23 -141 -23zM445 1237h165l161 135l114 -135h165l-179 195h-181zM709 1774l-16 -88q94 0 150 -2t80 -9.5t22 -23.5q-2 -13 -26.5 -21.5t-65.5 -11.5t-95 -3l-23 -128
h102l11 58q35 0 74 6t74.5 19t59 35t27.5 54q3 34 -17 56.5t-65 35t-117.5 18t-174.5 5.5z" />
    <glyph glyph-name="uni1EC4" unicode="&#x1ec4;" horiz-adv-x="1125" 
d="M-32 0h948l34 194h-663l70 400h620l33 185h-620l66 377h663l35 194h-948zM381 1401h165l161 135l114 -135h165l-179 195h-181zM852 1667q62 0 104.5 20.5t68 50.5t39 59.5t17.5 48.5h-137q-3 -12 -14 -28t-30 -27.5t-44 -11.5q-31 0 -52 11.5t-41.5 27t-47 26.5t-67.5 11
q-63 0 -106 -19t-69.5 -48.5t-40 -58.5t-18.5 -50h139q3 12 13.5 28.5t29.5 27.5t47 11t47.5 -12t41 -27.5t49.5 -27.5t71 -12z" />
    <glyph glyph-name="uni1EC5" unicode="&#x1ec5;" horiz-adv-x="1276" 
d="M528 -10l33 182q-138 0 -200 93q-63 91 -22 329q41 246 138 334q98 87 228 87q134 0 194 -82q46 -72 24 -252h-596l-30 -171h876q12 39 20 86q50 287 -47 445q-97 156 -409 156q-302 0 -462 -155q-159 -156 -209 -448q-47 -281 52 -443q99 -161 410 -161zM561 172
l-33 -182q167 0 276 36q106 36 189 114q82 77 123 196l-240 70q-32 -73 -73 -130q-43 -57 -101 -81q-61 -23 -141 -23zM445 1237h165l161 135l114 -135h165l-179 195h-181zM915 1503q62 0 104.5 20.5t68 50.5t39 59.5t17.5 48.5h-137q-3 -12 -14 -28t-30 -27.5t-44 -11.5
q-31 0 -52 11.5t-41.5 27t-47 26.5t-67.5 11q-63 0 -106 -19t-69.5 -48.5t-40 -58.5t-18.5 -50h139q3 12 13.5 28.5t29.5 27.5t47 11t47.5 -12t41 -27.5t49.5 -27.5t71 -12z" />
    <glyph glyph-name="uni1EC6" unicode="&#x1ec6;" horiz-adv-x="1125" 
d="M-32 0h948l34 194h-663l70 400h620l33 185h-620l66 377h663l35 194h-948zM407 -265q37 0 62.5 26t25.5 62t-25.5 61.5t-61.5 25.5q-37 0 -62.5 -25.5t-25.5 -61.5q0 -37 25.5 -62.5t61.5 -25.5zM381 1401h165l161 135l114 -135h165l-179 195h-181z" />
    <glyph glyph-name="uni1EC7" unicode="&#x1ec7;" horiz-adv-x="1276" 
d="M528 -10l33 182q-138 0 -200 93q-63 91 -22 329q41 246 138 334q98 87 228 87q134 0 194 -82q46 -72 24 -252h-596l-30 -171h876q12 39 20 86q50 287 -47 445q-97 156 -409 156q-302 0 -462 -155q-159 -156 -209 -448q-47 -281 52 -443q99 -161 410 -161zM561 172
l-33 -182q167 0 276 36q106 36 189 114q82 77 123 196l-240 70q-32 -73 -73 -130q-43 -57 -101 -81q-61 -23 -141 -23zM473 -299q37 0 62.5 26t25.5 62t-25.5 61.5t-61.5 25.5q-37 0 -62.5 -25.5t-25.5 -61.5q0 -37 25.5 -62.5t61.5 -25.5zM445 1237h165l161 135l114 -135
h165l-179 195h-181z" />
    <glyph glyph-name="uni1EC8" unicode="&#x1ec8;" horiz-adv-x="580" 
d="M27 0h283l239 1350h-283zM353 1692l-16 -88q94 0 150 -2t80 -9.5t22 -23.5q-2 -13 -26.5 -21.5t-65.5 -11.5t-95 -3l-23 -128h102l11 58q35 0 74 6t74.5 19t59 35t27.5 54q3 34 -17 56.5t-65 35t-117.5 18t-174.5 5.5z" />
    <glyph glyph-name="uni1EC9" unicode="&#x1ec9;" horiz-adv-x="514" 
d="M-11 0h283l209 1185h-283zM270 1528l-16 -88q94 0 150 -2t80 -9.5t22 -23.5q-2 -13 -26.5 -21.5t-65.5 -11.5t-95 -3l-23 -128h102l11 58q35 0 74 6t74.5 19t59 35t27.5 54q3 34 -17 56.5t-65 35t-117.5 18t-174.5 5.5z" />
    <glyph glyph-name="uni1ECA" unicode="&#x1eca;" horiz-adv-x="580" 
d="M27 0h283l239 1350h-283zM142 -265q37 0 62.5 26t25.5 62t-25.5 61.5t-61.5 25.5q-37 0 -62.5 -25.5t-25.5 -61.5q0 -37 25.5 -62.5t61.5 -25.5z" />
    <glyph glyph-name="uni1ECB" unicode="&#x1ecb;" horiz-adv-x="544" 
d="M20 0h282l208 1186h-281zM290 1529l-38 -212h281l38 212h-281zM141 -299q37 0 62.5 26t25.5 62t-25.5 61.5t-61.5 25.5q-37 0 -62.5 -25.5t-25.5 -61.5q0 -37 25.5 -62.5t61.5 -25.5z" />
    <glyph glyph-name="uni1ECC" unicode="&#x1ecc;" horiz-adv-x="1369" 
d="M565 -10q333 0 508 169t229 516q53 347 -54.5 517t-441.5 170t-509 -169.5t-229 -517.5q-52 -346 55 -515.5t442 -169.5zM599 184q-151 0 -224 90t-23 401q50 315 160 403.5t260 88.5t223.5 -88.5t22.5 -403.5q-50 -311 -160 -401t-259 -90zM536 -265q37 0 62.5 26
t25.5 62t-25.5 61.5t-61.5 25.5q-37 0 -62.5 -25.5t-25.5 -61.5q0 -37 25.5 -62.5t61.5 -25.5z" />
    <glyph glyph-name="uni1ECD" unicode="&#x1ecd;" horiz-adv-x="1281" 
d="M522 -9q299 0 462.5 152.5t209.5 453.5q45 296 -60.5 448.5t-405.5 152.5t-464 -150.5t-209 -450.5q-45 -297 60.5 -451.5t406.5 -154.5zM552 183q-126 0 -189.5 84.5t-26.5 327.5q38 242 137 327t224 85q126 0 190 -84.5t26 -327.5q-38 -241 -137 -326.5t-224 -85.5z
M498 -299q37 0 62.5 26t25.5 62t-25.5 61.5t-61.5 25.5q-37 0 -62.5 -25.5t-25.5 -61.5q0 -37 25.5 -62.5t61.5 -25.5z" />
    <glyph glyph-name="uni1ECE" unicode="&#x1ece;" horiz-adv-x="1369" 
d="M565 -10q333 0 508 169t229 516q53 347 -54.5 517t-441.5 170t-509 -169.5t-229 -517.5q-52 -346 55 -515.5t442 -169.5zM599 184q-151 0 -224 90t-23 401q50 315 160 403.5t260 88.5t223.5 -88.5t22.5 -403.5q-50 -311 -160 -401t-259 -90zM736 1692l-16 -88
q94 0 150 -2t80 -9.5t22 -23.5q-2 -13 -26.5 -21.5t-65.5 -11.5t-95 -3l-23 -128h102l11 58q35 0 74 6t74.5 19t59 35t27.5 54q3 34 -17 56.5t-65 35t-117.5 18t-174.5 5.5z" />
    <glyph glyph-name="uni1ECF" unicode="&#x1ecf;" horiz-adv-x="1281" 
d="M522 -9q299 0 462.5 152.5t209.5 453.5q45 296 -60.5 448.5t-405.5 152.5t-464 -150.5t-209 -450.5q-45 -297 60.5 -451.5t406.5 -154.5zM552 183q-126 0 -189.5 84.5t-26.5 327.5q38 242 137 327t224 85q126 0 190 -84.5t26 -327.5q-38 -241 -137 -326.5t-224 -85.5z
M657 1528l-16 -88q94 0 150 -2t80 -9.5t22 -23.5q-2 -13 -26.5 -21.5t-65.5 -11.5t-95 -3l-23 -128h102l11 58q35 0 74 6t74.5 19t59 35t27.5 54q3 34 -17 56.5t-65 35t-117.5 18t-174.5 5.5z" />
    <glyph glyph-name="uni1ED0" unicode="&#x1ed0;" horiz-adv-x="1369" 
d="M565 -10q333 0 508 169t229 516q53 347 -54.5 517t-441.5 170t-509 -169.5t-229 -517.5q-52 -346 55 -515.5t442 -169.5zM599 184q-151 0 -224 90t-23 401q50 315 160 403.5t260 88.5t223.5 -88.5t22.5 -403.5q-50 -311 -160 -401t-259 -90zM512 1411h165l161 135
l114 -135h165l-179 195h-181zM1000 1570h136l251 191h-199z" />
    <glyph glyph-name="uni1ED1" unicode="&#x1ed1;" horiz-adv-x="1281" 
d="M522 -9q299 0 462.5 152.5t209.5 453.5q45 296 -60.5 448.5t-405.5 152.5t-464 -150.5t-209 -450.5q-45 -297 60.5 -451.5t406.5 -154.5zM552 183q-126 0 -189.5 84.5t-26.5 327.5q38 242 137 327t224 85q126 0 190 -84.5t26 -327.5q-38 -241 -137 -326.5t-224 -85.5z
M438 1247h165l161 135l114 -135h165l-179 195h-181zM924 1406h136l251 191h-199z" />
    <glyph glyph-name="uni1ED2" unicode="&#x1ed2;" horiz-adv-x="1369" 
d="M565 -10q333 0 508 169t229 516q53 347 -54.5 517t-441.5 170t-509 -169.5t-229 -517.5q-52 -346 55 -515.5t442 -169.5zM599 184q-151 0 -224 90t-23 401q50 315 160 403.5t260 88.5t223.5 -88.5t22.5 -403.5q-50 -311 -160 -401t-259 -90zM512 1408h165l161 135
l114 -135h165l-179 195h-181zM1075 1570h130l-122 191h-191z" />
    <glyph glyph-name="uni1ED3" unicode="&#x1ed3;" horiz-adv-x="1281" 
d="M522 -9q299 0 462.5 152.5t209.5 453.5q45 296 -60.5 448.5t-405.5 152.5t-464 -150.5t-209 -450.5q-45 -297 60.5 -451.5t406.5 -154.5zM552 183q-126 0 -189.5 84.5t-26.5 327.5q38 242 137 327t224 85q126 0 190 -84.5t26 -327.5q-38 -241 -137 -326.5t-224 -85.5z
M436 1244h165l161 135l114 -135h165l-179 195h-181zM999 1406h130l-122 191h-191z" />
    <glyph glyph-name="uni1ED4" unicode="&#x1ed4;" horiz-adv-x="1369" 
d="M565 -10q333 0 508 169t229 516q53 347 -54.5 517t-441.5 170t-509 -169.5t-229 -517.5q-52 -346 55 -515.5t442 -169.5zM599 184q-151 0 -224 90t-23 401q50 315 160 403.5t260 88.5t223.5 -88.5t22.5 -403.5q-50 -311 -160 -401t-259 -90zM509 1401h165l161 135
l114 -135h165l-179 195h-181zM774 1938l-16 -88q94 0 150 -2t80 -9.5t22 -23.5q-2 -13 -26.5 -21.5t-65.5 -11.5t-95 -3l-23 -128h102l11 58q35 0 74 6t74.5 19t59 35t27.5 54q3 34 -17 56.5t-65 35t-117.5 18t-174.5 5.5z" />
    <glyph glyph-name="uni1ED5" unicode="&#x1ed5;" horiz-adv-x="1281" 
d="M522 -9q299 0 462.5 152.5t209.5 453.5q45 296 -60.5 448.5t-405.5 152.5t-464 -150.5t-209 -450.5q-45 -297 60.5 -451.5t406.5 -154.5zM552 183q-126 0 -189.5 84.5t-26.5 327.5q38 242 137 327t224 85q126 0 190 -84.5t26 -327.5q-38 -241 -137 -326.5t-224 -85.5z
M435 1237h165l161 135l114 -135h165l-179 195h-181zM698 1774l-16 -88q94 0 150 -2t80 -9.5t22 -23.5q-2 -13 -26.5 -21.5t-65.5 -11.5t-95 -3l-23 -128h102l11 58q35 0 74 6t74.5 19t59 35t27.5 54q3 34 -17 56.5t-65 35t-117.5 18t-174.5 5.5z" />
    <glyph glyph-name="uni1ED6" unicode="&#x1ed6;" horiz-adv-x="1369" 
d="M565 -10q333 0 508 169t229 516q53 347 -54.5 517t-441.5 170t-509 -169.5t-229 -517.5q-52 -346 55 -515.5t442 -169.5zM599 184q-151 0 -224 90t-23 401q50 315 160 403.5t260 88.5t223.5 -88.5t22.5 -403.5q-50 -311 -160 -401t-259 -90zM509 1401h165l161 135
l114 -135h165l-179 195h-181zM980 1667q62 0 104.5 20.5t68 50.5t39 59.5t17.5 48.5h-137q-3 -12 -14 -28t-30 -27.5t-44 -11.5q-31 0 -52 11.5t-41.5 27t-47 26.5t-67.5 11q-63 0 -106 -19t-69.5 -48.5t-40 -58.5t-18.5 -50h139q3 12 13.5 28.5t29.5 27.5t47 11t47.5 -12
t41 -27.5t49.5 -27.5t71 -12z" />
    <glyph glyph-name="uni1ED7" unicode="&#x1ed7;" horiz-adv-x="1281" 
d="M522 -9q299 0 462.5 152.5t209.5 453.5q45 296 -60.5 448.5t-405.5 152.5t-464 -150.5t-209 -450.5q-45 -297 60.5 -451.5t406.5 -154.5zM552 183q-126 0 -189.5 84.5t-26.5 327.5q38 242 137 327t224 85q126 0 190 -84.5t26 -327.5q-38 -241 -137 -326.5t-224 -85.5z
M435 1237h165l161 135l114 -135h165l-179 195h-181zM904 1503q62 0 104.5 20.5t68 50.5t39 59.5t17.5 48.5h-137q-3 -12 -14 -28t-30 -27.5t-44 -11.5q-31 0 -52 11.5t-41.5 27t-47 26.5t-67.5 11q-63 0 -106 -19t-69.5 -48.5t-40 -58.5t-18.5 -50h139q3 12 13.5 28.5
t29.5 27.5t47 11t47.5 -12t41 -27.5t49.5 -27.5t71 -12z" />
    <glyph glyph-name="uni1ED8" unicode="&#x1ed8;" horiz-adv-x="1369" 
d="M565 -10q333 0 508 169t229 516q53 347 -54.5 517t-441.5 170t-509 -169.5t-229 -517.5q-52 -346 55 -515.5t442 -169.5zM599 184q-151 0 -224 90t-23 401q50 315 160 403.5t260 88.5t223.5 -88.5t22.5 -403.5q-50 -311 -160 -401t-259 -90zM536 -265q37 0 62.5 26
t25.5 62t-25.5 61.5t-61.5 25.5q-37 0 -62.5 -25.5t-25.5 -61.5q0 -37 25.5 -62.5t61.5 -25.5zM509 1401h165l161 135l114 -135h165l-179 195h-181z" />
    <glyph glyph-name="uni1ED9" unicode="&#x1ed9;" horiz-adv-x="1281" 
d="M522 -9q299 0 462.5 152.5t209.5 453.5q45 296 -60.5 448.5t-405.5 152.5t-464 -150.5t-209 -450.5q-45 -297 60.5 -451.5t406.5 -154.5zM552 183q-126 0 -189.5 84.5t-26.5 327.5q38 242 137 327t224 85q126 0 190 -84.5t26 -327.5q-38 -241 -137 -326.5t-224 -85.5z
M498 -299q37 0 62.5 26t25.5 62t-25.5 61.5t-61.5 25.5q-37 0 -62.5 -25.5t-25.5 -61.5q0 -37 25.5 -62.5t61.5 -25.5zM435 1237h165l161 135l114 -135h165l-179 195h-181z" />
    <glyph glyph-name="uni1EDA" unicode="&#x1eda;" horiz-adv-x="1369" 
d="M565 -10q333 0 508 169t229 516q53 347 -54.5 517t-441.5 170t-509 -169.5t-229 -517.5q-52 -346 55 -515.5t442 -169.5zM599 184q-151 0 -224 90t-23 401q50 315 160 403.5t260 88.5t223.5 -88.5t22.5 -403.5q-50 -311 -160 -401t-259 -90zM1202 1212l-16 -94
q125 0 216 28.5t146.5 86t70.5 146.5h-162q-10 -60 -38.5 -97t-80.5 -53.5t-136 -16.5zM634 1392h136l251 191h-199z" />
    </font>
</defs>
</svg>
