<?xml version="1.0" standalone="no"?>
<!DOCTYPE svg PUBLIC "-//W3C//DTD SVG 1.1//EN" "http://www.w3.org/Graphics/SVG/1.1/DTD/svg11.dtd" >
<svg xmlns="http://www.w3.org/2000/svg" xmlns:xlink="http://www.w3.org/1999/xlink" version="1.1">
<metadata>
Created by FontForge 20201107 at Wed Mar  8 16:58:27 2023
 By 
Copyright 2020 The Anybody Project Authors (https://github.com/Etcetera-Type-Co/Anybody)
</metadata>
<defs>
<font id="Anybody-Light" horiz-adv-x="0" >
  <font-face 
    font-family="Anybody Light"
    font-weight="300"
    font-stretch="normal"
    units-per-em="2000"
    panose-1="0 0 0 0 0 0 0 0 0 0"
    ascent="1600"
    descent="-400"
    x-height="1184"
    cap-height="1350"
    bbox="-241 -480 2210 1855"
    underline-thickness="74"
    underline-position="-247"
    unicode-range="U+000D-FB02"
  />
<missing-glyph horiz-adv-x="599" 
d="M100 146h348v1042h-348v-1042zM202 226l170 172l-20 20l-170 -172zM352 226l20 20l-170 172l-20 -20zM202 564l170 172l-20 20l-170 -172zM352 564l20 20l-170 172l-20 -20zM126 172v990h296v-990h-296zM202 902l170 172l-20 20l-170 -172zM352 902l20 20l-170 172
l-20 -20z" />
    <glyph glyph-name="fi" unicode="fi" horiz-adv-x="1260" 
d="M275 0h123v1096h350v88h-350v94q0 130 95 171.5t244 41.5h29v86h-31q-200 0 -330 -64.5t-130 -233.5v-95h-241v-88h241v-1096zM967 0h124v1186h-124v-1186zM967 1490v-145h124v145h-124z" />
    <glyph glyph-name="fl" unicode="fl" horiz-adv-x="1244" 
d="M275 0h123v1096h350v88h-350v94q0 130 95 171.5t244 41.5h29v86h-31q-200 0 -330 -64.5t-130 -233.5v-95h-241v-88h241v-1096zM978 0h123v1570h-123v-1570z" />
    <glyph glyph-name="f_f" unicode="ff" horiz-adv-x="1675" 
d="M275 0h123v1096h350v88h-350v94q0 130 95 171.5t244 41.5h29v86h-31q-200 0 -330 -64.5t-130 -233.5v-95h-241v-88h241v-1096zM1087 0h123v1096h350v88h-350v94q0 130 95 171.5t244 41.5h29v86h-31q-200 0 -330 -64.5t-130 -233.5v-95h-241v-88h241v-1096z" />
    <glyph glyph-name="f_f_i" unicode="ffi" horiz-adv-x="2072" 
d="M275 0h123v1096h350v88h-350v94q0 130 95 171.5t244 41.5h29v86h-31q-200 0 -330 -64.5t-130 -233.5v-95h-241v-88h241v-1096zM1087 0h123v1096h350v88h-350v94q0 130 95 171.5t244 41.5h29v86h-31q-200 0 -330 -64.5t-130 -233.5v-95h-241v-88h241v-1096zM1780 0h124
v1186h-124v-1186zM1780 1490v-145h124v145h-124z" />
    <glyph glyph-name="f_f_l" unicode="ffl" horiz-adv-x="2056" 
d="M275 0h123v1096h350v88h-350v94q0 130 95 171.5t244 41.5h29v86h-31q-200 0 -330 -64.5t-130 -233.5v-95h-241v-88h241v-1096zM1087 0h123v1096h350v88h-350v94q0 130 95 171.5t244 41.5h29v86h-31q-200 0 -330 -64.5t-130 -233.5v-95h-241v-88h241v-1096zM1790 0h123
v1570h-123v-1570z" />
    <glyph glyph-name=".notdef" horiz-adv-x="599" 
d="M100 146h348v1042h-348v-1042zM202 226l170 172l-20 20l-170 -172zM352 226l20 20l-170 172l-20 -20zM202 564l170 172l-20 20l-170 -172zM352 564l20 20l-170 172l-20 -20zM126 172v990h296v-990h-296zM202 902l170 172l-20 20l-170 -172zM352 902l20 20l-170 172
l-20 -20z" />
    <glyph glyph-name=".null" 
 />
    <glyph glyph-name="nonmarkingreturn" horiz-adv-x="666" 
 />
    <glyph glyph-name="CR" unicode="&#xd;" horiz-adv-x="378" 
 />
    <glyph glyph-name="space" unicode=" " horiz-adv-x="491" 
 />
    <glyph glyph-name="exclam" unicode="!" horiz-adv-x="332" 
d="M105 257h120l10 1093h-140zM100 -5h123v154h-123v-154z" />
    <glyph glyph-name="quotedbl" unicode="&#x22;" horiz-adv-x="328" 
d="M180 983h78v367h-78v-367zM36 983h80v367h-80v-367z" />
    <glyph glyph-name="numbersign" unicode="#" horiz-adv-x="1120" 
d="M647 0h99l190 1350h-98zM41 378h970v78h-970v-78zM150 0h98l190 1350h-98zM73 890h970v79h-970v-79z" />
    <glyph glyph-name="dollar" unicode="$" horiz-adv-x="1000" 
d="M460 1245h79v135h-79v-135zM463 -30h79v134h-79v-134zM528 76q215 0 322.5 78.5t107.5 221.5q0 176 -115.5 241.5t-285.5 108.5q-153 39 -252.5 87t-99.5 167q0 99 73.5 157t223.5 58q155 0 238.5 -76t97.5 -233l111 35q-20 192 -130.5 275t-314.5 83
q-203 0 -312.5 -78.5t-109.5 -220.5q0 -163 108 -230t277 -112q157 -39 262.5 -88t105.5 -182q0 -91 -75 -149t-231 -58q-155 0 -243 74t-102 252l-111 -34q22 -213 137.5 -295t317.5 -82z" />
    <glyph glyph-name="percent" unicode="%" horiz-adv-x="1146" 
d="M73 0h93l900 1348h-94zM341 826q150 0 222.5 52t72.5 174v85q0 124 -72.5 175.5t-222.5 51.5t-222.5 -51.5t-72.5 -175.5v-85q0 -122 72.5 -174t222.5 -52zM341 883q-109 0 -160 38t-51 131v84q0 95 51 133t160 38t160 -38t51 -133v-84q0 -93 -51 -131t-160 -38zM851 -8
q150 0 222 52t72 174v85q0 124 -72 175.5t-222 51.5t-222.5 -51.5t-72.5 -175.5v-85q0 -122 72.5 -174t222.5 -52zM851 49q-109 0 -160 38t-51 131v84q0 95 51 133t160 38q108 0 159.5 -38t51.5 -133v-84q0 -93 -51.5 -131t-159.5 -38z" />
    <glyph glyph-name="ampersand" unicode="&#x26;" horiz-adv-x="1354" 
d="M569 -11q286 0 492 153.5t206 531.5h-112q0 -336 -174 -465.5t-404 -129.5q-208 0 -312 68.5t-104 200.5q0 130 117.5 216.5t263.5 154.5q140 72 252.5 151.5t112.5 205.5q0 144 -91.5 215t-241.5 71q-137 0 -230.5 -70t-93.5 -216q0 -120 68.5 -207t134.5 -154l682 -715
h145l-736 777q-68 64 -121.5 135.5t-53.5 163.5q0 104 58.5 152t147.5 48q97 0 155.5 -50t58.5 -150q0 -91 -89 -157.5t-224 -129.5q-131 -65 -285 -170.5t-154 -276.5q0 -173 136.5 -263t395.5 -90z" />
    <glyph glyph-name="quotesingle" unicode="'" horiz-adv-x="218" 
d="M59 993h95v357h-95v-357z" />
    <glyph glyph-name="parenleft" unicode="(" horiz-adv-x="529" 
d="M366 -395l90 59q-29 25 -67.5 72t-79 120t-75 173t-57 231t-22.5 296t22.5 297t57 232.5t75 173.5t79 120.5t67.5 72.5l-90 59q-28 -24 -69 -73t-85 -126t-82.5 -185t-62 -250t-23.5 -321q0 -178 23.5 -320t62 -249t82.5 -183t85 -125.5t69 -73.5z" />
    <glyph glyph-name="parenright" unicode=")" horiz-adv-x="516" 
d="M133 -395q29 24 69.5 73.5t84.5 125.5t82 183t62 249t24 320q0 179 -24 321t-62 250t-82 185t-84.5 126t-69.5 73l-89 -59q28 -25 66 -72.5t79 -120.5t76 -173.5t56.5 -232.5t21.5 -297t-21.5 -296t-56.5 -231t-76 -173t-79 -120t-66 -72z" />
    <glyph glyph-name="asterisk" unicode="*" horiz-adv-x="466" 
d="M371 1229l26 40l-312 202l-26 -41zM85 1229l312 201l-26 41l-312 -202zM204 1193h48v313h-48v-313z" />
    <glyph glyph-name="plus" unicode="+" horiz-adv-x="491" 
d="M201 230h85v209h164v82h-164v210h-85v-210h-165v-82h165v-209z" />
    <glyph glyph-name="comma" unicode="," horiz-adv-x="432" 
d="M45 -190h81l167 276h-132z" />
    <glyph glyph-name="hyphen" unicode="-" horiz-adv-x="790" 
d="M72 436h610v86h-610v-86z" />
    <glyph glyph-name="period" unicode="." horiz-adv-x="322" 
d="M89 150v-150h117v150h-117z" />
    <glyph glyph-name="slash" unicode="/" horiz-adv-x="584" 
d="M13 0h106l452 1348h-106z" />
    <glyph glyph-name="zero" unicode="0" horiz-adv-x="945" 
d="M465 -13q200 0 295 82.5t95 251.5v705q0 169 -95.5 251.5t-295.5 82.5q-199 0 -294.5 -82t-95.5 -252v-705q0 -169 96 -251.5t295 -82.5zM465 76q-140 0 -203.5 62.5t-63.5 190.5v689q0 128 62.5 190t203.5 62t204 -62t63 -190v-689q0 -128 -63 -190.5t-203 -62.5z" />
    <glyph glyph-name="one" unicode="1" horiz-adv-x="882" 
d="M84 0h711v89h-294v1263h-102l-322 -70v-96l301 63v-1160h-294v-89z" />
    <glyph glyph-name="two" unicode="2" horiz-adv-x="953" 
d="M77 0h790v89h-660q0 94 73.5 196.5t248.5 228.5q155 120 247 242.5t92 293.5q0 141 -87.5 225.5t-301.5 84.5q-222 0 -313.5 -119.5t-91.5 -355.5h125q0 219 71.5 302t208.5 83q128 0 196 -50t68 -170q0 -145 -73 -247t-239 -226q-187 -126 -270.5 -251t-83.5 -248v-78z
" />
    <glyph glyph-name="three" unicode="3" horiz-adv-x="998" 
d="M493 -13q238 0 322.5 97.5t84.5 295.5q0 148 -75.5 219.5t-223.5 75.5q146 5 222.5 81t76.5 225q0 182 -86 280.5t-320 98.5q-228 0 -318 -108.5t-90 -380.5h123q0 253 71 327t214 74q147 0 215 -70.5t68 -239.5q0 -130 -70 -186t-256 -62v-82q185 -4 255.5 -56
t70.5 -185q0 -177 -66.5 -246.5t-216.5 -69.5t-217.5 71t-67.5 298h-123q0 -251 86 -354t321 -103z" />
    <glyph glyph-name="four" unicode="4" horiz-adv-x="970" 
d="M587 0h123v359h179v84h-179v907h-184l-478 -907v-84h539v-359zM175 443l409 813h3v-813h-412z" />
    <glyph glyph-name="five" unicode="5" horiz-adv-x="952" 
d="M454 -12q218 0 312.5 108.5t94.5 381.5q0 251 -83.5 350t-255.5 99q-169 0 -284.5 -86.5t-121.5 -240.5l76 -2q1 111 81 179.5t206 68.5q121 0 188.5 -71t67.5 -299q0 -246 -71 -323.5t-204 -77.5q-137 0 -202.5 73t-65.5 247h-124q0 -197 88 -302t298 -105zM68 598h123
v663h644v89h-767v-752z" />
    <glyph glyph-name="six" unicode="6" horiz-adv-x="963" 
d="M470 -12q233 0 317 118.5t84 369.5t-80 350t-262 99q-173 0 -284 -89.5t-113 -209.5l66 -34q3 104 82.5 179t208.5 75q130 0 193 -72t63 -304q0 -225 -62.5 -310t-205.5 -85q-144 0 -211.5 99t-67.5 415q0 453 77 569t214 116q128 0 181.5 -79t55.5 -191h124
q0 132 -74.5 244t-286.5 112q-230 0 -322.5 -153.5t-92.5 -604.5q0 -342 82.5 -478t313.5 -136z" />
    <glyph glyph-name="seven" unicode="7" horiz-adv-x="887" 
d="M313 0h132q1 366 92.5 667.5t300.5 593.5v89h-782v-89h648v-2q-204 -281 -297.5 -587.5t-93.5 -671.5z" />
    <glyph glyph-name="eight" unicode="8" horiz-adv-x="953" 
d="M471 -13q215 0 308.5 110t93.5 300q0 182 -98.5 267t-303.5 85q-204 0 -304 -85t-100 -267q0 -190 92 -300t312 -110zM471 75q-138 0 -209.5 77t-71.5 241q0 158 68 223t213 65q146 0 213 -65t67 -223q0 -164 -71 -241t-209 -77zM471 695q199 0 290.5 79t91.5 251
q0 151 -86.5 243t-295.5 92q-213 0 -298.5 -92t-85.5 -243q0 -173 93 -251.5t291 -78.5zM471 760q-140 0 -202.5 62.5t-62.5 204.5q0 123 66 184.5t199 61.5q132 0 197.5 -61.5t65.5 -184.5q0 -142 -61.5 -204.5t-201.5 -62.5z" />
    <glyph glyph-name="nine" unicode="9" horiz-adv-x="943" 
d="M460 -12q222 0 314.5 148t92.5 610q0 338 -82.5 476t-312.5 138q-234 0 -318 -116t-84 -365q0 -251 80 -353.5t262 -102.5q173 0 283.5 89.5t112.5 209.5l-65 34q-2 -104 -82 -177.5t-209 -73.5q-130 0 -194 71.5t-64 302.5q0 224 64.5 308.5t207.5 84.5q144 0 210 -98.5
t66 -414.5q0 -469 -76 -577t-206 -108q-136 0 -189.5 79t-55.5 197h-124q0 -133 72.5 -247.5t296.5 -114.5z" />
    <glyph glyph-name="colon" unicode=":" horiz-adv-x="330" 
d="M89 150v-150h117v150h-117zM89 1182v-150h117v150h-117z" />
    <glyph glyph-name="semicolon" unicode=";" horiz-adv-x="381" 
d="M115 1180v-150h117v150h-117zM11 -117h81l167 276h-132z" />
    <glyph glyph-name="less" unicode="&#x3c;" horiz-adv-x="698" 
d="M634 -2v121l-514 367l514 367v121l-597 -436v-104z" />
    <glyph glyph-name="equal" unicode="=" horiz-adv-x="563" 
d="M33 636h463v78h-463v-78zM33 258h463v79h-463v-79z" />
    <glyph glyph-name="greater" unicode="&#x3e;" horiz-adv-x="698" 
d="M46 -2l597 436v104l-597 436v-121l515 -367l-515 -367v-121z" />
    <glyph glyph-name="question" unicode="?" horiz-adv-x="886" 
d="M355 253h121q0 121 39 217.5t112 170.5q63 64 120.5 153.5t57.5 239.5q0 161 -83 243.5t-287 82.5q-183 0 -278.5 -86t-95.5 -307h120q0 165 64.5 237.5t191.5 72.5q138 0 192 -67t54 -186q0 -121 -48.5 -197.5t-103.5 -137.5q-79 -79 -127.5 -183t-48.5 -253zM358 145
v-150h117v150h-117z" />
    <glyph glyph-name="at" unicode="@" horiz-adv-x="1635" 
d="M731 -11q112 0 196 17t141.5 40.5t91 46.5t44.5 34l-67 61q-5 -6 -30 -26t-73 -42t-120.5 -38t-175.5 -16q-96 0 -181.5 18.5t-154.5 58t-118.5 103.5t-76.5 154t-26 209q1 168 46 291t130.5 203.5t210 119.5t284.5 39q150 0 257.5 -33t174.5 -96.5t97.5 -156.5
t29.5 -214q-1 -147 -34 -240.5t-90 -138t-130 -44.5q-42 0 -76.5 12t-53 40t-14.5 75l48 558h-67l-9 -105q-2 22 -25 50.5t-65 50t-100 21.5t-114 -27t-100 -79t-70.5 -128.5t-27.5 -177.5q0 -82 20.5 -144t55.5 -103t79.5 -61.5t91.5 -20.5q58 0 107 15t82.5 43t45.5 66
q-4 -34 9.5 -62t41 -47.5t63 -29t75.5 -9.5q55 0 108 17t99 53.5t80.5 94t54.5 138t21 185.5q1 138 -37.5 244.5t-117.5 180.5t-203.5 111.5t-294.5 37.5q-152 0 -276 -28.5t-219.5 -86.5t-160.5 -146t-99 -207t-34 -269q-1 -112 21.5 -201t64.5 -157t101.5 -116
t132.5 -78.5t158 -45t178 -14.5zM752 359q-37 0 -71.5 19t-60 54.5t-40.5 87t-14 116.5q0 80 21.5 143.5t57 107t78 66t83.5 22.5q43 0 82 -18.5t63 -53t23 -82.5l-24 -304q-9 -68 -64.5 -113t-133.5 -45z" />
    <glyph glyph-name="A" unicode="A" horiz-adv-x="1247" 
d="M67 0h130l134 402h583l134 -402h130l-464 1353h-182zM355 489l267 787h2l267 -787h-536z" />
    <glyph glyph-name="B" unicode="B" horiz-adv-x="1167" 
d="M86 0h679q160 0 216.5 107t56.5 279q0 154 -62.5 248t-162.5 100q92 6 147.5 95t55.5 220q0 125 -55 213t-226 88h-649v-1350zM210 89v602h471q128 0 180.5 -78.5t52.5 -215.5q0 -147 -42 -227.5t-138 -80.5h-524zM210 772v489h495q107 0 146 -61t39 -166
q0 -114 -48.5 -188t-167.5 -74h-464z" />
    <glyph glyph-name="C" unicode="C" horiz-adv-x="1183" 
d="M571 -9q264 0 374.5 147t110.5 390h-127q0 -226 -90 -336.5t-269 -110.5q-183 0 -282 120.5t-99 475.5t98.5 474.5t282.5 119.5q179 0 269 -107.5t90 -337.5h127q0 247 -110.5 391t-375.5 144q-267 0 -387 -155.5t-120 -528.5q0 -372 120 -529t388 -157z" />
    <glyph glyph-name="D" unicode="D" horiz-adv-x="1137" 
d="M86 0h494q239 0 349 143.5t110 531.5q0 389 -109.5 532t-349.5 143h-494v-1350zM210 89v1172h337q184 0 276 -113.5t92 -472.5q0 -358 -92 -472t-276 -114h-337z" />
    <glyph glyph-name="E" unicode="E" horiz-adv-x="1044" 
d="M87 0h840v89h-715v562h676v86h-676v524h715v89h-840v-1350z" />
    <glyph glyph-name="F" unicode="F" horiz-adv-x="979" 
d="M96 0h125v602h623v86h-623v573h677v89h-802v-1350z" />
    <glyph glyph-name="G" unicode="G" horiz-adv-x="1205" 
d="M569 -8q341 3 405 234l13 -226h75v628h-460v-80h330l-1 -130q-2 -169 -87 -253t-265 -84q-190 0 -283.5 127t-93.5 467q0 354 93.5 475.5t284.5 121.5q186 0 270 -110.5t87 -319.5h125q-3 227 -111.5 373t-370.5 146q-273 0 -388.5 -156.5t-115.5 -526.5
q0 -367 114.5 -526.5t378.5 -159.5z" />
    <glyph glyph-name="H" unicode="H" horiz-adv-x="1148" 
d="M86 0h124v659h670v-659h124v1350h-124v-602h-670v602h-124v-1350z" />
    <glyph glyph-name="I" unicode="I" horiz-adv-x="470" 
d="M149 0h123v1350h-123v-1350z" />
    <glyph glyph-name="J" unicode="J" horiz-adv-x="1109" 
d="M511 -12q221 0 329 98.5t108 309.5v954h-124v-938q0 -177 -74.5 -256t-239.5 -79t-239.5 76.5t-74.5 245.5v211h-124v-225q0 -208 108 -302.5t331 -94.5z" />
    <glyph glyph-name="K" unicode="K" horiz-adv-x="1027" 
d="M86 0h124v640l601 -640h146l-631 674l627 676h-146l-597 -642v642h-124v-1350z" />
    <glyph glyph-name="L" unicode="L" horiz-adv-x="925" 
d="M86 0h742v89h-618v1261h-124v-1350z" />
    <glyph glyph-name="M" unicode="M" horiz-adv-x="1464" 
d="M86 0h123v1262h5l412 -1167h155l412 1167h5v-1262h123v1350h-207l-408 -1165h-5l-408 1165h-207v-1350z" />
    <glyph glyph-name="N" unicode="N" horiz-adv-x="1262" 
d="M86 0h124v1257h4l705 -1257h199v1350h-124l-1 -1251h-3l-703 1251h-201v-1350z" />
    <glyph glyph-name="O" unicode="O" horiz-adv-x="1250" 
d="M614 -9q263 0 401 159t138 525t-138 526t-401 160t-400.5 -159.5t-137.5 -526.5q0 -366 138 -525t400 -159zM614 80q-182 0 -298 124t-116 471q0 348 116 472t298 124q183 0 298.5 -124t115.5 -472q0 -347 -115.5 -471t-298.5 -124z" />
    <glyph glyph-name="P" unicode="P" horiz-adv-x="1072" 
d="M86 0h124v414h400q207 0 283.5 132.5t76.5 336.5q0 203 -76.5 335t-283.5 132h-524v-1350zM210 504v757h362q152 0 212.5 -101.5t60.5 -277.5q0 -177 -60 -277.5t-213 -100.5h-362z" />
    <glyph glyph-name="Q" unicode="Q" horiz-adv-x="1264" 
d="M1061 -188l91 51l-202 271l-92 -47zM614 -9q271 0 405 154t134 530q0 375 -134 530.5t-405 155.5t-404.5 -155t-133.5 -531t134 -530t404 -154zM614 80q-190 0 -302 122t-112 473q0 352 112 474t302 122t302 -122t112 -474q0 -351 -112 -473t-302 -122z" />
    <glyph glyph-name="R" unicode="R" horiz-adv-x="1096" 
d="M86 0h125v608h462q182 0 247.5 106.5t65.5 261.5q0 157 -64 265.5t-245 108.5h-591v-1350zM855 0h136l-268 654l-126 -12zM211 690v571h430q125 0 172 -79t47 -207q0 -127 -46.5 -206t-172.5 -79h-430z" />
    <glyph glyph-name="S" unicode="S" horiz-adv-x="1138" 
d="M546 -9q260 0 369 103.5t109 254.5q0 172 -105.5 242.5t-337.5 133.5q-188 49 -290 109.5t-102 191.5q0 105 89.5 175.5t265.5 70.5t265 -81.5t89 -336.5h126q0 274 -107 390.5t-372 116.5q-257 0 -367.5 -101.5t-110.5 -246.5q0 -165 105.5 -240t332.5 -136
q190 -50 293 -107t103 -196q0 -114 -89.5 -184t-266.5 -70q-179 0 -266.5 83t-87.5 346h-125q0 -289 106 -403.5t374 -114.5z" />
    <glyph glyph-name="T" unicode="T" horiz-adv-x="1108" 
d="M488 0h124v1261h420v89h-965v-89h421v-1261z" />
    <glyph glyph-name="U" unicode="U" horiz-adv-x="1219" 
d="M592 -9q234 0 359 95t125 319v944h-124v-925q0 -187 -91.5 -265t-268.5 -78t-268.5 78t-91.5 265v925h-124v-944q0 -224 125 -319t359 -95z" />
    <glyph glyph-name="V" unicode="V" horiz-adv-x="1159" 
d="M479 0h172l423 1350h-127l-381 -1258h-2l-380 1258h-127z" />
    <glyph glyph-name="W" unicode="W" horiz-adv-x="1698" 
d="M342 0h192l300 1261h3l300 -1261h192l277 1350h-135l-243 -1255h-3l-305 1255h-169l-304 -1255h-4l-241 1255h-134z" />
    <glyph glyph-name="X" unicode="X" horiz-adv-x="1157" 
d="M42 0h145l373 616l371 -616h146l-421 668l408 682h-145l-359 -629l-360 629h-145l407 -682z" />
    <glyph glyph-name="Y" unicode="Y" horiz-adv-x="1174" 
d="M513 0h124v547l461 803h-136l-386 -695h-1l-386 695h-137l461 -802v-548z" />
    <glyph glyph-name="Z" unicode="Z" horiz-adv-x="1052" 
d="M72 0h871v90h-732l696 1170v90h-826v-89h687l-696 -1167v-94z" />
    <glyph glyph-name="bracketleft" unicode="[" horiz-adv-x="503" 
d="M67 -303h344v87h-240v1563h240v87h-344v-1737z" />
    <glyph glyph-name="backslash" unicode="\" horiz-adv-x="555" 
d="M402 0h112l-363 1348h-111z" />
    <glyph glyph-name="bracketright" unicode="]" horiz-adv-x="504" 
d="M66 -303h343v1737h-343v-87h239v-1563h-239v-87z" />
    <glyph glyph-name="asciicircum" unicode="^" horiz-adv-x="674" 
d="M76 1243h89l210 203h-85zM519 1245h88l-213 201h-85z" />
    <glyph glyph-name="underscore" unicode="_" horiz-adv-x="1129" 
d="M-1 -127h1132v85h-1132v-85z" />
    <glyph glyph-name="grave" unicode="`" horiz-adv-x="567" 
d="M291 1219h71l-135 142h-99z" />
    <glyph glyph-name="a" unicode="a" horiz-adv-x="1097" 
d="M459 -9q92 0 161.5 16.5t119 43t79 55t40.5 53.5l9 -159h105v763q0 155 -52.5 250t-151 139t-239.5 44q-88 0 -163 -20.5t-132 -65t-94.5 -115.5t-50.5 -173l122 -30q13 113 55 182.5t109 101.5t154 32q99 0 170 -35t110 -110t39 -196v-79h-395q-82 0 -150.5 -16
t-119 -54.5t-77.5 -105t-27 -169.5q0 -106 27.5 -174.5t78.5 -107.5t120.5 -54.5t152.5 -15.5zM484 75q-57 0 -107.5 11.5t-89.5 41t-60.5 82.5t-21.5 137q0 82 22.5 135t61 81t88.5 39.5t105 11.5h365v-367q-16 -40 -62 -80t-121.5 -66t-179.5 -26z" />
    <glyph glyph-name="b" unicode="b" horiz-adv-x="1121" 
d="M110 0h113l10 199v1371h-123v-1570zM612 -8q197 0 300 145.5t103 456.5q0 313 -103 458t-300 145q-183 0 -307 -97.5t-124 -194.5l52 -83q0 106 100 195.5t240 89.5q146 0 231.5 -113t85.5 -400q0 -288 -85.5 -400.5t-231.5 -112.5q-140 0 -240 90t-100 197l-52 -85
q0 -97 124 -194t307 -97z" />
    <glyph glyph-name="c" unicode="c" horiz-adv-x="1079" 
d="M529 -9q223 0 324 136.5t107 279.5l-112 35q-2 -135 -84 -248.5t-235 -113.5q-156 0 -251 126t-95 386q0 281 94 397.5t252 116.5q154 0 235.5 -104t83.5 -261l112 34q-6 164 -106.5 292t-324.5 128q-238 0 -354.5 -145.5t-116.5 -457.5q0 -292 116.5 -446.5
t354.5 -154.5z" />
    <glyph glyph-name="d" unicode="d" horiz-adv-x="1093" 
d="M860 0h115v1570h-123v-1364zM477 -8q183 0 305 97t122 194l-52 85q0 -107 -98 -197t-238 -90q-146 0 -233 111t-87 402t87 402t233 111q140 0 238 -89.5t98 -195.5l52 83q0 97 -122 194.5t-305 97.5q-197 0 -301.5 -143t-104.5 -460q0 -315 104.5 -458.5t301.5 -143.5z
" />
    <glyph glyph-name="e" unicode="e" horiz-adv-x="1118" 
d="M541 -9v85q-165 0 -256 129q-91 127 -91 391q0 285 96 400q95 115 251 115q160 0 250 -111q82 -107 88 -363h-702v-81h824q2 22 2 44q0 307 -111 452q-112 144 -351 144q-232 0 -349 -145q-118 -146 -118 -454q0 -288 114 -447q113 -159 353 -159zM541 76v-85
q135 0 230 42q94 41 149 135q54 93 68 218l-113 27q-13 -101 -51 -185q-40 -83 -114 -118q-74 -34 -169 -34z" />
    <glyph glyph-name="f" unicode="f" horiz-adv-x="862" 
d="M275 0h123v1096h350v88h-350v94q0 130 95 171.5t244 41.5h29v86h-31q-200 0 -330 -64.5t-130 -233.5v-95h-241v-88h241v-1096z" />
    <glyph glyph-name="g" unicode="g" horiz-adv-x="1113" 
d="M526 -462q136 0 233 44t157 149t60 286v1167h-94l-30 -247v-930q0 -219 -87.5 -302.5t-234.5 -83.5q-90 0 -158.5 29.5t-107 93t-47.5 172.5h-122q13 -208 130.5 -293t300.5 -85zM479 -8q182 0 304.5 95t122.5 196l-54 85q0 -107 -98 -197t-238 -90q-146 0 -233 111
t-87 402t87 402t233 111q140 0 238 -89.5t98 -195.5l52 81q0 97 -122 195.5t-305 98.5q-197 0 -301.5 -143t-104.5 -460q0 -315 105.5 -458.5t302.5 -143.5z" />
    <glyph glyph-name="h" unicode="h" horiz-adv-x="1081" 
d="M110 0h123v1570h-123v-1570zM837 0h123v708q0 236 -88 362.5t-280 126.5q-187 0 -303 -115t-116 -254l58 -55q0 142 91 238.5t229 96.5q140 0 213 -95.5t73 -307.5v-705z" />
    <glyph glyph-name="i" unicode="i" horiz-adv-x="434" 
d="M141 0h124v1186h-124v-1186zM141 1490v-145h124v145h-124z" />
    <glyph glyph-name="j" unicode="j" horiz-adv-x="445" 
d="M-128 -459q197 0 300.5 87t103.5 315v1243h-123v-1247q0 -174 -73 -241.5t-208 -67.5v-89zM153 1490v-145h123v145h-123z" />
    <glyph glyph-name="k" unicode="k" horiz-adv-x="1034" 
d="M443 680l380 -680h137l-432 769zM110 0h123v464l220 213l73 71l417 438h-147l-563 -579v963h-123v-1570z" />
    <glyph glyph-name="l" unicode="l" horiz-adv-x="400" 
d="M134 0h123v1570h-123v-1570z" />
    <glyph glyph-name="m" unicode="m" horiz-adv-x="1630" 
d="M110 0h123v976l-24 208h-99v-1184zM749 0h123v744q0 201 -69 326.5t-253 125.5q-165 0 -274 -120t-109 -297l65 -42q0 168 77.5 268.5t203.5 100.5q127 0 181.5 -94t54.5 -274v-738zM1386 0h123v744q0 201 -68.5 326.5t-251.5 125.5q-165 0 -274.5 -121t-109.5 -296
l66 -42q0 168 77.5 268.5t202.5 100.5q127 0 181 -94t54 -274v-738z" />
    <glyph glyph-name="n" unicode="n" horiz-adv-x="1080" 
d="M110 0h123v938l-25 246h-98v-1184zM835 0h123v704q0 237 -84 365t-276 128q-187 0 -307 -115t-120 -254l58 -55q0 142 95 238.5t233 96.5q140 0 209 -95.5t69 -307.5v-705z" />
    <glyph glyph-name="o" unicode="o" horiz-adv-x="1123" 
d="M544 -8q230 0 351.5 142.5t121.5 459.5q0 319 -121.5 461t-351.5 142t-351.5 -142t-121.5 -461q0 -317 121.5 -459.5t351.5 -142.5zM544 80q-152 0 -251 111t-99 403t99 403.5t251 111.5t250.5 -111.5t98.5 -403.5t-98.5 -403t-250.5 -111z" />
    <glyph glyph-name="p" unicode="p" horiz-adv-x="1121" 
d="M110 -441h123v1415l-25 210h-98v-1625zM612 -8q197 0 300 145.5t103 456.5q0 313 -103 458t-300 145q-183 0 -307 -97.5t-124 -194.5l52 -83q0 106 100 195.5t240 89.5q146 0 231.5 -113t85.5 -400q0 -288 -85.5 -400.5t-231.5 -112.5q-140 0 -240 90t-100 197l-52 -85
q0 -97 124 -194t307 -97z" />
    <glyph glyph-name="q" unicode="q" horiz-adv-x="1111" 
d="M851 -441h123v1625h-99l-24 -218v-1407zM477 -8q183 0 305 97t122 194l-52 85q0 -107 -98 -197t-238 -90q-146 0 -233 111t-87 402t87 402t233 111q140 0 238 -89.5t98 -195.5l52 83q0 97 -122 194.5t-305 97.5q-197 0 -301.5 -143t-104.5 -460q0 -315 104.5 -458.5
t301.5 -143.5z" />
    <glyph glyph-name="r" unicode="r" horiz-adv-x="1033" 
d="M788 651h124q0 287 -75.5 415.5t-258.5 128.5t-288.5 -102.5t-105.5 -246.5l48 -44q0 117 80.5 210.5t223.5 93.5q127 0 189.5 -99.5t62.5 -355.5zM110 0h123v941l-25 243h-98v-1184z" />
    <glyph glyph-name="s" unicode="s" horiz-adv-x="1077" 
d="M538 -8q215 0 322.5 78t107.5 222q0 175 -115.5 241t-285.5 108q-153 40 -252.5 87.5t-99.5 167.5q0 98 73.5 156t224.5 58q154 0 237.5 -76t97.5 -232l111 34q-20 192 -130.5 275.5t-314.5 83.5q-203 0 -312.5 -79t-109.5 -220q0 -163 108 -230.5t277 -111.5
q157 -41 262.5 -89t105.5 -181q0 -91 -75 -149t-230 -58q-156 0 -244 73.5t-102 251.5l-111 -34q22 -214 137.5 -295t317.5 -81z" />
    <glyph glyph-name="t" unicode="t" horiz-adv-x="926" 
d="M576 -12q95 0 181 23v86q-68 -21 -141 -21q-87 0 -134.5 38.5t-47.5 155.5v825h408v89h-408v267h-123v-267h-282v-89h282v-857q0 -146 75 -198t190 -52z" />
    <glyph glyph-name="u" unicode="u" horiz-adv-x="1086" 
d="M850 0h98v1184h-123v-977zM220 1186h-123v-708q0 -235 83.5 -362t276.5 -127q192 0 310.5 115.5t118.5 253.5l-60 54q0 -142 -95 -238t-234 -96q-140 0 -208.5 95.5t-68.5 307.5v705z" />
    <glyph glyph-name="v" unicode="v" horiz-adv-x="1051" 
d="M433 0h170l378 1186h-129l-332 -1096h-2l-332 1096h-130z" />
    <glyph glyph-name="w" unicode="w" horiz-adv-x="1489" 
d="M317 0h173l247 1062l250 -1062h172l240 1184h-128l-200 -1097h-2l-266 1097h-131l-262 -1098h-2l-207 1098h-128z" />
    <glyph glyph-name="x" unicode="x" horiz-adv-x="1057" 
d="M30 0h141l344 540l346 -540h142l-395 592l382 592h-141l-329 -538l-332 538h-142l380 -592z" />
    <glyph glyph-name="y" unicode="y" horiz-adv-x="989" 
d="M393 0h188l350 1184h-130l-313 -1094h-2l-316 1094h-129zM66 -459q186 0 311 93t204 366h-116q-64 -222 -157.5 -296.5t-241.5 -74.5v-88z" />
    <glyph glyph-name="z" unicode="z" horiz-adv-x="919" 
d="M70 0h750v89h-604v4l592 998v93h-729v-88h588v-2l-597 -1002v-92z" />
    <glyph glyph-name="braceleft" unicode="{" horiz-adv-x="578" 
d="M475 -304v86q-20 0 -49 9t-56 32.5t-45 66t-18 108.5v320q0 57 -12.5 95t-33 62t-43.5 37.5t-43 19.5t-32 9q12 4 32 10t43 19.5t43.5 37t33 62t12.5 93.5v336q0 67 18 109t45 65.5t56 32.5t49 9v86q-26 0 -61.5 -7t-72 -24t-68 -49t-50.5 -83t-19 -125v-332
q0 -72 -26 -115.5t-63 -62t-72 -18.5v-90q35 0 72 -18t63 -61t26 -115v-317q0 -73 19 -123.5t50 -82.5t67.5 -50t72 -25t62.5 -7z" />
    <glyph glyph-name="bar" unicode="|" horiz-adv-x="271" 
d="M70 -226h104v1648h-104v-1648z" />
    <glyph glyph-name="braceright" unicode="}" horiz-adv-x="565" 
d="M64 -304q28 0 63 7t72 25t68 50t50 82.5t19 123.5v317q0 72 25.5 115t63 61t72.5 18v90q-35 0 -72.5 18.5t-63 62t-25.5 115.5v332q0 74 -19.5 125t-50.5 83t-68 49t-72 24t-62 7v-86q22 0 50 -9t55 -32.5t45 -65.5t18 -109v-336q0 -55 13.5 -93.5t34 -62t43 -37
t42.5 -19.5t31 -10q-11 -3 -31 -9t-42.5 -19.5t-43 -37.5t-34 -62t-13.5 -95v-320q0 -66 -18 -108.5t-45 -66t-55 -32.5t-50 -9v-86z" />
    <glyph glyph-name="asciitilde" unicode="~" horiz-adv-x="709" 
d="M506 610q42 0 72 10t49.5 23.5t25.5 21.5l-66 66q-7 -7 -25 -19.5t-66 -12.5q-43 0 -74 11.5t-58.5 26t-59 26t-78.5 11.5q-44 0 -82.5 -13t-65.5 -30t-40 -30l67 -64q15 15 49.5 33t79.5 18q39 0 68.5 -11.5t57 -27t62 -27.5t84.5 -12z" />
    <glyph glyph-name="uni00A0" unicode="&#xa0;" horiz-adv-x="491" 
 />
    <glyph glyph-name="exclamdown" unicode="&#xa1;" horiz-adv-x="309" 
d="M99 922l-11 -1093h141l-10 1093h-120zM95 1031h123v153h-123v-153z" />
    <glyph glyph-name="cent" unicode="&#xa2;" horiz-adv-x="1067" 
d="M487 1250h89v130h-89v-130zM487 -30h89v132h-89v-132zM546 71q223 0 323.5 136.5t106.5 279.5l-112 35q-2 -135 -83.5 -248.5t-234.5 -113.5q-156 0 -251 126t-95 386q0 281 93.5 397.5t252.5 116.5q154 0 235 -104.5t83 -260.5l112 33q-6 165 -106.5 293t-323.5 128
q-238 0 -355 -145.5t-117 -457.5q0 -292 117 -446.5t355 -154.5z" />
    <glyph glyph-name="sterling" unicode="&#xa3;" horiz-adv-x="1038" 
d="M208 -22l-51 78q8 7 29.5 25.5t45 51.5t39.5 82t16 116q0 89 -13 159t-31.5 130.5t-38 119t-32.5 122.5t-13 142q0 81 25.5 146.5t74.5 113.5t120 74t163 26q79 0 140 -15t105.5 -41.5t75 -61t50.5 -72.5l-101 -41q-19 41 -53 74t-86 52t-130 19q-79 0 -138 -34
t-91.5 -97t-32.5 -151q0 -71 12 -131.5t30 -118t35.5 -118.5t29.5 -132t12 -161q0 -86 -27 -151t-61 -103q25 8 65 13t79 5q46 0 81.5 -4.5t65.5 -11.5t59.5 -12t62.5 -6q56 1 95 6t56 12l37 -84q-12 -5 -40.5 -9t-67.5 -7t-83 -3q-39 1 -71.5 6t-64.5 12.5t-69.5 13
t-87.5 4.5q-96 0 -150 -13t-71 -25zM64 628v77h630v-77h-630z" />
    <glyph glyph-name="currency" unicode="&#xa4;" horiz-adv-x="969" 
d="M467 190q240 0 332 117t92 329q0 211 -92 329.5t-332 118.5q-239 0 -331 -118t-92 -329q0 -212 92 -329.5t331 -117.5zM99 124l151 152l-59 50l-152 -151zM834 124l60 51l-151 151l-60 -50zM467 269q-158 0 -229 90t-71 278q0 187 71 278t229 91q159 0 229.5 -91
t70.5 -278q0 -188 -70.5 -278t-229.5 -90zM191 948l59 51l-151 151l-60 -50zM743 948l151 152l-60 50l-151 -151z" />
    <glyph glyph-name="yen" unicode="&#xa5;" horiz-adv-x="1174" 
d="M233 482h686v73h-686v-73zM233 274h686v73h-686v-73zM513 0h124v547l461 803h-136l-386 -695h-1l-386 695h-137l461 -802v-548z" />
    <glyph glyph-name="brokenbar" unicode="&#xa6;" horiz-adv-x="270" 
d="M69 -156h104v660h-104v-660zM69 764h104v658h-104v-658z" />
    <glyph glyph-name="section" unicode="&#xa7;" horiz-adv-x="1080" 
d="M532 -278q58 0 112.5 9.5t102.5 29t84.5 51t57.5 74t22 96.5q2 40 -11 72.5t-33.5 59t-43 47t-40.5 32.5q13 9 38 23.5t54.5 37.5t56.5 55t44 74.5t17 96.5q0 64 -31 115.5t-83.5 93t-118.5 74.5t-136 59q-73 36 -140.5 66t-121 60.5t-85.5 67t-33 83.5q-1 62 36 103.5
t101 63t146 21.5q78 0 139 -21.5t95.5 -69t34.5 -125.5v-77h106v80q0 70 -27 123.5t-77.5 89.5t-119 54.5t-151.5 18.5q-79 0 -148 -17t-122.5 -49t-83.5 -79.5t-31 -109.5q-1 -37 12.5 -67.5t34 -55t42.5 -43.5t39 -34q-26 -14 -61 -38t-69 -59t-57 -83.5t-23 -112.5
q0 -60 27 -108.5t73.5 -87t106 -70.5t124.5 -60q86 -38 161 -71t132.5 -65.5t90.5 -72.5t33 -92q2 -69 -33.5 -110.5t-99.5 -60.5t-144 -19q-75 0 -137 22t-99 69t-37 125v77h-106v-80q0 -72 27.5 -126t78.5 -89.5t120.5 -53t153.5 -17.5zM717 231q-72 35 -149.5 67.5
t-147.5 72.5q-73 28 -132 63.5t-93 81.5t-35 107q0 50 18 90.5t45.5 71t57.5 51.5t53 32q63 -35 129.5 -65t129.5 -66q61 -23 116.5 -49.5t97 -59t65.5 -70t24 -84.5q0 -51 -19.5 -91t-48 -70.5t-59 -50.5t-52.5 -31z" />
    <glyph glyph-name="dieresis" unicode="&#xa8;" horiz-adv-x="746" 
d="M223 1230q23 0 39.5 16.5t16.5 39.5q0 25 -16.5 41t-39.5 16q-25 0 -41 -16t-16 -41q0 -23 16 -39.5t41 -16.5zM481 1230q24 0 40.5 16.5t16.5 39.5q0 25 -16.5 41t-40.5 16q-23 0 -39.5 -16t-16.5 -41q0 -23 16 -39.5t40 -16.5z" />
    <glyph glyph-name="copyright" unicode="&#xa9;" horiz-adv-x="1132" 
d="M551 -16q129 0 223 38t156.5 105.5t92.5 159t30 198.5v375q0 108 -30 199t-92 159t-156.5 105.5t-223.5 37.5q-127 0 -221 -37.5t-156 -105t-92.5 -158.5t-30.5 -200v-375q0 -107 30.5 -198.5t92.5 -159t156 -105.5t221 -38zM551 50q-89 0 -158 22t-119 61t-82 94
t-47 122t-15 143v361q0 74 15 140.5t46.5 121.5t81 95.5t119 62.5t159.5 22q92 0 161.5 -21.5t119 -62t81 -95.5t46.5 -122t15 -141v-363q0 -74 -14.5 -140t-46 -121t-81 -95t-119 -62t-162.5 -22zM550 246q79 0 133 20t86.5 55t47.5 82t15 100v54h-75v-43q0 -24 -3 -52
t-14 -55t-33.5 -48.5t-60.5 -35t-97 -13.5q-68 0 -109 20t-62 52.5t-28 72t-7 79.5v271q0 41 7.5 81t28.5 73t62 52t109 19q59 0 97.5 -11.5t60.5 -31.5t33 -45t13.5 -52t2.5 -53v-45h75v53q0 54 -14.5 99.5t-47.5 79.5t-86.5 52t-133.5 18q-75 0 -128 -20.5t-87 -58.5
t-50 -90t-16 -114v-288q0 -60 16 -110t49.5 -87.5t87 -58.5t128.5 -21z" />
    <glyph glyph-name="ordfeminine" unicode="&#xaa;" horiz-adv-x="710" 
d="M515 831h71v294q0 118 -54 178t-197 60q-133 0 -187.5 -51t-56.5 -134l54 -19q0 70 44 111t142 41q101 0 140.5 -44.5t39.5 -139.5v-264zM305 826q119 0 183.5 40t64.5 96l-42 13q0 -43 -48 -70.5t-143 -27.5q-91 0 -128.5 23t-37.5 72q0 43 35 73t136 33q106 3 202 3v46
q-113 0 -216 -3q-134 -6 -182.5 -49t-48.5 -105q0 -72 51.5 -108t173.5 -36z" />
    <glyph glyph-name="guillemotleft" unicode="&#xab;" horiz-adv-x="952" 
d="M476 80h131l-431 414l431 414h-131l-428 -414zM759 80h131l-432 414l432 414h-131l-428 -414z" />
    <glyph glyph-name="logicalnot" unicode="&#xac;" horiz-adv-x="816" 
d="M663 260h84v264h-677v-81h593v-183z" />
    <glyph glyph-name="uni00AD" unicode="&#xad;" horiz-adv-x="541" 
d="M72 436h392v86h-392v-86z" />
    <glyph glyph-name="registered" unicode="&#xae;" horiz-adv-x="961" 
d="M465 521q99 0 177 24t133.5 72.5t84.5 122t29 173.5l1 163q1 101 -28.5 175t-85 122t-133.5 71.5t-177 23.5q-78 0 -144 -15t-117.5 -46.5t-87.5 -78.5t-54 -110t-19 -142l-1 -163q0 -78 18.5 -141t54 -110t87.5 -78t118.5 -47t143.5 -16zM465 585q-78 0 -142.5 16.5
t-111 54.5t-71 102.5t-24.5 159.5l1 151q1 77 17 133.5t46 95.5t73 62.5t97 34t116 10.5q64 0 118 -10.5t97 -34.5t73.5 -63t47 -95.5t15.5 -133.5l-1 -150q0 -76 -16 -131.5t-46.5 -94t-73.5 -62.5t-97 -34.5t-118 -10.5zM297 696h67v266h152l86 -266h70l-94 271
q42 8 60.5 45t18.5 87v71q0 45 -12 74t-40.5 43.5t-76.5 14.5h-231v-606zM364 1015v231h147q55 0 67 -21t12 -67v-46q0 -61 -18.5 -79t-48.5 -18h-159z" />
    <glyph glyph-name="macron" unicode="&#xaf;" horiz-adv-x="897" 
d="M152 1304h535v53h-535v-53z" />
    <glyph glyph-name="degree" unicode="&#xb0;" horiz-adv-x="256" 
d="M122 1196q40 0 66.5 28t26.5 67q0 38 -26.5 65t-66.5 27q-37 0 -64 -27t-27 -65q0 -39 27 -67t64 -28zM122 1243q-19 0 -32.5 14t-13.5 34q0 19 13.5 32.5t32.5 13.5t33.5 -13.5t14.5 -32.5q0 -20 -14.5 -34t-33.5 -14z" />
    <glyph glyph-name="plusminus" unicode="&#xb1;" horiz-adv-x="496" 
d="M201 420h85v209h164v82h-164v209h-85v-209h-165v-82h165v-209zM64 181h346v81h-346v-81z" />
    <glyph glyph-name="uni00B2" unicode="&#xb2;" horiz-adv-x="644" 
d="M54 750h529v54h-457q0 37 49.5 78t177.5 96q107 53 169 106.5t62 130.5q0 64 -60.5 105.5t-200.5 41.5q-145 0 -207.5 -56t-62.5 -158h68q0 89 51.5 124.5t150.5 35.5q93 0 143 -20.5t50 -73.5q0 -58 -53 -101t-166 -95q-128 -55 -185.5 -109.5t-57.5 -112.5v-46z" />
    <glyph glyph-name="uni00B3" unicode="&#xb3;" horiz-adv-x="679" 
d="M336 745q157 0 215 45.5t58 132.5q0 63 -44 96t-147 35q102 2 146.5 37t44.5 100q0 80 -59 125.5t-214 45.5q-151 0 -212.5 -51.5t-61.5 -168.5h68q0 103 51 135t155 32q106 0 155 -30t49 -99q0 -55 -50.5 -77.5t-182.5 -25.5v-48q131 -2 182 -23.5t51 -75.5
q0 -73 -48 -103t-156 -30q-110 0 -158 31t-48 124h-68q0 -109 58.5 -158t215.5 -49z" />
    <glyph glyph-name="acute" unicode="&#xb4;" horiz-adv-x="566" 
d="M150 1219h72l163 142h-99z" />
    <glyph glyph-name="uni00B5" unicode="&#xb5;" horiz-adv-x="1080" 
d="M97 -441h123v725l-123 902v-1627zM850 0h98v1184h-123v-977zM220 1186h-123v-708q0 -235 83.5 -362t276.5 -127q192 0 310.5 115.5t118.5 253.5l-60 54q0 -142 -95 -238t-234 -96q-140 0 -208.5 95.5t-68.5 307.5v705z" />
    <glyph glyph-name="paragraph" unicode="&#xb6;" horiz-adv-x="942" 
d="M438 -156h85v1419h263v-1419h85v1506h-454q-125 0 -209 -37t-126.5 -115t-42.5 -198q0 -128 48 -205.5t133.5 -113t196.5 -35.5h21v-802z" />
    <glyph glyph-name="periodcentered" unicode="&#xb7;" horiz-adv-x="328" 
d="M94 768v-150h117v150h-117z" />
    <glyph glyph-name="cedilla" unicode="&#xb8;" horiz-adv-x="709" 
d="M343 -263q38 0 72.5 7t61.5 22t42.5 37.5t15.5 53.5q0 44 -30.5 63.5t-75.5 19.5q-36 0 -69.5 -10t-51.5 -24l-2 -31q22 10 46.5 17t46.5 7q25 0 41 -10t16 -32q0 -30 -28 -44.5t-84 -14.5q-31 0 -58 3.5t-48 8.5l-20 -59q27 -5 59 -9.5t66 -4.5zM306 -125l42 125h-57
l-35 -114z" />
    <glyph glyph-name="uni00B9" unicode="&#xb9;" horiz-adv-x="596" 
d="M60 750h473v54h-202v554h-56l-220 -35v-56l208 31v-494h-203v-54z" />
    <glyph glyph-name="ordmasculine" unicode="&#xba;" horiz-adv-x="669" 
d="M331 826q151 0 223 52t72 174v85q0 124 -72 175.5t-223 51.5q-150 0 -222.5 -51.5t-72.5 -175.5v-85q0 -122 72.5 -174t222.5 -52zM331 883q-109 0 -160 38t-51 131v84q0 95 51 133t160 38t160.5 -38t51.5 -133v-84q0 -93 -51.5 -131t-160.5 -38z" />
    <glyph glyph-name="guillemotright" unicode="&#xbb;" horiz-adv-x="952" 
d="M327 80h132l427 414l-427 414h-132l431 -414zM44 80h131l429 414l-429 414h-131l432 -414z" />
    <glyph glyph-name="onequarter" unicode="&#xbc;" horiz-adv-x="1680" 
d="M60 750h473v54h-202v554h-56l-220 -35v-56l208 31v-494h-203v-54zM355 0h77l831 1348h-76zM1428 0h67v156h128v51h-128v401h-104l-335 -401v-51h372v-156zM1139 207l284 350h5v-350h-289z" />
    <glyph glyph-name="onehalf" unicode="&#xbd;" horiz-adv-x="1665" 
d="M60 750h473v54h-202v554h-56l-220 -35v-56l208 31v-494h-203v-54zM355 0h77l831 1348h-76zM1076 0h529v54h-457q0 37 49.5 78t177.5 96q107 53 169 106.5t62 130.5q0 64 -60.5 105.5t-200.5 41.5q-145 0 -207.5 -56t-62.5 -158h68q0 89 51.5 124.5t150.5 35.5
q93 0 143 -20.5t50 -73.5q0 -58 -53 -101t-166 -95q-128 -55 -185.5 -109.5t-57.5 -112.5v-46z" />
    <glyph glyph-name="threequarters" unicode="&#xbe;" horiz-adv-x="1763" 
d="M336 745q157 0 215 45.5t58 132.5q0 63 -44 96t-147 35q102 2 146.5 37t44.5 100q0 80 -59 125.5t-214 45.5q-151 0 -212.5 -51.5t-61.5 -168.5h68q0 103 51 135t155 32q106 0 155 -30t49 -99q0 -55 -50.5 -77.5t-182.5 -25.5v-48q131 -2 182 -23.5t51 -75.5
q0 -73 -48 -103t-156 -30q-110 0 -158 31t-48 124h-68q0 -109 58.5 -158t215.5 -49zM438 0h77l831 1348h-76zM1511 0h67v156h128v51h-128v401h-104l-335 -401v-51h372v-156zM1222 207l284 350h5v-350h-289z" />
    <glyph glyph-name="questiondown" unicode="&#xbf;" horiz-adv-x="855" 
d="M503 928h-121q-1 -120 -40 -216.5t-112 -170.5q-61 -63 -119 -153.5t-58 -239.5q0 -162 83 -244.5t287 -82.5q182 0 278 86.5t96 306.5h-121q0 -165 -64 -237.5t-191 -72.5q-139 0 -192.5 67t-53.5 186q0 122 49 199t102 136q81 81 129 184t48 252zM500 1037v149h-117
v-149h117z" />
    <glyph glyph-name="Agrave" unicode="&#xc0;" horiz-adv-x="1247" 
d="M67 0h130l134 402h583l134 -402h130l-464 1353h-182zM355 489l267 787h2l267 -787h-536zM667 1409h71l-135 142h-99z" />
    <glyph glyph-name="Aacute" unicode="&#xc1;" horiz-adv-x="1247" 
d="M67 0h130l134 402h583l134 -402h130l-464 1353h-182zM355 489l267 787h2l267 -787h-536zM504 1392h72l163 142h-99z" />
    <glyph glyph-name="Acircumflex" unicode="&#xc2;" horiz-adv-x="1247" 
d="M67 0h130l134 402h583l134 -402h130l-464 1353h-182zM355 489l267 787h2l267 -787h-536zM387 1400h85l150 122l150 -122h83l-191 159h-86z" />
    <glyph glyph-name="Atilde" unicode="&#xc3;" horiz-adv-x="1247" 
d="M67 0h130l134 402h583l134 -402h130l-464 1353h-182zM355 489l267 787h2l267 -787h-536zM721 1439q33 0 55.5 8t37.5 20.5t24 27t13.5 28.5t3.5 24h-67q-1 -10 -9 -22.5t-24 -21t-39 -8.5q-31 0 -52 9t-39 22t-39.5 22t-55.5 9q-30 0 -53.5 -7t-39 -19t-25 -26.5
t-14.5 -28.5t-7 -25h68q2 10 10 22.5t25 20.5t41 8q26 0 45 -9.5t37.5 -22t42.5 -22t61 -9.5z" />
    <glyph glyph-name="Adieresis" unicode="&#xc4;" horiz-adv-x="1247" 
d="M67 0h130l134 402h583l134 -402h130l-464 1353h-182zM355 489l267 787h2l267 -787h-536zM492 1422q23 0 39.5 16.5t16.5 39.5q0 25 -16.5 41t-39.5 16q-25 0 -41 -16t-16 -41q0 -23 16 -39.5t41 -16.5zM750 1422q24 0 40.5 16.5t16.5 39.5q0 25 -16.5 41t-40.5 16
q-23 0 -39.5 -16t-16.5 -41q0 -23 16 -39.5t40 -16.5z" />
    <glyph glyph-name="Aring" unicode="&#xc5;" horiz-adv-x="1247" 
d="M67 0h130l134 402h583l134 -402h130l-464 1353h-182zM355 489l267 787h2l267 -787h-536zM621 1385q42 0 69 28.5t27 69.5q0 40 -27 67.5t-69 27.5q-41 0 -68 -27.5t-27 -67.5q0 -41 27.5 -69.5t67.5 -28.5zM621 1438q-16 0 -29 13t-13 32t13 30.5t29 11.5
q18 0 30.5 -11.5t12.5 -30.5t-12.5 -32t-30.5 -13z" />
    <glyph glyph-name="AE" unicode="&#xc6;" horiz-adv-x="1806" 
d="M67 0h132l680 1302v48h-108zM337 344h540v87h-509zM850 0h838v89h-714v562h676v86h-676v524h714v89h-838v-1350z" />
    <glyph glyph-name="Ccedilla" unicode="&#xc7;" horiz-adv-x="1183" 
d="M571 -9q264 0 374.5 147t110.5 390h-127q0 -226 -90 -336.5t-269 -110.5q-183 0 -282 120.5t-99 475.5t98.5 474.5t282.5 119.5q179 0 269 -107.5t90 -337.5h127q0 247 -110.5 391t-375.5 144q-267 0 -387 -155.5t-120 -528.5q0 -372 120 -529t388 -157zM589 -263
q38 0 72.5 7t61.5 22t42.5 37.5t15.5 53.5q0 44 -30.5 63.5t-75.5 19.5q-36 0 -69.5 -10t-51.5 -24l-2 -31q22 10 46.5 17t46.5 7q25 0 41 -10t16 -32q0 -30 -28 -44.5t-84 -14.5q-31 0 -58 3.5t-48 8.5l-20 -59q27 -5 59 -9.5t66 -4.5zM552 -125l42 125h-57l-35 -114z" />
    <glyph glyph-name="Egrave" unicode="&#xc8;" horiz-adv-x="1044" 
d="M87 0h840v89h-715v562h676v86h-676v524h715v89h-840v-1350zM566 1409h71l-135 142h-99z" />
    <glyph glyph-name="Eacute" unicode="&#xc9;" horiz-adv-x="1044" 
d="M87 0h840v89h-715v562h676v86h-676v524h715v89h-840v-1350zM402 1392h72l163 142h-99z" />
    <glyph glyph-name="Ecircumflex" unicode="&#xca;" horiz-adv-x="1044" 
d="M87 0h840v89h-715v562h676v86h-676v524h715v89h-840v-1350zM285 1400h85l150 122l150 -122h83l-191 159h-86z" />
    <glyph glyph-name="Edieresis" unicode="&#xcb;" horiz-adv-x="1044" 
d="M87 0h840v89h-715v562h676v86h-676v524h715v89h-840v-1350zM391 1422q23 0 39.5 16.5t16.5 39.5q0 25 -16.5 41t-39.5 16q-25 0 -41 -16t-16 -41q0 -23 16 -39.5t41 -16.5zM649 1422q24 0 40.5 16.5t16.5 39.5q0 25 -16.5 41t-40.5 16q-23 0 -39.5 -16t-16.5 -41
q0 -23 16 -39.5t40 -16.5z" />
    <glyph glyph-name="Igrave" unicode="&#xcc;" horiz-adv-x="470" 
d="M149 0h123v1350h-123v-1350zM257 1409h71l-135 142h-99z" />
    <glyph glyph-name="Iacute" unicode="&#xcd;" horiz-adv-x="470" 
d="M149 0h123v1350h-123v-1350zM93 1392h72l163 142h-99z" />
    <glyph glyph-name="Icircumflex" unicode="&#xce;" horiz-adv-x="470" 
d="M149 0h123v1350h-123v-1350zM-24 1400h85l150 122l150 -122h83l-191 159h-86z" />
    <glyph glyph-name="Idieresis" unicode="&#xcf;" horiz-adv-x="470" 
d="M149 0h123v1350h-123v-1350zM82 1422q23 0 39.5 16.5t16.5 39.5q0 25 -16.5 41t-39.5 16q-25 0 -41 -16t-16 -41q0 -23 16 -39.5t41 -16.5zM340 1422q24 0 40.5 16.5t16.5 39.5q0 25 -16.5 41t-40.5 16q-23 0 -39.5 -16t-16.5 -41q0 -23 16 -39.5t40 -16.5z" />
    <glyph glyph-name="Eth" unicode="&#xd0;" horiz-adv-x="1160" 
d="M-24 634h480v86h-480v-86zM109 0h494q239 0 349 143.5t110 531.5q0 389 -109.5 532t-349.5 143h-494v-1350zM233 89v1172h337q183 0 275 -113.5t92 -472.5q0 -358 -92 -472t-275 -114h-337z" />
    <glyph glyph-name="Ntilde" unicode="&#xd1;" horiz-adv-x="1262" 
d="M86 0h124v1257h4l705 -1257h199v1350h-124l-1 -1251h-3l-703 1251h-201v-1350zM719 1439q33 0 55.5 8t37.5 20.5t24 27t13.5 28.5t3.5 24h-67q-1 -10 -9 -22.5t-24 -21t-39 -8.5q-31 0 -52 9t-39 22t-39.5 22t-55.5 9q-30 0 -53.5 -7t-39 -19t-25 -26.5t-14.5 -28.5
t-7 -25h68q2 10 10 22.5t25 20.5t41 8q26 0 45 -9.5t37.5 -22t42.5 -22t61 -9.5z" />
    <glyph glyph-name="Ograve" unicode="&#xd2;" horiz-adv-x="1250" 
d="M614 -9q263 0 401 159t138 525t-138 526t-401 160t-400.5 -159.5t-137.5 -526.5q0 -366 138 -525t400 -159zM614 80q-182 0 -298 124t-116 471q0 348 116 472t298 124q183 0 298.5 -124t115.5 -472q0 -347 -115.5 -471t-298.5 -124zM662 1409h71l-135 142h-99z" />
    <glyph glyph-name="Oacute" unicode="&#xd3;" horiz-adv-x="1250" 
d="M614 -9q263 0 401 159t138 525t-138 526t-401 160t-400.5 -159.5t-137.5 -526.5q0 -366 138 -525t400 -159zM614 80q-182 0 -298 124t-116 471q0 348 116 472t298 124q183 0 298.5 -124t115.5 -472q0 -347 -115.5 -471t-298.5 -124zM499 1392h72l163 142h-99z" />
    <glyph glyph-name="Ocircumflex" unicode="&#xd4;" horiz-adv-x="1250" 
d="M614 -9q263 0 401 159t138 525t-138 526t-401 160t-400.5 -159.5t-137.5 -526.5q0 -366 138 -525t400 -159zM614 80q-182 0 -298 124t-116 471q0 348 116 472t298 124q183 0 298.5 -124t115.5 -472q0 -347 -115.5 -471t-298.5 -124zM383 1400h85l150 122l150 -122h83
l-191 159h-86z" />
    <glyph glyph-name="Otilde" unicode="&#xd5;" horiz-adv-x="1250" 
d="M614 -9q263 0 401 159t138 525t-138 526t-401 160t-400.5 -159.5t-137.5 -526.5q0 -366 138 -525t400 -159zM614 80q-182 0 -298 124t-116 471q0 348 116 472t298 124q183 0 298.5 -124t115.5 -472q0 -347 -115.5 -471t-298.5 -124zM716 1439q33 0 55.5 8t37.5 20.5
t24 27t13.5 28.5t3.5 24h-67q-1 -10 -9 -22.5t-24 -21t-39 -8.5q-31 0 -52 9t-39 22t-39.5 22t-55.5 9q-30 0 -53.5 -7t-39 -19t-25 -26.5t-14.5 -28.5t-7 -25h68q2 10 10 22.5t25 20.5t41 8q26 0 45 -9.5t37.5 -22t42.5 -22t61 -9.5z" />
    <glyph glyph-name="Odieresis" unicode="&#xd6;" horiz-adv-x="1250" 
d="M614 -9q263 0 401 159t138 525t-138 526t-401 160t-400.5 -159.5t-137.5 -526.5q0 -366 138 -525t400 -159zM614 80q-182 0 -298 124t-116 471q0 348 116 472t298 124q183 0 298.5 -124t115.5 -472q0 -347 -115.5 -471t-298.5 -124zM488 1422q23 0 39.5 16.5t16.5 39.5
q0 25 -16.5 41t-39.5 16q-25 0 -41 -16t-16 -41q0 -23 16 -39.5t41 -16.5zM746 1422q24 0 40.5 16.5t16.5 39.5q0 25 -16.5 41t-40.5 16q-23 0 -39.5 -16t-16.5 -41q0 -23 16 -39.5t40 -16.5z" />
    <glyph glyph-name="multiply" unicode="&#xd7;" horiz-adv-x="429" 
d="M333 296l58 59l-299 300l-58 -57zM91 296l298 302l-58 57l-299 -300z" />
    <glyph glyph-name="Oslash" unicode="&#xd8;" horiz-adv-x="1107" 
d="M78 0h76l922 1348h-72zM614 -9q263 0 401 159t138 525t-138 526t-401 160t-400.5 -159.5t-137.5 -526.5q0 -366 138 -525t400 -159zM614 80q-182 0 -298 124t-116 471q0 348 116 472t298 124q183 0 298.5 -124t115.5 -472q0 -347 -115.5 -471t-298.5 -124z" />
    <glyph glyph-name="Ugrave" unicode="&#xd9;" horiz-adv-x="1219" 
d="M592 -9q234 0 359 95t125 319v944h-124v-925q0 -187 -91.5 -265t-268.5 -78t-268.5 78t-91.5 265v925h-124v-944q0 -224 125 -319t359 -95zM641 1409h71l-135 142h-99z" />
    <glyph glyph-name="Uacute" unicode="&#xda;" horiz-adv-x="1219" 
d="M592 -9q234 0 359 95t125 319v944h-124v-925q0 -187 -91.5 -265t-268.5 -78t-268.5 78t-91.5 265v925h-124v-944q0 -224 125 -319t359 -95zM478 1392h72l163 142h-99z" />
    <glyph glyph-name="Ucircumflex" unicode="&#xdb;" horiz-adv-x="1219" 
d="M592 -9q234 0 359 95t125 319v944h-124v-925q0 -187 -91.5 -265t-268.5 -78t-268.5 78t-91.5 265v925h-124v-944q0 -224 125 -319t359 -95zM362 1400h85l150 122l150 -122h83l-191 159h-86z" />
    <glyph glyph-name="Udieresis" unicode="&#xdc;" horiz-adv-x="1219" 
d="M592 -9q234 0 359 95t125 319v944h-124v-925q0 -187 -91.5 -265t-268.5 -78t-268.5 78t-91.5 265v925h-124v-944q0 -224 125 -319t359 -95zM467 1422q23 0 39.5 16.5t16.5 39.5q0 25 -16.5 41t-39.5 16q-25 0 -41 -16t-16 -41q0 -23 16 -39.5t41 -16.5zM725 1422
q24 0 40.5 16.5t16.5 39.5q0 25 -16.5 41t-40.5 16q-23 0 -39.5 -16t-16.5 -41q0 -23 16 -39.5t40 -16.5z" />
    <glyph glyph-name="Yacute" unicode="&#xdd;" horiz-adv-x="1174" 
d="M513 0h124v547l461 803h-136l-386 -695h-1l-386 695h-137l461 -802v-548zM460 1392h72l163 142h-99z" />
    <glyph glyph-name="Thorn" unicode="&#xde;" horiz-adv-x="1048" 
d="M99 0h123v228h438q103 0 164 38.5t87 109t26 166.5v274q0 94 -26.5 165.5t-87 111t-163.5 39.5h-438v218h-123v-1350zM222 313v732h392q77 0 120.5 -30.5t61.5 -87t18 -133.5v-229q0 -77 -19 -133.5t-62.5 -87.5t-118.5 -31h-392z" />
    <glyph glyph-name="germandbls" unicode="&#xdf;" horiz-adv-x="1133" 
d="M86 0h123v1002q0 105 25 178.5t69.5 119.5t104.5 67t130 21q125 0 189 -54.5t64 -161.5q0 -60 -18 -107.5t-41 -90.5t-41 -84.5t-18 -88.5q0 -39 22 -73t55 -68t65.5 -73t54.5 -89t22 -117q0 -79 -33 -135t-98 -90.5t-159.5 -51t-216.5 -16.5v-88q152 0 270.5 19.5
t201 62.5t125 115t42.5 177q0 76 -23 132.5t-57.5 98.5t-69 75t-57.5 62.5t-23 59.5q0 37 18 74.5t42 81t42 97.5t18 124t-24 124.5t-72 93t-118.5 58t-162.5 19.5q-103 0 -186 -28t-142 -86.5t-91 -148t-32 -212.5v-999z" />
    <glyph glyph-name="agrave" unicode="&#xe0;" horiz-adv-x="1097" 
d="M459 -9q92 0 161.5 16.5t119 43t79 55t40.5 53.5l9 -159h105v763q0 155 -52.5 250t-151 139t-239.5 44q-88 0 -163 -20.5t-132 -65t-94.5 -115.5t-50.5 -173l122 -30q13 113 55 182.5t109 101.5t154 32q99 0 170 -35t110 -110t39 -196v-79h-395q-82 0 -150.5 -16
t-119 -54.5t-77.5 -105t-27 -169.5q0 -106 27.5 -174.5t78.5 -107.5t120.5 -54.5t152.5 -15.5zM484 75q-57 0 -107.5 11.5t-89.5 41t-60.5 82.5t-21.5 137q0 82 22.5 135t61 81t88.5 39.5t105 11.5h365v-367q-16 -40 -62 -80t-121.5 -66t-179.5 -26zM576 1242h71l-135 142
h-99z" />
    <glyph glyph-name="aacute" unicode="&#xe1;" horiz-adv-x="1097" 
d="M459 -9q92 0 161.5 16.5t119 43t79 55t40.5 53.5l9 -159h105v763q0 155 -52.5 250t-151 139t-239.5 44q-88 0 -163 -20.5t-132 -65t-94.5 -115.5t-50.5 -173l122 -30q13 113 55 182.5t109 101.5t154 32q99 0 170 -35t110 -110t39 -196v-79h-395q-82 0 -150.5 -16
t-119 -54.5t-77.5 -105t-27 -169.5q0 -106 27.5 -174.5t78.5 -107.5t120.5 -54.5t152.5 -15.5zM484 75q-57 0 -107.5 11.5t-89.5 41t-60.5 82.5t-21.5 137q0 82 22.5 135t61 81t88.5 39.5t105 11.5h365v-367q-16 -40 -62 -80t-121.5 -66t-179.5 -26zM413 1227h72l163 142
h-99z" />
    <glyph glyph-name="acircumflex" unicode="&#xe2;" horiz-adv-x="1097" 
d="M459 -9q92 0 161.5 16.5t119 43t79 55t40.5 53.5l9 -159h105v763q0 155 -52.5 250t-151 139t-239.5 44q-88 0 -163 -20.5t-132 -65t-94.5 -115.5t-50.5 -173l122 -30q13 113 55 182.5t109 101.5t154 32q99 0 170 -35t110 -110t39 -196v-79h-395q-82 0 -150.5 -16
t-119 -54.5t-77.5 -105t-27 -169.5q0 -106 27.5 -174.5t78.5 -107.5t120.5 -54.5t152.5 -15.5zM484 75q-57 0 -107.5 11.5t-89.5 41t-60.5 82.5t-21.5 137q0 82 22.5 135t61 81t88.5 39.5t105 11.5h365v-367q-16 -40 -62 -80t-121.5 -66t-179.5 -26zM297 1236h85l150 122
l150 -122h83l-191 159h-86z" />
    <glyph glyph-name="atilde" unicode="&#xe3;" horiz-adv-x="1097" 
d="M459 -9q92 0 161.5 16.5t119 43t79 55t40.5 53.5l9 -159h105v763q0 155 -52.5 250t-151 139t-239.5 44q-88 0 -163 -20.5t-132 -65t-94.5 -115.5t-50.5 -173l122 -30q13 113 55 182.5t109 101.5t154 32q99 0 170 -35t110 -110t39 -196v-79h-395q-82 0 -150.5 -16
t-119 -54.5t-77.5 -105t-27 -169.5q0 -106 27.5 -174.5t78.5 -107.5t120.5 -54.5t152.5 -15.5zM484 75q-57 0 -107.5 11.5t-89.5 41t-60.5 82.5t-21.5 137q0 82 22.5 135t61 81t88.5 39.5t105 11.5h365v-367q-16 -40 -62 -80t-121.5 -66t-179.5 -26zM630 1275q33 0 55.5 8
t37.5 20.5t24 27t13.5 28.5t3.5 24h-67q-1 -10 -9 -22.5t-24 -21t-39 -8.5q-31 0 -52 9t-39 22t-39.5 22t-55.5 9q-30 0 -53.5 -7t-39 -19t-25 -26.5t-14.5 -28.5t-7 -25h68q2 10 10 22.5t25 20.5t41 8q26 0 45 -9.5t37.5 -22t42.5 -22t61 -9.5z" />
    <glyph glyph-name="adieresis" unicode="&#xe4;" horiz-adv-x="1097" 
d="M459 -9q92 0 161.5 16.5t119 43t79 55t40.5 53.5l9 -159h105v763q0 155 -52.5 250t-151 139t-239.5 44q-88 0 -163 -20.5t-132 -65t-94.5 -115.5t-50.5 -173l122 -30q13 113 55 182.5t109 101.5t154 32q99 0 170 -35t110 -110t39 -196v-79h-395q-82 0 -150.5 -16
t-119 -54.5t-77.5 -105t-27 -169.5q0 -106 27.5 -174.5t78.5 -107.5t120.5 -54.5t152.5 -15.5zM484 75q-57 0 -107.5 11.5t-89.5 41t-60.5 82.5t-21.5 137q0 82 22.5 135t61 81t88.5 39.5t105 11.5h365v-367q-16 -40 -62 -80t-121.5 -66t-179.5 -26zM402 1257
q23 0 39.5 16.5t16.5 39.5q0 25 -16.5 41t-39.5 16q-25 0 -41 -16t-16 -41q0 -23 16 -39.5t41 -16.5zM660 1257q24 0 40.5 16.5t16.5 39.5q0 25 -16.5 41t-40.5 16q-23 0 -39.5 -16t-16.5 -41q0 -23 16 -39.5t40 -16.5z" />
    <glyph glyph-name="aring" unicode="&#xe5;" horiz-adv-x="1097" 
d="M459 -9q92 0 161.5 16.5t119 43t79 55t40.5 53.5l9 -159h105v763q0 155 -52.5 250t-151 139t-239.5 44q-88 0 -163 -20.5t-132 -65t-94.5 -115.5t-50.5 -173l122 -30q13 113 55 182.5t109 101.5t154 32q99 0 170 -35t110 -110t39 -196v-79h-395q-82 0 -150.5 -16
t-119 -54.5t-77.5 -105t-27 -169.5q0 -106 27.5 -174.5t78.5 -107.5t120.5 -54.5t152.5 -15.5zM484 75q-57 0 -107.5 11.5t-89.5 41t-60.5 82.5t-21.5 137q0 82 22.5 135t61 81t88.5 39.5t105 11.5h365v-367q-16 -40 -62 -80t-121.5 -66t-179.5 -26zM531 1220q42 0 69 28.5
t27 69.5q0 40 -27 67.5t-69 27.5q-41 0 -68 -27.5t-27 -67.5q0 -41 27.5 -69.5t67.5 -28.5zM531 1273q-16 0 -29 13t-13 32t13 30.5t29 11.5q18 0 30.5 -11.5t12.5 -30.5t-12.5 -32t-30.5 -13z" />
    <glyph glyph-name="ae" unicode="&#xe6;" horiz-adv-x="1867" 
d="M939 365v364q0 220 -97.5 343t-313.5 123q-228 0 -325 -110.5t-111 -294.5l120 -30q8 175 86 263t231 88q143 0 219 -95t76 -285v-383l17 -25zM445 -9q206 0 328.5 84.5t126.5 297.5l-75 32q0 -193 -94.5 -263.5t-250.5 -70.5q-150 0 -211 63.5t-61 172.5q0 141 65 194
t234 53h327v76h-361q-214 0 -303.5 -72.5t-89.5 -250.5q0 -150 89.5 -233t275.5 -83zM1291 -9v85q-165 0 -256 129q-91 127 -91 391q0 285 95 400q96 115 252 115q160 0 249 -111q83 -107 88 -363h-701v-81h824q2 22 2 44q0 307 -111 452q-112 144 -351 144
q-232 0 -349 -145q-118 -146 -118 -454q0 -288 113 -447q114 -159 354 -159zM1291 76v-85q135 0 229 42q95 41 150 135q54 93 68 218l-113 27q-13 -101 -52 -185q-39 -83 -113 -118q-74 -34 -169 -34z" />
    <glyph glyph-name="ccedilla" unicode="&#xe7;" horiz-adv-x="1079" 
d="M529 -9q223 0 324 136.5t107 279.5l-112 35q-2 -135 -84 -248.5t-235 -113.5q-156 0 -251 126t-95 386q0 281 94 397.5t252 116.5q154 0 235.5 -104t83.5 -261l112 34q-6 164 -106.5 292t-324.5 128q-238 0 -354.5 -145.5t-116.5 -457.5q0 -292 116.5 -446.5
t354.5 -154.5zM570 -263q38 0 72.5 7t61.5 22t42.5 37.5t15.5 53.5q0 44 -30.5 63.5t-75.5 19.5q-36 0 -69.5 -10t-51.5 -24l-2 -31q22 10 46.5 17t46.5 7q25 0 41 -10t16 -32q0 -30 -28 -44.5t-84 -14.5q-31 0 -58 3.5t-48 8.5l-20 -59q27 -5 59 -9.5t66 -4.5zM533 -125
l42 125h-57l-35 -114z" />
    <glyph glyph-name="egrave" unicode="&#xe8;" horiz-adv-x="1118" 
d="M541 -9v85q-165 0 -256 129q-91 127 -91 391q0 285 96 400q95 115 251 115q160 0 250 -111q82 -107 88 -363h-702v-81h824q2 22 2 44q0 307 -111 452q-112 144 -351 144q-232 0 -349 -145q-118 -146 -118 -454q0 -288 114 -447q113 -159 353 -159zM541 76v-85
q135 0 230 42q94 41 149 135q54 93 68 218l-113 27q-13 -101 -51 -185q-40 -83 -114 -118q-74 -34 -169 -34zM587 1241h71l-135 142h-99z" />
    <glyph glyph-name="eacute" unicode="&#xe9;" horiz-adv-x="1118" 
d="M541 -9v85q-165 0 -256 129q-91 127 -91 391q0 285 96 400q95 115 251 115q160 0 250 -111q82 -107 88 -363h-702v-81h824q2 22 2 44q0 307 -111 452q-112 144 -351 144q-232 0 -349 -145q-118 -146 -118 -454q0 -288 114 -447q113 -159 353 -159zM541 76v-85
q135 0 230 42q94 41 149 135q54 93 68 218l-113 27q-13 -101 -51 -185q-40 -83 -114 -118q-74 -34 -169 -34zM424 1226h72l163 142h-99z" />
    <glyph glyph-name="ecircumflex" unicode="&#xea;" horiz-adv-x="1118" 
d="M541 -9v85q-165 0 -256 129q-91 127 -91 391q0 285 96 400q95 115 251 115q160 0 250 -111q82 -107 88 -363h-702v-81h824q2 22 2 44q0 307 -111 452q-112 144 -351 144q-232 0 -349 -145q-118 -146 -118 -454q0 -288 114 -447q113 -159 353 -159zM541 76v-85
q135 0 230 42q94 41 149 135q54 93 68 218l-113 27q-13 -101 -51 -185q-40 -83 -114 -118q-74 -34 -169 -34zM307 1235h85l150 122l150 -122h83l-191 159h-86z" />
    <glyph glyph-name="edieresis" unicode="&#xeb;" horiz-adv-x="1118" 
d="M541 -9v85q-165 0 -256 129q-91 127 -91 391q0 285 96 400q95 115 251 115q160 0 250 -111q82 -107 88 -363h-702v-81h824q2 22 2 44q0 307 -111 452q-112 144 -351 144q-232 0 -349 -145q-118 -146 -118 -454q0 -288 114 -447q113 -159 353 -159zM541 76v-85
q135 0 230 42q94 41 149 135q54 93 68 218l-113 27q-13 -101 -51 -185q-40 -83 -114 -118q-74 -34 -169 -34zM413 1256q23 0 39.5 16.5t16.5 39.5q0 25 -16.5 41t-39.5 16q-25 0 -41 -16t-16 -41q0 -23 16 -39.5t41 -16.5zM671 1256q24 0 40.5 16.5t16.5 39.5q0 25 -16.5 41
t-40.5 16q-23 0 -39.5 -16t-16.5 -41q0 -23 16 -39.5t40 -16.5z" />
    <glyph glyph-name="igrave" unicode="&#xec;" horiz-adv-x="390" 
d="M111 0h124v1186h-124v-1186zM219 1241h71l-135 142h-99z" />
    <glyph glyph-name="iacute" unicode="&#xed;" horiz-adv-x="390" 
d="M111 0h124v1186h-124v-1186zM56 1226h72l163 142h-99z" />
    <glyph glyph-name="icircumflex" unicode="&#xee;" horiz-adv-x="390" 
d="M111 0h124v1186h-124v-1186zM-62 1235h85l150 122l150 -122h83l-191 159h-86z" />
    <glyph glyph-name="idieresis" unicode="&#xef;" horiz-adv-x="390" 
d="M111 0h124v1186h-124v-1186zM44 1256q23 0 39.5 16.5t16.5 39.5q0 25 -16.5 41t-39.5 16q-25 0 -41 -16t-16 -41q0 -23 16 -39.5t41 -16.5zM302 1256q24 0 40.5 16.5t16.5 39.5q0 25 -16.5 41t-40.5 16q-23 0 -39.5 -16t-16.5 -41q0 -23 16 -39.5t40 -16.5z" />
    <glyph glyph-name="eth" unicode="&#xf0;" horiz-adv-x="1117" 
d="M533 -8q239 0 343 149t104 452q0 290 -113 444.5t-339 154.5q-239 0 -342 -150.5t-103 -449.5q0 -298 105.5 -449t344.5 -151zM533 81q-161 0 -243.5 120t-82.5 391t82.5 392t243.5 121q160 0 242 -119.5t82 -393.5q0 -275 -82 -393t-242 -118zM980 707q0 73 -10.5 146.5
t-33 141t-58.5 121.5q-30 113 -78 192.5t-115.5 130t-157.5 76.5t-204 33l-26 -76q103 -4 191 -26t159 -69.5t120.5 -128t76 -203.5t26.5 -296zM488 1334l117 231l-70 16l-119 -229z" />
    <glyph glyph-name="ntilde" unicode="&#xf1;" horiz-adv-x="1080" 
d="M110 0h123v938l-25 246h-98v-1184zM835 0h123v704q0 237 -84 365t-276 128q-187 0 -307 -115t-120 -254l58 -55q0 142 95 238.5t233 96.5q140 0 209 -95.5t69 -307.5v-705zM627 1274q33 0 55.5 8t37.5 20.5t24 27t13.5 28.5t3.5 24h-67q-1 -10 -9 -22.5t-24 -21t-39 -8.5
q-31 0 -52 9t-39 22t-39.5 22t-55.5 9q-30 0 -53.5 -7t-39 -19t-25 -26.5t-14.5 -28.5t-7 -25h68q2 10 10 22.5t25 20.5t41 8q26 0 45 -9.5t37.5 -22t42.5 -22t61 -9.5z" />
    <glyph glyph-name="ograve" unicode="&#xf2;" horiz-adv-x="1123" 
d="M544 -8q230 0 351.5 142.5t121.5 459.5q0 319 -121.5 461t-351.5 142t-351.5 -142t-121.5 -461q0 -317 121.5 -459.5t351.5 -142.5zM544 80q-152 0 -251 111t-99 403t99 403.5t251 111.5t250.5 -111.5t98.5 -403.5t-98.5 -403t-250.5 -111zM590 1243h71l-135 142h-99z
" />
    <glyph glyph-name="oacute" unicode="&#xf3;" horiz-adv-x="1123" 
d="M544 -8q230 0 351.5 142.5t121.5 459.5q0 319 -121.5 461t-351.5 142t-351.5 -142t-121.5 -461q0 -317 121.5 -459.5t351.5 -142.5zM544 80q-152 0 -251 111t-99 403t99 403.5t251 111.5t250.5 -111.5t98.5 -403.5t-98.5 -403t-250.5 -111zM427 1228h72l163 142h-99z" />
    <glyph glyph-name="ocircumflex" unicode="&#xf4;" horiz-adv-x="1123" 
d="M544 -8q230 0 351.5 142.5t121.5 459.5q0 319 -121.5 461t-351.5 142t-351.5 -142t-121.5 -461q0 -317 121.5 -459.5t351.5 -142.5zM544 80q-152 0 -251 111t-99 403t99 403.5t251 111.5t250.5 -111.5t98.5 -403.5t-98.5 -403t-250.5 -111zM310 1237h85l150 122l150 -122
h83l-191 159h-86z" />
    <glyph glyph-name="otilde" unicode="&#xf5;" horiz-adv-x="1123" 
d="M544 -8q230 0 351.5 142.5t121.5 459.5q0 319 -121.5 461t-351.5 142t-351.5 -142t-121.5 -461q0 -317 121.5 -459.5t351.5 -142.5zM544 80q-152 0 -251 111t-99 403t99 403.5t251 111.5t250.5 -111.5t98.5 -403.5t-98.5 -403t-250.5 -111zM643 1276q33 0 55.5 8
t37.5 20.5t24 27t13.5 28.5t3.5 24h-67q-1 -10 -9 -22.5t-24 -21t-39 -8.5q-31 0 -52 9t-39 22t-39.5 22t-55.5 9q-30 0 -53.5 -7t-39 -19t-25 -26.5t-14.5 -28.5t-7 -25h68q2 10 10 22.5t25 20.5t41 8q26 0 45 -9.5t37.5 -22t42.5 -22t61 -9.5z" />
    <glyph glyph-name="odieresis" unicode="&#xf6;" horiz-adv-x="1123" 
d="M544 -8q230 0 351.5 142.5t121.5 459.5q0 319 -121.5 461t-351.5 142t-351.5 -142t-121.5 -461q0 -317 121.5 -459.5t351.5 -142.5zM544 80q-152 0 -251 111t-99 403t99 403.5t251 111.5t250.5 -111.5t98.5 -403.5t-98.5 -403t-250.5 -111zM416 1258q23 0 39.5 16.5
t16.5 39.5q0 25 -16.5 41t-39.5 16q-25 0 -41 -16t-16 -41q0 -23 16 -39.5t41 -16.5zM674 1258q24 0 40.5 16.5t16.5 39.5q0 25 -16.5 41t-40.5 16q-23 0 -39.5 -16t-16.5 -41q0 -23 16 -39.5t40 -16.5z" />
    <glyph glyph-name="divide" unicode="&#xf7;" horiz-adv-x="410" 
d="M37 438h321v80h-321v-80zM200 109q24 0 41 17.5t17 43.5q0 25 -17 42t-41 17q-27 0 -44.5 -17t-17.5 -42q0 -26 17.5 -43.5t44.5 -17.5zM200 734q24 0 41 18t17 43t-17 42t-41 17q-27 0 -44.5 -17.5t-17.5 -41.5q0 -25 17.5 -43t44.5 -18z" />
    <glyph glyph-name="oslash" unicode="&#xf8;" horiz-adv-x="1117" 
d="M23 -4l46 -35l979 1235l-49 33zM544 -8q230 0 351.5 142.5t121.5 459.5q0 319 -121.5 461t-351.5 142t-351.5 -142t-121.5 -461q0 -317 121.5 -459.5t351.5 -142.5zM544 80q-152 0 -251 111t-99 403t99 403.5t251 111.5t250.5 -111.5t98.5 -403.5t-98.5 -403t-250.5 -111
z" />
    <glyph glyph-name="ugrave" unicode="&#xf9;" horiz-adv-x="1086" 
d="M850 0h98v1184h-123v-977zM220 1186h-123v-708q0 -235 83.5 -362t276.5 -127q192 0 310.5 115.5t118.5 253.5l-60 54q0 -142 -95 -238t-234 -96q-140 0 -208.5 95.5t-68.5 307.5v705zM571 1241h71l-135 142h-99z" />
    <glyph glyph-name="uacute" unicode="&#xfa;" horiz-adv-x="1086" 
d="M850 0h98v1184h-123v-977zM220 1186h-123v-708q0 -235 83.5 -362t276.5 -127q192 0 310.5 115.5t118.5 253.5l-60 54q0 -142 -95 -238t-234 -96q-140 0 -208.5 95.5t-68.5 307.5v705zM408 1226h72l163 142h-99z" />
    <glyph glyph-name="ucircumflex" unicode="&#xfb;" horiz-adv-x="1086" 
d="M850 0h98v1184h-123v-977zM220 1186h-123v-708q0 -235 83.5 -362t276.5 -127q192 0 310.5 115.5t118.5 253.5l-60 54q0 -142 -95 -238t-234 -96q-140 0 -208.5 95.5t-68.5 307.5v705zM292 1235h85l150 122l150 -122h83l-191 159h-86z" />
    <glyph glyph-name="udieresis" unicode="&#xfc;" horiz-adv-x="1086" 
d="M850 0h98v1184h-123v-977zM220 1186h-123v-708q0 -235 83.5 -362t276.5 -127q192 0 310.5 115.5t118.5 253.5l-60 54q0 -142 -95 -238t-234 -96q-140 0 -208.5 95.5t-68.5 307.5v705zM397 1256q23 0 39.5 16.5t16.5 39.5q0 25 -16.5 41t-39.5 16q-25 0 -41 -16t-16 -41
q0 -23 16 -39.5t41 -16.5zM655 1256q24 0 40.5 16.5t16.5 39.5q0 25 -16.5 41t-40.5 16q-23 0 -39.5 -16t-16.5 -41q0 -23 16 -39.5t40 -16.5z" />
    <glyph glyph-name="yacute" unicode="&#xfd;" horiz-adv-x="989" 
d="M393 0h188l350 1184h-130l-313 -1094h-2l-316 1094h-129zM66 -459q186 0 311 93t204 366h-116q-64 -222 -157.5 -296.5t-241.5 -74.5v-88zM368 1226h72l163 142h-99z" />
    <glyph glyph-name="thorn" unicode="&#xfe;" horiz-adv-x="1129" 
d="M111 -400h122v1267h-122v-1267zM119 0h113l10 199v1371h-123v-1570zM620 -8q197 0 300 145.5t103 456.5q0 313 -103 458t-300 145q-183 0 -306.5 -97.5t-123.5 -194.5l52 -83q0 106 100 195.5t240 89.5q145 0 230.5 -113t85.5 -400q0 -288 -85.5 -400.5t-230.5 -112.5
q-140 0 -240 90t-100 197l-52 -85q0 -97 123.5 -194t306.5 -97z" />
    <glyph glyph-name="ydieresis" unicode="&#xff;" horiz-adv-x="989" 
d="M393 0h188l350 1184h-130l-313 -1094h-2l-316 1094h-129zM66 -459q186 0 311 93t204 366h-116q-64 -222 -157.5 -296.5t-241.5 -74.5v-88zM357 1256q23 0 39.5 16.5t16.5 39.5q0 25 -16.5 41t-39.5 16q-25 0 -41 -16t-16 -41q0 -23 16 -39.5t41 -16.5zM615 1256
q24 0 40.5 16.5t16.5 39.5q0 25 -16.5 41t-40.5 16q-23 0 -39.5 -16t-16.5 -41q0 -23 16 -39.5t40 -16.5z" />
    <glyph glyph-name="Amacron" unicode="&#x100;" horiz-adv-x="1247" 
d="M67 0h130l134 402h583l134 -402h130l-464 1353h-182zM355 489l267 787h2l267 -787h-536zM354 1453h535v53h-535v-53z" />
    <glyph glyph-name="amacron" unicode="&#x101;" horiz-adv-x="1097" 
d="M459 -9q92 0 161.5 16.5t119 43t79 55t40.5 53.5l9 -159h105v763q0 155 -52.5 250t-151 139t-239.5 44q-88 0 -163 -20.5t-132 -65t-94.5 -115.5t-50.5 -173l122 -30q13 113 55 182.5t109 101.5t154 32q99 0 170 -35t110 -110t39 -196v-79h-395q-82 0 -150.5 -16
t-119 -54.5t-77.5 -105t-27 -169.5q0 -106 27.5 -174.5t78.5 -107.5t120.5 -54.5t152.5 -15.5zM484 75q-57 0 -107.5 11.5t-89.5 41t-60.5 82.5t-21.5 137q0 82 22.5 135t61 81t88.5 39.5t105 11.5h365v-367q-16 -40 -62 -80t-121.5 -66t-179.5 -26zM264 1287h535v53h-535
v-53z" />
    <glyph glyph-name="Abreve" unicode="&#x102;" horiz-adv-x="1247" 
d="M67 0h130l134 402h583l134 -402h130l-464 1353h-182zM355 489l267 787h2l267 -787h-536zM621 1400q57 0 94 19.5t56 51t19 67.5h-68q0 -23 -9 -43.5t-31 -32.5t-61 -12q-35 0 -57 12.5t-32.5 32t-10.5 43.5h-67q0 -36 20.5 -67.5t57.5 -51t89 -19.5z" />
    <glyph glyph-name="abreve" unicode="&#x103;" horiz-adv-x="1097" 
d="M459 -9q92 0 161.5 16.5t119 43t79 55t40.5 53.5l9 -159h105v763q0 155 -52.5 250t-151 139t-239.5 44q-88 0 -163 -20.5t-132 -65t-94.5 -115.5t-50.5 -173l122 -30q13 113 55 182.5t109 101.5t154 32q99 0 170 -35t110 -110t39 -196v-79h-395q-82 0 -150.5 -16
t-119 -54.5t-77.5 -105t-27 -169.5q0 -106 27.5 -174.5t78.5 -107.5t120.5 -54.5t152.5 -15.5zM484 75q-57 0 -107.5 11.5t-89.5 41t-60.5 82.5t-21.5 137q0 82 22.5 135t61 81t88.5 39.5t105 11.5h365v-367q-16 -40 -62 -80t-121.5 -66t-179.5 -26zM530 1235q57 0 94 19.5
t56 51t19 67.5h-68q0 -23 -9 -43.5t-31 -32.5t-61 -12q-35 0 -57 12.5t-32.5 32t-10.5 43.5h-67q0 -36 20.5 -67.5t57.5 -51t89 -19.5z" />
    <glyph glyph-name="Aogonek" unicode="&#x104;" horiz-adv-x="1247" 
d="M67 0h130l134 402h583l134 -402h130l-464 1353h-182zM355 489l267 787h2l267 -787h-536zM1188 -288q28 0 55 3t48 8t29 9l-5 68q-9 -4 -27.5 -9t-40 -8.5t-41.5 -3.5q-38 0 -56 16t-18 46q0 24 10.5 56t24.5 60.5t22 42.5h-67q-9 -14 -25 -43.5t-28.5 -65.5t-12.5 -72
q0 -41 18 -64.5t48 -33t66 -9.5z" />
    <glyph glyph-name="aogonek" unicode="&#x105;" horiz-adv-x="1097" 
d="M459 -9q92 0 161.5 16.5t119 43t79 55t40.5 53.5l9 -159h105v763q0 155 -52.5 250t-151 139t-239.5 44q-88 0 -163 -20.5t-132 -65t-94.5 -115.5t-50.5 -173l122 -30q13 113 55 182.5t109 101.5t154 32q99 0 170 -35t110 -110t39 -196v-79h-395q-82 0 -150.5 -16
t-119 -54.5t-77.5 -105t-27 -169.5q0 -106 27.5 -174.5t78.5 -107.5t120.5 -54.5t152.5 -15.5zM484 75q-57 0 -107.5 11.5t-89.5 41t-60.5 82.5t-21.5 137q0 82 22.5 135t61 81t88.5 39.5t105 11.5h365v-367q-16 -40 -62 -80t-121.5 -66t-179.5 -26zM972 -288q28 0 55 3
t48 8t29 9l-5 68q-9 -4 -27.5 -9t-40 -8.5t-41.5 -3.5q-38 0 -56 16t-18 46q0 24 10.5 56t24.5 60.5t22 42.5h-67q-9 -14 -25 -43.5t-28.5 -65.5t-12.5 -72q0 -41 18 -64.5t48 -33t66 -9.5z" />
    <glyph glyph-name="Cacute" unicode="&#x106;" horiz-adv-x="1183" 
d="M571 -9q264 0 374.5 147t110.5 390h-127q0 -226 -90 -336.5t-269 -110.5q-183 0 -282 120.5t-99 475.5t98.5 474.5t282.5 119.5q179 0 269 -107.5t90 -337.5h127q0 247 -110.5 391t-375.5 144q-267 0 -387 -155.5t-120 -528.5q0 -372 120 -529t388 -157zM445 1392h72
l163 142h-99z" />
    <glyph glyph-name="cacute" unicode="&#x107;" horiz-adv-x="1079" 
d="M529 -9q223 0 324 136.5t107 279.5l-112 35q-2 -135 -84 -248.5t-235 -113.5q-156 0 -251 126t-95 386q0 281 94 397.5t252 116.5q154 0 235.5 -104t83.5 -261l112 34q-6 164 -106.5 292t-324.5 128q-238 0 -354.5 -145.5t-116.5 -457.5q0 -292 116.5 -446.5
t354.5 -154.5zM412 1226h72l163 142h-99z" />
    <glyph glyph-name="Ccircumflex" unicode="&#x108;" horiz-adv-x="1183" 
d="M571 -9q264 0 374.5 147t110.5 390h-127q0 -226 -90 -336.5t-269 -110.5q-183 0 -282 120.5t-99 475.5t98.5 474.5t282.5 119.5q179 0 269 -107.5t90 -337.5h127q0 247 -110.5 391t-375.5 144q-267 0 -387 -155.5t-120 -528.5q0 -372 120 -529t388 -157zM329 1400h85
l150 122l150 -122h83l-191 159h-86z" />
    <glyph glyph-name="ccircumflex" unicode="&#x109;" horiz-adv-x="1079" 
d="M529 -9q223 0 324 136.5t107 279.5l-112 35q-2 -135 -84 -248.5t-235 -113.5q-156 0 -251 126t-95 386q0 281 94 397.5t252 116.5q154 0 235.5 -104t83.5 -261l112 34q-6 164 -106.5 292t-324.5 128q-238 0 -354.5 -145.5t-116.5 -457.5q0 -292 116.5 -446.5
t354.5 -154.5zM294 1235h85l150 122l150 -122h83l-191 159h-86z" />
    <glyph glyph-name="Cdotaccent" unicode="&#x10a;" horiz-adv-x="1183" 
d="M571 -9q264 0 374.5 147t110.5 390h-127q0 -226 -90 -336.5t-269 -110.5q-183 0 -282 120.5t-99 475.5t98.5 474.5t282.5 119.5q179 0 269 -107.5t90 -337.5h127q0 247 -110.5 391t-375.5 144q-267 0 -387 -155.5t-120 -528.5q0 -372 120 -529t388 -157zM564 1416
q23 0 39.5 17t16.5 41q0 23 -16.5 39.5t-39.5 16.5q-24 0 -41 -16.5t-17 -39.5q0 -24 17.5 -41t40.5 -17z" />
    <glyph glyph-name="cdotaccent" unicode="&#x10b;" horiz-adv-x="1079" 
d="M529 -9q223 0 324 136.5t107 279.5l-112 35q-2 -135 -84 -248.5t-235 -113.5q-156 0 -251 126t-95 386q0 281 94 397.5t252 116.5q154 0 235.5 -104t83.5 -261l112 34q-6 164 -106.5 292t-324.5 128q-238 0 -354.5 -145.5t-116.5 -457.5q0 -292 116.5 -446.5
t354.5 -154.5zM530 1251q23 0 39.5 17t16.5 41q0 23 -16.5 39.5t-39.5 16.5q-24 0 -41 -16.5t-17 -39.5q0 -24 17.5 -41t40.5 -17z" />
    <glyph glyph-name="Ccaron" unicode="&#x10c;" horiz-adv-x="1183" 
d="M571 -9q264 0 374.5 147t110.5 390h-127q0 -226 -90 -336.5t-269 -110.5q-183 0 -282 120.5t-99 475.5t98.5 474.5t282.5 119.5q179 0 269 -107.5t90 -337.5h127q0 247 -110.5 391t-375.5 144q-267 0 -387 -155.5t-120 -528.5q0 -372 120 -529t388 -157zM520 1398h86
l191 159h-83l-150 -122l-150 122h-85z" />
    <glyph glyph-name="ccaron" unicode="&#x10d;" horiz-adv-x="1079" 
d="M529 -9q223 0 324 136.5t107 279.5l-112 35q-2 -135 -84 -248.5t-235 -113.5q-156 0 -251 126t-95 386q0 281 94 397.5t252 116.5q154 0 235.5 -104t83.5 -261l112 34q-6 164 -106.5 292t-324.5 128q-238 0 -354.5 -145.5t-116.5 -457.5q0 -292 116.5 -446.5
t354.5 -154.5zM485 1232h86l191 159h-83l-150 -122l-150 122h-85z" />
    <glyph glyph-name="Dcaron" unicode="&#x10e;" horiz-adv-x="1137" 
d="M86 0h494q239 0 349 143.5t110 531.5q0 389 -109.5 532t-349.5 143h-494v-1350zM210 89v1172h337q184 0 276 -113.5t92 -472.5q0 -358 -92 -472t-276 -114h-337zM490 1398h86l191 159h-83l-150 -122l-150 122h-85z" />
    <glyph glyph-name="dcaron" unicode="&#x10f;" horiz-adv-x="1166" 
d="M1046 1310h80l43 260h-89zM860 0h115v1570h-123v-1364zM477 -8q183 0 305 97t122 194l-52 85q0 -107 -98 -197t-238 -90q-146 0 -233 111t-87 402t87 402t233 111q140 0 238 -89.5t98 -195.5l52 83q0 97 -122 194.5t-305 97.5q-197 0 -301.5 -143t-104.5 -460
q0 -315 104.5 -458.5t301.5 -143.5z" />
    <glyph glyph-name="Dcroat" unicode="&#x110;" horiz-adv-x="1160" 
d="M-24 634h480v86h-480v-86zM109 0h494q239 0 349 143.5t110 531.5q0 389 -109.5 532t-349.5 143h-494v-1350zM233 89v1172h337q183 0 275 -113.5t92 -472.5q0 -358 -92 -472t-275 -114h-337z" />
    <glyph glyph-name="dcroat" unicode="&#x111;" horiz-adv-x="1093" 
d="M533 1367h564v67h-564v-67zM860 0h115v1570h-123v-1364zM477 -8q183 0 305 97t122 194l-52 85q0 -107 -98 -197t-238 -90q-146 0 -233 111t-87 402t87 402t233 111q140 0 238 -89.5t98 -195.5l52 83q0 97 -122 194.5t-305 97.5q-197 0 -301.5 -143t-104.5 -460
q0 -315 104.5 -458.5t301.5 -143.5z" />
    <glyph glyph-name="Emacron" unicode="&#x112;" horiz-adv-x="1044" 
d="M87 0h840v89h-715v562h676v86h-676v524h715v89h-840v-1350zM252 1453h535v53h-535v-53z" />
    <glyph glyph-name="emacron" unicode="&#x113;" horiz-adv-x="1118" 
d="M541 -9v85q-165 0 -256 129q-91 127 -91 391q0 285 96 400q95 115 251 115q160 0 250 -111q82 -107 88 -363h-702v-81h824q2 22 2 44q0 307 -111 452q-112 144 -351 144q-232 0 -349 -145q-118 -146 -118 -454q0 -288 114 -447q113 -159 353 -159zM541 76v-85
q135 0 230 42q94 41 149 135q54 93 68 218l-113 27q-13 -101 -51 -185q-40 -83 -114 -118q-74 -34 -169 -34zM274 1287h535v53h-535v-53z" />
    <glyph glyph-name="Ebreve" unicode="&#x114;" horiz-adv-x="1044" 
d="M87 0h840v89h-715v562h676v86h-676v524h715v89h-840v-1350zM518 1400q57 0 94 19.5t56 51t19 67.5h-68q0 -23 -9 -43.5t-31 -32.5t-61 -12q-35 0 -57 12.5t-32.5 32t-10.5 43.5h-67q0 -36 20.5 -67.5t57.5 -51t89 -19.5z" />
    <glyph glyph-name="ebreve" unicode="&#x115;" horiz-adv-x="1118" 
d="M541 -9v85q-165 0 -256 129q-91 127 -91 391q0 285 96 400q95 115 251 115q160 0 250 -111q82 -107 88 -363h-702v-81h824q2 22 2 44q0 307 -111 452q-112 144 -351 144q-232 0 -349 -145q-118 -146 -118 -454q0 -288 114 -447q113 -159 353 -159zM541 76v-85
q135 0 230 42q94 41 149 135q54 93 68 218l-113 27q-13 -101 -51 -185q-40 -83 -114 -118q-74 -34 -169 -34zM540 1234q57 0 94 19.5t56 51t19 67.5h-68q0 -23 -9 -43.5t-31 -32.5t-61 -12q-35 0 -57 12.5t-32.5 32t-10.5 43.5h-67q0 -36 20.5 -67.5t57.5 -51t89 -19.5z" />
    <glyph glyph-name="Edotaccent" unicode="&#x116;" horiz-adv-x="1044" 
d="M87 0h840v89h-715v562h676v86h-676v524h715v89h-840v-1350zM520 1416q23 0 39.5 17t16.5 41q0 23 -16.5 39.5t-39.5 16.5q-24 0 -41 -16.5t-17 -39.5q0 -24 17.5 -41t40.5 -17z" />
    <glyph glyph-name="edotaccent" unicode="&#x117;" horiz-adv-x="1118" 
d="M541 -9v85q-165 0 -256 129q-91 127 -91 391q0 285 96 400q95 115 251 115q160 0 250 -111q82 -107 88 -363h-702v-81h824q2 22 2 44q0 307 -111 452q-112 144 -351 144q-232 0 -349 -145q-118 -146 -118 -454q0 -288 114 -447q113 -159 353 -159zM541 76v-85
q135 0 230 42q94 41 149 135q54 93 68 218l-113 27q-13 -101 -51 -185q-40 -83 -114 -118q-74 -34 -169 -34zM542 1251q23 0 39.5 17t16.5 41q0 23 -16.5 39.5t-39.5 16.5q-24 0 -41 -16.5t-17 -39.5q0 -24 17.5 -41t40.5 -17z" />
    <glyph glyph-name="Eogonek" unicode="&#x118;" horiz-adv-x="1044" 
d="M87 0h840v89h-715v562h676v86h-676v524h715v89h-840v-1350zM613 -288q28 0 55 3t48 8t29 9l-5 68q-9 -4 -27.5 -9t-40 -8.5t-41.5 -3.5q-38 0 -56 16t-18 46q0 24 10.5 56t24.5 60.5t22 42.5h-67q-9 -14 -25 -43.5t-28.5 -65.5t-12.5 -72q0 -41 18 -64.5t48 -33t66 -9.5z
" />
    <glyph glyph-name="eogonek" unicode="&#x119;" horiz-adv-x="1118" 
d="M541 -9v85q-165 0 -256 129q-91 127 -91 391q0 285 96 400q95 115 251 115q160 0 250 -111q82 -107 88 -363h-702v-81h824q2 22 2 44q0 307 -111 452q-112 144 -351 144q-232 0 -349 -145q-118 -146 -118 -454q0 -288 114 -447q113 -159 353 -159zM541 76v-85
q135 0 230 42q94 41 149 135q54 93 68 218l-113 27q-13 -101 -51 -185q-40 -83 -114 -118q-74 -34 -169 -34zM839 -234q28 0 55 3t48 8t29 9l-5 68q-9 -4 -27.5 -9t-40 -8.5t-41.5 -3.5q-38 0 -56 16t-18 46q0 24 10.5 56t24.5 60.5t22 42.5h-67q-9 -14 -25 -43.5
t-28.5 -65.5t-12.5 -72q0 -41 18 -64.5t48 -33t66 -9.5z" />
    <glyph glyph-name="Ecaron" unicode="&#x11a;" horiz-adv-x="1044" 
d="M87 0h840v89h-715v562h676v86h-676v524h715v89h-840v-1350zM476 1398h86l191 159h-83l-150 -122l-150 122h-85z" />
    <glyph glyph-name="ecaron" unicode="&#x11b;" horiz-adv-x="1118" 
d="M541 -9v85q-165 0 -256 129q-91 127 -91 391q0 285 96 400q95 115 251 115q160 0 250 -111q82 -107 88 -363h-702v-81h824q2 22 2 44q0 307 -111 452q-112 144 -351 144q-232 0 -349 -145q-118 -146 -118 -454q0 -288 114 -447q113 -159 353 -159zM541 76v-85
q135 0 230 42q94 41 149 135q54 93 68 218l-113 27q-13 -101 -51 -185q-40 -83 -114 -118q-74 -34 -169 -34zM498 1232h86l191 159h-83l-150 -122l-150 122h-85z" />
    <glyph glyph-name="Gcircumflex" unicode="&#x11c;" horiz-adv-x="1205" 
d="M569 -8q341 3 405 234l13 -226h75v628h-460v-80h330l-1 -130q-2 -169 -87 -253t-265 -84q-190 0 -283.5 127t-93.5 467q0 354 93.5 475.5t284.5 121.5q186 0 270 -110.5t87 -319.5h125q-3 227 -111.5 373t-370.5 146q-273 0 -388.5 -156.5t-115.5 -526.5
q0 -367 114.5 -526.5t378.5 -159.5zM359 1400h85l150 122l150 -122h83l-191 159h-86z" />
    <glyph glyph-name="gcircumflex" unicode="&#x11d;" horiz-adv-x="1113" 
d="M526 -462q136 0 233 44t157 149t60 286v1167h-94l-30 -247v-930q0 -219 -87.5 -302.5t-234.5 -83.5q-90 0 -158.5 29.5t-107 93t-47.5 172.5h-122q13 -208 130.5 -293t300.5 -85zM479 -8q182 0 304.5 95t122.5 196l-54 85q0 -107 -98 -197t-238 -90q-146 0 -233 111
t-87 402t87 402t233 111q140 0 238 -89.5t98 -195.5l52 81q0 97 -122 195.5t-305 98.5q-197 0 -301.5 -143t-104.5 -460q0 -315 105.5 -458.5t302.5 -143.5zM306 1235h85l150 122l150 -122h83l-191 159h-86z" />
    <glyph glyph-name="Gbreve" unicode="&#x11e;" horiz-adv-x="1205" 
d="M569 -8q341 3 405 234l13 -226h75v628h-460v-80h330l-1 -130q-2 -169 -87 -253t-265 -84q-190 0 -283.5 127t-93.5 467q0 354 93.5 475.5t284.5 121.5q186 0 270 -110.5t87 -319.5h125q-3 227 -111.5 373t-370.5 146q-273 0 -388.5 -156.5t-115.5 -526.5
q0 -367 114.5 -526.5t378.5 -159.5zM592 1400q57 0 94 19.5t56 51t19 67.5h-68q0 -23 -9 -43.5t-31 -32.5t-61 -12q-35 0 -57 12.5t-32.5 32t-10.5 43.5h-67q0 -36 20.5 -67.5t57.5 -51t89 -19.5z" />
    <glyph glyph-name="gbreve" unicode="&#x11f;" horiz-adv-x="1113" 
d="M526 -462q136 0 233 44t157 149t60 286v1167h-94l-30 -247v-930q0 -219 -87.5 -302.5t-234.5 -83.5q-90 0 -158.5 29.5t-107 93t-47.5 172.5h-122q13 -208 130.5 -293t300.5 -85zM479 -8q182 0 304.5 95t122.5 196l-54 85q0 -107 -98 -197t-238 -90q-146 0 -233 111
t-87 402t87 402t233 111q140 0 238 -89.5t98 -195.5l52 81q0 97 -122 195.5t-305 98.5q-197 0 -301.5 -143t-104.5 -460q0 -315 105.5 -458.5t302.5 -143.5zM540 1234q57 0 94 19.5t56 51t19 67.5h-68q0 -23 -9 -43.5t-31 -32.5t-61 -12q-35 0 -57 12.5t-32.5 32t-10.5 43.5
h-67q0 -36 20.5 -67.5t57.5 -51t89 -19.5z" />
    <glyph glyph-name="Gdotaccent" unicode="&#x120;" horiz-adv-x="1205" 
d="M569 -8q341 3 405 234l13 -226h75v628h-460v-80h330l-1 -130q-2 -169 -87 -253t-265 -84q-190 0 -283.5 127t-93.5 467q0 354 93.5 475.5t284.5 121.5q186 0 270 -110.5t87 -319.5h125q-3 227 -111.5 373t-370.5 146q-273 0 -388.5 -156.5t-115.5 -526.5
q0 -367 114.5 -526.5t378.5 -159.5zM594 1416q23 0 39.5 17t16.5 41q0 23 -16.5 39.5t-39.5 16.5q-24 0 -41 -16.5t-17 -39.5q0 -24 17.5 -41t40.5 -17z" />
    <glyph glyph-name="gdotaccent" unicode="&#x121;" horiz-adv-x="1113" 
d="M526 -462q136 0 233 44t157 149t60 286v1167h-94l-30 -247v-930q0 -219 -87.5 -302.5t-234.5 -83.5q-90 0 -158.5 29.5t-107 93t-47.5 172.5h-122q13 -208 130.5 -293t300.5 -85zM479 -8q182 0 304.5 95t122.5 196l-54 85q0 -107 -98 -197t-238 -90q-146 0 -233 111
t-87 402t87 402t233 111q140 0 238 -89.5t98 -195.5l52 81q0 97 -122 195.5t-305 98.5q-197 0 -301.5 -143t-104.5 -460q0 -315 105.5 -458.5t302.5 -143.5zM541 1251q23 0 39.5 17t16.5 41q0 23 -16.5 39.5t-39.5 16.5q-24 0 -41 -16.5t-17 -39.5q0 -24 17.5 -41t40.5 -17z
" />
    <glyph glyph-name="uni0122" unicode="&#x122;" horiz-adv-x="1205" 
d="M569 -8q341 3 405 234l13 -226h75v628h-460v-80h330l-1 -130q-2 -169 -87 -253t-265 -84q-190 0 -283.5 127t-93.5 467q0 354 93.5 475.5t284.5 121.5q186 0 270 -110.5t87 -319.5h125q-3 227 -111.5 373t-370.5 146q-273 0 -388.5 -156.5t-115.5 -526.5
q0 -367 114.5 -526.5t378.5 -159.5zM502 -285h50l109 210h-82z" />
    <glyph glyph-name="uni0123" unicode="&#x123;" horiz-adv-x="1113" 
d="M526 -462q136 0 233 44t157 149t60 286v1167h-94l-30 -247v-930q0 -219 -87.5 -302.5t-234.5 -83.5q-90 0 -158.5 29.5t-107 93t-47.5 172.5h-122q13 -208 130.5 -293t300.5 -85zM479 -8q182 0 304.5 95t122.5 196l-54 85q0 -107 -98 -197t-238 -90q-146 0 -233 111
t-87 402t87 402t233 111q140 0 238 -89.5t98 -195.5l52 81q0 97 -122 195.5t-305 98.5q-197 0 -301.5 -143t-104.5 -460q0 -315 105.5 -458.5t302.5 -143.5zM475 1232h73l77 236h-44z" />
    <glyph glyph-name="Hcircumflex" unicode="&#x124;" horiz-adv-x="1148" 
d="M86 0h124v659h670v-659h124v1350h-124v-602h-670v602h-124v-1350zM338 1400h85l150 122l150 -122h83l-191 159h-86z" />
    <glyph glyph-name="hcircumflex" unicode="&#x125;" horiz-adv-x="1081" 
d="M110 0h123v1570h-123v-1570zM837 0h123v708q0 236 -88 362.5t-280 126.5q-187 0 -303 -115t-116 -254l58 -55q0 142 91 238.5t229 96.5q140 0 213 -95.5t73 -307.5v-705zM324 1542h85l150 122l150 -122h83l-191 159h-86z" />
    <glyph glyph-name="Hbar" unicode="&#x126;" horiz-adv-x="1103" 
d="M27 1043h1044v54h-1044v-54zM90 0h124v659h670v-659h124v1350h-124v-602h-670v602h-124v-1350z" />
    <glyph glyph-name="hbar" unicode="&#x127;" horiz-adv-x="1000" 
d="M-4 1367h565v67h-565v-67zM106 0h123v1570h-123v-1570zM833 0h123v708q0 236 -87.5 362.5t-280.5 126.5q-186 0 -302.5 -115t-116.5 -254l58 -55q0 142 91 238.5t229 96.5q140 0 213 -95.5t73 -307.5v-705z" />
    <glyph glyph-name="Itilde" unicode="&#x128;" horiz-adv-x="470" 
d="M149 0h123v1350h-123v-1350zM309 1439q33 0 55.5 8t37.5 20.5t24 27t13.5 28.5t3.5 24h-67q-1 -10 -9 -22.5t-24 -21t-39 -8.5q-31 0 -52 9t-39 22t-39.5 22t-55.5 9q-30 0 -53.5 -7t-39 -19t-25 -26.5t-14.5 -28.5t-7 -25h68q2 10 10 22.5t25 20.5t41 8q26 0 45 -9.5
t37.5 -22t42.5 -22t61 -9.5z" />
    <glyph glyph-name="itilde" unicode="&#x129;" horiz-adv-x="390" 
d="M111 0h124v1186h-124v-1186zM272 1274q33 0 55.5 8t37.5 20.5t24 27t13.5 28.5t3.5 24h-67q-1 -10 -9 -22.5t-24 -21t-39 -8.5q-31 0 -52 9t-39 22t-39.5 22t-55.5 9q-30 0 -53.5 -7t-39 -19t-25 -26.5t-14.5 -28.5t-7 -25h68q2 10 10 22.5t25 20.5t41 8q26 0 45 -9.5
t37.5 -22t42.5 -22t61 -9.5z" />
    <glyph glyph-name="Imacron" unicode="&#x12a;" horiz-adv-x="470" 
d="M149 0h123v1350h-123v-1350zM-57 1453h535v53h-535v-53z" />
    <glyph glyph-name="imacron" unicode="&#x12b;" horiz-adv-x="390" 
d="M12 1288h322v53h-322v-53zM111 0h124v1186h-124v-1186z" />
    <glyph glyph-name="Ibreve" unicode="&#x12c;" horiz-adv-x="470" 
d="M149 0h123v1350h-123v-1350zM210 1400q57 0 94 19.5t56 51t19 67.5h-68q0 -23 -9 -43.5t-31 -32.5t-61 -12q-35 0 -57 12.5t-32.5 32t-10.5 43.5h-67q0 -36 20.5 -67.5t57.5 -51t89 -19.5z" />
    <glyph glyph-name="ibreve" unicode="&#x12d;" horiz-adv-x="390" 
d="M111 0h124v1186h-124v-1186zM172 1234q57 0 94 19.5t56 51t19 67.5h-68q0 -23 -9 -43.5t-31 -32.5t-61 -12q-35 0 -57 12.5t-32.5 32t-10.5 43.5h-67q0 -36 20.5 -67.5t57.5 -51t89 -19.5z" />
    <glyph glyph-name="Iogonek" unicode="&#x12e;" horiz-adv-x="470" 
d="M149 0h123v1350h-123v-1350zM271 -288q28 0 55 3t48 8t29 9l-5 68q-9 -4 -27.5 -9t-40 -8.5t-41.5 -3.5q-38 0 -56 16t-18 46q0 24 10.5 56t24.5 60.5t22 42.5h-67q-9 -14 -25 -43.5t-28.5 -65.5t-12.5 -72q0 -41 18 -64.5t48 -33t66 -9.5z" />
    <glyph glyph-name="iogonek" unicode="&#x12f;" horiz-adv-x="390" 
d="M111 1490v-145h123v145h-123zM111 0h124v1186h-124v-1186zM234 -288q28 0 55 3t47.5 8t29.5 9l-5 68q-9 -4 -27.5 -9t-40.5 -8.5t-42 -3.5q-37 0 -55 16t-18 46q0 24 10 56t24 60.5t23 42.5h-67q-10 -14 -26 -43.5t-28.5 -65.5t-12.5 -72q0 -41 18.5 -64.5t48.5 -33
t66 -9.5z" />
    <glyph glyph-name="Idotaccent" unicode="&#x130;" horiz-adv-x="470" 
d="M149 0h123v1350h-123v-1350zM211 1416q23 0 39.5 17t16.5 41q0 23 -16.5 39.5t-39.5 16.5q-24 0 -41 -16.5t-17 -39.5q0 -24 17.5 -41t40.5 -17z" />
    <glyph glyph-name="dotlessi" unicode="&#x131;" horiz-adv-x="390" 
d="M111 0h124v1186h-124v-1186z" />
    <glyph glyph-name="IJ" unicode="&#x132;" horiz-adv-x="1578" 
d="M149 0h123v1350h-123v-1350zM981 -12q221 0 329 98.5t108 309.5v954h-124v-938q0 -177 -74.5 -256t-239.5 -79t-239.5 76.5t-74.5 245.5v211h-124v-225q0 -208 108 -302.5t331 -94.5z" />
    <glyph glyph-name="ij" unicode="&#x133;" horiz-adv-x="879" 
d="M141 0h124v1186h-124v-1186zM141 1490v-145h124v145h-124zM306 -459q197 0 300.5 87t103.5 315v1243h-123v-1247q0 -174 -73 -241.5t-208 -67.5v-89zM587 1490v-145h123v145h-123z" />
    <glyph glyph-name="Jcircumflex" unicode="&#x134;" horiz-adv-x="1109" 
d="M511 -12q221 0 329 98.5t108 309.5v954h-124v-938q0 -177 -74.5 -256t-239.5 -79t-239.5 76.5t-74.5 245.5v211h-124v-225q0 -208 108 -302.5t331 -94.5zM655 1400h85l150 122l150 -122h83l-191 159h-86z" />
    <glyph glyph-name="jcircumflex" unicode="&#x135;" horiz-adv-x="445" 
d="M-128 -459q197 0 300.5 87t103.5 315v1243h-123v-1247q0 -174 -73 -241.5t-208 -67.5v-89zM-18 1236h85l150 122l150 -122h83l-191 159h-86z" />
    <glyph glyph-name="uni0136" unicode="&#x136;" horiz-adv-x="1027" 
d="M86 0h124v640l601 -640h146l-631 674l627 676h-146l-597 -642v642h-124v-1350zM411 -285h50l109 210h-82z" />
    <glyph glyph-name="uni0137" unicode="&#x137;" horiz-adv-x="1034" 
d="M443 680l380 -680h137l-432 769zM110 0h123v464l220 213l73 71l417 438h-147l-563 -579v963h-123v-1570zM445 -285h50l109 210h-82z" />
    <glyph glyph-name="kgreenlandic" unicode="&#x138;" horiz-adv-x="1046" 
d="M106 0h124v1186h-124v-1186zM205 591l136 -2l632 597h-147zM829 0h147l-635 598l-136 -1z" />
    <glyph glyph-name="Lacute" unicode="&#x139;" horiz-adv-x="925" 
d="M86 0h742v89h-618v1261h-124v-1350zM345 1392h72l163 142h-99z" />
    <glyph glyph-name="lacute" unicode="&#x13a;" horiz-adv-x="400" 
d="M134 0h123v1570h-123v-1570zM79 1612h72l163 142h-99z" />
    <glyph glyph-name="uni013B" unicode="&#x13b;" horiz-adv-x="925" 
d="M86 0h742v89h-618v1261h-124v-1350zM372 -285h50l109 210h-82z" />
    <glyph glyph-name="uni013C" unicode="&#x13c;" horiz-adv-x="400" 
d="M134 0h123v1570h-123v-1570zM106 -285h50l109 210h-82z" />
    <glyph glyph-name="Lcaron" unicode="&#x13d;" horiz-adv-x="887" 
d="M783 1092h80l76 256h-87zM86 0h742v89h-618v1261h-124v-1350z" />
    <glyph glyph-name="lcaron" unicode="&#x13e;" horiz-adv-x="400" 
d="M134 0h123v1570h-123v-1570zM152 1618h86l191 159h-83l-150 -122l-150 122h-85z" />
    <glyph glyph-name="Ldot" unicode="&#x13f;" horiz-adv-x="967" 
d="M86 0h742v89h-618v1261h-124v-1350zM574 780v-150h117v150h-117z" />
    <glyph glyph-name="ldot" unicode="&#x140;" horiz-adv-x="506" 
d="M134 0h123v1570h-123v-1570zM332 789v-150h117v150h-117z" />
    <glyph glyph-name="Lslash" unicode="&#x141;" horiz-adv-x="1036" 
d="M35 416l534 450l-36 64l-534 -450zM167 0h742v89h-617v1261h-125v-1350z" />
    <glyph glyph-name="lslash" unicode="&#x142;" horiz-adv-x="408" 
d="M6 465l376 334v107l-376 -334v-107zM131 0h123v1570h-123v-1570z" />
    <glyph glyph-name="Nacute" unicode="&#x143;" horiz-adv-x="1262" 
d="M86 0h124v1257h4l705 -1257h199v1350h-124l-1 -1251h-3l-703 1251h-201v-1350zM503 1392h72l163 142h-99z" />
    <glyph glyph-name="nacute" unicode="&#x144;" horiz-adv-x="1080" 
d="M110 0h123v938l-25 246h-98v-1184zM835 0h123v704q0 237 -84 365t-276 128q-187 0 -307 -115t-120 -254l58 -55q0 142 95 238.5t233 96.5q140 0 209 -95.5t69 -307.5v-705zM410 1226h72l163 142h-99z" />
    <glyph glyph-name="uni0145" unicode="&#x145;" horiz-adv-x="1262" 
d="M86 0h124v1257h4l705 -1257h199v1350h-124l-1 -1251h-3l-703 1251h-201v-1350zM529 -285h50l109 210h-82z" />
    <glyph glyph-name="uni0146" unicode="&#x146;" horiz-adv-x="1080" 
d="M110 0h123v938l-25 246h-98v-1184zM835 0h123v704q0 237 -84 365t-276 128q-187 0 -307 -115t-120 -254l58 -55q0 142 95 238.5t233 96.5q140 0 209 -95.5t69 -307.5v-705zM436 -285h50l109 210h-82z" />
    <glyph glyph-name="Ncaron" unicode="&#x147;" horiz-adv-x="1262" 
d="M86 0h124v1257h4l705 -1257h199v1350h-124l-1 -1251h-3l-703 1251h-201v-1350zM576 1398h86l191 159h-83l-150 -122l-150 122h-85z" />
    <glyph glyph-name="ncaron" unicode="&#x148;" horiz-adv-x="1080" 
d="M110 0h123v938l-25 246h-98v-1184zM835 0h123v704q0 237 -84 365t-276 128q-187 0 -307 -115t-120 -254l58 -55q0 142 95 238.5t233 96.5q140 0 209 -95.5t69 -307.5v-705zM484 1232h86l191 159h-83l-150 -122l-150 122h-85z" />
    <glyph glyph-name="Eng" unicode="&#x14a;" horiz-adv-x="1265" 
d="M673 -439q113 0 197 28t140 83.5t83.5 138t27.5 189.5h-128q0 -77 -12.5 -141.5t-47 -112t-97 -73.5t-163.5 -26v-86zM86 0h124v1257h4l705 -1257h199v1350h-124l-1 -1251h-3l-703 1251h-201v-1350z" />
    <glyph glyph-name="eng" unicode="&#x14b;" horiz-adv-x="1080" 
d="M513 -411q111 0 195 20.5t140 68t83.5 126.5t27.5 196h-123q0 -104 -36.5 -177.5t-108.5 -112t-178 -38.5v-83zM110 0h123v938l-25 246h-98v-1184zM835 0h123v704q0 237 -84 365t-276 128q-187 0 -307 -115t-120 -254l58 -55q0 142 95 238.5t233 96.5q140 0 209 -95.5
t69 -307.5v-705z" />
    <glyph glyph-name="Omacron" unicode="&#x14c;" horiz-adv-x="1250" 
d="M614 -9q263 0 401 159t138 525t-138 526t-401 160t-400.5 -159.5t-137.5 -526.5q0 -366 138 -525t400 -159zM614 80q-182 0 -298 124t-116 471q0 348 116 472t298 124q183 0 298.5 -124t115.5 -472q0 -347 -115.5 -471t-298.5 -124zM349 1453h535v53h-535v-53z" />
    <glyph glyph-name="omacron" unicode="&#x14d;" horiz-adv-x="1123" 
d="M544 -8q230 0 351.5 142.5t121.5 459.5q0 319 -121.5 461t-351.5 142t-351.5 -142t-121.5 -461q0 -317 121.5 -459.5t351.5 -142.5zM544 80q-152 0 -251 111t-99 403t99 403.5t251 111.5t250.5 -111.5t98.5 -403.5t-98.5 -403t-250.5 -111zM276 1289h535v53h-535v-53z
" />
    <glyph glyph-name="Obreve" unicode="&#x14e;" horiz-adv-x="1250" 
d="M614 -9q263 0 401 159t138 525t-138 526t-401 160t-400.5 -159.5t-137.5 -526.5q0 -366 138 -525t400 -159zM614 80q-182 0 -298 124t-116 471q0 348 116 472t298 124q183 0 298.5 -124t115.5 -472q0 -347 -115.5 -471t-298.5 -124zM616 1400q57 0 94 19.5t56 51t19 67.5
h-68q0 -23 -9 -43.5t-31 -32.5t-61 -12q-35 0 -57 12.5t-32.5 32t-10.5 43.5h-67q0 -36 20.5 -67.5t57.5 -51t89 -19.5z" />
    <glyph glyph-name="obreve" unicode="&#x14f;" horiz-adv-x="1123" 
d="M544 -8q230 0 351.5 142.5t121.5 459.5q0 319 -121.5 461t-351.5 142t-351.5 -142t-121.5 -461q0 -317 121.5 -459.5t351.5 -142.5zM544 80q-152 0 -251 111t-99 403t99 403.5t251 111.5t250.5 -111.5t98.5 -403.5t-98.5 -403t-250.5 -111zM543 1236q57 0 94 19.5t56 51
t19 67.5h-68q0 -23 -9 -43.5t-31 -32.5t-61 -12q-35 0 -57 12.5t-32.5 32t-10.5 43.5h-67q0 -36 20.5 -67.5t57.5 -51t89 -19.5z" />
    <glyph glyph-name="Ohungarumlaut" unicode="&#x150;" horiz-adv-x="1250" 
d="M614 -9q263 0 401 159t138 525t-138 526t-401 160t-400.5 -159.5t-137.5 -526.5q0 -366 138 -525t400 -159zM614 80q-182 0 -298 124t-116 471q0 348 116 472t298 124q183 0 298.5 -124t115.5 -472q0 -347 -115.5 -471t-298.5 -124zM597 1424h67l146 129h-92zM422 1424
h67l142 129h-90z" />
    <glyph glyph-name="ohungarumlaut" unicode="&#x151;" horiz-adv-x="1123" 
d="M544 -8q230 0 351.5 142.5t121.5 459.5q0 319 -121.5 461t-351.5 142t-351.5 -142t-121.5 -461q0 -317 121.5 -459.5t351.5 -142.5zM544 80q-152 0 -251 111t-99 403t99 403.5t251 111.5t250.5 -111.5t98.5 -403.5t-98.5 -403t-250.5 -111zM525 1260h67l146 129h-92z
M350 1260h67l142 129h-90z" />
    <glyph glyph-name="OE" unicode="&#x152;" horiz-adv-x="1988" 
d="M614 -9q263 0 401 159t138 525t-138 526t-401 160t-400.5 -159.5t-137.5 -526.5q0 -366 138 -525t400 -159zM614 80q-182 0 -298 124t-116 471q0 348 116 472t298 124q183 0 298.5 -124t115.5 -472q0 -347 -115.5 -471t-298.5 -124zM1031 0h840v89h-715v562h676v86h-676
v524h715v89h-840v-1350z" />
    <glyph glyph-name="oe" unicode="&#x153;" horiz-adv-x="1938" 
d="M544 -8q230 0 351.5 142.5t121.5 459.5q0 319 -121.5 461t-351.5 142t-351.5 -142t-121.5 -461q0 -317 121.5 -459.5t351.5 -142.5zM544 80q-152 0 -251 111t-99 403t99 403.5t251 111.5t250.5 -111.5t98.5 -403.5t-98.5 -403t-250.5 -111zM1362 -9v85q-165 0 -256 129
q-91 127 -91 391q0 285 96 400q95 115 251 115q160 0 250 -111q82 -107 88 -363h-702v-81h824q2 22 2 44q0 307 -111 452q-112 144 -351 144q-232 0 -349 -145q-118 -146 -118 -454q0 -288 114 -447q113 -159 353 -159zM1362 76v-85q135 0 230 42q94 41 149 135
q54 93 68 218l-113 27q-13 -101 -51 -185q-40 -83 -114 -118q-74 -34 -169 -34z" />
    <glyph glyph-name="Racute" unicode="&#x154;" horiz-adv-x="1096" 
d="M86 0h125v608h462q182 0 247.5 106.5t65.5 261.5q0 157 -64 265.5t-245 108.5h-591v-1350zM855 0h136l-268 654l-126 -12zM211 690v571h430q125 0 172 -79t47 -207q0 -127 -46.5 -206t-172.5 -79h-430zM415 1392h72l163 142h-99z" />
    <glyph glyph-name="racute" unicode="&#x155;" horiz-adv-x="1033" 
d="M788 651h124q0 287 -75.5 415.5t-258.5 128.5t-288.5 -102.5t-105.5 -246.5l48 -44q0 117 80.5 210.5t223.5 93.5q127 0 189.5 -99.5t62.5 -355.5zM110 0h123v941l-25 243h-98v-1184zM428 1226h72l163 142h-99z" />
    <glyph glyph-name="uni0156" unicode="&#x156;" horiz-adv-x="1096" 
d="M86 0h125v608h462q182 0 247.5 106.5t65.5 261.5q0 157 -64 265.5t-245 108.5h-591v-1350zM855 0h136l-268 654l-126 -12zM211 690v571h430q125 0 172 -79t47 -207q0 -127 -46.5 -206t-172.5 -79h-430zM441 -285h50l109 210h-82z" />
    <glyph glyph-name="uni0157" unicode="&#x157;" horiz-adv-x="1033" 
d="M788 651h124q0 287 -75.5 415.5t-258.5 128.5t-288.5 -102.5t-105.5 -246.5l48 -44q0 117 80.5 210.5t223.5 93.5q127 0 189.5 -99.5t62.5 -355.5zM110 0h123v941l-25 243h-98v-1184zM337 -285h50l109 210h-82z" />
    <glyph glyph-name="Rcaron" unicode="&#x158;" horiz-adv-x="1096" 
d="M86 0h125v608h462q182 0 247.5 106.5t65.5 261.5q0 157 -64 265.5t-245 108.5h-591v-1350zM855 0h136l-268 654l-126 -12zM211 690v571h430q125 0 172 -79t47 -207q0 -127 -46.5 -206t-172.5 -79h-430zM488 1398h86l191 159h-83l-150 -122l-150 122h-85z" />
    <glyph glyph-name="rcaron" unicode="&#x159;" horiz-adv-x="1033" 
d="M788 651h124q0 287 -75.5 415.5t-258.5 128.5t-288.5 -102.5t-105.5 -246.5l48 -44q0 117 80.5 210.5t223.5 93.5q127 0 189.5 -99.5t62.5 -355.5zM110 0h123v941l-25 243h-98v-1184zM503 1232h86l191 159h-83l-150 -122l-150 122h-85z" />
    <glyph glyph-name="Sacute" unicode="&#x15a;" horiz-adv-x="1138" 
d="M435 1466h72l163 142h-99zM546 -9q260 0 369 103.5t109 254.5q0 172 -105.5 242.5t-337.5 133.5q-188 49 -290 109.5t-102 191.5q0 105 89.5 175.5t265.5 70.5t265 -81.5t89 -336.5h126q0 274 -107 390.5t-372 116.5q-257 0 -367.5 -101.5t-110.5 -246.5
q0 -165 105.5 -240t332.5 -136q190 -50 293 -107t103 -196q0 -114 -89.5 -184t-266.5 -70q-179 0 -266.5 83t-87.5 346h-125q0 -289 106 -403.5t374 -114.5z" />
    <glyph glyph-name="sacute" unicode="&#x15b;" horiz-adv-x="1077" 
d="M538 -8q215 0 322.5 78t107.5 222q0 175 -115.5 241t-285.5 108q-153 40 -252.5 87.5t-99.5 167.5q0 98 73.5 156t224.5 58q154 0 237.5 -76t97.5 -232l111 34q-20 192 -130.5 275.5t-314.5 83.5q-203 0 -312.5 -79t-109.5 -220q0 -163 108 -230.5t277 -111.5
q157 -41 262.5 -89t105.5 -181q0 -91 -75 -149t-230 -58q-156 0 -244 73.5t-102 251.5l-111 -34q22 -214 137.5 -295t317.5 -81zM411 1226h72l163 142h-99z" />
    <glyph glyph-name="Scircumflex" unicode="&#x15c;" horiz-adv-x="1138" 
d="M546 -9q260 0 369 103.5t109 254.5q0 172 -105.5 242.5t-337.5 133.5q-188 49 -290 109.5t-102 191.5q0 105 89.5 175.5t265.5 70.5t265 -81.5t89 -336.5h126q0 274 -107 390.5t-372 116.5q-257 0 -367.5 -101.5t-110.5 -246.5q0 -165 105.5 -240t332.5 -136
q190 -50 293 -107t103 -196q0 -114 -89.5 -184t-266.5 -70q-179 0 -266.5 83t-87.5 346h-125q0 -289 106 -403.5t374 -114.5zM316 1400h85l150 122l150 -122h83l-191 159h-86z" />
    <glyph glyph-name="scircumflex" unicode="&#x15d;" horiz-adv-x="1077" 
d="M538 -8q215 0 322.5 78t107.5 222q0 175 -115.5 241t-285.5 108q-153 40 -252.5 87.5t-99.5 167.5q0 98 73.5 156t224.5 58q154 0 237.5 -76t97.5 -232l111 34q-20 192 -130.5 275.5t-314.5 83.5q-203 0 -312.5 -79t-109.5 -220q0 -163 108 -230.5t277 -111.5
q157 -41 262.5 -89t105.5 -181q0 -91 -75 -149t-230 -58q-156 0 -244 73.5t-102 251.5l-111 -34q22 -214 137.5 -295t317.5 -81zM294 1235h85l150 122l150 -122h83l-191 159h-86z" />
    <glyph glyph-name="Scedilla" unicode="&#x15e;" horiz-adv-x="1138" 
d="M553 -265q38 0 72.5 7t61.5 22t42.5 37.5t15.5 53.5q0 44 -30.5 63.5t-75.5 19.5q-36 0 -69.5 -10t-51.5 -24l-2 -31q22 10 46.5 17t46.5 7q25 0 41 -10t16 -32q0 -30 -28 -44.5t-84 -14.5q-31 0 -58 3.5t-48 8.5l-20 -59q27 -5 59 -9.5t66 -4.5zM516 -127l42 125h-57
l-35 -114zM546 -9q260 0 369 103.5t109 254.5q0 172 -105.5 242.5t-337.5 133.5q-188 49 -290 109.5t-102 191.5q0 105 89.5 175.5t265.5 70.5t265 -81.5t89 -336.5h126q0 274 -107 390.5t-372 116.5q-257 0 -367.5 -101.5t-110.5 -246.5q0 -165 105.5 -240t332.5 -136
q190 -50 293 -107t103 -196q0 -114 -89.5 -184t-266.5 -70q-179 0 -266.5 83t-87.5 346h-125q0 -289 106 -403.5t374 -114.5z" />
    <glyph glyph-name="scedilla" unicode="&#x15f;" horiz-adv-x="1077" 
d="M538 -8q215 0 322.5 78t107.5 222q0 175 -115.5 241t-285.5 108q-153 40 -252.5 87.5t-99.5 167.5q0 98 73.5 156t224.5 58q154 0 237.5 -76t97.5 -232l111 34q-20 192 -130.5 275.5t-314.5 83.5q-203 0 -312.5 -79t-109.5 -220q0 -163 108 -230.5t277 -111.5
q157 -41 262.5 -89t105.5 -181q0 -91 -75 -149t-230 -58q-156 0 -244 73.5t-102 251.5l-111 -34q22 -214 137.5 -295t317.5 -81zM554 -263q38 0 72.5 7t61.5 22t42.5 37.5t15.5 53.5q0 44 -30.5 63.5t-75.5 19.5q-36 0 -69.5 -10t-51.5 -24l-2 -31q22 10 46.5 17t46.5 7
q25 0 41 -10t16 -32q0 -30 -28 -44.5t-84 -14.5q-31 0 -58 3.5t-48 8.5l-20 -59q27 -5 59 -9.5t66 -4.5zM517 -125l42 125h-57l-35 -114z" />
    <glyph glyph-name="Scaron" unicode="&#x160;" horiz-adv-x="1138" 
d="M495 1457h86l191 159h-83l-150 -122l-150 122h-85zM546 -9q260 0 369 103.5t109 254.5q0 172 -105.5 242.5t-337.5 133.5q-188 49 -290 109.5t-102 191.5q0 105 89.5 175.5t265.5 70.5t265 -81.5t89 -336.5h126q0 274 -107 390.5t-372 116.5q-257 0 -367.5 -101.5
t-110.5 -246.5q0 -165 105.5 -240t332.5 -136q190 -50 293 -107t103 -196q0 -114 -89.5 -184t-266.5 -70q-179 0 -266.5 83t-87.5 346h-125q0 -289 106 -403.5t374 -114.5z" />
    <glyph glyph-name="scaron" unicode="&#x161;" horiz-adv-x="1077" 
d="M538 -8q215 0 322.5 78t107.5 222q0 175 -115.5 241t-285.5 108q-153 40 -252.5 87.5t-99.5 167.5q0 98 73.5 156t224.5 58q154 0 237.5 -76t97.5 -232l111 34q-20 192 -130.5 275.5t-314.5 83.5q-203 0 -312.5 -79t-109.5 -220q0 -163 108 -230.5t277 -111.5
q157 -41 262.5 -89t105.5 -181q0 -91 -75 -149t-230 -58q-156 0 -244 73.5t-102 251.5l-111 -34q22 -214 137.5 -295t317.5 -81zM485 1233h86l191 159h-83l-150 -122l-150 122h-85z" />
    <glyph glyph-name="uni0162" unicode="&#x162;" horiz-adv-x="1108" 
d="M488 0h124v1261h420v89h-965v-89h421v-1261zM576 -263q38 0 72.5 7t61.5 22t42.5 37.5t15.5 53.5q0 44 -30.5 63.5t-75.5 19.5q-36 0 -69.5 -10t-51.5 -24l-2 -31q22 10 46.5 17t46.5 7q25 0 41 -10t16 -32q0 -30 -28 -44.5t-84 -14.5q-31 0 -58 3.5t-48 8.5l-20 -59
q27 -5 59 -9.5t66 -4.5zM539 -125l42 125h-57l-35 -114z" />
    <glyph glyph-name="uni0163" unicode="&#x163;" horiz-adv-x="941" 
d="M576 -12q95 0 181 23v86q-68 -21 -141 -21q-87 0 -134.5 38.5t-47.5 155.5v825h408v89h-408v267h-123v-267h-282v-89h282v-857q0 -146 75 -198t190 -52zM565 -260q38 0 72.5 7t61.5 22t42.5 37.5t15.5 53.5q0 44 -30.5 63.5t-75.5 19.5q-36 0 -69.5 -10t-51.5 -24l-2 -31
q22 10 46.5 17t46.5 7q25 0 41 -10t16 -32q0 -30 -28 -44.5t-84 -14.5q-31 0 -58 3.5t-48 8.5l-20 -59q27 -5 59 -9.5t66 -4.5zM528 -122l42 125h-57l-35 -114z" />
    <glyph glyph-name="Tcaron" unicode="&#x164;" horiz-adv-x="1108" 
d="M488 0h124v1261h420v89h-965v-89h421v-1261zM510 1398h86l191 159h-83l-150 -122l-150 122h-85z" />
    <glyph glyph-name="tcaron" unicode="&#x165;" horiz-adv-x="962" 
d="M862 1238h62l38 205h-72zM576 -12q95 0 181 23v86q-68 -21 -141 -21q-87 0 -134.5 38.5t-47.5 155.5v825h408v89h-408v267h-123v-267h-282v-89h282v-857q0 -146 75 -198t190 -52z" />
    <glyph glyph-name="Tbar" unicode="&#x166;" horiz-adv-x="1108" 
d="M139 819h821v79h-821v-79zM488 0h124v1261h420v89h-965v-89h421v-1261z" />
    <glyph glyph-name="tbar" unicode="&#x167;" horiz-adv-x="926" 
d="M73 633h605v72h-605v-72zM576 -12q95 0 181 23v86q-68 -21 -141 -21q-87 0 -134.5 38.5t-47.5 155.5v825h408v89h-408v267h-123v-267h-282v-89h282v-857q0 -146 75 -198t190 -52z" />
    <glyph glyph-name="Utilde" unicode="&#x168;" horiz-adv-x="1219" 
d="M592 -9q234 0 359 95t125 319v944h-124v-925q0 -187 -91.5 -265t-268.5 -78t-268.5 78t-91.5 265v925h-124v-944q0 -224 125 -319t359 -95zM695 1439q33 0 55.5 8t37.5 20.5t24 27t13.5 28.5t3.5 24h-67q-1 -10 -9 -22.5t-24 -21t-39 -8.5q-31 0 -52 9t-39 22t-39.5 22
t-55.5 9q-30 0 -53.5 -7t-39 -19t-25 -26.5t-14.5 -28.5t-7 -25h68q2 10 10 22.5t25 20.5t41 8q26 0 45 -9.5t37.5 -22t42.5 -22t61 -9.5z" />
    <glyph glyph-name="utilde" unicode="&#x169;" horiz-adv-x="1086" 
d="M850 0h98v1184h-123v-977zM220 1186h-123v-708q0 -235 83.5 -362t276.5 -127q192 0 310.5 115.5t118.5 253.5l-60 54q0 -142 -95 -238t-234 -96q-140 0 -208.5 95.5t-68.5 307.5v705zM625 1274q33 0 55.5 8t37.5 20.5t24 27t13.5 28.5t3.5 24h-67q-1 -10 -9 -22.5
t-24 -21t-39 -8.5q-31 0 -52 9t-39 22t-39.5 22t-55.5 9q-30 0 -53.5 -7t-39 -19t-25 -26.5t-14.5 -28.5t-7 -25h68q2 10 10 22.5t25 20.5t41 8q26 0 45 -9.5t37.5 -22t42.5 -22t61 -9.5z" />
    <glyph glyph-name="Umacron" unicode="&#x16a;" horiz-adv-x="1219" 
d="M592 -9q234 0 359 95t125 319v944h-124v-925q0 -187 -91.5 -265t-268.5 -78t-268.5 78t-91.5 265v925h-124v-944q0 -224 125 -319t359 -95zM329 1453h535v53h-535v-53z" />
    <glyph glyph-name="umacron" unicode="&#x16b;" horiz-adv-x="1086" 
d="M850 0h98v1184h-123v-977zM220 1186h-123v-708q0 -235 83.5 -362t276.5 -127q192 0 310.5 115.5t118.5 253.5l-60 54q0 -142 -95 -238t-234 -96q-140 0 -208.5 95.5t-68.5 307.5v705zM258 1287h535v53h-535v-53z" />
    <glyph glyph-name="Ubreve" unicode="&#x16c;" horiz-adv-x="1219" 
d="M592 -9q234 0 359 95t125 319v944h-124v-925q0 -187 -91.5 -265t-268.5 -78t-268.5 78t-91.5 265v925h-124v-944q0 -224 125 -319t359 -95zM595 1400q57 0 94 19.5t56 51t19 67.5h-68q0 -23 -9 -43.5t-31 -32.5t-61 -12q-35 0 -57 12.5t-32.5 32t-10.5 43.5h-67
q0 -36 20.5 -67.5t57.5 -51t89 -19.5z" />
    <glyph glyph-name="ubreve" unicode="&#x16d;" horiz-adv-x="1086" 
d="M850 0h98v1184h-123v-977zM220 1186h-123v-708q0 -235 83.5 -362t276.5 -127q192 0 310.5 115.5t118.5 253.5l-60 54q0 -142 -95 -238t-234 -96q-140 0 -208.5 95.5t-68.5 307.5v705zM525 1234q57 0 94 19.5t56 51t19 67.5h-68q0 -23 -9 -43.5t-31 -32.5t-61 -12
q-35 0 -57 12.5t-32.5 32t-10.5 43.5h-67q0 -36 20.5 -67.5t57.5 -51t89 -19.5z" />
    <glyph glyph-name="Uring" unicode="&#x16e;" horiz-adv-x="1219" 
d="M592 -9q234 0 359 95t125 319v944h-124v-925q0 -187 -91.5 -265t-268.5 -78t-268.5 78t-91.5 265v925h-124v-944q0 -224 125 -319t359 -95zM596 1385q42 0 69 28.5t27 69.5q0 40 -27 67.5t-69 27.5q-41 0 -68 -27.5t-27 -67.5q0 -41 27.5 -69.5t67.5 -28.5zM596 1438
q-16 0 -29 13t-13 32t13 30.5t29 11.5q18 0 30.5 -11.5t12.5 -30.5t-12.5 -32t-30.5 -13z" />
    <glyph glyph-name="uring" unicode="&#x16f;" horiz-adv-x="1086" 
d="M850 0h98v1184h-123v-977zM220 1186h-123v-708q0 -235 83.5 -362t276.5 -127q192 0 310.5 115.5t118.5 253.5l-60 54q0 -142 -95 -238t-234 -96q-140 0 -208.5 95.5t-68.5 307.5v705zM526 1219q42 0 69 28.5t27 69.5q0 40 -27 67.5t-69 27.5q-41 0 -68 -27.5t-27 -67.5
q0 -41 27.5 -69.5t67.5 -28.5zM526 1272q-16 0 -29 13t-13 32t13 30.5t29 11.5q18 0 30.5 -11.5t12.5 -30.5t-12.5 -32t-30.5 -13z" />
    <glyph glyph-name="Uhungarumlaut" unicode="&#x170;" horiz-adv-x="1219" 
d="M592 -9q234 0 359 95t125 319v944h-124v-925q0 -187 -91.5 -265t-268.5 -78t-268.5 78t-91.5 265v925h-124v-944q0 -224 125 -319t359 -95zM577 1424h67l146 129h-92zM402 1424h67l142 129h-90z" />
    <glyph glyph-name="uhungarumlaut" unicode="&#x171;" horiz-adv-x="1086" 
d="M850 0h98v1184h-123v-977zM220 1186h-123v-708q0 -235 83.5 -362t276.5 -127q192 0 310.5 115.5t118.5 253.5l-60 54q0 -142 -95 -238t-234 -96q-140 0 -208.5 95.5t-68.5 307.5v705zM506 1258h67l146 129h-92zM331 1258h67l142 129h-90z" />
    <glyph glyph-name="Uogonek" unicode="&#x172;" horiz-adv-x="1219" 
d="M592 -9q234 0 359 95t125 319v944h-124v-925q0 -187 -91.5 -265t-268.5 -78t-268.5 78t-91.5 265v925h-124v-944q0 -224 125 -319t359 -95zM594 -288q28 0 55 3t48 8t29 9l-5 68q-9 -4 -27.5 -9t-40 -8.5t-41.5 -3.5q-38 0 -56 16t-18 46q0 24 10.5 56t24.5 60.5t22 42.5
h-67q-9 -14 -25 -43.5t-28.5 -65.5t-12.5 -72q0 -41 18 -64.5t48 -33t66 -9.5z" />
    <glyph glyph-name="uogonek" unicode="&#x173;" horiz-adv-x="1086" 
d="M850 0h98v1184h-123v-977zM220 1186h-123v-708q0 -235 83.5 -362t276.5 -127q192 0 310.5 115.5t118.5 253.5l-60 54q0 -142 -95 -238t-234 -96q-140 0 -208.5 95.5t-68.5 307.5v705zM947 -288q28 0 55 3t48 8t29 9l-5 68q-9 -4 -27.5 -9t-40 -8.5t-41.5 -3.5
q-38 0 -56 16t-18 46q0 24 10.5 56t24.5 60.5t22 42.5h-67q-9 -14 -25 -43.5t-28.5 -65.5t-12.5 -72q0 -41 18 -64.5t48 -33t66 -9.5z" />
    <glyph glyph-name="Wcircumflex" unicode="&#x174;" horiz-adv-x="1698" 
d="M342 0h192l300 1261h3l300 -1261h192l277 1350h-135l-243 -1255h-3l-305 1255h-169l-304 -1255h-4l-241 1255h-134zM615 1400h85l150 122l150 -122h83l-191 159h-86z" />
    <glyph glyph-name="wcircumflex" unicode="&#x175;" horiz-adv-x="1489" 
d="M317 0h173l247 1062l250 -1062h172l240 1184h-128l-200 -1097h-2l-266 1097h-131l-262 -1098h-2l-207 1098h-128zM501 1235h85l150 122l150 -122h83l-191 159h-86z" />
    <glyph glyph-name="Ycircumflex" unicode="&#x176;" horiz-adv-x="1174" 
d="M513 0h124v547l461 803h-136l-386 -695h-1l-386 695h-137l461 -802v-548zM343 1400h85l150 122l150 -122h83l-191 159h-86z" />
    <glyph glyph-name="ycircumflex" unicode="&#x177;" horiz-adv-x="989" 
d="M393 0h188l350 1184h-130l-313 -1094h-2l-316 1094h-129zM66 -459q186 0 311 93t204 366h-116q-64 -222 -157.5 -296.5t-241.5 -74.5v-88zM251 1235h85l150 122l150 -122h83l-191 159h-86z" />
    <glyph glyph-name="Ydieresis" unicode="&#x178;" horiz-adv-x="1174" 
d="M513 0h124v547l461 803h-136l-386 -695h-1l-386 695h-137l461 -802v-548zM448 1422q23 0 39.5 16.5t16.5 39.5q0 25 -16.5 41t-39.5 16q-25 0 -41 -16t-16 -41q0 -23 16 -39.5t41 -16.5zM706 1422q24 0 40.5 16.5t16.5 39.5q0 25 -16.5 41t-40.5 16q-23 0 -39.5 -16
t-16.5 -41q0 -23 16 -39.5t40 -16.5z" />
    <glyph glyph-name="Zacute" unicode="&#x179;" horiz-adv-x="1052" 
d="M72 0h871v90h-732l696 1170v90h-826v-89h687l-696 -1167v-94zM409 1392h72l163 142h-99z" />
    <glyph glyph-name="zacute" unicode="&#x17a;" horiz-adv-x="919" 
d="M70 0h750v89h-604v4l592 998v93h-729v-88h588v-2l-597 -1002v-92zM330 1226h72l163 142h-99z" />
    <glyph glyph-name="Zdotaccent" unicode="&#x17b;" horiz-adv-x="1052" 
d="M72 0h871v90h-732l696 1170v90h-826v-89h687l-696 -1167v-94zM527 1416q23 0 39.5 17t16.5 41q0 23 -16.5 39.5t-39.5 16.5q-24 0 -41 -16.5t-17 -39.5q0 -24 17.5 -41t40.5 -17z" />
    <glyph glyph-name="zdotaccent" unicode="&#x17c;" horiz-adv-x="919" 
d="M70 0h750v89h-604v4l592 998v93h-729v-88h588v-2l-597 -1002v-92zM449 1251q23 0 39.5 17t16.5 41q0 23 -16.5 39.5t-39.5 16.5q-24 0 -41 -16.5t-17 -39.5q0 -24 17.5 -41t40.5 -17z" />
    <glyph glyph-name="Zcaron" unicode="&#x17d;" horiz-adv-x="1052" 
d="M72 0h871v90h-732l696 1170v90h-826v-89h687l-696 -1167v-94zM482 1398h86l191 159h-83l-150 -122l-150 122h-85z" />
    <glyph glyph-name="zcaron" unicode="&#x17e;" horiz-adv-x="919" 
d="M70 0h750v89h-604v4l592 998v93h-729v-88h588v-2l-597 -1002v-92zM405 1232h86l191 159h-83l-150 -122l-150 122h-85z" />
    <glyph glyph-name="uni018F" unicode="&#x18f;" horiz-adv-x="1103" 
d="M538 -9v0q233 0 350 159q118 160 118 525q0 344 -113 514q-114 171 -356 171v-85q171 0 260 -142q89 -141 89 -460q0 -344 -94 -471q-95 -127 -254 -127q-156 0 -248 124q-88 121 -90 433h702v82h-824q-2 -20 -2 -45q0 -361 112 -519q112 -159 350 -159zM204 935v0
q2 82 29 145.5t72 106.5t104.5 65.5t127.5 22.5l9 50l-9 35q-73 0 -139 -15.5t-120 -47t-94.5 -78.5t-64.5 -110.5t-27 -140.5z" />
    <glyph glyph-name="florin" unicode="&#x192;" horiz-adv-x="919" 
d="M-208 -413h61q128 0 220 32t146 98.5t69 166.5l160 1212h420l14 88h-420l14 108q18 94 107.5 146.5t259.5 52.5h89l13 84h-87q-149 0 -255.5 -30t-168.5 -92t-80 -159l-15 -110h-242l-14 -88h242l-160 -1210q-14 -105 -87 -160t-211 -55h-61z" />
    <glyph glyph-name="Ohorn" unicode="&#x1a0;" horiz-adv-x="1250" 
d="M614 -9q263 0 401 159t138 525t-138 526t-401 160t-400.5 -159.5t-137.5 -526.5q0 -366 138 -525t400 -159zM614 80q-182 0 -298 124t-116 471q0 348 116 472t298 124q183 0 298.5 -124t115.5 -472q0 -347 -115.5 -471t-298.5 -124zM974 1217v-48q102 0 164.5 19.5
t93 61.5t30.5 109h-78q0 -52 -18.5 -83t-64 -45t-127.5 -14z" />
    <glyph glyph-name="ohorn" unicode="&#x1a1;" horiz-adv-x="1123" 
d="M544 -8q230 0 351.5 142.5t121.5 459.5q0 319 -121.5 461t-351.5 142t-351.5 -142t-121.5 -461q0 -317 121.5 -459.5t351.5 -142.5zM544 80q-152 0 -251 111t-99 403t99 403.5t251 111.5t250.5 -111.5t98.5 -403.5t-98.5 -403t-250.5 -111zM870 1073v-48
q102 0 164.5 19.5t93 61.5t30.5 109h-78q0 -52 -18.5 -83t-64 -45t-127.5 -14z" />
    <glyph glyph-name="Uhorn" unicode="&#x1af;" horiz-adv-x="1219" 
d="M592 -9q234 0 359 95t125 319v944h-124v-925q0 -187 -91.5 -265t-268.5 -78t-268.5 78t-91.5 265v925h-124v-944q0 -224 125 -319t359 -95zM1074 1242v-48q102 0 164.5 19.5t93 61.5t30.5 109h-78q0 -52 -18.5 -83t-64 -45t-127.5 -14z" />
    <glyph glyph-name="uhorn" unicode="&#x1b0;" horiz-adv-x="1086" 
d="M850 0h98v1184h-123v-977zM220 1186h-123v-708q0 -235 83.5 -362t276.5 -127q192 0 310.5 115.5t118.5 253.5l-60 54q0 -142 -95 -238t-234 -96q-140 0 -208.5 95.5t-68.5 307.5v705zM941 1185v-48q102 0 164.5 19.5t93 61.5t30.5 109h-78q0 -52 -18.5 -83t-64 -45
t-127.5 -14z" />
    <glyph glyph-name="uni01C4" unicode="&#x1c4;" horiz-adv-x="2189" 
d="M86 0h494q239 0 349 143.5t110 531.5q0 389 -109.5 532t-349.5 143h-494v-1350zM210 89v1172h337q184 0 276 -113.5t92 -472.5q0 -358 -92 -472t-276 -114h-337zM1209 0h871v90h-732l696 1170v90h-826v-89h687l-696 -1167v-94zM1619 1398h86l191 159h-83l-150 -122
l-150 122h-85z" />
    <glyph glyph-name="uni01C5" unicode="&#x1c5;" horiz-adv-x="2056" 
d="M86 0h494q239 0 349 143.5t110 531.5q0 389 -109.5 532t-349.5 143h-494v-1350zM210 89v1172h337q184 0 276 -113.5t92 -472.5q0 -358 -92 -472t-276 -114h-337zM1207 0h750v89h-604v4l592 998v93h-729v-88h588v-2l-597 -1002v-92zM1542 1232h86l191 159h-83l-150 -122
l-150 122h-85z" />
    <glyph glyph-name="uni01C6" unicode="&#x1c6;" horiz-adv-x="2012" 
d="M860 0h115v1570h-123v-1364zM477 -8q183 0 305 97t122 194l-52 85q0 -107 -98 -197t-238 -90q-146 0 -233 111t-87 402t87 402t233 111q140 0 238 -89.5t98 -195.5l52 83q0 97 -122 194.5t-305 97.5q-197 0 -301.5 -143t-104.5 -460q0 -315 104.5 -458.5t301.5 -143.5z
M1163 0h750v89h-604v4l592 998v93h-729v-88h588v-2l-597 -1002v-92zM1497 1232h86l191 159h-83l-150 -122l-150 122h-85z" />
    <glyph glyph-name="uni01C7" unicode="&#x1c7;" horiz-adv-x="2032" 
d="M86 0h742v89h-618v1261h-124v-1350zM1436 -12q221 0 329 98.5t108 309.5v954h-124v-938q0 -177 -74.5 -256t-239.5 -79t-239.5 76.5t-74.5 245.5v211h-124v-225q0 -208 108 -302.5t331 -94.5z" />
    <glyph glyph-name="uni01C8" unicode="&#x1c8;" horiz-adv-x="1369" 
d="M86 0h742v89h-618v1261h-124v-1350zM797 -459q197 0 300.5 87t103.5 315v1243h-123v-1247q0 -174 -73 -241.5t-208 -67.5v-89zM1078 1490v-145h123v145h-123z" />
    <glyph glyph-name="uni01C9" unicode="&#x1c9;" horiz-adv-x="844" 
d="M134 0h123v1570h-123v-1570zM272 -459q197 0 300.5 87t103.5 315v1243h-123v-1247q0 -174 -73 -241.5t-208 -67.5v-89zM553 1490v-145h123v145h-123z" />
    <glyph glyph-name="uni01CA" unicode="&#x1ca;" horiz-adv-x="2370" 
d="M86 0h124v1257h4l705 -1257h199v1350h-124l-1 -1251h-3l-703 1251h-201v-1350zM1773 -12q221 0 329 98.5t108 309.5v954h-124v-938q0 -177 -74.5 -256t-239.5 -79t-239.5 76.5t-74.5 245.5v211h-124v-225q0 -208 108 -302.5t331 -94.5z" />
    <glyph glyph-name="uni01CB" unicode="&#x1cb;" horiz-adv-x="1707" 
d="M86 0h124v1257h4l705 -1257h199v1350h-124l-1 -1251h-3l-703 1251h-201v-1350zM1134 -459q197 0 300.5 87t103.5 315v1243h-123v-1247q0 -174 -73 -241.5t-208 -67.5v-89zM1415 1490v-145h123v145h-123z" />
    <glyph glyph-name="uni01CC" unicode="&#x1cc;" horiz-adv-x="1524" 
d="M110 0h123v938l-25 246h-98v-1184zM835 0h123v704q0 237 -84 365t-276 128q-187 0 -307 -115t-120 -254l58 -55q0 142 95 238.5t233 96.5q140 0 209 -95.5t69 -307.5v-705zM952 -459q197 0 300.5 87t103.5 315v1243h-123v-1247q0 -174 -73 -241.5t-208 -67.5v-89z
M1233 1490v-145h123v145h-123z" />
    <glyph glyph-name="uni01CD" unicode="&#x1cd;" horiz-adv-x="1247" 
d="M67 0h130l134 402h583l134 -402h130l-464 1353h-182zM355 489l267 787h2l267 -787h-536zM578 1398h86l191 159h-83l-150 -122l-150 122h-85z" />
    <glyph glyph-name="uni01CE" unicode="&#x1ce;" horiz-adv-x="1097" 
d="M459 -9q92 0 161.5 16.5t119 43t79 55t40.5 53.5l9 -159h105v763q0 155 -52.5 250t-151 139t-239.5 44q-88 0 -163 -20.5t-132 -65t-94.5 -115.5t-50.5 -173l122 -30q13 113 55 182.5t109 101.5t154 32q99 0 170 -35t110 -110t39 -196v-79h-395q-82 0 -150.5 -16
t-119 -54.5t-77.5 -105t-27 -169.5q0 -106 27.5 -174.5t78.5 -107.5t120.5 -54.5t152.5 -15.5zM484 75q-57 0 -107.5 11.5t-89.5 41t-60.5 82.5t-21.5 137q0 82 22.5 135t61 81t88.5 39.5t105 11.5h365v-367q-16 -40 -62 -80t-121.5 -66t-179.5 -26zM488 1233h86l191 159
h-83l-150 -122l-150 122h-85z" />
    <glyph glyph-name="uni01CF" unicode="&#x1cf;" horiz-adv-x="470" 
d="M149 0h123v1350h-123v-1350zM167 1398h86l191 159h-83l-150 -122l-150 122h-85z" />
    <glyph glyph-name="uni01D0" unicode="&#x1d0;" horiz-adv-x="390" 
d="M111 0h124v1186h-124v-1186zM129 1232h86l191 159h-83l-150 -122l-150 122h-85z" />
    <glyph glyph-name="uni01D1" unicode="&#x1d1;" horiz-adv-x="1250" 
d="M614 -9q263 0 401 159t138 525t-138 526t-401 160t-400.5 -159.5t-137.5 -526.5q0 -366 138 -525t400 -159zM614 80q-182 0 -298 124t-116 471q0 348 116 472t298 124q183 0 298.5 -124t115.5 -472q0 -347 -115.5 -471t-298.5 -124zM574 1398h86l191 159h-83l-150 -122
l-150 122h-85z" />
    <glyph glyph-name="uni01D2" unicode="&#x1d2;" horiz-adv-x="1123" 
d="M544 -8q230 0 351.5 142.5t121.5 459.5q0 319 -121.5 461t-351.5 142t-351.5 -142t-121.5 -461q0 -317 121.5 -459.5t351.5 -142.5zM544 80q-152 0 -251 111t-99 403t99 403.5t251 111.5t250.5 -111.5t98.5 -403.5t-98.5 -403t-250.5 -111zM501 1234h86l191 159h-83
l-150 -122l-150 122h-85z" />
    <glyph glyph-name="uni01D3" unicode="&#x1d3;" horiz-adv-x="1219" 
d="M592 -9q234 0 359 95t125 319v944h-124v-925q0 -187 -91.5 -265t-268.5 -78t-268.5 78t-91.5 265v925h-124v-944q0 -224 125 -319t359 -95zM553 1398h86l191 159h-83l-150 -122l-150 122h-85z" />
    <glyph glyph-name="uni01D4" unicode="&#x1d4;" horiz-adv-x="1086" 
d="M850 0h98v1184h-123v-977zM220 1186h-123v-708q0 -235 83.5 -362t276.5 -127q192 0 310.5 115.5t118.5 253.5l-60 54q0 -142 -95 -238t-234 -96q-140 0 -208.5 95.5t-68.5 307.5v705zM483 1232h86l191 159h-83l-150 -122l-150 122h-85z" />
    <glyph glyph-name="uni01D5" unicode="&#x1d5;" horiz-adv-x="1219" 
d="M592 -9q234 0 359 95t125 319v944h-124v-925q0 -187 -91.5 -265t-268.5 -78t-268.5 78t-91.5 265v925h-124v-944q0 -224 125 -319t359 -95zM467 1422q23 0 39.5 16.5t16.5 39.5q0 25 -16.5 41t-39.5 16q-25 0 -41 -16t-16 -41q0 -23 16 -39.5t41 -16.5zM725 1422
q24 0 40.5 16.5t16.5 39.5q0 25 -16.5 41t-40.5 16q-23 0 -39.5 -16t-16.5 -41q0 -23 16 -39.5t40 -16.5zM322 1665h535v53h-535v-53z" />
    <glyph glyph-name="uni01D6" unicode="&#x1d6;" horiz-adv-x="1086" 
d="M850 0h98v1184h-123v-977zM220 1186h-123v-708q0 -235 83.5 -362t276.5 -127q192 0 310.5 115.5t118.5 253.5l-60 54q0 -142 -95 -238t-234 -96q-140 0 -208.5 95.5t-68.5 307.5v705zM397 1256q23 0 39.5 16.5t16.5 39.5q0 25 -16.5 41t-39.5 16q-25 0 -41 -16t-16 -41
q0 -23 16 -39.5t41 -16.5zM655 1256q24 0 40.5 16.5t16.5 39.5q0 25 -16.5 41t-40.5 16q-23 0 -39.5 -16t-16.5 -41q0 -23 16 -39.5t40 -16.5zM258 1472h535v53h-535v-53z" />
    <glyph glyph-name="uni01D7" unicode="&#x1d7;" horiz-adv-x="1219" 
d="M592 -9q234 0 359 95t125 319v944h-124v-925q0 -187 -91.5 -265t-268.5 -78t-268.5 78t-91.5 265v925h-124v-944q0 -224 125 -319t359 -95zM467 1422q23 0 39.5 16.5t16.5 39.5q0 25 -16.5 41t-39.5 16q-25 0 -41 -16t-16 -41q0 -23 16 -39.5t41 -16.5zM725 1422
q24 0 40.5 16.5t16.5 39.5q0 25 -16.5 41t-40.5 16q-23 0 -39.5 -16t-16.5 -41q0 -23 16 -39.5t40 -16.5zM485 1650h72l163 142h-99z" />
    <glyph glyph-name="uni01D8" unicode="&#x1d8;" horiz-adv-x="1086" 
d="M850 0h98v1184h-123v-977zM220 1186h-123v-708q0 -235 83.5 -362t276.5 -127q192 0 310.5 115.5t118.5 253.5l-60 54q0 -142 -95 -238t-234 -96q-140 0 -208.5 95.5t-68.5 307.5v705zM397 1256q23 0 39.5 16.5t16.5 39.5q0 25 -16.5 41t-39.5 16q-25 0 -41 -16t-16 -41
q0 -23 16 -39.5t41 -16.5zM655 1256q24 0 40.5 16.5t16.5 39.5q0 25 -16.5 41t-40.5 16q-23 0 -39.5 -16t-16.5 -41q0 -23 16 -39.5t40 -16.5zM437 1392h72l163 142h-99z" />
    <glyph glyph-name="uni01D9" unicode="&#x1d9;" horiz-adv-x="1219" 
d="M592 -9q234 0 359 95t125 319v944h-124v-925q0 -187 -91.5 -265t-268.5 -78t-268.5 78t-91.5 265v925h-124v-944q0 -224 125 -319t359 -95zM467 1422q23 0 39.5 16.5t16.5 39.5q0 25 -16.5 41t-39.5 16q-25 0 -41 -16t-16 -41q0 -23 16 -39.5t41 -16.5zM725 1422
q24 0 40.5 16.5t16.5 39.5q0 25 -16.5 41t-40.5 16q-23 0 -39.5 -16t-16.5 -41q0 -23 16 -39.5t40 -16.5zM552 1635h86l191 159h-83l-150 -122l-150 122h-85z" />
    <glyph glyph-name="uni01DA" unicode="&#x1da;" horiz-adv-x="1086" 
d="M850 0h98v1184h-123v-977zM220 1186h-123v-708q0 -235 83.5 -362t276.5 -127q192 0 310.5 115.5t118.5 253.5l-60 54q0 -142 -95 -238t-234 -96q-140 0 -208.5 95.5t-68.5 307.5v705zM397 1256q23 0 39.5 16.5t16.5 39.5q0 25 -16.5 41t-39.5 16q-25 0 -41 -16t-16 -41
q0 -23 16 -39.5t41 -16.5zM655 1256q24 0 40.5 16.5t16.5 39.5q0 25 -16.5 41t-40.5 16q-23 0 -39.5 -16t-16.5 -41q0 -23 16 -39.5t40 -16.5zM483 1417h86l191 159h-83l-150 -122l-150 122h-85z" />
    <glyph glyph-name="uni01DB" unicode="&#x1db;" horiz-adv-x="1219" 
d="M592 -9q234 0 359 95t125 319v944h-124v-925q0 -187 -91.5 -265t-268.5 -78t-268.5 78t-91.5 265v925h-124v-944q0 -224 125 -319t359 -95zM467 1422q23 0 39.5 16.5t16.5 39.5q0 25 -16.5 41t-39.5 16q-25 0 -41 -16t-16 -41q0 -23 16 -39.5t41 -16.5zM725 1422
q24 0 40.5 16.5t16.5 39.5q0 25 -16.5 41t-40.5 16q-23 0 -39.5 -16t-16.5 -41q0 -23 16 -39.5t40 -16.5zM600 1642h71l-135 142h-99z" />
    <glyph glyph-name="uni01DC" unicode="&#x1dc;" horiz-adv-x="1086" 
d="M850 0h98v1184h-123v-977zM220 1186h-123v-708q0 -235 83.5 -362t276.5 -127q192 0 310.5 115.5t118.5 253.5l-60 54q0 -142 -95 -238t-234 -96q-140 0 -208.5 95.5t-68.5 307.5v705zM397 1256q23 0 39.5 16.5t16.5 39.5q0 25 -16.5 41t-39.5 16q-25 0 -41 -16t-16 -41
q0 -23 16 -39.5t41 -16.5zM655 1256q24 0 40.5 16.5t16.5 39.5q0 25 -16.5 41t-40.5 16q-23 0 -39.5 -16t-16.5 -41q0 -23 16 -39.5t40 -16.5zM550 1403h71l-135 142h-99z" />
    <glyph glyph-name="Gcaron" unicode="&#x1e6;" horiz-adv-x="1205" 
d="M569 -8q341 3 405 234l13 -226h75v628h-460v-80h330l-1 -130q-2 -169 -87 -253t-265 -84q-190 0 -283.5 127t-93.5 467q0 354 93.5 475.5t284.5 121.5q186 0 270 -110.5t87 -319.5h125q-3 227 -111.5 373t-370.5 146q-273 0 -388.5 -156.5t-115.5 -526.5
q0 -367 114.5 -526.5t378.5 -159.5zM550 1398h86l191 159h-83l-150 -122l-150 122h-85z" />
    <glyph glyph-name="gcaron" unicode="&#x1e7;" horiz-adv-x="1113" 
d="M526 -462q136 0 233 44t157 149t60 286v1167h-94l-30 -247v-930q0 -219 -87.5 -302.5t-234.5 -83.5q-90 0 -158.5 29.5t-107 93t-47.5 172.5h-122q13 -208 130.5 -293t300.5 -85zM479 -8q182 0 304.5 95t122.5 196l-54 85q0 -107 -98 -197t-238 -90q-146 0 -233 111
t-87 402t87 402t233 111q140 0 238 -89.5t98 -195.5l52 81q0 97 -122 195.5t-305 98.5q-197 0 -301.5 -143t-104.5 -460q0 -315 105.5 -458.5t302.5 -143.5zM497 1232h86l191 159h-83l-150 -122l-150 122h-85z" />
    <glyph glyph-name="uni01EA" unicode="&#x1ea;" horiz-adv-x="1250" 
d="M614 -9q263 0 401 159t138 525t-138 526t-401 160t-400.5 -159.5t-137.5 -526.5q0 -366 138 -525t400 -159zM614 80q-182 0 -298 124t-116 471q0 348 116 472t298 124q183 0 298.5 -124t115.5 -472q0 -347 -115.5 -471t-298.5 -124zM967 -204q28 0 55 3t48 8t29 9l-5 68
q-9 -4 -27.5 -9t-40 -8.5t-41.5 -3.5q-38 0 -56 16t-18 46q0 24 10.5 56t24.5 60.5t22 42.5h-67q-9 -14 -25 -43.5t-28.5 -65.5t-12.5 -72q0 -41 18 -64.5t48 -33t66 -9.5z" />
    <glyph glyph-name="uni01EB" unicode="&#x1eb;" horiz-adv-x="1123" 
d="M544 -8q230 0 351.5 142.5t121.5 459.5q0 319 -121.5 461t-351.5 142t-351.5 -142t-121.5 -461q0 -317 121.5 -459.5t351.5 -142.5zM544 80q-152 0 -251 111t-99 403t99 403.5t251 111.5t250.5 -111.5t98.5 -403.5t-98.5 -403t-250.5 -111zM546 -293q28 0 55 3t48 8t29 9
l-5 68q-9 -4 -27.5 -9t-40 -8.5t-41.5 -3.5q-38 0 -56 16t-18 46q0 24 10.5 56t24.5 60.5t22 42.5h-67q-9 -14 -25 -43.5t-28.5 -65.5t-12.5 -72q0 -41 18 -64.5t48 -33t66 -9.5z" />
    <glyph glyph-name="Aringacute" unicode="&#x1fa;" horiz-adv-x="1247" 
d="M67 0h130l134 402h583l134 -402h130l-464 1353h-182zM355 489l267 787h2l267 -787h-536zM621 1378q42 0 69 28.5t27 69.5q0 40 -27 67.5t-69 27.5q-41 0 -68 -27.5t-27 -67.5q0 -41 27.5 -69.5t67.5 -28.5zM621 1431q-16 0 -29 13t-13 32t13 30.5t29 11.5
q18 0 30.5 -11.5t12.5 -30.5t-12.5 -32t-30.5 -13zM504 1613h72l163 142h-99z" />
    <glyph glyph-name="aringacute" unicode="&#x1fb;" horiz-adv-x="1097" 
d="M459 -9q92 0 161.5 16.5t119 43t79 55t40.5 53.5l9 -159h105v763q0 155 -52.5 250t-151 139t-239.5 44q-88 0 -163 -20.5t-132 -65t-94.5 -115.5t-50.5 -173l122 -30q13 113 55 182.5t109 101.5t154 32q99 0 170 -35t110 -110t39 -196v-79h-395q-82 0 -150.5 -16
t-119 -54.5t-77.5 -105t-27 -169.5q0 -106 27.5 -174.5t78.5 -107.5t120.5 -54.5t152.5 -15.5zM484 75q-57 0 -107.5 11.5t-89.5 41t-60.5 82.5t-21.5 137q0 82 22.5 135t61 81t88.5 39.5t105 11.5h365v-367q-16 -40 -62 -80t-121.5 -66t-179.5 -26zM531 1220q42 0 69 28.5
t27 69.5q0 40 -27 67.5t-69 27.5q-41 0 -68 -27.5t-27 -67.5q0 -41 27.5 -69.5t67.5 -28.5zM531 1273q-16 0 -29 13t-13 32t13 30.5t29 11.5q18 0 30.5 -11.5t12.5 -30.5t-12.5 -32t-30.5 -13zM413 1455h72l163 142h-99z" />
    <glyph glyph-name="AEacute" unicode="&#x1fc;" horiz-adv-x="1806" 
d="M67 0h132l680 1302v48h-108zM337 344h540v87h-509zM850 0h838v89h-714v562h676v86h-676v524h714v89h-838v-1350zM793 1392h72l163 142h-99z" />
    <glyph glyph-name="aeacute" unicode="&#x1fd;" horiz-adv-x="1867" 
d="M939 365v364q0 220 -97.5 343t-313.5 123q-228 0 -325 -110.5t-111 -294.5l120 -30q8 175 86 263t231 88q143 0 219 -95t76 -285v-383l17 -25zM445 -9q206 0 328.5 84.5t126.5 297.5l-75 32q0 -193 -94.5 -263.5t-250.5 -70.5q-150 0 -211 63.5t-61 172.5q0 141 65 194
t234 53h327v76h-361q-214 0 -303.5 -72.5t-89.5 -250.5q0 -150 89.5 -233t275.5 -83zM1291 -9v85q-165 0 -256 129q-91 127 -91 391q0 285 95 400q96 115 252 115q160 0 249 -111q83 -107 88 -363h-701v-81h824q2 22 2 44q0 307 -111 452q-112 144 -351 144
q-232 0 -349 -145q-118 -146 -118 -454q0 -288 113 -447q114 -159 354 -159zM1291 76v-85q135 0 229 42q95 41 150 135q54 93 68 218l-113 27q-13 -101 -52 -185q-39 -83 -113 -118q-74 -34 -169 -34zM784 1228h72l163 142h-99z" />
    <glyph glyph-name="Oslashacute" unicode="&#x1fe;" horiz-adv-x="1107" 
d="M78 0h76l922 1348h-72zM614 -9q263 0 401 159t138 525t-138 526t-401 160t-400.5 -159.5t-137.5 -526.5q0 -366 138 -525t400 -159zM614 80q-182 0 -298 124t-116 471q0 348 116 472t298 124q183 0 298.5 -124t115.5 -472q0 -347 -115.5 -471t-298.5 -124zM483 1392h72
l163 142h-99z" />
    <glyph glyph-name="oslashacute" unicode="&#x1ff;" horiz-adv-x="1117" 
d="M23 -4l46 -35l979 1235l-49 33zM544 -8q230 0 351.5 142.5t121.5 459.5q0 319 -121.5 461t-351.5 142t-351.5 -142t-121.5 -461q0 -317 121.5 -459.5t351.5 -142.5zM544 80q-152 0 -251 111t-99 403t99 403.5t251 111.5t250.5 -111.5t98.5 -403.5t-98.5 -403t-250.5 -111
zM424 1232h72l163 142h-99z" />
    <glyph glyph-name="uni0200" unicode="&#x200;" horiz-adv-x="1247" 
d="M67 0h130l134 402h583l134 -402h130l-464 1353h-182zM355 489l267 787h2l267 -787h-536zM746 1411h71l-135 142h-99zM546 1411h71l-135 142h-99z" />
    <glyph glyph-name="uni0201" unicode="&#x201;" horiz-adv-x="1097" 
d="M459 -9q92 0 161.5 16.5t119 43t79 55t40.5 53.5l9 -159h105v763q0 155 -52.5 250t-151 139t-239.5 44q-88 0 -163 -20.5t-132 -65t-94.5 -115.5t-50.5 -173l122 -30q13 113 55 182.5t109 101.5t154 32q99 0 170 -35t110 -110t39 -196v-79h-395q-82 0 -150.5 -16
t-119 -54.5t-77.5 -105t-27 -169.5q0 -106 27.5 -174.5t78.5 -107.5t120.5 -54.5t152.5 -15.5zM484 75q-57 0 -107.5 11.5t-89.5 41t-60.5 82.5t-21.5 137q0 82 22.5 135t61 81t88.5 39.5t105 11.5h365v-367q-16 -40 -62 -80t-121.5 -66t-179.5 -26zM655 1246h71l-135 142
h-99zM455 1246h71l-135 142h-99z" />
    <glyph glyph-name="uni0202" unicode="&#x202;" horiz-adv-x="1247" 
d="M67 0h130l134 402h583l134 -402h130l-464 1353h-182zM355 489l267 787h2l267 -787h-536zM622 1550q-56 0 -93.5 -19t-56 -51t-18.5 -68h68q0 24 9 44t30.5 32t60.5 12q35 0 57 -12t32.5 -32t10.5 -44h68q0 36 -20.5 68t-58 51t-89.5 19z" />
    <glyph glyph-name="uni0203" unicode="&#x203;" horiz-adv-x="1097" 
d="M459 -9q92 0 161.5 16.5t119 43t79 55t40.5 53.5l9 -159h105v763q0 155 -52.5 250t-151 139t-239.5 44q-88 0 -163 -20.5t-132 -65t-94.5 -115.5t-50.5 -173l122 -30q13 113 55 182.5t109 101.5t154 32q99 0 170 -35t110 -110t39 -196v-79h-395q-82 0 -150.5 -16
t-119 -54.5t-77.5 -105t-27 -169.5q0 -106 27.5 -174.5t78.5 -107.5t120.5 -54.5t152.5 -15.5zM484 75q-57 0 -107.5 11.5t-89.5 41t-60.5 82.5t-21.5 137q0 82 22.5 135t61 81t88.5 39.5t105 11.5h365v-367q-16 -40 -62 -80t-121.5 -66t-179.5 -26zM531 1385
q-56 0 -93.5 -19t-56 -51t-18.5 -68h68q0 24 9 44t30.5 32t60.5 12q35 0 57 -12t32.5 -32t10.5 -44h68q0 36 -20.5 68t-58 51t-89.5 19z" />
    <glyph glyph-name="uni0204" unicode="&#x204;" horiz-adv-x="1044" 
d="M87 0h840v89h-715v562h676v86h-676v524h715v89h-840v-1350zM644 1411h71l-135 142h-99zM444 1411h71l-135 142h-99z" />
    <glyph glyph-name="uni0205" unicode="&#x205;" horiz-adv-x="1118" 
d="M541 -9v85q-165 0 -256 129q-91 127 -91 391q0 285 96 400q95 115 251 115q160 0 250 -111q82 -107 88 -363h-702v-81h824q2 22 2 44q0 307 -111 452q-112 144 -351 144q-232 0 -349 -145q-118 -146 -118 -454q0 -288 114 -447q113 -159 353 -159zM541 76v-85
q135 0 230 42q94 41 149 135q54 93 68 218l-113 27q-13 -101 -51 -185q-40 -83 -114 -118q-74 -34 -169 -34zM666 1246h71l-135 142h-99zM465 1246h71l-135 142h-99z" />
    <glyph glyph-name="uni0206" unicode="&#x206;" horiz-adv-x="1044" 
d="M87 0h840v89h-715v562h676v86h-676v524h715v89h-840v-1350zM520 1550q-56 0 -93.5 -19t-56 -51t-18.5 -68h68q0 24 9 44t30.5 32t60.5 12q35 0 57 -12t32.5 -32t10.5 -44h68q0 36 -20.5 68t-58 51t-89.5 19z" />
    <glyph glyph-name="uni0207" unicode="&#x207;" horiz-adv-x="1118" 
d="M541 -9v85q-165 0 -256 129q-91 127 -91 391q0 285 96 400q95 115 251 115q160 0 250 -111q82 -107 88 -363h-702v-81h824q2 22 2 44q0 307 -111 452q-112 144 -351 144q-232 0 -349 -145q-118 -146 -118 -454q0 -288 114 -447q113 -159 353 -159zM541 76v-85
q135 0 230 42q94 41 149 135q54 93 68 218l-113 27q-13 -101 -51 -185q-40 -83 -114 -118q-74 -34 -169 -34zM542 1384q-56 0 -93.5 -19t-56 -51t-18.5 -68h68q0 24 9 44t30.5 32t60.5 12q35 0 57 -12t32.5 -32t10.5 -44h68q0 36 -20.5 68t-58 51t-89.5 19z" />
    <glyph glyph-name="uni0208" unicode="&#x208;" horiz-adv-x="470" 
d="M149 0h123v1350h-123v-1350zM335 1411h71l-135 142h-99zM135 1411h71l-135 142h-99z" />
    <glyph glyph-name="uni0209" unicode="&#x209;" horiz-adv-x="390" 
d="M111 0h124v1186h-124v-1186zM297 1246h71l-135 142h-99zM97 1246h71l-135 142h-99z" />
    <glyph glyph-name="uni020A" unicode="&#x20a;" horiz-adv-x="470" 
d="M149 0h123v1350h-123v-1350zM211 1550q-56 0 -93.5 -19t-56 -51t-18.5 -68h68q0 24 9 44t30.5 32t60.5 12q35 0 57 -12t32.5 -32t10.5 -44h68q0 36 -20.5 68t-58 51t-89.5 19z" />
    <glyph glyph-name="uni020B" unicode="&#x20b;" horiz-adv-x="390" 
d="M111 0h124v1186h-124v-1186zM173 1384q-56 0 -93.5 -19t-56 -51t-18.5 -68h68q0 24 9 44t30.5 32t60.5 12q35 0 57 -12t32.5 -32t10.5 -44h68q0 36 -20.5 68t-58 51t-89.5 19z" />
    <glyph glyph-name="uni020C" unicode="&#x20c;" horiz-adv-x="1250" 
d="M614 -9q263 0 401 159t138 525t-138 526t-401 160t-400.5 -159.5t-137.5 -526.5q0 -366 138 -525t400 -159zM614 80q-182 0 -298 124t-116 471q0 348 116 472t298 124q183 0 298.5 -124t115.5 -472q0 -347 -115.5 -471t-298.5 -124zM741 1411h71l-135 142h-99zM541 1411
h71l-135 142h-99z" />
    <glyph glyph-name="uni020D" unicode="&#x20d;" horiz-adv-x="1123" 
d="M544 -8q230 0 351.5 142.5t121.5 459.5q0 319 -121.5 461t-351.5 142t-351.5 -142t-121.5 -461q0 -317 121.5 -459.5t351.5 -142.5zM544 80q-152 0 -251 111t-99 403t99 403.5t251 111.5t250.5 -111.5t98.5 -403.5t-98.5 -403t-250.5 -111zM668 1247h71l-135 142h-99z
M468 1247h71l-135 142h-99z" />
    <glyph glyph-name="uni020E" unicode="&#x20e;" horiz-adv-x="1250" 
d="M614 -9q263 0 401 159t138 525t-138 526t-401 160t-400.5 -159.5t-137.5 -526.5q0 -366 138 -525t400 -159zM614 80q-182 0 -298 124t-116 471q0 348 116 472t298 124q183 0 298.5 -124t115.5 -472q0 -347 -115.5 -471t-298.5 -124zM617 1550q-56 0 -93.5 -19t-56 -51
t-18.5 -68h68q0 24 9 44t30.5 32t60.5 12q35 0 57 -12t32.5 -32t10.5 -44h68q0 36 -20.5 68t-58 51t-89.5 19z" />
    <glyph glyph-name="uni020F" unicode="&#x20f;" horiz-adv-x="1123" 
d="M544 -8q230 0 351.5 142.5t121.5 459.5q0 319 -121.5 461t-351.5 142t-351.5 -142t-121.5 -461q0 -317 121.5 -459.5t351.5 -142.5zM544 80q-152 0 -251 111t-99 403t99 403.5t251 111.5t250.5 -111.5t98.5 -403.5t-98.5 -403t-250.5 -111zM544 1386q-56 0 -93.5 -19
t-56 -51t-18.5 -68h68q0 24 9 44t30.5 32t60.5 12q35 0 57 -12t32.5 -32t10.5 -44h68q0 36 -20.5 68t-58 51t-89.5 19z" />
    <glyph glyph-name="uni0210" unicode="&#x210;" horiz-adv-x="1096" 
d="M86 0h125v608h462q182 0 247.5 106.5t65.5 261.5q0 157 -64 265.5t-245 108.5h-591v-1350zM855 0h136l-268 654l-126 -12zM211 690v571h430q125 0 172 -79t47 -207q0 -127 -46.5 -206t-172.5 -79h-430zM656 1411h71l-135 142h-99zM456 1411h71l-135 142h-99z" />
    <glyph glyph-name="uni0211" unicode="&#x211;" horiz-adv-x="1033" 
d="M788 651h124q0 287 -75.5 415.5t-258.5 128.5t-288.5 -102.5t-105.5 -246.5l48 -44q0 117 80.5 210.5t223.5 93.5q127 0 189.5 -99.5t62.5 -355.5zM110 0h123v941l-25 243h-98v-1184zM671 1246h71l-135 142h-99zM471 1246h71l-135 142h-99z" />
    <glyph glyph-name="uni0212" unicode="&#x212;" horiz-adv-x="1096" 
d="M86 0h125v608h462q182 0 247.5 106.5t65.5 261.5q0 157 -64 265.5t-245 108.5h-591v-1350zM855 0h136l-268 654l-126 -12zM211 690v571h430q125 0 172 -79t47 -207q0 -127 -46.5 -206t-172.5 -79h-430zM532 1550q-56 0 -93.5 -19t-56 -51t-18.5 -68h68q0 24 9 44t30.5 32
t60.5 12q35 0 57 -12t32.5 -32t10.5 -44h68q0 36 -20.5 68t-58 51t-89.5 19z" />
    <glyph glyph-name="uni0213" unicode="&#x213;" horiz-adv-x="1033" 
d="M788 651h124q0 287 -75.5 415.5t-258.5 128.5t-288.5 -102.5t-105.5 -246.5l48 -44q0 117 80.5 210.5t223.5 93.5q127 0 189.5 -99.5t62.5 -355.5zM110 0h123v941l-25 243h-98v-1184zM547 1384q-56 0 -93.5 -19t-56 -51t-18.5 -68h68q0 24 9 44t30.5 32t60.5 12
q35 0 57 -12t32.5 -32t10.5 -44h68q0 36 -20.5 68t-58 51t-89.5 19z" />
    <glyph glyph-name="uni0214" unicode="&#x214;" horiz-adv-x="1219" 
d="M592 -9q234 0 359 95t125 319v944h-124v-925q0 -187 -91.5 -265t-268.5 -78t-268.5 78t-91.5 265v925h-124v-944q0 -224 125 -319t359 -95zM720 1411h71l-135 142h-99zM520 1411h71l-135 142h-99z" />
    <glyph glyph-name="uni0215" unicode="&#x215;" horiz-adv-x="1086" 
d="M850 0h98v1184h-123v-977zM220 1186h-123v-708q0 -235 83.5 -362t276.5 -127q192 0 310.5 115.5t118.5 253.5l-60 54q0 -142 -95 -238t-234 -96q-140 0 -208.5 95.5t-68.5 307.5v705zM650 1246h71l-135 142h-99zM450 1246h71l-135 142h-99z" />
    <glyph glyph-name="uni0216" unicode="&#x216;" horiz-adv-x="1219" 
d="M592 -9q234 0 359 95t125 319v944h-124v-925q0 -187 -91.5 -265t-268.5 -78t-268.5 78t-91.5 265v925h-124v-944q0 -224 125 -319t359 -95zM597 1550q-56 0 -93.5 -19t-56 -51t-18.5 -68h68q0 24 9 44t30.5 32t60.5 12q35 0 57 -12t32.5 -32t10.5 -44h68q0 36 -20.5 68
t-58 51t-89.5 19z" />
    <glyph glyph-name="uni0217" unicode="&#x217;" horiz-adv-x="1086" 
d="M850 0h98v1184h-123v-977zM220 1186h-123v-708q0 -235 83.5 -362t276.5 -127q192 0 310.5 115.5t118.5 253.5l-60 54q0 -142 -95 -238t-234 -96q-140 0 -208.5 95.5t-68.5 307.5v705zM526 1384q-56 0 -93.5 -19t-56 -51t-18.5 -68h68q0 24 9 44t30.5 32t60.5 12
q35 0 57 -12t32.5 -32t10.5 -44h68q0 36 -20.5 68t-58 51t-89.5 19z" />
    <glyph glyph-name="uni0218" unicode="&#x218;" horiz-adv-x="1138" 
d="M436 -287h50l109 210h-82zM546 -9q260 0 369 103.5t109 254.5q0 172 -105.5 242.5t-337.5 133.5q-188 49 -290 109.5t-102 191.5q0 105 89.5 175.5t265.5 70.5t265 -81.5t89 -336.5h126q0 274 -107 390.5t-372 116.5q-257 0 -367.5 -101.5t-110.5 -246.5
q0 -165 105.5 -240t332.5 -136q190 -50 293 -107t103 -196q0 -114 -89.5 -184t-266.5 -70q-179 0 -266.5 83t-87.5 346h-125q0 -289 106 -403.5t374 -114.5z" />
    <glyph glyph-name="uni0219" unicode="&#x219;" horiz-adv-x="1077" 
d="M538 -8q215 0 322.5 78t107.5 222q0 175 -115.5 241t-285.5 108q-153 40 -252.5 87.5t-99.5 167.5q0 98 73.5 156t224.5 58q154 0 237.5 -76t97.5 -232l111 34q-20 192 -130.5 275.5t-314.5 83.5q-203 0 -312.5 -79t-109.5 -220q0 -163 108 -230.5t277 -111.5
q157 -41 262.5 -89t105.5 -181q0 -91 -75 -149t-230 -58q-156 0 -244 73.5t-102 251.5l-111 -34q22 -214 137.5 -295t317.5 -81zM436 -285h50l109 210h-82z" />
    <glyph glyph-name="uni021A" unicode="&#x21a;" horiz-adv-x="1108" 
d="M488 0h124v1261h420v89h-965v-89h421v-1261zM462 -285h50l109 210h-82z" />
    <glyph glyph-name="uni021B" unicode="&#x21b;" horiz-adv-x="926" 
d="M576 -12q95 0 181 23v86q-68 -21 -141 -21q-87 0 -134.5 38.5t-47.5 155.5v825h408v89h-408v267h-123v-267h-282v-89h282v-857q0 -146 75 -198t190 -52zM473 -285h50l109 210h-82z" />
    <glyph glyph-name="uni022A" unicode="&#x22a;" horiz-adv-x="1250" 
d="M614 -9q263 0 401 159t138 525t-138 526t-401 160t-400.5 -159.5t-137.5 -526.5q0 -366 138 -525t400 -159zM614 80q-182 0 -298 124t-116 471q0 348 116 472t298 124q183 0 298.5 -124t115.5 -472q0 -347 -115.5 -471t-298.5 -124zM488 1422q23 0 39.5 16.5t16.5 39.5
q0 25 -16.5 41t-39.5 16q-25 0 -41 -16t-16 -41q0 -23 16 -39.5t41 -16.5zM746 1422q24 0 40.5 16.5t16.5 39.5q0 25 -16.5 41t-40.5 16q-23 0 -39.5 -16t-16.5 -41q0 -23 16 -39.5t40 -16.5zM349 1637h535v53h-535v-53z" />
    <glyph glyph-name="uni022B" unicode="&#x22b;" horiz-adv-x="1123" 
d="M544 -8q230 0 351.5 142.5t121.5 459.5q0 319 -121.5 461t-351.5 142t-351.5 -142t-121.5 -461q0 -317 121.5 -459.5t351.5 -142.5zM544 80q-152 0 -251 111t-99 403t99 403.5t251 111.5t250.5 -111.5t98.5 -403.5t-98.5 -403t-250.5 -111zM416 1258q23 0 39.5 16.5
t16.5 39.5q0 25 -16.5 41t-39.5 16q-25 0 -41 -16t-16 -41q0 -23 16 -39.5t41 -16.5zM674 1258q24 0 40.5 16.5t16.5 39.5q0 25 -16.5 41t-40.5 16q-23 0 -39.5 -16t-16.5 -41q0 -23 16 -39.5t40 -16.5zM276 1473h535v53h-535v-53z" />
    <glyph glyph-name="uni022C" unicode="&#x22c;" horiz-adv-x="1250" 
d="M614 -9q263 0 401 159t138 525t-138 526t-401 160t-400.5 -159.5t-137.5 -526.5q0 -366 138 -525t400 -159zM614 80q-182 0 -298 124t-116 471q0 348 116 472t298 124q183 0 298.5 -124t115.5 -472q0 -347 -115.5 -471t-298.5 -124zM716 1439q33 0 55.5 8t37.5 20.5
t24 27t13.5 28.5t3.5 24h-67q-1 -10 -9 -22.5t-24 -21t-39 -8.5q-31 0 -52 9t-39 22t-39.5 22t-55.5 9q-30 0 -53.5 -7t-39 -19t-25 -26.5t-14.5 -28.5t-7 -25h68q2 10 10 22.5t25 20.5t41 8q26 0 45 -9.5t37.5 -22t42.5 -22t61 -9.5zM349 1659h535v53h-535v-53z" />
    <glyph glyph-name="uni022D" unicode="&#x22d;" horiz-adv-x="1123" 
d="M544 -8q230 0 351.5 142.5t121.5 459.5q0 319 -121.5 461t-351.5 142t-351.5 -142t-121.5 -461q0 -317 121.5 -459.5t351.5 -142.5zM544 80q-152 0 -251 111t-99 403t99 403.5t251 111.5t250.5 -111.5t98.5 -403.5t-98.5 -403t-250.5 -111zM643 1276q33 0 55.5 8
t37.5 20.5t24 27t13.5 28.5t3.5 24h-67q-1 -10 -9 -22.5t-24 -21t-39 -8.5q-31 0 -52 9t-39 22t-39.5 22t-55.5 9q-30 0 -53.5 -7t-39 -19t-25 -26.5t-14.5 -28.5t-7 -25h68q2 10 10 22.5t25 20.5t41 8q26 0 45 -9.5t37.5 -22t42.5 -22t61 -9.5zM276 1495h535v53h-535v-53z
" />
    <glyph glyph-name="uni0230" unicode="&#x230;" horiz-adv-x="1250" 
d="M614 -9q263 0 401 159t138 525t-138 526t-401 160t-400.5 -159.5t-137.5 -526.5q0 -366 138 -525t400 -159zM614 80q-182 0 -298 124t-116 471q0 348 116 472t298 124q183 0 298.5 -124t115.5 -472q0 -347 -115.5 -471t-298.5 -124zM618 1416q23 0 39.5 17t16.5 41
q0 23 -16.5 39.5t-39.5 16.5q-24 0 -41 -16.5t-17 -39.5q0 -24 17.5 -41t40.5 -17zM349 1633h535v53h-535v-53z" />
    <glyph glyph-name="uni0231" unicode="&#x231;" horiz-adv-x="1123" 
d="M544 -8q230 0 351.5 142.5t121.5 459.5q0 319 -121.5 461t-351.5 142t-351.5 -142t-121.5 -461q0 -317 121.5 -459.5t351.5 -142.5zM544 80q-152 0 -251 111t-99 403t99 403.5t251 111.5t250.5 -111.5t98.5 -403.5t-98.5 -403t-250.5 -111zM545 1253q23 0 39.5 17
t16.5 41q0 23 -16.5 39.5t-39.5 16.5q-24 0 -41 -16.5t-17 -39.5q0 -24 17.5 -41t40.5 -17zM276 1469h535v53h-535v-53z" />
    <glyph glyph-name="uni0232" unicode="&#x232;" horiz-adv-x="1174" 
d="M513 0h124v547l461 803h-136l-386 -695h-1l-386 695h-137l461 -802v-548zM310 1453h535v53h-535v-53z" />
    <glyph glyph-name="uni0233" unicode="&#x233;" horiz-adv-x="989" 
d="M393 0h188l350 1184h-130l-313 -1094h-2l-316 1094h-129zM66 -459q186 0 311 93t204 366h-116q-64 -222 -157.5 -296.5t-241.5 -74.5v-88zM218 1287h535v53h-535v-53z" />
    <glyph glyph-name="uni0237" unicode="&#x237;" horiz-adv-x="445" 
d="M-128 -459q197 0 300.5 87t103.5 315v1243h-123v-1247q0 -174 -73 -241.5t-208 -67.5v-89z" />
    <glyph glyph-name="uni0259" unicode="&#x259;" horiz-adv-x="1118" 
d="M576 1196v-85q166 0 256 -128q92 -129 92 -393q0 -285 -96 -399q-96 -115 -251 -115q-161 0 -250 111q-83 108 -88 362h702v81h-825q-2 -20 -2 -44q0 -307 111 -451q113 -144 352 -144q231 0 350 146q117 145 117 454q0 287 -114 446q-113 159 -354 159zM576 1111v85
q-135 0 -229 -42q-94 -41 -148 -135q-55 -94 -69 -218l112 -27q14 101 53 184q38 84 113 118q74 35 168 35z" />
    <glyph glyph-name="uni02BC" unicode="&#x2bc;" horiz-adv-x="220" 
d="M189 1559h-99v-191l6 -1l-51 -178h90l54 176v194z" />
    <glyph glyph-name="circumflex" unicode="&#x2c6;" horiz-adv-x="721" 
d="M98 1210h85l150 122l150 -122h83l-191 159h-86z" />
    <glyph glyph-name="caron" unicode="&#x2c7;" horiz-adv-x="721" 
d="M289 1210h86l191 159h-83l-150 -122l-150 122h-85z" />
    <glyph glyph-name="uni02C9" unicode="&#x2c9;" horiz-adv-x="897" 
d="M152 1223h535v53h-535v-53z" />
    <glyph glyph-name="breve" unicode="&#x2d8;" horiz-adv-x="695" 
d="M315 1223q57 0 94 19.5t56 51t19 67.5h-68q0 -23 -9 -43.5t-31 -32.5t-61 -12q-35 0 -57 12.5t-32.5 32t-10.5 43.5h-67q0 -36 20.5 -67.5t57.5 -51t89 -19.5z" />
    <glyph glyph-name="dotaccent" unicode="&#x2d9;" horiz-adv-x="446" 
d="M206 1229q23 0 39.5 17t16.5 41q0 23 -16.5 39.5t-39.5 16.5q-24 0 -41 -16.5t-17 -39.5q0 -24 17.5 -41t40.5 -17z" />
    <glyph glyph-name="ring" unicode="&#x2da;" horiz-adv-x="334" 
d="M157 1221q42 0 69 28.5t27 69.5q0 40 -27 67.5t-69 27.5q-41 0 -68 -27.5t-27 -67.5q0 -41 27.5 -69.5t67.5 -28.5zM157 1274q-16 0 -29 13t-13 32t13 30.5t29 11.5q18 0 30.5 -11.5t12.5 -30.5t-12.5 -32t-30.5 -13z" />
    <glyph glyph-name="ogonek" unicode="&#x2db;" horiz-adv-x="690" 
d="M361 -288q28 0 55 3t48 8t29 9l-5 68q-9 -4 -27.5 -9t-40 -8.5t-41.5 -3.5q-38 0 -56 16t-18 46q0 24 10.5 56t24.5 60.5t22 42.5h-67q-9 -14 -25 -43.5t-28.5 -65.5t-12.5 -72q0 -41 18 -64.5t48 -33t66 -9.5z" />
    <glyph glyph-name="tilde" unicode="&#x2dc;" horiz-adv-x="551" 
d="M362 1273q33 0 55.5 8t37.5 20.5t24 27t13.5 28.5t3.5 24h-67q-1 -10 -9 -22.5t-24 -21t-39 -8.5q-31 0 -52 9t-39 22t-39.5 22t-55.5 9q-30 0 -53.5 -7t-39 -19t-25 -26.5t-14.5 -28.5t-7 -25h68q2 10 10 22.5t25 20.5t41 8q26 0 45 -9.5t37.5 -22t42.5 -22t61 -9.5z
" />
    <glyph glyph-name="hungarumlaut" unicode="&#x2dd;" horiz-adv-x="876" 
d="M431 1230h67l146 129h-92zM256 1230h67l142 129h-90z" />
    <glyph glyph-name="gravecomb" unicode="&#x300;" 
d="M200 1129h71l-135 142h-99z" />
    <glyph glyph-name="acutecomb" unicode="&#x301;" 
d="M39 1129h72l163 142h-99z" />
    <glyph glyph-name="uni0302" unicode="&#x302;" 
d="M39 1120h85l150 122l150 -122h83l-191 159h-86z" />
    <glyph glyph-name="tildecomb" unicode="&#x303;" 
d="M362 1200q33 0 55.5 8t37.5 20.5t24 27t13.5 28.5t3.5 24h-67q-1 -10 -9 -22.5t-24 -21t-39 -8.5q-31 0 -52 9t-39 22t-39.5 22t-55.5 9q-30 0 -53.5 -7t-39 -19t-25 -26.5t-14.5 -28.5t-7 -25h68q2 10 10 22.5t25 20.5t41 8q26 0 45 -9.5t37.5 -22t42.5 -22t61 -9.5z
" />
    <glyph glyph-name="uni0304" unicode="&#x304;" 
d="M152 1223h535v53h-535v-53z" />
    <glyph glyph-name="uni0306" unicode="&#x306;" 
d="M208 1133q57 0 94 19.5t56 51t19 67.5h-68q0 -23 -9 -43.5t-31 -32.5t-61 -12q-35 0 -57 12.5t-32.5 32t-10.5 43.5h-67q0 -36 20.5 -67.5t57.5 -51t89 -19.5z" />
    <glyph glyph-name="uni0307" unicode="&#x307;" 
d="M100 1138q23 0 39.5 17t16.5 41q0 23 -16.5 39.5t-39.5 16.5q-24 0 -41 -16.5t-17 -39.5q0 -24 17.5 -41t40.5 -17z" />
    <glyph glyph-name="uni0308" unicode="&#x308;" 
d="M119 1144q23 0 39.5 16.5t16.5 39.5q0 25 -16.5 41t-39.5 16q-25 0 -41 -16t-16 -41q0 -23 16 -39.5t41 -16.5zM377 1144q24 0 40.5 16.5t16.5 39.5q0 25 -16.5 41t-40.5 16q-23 0 -39.5 -16t-16.5 -41q0 -23 16 -39.5t40 -16.5z" />
    <glyph glyph-name="hookabovecomb" unicode="&#x309;" 
d="M20 1443v-47q79 0 132.5 -3.5t81 -14t27.5 -32.5q0 -18 -25 -29t-64.5 -15t-82.5 -4v-101h53v61q25 0 56.5 4.5t61 14.5t49 28t19.5 44q0 41 -36.5 60.5t-105 26.5t-166.5 7z" />
    <glyph glyph-name="uni030A" unicode="&#x30a;" 
d="M145 1124q42 0 69 28.5t27 69.5q0 40 -27 67.5t-69 27.5q-41 0 -68 -27.5t-27 -67.5q0 -41 27.5 -69.5t67.5 -28.5zM145 1177q-16 0 -29 13t-13 32t13 30.5t29 11.5q18 0 30.5 -11.5t12.5 -30.5t-12.5 -32t-30.5 -13z" />
    <glyph glyph-name="uni030B" unicode="&#x30b;" 
d="M256 1146h67l146 129h-92zM81 1146h67l142 129h-90z" />
    <glyph glyph-name="uni030C" unicode="&#x30c;" 
d="M230 1120h86l191 159h-83l-150 -122l-150 122h-85z" />
    <glyph glyph-name="uni030F" unicode="&#x30f;" 
d="M389 1219h71l-135 142h-99zM189 1219h71l-135 142h-99z" />
    <glyph glyph-name="uni0311" unicode="&#x311;" 
d="M231 1337q-56 0 -93.5 -19t-56 -51t-18.5 -68h68q0 24 9 44t30.5 32t60.5 12q35 0 57 -12t32.5 -32t10.5 -44h68q0 36 -20.5 68t-58 51t-89.5 19z" />
    <glyph glyph-name="uni0312" unicode="&#x312;" 
d="M211 1128h89l81 256h-53z" />
    <glyph glyph-name="uni031B" unicode="&#x31b;" 
d="M20 1211v-48q102 0 164.5 19.5t93 61.5t30.5 109h-78q0 -52 -18.5 -83t-64 -45t-127.5 -14z" />
    <glyph glyph-name="dotbelowcomb" unicode="&#x323;" 
d="M206 -244q23 0 39.5 17t16.5 41q0 23 -16.5 39.5t-39.5 16.5q-24 0 -41 -16.5t-17 -39.5q0 -24 17.5 -41t40.5 -17z" />
    <glyph glyph-name="uni0324" unicode="&#x324;" 
d="M120 -208q23 0 39.5 16.5t16.5 39.5q0 25 -16.5 41t-39.5 16q-25 0 -41 -16t-16 -41q0 -23 16 -39.5t41 -16.5zM378 -208q24 0 40.5 16.5t16.5 39.5q0 25 -16.5 41t-40.5 16q-23 0 -39.5 -16t-16.5 -41q0 -23 16 -39.5t40 -16.5z" />
    <glyph glyph-name="uni0326" unicode="&#x326;" 
d="M34 -285h50l109 210h-82z" />
    <glyph glyph-name="uni0327" unicode="&#x327;" 
d="M344 -263q38 0 72.5 7t61.5 22t42.5 37.5t15.5 53.5q0 44 -30.5 63.5t-75.5 19.5q-36 0 -69.5 -10t-51.5 -24l-2 -31q22 10 46.5 17t46.5 7q25 0 41 -10t16 -32q0 -30 -28 -44.5t-84 -14.5q-31 0 -58 3.5t-48 8.5l-20 -59q27 -5 59 -9.5t66 -4.5zM307 -125l42 125h-57
l-35 -114z" />
    <glyph glyph-name="uni0328" unicode="&#x328;" 
d="M361 -288q28 0 55 3t48 8t29 9l-5 68q-9 -4 -27.5 -9t-40 -8.5t-41.5 -3.5q-38 0 -56 16t-18 46q0 24 10.5 56t24.5 60.5t22 42.5h-67q-9 -14 -25 -43.5t-28.5 -65.5t-12.5 -72q0 -41 18 -64.5t48 -33t66 -9.5z" />
    <glyph glyph-name="uni032E" unicode="&#x32e;" 
d="M207 -263q57 0 94 19.5t56 51t19 67.5h-68q0 -23 -9 -43.5t-31 -32.5t-61 -12q-35 0 -57 12.5t-32.5 32t-10.5 43.5h-67q0 -36 20.5 -67.5t57.5 -51t89 -19.5z" />
    <glyph glyph-name="uni0331" unicode="&#x331;" 
d="M25 -200h535v53h-535v-53z" />
    <glyph glyph-name="uni0335" unicode="&#x335;" 
d="M72 1408h610v86h-610v-86z" />
    <glyph glyph-name="uni0336" unicode="&#x336;" 
d="M152 1223h535v53h-535v-53z" />
    <glyph glyph-name="uni0337" unicode="&#x337;" 
d="M125 0h66l541 972h-67z" />
    <glyph glyph-name="uni0338" unicode="&#x338;" 
d="M13 0h106l452 1348h-106z" />
    <glyph glyph-name="uni1E08" unicode="&#x1e08;" horiz-adv-x="1183" 
d="M571 -9q264 0 374.5 147t110.5 390h-127q0 -226 -90 -336.5t-269 -110.5q-183 0 -282 120.5t-99 475.5t98.5 474.5t282.5 119.5q179 0 269 -107.5t90 -337.5h127q0 247 -110.5 391t-375.5 144q-267 0 -387 -155.5t-120 -528.5q0 -372 120 -529t388 -157zM589 -263
q38 0 72.5 7t61.5 22t42.5 37.5t15.5 53.5q0 44 -30.5 63.5t-75.5 19.5q-36 0 -69.5 -10t-51.5 -24l-2 -31q22 10 46.5 17t46.5 7q25 0 41 -10t16 -32q0 -30 -28 -44.5t-84 -14.5q-31 0 -58 3.5t-48 8.5l-20 -59q27 -5 59 -9.5t66 -4.5zM552 -125l42 125h-57l-35 -114z
M445 1392h72l163 142h-99z" />
    <glyph glyph-name="uni1E09" unicode="&#x1e09;" horiz-adv-x="1079" 
d="M529 -9q223 0 324 136.5t107 279.5l-112 35q-2 -135 -84 -248.5t-235 -113.5q-156 0 -251 126t-95 386q0 281 94 397.5t252 116.5q154 0 235.5 -104t83.5 -261l112 34q-6 164 -106.5 292t-324.5 128q-238 0 -354.5 -145.5t-116.5 -457.5q0 -292 116.5 -446.5
t354.5 -154.5zM570 -263q38 0 72.5 7t61.5 22t42.5 37.5t15.5 53.5q0 44 -30.5 63.5t-75.5 19.5q-36 0 -69.5 -10t-51.5 -24l-2 -31q22 10 46.5 17t46.5 7q25 0 41 -10t16 -32q0 -30 -28 -44.5t-84 -14.5q-31 0 -58 3.5t-48 8.5l-20 -59q27 -5 59 -9.5t66 -4.5zM533 -125
l42 125h-57l-35 -114zM412 1226h72l163 142h-99z" />
    <glyph glyph-name="uni1E0C" unicode="&#x1e0c;" horiz-adv-x="1137" 
d="M86 0h494q239 0 349 143.5t110 531.5q0 389 -109.5 532t-349.5 143h-494v-1350zM210 89v1172h337q184 0 276 -113.5t92 -472.5q0 -358 -92 -472t-276 -114h-337zM553 -207q23 0 39.5 17t16.5 41q0 23 -16.5 39.5t-39.5 16.5q-24 0 -41 -16.5t-17 -39.5q0 -24 17.5 -41
t40.5 -17z" />
    <glyph glyph-name="uni1E0D" unicode="&#x1e0d;" horiz-adv-x="1093" 
d="M860 0h115v1570h-123v-1364zM477 -8q183 0 305 97t122 194l-52 85q0 -107 -98 -197t-238 -90q-146 0 -233 111t-87 402t87 402t233 111q140 0 238 -89.5t98 -195.5l52 83q0 97 -122 194.5t-305 97.5q-197 0 -301.5 -143t-104.5 -460q0 -315 104.5 -458.5t301.5 -143.5z
M578 -244q23 0 39.5 17t16.5 41q0 23 -16.5 39.5t-39.5 16.5q-24 0 -41 -16.5t-17 -39.5q0 -24 17.5 -41t40.5 -17z" />
    <glyph glyph-name="Dmacronbelow" unicode="&#x1e0e;" horiz-adv-x="1137" 
d="M86 0h494q239 0 349 143.5t110 531.5q0 389 -109.5 532t-349.5 143h-494v-1350zM210 89v1172h337q184 0 276 -113.5t92 -472.5q0 -358 -92 -472t-276 -114h-337zM285 -200h535v53h-535v-53z" />
    <glyph glyph-name="dmacronbelow" unicode="&#x1e0f;" horiz-adv-x="1093" 
d="M860 0h115v1570h-123v-1364zM477 -8q183 0 305 97t122 194l-52 85q0 -107 -98 -197t-238 -90q-146 0 -233 111t-87 402t87 402t233 111q140 0 238 -89.5t98 -195.5l52 83q0 97 -122 194.5t-305 97.5q-197 0 -301.5 -143t-104.5 -460q0 -315 104.5 -458.5t301.5 -143.5z
M310 -200h535v53h-535v-53z" />
    <glyph glyph-name="uni1E14" unicode="&#x1e14;" horiz-adv-x="1044" 
d="M87 0h840v89h-715v562h676v86h-676v524h715v89h-840v-1350zM252 1453h535v53h-535v-53zM566 1565h71l-135 142h-99z" />
    <glyph glyph-name="uni1E15" unicode="&#x1e15;" horiz-adv-x="1118" 
d="M541 -9v85q-165 0 -256 129q-91 127 -91 391q0 285 96 400q95 115 251 115q160 0 250 -111q82 -107 88 -363h-702v-81h824q2 22 2 44q0 307 -111 452q-112 144 -351 144q-232 0 -349 -145q-118 -146 -118 -454q0 -288 114 -447q113 -159 353 -159zM541 76v-85
q135 0 230 42q94 41 149 135q54 93 68 218l-113 27q-13 -101 -51 -185q-40 -83 -114 -118q-74 -34 -169 -34zM274 1287h535v53h-535v-53zM587 1398h71l-135 142h-99z" />
    <glyph glyph-name="uni1E16" unicode="&#x1e16;" horiz-adv-x="1044" 
d="M87 0h840v89h-715v562h676v86h-676v524h715v89h-840v-1350zM252 1453h535v53h-535v-53zM402 1548h72l163 142h-99z" />
    <glyph glyph-name="uni1E17" unicode="&#x1e17;" horiz-adv-x="1118" 
d="M541 -9v85q-165 0 -256 129q-91 127 -91 391q0 285 96 400q95 115 251 115q160 0 250 -111q82 -107 88 -363h-702v-81h824q2 22 2 44q0 307 -111 452q-112 144 -351 144q-232 0 -349 -145q-118 -146 -118 -454q0 -288 114 -447q113 -159 353 -159zM541 76v-85
q135 0 230 42q94 41 149 135q54 93 68 218l-113 27q-13 -101 -51 -185q-40 -83 -114 -118q-74 -34 -169 -34zM274 1287h535v53h-535v-53zM424 1382h72l163 142h-99z" />
    <glyph glyph-name="uni1E1C" unicode="&#x1e1c;" horiz-adv-x="1044" 
d="M87 0h840v89h-715v562h676v86h-676v524h715v89h-840v-1350zM546 -263q38 0 72.5 7t61.5 22t42.5 37.5t15.5 53.5q0 44 -30.5 63.5t-75.5 19.5q-36 0 -69.5 -10t-51.5 -24l-2 -31q22 10 46.5 17t46.5 7q25 0 41 -10t16 -32q0 -30 -28 -44.5t-84 -14.5q-31 0 -58 3.5
t-48 8.5l-20 -59q27 -5 59 -9.5t66 -4.5zM509 -125l42 125h-57l-35 -114zM518 1400q57 0 94 19.5t56 51t19 67.5h-68q0 -23 -9 -43.5t-31 -32.5t-61 -12q-35 0 -57 12.5t-32.5 32t-10.5 43.5h-67q0 -36 20.5 -67.5t57.5 -51t89 -19.5z" />
    <glyph glyph-name="uni1E1D" unicode="&#x1e1d;" horiz-adv-x="1118" 
d="M541 -9v85q-165 0 -256 129q-91 127 -91 391q0 285 96 400q95 115 251 115q160 0 250 -111q82 -107 88 -363h-702v-81h824q2 22 2 44q0 307 -111 452q-112 144 -351 144q-232 0 -349 -145q-118 -146 -118 -454q0 -288 114 -447q113 -159 353 -159zM541 76v-85
q135 0 230 42q94 41 149 135q54 93 68 218l-113 27q-13 -101 -51 -185q-40 -83 -114 -118q-74 -34 -169 -34zM570 -263q38 0 72.5 7t61.5 22t42.5 37.5t15.5 53.5q0 44 -30.5 63.5t-75.5 19.5q-36 0 -69.5 -10t-51.5 -24l-2 -31q22 10 46.5 17t46.5 7q25 0 41 -10t16 -32
q0 -30 -28 -44.5t-84 -14.5q-31 0 -58 3.5t-48 8.5l-20 -59q27 -5 59 -9.5t66 -4.5zM533 -125l42 125h-57l-35 -114zM540 1234q57 0 94 19.5t56 51t19 67.5h-68q0 -23 -9 -43.5t-31 -32.5t-61 -12q-35 0 -57 12.5t-32.5 32t-10.5 43.5h-67q0 -36 20.5 -67.5t57.5 -51
t89 -19.5z" />
    <glyph glyph-name="uni1E20" unicode="&#x1e20;" horiz-adv-x="1205" 
d="M569 -8q341 3 405 234l13 -226h75v628h-460v-80h330l-1 -130q-2 -169 -87 -253t-265 -84q-190 0 -283.5 127t-93.5 467q0 354 93.5 475.5t284.5 121.5q186 0 270 -110.5t87 -319.5h125q-3 227 -111.5 373t-370.5 146q-273 0 -388.5 -156.5t-115.5 -526.5
q0 -367 114.5 -526.5t378.5 -159.5zM326 1453h535v53h-535v-53z" />
    <glyph glyph-name="uni1E21" unicode="&#x1e21;" horiz-adv-x="1113" 
d="M526 -462q136 0 233 44t157 149t60 286v1167h-94l-30 -247v-930q0 -219 -87.5 -302.5t-234.5 -83.5q-90 0 -158.5 29.5t-107 93t-47.5 172.5h-122q13 -208 130.5 -293t300.5 -85zM479 -8q182 0 304.5 95t122.5 196l-54 85q0 -107 -98 -197t-238 -90q-146 0 -233 111
t-87 402t87 402t233 111q140 0 238 -89.5t98 -195.5l52 81q0 97 -122 195.5t-305 98.5q-197 0 -301.5 -143t-104.5 -460q0 -315 105.5 -458.5t302.5 -143.5zM273 1287h535v53h-535v-53z" />
    <glyph glyph-name="uni1E24" unicode="&#x1e24;" horiz-adv-x="1148" 
d="M86 0h124v659h670v-659h124v1350h-124v-602h-670v602h-124v-1350zM573 -207q23 0 39.5 17t16.5 41q0 23 -16.5 39.5t-39.5 16.5q-24 0 -41 -16.5t-17 -39.5q0 -24 17.5 -41t40.5 -17z" />
    <glyph glyph-name="uni1E25" unicode="&#x1e25;" horiz-adv-x="1081" 
d="M110 0h123v1570h-123v-1570zM837 0h123v708q0 236 -88 362.5t-280 126.5q-187 0 -303 -115t-116 -254l58 -55q0 142 91 238.5t229 96.5q140 0 213 -95.5t73 -307.5v-705zM554 -244q23 0 39.5 17t16.5 41q0 23 -16.5 39.5t-39.5 16.5q-24 0 -41 -16.5t-17 -39.5
q0 -24 17.5 -41t40.5 -17z" />
    <glyph glyph-name="uni1E2A" unicode="&#x1e2a;" horiz-adv-x="1148" 
d="M86 0h124v659h670v-659h124v1350h-124v-602h-670v602h-124v-1350zM571 -263q57 0 94 19.5t56 51t19 67.5h-68q0 -23 -9 -43.5t-31 -32.5t-61 -12q-35 0 -57 12.5t-32.5 32t-10.5 43.5h-67q0 -36 20.5 -67.5t57.5 -51t89 -19.5z" />
    <glyph glyph-name="uni1E2B" unicode="&#x1e2b;" horiz-adv-x="1081" 
d="M110 0h123v1570h-123v-1570zM837 0h123v708q0 236 -88 362.5t-280 126.5q-187 0 -303 -115t-116 -254l58 -55q0 142 91 238.5t229 96.5q140 0 213 -95.5t73 -307.5v-705zM552 -263q57 0 94 19.5t56 51t19 67.5h-68q0 -23 -9 -43.5t-31 -32.5t-61 -12q-35 0 -57 12.5
t-32.5 32t-10.5 43.5h-67q0 -36 20.5 -67.5t57.5 -51t89 -19.5z" />
    <glyph glyph-name="uni1E2E" unicode="&#x1e2e;" horiz-adv-x="470" 
d="M149 0h123v1350h-123v-1350zM82 1422q23 0 39.5 16.5t16.5 39.5q0 25 -16.5 41t-39.5 16q-25 0 -41 -16t-16 -41q0 -23 16 -39.5t41 -16.5zM340 1422q24 0 40.5 16.5t16.5 39.5q0 25 -16.5 41t-40.5 16q-23 0 -39.5 -16t-16.5 -41q0 -23 16 -39.5t40 -16.5zM93 1576h72
l163 142h-99z" />
    <glyph glyph-name="uni1E2F" unicode="&#x1e2f;" horiz-adv-x="390" 
d="M111 0h124v1186h-124v-1186zM44 1256q23 0 39.5 16.5t16.5 39.5q0 25 -16.5 41t-39.5 16q-25 0 -41 -16t-16 -41q0 -23 16 -39.5t41 -16.5zM302 1256q24 0 40.5 16.5t16.5 39.5q0 25 -16.5 41t-40.5 16q-23 0 -39.5 -16t-16.5 -41q0 -23 16 -39.5t40 -16.5zM56 1410h72
l163 142h-99z" />
    <glyph glyph-name="uni1E36" unicode="&#x1e36;" horiz-adv-x="925" 
d="M86 0h742v89h-618v1261h-124v-1350zM464 -207q23 0 39.5 17t16.5 41q0 23 -16.5 39.5t-39.5 16.5q-24 0 -41 -16.5t-17 -39.5q0 -24 17.5 -41t40.5 -17z" />
    <glyph glyph-name="uni1E37" unicode="&#x1e37;" horiz-adv-x="400" 
d="M134 0h123v1570h-123v-1570zM198 -244q23 0 39.5 17t16.5 41q0 23 -16.5 39.5t-39.5 16.5q-24 0 -41 -16.5t-17 -39.5q0 -24 17.5 -41t40.5 -17z" />
    <glyph glyph-name="Lmacronbelow" unicode="&#x1e3a;" horiz-adv-x="925" 
d="M86 0h742v89h-618v1261h-124v-1350zM196 -200h535v53h-535v-53z" />
    <glyph glyph-name="lmacronbelow" unicode="&#x1e3b;" horiz-adv-x="400" 
d="M134 0h123v1570h-123v-1570zM-70 -200h535v53h-535v-53z" />
    <glyph glyph-name="uni1E42" unicode="&#x1e42;" horiz-adv-x="1464" 
d="M86 0h123v1262h5l412 -1167h155l412 1167h5v-1262h123v1350h-207l-408 -1165h-5l-408 1165h-207v-1350zM708 -207q23 0 39.5 17t16.5 41q0 23 -16.5 39.5t-39.5 16.5q-24 0 -41 -16.5t-17 -39.5q0 -24 17.5 -41t40.5 -17z" />
    <glyph glyph-name="uni1E43" unicode="&#x1e43;" horiz-adv-x="1630" 
d="M110 0h123v976l-24 208h-99v-1184zM749 0h123v744q0 201 -69 326.5t-253 125.5q-165 0 -274 -120t-109 -297l65 -42q0 168 77.5 268.5t203.5 100.5q127 0 181.5 -94t54.5 -274v-738zM1386 0h123v744q0 201 -68.5 326.5t-251.5 125.5q-165 0 -274.5 -121t-109.5 -296
l66 -42q0 168 77.5 268.5t202.5 100.5q127 0 181 -94t54 -274v-738zM824 -244q23 0 39.5 17t16.5 41q0 23 -16.5 39.5t-39.5 16.5q-24 0 -41 -16.5t-17 -39.5q0 -24 17.5 -41t40.5 -17z" />
    <glyph glyph-name="uni1E44" unicode="&#x1e44;" horiz-adv-x="1262" 
d="M86 0h124v1257h4l705 -1257h199v1350h-124l-1 -1251h-3l-703 1251h-201v-1350zM621 1416q23 0 39.5 17t16.5 41q0 23 -16.5 39.5t-39.5 16.5q-24 0 -41 -16.5t-17 -39.5q0 -24 17.5 -41t40.5 -17z" />
    <glyph glyph-name="uni1E45" unicode="&#x1e45;" horiz-adv-x="1080" 
d="M110 0h123v938l-25 246h-98v-1184zM835 0h123v704q0 237 -84 365t-276 128q-187 0 -307 -115t-120 -254l58 -55q0 142 95 238.5t233 96.5q140 0 209 -95.5t69 -307.5v-705zM528 1251q23 0 39.5 17t16.5 41q0 23 -16.5 39.5t-39.5 16.5q-24 0 -41 -16.5t-17 -39.5
q0 -24 17.5 -41t40.5 -17z" />
    <glyph glyph-name="uni1E46" unicode="&#x1e46;" horiz-adv-x="1262" 
d="M86 0h124v1257h4l705 -1257h199v1350h-124l-1 -1251h-3l-703 1251h-201v-1350zM621 -207q23 0 39.5 17t16.5 41q0 23 -16.5 39.5t-39.5 16.5q-24 0 -41 -16.5t-17 -39.5q0 -24 17.5 -41t40.5 -17z" />
    <glyph glyph-name="uni1E47" unicode="&#x1e47;" horiz-adv-x="1080" 
d="M110 0h123v938l-25 246h-98v-1184zM835 0h123v704q0 237 -84 365t-276 128q-187 0 -307 -115t-120 -254l58 -55q0 142 95 238.5t233 96.5q140 0 209 -95.5t69 -307.5v-705zM528 -244q23 0 39.5 17t16.5 41q0 23 -16.5 39.5t-39.5 16.5q-24 0 -41 -16.5t-17 -39.5
q0 -24 17.5 -41t40.5 -17z" />
    <glyph glyph-name="Nmacronbelow" unicode="&#x1e48;" horiz-adv-x="1262" 
d="M86 0h124v1257h4l705 -1257h199v1350h-124l-1 -1251h-3l-703 1251h-201v-1350zM352 -200h535v53h-535v-53z" />
    <glyph glyph-name="nmacronbelow" unicode="&#x1e49;" horiz-adv-x="1080" 
d="M110 0h123v938l-25 246h-98v-1184zM835 0h123v704q0 237 -84 365t-276 128q-187 0 -307 -115t-120 -254l58 -55q0 142 95 238.5t233 96.5q140 0 209 -95.5t69 -307.5v-705zM260 -200h535v53h-535v-53z" />
    <glyph glyph-name="uni1E4C" unicode="&#x1e4c;" horiz-adv-x="1250" 
d="M614 -9q263 0 401 159t138 525t-138 526t-401 160t-400.5 -159.5t-137.5 -526.5q0 -366 138 -525t400 -159zM614 80q-182 0 -298 124t-116 471q0 348 116 472t298 124q183 0 298.5 -124t115.5 -472q0 -347 -115.5 -471t-298.5 -124zM716 1439q33 0 55.5 8t37.5 20.5
t24 27t13.5 28.5t3.5 24h-67q-1 -10 -9 -22.5t-24 -21t-39 -8.5q-31 0 -52 9t-39 22t-39.5 22t-55.5 9q-30 0 -53.5 -7t-39 -19t-25 -26.5t-14.5 -28.5t-7 -25h68q2 10 10 22.5t25 20.5t41 8q26 0 45 -9.5t37.5 -22t42.5 -22t61 -9.5zM499 1598h72l163 142h-99z" />
    <glyph glyph-name="uni1E4D" unicode="&#x1e4d;" horiz-adv-x="1123" 
d="M544 -8q230 0 351.5 142.5t121.5 459.5q0 319 -121.5 461t-351.5 142t-351.5 -142t-121.5 -461q0 -317 121.5 -459.5t351.5 -142.5zM544 80q-152 0 -251 111t-99 403t99 403.5t251 111.5t250.5 -111.5t98.5 -403.5t-98.5 -403t-250.5 -111zM643 1276q33 0 55.5 8
t37.5 20.5t24 27t13.5 28.5t3.5 24h-67q-1 -10 -9 -22.5t-24 -21t-39 -8.5q-31 0 -52 9t-39 22t-39.5 22t-55.5 9q-30 0 -53.5 -7t-39 -19t-25 -26.5t-14.5 -28.5t-7 -25h68q2 10 10 22.5t25 20.5t41 8q26 0 45 -9.5t37.5 -22t42.5 -22t61 -9.5zM427 1434h72l163 142h-99z
" />
    <glyph glyph-name="uni1E4E" unicode="&#x1e4e;" horiz-adv-x="1250" 
d="M614 -9q263 0 401 159t138 525t-138 526t-401 160t-400.5 -159.5t-137.5 -526.5q0 -366 138 -525t400 -159zM614 80q-182 0 -298 124t-116 471q0 348 116 472t298 124q183 0 298.5 -124t115.5 -472q0 -347 -115.5 -471t-298.5 -124zM716 1439q33 0 55.5 8t37.5 20.5
t24 27t13.5 28.5t3.5 24h-67q-1 -10 -9 -22.5t-24 -21t-39 -8.5q-31 0 -52 9t-39 22t-39.5 22t-55.5 9q-30 0 -53.5 -7t-39 -19t-25 -26.5t-14.5 -28.5t-7 -25h68q2 10 10 22.5t25 20.5t41 8q26 0 45 -9.5t37.5 -22t42.5 -22t61 -9.5zM488 1628q23 0 39.5 16.5t16.5 39.5
q0 25 -16.5 41t-39.5 16q-25 0 -41 -16t-16 -41q0 -23 16 -39.5t41 -16.5zM746 1628q24 0 40.5 16.5t16.5 39.5q0 25 -16.5 41t-40.5 16q-23 0 -39.5 -16t-16.5 -41q0 -23 16 -39.5t40 -16.5z" />
    <glyph glyph-name="uni1E4F" unicode="&#x1e4f;" horiz-adv-x="1123" 
d="M544 -8q230 0 351.5 142.5t121.5 459.5q0 319 -121.5 461t-351.5 142t-351.5 -142t-121.5 -461q0 -317 121.5 -459.5t351.5 -142.5zM544 80q-152 0 -251 111t-99 403t99 403.5t251 111.5t250.5 -111.5t98.5 -403.5t-98.5 -403t-250.5 -111zM643 1276q33 0 55.5 8
t37.5 20.5t24 27t13.5 28.5t3.5 24h-67q-1 -10 -9 -22.5t-24 -21t-39 -8.5q-31 0 -52 9t-39 22t-39.5 22t-55.5 9q-30 0 -53.5 -7t-39 -19t-25 -26.5t-14.5 -28.5t-7 -25h68q2 10 10 22.5t25 20.5t41 8q26 0 45 -9.5t37.5 -22t42.5 -22t61 -9.5zM416 1464q23 0 39.5 16.5
t16.5 39.5q0 25 -16.5 41t-39.5 16q-25 0 -41 -16t-16 -41q0 -23 16 -39.5t41 -16.5zM674 1464q24 0 40.5 16.5t16.5 39.5q0 25 -16.5 41t-40.5 16q-23 0 -39.5 -16t-16.5 -41q0 -23 16 -39.5t40 -16.5z" />
    <glyph glyph-name="uni1E50" unicode="&#x1e50;" horiz-adv-x="1250" 
d="M614 -9q263 0 401 159t138 525t-138 526t-401 160t-400.5 -159.5t-137.5 -526.5q0 -366 138 -525t400 -159zM614 80q-182 0 -298 124t-116 471q0 348 116 472t298 124q183 0 298.5 -124t115.5 -472q0 -347 -115.5 -471t-298.5 -124zM349 1453h535v53h-535v-53zM662 1565
h71l-135 142h-99z" />
    <glyph glyph-name="uni1E51" unicode="&#x1e51;" horiz-adv-x="1123" 
d="M544 -8q230 0 351.5 142.5t121.5 459.5q0 319 -121.5 461t-351.5 142t-351.5 -142t-121.5 -461q0 -317 121.5 -459.5t351.5 -142.5zM544 80q-152 0 -251 111t-99 403t99 403.5t251 111.5t250.5 -111.5t98.5 -403.5t-98.5 -403t-250.5 -111zM276 1289h535v53h-535v-53z
M590 1399h71l-135 142h-99z" />
    <glyph glyph-name="uni1E52" unicode="&#x1e52;" horiz-adv-x="1250" 
d="M614 -9q263 0 401 159t138 525t-138 526t-401 160t-400.5 -159.5t-137.5 -526.5q0 -366 138 -525t400 -159zM614 80q-182 0 -298 124t-116 471q0 348 116 472t298 124q183 0 298.5 -124t115.5 -472q0 -347 -115.5 -471t-298.5 -124zM349 1453h535v53h-535v-53zM499 1548
h72l163 142h-99z" />
    <glyph glyph-name="uni1E53" unicode="&#x1e53;" horiz-adv-x="1123" 
d="M544 -8q230 0 351.5 142.5t121.5 459.5q0 319 -121.5 461t-351.5 142t-351.5 -142t-121.5 -461q0 -317 121.5 -459.5t351.5 -142.5zM544 80q-152 0 -251 111t-99 403t99 403.5t251 111.5t250.5 -111.5t98.5 -403.5t-98.5 -403t-250.5 -111zM276 1289h535v53h-535v-53z
M427 1384h72l163 142h-99z" />
    <glyph glyph-name="uni1E5A" unicode="&#x1e5a;" horiz-adv-x="1096" 
d="M86 0h125v608h462q182 0 247.5 106.5t65.5 261.5q0 157 -64 265.5t-245 108.5h-591v-1350zM855 0h136l-268 654l-126 -12zM211 690v571h430q125 0 172 -79t47 -207q0 -127 -46.5 -206t-172.5 -79h-430zM533 -207q23 0 39.5 17t16.5 41q0 23 -16.5 39.5t-39.5 16.5
q-24 0 -41 -16.5t-17 -39.5q0 -24 17.5 -41t40.5 -17z" />
    <glyph glyph-name="uni1E5B" unicode="&#x1e5b;" horiz-adv-x="1033" 
d="M788 651h124q0 287 -75.5 415.5t-258.5 128.5t-288.5 -102.5t-105.5 -246.5l48 -44q0 117 80.5 210.5t223.5 93.5q127 0 189.5 -99.5t62.5 -355.5zM110 0h123v941l-25 243h-98v-1184zM544 -244q23 0 39.5 17t16.5 41q0 23 -16.5 39.5t-39.5 16.5q-24 0 -41 -16.5
t-17 -39.5q0 -24 17.5 -41t40.5 -17z" />
    <glyph glyph-name="Rmacronbelow" unicode="&#x1e5e;" horiz-adv-x="1096" 
d="M86 0h125v608h462q182 0 247.5 106.5t65.5 261.5q0 157 -64 265.5t-245 108.5h-591v-1350zM855 0h136l-268 654l-126 -12zM211 690v571h430q125 0 172 -79t47 -207q0 -127 -46.5 -206t-172.5 -79h-430zM264 -200h535v53h-535v-53z" />
    <glyph glyph-name="rmacronbelow" unicode="&#x1e5f;" horiz-adv-x="1033" 
d="M788 651h124q0 287 -75.5 415.5t-258.5 128.5t-288.5 -102.5t-105.5 -246.5l48 -44q0 117 80.5 210.5t223.5 93.5q127 0 189.5 -99.5t62.5 -355.5zM110 0h123v941l-25 243h-98v-1184zM276 -200h535v53h-535v-53z" />
    <glyph glyph-name="uni1E60" unicode="&#x1e60;" horiz-adv-x="1138" 
d="M546 -9q260 0 369 103.5t109 254.5q0 172 -105.5 242.5t-337.5 133.5q-188 49 -290 109.5t-102 191.5q0 105 89.5 175.5t265.5 70.5t265 -81.5t89 -336.5h126q0 274 -107 390.5t-372 116.5q-257 0 -367.5 -101.5t-110.5 -246.5q0 -165 105.5 -240t332.5 -136
q190 -50 293 -107t103 -196q0 -114 -89.5 -184t-266.5 -70q-179 0 -266.5 83t-87.5 346h-125q0 -289 106 -403.5t374 -114.5zM551 1416q23 0 39.5 17t16.5 41q0 23 -16.5 39.5t-39.5 16.5q-24 0 -41 -16.5t-17 -39.5q0 -24 17.5 -41t40.5 -17z" />
    <glyph glyph-name="uni1E61" unicode="&#x1e61;" horiz-adv-x="1077" 
d="M538 -8q215 0 322.5 78t107.5 222q0 175 -115.5 241t-285.5 108q-153 40 -252.5 87.5t-99.5 167.5q0 98 73.5 156t224.5 58q154 0 237.5 -76t97.5 -232l111 34q-20 192 -130.5 275.5t-314.5 83.5q-203 0 -312.5 -79t-109.5 -220q0 -163 108 -230.5t277 -111.5
q157 -41 262.5 -89t105.5 -181q0 -91 -75 -149t-230 -58q-156 0 -244 73.5t-102 251.5l-111 -34q22 -214 137.5 -295t317.5 -81zM529 1251q23 0 39.5 17t16.5 41q0 23 -16.5 39.5t-39.5 16.5q-24 0 -41 -16.5t-17 -39.5q0 -24 17.5 -41t40.5 -17z" />
    <glyph glyph-name="uni1E62" unicode="&#x1e62;" horiz-adv-x="1138" 
d="M546 -9q260 0 369 103.5t109 254.5q0 172 -105.5 242.5t-337.5 133.5q-188 49 -290 109.5t-102 191.5q0 105 89.5 175.5t265.5 70.5t265 -81.5t89 -336.5h126q0 274 -107 390.5t-372 116.5q-257 0 -367.5 -101.5t-110.5 -246.5q0 -165 105.5 -240t332.5 -136
q190 -50 293 -107t103 -196q0 -114 -89.5 -184t-266.5 -70q-179 0 -266.5 83t-87.5 346h-125q0 -289 106 -403.5t374 -114.5zM551 -207q23 0 39.5 17t16.5 41q0 23 -16.5 39.5t-39.5 16.5q-24 0 -41 -16.5t-17 -39.5q0 -24 17.5 -41t40.5 -17z" />
    <glyph glyph-name="uni1E63" unicode="&#x1e63;" horiz-adv-x="1077" 
d="M538 -8q215 0 322.5 78t107.5 222q0 175 -115.5 241t-285.5 108q-153 40 -252.5 87.5t-99.5 167.5q0 98 73.5 156t224.5 58q154 0 237.5 -76t97.5 -232l111 34q-20 192 -130.5 275.5t-314.5 83.5q-203 0 -312.5 -79t-109.5 -220q0 -163 108 -230.5t277 -111.5
q157 -41 262.5 -89t105.5 -181q0 -91 -75 -149t-230 -58q-156 0 -244 73.5t-102 251.5l-111 -34q22 -214 137.5 -295t317.5 -81zM527 -244q23 0 39.5 17t16.5 41q0 23 -16.5 39.5t-39.5 16.5q-24 0 -41 -16.5t-17 -39.5q0 -24 17.5 -41t40.5 -17z" />
    <glyph glyph-name="uni1E64" unicode="&#x1e64;" horiz-adv-x="1138" 
d="M546 -9q260 0 369 103.5t109 254.5q0 172 -105.5 242.5t-337.5 133.5q-188 49 -290 109.5t-102 191.5q0 105 89.5 175.5t265.5 70.5t265 -81.5t89 -336.5h126q0 274 -107 390.5t-372 116.5q-257 0 -367.5 -101.5t-110.5 -246.5q0 -165 105.5 -240t332.5 -136
q190 -50 293 -107t103 -196q0 -114 -89.5 -184t-266.5 -70q-179 0 -266.5 83t-87.5 346h-125q0 -289 106 -403.5t374 -114.5zM432 1392h72l163 142h-99zM551 1600q23 0 39.5 17t16.5 41q0 23 -16.5 39.5t-39.5 16.5q-24 0 -41 -16.5t-17 -39.5q0 -24 17.5 -41t40.5 -17z" />
    <glyph glyph-name="uni1E65" unicode="&#x1e65;" horiz-adv-x="1077" 
d="M538 -8q215 0 322.5 78t107.5 222q0 175 -115.5 241t-285.5 108q-153 40 -252.5 87.5t-99.5 167.5q0 98 73.5 156t224.5 58q154 0 237.5 -76t97.5 -232l111 34q-20 192 -130.5 275.5t-314.5 83.5q-203 0 -312.5 -79t-109.5 -220q0 -163 108 -230.5t277 -111.5
q157 -41 262.5 -89t105.5 -181q0 -91 -75 -149t-230 -58q-156 0 -244 73.5t-102 251.5l-111 -34q22 -214 137.5 -295t317.5 -81zM411 1226h72l163 142h-99zM529 1435q23 0 39.5 17t16.5 41q0 23 -16.5 39.5t-39.5 16.5q-24 0 -41 -16.5t-17 -39.5q0 -24 17.5 -41t40.5 -17z
" />
    <glyph glyph-name="uni1E66" unicode="&#x1e66;" horiz-adv-x="1138" 
d="M546 -9q260 0 369 103.5t109 254.5q0 172 -105.5 242.5t-337.5 133.5q-188 49 -290 109.5t-102 191.5q0 105 89.5 175.5t265.5 70.5t265 -81.5t89 -336.5h126q0 274 -107 390.5t-372 116.5q-257 0 -367.5 -101.5t-110.5 -246.5q0 -165 105.5 -240t332.5 -136
q190 -50 293 -107t103 -196q0 -114 -89.5 -184t-266.5 -70q-179 0 -266.5 83t-87.5 346h-125q0 -289 106 -403.5t374 -114.5zM507 1398h86l191 159h-83l-150 -122l-150 122h-85zM551 1624q23 0 39.5 17t16.5 41q0 23 -16.5 39.5t-39.5 16.5q-24 0 -41 -16.5t-17 -39.5
q0 -24 17.5 -41t40.5 -17z" />
    <glyph glyph-name="uni1E67" unicode="&#x1e67;" horiz-adv-x="1077" 
d="M538 -8q215 0 322.5 78t107.5 222q0 175 -115.5 241t-285.5 108q-153 40 -252.5 87.5t-99.5 167.5q0 98 73.5 156t224.5 58q154 0 237.5 -76t97.5 -232l111 34q-20 192 -130.5 275.5t-314.5 83.5q-203 0 -312.5 -79t-109.5 -220q0 -163 108 -230.5t277 -111.5
q157 -41 262.5 -89t105.5 -181q0 -91 -75 -149t-230 -58q-156 0 -244 73.5t-102 251.5l-111 -34q22 -214 137.5 -295t317.5 -81zM485 1233h86l191 159h-83l-150 -122l-150 122h-85zM529 1458q23 0 39.5 17t16.5 41q0 23 -16.5 39.5t-39.5 16.5q-24 0 -41 -16.5t-17 -39.5
q0 -24 17.5 -41t40.5 -17z" />
    <glyph glyph-name="uni1E68" unicode="&#x1e68;" horiz-adv-x="1138" 
d="M546 -9q260 0 369 103.5t109 254.5q0 172 -105.5 242.5t-337.5 133.5q-188 49 -290 109.5t-102 191.5q0 105 89.5 175.5t265.5 70.5t265 -81.5t89 -336.5h126q0 274 -107 390.5t-372 116.5q-257 0 -367.5 -101.5t-110.5 -246.5q0 -165 105.5 -240t332.5 -136
q190 -50 293 -107t103 -196q0 -114 -89.5 -184t-266.5 -70q-179 0 -266.5 83t-87.5 346h-125q0 -289 106 -403.5t374 -114.5zM551 -207q23 0 39.5 17t16.5 41q0 23 -16.5 39.5t-39.5 16.5q-24 0 -41 -16.5t-17 -39.5q0 -24 17.5 -41t40.5 -17zM551 1416q23 0 39.5 17
t16.5 41q0 23 -16.5 39.5t-39.5 16.5q-24 0 -41 -16.5t-17 -39.5q0 -24 17.5 -41t40.5 -17z" />
    <glyph glyph-name="uni1E69" unicode="&#x1e69;" horiz-adv-x="1077" 
d="M538 -8q215 0 322.5 78t107.5 222q0 175 -115.5 241t-285.5 108q-153 40 -252.5 87.5t-99.5 167.5q0 98 73.5 156t224.5 58q154 0 237.5 -76t97.5 -232l111 34q-20 192 -130.5 275.5t-314.5 83.5q-203 0 -312.5 -79t-109.5 -220q0 -163 108 -230.5t277 -111.5
q157 -41 262.5 -89t105.5 -181q0 -91 -75 -149t-230 -58q-156 0 -244 73.5t-102 251.5l-111 -34q22 -214 137.5 -295t317.5 -81zM527 -244q23 0 39.5 17t16.5 41q0 23 -16.5 39.5t-39.5 16.5q-24 0 -41 -16.5t-17 -39.5q0 -24 17.5 -41t40.5 -17zM529 1251q23 0 39.5 17
t16.5 41q0 23 -16.5 39.5t-39.5 16.5q-24 0 -41 -16.5t-17 -39.5q0 -24 17.5 -41t40.5 -17z" />
    <glyph glyph-name="uni1E6C" unicode="&#x1e6c;" horiz-adv-x="1108" 
d="M488 0h124v1261h420v89h-965v-89h421v-1261zM550 -207q23 0 39.5 17t16.5 41q0 23 -16.5 39.5t-39.5 16.5q-24 0 -41 -16.5t-17 -39.5q0 -24 17.5 -41t40.5 -17z" />
    <glyph glyph-name="uni1E6D" unicode="&#x1e6d;" horiz-adv-x="926" 
d="M576 -12q95 0 181 23v86q-68 -21 -141 -21q-87 0 -134.5 38.5t-47.5 155.5v825h408v89h-408v267h-123v-267h-282v-89h282v-857q0 -146 75 -198t190 -52zM565 -244q23 0 39.5 17t16.5 41q0 23 -16.5 39.5t-39.5 16.5q-24 0 -41 -16.5t-17 -39.5q0 -24 17.5 -41t40.5 -17z
" />
    <glyph glyph-name="Tmacronbelow" unicode="&#x1e6e;" horiz-adv-x="1108" 
d="M488 0h124v1261h420v89h-965v-89h421v-1261zM282 -200h535v53h-535v-53z" />
    <glyph glyph-name="tmacronbelow" unicode="&#x1e6f;" horiz-adv-x="926" 
d="M576 -12q95 0 181 23v86q-68 -21 -141 -21q-87 0 -134.5 38.5t-47.5 155.5v825h408v89h-408v267h-123v-267h-282v-89h282v-857q0 -146 75 -198t190 -52zM297 -200h535v53h-535v-53z" />
    <glyph glyph-name="uni1E78" unicode="&#x1e78;" horiz-adv-x="1219" 
d="M592 -9q234 0 359 95t125 319v944h-124v-925q0 -187 -91.5 -265t-268.5 -78t-268.5 78t-91.5 265v925h-124v-944q0 -224 125 -319t359 -95zM695 1439q33 0 55.5 8t37.5 20.5t24 27t13.5 28.5t3.5 24h-67q-1 -10 -9 -22.5t-24 -21t-39 -8.5q-31 0 -52 9t-39 22t-39.5 22
t-55.5 9q-30 0 -53.5 -7t-39 -19t-25 -26.5t-14.5 -28.5t-7 -25h68q2 10 10 22.5t25 20.5t41 8q26 0 45 -9.5t37.5 -22t42.5 -22t61 -9.5zM478 1598h72l163 142h-99z" />
    <glyph glyph-name="uni1E79" unicode="&#x1e79;" horiz-adv-x="1086" 
d="M850 0h98v1184h-123v-977zM220 1186h-123v-708q0 -235 83.5 -362t276.5 -127q192 0 310.5 115.5t118.5 253.5l-60 54q0 -142 -95 -238t-234 -96q-140 0 -208.5 95.5t-68.5 307.5v705zM625 1274q33 0 55.5 8t37.5 20.5t24 27t13.5 28.5t3.5 24h-67q-1 -10 -9 -22.5
t-24 -21t-39 -8.5q-31 0 -52 9t-39 22t-39.5 22t-55.5 9q-30 0 -53.5 -7t-39 -19t-25 -26.5t-14.5 -28.5t-7 -25h68q2 10 10 22.5t25 20.5t41 8q26 0 45 -9.5t37.5 -22t42.5 -22t61 -9.5zM408 1432h72l163 142h-99z" />
    <glyph glyph-name="uni1E7A" unicode="&#x1e7a;" horiz-adv-x="1219" 
d="M592 -9q234 0 359 95t125 319v944h-124v-925q0 -187 -91.5 -265t-268.5 -78t-268.5 78t-91.5 265v925h-124v-944q0 -224 125 -319t359 -95zM329 1453h535v53h-535v-53zM467 1578q23 0 39.5 16.5t16.5 39.5q0 25 -16.5 41t-39.5 16q-25 0 -41 -16t-16 -41q0 -23 16 -39.5
t41 -16.5zM725 1578q24 0 40.5 16.5t16.5 39.5q0 25 -16.5 41t-40.5 16q-23 0 -39.5 -16t-16.5 -41q0 -23 16 -39.5t40 -16.5z" />
    <glyph glyph-name="uni1E7B" unicode="&#x1e7b;" horiz-adv-x="1086" 
d="M850 0h98v1184h-123v-977zM220 1186h-123v-708q0 -235 83.5 -362t276.5 -127q192 0 310.5 115.5t118.5 253.5l-60 54q0 -142 -95 -238t-234 -96q-140 0 -208.5 95.5t-68.5 307.5v705zM258 1287h535v53h-535v-53zM397 1413q23 0 39.5 16.5t16.5 39.5q0 25 -16.5 41
t-39.5 16q-25 0 -41 -16t-16 -41q0 -23 16 -39.5t41 -16.5zM655 1413q24 0 40.5 16.5t16.5 39.5q0 25 -16.5 41t-40.5 16q-23 0 -39.5 -16t-16.5 -41q0 -23 16 -39.5t40 -16.5z" />
    <glyph glyph-name="Wgrave" unicode="&#x1e80;" horiz-adv-x="1698" 
d="M342 0h192l300 1261h3l300 -1261h192l277 1350h-135l-243 -1255h-3l-305 1255h-169l-304 -1255h-4l-241 1255h-134zM896 1407h71l-135 142h-99z" />
    <glyph glyph-name="wgrave" unicode="&#x1e81;" horiz-adv-x="1489" 
d="M317 0h173l247 1062l250 -1062h172l240 1184h-128l-200 -1097h-2l-266 1097h-131l-262 -1098h-2l-207 1098h-128zM782 1241h71l-135 142h-99z" />
    <glyph glyph-name="Wacute" unicode="&#x1e82;" horiz-adv-x="1698" 
d="M342 0h192l300 1261h3l300 -1261h192l277 1350h-135l-243 -1255h-3l-305 1255h-169l-304 -1255h-4l-241 1255h-134zM732 1392h72l163 142h-99z" />
    <glyph glyph-name="wacute" unicode="&#x1e83;" horiz-adv-x="1489" 
d="M317 0h173l247 1062l250 -1062h172l240 1184h-128l-200 -1097h-2l-266 1097h-131l-262 -1098h-2l-207 1098h-128zM618 1226h72l163 142h-99z" />
    <glyph glyph-name="Wdieresis" unicode="&#x1e84;" horiz-adv-x="1698" 
d="M342 0h192l300 1261h3l300 -1261h192l277 1350h-135l-243 -1255h-3l-305 1255h-169l-304 -1255h-4l-241 1255h-134zM721 1422q23 0 39.5 16.5t16.5 39.5q0 25 -16.5 41t-39.5 16q-25 0 -41 -16t-16 -41q0 -23 16 -39.5t41 -16.5zM979 1422q24 0 40.5 16.5t16.5 39.5
q0 25 -16.5 41t-40.5 16q-23 0 -39.5 -16t-16.5 -41q0 -23 16 -39.5t40 -16.5z" />
    <glyph glyph-name="wdieresis" unicode="&#x1e85;" horiz-adv-x="1489" 
d="M317 0h173l247 1062l250 -1062h172l240 1184h-128l-200 -1097h-2l-266 1097h-131l-262 -1098h-2l-207 1098h-128zM607 1256q23 0 39.5 16.5t16.5 39.5q0 25 -16.5 41t-39.5 16q-25 0 -41 -16t-16 -41q0 -23 16 -39.5t41 -16.5zM865 1256q24 0 40.5 16.5t16.5 39.5
q0 25 -16.5 41t-40.5 16q-23 0 -39.5 -16t-16.5 -41q0 -23 16 -39.5t40 -16.5z" />
    <glyph glyph-name="uni1E8E" unicode="&#x1e8e;" horiz-adv-x="1174" 
d="M513 0h124v547l461 803h-136l-386 -695h-1l-386 695h-137l461 -802v-548zM578 1416q23 0 39.5 17t16.5 41q0 23 -16.5 39.5t-39.5 16.5q-24 0 -41 -16.5t-17 -39.5q0 -24 17.5 -41t40.5 -17z" />
    <glyph glyph-name="uni1E8F" unicode="&#x1e8f;" horiz-adv-x="989" 
d="M393 0h188l350 1184h-130l-313 -1094h-2l-316 1094h-129zM66 -459q186 0 311 93t204 366h-116q-64 -222 -157.5 -296.5t-241.5 -74.5v-88zM486 1251q23 0 39.5 17t16.5 41q0 23 -16.5 39.5t-39.5 16.5q-24 0 -41 -16.5t-17 -39.5q0 -24 17.5 -41t40.5 -17z" />
    <glyph glyph-name="uni1E92" unicode="&#x1e92;" horiz-adv-x="1052" 
d="M72 0h871v90h-732l696 1170v90h-826v-89h687l-696 -1167v-94zM527 -207q23 0 39.5 17t16.5 41q0 23 -16.5 39.5t-39.5 16.5q-24 0 -41 -16.5t-17 -39.5q0 -24 17.5 -41t40.5 -17z" />
    <glyph glyph-name="uni1E93" unicode="&#x1e93;" horiz-adv-x="919" 
d="M70 0h750v89h-604v4l592 998v93h-729v-88h588v-2l-597 -1002v-92zM453 -244q23 0 39.5 17t16.5 41q0 23 -16.5 39.5t-39.5 16.5q-24 0 -41 -16.5t-17 -39.5q0 -24 17.5 -41t40.5 -17z" />
    <glyph glyph-name="uni1E97" unicode="&#x1e97;" horiz-adv-x="926" 
d="M576 -12q95 0 181 23v86q-68 -21 -141 -21q-87 0 -134.5 38.5t-47.5 155.5v825h408v89h-408v267h-123v-267h-282v-89h282v-857q0 -146 75 -198t190 -52zM249 1522q23 0 39.5 16.5t16.5 39.5q0 25 -16.5 41t-39.5 16q-25 0 -41 -16t-16 -41q0 -23 16 -39.5t41 -16.5z
M507 1522q24 0 40.5 16.5t16.5 39.5q0 25 -16.5 41t-40.5 16q-23 0 -39.5 -16t-16.5 -41q0 -23 16 -39.5t40 -16.5z" />
    <glyph glyph-name="uni1E9E" unicode="&#x1e9e;" horiz-adv-x="1073" 
d="M86 0h124v1260h558l-402 -462v-81q133 -11 222.5 -33.5t143 -62.5t77.5 -100t24 -146q0 -82 -23 -140t-76.5 -93t-143 -48t-223.5 -7v-87q175 -6 290 13t181 65.5t93.5 120t27.5 175.5q0 94 -24 163t-79 117t-148 76t-231 40l434 496v84h-825v-1350z" />
    <glyph glyph-name="uni1EA0" unicode="&#x1ea0;" horiz-adv-x="1247" 
d="M67 0h130l134 402h583l134 -402h130l-464 1353h-182zM355 489l267 787h2l267 -787h-536zM622 -207q23 0 39.5 17t16.5 41q0 23 -16.5 39.5t-39.5 16.5q-24 0 -41 -16.5t-17 -39.5q0 -24 17.5 -41t40.5 -17z" />
    <glyph glyph-name="uni1EA1" unicode="&#x1ea1;" horiz-adv-x="1097" 
d="M459 -9q92 0 161.5 16.5t119 43t79 55t40.5 53.5l9 -159h105v763q0 155 -52.5 250t-151 139t-239.5 44q-88 0 -163 -20.5t-132 -65t-94.5 -115.5t-50.5 -173l122 -30q13 113 55 182.5t109 101.5t154 32q99 0 170 -35t110 -110t39 -196v-79h-395q-82 0 -150.5 -16
t-119 -54.5t-77.5 -105t-27 -169.5q0 -106 27.5 -174.5t78.5 -107.5t120.5 -54.5t152.5 -15.5zM484 75q-57 0 -107.5 11.5t-89.5 41t-60.5 82.5t-21.5 137q0 82 22.5 135t61 81t88.5 39.5t105 11.5h365v-367q-16 -40 -62 -80t-121.5 -66t-179.5 -26zM541 -244q23 0 39.5 17
t16.5 41q0 23 -16.5 39.5t-39.5 16.5q-24 0 -41 -16.5t-17 -39.5q0 -24 17.5 -41t40.5 -17z" />
    <glyph glyph-name="uni1EA2" unicode="&#x1ea2;" horiz-adv-x="1247" 
d="M67 0h130l134 402h583l134 -402h130l-464 1353h-182zM355 489l267 787h2l267 -787h-536zM526 1646v-47q79 0 132.5 -3.5t81 -14t27.5 -32.5q0 -18 -25 -29t-64.5 -15t-82.5 -4v-101h53v61q25 0 56.5 4.5t61 14.5t49 28t19.5 44q0 41 -36.5 60.5t-105 26.5t-166.5 7z" />
    <glyph glyph-name="uni1EA3" unicode="&#x1ea3;" horiz-adv-x="1097" 
d="M459 -9q92 0 161.5 16.5t119 43t79 55t40.5 53.5l9 -159h105v763q0 155 -52.5 250t-151 139t-239.5 44q-88 0 -163 -20.5t-132 -65t-94.5 -115.5t-50.5 -173l122 -30q13 113 55 182.5t109 101.5t154 32q99 0 170 -35t110 -110t39 -196v-79h-395q-82 0 -150.5 -16
t-119 -54.5t-77.5 -105t-27 -169.5q0 -106 27.5 -174.5t78.5 -107.5t120.5 -54.5t152.5 -15.5zM484 75q-57 0 -107.5 11.5t-89.5 41t-60.5 82.5t-21.5 137q0 82 22.5 135t61 81t88.5 39.5t105 11.5h365v-367q-16 -40 -62 -80t-121.5 -66t-179.5 -26zM433 1481v-47
q79 0 132.5 -3.5t81 -14t27.5 -32.5q0 -18 -25 -29t-64.5 -15t-82.5 -4v-101h53v61q25 0 56.5 4.5t61 14.5t49 28t19.5 44q0 41 -36.5 60.5t-105 26.5t-166.5 7z" />
    <glyph glyph-name="uni1EA4" unicode="&#x1ea4;" horiz-adv-x="1247" 
d="M67 0h130l134 402h583l134 -402h130l-464 1353h-182zM355 489l267 787h2l267 -787h-536zM386 1409h85l150 122l150 -122h83l-191 159h-86zM753 1541h72l163 142h-99z" />
    <glyph glyph-name="uni1EA5" unicode="&#x1ea5;" horiz-adv-x="1097" 
d="M459 -9q92 0 161.5 16.5t119 43t79 55t40.5 53.5l9 -159h105v763q0 155 -52.5 250t-151 139t-239.5 44q-88 0 -163 -20.5t-132 -65t-94.5 -115.5t-50.5 -173l122 -30q13 113 55 182.5t109 101.5t154 32q99 0 170 -35t110 -110t39 -196v-79h-395q-82 0 -150.5 -16
t-119 -54.5t-77.5 -105t-27 -169.5q0 -106 27.5 -174.5t78.5 -107.5t120.5 -54.5t152.5 -15.5zM484 75q-57 0 -107.5 11.5t-89.5 41t-60.5 82.5t-21.5 137q0 82 22.5 135t61 81t88.5 39.5t105 11.5h365v-367q-16 -40 -62 -80t-121.5 -66t-179.5 -26zM295 1244h85l150 122
l150 -122h83l-191 159h-86zM662 1375h72l163 142h-99z" />
    <glyph glyph-name="uni1EA6" unicode="&#x1ea6;" horiz-adv-x="1247" 
d="M67 0h130l134 402h583l134 -402h130l-464 1353h-182zM355 489l267 787h2l267 -787h-536zM387 1404h85l150 122l150 -122h83l-191 159h-86zM815 1541h71l-135 142h-99z" />
    <glyph glyph-name="uni1EA7" unicode="&#x1ea7;" horiz-adv-x="1097" 
d="M459 -9q92 0 161.5 16.5t119 43t79 55t40.5 53.5l9 -159h105v763q0 155 -52.5 250t-151 139t-239.5 44q-88 0 -163 -20.5t-132 -65t-94.5 -115.5t-50.5 -173l122 -30q13 113 55 182.5t109 101.5t154 32q99 0 170 -35t110 -110t39 -196v-79h-395q-82 0 -150.5 -16
t-119 -54.5t-77.5 -105t-27 -169.5q0 -106 27.5 -174.5t78.5 -107.5t120.5 -54.5t152.5 -15.5zM484 75q-57 0 -107.5 11.5t-89.5 41t-60.5 82.5t-21.5 137q0 82 22.5 135t61 81t88.5 39.5t105 11.5h365v-367q-16 -40 -62 -80t-121.5 -66t-179.5 -26zM296 1239h85l150 122
l150 -122h83l-191 159h-86zM724 1375h71l-135 142h-99z" />
    <glyph glyph-name="uni1EA8" unicode="&#x1ea8;" horiz-adv-x="1247" 
d="M67 0h130l134 402h583l134 -402h130l-464 1353h-182zM355 489l267 787h2l267 -787h-536zM387 1400h85l150 122l150 -122h83l-191 159h-86zM524 1855v-47q79 0 132.5 -3.5t81 -14t27.5 -32.5q0 -18 -25 -29t-64.5 -15t-82.5 -4v-101h53v61q25 0 56.5 4.5t61 14.5t49 28
t19.5 44q0 41 -36.5 60.5t-105 26.5t-166.5 7z" />
    <glyph glyph-name="uni1EA9" unicode="&#x1ea9;" horiz-adv-x="1097" 
d="M459 -9q92 0 161.5 16.5t119 43t79 55t40.5 53.5l9 -159h105v763q0 155 -52.5 250t-151 139t-239.5 44q-88 0 -163 -20.5t-132 -65t-94.5 -115.5t-50.5 -173l122 -30q13 113 55 182.5t109 101.5t154 32q99 0 170 -35t110 -110t39 -196v-79h-395q-82 0 -150.5 -16
t-119 -54.5t-77.5 -105t-27 -169.5q0 -106 27.5 -174.5t78.5 -107.5t120.5 -54.5t152.5 -15.5zM484 75q-57 0 -107.5 11.5t-89.5 41t-60.5 82.5t-21.5 137q0 82 22.5 135t61 81t88.5 39.5t105 11.5h365v-367q-16 -40 -62 -80t-121.5 -66t-179.5 -26zM297 1236h85l150 122
l150 -122h83l-191 159h-86zM433 1691v-47q79 0 132.5 -3.5t81 -14t27.5 -32.5q0 -18 -25 -29t-64.5 -15t-82.5 -4v-101h53v61q25 0 56.5 4.5t61 14.5t49 28t19.5 44q0 41 -36.5 60.5t-105 26.5t-166.5 7z" />
    <glyph glyph-name="uni1EAA" unicode="&#x1eaa;" horiz-adv-x="1247" 
d="M67 0h130l134 402h583l134 -402h130l-464 1353h-182zM355 489l267 787h2l267 -787h-536zM387 1400h85l150 122l150 -122h83l-191 159h-86zM721 1649q33 0 55.5 8t37.5 20.5t24 27t13.5 28.5t3.5 24h-67q-1 -10 -9 -22.5t-24 -21t-39 -8.5q-31 0 -52 9t-39 22t-39.5 22
t-55.5 9q-30 0 -53.5 -7t-39 -19t-25 -26.5t-14.5 -28.5t-7 -25h68q2 10 10 22.5t25 20.5t41 8q26 0 45 -9.5t37.5 -22t42.5 -22t61 -9.5z" />
    <glyph glyph-name="uni1EAB" unicode="&#x1eab;" horiz-adv-x="1097" 
d="M459 -9q92 0 161.5 16.5t119 43t79 55t40.5 53.5l9 -159h105v763q0 155 -52.5 250t-151 139t-239.5 44q-88 0 -163 -20.5t-132 -65t-94.5 -115.5t-50.5 -173l122 -30q13 113 55 182.5t109 101.5t154 32q99 0 170 -35t110 -110t39 -196v-79h-395q-82 0 -150.5 -16
t-119 -54.5t-77.5 -105t-27 -169.5q0 -106 27.5 -174.5t78.5 -107.5t120.5 -54.5t152.5 -15.5zM484 75q-57 0 -107.5 11.5t-89.5 41t-60.5 82.5t-21.5 137q0 82 22.5 135t61 81t88.5 39.5t105 11.5h365v-367q-16 -40 -62 -80t-121.5 -66t-179.5 -26zM297 1236h85l150 122
l150 -122h83l-191 159h-86zM630 1484q33 0 55.5 8t37.5 20.5t24 27t13.5 28.5t3.5 24h-67q-1 -10 -9 -22.5t-24 -21t-39 -8.5q-31 0 -52 9t-39 22t-39.5 22t-55.5 9q-30 0 -53.5 -7t-39 -19t-25 -26.5t-14.5 -28.5t-7 -25h68q2 10 10 22.5t25 20.5t41 8q26 0 45 -9.5
t37.5 -22t42.5 -22t61 -9.5z" />
    <glyph glyph-name="uni1EAC" unicode="&#x1eac;" horiz-adv-x="1247" 
d="M67 0h130l134 402h583l134 -402h130l-464 1353h-182zM355 489l267 787h2l267 -787h-536zM622 -207q23 0 39.5 17t16.5 41q0 23 -16.5 39.5t-39.5 16.5q-24 0 -41 -16.5t-17 -39.5q0 -24 17.5 -41t40.5 -17zM387 1400h85l150 122l150 -122h83l-191 159h-86z" />
    <glyph glyph-name="uni1EAD" unicode="&#x1ead;" horiz-adv-x="1097" 
d="M459 -9q92 0 161.5 16.5t119 43t79 55t40.5 53.5l9 -159h105v763q0 155 -52.5 250t-151 139t-239.5 44q-88 0 -163 -20.5t-132 -65t-94.5 -115.5t-50.5 -173l122 -30q13 113 55 182.5t109 101.5t154 32q99 0 170 -35t110 -110t39 -196v-79h-395q-82 0 -150.5 -16
t-119 -54.5t-77.5 -105t-27 -169.5q0 -106 27.5 -174.5t78.5 -107.5t120.5 -54.5t152.5 -15.5zM484 75q-57 0 -107.5 11.5t-89.5 41t-60.5 82.5t-21.5 137q0 82 22.5 135t61 81t88.5 39.5t105 11.5h365v-367q-16 -40 -62 -80t-121.5 -66t-179.5 -26zM541 -244q23 0 39.5 17
t16.5 41q0 23 -16.5 39.5t-39.5 16.5q-24 0 -41 -16.5t-17 -39.5q0 -24 17.5 -41t40.5 -17zM297 1236h85l150 122l150 -122h83l-191 159h-86z" />
    <glyph glyph-name="uni1EAE" unicode="&#x1eae;" horiz-adv-x="1247" 
d="M67 0h130l134 402h583l134 -402h130l-464 1353h-182zM355 489l267 787h2l267 -787h-536zM621 1400q57 0 94 19.5t56 51t19 67.5h-68q0 -23 -9 -43.5t-31 -32.5t-61 -12q-35 0 -57 12.5t-32.5 32t-10.5 43.5h-67q0 -36 20.5 -67.5t57.5 -51t89 -19.5zM504 1580h72l163 142
h-99z" />
    <glyph glyph-name="uni1EAF" unicode="&#x1eaf;" horiz-adv-x="1097" 
d="M459 -9q92 0 161.5 16.5t119 43t79 55t40.5 53.5l9 -159h105v763q0 155 -52.5 250t-151 139t-239.5 44q-88 0 -163 -20.5t-132 -65t-94.5 -115.5t-50.5 -173l122 -30q13 113 55 182.5t109 101.5t154 32q99 0 170 -35t110 -110t39 -196v-79h-395q-82 0 -150.5 -16
t-119 -54.5t-77.5 -105t-27 -169.5q0 -106 27.5 -174.5t78.5 -107.5t120.5 -54.5t152.5 -15.5zM484 75q-57 0 -107.5 11.5t-89.5 41t-60.5 82.5t-21.5 137q0 82 22.5 135t61 81t88.5 39.5t105 11.5h365v-367q-16 -40 -62 -80t-121.5 -66t-179.5 -26zM530 1235q57 0 94 19.5
t56 51t19 67.5h-68q0 -23 -9 -43.5t-31 -32.5t-61 -12q-35 0 -57 12.5t-32.5 32t-10.5 43.5h-67q0 -36 20.5 -67.5t57.5 -51t89 -19.5zM413 1415h72l163 142h-99z" />
    <glyph glyph-name="uni1EB0" unicode="&#x1eb0;" horiz-adv-x="1247" 
d="M67 0h130l134 402h583l134 -402h130l-464 1353h-182zM355 489l267 787h2l267 -787h-536zM621 1400q57 0 94 19.5t56 51t19 67.5h-68q0 -23 -9 -43.5t-31 -32.5t-61 -12q-35 0 -57 12.5t-32.5 32t-10.5 43.5h-67q0 -36 20.5 -67.5t57.5 -51t89 -19.5zM667 1595h71
l-135 142h-99z" />
    <glyph glyph-name="uni1EB1" unicode="&#x1eb1;" horiz-adv-x="1097" 
d="M459 -9q92 0 161.5 16.5t119 43t79 55t40.5 53.5l9 -159h105v763q0 155 -52.5 250t-151 139t-239.5 44q-88 0 -163 -20.5t-132 -65t-94.5 -115.5t-50.5 -173l122 -30q13 113 55 182.5t109 101.5t154 32q99 0 170 -35t110 -110t39 -196v-79h-395q-82 0 -150.5 -16
t-119 -54.5t-77.5 -105t-27 -169.5q0 -106 27.5 -174.5t78.5 -107.5t120.5 -54.5t152.5 -15.5zM484 75q-57 0 -107.5 11.5t-89.5 41t-60.5 82.5t-21.5 137q0 82 22.5 135t61 81t88.5 39.5t105 11.5h365v-367q-16 -40 -62 -80t-121.5 -66t-179.5 -26zM530 1235q57 0 94 19.5
t56 51t19 67.5h-68q0 -23 -9 -43.5t-31 -32.5t-61 -12q-35 0 -57 12.5t-32.5 32t-10.5 43.5h-67q0 -36 20.5 -67.5t57.5 -51t89 -19.5zM576 1430h71l-135 142h-99z" />
    <glyph glyph-name="uni1EB2" unicode="&#x1eb2;" horiz-adv-x="1247" 
d="M67 0h130l134 402h583l134 -402h130l-464 1353h-182zM355 489l267 787h2l267 -787h-536zM621 1400q57 0 94 19.5t56 51t19 67.5h-68q0 -23 -9 -43.5t-31 -32.5t-61 -12q-35 0 -57 12.5t-32.5 32t-10.5 43.5h-67q0 -36 20.5 -67.5t57.5 -51t89 -19.5zM524 1834v-47
q79 0 132.5 -3.5t81 -14t27.5 -32.5q0 -18 -25 -29t-64.5 -15t-82.5 -4v-101h53v61q25 0 56.5 4.5t61 14.5t49 28t19.5 44q0 41 -36.5 60.5t-105 26.5t-166.5 7z" />
    <glyph glyph-name="uni1EB3" unicode="&#x1eb3;" horiz-adv-x="1097" 
d="M459 -9q92 0 161.5 16.5t119 43t79 55t40.5 53.5l9 -159h105v763q0 155 -52.5 250t-151 139t-239.5 44q-88 0 -163 -20.5t-132 -65t-94.5 -115.5t-50.5 -173l122 -30q13 113 55 182.5t109 101.5t154 32q99 0 170 -35t110 -110t39 -196v-79h-395q-82 0 -150.5 -16
t-119 -54.5t-77.5 -105t-27 -169.5q0 -106 27.5 -174.5t78.5 -107.5t120.5 -54.5t152.5 -15.5zM484 75q-57 0 -107.5 11.5t-89.5 41t-60.5 82.5t-21.5 137q0 82 22.5 135t61 81t88.5 39.5t105 11.5h365v-367q-16 -40 -62 -80t-121.5 -66t-179.5 -26zM530 1235q57 0 94 19.5
t56 51t19 67.5h-68q0 -23 -9 -43.5t-31 -32.5t-61 -12q-35 0 -57 12.5t-32.5 32t-10.5 43.5h-67q0 -36 20.5 -67.5t57.5 -51t89 -19.5zM433 1669v-47q79 0 132.5 -3.5t81 -14t27.5 -32.5q0 -18 -25 -29t-64.5 -15t-82.5 -4v-101h53v61q25 0 56.5 4.5t61 14.5t49 28t19.5 44
q0 41 -36.5 60.5t-105 26.5t-166.5 7z" />
    <glyph glyph-name="uni1EB4" unicode="&#x1eb4;" horiz-adv-x="1247" 
d="M67 0h130l134 402h583l134 -402h130l-464 1353h-182zM355 489l267 787h2l267 -787h-536zM621 1400q57 0 94 19.5t56 51t19 67.5h-68q0 -23 -9 -43.5t-31 -32.5t-61 -12q-35 0 -57 12.5t-32.5 32t-10.5 43.5h-67q0 -36 20.5 -67.5t57.5 -51t89 -19.5zM721 1627
q33 0 55.5 8t37.5 20.5t24 27t13.5 28.5t3.5 24h-67q-1 -10 -9 -22.5t-24 -21t-39 -8.5q-31 0 -52 9t-39 22t-39.5 22t-55.5 9q-30 0 -53.5 -7t-39 -19t-25 -26.5t-14.5 -28.5t-7 -25h68q2 10 10 22.5t25 20.5t41 8q26 0 45 -9.5t37.5 -22t42.5 -22t61 -9.5z" />
    <glyph glyph-name="uni1EB5" unicode="&#x1eb5;" horiz-adv-x="1097" 
d="M459 -9q92 0 161.5 16.5t119 43t79 55t40.5 53.5l9 -159h105v763q0 155 -52.5 250t-151 139t-239.5 44q-88 0 -163 -20.5t-132 -65t-94.5 -115.5t-50.5 -173l122 -30q13 113 55 182.5t109 101.5t154 32q99 0 170 -35t110 -110t39 -196v-79h-395q-82 0 -150.5 -16
t-119 -54.5t-77.5 -105t-27 -169.5q0 -106 27.5 -174.5t78.5 -107.5t120.5 -54.5t152.5 -15.5zM484 75q-57 0 -107.5 11.5t-89.5 41t-60.5 82.5t-21.5 137q0 82 22.5 135t61 81t88.5 39.5t105 11.5h365v-367q-16 -40 -62 -80t-121.5 -66t-179.5 -26zM530 1235q57 0 94 19.5
t56 51t19 67.5h-68q0 -23 -9 -43.5t-31 -32.5t-61 -12q-35 0 -57 12.5t-32.5 32t-10.5 43.5h-67q0 -36 20.5 -67.5t57.5 -51t89 -19.5zM630 1463q33 0 55.5 8t37.5 20.5t24 27t13.5 28.5t3.5 24h-67q-1 -10 -9 -22.5t-24 -21t-39 -8.5q-31 0 -52 9t-39 22t-39.5 22t-55.5 9
q-30 0 -53.5 -7t-39 -19t-25 -26.5t-14.5 -28.5t-7 -25h68q2 10 10 22.5t25 20.5t41 8q26 0 45 -9.5t37.5 -22t42.5 -22t61 -9.5z" />
    <glyph glyph-name="uni1EB6" unicode="&#x1eb6;" horiz-adv-x="1247" 
d="M67 0h130l134 402h583l134 -402h130l-464 1353h-182zM355 489l267 787h2l267 -787h-536zM622 -207q23 0 39.5 17t16.5 41q0 23 -16.5 39.5t-39.5 16.5q-24 0 -41 -16.5t-17 -39.5q0 -24 17.5 -41t40.5 -17zM621 1400q57 0 94 19.5t56 51t19 67.5h-68q0 -23 -9 -43.5
t-31 -32.5t-61 -12q-35 0 -57 12.5t-32.5 32t-10.5 43.5h-67q0 -36 20.5 -67.5t57.5 -51t89 -19.5z" />
    <glyph glyph-name="uni1EB7" unicode="&#x1eb7;" horiz-adv-x="1097" 
d="M459 -9q92 0 161.5 16.5t119 43t79 55t40.5 53.5l9 -159h105v763q0 155 -52.5 250t-151 139t-239.5 44q-88 0 -163 -20.5t-132 -65t-94.5 -115.5t-50.5 -173l122 -30q13 113 55 182.5t109 101.5t154 32q99 0 170 -35t110 -110t39 -196v-79h-395q-82 0 -150.5 -16
t-119 -54.5t-77.5 -105t-27 -169.5q0 -106 27.5 -174.5t78.5 -107.5t120.5 -54.5t152.5 -15.5zM484 75q-57 0 -107.5 11.5t-89.5 41t-60.5 82.5t-21.5 137q0 82 22.5 135t61 81t88.5 39.5t105 11.5h365v-367q-16 -40 -62 -80t-121.5 -66t-179.5 -26zM541 -244q23 0 39.5 17
t16.5 41q0 23 -16.5 39.5t-39.5 16.5q-24 0 -41 -16.5t-17 -39.5q0 -24 17.5 -41t40.5 -17zM530 1235q57 0 94 19.5t56 51t19 67.5h-68q0 -23 -9 -43.5t-31 -32.5t-61 -12q-35 0 -57 12.5t-32.5 32t-10.5 43.5h-67q0 -36 20.5 -67.5t57.5 -51t89 -19.5z" />
    <glyph glyph-name="uni1EB8" unicode="&#x1eb8;" horiz-adv-x="1044" 
d="M87 0h840v89h-715v562h676v86h-676v524h715v89h-840v-1350zM520 -207q23 0 39.5 17t16.5 41q0 23 -16.5 39.5t-39.5 16.5q-24 0 -41 -16.5t-17 -39.5q0 -24 17.5 -41t40.5 -17z" />
    <glyph glyph-name="uni1EB9" unicode="&#x1eb9;" horiz-adv-x="1118" 
d="M541 -9v85q-165 0 -256 129q-91 127 -91 391q0 285 96 400q95 115 251 115q160 0 250 -111q82 -107 88 -363h-702v-81h824q2 22 2 44q0 307 -111 452q-112 144 -351 144q-232 0 -349 -145q-118 -146 -118 -454q0 -288 114 -447q113 -159 353 -159zM541 76v-85
q135 0 230 42q94 41 149 135q54 93 68 218l-113 27q-13 -101 -51 -185q-40 -83 -114 -118q-74 -34 -169 -34zM544 -244q23 0 39.5 17t16.5 41q0 23 -16.5 39.5t-39.5 16.5q-24 0 -41 -16.5t-17 -39.5q0 -24 17.5 -41t40.5 -17z" />
    <glyph glyph-name="uni1EBA" unicode="&#x1eba;" horiz-adv-x="1044" 
d="M87 0h840v89h-715v562h676v86h-676v524h715v89h-840v-1350zM424 1646v-47q79 0 132.5 -3.5t81 -14t27.5 -32.5q0 -18 -25 -29t-64.5 -15t-82.5 -4v-101h53v61q25 0 56.5 4.5t61 14.5t49 28t19.5 44q0 41 -36.5 60.5t-105 26.5t-166.5 7z" />
    <glyph glyph-name="uni1EBB" unicode="&#x1ebb;" horiz-adv-x="1118" 
d="M541 -9v85q-165 0 -256 129q-91 127 -91 391q0 285 96 400q95 115 251 115q160 0 250 -111q82 -107 88 -363h-702v-81h824q2 22 2 44q0 307 -111 452q-112 144 -351 144q-232 0 -349 -145q-118 -146 -118 -454q0 -288 114 -447q113 -159 353 -159zM541 76v-85
q135 0 230 42q94 41 149 135q54 93 68 218l-113 27q-13 -101 -51 -185q-40 -83 -114 -118q-74 -34 -169 -34zM444 1480v-47q79 0 132.5 -3.5t81 -14t27.5 -32.5q0 -18 -25 -29t-64.5 -15t-82.5 -4v-101h53v61q25 0 56.5 4.5t61 14.5t49 28t19.5 44q0 41 -36.5 60.5
t-105 26.5t-166.5 7z" />
    <glyph glyph-name="uni1EBC" unicode="&#x1ebc;" horiz-adv-x="1044" 
d="M87 0h840v89h-715v562h676v86h-676v524h715v89h-840v-1350zM618 1439q33 0 55.5 8t37.5 20.5t24 27t13.5 28.5t3.5 24h-67q-1 -10 -9 -22.5t-24 -21t-39 -8.5q-31 0 -52 9t-39 22t-39.5 22t-55.5 9q-30 0 -53.5 -7t-39 -19t-25 -26.5t-14.5 -28.5t-7 -25h68q2 10 10 22.5
t25 20.5t41 8q26 0 45 -9.5t37.5 -22t42.5 -22t61 -9.5z" />
    <glyph glyph-name="uni1EBD" unicode="&#x1ebd;" horiz-adv-x="1118" 
d="M541 -9v85q-165 0 -256 129q-91 127 -91 391q0 285 96 400q95 115 251 115q160 0 250 -111q82 -107 88 -363h-702v-81h824q2 22 2 44q0 307 -111 452q-112 144 -351 144q-232 0 -349 -145q-118 -146 -118 -454q0 -288 114 -447q113 -159 353 -159zM541 76v-85
q135 0 230 42q94 41 149 135q54 93 68 218l-113 27q-13 -101 -51 -185q-40 -83 -114 -118q-74 -34 -169 -34zM640 1274q33 0 55.5 8t37.5 20.5t24 27t13.5 28.5t3.5 24h-67q-1 -10 -9 -22.5t-24 -21t-39 -8.5q-31 0 -52 9t-39 22t-39.5 22t-55.5 9q-30 0 -53.5 -7t-39 -19
t-25 -26.5t-14.5 -28.5t-7 -25h68q2 10 10 22.5t25 20.5t41 8q26 0 45 -9.5t37.5 -22t42.5 -22t61 -9.5z" />
    <glyph glyph-name="uni1EBE" unicode="&#x1ebe;" horiz-adv-x="1044" 
d="M87 0h840v89h-715v562h676v86h-676v524h715v89h-840v-1350zM284 1409h85l150 122l150 -122h83l-191 159h-86zM651 1541h72l163 142h-99z" />
    <glyph glyph-name="uni1EBF" unicode="&#x1ebf;" horiz-adv-x="1118" 
d="M541 -9v85q-165 0 -256 129q-91 127 -91 391q0 285 96 400q95 115 251 115q160 0 250 -111q82 -107 88 -363h-702v-81h824q2 22 2 44q0 307 -111 452q-112 144 -351 144q-232 0 -349 -145q-118 -146 -118 -454q0 -288 114 -447q113 -159 353 -159zM541 76v-85
q135 0 230 42q94 41 149 135q54 93 68 218l-113 27q-13 -101 -51 -185q-40 -83 -114 -118q-74 -34 -169 -34zM306 1244h85l150 122l150 -122h83l-191 159h-86zM673 1375h72l163 142h-99z" />
    <glyph glyph-name="uni1EC0" unicode="&#x1ec0;" horiz-adv-x="1044" 
d="M87 0h840v89h-715v562h676v86h-676v524h715v89h-840v-1350zM285 1404h85l150 122l150 -122h83l-191 159h-86zM713 1541h71l-135 142h-99z" />
    <glyph glyph-name="uni1EC1" unicode="&#x1ec1;" horiz-adv-x="1118" 
d="M541 -9v85q-165 0 -256 129q-91 127 -91 391q0 285 96 400q95 115 251 115q160 0 250 -111q82 -107 88 -363h-702v-81h824q2 22 2 44q0 307 -111 452q-112 144 -351 144q-232 0 -349 -145q-118 -146 -118 -454q0 -288 114 -447q113 -159 353 -159zM541 76v-85
q135 0 230 42q94 41 149 135q54 93 68 218l-113 27q-13 -101 -51 -185q-40 -83 -114 -118q-74 -34 -169 -34zM307 1238h85l150 122l150 -122h83l-191 159h-86zM735 1375h71l-135 142h-99z" />
    <glyph glyph-name="uni1EC2" unicode="&#x1ec2;" horiz-adv-x="1044" 
d="M87 0h840v89h-715v562h676v86h-676v524h715v89h-840v-1350zM285 1400h85l150 122l150 -122h83l-191 159h-86zM422 1855v-47q79 0 132.5 -3.5t81 -14t27.5 -32.5q0 -18 -25 -29t-64.5 -15t-82.5 -4v-101h53v61q25 0 56.5 4.5t61 14.5t49 28t19.5 44q0 41 -36.5 60.5
t-105 26.5t-166.5 7z" />
    <glyph glyph-name="uni1EC3" unicode="&#x1ec3;" horiz-adv-x="1118" 
d="M541 -9v85q-165 0 -256 129q-91 127 -91 391q0 285 96 400q95 115 251 115q160 0 250 -111q82 -107 88 -363h-702v-81h824q2 22 2 44q0 307 -111 452q-112 144 -351 144q-232 0 -349 -145q-118 -146 -118 -454q0 -288 114 -447q113 -159 353 -159zM541 76v-85
q135 0 230 42q94 41 149 135q54 93 68 218l-113 27q-13 -101 -51 -185q-40 -83 -114 -118q-74 -34 -169 -34zM307 1235h85l150 122l150 -122h83l-191 159h-86zM444 1690v-47q79 0 132.5 -3.5t81 -14t27.5 -32.5q0 -18 -25 -29t-64.5 -15t-82.5 -4v-101h53v61q25 0 56.5 4.5
t61 14.5t49 28t19.5 44q0 41 -36.5 60.5t-105 26.5t-166.5 7z" />
    <glyph glyph-name="uni1EC4" unicode="&#x1ec4;" horiz-adv-x="1044" 
d="M87 0h840v89h-715v562h676v86h-676v524h715v89h-840v-1350zM285 1400h85l150 122l150 -122h83l-191 159h-86zM618 1649q33 0 55.5 8t37.5 20.5t24 27t13.5 28.5t3.5 24h-67q-1 -10 -9 -22.5t-24 -21t-39 -8.5q-31 0 -52 9t-39 22t-39.5 22t-55.5 9q-30 0 -53.5 -7
t-39 -19t-25 -26.5t-14.5 -28.5t-7 -25h68q2 10 10 22.5t25 20.5t41 8q26 0 45 -9.5t37.5 -22t42.5 -22t61 -9.5z" />
    <glyph glyph-name="uni1EC5" unicode="&#x1ec5;" horiz-adv-x="1118" 
d="M541 -9v85q-165 0 -256 129q-91 127 -91 391q0 285 96 400q95 115 251 115q160 0 250 -111q82 -107 88 -363h-702v-81h824q2 22 2 44q0 307 -111 452q-112 144 -351 144q-232 0 -349 -145q-118 -146 -118 -454q0 -288 114 -447q113 -159 353 -159zM541 76v-85
q135 0 230 42q94 41 149 135q54 93 68 218l-113 27q-13 -101 -51 -185q-40 -83 -114 -118q-74 -34 -169 -34zM307 1235h85l150 122l150 -122h83l-191 159h-86zM640 1483q33 0 55.5 8t37.5 20.5t24 27t13.5 28.5t3.5 24h-67q-1 -10 -9 -22.5t-24 -21t-39 -8.5q-31 0 -52 9
t-39 22t-39.5 22t-55.5 9q-30 0 -53.5 -7t-39 -19t-25 -26.5t-14.5 -28.5t-7 -25h68q2 10 10 22.5t25 20.5t41 8q26 0 45 -9.5t37.5 -22t42.5 -22t61 -9.5z" />
    <glyph glyph-name="uni1EC6" unicode="&#x1ec6;" horiz-adv-x="1044" 
d="M87 0h840v89h-715v562h676v86h-676v524h715v89h-840v-1350zM520 -207q23 0 39.5 17t16.5 41q0 23 -16.5 39.5t-39.5 16.5q-24 0 -41 -16.5t-17 -39.5q0 -24 17.5 -41t40.5 -17zM285 1400h85l150 122l150 -122h83l-191 159h-86z" />
    <glyph glyph-name="uni1EC7" unicode="&#x1ec7;" horiz-adv-x="1118" 
d="M541 -9v85q-165 0 -256 129q-91 127 -91 391q0 285 96 400q95 115 251 115q160 0 250 -111q82 -107 88 -363h-702v-81h824q2 22 2 44q0 307 -111 452q-112 144 -351 144q-232 0 -349 -145q-118 -146 -118 -454q0 -288 114 -447q113 -159 353 -159zM541 76v-85
q135 0 230 42q94 41 149 135q54 93 68 218l-113 27q-13 -101 -51 -185q-40 -83 -114 -118q-74 -34 -169 -34zM544 -244q23 0 39.5 17t16.5 41q0 23 -16.5 39.5t-39.5 16.5q-24 0 -41 -16.5t-17 -39.5q0 -24 17.5 -41t40.5 -17zM307 1235h85l150 122l150 -122h83l-191 159
h-86z" />
    <glyph glyph-name="uni1EC8" unicode="&#x1ec8;" horiz-adv-x="470" 
d="M149 0h123v1350h-123v-1350zM115 1646v-47q79 0 132.5 -3.5t81 -14t27.5 -32.5q0 -18 -25 -29t-64.5 -15t-82.5 -4v-101h53v61q25 0 56.5 4.5t61 14.5t49 28t19.5 44q0 41 -36.5 60.5t-105 26.5t-166.5 7z" />
    <glyph glyph-name="uni1EC9" unicode="&#x1ec9;" horiz-adv-x="390" 
d="M111 0h124v1186h-124v-1186zM76 1480v-47q79 0 132.5 -3.5t81 -14t27.5 -32.5q0 -18 -25 -29t-64.5 -15t-82.5 -4v-101h53v61q25 0 56.5 4.5t61 14.5t49 28t19.5 44q0 41 -36.5 60.5t-105 26.5t-166.5 7z" />
    <glyph glyph-name="uni1ECA" unicode="&#x1eca;" horiz-adv-x="470" 
d="M149 0h123v1350h-123v-1350zM212 -207q23 0 39.5 17t16.5 41q0 23 -16.5 39.5t-39.5 16.5q-24 0 -41 -16.5t-17 -39.5q0 -24 17.5 -41t40.5 -17z" />
    <glyph glyph-name="uni1ECB" unicode="&#x1ecb;" horiz-adv-x="434" 
d="M141 0h124v1186h-124v-1186zM141 1490v-145h124v145h-124zM209 -244q23 0 39.5 17t16.5 41q0 23 -16.5 39.5t-39.5 16.5q-24 0 -41 -16.5t-17 -39.5q0 -24 17.5 -41t40.5 -17z" />
    <glyph glyph-name="uni1ECC" unicode="&#x1ecc;" horiz-adv-x="1250" 
d="M614 -9q263 0 401 159t138 525t-138 526t-401 160t-400.5 -159.5t-137.5 -526.5q0 -366 138 -525t400 -159zM614 80q-182 0 -298 124t-116 471q0 348 116 472t298 124q183 0 298.5 -124t115.5 -472q0 -347 -115.5 -471t-298.5 -124zM616 -207q23 0 39.5 17t16.5 41
q0 23 -16.5 39.5t-39.5 16.5q-24 0 -41 -16.5t-17 -39.5q0 -24 17.5 -41t40.5 -17z" />
    <glyph glyph-name="uni1ECD" unicode="&#x1ecd;" horiz-adv-x="1123" 
d="M544 -8q230 0 351.5 142.5t121.5 459.5q0 319 -121.5 461t-351.5 142t-351.5 -142t-121.5 -461q0 -317 121.5 -459.5t351.5 -142.5zM544 80q-152 0 -251 111t-99 403t99 403.5t251 111.5t250.5 -111.5t98.5 -403.5t-98.5 -403t-250.5 -111zM549 -244q23 0 39.5 17
t16.5 41q0 23 -16.5 39.5t-39.5 16.5q-24 0 -41 -16.5t-17 -39.5q0 -24 17.5 -41t40.5 -17z" />
    <glyph glyph-name="uni1ECE" unicode="&#x1ece;" horiz-adv-x="1250" 
d="M614 -9q263 0 401 159t138 525t-138 526t-401 160t-400.5 -159.5t-137.5 -526.5q0 -366 138 -525t400 -159zM614 80q-182 0 -298 124t-116 471q0 348 116 472t298 124q183 0 298.5 -124t115.5 -472q0 -347 -115.5 -471t-298.5 -124zM521 1646v-47q79 0 132.5 -3.5t81 -14
t27.5 -32.5q0 -18 -25 -29t-64.5 -15t-82.5 -4v-101h53v61q25 0 56.5 4.5t61 14.5t49 28t19.5 44q0 41 -36.5 60.5t-105 26.5t-166.5 7z" />
    <glyph glyph-name="uni1ECF" unicode="&#x1ecf;" horiz-adv-x="1123" 
d="M544 -8q230 0 351.5 142.5t121.5 459.5q0 319 -121.5 461t-351.5 142t-351.5 -142t-121.5 -461q0 -317 121.5 -459.5t351.5 -142.5zM544 80q-152 0 -251 111t-99 403t99 403.5t251 111.5t250.5 -111.5t98.5 -403.5t-98.5 -403t-250.5 -111zM447 1482v-47q79 0 132.5 -3.5
t81 -14t27.5 -32.5q0 -18 -25 -29t-64.5 -15t-82.5 -4v-101h53v61q25 0 56.5 4.5t61 14.5t49 28t19.5 44q0 41 -36.5 60.5t-105 26.5t-166.5 7z" />
    <glyph glyph-name="uni1ED0" unicode="&#x1ed0;" horiz-adv-x="1250" 
d="M614 -9q263 0 401 159t138 525t-138 526t-401 160t-400.5 -159.5t-137.5 -526.5q0 -366 138 -525t400 -159zM614 80q-182 0 -298 124t-116 471q0 348 116 472t298 124q183 0 298.5 -124t115.5 -472q0 -347 -115.5 -471t-298.5 -124zM381 1409h85l150 122l150 -122h83
l-191 159h-86zM748 1541h72l163 142h-99z" />
    <glyph glyph-name="uni1ED1" unicode="&#x1ed1;" horiz-adv-x="1123" 
d="M544 -8q230 0 351.5 142.5t121.5 459.5q0 319 -121.5 461t-351.5 142t-351.5 -142t-121.5 -461q0 -317 121.5 -459.5t351.5 -142.5zM544 80q-152 0 -251 111t-99 403t99 403.5t251 111.5t250.5 -111.5t98.5 -403.5t-98.5 -403t-250.5 -111zM308 1245h85l150 122l150 -122
h83l-191 159h-86zM676 1377h72l163 142h-99z" />
    <glyph glyph-name="uni1ED2" unicode="&#x1ed2;" horiz-adv-x="1250" 
d="M614 -9q263 0 401 159t138 525t-138 526t-401 160t-400.5 -159.5t-137.5 -526.5q0 -366 138 -525t400 -159zM614 80q-182 0 -298 124t-116 471q0 348 116 472t298 124q183 0 298.5 -124t115.5 -472q0 -347 -115.5 -471t-298.5 -124zM382 1404h85l150 122l150 -122h83
l-191 159h-86zM810 1541h71l-135 142h-99z" />
    <glyph glyph-name="uni1ED3" unicode="&#x1ed3;" horiz-adv-x="1123" 
d="M544 -8q230 0 351.5 142.5t121.5 459.5q0 319 -121.5 461t-351.5 142t-351.5 -142t-121.5 -461q0 -317 121.5 -459.5t351.5 -142.5zM544 80q-152 0 -251 111t-99 403t99 403.5t251 111.5t250.5 -111.5t98.5 -403.5t-98.5 -403t-250.5 -111zM309 1240h85l150 122l150 -122
h83l-191 159h-86zM738 1377h71l-135 142h-99z" />
    <glyph glyph-name="uni1ED4" unicode="&#x1ed4;" horiz-adv-x="1250" 
d="M614 -9q263 0 401 159t138 525t-138 526t-401 160t-400.5 -159.5t-137.5 -526.5q0 -366 138 -525t400 -159zM614 80q-182 0 -298 124t-116 471q0 348 116 472t298 124q183 0 298.5 -124t115.5 -472q0 -347 -115.5 -471t-298.5 -124zM383 1400h85l150 122l150 -122h83
l-191 159h-86zM519 1855v-47q79 0 132.5 -3.5t81 -14t27.5 -32.5q0 -18 -25 -29t-64.5 -15t-82.5 -4v-101h53v61q25 0 56.5 4.5t61 14.5t49 28t19.5 44q0 41 -36.5 60.5t-105 26.5t-166.5 7z" />
    <glyph glyph-name="uni1ED5" unicode="&#x1ed5;" horiz-adv-x="1123" 
d="M544 -8q230 0 351.5 142.5t121.5 459.5q0 319 -121.5 461t-351.5 142t-351.5 -142t-121.5 -461q0 -317 121.5 -459.5t351.5 -142.5zM544 80q-152 0 -251 111t-99 403t99 403.5t251 111.5t250.5 -111.5t98.5 -403.5t-98.5 -403t-250.5 -111zM310 1237h85l150 122l150 -122
h83l-191 159h-86zM447 1691v-47q79 0 132.5 -3.5t81 -14t27.5 -32.5q0 -18 -25 -29t-64.5 -15t-82.5 -4v-101h53v61q25 0 56.5 4.5t61 14.5t49 28t19.5 44q0 41 -36.5 60.5t-105 26.5t-166.5 7z" />
    <glyph glyph-name="uni1ED6" unicode="&#x1ed6;" horiz-adv-x="1250" 
d="M614 -9q263 0 401 159t138 525t-138 526t-401 160t-400.5 -159.5t-137.5 -526.5q0 -366 138 -525t400 -159zM614 80q-182 0 -298 124t-116 471q0 348 116 472t298 124q183 0 298.5 -124t115.5 -472q0 -347 -115.5 -471t-298.5 -124zM383 1400h85l150 122l150 -122h83
l-191 159h-86zM716 1649q33 0 55.5 8t37.5 20.5t24 27t13.5 28.5t3.5 24h-67q-1 -10 -9 -22.5t-24 -21t-39 -8.5q-31 0 -52 9t-39 22t-39.5 22t-55.5 9q-30 0 -53.5 -7t-39 -19t-25 -26.5t-14.5 -28.5t-7 -25h68q2 10 10 22.5t25 20.5t41 8q26 0 45 -9.5t37.5 -22t42.5 -22
t61 -9.5z" />
    <glyph glyph-name="uni1ED7" unicode="&#x1ed7;" horiz-adv-x="1123" 
d="M544 -8q230 0 351.5 142.5t121.5 459.5q0 319 -121.5 461t-351.5 142t-351.5 -142t-121.5 -461q0 -317 121.5 -459.5t351.5 -142.5zM544 80q-152 0 -251 111t-99 403t99 403.5t251 111.5t250.5 -111.5t98.5 -403.5t-98.5 -403t-250.5 -111zM310 1237h85l150 122l150 -122
h83l-191 159h-86zM643 1485q33 0 55.5 8t37.5 20.5t24 27t13.5 28.5t3.5 24h-67q-1 -10 -9 -22.5t-24 -21t-39 -8.5q-31 0 -52 9t-39 22t-39.5 22t-55.5 9q-30 0 -53.5 -7t-39 -19t-25 -26.5t-14.5 -28.5t-7 -25h68q2 10 10 22.5t25 20.5t41 8q26 0 45 -9.5t37.5 -22
t42.5 -22t61 -9.5z" />
    <glyph glyph-name="uni1ED8" unicode="&#x1ed8;" horiz-adv-x="1250" 
d="M614 -9q263 0 401 159t138 525t-138 526t-401 160t-400.5 -159.5t-137.5 -526.5q0 -366 138 -525t400 -159zM614 80q-182 0 -298 124t-116 471q0 348 116 472t298 124q183 0 298.5 -124t115.5 -472q0 -347 -115.5 -471t-298.5 -124zM616 -207q23 0 39.5 17t16.5 41
q0 23 -16.5 39.5t-39.5 16.5q-24 0 -41 -16.5t-17 -39.5q0 -24 17.5 -41t40.5 -17zM383 1400h85l150 122l150 -122h83l-191 159h-86z" />
    <glyph glyph-name="uni1ED9" unicode="&#x1ed9;" horiz-adv-x="1123" 
d="M544 -8q230 0 351.5 142.5t121.5 459.5q0 319 -121.5 461t-351.5 142t-351.5 -142t-121.5 -461q0 -317 121.5 -459.5t351.5 -142.5zM544 80q-152 0 -251 111t-99 403t99 403.5t251 111.5t250.5 -111.5t98.5 -403.5t-98.5 -403t-250.5 -111zM549 -244q23 0 39.5 17
t16.5 41q0 23 -16.5 39.5t-39.5 16.5q-24 0 -41 -16.5t-17 -39.5q0 -24 17.5 -41t40.5 -17zM310 1237h85l150 122l150 -122h83l-191 159h-86z" />
    <glyph glyph-name="uni1EDA" unicode="&#x1eda;" horiz-adv-x="1250" 
d="M614 -9q263 0 401 159t138 525t-138 526t-401 160t-400.5 -159.5t-137.5 -526.5q0 -366 138 -525t400 -159zM614 80q-182 0 -298 124t-116 471q0 348 116 472t298 124q183 0 298.5 -124t115.5 -472q0 -347 -115.5 -471t-298.5 -124zM974 1217v-48q102 0 164.5 19.5
t93 61.5t30.5 109h-78q0 -52 -18.5 -83t-64 -45t-127.5 -14zM499 1392h72l163 142h-99z" />
    <glyph glyph-name="uni1EDB" unicode="&#x1edb;" horiz-adv-x="1123" 
d="M544 -8q230 0 351.5 142.5t121.5 459.5q0 319 -121.5 461t-351.5 142t-351.5 -142t-121.5 -461q0 -317 121.5 -459.5t351.5 -142.5zM544 80q-152 0 -251 111t-99 403t99 403.5t251 111.5t250.5 -111.5t98.5 -403.5t-98.5 -403t-250.5 -111zM870 1073v-48
q102 0 164.5 19.5t93 61.5t30.5 109h-78q0 -52 -18.5 -83t-64 -45t-127.5 -14zM427 1228h72l163 142h-99z" />
    <glyph glyph-name="uni1EDC" unicode="&#x1edc;" horiz-adv-x="1250" 
d="M614 -9q263 0 401 159t138 525t-138 526t-401 160t-400.5 -159.5t-137.5 -526.5q0 -366 138 -525t400 -159zM614 80q-182 0 -298 124t-116 471q0 348 116 472t298 124q183 0 298.5 -124t115.5 -472q0 -347 -115.5 -471t-298.5 -124zM974 1217v-48q102 0 164.5 19.5
t93 61.5t30.5 109h-78q0 -52 -18.5 -83t-64 -45t-127.5 -14zM662 1409h71l-135 142h-99z" />
    <glyph glyph-name="uni1EDD" unicode="&#x1edd;" horiz-adv-x="1123" 
d="M544 -8q230 0 351.5 142.5t121.5 459.5q0 319 -121.5 461t-351.5 142t-351.5 -142t-121.5 -461q0 -317 121.5 -459.5t351.5 -142.5zM544 80q-152 0 -251 111t-99 403t99 403.5t251 111.5t250.5 -111.5t98.5 -403.5t-98.5 -403t-250.5 -111zM870 1073v-48
q102 0 164.5 19.5t93 61.5t30.5 109h-78q0 -52 -18.5 -83t-64 -45t-127.5 -14zM590 1243h71l-135 142h-99z" />
    <glyph glyph-name="uni1EDE" unicode="&#x1ede;" horiz-adv-x="1250" 
d="M614 -9q263 0 401 159t138 525t-138 526t-401 160t-400.5 -159.5t-137.5 -526.5q0 -366 138 -525t400 -159zM614 80q-182 0 -298 124t-116 471q0 348 116 472t298 124q183 0 298.5 -124t115.5 -472q0 -347 -115.5 -471t-298.5 -124zM974 1217v-48q102 0 164.5 19.5
t93 61.5t30.5 109h-78q0 -52 -18.5 -83t-64 -45t-127.5 -14zM521 1646v-47q79 0 132.5 -3.5t81 -14t27.5 -32.5q0 -18 -25 -29t-64.5 -15t-82.5 -4v-101h53v61q25 0 56.5 4.5t61 14.5t49 28t19.5 44q0 41 -36.5 60.5t-105 26.5t-166.5 7z" />
    <glyph glyph-name="uni1EDF" unicode="&#x1edf;" horiz-adv-x="1123" 
d="M544 -8q230 0 351.5 142.5t121.5 459.5q0 319 -121.5 461t-351.5 142t-351.5 -142t-121.5 -461q0 -317 121.5 -459.5t351.5 -142.5zM544 80q-152 0 -251 111t-99 403t99 403.5t251 111.5t250.5 -111.5t98.5 -403.5t-98.5 -403t-250.5 -111zM870 1073v-48
q102 0 164.5 19.5t93 61.5t30.5 109h-78q0 -52 -18.5 -83t-64 -45t-127.5 -14zM447 1482v-47q79 0 132.5 -3.5t81 -14t27.5 -32.5q0 -18 -25 -29t-64.5 -15t-82.5 -4v-101h53v61q25 0 56.5 4.5t61 14.5t49 28t19.5 44q0 41 -36.5 60.5t-105 26.5t-166.5 7z" />
    <glyph glyph-name="uni1EE0" unicode="&#x1ee0;" horiz-adv-x="1250" 
d="M614 -9q263 0 401 159t138 525t-138 526t-401 160t-400.5 -159.5t-137.5 -526.5q0 -366 138 -525t400 -159zM614 80q-182 0 -298 124t-116 471q0 348 116 472t298 124q183 0 298.5 -124t115.5 -472q0 -347 -115.5 -471t-298.5 -124zM974 1217v-48q102 0 164.5 19.5
t93 61.5t30.5 109h-78q0 -52 -18.5 -83t-64 -45t-127.5 -14zM716 1439q33 0 55.5 8t37.5 20.5t24 27t13.5 28.5t3.5 24h-67q-1 -10 -9 -22.5t-24 -21t-39 -8.5q-31 0 -52 9t-39 22t-39.5 22t-55.5 9q-30 0 -53.5 -7t-39 -19t-25 -26.5t-14.5 -28.5t-7 -25h68q2 10 10 22.5
t25 20.5t41 8q26 0 45 -9.5t37.5 -22t42.5 -22t61 -9.5z" />
    <glyph glyph-name="uni1EE1" unicode="&#x1ee1;" horiz-adv-x="1123" 
d="M544 -8q230 0 351.5 142.5t121.5 459.5q0 319 -121.5 461t-351.5 142t-351.5 -142t-121.5 -461q0 -317 121.5 -459.5t351.5 -142.5zM544 80q-152 0 -251 111t-99 403t99 403.5t251 111.5t250.5 -111.5t98.5 -403.5t-98.5 -403t-250.5 -111zM870 1073v-48
q102 0 164.5 19.5t93 61.5t30.5 109h-78q0 -52 -18.5 -83t-64 -45t-127.5 -14zM643 1276q33 0 55.5 8t37.5 20.5t24 27t13.5 28.5t3.5 24h-67q-1 -10 -9 -22.5t-24 -21t-39 -8.5q-31 0 -52 9t-39 22t-39.5 22t-55.5 9q-30 0 -53.5 -7t-39 -19t-25 -26.5t-14.5 -28.5t-7 -25
h68q2 10 10 22.5t25 20.5t41 8q26 0 45 -9.5t37.5 -22t42.5 -22t61 -9.5z" />
    <glyph glyph-name="uni1EE2" unicode="&#x1ee2;" horiz-adv-x="1250" 
d="M614 -9q263 0 401 159t138 525t-138 526t-401 160t-400.5 -159.5t-137.5 -526.5q0 -366 138 -525t400 -159zM614 80q-182 0 -298 124t-116 471q0 348 116 472t298 124q183 0 298.5 -124t115.5 -472q0 -347 -115.5 -471t-298.5 -124zM974 1217v-48q102 0 164.5 19.5
t93 61.5t30.5 109h-78q0 -52 -18.5 -83t-64 -45t-127.5 -14zM616 -207q23 0 39.5 17t16.5 41q0 23 -16.5 39.5t-39.5 16.5q-24 0 -41 -16.5t-17 -39.5q0 -24 17.5 -41t40.5 -17z" />
    <glyph glyph-name="uni1EE3" unicode="&#x1ee3;" horiz-adv-x="1123" 
d="M544 -8q230 0 351.5 142.5t121.5 459.5q0 319 -121.5 461t-351.5 142t-351.5 -142t-121.5 -461q0 -317 121.5 -459.5t351.5 -142.5zM544 80q-152 0 -251 111t-99 403t99 403.5t251 111.5t250.5 -111.5t98.5 -403.5t-98.5 -403t-250.5 -111zM870 1073v-48
q102 0 164.5 19.5t93 61.5t30.5 109h-78q0 -52 -18.5 -83t-64 -45t-127.5 -14zM549 -244q23 0 39.5 17t16.5 41q0 23 -16.5 39.5t-39.5 16.5q-24 0 -41 -16.5t-17 -39.5q0 -24 17.5 -41t40.5 -17z" />
    <glyph glyph-name="uni1EE4" unicode="&#x1ee4;" horiz-adv-x="1219" 
d="M592 -9q234 0 359 95t125 319v944h-124v-925q0 -187 -91.5 -265t-268.5 -78t-268.5 78t-91.5 265v925h-124v-944q0 -224 125 -319t359 -95zM597 -207q23 0 39.5 17t16.5 41q0 23 -16.5 39.5t-39.5 16.5q-24 0 -41 -16.5t-17 -39.5q0 -24 17.5 -41t40.5 -17z" />
    <glyph glyph-name="uni1EE5" unicode="&#x1ee5;" horiz-adv-x="1086" 
d="M850 0h98v1184h-123v-977zM220 1186h-123v-708q0 -235 83.5 -362t276.5 -127q192 0 310.5 115.5t118.5 253.5l-60 54q0 -142 -95 -238t-234 -96q-140 0 -208.5 95.5t-68.5 307.5v705zM525 -244q23 0 39.5 17t16.5 41q0 23 -16.5 39.5t-39.5 16.5q-24 0 -41 -16.5
t-17 -39.5q0 -24 17.5 -41t40.5 -17z" />
    <glyph glyph-name="uni1EE6" unicode="&#x1ee6;" horiz-adv-x="1219" 
d="M592 -9q234 0 359 95t125 319v944h-124v-925q0 -187 -91.5 -265t-268.5 -78t-268.5 78t-91.5 265v925h-124v-944q0 -224 125 -319t359 -95zM501 1646v-47q79 0 132.5 -3.5t81 -14t27.5 -32.5q0 -18 -25 -29t-64.5 -15t-82.5 -4v-101h53v61q25 0 56.5 4.5t61 14.5t49 28
t19.5 44q0 41 -36.5 60.5t-105 26.5t-166.5 7z" />
    <glyph glyph-name="uni1EE7" unicode="&#x1ee7;" horiz-adv-x="1086" 
d="M850 0h98v1184h-123v-977zM220 1186h-123v-708q0 -235 83.5 -362t276.5 -127q192 0 310.5 115.5t118.5 253.5l-60 54q0 -142 -95 -238t-234 -96q-140 0 -208.5 95.5t-68.5 307.5v705zM428 1480v-47q79 0 132.5 -3.5t81 -14t27.5 -32.5q0 -18 -25 -29t-64.5 -15t-82.5 -4
v-101h53v61q25 0 56.5 4.5t61 14.5t49 28t19.5 44q0 41 -36.5 60.5t-105 26.5t-166.5 7z" />
    <glyph glyph-name="uni1EE8" unicode="&#x1ee8;" horiz-adv-x="1219" 
d="M592 -9q234 0 359 95t125 319v944h-124v-925q0 -187 -91.5 -265t-268.5 -78t-268.5 78t-91.5 265v925h-124v-944q0 -224 125 -319t359 -95zM1074 1242v-48q102 0 164.5 19.5t93 61.5t30.5 109h-78q0 -52 -18.5 -83t-64 -45t-127.5 -14zM478 1392h72l163 142h-99z" />
    <glyph glyph-name="uni1EE9" unicode="&#x1ee9;" horiz-adv-x="1086" 
d="M850 0h98v1184h-123v-977zM220 1186h-123v-708q0 -235 83.5 -362t276.5 -127q192 0 310.5 115.5t118.5 253.5l-60 54q0 -142 -95 -238t-234 -96q-140 0 -208.5 95.5t-68.5 307.5v705zM941 1185v-48q102 0 164.5 19.5t93 61.5t30.5 109h-78q0 -52 -18.5 -83t-64 -45
t-127.5 -14zM408 1226h72l163 142h-99z" />
    <glyph glyph-name="uni1EEA" unicode="&#x1eea;" horiz-adv-x="1219" 
d="M592 -9q234 0 359 95t125 319v944h-124v-925q0 -187 -91.5 -265t-268.5 -78t-268.5 78t-91.5 265v925h-124v-944q0 -224 125 -319t359 -95zM1074 1242v-48q102 0 164.5 19.5t93 61.5t30.5 109h-78q0 -52 -18.5 -83t-64 -45t-127.5 -14zM641 1409h71l-135 142h-99z" />
    <glyph glyph-name="uni1EEB" unicode="&#x1eeb;" horiz-adv-x="1086" 
d="M850 0h98v1184h-123v-977zM220 1186h-123v-708q0 -235 83.5 -362t276.5 -127q192 0 310.5 115.5t118.5 253.5l-60 54q0 -142 -95 -238t-234 -96q-140 0 -208.5 95.5t-68.5 307.5v705zM941 1185v-48q102 0 164.5 19.5t93 61.5t30.5 109h-78q0 -52 -18.5 -83t-64 -45
t-127.5 -14zM571 1241h71l-135 142h-99z" />
    </font>
</defs>
</svg>
