<?xml version="1.0" standalone="no"?>
<!DOCTYPE svg PUBLIC "-//W3C//DTD SVG 1.1//EN" "http://www.w3.org/Graphics/SVG/1.1/DTD/svg11.dtd" >
<svg xmlns="http://www.w3.org/2000/svg" xmlns:xlink="http://www.w3.org/1999/xlink" version="1.1">
<metadata>
Created by FontForge 20201107 at Wed Mar  8 16:58:27 2023
 By 
Copyright 2020 The Anybody Project Authors (https://github.com/Etcetera-Type-Co/Anybody)
</metadata>
<defs>
<font id="Anybody-SemiBold" horiz-adv-x="0" >
  <font-face 
    font-family="Anybody SemiBold"
    font-weight="600"
    font-stretch="normal"
    units-per-em="2000"
    panose-1="0 0 0 0 0 0 0 0 0 0"
    ascent="1600"
    descent="-400"
    x-height="1185"
    cap-height="1350"
    bbox="-298 -530 2637 1938"
    underline-thickness="96"
    underline-position="-258"
    unicode-range="U+000D-FB02"
  />
<missing-glyph horiz-adv-x="583" 
d="M100 146h348v1042h-348v-1042zM202 226l170 172l-20 20l-170 -172zM352 226l20 20l-170 172l-20 -20zM202 564l170 172l-20 20l-170 -172zM352 564l20 20l-170 172l-20 -20zM126 172v990h296v-990h-296zM202 902l170 172l-20 20l-170 -172zM352 902l20 20l-170 172
l-20 -20z" />
    <glyph glyph-name="fi" unicode="fi" horiz-adv-x="1496" 
d="M269 0h281v992h328v193h-328v55q0 92 75 122t230 30h32v186h-39q-273 0 -426 -76t-153 -261v-56h-241v-193h241v-992zM1071 0h282v1186h-282v-1186zM1071 1529v-212h282v212h-282z" />
    <glyph glyph-name="fl" unicode="fl" horiz-adv-x="1482" 
d="M269 0h281v992h328v193h-328v55q0 92 75 122t230 30h32v186h-39q-273 0 -426 -76t-153 -261v-56h-241v-193h241v-992zM1073 0h281v1570h-281v-1570z" />
    <glyph glyph-name="f_f" unicode="ff" horiz-adv-x="1892" 
d="M269 0h281v992h328v193h-328v55q0 92 75 122t230 30h32v186h-39q-273 0 -426 -76t-153 -261v-56h-241v-193h241v-992zM1190 0h281v992h328v193h-328v55q0 92 75 122t230 30h32v186h-39q-273 0 -426 -76t-153 -261v-56h-241v-193h241v-992z" />
    <glyph glyph-name="f_f_i" unicode="ffi" horiz-adv-x="2417" 
d="M269 0h281v992h328v193h-328v55q0 92 75 122t230 30h32v186h-39q-273 0 -426 -76t-153 -261v-56h-241v-193h241v-992zM1190 0h281v992h328v193h-328v55q0 92 75 122t230 30h32v186h-39q-273 0 -426 -76t-153 -261v-56h-241v-193h241v-992zM1992 0h282v1186h-282v-1186z
M1992 1529v-212h282v212h-282z" />
    <glyph glyph-name="f_f_l" unicode="ffl" horiz-adv-x="2402" 
d="M269 0h281v992h328v193h-328v55q0 92 75 122t230 30h32v186h-39q-273 0 -426 -76t-153 -261v-56h-241v-193h241v-992zM1190 0h281v992h328v193h-328v55q0 92 75 122t230 30h32v186h-39q-273 0 -426 -76t-153 -261v-56h-241v-193h241v-992zM1994 0h281v1570h-281v-1570z
" />
    <glyph glyph-name=".notdef" horiz-adv-x="583" 
d="M100 146h348v1042h-348v-1042zM202 226l170 172l-20 20l-170 -172zM352 226l20 20l-170 172l-20 -20zM202 564l170 172l-20 20l-170 -172zM352 564l20 20l-170 172l-20 -20zM126 172v990h296v-990h-296zM202 902l170 172l-20 20l-170 -172zM352 902l20 20l-170 172
l-20 -20z" />
    <glyph glyph-name=".null" 
 />
    <glyph glyph-name="nonmarkingreturn" horiz-adv-x="666" 
 />
    <glyph glyph-name="CR" unicode="&#xd;" horiz-adv-x="413" 
 />
    <glyph glyph-name="space" unicode=" " horiz-adv-x="508" 
 />
    <glyph glyph-name="exclam" unicode="!" horiz-adv-x="467" 
d="M99 371h272l26 979h-325zM89 -13h279v233h-279v-233z" />
    <glyph glyph-name="quotedbl" unicode="&#x22;" horiz-adv-x="501" 
d="M279 868h162v482h-162v-482zM41 868h168v482h-168v-482z" />
    <glyph glyph-name="numbersign" unicode="#" horiz-adv-x="1400" 
d="M792 0h215l191 1350h-215zM42 334h1261v166h-1261v-166zM180 0h214l191 1350h-214zM74 846h1261v168h-1261v-168z" />
    <glyph glyph-name="dollar" unicode="$" horiz-adv-x="1193" 
d="M519 1217h169v164h-169v-164zM521 -30h169v160h-169v-160zM634 80q254 0 389.5 83.5t135.5 266.5q0 179 -129 248.5t-320 102.5q-155 28 -254.5 57.5t-99.5 115.5q0 70 57.5 109t177.5 39q126 0 205 -58.5t100 -167.5l247 88q-37 175 -178 247.5t-371 72.5
q-234 0 -374.5 -81.5t-140.5 -248.5q0 -176 119 -252.5t314 -112.5q160 -29 264.5 -58t104.5 -122q0 -66 -62.5 -105.5t-180.5 -39.5q-135 0 -217.5 57.5t-103.5 178.5l-247 -89q41 -183 189.5 -257t374.5 -74z" />
    <glyph glyph-name="percent" unicode="%" horiz-adv-x="1387" 
d="M75 0h196l1032 1348h-196zM397 826q164 0 246.5 53t82.5 176v81q0 124 -82.5 177.5t-246.5 53.5t-246.5 -53.5t-82.5 -177.5v-81q0 -122 83 -175.5t246 -53.5zM396 937q-76 0 -112 25.5t-36 90.5v86q0 65 36 90.5t112 25.5t112.5 -25.5t36.5 -90.5v-86q0 -65 -36.5 -90.5
t-112.5 -25.5zM1025 -8q163 0 245 53t82 176v81q0 124 -82 177.5t-245 53.5q-164 0 -247 -53.5t-83 -177.5v-81q0 -122 83 -175.5t247 -53.5zM1023 103q-76 0 -111.5 25.5t-35.5 90.5v86q0 65 35.5 90.5t111.5 25.5t112.5 -25.5t36.5 -90.5v-86q0 -65 -36.5 -90.5
t-112.5 -25.5z" />
    <glyph glyph-name="ampersand" unicode="&#x26;" horiz-adv-x="1548" 
d="M629 -12q330 0 583.5 172t253.5 519h-251q0 -265 -179 -380t-392 -115q-175 0 -253.5 44t-78.5 136t92.5 153.5t265.5 132.5q169 76 299.5 162t130.5 229q0 162 -127.5 241.5t-325.5 79.5q-183 0 -313.5 -80t-130.5 -243q0 -126 92 -227.5t172 -172.5l703 -639h322
l-824 774q-86 72 -141 133t-55 132q0 72 48 105t129 33q84 0 134.5 -33.5t50.5 -103.5q0 -71 -78.5 -126t-219.5 -105q-146 -67 -325.5 -174t-179.5 -287q0 -178 154 -269t444 -91z" />
    <glyph glyph-name="quotesingle" unicode="'" horiz-adv-x="317" 
d="M55 892h204v458h-204v-458z" />
    <glyph glyph-name="parenleft" unicode="(" horiz-adv-x="671" 
d="M392 -459l207 122q-27 27 -64 75.5t-77 121.5t-74.5 170.5t-57 223t-22.5 280.5t22.5 282t57 226t74.5 173t77 123t64 75l-207 122q-26 -24 -68 -76t-88.5 -134t-88 -196.5t-67.5 -262.5t-26 -332t26 -331.5t67.5 -259.5t88 -193t88.5 -132.5t68 -76.5z" />
    <glyph glyph-name="parenright" unicode=")" horiz-adv-x="670" 
d="M259 -459q27 25 69 76.5t88.5 132.5t87.5 193t67 259.5t26 331.5t-26 332t-67 262.5t-87.5 196.5t-88.5 134t-69 76l-205 -122q25 -26 62 -75t77.5 -123t75.5 -173t56.5 -226t21.5 -282t-21.5 -280.5t-56.5 -223t-75.5 -170.5t-77.5 -121.5t-62 -75.5z" />
    <glyph glyph-name="asterisk" unicode="*" horiz-adv-x="562" 
d="M447 1194l47 78l-391 236l-47 -79zM103 1194l391 235l-47 79l-391 -236zM230 1158h91v384h-91v-384z" />
    <glyph glyph-name="plus" unicode="+" horiz-adv-x="572" 
d="M200 201h183v193h164v172h-164v194h-183v-194h-167v-172h167v-193z" />
    <glyph glyph-name="comma" unicode="," horiz-adv-x="561" 
d="M42 -251h164l204 390h-265z" />
    <glyph glyph-name="hyphen" unicode="-" horiz-adv-x="886" 
d="M64 385h731v186h-731v-186z" />
    <glyph glyph-name="period" unicode="." horiz-adv-x="437" 
d="M75 222v-222h264v222h-264z" />
    <glyph glyph-name="slash" unicode="/" horiz-adv-x="840" 
d="M17 0h239l567 1348h-240z" />
    <glyph glyph-name="zero" unicode="0" horiz-adv-x="1137" 
d="M559 -14q252 0 373.5 90.5t121.5 282.5v629q0 192 -121.5 282.5t-373.5 90.5t-373.5 -90.5t-121.5 -282.5v-629q0 -192 121.5 -282.5t373.5 -90.5zM559 180q-114 0 -163.5 46.5t-49.5 145.5v603q0 99 49 145t164 46q113 0 162.5 -46.5t49.5 -144.5v-603q0 -98 -50 -145
t-162 -47z" />
    <glyph glyph-name="one" unicode="1" horiz-adv-x="1067" 
d="M74 0h924v194h-319v1158h-233l-379 -102v-208l332 81v-929h-325v-194z" />
    <glyph glyph-name="two" unicode="2" horiz-adv-x="1156" 
d="M75 0h1000v194h-703q0 61 74 129t241 163q173 105 281 220t108 286q0 142 -92.5 255.5t-397.5 113.5q-303 0 -409 -135t-106 -342h282q0 167 60.5 224.5t172.5 57.5q101 0 153.5 -37.5t52.5 -140.5q0 -104 -58.5 -174t-253.5 -174q-208 -109 -306.5 -223.5t-98.5 -250.5
v-166z" />
    <glyph glyph-name="three" unicode="3" horiz-adv-x="1176" 
d="M585 -14q316 0 412.5 111t96.5 290q0 131 -72.5 208t-230.5 82q157 6 230 86.5t73 212.5q0 170 -97.5 277.5t-411.5 107.5q-303 0 -407.5 -128.5t-104.5 -360.5h280q0 195 59.5 246.5t173.5 51.5t171 -46.5t57 -191.5q0 -91 -61 -129.5t-223 -41.5v-176q161 -2 222.5 -38
t61.5 -128q0 -148 -56 -195.5t-172 -47.5t-174.5 50t-58.5 228h-280q0 -222 102.5 -345t409.5 -123z" />
    <glyph glyph-name="four" unicode="4" horiz-adv-x="1155" 
d="M638 0h280v311h172v183h-172v856h-416l-457 -853v-186h593v-311zM327 494l308 655h3v-655h-311z" />
    <glyph glyph-name="five" unicode="5" horiz-adv-x="1146" 
d="M544 -13q299 0 408.5 123t109.5 369q0 221 -91 330t-297 109q-188 0 -333 -83.5t-158 -250.5l158 -5q3 75 64.5 120.5t162.5 45.5q99 0 153 -50t54 -221q0 -192 -56 -245t-162 -53t-160 47t-56 190h-281q0 -186 106 -306t378 -120zM60 579h280v578h690v193h-970v-771z
" />
    <glyph glyph-name="six" unicode="6" horiz-adv-x="1158" 
d="M558 -13q321 0 418 132.5t97 357.5q0 221 -87.5 328.5t-307.5 107.5q-198 0 -331.5 -96.5t-139.5 -196.5l136 -63q7 79 70.5 132.5t167.5 53.5q105 0 155.5 -50.5t50.5 -230.5q0 -171 -50 -229t-163 -58q-111 0 -170.5 70.5t-59.5 355.5q0 398 65 486t177 88
q96 0 137.5 -52.5t45.5 -146.5h282q0 132 -88.5 258.5t-376.5 126.5q-319 0 -421.5 -173t-102.5 -558q0 -330 92 -486.5t404 -156.5z" />
    <glyph glyph-name="seven" unicode="7" horiz-adv-x="1050" 
d="M281 0h304q0 335 110 616.5t319 540.5v193h-976v-194h674v-3q-204 -231 -317.5 -522t-113.5 -631z" />
    <glyph glyph-name="eight" unicode="8" horiz-adv-x="1144" 
d="M569 -14q284 0 392 125.5t108 309.5q0 180 -131 269.5t-369 89.5t-370.5 -89t-132.5 -270q0 -184 103 -309.5t400 -125.5zM568 176q-109 0 -165.5 53.5t-56.5 182.5q0 130 55.5 176t166.5 46q112 0 166.5 -46t54.5 -176q0 -129 -55.5 -182.5t-165.5 -53.5zM569 660
q237 0 358.5 79.5t121.5 252.5q0 151 -103 260t-377 109q-286 0 -384.5 -109t-98.5 -260q0 -173 122.5 -252.5t360.5 -79.5zM568 800q-109 0 -160 43t-51 154q0 90 53.5 133.5t157.5 43.5t157 -43.5t53 -133.5q0 -111 -50 -154t-160 -43z" />
    <glyph glyph-name="nine" unicode="9" horiz-adv-x="1150" 
d="M562 -13q315 0 417.5 175t102.5 556q0 318 -92 480.5t-401 162.5q-324 0 -422 -126.5t-98 -345.5q0 -221 88.5 -337.5t308.5 -116.5q198 0 331 96.5t139 196.5l-135 63q-5 -79 -69.5 -129.5t-168.5 -50.5q-106 0 -158.5 50t-52.5 226q0 169 55.5 226t167.5 57
q111 0 167.5 -69t56.5 -354q0 -409 -63.5 -491.5t-173.5 -82.5q-100 0 -141.5 52.5t-45.5 144.5h-282q0 -120 83.5 -251.5t385.5 -131.5z" />
    <glyph glyph-name="colon" unicode=":" horiz-adv-x="446" 
d="M75 222v-222h264v222h-264zM75 1128v-222h264v222h-264z" />
    <glyph glyph-name="semicolon" unicode=";" horiz-adv-x="522" 
d="M115 1128v-222h264v222h-264zM16 -158h164l204 390h-265z" />
    <glyph glyph-name="less" unicode="&#x3c;" horiz-adv-x="808" 
d="M732 -6v249l-499 244l499 243v248l-687 -388v-208z" />
    <glyph glyph-name="equal" unicode="=" horiz-adv-x="610" 
d="M27 611h538v167h-538v-167zM27 193h538v166h-538v-166z" />
    <glyph glyph-name="greater" unicode="&#x3e;" horiz-adv-x="807" 
d="M67 -6l687 388v208l-687 388v-248l499 -243l-499 -244v-249z" />
    <glyph glyph-name="question" unicode="?" horiz-adv-x="1133" 
d="M422 358h276q1 89 33 166.5t122 148.5q77 60 141 140.5t64 216.5q0 159 -110.5 244.5t-384.5 85.5q-254 0 -377.5 -96t-123.5 -337h273q0 136 58 195.5t175 59.5t164.5 -45t47.5 -132q0 -81 -47.5 -135.5t-114.5 -109.5q-93 -70 -144.5 -164.5t-51.5 -237.5zM430 210
v-222h265v222h-265z" />
    <glyph glyph-name="at" unicode="@" horiz-adv-x="1815" 
d="M792 -31q100 0 183.5 14t148.5 33.5t108.5 42t63.5 38.5l-148 131q-5 -6 -28 -22t-65.5 -33t-103.5 -29.5t-142 -12.5q-79 0 -154 16.5t-139.5 52.5t-112.5 94t-75 141t-25 192q3 151 51.5 259.5t134.5 178.5t203 103.5t256 33.5q132 0 233 -26t169 -79.5t101.5 -134
t30.5 -190.5q-2 -127 -30.5 -210t-77 -124t-112.5 -41q-33 0 -61.5 11t-43 34.5t-11.5 63.5l49 518h-134l-11 -98q-1 19 -20.5 45.5t-58.5 46.5t-97 20q-61 0 -119.5 -25t-105.5 -75.5t-75.5 -126t-30.5 -177.5q-1 -82 20 -144t59 -103t87.5 -61.5t104.5 -20.5
q65 0 116 16.5t82.5 43t40.5 56.5q-2 -27 11 -54t40 -49t65.5 -34.5t87.5 -12.5q66 0 131 18t123 56.5t103 98.5t72.5 143.5t29.5 191.5q3 140 -45 248t-142 183.5t-233 114.5t-319 39q-159 0 -296.5 -28.5t-249.5 -87t-192.5 -148t-124.5 -210t-46 -274.5
q-2 -119 25 -213.5t77 -166.5t118.5 -122.5t149.5 -82.5t171.5 -47t182.5 -15zM860 426q-30 0 -57 15.5t-46 45t-29 71t-10 91.5q1 58 17.5 106t43.5 83t59.5 53.5t63.5 18.5q30 0 61 -12.5t51 -36.5t19 -59l-23 -270q-8 -45 -49.5 -75.5t-100.5 -30.5z" />
    <glyph glyph-name="A" unicode="A" horiz-adv-x="1404" 
d="M61 0h293l103 348h491l102 -348h293l-439 1352h-404zM504 536l197 649h3l197 -649h-397z" />
    <glyph glyph-name="B" unicode="B" horiz-adv-x="1312" 
d="M81 0h776q226 0 286 110.5t60 276.5q0 146 -66 239.5t-181 99.5q112 5 165 96t53 213q0 119 -60 217t-288 98h-745v-1350zM365 194v441h392q96 0 129 -56.5t33 -162.5q0 -111 -28 -166.5t-106 -55.5h-420zM365 809v348h391q78 0 105 -42.5t27 -120.5q0 -83 -31.5 -134
t-117.5 -51h-374z" />
    <glyph glyph-name="C" unicode="C" horiz-adv-x="1313" 
d="M645 -8q336 0 454.5 162.5t118.5 388.5h-288q0 -200 -74 -278.5t-214 -78.5q-142 0 -224 88t-82 404t82 402.5t224 86.5q141 0 214.5 -76.5t73.5 -279.5h288q0 232 -118 391.5t-456 159.5q-336 0 -466 -169t-130 -515q0 -345 130 -515.5t467 -170.5z" />
    <glyph glyph-name="D" unicode="D" horiz-adv-x="1290" 
d="M81 0h642q270 0 381 148.5t111 527.5q0 378 -110.5 526t-381.5 148h-642v-1350zM365 194v962h281q145 0 215 -82.5t70 -397.5q0 -316 -70 -399t-215 -83h-281z" />
    <glyph glyph-name="E" unicode="E" horiz-adv-x="1125" 
d="M77 0h949v194h-665v400h621v185h-621v377h665v194h-949v-1350z" />
    <glyph glyph-name="F" unicode="F" horiz-adv-x="1050" 
d="M76 0h285v528h564v185h-564v443h614v194h-899v-1350z" />
    <glyph glyph-name="G" unicode="G" horiz-adv-x="1350" 
d="M630 -8q320 2 403 191l31 -183h161v681h-547v-169h256v-69q-8 -139 -72 -198t-205 -59q-152 0 -230.5 98.5t-78.5 385.5q0 321 78.5 409.5t228.5 88.5q145 0 211.5 -72t74.5 -246h284q-6 208 -129.5 360t-441.5 152q-337 0 -465 -167.5t-128 -515.5q0 -344 125 -515.5
t444 -171.5z" />
    <glyph glyph-name="H" unicode="H" horiz-adv-x="1317" 
d="M81 0h284v585h543v-585h284v1350h-284v-570h-543v570h-284v-1350z" />
    <glyph glyph-name="I" unicode="I" horiz-adv-x="580" 
d="M134 0h283v1350h-283v-1350z" />
    <glyph glyph-name="J" unicode="J" horiz-adv-x="1275" 
d="M604 -11q272 0 407 100.5t135 305.5v955h-283v-915q0 -132 -59 -193t-201 -61q-143 0 -200.5 61.5t-57.5 191.5v174h-283v-207q0 -213 135 -312.5t407 -99.5z" />
    <glyph glyph-name="K" unicode="K" horiz-adv-x="1210" 
d="M81 0h283v598l482 -598h320l-544 674l541 676h-320l-479 -600v600h-283v-1350z" />
    <glyph glyph-name="L" unicode="L" horiz-adv-x="1012" 
d="M81 0h851v193h-567v1157h-284v-1350z" />
    <glyph glyph-name="M" unicode="M" horiz-adv-x="1728" 
d="M81 0h281v1154h4l309 -1102h334l310 1102h4v-1154h281v1350h-461l-299 -1095h-3l-299 1095h-461v-1350z" />
    <glyph glyph-name="N" unicode="N" horiz-adv-x="1491" 
d="M81 0h283v1147h4l550 -1147h448v1350h-283l-2 -1133h-3l-544 1133h-453v-1350z" />
    <glyph glyph-name="O" unicode="O" horiz-adv-x="1369" 
d="M678 -10q334 0 475.5 169.5t141.5 515.5t-141.5 516.5t-475.5 170.5t-475.5 -170t-141.5 -517q0 -346 142 -515.5t475 -169.5zM678 184q-149 0 -241 90t-92 401q0 315 92 403.5t241 88.5q150 0 242 -88.5t92 -403.5q0 -311 -92 -401t-242 -90z" />
    <glyph glyph-name="P" unicode="P" horiz-adv-x="1232" 
d="M81 0h284v374h391q241 0 320 140.5t79 348.5q0 207 -78.5 347t-320.5 140h-675v-1350zM365 569v587h306q110 0 156 -72t46 -222t-45.5 -221.5t-156.5 -71.5h-306z" />
    <glyph glyph-name="Q" unicode="Q" horiz-adv-x="1377" 
d="M1081 -243l202 109l-239 337l-209 -98zM678 -10q338 0 477.5 161t139.5 524t-139.5 525t-477.5 162t-477.5 -161.5t-139.5 -525.5q0 -363 140 -524t477 -161zM678 184q-153 0 -243 89t-90 402q0 317 90 404.5t243 87.5q154 0 244 -87.5t90 -404.5q0 -313 -90 -402
t-244 -89z" />
    <glyph glyph-name="R" unicode="R" horiz-adv-x="1266" 
d="M81 0h285v557h432q219 0 294.5 112.5t75.5 277.5q0 167 -72.5 285t-286.5 118h-728v-1350zM879 0h308l-305 646l-282 -14zM366 733v423h351q94 0 130 -56.5t36 -155.5q0 -98 -35.5 -154.5t-130.5 -56.5h-351z" />
    <glyph glyph-name="S" unicode="S" horiz-adv-x="1299" 
d="M636 -8q327 0 447.5 119t120.5 289q0 173 -106 243t-380 131q-177 39 -279.5 79t-102.5 143q0 79 78 126t215 47q131 0 210 -55t79 -246h285q0 236 -122 365t-449 129q-324 0 -447.5 -117t-123.5 -281q0 -171 108 -247t374 -136q180 -38 280.5 -77.5t100.5 -142.5
q0 -86 -77.5 -131t-212.5 -45q-136 0 -213 56t-77 252h-284q0 -250 120.5 -375.5t455.5 -125.5z" />
    <glyph glyph-name="T" unicode="T" horiz-adv-x="1238" 
d="M475 0h284v1156h406v194h-1097v-194h407v-1156z" />
    <glyph glyph-name="U" unicode="U" horiz-adv-x="1359" 
d="M667 -8q287 0 431.5 102.5t144.5 343.5v912h-284v-880q0 -153 -71 -218t-221 -65t-221 65.5t-71 217.5v880h-284v-912q0 -241 144.5 -343.5t431.5 -102.5z" />
    <glyph glyph-name="V" unicode="V" horiz-adv-x="1324" 
d="M460 0h387l408 1350h-288l-312 -1149h-2l-313 1149h-288z" />
    <glyph glyph-name="W" unicode="W" horiz-adv-x="1949" 
d="M302 0h434l224 1156h3l225 -1156h433l259 1350h-307l-183 -1142h-3l-238 1142h-374l-237 -1141h-3l-179 1141h-306z" />
    <glyph glyph-name="X" unicode="X" horiz-adv-x="1325" 
d="M23 0h327l303 549l302 -549h327l-417 668l404 682h-326l-290 -562l-290 562h-327l402 -682z" />
    <glyph glyph-name="Y" unicode="Y" horiz-adv-x="1350" 
d="M528 0h284v514l500 836h-309l-331 -610h-2l-333 610h-309l500 -835v-515z" />
    <glyph glyph-name="Z" unicode="Z" horiz-adv-x="1148" 
d="M64 0h987v194h-673l650 962v194h-952v-193h639l-651 -956v-201z" />
    <glyph glyph-name="bracketleft" unicode="[" horiz-adv-x="675" 
d="M57 -363h545v186h-313v1435h313v186h-545v-1807z" />
    <glyph glyph-name="backslash" unicode="\" horiz-adv-x="843" 
d="M545 0h254l-503 1348h-252z" />
    <glyph glyph-name="bracketright" unicode="]" horiz-adv-x="676" 
d="M56 -363h545v1807h-545v-186h313v-1435h-313v-186z" />
    <glyph glyph-name="asciicircum" unicode="^" horiz-adv-x="766" 
d="M39 1214h177l226 232h-165zM545 1216h176l-236 230h-166z" />
    <glyph glyph-name="underscore" unicode="_" horiz-adv-x="1260" 
d="M-1 -226h1263v184h-1263v-184z" />
    <glyph glyph-name="grave" unicode="`" horiz-adv-x="647" 
d="M333 1212h133l-155 191h-194z" />
    <glyph glyph-name="a" unicode="a" horiz-adv-x="1270" 
d="M502 -12q81 0 148 14t118.5 37t85.5 49.5t49 53.5l24 -142h234v746q0 164 -62.5 262.5t-183.5 143.5t-297 45q-100 0 -189 -18.5t-161 -58t-121.5 -105t-68.5 -160.5l275 -75q15 84 52.5 133.5t92.5 71.5t121 22q81 0 139 -24.5t89.5 -78.5t31.5 -144v-54h-380
q-103 0 -184 -18t-136.5 -58.5t-84.5 -108.5t-29 -169q0 -106 30 -176.5t87.5 -111.5t137.5 -58.5t182 -17.5zM565 170q-46 0 -85 8.5t-68.5 29t-45.5 58t-16 96.5t16 96.5t45 57.5t68.5 27.5t85.5 7.5h310v-251q-19 -33 -62.5 -63t-106.5 -48.5t-141 -18.5z" />
    <glyph glyph-name="b" unicode="b" horiz-adv-x="1278" 
d="M93 0h256l25 181v1389h-281v-1570zM750 -7q230 0 337 157t107 445q0 289 -107 445t-337 156q-204 0 -352 -98.5t-148 -212.5l123 -129q0 100 83.5 173t196.5 73q122 0 189.5 -85t67.5 -323q0 -240 -67.5 -324.5t-189.5 -84.5q-113 0 -196.5 73t-83.5 175l-123 -131
q0 -114 148 -211.5t352 -97.5z" />
    <glyph glyph-name="c" unicode="c" horiz-adv-x="1217" 
d="M611 -10q276 0 387.5 130.5t126.5 264.5l-251 89q-6 -128 -74.5 -209.5t-188.5 -81.5t-198.5 90.5t-78.5 317.5q0 239 77.5 324.5t199.5 85.5q121 0 189 -76t74 -218l251 86q-15 147 -126.5 275t-387.5 128q-307 0 -435 -153.5t-128 -451.5q0 -289 128 -445t435 -156z
" />
    <glyph glyph-name="d" unicode="d" horiz-adv-x="1271" 
d="M898 0h261v1570h-280v-1385zM505 -7q204 0 351 97.5t147 211.5l-124 131q0 -101 -82 -174.5t-196 -73.5q-121 0 -189.5 84t-68.5 325q0 240 68.5 324t189.5 84q114 0 196 -73t82 -173l124 129q0 114 -147 212.5t-351 98.5q-230 0 -338 -155t-108 -446q0 -290 108 -446
t338 -156z" />
    <glyph glyph-name="e" unicode="e" horiz-adv-x="1276" 
d="M630 -10v182q-138 0 -217 93q-81 91 -81 329q0 246 82 333q81 88 212 88q133 0 208 -82q59 -72 69 -252h-598v-171h876q6 39 6 86q0 287 -124 445q-126 156 -438 156q-302 0 -433 -155q-132 -155 -132 -448q0 -281 130 -443q129 -161 440 -161zM630 172v-182
q167 0 268 36t170 114q69 77 88 196l-252 70q-19 -73 -50 -130q-32 -57 -88 -81q-56 -23 -136 -23z" />
    <glyph glyph-name="f" unicode="f" horiz-adv-x="971" 
d="M269 0h281v992h328v193h-328v55q0 92 75 122t230 30h32v186h-39q-273 0 -426 -76t-153 -261v-56h-241v-193h241v-992z" />
    <glyph glyph-name="g" unicode="g" horiz-adv-x="1284" 
d="M606 -467q173 0 287 46t191 160t77 313v1133h-207l-74 -237v-924q0 -193 -73 -252.5t-192 -59.5q-71 0 -127 22.5t-88.5 72t-39.5 129.5h-275q19 -222 166.5 -312.5t354.5 -90.5zM508 -7q204 0 350 96.5t146 212.5l-125 131q0 -101 -82 -174.5t-196 -73.5
q-121 0 -189.5 84t-68.5 325q0 240 68.5 324t189.5 84q114 0 196 -73t82 -173l124 123q0 114 -147 215.5t-351 101.5q-230 0 -338 -155t-108 -446q0 -290 109.5 -446t339.5 -156z" />
    <glyph glyph-name="h" unicode="h" horiz-adv-x="1252" 
d="M93 0h281v1570h-281v-1570zM858 0h280v660q0 249 -89 392.5t-308 143.5q-227 0 -367.5 -142.5t-140.5 -295.5l136 -70q0 138 77 226t190 88q111 0 166.5 -76.5t55.5 -277.5v-648z" />
    <glyph glyph-name="i" unicode="i" horiz-adv-x="544" 
d="M119 0h282v1186h-282v-1186zM119 1529v-212h282v212h-282z" />
    <glyph glyph-name="j" unicode="j" horiz-adv-x="566" 
d="M-131 -460q271 0 412.5 99.5t141.5 381.5v1165h-281v-1176q0 -162 -71 -218t-202 -56v-196zM142 1529v-212h281v212h-281z" />
    <glyph glyph-name="k" unicode="k" horiz-adv-x="1207" 
d="M551 572l293 -572h302l-403 766zM93 0h280v396l191 175l177 172l394 443h-329l-433 -478v862h-280v-1570z" />
    <glyph glyph-name="l" unicode="l" horiz-adv-x="528" 
d="M119 0h281v1570h-281v-1570z" />
    <glyph glyph-name="m" unicode="m" horiz-adv-x="1858" 
d="M93 0h281v999l-63 186h-218v-1185zM780 0h280v706q0 203 -75.5 346t-294.5 143q-192 0 -329.5 -142t-137.5 -313l149 -64q0 159 62.5 242t162.5 83q97 0 140 -75t43 -242v-684zM1463 0h281v706q0 202 -74 345.5t-293 143.5q-192 0 -330 -144t-138 -311l150 -64
q0 159 62.5 242t161.5 83q98 0 139 -75t41 -242v-684z" />
    <glyph glyph-name="n" unicode="n" horiz-adv-x="1248" 
d="M93 0h280v973l-62 212h-218v-1185zM853 0h281v651q0 249 -87.5 397t-306.5 148q-227 0 -369.5 -142.5t-142.5 -295.5l136 -70q0 138 79 226t193 88q110 0 163.5 -76.5t53.5 -277.5v-648z" />
    <glyph glyph-name="o" unicode="o" horiz-adv-x="1281" 
d="M628 -9q301 0 435 153.5t134 452.5t-134 450t-435 151t-435 -151t-134 -450t134 -452.5t435 -153.5zM628 183q-126 0 -207 83.5t-81 328.5q0 246 81 329t207 83t207 -83t81 -329q0 -245 -81 -328.5t-207 -83.5z" />
    <glyph glyph-name="p" unicode="p" horiz-adv-x="1278" 
d="M93 -443h280v1435l-62 193h-218v-1628zM750 -7q230 0 337 157t107 445q0 289 -107 445t-337 156q-204 0 -352 -98.5t-148 -212.5l123 -129q0 100 83.5 173t196.5 73q122 0 189.5 -85t67.5 -323q0 -240 -67.5 -324.5t-189.5 -84.5q-113 0 -196.5 73t-83.5 175l-123 -131
q0 -114 148 -211.5t352 -97.5z" />
    <glyph glyph-name="q" unicode="q" horiz-adv-x="1276" 
d="M877 -443h280v1628h-218l-62 -209v-1419zM505 -7q204 0 351 97.5t147 211.5l-124 131q0 -101 -82 -174.5t-196 -73.5q-121 0 -189.5 84t-68.5 325q0 240 68.5 324t189.5 84q114 0 196 -73t82 -173l124 129q0 114 -147 212.5t-351 98.5q-230 0 -338 -155t-108 -446
q0 -290 108 -446t338 -156z" />
    <glyph glyph-name="r" unicode="r" horiz-adv-x="1225" 
d="M830 615h281q0 300 -81.5 440.5t-303.5 140.5q-209 0 -335.5 -111.5t-126.5 -273.5l108 -68q0 100 67 179t182 79q101 0 155 -77t54 -309zM93 0h280v970l-62 215h-218v-1185z" />
    <glyph glyph-name="s" unicode="s" horiz-adv-x="1250" 
d="M638 -9q254 0 389.5 82.5t135.5 267.5q0 179 -129 248.5t-321 101.5q-154 30 -253 58.5t-99 115.5q0 69 57.5 108.5t176.5 39.5q126 0 205.5 -59.5t99.5 -166.5l247 88q-37 174 -178 247.5t-370 73.5q-235 0 -375 -82.5t-140 -248.5q0 -176 119 -253.5t312 -110.5
q161 -31 265.5 -59.5t104.5 -121.5q0 -67 -62.5 -106t-180.5 -39q-134 0 -217 57t-103 178l-247 -88q40 -184 188.5 -257.5t374.5 -73.5z" />
    <glyph glyph-name="t" unicode="t" horiz-adv-x="1026" 
d="M646 -14q125 0 239 26v188q-70 -25 -144 -25q-77 0 -119.5 32t-42.5 134v650h376v194h-376v270h-281v-270h-274v-194h274v-713q0 -166 100.5 -229t247.5 -63z" />
    <glyph glyph-name="u" unicode="u" horiz-adv-x="1250" 
d="M913 0h217v1185h-281v-991zM362 1186h-281v-660q0 -248 85.5 -392t307.5 -144q242 0 378 143t136 295l-138 65q0 -138 -80 -223.5t-194 -85.5q-110 0 -162 76.5t-52 278.5v647z" />
    <glyph glyph-name="v" unicode="v" horiz-adv-x="1215" 
d="M406 0h385l373 1186h-294l-270 -995h-2l-269 995h-295z" />
    <glyph glyph-name="w" unicode="w" horiz-adv-x="1782" 
d="M312 0h379l195 904l197 -904h375l253 1185h-291l-157 -997h-3l-231 997h-283l-231 -999h-2l-164 999h-291z" />
    <glyph glyph-name="x" unicode="x" horiz-adv-x="1240" 
d="M24 0h316l267 478l272 -478h319l-383 593l374 592h-316l-254 -477l-261 477h-319l372 -592z" />
    <glyph glyph-name="y" unicode="y" horiz-adv-x="1183" 
d="M369 0h429l337 1185h-294l-256 -998h-3l-259 998h-294zM100 -464q275 0 446 90.5t252 373.5l-260 1q-48 -170 -147.5 -221.5t-290.5 -51.5v-192z" />
    <glyph glyph-name="z" unicode="z" horiz-adv-x="1050" 
d="M71 0h892v193h-557v3l545 797v192h-876v-193h552v-1l-556 -798v-193z" />
    <glyph glyph-name="braceleft" unicode="{" horiz-adv-x="733" 
d="M650 -364v186q-25 0 -58 6t-64 24.5t-51.5 54.5t-20.5 96v299q0 54 -18.5 90.5t-47 59.5t-58.5 35.5t-52.5 18t-29.5 6.5q7 2 29.5 7t52.5 17.5t59 35.5t47 59.5t18 89.5v334q0 61 20.5 96.5t51.5 53.5t64 24t58 6v186q-61 0 -122 -10t-115.5 -32.5t-96.5 -61
t-66.5 -95.5t-24.5 -135v-293q0 -65 -28 -107t-71 -62t-86 -20v-189q43 0 86 -19t71 -60t28 -107v-259q0 -76 24 -132.5t66 -95.5t96 -62.5t115.5 -34t123.5 -10.5z" />
    <glyph glyph-name="bar" unicode="|" horiz-adv-x="371" 
d="M62 -226h231v1648h-231v-1648z" />
    <glyph glyph-name="braceright" unicode="}" horiz-adv-x="721" 
d="M56 -364q62 0 123 10.5t116 34t96.5 62.5t65.5 95.5t24 132.5v259q0 66 28.5 107t71 60t84.5 19v189q-42 0 -84.5 20t-71 62t-28.5 107v293q0 78 -24.5 135t-66.5 95.5t-96.5 61t-115.5 32.5t-122 10v-186q26 0 58.5 -6t63.5 -24t51 -53.5t20 -96.5v-334
q0 -53 19.5 -89.5t48 -59.5t58 -35.5t52.5 -17.5t29 -7q-6 -1 -29 -6.5t-52.5 -18t-58 -35.5t-48 -59.5t-19.5 -90.5v-299q0 -60 -20 -96t-51 -54.5t-63.5 -24.5t-58.5 -6v-186z" />
    <glyph glyph-name="asciitilde" unicode="~" horiz-adv-x="839" 
d="M586 561q59 0 104.5 16.5t74.5 36t36 28.5l-130 147q-4 -5 -27.5 -21t-79.5 -16q-46 0 -77 10.5t-58.5 25t-61 25t-85.5 10.5q-60 0 -111.5 -18t-87.5 -41.5t-52 -39.5l129 -141q14 15 51.5 37t90.5 22q43 0 73.5 -12.5t58.5 -28.5t64 -28t88 -12z" />
    <glyph glyph-name="uni00A0" unicode="&#xa0;" horiz-adv-x="508" 
 />
    <glyph glyph-name="exclamdown" unicode="&#xa1;" horiz-adv-x="427" 
d="M85 801l-26 -979h324l-26 979h-272zM76 953h280v232h-280v-232z" />
    <glyph glyph-name="cent" unicode="&#xa2;" horiz-adv-x="1223" 
d="M517 1226h196v154h-196v-154zM517 -30h196v160h-196v-160zM627 70q275 0 386.5 131t127.5 265l-251 89q-6 -128 -75 -209.5t-188 -81.5q-120 0 -198.5 90.5t-78.5 317.5q0 239 77.5 325t199.5 86q120 0 188.5 -76.5t74.5 -218.5l251 86q-16 148 -127 276t-387 128
q-308 0 -435.5 -153.5t-127.5 -452.5q0 -289 127.5 -445.5t435.5 -156.5z" />
    <glyph glyph-name="sterling" unicode="&#xa3;" horiz-adv-x="1202" 
d="M237 -26l-102 164q9 6 32.5 24t50.5 49t45.5 75t18.5 102q0 79 -11 141t-27 114.5t-32.5 102t-27.5 105.5t-11 126q0 76 25 145.5t81 123.5t146.5 86t219.5 32q116 0 197 -24t135 -62.5t86.5 -81t48.5 -81.5l-226 -84q-17 40 -46.5 73.5t-75.5 54t-116 20.5
q-64 0 -109 -25t-68.5 -72.5t-23.5 -115.5q0 -61 9 -113.5t22 -103t25.5 -103.5t21 -114t8.5 -135q0 -66 -20.5 -120t-49.5 -90q24 6 55 10t62 4q48 0 85 -5t68.5 -13t63.5 -13t68 -6q66 1 106.5 6.5t65.5 15.5l79 -183q-9 -4 -46 -9.5t-91.5 -10t-116.5 -4.5q-52 1 -91 8
t-75 16t-80 15.5t-107 6.5q-105 0 -176 -17t-96 -34zM61 585v163h784v-163h-784z" />
    <glyph glyph-name="currency" unicode="&#xa4;" horiz-adv-x="1232" 
d="M607 188q313 0 428 123t115 324t-115 327t-428 126t-428 -125t-115 -325q0 -201 115 -325.5t428 -124.5zM155 78l234 233l-126 102l-233 -234zM1057 78l125 101l-233 234l-126 -102zM607 354q-129 0 -195.5 64.5t-66.5 219.5t66.5 219t195.5 64t195.5 -64t66.5 -219
t-66.5 -219.5t-195.5 -64.5zM263 860l126 101l-234 233l-125 -101zM949 860l233 233l-125 101l-234 -233z" />
    <glyph glyph-name="yen" unicode="&#xa5;" horiz-adv-x="1350" 
d="M220 463h901v152h-901v-152zM220 211h901v152h-901v-152zM528 0h284v514l500 836h-309l-331 -610h-2l-333 610h-309l500 -835v-515z" />
    <glyph glyph-name="brokenbar" unicode="&#xa6;" horiz-adv-x="370" 
d="M61 -156h231v660h-231v-660zM61 764h231v658h-231v-658z" />
    <glyph glyph-name="section" unicode="&#xa7;" horiz-adv-x="1240" 
d="M617 -278q86 0 157.5 14t128.5 39t96.5 59.5t61 75.5t24.5 86q4 47 -10.5 85t-39 66.5t-50 49t-42.5 30.5q13 8 40 21.5t59 33.5t60.5 49.5t47.5 69.5t19 93q0 63 -34 114.5t-92 93.5t-130 77t-148 63q-76 33 -146 61t-126 55.5t-90 57.5t-36 65q-2 46 27.5 73t85 40
t129.5 13q70 0 123 -13.5t82.5 -43.5t29.5 -80v-59h237v65q0 60 -29.5 112t-89.5 90.5t-148 60t-206 21.5q-109 0 -194.5 -19.5t-146 -55.5t-93 -83.5t-35.5 -106.5q-1 -45 11.5 -81.5t34.5 -66t49 -51t54 -39.5q-26 -11 -65 -30t-77.5 -49.5t-65 -77t-26.5 -114.5
q0 -60 31.5 -108.5t84.5 -88t120.5 -73t139.5 -63.5q82 -33 157 -63t135.5 -58t96 -59.5t37.5 -69.5q5 -46 -25 -74t-86 -41t-129 -13q-70 0 -123.5 14.5t-83 44.5t-29.5 78v59h-236v-65q0 -61 28.5 -112.5t87.5 -90.5t148 -60t209 -21zM804 299q-79 32 -161 65t-148 67
q-63 25 -113 53t-78 60.5t-29 69.5q1 35 16 63t38 49t49 36t47 23q65 -31 134.5 -59.5t132.5 -59.5q54 -19 101.5 -39.5t83.5 -44t56 -49t20 -56.5q0 -34 -15.5 -62.5t-39.5 -50.5t-50 -38t-44 -27z" />
    <glyph glyph-name="dieresis" unicode="&#xa8;" horiz-adv-x="859" 
d="M243 1200q35 0 60 25t25 60q0 36 -25 61t-60 25q-36 0 -61 -25t-25 -61q0 -35 25 -60t61 -25zM603 1200q36 0 60.5 25t24.5 60q0 36 -24.5 61t-60.5 25q-35 0 -60 -25t-25 -61q0 -35 24.5 -60t60.5 -25z" />
    <glyph glyph-name="copyright" unicode="&#xa9;" horiz-adv-x="1368" 
d="M673 -18q173 0 292.5 42.5t194 115.5t108.5 169.5t34 202.5v318q0 107 -33.5 202.5t-107.5 169t-194 115t-294 41.5q-171 0 -290.5 -41.5t-193.5 -114.5t-108 -168.5t-34 -203.5v-318q0 -106 34.5 -202t108.5 -169.5t193.5 -116t289.5 -42.5zM673 116q-112 0 -192 22
t-131.5 60.5t-81 90t-41.5 111t-12 122.5v298q0 58 11.5 115.5t39.5 109.5t79 93t132 64t196 23q119 0 200 -23t132 -63t79 -92t38 -110.5t10 -118.5v-302q0 -57 -9.5 -114.5t-37 -109t-79 -91t-132.5 -62.5t-201 -23zM671 255q76 0 139 17.5t108 50t69.5 79.5t24.5 107v67
h-156v-38q0 -19 -3.5 -41t-15 -42t-32 -35t-54 -24.5t-82.5 -9.5q-62 0 -98.5 14.5t-53.5 39t-22.5 54.5t-5.5 61v233q0 32 6 62t24 54t54.5 38t97.5 14q50 0 84 -8t54 -22.5t30.5 -33t13.5 -40t3 -43.5v-40h156v64q0 62 -23.5 109t-68 79t-107.5 48.5t-142 16.5
q-76 0 -138 -18.5t-106 -54t-68 -87.5t-24 -119v-285q0 -61 24 -110t68 -84t105.5 -54t138.5 -19z" />
    <glyph glyph-name="ordfeminine" unicode="&#xaa;" horiz-adv-x="750" 
d="M495 831h146v300q0 117 -60.5 174.5t-221.5 57.5q-142 0 -210.5 -40.5t-72.5 -111.5l104 -49q0 47 46.5 74t121.5 27q80 0 107.5 -29t27.5 -102v-267zM294 825q121 0 194 42t73 107l-78 22q0 -35 -37.5 -55t-114.5 -20q-60 0 -85 14.5t-25 47.5q0 30 27.5 48t93.5 21
q72 2 165 3v84q-112 0 -193 -5q-140 -6 -194.5 -46.5t-54.5 -109.5q0 -77 55 -115t174 -38z" />
    <glyph glyph-name="guillemotleft" unicode="&#xab;" horiz-adv-x="1253" 
d="M465 80h286l-423 414l423 414h-286l-420 -414zM915 80h286l-424 414l424 414h-286l-421 -414z" />
    <glyph glyph-name="logicalnot" unicode="&#xac;" horiz-adv-x="943" 
d="M699 195h178v382h-811v-174h633v-208z" />
    <glyph glyph-name="uni00AD" unicode="&#xad;" horiz-adv-x="627" 
d="M64 385h498v186h-498v-186z" />
    <glyph glyph-name="registered" unicode="&#xae;" horiz-adv-x="1241" 
d="M611 417q156 0 264 35t175 97.5t98 144t30 176.5v155q1 95 -29.5 177.5t-97.5 144t-175 96.5t-264 35q-125 0 -219.5 -23.5t-160.5 -66.5t-107.5 -100.5t-60 -124.5t-19.5 -138l-1 -155q1 -71 20 -138t60 -124t107.5 -100t161 -67t218.5 -24zM611 546q-116 0 -195.5 21
t-128 62t-69 103.5t-21.5 144.5l1 137q1 65 14 118.5t42 94t77 68.5t118 41.5t163 13.5q94 0 163.5 -14t117.5 -41.5t77.5 -68t42.5 -94t12 -119.5v-138q1 -64 -12 -116t-42.5 -91.5t-77.5 -67t-117.5 -41t-164.5 -13.5zM377 645h136v244h145l65 -244h141l-85 256
q42 10 62 49t20 85v66q0 44 -14.5 78t-49 53t-95.5 19h-325v-606zM513 987v160h152q41 0 50.5 -14t9.5 -44v-40q0 -36 -13 -49t-41 -13h-158z" />
    <glyph glyph-name="macron" unicode="&#xaf;" horiz-adv-x="946" 
d="M128 1298h644v105h-644v-105z" />
    <glyph glyph-name="degree" unicode="&#xb0;" horiz-adv-x="292" 
d="M148 1160q50 0 85 36t35 86q0 51 -35 86.5t-85 35.5t-85 -35.5t-35 -86.5q0 -50 35 -86t85 -36zM148 1241q-17 0 -28.5 12t-11.5 29q0 18 11.5 29.5t28.5 11.5q16 0 28 -11.5t12 -29.5q0 -17 -12 -29t-28 -12z" />
    <glyph glyph-name="plusminus" unicode="&#xb1;" horiz-adv-x="577" 
d="M200 400h183v194h164v171h-164v194h-183v-194h-167v-171h167v-194zM65 128h441v172h-441v-172z" />
    <glyph glyph-name="uni00B2" unicode="&#xb2;" horiz-adv-x="729" 
d="M53 750h618v97h-478q0 25 51.5 52t175.5 69q116 48 184 97t68 125q0 63 -62.5 118t-241.5 55q-180 0 -248 -63t-68 -151h133q0 60 47 88t136 28q82 0 126.5 -15.5t44.5 -61.5q0 -42 -49 -71t-172 -73q-136 -47 -200.5 -97t-64.5 -114v-83z" />
    <glyph glyph-name="uni00B3" unicode="&#xb3;" horiz-adv-x="755" 
d="M374 744q191 0 254 51.5t63 129.5q0 56 -38.5 92t-147.5 38q108 2 147 39.5t39 94.5q0 74 -63 124t-253 50q-184 0 -251 -60.5t-67 -159.5h133q0 73 46.5 98.5t139.5 25.5q92 0 137 -23t45 -77q0 -38 -47 -53.5t-171 -16.5v-88q124 -1 171 -15.5t47 -51.5
q0 -56 -44 -79.5t-138 -23.5q-97 0 -141.5 25t-44.5 92h-133q0 -96 64.5 -154t252.5 -58z" />
    <glyph glyph-name="acute" unicode="&#xb4;" horiz-adv-x="640" 
d="M139 1212h132l216 191h-194z" />
    <glyph glyph-name="uni00B5" unicode="&#xb5;" horiz-adv-x="1246" 
d="M81 -443h281v761l-281 868v-1629zM913 0h217v1185h-281v-991zM362 1186h-281v-660q0 -248 85.5 -392t307.5 -144q242 0 378 143t136 295l-138 65q0 -138 -80 -223.5t-194 -85.5q-110 0 -162 76.5t-52 278.5v647z" />
    <glyph glyph-name="paragraph" unicode="&#xb6;" horiz-adv-x="1177" 
d="M502 -156h183v1320h245v-1320h184v1506h-632q-150 0 -249 -40.5t-147.5 -121t-48.5 -198.5q0 -127 55.5 -207.5t156 -118.5t233.5 -38h20v-782z" />
    <glyph glyph-name="periodcentered" unicode="&#xb7;" horiz-adv-x="445" 
d="M84 777v-222h264v222h-264z" />
    <glyph glyph-name="cedilla" unicode="&#xb8;" horiz-adv-x="773" 
d="M358 -331q53 0 105 11t93 32.5t65 53t24 73.5q0 56 -39 83t-103 27q-50 0 -90.5 -14t-61.5 -34l-5 -50q15 10 37.5 17t43.5 7q25 0 38 -7.5t13 -25.5q0 -25 -29.5 -39t-89.5 -14q-38 0 -71.5 5.5t-58.5 11.5l-39 -118q40 -9 83.5 -14t84.5 -5zM346 -149l53 149h-113
l-42 -137z" />
    <glyph glyph-name="uni00B9" unicode="&#xb9;" horiz-adv-x="674" 
d="M56 750h562v97h-213v511h-110l-244 -48v-103l222 38v-398h-217v-97z" />
    <glyph glyph-name="ordmasculine" unicode="&#xba;" horiz-adv-x="716" 
d="M362 826q165 0 247 53t82 176v81q0 124 -82 177.5t-247 53.5q-164 0 -246.5 -53.5t-82.5 -177.5v-81q0 -122 83 -175.5t246 -53.5zM361 937q-76 0 -112 25.5t-36 90.5v86q0 65 36 90.5t112 25.5q77 0 113.5 -25.5t36.5 -90.5v-86q0 -65 -36.5 -90.5t-113.5 -25.5z" />
    <glyph glyph-name="guillemotright" unicode="&#xbb;" horiz-adv-x="1255" 
d="M495 80h287l419 414l-419 414h-287l423 -414zM45 80h286l421 414l-421 414h-286l424 -414z" />
    <glyph glyph-name="onequarter" unicode="&#xbc;" horiz-adv-x="1895" 
d="M56 750h562v97h-213v511h-110l-244 -48v-103l222 38v-398h-217v-97zM376 0h146l934 1348h-146zM1587 0h132v137h124v91h-124v380h-205l-324 -379v-92h397v-137zM1343 228l235 289h9v-289h-244z" />
    <glyph glyph-name="onehalf" unicode="&#xbd;" horiz-adv-x="1886" 
d="M56 750h562v97h-213v511h-110l-244 -48v-103l222 38v-398h-217v-97zM376 0h146l934 1348h-146zM1210 0h618v97h-478q0 25 51.5 52t175.5 69q116 48 184 97t68 125q0 63 -62.5 118t-241.5 55q-180 0 -248 -63t-68 -151h133q0 60 47 88t136 28q82 0 126.5 -15.5t44.5 -61.5
q0 -42 -49 -71t-172 -73q-136 -47 -200.5 -97t-64.5 -114v-83z" />
    <glyph glyph-name="threequarters" unicode="&#xbe;" horiz-adv-x="1976" 
d="M374 744q191 0 254 51.5t63 129.5q0 56 -38.5 92t-147.5 38q108 2 147 39.5t39 94.5q0 74 -63 124t-253 50q-184 0 -251 -60.5t-67 -159.5h133q0 73 46.5 98.5t139.5 25.5q92 0 137 -23t45 -77q0 -38 -47 -53.5t-171 -16.5v-88q124 -1 171 -15.5t47 -51.5
q0 -56 -44 -79.5t-138 -23.5q-97 0 -141.5 25t-44.5 92h-133q0 -96 64.5 -154t252.5 -58zM457 0h146l934 1348h-146zM1668 0h132v137h124v91h-124v380h-205l-324 -379v-92h397v-137zM1424 228l235 289h9v-289h-244z" />
    <glyph glyph-name="questiondown" unicode="&#xbf;" horiz-adv-x="1096" 
d="M686 816h-275q-1 -88 -33 -165.5t-122 -149.5q-77 -58 -141 -139t-64 -217q0 -160 110.5 -245.5t384.5 -85.5q254 0 377.5 96t123.5 336h-273q0 -135 -58 -194.5t-175 -59.5t-165 45t-48 132q0 81 48.5 136.5t114.5 108.5q94 71 144.5 165t50.5 237zM678 965v221h-264
v-221h264z" />
    <glyph glyph-name="Agrave" unicode="&#xc0;" horiz-adv-x="1404" 
d="M61 0h293l103 348h491l102 -348h293l-439 1352h-404zM504 536l197 649h3l197 -649h-397zM742 1405h133l-155 191h-194z" />
    <glyph glyph-name="Aacute" unicode="&#xc1;" horiz-adv-x="1404" 
d="M61 0h293l103 348h491l102 -348h293l-439 1352h-404zM504 536l197 649h3l197 -649h-397zM526 1392h132l216 191h-194z" />
    <glyph glyph-name="Acircumflex" unicode="&#xc2;" horiz-adv-x="1404" 
d="M61 0h293l103 348h491l102 -348h293l-439 1352h-404zM504 536l197 649h3l197 -649h-397zM398 1401h166l138 135l137 -135h165l-213 195h-181z" />
    <glyph glyph-name="Atilde" unicode="&#xc3;" horiz-adv-x="1404" 
d="M61 0h293l103 348h491l102 -348h293l-439 1352h-404zM504 536l197 649h3l197 -649h-397zM827 1420q51 0 84.5 13.5t54.5 35t33 45.5t17 47t4 38h-137q-1 -12 -8.5 -28t-24.5 -27.5t-42 -11.5q-30 0 -53.5 11.5t-46.5 27t-52 26.5t-70 11q-50 0 -85.5 -12.5t-57.5 -33.5
t-33.5 -45t-16.5 -46.5t-6 -38.5h139q0 12 7.5 28.5t24 27.5t44.5 11t50.5 -12t46.5 -27.5t54.5 -27.5t73.5 -12z" />
    <glyph glyph-name="Adieresis" unicode="&#xc4;" horiz-adv-x="1404" 
d="M61 0h293l103 348h491l102 -348h293l-439 1352h-404zM504 536l197 649h3l197 -649h-397zM519 1414q35 0 60 25t25 60q0 36 -25 61t-60 25q-36 0 -61 -25t-25 -61q0 -35 25 -60t61 -25zM879 1414q36 0 60.5 25t24.5 60q0 36 -24.5 61t-60.5 25q-35 0 -60 -25t-25 -61
q0 -35 24.5 -60t60.5 -25z" />
    <glyph glyph-name="Aring" unicode="&#xc5;" horiz-adv-x="1404" 
d="M61 0h293l103 348h491l102 -348h293l-439 1352h-404zM504 536l197 649h3l197 -649h-397zM701 1389q63 0 105 43.5t42 106.5t-42 105.5t-105 42.5q-64 0 -106 -42.5t-42 -105.5q0 -64 42.5 -107t105.5 -43zM701 1491q-18 0 -32 14t-14 34t14 33t32 13q19 0 32 -13t13 -33
t-13 -34t-32 -14z" />
    <glyph glyph-name="AE" unicode="&#xc6;" horiz-adv-x="1972" 
d="M61 0h298l630 1248v102h-244zM386 288h598v189h-540zM924 0h948v194h-664v400h620v185h-620v377h664v194h-948v-1350z" />
    <glyph glyph-name="Ccedilla" unicode="&#xc7;" horiz-adv-x="1313" 
d="M645 -8q336 0 454.5 162.5t118.5 388.5h-288q0 -200 -74 -278.5t-214 -78.5q-142 0 -224 88t-82 404t82 402.5t224 86.5q141 0 214.5 -76.5t73.5 -279.5h288q0 232 -118 391.5t-456 159.5q-336 0 -466 -169t-130 -515q0 -345 130 -515.5t467 -170.5zM659 -331
q53 0 105 11t93 32.5t65 53t24 73.5q0 56 -39 83t-103 27q-50 0 -90.5 -14t-61.5 -34l-5 -50q15 10 37.5 17t43.5 7q25 0 38 -7.5t13 -25.5q0 -25 -29.5 -39t-89.5 -14q-38 0 -71.5 5.5t-58.5 11.5l-39 -118q40 -9 83.5 -14t84.5 -5zM647 -149l53 149h-113l-42 -137z" />
    <glyph glyph-name="Egrave" unicode="&#xc8;" horiz-adv-x="1125" 
d="M77 0h949v194h-665v400h621v185h-621v377h665v194h-949v-1350zM596 1405h133l-155 191h-194z" />
    <glyph glyph-name="Eacute" unicode="&#xc9;" horiz-adv-x="1125" 
d="M77 0h949v194h-665v400h621v185h-621v377h665v194h-949v-1350zM381 1392h132l216 191h-194z" />
    <glyph glyph-name="Ecircumflex" unicode="&#xca;" horiz-adv-x="1125" 
d="M77 0h949v194h-665v400h621v185h-621v377h665v194h-949v-1350zM251 1401h166l138 135l137 -135h165l-213 195h-181z" />
    <glyph glyph-name="Edieresis" unicode="&#xcb;" horiz-adv-x="1125" 
d="M77 0h949v194h-665v400h621v185h-621v377h665v194h-949v-1350zM373 1414q35 0 60 25t25 60q0 36 -25 61t-60 25q-36 0 -61 -25t-25 -61q0 -35 25 -60t61 -25zM733 1414q36 0 60.5 25t24.5 60q0 36 -24.5 61t-60.5 25q-35 0 -60 -25t-25 -61q0 -35 24.5 -60t60.5 -25z" />
    <glyph glyph-name="Igrave" unicode="&#xcc;" horiz-adv-x="580" 
d="M134 0h283v1350h-283v-1350zM317 1405h133l-155 191h-194z" />
    <glyph glyph-name="Iacute" unicode="&#xcd;" horiz-adv-x="580" 
d="M134 0h283v1350h-283v-1350zM102 1392h132l216 191h-194z" />
    <glyph glyph-name="Icircumflex" unicode="&#xce;" horiz-adv-x="580" 
d="M134 0h283v1350h-283v-1350zM-28 1401h166l138 135l137 -135h165l-213 195h-181z" />
    <glyph glyph-name="Idieresis" unicode="&#xcf;" horiz-adv-x="580" 
d="M134 0h283v1350h-283v-1350zM94 1414q35 0 60 25t25 60q0 36 -25 61t-60 25q-36 0 -61 -25t-25 -61q0 -35 25 -60t61 -25zM454 1414q36 0 60.5 25t24.5 60q0 36 -24.5 61t-60.5 25q-35 0 -60 -25t-25 -61q0 -35 24.5 -60t60.5 -25z" />
    <glyph glyph-name="Eth" unicode="&#xd0;" horiz-adv-x="1325" 
d="M-22 583h622v186h-622v-186zM116 0h642q269 0 380.5 148.5t111.5 527.5q0 378 -111 526t-381 148h-642v-1350zM400 194v962h281q145 0 215 -82.5t70 -397.5q0 -316 -70 -399t-215 -83h-281z" />
    <glyph glyph-name="Ntilde" unicode="&#xd1;" horiz-adv-x="1491" 
d="M81 0h283v1147h4l550 -1147h448v1350h-283l-2 -1133h-3l-544 1133h-453v-1350zM863 1420q51 0 84.5 13.5t54.5 35t33 45.5t17 47t4 38h-137q-1 -12 -8.5 -28t-24.5 -27.5t-42 -11.5q-30 0 -53.5 11.5t-46.5 27t-52 26.5t-70 11q-50 0 -85.5 -12.5t-57.5 -33.5t-33.5 -45
t-16.5 -46.5t-6 -38.5h139q0 12 7.5 28.5t24 27.5t44.5 11t50.5 -12t46.5 -27.5t54.5 -27.5t73.5 -12z" />
    <glyph glyph-name="Ograve" unicode="&#xd2;" horiz-adv-x="1369" 
d="M678 -10q334 0 475.5 169.5t141.5 515.5t-141.5 516.5t-475.5 170.5t-475.5 -170t-141.5 -517q0 -346 142 -515.5t475 -169.5zM678 184q-149 0 -241 90t-92 401q0 315 92 403.5t241 88.5q150 0 242 -88.5t92 -403.5q0 -311 -92 -401t-242 -90zM722 1405h133l-155 191
h-194z" />
    <glyph glyph-name="Oacute" unicode="&#xd3;" horiz-adv-x="1369" 
d="M678 -10q334 0 475.5 169.5t141.5 515.5t-141.5 516.5t-475.5 170.5t-475.5 -170t-141.5 -517q0 -346 142 -515.5t475 -169.5zM678 184q-149 0 -241 90t-92 401q0 315 92 403.5t241 88.5q150 0 242 -88.5t92 -403.5q0 -311 -92 -401t-242 -90zM506 1392h132l216 191h-194
z" />
    <glyph glyph-name="Ocircumflex" unicode="&#xd4;" horiz-adv-x="1369" 
d="M678 -10q334 0 475.5 169.5t141.5 515.5t-141.5 516.5t-475.5 170.5t-475.5 -170t-141.5 -517q0 -346 142 -515.5t475 -169.5zM678 184q-149 0 -241 90t-92 401q0 315 92 403.5t241 88.5q150 0 242 -88.5t92 -403.5q0 -311 -92 -401t-242 -90zM378 1401h166l138 135
l137 -135h165l-213 195h-181z" />
    <glyph glyph-name="Otilde" unicode="&#xd5;" horiz-adv-x="1369" 
d="M678 -10q334 0 475.5 169.5t141.5 515.5t-141.5 516.5t-475.5 170.5t-475.5 -170t-141.5 -517q0 -346 142 -515.5t475 -169.5zM678 184q-149 0 -241 90t-92 401q0 315 92 403.5t241 88.5q150 0 242 -88.5t92 -403.5q0 -311 -92 -401t-242 -90zM807 1420q51 0 84.5 13.5
t54.5 35t33 45.5t17 47t4 38h-137q-1 -12 -8.5 -28t-24.5 -27.5t-42 -11.5q-30 0 -53.5 11.5t-46.5 27t-52 26.5t-70 11q-50 0 -85.5 -12.5t-57.5 -33.5t-33.5 -45t-16.5 -46.5t-6 -38.5h139q0 12 7.5 28.5t24 27.5t44.5 11t50.5 -12t46.5 -27.5t54.5 -27.5t73.5 -12z" />
    <glyph glyph-name="Odieresis" unicode="&#xd6;" horiz-adv-x="1369" 
d="M678 -10q334 0 475.5 169.5t141.5 515.5t-141.5 516.5t-475.5 170.5t-475.5 -170t-141.5 -517q0 -346 142 -515.5t475 -169.5zM678 184q-149 0 -241 90t-92 401q0 315 92 403.5t241 88.5q150 0 242 -88.5t92 -403.5q0 -311 -92 -401t-242 -90zM499 1414q35 0 60 25t25 60
q0 36 -25 61t-60 25q-36 0 -61 -25t-25 -61q0 -35 25 -60t61 -25zM859 1414q36 0 60.5 25t24.5 60q0 36 -24.5 61t-60.5 25q-35 0 -60 -25t-25 -61q0 -35 24.5 -60t60.5 -25z" />
    <glyph glyph-name="multiply" unicode="&#xd7;" horiz-adv-x="559" 
d="M414 224l121 122l-380 385l-122 -119zM154 224l380 388l-121 119l-380 -385z" />
    <glyph glyph-name="Oslash" unicode="&#xd8;" horiz-adv-x="1280" 
d="M48 0h150l1058 1348h-146zM678 -10q334 0 475.5 169.5t141.5 515.5t-141.5 516.5t-475.5 170.5t-475.5 -170t-141.5 -517q0 -346 142 -515.5t475 -169.5zM678 184q-149 0 -241 90t-92 401q0 315 92 403.5t241 88.5q150 0 242 -88.5t92 -403.5q0 -311 -92 -401t-242 -90z
" />
    <glyph glyph-name="Ugrave" unicode="&#xd9;" horiz-adv-x="1359" 
d="M667 -8q287 0 431.5 102.5t144.5 343.5v912h-284v-880q0 -153 -71 -218t-221 -65t-221 65.5t-71 217.5v880h-284v-912q0 -241 144.5 -343.5t431.5 -102.5zM713 1405h133l-155 191h-194z" />
    <glyph glyph-name="Uacute" unicode="&#xda;" horiz-adv-x="1359" 
d="M667 -8q287 0 431.5 102.5t144.5 343.5v912h-284v-880q0 -153 -71 -218t-221 -65t-221 65.5t-71 217.5v880h-284v-912q0 -241 144.5 -343.5t431.5 -102.5zM498 1392h132l216 191h-194z" />
    <glyph glyph-name="Ucircumflex" unicode="&#xdb;" horiz-adv-x="1359" 
d="M667 -8q287 0 431.5 102.5t144.5 343.5v912h-284v-880q0 -153 -71 -218t-221 -65t-221 65.5t-71 217.5v880h-284v-912q0 -241 144.5 -343.5t431.5 -102.5zM369 1401h166l138 135l137 -135h165l-213 195h-181z" />
    <glyph glyph-name="Udieresis" unicode="&#xdc;" horiz-adv-x="1359" 
d="M667 -8q287 0 431.5 102.5t144.5 343.5v912h-284v-880q0 -153 -71 -218t-221 -65t-221 65.5t-71 217.5v880h-284v-912q0 -241 144.5 -343.5t431.5 -102.5zM491 1414q35 0 60 25t25 60q0 36 -25 61t-60 25q-36 0 -61 -25t-25 -61q0 -35 25 -60t61 -25zM851 1414
q36 0 60.5 25t24.5 60q0 36 -24.5 61t-60.5 25q-35 0 -60 -25t-25 -61q0 -35 24.5 -60t60.5 -25z" />
    <glyph glyph-name="Yacute" unicode="&#xdd;" horiz-adv-x="1350" 
d="M528 0h284v514l500 836h-309l-331 -610h-2l-333 610h-309l500 -835v-515zM496 1392h132l216 191h-194z" />
    <glyph glyph-name="Thorn" unicode="&#xde;" horiz-adv-x="1215" 
d="M80 0h282v228h464q110 0 175.5 35t94.5 104t29 174v279q0 99 -30.5 168.5t-96 106.5t-172.5 37h-464v218h-282v-1350zM362 412v534h357q48 0 75 -19.5t38 -55.5t11 -86v-206q0 -51 -11 -88.5t-38 -58t-75 -20.5h-357z" />
    <glyph glyph-name="germandbls" unicode="&#xdf;" horiz-adv-x="1311" 
d="M81 0h282v972q0 75 18 132.5t52 97t85.5 59.5t118.5 20q112 0 163.5 -46.5t51.5 -127.5q0 -47 -16.5 -86t-38 -76.5t-38.5 -78t-17 -91.5q0 -41 18 -75.5t45 -66t54 -64.5t44.5 -71.5t17.5 -86.5q0 -56 -23 -97.5t-73.5 -68.5t-128 -40.5t-185.5 -13.5v-191
q179 0 312.5 21t222.5 67t133 120t44 181q0 68 -20.5 119.5t-52 89.5t-62.5 68t-51.5 56.5t-20.5 53.5q0 35 17.5 68.5t41 72t41.5 89t18 119.5q0 71 -29 133.5t-90.5 110.5t-156 74.5t-224.5 26.5q-142 0 -246 -35.5t-172 -103t-101.5 -162t-33.5 -213.5v-956z" />
    <glyph glyph-name="agrave" unicode="&#xe0;" horiz-adv-x="1270" 
d="M502 -12q81 0 148 14t118.5 37t85.5 49.5t49 53.5l24 -142h234v746q0 164 -62.5 262.5t-183.5 143.5t-297 45q-100 0 -189 -18.5t-161 -58t-121.5 -105t-68.5 -160.5l275 -75q15 84 52.5 133.5t92.5 71.5t121 22q81 0 139 -24.5t89.5 -78.5t31.5 -144v-54h-380
q-103 0 -184 -18t-136.5 -58.5t-84.5 -108.5t-29 -169q0 -106 30 -176.5t87.5 -111.5t137.5 -58.5t182 -17.5zM565 170q-46 0 -85 8.5t-68.5 29t-45.5 58t-16 96.5t16 96.5t45 57.5t68.5 27.5t85.5 7.5h310v-251q-19 -33 -62.5 -63t-106.5 -48.5t-141 -18.5zM658 1236h133
l-155 191h-194z" />
    <glyph glyph-name="aacute" unicode="&#xe1;" horiz-adv-x="1270" 
d="M502 -12q81 0 148 14t118.5 37t85.5 49.5t49 53.5l24 -142h234v746q0 164 -62.5 262.5t-183.5 143.5t-297 45q-100 0 -189 -18.5t-161 -58t-121.5 -105t-68.5 -160.5l275 -75q15 84 52.5 133.5t92.5 71.5t121 22q81 0 139 -24.5t89.5 -78.5t31.5 -144v-54h-380
q-103 0 -184 -18t-136.5 -58.5t-84.5 -108.5t-29 -169q0 -106 30 -176.5t87.5 -111.5t137.5 -58.5t182 -17.5zM565 170q-46 0 -85 8.5t-68.5 29t-45.5 58t-16 96.5t16 96.5t45 57.5t68.5 27.5t85.5 7.5h310v-251q-19 -33 -62.5 -63t-106.5 -48.5t-141 -18.5zM442 1228h132
l216 191h-194z" />
    <glyph glyph-name="acircumflex" unicode="&#xe2;" horiz-adv-x="1270" 
d="M502 -12q81 0 148 14t118.5 37t85.5 49.5t49 53.5l24 -142h234v746q0 164 -62.5 262.5t-183.5 143.5t-297 45q-100 0 -189 -18.5t-161 -58t-121.5 -105t-68.5 -160.5l275 -75q15 84 52.5 133.5t92.5 71.5t121 22q81 0 139 -24.5t89.5 -78.5t31.5 -144v-54h-380
q-103 0 -184 -18t-136.5 -58.5t-84.5 -108.5t-29 -169q0 -106 30 -176.5t87.5 -111.5t137.5 -58.5t182 -17.5zM565 170q-46 0 -85 8.5t-68.5 29t-45.5 58t-16 96.5t16 96.5t45 57.5t68.5 27.5t85.5 7.5h310v-251q-19 -33 -62.5 -63t-106.5 -48.5t-141 -18.5zM314 1237h166
l138 135l137 -135h165l-213 195h-181z" />
    <glyph glyph-name="atilde" unicode="&#xe3;" horiz-adv-x="1270" 
d="M502 -12q81 0 148 14t118.5 37t85.5 49.5t49 53.5l24 -142h234v746q0 164 -62.5 262.5t-183.5 143.5t-297 45q-100 0 -189 -18.5t-161 -58t-121.5 -105t-68.5 -160.5l275 -75q15 84 52.5 133.5t92.5 71.5t121 22q81 0 139 -24.5t89.5 -78.5t31.5 -144v-54h-380
q-103 0 -184 -18t-136.5 -58.5t-84.5 -108.5t-29 -169q0 -106 30 -176.5t87.5 -111.5t137.5 -58.5t182 -17.5zM565 170q-46 0 -85 8.5t-68.5 29t-45.5 58t-16 96.5t16 96.5t45 57.5t68.5 27.5t85.5 7.5h310v-251q-19 -33 -62.5 -63t-106.5 -48.5t-141 -18.5zM744 1257
q51 0 84.5 13.5t54.5 35t33 45.5t17 47t4 38h-137q-1 -12 -8.5 -28t-24.5 -27.5t-42 -11.5q-30 0 -53.5 11.5t-46.5 27t-52 26.5t-70 11q-50 0 -85.5 -12.5t-57.5 -33.5t-33.5 -45t-16.5 -46.5t-6 -38.5h139q0 12 7.5 28.5t24 27.5t44.5 11t50.5 -12t46.5 -27.5t54.5 -27.5
t73.5 -12z" />
    <glyph glyph-name="adieresis" unicode="&#xe4;" horiz-adv-x="1270" 
d="M502 -12q81 0 148 14t118.5 37t85.5 49.5t49 53.5l24 -142h234v746q0 164 -62.5 262.5t-183.5 143.5t-297 45q-100 0 -189 -18.5t-161 -58t-121.5 -105t-68.5 -160.5l275 -75q15 84 52.5 133.5t92.5 71.5t121 22q81 0 139 -24.5t89.5 -78.5t31.5 -144v-54h-380
q-103 0 -184 -18t-136.5 -58.5t-84.5 -108.5t-29 -169q0 -106 30 -176.5t87.5 -111.5t137.5 -58.5t182 -17.5zM565 170q-46 0 -85 8.5t-68.5 29t-45.5 58t-16 96.5t16 96.5t45 57.5t68.5 27.5t85.5 7.5h310v-251q-19 -33 -62.5 -63t-106.5 -48.5t-141 -18.5zM435 1250
q35 0 60 25t25 60q0 36 -25 61t-60 25q-36 0 -61 -25t-25 -61q0 -35 25 -60t61 -25zM795 1250q36 0 60.5 25t24.5 60q0 36 -24.5 61t-60.5 25q-35 0 -60 -25t-25 -61q0 -35 24.5 -60t60.5 -25z" />
    <glyph glyph-name="aring" unicode="&#xe5;" horiz-adv-x="1270" 
d="M502 -12q81 0 148 14t118.5 37t85.5 49.5t49 53.5l24 -142h234v746q0 164 -62.5 262.5t-183.5 143.5t-297 45q-100 0 -189 -18.5t-161 -58t-121.5 -105t-68.5 -160.5l275 -75q15 84 52.5 133.5t92.5 71.5t121 22q81 0 139 -24.5t89.5 -78.5t31.5 -144v-54h-380
q-103 0 -184 -18t-136.5 -58.5t-84.5 -108.5t-29 -169q0 -106 30 -176.5t87.5 -111.5t137.5 -58.5t182 -17.5zM565 170q-46 0 -85 8.5t-68.5 29t-45.5 58t-16 96.5t16 96.5t45 57.5t68.5 27.5t85.5 7.5h310v-251q-19 -33 -62.5 -63t-106.5 -48.5t-141 -18.5zM617 1226
q63 0 105 43.5t42 106.5t-42 105.5t-105 42.5q-64 0 -106 -42.5t-42 -105.5q0 -64 42.5 -107t105.5 -43zM617 1328q-18 0 -32 14t-14 34t14 33t32 13q19 0 32 -13t13 -33t-13 -34t-32 -14z" />
    <glyph glyph-name="ae" unicode="&#xe6;" horiz-adv-x="2082" 
d="M1128 395v320q0 225 -113.5 353t-392.5 128q-285 0 -389.5 -106t-139.5 -262l269 -77q20 149 82.5 206.5t179.5 57.5q116 0 180.5 -67t64.5 -213v-430l41 -24zM494 -12q246 0 385.5 85t149.5 278l-158 82q0 -158 -77 -215t-212 -57q-131 0 -178 45.5t-47 121.5
q0 96 52.5 134.5t193.5 38.5h279v160h-371q-215 0 -330.5 -69.5t-115.5 -263.5q0 -170 113.5 -255t315.5 -85zM1436 -10v182q-138 0 -217 93q-80 91 -80 329q0 246 80 333q82 88 213 88q133 0 207 -82q60 -72 69 -252h-596v-171h876q5 39 5 86q0 287 -125 445
q-125 156 -437 156q-303 0 -433 -155q-131 -155 -131 -448q0 -281 129 -443q129 -161 440 -161zM1436 172v-182q167 0 268 36t170 114q68 77 88 196l-252 70q-19 -73 -50 -130q-32 -57 -88 -81q-56 -23 -136 -23z" />
    <glyph glyph-name="ccedilla" unicode="&#xe7;" horiz-adv-x="1217" 
d="M611 -10q276 0 387.5 130.5t126.5 264.5l-251 89q-6 -128 -74.5 -209.5t-188.5 -81.5t-198.5 90.5t-78.5 317.5q0 239 77.5 324.5t199.5 85.5q121 0 189 -76t74 -218l251 86q-15 147 -126.5 275t-387.5 128q-307 0 -435 -153.5t-128 -451.5q0 -289 128 -445t435 -156z
M639 -331q53 0 105 11t93 32.5t65 53t24 73.5q0 56 -39 83t-103 27q-50 0 -90.5 -14t-61.5 -34l-5 -50q15 10 37.5 17t43.5 7q25 0 38 -7.5t13 -25.5q0 -25 -29.5 -39t-89.5 -14q-38 0 -71.5 5.5t-58.5 11.5l-39 -118q40 -9 83.5 -14t84.5 -5zM627 -149l53 149h-113
l-42 -137z" />
    <glyph glyph-name="egrave" unicode="&#xe8;" horiz-adv-x="1276" 
d="M630 -10v182q-138 0 -217 93q-81 91 -81 329q0 246 82 333q81 88 212 88q133 0 208 -82q59 -72 69 -252h-598v-171h876q6 39 6 86q0 287 -124 445q-126 156 -438 156q-302 0 -433 -155q-132 -155 -132 -448q0 -281 130 -443q129 -161 440 -161zM630 172v-182
q167 0 268 36t170 114q69 77 88 196l-252 70q-19 -73 -50 -130q-32 -57 -88 -81q-56 -23 -136 -23zM668 1235h133l-155 191h-194z" />
    <glyph glyph-name="eacute" unicode="&#xe9;" horiz-adv-x="1276" 
d="M630 -10v182q-138 0 -217 93q-81 91 -81 329q0 246 82 333q81 88 212 88q133 0 208 -82q59 -72 69 -252h-598v-171h876q6 39 6 86q0 287 -124 445q-126 156 -438 156q-302 0 -433 -155q-132 -155 -132 -448q0 -281 130 -443q129 -161 440 -161zM630 172v-182
q167 0 268 36t170 114q69 77 88 196l-252 70q-19 -73 -50 -130q-32 -57 -88 -81q-56 -23 -136 -23zM453 1227h132l216 191h-194z" />
    <glyph glyph-name="ecircumflex" unicode="&#xea;" horiz-adv-x="1276" 
d="M630 -10v182q-138 0 -217 93q-81 91 -81 329q0 246 82 333q81 88 212 88q133 0 208 -82q59 -72 69 -252h-598v-171h876q6 39 6 86q0 287 -124 445q-126 156 -438 156q-302 0 -433 -155q-132 -155 -132 -448q0 -281 130 -443q129 -161 440 -161zM630 172v-182
q167 0 268 36t170 114q69 77 88 196l-252 70q-19 -73 -50 -130q-32 -57 -88 -81q-56 -23 -136 -23zM323 1236h166l138 135l137 -135h165l-213 195h-181z" />
    <glyph glyph-name="edieresis" unicode="&#xeb;" horiz-adv-x="1276" 
d="M630 -10v182q-138 0 -217 93q-81 91 -81 329q0 246 82 333q81 88 212 88q133 0 208 -82q59 -72 69 -252h-598v-171h876q6 39 6 86q0 287 -124 445q-126 156 -438 156q-302 0 -433 -155q-132 -155 -132 -448q0 -281 130 -443q129 -161 440 -161zM630 172v-182
q167 0 268 36t170 114q69 77 88 196l-252 70q-19 -73 -50 -130q-32 -57 -88 -81q-56 -23 -136 -23zM445 1249q35 0 60 25t25 60q0 36 -25 61t-60 25q-36 0 -61 -25t-25 -61q0 -35 25 -60t61 -25zM805 1249q36 0 60.5 25t24.5 60q0 36 -24.5 61t-60.5 25q-35 0 -60 -25
t-25 -61q0 -35 24.5 -60t60.5 -25z" />
    <glyph glyph-name="igrave" unicode="&#xec;" horiz-adv-x="514" 
d="M98 0h283v1186h-283v-1186zM282 1235h133l-155 191h-194z" />
    <glyph glyph-name="iacute" unicode="&#xed;" horiz-adv-x="514" 
d="M98 0h283v1186h-283v-1186zM67 1227h132l216 191h-194z" />
    <glyph glyph-name="icircumflex" unicode="&#xee;" horiz-adv-x="514" 
d="M98 0h283v1186h-283v-1186zM-63 1236h166l138 135l137 -135h165l-213 195h-181z" />
    <glyph glyph-name="idieresis" unicode="&#xef;" horiz-adv-x="514" 
d="M98 0h283v1186h-283v-1186zM59 1249q35 0 60 25t25 60q0 36 -25 61t-60 25q-36 0 -61 -25t-25 -61q0 -35 25 -60t61 -25zM419 1249q36 0 60.5 25t24.5 60q0 36 -24.5 61t-60.5 25q-35 0 -60 -25t-25 -61q0 -35 24.5 -60t60.5 -25z" />
    <glyph glyph-name="eth" unicode="&#xf0;" horiz-adv-x="1278" 
d="M623 -9q312 0 433.5 159.5t121.5 446.5q0 253 -144.5 425t-422.5 172q-313 0 -429.5 -158.5t-116.5 -441.5q0 -282 122.5 -442.5t435.5 -160.5zM623 186q-135 0 -205.5 90t-70.5 318q0 229 70.5 320.5t205.5 91.5t204.5 -90.5t69.5 -321.5q0 -230 -69.5 -319t-204.5 -89z
M1178 677q0 85 -15 171.5t-47 163t-81 130.5q-40 110 -103.5 189t-148.5 130t-194 77t-242 31l-57 -164q127 -2 228.5 -21.5t178 -61.5t127 -111.5t76 -175t25.5 -251.5zM587 1276l158 308l-150 29l-162 -309z" />
    <glyph glyph-name="ntilde" unicode="&#xf1;" horiz-adv-x="1248" 
d="M93 0h280v973l-62 212h-218v-1185zM853 0h281v651q0 249 -87.5 397t-306.5 148q-227 0 -369.5 -142.5t-142.5 -295.5l136 -70q0 138 79 226t193 88q110 0 163.5 -76.5t53.5 -277.5v-648zM743 1256q51 0 84.5 13.5t54.5 35t33 45.5t17 47t4 38h-137q-1 -12 -8.5 -28
t-24.5 -27.5t-42 -11.5q-30 0 -53.5 11.5t-46.5 27t-52 26.5t-70 11q-50 0 -85.5 -12.5t-57.5 -33.5t-33.5 -45t-16.5 -46.5t-6 -38.5h139q0 12 7.5 28.5t24 27.5t44.5 11t50.5 -12t46.5 -27.5t54.5 -27.5t73.5 -12z" />
    <glyph glyph-name="ograve" unicode="&#xf2;" horiz-adv-x="1281" 
d="M628 -9q301 0 435 153.5t134 452.5t-134 450t-435 151t-435 -151t-134 -450t134 -452.5t435 -153.5zM628 183q-126 0 -207 83.5t-81 328.5q0 246 81 329t207 83t207 -83t81 -329q0 -245 -81 -328.5t-207 -83.5zM670 1237h133l-155 191h-194z" />
    <glyph glyph-name="oacute" unicode="&#xf3;" horiz-adv-x="1281" 
d="M628 -9q301 0 435 153.5t134 452.5t-134 450t-435 151t-435 -151t-134 -450t134 -452.5t435 -153.5zM628 183q-126 0 -207 83.5t-81 328.5q0 246 81 329t207 83t207 -83t81 -329q0 -245 -81 -328.5t-207 -83.5zM454 1229h132l216 191h-194z" />
    <glyph glyph-name="ocircumflex" unicode="&#xf4;" horiz-adv-x="1281" 
d="M628 -9q301 0 435 153.5t134 452.5t-134 450t-435 151t-435 -151t-134 -450t134 -452.5t435 -153.5zM628 183q-126 0 -207 83.5t-81 328.5q0 246 81 329t207 83t207 -83t81 -329q0 -245 -81 -328.5t-207 -83.5zM325 1238h166l138 135l137 -135h165l-213 195h-181z" />
    <glyph glyph-name="otilde" unicode="&#xf5;" horiz-adv-x="1281" 
d="M628 -9q301 0 435 153.5t134 452.5t-134 450t-435 151t-435 -151t-134 -450t134 -452.5t435 -153.5zM628 183q-126 0 -207 83.5t-81 328.5q0 246 81 329t207 83t207 -83t81 -329q0 -245 -81 -328.5t-207 -83.5zM755 1257q51 0 84.5 13.5t54.5 35t33 45.5t17 47t4 38h-137
q-1 -12 -8.5 -28t-24.5 -27.5t-42 -11.5q-30 0 -53.5 11.5t-46.5 27t-52 26.5t-70 11q-50 0 -85.5 -12.5t-57.5 -33.5t-33.5 -45t-16.5 -46.5t-6 -38.5h139q0 12 7.5 28.5t24 27.5t44.5 11t50.5 -12t46.5 -27.5t54.5 -27.5t73.5 -12z" />
    <glyph glyph-name="odieresis" unicode="&#xf6;" horiz-adv-x="1281" 
d="M628 -9q301 0 435 153.5t134 452.5t-134 450t-435 151t-435 -151t-134 -450t134 -452.5t435 -153.5zM628 183q-126 0 -207 83.5t-81 328.5q0 246 81 329t207 83t207 -83t81 -329q0 -245 -81 -328.5t-207 -83.5zM447 1250q35 0 60 25t25 60q0 36 -25 61t-60 25
q-36 0 -61 -25t-25 -61q0 -35 25 -60t61 -25zM807 1250q36 0 60.5 25t24.5 60q0 36 -24.5 61t-60.5 25q-35 0 -60 -25t-25 -61q0 -35 24.5 -60t60.5 -25z" />
    <glyph glyph-name="divide" unicode="&#xf7;" horiz-adv-x="536" 
d="M36 394h464v168h-464v-168zM273 39q39 0 65.5 28t26.5 70q0 39 -26.5 66t-65.5 27q-43 0 -71 -27t-28 -66q0 -42 28 -70t71 -28zM273 727q39 0 65.5 29t26.5 69t-26.5 67t-65.5 27q-43 0 -71 -27.5t-28 -66.5q0 -40 28 -69t71 -29z" />
    <glyph glyph-name="oslash" unicode="&#xf8;" horiz-adv-x="1278" 
d="M-3 11l90 -74l1153 1249l-96 67zM628 -9q301 0 435 153.5t134 452.5t-134 450t-435 151t-435 -151t-134 -450t134 -452.5t435 -153.5zM628 183q-126 0 -207 83.5t-81 328.5q0 246 81 329t207 83t207 -83t81 -329q0 -245 -81 -328.5t-207 -83.5z" />
    <glyph glyph-name="ugrave" unicode="&#xf9;" horiz-adv-x="1250" 
d="M913 0h217v1185h-281v-991zM362 1186h-281v-660q0 -248 85.5 -392t307.5 -144q242 0 378 143t136 295l-138 65q0 -138 -80 -223.5t-194 -85.5q-110 0 -162 76.5t-52 278.5v647zM655 1235h133l-155 191h-194z" />
    <glyph glyph-name="uacute" unicode="&#xfa;" horiz-adv-x="1250" 
d="M913 0h217v1185h-281v-991zM362 1186h-281v-660q0 -248 85.5 -392t307.5 -144q242 0 378 143t136 295l-138 65q0 -138 -80 -223.5t-194 -85.5q-110 0 -162 76.5t-52 278.5v647zM439 1227h132l216 191h-194z" />
    <glyph glyph-name="ucircumflex" unicode="&#xfb;" horiz-adv-x="1250" 
d="M913 0h217v1185h-281v-991zM362 1186h-281v-660q0 -248 85.5 -392t307.5 -144q242 0 378 143t136 295l-138 65q0 -138 -80 -223.5t-194 -85.5q-110 0 -162 76.5t-52 278.5v647zM310 1236h166l138 135l137 -135h165l-213 195h-181z" />
    <glyph glyph-name="udieresis" unicode="&#xfc;" horiz-adv-x="1250" 
d="M913 0h217v1185h-281v-991zM362 1186h-281v-660q0 -248 85.5 -392t307.5 -144q242 0 378 143t136 295l-138 65q0 -138 -80 -223.5t-194 -85.5q-110 0 -162 76.5t-52 278.5v647zM432 1249q35 0 60 25t25 60q0 36 -25 61t-60 25q-36 0 -61 -25t-25 -61q0 -35 25 -60t61 -25
zM792 1249q36 0 60.5 25t24.5 60q0 36 -24.5 61t-60.5 25q-35 0 -60 -25t-25 -61q0 -35 24.5 -60t60.5 -25z" />
    <glyph glyph-name="yacute" unicode="&#xfd;" horiz-adv-x="1183" 
d="M369 0h429l337 1185h-294l-256 -998h-3l-259 998h-294zM100 -464q275 0 446 90.5t252 373.5l-260 1q-48 -170 -147.5 -221.5t-290.5 -51.5v-192zM407 1227h132l216 191h-194z" />
    <glyph glyph-name="thorn" unicode="&#xfe;" horiz-adv-x="1284" 
d="M93 -400h280v1287h-280v-1287zM99 0h257l24 181v1389h-281v-1570zM757 -7q229 0 336 157t107 445q0 289 -107 445t-336 156q-205 0 -352.5 -98.5t-147.5 -212.5l123 -129q0 100 83 173t197 73q121 0 188.5 -85t67.5 -323q0 -240 -67.5 -324.5t-188.5 -84.5
q-114 0 -197 73t-83 175l-123 -131q0 -114 147.5 -211.5t352.5 -97.5z" />
    <glyph glyph-name="ydieresis" unicode="&#xff;" horiz-adv-x="1183" 
d="M369 0h429l337 1185h-294l-256 -998h-3l-259 998h-294zM100 -464q275 0 446 90.5t252 373.5l-260 1q-48 -170 -147.5 -221.5t-290.5 -51.5v-192zM400 1249q35 0 60 25t25 60q0 36 -25 61t-60 25q-36 0 -61 -25t-25 -61q0 -35 25 -60t61 -25zM760 1249q36 0 60.5 25
t24.5 60q0 36 -24.5 61t-60.5 25q-35 0 -60 -25t-25 -61q0 -35 24.5 -60t60.5 -25z" />
    <glyph glyph-name="Amacron" unicode="&#x100;" horiz-adv-x="1404" 
d="M61 0h293l103 348h491l102 -348h293l-439 1352h-404zM504 536l197 649h3l197 -649h-397zM379 1445h644v105h-644v-105z" />
    <glyph glyph-name="amacron" unicode="&#x101;" horiz-adv-x="1270" 
d="M502 -12q81 0 148 14t118.5 37t85.5 49.5t49 53.5l24 -142h234v746q0 164 -62.5 262.5t-183.5 143.5t-297 45q-100 0 -189 -18.5t-161 -58t-121.5 -105t-68.5 -160.5l275 -75q15 84 52.5 133.5t92.5 71.5t121 22q81 0 139 -24.5t89.5 -78.5t31.5 -144v-54h-380
q-103 0 -184 -18t-136.5 -58.5t-84.5 -108.5t-29 -169q0 -106 30 -176.5t87.5 -111.5t137.5 -58.5t182 -17.5zM565 170q-46 0 -85 8.5t-68.5 29t-45.5 58t-16 96.5t16 96.5t45 57.5t68.5 27.5t85.5 7.5h310v-251q-19 -33 -62.5 -63t-106.5 -48.5t-141 -18.5zM295 1280h644
v105h-644v-105z" />
    <glyph glyph-name="Abreve" unicode="&#x102;" horiz-adv-x="1404" 
d="M61 0h293l103 348h491l102 -348h293l-439 1352h-404zM504 536l197 649h3l197 -649h-397zM701 1397q74 0 125.5 25t78 66t26.5 90h-134q0 -25 -9 -44.5t-30 -30.5t-57 -11q-32 0 -53 11t-31.5 30t-10.5 45h-135q0 -49 28.5 -90t79.5 -66t122 -25z" />
    <glyph glyph-name="abreve" unicode="&#x103;" horiz-adv-x="1270" 
d="M502 -12q81 0 148 14t118.5 37t85.5 49.5t49 53.5l24 -142h234v746q0 164 -62.5 262.5t-183.5 143.5t-297 45q-100 0 -189 -18.5t-161 -58t-121.5 -105t-68.5 -160.5l275 -75q15 84 52.5 133.5t92.5 71.5t121 22q81 0 139 -24.5t89.5 -78.5t31.5 -144v-54h-380
q-103 0 -184 -18t-136.5 -58.5t-84.5 -108.5t-29 -169q0 -106 30 -176.5t87.5 -111.5t137.5 -58.5t182 -17.5zM565 170q-46 0 -85 8.5t-68.5 29t-45.5 58t-16 96.5t16 96.5t45 57.5t68.5 27.5t85.5 7.5h310v-251q-19 -33 -62.5 -63t-106.5 -48.5t-141 -18.5zM617 1233
q74 0 125.5 25t78 66t26.5 90h-134q0 -25 -9 -44.5t-30 -30.5t-57 -11q-32 0 -53 11t-31.5 30t-10.5 45h-135q0 -49 28.5 -90t79.5 -66t122 -25z" />
    <glyph glyph-name="Aogonek" unicode="&#x104;" horiz-adv-x="1404" 
d="M61 0h293l103 348h491l102 -348h293l-439 1352h-404zM504 536l197 649h3l197 -649h-397zM1323 -352q43 0 82 4.5t68 11t38 9.5l-2 140q-11 -5 -35 -11.5t-53.5 -11t-56.5 -4.5q-39 0 -57.5 16t-18.5 43q0 23 10.5 53t25 58.5t25.5 43.5h-138q-15 -17 -34.5 -49.5
t-34.5 -74t-15 -85.5q0 -56 28 -87t73 -43.5t95 -12.5z" />
    <glyph glyph-name="aogonek" unicode="&#x105;" horiz-adv-x="1270" 
d="M502 -12q81 0 148 14t118.5 37t85.5 49.5t49 53.5l24 -142h234v746q0 164 -62.5 262.5t-183.5 143.5t-297 45q-100 0 -189 -18.5t-161 -58t-121.5 -105t-68.5 -160.5l275 -75q15 84 52.5 133.5t92.5 71.5t121 22q81 0 139 -24.5t89.5 -78.5t31.5 -144v-54h-380
q-103 0 -184 -18t-136.5 -58.5t-84.5 -108.5t-29 -169q0 -106 30 -176.5t87.5 -111.5t137.5 -58.5t182 -17.5zM565 170q-46 0 -85 8.5t-68.5 29t-45.5 58t-16 96.5t16 96.5t45 57.5t68.5 27.5t85.5 7.5h310v-251q-19 -33 -62.5 -63t-106.5 -48.5t-141 -18.5zM1136 -352
q43 0 82 4.5t68 11t38 9.5l-2 140q-11 -5 -35 -11.5t-53.5 -11t-56.5 -4.5q-39 0 -57.5 16t-18.5 43q0 23 10.5 53t25 58.5t25.5 43.5h-138q-15 -17 -34.5 -49.5t-34.5 -74t-15 -85.5q0 -56 28 -87t73 -43.5t95 -12.5z" />
    <glyph glyph-name="Cacute" unicode="&#x106;" horiz-adv-x="1313" 
d="M645 -8q336 0 454.5 162.5t118.5 388.5h-288q0 -200 -74 -278.5t-214 -78.5q-142 0 -224 88t-82 404t82 402.5t224 86.5q141 0 214.5 -76.5t73.5 -279.5h288q0 232 -118 391.5t-456 159.5q-336 0 -466 -169t-130 -515q0 -345 130 -515.5t467 -170.5zM464 1392h132
l216 191h-194z" />
    <glyph glyph-name="cacute" unicode="&#x107;" horiz-adv-x="1217" 
d="M611 -10q276 0 387.5 130.5t126.5 264.5l-251 89q-6 -128 -74.5 -209.5t-188.5 -81.5t-198.5 90.5t-78.5 317.5q0 239 77.5 324.5t199.5 85.5q121 0 189 -76t74 -218l251 86q-15 147 -126.5 275t-387.5 128q-307 0 -435 -153.5t-128 -451.5q0 -289 128 -445t435 -156z
M436 1227h132l216 191h-194z" />
    <glyph glyph-name="Ccircumflex" unicode="&#x108;" horiz-adv-x="1313" 
d="M645 -8q336 0 454.5 162.5t118.5 388.5h-288q0 -200 -74 -278.5t-214 -78.5q-142 0 -224 88t-82 404t82 402.5t224 86.5q141 0 214.5 -76.5t73.5 -279.5h288q0 232 -118 391.5t-456 159.5q-336 0 -466 -169t-130 -515q0 -345 130 -515.5t467 -170.5zM336 1401h166
l138 135l137 -135h165l-213 195h-181z" />
    <glyph glyph-name="ccircumflex" unicode="&#x109;" horiz-adv-x="1217" 
d="M611 -10q276 0 387.5 130.5t126.5 264.5l-251 89q-6 -128 -74.5 -209.5t-188.5 -81.5t-198.5 90.5t-78.5 317.5q0 239 77.5 324.5t199.5 85.5q121 0 189 -76t74 -218l251 86q-15 147 -126.5 275t-387.5 128q-307 0 -435 -153.5t-128 -451.5q0 -289 128 -445t435 -156z
M307 1236h166l138 135l137 -135h165l-213 195h-181z" />
    <glyph glyph-name="Cdotaccent" unicode="&#x10a;" horiz-adv-x="1313" 
d="M645 -8q336 0 454.5 162.5t118.5 388.5h-288q0 -200 -74 -278.5t-214 -78.5q-142 0 -224 88t-82 404t82 402.5t224 86.5q141 0 214.5 -76.5t73.5 -279.5h288q0 232 -118 391.5t-456 159.5q-336 0 -466 -169t-130 -515q0 -345 130 -515.5t467 -170.5zM639 1405
q36 0 61.5 26t25.5 62t-25 61.5t-62 25.5q-36 0 -62 -25.5t-26 -61.5q0 -37 26 -62.5t62 -25.5z" />
    <glyph glyph-name="cdotaccent" unicode="&#x10b;" horiz-adv-x="1217" 
d="M611 -10q276 0 387.5 130.5t126.5 264.5l-251 89q-6 -128 -74.5 -209.5t-188.5 -81.5t-198.5 90.5t-78.5 317.5q0 239 77.5 324.5t199.5 85.5q121 0 189 -76t74 -218l251 86q-15 147 -126.5 275t-387.5 128q-307 0 -435 -153.5t-128 -451.5q0 -289 128 -445t435 -156z
M610 1240q36 0 61.5 26t25.5 62t-25 61.5t-62 25.5q-36 0 -62 -25.5t-26 -61.5q0 -37 26 -62.5t62 -25.5z" />
    <glyph glyph-name="Ccaron" unicode="&#x10c;" horiz-adv-x="1313" 
d="M645 -8q336 0 454.5 162.5t118.5 388.5h-288q0 -200 -74 -278.5t-214 -78.5q-142 0 -224 88t-82 404t82 402.5t224 86.5q141 0 214.5 -76.5t73.5 -279.5h288q0 232 -118 391.5t-456 159.5q-336 0 -466 -169t-130 -515q0 -345 130 -515.5t467 -170.5zM548 1395h181
l213 195h-165l-138 -134l-137 134h-166z" />
    <glyph glyph-name="ccaron" unicode="&#x10d;" horiz-adv-x="1217" 
d="M611 -10q276 0 387.5 130.5t126.5 264.5l-251 89q-6 -128 -74.5 -209.5t-188.5 -81.5t-198.5 90.5t-78.5 317.5q0 239 77.5 324.5t199.5 85.5q121 0 189 -76t74 -218l251 86q-15 147 -126.5 275t-387.5 128q-307 0 -435 -153.5t-128 -451.5q0 -289 128 -445t435 -156z
M519 1230h181l213 195h-165l-138 -134l-137 134h-166z" />
    <glyph glyph-name="Dcaron" unicode="&#x10e;" horiz-adv-x="1290" 
d="M81 0h642q270 0 381 148.5t111 527.5q0 378 -110.5 526t-381.5 148h-642v-1350zM365 194v962h281q145 0 215 -82.5t70 -397.5q0 -316 -70 -399t-215 -83h-281zM540 1395h181l213 195h-165l-138 -134l-137 134h-166z" />
    <glyph glyph-name="dcaron" unicode="&#x10f;" horiz-adv-x="1465" 
d="M1231 1241h171l65 329h-185zM898 0h261v1570h-280v-1385zM505 -7q204 0 351 97.5t147 211.5l-124 131q0 -101 -82 -174.5t-196 -73.5q-121 0 -189.5 84t-68.5 325q0 240 68.5 324t189.5 84q114 0 196 -73t82 -173l124 129q0 114 -147 212.5t-351 98.5q-230 0 -338 -155
t-108 -446q0 -290 108 -446t338 -156z" />
    <glyph glyph-name="Dcroat" unicode="&#x110;" horiz-adv-x="1325" 
d="M-22 583h622v186h-622v-186zM116 0h642q269 0 380.5 148.5t111.5 527.5q0 378 -111 526t-381 148h-642v-1350zM400 194v962h281q145 0 215 -82.5t70 -397.5q0 -316 -70 -399t-215 -83h-281z" />
    <glyph glyph-name="dcroat" unicode="&#x111;" horiz-adv-x="1272" 
d="M541 1320h739v136h-739v-136zM898 0h261v1570h-280v-1385zM505 -7q204 0 351 97.5t147 211.5l-124 131q0 -101 -82 -174.5t-196 -73.5q-121 0 -189.5 84t-68.5 325q0 240 68.5 324t189.5 84q114 0 196 -73t82 -173l124 129q0 114 -147 212.5t-351 98.5q-230 0 -338 -155
t-108 -446q0 -290 108 -446t338 -156z" />
    <glyph glyph-name="Emacron" unicode="&#x112;" horiz-adv-x="1125" 
d="M77 0h949v194h-665v400h621v185h-621v377h665v194h-949v-1350zM232 1445h644v105h-644v-105z" />
    <glyph glyph-name="emacron" unicode="&#x113;" horiz-adv-x="1276" 
d="M630 -10v182q-138 0 -217 93q-81 91 -81 329q0 246 82 333q81 88 212 88q133 0 208 -82q59 -72 69 -252h-598v-171h876q6 39 6 86q0 287 -124 445q-126 156 -438 156q-302 0 -433 -155q-132 -155 -132 -448q0 -281 130 -443q129 -161 440 -161zM630 172v-182
q167 0 268 36t170 114q69 77 88 196l-252 70q-19 -73 -50 -130q-32 -57 -88 -81q-56 -23 -136 -23zM304 1280h644v105h-644v-105z" />
    <glyph glyph-name="Ebreve" unicode="&#x114;" horiz-adv-x="1125" 
d="M77 0h949v194h-665v400h621v185h-621v377h665v194h-949v-1350zM554 1397q74 0 125.5 25t78 66t26.5 90h-134q0 -25 -9 -44.5t-30 -30.5t-57 -11q-32 0 -53 11t-31.5 30t-10.5 45h-135q0 -49 28.5 -90t79.5 -66t122 -25z" />
    <glyph glyph-name="ebreve" unicode="&#x115;" horiz-adv-x="1276" 
d="M630 -10v182q-138 0 -217 93q-81 91 -81 329q0 246 82 333q81 88 212 88q133 0 208 -82q59 -72 69 -252h-598v-171h876q6 39 6 86q0 287 -124 445q-126 156 -438 156q-302 0 -433 -155q-132 -155 -132 -448q0 -281 130 -443q129 -161 440 -161zM630 172v-182
q167 0 268 36t170 114q69 77 88 196l-252 70q-19 -73 -50 -130q-32 -57 -88 -81q-56 -23 -136 -23zM626 1232q74 0 125.5 25t78 66t26.5 90h-134q0 -25 -9 -44.5t-30 -30.5t-57 -11q-32 0 -53 11t-31.5 30t-10.5 45h-135q0 -49 28.5 -90t79.5 -66t122 -25z" />
    <glyph glyph-name="Edotaccent" unicode="&#x116;" horiz-adv-x="1125" 
d="M77 0h949v194h-665v400h621v185h-621v377h665v194h-949v-1350zM555 1405q36 0 61.5 26t25.5 62t-25 61.5t-62 25.5q-36 0 -62 -25.5t-26 -61.5q0 -37 26 -62.5t62 -25.5z" />
    <glyph glyph-name="edotaccent" unicode="&#x117;" horiz-adv-x="1276" 
d="M630 -10v182q-138 0 -217 93q-81 91 -81 329q0 246 82 333q81 88 212 88q133 0 208 -82q59 -72 69 -252h-598v-171h876q6 39 6 86q0 287 -124 445q-126 156 -438 156q-302 0 -433 -155q-132 -155 -132 -448q0 -281 130 -443q129 -161 440 -161zM630 172v-182
q167 0 268 36t170 114q69 77 88 196l-252 70q-19 -73 -50 -130q-32 -57 -88 -81q-56 -23 -136 -23zM626 1240q36 0 61.5 26t25.5 62t-25 61.5t-62 25.5q-36 0 -62 -25.5t-26 -61.5q0 -37 26 -62.5t62 -25.5z" />
    <glyph glyph-name="Eogonek" unicode="&#x118;" horiz-adv-x="1125" 
d="M77 0h949v194h-665v400h621v185h-621v377h665v194h-949v-1350zM736 -352q43 0 82 4.5t68 11t38 9.5l-2 140q-11 -5 -35 -11.5t-53.5 -11t-56.5 -4.5q-39 0 -57.5 16t-18.5 43q0 23 10.5 53t25 58.5t25.5 43.5h-138q-15 -17 -34.5 -49.5t-34.5 -74t-15 -85.5q0 -56 28 -87
t73 -43.5t95 -12.5z" />
    <glyph glyph-name="eogonek" unicode="&#x119;" horiz-adv-x="1276" 
d="M630 -10v182q-138 0 -217 93q-81 91 -81 329q0 246 82 333q81 88 212 88q133 0 208 -82q59 -72 69 -252h-598v-171h876q6 39 6 86q0 287 -124 445q-126 156 -438 156q-302 0 -433 -155q-132 -155 -132 -448q0 -281 130 -443q129 -161 440 -161zM630 172v-182
q167 0 268 36t170 114q69 77 88 196l-252 70q-19 -73 -50 -130q-32 -57 -88 -81q-56 -23 -136 -23zM973 -297q43 0 82 4.5t68 11t38 9.5l-2 140q-11 -5 -35 -11.5t-53.5 -11t-56.5 -4.5q-39 0 -57.5 16t-18.5 43q0 23 10.5 53t25 58.5t25.5 43.5h-138q-15 -17 -34.5 -49.5
t-34.5 -74t-15 -85.5q0 -56 28 -87t73 -43.5t95 -12.5z" />
    <glyph glyph-name="Ecaron" unicode="&#x11a;" horiz-adv-x="1125" 
d="M77 0h949v194h-665v400h621v185h-621v377h665v194h-949v-1350zM463 1395h181l213 195h-165l-138 -134l-137 134h-166z" />
    <glyph glyph-name="ecaron" unicode="&#x11b;" horiz-adv-x="1276" 
d="M630 -10v182q-138 0 -217 93q-81 91 -81 329q0 246 82 333q81 88 212 88q133 0 208 -82q59 -72 69 -252h-598v-171h876q6 39 6 86q0 287 -124 445q-126 156 -438 156q-302 0 -433 -155q-132 -155 -132 -448q0 -281 130 -443q129 -161 440 -161zM630 172v-182
q167 0 268 36t170 114q69 77 88 196l-252 70q-19 -73 -50 -130q-32 -57 -88 -81q-56 -23 -136 -23zM535 1230h181l213 195h-165l-138 -134l-137 134h-166z" />
    <glyph glyph-name="Gcircumflex" unicode="&#x11c;" horiz-adv-x="1350" 
d="M630 -8q320 2 403 191l31 -183h161v681h-547v-169h256v-69q-8 -139 -72 -198t-205 -59q-152 0 -230.5 98.5t-78.5 385.5q0 321 78.5 409.5t228.5 88.5q145 0 211.5 -72t74.5 -246h284q-6 208 -129.5 360t-441.5 152q-337 0 -465 -167.5t-128 -515.5q0 -344 125 -515.5
t444 -171.5zM356 1401h166l138 135l137 -135h165l-213 195h-181z" />
    <glyph glyph-name="gcircumflex" unicode="&#x11d;" horiz-adv-x="1284" 
d="M606 -467q173 0 287 46t191 160t77 313v1133h-207l-74 -237v-924q0 -193 -73 -252.5t-192 -59.5q-71 0 -127 22.5t-88.5 72t-39.5 129.5h-275q19 -222 166.5 -312.5t354.5 -90.5zM508 -7q204 0 350 96.5t146 212.5l-125 131q0 -101 -82 -174.5t-196 -73.5
q-121 0 -189.5 84t-68.5 325q0 240 68.5 324t189.5 84q114 0 196 -73t82 -173l124 123q0 114 -147 215.5t-351 101.5q-230 0 -338 -155t-108 -446q0 -290 109.5 -446t339.5 -156zM323 1236h166l138 135l137 -135h165l-213 195h-181z" />
    <glyph glyph-name="Gbreve" unicode="&#x11e;" horiz-adv-x="1350" 
d="M630 -8q320 2 403 191l31 -183h161v681h-547v-169h256v-69q-8 -139 -72 -198t-205 -59q-152 0 -230.5 98.5t-78.5 385.5q0 321 78.5 409.5t228.5 88.5q145 0 211.5 -72t74.5 -246h284q-6 208 -129.5 360t-441.5 152q-337 0 -465 -167.5t-128 -515.5q0 -344 125 -515.5
t444 -171.5zM658 1397q74 0 125.5 25t78 66t26.5 90h-134q0 -25 -9 -44.5t-30 -30.5t-57 -11q-32 0 -53 11t-31.5 30t-10.5 45h-135q0 -49 28.5 -90t79.5 -66t122 -25z" />
    <glyph glyph-name="gbreve" unicode="&#x11f;" horiz-adv-x="1284" 
d="M606 -467q173 0 287 46t191 160t77 313v1133h-207l-74 -237v-924q0 -193 -73 -252.5t-192 -59.5q-71 0 -127 22.5t-88.5 72t-39.5 129.5h-275q19 -222 166.5 -312.5t354.5 -90.5zM508 -7q204 0 350 96.5t146 212.5l-125 131q0 -101 -82 -174.5t-196 -73.5
q-121 0 -189.5 84t-68.5 325q0 240 68.5 324t189.5 84q114 0 196 -73t82 -173l124 123q0 114 -147 215.5t-351 101.5q-230 0 -338 -155t-108 -446q0 -290 109.5 -446t339.5 -156zM626 1232q74 0 125.5 25t78 66t26.5 90h-134q0 -25 -9 -44.5t-30 -30.5t-57 -11q-32 0 -53 11
t-31.5 30t-10.5 45h-135q0 -49 28.5 -90t79.5 -66t122 -25z" />
    <glyph glyph-name="Gdotaccent" unicode="&#x120;" horiz-adv-x="1350" 
d="M630 -8q320 2 403 191l31 -183h161v681h-547v-169h256v-69q-8 -139 -72 -198t-205 -59q-152 0 -230.5 98.5t-78.5 385.5q0 321 78.5 409.5t228.5 88.5q145 0 211.5 -72t74.5 -246h284q-6 208 -129.5 360t-441.5 152q-337 0 -465 -167.5t-128 -515.5q0 -344 125 -515.5
t444 -171.5zM659 1405q36 0 61.5 26t25.5 62t-25 61.5t-62 25.5q-36 0 -62 -25.5t-26 -61.5q0 -37 26 -62.5t62 -25.5z" />
    <glyph glyph-name="gdotaccent" unicode="&#x121;" horiz-adv-x="1284" 
d="M606 -467q173 0 287 46t191 160t77 313v1133h-207l-74 -237v-924q0 -193 -73 -252.5t-192 -59.5q-71 0 -127 22.5t-88.5 72t-39.5 129.5h-275q19 -222 166.5 -312.5t354.5 -90.5zM508 -7q204 0 350 96.5t146 212.5l-125 131q0 -101 -82 -174.5t-196 -73.5
q-121 0 -189.5 84t-68.5 325q0 240 68.5 324t189.5 84q114 0 196 -73t82 -173l124 123q0 114 -147 215.5t-351 101.5q-230 0 -338 -155t-108 -446q0 -290 109.5 -446t339.5 -156zM626 1240q36 0 61.5 26t25.5 62t-25 61.5t-62 25.5q-36 0 -62 -25.5t-26 -61.5
q0 -37 26 -62.5t62 -25.5z" />
    <glyph glyph-name="uni0122" unicode="&#x122;" horiz-adv-x="1350" 
d="M630 -8q320 2 403 191l31 -183h161v681h-547v-169h256v-69q-8 -139 -72 -198t-205 -59q-152 0 -230.5 98.5t-78.5 385.5q0 321 78.5 409.5t228.5 88.5q145 0 211.5 -72t74.5 -246h284q-6 208 -129.5 360t-441.5 152q-337 0 -465 -167.5t-128 -515.5q0 -344 125 -515.5
t444 -171.5zM531 -319h99l126 255h-159z" />
    <glyph glyph-name="uni0123" unicode="&#x123;" horiz-adv-x="1284" 
d="M606 -467q173 0 287 46t191 160t77 313v1133h-207l-74 -237v-924q0 -193 -73 -252.5t-192 -59.5q-71 0 -127 22.5t-88.5 72t-39.5 129.5h-275q19 -222 166.5 -312.5t354.5 -90.5zM508 -7q204 0 350 96.5t146 212.5l-125 131q0 -101 -82 -174.5t-196 -73.5
q-121 0 -189.5 84t-68.5 325q0 240 68.5 324t189.5 84q114 0 196 -73t82 -173l124 123q0 114 -147 215.5t-351 101.5q-230 0 -338 -155t-108 -446q0 -290 109.5 -446t339.5 -156zM542 1252h130l60 239h-80z" />
    <glyph glyph-name="Hcircumflex" unicode="&#x124;" horiz-adv-x="1317" 
d="M81 0h284v585h543v-585h284v1350h-284v-570h-543v570h-284v-1350zM350 1401h166l138 135l137 -135h165l-213 195h-181z" />
    <glyph glyph-name="hcircumflex" unicode="&#x125;" horiz-adv-x="1252" 
d="M93 0h281v1570h-281v-1570zM858 0h280v660q0 249 -89 392.5t-308 143.5q-227 0 -367.5 -142.5t-140.5 -295.5l136 -70q0 138 77 226t190 88q111 0 166.5 -76.5t55.5 -277.5v-648zM389 1545h166l138 135l137 -135h165l-213 195h-181z" />
    <glyph glyph-name="Hbar" unicode="&#x126;" horiz-adv-x="1304" 
d="M29 1035h1235v104h-1235v-104zM91 0h284v585h542v-585h285v1350h-285v-570h-542v570h-284v-1350z" />
    <glyph glyph-name="hbar" unicode="&#x127;" horiz-adv-x="1203" 
d="M-9 1320h741v136h-741v-136zM91 0h281v1570h-281v-1570zM856 0h280v660q0 249 -88.5 392.5t-308.5 143.5q-227 0 -367.5 -142.5t-140.5 -295.5l136 -70q0 138 77 226t191 88q110 0 165.5 -76.5t55.5 -277.5v-648z" />
    <glyph glyph-name="Itilde" unicode="&#x128;" horiz-adv-x="580" 
d="M134 0h283v1350h-283v-1350zM402 1420q51 0 84.5 13.5t54.5 35t33 45.5t17 47t4 38h-137q-1 -12 -8.5 -28t-24.5 -27.5t-42 -11.5q-30 0 -53.5 11.5t-46.5 27t-52 26.5t-70 11q-50 0 -85.5 -12.5t-57.5 -33.5t-33.5 -45t-16.5 -46.5t-6 -38.5h139q0 12 7.5 28.5t24 27.5
t44.5 11t50.5 -12t46.5 -27.5t54.5 -27.5t73.5 -12z" />
    <glyph glyph-name="itilde" unicode="&#x129;" horiz-adv-x="514" 
d="M98 0h283v1186h-283v-1186zM366 1256q51 0 84.5 13.5t54.5 35t33 45.5t17 47t4 38h-137q-1 -12 -8.5 -28t-24.5 -27.5t-42 -11.5q-30 0 -53.5 11.5t-46.5 27t-52 26.5t-70 11q-50 0 -85.5 -12.5t-57.5 -33.5t-33.5 -45t-16.5 -46.5t-6 -38.5h139q0 12 7.5 28.5t24 27.5
t44.5 11t50.5 -12t46.5 -27.5t54.5 -27.5t73.5 -12z" />
    <glyph glyph-name="Imacron" unicode="&#x12a;" horiz-adv-x="580" 
d="M134 0h283v1350h-283v-1350zM-46 1445h644v105h-644v-105z" />
    <glyph glyph-name="imacron" unicode="&#x12b;" horiz-adv-x="514" 
d="M14 1281h451v105h-451v-105zM98 0h283v1186h-283v-1186z" />
    <glyph glyph-name="Ibreve" unicode="&#x12c;" horiz-adv-x="580" 
d="M134 0h283v1350h-283v-1350zM275 1397q74 0 125.5 25t78 66t26.5 90h-134q0 -25 -9 -44.5t-30 -30.5t-57 -11q-32 0 -53 11t-31.5 30t-10.5 45h-135q0 -49 28.5 -90t79.5 -66t122 -25z" />
    <glyph glyph-name="ibreve" unicode="&#x12d;" horiz-adv-x="514" 
d="M98 0h283v1186h-283v-1186zM240 1232q74 0 125.5 25t78 66t26.5 90h-134q0 -25 -9 -44.5t-30 -30.5t-57 -11q-32 0 -53 11t-31.5 30t-10.5 45h-135q0 -49 28.5 -90t79.5 -66t122 -25z" />
    <glyph glyph-name="Iogonek" unicode="&#x12e;" horiz-adv-x="580" 
d="M134 0h283v1350h-283v-1350zM391 -352q43 0 82 4.5t68 11t38 9.5l-2 140q-11 -5 -35 -11.5t-53.5 -11t-56.5 -4.5q-39 0 -57.5 16t-18.5 43q0 23 10.5 53t25 58.5t25.5 43.5h-138q-15 -17 -34.5 -49.5t-34.5 -74t-15 -85.5q0 -56 28 -87t73 -43.5t95 -12.5z" />
    <glyph glyph-name="iogonek" unicode="&#x12f;" horiz-adv-x="514" 
d="M100 1529v-212h282v212h-282zM98 0h283v1186h-283v-1186zM356 -352q42 0 81 4.5t68 11t39 9.5l-3 140q-10 -5 -34.5 -11.5t-53.5 -11t-56 -4.5q-40 0 -58 16t-18 43q0 23 10 53t24.5 58.5t25.5 43.5h-138q-14 -17 -34 -49.5t-34.5 -74t-14.5 -85.5q0 -56 28 -87
t72.5 -43.5t95.5 -12.5z" />
    <glyph glyph-name="Idotaccent" unicode="&#x130;" horiz-adv-x="580" 
d="M134 0h283v1350h-283v-1350zM276 1405q36 0 61.5 26t25.5 62t-25 61.5t-62 25.5q-36 0 -62 -25.5t-26 -61.5q0 -37 26 -62.5t62 -25.5z" />
    <glyph glyph-name="dotlessi" unicode="&#x131;" horiz-adv-x="514" 
d="M98 0h283v1186h-283v-1186z" />
    <glyph glyph-name="IJ" unicode="&#x132;" horiz-adv-x="1856" 
d="M134 0h283v1350h-283v-1350zM1184 -11q272 0 407 100.5t135 305.5v955h-283v-915q0 -132 -59 -193t-201 -61q-143 0 -200.5 61.5t-57.5 191.5v174h-283v-207q0 -213 135 -312.5t407 -99.5z" />
    <glyph glyph-name="ij" unicode="&#x133;" horiz-adv-x="1109" 
d="M119 0h282v1186h-282v-1186zM119 1529v-212h282v212h-282zM413 -460q271 0 412.5 99.5t141.5 381.5v1165h-281v-1176q0 -162 -71 -218t-202 -56v-196zM686 1529v-212h281v212h-281z" />
    <glyph glyph-name="Jcircumflex" unicode="&#x134;" horiz-adv-x="1275" 
d="M604 -11q272 0 407 100.5t135 305.5v955h-283v-915q0 -132 -59 -193t-201 -61q-143 0 -200.5 61.5t-57.5 191.5v174h-283v-207q0 -213 135 -312.5t407 -99.5zM709 1401h166l138 135l137 -135h165l-213 195h-181z" />
    <glyph glyph-name="jcircumflex" unicode="&#x135;" horiz-adv-x="565" 
d="M-131 -460q271 0 412.5 99.5t141.5 381.5v1165h-281v-1176q0 -162 -71 -218t-202 -56v-196zM-23 1237h166l138 135l137 -135h165l-213 195h-181z" />
    <glyph glyph-name="uni0136" unicode="&#x136;" horiz-adv-x="1210" 
d="M81 0h283v598l482 -598h320l-544 674l541 676h-320l-479 -600v600h-283v-1350zM465 -320h99l126 255h-159z" />
    <glyph glyph-name="uni0137" unicode="&#x137;" horiz-adv-x="1207" 
d="M551 572l293 -572h302l-403 766zM93 0h280v396l191 175l177 172l394 443h-329l-433 -478v862h-280v-1570zM491 -320h99l126 255h-159z" />
    <glyph glyph-name="kgreenlandic" unicode="&#x138;" horiz-adv-x="1218" 
d="M90 0h283v1186h-283v-1186zM322 586l309 2l541 598h-320zM853 0h320l-542 597l-309 3z" />
    <glyph glyph-name="Lacute" unicode="&#x139;" horiz-adv-x="1012" 
d="M81 0h851v193h-567v1157h-284v-1350zM333 1392h132l216 191h-194z" />
    <glyph glyph-name="lacute" unicode="&#x13a;" horiz-adv-x="528" 
d="M119 0h281v1570h-281v-1570zM86 1612h132l216 191h-194z" />
    <glyph glyph-name="uni013B" unicode="&#x13b;" horiz-adv-x="1012" 
d="M81 0h851v193h-567v1157h-284v-1350zM379 -320h99l126 255h-159z" />
    <glyph glyph-name="uni013C" unicode="&#x13c;" horiz-adv-x="528" 
d="M119 0h281v1570h-281v-1570zM132 -320h99l126 255h-159z" />
    <glyph glyph-name="Lcaron" unicode="&#x13d;" horiz-adv-x="1037" 
d="M837 1024h170l100 324h-184zM81 0h851v193h-567v1157h-284v-1350z" />
    <glyph glyph-name="lcaron" unicode="&#x13e;" horiz-adv-x="528" 
d="M119 0h281v1570h-281v-1570zM168 1615h181l213 195h-165l-138 -134l-137 134h-166z" />
    <glyph glyph-name="Ldot" unicode="&#x13f;" horiz-adv-x="1083" 
d="M81 0h851v193h-567v1157h-284v-1350zM626 804v-222h264v222h-264z" />
    <glyph glyph-name="ldot" unicode="&#x140;" horiz-adv-x="769" 
d="M119 0h281v1570h-281v-1570zM467 787v-222h264v222h-264z" />
    <glyph glyph-name="Lslash" unicode="&#x141;" horiz-adv-x="1117" 
d="M55 396l652 425l-68 141l-652 -425zM168 0h850v193h-566v1157h-284v-1350z" />
    <glyph glyph-name="lslash" unicode="&#x142;" horiz-adv-x="544" 
d="M-2 386l538 337v221l-538 -337v-221zM128 0h281v1570h-281v-1570z" />
    <glyph glyph-name="Nacute" unicode="&#x143;" horiz-adv-x="1491" 
d="M81 0h283v1147h4l550 -1147h448v1350h-283l-2 -1133h-3l-544 1133h-453v-1350zM563 1392h132l216 191h-194z" />
    <glyph glyph-name="nacute" unicode="&#x144;" horiz-adv-x="1248" 
d="M93 0h280v973l-62 212h-218v-1185zM853 0h281v651q0 249 -87.5 397t-306.5 148q-227 0 -369.5 -142.5t-142.5 -295.5l136 -70q0 138 79 226t193 88q110 0 163.5 -76.5t53.5 -277.5v-648zM442 1227h132l216 191h-194z" />
    <glyph glyph-name="uni0145" unicode="&#x145;" horiz-adv-x="1491" 
d="M81 0h283v1147h4l550 -1147h448v1350h-283l-2 -1133h-3l-544 1133h-453v-1350zM609 -320h99l126 255h-159z" />
    <glyph glyph-name="uni0146" unicode="&#x146;" horiz-adv-x="1248" 
d="M93 0h280v973l-62 212h-218v-1185zM853 0h281v651q0 249 -87.5 397t-306.5 148q-227 0 -369.5 -142.5t-142.5 -295.5l136 -70q0 138 79 226t193 88q110 0 163.5 -76.5t53.5 -277.5v-648zM488 -320h99l126 255h-159z" />
    <glyph glyph-name="Ncaron" unicode="&#x147;" horiz-adv-x="1491" 
d="M81 0h283v1147h4l550 -1147h448v1350h-283l-2 -1133h-3l-544 1133h-453v-1350zM646 1395h181l213 195h-165l-138 -134l-137 134h-166z" />
    <glyph glyph-name="ncaron" unicode="&#x148;" horiz-adv-x="1248" 
d="M93 0h280v973l-62 212h-218v-1185zM853 0h281v651q0 249 -87.5 397t-306.5 148q-227 0 -369.5 -142.5t-142.5 -295.5l136 -70q0 138 79 226t193 88q110 0 163.5 -76.5t53.5 -277.5v-648zM525 1230h181l213 195h-165l-138 -134l-137 134h-166z" />
    <glyph glyph-name="Eng" unicode="&#x14a;" horiz-adv-x="1492" 
d="M756 -452q133 0 245 24.5t194 77.5t127 139.5t45 210.5h-293q1 -61 -12 -110t-48 -83.5t-97.5 -53t-160.5 -18.5v-187zM81 0h283v1147h4l550 -1147h448v1350h-283l-2 -1133h-3l-544 1133h-453v-1350z" />
    <glyph glyph-name="eng" unicode="&#x14b;" horiz-adv-x="1248" 
d="M576 -428q137 0 241 22.5t174.5 72.5t106.5 131.5t36 201.5h-281q0 -84 -34 -140t-96 -83t-147 -27v-178zM93 0h280v973l-62 212h-218v-1185zM853 0h281v651q0 249 -87.5 397t-306.5 148q-227 0 -369.5 -142.5t-142.5 -295.5l136 -70q0 138 79 226t193 88
q110 0 163.5 -76.5t53.5 -277.5v-648z" />
    <glyph glyph-name="Omacron" unicode="&#x14c;" horiz-adv-x="1369" 
d="M678 -10q334 0 475.5 169.5t141.5 515.5t-141.5 516.5t-475.5 170.5t-475.5 -170t-141.5 -517q0 -346 142 -515.5t475 -169.5zM678 184q-149 0 -241 90t-92 401q0 315 92 403.5t241 88.5q150 0 242 -88.5t92 -403.5q0 -311 -92 -401t-242 -90zM359 1445h644v105h-644
v-105z" />
    <glyph glyph-name="omacron" unicode="&#x14d;" horiz-adv-x="1281" 
d="M628 -9q301 0 435 153.5t134 452.5t-134 450t-435 151t-435 -151t-134 -450t134 -452.5t435 -153.5zM628 183q-126 0 -207 83.5t-81 328.5q0 246 81 329t207 83t207 -83t81 -329q0 -245 -81 -328.5t-207 -83.5zM306 1282h644v105h-644v-105z" />
    <glyph glyph-name="Obreve" unicode="&#x14e;" horiz-adv-x="1369" 
d="M678 -10q334 0 475.5 169.5t141.5 515.5t-141.5 516.5t-475.5 170.5t-475.5 -170t-141.5 -517q0 -346 142 -515.5t475 -169.5zM678 184q-149 0 -241 90t-92 401q0 315 92 403.5t241 88.5q150 0 242 -88.5t92 -403.5q0 -311 -92 -401t-242 -90zM680 1397q74 0 125.5 25
t78 66t26.5 90h-134q0 -25 -9 -44.5t-30 -30.5t-57 -11q-32 0 -53 11t-31.5 30t-10.5 45h-135q0 -49 28.5 -90t79.5 -66t122 -25z" />
    <glyph glyph-name="obreve" unicode="&#x14f;" horiz-adv-x="1281" 
d="M628 -9q301 0 435 153.5t134 452.5t-134 450t-435 151t-435 -151t-134 -450t134 -452.5t435 -153.5zM628 183q-126 0 -207 83.5t-81 328.5q0 246 81 329t207 83t207 -83t81 -329q0 -245 -81 -328.5t-207 -83.5zM627 1234q74 0 125.5 25t78 66t26.5 90h-134
q0 -25 -9 -44.5t-30 -30.5t-57 -11q-32 0 -53 11t-31.5 30t-10.5 45h-135q0 -49 28.5 -90t79.5 -66t122 -25z" />
    <glyph glyph-name="Ohungarumlaut" unicode="&#x150;" horiz-adv-x="1369" 
d="M678 -10q334 0 475.5 169.5t141.5 515.5t-141.5 516.5t-475.5 170.5t-475.5 -170t-141.5 -517q0 -346 142 -515.5t475 -169.5zM678 184q-149 0 -241 90t-92 401q0 315 92 403.5t241 88.5q150 0 242 -88.5t92 -403.5q0 -311 -92 -401t-242 -90zM597 1420h129l199 173h-175
zM435 1420h129l192 173h-169z" />
    <glyph glyph-name="ohungarumlaut" unicode="&#x151;" horiz-adv-x="1281" 
d="M628 -9q301 0 435 153.5t134 452.5t-134 450t-435 151t-435 -151t-134 -450t134 -452.5t435 -153.5zM628 183q-126 0 -207 83.5t-81 328.5q0 246 81 329t207 83t207 -83t81 -329q0 -245 -81 -328.5t-207 -83.5zM546 1257h129l199 173h-175zM384 1257h129l192 173h-169z
" />
    <glyph glyph-name="OE" unicode="&#x152;" horiz-adv-x="2062" 
d="M678 -10q334 0 475.5 169.5t141.5 515.5t-141.5 516.5t-475.5 170.5t-475.5 -170t-141.5 -517q0 -346 142 -515.5t475 -169.5zM678 184q-149 0 -241 90t-92 401q0 315 92 403.5t241 88.5q150 0 242 -88.5t92 -403.5q0 -311 -92 -401t-242 -90zM1014 0h949v194h-665v400
h621v185h-621v377h665v194h-949v-1350z" />
    <glyph glyph-name="oe" unicode="&#x153;" horiz-adv-x="2133" 
d="M628 -9q301 0 435 153.5t134 452.5t-134 450t-435 151t-435 -151t-134 -450t134 -452.5t435 -153.5zM628 183q-126 0 -207 83.5t-81 328.5q0 246 81 329t207 83t207 -83t81 -329q0 -245 -81 -328.5t-207 -83.5zM1487 -10v182q-138 0 -217 93q-81 91 -81 329q0 246 82 333
q81 88 212 88q133 0 208 -82q59 -72 69 -252h-598v-171h876q6 39 6 86q0 287 -124 445q-126 156 -438 156q-302 0 -433 -155q-132 -155 -132 -448q0 -281 130 -443q129 -161 440 -161zM1487 172v-182q167 0 268 36t170 114q69 77 88 196l-252 70q-19 -73 -50 -130
q-32 -57 -88 -81q-56 -23 -136 -23z" />
    <glyph glyph-name="Racute" unicode="&#x154;" horiz-adv-x="1266" 
d="M81 0h285v557h432q219 0 294.5 112.5t75.5 277.5q0 167 -72.5 285t-286.5 118h-728v-1350zM879 0h308l-305 646l-282 -14zM366 733v423h351q94 0 130 -56.5t36 -155.5q0 -98 -35.5 -154.5t-130.5 -56.5h-351zM445 1392h132l216 191h-194z" />
    <glyph glyph-name="racute" unicode="&#x155;" horiz-adv-x="1225" 
d="M830 615h281q0 300 -81.5 440.5t-303.5 140.5q-209 0 -335.5 -111.5t-126.5 -273.5l108 -68q0 100 67 179t182 79q101 0 155 -77t54 -309zM93 0h280v970l-62 215h-218v-1185zM463 1227h132l216 191h-194z" />
    <glyph glyph-name="uni0156" unicode="&#x156;" horiz-adv-x="1266" 
d="M81 0h285v557h432q219 0 294.5 112.5t75.5 277.5q0 167 -72.5 285t-286.5 118h-728v-1350zM879 0h308l-305 646l-282 -14zM366 733v423h351q94 0 130 -56.5t36 -155.5q0 -98 -35.5 -154.5t-130.5 -56.5h-351zM491 -320h99l126 255h-159z" />
    <glyph glyph-name="uni0157" unicode="&#x157;" horiz-adv-x="1225" 
d="M830 615h281q0 300 -81.5 440.5t-303.5 140.5q-209 0 -335.5 -111.5t-126.5 -273.5l108 -68q0 100 67 179t182 79q101 0 155 -77t54 -309zM93 0h280v970l-62 215h-218v-1185zM377 -320h99l126 255h-159z" />
    <glyph glyph-name="Rcaron" unicode="&#x158;" horiz-adv-x="1266" 
d="M81 0h285v557h432q219 0 294.5 112.5t75.5 277.5q0 167 -72.5 285t-286.5 118h-728v-1350zM879 0h308l-305 646l-282 -14zM366 733v423h351q94 0 130 -56.5t36 -155.5q0 -98 -35.5 -154.5t-130.5 -56.5h-351zM528 1395h181l213 195h-165l-138 -134l-137 134h-166z" />
    <glyph glyph-name="rcaron" unicode="&#x159;" horiz-adv-x="1225" 
d="M830 615h281q0 300 -81.5 440.5t-303.5 140.5q-209 0 -335.5 -111.5t-126.5 -273.5l108 -68q0 100 67 179t182 79q101 0 155 -77t54 -309zM93 0h280v970l-62 215h-218v-1185zM547 1230h181l213 195h-165l-138 -134l-137 134h-166z" />
    <glyph glyph-name="Sacute" unicode="&#x15a;" horiz-adv-x="1299" 
d="M473 1488h132l216 191h-194zM636 -8q327 0 447.5 119t120.5 289q0 173 -106 243t-380 131q-177 39 -279.5 79t-102.5 143q0 79 78 126t215 47q131 0 210 -55t79 -246h285q0 236 -122 365t-449 129q-324 0 -447.5 -117t-123.5 -281q0 -171 108 -247t374 -136
q180 -38 280.5 -77.5t100.5 -142.5q0 -86 -77.5 -131t-212.5 -45q-136 0 -213 56t-77 252h-284q0 -250 120.5 -375.5t455.5 -125.5z" />
    <glyph glyph-name="sacute" unicode="&#x15b;" horiz-adv-x="1250" 
d="M638 -9q254 0 389.5 82.5t135.5 267.5q0 179 -129 248.5t-321 101.5q-154 30 -253 58.5t-99 115.5q0 69 57.5 108.5t176.5 39.5q126 0 205.5 -59.5t99.5 -166.5l247 88q-37 174 -178 247.5t-370 73.5q-235 0 -375 -82.5t-140 -248.5q0 -176 119 -253.5t312 -110.5
q161 -31 265.5 -59.5t104.5 -121.5q0 -67 -62.5 -106t-180.5 -39q-134 0 -217 57t-103 178l-247 -88q40 -184 188.5 -257.5t374.5 -73.5zM448 1228h132l216 191h-194z" />
    <glyph glyph-name="Scircumflex" unicode="&#x15c;" horiz-adv-x="1299" 
d="M636 -8q327 0 447.5 119t120.5 289q0 173 -106 243t-380 131q-177 39 -279.5 79t-102.5 143q0 79 78 126t215 47q131 0 210 -55t79 -246h285q0 236 -122 365t-449 129q-324 0 -447.5 -117t-123.5 -281q0 -171 108 -247t374 -136q180 -38 280.5 -77.5t100.5 -142.5
q0 -86 -77.5 -131t-212.5 -45q-136 0 -213 56t-77 252h-284q0 -250 120.5 -375.5t455.5 -125.5zM337 1401h166l138 135l137 -135h165l-213 195h-181z" />
    <glyph glyph-name="scircumflex" unicode="&#x15d;" horiz-adv-x="1250" 
d="M638 -9q254 0 389.5 82.5t135.5 267.5q0 179 -129 248.5t-321 101.5q-154 30 -253 58.5t-99 115.5q0 69 57.5 108.5t176.5 39.5q126 0 205.5 -59.5t99.5 -166.5l247 88q-37 174 -178 247.5t-370 73.5q-235 0 -375 -82.5t-140 -248.5q0 -176 119 -253.5t312 -110.5
q161 -31 265.5 -59.5t104.5 -121.5q0 -67 -62.5 -106t-180.5 -39q-134 0 -217 57t-103 178l-247 -88q40 -184 188.5 -257.5t374.5 -73.5zM319 1237h166l138 135l137 -135h165l-213 195h-181z" />
    <glyph glyph-name="Scedilla" unicode="&#x15e;" horiz-adv-x="1300" 
d="M640 -330q53 0 105 11t93 32.5t65 53t24 73.5q0 56 -39 83t-103 27q-50 0 -90.5 -14t-61.5 -34l-5 -50q15 10 37.5 17t43.5 7q25 0 38 -7.5t13 -25.5q0 -25 -29.5 -39t-89.5 -14q-38 0 -71.5 5.5t-58.5 11.5l-39 -118q40 -9 83.5 -14t84.5 -5zM628 -148l53 149h-113
l-42 -137zM636 -8q327 0 447.5 119t120.5 289q0 173 -106 243t-380 131q-177 39 -279.5 79t-102.5 143q0 79 78 126t215 47q131 0 210 -55t79 -246h285q0 236 -122 365t-449 129q-324 0 -447.5 -117t-123.5 -281q0 -171 108 -247t374 -136q180 -38 280.5 -77.5t100.5 -142.5
q0 -86 -77.5 -131t-212.5 -45q-136 0 -213 56t-77 252h-284q0 -250 120.5 -375.5t455.5 -125.5z" />
    <glyph glyph-name="scedilla" unicode="&#x15f;" horiz-adv-x="1250" 
d="M638 -9q254 0 389.5 82.5t135.5 267.5q0 179 -129 248.5t-321 101.5q-154 30 -253 58.5t-99 115.5q0 69 57.5 108.5t176.5 39.5q126 0 205.5 -59.5t99.5 -166.5l247 88q-37 174 -178 247.5t-370 73.5q-235 0 -375 -82.5t-140 -248.5q0 -176 119 -253.5t312 -110.5
q161 -31 265.5 -59.5t104.5 -121.5q0 -67 -62.5 -106t-180.5 -39q-134 0 -217 57t-103 178l-247 -88q40 -184 188.5 -257.5t374.5 -73.5zM640 -331q53 0 105 11t93 32.5t65 53t24 73.5q0 56 -39 83t-103 27q-50 0 -90.5 -14t-61.5 -34l-5 -50q15 10 37.5 17t43.5 7
q25 0 38 -7.5t13 -25.5q0 -25 -29.5 -39t-89.5 -14q-38 0 -71.5 5.5t-58.5 11.5l-39 -118q40 -9 83.5 -14t84.5 -5zM628 -149l53 149h-113l-42 -137z" />
    <glyph glyph-name="Scaron" unicode="&#x160;" horiz-adv-x="1299" 
d="M539 1483h181l213 195h-165l-138 -134l-137 134h-166zM636 -8q327 0 447.5 119t120.5 289q0 173 -106 243t-380 131q-177 39 -279.5 79t-102.5 143q0 79 78 126t215 47q131 0 210 -55t79 -246h285q0 236 -122 365t-449 129q-324 0 -447.5 -117t-123.5 -281
q0 -171 108 -247t374 -136q180 -38 280.5 -77.5t100.5 -142.5q0 -86 -77.5 -131t-212.5 -45q-136 0 -213 56t-77 252h-284q0 -250 120.5 -375.5t455.5 -125.5z" />
    <glyph glyph-name="scaron" unicode="&#x161;" horiz-adv-x="1250" 
d="M638 -9q254 0 389.5 82.5t135.5 267.5q0 179 -129 248.5t-321 101.5q-154 30 -253 58.5t-99 115.5q0 69 57.5 108.5t176.5 39.5q126 0 205.5 -59.5t99.5 -166.5l247 88q-37 174 -178 247.5t-370 73.5q-235 0 -375 -82.5t-140 -248.5q0 -176 119 -253.5t312 -110.5
q161 -31 265.5 -59.5t104.5 -121.5q0 -67 -62.5 -106t-180.5 -39q-134 0 -217 57t-103 178l-247 -88q40 -184 188.5 -257.5t374.5 -73.5zM531 1231h181l213 195h-165l-138 -134l-137 134h-166z" />
    <glyph glyph-name="uni0162" unicode="&#x162;" horiz-adv-x="1238" 
d="M475 0h284v1156h406v194h-1097v-194h407v-1156zM639 -331q53 0 105 11t93 32.5t65 53t24 73.5q0 56 -39 83t-103 27q-50 0 -90.5 -14t-61.5 -34l-5 -50q15 10 37.5 17t43.5 7q25 0 38 -7.5t13 -25.5q0 -25 -29.5 -39t-89.5 -14q-38 0 -71.5 5.5t-58.5 11.5l-39 -118
q40 -9 83.5 -14t84.5 -5zM627 -149l53 149h-113l-42 -137z" />
    <glyph glyph-name="uni0163" unicode="&#x163;" horiz-adv-x="1049" 
d="M646 -14q125 0 239 26v188q-70 -25 -144 -25q-77 0 -119.5 32t-42.5 134v650h376v194h-376v270h-281v-270h-274v-194h274v-713q0 -166 100.5 -229t247.5 -63zM631 -329q53 0 105 11t93 32.5t65 53t24 73.5q0 56 -39 83t-103 27q-50 0 -90.5 -14t-61.5 -34l-5 -50
q15 10 37.5 17t43.5 7q25 0 38 -7.5t13 -25.5q0 -25 -29.5 -39t-89.5 -14q-38 0 -71.5 5.5t-58.5 11.5l-39 -118q40 -9 83.5 -14t84.5 -5zM619 -147l53 149h-113l-42 -137z" />
    <glyph glyph-name="Tcaron" unicode="&#x164;" horiz-adv-x="1238" 
d="M475 0h284v1156h406v194h-1097v-194h407v-1156zM528 1395h181l213 195h-165l-138 -134l-137 134h-166z" />
    <glyph glyph-name="tcaron" unicode="&#x165;" horiz-adv-x="1159" 
d="M974 1200h131l54 252h-146zM646 -14q125 0 239 26v188q-70 -25 -144 -25q-77 0 -119.5 32t-42.5 134v650h376v194h-376v270h-281v-270h-274v-194h274v-713q0 -166 100.5 -229t247.5 -63z" />
    <glyph glyph-name="Tbar" unicode="&#x166;" horiz-adv-x="1238" 
d="M152 713h936v168h-936v-168zM475 0h284v1156h406v194h-1097v-194h407v-1156z" />
    <glyph glyph-name="tbar" unicode="&#x167;" horiz-adv-x="1026" 
d="M85 553h715v151h-715v-151zM646 -14q125 0 239 26v188q-70 -25 -144 -25q-77 0 -119.5 32t-42.5 134v650h376v194h-376v270h-281v-270h-274v-194h274v-713q0 -166 100.5 -229t247.5 -63z" />
    <glyph glyph-name="Utilde" unicode="&#x168;" horiz-adv-x="1359" 
d="M667 -8q287 0 431.5 102.5t144.5 343.5v912h-284v-880q0 -153 -71 -218t-221 -65t-221 65.5t-71 217.5v880h-284v-912q0 -241 144.5 -343.5t431.5 -102.5zM799 1420q51 0 84.5 13.5t54.5 35t33 45.5t17 47t4 38h-137q-1 -12 -8.5 -28t-24.5 -27.5t-42 -11.5
q-30 0 -53.5 11.5t-46.5 27t-52 26.5t-70 11q-50 0 -85.5 -12.5t-57.5 -33.5t-33.5 -45t-16.5 -46.5t-6 -38.5h139q0 12 7.5 28.5t24 27.5t44.5 11t50.5 -12t46.5 -27.5t54.5 -27.5t73.5 -12z" />
    <glyph glyph-name="utilde" unicode="&#x169;" horiz-adv-x="1250" 
d="M913 0h217v1185h-281v-991zM362 1186h-281v-660q0 -248 85.5 -392t307.5 -144q242 0 378 143t136 295l-138 65q0 -138 -80 -223.5t-194 -85.5q-110 0 -162 76.5t-52 278.5v647zM740 1256q51 0 84.5 13.5t54.5 35t33 45.5t17 47t4 38h-137q-1 -12 -8.5 -28t-24.5 -27.5
t-42 -11.5q-30 0 -53.5 11.5t-46.5 27t-52 26.5t-70 11q-50 0 -85.5 -12.5t-57.5 -33.5t-33.5 -45t-16.5 -46.5t-6 -38.5h139q0 12 7.5 28.5t24 27.5t44.5 11t50.5 -12t46.5 -27.5t54.5 -27.5t73.5 -12z" />
    <glyph glyph-name="Umacron" unicode="&#x16a;" horiz-adv-x="1359" 
d="M667 -8q287 0 431.5 102.5t144.5 343.5v912h-284v-880q0 -153 -71 -218t-221 -65t-221 65.5t-71 217.5v880h-284v-912q0 -241 144.5 -343.5t431.5 -102.5zM351 1445h644v105h-644v-105z" />
    <glyph glyph-name="umacron" unicode="&#x16b;" horiz-adv-x="1250" 
d="M913 0h217v1185h-281v-991zM362 1186h-281v-660q0 -248 85.5 -392t307.5 -144q242 0 378 143t136 295l-138 65q0 -138 -80 -223.5t-194 -85.5q-110 0 -162 76.5t-52 278.5v647zM291 1280h644v105h-644v-105z" />
    <glyph glyph-name="Ubreve" unicode="&#x16c;" horiz-adv-x="1359" 
d="M667 -8q287 0 431.5 102.5t144.5 343.5v912h-284v-880q0 -153 -71 -218t-221 -65t-221 65.5t-71 217.5v880h-284v-912q0 -241 144.5 -343.5t431.5 -102.5zM672 1397q74 0 125.5 25t78 66t26.5 90h-134q0 -25 -9 -44.5t-30 -30.5t-57 -11q-32 0 -53 11t-31.5 30t-10.5 45
h-135q0 -49 28.5 -90t79.5 -66t122 -25z" />
    <glyph glyph-name="ubreve" unicode="&#x16d;" horiz-adv-x="1250" 
d="M913 0h217v1185h-281v-991zM362 1186h-281v-660q0 -248 85.5 -392t307.5 -144q242 0 378 143t136 295l-138 65q0 -138 -80 -223.5t-194 -85.5q-110 0 -162 76.5t-52 278.5v647zM613 1232q74 0 125.5 25t78 66t26.5 90h-134q0 -25 -9 -44.5t-30 -30.5t-57 -11
q-32 0 -53 11t-31.5 30t-10.5 45h-135q0 -49 28.5 -90t79.5 -66t122 -25z" />
    <glyph glyph-name="Uring" unicode="&#x16e;" horiz-adv-x="1359" 
d="M667 -8q287 0 431.5 102.5t144.5 343.5v912h-284v-880q0 -153 -71 -218t-221 -65t-221 65.5t-71 217.5v880h-284v-912q0 -241 144.5 -343.5t431.5 -102.5zM673 1389q63 0 105 43.5t42 106.5t-42 105.5t-105 42.5q-64 0 -106 -42.5t-42 -105.5q0 -64 42.5 -107t105.5 -43z
M673 1491q-18 0 -32 14t-14 34t14 33t32 13q19 0 32 -13t13 -33t-13 -34t-32 -14z" />
    <glyph glyph-name="uring" unicode="&#x16f;" horiz-adv-x="1250" 
d="M913 0h217v1185h-281v-991zM362 1186h-281v-660q0 -248 85.5 -392t307.5 -144q242 0 378 143t136 295l-138 65q0 -138 -80 -223.5t-194 -85.5q-110 0 -162 76.5t-52 278.5v647zM614 1225q63 0 105 43.5t42 106.5t-42 105.5t-105 42.5q-64 0 -106 -42.5t-42 -105.5
q0 -64 42.5 -107t105.5 -43zM614 1327q-18 0 -32 14t-14 34t14 33t32 13q19 0 32 -13t13 -33t-13 -34t-32 -14z" />
    <glyph glyph-name="Uhungarumlaut" unicode="&#x170;" horiz-adv-x="1359" 
d="M667 -8q287 0 431.5 102.5t144.5 343.5v912h-284v-880q0 -153 -71 -218t-221 -65t-221 65.5t-71 217.5v880h-284v-912q0 -241 144.5 -343.5t431.5 -102.5zM589 1420h129l199 173h-175zM427 1420h129l192 173h-169z" />
    <glyph glyph-name="uhungarumlaut" unicode="&#x171;" horiz-adv-x="1250" 
d="M913 0h217v1185h-281v-991zM362 1186h-281v-660q0 -248 85.5 -392t307.5 -144q242 0 378 143t136 295l-138 65q0 -138 -80 -223.5t-194 -85.5q-110 0 -162 76.5t-52 278.5v647zM530 1255h129l199 173h-175zM368 1255h129l192 173h-169z" />
    <glyph glyph-name="Uogonek" unicode="&#x172;" horiz-adv-x="1359" 
d="M667 -8q287 0 431.5 102.5t144.5 343.5v912h-284v-880q0 -153 -71 -218t-221 -65t-221 65.5t-71 217.5v880h-284v-912q0 -241 144.5 -343.5t431.5 -102.5zM644 -352q43 0 82 4.5t68 11t38 9.5l-2 140q-11 -5 -35 -11.5t-53.5 -11t-56.5 -4.5q-39 0 -57.5 16t-18.5 43
q0 23 10.5 53t25 58.5t25.5 43.5h-138q-15 -17 -34.5 -49.5t-34.5 -74t-15 -85.5q0 -56 28 -87t73 -43.5t95 -12.5z" />
    <glyph glyph-name="uogonek" unicode="&#x173;" horiz-adv-x="1250" 
d="M913 0h217v1185h-281v-991zM362 1186h-281v-660q0 -248 85.5 -392t307.5 -144q242 0 378 143t136 295l-138 65q0 -138 -80 -223.5t-194 -85.5q-110 0 -162 76.5t-52 278.5v647zM1104 -352q43 0 82 4.5t68 11t38 9.5l-2 140q-11 -5 -35 -11.5t-53.5 -11t-56.5 -4.5
q-39 0 -57.5 16t-18.5 43q0 23 10.5 53t25 58.5t25.5 43.5h-138q-15 -17 -34.5 -49.5t-34.5 -74t-15 -85.5q0 -56 28 -87t73 -43.5t95 -12.5z" />
    <glyph glyph-name="Wcircumflex" unicode="&#x174;" horiz-adv-x="1949" 
d="M302 0h434l224 1156h3l225 -1156h433l259 1350h-307l-183 -1142h-3l-238 1142h-374l-237 -1141h-3l-179 1141h-306zM672 1401h166l138 135l137 -135h165l-213 195h-181z" />
    <glyph glyph-name="wcircumflex" unicode="&#x175;" horiz-adv-x="1782" 
d="M312 0h379l195 904l197 -904h375l253 1185h-291l-157 -997h-3l-231 997h-283l-231 -999h-2l-164 999h-291zM582 1236h166l138 135l137 -135h165l-213 195h-181z" />
    <glyph glyph-name="Ycircumflex" unicode="&#x176;" horiz-adv-x="1350" 
d="M528 0h284v514l500 836h-309l-331 -610h-2l-333 610h-309l500 -835v-515zM368 1401h166l138 135l137 -135h165l-213 195h-181z" />
    <glyph glyph-name="ycircumflex" unicode="&#x177;" horiz-adv-x="1183" 
d="M369 0h429l337 1185h-294l-256 -998h-3l-259 998h-294zM100 -464q275 0 446 90.5t252 373.5l-260 1q-48 -170 -147.5 -221.5t-290.5 -51.5v-192zM278 1236h166l138 135l137 -135h165l-213 195h-181z" />
    <glyph glyph-name="Ydieresis" unicode="&#x178;" horiz-adv-x="1350" 
d="M528 0h284v514l500 836h-309l-331 -610h-2l-333 610h-309l500 -835v-515zM489 1414q35 0 60 25t25 60q0 36 -25 61t-60 25q-36 0 -61 -25t-25 -61q0 -35 25 -60t61 -25zM849 1414q36 0 60.5 25t24.5 60q0 36 -24.5 61t-60.5 25q-35 0 -60 -25t-25 -61q0 -35 24.5 -60
t60.5 -25z" />
    <glyph glyph-name="Zacute" unicode="&#x179;" horiz-adv-x="1148" 
d="M64 0h987v194h-673l650 962v194h-952v-193h639l-651 -956v-201zM401 1392h132l216 191h-194z" />
    <glyph glyph-name="zacute" unicode="&#x17a;" horiz-adv-x="1050" 
d="M71 0h892v193h-557v3l545 797v192h-876v-193h552v-1l-556 -798v-193zM343 1227h132l216 191h-194z" />
    <glyph glyph-name="Zdotaccent" unicode="&#x17b;" horiz-adv-x="1148" 
d="M64 0h987v194h-673l650 962v194h-952v-193h639l-651 -956v-201zM574 1405q36 0 61.5 26t25.5 62t-25 61.5t-62 25.5q-36 0 -62 -25.5t-26 -61.5q0 -37 26 -62.5t62 -25.5z" />
    <glyph glyph-name="zdotaccent" unicode="&#x17c;" horiz-adv-x="1050" 
d="M71 0h892v193h-557v3l545 797v192h-876v-193h552v-1l-556 -798v-193zM518 1240q36 0 61.5 26t25.5 62t-25 61.5t-62 25.5q-36 0 -62 -25.5t-26 -61.5q0 -37 26 -62.5t62 -25.5z" />
    <glyph glyph-name="Zcaron" unicode="&#x17d;" horiz-adv-x="1148" 
d="M64 0h987v194h-673l650 962v194h-952v-193h639l-651 -956v-201zM483 1395h181l213 195h-165l-138 -134l-137 134h-166z" />
    <glyph glyph-name="zcaron" unicode="&#x17e;" horiz-adv-x="1050" 
d="M71 0h892v193h-557v3l545 797v192h-876v-193h552v-1l-556 -798v-193zM427 1230h181l213 195h-165l-138 -134l-137 134h-166z" />
    <glyph glyph-name="uni018F" unicode="&#x18f;" horiz-adv-x="1263" 
d="M623 -10v0q304 0 434 165q131 165 131 523q0 349 -128 516q-130 168 -441 168l-1 -184q150 0 225 -103q73 -101 73 -401q0 -320 -77 -411q-78 -91 -216 -91q-126 0 -205 86q-71 81 -76 329h601v174h-876q-6 -38 -6 -89q0 -349 126 -515q124 -167 436 -167zM344 939v0
q7 58 31.5 102.5t61 75t83 46t98.5 15.5l18 108l-17 76q-81 0 -155.5 -13t-137 -39.5t-112 -67t-81 -96t-40.5 -124.5z" />
    <glyph glyph-name="florin" unicode="&#x192;" horiz-adv-x="1029" 
d="M-241 -426h139q154 0 267 34.5t180.5 108t85.5 187.5l152 1088h386l31 193h-386l9 63q15 73 80 108.5t182 35.5h149l29 180h-150q-164 0 -284.5 -33t-192.5 -104t-92 -184l-9 -66h-244l-31 -193h243l-151 -1085q-11 -79 -68.5 -116t-157.5 -37h-135z" />
    <glyph glyph-name="Ohorn" unicode="&#x1a0;" horiz-adv-x="1369" 
d="M678 -10q334 0 475.5 169.5t141.5 515.5t-141.5 516.5t-475.5 170.5t-475.5 -170t-141.5 -517q0 -346 142 -515.5t475 -169.5zM678 184q-149 0 -241 90t-92 401q0 315 92 403.5t241 88.5q150 0 242 -88.5t92 -403.5q0 -311 -92 -401t-242 -90zM1098 1212v-94
q126 0 212 28.5t131.5 86t45.5 146.5h-162q0 -60 -22 -97t-71 -53.5t-134 -16.5z" />
    <glyph glyph-name="ohorn" unicode="&#x1a1;" horiz-adv-x="1281" 
d="M628 -9q301 0 435 153.5t134 452.5t-134 450t-435 151t-435 -151t-134 -450t134 -452.5t435 -153.5zM628 183q-126 0 -207 83.5t-81 328.5q0 246 81 329t207 83t207 -83t81 -329q0 -245 -81 -328.5t-207 -83.5zM1029 1064v-94q126 0 212 28.5t131.5 86t45.5 146.5h-162
q0 -60 -22 -97t-71 -53.5t-134 -16.5z" />
    <glyph glyph-name="Uhorn" unicode="&#x1af;" horiz-adv-x="1359" 
d="M667 -8q287 0 431.5 102.5t144.5 343.5v912h-284v-880q0 -153 -71 -218t-221 -65t-221 65.5t-71 217.5v880h-284v-912q0 -241 144.5 -343.5t431.5 -102.5zM1241 1233v-94q126 0 212 28.5t131.5 86t45.5 146.5h-162q0 -60 -22 -97t-71 -53.5t-134 -16.5z" />
    <glyph glyph-name="uhorn" unicode="&#x1b0;" horiz-adv-x="1250" 
d="M913 0h217v1185h-281v-991zM362 1186h-281v-660q0 -248 85.5 -392t307.5 -144q242 0 378 143t136 295l-138 65q0 -138 -80 -223.5t-194 -85.5q-110 0 -162 76.5t-52 278.5v647zM1126 1185v-94q126 0 212 28.5t131.5 86t45.5 146.5h-162q0 -60 -22 -97t-71 -53.5
t-134 -16.5z" />
    <glyph glyph-name="uni01C4" unicode="&#x1c4;" horiz-adv-x="2438" 
d="M81 0h642q270 0 381 148.5t111 527.5q0 378 -110.5 526t-381.5 148h-642v-1350zM365 194v962h281q145 0 215 -82.5t70 -397.5q0 -316 -70 -399t-215 -83h-281zM1354 0h987v194h-673l650 962v194h-952v-193h639l-651 -956v-201zM1773 1395h181l213 195h-165l-138 -134
l-137 134h-166z" />
    <glyph glyph-name="uni01C5" unicode="&#x1c5;" horiz-adv-x="2340" 
d="M81 0h642q270 0 381 148.5t111 527.5q0 378 -110.5 526t-381.5 148h-642v-1350zM365 194v962h281q145 0 215 -82.5t70 -397.5q0 -316 -70 -399t-215 -83h-281zM1361 0h892v193h-557v3l545 797v192h-876v-193h552v-1l-556 -798v-193zM1716 1230h181l213 195h-165
l-138 -134l-137 134h-166z" />
    <glyph glyph-name="uni01C6" unicode="&#x1c6;" horiz-adv-x="2322" 
d="M898 0h261v1570h-280v-1385zM505 -7q204 0 351 97.5t147 211.5l-124 131q0 -101 -82 -174.5t-196 -73.5q-121 0 -189.5 84t-68.5 325q0 240 68.5 324t189.5 84q114 0 196 -73t82 -173l124 129q0 114 -147 212.5t-351 98.5q-230 0 -338 -155t-108 -446q0 -290 108 -446
t338 -156zM1342 0h892v193h-557v3l545 797v192h-876v-193h552v-1l-556 -798v-193zM1697 1230h181l213 195h-165l-138 -134l-137 134h-166z" />
    <glyph glyph-name="uni01C7" unicode="&#x1c7;" horiz-adv-x="2286" 
d="M81 0h851v193h-567v1157h-284v-1350zM1616 -11q272 0 407 100.5t135 305.5v955h-283v-915q0 -132 -59 -193t-201 -61q-143 0 -200.5 61.5t-57.5 191.5v174h-283v-207q0 -213 135 -312.5t407 -99.5z" />
    <glyph glyph-name="uni01C8" unicode="&#x1c8;" horiz-adv-x="1576" 
d="M81 0h851v193h-567v1157h-284v-1350zM881 -460q271 0 412.5 99.5t141.5 381.5v1165h-281v-1176q0 -162 -71 -218t-202 -56v-196zM1154 1529v-212h281v212h-281z" />
    <glyph glyph-name="uni01C9" unicode="&#x1c9;" horiz-adv-x="1092" 
d="M119 0h281v1570h-281v-1570zM397 -460q271 0 412.5 99.5t141.5 381.5v1165h-281v-1176q0 -162 -71 -218t-202 -56v-196zM670 1529v-212h281v212h-281z" />
    <glyph glyph-name="uni01CA" unicode="&#x1ca;" horiz-adv-x="2766" 
d="M81 0h283v1147h4l550 -1147h448v1350h-283l-2 -1133h-3l-544 1133h-453v-1350zM2095 -11q272 0 407 100.5t135 305.5v955h-283v-915q0 -132 -59 -193t-201 -61q-143 0 -200.5 61.5t-57.5 191.5v174h-283v-207q0 -213 135 -312.5t407 -99.5z" />
    <glyph glyph-name="uni01CB" unicode="&#x1cb;" horiz-adv-x="2056" 
d="M81 0h283v1147h4l550 -1147h448v1350h-283l-2 -1133h-3l-544 1133h-453v-1350zM1360 -460q271 0 412.5 99.5t141.5 381.5v1165h-281v-1176q0 -162 -71 -218t-202 -56v-196zM1633 1529v-212h281v212h-281z" />
    <glyph glyph-name="uni01CC" unicode="&#x1cc;" horiz-adv-x="1813" 
d="M93 0h280v973l-62 212h-218v-1185zM853 0h281v651q0 249 -87.5 397t-306.5 148q-227 0 -369.5 -142.5t-142.5 -295.5l136 -70q0 138 79 226t193 88q110 0 163.5 -76.5t53.5 -277.5v-648zM1117 -460q271 0 412.5 99.5t141.5 381.5v1165h-281v-1176q0 -162 -71 -218
t-202 -56v-196zM1390 1529v-212h281v212h-281z" />
    <glyph glyph-name="uni01CD" unicode="&#x1cd;" horiz-adv-x="1404" 
d="M61 0h293l103 348h491l102 -348h293l-439 1352h-404zM504 536l197 649h3l197 -649h-397zM610 1395h181l213 195h-165l-138 -134l-137 134h-166z" />
    <glyph glyph-name="uni01CE" unicode="&#x1ce;" horiz-adv-x="1270" 
d="M502 -12q81 0 148 14t118.5 37t85.5 49.5t49 53.5l24 -142h234v746q0 164 -62.5 262.5t-183.5 143.5t-297 45q-100 0 -189 -18.5t-161 -58t-121.5 -105t-68.5 -160.5l275 -75q15 84 52.5 133.5t92.5 71.5t121 22q81 0 139 -24.5t89.5 -78.5t31.5 -144v-54h-380
q-103 0 -184 -18t-136.5 -58.5t-84.5 -108.5t-29 -169q0 -106 30 -176.5t87.5 -111.5t137.5 -58.5t182 -17.5zM565 170q-46 0 -85 8.5t-68.5 29t-45.5 58t-16 96.5t16 96.5t45 57.5t68.5 27.5t85.5 7.5h310v-251q-19 -33 -62.5 -63t-106.5 -48.5t-141 -18.5zM526 1231h181
l213 195h-165l-138 -134l-137 134h-166z" />
    <glyph glyph-name="uni01CF" unicode="&#x1cf;" horiz-adv-x="580" 
d="M134 0h283v1350h-283v-1350zM184 1395h181l213 195h-165l-138 -134l-137 134h-166z" />
    <glyph glyph-name="uni01D0" unicode="&#x1d0;" horiz-adv-x="514" 
d="M98 0h283v1186h-283v-1186zM149 1230h181l213 195h-165l-138 -134l-137 134h-166z" />
    <glyph glyph-name="uni01D1" unicode="&#x1d1;" horiz-adv-x="1369" 
d="M678 -10q334 0 475.5 169.5t141.5 515.5t-141.5 516.5t-475.5 170.5t-475.5 -170t-141.5 -517q0 -346 142 -515.5t475 -169.5zM678 184q-149 0 -241 90t-92 401q0 315 92 403.5t241 88.5q150 0 242 -88.5t92 -403.5q0 -311 -92 -401t-242 -90zM590 1395h181l213 195h-165
l-138 -134l-137 134h-166z" />
    <glyph glyph-name="uni01D2" unicode="&#x1d2;" horiz-adv-x="1281" 
d="M628 -9q301 0 435 153.5t134 452.5t-134 450t-435 151t-435 -151t-134 -450t134 -452.5t435 -153.5zM628 183q-126 0 -207 83.5t-81 328.5q0 246 81 329t207 83t207 -83t81 -329q0 -245 -81 -328.5t-207 -83.5zM537 1232h181l213 195h-165l-138 -134l-137 134h-166z" />
    <glyph glyph-name="uni01D3" unicode="&#x1d3;" horiz-adv-x="1359" 
d="M667 -8q287 0 431.5 102.5t144.5 343.5v912h-284v-880q0 -153 -71 -218t-221 -65t-221 65.5t-71 217.5v880h-284v-912q0 -241 144.5 -343.5t431.5 -102.5zM581 1395h181l213 195h-165l-138 -134l-137 134h-166z" />
    <glyph glyph-name="uni01D4" unicode="&#x1d4;" horiz-adv-x="1250" 
d="M913 0h217v1185h-281v-991zM362 1186h-281v-660q0 -248 85.5 -392t307.5 -144q242 0 378 143t136 295l-138 65q0 -138 -80 -223.5t-194 -85.5q-110 0 -162 76.5t-52 278.5v647zM522 1230h181l213 195h-165l-138 -134l-137 134h-166z" />
    <glyph glyph-name="uni01D5" unicode="&#x1d5;" horiz-adv-x="1359" 
d="M667 -8q287 0 431.5 102.5t144.5 343.5v912h-284v-880q0 -153 -71 -218t-221 -65t-221 65.5t-71 217.5v880h-284v-912q0 -241 144.5 -343.5t431.5 -102.5zM491 1414q35 0 60 25t25 60q0 36 -25 61t-60 25q-36 0 -61 -25t-25 -61q0 -35 25 -60t61 -25zM851 1414
q36 0 60.5 25t24.5 60q0 36 -24.5 61t-60.5 25q-35 0 -60 -25t-25 -61q0 -35 24.5 -60t60.5 -25zM345 1690h644v105h-644v-105z" />
    <glyph glyph-name="uni01D6" unicode="&#x1d6;" horiz-adv-x="1250" 
d="M913 0h217v1185h-281v-991zM362 1186h-281v-660q0 -248 85.5 -392t307.5 -144q242 0 378 143t136 295l-138 65q0 -138 -80 -223.5t-194 -85.5q-110 0 -162 76.5t-52 278.5v647zM432 1249q35 0 60 25t25 60q0 36 -25 61t-60 25q-36 0 -61 -25t-25 -61q0 -35 25 -60t61 -25
zM792 1249q36 0 60.5 25t24.5 60q0 36 -24.5 61t-60.5 25q-35 0 -60 -25t-25 -61q0 -35 24.5 -60t60.5 -25zM291 1515h644v105h-644v-105z" />
    <glyph glyph-name="uni01D7" unicode="&#x1d7;" horiz-adv-x="1359" 
d="M667 -8q287 0 431.5 102.5t144.5 343.5v912h-284v-880q0 -153 -71 -218t-221 -65t-221 65.5t-71 217.5v880h-284v-912q0 -241 144.5 -343.5t431.5 -102.5zM491 1414q35 0 60 25t25 60q0 36 -25 61t-60 25q-36 0 -61 -25t-25 -61q0 -35 25 -60t61 -25zM851 1414
q36 0 60.5 25t24.5 60q0 36 -24.5 61t-60.5 25q-35 0 -60 -25t-25 -61q0 -35 24.5 -60t60.5 -25zM512 1681h132l216 191h-194z" />
    <glyph glyph-name="uni01D8" unicode="&#x1d8;" horiz-adv-x="1250" 
d="M913 0h217v1185h-281v-991zM362 1186h-281v-660q0 -248 85.5 -392t307.5 -144q242 0 378 143t136 295l-138 65q0 -138 -80 -223.5t-194 -85.5q-110 0 -162 76.5t-52 278.5v647zM432 1249q35 0 60 25t25 60q0 36 -25 61t-60 25q-36 0 -61 -25t-25 -61q0 -35 25 -60t61 -25
zM792 1249q36 0 60.5 25t24.5 60q0 36 -24.5 61t-60.5 25q-35 0 -60 -25t-25 -61q0 -35 24.5 -60t60.5 -25zM497 1431h132l216 191h-194z" />
    <glyph glyph-name="uni01D9" unicode="&#x1d9;" horiz-adv-x="1359" 
d="M667 -8q287 0 431.5 102.5t144.5 343.5v912h-284v-880q0 -153 -71 -218t-221 -65t-221 65.5t-71 217.5v880h-284v-912q0 -241 144.5 -343.5t431.5 -102.5zM491 1414q35 0 60 25t25 60q0 36 -25 61t-60 25q-36 0 -61 -25t-25 -61q0 -35 25 -60t61 -25zM851 1414
q36 0 60.5 25t24.5 60q0 36 -24.5 61t-60.5 25q-35 0 -60 -25t-25 -61q0 -35 24.5 -60t60.5 -25zM579 1677h181l213 195h-165l-138 -134l-137 134h-166z" />
    <glyph glyph-name="uni01DA" unicode="&#x1da;" horiz-adv-x="1250" 
d="M913 0h217v1185h-281v-991zM362 1186h-281v-660q0 -248 85.5 -392t307.5 -144q242 0 378 143t136 295l-138 65q0 -138 -80 -223.5t-194 -85.5q-110 0 -162 76.5t-52 278.5v647zM432 1249q35 0 60 25t25 60q0 36 -25 61t-60 25q-36 0 -61 -25t-25 -61q0 -35 25 -60t61 -25
zM792 1249q36 0 60.5 25t24.5 60q0 36 -24.5 61t-60.5 25q-35 0 -60 -25t-25 -61q0 -35 24.5 -60t60.5 -25zM522 1465h181l213 195h-165l-138 -134l-137 134h-166z" />
    <glyph glyph-name="uni01DB" unicode="&#x1db;" horiz-adv-x="1359" 
d="M667 -8q287 0 431.5 102.5t144.5 343.5v912h-284v-880q0 -153 -71 -218t-221 -65t-221 65.5t-71 217.5v880h-284v-912q0 -241 144.5 -343.5t431.5 -102.5zM491 1414q35 0 60 25t25 60q0 36 -25 61t-60 25q-36 0 -61 -25t-25 -61q0 -35 25 -60t61 -25zM851 1414
q36 0 60.5 25t24.5 60q0 36 -24.5 61t-60.5 25q-35 0 -60 -25t-25 -61q0 -35 24.5 -60t60.5 -25zM658 1675h133l-155 191h-194z" />
    <glyph glyph-name="uni01DC" unicode="&#x1dc;" horiz-adv-x="1250" 
d="M913 0h217v1185h-281v-991zM362 1186h-281v-660q0 -248 85.5 -392t307.5 -144q242 0 378 143t136 295l-138 65q0 -138 -80 -223.5t-194 -85.5q-110 0 -162 76.5t-52 278.5v647zM432 1249q35 0 60 25t25 60q0 36 -25 61t-60 25q-36 0 -61 -25t-25 -61q0 -35 25 -60t61 -25
zM792 1249q36 0 60.5 25t24.5 60q0 36 -24.5 61t-60.5 25q-35 0 -60 -25t-25 -61q0 -35 24.5 -60t60.5 -25zM602 1439h133l-155 191h-194z" />
    <glyph glyph-name="Gcaron" unicode="&#x1e6;" horiz-adv-x="1350" 
d="M630 -8q320 2 403 191l31 -183h161v681h-547v-169h256v-69q-8 -139 -72 -198t-205 -59q-152 0 -230.5 98.5t-78.5 385.5q0 321 78.5 409.5t228.5 88.5q145 0 211.5 -72t74.5 -246h284q-6 208 -129.5 360t-441.5 152q-337 0 -465 -167.5t-128 -515.5q0 -344 125 -515.5
t444 -171.5zM568 1395h181l213 195h-165l-138 -134l-137 134h-166z" />
    <glyph glyph-name="gcaron" unicode="&#x1e7;" horiz-adv-x="1284" 
d="M606 -467q173 0 287 46t191 160t77 313v1133h-207l-74 -237v-924q0 -193 -73 -252.5t-192 -59.5q-71 0 -127 22.5t-88.5 72t-39.5 129.5h-275q19 -222 166.5 -312.5t354.5 -90.5zM508 -7q204 0 350 96.5t146 212.5l-125 131q0 -101 -82 -174.5t-196 -73.5
q-121 0 -189.5 84t-68.5 325q0 240 68.5 324t189.5 84q114 0 196 -73t82 -173l124 123q0 114 -147 215.5t-351 101.5q-230 0 -338 -155t-108 -446q0 -290 109.5 -446t339.5 -156zM535 1230h181l213 195h-165l-138 -134l-137 134h-166z" />
    <glyph glyph-name="uni01EA" unicode="&#x1ea;" horiz-adv-x="1369" 
d="M678 -10q334 0 475.5 169.5t141.5 515.5t-141.5 516.5t-475.5 170.5t-475.5 -170t-141.5 -517q0 -346 142 -515.5t475 -169.5zM678 184q-149 0 -241 90t-92 401q0 315 92 403.5t241 88.5q150 0 242 -88.5t92 -403.5q0 -311 -92 -401t-242 -90zM1062 -269q43 0 82 4.5
t68 11t38 9.5l-2 140q-11 -5 -35 -11.5t-53.5 -11t-56.5 -4.5q-39 0 -57.5 16t-18.5 43q0 23 10.5 53t25 58.5t25.5 43.5h-138q-15 -17 -34.5 -49.5t-34.5 -74t-15 -85.5q0 -56 28 -87t73 -43.5t95 -12.5z" />
    <glyph glyph-name="uni01EB" unicode="&#x1eb;" horiz-adv-x="1281" 
d="M628 -9q301 0 435 153.5t134 452.5t-134 450t-435 151t-435 -151t-134 -450t134 -452.5t435 -153.5zM628 183q-126 0 -207 83.5t-81 328.5q0 246 81 329t207 83t207 -83t81 -329q0 -245 -81 -328.5t-207 -83.5zM610 -354q43 0 82 4.5t68 11t38 9.5l-2 140
q-11 -5 -35 -11.5t-53.5 -11t-56.5 -4.5q-39 0 -57.5 16t-18.5 43q0 23 10.5 53t25 58.5t25.5 43.5h-138q-15 -17 -34.5 -49.5t-34.5 -74t-15 -85.5q0 -56 28 -87t73 -43.5t95 -12.5z" />
    <glyph glyph-name="Aringacute" unicode="&#x1fa;" horiz-adv-x="1404" 
d="M61 0h293l103 348h491l102 -348h293l-439 1352h-404zM504 536l197 649h3l197 -649h-397zM701 1373q63 0 105 43.5t42 106.5t-42 105.5t-105 42.5q-64 0 -106 -42.5t-42 -105.5q0 -64 42.5 -107t105.5 -43zM701 1475q-18 0 -32 14t-14 34t14 33t32 13q19 0 32 -13t13 -33
t-13 -34t-32 -14zM526 1713h132l216 191h-194z" />
    <glyph glyph-name="aringacute" unicode="&#x1fb;" horiz-adv-x="1270" 
d="M502 -12q81 0 148 14t118.5 37t85.5 49.5t49 53.5l24 -142h234v746q0 164 -62.5 262.5t-183.5 143.5t-297 45q-100 0 -189 -18.5t-161 -58t-121.5 -105t-68.5 -160.5l275 -75q15 84 52.5 133.5t92.5 71.5t121 22q81 0 139 -24.5t89.5 -78.5t31.5 -144v-54h-380
q-103 0 -184 -18t-136.5 -58.5t-84.5 -108.5t-29 -169q0 -106 30 -176.5t87.5 -111.5t137.5 -58.5t182 -17.5zM565 170q-46 0 -85 8.5t-68.5 29t-45.5 58t-16 96.5t16 96.5t45 57.5t68.5 27.5t85.5 7.5h310v-251q-19 -33 -62.5 -63t-106.5 -48.5t-141 -18.5zM617 1226
q63 0 105 43.5t42 106.5t-42 105.5t-105 42.5q-64 0 -106 -42.5t-42 -105.5q0 -64 42.5 -107t105.5 -43zM617 1328q-18 0 -32 14t-14 34t14 33t32 13q19 0 32 -13t13 -33t-13 -34t-32 -14zM442 1565h132l216 191h-194z" />
    <glyph glyph-name="AEacute" unicode="&#x1fc;" horiz-adv-x="1972" 
d="M61 0h298l630 1248v102h-244zM386 288h598v189h-540zM924 0h948v194h-664v400h620v185h-620v377h664v194h-948v-1350zM803 1392h132l216 191h-194z" />
    <glyph glyph-name="aeacute" unicode="&#x1fd;" horiz-adv-x="2082" 
d="M1128 395v320q0 225 -113.5 353t-392.5 128q-285 0 -389.5 -106t-139.5 -262l269 -77q20 149 82.5 206.5t179.5 57.5q116 0 180.5 -67t64.5 -213v-430l41 -24zM494 -12q246 0 385.5 85t149.5 278l-158 82q0 -158 -77 -215t-212 -57q-131 0 -178 45.5t-47 121.5
q0 96 52.5 134.5t193.5 38.5h279v160h-371q-215 0 -330.5 -69.5t-115.5 -263.5q0 -170 113.5 -255t315.5 -85zM1436 -10v182q-138 0 -217 93q-80 91 -80 329q0 246 80 333q82 88 213 88q133 0 207 -82q60 -72 69 -252h-596v-171h876q5 39 5 86q0 287 -125 445
q-125 156 -437 156q-303 0 -433 -155q-131 -155 -131 -448q0 -281 129 -443q129 -161 440 -161zM1436 172v-182q167 0 268 36t170 114q68 77 88 196l-252 70q-19 -73 -50 -130q-32 -57 -88 -81q-56 -23 -136 -23zM846 1228h132l216 191h-194z" />
    <glyph glyph-name="Oslashacute" unicode="&#x1fe;" horiz-adv-x="1280" 
d="M48 0h150l1058 1348h-146zM678 -10q334 0 475.5 169.5t141.5 515.5t-141.5 516.5t-475.5 170.5t-475.5 -170t-141.5 -517q0 -346 142 -515.5t475 -169.5zM678 184q-149 0 -241 90t-92 401q0 315 92 403.5t241 88.5q150 0 242 -88.5t92 -403.5q0 -311 -92 -401t-242 -90z
M491 1392h132l216 191h-194z" />
    <glyph glyph-name="oslashacute" unicode="&#x1ff;" horiz-adv-x="1278" 
d="M-3 11l90 -74l1153 1249l-96 67zM628 -9q301 0 435 153.5t134 452.5t-134 450t-435 151t-435 -151t-134 -450t134 -452.5t435 -153.5zM628 183q-126 0 -207 83.5t-81 328.5q0 246 81 329t207 83t207 -83t81 -329q0 -245 -81 -328.5t-207 -83.5zM453 1234h132l216 191
h-194z" />
    <glyph glyph-name="uni0200" unicode="&#x200;" horiz-adv-x="1404" 
d="M61 0h293l103 348h491l102 -348h293l-439 1352h-404zM504 536l197 649h3l197 -649h-397zM826 1413h133l-155 191h-194zM550 1413h133l-155 191h-194z" />
    <glyph glyph-name="uni0201" unicode="&#x201;" horiz-adv-x="1270" 
d="M502 -12q81 0 148 14t118.5 37t85.5 49.5t49 53.5l24 -142h234v746q0 164 -62.5 262.5t-183.5 143.5t-297 45q-100 0 -189 -18.5t-161 -58t-121.5 -105t-68.5 -160.5l275 -75q15 84 52.5 133.5t92.5 71.5t121 22q81 0 139 -24.5t89.5 -78.5t31.5 -144v-54h-380
q-103 0 -184 -18t-136.5 -58.5t-84.5 -108.5t-29 -169q0 -106 30 -176.5t87.5 -111.5t137.5 -58.5t182 -17.5zM565 170q-46 0 -85 8.5t-68.5 29t-45.5 58t-16 96.5t16 96.5t45 57.5t68.5 27.5t85.5 7.5h310v-251q-19 -33 -62.5 -63t-106.5 -48.5t-141 -18.5zM741 1247h133
l-155 191h-194zM466 1247h133l-155 191h-194z" />
    <glyph glyph-name="uni0202" unicode="&#x202;" horiz-adv-x="1404" 
d="M61 0h293l103 348h491l102 -348h293l-439 1352h-404zM504 536l197 649h3l197 -649h-397zM702 1596q-74 0 -125.5 -24.5t-78.5 -66t-27 -90.5h135q0 26 9 45t30 30t57 11q32 0 53 -10.5t31.5 -30t10.5 -45.5h135q0 49 -28 90.5t-79.5 66t-122.5 24.5z" />
    <glyph glyph-name="uni0203" unicode="&#x203;" horiz-adv-x="1270" 
d="M502 -12q81 0 148 14t118.5 37t85.5 49.5t49 53.5l24 -142h234v746q0 164 -62.5 262.5t-183.5 143.5t-297 45q-100 0 -189 -18.5t-161 -58t-121.5 -105t-68.5 -160.5l275 -75q15 84 52.5 133.5t92.5 71.5t121 22q81 0 139 -24.5t89.5 -78.5t31.5 -144v-54h-380
q-103 0 -184 -18t-136.5 -58.5t-84.5 -108.5t-29 -169q0 -106 30 -176.5t87.5 -111.5t137.5 -58.5t182 -17.5zM565 170q-46 0 -85 8.5t-68.5 29t-45.5 58t-16 96.5t16 96.5t45 57.5t68.5 27.5t85.5 7.5h310v-251q-19 -33 -62.5 -63t-106.5 -48.5t-141 -18.5zM618 1431
q-74 0 -125.5 -24.5t-78.5 -66t-27 -90.5h135q0 26 9 45t30 30t57 11q32 0 53 -10.5t31.5 -30t10.5 -45.5h135q0 49 -28 90.5t-79.5 66t-122.5 24.5z" />
    <glyph glyph-name="uni0204" unicode="&#x204;" horiz-adv-x="1125" 
d="M77 0h949v194h-665v400h621v185h-621v377h665v194h-949v-1350zM679 1413h133l-155 191h-194zM404 1413h133l-155 191h-194z" />
    <glyph glyph-name="uni0205" unicode="&#x205;" horiz-adv-x="1276" 
d="M630 -10v182q-138 0 -217 93q-81 91 -81 329q0 246 82 333q81 88 212 88q133 0 208 -82q59 -72 69 -252h-598v-171h876q6 39 6 86q0 287 -124 445q-126 156 -438 156q-302 0 -433 -155q-132 -155 -132 -448q0 -281 130 -443q129 -161 440 -161zM630 172v-182
q167 0 268 36t170 114q69 77 88 196l-252 70q-19 -73 -50 -130q-32 -57 -88 -81q-56 -23 -136 -23zM751 1248h133l-155 191h-194zM475 1248h133l-155 191h-194z" />
    <glyph glyph-name="uni0206" unicode="&#x206;" horiz-adv-x="1125" 
d="M77 0h949v194h-665v400h621v185h-621v377h665v194h-949v-1350zM555 1596q-74 0 -125.5 -24.5t-78.5 -66t-27 -90.5h135q0 26 9 45t30 30t57 11q32 0 53 -10.5t31.5 -30t10.5 -45.5h135q0 49 -28 90.5t-79.5 66t-122.5 24.5z" />
    <glyph glyph-name="uni0207" unicode="&#x207;" horiz-adv-x="1276" 
d="M630 -10v182q-138 0 -217 93q-81 91 -81 329q0 246 82 333q81 88 212 88q133 0 208 -82q59 -72 69 -252h-598v-171h876q6 39 6 86q0 287 -124 445q-126 156 -438 156q-302 0 -433 -155q-132 -155 -132 -448q0 -281 130 -443q129 -161 440 -161zM630 172v-182
q167 0 268 36t170 114q69 77 88 196l-252 70q-19 -73 -50 -130q-32 -57 -88 -81q-56 -23 -136 -23zM627 1431q-74 0 -125.5 -24.5t-78.5 -66t-27 -90.5h135q0 26 9 45t30 30t57 11q32 0 53 -10.5t31.5 -30t10.5 -45.5h135q0 49 -28 90.5t-79.5 66t-122.5 24.5z" />
    <glyph glyph-name="uni0208" unicode="&#x208;" horiz-adv-x="580" 
d="M134 0h283v1350h-283v-1350zM400 1413h133l-155 191h-194zM124 1413h133l-155 191h-194z" />
    <glyph glyph-name="uni0209" unicode="&#x209;" horiz-adv-x="514" 
d="M98 0h283v1186h-283v-1186zM365 1248h133l-155 191h-194zM89 1248h133l-155 191h-194z" />
    <glyph glyph-name="uni020A" unicode="&#x20a;" horiz-adv-x="580" 
d="M134 0h283v1350h-283v-1350zM276 1596q-74 0 -125.5 -24.5t-78.5 -66t-27 -90.5h135q0 26 9 45t30 30t57 11q32 0 53 -10.5t31.5 -30t10.5 -45.5h135q0 49 -28 90.5t-79.5 66t-122.5 24.5z" />
    <glyph glyph-name="uni020B" unicode="&#x20b;" horiz-adv-x="514" 
d="M98 0h283v1186h-283v-1186zM241 1431q-74 0 -125.5 -24.5t-78.5 -66t-27 -90.5h135q0 26 9 45t30 30t57 11q32 0 53 -10.5t31.5 -30t10.5 -45.5h135q0 49 -28 90.5t-79.5 66t-122.5 24.5z" />
    <glyph glyph-name="uni020C" unicode="&#x20c;" horiz-adv-x="1369" 
d="M678 -10q334 0 475.5 169.5t141.5 515.5t-141.5 516.5t-475.5 170.5t-475.5 -170t-141.5 -517q0 -346 142 -515.5t475 -169.5zM678 184q-149 0 -241 90t-92 401q0 315 92 403.5t241 88.5q150 0 242 -88.5t92 -403.5q0 -311 -92 -401t-242 -90zM805 1413h133l-155 191
h-194zM530 1413h133l-155 191h-194z" />
    <glyph glyph-name="uni020D" unicode="&#x20d;" horiz-adv-x="1281" 
d="M628 -9q301 0 435 153.5t134 452.5t-134 450t-435 151t-435 -151t-134 -450t134 -452.5t435 -153.5zM628 183q-126 0 -207 83.5t-81 328.5q0 246 81 329t207 83t207 -83t81 -329q0 -245 -81 -328.5t-207 -83.5zM752 1249h133l-155 191h-194zM477 1249h133l-155 191h-194z
" />
    <glyph glyph-name="uni020E" unicode="&#x20e;" horiz-adv-x="1369" 
d="M678 -10q334 0 475.5 169.5t141.5 515.5t-141.5 516.5t-475.5 170.5t-475.5 -170t-141.5 -517q0 -346 142 -515.5t475 -169.5zM678 184q-149 0 -241 90t-92 401q0 315 92 403.5t241 88.5q150 0 242 -88.5t92 -403.5q0 -311 -92 -401t-242 -90zM682 1596
q-74 0 -125.5 -24.5t-78.5 -66t-27 -90.5h135q0 26 9 45t30 30t57 11q32 0 53 -10.5t31.5 -30t10.5 -45.5h135q0 49 -28 90.5t-79.5 66t-122.5 24.5z" />
    <glyph glyph-name="uni020F" unicode="&#x20f;" horiz-adv-x="1281" 
d="M628 -9q301 0 435 153.5t134 452.5t-134 450t-435 151t-435 -151t-134 -450t134 -452.5t435 -153.5zM628 183q-126 0 -207 83.5t-81 328.5q0 246 81 329t207 83t207 -83t81 -329q0 -245 -81 -328.5t-207 -83.5zM629 1432q-74 0 -125.5 -24.5t-78.5 -66t-27 -90.5h135
q0 26 9 45t30 30t57 11q32 0 53 -10.5t31.5 -30t10.5 -45.5h135q0 49 -28 90.5t-79.5 66t-122.5 24.5z" />
    <glyph glyph-name="uni0210" unicode="&#x210;" horiz-adv-x="1266" 
d="M81 0h285v557h432q219 0 294.5 112.5t75.5 277.5q0 167 -72.5 285t-286.5 118h-728v-1350zM879 0h308l-305 646l-282 -14zM366 733v423h351q94 0 130 -56.5t36 -155.5q0 -98 -35.5 -154.5t-130.5 -56.5h-351zM743 1413h133l-155 191h-194zM468 1413h133l-155 191h-194z
" />
    <glyph glyph-name="uni0211" unicode="&#x211;" horiz-adv-x="1225" 
d="M830 615h281q0 300 -81.5 440.5t-303.5 140.5q-209 0 -335.5 -111.5t-126.5 -273.5l108 -68q0 100 67 179t182 79q101 0 155 -77t54 -309zM93 0h280v970l-62 215h-218v-1185zM762 1248h133l-155 191h-194zM487 1248h133l-155 191h-194z" />
    <glyph glyph-name="uni0212" unicode="&#x212;" horiz-adv-x="1266" 
d="M81 0h285v557h432q219 0 294.5 112.5t75.5 277.5q0 167 -72.5 285t-286.5 118h-728v-1350zM879 0h308l-305 646l-282 -14zM366 733v423h351q94 0 130 -56.5t36 -155.5q0 -98 -35.5 -154.5t-130.5 -56.5h-351zM620 1596q-74 0 -125.5 -24.5t-78.5 -66t-27 -90.5h135
q0 26 9 45t30 30t57 11q32 0 53 -10.5t31.5 -30t10.5 -45.5h135q0 49 -28 90.5t-79.5 66t-122.5 24.5z" />
    <glyph glyph-name="uni0213" unicode="&#x213;" horiz-adv-x="1225" 
d="M830 615h281q0 300 -81.5 440.5t-303.5 140.5q-209 0 -335.5 -111.5t-126.5 -273.5l108 -68q0 100 67 179t182 79q101 0 155 -77t54 -309zM93 0h280v970l-62 215h-218v-1185zM639 1431q-74 0 -125.5 -24.5t-78.5 -66t-27 -90.5h135q0 26 9 45t30 30t57 11q32 0 53 -10.5
t31.5 -30t10.5 -45.5h135q0 49 -28 90.5t-79.5 66t-122.5 24.5z" />
    <glyph glyph-name="uni0214" unicode="&#x214;" horiz-adv-x="1359" 
d="M667 -8q287 0 431.5 102.5t144.5 343.5v912h-284v-880q0 -153 -71 -218t-221 -65t-221 65.5t-71 217.5v880h-284v-912q0 -241 144.5 -343.5t431.5 -102.5zM797 1413h133l-155 191h-194zM522 1413h133l-155 191h-194z" />
    <glyph glyph-name="uni0215" unicode="&#x215;" horiz-adv-x="1250" 
d="M913 0h217v1185h-281v-991zM362 1186h-281v-660q0 -248 85.5 -392t307.5 -144q242 0 378 143t136 295l-138 65q0 -138 -80 -223.5t-194 -85.5q-110 0 -162 76.5t-52 278.5v647zM738 1248h133l-155 191h-194zM463 1248h133l-155 191h-194z" />
    <glyph glyph-name="uni0216" unicode="&#x216;" horiz-adv-x="1359" 
d="M667 -8q287 0 431.5 102.5t144.5 343.5v912h-284v-880q0 -153 -71 -218t-221 -65t-221 65.5t-71 217.5v880h-284v-912q0 -241 144.5 -343.5t431.5 -102.5zM674 1596q-74 0 -125.5 -24.5t-78.5 -66t-27 -90.5h135q0 26 9 45t30 30t57 11q32 0 53 -10.5t31.5 -30
t10.5 -45.5h135q0 49 -28 90.5t-79.5 66t-122.5 24.5z" />
    <glyph glyph-name="uni0217" unicode="&#x217;" horiz-adv-x="1250" 
d="M913 0h217v1185h-281v-991zM362 1186h-281v-660q0 -248 85.5 -392t307.5 -144q242 0 378 143t136 295l-138 65q0 -138 -80 -223.5t-194 -85.5q-110 0 -162 76.5t-52 278.5v647zM614 1431q-74 0 -125.5 -24.5t-78.5 -66t-27 -90.5h135q0 26 9 45t30 30t57 11
q32 0 53 -10.5t31.5 -30t10.5 -45.5h135q0 49 -28 90.5t-79.5 66t-122.5 24.5z" />
    <glyph glyph-name="uni0218" unicode="&#x218;" horiz-adv-x="1299" 
d="M493 -319h99l126 255h-159zM636 -8q327 0 447.5 119t120.5 289q0 173 -106 243t-380 131q-177 39 -279.5 79t-102.5 143q0 79 78 126t215 47q131 0 210 -55t79 -246h285q0 236 -122 365t-449 129q-324 0 -447.5 -117t-123.5 -281q0 -171 108 -247t374 -136
q180 -38 280.5 -77.5t100.5 -142.5q0 -86 -77.5 -131t-212.5 -45q-136 0 -213 56t-77 252h-284q0 -250 120.5 -375.5t455.5 -125.5z" />
    <glyph glyph-name="uni0219" unicode="&#x219;" horiz-adv-x="1250" 
d="M638 -9q254 0 389.5 82.5t135.5 267.5q0 179 -129 248.5t-321 101.5q-154 30 -253 58.5t-99 115.5q0 69 57.5 108.5t176.5 39.5q126 0 205.5 -59.5t99.5 -166.5l247 88q-37 174 -178 247.5t-370 73.5q-235 0 -375 -82.5t-140 -248.5q0 -176 119 -253.5t312 -110.5
q161 -31 265.5 -59.5t104.5 -121.5q0 -67 -62.5 -106t-180.5 -39q-134 0 -217 57t-103 178l-247 -88q40 -184 188.5 -257.5t374.5 -73.5zM491 -320h99l126 255h-159z" />
    <glyph glyph-name="uni021A" unicode="&#x21a;" horiz-adv-x="1238" 
d="M475 0h284v1156h406v194h-1097v-194h407v-1156zM503 -320h99l126 255h-159z" />
    <glyph glyph-name="uni021B" unicode="&#x21b;" horiz-adv-x="1026" 
d="M646 -14q125 0 239 26v188q-70 -25 -144 -25q-77 0 -119.5 32t-42.5 134v650h376v194h-376v270h-281v-270h-274v-194h274v-713q0 -166 100.5 -229t247.5 -63zM501 -320h99l126 255h-159z" />
    <glyph glyph-name="uni022A" unicode="&#x22a;" horiz-adv-x="1369" 
d="M678 -10q334 0 475.5 169.5t141.5 515.5t-141.5 516.5t-475.5 170.5t-475.5 -170t-141.5 -517q0 -346 142 -515.5t475 -169.5zM678 184q-149 0 -241 90t-92 401q0 315 92 403.5t241 88.5q150 0 242 -88.5t92 -403.5q0 -311 -92 -401t-242 -90zM499 1414q35 0 60 25t25 60
q0 36 -25 61t-60 25q-36 0 -61 -25t-25 -61q0 -35 25 -60t61 -25zM859 1414q36 0 60.5 25t24.5 60q0 36 -24.5 61t-60.5 25q-35 0 -60 -25t-25 -61q0 -35 24.5 -60t60.5 -25zM359 1680h644v105h-644v-105z" />
    <glyph glyph-name="uni022B" unicode="&#x22b;" horiz-adv-x="1281" 
d="M628 -9q301 0 435 153.5t134 452.5t-134 450t-435 151t-435 -151t-134 -450t134 -452.5t435 -153.5zM628 183q-126 0 -207 83.5t-81 328.5q0 246 81 329t207 83t207 -83t81 -329q0 -245 -81 -328.5t-207 -83.5zM447 1250q35 0 60 25t25 60q0 36 -25 61t-60 25
q-36 0 -61 -25t-25 -61q0 -35 25 -60t61 -25zM807 1250q36 0 60.5 25t24.5 60q0 36 -24.5 61t-60.5 25q-35 0 -60 -25t-25 -61q0 -35 24.5 -60t60.5 -25zM306 1516h644v105h-644v-105z" />
    <glyph glyph-name="uni022C" unicode="&#x22c;" horiz-adv-x="1369" 
d="M678 -10q334 0 475.5 169.5t141.5 515.5t-141.5 516.5t-475.5 170.5t-475.5 -170t-141.5 -517q0 -346 142 -515.5t475 -169.5zM678 184q-149 0 -241 90t-92 401q0 315 92 403.5t241 88.5q150 0 242 -88.5t92 -403.5q0 -311 -92 -401t-242 -90zM807 1420q51 0 84.5 13.5
t54.5 35t33 45.5t17 47t4 38h-137q-1 -12 -8.5 -28t-24.5 -27.5t-42 -11.5q-30 0 -53.5 11.5t-46.5 27t-52 26.5t-70 11q-50 0 -85.5 -12.5t-57.5 -33.5t-33.5 -45t-16.5 -46.5t-6 -38.5h139q0 12 7.5 28.5t24 27.5t44.5 11t50.5 -12t46.5 -27.5t54.5 -27.5t73.5 -12z
M359 1700h644v105h-644v-105z" />
    <glyph glyph-name="uni022D" unicode="&#x22d;" horiz-adv-x="1281" 
d="M628 -9q301 0 435 153.5t134 452.5t-134 450t-435 151t-435 -151t-134 -450t134 -452.5t435 -153.5zM628 183q-126 0 -207 83.5t-81 328.5q0 246 81 329t207 83t207 -83t81 -329q0 -245 -81 -328.5t-207 -83.5zM755 1257q51 0 84.5 13.5t54.5 35t33 45.5t17 47t4 38h-137
q-1 -12 -8.5 -28t-24.5 -27.5t-42 -11.5q-30 0 -53.5 11.5t-46.5 27t-52 26.5t-70 11q-50 0 -85.5 -12.5t-57.5 -33.5t-33.5 -45t-16.5 -46.5t-6 -38.5h139q0 12 7.5 28.5t24 27.5t44.5 11t50.5 -12t46.5 -27.5t54.5 -27.5t73.5 -12zM306 1537h644v105h-644v-105z" />
    <glyph glyph-name="uni0230" unicode="&#x230;" horiz-adv-x="1369" 
d="M678 -10q334 0 475.5 169.5t141.5 515.5t-141.5 516.5t-475.5 170.5t-475.5 -170t-141.5 -517q0 -346 142 -515.5t475 -169.5zM678 184q-149 0 -241 90t-92 401q0 315 92 403.5t241 88.5q150 0 242 -88.5t92 -403.5q0 -311 -92 -401t-242 -90zM681 1405q36 0 61.5 26
t25.5 62t-25 61.5t-62 25.5q-36 0 -62 -25.5t-26 -61.5q0 -37 26 -62.5t62 -25.5zM359 1675h644v105h-644v-105z" />
    <glyph glyph-name="uni0231" unicode="&#x231;" horiz-adv-x="1281" 
d="M628 -9q301 0 435 153.5t134 452.5t-134 450t-435 151t-435 -151t-134 -450t134 -452.5t435 -153.5zM628 183q-126 0 -207 83.5t-81 328.5q0 246 81 329t207 83t207 -83t81 -329q0 -245 -81 -328.5t-207 -83.5zM628 1242q36 0 61.5 26t25.5 62t-25 61.5t-62 25.5
q-36 0 -62 -25.5t-26 -61.5q0 -37 26 -62.5t62 -25.5zM306 1512h644v105h-644v-105z" />
    <glyph glyph-name="uni0232" unicode="&#x232;" horiz-adv-x="1350" 
d="M528 0h284v514l500 836h-309l-331 -610h-2l-333 610h-309l500 -835v-515zM349 1445h644v105h-644v-105z" />
    <glyph glyph-name="uni0233" unicode="&#x233;" horiz-adv-x="1183" 
d="M369 0h429l337 1185h-294l-256 -998h-3l-259 998h-294zM100 -464q275 0 446 90.5t252 373.5l-260 1q-48 -170 -147.5 -221.5t-290.5 -51.5v-192zM259 1280h644v105h-644v-105z" />
    <glyph glyph-name="uni0237" unicode="&#x237;" horiz-adv-x="565" 
d="M-131 -460q271 0 412.5 99.5t141.5 381.5v1165h-281v-1176q0 -162 -71 -218t-202 -56v-196z" />
    <glyph glyph-name="uni0259" unicode="&#x259;" horiz-adv-x="1276" 
d="M647 1198v-183q138 0 217 -92q80 -93 80 -331q0 -246 -81 -332q-82 -87 -212 -87q-134 0 -208 81q-59 73 -69 251h597v171h-876q-5 -37 -5 -86q0 -287 124 -443q125 -157 437 -157q303 0 434 155q131 156 131 448q0 282 -130 443q-128 162 -439 162zM647 1015v183
q-167 0 -269 -37q-101 -36 -169 -114q-69 -77 -89 -195l252 -71q19 74 51 130q31 57 87 80q57 24 137 24z" />
    <glyph glyph-name="uni02BC" unicode="&#x2bc;" horiz-adv-x="330" 
d="M296 1559h-205v-237h15l-65 -246h186l69 245v238z" />
    <glyph glyph-name="circumflex" unicode="&#x2c6;" horiz-adv-x="817" 
d="M83 1207h166l138 135l137 -135h165l-213 195h-181z" />
    <glyph glyph-name="caron" unicode="&#x2c7;" horiz-adv-x="817" 
d="M295 1207h181l213 195h-165l-138 -134l-137 134h-166z" />
    <glyph glyph-name="uni02C9" unicode="&#x2c9;" horiz-adv-x="946" 
d="M128 1197h644v105h-644v-105z" />
    <glyph glyph-name="breve" unicode="&#x2d8;" horiz-adv-x="778" 
d="M364 1222q74 0 125.5 25t78 66t26.5 90h-134q0 -25 -9 -44.5t-30 -30.5t-57 -11q-32 0 -53 11t-31.5 30t-10.5 45h-135q0 -49 28.5 -90t79.5 -66t122 -25z" />
    <glyph glyph-name="dotaccent" unicode="&#x2d9;" horiz-adv-x="477" 
d="M231 1203q36 0 61.5 26t25.5 62t-25 61.5t-62 25.5q-36 0 -62 -25.5t-26 -61.5q0 -37 26 -62.5t62 -25.5z" />
    <glyph glyph-name="ring" unicode="&#x2da;" horiz-adv-x="429" 
d="M210 1214q63 0 105 43.5t42 106.5t-42 105.5t-105 42.5q-64 0 -106 -42.5t-42 -105.5q0 -64 42.5 -107t105.5 -43zM210 1316q-18 0 -32 14t-14 34t14 33t32 13q19 0 32 -13t13 -33t-13 -34t-32 -14z" />
    <glyph glyph-name="ogonek" unicode="&#x2db;" horiz-adv-x="786" 
d="M410 -352q43 0 82 4.5t68 11t38 9.5l-2 140q-11 -5 -35 -11.5t-53.5 -11t-56.5 -4.5q-39 0 -57.5 16t-18.5 43q0 23 10.5 53t25 58.5t25.5 43.5h-138q-15 -17 -34.5 -49.5t-34.5 -74t-15 -85.5q0 -56 28 -87t73 -43.5t95 -12.5z" />
    <glyph glyph-name="tilde" unicode="&#x2dc;" horiz-adv-x="718" 
d="M477 1258q51 0 84.5 13.5t54.5 35t33 45.5t17 47t4 38h-137q-1 -12 -8.5 -28t-24.5 -27.5t-42 -11.5q-30 0 -53.5 11.5t-46.5 27t-52 26.5t-70 11q-50 0 -85.5 -12.5t-57.5 -33.5t-33.5 -45t-16.5 -46.5t-6 -38.5h139q0 12 7.5 28.5t24 27.5t44.5 11t50.5 -12t46.5 -27.5
t54.5 -27.5t73.5 -12z" />
    <glyph glyph-name="hungarumlaut" unicode="&#x2dd;" horiz-adv-x="1026" 
d="M435 1226h129l199 173h-175zM273 1226h129l192 173h-169z" />
    <glyph glyph-name="gravecomb" unicode="&#x300;" 
d="M250 1122h133l-155 191h-194z" />
    <glyph glyph-name="acutecomb" unicode="&#x301;" 
d="M38 1122h132l216 191h-194z" />
    <glyph glyph-name="uni0302" unicode="&#x302;" 
d="M32 1117h166l138 135l137 -135h165l-213 195h-181z" />
    <glyph glyph-name="tildecomb" unicode="&#x303;" 
d="M477 1181q51 0 84.5 13.5t54.5 35t33 45.5t17 47t4 38h-137q-1 -12 -8.5 -28t-24.5 -27.5t-42 -11.5q-30 0 -53.5 11.5t-46.5 27t-52 26.5t-70 11q-50 0 -85.5 -12.5t-57.5 -33.5t-33.5 -45t-16.5 -46.5t-6 -38.5h139q0 12 7.5 28.5t24 27.5t44.5 11t50.5 -12t46.5 -27.5
t54.5 -27.5t73.5 -12z" />
    <glyph glyph-name="uni0304" unicode="&#x304;" 
d="M128 1197h644v105h-644v-105z" />
    <glyph glyph-name="uni0306" unicode="&#x306;" 
d="M269 1132q74 0 125.5 25t78 66t26.5 90h-134q0 -25 -9 -44.5t-30 -30.5t-57 -11q-32 0 -53 11t-31.5 30t-10.5 45h-135q0 -49 28.5 -90t79.5 -66t122 -25z" />
    <glyph glyph-name="uni0307" unicode="&#x307;" 
d="M129 1127q36 0 61.5 26t25.5 62t-25 61.5t-62 25.5q-36 0 -62 -25.5t-26 -61.5q0 -37 26 -62.5t62 -25.5z" />
    <glyph glyph-name="uni0308" unicode="&#x308;" 
d="M154 1136q35 0 60 25t25 60q0 36 -25 61t-60 25q-36 0 -61 -25t-25 -61q0 -35 25 -60t61 -25zM514 1136q36 0 60.5 25t24.5 60q0 36 -24.5 61t-60.5 25q-35 0 -60 -25t-25 -61q0 -35 24.5 -60t60.5 -25z" />
    <glyph glyph-name="hookabovecomb" unicode="&#x309;" 
d="M20 1474v-88q94 0 150.5 -2t82 -9.5t25.5 -23.5q0 -13 -23 -21.5t-63.5 -11.5t-93.5 -3v-128h102v58q35 0 72.5 6t69.5 19t52 35t20 54q0 47 -42 71.5t-129 34t-223 9.5z" />
    <glyph glyph-name="uni030A" unicode="&#x30a;" 
d="M180 1125q63 0 105 43.5t42 106.5t-42 105.5t-105 42.5q-64 0 -106 -42.5t-42 -105.5q0 -64 42.5 -107t105.5 -43zM180 1227q-18 0 -32 14t-14 34t14 33t32 13q19 0 32 -13t13 -33t-13 -34t-32 -14z" />
    <glyph glyph-name="uni030B" unicode="&#x30b;" 
d="M280 1142h129l199 173h-175zM118 1142h129l192 173h-169z" />
    <glyph glyph-name="uni030C" unicode="&#x30c;" 
d="M244 1117h181l213 195h-165l-138 -134l-137 134h-166z" />
    <glyph glyph-name="uni030F" unicode="&#x30f;" 
d="M507 1212h133l-155 191h-194zM231 1212h133l-155 191h-194z" />
    <glyph glyph-name="uni0311" unicode="&#x311;" 
d="M304 1338q-74 0 -125.5 -24.5t-78.5 -66t-27 -90.5h135q0 26 9 45t30 30t57 11q32 0 53 -10.5t31.5 -30t10.5 -45.5h135q0 49 -28 90.5t-79.5 66t-122.5 24.5z" />
    <glyph glyph-name="uni0312" unicode="&#x312;" 
d="M208 1159h172l70 292h-106z" />
    <glyph glyph-name="uni031B" unicode="&#x31b;" 
d="M20 1234v-94q126 0 212 28.5t131.5 86t45.5 146.5h-162q0 -60 -22 -97t-71 -53.5t-134 -16.5z" />
    <glyph glyph-name="dotbelowcomb" unicode="&#x323;" 
d="M231 -299q36 0 61.5 26t25.5 62t-25 61.5t-62 25.5q-36 0 -62 -25.5t-26 -61.5q0 -37 26 -62.5t62 -25.5z" />
    <glyph glyph-name="uni0324" unicode="&#x324;" 
d="M151 -252q35 0 60 25t25 60q0 36 -25 61t-60 25q-36 0 -61 -25t-25 -61q0 -35 25 -60t61 -25zM511 -252q36 0 60.5 25t24.5 60q0 36 -24.5 61t-60.5 25q-35 0 -60 -25t-25 -61q0 -35 24.5 -60t60.5 -25z" />
    <glyph glyph-name="uni0326" unicode="&#x326;" 
d="M42 -320h99l126 255h-159z" />
    <glyph glyph-name="uni0327" unicode="&#x327;" 
d="M363 -331q53 0 105 11t93 32.5t65 53t24 73.5q0 56 -39 83t-103 27q-50 0 -90.5 -14t-61.5 -34l-5 -50q15 10 37.5 17t43.5 7q25 0 38 -7.5t13 -25.5q0 -25 -29.5 -39t-89.5 -14q-38 0 -71.5 5.5t-58.5 11.5l-39 -118q40 -9 83.5 -14t84.5 -5zM351 -149l53 149h-113
l-42 -137z" />
    <glyph glyph-name="uni0328" unicode="&#x328;" 
d="M410 -352q43 0 82 4.5t68 11t38 9.5l-2 140q-11 -5 -35 -11.5t-53.5 -11t-56.5 -4.5q-39 0 -57.5 16t-18.5 43q0 23 10.5 53t25 58.5t25.5 43.5h-138q-15 -17 -34.5 -49.5t-34.5 -74t-15 -85.5q0 -56 28 -87t73 -43.5t95 -12.5z" />
    <glyph glyph-name="uni032E" unicode="&#x32e;" 
d="M273 -291q74 0 125.5 25t78 66t26.5 90h-134q0 -25 -9 -44.5t-30 -30.5t-57 -11q-32 0 -53 11t-31.5 30t-10.5 45h-135q0 -49 28.5 -90t79.5 -66t122 -25z" />
    <glyph glyph-name="uni0331" unicode="&#x331;" 
d="M11 -228h644v105h-644v-105z" />
    <glyph glyph-name="uni0335" unicode="&#x335;" 
d="M64 1357h731v186h-731v-186z" />
    <glyph glyph-name="uni0336" unicode="&#x336;" 
d="M128 1197h644v105h-644v-105z" />
    <glyph glyph-name="uni0337" unicode="&#x337;" 
d="M136 0h135l476 972h-136z" />
    <glyph glyph-name="uni0338" unicode="&#x338;" 
d="M17 0h239l567 1348h-240z" />
    <glyph glyph-name="uni1E08" unicode="&#x1e08;" horiz-adv-x="1313" 
d="M645 -8q336 0 454.5 162.5t118.5 388.5h-288q0 -200 -74 -278.5t-214 -78.5q-142 0 -224 88t-82 404t82 402.5t224 86.5q141 0 214.5 -76.5t73.5 -279.5h288q0 232 -118 391.5t-456 159.5q-336 0 -466 -169t-130 -515q0 -345 130 -515.5t467 -170.5zM659 -331
q53 0 105 11t93 32.5t65 53t24 73.5q0 56 -39 83t-103 27q-50 0 -90.5 -14t-61.5 -34l-5 -50q15 10 37.5 17t43.5 7q25 0 38 -7.5t13 -25.5q0 -25 -29.5 -39t-89.5 -14q-38 0 -71.5 5.5t-58.5 11.5l-39 -118q40 -9 83.5 -14t84.5 -5zM647 -149l53 149h-113l-42 -137z
M464 1392h132l216 191h-194z" />
    <glyph glyph-name="uni1E09" unicode="&#x1e09;" horiz-adv-x="1217" 
d="M611 -10q276 0 387.5 130.5t126.5 264.5l-251 89q-6 -128 -74.5 -209.5t-188.5 -81.5t-198.5 90.5t-78.5 317.5q0 239 77.5 324.5t199.5 85.5q121 0 189 -76t74 -218l251 86q-15 147 -126.5 275t-387.5 128q-307 0 -435 -153.5t-128 -451.5q0 -289 128 -445t435 -156z
M639 -331q53 0 105 11t93 32.5t65 53t24 73.5q0 56 -39 83t-103 27q-50 0 -90.5 -14t-61.5 -34l-5 -50q15 10 37.5 17t43.5 7q25 0 38 -7.5t13 -25.5q0 -25 -29.5 -39t-89.5 -14q-38 0 -71.5 5.5t-58.5 11.5l-39 -118q40 -9 83.5 -14t84.5 -5zM627 -149l53 149h-113
l-42 -137zM436 1227h132l216 191h-194z" />
    <glyph glyph-name="uni1E0C" unicode="&#x1e0c;" horiz-adv-x="1290" 
d="M81 0h642q270 0 381 148.5t111 527.5q0 378 -110.5 526t-381.5 148h-642v-1350zM365 194v962h281q145 0 215 -82.5t70 -397.5q0 -316 -70 -399t-215 -83h-281zM642 -265q36 0 61.5 26t25.5 62t-25 61.5t-62 25.5q-36 0 -62 -25.5t-26 -61.5q0 -37 26 -62.5t62 -25.5z" />
    <glyph glyph-name="uni1E0D" unicode="&#x1e0d;" horiz-adv-x="1271" 
d="M898 0h261v1570h-280v-1385zM505 -7q204 0 351 97.5t147 211.5l-124 131q0 -101 -82 -174.5t-196 -73.5q-121 0 -189.5 84t-68.5 325q0 240 68.5 324t189.5 84q114 0 196 -73t82 -173l124 129q0 114 -147 212.5t-351 98.5q-230 0 -338 -155t-108 -446q0 -290 108 -446
t338 -156zM652 -299q36 0 61.5 26t25.5 62t-25 61.5t-62 25.5q-36 0 -62 -25.5t-26 -61.5q0 -37 26 -62.5t62 -25.5z" />
    <glyph glyph-name="Dmacronbelow" unicode="&#x1e0e;" horiz-adv-x="1290" 
d="M81 0h642q270 0 381 148.5t111 527.5q0 378 -110.5 526t-381.5 148h-642v-1350zM365 194v962h281q145 0 215 -82.5t70 -397.5q0 -316 -70 -399t-215 -83h-281zM319 -228h644v105h-644v-105z" />
    <glyph glyph-name="dmacronbelow" unicode="&#x1e0f;" horiz-adv-x="1271" 
d="M898 0h261v1570h-280v-1385zM505 -7q204 0 351 97.5t147 211.5l-124 131q0 -101 -82 -174.5t-196 -73.5q-121 0 -189.5 84t-68.5 325q0 240 68.5 324t189.5 84q114 0 196 -73t82 -173l124 129q0 114 -147 212.5t-351 98.5q-230 0 -338 -155t-108 -446q0 -290 108 -446
t338 -156zM330 -228h644v105h-644v-105z" />
    <glyph glyph-name="uni1E14" unicode="&#x1e14;" horiz-adv-x="1125" 
d="M77 0h949v194h-665v400h621v185h-621v377h665v194h-949v-1350zM232 1445h644v105h-644v-105zM596 1606h133l-155 191h-194z" />
    <glyph glyph-name="uni1E15" unicode="&#x1e15;" horiz-adv-x="1276" 
d="M630 -10v182q-138 0 -217 93q-81 91 -81 329q0 246 82 333q81 88 212 88q133 0 208 -82q59 -72 69 -252h-598v-171h876q6 39 6 86q0 287 -124 445q-126 156 -438 156q-302 0 -433 -155q-132 -155 -132 -448q0 -281 130 -443q129 -161 440 -161zM630 172v-182
q167 0 268 36t170 114q69 77 88 196l-252 70q-19 -73 -50 -130q-32 -57 -88 -81q-56 -23 -136 -23zM304 1280h644v105h-644v-105zM668 1436h133l-155 191h-194z" />
    <glyph glyph-name="uni1E16" unicode="&#x1e16;" horiz-adv-x="1125" 
d="M77 0h949v194h-665v400h621v185h-621v377h665v194h-949v-1350zM232 1445h644v105h-644v-105zM381 1592h132l216 191h-194z" />
    <glyph glyph-name="uni1E17" unicode="&#x1e17;" horiz-adv-x="1276" 
d="M630 -10v182q-138 0 -217 93q-81 91 -81 329q0 246 82 333q81 88 212 88q133 0 208 -82q59 -72 69 -252h-598v-171h876q6 39 6 86q0 287 -124 445q-126 156 -438 156q-302 0 -433 -155q-132 -155 -132 -448q0 -281 130 -443q129 -161 440 -161zM630 172v-182
q167 0 268 36t170 114q69 77 88 196l-252 70q-19 -73 -50 -130q-32 -57 -88 -81q-56 -23 -136 -23zM304 1280h644v105h-644v-105zM453 1428h132l216 191h-194z" />
    <glyph glyph-name="uni1E1C" unicode="&#x1e1c;" horiz-adv-x="1125" 
d="M77 0h949v194h-665v400h621v185h-621v377h665v194h-949v-1350zM576 -331q53 0 105 11t93 32.5t65 53t24 73.5q0 56 -39 83t-103 27q-50 0 -90.5 -14t-61.5 -34l-5 -50q15 10 37.5 17t43.5 7q25 0 38 -7.5t13 -25.5q0 -25 -29.5 -39t-89.5 -14q-38 0 -71.5 5.5t-58.5 11.5
l-39 -118q40 -9 83.5 -14t84.5 -5zM564 -149l53 149h-113l-42 -137zM554 1397q74 0 125.5 25t78 66t26.5 90h-134q0 -25 -9 -44.5t-30 -30.5t-57 -11q-32 0 -53 11t-31.5 30t-10.5 45h-135q0 -49 28.5 -90t79.5 -66t122 -25z" />
    <glyph glyph-name="uni1E1D" unicode="&#x1e1d;" horiz-adv-x="1276" 
d="M630 -10v182q-138 0 -217 93q-81 91 -81 329q0 246 82 333q81 88 212 88q133 0 208 -82q59 -72 69 -252h-598v-171h876q6 39 6 86q0 287 -124 445q-126 156 -438 156q-302 0 -433 -155q-132 -155 -132 -448q0 -281 130 -443q129 -161 440 -161zM630 172v-182
q167 0 268 36t170 114q69 77 88 196l-252 70q-19 -73 -50 -130q-32 -57 -88 -81q-56 -23 -136 -23zM652 -331q53 0 105 11t93 32.5t65 53t24 73.5q0 56 -39 83t-103 27q-50 0 -90.5 -14t-61.5 -34l-5 -50q15 10 37.5 17t43.5 7q25 0 38 -7.5t13 -25.5q0 -25 -29.5 -39
t-89.5 -14q-38 0 -71.5 5.5t-58.5 11.5l-39 -118q40 -9 83.5 -14t84.5 -5zM640 -149l53 149h-113l-42 -137zM626 1232q74 0 125.5 25t78 66t26.5 90h-134q0 -25 -9 -44.5t-30 -30.5t-57 -11q-32 0 -53 11t-31.5 30t-10.5 45h-135q0 -49 28.5 -90t79.5 -66t122 -25z" />
    <glyph glyph-name="uni1E20" unicode="&#x1e20;" horiz-adv-x="1350" 
d="M630 -8q320 2 403 191l31 -183h161v681h-547v-169h256v-69q-8 -139 -72 -198t-205 -59q-152 0 -230.5 98.5t-78.5 385.5q0 321 78.5 409.5t228.5 88.5q145 0 211.5 -72t74.5 -246h284q-6 208 -129.5 360t-441.5 152q-337 0 -465 -167.5t-128 -515.5q0 -344 125 -515.5
t444 -171.5zM337 1445h644v105h-644v-105z" />
    <glyph glyph-name="uni1E21" unicode="&#x1e21;" horiz-adv-x="1284" 
d="M606 -467q173 0 287 46t191 160t77 313v1133h-207l-74 -237v-924q0 -193 -73 -252.5t-192 -59.5q-71 0 -127 22.5t-88.5 72t-39.5 129.5h-275q19 -222 166.5 -312.5t354.5 -90.5zM508 -7q204 0 350 96.5t146 212.5l-125 131q0 -101 -82 -174.5t-196 -73.5
q-121 0 -189.5 84t-68.5 325q0 240 68.5 324t189.5 84q114 0 196 -73t82 -173l124 123q0 114 -147 215.5t-351 101.5q-230 0 -338 -155t-108 -446q0 -290 109.5 -446t339.5 -156zM304 1280h644v105h-644v-105z" />
    <glyph glyph-name="uni1E24" unicode="&#x1e24;" horiz-adv-x="1317" 
d="M81 0h284v585h543v-585h284v1350h-284v-570h-543v570h-284v-1350zM654 -265q36 0 61.5 26t25.5 62t-25 61.5t-62 25.5q-36 0 -62 -25.5t-26 -61.5q0 -37 26 -62.5t62 -25.5z" />
    <glyph glyph-name="uni1E25" unicode="&#x1e25;" horiz-adv-x="1252" 
d="M93 0h281v1570h-281v-1570zM858 0h280v660q0 249 -89 392.5t-308 143.5q-227 0 -367.5 -142.5t-140.5 -295.5l136 -70q0 138 77 226t190 88q111 0 166.5 -76.5t55.5 -277.5v-648zM629 -299q36 0 61.5 26t25.5 62t-25 61.5t-62 25.5q-36 0 -62 -25.5t-26 -61.5
q0 -37 26 -62.5t62 -25.5z" />
    <glyph glyph-name="uni1E2A" unicode="&#x1e2a;" horiz-adv-x="1317" 
d="M81 0h284v585h543v-585h284v1350h-284v-570h-543v570h-284v-1350zM653 -291q74 0 125.5 25t78 66t26.5 90h-134q0 -25 -9 -44.5t-30 -30.5t-57 -11q-32 0 -53 11t-31.5 30t-10.5 45h-135q0 -49 28.5 -90t79.5 -66t122 -25z" />
    <glyph glyph-name="uni1E2B" unicode="&#x1e2b;" horiz-adv-x="1252" 
d="M93 0h281v1570h-281v-1570zM858 0h280v660q0 249 -89 392.5t-308 143.5q-227 0 -367.5 -142.5t-140.5 -295.5l136 -70q0 138 77 226t190 88q111 0 166.5 -76.5t55.5 -277.5v-648zM629 -291q74 0 125.5 25t78 66t26.5 90h-134q0 -25 -9 -44.5t-30 -30.5t-57 -11
q-32 0 -53 11t-31.5 30t-10.5 45h-135q0 -49 28.5 -90t79.5 -66t122 -25z" />
    <glyph glyph-name="uni1E2E" unicode="&#x1e2e;" horiz-adv-x="580" 
d="M134 0h283v1350h-283v-1350zM94 1414q35 0 60 25t25 60q0 36 -25 61t-60 25q-36 0 -61 -25t-25 -61q0 -35 25 -60t61 -25zM454 1414q36 0 60.5 25t24.5 60q0 36 -24.5 61t-60.5 25q-35 0 -60 -25t-25 -61q0 -35 24.5 -60t60.5 -25zM102 1627h132l216 191h-194z" />
    <glyph glyph-name="uni1E2F" unicode="&#x1e2f;" horiz-adv-x="514" 
d="M98 0h283v1186h-283v-1186zM59 1249q35 0 60 25t25 60q0 36 -25 61t-60 25q-36 0 -61 -25t-25 -61q0 -35 25 -60t61 -25zM419 1249q36 0 60.5 25t24.5 60q0 36 -24.5 61t-60.5 25q-35 0 -60 -25t-25 -61q0 -35 24.5 -60t60.5 -25zM67 1462h132l216 191h-194z" />
    <glyph glyph-name="uni1E36" unicode="&#x1e36;" horiz-adv-x="1012" 
d="M81 0h851v193h-567v1157h-284v-1350zM508 -265q36 0 61.5 26t25.5 62t-25 61.5t-62 25.5q-36 0 -62 -25.5t-26 -61.5q0 -37 26 -62.5t62 -25.5z" />
    <glyph glyph-name="uni1E37" unicode="&#x1e37;" horiz-adv-x="528" 
d="M119 0h281v1570h-281v-1570zM260 -299q36 0 61.5 26t25.5 62t-25 61.5t-62 25.5q-36 0 -62 -25.5t-26 -61.5q0 -37 26 -62.5t62 -25.5z" />
    <glyph glyph-name="Lmacronbelow" unicode="&#x1e3a;" horiz-adv-x="1012" 
d="M81 0h851v193h-567v1157h-284v-1350zM186 -228h644v105h-644v-105z" />
    <glyph glyph-name="lmacronbelow" unicode="&#x1e3b;" horiz-adv-x="528" 
d="M119 0h281v1570h-281v-1570zM-62 -228h644v105h-644v-105z" />
    <glyph glyph-name="uni1E42" unicode="&#x1e42;" horiz-adv-x="1728" 
d="M81 0h281v1154h4l309 -1102h334l310 1102h4v-1154h281v1350h-461l-299 -1095h-3l-299 1095h-461v-1350zM846 -265q36 0 61.5 26t25.5 62t-25 61.5t-62 25.5q-36 0 -62 -25.5t-26 -61.5q0 -37 26 -62.5t62 -25.5z" />
    <glyph glyph-name="uni1E43" unicode="&#x1e43;" horiz-adv-x="1858" 
d="M93 0h281v999l-63 186h-218v-1185zM780 0h280v706q0 203 -75.5 346t-294.5 143q-192 0 -329.5 -142t-137.5 -313l149 -64q0 159 62.5 242t162.5 83q97 0 140 -75t43 -242v-684zM1463 0h281v706q0 202 -74 345.5t-293 143.5q-192 0 -330 -144t-138 -311l150 -64
q0 159 62.5 242t161.5 83q98 0 139 -75t41 -242v-684zM953 -299q36 0 61.5 26t25.5 62t-25 61.5t-62 25.5q-36 0 -62 -25.5t-26 -61.5q0 -37 26 -62.5t62 -25.5z" />
    <glyph glyph-name="uni1E44" unicode="&#x1e44;" horiz-adv-x="1491" 
d="M81 0h283v1147h4l550 -1147h448v1350h-283l-2 -1133h-3l-544 1133h-453v-1350zM737 1405q36 0 61.5 26t25.5 62t-25 61.5t-62 25.5q-36 0 -62 -25.5t-26 -61.5q0 -37 26 -62.5t62 -25.5z" />
    <glyph glyph-name="uni1E45" unicode="&#x1e45;" horiz-adv-x="1248" 
d="M93 0h280v973l-62 212h-218v-1185zM853 0h281v651q0 249 -87.5 397t-306.5 148q-227 0 -369.5 -142.5t-142.5 -295.5l136 -70q0 138 79 226t193 88q110 0 163.5 -76.5t53.5 -277.5v-648zM617 1240q36 0 61.5 26t25.5 62t-25 61.5t-62 25.5q-36 0 -62 -25.5t-26 -61.5
q0 -37 26 -62.5t62 -25.5z" />
    <glyph glyph-name="uni1E46" unicode="&#x1e46;" horiz-adv-x="1491" 
d="M81 0h283v1147h4l550 -1147h448v1350h-283l-2 -1133h-3l-544 1133h-453v-1350zM737 -265q36 0 61.5 26t25.5 62t-25 61.5t-62 25.5q-36 0 -62 -25.5t-26 -61.5q0 -37 26 -62.5t62 -25.5z" />
    <glyph glyph-name="uni1E47" unicode="&#x1e47;" horiz-adv-x="1248" 
d="M93 0h280v973l-62 212h-218v-1185zM853 0h281v651q0 249 -87.5 397t-306.5 148q-227 0 -369.5 -142.5t-142.5 -295.5l136 -70q0 138 79 226t193 88q110 0 163.5 -76.5t53.5 -277.5v-648zM617 -299q36 0 61.5 26t25.5 62t-25 61.5t-62 25.5q-36 0 -62 -25.5t-26 -61.5
q0 -37 26 -62.5t62 -25.5z" />
    <glyph glyph-name="Nmacronbelow" unicode="&#x1e48;" horiz-adv-x="1491" 
d="M81 0h283v1147h4l550 -1147h448v1350h-283l-2 -1133h-3l-544 1133h-453v-1350zM415 -228h644v105h-644v-105z" />
    <glyph glyph-name="nmacronbelow" unicode="&#x1e49;" horiz-adv-x="1248" 
d="M93 0h280v973l-62 212h-218v-1185zM853 0h281v651q0 249 -87.5 397t-306.5 148q-227 0 -369.5 -142.5t-142.5 -295.5l136 -70q0 138 79 226t193 88q110 0 163.5 -76.5t53.5 -277.5v-648zM295 -228h644v105h-644v-105z" />
    <glyph glyph-name="uni1E4C" unicode="&#x1e4c;" horiz-adv-x="1369" 
d="M678 -10q334 0 475.5 169.5t141.5 515.5t-141.5 516.5t-475.5 170.5t-475.5 -170t-141.5 -517q0 -346 142 -515.5t475 -169.5zM678 184q-149 0 -241 90t-92 401q0 315 92 403.5t241 88.5q150 0 242 -88.5t92 -403.5q0 -311 -92 -401t-242 -90zM807 1420q51 0 84.5 13.5
t54.5 35t33 45.5t17 47t4 38h-137q-1 -12 -8.5 -28t-24.5 -27.5t-42 -11.5q-30 0 -53.5 11.5t-46.5 27t-52 26.5t-70 11q-50 0 -85.5 -12.5t-57.5 -33.5t-33.5 -45t-16.5 -46.5t-6 -38.5h139q0 12 7.5 28.5t24 27.5t44.5 11t50.5 -12t46.5 -27.5t54.5 -27.5t73.5 -12z
M506 1647h132l216 191h-194z" />
    <glyph glyph-name="uni1E4D" unicode="&#x1e4d;" horiz-adv-x="1281" 
d="M628 -9q301 0 435 153.5t134 452.5t-134 450t-435 151t-435 -151t-134 -450t134 -452.5t435 -153.5zM628 183q-126 0 -207 83.5t-81 328.5q0 246 81 329t207 83t207 -83t81 -329q0 -245 -81 -328.5t-207 -83.5zM755 1257q51 0 84.5 13.5t54.5 35t33 45.5t17 47t4 38h-137
q-1 -12 -8.5 -28t-24.5 -27.5t-42 -11.5q-30 0 -53.5 11.5t-46.5 27t-52 26.5t-70 11q-50 0 -85.5 -12.5t-57.5 -33.5t-33.5 -45t-16.5 -46.5t-6 -38.5h139q0 12 7.5 28.5t24 27.5t44.5 11t50.5 -12t46.5 -27.5t54.5 -27.5t73.5 -12zM454 1484h132l216 191h-194z" />
    <glyph glyph-name="uni1E4E" unicode="&#x1e4e;" horiz-adv-x="1369" 
d="M678 -10q334 0 475.5 169.5t141.5 515.5t-141.5 516.5t-475.5 170.5t-475.5 -170t-141.5 -517q0 -346 142 -515.5t475 -169.5zM678 184q-149 0 -241 90t-92 401q0 315 92 403.5t241 88.5q150 0 242 -88.5t92 -403.5q0 -311 -92 -401t-242 -90zM807 1420q51 0 84.5 13.5
t54.5 35t33 45.5t17 47t4 38h-137q-1 -12 -8.5 -28t-24.5 -27.5t-42 -11.5q-30 0 -53.5 11.5t-46.5 27t-52 26.5t-70 11q-50 0 -85.5 -12.5t-57.5 -33.5t-33.5 -45t-16.5 -46.5t-6 -38.5h139q0 12 7.5 28.5t24 27.5t44.5 11t50.5 -12t46.5 -27.5t54.5 -27.5t73.5 -12z
M499 1669q35 0 60 25t25 60q0 36 -25 61t-60 25q-36 0 -61 -25t-25 -61q0 -35 25 -60t61 -25zM859 1669q36 0 60.5 25t24.5 60q0 36 -24.5 61t-60.5 25q-35 0 -60 -25t-25 -61q0 -35 24.5 -60t60.5 -25z" />
    <glyph glyph-name="uni1E4F" unicode="&#x1e4f;" horiz-adv-x="1281" 
d="M628 -9q301 0 435 153.5t134 452.5t-134 450t-435 151t-435 -151t-134 -450t134 -452.5t435 -153.5zM628 183q-126 0 -207 83.5t-81 328.5q0 246 81 329t207 83t207 -83t81 -329q0 -245 -81 -328.5t-207 -83.5zM755 1257q51 0 84.5 13.5t54.5 35t33 45.5t17 47t4 38h-137
q-1 -12 -8.5 -28t-24.5 -27.5t-42 -11.5q-30 0 -53.5 11.5t-46.5 27t-52 26.5t-70 11q-50 0 -85.5 -12.5t-57.5 -33.5t-33.5 -45t-16.5 -46.5t-6 -38.5h139q0 12 7.5 28.5t24 27.5t44.5 11t50.5 -12t46.5 -27.5t54.5 -27.5t73.5 -12zM447 1505q35 0 60 25t25 60q0 36 -25 61
t-60 25q-36 0 -61 -25t-25 -61q0 -35 25 -60t61 -25zM807 1505q36 0 60.5 25t24.5 60q0 36 -24.5 61t-60.5 25q-35 0 -60 -25t-25 -61q0 -35 24.5 -60t60.5 -25z" />
    <glyph glyph-name="uni1E50" unicode="&#x1e50;" horiz-adv-x="1369" 
d="M678 -10q334 0 475.5 169.5t141.5 515.5t-141.5 516.5t-475.5 170.5t-475.5 -170t-141.5 -517q0 -346 142 -515.5t475 -169.5zM678 184q-149 0 -241 90t-92 401q0 315 92 403.5t241 88.5q150 0 242 -88.5t92 -403.5q0 -311 -92 -401t-242 -90zM359 1445h644v105h-644
v-105zM722 1606h133l-155 191h-194z" />
    <glyph glyph-name="uni1E51" unicode="&#x1e51;" horiz-adv-x="1281" 
d="M628 -9q301 0 435 153.5t134 452.5t-134 450t-435 151t-435 -151t-134 -450t134 -452.5t435 -153.5zM628 183q-126 0 -207 83.5t-81 328.5q0 246 81 329t207 83t207 -83t81 -329q0 -245 -81 -328.5t-207 -83.5zM306 1282h644v105h-644v-105zM670 1437h133l-155 191h-194z
" />
    <glyph glyph-name="uni1E52" unicode="&#x1e52;" horiz-adv-x="1369" 
d="M678 -10q334 0 475.5 169.5t141.5 515.5t-141.5 516.5t-475.5 170.5t-475.5 -170t-141.5 -517q0 -346 142 -515.5t475 -169.5zM678 184q-149 0 -241 90t-92 401q0 315 92 403.5t241 88.5q150 0 242 -88.5t92 -403.5q0 -311 -92 -401t-242 -90zM359 1445h644v105h-644
v-105zM506 1592h132l216 191h-194z" />
    <glyph glyph-name="uni1E53" unicode="&#x1e53;" horiz-adv-x="1281" 
d="M628 -9q301 0 435 153.5t134 452.5t-134 450t-435 151t-435 -151t-134 -450t134 -452.5t435 -153.5zM628 183q-126 0 -207 83.5t-81 328.5q0 246 81 329t207 83t207 -83t81 -329q0 -245 -81 -328.5t-207 -83.5zM306 1282h644v105h-644v-105zM454 1429h132l216 191h-194z
" />
    <glyph glyph-name="uni1E5A" unicode="&#x1e5a;" horiz-adv-x="1266" 
d="M81 0h285v557h432q219 0 294.5 112.5t75.5 277.5q0 167 -72.5 285t-286.5 118h-728v-1350zM879 0h308l-305 646l-282 -14zM366 733v423h351q94 0 130 -56.5t36 -155.5q0 -98 -35.5 -154.5t-130.5 -56.5h-351zM619 -265q36 0 61.5 26t25.5 62t-25 61.5t-62 25.5
q-36 0 -62 -25.5t-26 -61.5q0 -37 26 -62.5t62 -25.5z" />
    <glyph glyph-name="uni1E5B" unicode="&#x1e5b;" horiz-adv-x="1225" 
d="M830 615h281q0 300 -81.5 440.5t-303.5 140.5q-209 0 -335.5 -111.5t-126.5 -273.5l108 -68q0 100 67 179t182 79q101 0 155 -77t54 -309zM93 0h280v970l-62 215h-218v-1185zM627 -299q36 0 61.5 26t25.5 62t-25 61.5t-62 25.5q-36 0 -62 -25.5t-26 -61.5q0 -37 26 -62.5
t62 -25.5z" />
    <glyph glyph-name="Rmacronbelow" unicode="&#x1e5e;" horiz-adv-x="1266" 
d="M81 0h285v557h432q219 0 294.5 112.5t75.5 277.5q0 167 -72.5 285t-286.5 118h-728v-1350zM879 0h308l-305 646l-282 -14zM366 733v423h351q94 0 130 -56.5t36 -155.5q0 -98 -35.5 -154.5t-130.5 -56.5h-351zM297 -228h644v105h-644v-105z" />
    <glyph glyph-name="rmacronbelow" unicode="&#x1e5f;" horiz-adv-x="1225" 
d="M830 615h281q0 300 -81.5 440.5t-303.5 140.5q-209 0 -335.5 -111.5t-126.5 -273.5l108 -68q0 100 67 179t182 79q101 0 155 -77t54 -309zM93 0h280v970l-62 215h-218v-1185zM305 -228h644v105h-644v-105z" />
    <glyph glyph-name="uni1E60" unicode="&#x1e60;" horiz-adv-x="1299" 
d="M636 -8q327 0 447.5 119t120.5 289q0 173 -106 243t-380 131q-177 39 -279.5 79t-102.5 143q0 79 78 126t215 47q131 0 210 -55t79 -246h285q0 236 -122 365t-449 129q-324 0 -447.5 -117t-123.5 -281q0 -171 108 -247t374 -136q180 -38 280.5 -77.5t100.5 -142.5
q0 -86 -77.5 -131t-212.5 -45q-136 0 -213 56t-77 252h-284q0 -250 120.5 -375.5t455.5 -125.5zM641 1405q36 0 61.5 26t25.5 62t-25 61.5t-62 25.5q-36 0 -62 -25.5t-26 -61.5q0 -37 26 -62.5t62 -25.5z" />
    <glyph glyph-name="uni1E61" unicode="&#x1e61;" horiz-adv-x="1250" 
d="M638 -9q254 0 389.5 82.5t135.5 267.5q0 179 -129 248.5t-321 101.5q-154 30 -253 58.5t-99 115.5q0 69 57.5 108.5t176.5 39.5q126 0 205.5 -59.5t99.5 -166.5l247 88q-37 174 -178 247.5t-370 73.5q-235 0 -375 -82.5t-140 -248.5q0 -176 119 -253.5t312 -110.5
q161 -31 265.5 -59.5t104.5 -121.5q0 -67 -62.5 -106t-180.5 -39q-134 0 -217 57t-103 178l-247 -88q40 -184 188.5 -257.5t374.5 -73.5zM622 1241q36 0 61.5 26t25.5 62t-25 61.5t-62 25.5q-36 0 -62 -25.5t-26 -61.5q0 -37 26 -62.5t62 -25.5z" />
    <glyph glyph-name="uni1E62" unicode="&#x1e62;" horiz-adv-x="1299" 
d="M636 -8q327 0 447.5 119t120.5 289q0 173 -106 243t-380 131q-177 39 -279.5 79t-102.5 143q0 79 78 126t215 47q131 0 210 -55t79 -246h285q0 236 -122 365t-449 129q-324 0 -447.5 -117t-123.5 -281q0 -171 108 -247t374 -136q180 -38 280.5 -77.5t100.5 -142.5
q0 -86 -77.5 -131t-212.5 -45q-136 0 -213 56t-77 252h-284q0 -250 120.5 -375.5t455.5 -125.5zM641 -265q36 0 61.5 26t25.5 62t-25 61.5t-62 25.5q-36 0 -62 -25.5t-26 -61.5q0 -37 26 -62.5t62 -25.5z" />
    <glyph glyph-name="uni1E63" unicode="&#x1e63;" horiz-adv-x="1250" 
d="M638 -9q254 0 389.5 82.5t135.5 267.5q0 179 -129 248.5t-321 101.5q-154 30 -253 58.5t-99 115.5q0 69 57.5 108.5t176.5 39.5q126 0 205.5 -59.5t99.5 -166.5l247 88q-37 174 -178 247.5t-370 73.5q-235 0 -375 -82.5t-140 -248.5q0 -176 119 -253.5t312 -110.5
q161 -31 265.5 -59.5t104.5 -121.5q0 -67 -62.5 -106t-180.5 -39q-134 0 -217 57t-103 178l-247 -88q40 -184 188.5 -257.5t374.5 -73.5zM619 -299q36 0 61.5 26t25.5 62t-25 61.5t-62 25.5q-36 0 -62 -25.5t-26 -61.5q0 -37 26 -62.5t62 -25.5z" />
    <glyph glyph-name="uni1E64" unicode="&#x1e64;" horiz-adv-x="1299" 
d="M636 -8q327 0 447.5 119t120.5 289q0 173 -106 243t-380 131q-177 39 -279.5 79t-102.5 143q0 79 78 126t215 47q131 0 210 -55t79 -246h285q0 236 -122 365t-449 129q-324 0 -447.5 -117t-123.5 -281q0 -171 108 -247t374 -136q180 -38 280.5 -77.5t100.5 -142.5
q0 -86 -77.5 -131t-212.5 -45q-136 0 -213 56t-77 252h-284q0 -250 120.5 -375.5t455.5 -125.5zM466 1392h132l216 191h-194zM641 1639q36 0 61.5 26t25.5 62t-25 61.5t-62 25.5q-36 0 -62 -25.5t-26 -61.5q0 -37 26 -62.5t62 -25.5z" />
    <glyph glyph-name="uni1E65" unicode="&#x1e65;" horiz-adv-x="1250" 
d="M638 -9q254 0 389.5 82.5t135.5 267.5q0 179 -129 248.5t-321 101.5q-154 30 -253 58.5t-99 115.5q0 69 57.5 108.5t176.5 39.5q126 0 205.5 -59.5t99.5 -166.5l247 88q-37 174 -178 247.5t-370 73.5q-235 0 -375 -82.5t-140 -248.5q0 -176 119 -253.5t312 -110.5
q161 -31 265.5 -59.5t104.5 -121.5q0 -67 -62.5 -106t-180.5 -39q-134 0 -217 57t-103 178l-247 -88q40 -184 188.5 -257.5t374.5 -73.5zM448 1228h132l216 191h-194zM622 1474q36 0 61.5 26t25.5 62t-25 61.5t-62 25.5q-36 0 -62 -25.5t-26 -61.5q0 -37 26 -62.5t62 -25.5z
" />
    <glyph glyph-name="uni1E66" unicode="&#x1e66;" horiz-adv-x="1299" 
d="M636 -8q327 0 447.5 119t120.5 289q0 173 -106 243t-380 131q-177 39 -279.5 79t-102.5 143q0 79 78 126t215 47q131 0 210 -55t79 -246h285q0 236 -122 365t-449 129q-324 0 -447.5 -117t-123.5 -281q0 -171 108 -247t374 -136q180 -38 280.5 -77.5t100.5 -142.5
q0 -86 -77.5 -131t-212.5 -45q-136 0 -213 56t-77 252h-284q0 -250 120.5 -375.5t455.5 -125.5zM549 1395h181l213 195h-165l-138 -134l-137 134h-166zM641 1645q36 0 61.5 26t25.5 62t-25 61.5t-62 25.5q-36 0 -62 -25.5t-26 -61.5q0 -37 26 -62.5t62 -25.5z" />
    <glyph glyph-name="uni1E67" unicode="&#x1e67;" horiz-adv-x="1250" 
d="M638 -9q254 0 389.5 82.5t135.5 267.5q0 179 -129 248.5t-321 101.5q-154 30 -253 58.5t-99 115.5q0 69 57.5 108.5t176.5 39.5q126 0 205.5 -59.5t99.5 -166.5l247 88q-37 174 -178 247.5t-370 73.5q-235 0 -375 -82.5t-140 -248.5q0 -176 119 -253.5t312 -110.5
q161 -31 265.5 -59.5t104.5 -121.5q0 -67 -62.5 -106t-180.5 -39q-134 0 -217 57t-103 178l-247 -88q40 -184 188.5 -257.5t374.5 -73.5zM531 1231h181l213 195h-165l-138 -134l-137 134h-166zM622 1481q36 0 61.5 26t25.5 62t-25 61.5t-62 25.5q-36 0 -62 -25.5t-26 -61.5
q0 -37 26 -62.5t62 -25.5z" />
    <glyph glyph-name="uni1E68" unicode="&#x1e68;" horiz-adv-x="1299" 
d="M636 -8q327 0 447.5 119t120.5 289q0 173 -106 243t-380 131q-177 39 -279.5 79t-102.5 143q0 79 78 126t215 47q131 0 210 -55t79 -246h285q0 236 -122 365t-449 129q-324 0 -447.5 -117t-123.5 -281q0 -171 108 -247t374 -136q180 -38 280.5 -77.5t100.5 -142.5
q0 -86 -77.5 -131t-212.5 -45q-136 0 -213 56t-77 252h-284q0 -250 120.5 -375.5t455.5 -125.5zM641 -265q36 0 61.5 26t25.5 62t-25 61.5t-62 25.5q-36 0 -62 -25.5t-26 -61.5q0 -37 26 -62.5t62 -25.5zM641 1405q36 0 61.5 26t25.5 62t-25 61.5t-62 25.5q-36 0 -62 -25.5
t-26 -61.5q0 -37 26 -62.5t62 -25.5z" />
    <glyph glyph-name="uni1E69" unicode="&#x1e69;" horiz-adv-x="1250" 
d="M638 -9q254 0 389.5 82.5t135.5 267.5q0 179 -129 248.5t-321 101.5q-154 30 -253 58.5t-99 115.5q0 69 57.5 108.5t176.5 39.5q126 0 205.5 -59.5t99.5 -166.5l247 88q-37 174 -178 247.5t-370 73.5q-235 0 -375 -82.5t-140 -248.5q0 -176 119 -253.5t312 -110.5
q161 -31 265.5 -59.5t104.5 -121.5q0 -67 -62.5 -106t-180.5 -39q-134 0 -217 57t-103 178l-247 -88q40 -184 188.5 -257.5t374.5 -73.5zM619 -299q36 0 61.5 26t25.5 62t-25 61.5t-62 25.5q-36 0 -62 -25.5t-26 -61.5q0 -37 26 -62.5t62 -25.5zM622 1241q36 0 61.5 26
t25.5 62t-25 61.5t-62 25.5q-36 0 -62 -25.5t-26 -61.5q0 -37 26 -62.5t62 -25.5z" />
    <glyph glyph-name="uni1E6C" unicode="&#x1e6c;" horiz-adv-x="1238" 
d="M475 0h284v1156h406v194h-1097v-194h407v-1156zM617 -265q36 0 61.5 26t25.5 62t-25 61.5t-62 25.5q-36 0 -62 -25.5t-26 -61.5q0 -37 26 -62.5t62 -25.5z" />
    <glyph glyph-name="uni1E6D" unicode="&#x1e6d;" horiz-adv-x="1026" 
d="M646 -14q125 0 239 26v188q-70 -25 -144 -25q-77 0 -119.5 32t-42.5 134v650h376v194h-376v270h-281v-270h-274v-194h274v-713q0 -166 100.5 -229t247.5 -63zM630 -299q36 0 61.5 26t25.5 62t-25 61.5t-62 25.5q-36 0 -62 -25.5t-26 -61.5q0 -37 26 -62.5t62 -25.5z" />
    <glyph glyph-name="Tmacronbelow" unicode="&#x1e6e;" horiz-adv-x="1238" 
d="M475 0h284v1156h406v194h-1097v-194h407v-1156zM295 -228h644v105h-644v-105z" />
    <glyph glyph-name="tmacronbelow" unicode="&#x1e6f;" horiz-adv-x="1026" 
d="M646 -14q125 0 239 26v188q-70 -25 -144 -25q-77 0 -119.5 32t-42.5 134v650h376v194h-376v270h-281v-270h-274v-194h274v-713q0 -166 100.5 -229t247.5 -63zM308 -228h644v105h-644v-105z" />
    <glyph glyph-name="uni1E78" unicode="&#x1e78;" horiz-adv-x="1359" 
d="M667 -8q287 0 431.5 102.5t144.5 343.5v912h-284v-880q0 -153 -71 -218t-221 -65t-221 65.5t-71 217.5v880h-284v-912q0 -241 144.5 -343.5t431.5 -102.5zM799 1420q51 0 84.5 13.5t54.5 35t33 45.5t17 47t4 38h-137q-1 -12 -8.5 -28t-24.5 -27.5t-42 -11.5
q-30 0 -53.5 11.5t-46.5 27t-52 26.5t-70 11q-50 0 -85.5 -12.5t-57.5 -33.5t-33.5 -45t-16.5 -46.5t-6 -38.5h139q0 12 7.5 28.5t24 27.5t44.5 11t50.5 -12t46.5 -27.5t54.5 -27.5t73.5 -12zM498 1647h132l216 191h-194z" />
    <glyph glyph-name="uni1E79" unicode="&#x1e79;" horiz-adv-x="1250" 
d="M913 0h217v1185h-281v-991zM362 1186h-281v-660q0 -248 85.5 -392t307.5 -144q242 0 378 143t136 295l-138 65q0 -138 -80 -223.5t-194 -85.5q-110 0 -162 76.5t-52 278.5v647zM740 1256q51 0 84.5 13.5t54.5 35t33 45.5t17 47t4 38h-137q-1 -12 -8.5 -28t-24.5 -27.5
t-42 -11.5q-30 0 -53.5 11.5t-46.5 27t-52 26.5t-70 11q-50 0 -85.5 -12.5t-57.5 -33.5t-33.5 -45t-16.5 -46.5t-6 -38.5h139q0 12 7.5 28.5t24 27.5t44.5 11t50.5 -12t46.5 -27.5t54.5 -27.5t73.5 -12zM439 1482h132l216 191h-194z" />
    <glyph glyph-name="uni1E7A" unicode="&#x1e7a;" horiz-adv-x="1359" 
d="M667 -8q287 0 431.5 102.5t144.5 343.5v912h-284v-880q0 -153 -71 -218t-221 -65t-221 65.5t-71 217.5v880h-284v-912q0 -241 144.5 -343.5t431.5 -102.5zM351 1445h644v105h-644v-105zM491 1614q35 0 60 25t25 60q0 36 -25 61t-60 25q-36 0 -61 -25t-25 -61
q0 -35 25 -60t61 -25zM851 1614q36 0 60.5 25t24.5 60q0 36 -24.5 61t-60.5 25q-35 0 -60 -25t-25 -61q0 -35 24.5 -60t60.5 -25z" />
    <glyph glyph-name="uni1E7B" unicode="&#x1e7b;" horiz-adv-x="1250" 
d="M913 0h217v1185h-281v-991zM362 1186h-281v-660q0 -248 85.5 -392t307.5 -144q242 0 378 143t136 295l-138 65q0 -138 -80 -223.5t-194 -85.5q-110 0 -162 76.5t-52 278.5v647zM291 1280h644v105h-644v-105zM432 1449q35 0 60 25t25 60q0 36 -25 61t-60 25q-36 0 -61 -25
t-25 -61q0 -35 25 -60t61 -25zM792 1449q36 0 60.5 25t24.5 60q0 36 -24.5 61t-60.5 25q-35 0 -60 -25t-25 -61q0 -35 24.5 -60t60.5 -25z" />
    <glyph glyph-name="Wgrave" unicode="&#x1e80;" horiz-adv-x="1949" 
d="M302 0h434l224 1156h3l225 -1156h433l259 1350h-307l-183 -1142h-3l-238 1142h-374l-237 -1141h-3l-179 1141h-306zM1017 1400h133l-155 191h-194z" />
    <glyph glyph-name="wgrave" unicode="&#x1e81;" horiz-adv-x="1782" 
d="M312 0h379l195 904l197 -904h375l253 1185h-291l-157 -997h-3l-231 997h-283l-231 -999h-2l-164 999h-291zM927 1235h133l-155 191h-194z" />
    <glyph glyph-name="Wacute" unicode="&#x1e82;" horiz-adv-x="1949" 
d="M302 0h434l224 1156h3l225 -1156h433l259 1350h-307l-183 -1142h-3l-238 1142h-374l-237 -1141h-3l-179 1141h-306zM801 1392h132l216 191h-194z" />
    <glyph glyph-name="wacute" unicode="&#x1e83;" horiz-adv-x="1782" 
d="M312 0h379l195 904l197 -904h375l253 1185h-291l-157 -997h-3l-231 997h-283l-231 -999h-2l-164 999h-291zM711 1227h132l216 191h-194z" />
    <glyph glyph-name="Wdieresis" unicode="&#x1e84;" horiz-adv-x="1949" 
d="M302 0h434l224 1156h3l225 -1156h433l259 1350h-307l-183 -1142h-3l-238 1142h-374l-237 -1141h-3l-179 1141h-306zM794 1414q35 0 60 25t25 60q0 36 -25 61t-60 25q-36 0 -61 -25t-25 -61q0 -35 25 -60t61 -25zM1154 1414q36 0 60.5 25t24.5 60q0 36 -24.5 61t-60.5 25
q-35 0 -60 -25t-25 -61q0 -35 24.5 -60t60.5 -25z" />
    <glyph glyph-name="wdieresis" unicode="&#x1e85;" horiz-adv-x="1782" 
d="M312 0h379l195 904l197 -904h375l253 1185h-291l-157 -997h-3l-231 997h-283l-231 -999h-2l-164 999h-291zM704 1249q35 0 60 25t25 60q0 36 -25 61t-60 25q-36 0 -61 -25t-25 -61q0 -35 25 -60t61 -25zM1064 1249q36 0 60.5 25t24.5 60q0 36 -24.5 61t-60.5 25
q-35 0 -60 -25t-25 -61q0 -35 24.5 -60t60.5 -25z" />
    <glyph glyph-name="uni1E8E" unicode="&#x1e8e;" horiz-adv-x="1350" 
d="M528 0h284v514l500 836h-309l-331 -610h-2l-333 610h-309l500 -835v-515zM671 1405q36 0 61.5 26t25.5 62t-25 61.5t-62 25.5q-36 0 -62 -25.5t-26 -61.5q0 -37 26 -62.5t62 -25.5z" />
    <glyph glyph-name="uni1E8F" unicode="&#x1e8f;" horiz-adv-x="1183" 
d="M369 0h429l337 1185h-294l-256 -998h-3l-259 998h-294zM100 -464q275 0 446 90.5t252 373.5l-260 1q-48 -170 -147.5 -221.5t-290.5 -51.5v-192zM581 1240q36 0 61.5 26t25.5 62t-25 61.5t-62 25.5q-36 0 -62 -25.5t-26 -61.5q0 -37 26 -62.5t62 -25.5z" />
    <glyph glyph-name="uni1E92" unicode="&#x1e92;" horiz-adv-x="1148" 
d="M64 0h987v194h-673l650 962v194h-952v-193h639l-651 -956v-201zM574 -265q36 0 61.5 26t25.5 62t-25 61.5t-62 25.5q-36 0 -62 -25.5t-26 -61.5q0 -37 26 -62.5t62 -25.5z" />
    <glyph glyph-name="uni1E93" unicode="&#x1e93;" horiz-adv-x="1050" 
d="M71 0h892v193h-557v3l545 797v192h-876v-193h552v-1l-556 -798v-193zM522 -299q36 0 61.5 26t25.5 62t-25 61.5t-62 25.5q-36 0 -62 -25.5t-26 -61.5q0 -37 26 -62.5t62 -25.5z" />
    <glyph glyph-name="uni1E97" unicode="&#x1e97;" horiz-adv-x="1026" 
d="M646 -14q125 0 239 26v188q-70 -25 -144 -25q-77 0 -119.5 32t-42.5 134v650h376v194h-376v270h-281v-270h-274v-194h274v-713q0 -166 100.5 -229t247.5 -63zM262 1516q35 0 60 25t25 60q0 36 -25 61t-60 25q-36 0 -61 -25t-25 -61q0 -35 25 -60t61 -25zM622 1516
q36 0 60.5 25t24.5 60q0 36 -24.5 61t-60.5 25q-35 0 -60 -25t-25 -61q0 -35 24.5 -60t60.5 -25z" />
    <glyph glyph-name="uni1E9E" unicode="&#x1e9e;" horiz-adv-x="1241" 
d="M81 0h283v1150h407l-275 -331v-172q92 -7 159 -22.5t111.5 -43.5t67 -71.5t22.5 -106.5t-18 -106t-59.5 -67.5t-110 -34t-171.5 -6.5v-189q200 -3 327 20t197 73t97 125.5t27 176.5q0 84 -22 146.5t-69.5 106.5t-124.5 70t-187 39l349 409v184h-1010v-1350z" />
    <glyph glyph-name="uni1EA0" unicode="&#x1ea0;" horiz-adv-x="1404" 
d="M61 0h293l103 348h491l102 -348h293l-439 1352h-404zM504 536l197 649h3l197 -649h-397zM701 -265q36 0 61.5 26t25.5 62t-25 61.5t-62 25.5q-36 0 -62 -25.5t-26 -61.5q0 -37 26 -62.5t62 -25.5z" />
    <glyph glyph-name="uni1EA1" unicode="&#x1ea1;" horiz-adv-x="1270" 
d="M502 -12q81 0 148 14t118.5 37t85.5 49.5t49 53.5l24 -142h234v746q0 164 -62.5 262.5t-183.5 143.5t-297 45q-100 0 -189 -18.5t-161 -58t-121.5 -105t-68.5 -160.5l275 -75q15 84 52.5 133.5t92.5 71.5t121 22q81 0 139 -24.5t89.5 -78.5t31.5 -144v-54h-380
q-103 0 -184 -18t-136.5 -58.5t-84.5 -108.5t-29 -169q0 -106 30 -176.5t87.5 -111.5t137.5 -58.5t182 -17.5zM565 170q-46 0 -85 8.5t-68.5 29t-45.5 58t-16 96.5t16 96.5t45 57.5t68.5 27.5t85.5 7.5h310v-251q-19 -33 -62.5 -63t-106.5 -48.5t-141 -18.5zM632 -299
q36 0 61.5 26t25.5 62t-25 61.5t-62 25.5q-36 0 -62 -25.5t-26 -61.5q0 -37 26 -62.5t62 -25.5z" />
    <glyph glyph-name="uni1EA2" unicode="&#x1ea2;" horiz-adv-x="1404" 
d="M61 0h293l103 348h491l102 -348h293l-439 1352h-404zM504 536l197 649h3l197 -649h-397zM572 1692v-88q94 0 150.5 -2t82 -9.5t25.5 -23.5q0 -13 -23 -21.5t-63.5 -11.5t-93.5 -3v-128h102v58q35 0 72.5 6t69.5 19t52 35t20 54q0 47 -42 71.5t-129 34t-223 9.5z" />
    <glyph glyph-name="uni1EA3" unicode="&#x1ea3;" horiz-adv-x="1270" 
d="M502 -12q81 0 148 14t118.5 37t85.5 49.5t49 53.5l24 -142h234v746q0 164 -62.5 262.5t-183.5 143.5t-297 45q-100 0 -189 -18.5t-161 -58t-121.5 -105t-68.5 -160.5l275 -75q15 84 52.5 133.5t92.5 71.5t121 22q81 0 139 -24.5t89.5 -78.5t31.5 -144v-54h-380
q-103 0 -184 -18t-136.5 -58.5t-84.5 -108.5t-29 -169q0 -106 30 -176.5t87.5 -111.5t137.5 -58.5t182 -17.5zM565 170q-46 0 -85 8.5t-68.5 29t-45.5 58t-16 96.5t16 96.5t45 57.5t68.5 27.5t85.5 7.5h310v-251q-19 -33 -62.5 -63t-106.5 -48.5t-141 -18.5zM481 1528v-88
q94 0 150.5 -2t82 -9.5t25.5 -23.5q0 -13 -23 -21.5t-63.5 -11.5t-93.5 -3v-128h102v58q35 0 72.5 6t69.5 19t52 35t20 54q0 47 -42 71.5t-129 34t-223 9.5z" />
    <glyph glyph-name="uni1EA4" unicode="&#x1ea4;" horiz-adv-x="1404" 
d="M61 0h293l103 348h491l102 -348h293l-439 1352h-404zM504 536l197 649h3l197 -649h-397zM397 1411h166l138 135l137 -135h165l-213 195h-181zM882 1570h132l216 191h-194z" />
    <glyph glyph-name="uni1EA5" unicode="&#x1ea5;" horiz-adv-x="1270" 
d="M502 -12q81 0 148 14t118.5 37t85.5 49.5t49 53.5l24 -142h234v746q0 164 -62.5 262.5t-183.5 143.5t-297 45q-100 0 -189 -18.5t-161 -58t-121.5 -105t-68.5 -160.5l275 -75q15 84 52.5 133.5t92.5 71.5t121 22q81 0 139 -24.5t89.5 -78.5t31.5 -144v-54h-380
q-103 0 -184 -18t-136.5 -58.5t-84.5 -108.5t-29 -169q0 -106 30 -176.5t87.5 -111.5t137.5 -58.5t182 -17.5zM565 170q-46 0 -85 8.5t-68.5 29t-45.5 58t-16 96.5t16 96.5t45 57.5t68.5 27.5t85.5 7.5h310v-251q-19 -33 -62.5 -63t-106.5 -48.5t-141 -18.5zM312 1246h166
l138 135l137 -135h165l-213 195h-181zM798 1406h132l216 191h-194z" />
    <glyph glyph-name="uni1EA6" unicode="&#x1ea6;" horiz-adv-x="1404" 
d="M61 0h293l103 348h491l102 -348h293l-439 1352h-404zM504 536l197 649h3l197 -649h-397zM397 1408h166l138 135l137 -135h165l-213 195h-181zM956 1570h133l-155 191h-194z" />
    <glyph glyph-name="uni1EA7" unicode="&#x1ea7;" horiz-adv-x="1270" 
d="M502 -12q81 0 148 14t118.5 37t85.5 49.5t49 53.5l24 -142h234v746q0 164 -62.5 262.5t-183.5 143.5t-297 45q-100 0 -189 -18.5t-161 -58t-121.5 -105t-68.5 -160.5l275 -75q15 84 52.5 133.5t92.5 71.5t121 22q81 0 139 -24.5t89.5 -78.5t31.5 -144v-54h-380
q-103 0 -184 -18t-136.5 -58.5t-84.5 -108.5t-29 -169q0 -106 30 -176.5t87.5 -111.5t137.5 -58.5t182 -17.5zM565 170q-46 0 -85 8.5t-68.5 29t-45.5 58t-16 96.5t16 96.5t45 57.5t68.5 27.5t85.5 7.5h310v-251q-19 -33 -62.5 -63t-106.5 -48.5t-141 -18.5zM313 1244h166
l138 135l137 -135h165l-213 195h-181zM872 1406h133l-155 191h-194z" />
    <glyph glyph-name="uni1EA8" unicode="&#x1ea8;" horiz-adv-x="1404" 
d="M61 0h293l103 348h491l102 -348h293l-439 1352h-404zM504 536l197 649h3l197 -649h-397zM398 1401h166l138 135l137 -135h165l-213 195h-181zM565 1938v-88q94 0 150.5 -2t82 -9.5t25.5 -23.5q0 -13 -23 -21.5t-63.5 -11.5t-93.5 -3v-128h102v58q35 0 72.5 6t69.5 19
t52 35t20 54q0 47 -42 71.5t-129 34t-223 9.5z" />
    <glyph glyph-name="uni1EA9" unicode="&#x1ea9;" horiz-adv-x="1270" 
d="M502 -12q81 0 148 14t118.5 37t85.5 49.5t49 53.5l24 -142h234v746q0 164 -62.5 262.5t-183.5 143.5t-297 45q-100 0 -189 -18.5t-161 -58t-121.5 -105t-68.5 -160.5l275 -75q15 84 52.5 133.5t92.5 71.5t121 22q81 0 139 -24.5t89.5 -78.5t31.5 -144v-54h-380
q-103 0 -184 -18t-136.5 -58.5t-84.5 -108.5t-29 -169q0 -106 30 -176.5t87.5 -111.5t137.5 -58.5t182 -17.5zM565 170q-46 0 -85 8.5t-68.5 29t-45.5 58t-16 96.5t16 96.5t45 57.5t68.5 27.5t85.5 7.5h310v-251q-19 -33 -62.5 -63t-106.5 -48.5t-141 -18.5zM314 1237h166
l138 135l137 -135h165l-213 195h-181zM481 1774v-88q94 0 150.5 -2t82 -9.5t25.5 -23.5q0 -13 -23 -21.5t-63.5 -11.5t-93.5 -3v-128h102v58q35 0 72.5 6t69.5 19t52 35t20 54q0 47 -42 71.5t-129 34t-223 9.5z" />
    <glyph glyph-name="uni1EAA" unicode="&#x1eaa;" horiz-adv-x="1404" 
d="M61 0h293l103 348h491l102 -348h293l-439 1352h-404zM504 536l197 649h3l197 -649h-397zM398 1401h166l138 135l137 -135h165l-213 195h-181zM827 1667q51 0 84.5 13.5t54.5 35t33 45.5t17 47t4 38h-137q-1 -12 -8.5 -28t-24.5 -27.5t-42 -11.5q-30 0 -53.5 11.5
t-46.5 27t-52 26.5t-70 11q-50 0 -85.5 -12.5t-57.5 -33.5t-33.5 -45t-16.5 -46.5t-6 -38.5h139q0 12 7.5 28.5t24 27.5t44.5 11t50.5 -12t46.5 -27.5t54.5 -27.5t73.5 -12z" />
    <glyph glyph-name="uni1EAB" unicode="&#x1eab;" horiz-adv-x="1270" 
d="M502 -12q81 0 148 14t118.5 37t85.5 49.5t49 53.5l24 -142h234v746q0 164 -62.5 262.5t-183.5 143.5t-297 45q-100 0 -189 -18.5t-161 -58t-121.5 -105t-68.5 -160.5l275 -75q15 84 52.5 133.5t92.5 71.5t121 22q81 0 139 -24.5t89.5 -78.5t31.5 -144v-54h-380
q-103 0 -184 -18t-136.5 -58.5t-84.5 -108.5t-29 -169q0 -106 30 -176.5t87.5 -111.5t137.5 -58.5t182 -17.5zM565 170q-46 0 -85 8.5t-68.5 29t-45.5 58t-16 96.5t16 96.5t45 57.5t68.5 27.5t85.5 7.5h310v-251q-19 -33 -62.5 -63t-106.5 -48.5t-141 -18.5zM314 1237h166
l138 135l137 -135h165l-213 195h-181zM744 1503q51 0 84.5 13.5t54.5 35t33 45.5t17 47t4 38h-137q-1 -12 -8.5 -28t-24.5 -27.5t-42 -11.5q-30 0 -53.5 11.5t-46.5 27t-52 26.5t-70 11q-50 0 -85.5 -12.5t-57.5 -33.5t-33.5 -45t-16.5 -46.5t-6 -38.5h139q0 12 7.5 28.5
t24 27.5t44.5 11t50.5 -12t46.5 -27.5t54.5 -27.5t73.5 -12z" />
    <glyph glyph-name="uni1EAC" unicode="&#x1eac;" horiz-adv-x="1404" 
d="M61 0h293l103 348h491l102 -348h293l-439 1352h-404zM504 536l197 649h3l197 -649h-397zM701 -265q36 0 61.5 26t25.5 62t-25 61.5t-62 25.5q-36 0 -62 -25.5t-26 -61.5q0 -37 26 -62.5t62 -25.5zM398 1401h166l138 135l137 -135h165l-213 195h-181z" />
    <glyph glyph-name="uni1EAD" unicode="&#x1ead;" horiz-adv-x="1270" 
d="M502 -12q81 0 148 14t118.5 37t85.5 49.5t49 53.5l24 -142h234v746q0 164 -62.5 262.5t-183.5 143.5t-297 45q-100 0 -189 -18.5t-161 -58t-121.5 -105t-68.5 -160.5l275 -75q15 84 52.5 133.5t92.5 71.5t121 22q81 0 139 -24.5t89.5 -78.5t31.5 -144v-54h-380
q-103 0 -184 -18t-136.5 -58.5t-84.5 -108.5t-29 -169q0 -106 30 -176.5t87.5 -111.5t137.5 -58.5t182 -17.5zM565 170q-46 0 -85 8.5t-68.5 29t-45.5 58t-16 96.5t16 96.5t45 57.5t68.5 27.5t85.5 7.5h310v-251q-19 -33 -62.5 -63t-106.5 -48.5t-141 -18.5zM632 -299
q36 0 61.5 26t25.5 62t-25 61.5t-62 25.5q-36 0 -62 -25.5t-26 -61.5q0 -37 26 -62.5t62 -25.5zM314 1237h166l138 135l137 -135h165l-213 195h-181z" />
    <glyph glyph-name="uni1EAE" unicode="&#x1eae;" horiz-adv-x="1404" 
d="M61 0h293l103 348h491l102 -348h293l-439 1352h-404zM504 536l197 649h3l197 -649h-397zM701 1397q74 0 125.5 25t78 66t26.5 90h-134q0 -25 -9 -44.5t-30 -30.5t-57 -11q-32 0 -53 11t-31.5 30t-10.5 45h-135q0 -49 28.5 -90t79.5 -66t122 -25zM526 1620h132l216 191
h-194z" />
    <glyph glyph-name="uni1EAF" unicode="&#x1eaf;" horiz-adv-x="1270" 
d="M502 -12q81 0 148 14t118.5 37t85.5 49.5t49 53.5l24 -142h234v746q0 164 -62.5 262.5t-183.5 143.5t-297 45q-100 0 -189 -18.5t-161 -58t-121.5 -105t-68.5 -160.5l275 -75q15 84 52.5 133.5t92.5 71.5t121 22q81 0 139 -24.5t89.5 -78.5t31.5 -144v-54h-380
q-103 0 -184 -18t-136.5 -58.5t-84.5 -108.5t-29 -169q0 -106 30 -176.5t87.5 -111.5t137.5 -58.5t182 -17.5zM565 170q-46 0 -85 8.5t-68.5 29t-45.5 58t-16 96.5t16 96.5t45 57.5t68.5 27.5t85.5 7.5h310v-251q-19 -33 -62.5 -63t-106.5 -48.5t-141 -18.5zM617 1233
q74 0 125.5 25t78 66t26.5 90h-134q0 -25 -9 -44.5t-30 -30.5t-57 -11q-32 0 -53 11t-31.5 30t-10.5 45h-135q0 -49 28.5 -90t79.5 -66t122 -25zM442 1457h132l216 191h-194z" />
    <glyph glyph-name="uni1EB0" unicode="&#x1eb0;" horiz-adv-x="1404" 
d="M61 0h293l103 348h491l102 -348h293l-439 1352h-404zM504 536l197 649h3l197 -649h-397zM701 1397q74 0 125.5 25t78 66t26.5 90h-134q0 -25 -9 -44.5t-30 -30.5t-57 -11q-32 0 -53 11t-31.5 30t-10.5 45h-135q0 -49 28.5 -90t79.5 -66t122 -25zM742 1628h133l-155 191
h-194z" />
    <glyph glyph-name="uni1EB1" unicode="&#x1eb1;" horiz-adv-x="1270" 
d="M502 -12q81 0 148 14t118.5 37t85.5 49.5t49 53.5l24 -142h234v746q0 164 -62.5 262.5t-183.5 143.5t-297 45q-100 0 -189 -18.5t-161 -58t-121.5 -105t-68.5 -160.5l275 -75q15 84 52.5 133.5t92.5 71.5t121 22q81 0 139 -24.5t89.5 -78.5t31.5 -144v-54h-380
q-103 0 -184 -18t-136.5 -58.5t-84.5 -108.5t-29 -169q0 -106 30 -176.5t87.5 -111.5t137.5 -58.5t182 -17.5zM565 170q-46 0 -85 8.5t-68.5 29t-45.5 58t-16 96.5t16 96.5t45 57.5t68.5 27.5t85.5 7.5h310v-251q-19 -33 -62.5 -63t-106.5 -48.5t-141 -18.5zM617 1233
q74 0 125.5 25t78 66t26.5 90h-134q0 -25 -9 -44.5t-30 -30.5t-57 -11q-32 0 -53 11t-31.5 30t-10.5 45h-135q0 -49 28.5 -90t79.5 -66t122 -25zM658 1465h133l-155 191h-194z" />
    <glyph glyph-name="uni1EB2" unicode="&#x1eb2;" horiz-adv-x="1404" 
d="M61 0h293l103 348h491l102 -348h293l-439 1352h-404zM504 536l197 649h3l197 -649h-397zM701 1397q74 0 125.5 25t78 66t26.5 90h-134q0 -25 -9 -44.5t-30 -30.5t-57 -11q-32 0 -53 11t-31.5 30t-10.5 45h-135q0 -49 28.5 -90t79.5 -66t122 -25zM565 1920v-88
q94 0 150.5 -2t82 -9.5t25.5 -23.5q0 -13 -23 -21.5t-63.5 -11.5t-93.5 -3v-128h102v58q35 0 72.5 6t69.5 19t52 35t20 54q0 47 -42 71.5t-129 34t-223 9.5z" />
    <glyph glyph-name="uni1EB3" unicode="&#x1eb3;" horiz-adv-x="1270" 
d="M502 -12q81 0 148 14t118.5 37t85.5 49.5t49 53.5l24 -142h234v746q0 164 -62.5 262.5t-183.5 143.5t-297 45q-100 0 -189 -18.5t-161 -58t-121.5 -105t-68.5 -160.5l275 -75q15 84 52.5 133.5t92.5 71.5t121 22q81 0 139 -24.5t89.5 -78.5t31.5 -144v-54h-380
q-103 0 -184 -18t-136.5 -58.5t-84.5 -108.5t-29 -169q0 -106 30 -176.5t87.5 -111.5t137.5 -58.5t182 -17.5zM565 170q-46 0 -85 8.5t-68.5 29t-45.5 58t-16 96.5t16 96.5t45 57.5t68.5 27.5t85.5 7.5h310v-251q-19 -33 -62.5 -63t-106.5 -48.5t-141 -18.5zM617 1233
q74 0 125.5 25t78 66t26.5 90h-134q0 -25 -9 -44.5t-30 -30.5t-57 -11q-32 0 -53 11t-31.5 30t-10.5 45h-135q0 -49 28.5 -90t79.5 -66t122 -25zM481 1756v-88q94 0 150.5 -2t82 -9.5t25.5 -23.5q0 -13 -23 -21.5t-63.5 -11.5t-93.5 -3v-128h102v58q35 0 72.5 6t69.5 19
t52 35t20 54q0 47 -42 71.5t-129 34t-223 9.5z" />
    <glyph glyph-name="uni1EB4" unicode="&#x1eb4;" horiz-adv-x="1404" 
d="M61 0h293l103 348h491l102 -348h293l-439 1352h-404zM504 536l197 649h3l197 -649h-397zM701 1397q74 0 125.5 25t78 66t26.5 90h-134q0 -25 -9 -44.5t-30 -30.5t-57 -11q-32 0 -53 11t-31.5 30t-10.5 45h-135q0 -49 28.5 -90t79.5 -66t122 -25zM827 1649q51 0 84.5 13.5
t54.5 35t33 45.5t17 47t4 38h-137q-1 -12 -8.5 -28t-24.5 -27.5t-42 -11.5q-30 0 -53.5 11.5t-46.5 27t-52 26.5t-70 11q-50 0 -85.5 -12.5t-57.5 -33.5t-33.5 -45t-16.5 -46.5t-6 -38.5h139q0 12 7.5 28.5t24 27.5t44.5 11t50.5 -12t46.5 -27.5t54.5 -27.5t73.5 -12z" />
    <glyph glyph-name="uni1EB5" unicode="&#x1eb5;" horiz-adv-x="1270" 
d="M502 -12q81 0 148 14t118.5 37t85.5 49.5t49 53.5l24 -142h234v746q0 164 -62.5 262.5t-183.5 143.5t-297 45q-100 0 -189 -18.5t-161 -58t-121.5 -105t-68.5 -160.5l275 -75q15 84 52.5 133.5t92.5 71.5t121 22q81 0 139 -24.5t89.5 -78.5t31.5 -144v-54h-380
q-103 0 -184 -18t-136.5 -58.5t-84.5 -108.5t-29 -169q0 -106 30 -176.5t87.5 -111.5t137.5 -58.5t182 -17.5zM565 170q-46 0 -85 8.5t-68.5 29t-45.5 58t-16 96.5t16 96.5t45 57.5t68.5 27.5t85.5 7.5h310v-251q-19 -33 -62.5 -63t-106.5 -48.5t-141 -18.5zM617 1233
q74 0 125.5 25t78 66t26.5 90h-134q0 -25 -9 -44.5t-30 -30.5t-57 -11q-32 0 -53 11t-31.5 30t-10.5 45h-135q0 -49 28.5 -90t79.5 -66t122 -25zM744 1485q51 0 84.5 13.5t54.5 35t33 45.5t17 47t4 38h-137q-1 -12 -8.5 -28t-24.5 -27.5t-42 -11.5q-30 0 -53.5 11.5
t-46.5 27t-52 26.5t-70 11q-50 0 -85.5 -12.5t-57.5 -33.5t-33.5 -45t-16.5 -46.5t-6 -38.5h139q0 12 7.5 28.5t24 27.5t44.5 11t50.5 -12t46.5 -27.5t54.5 -27.5t73.5 -12z" />
    <glyph glyph-name="uni1EB6" unicode="&#x1eb6;" horiz-adv-x="1404" 
d="M61 0h293l103 348h491l102 -348h293l-439 1352h-404zM504 536l197 649h3l197 -649h-397zM701 -265q36 0 61.5 26t25.5 62t-25 61.5t-62 25.5q-36 0 -62 -25.5t-26 -61.5q0 -37 26 -62.5t62 -25.5zM701 1397q74 0 125.5 25t78 66t26.5 90h-134q0 -25 -9 -44.5t-30 -30.5
t-57 -11q-32 0 -53 11t-31.5 30t-10.5 45h-135q0 -49 28.5 -90t79.5 -66t122 -25z" />
    <glyph glyph-name="uni1EB7" unicode="&#x1eb7;" horiz-adv-x="1270" 
d="M502 -12q81 0 148 14t118.5 37t85.5 49.5t49 53.5l24 -142h234v746q0 164 -62.5 262.5t-183.5 143.5t-297 45q-100 0 -189 -18.5t-161 -58t-121.5 -105t-68.5 -160.5l275 -75q15 84 52.5 133.5t92.5 71.5t121 22q81 0 139 -24.5t89.5 -78.5t31.5 -144v-54h-380
q-103 0 -184 -18t-136.5 -58.5t-84.5 -108.5t-29 -169q0 -106 30 -176.5t87.5 -111.5t137.5 -58.5t182 -17.5zM565 170q-46 0 -85 8.5t-68.5 29t-45.5 58t-16 96.5t16 96.5t45 57.5t68.5 27.5t85.5 7.5h310v-251q-19 -33 -62.5 -63t-106.5 -48.5t-141 -18.5zM632 -299
q36 0 61.5 26t25.5 62t-25 61.5t-62 25.5q-36 0 -62 -25.5t-26 -61.5q0 -37 26 -62.5t62 -25.5zM617 1233q74 0 125.5 25t78 66t26.5 90h-134q0 -25 -9 -44.5t-30 -30.5t-57 -11q-32 0 -53 11t-31.5 30t-10.5 45h-135q0 -49 28.5 -90t79.5 -66t122 -25z" />
    <glyph glyph-name="uni1EB8" unicode="&#x1eb8;" horiz-adv-x="1125" 
d="M77 0h949v194h-665v400h621v185h-621v377h665v194h-949v-1350zM555 -265q36 0 61.5 26t25.5 62t-25 61.5t-62 25.5q-36 0 -62 -25.5t-26 -61.5q0 -37 26 -62.5t62 -25.5z" />
    <glyph glyph-name="uni1EB9" unicode="&#x1eb9;" horiz-adv-x="1276" 
d="M630 -10v182q-138 0 -217 93q-81 91 -81 329q0 246 82 333q81 88 212 88q133 0 208 -82q59 -72 69 -252h-598v-171h876q6 39 6 86q0 287 -124 445q-126 156 -438 156q-302 0 -433 -155q-132 -155 -132 -448q0 -281 130 -443q129 -161 440 -161zM630 172v-182
q167 0 268 36t170 114q69 77 88 196l-252 70q-19 -73 -50 -130q-32 -57 -88 -81q-56 -23 -136 -23zM631 -299q36 0 61.5 26t25.5 62t-25 61.5t-62 25.5q-36 0 -62 -25.5t-26 -61.5q0 -37 26 -62.5t62 -25.5z" />
    <glyph glyph-name="uni1EBA" unicode="&#x1eba;" horiz-adv-x="1125" 
d="M77 0h949v194h-665v400h621v185h-621v377h665v194h-949v-1350zM425 1692v-88q94 0 150.5 -2t82 -9.5t25.5 -23.5q0 -13 -23 -21.5t-63.5 -11.5t-93.5 -3v-128h102v58q35 0 72.5 6t69.5 19t52 35t20 54q0 47 -42 71.5t-129 34t-223 9.5z" />
    <glyph glyph-name="uni1EBB" unicode="&#x1ebb;" horiz-adv-x="1276" 
d="M630 -10v182q-138 0 -217 93q-81 91 -81 329q0 246 82 333q81 88 212 88q133 0 208 -82q59 -72 69 -252h-598v-171h876q6 39 6 86q0 287 -124 445q-126 156 -438 156q-302 0 -433 -155q-132 -155 -132 -448q0 -281 130 -443q129 -161 440 -161zM630 172v-182
q167 0 268 36t170 114q69 77 88 196l-252 70q-19 -73 -50 -130q-32 -57 -88 -81q-56 -23 -136 -23zM491 1527v-88q94 0 150.5 -2t82 -9.5t25.5 -23.5q0 -13 -23 -21.5t-63.5 -11.5t-93.5 -3v-128h102v58q35 0 72.5 6t69.5 19t52 35t20 54q0 47 -42 71.5t-129 34t-223 9.5z
" />
    <glyph glyph-name="uni1EBC" unicode="&#x1ebc;" horiz-adv-x="1125" 
d="M77 0h949v194h-665v400h621v185h-621v377h665v194h-949v-1350zM681 1420q51 0 84.5 13.5t54.5 35t33 45.5t17 47t4 38h-137q-1 -12 -8.5 -28t-24.5 -27.5t-42 -11.5q-30 0 -53.5 11.5t-46.5 27t-52 26.5t-70 11q-50 0 -85.5 -12.5t-57.5 -33.5t-33.5 -45t-16.5 -46.5
t-6 -38.5h139q0 12 7.5 28.5t24 27.5t44.5 11t50.5 -12t46.5 -27.5t54.5 -27.5t73.5 -12z" />
    <glyph glyph-name="uni1EBD" unicode="&#x1ebd;" horiz-adv-x="1276" 
d="M630 -10v182q-138 0 -217 93q-81 91 -81 329q0 246 82 333q81 88 212 88q133 0 208 -82q59 -72 69 -252h-598v-171h876q6 39 6 86q0 287 -124 445q-126 156 -438 156q-302 0 -433 -155q-132 -155 -132 -448q0 -281 130 -443q129 -161 440 -161zM630 172v-182
q167 0 268 36t170 114q69 77 88 196l-252 70q-19 -73 -50 -130q-32 -57 -88 -81q-56 -23 -136 -23zM752 1256q51 0 84.5 13.5t54.5 35t33 45.5t17 47t4 38h-137q-1 -12 -8.5 -28t-24.5 -27.5t-42 -11.5q-30 0 -53.5 11.5t-46.5 27t-52 26.5t-70 11q-50 0 -85.5 -12.5
t-57.5 -33.5t-33.5 -45t-16.5 -46.5t-6 -38.5h139q0 12 7.5 28.5t24 27.5t44.5 11t50.5 -12t46.5 -27.5t54.5 -27.5t73.5 -12z" />
    <glyph glyph-name="uni1EBE" unicode="&#x1ebe;" horiz-adv-x="1125" 
d="M77 0h949v194h-665v400h621v185h-621v377h665v194h-949v-1350zM250 1411h166l138 135l137 -135h165l-213 195h-181zM736 1570h132l216 191h-194z" />
    <glyph glyph-name="uni1EBF" unicode="&#x1ebf;" horiz-adv-x="1276" 
d="M630 -10v182q-138 0 -217 93q-81 91 -81 329q0 246 82 333q81 88 212 88q133 0 208 -82q59 -72 69 -252h-598v-171h876q6 39 6 86q0 287 -124 445q-126 156 -438 156q-302 0 -433 -155q-132 -155 -132 -448q0 -281 130 -443q129 -161 440 -161zM630 172v-182
q167 0 268 36t170 114q69 77 88 196l-252 70q-19 -73 -50 -130q-32 -57 -88 -81q-56 -23 -136 -23zM322 1246h166l138 135l137 -135h165l-213 195h-181zM808 1406h132l216 191h-194z" />
    <glyph glyph-name="uni1EC0" unicode="&#x1ec0;" horiz-adv-x="1125" 
d="M77 0h949v194h-665v400h621v185h-621v377h665v194h-949v-1350zM250 1408h166l138 135l137 -135h165l-213 195h-181zM810 1570h133l-155 191h-194z" />
    <glyph glyph-name="uni1EC1" unicode="&#x1ec1;" horiz-adv-x="1276" 
d="M630 -10v182q-138 0 -217 93q-81 91 -81 329q0 246 82 333q81 88 212 88q133 0 208 -82q59 -72 69 -252h-598v-171h876q6 39 6 86q0 287 -124 445q-126 156 -438 156q-302 0 -433 -155q-132 -155 -132 -448q0 -281 130 -443q129 -161 440 -161zM630 172v-182
q167 0 268 36t170 114q69 77 88 196l-252 70q-19 -73 -50 -130q-32 -57 -88 -81q-56 -23 -136 -23zM322 1243h166l138 135l137 -135h165l-213 195h-181zM882 1406h133l-155 191h-194z" />
    <glyph glyph-name="uni1EC2" unicode="&#x1ec2;" horiz-adv-x="1125" 
d="M77 0h949v194h-665v400h621v185h-621v377h665v194h-949v-1350zM251 1401h166l138 135l137 -135h165l-213 195h-181zM419 1938v-88q94 0 150.5 -2t82 -9.5t25.5 -23.5q0 -13 -23 -21.5t-63.5 -11.5t-93.5 -3v-128h102v58q35 0 72.5 6t69.5 19t52 35t20 54q0 47 -42 71.5
t-129 34t-223 9.5z" />
    <glyph glyph-name="uni1EC3" unicode="&#x1ec3;" horiz-adv-x="1276" 
d="M630 -10v182q-138 0 -217 93q-81 91 -81 329q0 246 82 333q81 88 212 88q133 0 208 -82q59 -72 69 -252h-598v-171h876q6 39 6 86q0 287 -124 445q-126 156 -438 156q-302 0 -433 -155q-132 -155 -132 -448q0 -281 130 -443q129 -161 440 -161zM630 172v-182
q167 0 268 36t170 114q69 77 88 196l-252 70q-19 -73 -50 -130q-32 -57 -88 -81q-56 -23 -136 -23zM323 1236h166l138 135l137 -135h165l-213 195h-181zM491 1773v-88q94 0 150.5 -2t82 -9.5t25.5 -23.5q0 -13 -23 -21.5t-63.5 -11.5t-93.5 -3v-128h102v58q35 0 72.5 6
t69.5 19t52 35t20 54q0 47 -42 71.5t-129 34t-223 9.5z" />
    <glyph glyph-name="uni1EC4" unicode="&#x1ec4;" horiz-adv-x="1125" 
d="M77 0h949v194h-665v400h621v185h-621v377h665v194h-949v-1350zM251 1401h166l138 135l137 -135h165l-213 195h-181zM681 1667q51 0 84.5 13.5t54.5 35t33 45.5t17 47t4 38h-137q-1 -12 -8.5 -28t-24.5 -27.5t-42 -11.5q-30 0 -53.5 11.5t-46.5 27t-52 26.5t-70 11
q-50 0 -85.5 -12.5t-57.5 -33.5t-33.5 -45t-16.5 -46.5t-6 -38.5h139q0 12 7.5 28.5t24 27.5t44.5 11t50.5 -12t46.5 -27.5t54.5 -27.5t73.5 -12z" />
    <glyph glyph-name="uni1EC5" unicode="&#x1ec5;" horiz-adv-x="1276" 
d="M630 -10v182q-138 0 -217 93q-81 91 -81 329q0 246 82 333q81 88 212 88q133 0 208 -82q59 -72 69 -252h-598v-171h876q6 39 6 86q0 287 -124 445q-126 156 -438 156q-302 0 -433 -155q-132 -155 -132 -448q0 -281 130 -443q129 -161 440 -161zM630 172v-182
q167 0 268 36t170 114q69 77 88 196l-252 70q-19 -73 -50 -130q-32 -57 -88 -81q-56 -23 -136 -23zM323 1236h166l138 135l137 -135h165l-213 195h-181zM752 1502q51 0 84.5 13.5t54.5 35t33 45.5t17 47t4 38h-137q-1 -12 -8.5 -28t-24.5 -27.5t-42 -11.5q-30 0 -53.5 11.5
t-46.5 27t-52 26.5t-70 11q-50 0 -85.5 -12.5t-57.5 -33.5t-33.5 -45t-16.5 -46.5t-6 -38.5h139q0 12 7.5 28.5t24 27.5t44.5 11t50.5 -12t46.5 -27.5t54.5 -27.5t73.5 -12z" />
    <glyph glyph-name="uni1EC6" unicode="&#x1ec6;" horiz-adv-x="1125" 
d="M77 0h949v194h-665v400h621v185h-621v377h665v194h-949v-1350zM555 -265q36 0 61.5 26t25.5 62t-25 61.5t-62 25.5q-36 0 -62 -25.5t-26 -61.5q0 -37 26 -62.5t62 -25.5zM251 1401h166l138 135l137 -135h165l-213 195h-181z" />
    <glyph glyph-name="uni1EC7" unicode="&#x1ec7;" horiz-adv-x="1276" 
d="M630 -10v182q-138 0 -217 93q-81 91 -81 329q0 246 82 333q81 88 212 88q133 0 208 -82q59 -72 69 -252h-598v-171h876q6 39 6 86q0 287 -124 445q-126 156 -438 156q-302 0 -433 -155q-132 -155 -132 -448q0 -281 130 -443q129 -161 440 -161zM630 172v-182
q167 0 268 36t170 114q69 77 88 196l-252 70q-19 -73 -50 -130q-32 -57 -88 -81q-56 -23 -136 -23zM631 -299q36 0 61.5 26t25.5 62t-25 61.5t-62 25.5q-36 0 -62 -25.5t-26 -61.5q0 -37 26 -62.5t62 -25.5zM323 1236h166l138 135l137 -135h165l-213 195h-181z" />
    <glyph glyph-name="uni1EC8" unicode="&#x1ec8;" horiz-adv-x="580" 
d="M134 0h283v1350h-283v-1350zM146 1692v-88q94 0 150.5 -2t82 -9.5t25.5 -23.5q0 -13 -23 -21.5t-63.5 -11.5t-93.5 -3v-128h102v58q35 0 72.5 6t69.5 19t52 35t20 54q0 47 -42 71.5t-129 34t-223 9.5z" />
    <glyph glyph-name="uni1EC9" unicode="&#x1ec9;" horiz-adv-x="514" 
d="M98 0h283v1186h-283v-1186zM105 1527v-88q94 0 150.5 -2t82 -9.5t25.5 -23.5q0 -13 -23 -21.5t-63.5 -11.5t-93.5 -3v-128h102v58q35 0 72.5 6t69.5 19t52 35t20 54q0 47 -42 71.5t-129 34t-223 9.5z" />
    <glyph glyph-name="uni1ECA" unicode="&#x1eca;" horiz-adv-x="580" 
d="M134 0h283v1350h-283v-1350zM277 -265q36 0 61.5 26t25.5 62t-25 61.5t-62 25.5q-36 0 -62 -25.5t-26 -61.5q0 -37 26 -62.5t62 -25.5z" />
    <glyph glyph-name="uni1ECB" unicode="&#x1ecb;" horiz-adv-x="544" 
d="M119 0h282v1186h-282v-1186zM119 1529v-212h282v212h-282zM273 -299q36 0 61.5 26t25.5 62t-25 61.5t-62 25.5q-36 0 -62 -25.5t-26 -61.5q0 -37 26 -62.5t62 -25.5z" />
    <glyph glyph-name="uni1ECC" unicode="&#x1ecc;" horiz-adv-x="1369" 
d="M678 -10q334 0 475.5 169.5t141.5 515.5t-141.5 516.5t-475.5 170.5t-475.5 -170t-141.5 -517q0 -346 142 -515.5t475 -169.5zM678 184q-149 0 -241 90t-92 401q0 315 92 403.5t241 88.5q150 0 242 -88.5t92 -403.5q0 -311 -92 -401t-242 -90zM681 -265q36 0 61.5 26
t25.5 62t-25 61.5t-62 25.5q-36 0 -62 -25.5t-26 -61.5q0 -37 26 -62.5t62 -25.5z" />
    <glyph glyph-name="uni1ECD" unicode="&#x1ecd;" horiz-adv-x="1281" 
d="M628 -9q301 0 435 153.5t134 452.5t-134 450t-435 151t-435 -151t-134 -450t134 -452.5t435 -153.5zM628 183q-126 0 -207 83.5t-81 328.5q0 246 81 329t207 83t207 -83t81 -329q0 -245 -81 -328.5t-207 -83.5zM634 -299q36 0 61.5 26t25.5 62t-25 61.5t-62 25.5
q-36 0 -62 -25.5t-26 -61.5q0 -37 26 -62.5t62 -25.5z" />
    <glyph glyph-name="uni1ECE" unicode="&#x1ece;" horiz-adv-x="1369" 
d="M678 -10q334 0 475.5 169.5t141.5 515.5t-141.5 516.5t-475.5 170.5t-475.5 -170t-141.5 -517q0 -346 142 -515.5t475 -169.5zM678 184q-149 0 -241 90t-92 401q0 315 92 403.5t241 88.5q150 0 242 -88.5t92 -403.5q0 -311 -92 -401t-242 -90zM551 1692v-88
q94 0 150.5 -2t82 -9.5t25.5 -23.5q0 -13 -23 -21.5t-63.5 -11.5t-93.5 -3v-128h102v58q35 0 72.5 6t69.5 19t52 35t20 54q0 47 -42 71.5t-129 34t-223 9.5z" />
    <glyph glyph-name="uni1ECF" unicode="&#x1ecf;" horiz-adv-x="1281" 
d="M628 -9q301 0 435 153.5t134 452.5t-134 450t-435 151t-435 -151t-134 -450t134 -452.5t435 -153.5zM628 183q-126 0 -207 83.5t-81 328.5q0 246 81 329t207 83t207 -83t81 -329q0 -245 -81 -328.5t-207 -83.5zM493 1528v-88q94 0 150.5 -2t82 -9.5t25.5 -23.5
q0 -13 -23 -21.5t-63.5 -11.5t-93.5 -3v-128h102v58q35 0 72.5 6t69.5 19t52 35t20 54q0 47 -42 71.5t-129 34t-223 9.5z" />
    <glyph glyph-name="uni1ED0" unicode="&#x1ed0;" horiz-adv-x="1369" 
d="M678 -10q334 0 475.5 169.5t141.5 515.5t-141.5 516.5t-475.5 170.5t-475.5 -170t-141.5 -517q0 -346 142 -515.5t475 -169.5zM678 184q-149 0 -241 90t-92 401q0 315 92 403.5t241 88.5q150 0 242 -88.5t92 -403.5q0 -311 -92 -401t-242 -90zM376 1411h166l138 135
l137 -135h165l-213 195h-181zM862 1570h132l216 191h-194z" />
    <glyph glyph-name="uni1ED1" unicode="&#x1ed1;" horiz-adv-x="1281" 
d="M628 -9q301 0 435 153.5t134 452.5t-134 450t-435 151t-435 -151t-134 -450t134 -452.5t435 -153.5zM628 183q-126 0 -207 83.5t-81 328.5q0 246 81 329t207 83t207 -83t81 -329q0 -245 -81 -328.5t-207 -83.5zM323 1247h166l138 135l137 -135h165l-213 195h-181z
M810 1407h132l216 191h-194z" />
    <glyph glyph-name="uni1ED2" unicode="&#x1ed2;" horiz-adv-x="1369" 
d="M678 -10q334 0 475.5 169.5t141.5 515.5t-141.5 516.5t-475.5 170.5t-475.5 -170t-141.5 -517q0 -346 142 -515.5t475 -169.5zM678 184q-149 0 -241 90t-92 401q0 315 92 403.5t241 88.5q150 0 242 -88.5t92 -403.5q0 -311 -92 -401t-242 -90zM377 1408h166l138 135
l137 -135h165l-213 195h-181zM935 1570h133l-155 191h-194z" />
    <glyph glyph-name="uni1ED3" unicode="&#x1ed3;" horiz-adv-x="1281" 
d="M628 -9q301 0 435 153.5t134 452.5t-134 450t-435 151t-435 -151t-134 -450t134 -452.5t435 -153.5zM628 183q-126 0 -207 83.5t-81 328.5q0 246 81 329t207 83t207 -83t81 -329q0 -245 -81 -328.5t-207 -83.5zM324 1245h166l138 135l137 -135h165l-213 195h-181z
M884 1407h133l-155 191h-194z" />
    <glyph glyph-name="uni1ED4" unicode="&#x1ed4;" horiz-adv-x="1369" 
d="M678 -10q334 0 475.5 169.5t141.5 515.5t-141.5 516.5t-475.5 170.5t-475.5 -170t-141.5 -517q0 -346 142 -515.5t475 -169.5zM678 184q-149 0 -241 90t-92 401q0 315 92 403.5t241 88.5q150 0 242 -88.5t92 -403.5q0 -311 -92 -401t-242 -90zM378 1401h166l138 135
l137 -135h165l-213 195h-181zM545 1938v-88q94 0 150.5 -2t82 -9.5t25.5 -23.5q0 -13 -23 -21.5t-63.5 -11.5t-93.5 -3v-128h102v58q35 0 72.5 6t69.5 19t52 35t20 54q0 47 -42 71.5t-129 34t-223 9.5z" />
    <glyph glyph-name="uni1ED5" unicode="&#x1ed5;" horiz-adv-x="1281" 
d="M628 -9q301 0 435 153.5t134 452.5t-134 450t-435 151t-435 -151t-134 -450t134 -452.5t435 -153.5zM628 183q-126 0 -207 83.5t-81 328.5q0 246 81 329t207 83t207 -83t81 -329q0 -245 -81 -328.5t-207 -83.5zM325 1238h166l138 135l137 -135h165l-213 195h-181z
M493 1775v-88q94 0 150.5 -2t82 -9.5t25.5 -23.5q0 -13 -23 -21.5t-63.5 -11.5t-93.5 -3v-128h102v58q35 0 72.5 6t69.5 19t52 35t20 54q0 47 -42 71.5t-129 34t-223 9.5z" />
    <glyph glyph-name="uni1ED6" unicode="&#x1ed6;" horiz-adv-x="1369" 
d="M678 -10q334 0 475.5 169.5t141.5 515.5t-141.5 516.5t-475.5 170.5t-475.5 -170t-141.5 -517q0 -346 142 -515.5t475 -169.5zM678 184q-149 0 -241 90t-92 401q0 315 92 403.5t241 88.5q150 0 242 -88.5t92 -403.5q0 -311 -92 -401t-242 -90zM378 1401h166l138 135
l137 -135h165l-213 195h-181zM807 1667q51 0 84.5 13.5t54.5 35t33 45.5t17 47t4 38h-137q-1 -12 -8.5 -28t-24.5 -27.5t-42 -11.5q-30 0 -53.5 11.5t-46.5 27t-52 26.5t-70 11q-50 0 -85.5 -12.5t-57.5 -33.5t-33.5 -45t-16.5 -46.5t-6 -38.5h139q0 12 7.5 28.5t24 27.5
t44.5 11t50.5 -12t46.5 -27.5t54.5 -27.5t73.5 -12z" />
    <glyph glyph-name="uni1ED7" unicode="&#x1ed7;" horiz-adv-x="1281" 
d="M628 -9q301 0 435 153.5t134 452.5t-134 450t-435 151t-435 -151t-134 -450t134 -452.5t435 -153.5zM628 183q-126 0 -207 83.5t-81 328.5q0 246 81 329t207 83t207 -83t81 -329q0 -245 -81 -328.5t-207 -83.5zM325 1238h166l138 135l137 -135h165l-213 195h-181z
M755 1503q51 0 84.5 13.5t54.5 35t33 45.5t17 47t4 38h-137q-1 -12 -8.5 -28t-24.5 -27.5t-42 -11.5q-30 0 -53.5 11.5t-46.5 27t-52 26.5t-70 11q-50 0 -85.5 -12.5t-57.5 -33.5t-33.5 -45t-16.5 -46.5t-6 -38.5h139q0 12 7.5 28.5t24 27.5t44.5 11t50.5 -12t46.5 -27.5
t54.5 -27.5t73.5 -12z" />
    <glyph glyph-name="uni1ED8" unicode="&#x1ed8;" horiz-adv-x="1369" 
d="M678 -10q334 0 475.5 169.5t141.5 515.5t-141.5 516.5t-475.5 170.5t-475.5 -170t-141.5 -517q0 -346 142 -515.5t475 -169.5zM678 184q-149 0 -241 90t-92 401q0 315 92 403.5t241 88.5q150 0 242 -88.5t92 -403.5q0 -311 -92 -401t-242 -90zM681 -265q36 0 61.5 26
t25.5 62t-25 61.5t-62 25.5q-36 0 -62 -25.5t-26 -61.5q0 -37 26 -62.5t62 -25.5zM378 1401h166l138 135l137 -135h165l-213 195h-181z" />
    <glyph glyph-name="uni1ED9" unicode="&#x1ed9;" horiz-adv-x="1281" 
d="M628 -9q301 0 435 153.5t134 452.5t-134 450t-435 151t-435 -151t-134 -450t134 -452.5t435 -153.5zM628 183q-126 0 -207 83.5t-81 328.5q0 246 81 329t207 83t207 -83t81 -329q0 -245 -81 -328.5t-207 -83.5zM634 -299q36 0 61.5 26t25.5 62t-25 61.5t-62 25.5
q-36 0 -62 -25.5t-26 -61.5q0 -37 26 -62.5t62 -25.5zM325 1238h166l138 135l137 -135h165l-213 195h-181z" />
    <glyph glyph-name="uni1EDA" unicode="&#x1eda;" horiz-adv-x="1369" 
d="M678 -10q334 0 475.5 169.5t141.5 515.5t-141.5 516.5t-475.5 170.5t-475.5 -170t-141.5 -517q0 -346 142 -515.5t475 -169.5zM678 184q-149 0 -241 90t-92 401q0 315 92 403.5t241 88.5q150 0 242 -88.5t92 -403.5q0 -311 -92 -401t-242 -90zM1098 1212v-94
q126 0 212 28.5t131.5 86t45.5 146.5h-162q0 -60 -22 -97t-71 -53.5t-134 -16.5zM506 1392h132l216 191h-194z" />
    <glyph glyph-name="uni1EDB" unicode="&#x1edb;" horiz-adv-x="1281" 
d="M628 -9q301 0 435 153.5t134 452.5t-134 450t-435 151t-435 -151t-134 -450t134 -452.5t435 -153.5zM628 183q-126 0 -207 83.5t-81 328.5q0 246 81 329t207 83t207 -83t81 -329q0 -245 -81 -328.5t-207 -83.5zM1029 1064v-94q126 0 212 28.5t131.5 86t45.5 146.5h-162
q0 -60 -22 -97t-71 -53.5t-134 -16.5zM454 1229h132l216 191h-194z" />
    <glyph glyph-name="uni1EDC" unicode="&#x1edc;" horiz-adv-x="1369" 
d="M678 -10q334 0 475.5 169.5t141.5 515.5t-141.5 516.5t-475.5 170.5t-475.5 -170t-141.5 -517q0 -346 142 -515.5t475 -169.5zM678 184q-149 0 -241 90t-92 401q0 315 92 403.5t241 88.5q150 0 242 -88.5t92 -403.5q0 -311 -92 -401t-242 -90zM1098 1212v-94
q126 0 212 28.5t131.5 86t45.5 146.5h-162q0 -60 -22 -97t-71 -53.5t-134 -16.5zM722 1405h133l-155 191h-194z" />
    <glyph glyph-name="uni1EDD" unicode="&#x1edd;" horiz-adv-x="1281" 
d="M628 -9q301 0 435 153.5t134 452.5t-134 450t-435 151t-435 -151t-134 -450t134 -452.5t435 -153.5zM628 183q-126 0 -207 83.5t-81 328.5q0 246 81 329t207 83t207 -83t81 -329q0 -245 -81 -328.5t-207 -83.5zM1029 1064v-94q126 0 212 28.5t131.5 86t45.5 146.5h-162
q0 -60 -22 -97t-71 -53.5t-134 -16.5zM670 1237h133l-155 191h-194z" />
    <glyph glyph-name="uni1EDE" unicode="&#x1ede;" horiz-adv-x="1369" 
d="M678 -10q334 0 475.5 169.5t141.5 515.5t-141.5 516.5t-475.5 170.5t-475.5 -170t-141.5 -517q0 -346 142 -515.5t475 -169.5zM678 184q-149 0 -241 90t-92 401q0 315 92 403.5t241 88.5q150 0 242 -88.5t92 -403.5q0 -311 -92 -401t-242 -90zM1098 1212v-94
q126 0 212 28.5t131.5 86t45.5 146.5h-162q0 -60 -22 -97t-71 -53.5t-134 -16.5zM551 1692v-88q94 0 150.5 -2t82 -9.5t25.5 -23.5q0 -13 -23 -21.5t-63.5 -11.5t-93.5 -3v-128h102v58q35 0 72.5 6t69.5 19t52 35t20 54q0 47 -42 71.5t-129 34t-223 9.5z" />
    <glyph glyph-name="uni1EDF" unicode="&#x1edf;" horiz-adv-x="1281" 
d="M628 -9q301 0 435 153.5t134 452.5t-134 450t-435 151t-435 -151t-134 -450t134 -452.5t435 -153.5zM628 183q-126 0 -207 83.5t-81 328.5q0 246 81 329t207 83t207 -83t81 -329q0 -245 -81 -328.5t-207 -83.5zM1029 1064v-94q126 0 212 28.5t131.5 86t45.5 146.5h-162
q0 -60 -22 -97t-71 -53.5t-134 -16.5zM493 1528v-88q94 0 150.5 -2t82 -9.5t25.5 -23.5q0 -13 -23 -21.5t-63.5 -11.5t-93.5 -3v-128h102v58q35 0 72.5 6t69.5 19t52 35t20 54q0 47 -42 71.5t-129 34t-223 9.5z" />
    <glyph glyph-name="uni1EE0" unicode="&#x1ee0;" horiz-adv-x="1369" 
d="M678 -10q334 0 475.5 169.5t141.5 515.5t-141.5 516.5t-475.5 170.5t-475.5 -170t-141.5 -517q0 -346 142 -515.5t475 -169.5zM678 184q-149 0 -241 90t-92 401q0 315 92 403.5t241 88.5q150 0 242 -88.5t92 -403.5q0 -311 -92 -401t-242 -90zM1098 1212v-94
q126 0 212 28.5t131.5 86t45.5 146.5h-162q0 -60 -22 -97t-71 -53.5t-134 -16.5zM807 1420q51 0 84.5 13.5t54.5 35t33 45.5t17 47t4 38h-137q-1 -12 -8.5 -28t-24.5 -27.5t-42 -11.5q-30 0 -53.5 11.5t-46.5 27t-52 26.5t-70 11q-50 0 -85.5 -12.5t-57.5 -33.5t-33.5 -45
t-16.5 -46.5t-6 -38.5h139q0 12 7.5 28.5t24 27.5t44.5 11t50.5 -12t46.5 -27.5t54.5 -27.5t73.5 -12z" />
    <glyph glyph-name="uni1EE1" unicode="&#x1ee1;" horiz-adv-x="1281" 
d="M628 -9q301 0 435 153.5t134 452.5t-134 450t-435 151t-435 -151t-134 -450t134 -452.5t435 -153.5zM628 183q-126 0 -207 83.5t-81 328.5q0 246 81 329t207 83t207 -83t81 -329q0 -245 -81 -328.5t-207 -83.5zM1029 1064v-94q126 0 212 28.5t131.5 86t45.5 146.5h-162
q0 -60 -22 -97t-71 -53.5t-134 -16.5zM755 1257q51 0 84.5 13.5t54.5 35t33 45.5t17 47t4 38h-137q-1 -12 -8.5 -28t-24.5 -27.5t-42 -11.5q-30 0 -53.5 11.5t-46.5 27t-52 26.5t-70 11q-50 0 -85.5 -12.5t-57.5 -33.5t-33.5 -45t-16.5 -46.5t-6 -38.5h139q0 12 7.5 28.5
t24 27.5t44.5 11t50.5 -12t46.5 -27.5t54.5 -27.5t73.5 -12z" />
    <glyph glyph-name="uni1EE2" unicode="&#x1ee2;" horiz-adv-x="1369" 
d="M678 -10q334 0 475.5 169.5t141.5 515.5t-141.5 516.5t-475.5 170.5t-475.5 -170t-141.5 -517q0 -346 142 -515.5t475 -169.5zM678 184q-149 0 -241 90t-92 401q0 315 92 403.5t241 88.5q150 0 242 -88.5t92 -403.5q0 -311 -92 -401t-242 -90zM1098 1212v-94
q126 0 212 28.5t131.5 86t45.5 146.5h-162q0 -60 -22 -97t-71 -53.5t-134 -16.5zM681 -265q36 0 61.5 26t25.5 62t-25 61.5t-62 25.5q-36 0 -62 -25.5t-26 -61.5q0 -37 26 -62.5t62 -25.5z" />
    <glyph glyph-name="uni1EE3" unicode="&#x1ee3;" horiz-adv-x="1281" 
d="M628 -9q301 0 435 153.5t134 452.5t-134 450t-435 151t-435 -151t-134 -450t134 -452.5t435 -153.5zM628 183q-126 0 -207 83.5t-81 328.5q0 246 81 329t207 83t207 -83t81 -329q0 -245 -81 -328.5t-207 -83.5zM1029 1064v-94q126 0 212 28.5t131.5 86t45.5 146.5h-162
q0 -60 -22 -97t-71 -53.5t-134 -16.5zM634 -299q36 0 61.5 26t25.5 62t-25 61.5t-62 25.5q-36 0 -62 -25.5t-26 -61.5q0 -37 26 -62.5t62 -25.5z" />
    <glyph glyph-name="uni1EE4" unicode="&#x1ee4;" horiz-adv-x="1359" 
d="M667 -8q287 0 431.5 102.5t144.5 343.5v912h-284v-880q0 -153 -71 -218t-221 -65t-221 65.5t-71 217.5v880h-284v-912q0 -241 144.5 -343.5t431.5 -102.5zM673 -265q36 0 61.5 26t25.5 62t-25 61.5t-62 25.5q-36 0 -62 -25.5t-26 -61.5q0 -37 26 -62.5t62 -25.5z" />
    <glyph glyph-name="uni1EE5" unicode="&#x1ee5;" horiz-adv-x="1250" 
d="M913 0h217v1185h-281v-991zM362 1186h-281v-660q0 -248 85.5 -392t307.5 -144q242 0 378 143t136 295l-138 65q0 -138 -80 -223.5t-194 -85.5q-110 0 -162 76.5t-52 278.5v647zM615 -299q36 0 61.5 26t25.5 62t-25 61.5t-62 25.5q-36 0 -62 -25.5t-26 -61.5
q0 -37 26 -62.5t62 -25.5z" />
    <glyph glyph-name="uni1EE6" unicode="&#x1ee6;" horiz-adv-x="1359" 
d="M667 -8q287 0 431.5 102.5t144.5 343.5v912h-284v-880q0 -153 -71 -218t-221 -65t-221 65.5t-71 217.5v880h-284v-912q0 -241 144.5 -343.5t431.5 -102.5zM544 1692v-88q94 0 150.5 -2t82 -9.5t25.5 -23.5q0 -13 -23 -21.5t-63.5 -11.5t-93.5 -3v-128h102v58q35 0 72.5 6
t69.5 19t52 35t20 54q0 47 -42 71.5t-129 34t-223 9.5z" />
    <glyph glyph-name="uni1EE7" unicode="&#x1ee7;" horiz-adv-x="1250" 
d="M913 0h217v1185h-281v-991zM362 1186h-281v-660q0 -248 85.5 -392t307.5 -144q242 0 378 143t136 295l-138 65q0 -138 -80 -223.5t-194 -85.5q-110 0 -162 76.5t-52 278.5v647zM477 1527v-88q94 0 150.5 -2t82 -9.5t25.5 -23.5q0 -13 -23 -21.5t-63.5 -11.5t-93.5 -3
v-128h102v58q35 0 72.5 6t69.5 19t52 35t20 54q0 47 -42 71.5t-129 34t-223 9.5z" />
    <glyph glyph-name="uni1EE8" unicode="&#x1ee8;" horiz-adv-x="1359" 
d="M667 -8q287 0 431.5 102.5t144.5 343.5v912h-284v-880q0 -153 -71 -218t-221 -65t-221 65.5t-71 217.5v880h-284v-912q0 -241 144.5 -343.5t431.5 -102.5zM1241 1233v-94q126 0 212 28.5t131.5 86t45.5 146.5h-162q0 -60 -22 -97t-71 -53.5t-134 -16.5zM498 1392h132
l216 191h-194z" />
    <glyph glyph-name="uni1EE9" unicode="&#x1ee9;" horiz-adv-x="1250" 
d="M913 0h217v1185h-281v-991zM362 1186h-281v-660q0 -248 85.5 -392t307.5 -144q242 0 378 143t136 295l-138 65q0 -138 -80 -223.5t-194 -85.5q-110 0 -162 76.5t-52 278.5v647zM1126 1185v-94q126 0 212 28.5t131.5 86t45.5 146.5h-162q0 -60 -22 -97t-71 -53.5
t-134 -16.5zM439 1227h132l216 191h-194z" />
    <glyph glyph-name="uni1EEA" unicode="&#x1eea;" horiz-adv-x="1359" 
d="M667 -8q287 0 431.5 102.5t144.5 343.5v912h-284v-880q0 -153 -71 -218t-221 -65t-221 65.5t-71 217.5v880h-284v-912q0 -241 144.5 -343.5t431.5 -102.5zM1241 1233v-94q126 0 212 28.5t131.5 86t45.5 146.5h-162q0 -60 -22 -97t-71 -53.5t-134 -16.5zM713 1405h133
l-155 191h-194z" />
    </font>
</defs>
</svg>
