<?xml version="1.0" standalone="no"?>
<!DOCTYPE svg PUBLIC "-//W3C//DTD SVG 1.1//EN" "http://www.w3.org/Graphics/SVG/1.1/DTD/svg11.dtd" >
<svg xmlns="http://www.w3.org/2000/svg" xmlns:xlink="http://www.w3.org/1999/xlink" version="1.1">
<metadata>
Created by FontForge 20201107 at Wed Mar  8 16:58:27 2023
 By 
Copyright 2020 The Anybody Project Authors (https://github.com/Etcetera-Type-Co/Anybody)
</metadata>
<defs>
<font id="Anybody-ExtraBold" horiz-adv-x="0" >
  <font-face 
    font-family="Anybody ExtraBold"
    font-weight="800"
    font-stretch="normal"
    units-per-em="2000"
    panose-1="0 0 0 0 0 0 0 0 0 0"
    ascent="1600"
    descent="-400"
    x-height="1186"
    cap-height="1350"
    bbox="-341 -569 2956 2016"
    underline-thickness="113"
    underline-position="-265"
    unicode-range="U+000D-FB02"
  />
<missing-glyph horiz-adv-x="570" 
d="M100 146h348v1042h-348v-1042zM202 226l170 172l-20 20l-170 -172zM352 226l20 20l-170 172l-20 -20zM202 564l170 172l-20 20l-170 -172zM352 564l20 20l-170 172l-20 -20zM126 172v990h296v-990h-296zM202 902l170 172l-20 20l-170 -172zM352 902l20 20l-170 172
l-20 -20z" />
    <glyph glyph-name="fi" unicode="fi" horiz-adv-x="1673" 
d="M265 0h399v914h311v272h-311v25q0 65 59.5 86.5t220.5 21.5h33v261h-44q-328 0 -498 -85.5t-170 -282.5v-26h-242v-272h242v-914zM1150 0h401v1186h-401v-1186zM1150 1557v-261h401v261h-401z" />
    <glyph glyph-name="fl" unicode="fl" horiz-adv-x="1660" 
d="M265 0h399v914h311v272h-311v25q0 65 59.5 86.5t220.5 21.5h33v261h-44q-328 0 -498 -85.5t-170 -282.5v-26h-242v-272h242v-914zM1144 0h400v1570h-400v-1570z" />
    <glyph glyph-name="f_f" unicode="ff" horiz-adv-x="2054" 
d="M265 0h399v914h311v272h-311v25q0 65 59.5 86.5t220.5 21.5h33v261h-44q-328 0 -498 -85.5t-170 -282.5v-26h-242v-272h242v-914zM1267 0h399v914h311v272h-311v25q0 65 59.5 86.5t220.5 21.5h33v261h-44q-328 0 -498 -85.5t-170 -282.5v-26h-242v-272h242v-914z" />
    <glyph glyph-name="f_f_i" unicode="ffi" horiz-adv-x="2675" 
d="M265 0h399v914h311v272h-311v25q0 65 59.5 86.5t220.5 21.5h33v261h-44q-328 0 -498 -85.5t-170 -282.5v-26h-242v-272h242v-914zM1267 0h399v914h311v272h-311v25q0 65 59.5 86.5t220.5 21.5h33v261h-44q-328 0 -498 -85.5t-170 -282.5v-26h-242v-272h242v-914zM2152 0
h401v1186h-401v-1186zM2152 1557v-261h401v261h-401z" />
    <glyph glyph-name="f_f_l" unicode="ffl" horiz-adv-x="2662" 
d="M265 0h399v914h311v272h-311v25q0 65 59.5 86.5t220.5 21.5h33v261h-44q-328 0 -498 -85.5t-170 -282.5v-26h-242v-272h242v-914zM1267 0h399v914h311v272h-311v25q0 65 59.5 86.5t220.5 21.5h33v261h-44q-328 0 -498 -85.5t-170 -282.5v-26h-242v-272h242v-914zM2146 0
h400v1570h-400v-1570z" />
    <glyph glyph-name=".notdef" horiz-adv-x="570" 
d="M100 146h348v1042h-348v-1042zM202 226l170 172l-20 20l-170 -172zM352 226l20 20l-170 172l-20 -20zM202 564l170 172l-20 20l-170 -172zM352 564l20 20l-170 172l-20 -20zM126 172v990h296v-990h-296zM202 902l170 172l-20 20l-170 -172zM352 902l20 20l-170 172
l-20 -20z" />
    <glyph glyph-name=".null" 
 />
    <glyph glyph-name="nonmarkingreturn" horiz-adv-x="666" 
 />
    <glyph glyph-name="CR" unicode="&#xd;" horiz-adv-x="439" 
 />
    <glyph glyph-name="space" unicode=" " horiz-adv-x="520" 
 />
    <glyph glyph-name="exclam" unicode="!" horiz-adv-x="569" 
d="M94 456h386l38 894h-463zM80 -19h396v292h-396v-292z" />
    <glyph glyph-name="quotedbl" unicode="&#x22;" horiz-adv-x="630" 
d="M354 782h225v568h-225v-568zM45 782h233v568h-233v-568z" />
    <glyph glyph-name="numbersign" unicode="#" horiz-adv-x="1610" 
d="M900 0h302l192 1350h-302zM44 301h1479v232h-1479v-232zM203 0h301l191 1350h-301zM76 813h1479v234h-1479v-234z" />
    <glyph glyph-name="dollar" unicode="$" horiz-adv-x="1338" 
d="M563 1195h236v186h-236v-186zM564 -30h237v180h-237v-180zM713 84q283 0 439.5 86.5t156.5 299.5q0 182 -139 254.5t-346 98.5q-156 19 -255 34.5t-99 77.5q0 47 45.5 72.5t141.5 25.5q104 0 180.5 -46t101.5 -119l350 128q-50 162 -213.5 227t-413.5 65
q-258 0 -421.5 -84t-163.5 -270q0 -185 127.5 -269.5t340.5 -111.5q163 -21 266.5 -35.5t103.5 -77.5q0 -48 -53 -73t-143 -25q-119 0 -198 45t-104 123l-349 -129q55 -161 228 -229t417 -68z" />
    <glyph glyph-name="percent" unicode="%" horiz-adv-x="1568" 
d="M77 0h273l1130 1348h-272zM439 826q174 0 264 54t90 177v78q0 125 -90 179.5t-264 54.5t-264.5 -55t-90.5 -179v-78q0 -122 91 -176.5t264 -54.5zM438 978q-53 0 -77 16t-24 59v87q0 43 24 59.5t77 16.5q51 0 76 -16.5t25 -59.5v-87q0 -43 -25 -59t-76 -16zM1155 -8
q173 0 263 54t90 177v78q0 125 -90 179.5t-263 54.5q-175 0 -265.5 -55t-90.5 -179v-78q0 -122 91 -176.5t265 -54.5zM1153 144q-53 0 -77 16t-24 59v87q0 43 24 59.5t77 16.5q52 0 77 -16.5t25 -59.5v-87q0 -43 -25 -59t-77 -16z" />
    <glyph glyph-name="ampersand" unicode="&#x26;" horiz-adv-x="1694" 
d="M674 -13q363 0 652.5 186t289.5 510h-357q0 -213 -182.5 -316.5t-382.5 -103.5q-150 0 -210 25.5t-60 87.5q0 63 74.5 106.5t267.5 116.5q190 78 334.5 168.5t144.5 247.5q0 176 -154.5 261.5t-389.5 85.5q-217 0 -375 -87.5t-158 -262.5q0 -132 109.5 -243.5
t199.5 -185.5l719 -583h455l-890 771q-99 79 -155 132t-56 109q0 48 40 69t115 21q74 0 118.5 -21t44.5 -68q0 -56 -70.5 -102.5t-217.5 -86.5q-157 -69 -355 -177t-198 -294q0 -182 166.5 -274t480.5 -92z" />
    <glyph glyph-name="quotesingle" unicode="'" horiz-adv-x="391" 
d="M52 817h286v533h-286v-533z" />
    <glyph glyph-name="parenleft" unicode="(" horiz-adv-x="777" 
d="M411 -506l295 169q-25 28 -61.5 77.5t-75.5 122.5t-73.5 169t-57 217.5t-22.5 267.5q0 148 22.5 271t57 221t73.5 172.5t75.5 125.5t61.5 78l-295 168q-24 -24 -66.5 -78t-91.5 -140.5t-92.5 -205t-71 -271t-27.5 -341.5q0 -187 27.5 -339t71 -268.5t92.5 -200.5
t91.5 -137.5t66.5 -77.5z" />
    <glyph glyph-name="parenright" unicode=")" horiz-adv-x="785" 
d="M354 -506q26 24 68.5 77.5t91 137.5t91.5 200.5t71 268.5t28 339q0 189 -28 341.5t-71 271t-91.5 205t-91 140.5t-68.5 78l-292 -168q23 -27 59 -78t76 -125.5t75 -172.5t56.5 -221t21.5 -271q0 -146 -21.5 -267.5t-56.5 -217.5t-75 -169t-76 -122.5t-59 -77.5z" />
    <glyph glyph-name="asterisk" unicode="*" horiz-adv-x="633" 
d="M504 1167l63 106l-450 262l-63 -107zM117 1167l450 261l-63 107l-450 -262zM249 1132h123v437h-123v-437z" />
    <glyph glyph-name="plus" unicode="+" horiz-adv-x="632" 
d="M199 179h256v182h166v238h-166v182h-256v-182h-167v-238h167v-182z" />
    <glyph glyph-name="comma" unicode="," horiz-adv-x="657" 
d="M40 -297h227l230 475h-364z" />
    <glyph glyph-name="hyphen" unicode="-" horiz-adv-x="957" 
d="M57 348h824v261h-824v-261z" />
    <glyph glyph-name="period" unicode="." horiz-adv-x="523" 
d="M65 276v-276h374v276h-374z" />
    <glyph glyph-name="slash" unicode="/" horiz-adv-x="1032" 
d="M20 0h339l654 1348h-342z" />
    <glyph glyph-name="zero" unicode="0" horiz-adv-x="1280" 
d="M630 -16q291 0 432 97t141 307v571q0 209 -141 306t-432 97t-432.5 -97t-141.5 -306v-571q0 -210 141 -307t433 -97zM630 258q-95 0 -134 34.5t-39 112.5v537q0 78 39 112t134 34q91 0 131 -34.5t40 -111.5v-537q0 -77 -40.5 -112t-130.5 -35z" />
    <glyph glyph-name="one" unicode="1" horiz-adv-x="1207" 
d="M66 0h1084v273h-337v1079h-332l-422 -126v-292l355 95v-756h-348v-273z" />
    <glyph glyph-name="two" unicode="2" horiz-adv-x="1309" 
d="M73 0h1157v273h-735q0 37 74.5 78t236.5 114q187 94 306.5 203.5t119.5 279.5q0 143 -96 278.5t-469 135.5q-365 0 -481.5 -147t-116.5 -332h399q0 128 52.5 166.5t146.5 38.5q80 0 121 -28t41 -118q0 -74 -48 -120t-263 -135q-226 -96 -335.5 -202t-109.5 -252v-233z
" />
    <glyph glyph-name="three" unicode="3" horiz-adv-x="1309" 
d="M653 -16q375 0 481 121.5t106 286.5q0 118 -70.5 199.5t-236.5 86.5q166 6 236.5 90t70.5 204q0 161 -106 275.5t-480 114.5q-360 0 -475.5 -143t-115.5 -346h398q0 152 51 186.5t144 34.5q88 0 137 -28.5t49 -156.5q0 -62 -54.5 -87t-197.5 -26v-246q143 -1 197.5 -24.5
t54.5 -85.5q0 -126 -48.5 -156.5t-137.5 -30.5q-91 0 -143 33.5t-52 175.5h-398q0 -202 115 -340t475 -138z" />
    <glyph glyph-name="four" unicode="4" horiz-adv-x="1295" 
d="M677 0h398v276h165v256h-165v818h-590l-442 -813v-261h634v-276zM441 532l233 536h3v-536h-236z" />
    <glyph glyph-name="five" unicode="5" horiz-adv-x="1291" 
d="M611 -14q360 0 481 133.5t121 359.5q0 200 -96.5 316t-328.5 116q-201 0 -369 -81.5t-187 -257.5l221 -8q4 49 51.5 76.5t129.5 27.5t127 -33.5t45 -162.5q0 -150 -45 -185.5t-130 -35.5q-84 0 -130 28t-48 147h-399q0 -178 119.5 -309t437.5 -131zM54 564h399v514h723
v272h-1122v-786z" />
    <glyph glyph-name="six" unicode="6" horiz-adv-x="1304" 
d="M623 -14q387 0 494.5 143.5t107.5 349.5q0 197 -94 311t-341 114q-217 0 -367.5 -102t-159.5 -186l188 -85q12 59 62.5 97.5t136.5 38.5q87 0 128 -35t41 -175q0 -131 -41 -169t-130 -38q-88 0 -141 49.5t-53 310.5q0 357 56 424t148 67q73 0 105.5 -32.5t37.5 -112.5
h401q0 132 -99.5 269t-444.5 137q-386 0 -495.5 -187.5t-109.5 -522.5q0 -322 99 -494t471 -172z" />
    <glyph glyph-name="seven" unicode="7" horiz-adv-x="1171" 
d="M257 0h433q-2 311 122.5 578t333.5 501v271h-1121v-272h693l-1 -5q-202 -193 -331 -472.5t-129 -600.5z" />
    <glyph glyph-name="eight" unicode="8" horiz-adv-x="1287" 
d="M642 -16q335 0 454.5 138t119.5 317t-155.5 272t-418.5 93t-420 -92.5t-157 -272.5q0 -179 111 -317t466 -138zM641 253q-88 0 -133 35t-45 139q0 109 46 140.5t132 31.5q87 0 132 -31.5t45 -140.5q0 -104 -44.5 -139t-132.5 -35zM642 634q266 0 410 80t144 254
q0 149 -116 271.5t-438 122.5q-340 0 -448.5 -122.5t-108.5 -271.5q0 -175 145.5 -254.5t411.5 -79.5zM641 830q-86 0 -128.5 28.5t-42.5 116.5q0 66 44 95.5t127 29.5t126.5 -29.5t43.5 -95.5q0 -88 -42 -116.5t-128 -28.5z" />
    <glyph glyph-name="nine" unicode="9" horiz-adv-x="1306" 
d="M639 -14q385 0 494.5 195t109.5 515q0 305 -99 485.5t-467 180.5q-391 0 -499.5 -134.5t-108.5 -331.5t95 -324.5t342 -127.5q217 0 367.5 102t159.5 186l-188 85q-7 -59 -60 -93t-139 -34q-87 0 -131.5 34t-44.5 170q0 127 48.5 163.5t137.5 36.5q88 0 137 -47.5
t49 -308.5q0 -364 -54 -427.5t-149 -63.5q-74 0 -106.5 32.5t-37.5 104.5h-401q0 -108 92 -253t453 -145z" />
    <glyph glyph-name="colon" unicode=":" horiz-adv-x="534" 
d="M65 276v-276h374v276h-374zM65 1087v-276h374v276h-374z" />
    <glyph glyph-name="semicolon" unicode=";" horiz-adv-x="628" 
d="M115 1088v-276h374v276h-374zM19 -189h227l230 475h-364z" />
    <glyph glyph-name="less" unicode="&#x3c;" horiz-adv-x="890" 
d="M805 -9v344l-486 152l486 151v343l-755 -351v-288z" />
    <glyph glyph-name="equal" unicode="=" horiz-adv-x="645" 
d="M23 592h593v233h-593v-233zM23 144h593v232h-593v-232z" />
    <glyph glyph-name="greater" unicode="&#x3e;" horiz-adv-x="889" 
d="M83 -9l754 351v288l-754 351v-343l487 -151l-487 -152v-344z" />
    <glyph glyph-name="question" unicode="?" horiz-adv-x="1318" 
d="M473 436h391q2 66 28.5 129t129.5 132q89 57 157.5 130.5t68.5 199.5q0 158 -131 245.5t-458 87.5q-308 0 -452 -103.5t-144 -358.5h387q0 114 53.5 163t162.5 49q102 0 145 -28.5t43 -90.5q0 -51 -48 -89t-124 -89q-102 -63 -155.5 -150.5t-53.5 -226.5zM485 259v-277
h374v277h-374z" />
    <glyph glyph-name="at" unicode="@" horiz-adv-x="1950" 
d="M838 -45q90 0 173.5 11t153.5 28t121.5 39t77.5 41l-207 184q-5 -6 -27.5 -19.5t-60.5 -26.5t-89.5 -22.5t-116.5 -9.5q-66 0 -134 15t-129 48t-108 87t-73.5 131t-23.5 179q3 139 54.5 236.5t138 160t197.5 92t235 29.5q118 0 214.5 -21.5t165.5 -67.5t104 -117.5
t32 -172.5q-4 -111 -28.5 -186.5t-67 -113t-99.5 -37.5q-27 0 -50.5 9.5t-35.5 30t-9 54.5l50 488h-186l-11 -93q-1 17 -18 42t-53.5 44.5t-93.5 19.5q-63 0 -124 -24t-110 -73.5t-79 -124.5t-33 -177q-2 -83 19.5 -145t61.5 -102.5t93 -61t114 -20.5q72 0 124 17.5t82 42.5
t38 50q-1 -21 11.5 -48t39.5 -50.5t67 -38.5t96 -15q74 0 148 19t141 59t120.5 102t86.5 147.5t35 195.5q5 141 -50 250.5t-160 186t-255.5 117t-337.5 40.5q-164 0 -311.5 -28.5t-272 -87.5t-216.5 -149.5t-144 -212.5t-56 -278q-2 -125 28.5 -223.5t86 -173.5t131 -127.5
t163 -85.5t181.5 -48t186 -15zM941 475q-25 0 -46 14t-35 38.5t-21 58.5t-6 74t13.5 76.5t33 65t45.5 44t49 15.5q21 0 45.5 -7.5t41.5 -24t16 -41.5l-22 -246q-7 -26 -38.5 -46.5t-75.5 -20.5z" />
    <glyph glyph-name="A" unicode="A" horiz-adv-x="1522" 
d="M56 0h416l80 307h421l78 -307h416l-421 1351h-570zM617 571l144 545h4l144 -545h-292z" />
    <glyph glyph-name="B" unicode="B" horiz-adv-x="1420" 
d="M78 0h848q276 0 338.5 113.5t62.5 275.5q0 139 -68 232t-196 100q127 4 179 96.5t52 207.5q0 114 -65 219.5t-335 105.5h-816v-1350zM482 273v320h332q72 0 90.5 -39.5t18.5 -122.5q0 -85 -17 -121.5t-83 -36.5h-341zM482 836v242h311q58 0 76 -27.5t18 -85.5
q0 -60 -19 -94.5t-80 -34.5h-306z" />
    <glyph glyph-name="C" unicode="C" horiz-adv-x="1411" 
d="M700 -8q391 0 515 174.5t124 387.5h-409q0 -180 -61.5 -234.5t-171.5 -54.5q-113 0 -182 63t-69 351q0 286 69.5 348t181.5 62q111 0 172 -53t61 -236h409q0 220 -123.5 391.5t-515.5 171.5q-388 0 -525.5 -179.5t-137.5 -504.5t137.5 -506t525.5 -181z" />
    <glyph glyph-name="D" unicode="D" horiz-adv-x="1405" 
d="M78 0h753q292 0 404 152.5t112 523.5q0 370 -111.5 522t-404.5 152h-753v-1350zM481 273v804h239q116 0 170 -59t54 -342q0 -284 -54 -343.5t-170 -59.5h-239z" />
    <glyph glyph-name="E" unicode="E" horiz-adv-x="1186" 
d="M69 0h1032v273h-627v278h578v260h-578v266h627v273h-1032v-1350z" />
    <glyph glyph-name="F" unicode="F" horiz-adv-x="1104" 
d="M62 0h404v472h519v260h-519v345h567v273h-971v-1350z" />
    <glyph glyph-name="G" unicode="G" horiz-adv-x="1458" 
d="M676 -8q305 1 401 159l45 -151h226v721h-614v-236h202l-1 -23q-10 -116 -59 -157t-161 -41q-122 0 -189.5 77.5t-67.5 325.5q0 295 67.5 359t185.5 64q115 0 168.5 -43t64.5 -191h404q-9 193 -143.5 350t-494.5 157q-385 0 -522 -176t-137 -507q0 -326 132.5 -507
t492.5 -181z" />
    <glyph glyph-name="H" unicode="H" horiz-adv-x="1443" 
d="M78 0h404v530h447v-530h404v1350h-404v-546h-447v546h-404v-1350z" />
    <glyph glyph-name="I" unicode="I" horiz-adv-x="663" 
d="M123 0h402v1350h-402v-1350z" />
    <glyph glyph-name="J" unicode="J" horiz-adv-x="1400" 
d="M673 -11q311 0 466 102.5t155 301.5v957h-403v-898q0 -98 -47 -145.5t-172 -47.5t-170 50.5t-45 150.5v146h-403v-192q0 -218 155.5 -321.5t463.5 -103.5z" />
    <glyph glyph-name="K" unicode="K" horiz-adv-x="1347" 
d="M78 0h401v567l393 -567h450l-479 674l478 676h-451l-391 -568v568h-401v-1350z" />
    <glyph glyph-name="L" unicode="L" horiz-adv-x="1077" 
d="M78 0h932v272h-528v1078h-404v-1350z" />
    <glyph glyph-name="M" unicode="M" horiz-adv-x="1925" 
d="M78 0h399v1073h4l232 -1054h468l232 1054h4v-1073h399v1350h-651l-217 -1043h-3l-217 1043h-650v-1350z" />
    <glyph glyph-name="N" unicode="N" horiz-adv-x="1662" 
d="M78 0h401v1065h5l433 -1065h635v1350h-402l-4 -1044h-3l-424 1044h-641v-1350z" />
    <glyph glyph-name="O" unicode="O" horiz-adv-x="1459" 
d="M726 -12q387 0 531.5 178t144.5 509t-144.5 509.5t-531.5 178.5t-531 -178t-144 -510q0 -331 144.5 -509t530.5 -178zM726 262q-124 0 -198.5 64.5t-74.5 348.5q0 289 74.5 351.5t198.5 62.5q125 0 199 -62.5t74 -351.5q0 -284 -74 -348.5t-199 -64.5z" />
    <glyph glyph-name="P" unicode="P" horiz-adv-x="1352" 
d="M78 0h404v344h384q266 0 347 146.5t81 357.5q0 210 -80.5 356t-347.5 146h-788v-1350zM482 618v459h262q80 0 114.5 -50t34.5 -180t-34 -179.5t-115 -49.5h-262z" />
    <glyph glyph-name="Q" unicode="Q" horiz-adv-x="1461" 
d="M1096 -285l285 152l-266 387l-297 -136zM726 -12q388 0 532 167t144 520q0 354 -144 521t-532 167t-531.5 -166.5t-143.5 -521.5q0 -353 144 -520t531 -167zM726 262q-125 0 -199 64.5t-74 348.5q0 290 74 352t199 62q126 0 199.5 -62t73.5 -352q0 -284 -73.5 -348.5
t-199.5 -64.5z" />
    <glyph glyph-name="R" unicode="R" horiz-adv-x="1393" 
d="M78 0h405v520h409q246 0 329.5 117t83.5 289q0 174 -79 299t-318 125h-830v-1350zM896 0h438l-333 640l-400 -15zM483 766v311h291q71 0 98.5 -39.5t27.5 -117.5q0 -76 -27 -115t-99 -39h-291z" />
    <glyph glyph-name="S" unicode="S" horiz-adv-x="1421" 
d="M704 -7q376 0 505.5 130.5t129.5 315.5q0 173 -106.5 242.5t-411.5 128.5q-170 31 -272 56.5t-102 107.5q0 59 68.5 88t176.5 29q98 0 169.5 -34.5t71.5 -178.5h404q0 208 -133.5 346.5t-507.5 138.5q-373 0 -506 -128.5t-133 -307.5q0 -176 109.5 -252.5t404.5 -135.5
q172 -29 271 -55t99 -102q0 -65 -68.5 -91.5t-171.5 -26.5q-104 0 -173 35.5t-69 181.5h-403q0 -221 131 -354.5t517 -133.5z" />
    <glyph glyph-name="T" unicode="T" horiz-adv-x="1336" 
d="M465 0h404v1077h396v273h-1196v-273h396v-1077z" />
    <glyph glyph-name="U" unicode="U" horiz-adv-x="1463" 
d="M723 -7q328 0 487 108t159 361v888h-404v-845q0 -128 -56 -183.5t-186 -55.5t-185.5 56t-55.5 183v845h-404v-888q0 -253 159 -361t486 -108z" />
    <glyph glyph-name="V" unicode="V" horiz-adv-x="1448" 
d="M445 0h549l397 1350h-410l-259 -1067h-3l-262 1067h-409z" />
    <glyph glyph-name="W" unicode="W" horiz-adv-x="2136" 
d="M272 0h615l168 1077h3l167 -1077h616l245 1350h-437l-138 -1057h-3l-187 1057h-528l-186 -1056h-4l-132 1056h-434z" />
    <glyph glyph-name="X" unicode="X" horiz-adv-x="1451" 
d="M8 0h464l251 499l250 -499h463l-414 668l401 682h-463l-237 -511l-238 511h-464l400 -682z" />
    <glyph glyph-name="Y" unicode="Y" horiz-adv-x="1483" 
d="M540 0h403v488l529 862h-438l-291 -547h-1l-294 547h-437l529 -861v-489z" />
    <glyph glyph-name="Z" unicode="Z" horiz-adv-x="1220" 
d="M59 0h1074v273h-630l616 804v273h-1046v-271h602l-616 -797v-282z" />
    <glyph glyph-name="bracketleft" unicode="[" horiz-adv-x="804" 
d="M50 -408h696v260h-368v1339h368v261h-696v-1860z" />
    <glyph glyph-name="backslash" unicode="\" horiz-adv-x="1058" 
d="M653 0h360l-608 1348h-357z" />
    <glyph glyph-name="bracketright" unicode="]" horiz-adv-x="805" 
d="M48 -408h696v1860h-696v-261h368v-1339h-368v-260z" />
    <glyph glyph-name="asciicircum" unicode="^" horiz-adv-x="836" 
d="M12 1192h243l237 254h-226zM565 1194h241l-252 252h-227z" />
    <glyph glyph-name="underscore" unicode="_" horiz-adv-x="1359" 
d="M-1 -300h1362v258h-1362v-258z" />
    <glyph glyph-name="grave" unicode="`" horiz-adv-x="708" 
d="M365 1206h179l-170 229h-265z" />
    <glyph glyph-name="a" unicode="a" horiz-adv-x="1400" 
d="M535 -13q72 0 137 12t118 32t90.5 45t55.5 53l35 -129h332v733q0 170 -70.5 271.5t-208.5 147.5t-341 46q-107 0 -207.5 -17t-183.5 -53.5t-141.5 -97.5t-81.5 -149l390 -110q16 62 50 97t80 49t96 14q68 0 116 -16.5t74 -55t26 -105.5v-35h-368q-120 0 -210 -19.5
t-149.5 -61.5t-89 -110.5t-29.5 -168.5q0 -106 31 -178t93 -114.5t151 -61t205 -18.5zM625 241q-37 0 -68 6t-53 20.5t-33.5 40t-11.5 66.5q0 42 11 68t32.5 39t53.5 18.5t72 5.5h267v-166q-20 -27 -61.5 -49.5t-95.5 -35.5t-113 -13z" />
    <glyph glyph-name="b" unicode="b" horiz-adv-x="1396" 
d="M80 0h364l36 168v1402h-400v-1570zM854 -7q254 0 364 166t110 437t-110 435t-364 164q-221 0 -387 -99t-166 -225l178 -164q0 95 70.5 155.5t164.5 60.5q103 0 156.5 -64t53.5 -265q0 -205 -53.5 -267.5t-156.5 -62.5q-94 0 -164.5 60t-70.5 158l-178 -166
q0 -127 166 -225t387 -98z" />
    <glyph glyph-name="c" unicode="c" horiz-adv-x="1320" 
d="M672 -12q316 0 435.5 126t141.5 254l-355 130q-9 -124 -68 -180.5t-154 -56.5q-93 0 -159 63.5t-66 265.5q0 207 65.5 270t159.5 63q96 0 154.5 -55.5t67.5 -186.5l355 125q-22 135 -141.5 263t-435.5 128q-359 0 -495.5 -159t-136.5 -448q0 -287 136.5 -444.5
t495.5 -157.5z" />
    <glyph glyph-name="d" unicode="d" horiz-adv-x="1405" 
d="M926 0h371v1570h-398v-1401zM525 -7q221 0 386 98t165 225l-177 166q0 -96 -70 -157t-163 -61q-103 0 -157.5 63t-54.5 267q0 202 54.5 265.5t157.5 63.5q93 0 163 -60.5t70 -155.5l177 164q0 126 -165 225t-386 99q-254 0 -364 -164t-110 -435q0 -272 110 -437.5
t364 -165.5z" />
    <glyph glyph-name="e" unicode="e" horiz-adv-x="1396" 
d="M696 -12v256q-117 0 -188 66q-72 64 -72 282q0 217 71 284t182 67q114 0 177 -59q42 -47 55 -170h-519v-239h915q7 52 7 117q0 274 -133 441q-136 166 -503 166q-355 0 -496 -163q-142 -163 -142 -443q0 -277 142 -441q140 -164 504 -164zM696 244v-256q191 0 298 33
q106 32 185 98q79 65 103 180l-356 101q-24 -52 -49 -89q-26 -36 -69 -51q-43 -16 -112 -16z" />
    <glyph glyph-name="f" unicode="f" horiz-adv-x="1052" 
d="M265 0h399v914h311v272h-311v25q0 65 59.5 86.5t220.5 21.5h33v261h-44q-328 0 -498 -85.5t-170 -282.5v-26h-242v-272h242v-914z" />
    <glyph glyph-name="g" unicode="g" horiz-adv-x="1412" 
d="M667 -471q199 0 326.5 47.5t217.5 168t90 333.5v1108h-292l-109 -230v-920q0 -173 -61.5 -214t-158.5 -41q-58 0 -105 17t-74.5 56.5t-33.5 96.5h-390q24 -232 194 -327t396 -95zM529 -7q221 0 385 98t164 225l-179 166q0 -96 -70 -157t-163 -61q-103 0 -157.5 63
t-54.5 267q0 202 54.5 265.5t157.5 63.5q93 0 163 -60.5t70 -155.5l177 155q0 126 -165 229.5t-386 103.5q-254 0 -364 -164t-110 -435q0 -272 112 -437.5t366 -165.5z" />
    <glyph glyph-name="h" unicode="h" horiz-adv-x="1381" 
d="M80 0h400v1570h-400v-1570zM873 0h399v625q0 258 -90 414t-329 156q-258 0 -416.5 -163t-158.5 -326l194 -81q0 134 67 215.5t162 81.5q88 0 130 -62t42 -255v-605z" />
    <glyph glyph-name="i" unicode="i" horiz-adv-x="627" 
d="M103 0h401v1186h-401v-1186zM103 1557v-261h401v261h-401z" />
    <glyph glyph-name="j" unicode="j" horiz-adv-x="656" 
d="M-132 -460q326 0 495.5 108t169.5 431v1107h-399v-1123q0 -153 -69.5 -200.5t-196.5 -47.5v-275zM134 1557v-261h399v261h-399z" />
    <glyph glyph-name="k" unicode="k" horiz-adv-x="1336" 
d="M633 491l227 -491h426l-382 765zM80 0h399v345l169 147l253 247l377 447h-464l-335 -402v786h-399v-1570z" />
    <glyph glyph-name="l" unicode="l" horiz-adv-x="623" 
d="M107 0h400v1570h-400v-1570z" />
    <glyph glyph-name="m" unicode="m" horiz-adv-x="2029" 
d="M80 0h400v1016l-92 170h-308v-1186zM803 0h399v677q0 205 -81 361.5t-327 156.5q-210 0 -369.5 -158.5t-159.5 -325.5l211 -81q0 152 51.5 222t131.5 70q75 0 109.5 -60t34.5 -219v-643zM1521 0h399v677q0 204 -78.5 361t-324.5 157q-210 0 -369.5 -161.5t-159.5 -322.5
l212 -81q0 152 51 222t131 70q75 0 107 -60t32 -219v-643z" />
    <glyph glyph-name="n" unicode="n" horiz-adv-x="1374" 
d="M80 0h399v999l-92 187h-307v-1186zM866 0h399v611q0 258 -89.5 421t-328.5 163q-258 0 -417 -163t-159 -326l194 -81q0 134 67.5 215.5t162.5 81.5q88 0 129.5 -62t41.5 -255v-605z" />
    <glyph glyph-name="o" unicode="o" horiz-adv-x="1400" 
d="M691 -9q355 0 498 161.5t143 445.5q0 286 -143 444t-498 158q-353 0 -496.5 -158t-143.5 -444q0 -284 143.5 -445.5t496.5 -161.5zM691 260q-106 0 -173.5 62.5t-67.5 274.5q0 211 67.5 272.5t173.5 61.5q107 0 174.5 -61.5t67.5 -272.5q0 -212 -67.5 -274.5
t-174.5 -62.5z" />
    <glyph glyph-name="p" unicode="p" horiz-adv-x="1396" 
d="M80 -444h399v1449l-92 181h-307v-1630zM854 -7q254 0 364 166t110 437t-110 435t-364 164q-221 0 -387 -99t-166 -225l178 -164q0 95 70.5 155.5t164.5 60.5q103 0 156.5 -64t53.5 -265q0 -205 -53.5 -267.5t-156.5 -62.5q-94 0 -164.5 60t-70.5 158l-178 -166
q0 -127 166 -225t387 -98z" />
    <glyph glyph-name="q" unicode="q" horiz-adv-x="1399" 
d="M896 -444h399v1630h-309l-90 -202v-1428zM525 -7q221 0 386 98t165 225l-177 166q0 -96 -70 -157t-163 -61q-103 0 -157.5 63t-54.5 267q0 202 54.5 265.5t157.5 63.5q93 0 163 -60.5t70 -155.5l177 164q0 126 -165 225t-386 99q-254 0 -364 -164t-110 -435
q0 -272 110 -437.5t364 -165.5z" />
    <glyph glyph-name="r" unicode="r" horiz-adv-x="1368" 
d="M860 587h399q0 311 -86 460t-336 149q-228 0 -370 -118t-142 -293l152 -86q0 88 57 156t151 68q81 0 128 -60.5t47 -275.5zM80 0h399v992l-92 194h-307v-1186z" />
    <glyph glyph-name="s" unicode="s" horiz-adv-x="1380" 
d="M713 -9q283 0 439.5 86t156.5 300q0 182 -139 255t-347 96q-156 22 -254.5 36.5t-98.5 77.5q0 47 45.5 72t141.5 25q104 0 180.5 -46t101.5 -117l349 127q-50 161 -213.5 227t-412.5 66q-259 0 -422 -84.5t-163 -270.5q0 -185 127.5 -270t339.5 -110q163 -23 267 -37
t104 -77q0 -48 -53 -73t-143 -25q-119 0 -198 44.5t-104 122.5l-349 -129q55 -162 227.5 -229t417.5 -67z" />
    <glyph glyph-name="t" unicode="t" horiz-adv-x="1101" 
d="M698 -16q148 0 283 30v262q-72 -26 -146 -26q-70 0 -109 27t-39 117v518h353v274h-353v272h-400v-272h-266v-274h266v-603q0 -183 120.5 -254t290.5 -71z" />
    <glyph glyph-name="u" unicode="u" horiz-adv-x="1372" 
d="M960 0h306v1186h-399v-1002zM468 1186h-399v-625q0 -257 87.5 -413.5t330.5 -156.5q278 0 427.5 163.5t149.5 325.5l-195 73q0 -134 -69 -211.5t-165 -77.5q-88 0 -127.5 62t-39.5 256v604z" />
    <glyph glyph-name="v" unicode="v" horiz-adv-x="1337" 
d="M386 0h545l371 1186h-418l-223 -918h-3l-222 918h-419z" />
    <glyph glyph-name="w" unicode="w" horiz-adv-x="2001" 
d="M308 0h533l157 786l156 -786h528l262 1186h-412l-125 -922h-3l-206 922h-396l-208 -925h-3l-132 925h-412z" />
    <glyph glyph-name="x" unicode="x" horiz-adv-x="1378" 
d="M20 0h447l209 432l217 -432h452l-375 593l369 593h-447l-199 -432l-208 432h-452l367 -593z" />
    <glyph glyph-name="y" unicode="y" horiz-adv-x="1328" 
d="M352 0h609l328 1186h-418l-214 -926h-3l-216 926h-417zM125 -467q342 0 547.5 88t288.5 379l-369 1q-35 -130 -139 -165t-328 -35v-268z" />
    <glyph glyph-name="z" unicode="z" horiz-adv-x="1149" 
d="M72 0h998v272h-521v2l510 645v267h-988v-272h525v-1l-524 -645v-268z" />
    <glyph glyph-name="braceleft" unicode="{" horiz-adv-x="850" 
d="M781 -408v260q-28 0 -64.5 3.5t-70.5 18t-56 46t-22 87.5v282q0 52 -23 87.5t-57.5 58t-69.5 34t-60 16.5t-27 5q2 1 27 5.5t60 16t70 33.5t57.5 57.5t22.5 87.5v332q0 57 22 88t56 44.5t70.5 17t64.5 3.5v260q-86 0 -166.5 -12t-148.5 -38.5t-118 -69.5t-78.5 -104.5
t-28.5 -143.5v-264q0 -60 -30 -100.5t-77 -62t-95 -21.5v-262q48 0 95 -19.5t77 -59.5t30 -101v-216q0 -79 27.5 -140t77.5 -104t117.5 -71t148.5 -41t169 -13z" />
    <glyph glyph-name="bar" unicode="|" horiz-adv-x="446" 
d="M55 -226h328v1648h-328v-1648z" />
    <glyph glyph-name="braceright" unicode="}" horiz-adv-x="838" 
d="M49 -408q89 0 169.5 13t148.5 41t117.5 71t77 104t27.5 140v216q0 61 30.5 101t77.5 59.5t94 19.5v262q-47 0 -94 21.5t-77.5 62t-30.5 100.5v264q0 82 -28 143.5t-78 104.5t-118 69.5t-148 38.5t-168 12v-260q29 0 65 -3.5t70.5 -17t56 -44.5t21.5 -88v-332
q0 -52 23.5 -87.5t58.5 -57.5t69.5 -33.5t60 -16t26.5 -5.5q-1 0 -26.5 -5t-60 -16.5t-69.5 -34t-58.5 -58t-23.5 -87.5v-282q0 -56 -21.5 -87.5t-56 -46t-70.5 -18t-65 -3.5v-260z" />
    <glyph glyph-name="asciitilde" unicode="~" horiz-adv-x="937" 
d="M646 523q71 0 128 21.5t93.5 46.5t43.5 34l-177 208q-3 -4 -29.5 -23t-89.5 -19q-48 0 -79 10.5t-58.5 24t-62 24.5t-91.5 11q-72 0 -133.5 -23t-104.5 -51t-61 -46l177 -199q12 15 51.5 40t99.5 25q46 0 77.5 -12.5t59.5 -29t65 -29.5t91 -13z" />
    <glyph glyph-name="uni00A0" unicode="&#xa0;" horiz-adv-x="520" 
 />
    <glyph glyph-name="exclamdown" unicode="&#xa1;" horiz-adv-x="515" 
d="M75 710l-38 -894h462l-38 894h-386zM62 895h397v291h-397v-291z" />
    <glyph glyph-name="cent" unicode="&#xa2;" horiz-adv-x="1340" 
d="M540 1208h276v172h-276v-172zM540 -30h276v181h-276v-181zM687 70q316 0 435.5 126.5t141.5 253.5l-354 130q-9 -123 -68.5 -180t-154.5 -57q-93 0 -159 64t-66 265q0 207 65.5 270t159.5 63q96 0 155 -55.5t68 -185.5l354 125q-22 134 -141.5 262t-435.5 128
q-359 0 -495 -159t-136 -448q0 -286 136 -444t495 -158z" />
    <glyph glyph-name="sterling" unicode="&#xa3;" horiz-adv-x="1325" 
d="M259 -29l-141 229q10 5 35.5 23t55 47t50 69t20.5 91q0 73 -10 128.5t-23.5 101.5t-28.5 90t-24.5 93.5t-9.5 112.5q0 73 25.5 145t86.5 131.5t165.5 95.5t262.5 36q142 0 238.5 -30.5t157.5 -77.5t94.5 -97t48.5 -88l-321 -116q-15 38 -41 72.5t-67 55.5t-106 21
q-53 0 -88 -18t-51.5 -53.5t-16.5 -89.5q0 -52 6.5 -99t16 -92t19 -92t15.5 -100.5t6 -116.5q0 -51 -16.5 -96t-40.5 -81q22 6 46.5 8.5t48.5 2.5q50 0 88 -5t71 -13.5t66.5 -14t73.5 -6.5q72 1 114 7t73 19l111 -258q-8 -4 -51 -10t-109 -11.5t-143 -6.5q-61 1 -105 9
t-83 18.5t-87.5 18.5t-120.5 7q-113 0 -196.5 -19t-114.5 -41zM59 552v228h899v-228h-899z" />
    <glyph glyph-name="currency" unicode="&#xa4;" horiz-adv-x="1428" 
d="M712 186q368 0 500 128t132 321t-132 324.5t-500 131.5t-501 -130t-133 -322q0 -194 133 -323.5t501 -129.5zM197 43l295 295l-174 139l-295 -294zM1224 43l174 140l-295 294l-174 -139zM712 419q-107 0 -170.5 44.5t-63.5 175.5q0 130 63.5 174.5t170.5 44.5t170 -44.5
t63 -174.5q0 -131 -63 -175.5t-170 -44.5zM318 793l174 139l-295 295l-174 -139zM1103 793l295 295l-174 139l-295 -295z" />
    <glyph glyph-name="yen" unicode="&#xa5;" horiz-adv-x="1483" 
d="M211 449h1062v211h-1062v-211zM211 165h1062v211h-1062v-211zM540 0h403v488l529 862h-438l-291 -547h-1l-294 547h-437l529 -861v-489z" />
    <glyph glyph-name="brokenbar" unicode="&#xa6;" horiz-adv-x="445" 
d="M54 -156h328v660h-328v-660zM54 764h328v658h-328v-658z" />
    <glyph glyph-name="section" unicode="&#xa7;" horiz-adv-x="1360" 
d="M681 -278q108 0 191.5 17t147 46.5t105.5 66t64 76.5t26 78q7 53 -9.5 95t-43.5 72t-55 50.5t-44 28.5q14 9 42 21t61.5 30t64 45.5t50.5 65.5t20 90q0 63 -36.5 114.5t-98.5 93.5t-138.5 78.5t-156.5 65.5q-79 32 -151 59t-129.5 52t-93 50t-38.5 51q-3 33 21.5 50
t73 23t117.5 6q64 0 111 -7t72 -24.5t25 -47.5v-45h336v55q0 53 -31.5 103.5t-98 90.5t-169.5 64t-248 24q-130 0 -228.5 -21.5t-164 -60t-100 -87t-37.5 -103.5q-3 -52 9 -93t35 -73.5t53.5 -56.5t65.5 -44q-26 -8 -67.5 -23.5t-83.5 -42.5t-71 -72.5t-29 -115.5
q0 -60 34.5 -108.5t93 -89.5t131.5 -75.5t150 -64.5q79 -31 154.5 -58t138 -52t100 -50t39.5 -52q7 -29 -18.5 -47t-75.5 -26.5t-117 -8.5t-113.5 9t-71 26t-24.5 44v45h-334v-55q0 -52 30 -102t95 -91t168.5 -65t250.5 -24zM868 350q-83 30 -168.5 63.5t-148.5 62.5
q-55 22 -98 44.5t-66.5 44.5t-24.5 43q1 23 13.5 41t32.5 32.5t43 24.5t43 17q65 -28 137.5 -56t134.5 -54q48 -17 90 -33t73.5 -32.5t49 -33t17.5 -34.5q0 -22 -13 -41.5t-33.5 -36t-42.5 -29t-39 -23.5z" />
    <glyph glyph-name="dieresis" unicode="&#xa8;" horiz-adv-x="945" 
d="M258 1178q44 0 75 31t31 75q0 45 -31 76t-75 31q-45 0 -76 -31t-31 -76q0 -44 31 -75t76 -31zM694 1178q45 0 75.5 31t30.5 75q0 45 -30.5 76t-75.5 31q-43 0 -74.5 -31t-31.5 -76q0 -44 31 -75t75 -31z" />
    <glyph glyph-name="copyright" unicode="&#xa9;" horiz-adv-x="1544" 
d="M765 -20q206 0 344.5 46t222 123.5t120 177t36.5 205.5v275q0 106 -36 205t-119 177t-222 123t-346 45q-204 0 -342.5 -45t-221.5 -122.5t-120 -176.5t-37 -206v-275q0 -106 37.5 -205t121 -177t221.5 -124t341 -46zM765 165q-131 0 -218.5 22.5t-140.5 60.5t-80.5 86.5
t-36.5 102.5t-9 107v250q0 46 8 97.5t33.5 101t78 90.5t142 65t223.5 24q138 0 227.5 -23.5t142 -63.5t78 -89.5t32.5 -102.5t7 -101v-256q0 -45 -6.5 -96t-31 -99.5t-77 -88t-142.5 -63.5t-230 -24zM761 262q75 0 144.5 15.5t124 46t86 78t31.5 111.5v78h-217v-34
q0 -17 -4 -34t-15.5 -31.5t-30.5 -25t-49 -17.5t-72 -7q-58 0 -91 11t-47 29.5t-18 41.5t-4 47v204q0 25 5 47.5t20.5 40.5t48 28t88.5 10q44 0 74.5 -6t49 -16t29 -24t13.5 -31t3 -36v-36h217v73q0 66 -30.5 114t-84 79.5t-123 46t-148.5 14.5q-76 0 -144.5 -16.5
t-120.5 -49.5t-82 -85.5t-30 -124.5v-282q0 -62 30 -110t81.5 -81.5t120 -50.5t145.5 -17z" />
    <glyph glyph-name="ordfeminine" unicode="&#xaa;" horiz-adv-x="780" 
d="M481 831h202v305q0 115 -65.5 171t-240.5 56q-150 0 -228.5 -32.5t-83.5 -95.5l141 -71q0 30 48.5 47t105.5 17q65 0 84 -18t19 -74v-269zM285 824q123 0 202 44t79 115l-103 29q0 -30 -30.5 -44t-93.5 -14q-38 0 -53.5 8t-15.5 30q0 19 23 28.5t62 11.5q47 2 138 3v112
q-113 0 -177 -5q-145 -6 -203 -45t-58 -112q0 -83 57.5 -122t172.5 -39z" />
    <glyph glyph-name="guillemotleft" unicode="&#xab;" horiz-adv-x="1478" 
d="M457 80h402l-416 414l416 414h-402l-414 -414zM1032 80h402l-417 414l417 414h-402l-415 -414z" />
    <glyph glyph-name="logicalnot" unicode="&#xac;" horiz-adv-x="1038" 
d="M726 146h249v471h-912v-243h663v-228z" />
    <glyph glyph-name="uni00AD" unicode="&#xad;" horiz-adv-x="692" 
d="M57 348h578v261h-578v-261z" />
    <glyph glyph-name="registered" unicode="&#xae;" horiz-adv-x="1452" 
d="M721 338q199 0 329.5 43.5t206 116.5t107.5 161t31 178v149q1 91 -30.5 180t-107.5 161t-206.5 115.5t-329.5 43.5q-160 0 -276 -30t-192.5 -81.5t-122.5 -116.5t-64.5 -135.5t-19.5 -136.5v-149q0 -65 19 -135t64.5 -134.5t123 -116t193 -82.5t275.5 -31zM721 517
q-146 0 -236.5 24t-140 67.5t-67.5 104t-19 133.5v126q1 58 12 109t39.5 92.5t80.5 72t133.5 46.5t197.5 16q118 0 199 -16t132 -46t80 -72t40 -93t10 -110v-128q1 -56 -9.5 -104.5t-39.5 -89.5t-80.5 -70.5t-132.5 -45.5t-199 -16zM437 608h188v227h140l49 -227h193
l-77 243q42 13 63 53.5t21 82.5v62q0 44 -16 81.5t-56 60.5t-110 23h-395v-606zM625 967v105h155q31 0 38.5 -8.5t7.5 -25.5v-35q0 -19 -8.5 -27.5t-36.5 -8.5h-156z" />
    <glyph glyph-name="macron" unicode="&#xaf;" horiz-adv-x="983" 
d="M110 1294h725v144h-725v-144z" />
    <glyph glyph-name="degree" unicode="&#xb0;" horiz-adv-x="319" 
d="M167 1132q59 0 100 42.5t41 101.5q0 60 -41 101.5t-100 41.5q-58 0 -99 -41.5t-41 -101.5q0 -59 41 -101.5t99 -42.5zM167 1240q-14 0 -24.5 10.5t-10.5 25.5q0 16 10.5 26.5t24.5 10.5t24 -10.5t10 -26.5q0 -15 -10 -25.5t-24 -10.5z" />
    <glyph glyph-name="plusminus" unicode="&#xb1;" horiz-adv-x="637" 
d="M199 385h256v182h166v238h-166v182h-256v-182h-167v-238h167v-182zM67 89h511v239h-511v-239z" />
    <glyph glyph-name="uni00B2" unicode="&#xb2;" horiz-adv-x="794" 
d="M52 750h684v130h-492q0 16 53 31.5t172 48.5q124 45 196.5 91t72.5 120q0 63 -64 127.5t-273 64.5q-206 0 -278.5 -68.5t-72.5 -145.5h182q0 40 44.5 62t125.5 22q74 0 114 -12t40 -53q0 -30 -45.5 -48.5t-176.5 -55.5q-143 -41 -212.5 -88t-69.5 -116v-110z" />
    <glyph glyph-name="uni00B3" unicode="&#xb3;" horiz-adv-x="812" 
d="M403 743q217 0 283.5 56t66.5 128q0 51 -35 88.5t-149 40.5q113 2 148.5 41t35.5 91q0 70 -66.5 122.5t-282.5 52.5q-209 0 -280 -66.5t-71 -152.5h181q0 50 43.5 71t127.5 21q83 0 124.5 -17.5t41.5 -61.5q0 -25 -44 -35t-161 -10v-118q118 0 161.5 -9.5t43.5 -33.5
q0 -43 -40.5 -62t-125.5 -19q-87 0 -129 20.5t-42 68.5h-181q0 -86 69.5 -151t280.5 -65z" />
    <glyph glyph-name="acute" unicode="&#xb4;" horiz-adv-x="696" 
d="M130 1206h179l255 229h-265z" />
    <glyph glyph-name="uni00B5" unicode="&#xb5;" horiz-adv-x="1370" 
d="M69 -444h399v787l-399 843v-1630zM960 0h306v1186h-399v-1002zM468 1186h-399v-625q0 -257 87.5 -413.5t330.5 -156.5q278 0 427.5 163.5t149.5 325.5l-195 73q0 -134 -69 -211.5t-165 -77.5q-88 0 -127.5 62t-39.5 256v604z" />
    <glyph glyph-name="paragraph" unicode="&#xb6;" horiz-adv-x="1353" 
d="M550 -156h256v1247h232v-1247h258v1506h-765q-170 0 -279.5 -43.5t-162.5 -125.5t-53 -199q0 -126 61 -208t172.5 -122.5t261.5 -40.5h19v-767z" />
    <glyph glyph-name="periodcentered" unicode="&#xb7;" horiz-adv-x="533" 
d="M77 784v-276h374v276h-374z" />
    <glyph glyph-name="cedilla" unicode="&#xb8;" horiz-adv-x="821" 
d="M368 -382q66 0 130.5 13.5t116 40.5t82.5 65.5t31 87.5q0 65 -46 98t-123 33q-60 0 -106 -17t-70 -42l-7 -63q11 9 31.5 16.5t40.5 7.5q24 0 35 -6t11 -21q0 -22 -30.5 -35t-93.5 -13q-43 0 -81.5 6.5t-66.5 12.5l-52 -162q50 -10 101.5 -16t96.5 -6zM376 -166l61 166
h-154l-47 -154z" />
    <glyph glyph-name="uni00B9" unicode="&#xb9;" horiz-adv-x="732" 
d="M53 750h629v130h-222v478h-151l-261 -58v-137l232 43v-326h-227v-130z" />
    <glyph glyph-name="ordmasculine" unicode="&#xba;" horiz-adv-x="751" 
d="M386 826q174 0 264 54t90 177v78q0 125 -90 179.5t-264 54.5q-175 0 -265.5 -55t-90.5 -179v-78q0 -122 91 -176.5t265 -54.5zM384 978q-53 0 -77 16t-24 59v87q0 43 24 59.5t77 16.5t78 -16.5t25 -59.5v-87q0 -43 -25 -59t-78 -16z" />
    <glyph glyph-name="guillemotright" unicode="&#xbb;" horiz-adv-x="1481" 
d="M621 80h403l414 414l-414 414h-403l416 -414zM45 80h403l415 414l-415 414h-403l418 -414z" />
    <glyph glyph-name="onequarter" unicode="&#xbc;" horiz-adv-x="2056" 
d="M53 750h629v130h-222v478h-151l-261 -58v-137l232 43v-326h-227v-130zM391 0h198l1011 1348h-198zM1705 0h181v122h123v122h-123v364h-280l-316 -362v-124h415v-122zM1496 244l198 243h11v-243h-209z" />
    <glyph glyph-name="onehalf" unicode="&#xbd;" horiz-adv-x="2052" 
d="M53 750h629v130h-222v478h-151l-261 -58v-137l232 43v-326h-227v-130zM391 0h198l1011 1348h-198zM1310 0h684v130h-492q0 16 53 31.5t172 48.5q124 45 196.5 91t72.5 120q0 63 -64 127.5t-273 64.5q-206 0 -278.5 -68.5t-72.5 -145.5h182q0 40 44.5 62t125.5 22
q74 0 114 -12t40 -53q0 -30 -45.5 -48.5t-176.5 -55.5q-143 -41 -212.5 -88t-69.5 -116v-110z" />
    <glyph glyph-name="threequarters" unicode="&#xbe;" horiz-adv-x="2135" 
d="M403 743q217 0 283.5 56t66.5 128q0 51 -35 88.5t-149 40.5q113 2 148.5 41t35.5 91q0 70 -66.5 122.5t-282.5 52.5q-209 0 -280 -66.5t-71 -152.5h181q0 50 43.5 71t127.5 21q83 0 124.5 -17.5t41.5 -61.5q0 -25 -44 -35t-161 -10v-118q118 0 161.5 -9.5t43.5 -33.5
q0 -43 -40.5 -62t-125.5 -19q-87 0 -129 20.5t-42 68.5h-181q0 -86 69.5 -151t280.5 -65zM471 0h198l1011 1348h-198zM1785 0h181v122h123v122h-123v364h-280l-316 -362v-124h415v-122zM1576 244l198 243h11v-243h-209z" />
    <glyph glyph-name="questiondown" unicode="&#xbf;" horiz-adv-x="1277" 
d="M824 732h-391q-1 -65 -28 -127.5t-130 -133.5q-88 -54 -156.5 -128.5t-68.5 -200.5q0 -158 131 -246t457 -88q308 0 452 103.5t144 358.5h-387q0 -113 -53 -162.5t-163 -49.5q-102 0 -145 28.5t-43 90.5q0 51 48.5 90.5t123.5 88.5q103 63 156 150t53 226zM812 912v274
h-374v-274h374z" />
    <glyph glyph-name="Agrave" unicode="&#xc0;" horiz-adv-x="1522" 
d="M56 0h416l80 307h421l78 -307h416l-421 1351h-570zM617 571l144 545h4l144 -545h-292zM798 1402h179l-170 229h-265z" />
    <glyph glyph-name="Aacute" unicode="&#xc1;" horiz-adv-x="1522" 
d="M56 0h416l80 307h421l78 -307h416l-421 1351h-570zM617 571l144 545h4l144 -545h-292zM543 1392h179l255 229h-265z" />
    <glyph glyph-name="Acircumflex" unicode="&#xc2;" horiz-adv-x="1522" 
d="M56 0h416l80 307h421l78 -307h416l-421 1351h-570zM617 571l144 545h4l144 -545h-292zM406 1403h226l129 144l128 -144h226l-229 221h-252z" />
    <glyph glyph-name="Atilde" unicode="&#xc3;" horiz-adv-x="1522" 
d="M56 0h416l80 307h421l78 -307h416l-421 1351h-570zM617 571l144 545h4l144 -545h-292zM908 1406q63 0 105 17.5t68 45.5t40 59.5t19 61t5 48.5h-190q0 -14 -8 -32.5t-25 -32t-43 -13.5q-30 0 -55 13t-52.5 30.5t-61.5 30.5t-82 13q-65 0 -109 -17t-70.5 -44.5t-40 -59
t-18 -60.5t-6.5 -48h192q0 14 6.5 33t23.5 32t47 13q29 0 54.5 -14t53.5 -31.5t63 -31t84 -13.5z" />
    <glyph glyph-name="Adieresis" unicode="&#xc4;" horiz-adv-x="1522" 
d="M56 0h416l80 307h421l78 -307h416l-421 1351h-570zM617 571l144 545h4l144 -545h-292zM539 1408q44 0 75 31t31 75q0 45 -31 76t-75 31q-45 0 -76 -31t-31 -76q0 -44 31 -75t76 -31zM975 1408q45 0 75.5 31t30.5 75q0 45 -30.5 76t-75.5 31q-43 0 -74.5 -31t-31.5 -76
q0 -44 31 -75t75 -31z" />
    <glyph glyph-name="Aring" unicode="&#xc5;" horiz-adv-x="1522" 
d="M56 0h416l80 307h421l78 -307h416l-421 1351h-570zM617 571l144 545h4l144 -545h-292zM760 1392q79 0 133 55t54 134q0 81 -54 134.5t-133 53.5q-80 0 -133.5 -53.5t-53.5 -134.5q0 -80 53.5 -134.5t133.5 -54.5zM760 1530q-19 0 -33.5 15.5t-14.5 35.5q0 22 14.5 35.5
t33.5 13.5q20 0 34 -13.5t14 -35.5q0 -20 -14 -35.5t-34 -15.5z" />
    <glyph glyph-name="AE" unicode="&#xc6;" horiz-adv-x="2096" 
d="M56 0h424l592 1208v142h-346zM423 246h642v266h-564zM979 0h1031v273h-626v278h578v260h-578v266h626v273h-1031v-1350z" />
    <glyph glyph-name="Ccedilla" unicode="&#xc7;" horiz-adv-x="1411" 
d="M700 -8q391 0 515 174.5t124 387.5h-409q0 -180 -61.5 -234.5t-171.5 -54.5q-113 0 -182 63t-69 351q0 286 69.5 348t181.5 62q111 0 172 -53t61 -236h409q0 220 -123.5 391.5t-515.5 171.5q-388 0 -525.5 -179.5t-137.5 -504.5t137.5 -506t525.5 -181zM711 -382
q66 0 130.5 13.5t116 40.5t82.5 65.5t31 87.5q0 65 -46 98t-123 33q-60 0 -106 -17t-70 -42l-7 -63q11 9 31.5 16.5t40.5 7.5q24 0 35 -6t11 -21q0 -22 -30.5 -35t-93.5 -13q-43 0 -81.5 6.5t-66.5 12.5l-52 -162q50 -10 101.5 -16t96.5 -6zM719 -166l61 166h-154l-47 -154z
" />
    <glyph glyph-name="Egrave" unicode="&#xc8;" horiz-adv-x="1186" 
d="M69 0h1032v273h-627v278h578v260h-578v266h627v273h-1032v-1350zM620 1402h179l-170 229h-265z" />
    <glyph glyph-name="Eacute" unicode="&#xc9;" horiz-adv-x="1186" 
d="M69 0h1032v273h-627v278h578v260h-578v266h627v273h-1032v-1350zM364 1392h179l255 229h-265z" />
    <glyph glyph-name="Ecircumflex" unicode="&#xca;" horiz-adv-x="1186" 
d="M69 0h1032v273h-627v278h578v260h-578v266h627v273h-1032v-1350zM226 1403h226l129 144l128 -144h226l-229 221h-252z" />
    <glyph glyph-name="Edieresis" unicode="&#xcb;" horiz-adv-x="1186" 
d="M69 0h1032v273h-627v278h578v260h-578v266h627v273h-1032v-1350zM360 1408q44 0 75 31t31 75q0 45 -31 76t-75 31q-45 0 -76 -31t-31 -76q0 -44 31 -75t76 -31zM796 1408q45 0 75.5 31t30.5 75q0 45 -30.5 76t-75.5 31q-43 0 -74.5 -31t-31.5 -76q0 -44 31 -75t75 -31z
" />
    <glyph glyph-name="Igrave" unicode="&#xcc;" horiz-adv-x="663" 
d="M123 0h402v1350h-402v-1350zM363 1402h179l-170 229h-265z" />
    <glyph glyph-name="Iacute" unicode="&#xcd;" horiz-adv-x="663" 
d="M123 0h402v1350h-402v-1350zM108 1392h179l255 229h-265z" />
    <glyph glyph-name="Icircumflex" unicode="&#xce;" horiz-adv-x="663" 
d="M123 0h402v1350h-402v-1350zM-31 1403h226l129 144l128 -144h226l-229 221h-252z" />
    <glyph glyph-name="Idieresis" unicode="&#xcf;" horiz-adv-x="663" 
d="M123 0h402v1350h-402v-1350zM104 1408q44 0 75 31t31 75q0 45 -31 76t-75 31q-45 0 -76 -31t-31 -76q0 -44 31 -75t76 -31zM540 1408q45 0 75.5 31t30.5 75q0 45 -30.5 76t-75.5 31q-43 0 -74.5 -31t-31.5 -76q0 -44 31 -75t75 -31z" />
    <glyph glyph-name="Eth" unicode="&#xd0;" horiz-adv-x="1449" 
d="M-21 546h729v261h-729v-261zM122 0h753q292 0 404 152.5t112 523.5q0 370 -111.5 522t-404.5 152h-753v-1350zM525 273v804h239q116 0 170 -59t54 -342q0 -284 -54 -343.5t-170 -59.5h-239z" />
    <glyph glyph-name="Ntilde" unicode="&#xd1;" horiz-adv-x="1662" 
d="M78 0h401v1065h5l433 -1065h635v1350h-402l-4 -1044h-3l-424 1044h-641v-1350zM972 1406q63 0 105 17.5t68 45.5t40 59.5t19 61t5 48.5h-190q0 -14 -8 -32.5t-25 -32t-43 -13.5q-30 0 -55 13t-52.5 30.5t-61.5 30.5t-82 13q-65 0 -109 -17t-70.5 -44.5t-40 -59t-18 -60.5
t-6.5 -48h192q0 14 6.5 33t23.5 32t47 13q29 0 54.5 -14t53.5 -31.5t63 -31t84 -13.5z" />
    <glyph glyph-name="Ograve" unicode="&#xd2;" horiz-adv-x="1459" 
d="M726 -12q387 0 531.5 178t144.5 509t-144.5 509.5t-531.5 178.5t-531 -178t-144 -510q0 -331 144.5 -509t530.5 -178zM726 262q-124 0 -198.5 64.5t-74.5 348.5q0 289 74.5 351.5t198.5 62.5q125 0 199 -62.5t74 -351.5q0 -284 -74 -348.5t-199 -64.5zM767 1402h179
l-170 229h-265z" />
    <glyph glyph-name="Oacute" unicode="&#xd3;" horiz-adv-x="1459" 
d="M726 -12q387 0 531.5 178t144.5 509t-144.5 509.5t-531.5 178.5t-531 -178t-144 -510q0 -331 144.5 -509t530.5 -178zM726 262q-124 0 -198.5 64.5t-74.5 348.5q0 289 74.5 351.5t198.5 62.5q125 0 199 -62.5t74 -351.5q0 -284 -74 -348.5t-199 -64.5zM511 1392h179
l255 229h-265z" />
    <glyph glyph-name="Ocircumflex" unicode="&#xd4;" horiz-adv-x="1459" 
d="M726 -12q387 0 531.5 178t144.5 509t-144.5 509.5t-531.5 178.5t-531 -178t-144 -510q0 -331 144.5 -509t530.5 -178zM726 262q-124 0 -198.5 64.5t-74.5 348.5q0 289 74.5 351.5t198.5 62.5q125 0 199 -62.5t74 -351.5q0 -284 -74 -348.5t-199 -64.5zM375 1403h226
l129 144l128 -144h226l-229 221h-252z" />
    <glyph glyph-name="Otilde" unicode="&#xd5;" horiz-adv-x="1459" 
d="M726 -12q387 0 531.5 178t144.5 509t-144.5 509.5t-531.5 178.5t-531 -178t-144 -510q0 -331 144.5 -509t530.5 -178zM726 262q-124 0 -198.5 64.5t-74.5 348.5q0 289 74.5 351.5t198.5 62.5q125 0 199 -62.5t74 -351.5q0 -284 -74 -348.5t-199 -64.5zM877 1406
q63 0 105 17.5t68 45.5t40 59.5t19 61t5 48.5h-190q0 -14 -8 -32.5t-25 -32t-43 -13.5q-30 0 -55 13t-52.5 30.5t-61.5 30.5t-82 13q-65 0 -109 -17t-70.5 -44.5t-40 -59t-18 -60.5t-6.5 -48h192q0 14 6.5 33t23.5 32t47 13q29 0 54.5 -14t53.5 -31.5t63 -31t84 -13.5z" />
    <glyph glyph-name="Odieresis" unicode="&#xd6;" horiz-adv-x="1459" 
d="M726 -12q387 0 531.5 178t144.5 509t-144.5 509.5t-531.5 178.5t-531 -178t-144 -510q0 -331 144.5 -509t530.5 -178zM726 262q-124 0 -198.5 64.5t-74.5 348.5q0 289 74.5 351.5t198.5 62.5q125 0 199 -62.5t74 -351.5q0 -284 -74 -348.5t-199 -64.5zM508 1408
q44 0 75 31t31 75q0 45 -31 76t-75 31q-45 0 -76 -31t-31 -76q0 -44 31 -75t76 -31zM944 1408q45 0 75.5 31t30.5 75q0 45 -30.5 76t-75.5 31q-43 0 -74.5 -31t-31.5 -76q0 -44 31 -75t75 -31z" />
    <glyph glyph-name="multiply" unicode="&#xd7;" horiz-adv-x="656" 
d="M474 171l169 169l-441 449l-169 -167zM202 171l440 451l-168 167l-441 -449z" />
    <glyph glyph-name="Oslash" unicode="&#xd8;" horiz-adv-x="1410" 
d="M25 0h206l1161 1348h-203zM726 -12q387 0 531.5 178t144.5 509t-144.5 509.5t-531.5 178.5t-531 -178t-144 -510q0 -331 144.5 -509t530.5 -178zM726 262q-124 0 -198.5 64.5t-74.5 348.5q0 289 74.5 351.5t198.5 62.5q125 0 199 -62.5t74 -351.5q0 -284 -74 -348.5
t-199 -64.5z" />
    <glyph glyph-name="Ugrave" unicode="&#xd9;" horiz-adv-x="1463" 
d="M723 -7q328 0 487 108t159 361v888h-404v-845q0 -128 -56 -183.5t-186 -55.5t-185.5 56t-55.5 183v845h-404v-888q0 -253 159 -361t486 -108zM768 1402h179l-170 229h-265z" />
    <glyph glyph-name="Uacute" unicode="&#xda;" horiz-adv-x="1463" 
d="M723 -7q328 0 487 108t159 361v888h-404v-845q0 -128 -56 -183.5t-186 -55.5t-185.5 56t-55.5 183v845h-404v-888q0 -253 159 -361t486 -108zM513 1392h179l255 229h-265z" />
    <glyph glyph-name="Ucircumflex" unicode="&#xdb;" horiz-adv-x="1463" 
d="M723 -7q328 0 487 108t159 361v888h-404v-845q0 -128 -56 -183.5t-186 -55.5t-185.5 56t-55.5 183v845h-404v-888q0 -253 159 -361t486 -108zM375 1403h226l129 144l128 -144h226l-229 221h-252z" />
    <glyph glyph-name="Udieresis" unicode="&#xdc;" horiz-adv-x="1463" 
d="M723 -7q328 0 487 108t159 361v888h-404v-845q0 -128 -56 -183.5t-186 -55.5t-185.5 56t-55.5 183v845h-404v-888q0 -253 159 -361t486 -108zM509 1408q44 0 75 31t31 75q0 45 -31 76t-75 31q-45 0 -76 -31t-31 -76q0 -44 31 -75t76 -31zM945 1408q45 0 75.5 31t30.5 75
q0 45 -30.5 76t-75.5 31q-43 0 -74.5 -31t-31.5 -76q0 -44 31 -75t75 -31z" />
    <glyph glyph-name="Yacute" unicode="&#xdd;" horiz-adv-x="1483" 
d="M540 0h403v488l529 862h-438l-291 -547h-1l-294 547h-437l529 -861v-489zM523 1392h179l255 229h-265z" />
    <glyph glyph-name="Thorn" unicode="&#xde;" horiz-adv-x="1341" 
d="M66 0h400v228h485q114 0 183.5 32t100.5 100.5t31 178.5v284q0 102 -33.5 170.5t-103 103.5t-178.5 35h-485v218h-400v-1350zM466 486v387h331q28 0 42.5 -12t20 -33t5.5 -50v-189q0 -32 -5.5 -55t-20 -35.5t-42.5 -12.5h-331z" />
    <glyph glyph-name="germandbls" unicode="&#xdf;" horiz-adv-x="1444" 
d="M78 0h400v950q0 52 12.5 97t39.5 80t71.5 54t109.5 19q103 0 145.5 -40.5t42.5 -100.5q0 -39 -16 -71t-36.5 -65.5t-36.5 -73.5t-16 -94q0 -42 15 -76.5t37.5 -64.5t45 -58t37 -58t14.5 -64q0 -39 -16 -70t-55.5 -52t-104.5 -32t-162 -11v-269q200 0 345 22.5t238.5 70
t139 123.5t45.5 183q0 64 -19 111.5t-48 82.5t-57.5 63t-47.5 52t-19 49q0 32 17.5 62.5t40.5 65.5t41 83t18 117q0 72 -33 140.5t-104 123.5t-184 86.5t-272 31.5q-171 0 -290.5 -41t-194 -115.5t-109 -173t-34.5 -213.5v-924z" />
    <glyph glyph-name="agrave" unicode="&#xe0;" horiz-adv-x="1400" 
d="M535 -13q72 0 137 12t118 32t90.5 45t55.5 53l35 -129h332v733q0 170 -70.5 271.5t-208.5 147.5t-341 46q-107 0 -207.5 -17t-183.5 -53.5t-141.5 -97.5t-81.5 -149l390 -110q16 62 50 97t80 49t96 14q68 0 116 -16.5t74 -55t26 -105.5v-35h-368q-120 0 -210 -19.5
t-149.5 -61.5t-89 -110.5t-29.5 -168.5q0 -106 31 -178t93 -114.5t151 -61t205 -18.5zM625 241q-37 0 -68 6t-53 20.5t-33.5 40t-11.5 66.5q0 42 11 68t32.5 39t53.5 18.5t72 5.5h267v-166q-20 -27 -61.5 -49.5t-95.5 -35.5t-113 -13zM720 1231h179l-170 229h-265z" />
    <glyph glyph-name="aacute" unicode="&#xe1;" horiz-adv-x="1400" 
d="M535 -13q72 0 137 12t118 32t90.5 45t55.5 53l35 -129h332v733q0 170 -70.5 271.5t-208.5 147.5t-341 46q-107 0 -207.5 -17t-183.5 -53.5t-141.5 -97.5t-81.5 -149l390 -110q16 62 50 97t80 49t96 14q68 0 116 -16.5t74 -55t26 -105.5v-35h-368q-120 0 -210 -19.5
t-149.5 -61.5t-89 -110.5t-29.5 -168.5q0 -106 31 -178t93 -114.5t151 -61t205 -18.5zM625 241q-37 0 -68 6t-53 20.5t-33.5 40t-11.5 66.5q0 42 11 68t32.5 39t53.5 18.5t72 5.5h267v-166q-20 -27 -61.5 -49.5t-95.5 -35.5t-113 -13zM464 1228h179l255 229h-265z" />
    <glyph glyph-name="acircumflex" unicode="&#xe2;" horiz-adv-x="1400" 
d="M535 -13q72 0 137 12t118 32t90.5 45t55.5 53l35 -129h332v733q0 170 -70.5 271.5t-208.5 147.5t-341 46q-107 0 -207.5 -17t-183.5 -53.5t-141.5 -97.5t-81.5 -149l390 -110q16 62 50 97t80 49t96 14q68 0 116 -16.5t74 -55t26 -105.5v-35h-368q-120 0 -210 -19.5
t-149.5 -61.5t-89 -110.5t-29.5 -168.5q0 -106 31 -178t93 -114.5t151 -61t205 -18.5zM625 241q-37 0 -68 6t-53 20.5t-33.5 40t-11.5 66.5q0 42 11 68t32.5 39t53.5 18.5t72 5.5h267v-166q-20 -27 -61.5 -49.5t-95.5 -35.5t-113 -13zM327 1240h226l129 144l128 -144h226
l-229 221h-252z" />
    <glyph glyph-name="atilde" unicode="&#xe3;" horiz-adv-x="1400" 
d="M535 -13q72 0 137 12t118 32t90.5 45t55.5 53l35 -129h332v733q0 170 -70.5 271.5t-208.5 147.5t-341 46q-107 0 -207.5 -17t-183.5 -53.5t-141.5 -97.5t-81.5 -149l390 -110q16 62 50 97t80 49t96 14q68 0 116 -16.5t74 -55t26 -105.5v-35h-368q-120 0 -210 -19.5
t-149.5 -61.5t-89 -110.5t-29.5 -168.5q0 -106 31 -178t93 -114.5t151 -61t205 -18.5zM625 241q-37 0 -68 6t-53 20.5t-33.5 40t-11.5 66.5q0 42 11 68t32.5 39t53.5 18.5t72 5.5h267v-166q-20 -27 -61.5 -49.5t-95.5 -35.5t-113 -13zM829 1243q63 0 105 17.5t68 45.5
t40 59.5t19 61t5 48.5h-190q0 -14 -8 -32.5t-25 -32t-43 -13.5q-30 0 -55 13t-52.5 30.5t-61.5 30.5t-82 13q-65 0 -109 -17t-70.5 -44.5t-40 -59t-18 -60.5t-6.5 -48h192q0 14 6.5 33t23.5 32t47 13q29 0 54.5 -14t53.5 -31.5t63 -31t84 -13.5z" />
    <glyph glyph-name="adieresis" unicode="&#xe4;" horiz-adv-x="1400" 
d="M535 -13q72 0 137 12t118 32t90.5 45t55.5 53l35 -129h332v733q0 170 -70.5 271.5t-208.5 147.5t-341 46q-107 0 -207.5 -17t-183.5 -53.5t-141.5 -97.5t-81.5 -149l390 -110q16 62 50 97t80 49t96 14q68 0 116 -16.5t74 -55t26 -105.5v-35h-368q-120 0 -210 -19.5
t-149.5 -61.5t-89 -110.5t-29.5 -168.5q0 -106 31 -178t93 -114.5t151 -61t205 -18.5zM625 241q-37 0 -68 6t-53 20.5t-33.5 40t-11.5 66.5q0 42 11 68t32.5 39t53.5 18.5t72 5.5h267v-166q-20 -27 -61.5 -49.5t-95.5 -35.5t-113 -13zM461 1245q44 0 75 31t31 75
q0 45 -31 76t-75 31q-45 0 -76 -31t-31 -76q0 -44 31 -75t76 -31zM897 1245q45 0 75.5 31t30.5 75q0 45 -30.5 76t-75.5 31q-43 0 -74.5 -31t-31.5 -76q0 -44 31 -75t75 -31z" />
    <glyph glyph-name="aring" unicode="&#xe5;" horiz-adv-x="1400" 
d="M535 -13q72 0 137 12t118 32t90.5 45t55.5 53l35 -129h332v733q0 170 -70.5 271.5t-208.5 147.5t-341 46q-107 0 -207.5 -17t-183.5 -53.5t-141.5 -97.5t-81.5 -149l390 -110q16 62 50 97t80 49t96 14q68 0 116 -16.5t74 -55t26 -105.5v-35h-368q-120 0 -210 -19.5
t-149.5 -61.5t-89 -110.5t-29.5 -168.5q0 -106 31 -178t93 -114.5t151 -61t205 -18.5zM625 241q-37 0 -68 6t-53 20.5t-33.5 40t-11.5 66.5q0 42 11 68t32.5 39t53.5 18.5t72 5.5h267v-166q-20 -27 -61.5 -49.5t-95.5 -35.5t-113 -13zM682 1229q79 0 133 55t54 134
q0 81 -54 134.5t-133 53.5q-80 0 -133.5 -53.5t-53.5 -134.5q0 -80 53.5 -134.5t133.5 -54.5zM682 1367q-19 0 -33.5 15.5t-14.5 35.5q0 22 14.5 35.5t33.5 13.5q20 0 34 -13.5t14 -35.5q0 -20 -14 -35.5t-34 -15.5z" />
    <glyph glyph-name="ae" unicode="&#xe6;" horiz-adv-x="2243" 
d="M1270 417v288q0 228 -125.5 360t-452.5 132t-437.5 -102.5t-161.5 -238.5l381 -112q29 129 80 164.5t141 35.5q96 0 151.5 -46t55.5 -160v-465l60 -24zM530 -13q277 0 429 84.5t166 262.5l-220 120q0 -131 -64 -178.5t-182 -47.5t-153.5 32.5t-35.5 82.5q0 64 42.5 91
t162.5 27h242v224h-378q-216 0 -350 -68t-134 -273q0 -185 131 -271t344 -86zM1544 -12v256q-117 0 -188 66q-71 64 -71 282q0 217 70 284t183 67q112 0 175 -59q43 -47 56 -170h-519v-239h915q8 52 8 117q0 274 -135 441q-134 166 -501 166q-357 0 -497 -163
q-141 -163 -141 -443q0 -277 141 -441q140 -164 504 -164zM1544 244v-256q192 0 297 33q107 32 187 98q78 65 102 180l-356 101q-23 -52 -50 -89q-26 -36 -68 -51q-42 -16 -112 -16z" />
    <glyph glyph-name="ccedilla" unicode="&#xe7;" horiz-adv-x="1320" 
d="M672 -12q316 0 435.5 126t141.5 254l-355 130q-9 -124 -68 -180.5t-154 -56.5q-93 0 -159 63.5t-66 265.5q0 207 65.5 270t159.5 63q96 0 154.5 -55.5t67.5 -186.5l355 125q-22 135 -141.5 263t-435.5 128q-359 0 -495.5 -159t-136.5 -448q0 -287 136.5 -444.5
t495.5 -157.5zM689 -382q66 0 130.5 13.5t116 40.5t82.5 65.5t31 87.5q0 65 -46 98t-123 33q-60 0 -106 -17t-70 -42l-7 -63q11 9 31.5 16.5t40.5 7.5q24 0 35 -6t11 -21q0 -22 -30.5 -35t-93.5 -13q-43 0 -81.5 6.5t-66.5 12.5l-52 -162q50 -10 101.5 -16t96.5 -6z
M697 -166l61 166h-154l-47 -154z" />
    <glyph glyph-name="egrave" unicode="&#xe8;" horiz-adv-x="1396" 
d="M696 -12v256q-117 0 -188 66q-72 64 -72 282q0 217 71 284t182 67q114 0 177 -59q42 -47 55 -170h-519v-239h915q7 52 7 117q0 274 -133 441q-136 166 -503 166q-355 0 -496 -163q-142 -163 -142 -443q0 -277 142 -441q140 -164 504 -164zM696 244v-256q191 0 298 33
q106 32 185 98q79 65 103 180l-356 101q-24 -52 -49 -89q-26 -36 -69 -51q-43 -16 -112 -16zM728 1230h179l-170 229h-265z" />
    <glyph glyph-name="eacute" unicode="&#xe9;" horiz-adv-x="1396" 
d="M696 -12v256q-117 0 -188 66q-72 64 -72 282q0 217 71 284t182 67q114 0 177 -59q42 -47 55 -170h-519v-239h915q7 52 7 117q0 274 -133 441q-136 166 -503 166q-355 0 -496 -163q-142 -163 -142 -443q0 -277 142 -441q140 -164 504 -164zM696 244v-256q191 0 298 33
q106 32 185 98q79 65 103 180l-356 101q-24 -52 -49 -89q-26 -36 -69 -51q-43 -16 -112 -16zM473 1227h179l255 229h-265z" />
    <glyph glyph-name="ecircumflex" unicode="&#xea;" horiz-adv-x="1396" 
d="M696 -12v256q-117 0 -188 66q-72 64 -72 282q0 217 71 284t182 67q114 0 177 -59q42 -47 55 -170h-519v-239h915q7 52 7 117q0 274 -133 441q-136 166 -503 166q-355 0 -496 -163q-142 -163 -142 -443q0 -277 142 -441q140 -164 504 -164zM696 244v-256q191 0 298 33
q106 32 185 98q79 65 103 180l-356 101q-24 -52 -49 -89q-26 -36 -69 -51q-43 -16 -112 -16zM335 1239h226l129 144l128 -144h226l-229 221h-252z" />
    <glyph glyph-name="edieresis" unicode="&#xeb;" horiz-adv-x="1396" 
d="M696 -12v256q-117 0 -188 66q-72 64 -72 282q0 217 71 284t182 67q114 0 177 -59q42 -47 55 -170h-519v-239h915q7 52 7 117q0 274 -133 441q-136 166 -503 166q-355 0 -496 -163q-142 -163 -142 -443q0 -277 142 -441q140 -164 504 -164zM696 244v-256q191 0 298 33
q106 32 185 98q79 65 103 180l-356 101q-24 -52 -49 -89q-26 -36 -69 -51q-43 -16 -112 -16zM469 1244q44 0 75 31t31 75q0 45 -31 76t-75 31q-45 0 -76 -31t-31 -76q0 -44 31 -75t76 -31zM905 1244q45 0 75.5 31t30.5 75q0 45 -30.5 76t-75.5 31q-43 0 -74.5 -31t-31.5 -76
q0 -44 31 -75t75 -31z" />
    <glyph glyph-name="igrave" unicode="&#xec;" horiz-adv-x="607" 
d="M89 0h402v1186h-402v-1186zM329 1230h179l-170 229h-265z" />
    <glyph glyph-name="iacute" unicode="&#xed;" horiz-adv-x="607" 
d="M89 0h402v1186h-402v-1186zM74 1227h179l255 229h-265z" />
    <glyph glyph-name="icircumflex" unicode="&#xee;" horiz-adv-x="607" 
d="M89 0h402v1186h-402v-1186zM-64 1239h226l129 144l128 -144h226l-229 221h-252z" />
    <glyph glyph-name="idieresis" unicode="&#xef;" horiz-adv-x="607" 
d="M89 0h402v1186h-402v-1186zM70 1244q44 0 75 31t31 75q0 45 -31 76t-75 31q-45 0 -76 -31t-31 -76q0 -44 31 -75t76 -31zM506 1244q45 0 75.5 31t30.5 75q0 45 -30.5 76t-75.5 31q-43 0 -74.5 -31t-31.5 -76q0 -44 31 -75t75 -31z" />
    <glyph glyph-name="eth" unicode="&#xf0;" horiz-adv-x="1399" 
d="M690 -9q368 0 502 166.5t134 443.5q0 224 -167.5 409t-485.5 185q-368 0 -494.5 -164t-126.5 -435t135.5 -438t502.5 -167zM690 264q-115 0 -177 67.5t-62 264.5t62 266t177 69q116 0 176.5 -68.5t60.5 -266.5q0 -197 -60.5 -264.5t-176.5 -67.5zM1326 654
q0 94 -18.5 190t-57.5 180t-98 137q-47 108 -121.5 187t-173.5 130t-222 77t-270 29l-81 -230q145 0 257 -17t193 -55t132 -100t76 -154.5t25 -217.5zM662 1233l187 366l-209 38l-195 -369z" />
    <glyph glyph-name="ntilde" unicode="&#xf1;" horiz-adv-x="1374" 
d="M80 0h399v999l-92 187h-307v-1186zM866 0h399v611q0 258 -89.5 421t-328.5 163q-258 0 -417 -163t-159 -326l194 -81q0 134 67.5 215.5t162.5 81.5q88 0 129.5 -62t41.5 -255v-605zM831 1242q63 0 105 17.5t68 45.5t40 59.5t19 61t5 48.5h-190q0 -14 -8 -32.5t-25 -32
t-43 -13.5q-30 0 -55 13t-52.5 30.5t-61.5 30.5t-82 13q-65 0 -109 -17t-70.5 -44.5t-40 -59t-18 -60.5t-6.5 -48h192q0 14 6.5 33t23.5 32t47 13q29 0 54.5 -14t53.5 -31.5t63 -31t84 -13.5z" />
    <glyph glyph-name="ograve" unicode="&#xf2;" horiz-adv-x="1400" 
d="M691 -9q355 0 498 161.5t143 445.5q0 286 -143 444t-498 158q-353 0 -496.5 -158t-143.5 -444q0 -284 143.5 -445.5t496.5 -161.5zM691 260q-106 0 -173.5 62.5t-67.5 274.5q0 211 67.5 272.5t173.5 61.5q107 0 174.5 -61.5t67.5 -272.5q0 -212 -67.5 -274.5
t-174.5 -62.5zM731 1231h179l-170 229h-265z" />
    <glyph glyph-name="oacute" unicode="&#xf3;" horiz-adv-x="1400" 
d="M691 -9q355 0 498 161.5t143 445.5q0 286 -143 444t-498 158q-353 0 -496.5 -158t-143.5 -444q0 -284 143.5 -445.5t496.5 -161.5zM691 260q-106 0 -173.5 62.5t-67.5 274.5q0 211 67.5 272.5t173.5 61.5q107 0 174.5 -61.5t67.5 -272.5q0 -212 -67.5 -274.5
t-174.5 -62.5zM474 1228h179l255 229h-265z" />
    <glyph glyph-name="ocircumflex" unicode="&#xf4;" horiz-adv-x="1400" 
d="M691 -9q355 0 498 161.5t143 445.5q0 286 -143 444t-498 158q-353 0 -496.5 -158t-143.5 -444q0 -284 143.5 -445.5t496.5 -161.5zM691 260q-106 0 -173.5 62.5t-67.5 274.5q0 211 67.5 272.5t173.5 61.5q107 0 174.5 -61.5t67.5 -272.5q0 -212 -67.5 -274.5
t-174.5 -62.5zM337 1240h226l129 144l128 -144h226l-229 221h-252z" />
    <glyph glyph-name="otilde" unicode="&#xf5;" horiz-adv-x="1400" 
d="M691 -9q355 0 498 161.5t143 445.5q0 286 -143 444t-498 158q-353 0 -496.5 -158t-143.5 -444q0 -284 143.5 -445.5t496.5 -161.5zM691 260q-106 0 -173.5 62.5t-67.5 274.5q0 211 67.5 272.5t173.5 61.5q107 0 174.5 -61.5t67.5 -272.5q0 -212 -67.5 -274.5
t-174.5 -62.5zM839 1243q63 0 105 17.5t68 45.5t40 59.5t19 61t5 48.5h-190q0 -14 -8 -32.5t-25 -32t-43 -13.5q-30 0 -55 13t-52.5 30.5t-61.5 30.5t-82 13q-65 0 -109 -17t-70.5 -44.5t-40 -59t-18 -60.5t-6.5 -48h192q0 14 6.5 33t23.5 32t47 13q29 0 54.5 -14
t53.5 -31.5t63 -31t84 -13.5z" />
    <glyph glyph-name="odieresis" unicode="&#xf6;" horiz-adv-x="1400" 
d="M691 -9q355 0 498 161.5t143 445.5q0 286 -143 444t-498 158q-353 0 -496.5 -158t-143.5 -444q0 -284 143.5 -445.5t496.5 -161.5zM691 260q-106 0 -173.5 62.5t-67.5 274.5q0 211 67.5 272.5t173.5 61.5q107 0 174.5 -61.5t67.5 -272.5q0 -212 -67.5 -274.5
t-174.5 -62.5zM471 1245q44 0 75 31t31 75q0 45 -31 76t-75 31q-45 0 -76 -31t-31 -76q0 -44 31 -75t76 -31zM907 1245q45 0 75.5 31t30.5 75q0 45 -30.5 76t-75.5 31q-43 0 -74.5 -31t-31.5 -76q0 -44 31 -75t75 -31z" />
    <glyph glyph-name="divide" unicode="&#xf7;" horiz-adv-x="631" 
d="M35 361h571v234h-571v-234zM328 -14q50 0 84 36t34 89q0 50 -34 85.5t-84 35.5q-55 0 -91 -35.5t-36 -85.5q0 -53 36 -89t91 -36zM328 722q50 0 84 37t34 89q0 50 -34 85t-84 35q-55 0 -91 -35.5t-36 -84.5q0 -52 36 -89t91 -37z" />
    <glyph glyph-name="oslash" unicode="&#xf8;" horiz-adv-x="1399" 
d="M-23 22l124 -103l1283 1259l-132 93zM691 -9q355 0 498 161.5t143 445.5q0 286 -143 444t-498 158q-353 0 -496.5 -158t-143.5 -444q0 -284 143.5 -445.5t496.5 -161.5zM691 260q-106 0 -173.5 62.5t-67.5 274.5q0 211 67.5 272.5t173.5 61.5q107 0 174.5 -61.5
t67.5 -272.5q0 -212 -67.5 -274.5t-174.5 -62.5z" />
    <glyph glyph-name="ugrave" unicode="&#xf9;" horiz-adv-x="1372" 
d="M960 0h306v1186h-399v-1002zM468 1186h-399v-625q0 -257 87.5 -413.5t330.5 -156.5q278 0 427.5 163.5t149.5 325.5l-195 73q0 -134 -69 -211.5t-165 -77.5q-88 0 -127.5 62t-39.5 256v604zM717 1230h179l-170 229h-265z" />
    <glyph glyph-name="uacute" unicode="&#xfa;" horiz-adv-x="1372" 
d="M960 0h306v1186h-399v-1002zM468 1186h-399v-625q0 -257 87.5 -413.5t330.5 -156.5q278 0 427.5 163.5t149.5 325.5l-195 73q0 -134 -69 -211.5t-165 -77.5q-88 0 -127.5 62t-39.5 256v604zM461 1227h179l255 229h-265z" />
    <glyph glyph-name="ucircumflex" unicode="&#xfb;" horiz-adv-x="1372" 
d="M960 0h306v1186h-399v-1002zM468 1186h-399v-625q0 -257 87.5 -413.5t330.5 -156.5q278 0 427.5 163.5t149.5 325.5l-195 73q0 -134 -69 -211.5t-165 -77.5q-88 0 -127.5 62t-39.5 256v604zM325 1239h226l129 144l128 -144h226l-229 221h-252z" />
    <glyph glyph-name="udieresis" unicode="&#xfc;" horiz-adv-x="1372" 
d="M960 0h306v1186h-399v-1002zM468 1186h-399v-625q0 -257 87.5 -413.5t330.5 -156.5q278 0 427.5 163.5t149.5 325.5l-195 73q0 -134 -69 -211.5t-165 -77.5q-88 0 -127.5 62t-39.5 256v604zM458 1244q44 0 75 31t31 75q0 45 -31 76t-75 31q-45 0 -76 -31t-31 -76
q0 -44 31 -75t76 -31zM894 1244q45 0 75.5 31t30.5 75q0 45 -30.5 76t-75.5 31q-43 0 -74.5 -31t-31.5 -76q0 -44 31 -75t75 -31z" />
    <glyph glyph-name="yacute" unicode="&#xfd;" horiz-adv-x="1328" 
d="M352 0h609l328 1186h-418l-214 -926h-3l-216 926h-417zM125 -467q342 0 547.5 88t288.5 379l-369 1q-35 -130 -139 -165t-328 -35v-268zM435 1227h179l255 229h-265z" />
    <glyph glyph-name="thorn" unicode="&#xfe;" horiz-adv-x="1401" 
d="M80 -400h397v1302h-397v-1302zM84 0h365l35 168v1402h-400v-1570zM859 -7q254 0 364 166t110 437t-110 435t-364 164q-221 0 -386.5 -99t-165.5 -225l177 -164q0 95 70.5 155.5t163.5 60.5q103 0 157 -64t54 -265q0 -205 -54 -267.5t-157 -62.5q-93 0 -163.5 60
t-70.5 158l-177 -166q0 -127 165.5 -225t386.5 -98z" />
    <glyph glyph-name="ydieresis" unicode="&#xff;" horiz-adv-x="1328" 
d="M352 0h609l328 1186h-418l-214 -926h-3l-216 926h-417zM125 -467q342 0 547.5 88t288.5 379l-369 1q-35 -130 -139 -165t-328 -35v-268zM432 1244q44 0 75 31t31 75q0 45 -31 76t-75 31q-45 0 -76 -31t-31 -76q0 -44 31 -75t76 -31zM868 1244q45 0 75.5 31t30.5 75
q0 45 -30.5 76t-75.5 31q-43 0 -74.5 -31t-31.5 -76q0 -44 31 -75t75 -31z" />
    <glyph glyph-name="Amacron" unicode="&#x100;" horiz-adv-x="1522" 
d="M56 0h416l80 307h421l78 -307h416l-421 1351h-570zM617 571l144 545h4l144 -545h-292zM398 1440h725v144h-725v-144z" />
    <glyph glyph-name="amacron" unicode="&#x101;" horiz-adv-x="1400" 
d="M535 -13q72 0 137 12t118 32t90.5 45t55.5 53l35 -129h332v733q0 170 -70.5 271.5t-208.5 147.5t-341 46q-107 0 -207.5 -17t-183.5 -53.5t-141.5 -97.5t-81.5 -149l390 -110q16 62 50 97t80 49t96 14q68 0 116 -16.5t74 -55t26 -105.5v-35h-368q-120 0 -210 -19.5
t-149.5 -61.5t-89 -110.5t-29.5 -168.5q0 -106 31 -178t93 -114.5t151 -61t205 -18.5zM625 241q-37 0 -68 6t-53 20.5t-33.5 40t-11.5 66.5q0 42 11 68t32.5 39t53.5 18.5t72 5.5h267v-166q-20 -27 -61.5 -49.5t-95.5 -35.5t-113 -13zM319 1275h725v144h-725v-144z" />
    <glyph glyph-name="Abreve" unicode="&#x102;" horiz-adv-x="1522" 
d="M56 0h416l80 307h421l78 -307h416l-421 1351h-570zM617 571l144 545h4l144 -545h-292zM761 1395q87 0 149 29.5t94.5 77.5t32.5 107h-184q0 -27 -9 -46.5t-29 -29t-54 -9.5q-30 0 -50.5 10t-31 28.5t-10.5 46.5h-185q0 -59 34 -107t96 -77.5t147 -29.5z" />
    <glyph glyph-name="abreve" unicode="&#x103;" horiz-adv-x="1400" 
d="M535 -13q72 0 137 12t118 32t90.5 45t55.5 53l35 -129h332v733q0 170 -70.5 271.5t-208.5 147.5t-341 46q-107 0 -207.5 -17t-183.5 -53.5t-141.5 -97.5t-81.5 -149l390 -110q16 62 50 97t80 49t96 14q68 0 116 -16.5t74 -55t26 -105.5v-35h-368q-120 0 -210 -19.5
t-149.5 -61.5t-89 -110.5t-29.5 -168.5q0 -106 31 -178t93 -114.5t151 -61t205 -18.5zM625 241q-37 0 -68 6t-53 20.5t-33.5 40t-11.5 66.5q0 42 11 68t32.5 39t53.5 18.5t72 5.5h267v-166q-20 -27 -61.5 -49.5t-95.5 -35.5t-113 -13zM682 1231q87 0 149 29.5t94.5 77.5
t32.5 107h-184q0 -27 -9 -46.5t-29 -29t-54 -9.5q-30 0 -50.5 10t-31 28.5t-10.5 46.5h-185q0 -59 34 -107t96 -77.5t147 -29.5z" />
    <glyph glyph-name="Aogonek" unicode="&#x104;" horiz-adv-x="1522" 
d="M56 0h416l80 307h421l78 -307h416l-421 1351h-570zM617 571l144 545h4l144 -545h-292zM1425 -399q53 0 101.5 5t83.5 12t45 11l-1 193q-11 -5 -39.5 -12.5t-63.5 -12.5t-67 -5q-41 0 -59.5 15.5t-18.5 40.5q0 21 10 50t25 57.5t28 44.5h-192q-17 -19 -40 -54t-39 -80.5
t-16 -96.5q0 -66 35 -102.5t91 -51t117 -14.5z" />
    <glyph glyph-name="aogonek" unicode="&#x105;" horiz-adv-x="1400" 
d="M535 -13q72 0 137 12t118 32t90.5 45t55.5 53l35 -129h332v733q0 170 -70.5 271.5t-208.5 147.5t-341 46q-107 0 -207.5 -17t-183.5 -53.5t-141.5 -97.5t-81.5 -149l390 -110q16 62 50 97t80 49t96 14q68 0 116 -16.5t74 -55t26 -105.5v-35h-368q-120 0 -210 -19.5
t-149.5 -61.5t-89 -110.5t-29.5 -168.5q0 -106 31 -178t93 -114.5t151 -61t205 -18.5zM625 241q-37 0 -68 6t-53 20.5t-33.5 40t-11.5 66.5q0 42 11 68t32.5 39t53.5 18.5t72 5.5h267v-166q-20 -27 -61.5 -49.5t-95.5 -35.5t-113 -13zM1259 -399q53 0 101.5 5t83.5 12t45 11
l-1 193q-11 -5 -39.5 -12.5t-63.5 -12.5t-67 -5q-41 0 -59.5 15.5t-18.5 40.5q0 21 10 50t25 57.5t28 44.5h-192q-17 -19 -40 -54t-39 -80.5t-16 -96.5q0 -66 35 -102.5t91 -51t117 -14.5z" />
    <glyph glyph-name="Cacute" unicode="&#x106;" horiz-adv-x="1411" 
d="M700 -8q391 0 515 174.5t124 387.5h-409q0 -180 -61.5 -234.5t-171.5 -54.5q-113 0 -182 63t-69 351q0 286 69.5 348t181.5 62q111 0 172 -53t61 -236h409q0 220 -123.5 391.5t-515.5 171.5q-388 0 -525.5 -179.5t-137.5 -504.5t137.5 -506t525.5 -181zM477 1392h179
l255 229h-265z" />
    <glyph glyph-name="cacute" unicode="&#x107;" horiz-adv-x="1320" 
d="M672 -12q316 0 435.5 126t141.5 254l-355 130q-9 -124 -68 -180.5t-154 -56.5q-93 0 -159 63.5t-66 265.5q0 207 65.5 270t159.5 63q96 0 154.5 -55.5t67.5 -186.5l355 125q-22 135 -141.5 263t-435.5 128q-359 0 -495.5 -159t-136.5 -448q0 -287 136.5 -444.5
t495.5 -157.5zM454 1227h179l255 229h-265z" />
    <glyph glyph-name="Ccircumflex" unicode="&#x108;" horiz-adv-x="1411" 
d="M700 -8q391 0 515 174.5t124 387.5h-409q0 -180 -61.5 -234.5t-171.5 -54.5q-113 0 -182 63t-69 351q0 286 69.5 348t181.5 62q111 0 172 -53t61 -236h409q0 220 -123.5 391.5t-515.5 171.5q-388 0 -525.5 -179.5t-137.5 -504.5t137.5 -506t525.5 -181zM341 1403h226
l129 144l128 -144h226l-229 221h-252z" />
    <glyph glyph-name="ccircumflex" unicode="&#x109;" horiz-adv-x="1320" 
d="M672 -12q316 0 435.5 126t141.5 254l-355 130q-9 -124 -68 -180.5t-154 -56.5q-93 0 -159 63.5t-66 265.5q0 207 65.5 270t159.5 63q96 0 154.5 -55.5t67.5 -186.5l355 125q-22 135 -141.5 263t-435.5 128q-359 0 -495.5 -159t-136.5 -448q0 -287 136.5 -444.5
t495.5 -157.5zM316 1239h226l129 144l128 -144h226l-229 221h-252z" />
    <glyph glyph-name="Cdotaccent" unicode="&#x10a;" horiz-adv-x="1411" 
d="M700 -8q391 0 515 174.5t124 387.5h-409q0 -180 -61.5 -234.5t-171.5 -54.5q-113 0 -182 63t-69 351q0 286 69.5 348t181.5 62q111 0 172 -53t61 -236h409q0 220 -123.5 391.5t-515.5 171.5q-388 0 -525.5 -179.5t-137.5 -504.5t137.5 -506t525.5 -181zM695 1396
q46 0 78 32.5t32 78.5q0 45 -32 77.5t-78 32.5t-78.5 -32.5t-32.5 -77.5q0 -46 32.5 -78.5t78.5 -32.5z" />
    <glyph glyph-name="cdotaccent" unicode="&#x10b;" horiz-adv-x="1320" 
d="M672 -12q316 0 435.5 126t141.5 254l-355 130q-9 -124 -68 -180.5t-154 -56.5q-93 0 -159 63.5t-66 265.5q0 207 65.5 270t159.5 63q96 0 154.5 -55.5t67.5 -186.5l355 125q-22 135 -141.5 263t-435.5 128q-359 0 -495.5 -159t-136.5 -448q0 -287 136.5 -444.5
t495.5 -157.5zM671 1232q46 0 78 32.5t32 78.5q0 45 -32 77.5t-78 32.5t-78.5 -32.5t-32.5 -77.5q0 -46 32.5 -78.5t78.5 -32.5z" />
    <glyph glyph-name="Ccaron" unicode="&#x10c;" horiz-adv-x="1411" 
d="M700 -8q391 0 515 174.5t124 387.5h-409q0 -180 -61.5 -234.5t-171.5 -54.5q-113 0 -182 63t-69 351q0 286 69.5 348t181.5 62q111 0 172 -53t61 -236h409q0 220 -123.5 391.5t-515.5 171.5q-388 0 -525.5 -179.5t-137.5 -504.5t137.5 -506t525.5 -181zM569 1394h252
l229 221h-226l-129 -143l-128 143h-226z" />
    <glyph glyph-name="ccaron" unicode="&#x10d;" horiz-adv-x="1320" 
d="M672 -12q316 0 435.5 126t141.5 254l-355 130q-9 -124 -68 -180.5t-154 -56.5q-93 0 -159 63.5t-66 265.5q0 207 65.5 270t159.5 63q96 0 154.5 -55.5t67.5 -186.5l355 125q-22 135 -141.5 263t-435.5 128q-359 0 -495.5 -159t-136.5 -448q0 -287 136.5 -444.5
t495.5 -157.5zM544 1230h252l229 221h-226l-129 -143l-128 143h-226z" />
    <glyph glyph-name="Dcaron" unicode="&#x10e;" horiz-adv-x="1405" 
d="M78 0h753q292 0 404 152.5t112 523.5q0 370 -111.5 522t-404.5 152h-753v-1350zM481 273v804h239q116 0 170 -59t54 -342q0 -284 -54 -343.5t-170 -59.5h-239zM578 1394h252l229 221h-226l-129 -143l-128 143h-226z" />
    <glyph glyph-name="dcaron" unicode="&#x10f;" horiz-adv-x="1689" 
d="M1371 1189h238l81 381h-257zM926 0h371v1570h-398v-1401zM525 -7q221 0 386 98t165 225l-177 166q0 -96 -70 -157t-163 -61q-103 0 -157.5 63t-54.5 267q0 202 54.5 265.5t157.5 63.5q93 0 163 -60.5t70 -155.5l177 164q0 126 -165 225t-386 99q-254 0 -364 -164
t-110 -435q0 -272 110 -437.5t364 -165.5z" />
    <glyph glyph-name="Dcroat" unicode="&#x110;" horiz-adv-x="1449" 
d="M-21 546h729v261h-729v-261zM122 0h753q292 0 404 152.5t112 523.5q0 370 -111.5 522t-404.5 152h-753v-1350zM525 273v804h239q116 0 170 -59t54 -342q0 -284 -54 -343.5t-170 -59.5h-239z" />
    <glyph glyph-name="dcroat" unicode="&#x111;" horiz-adv-x="1406" 
d="M546 1284h872v188h-872v-188zM926 0h371v1570h-398v-1401zM525 -7q221 0 386 98t165 225l-177 166q0 -96 -70 -157t-163 -61q-103 0 -157.5 63t-54.5 267q0 202 54.5 265.5t157.5 63.5q93 0 163 -60.5t70 -155.5l177 164q0 126 -165 225t-386 99q-254 0 -364 -164
t-110 -435q0 -272 110 -437.5t364 -165.5z" />
    <glyph glyph-name="Emacron" unicode="&#x112;" horiz-adv-x="1186" 
d="M69 0h1032v273h-627v278h578v260h-578v266h627v273h-1032v-1350zM218 1440h725v144h-725v-144z" />
    <glyph glyph-name="emacron" unicode="&#x113;" horiz-adv-x="1396" 
d="M696 -12v256q-117 0 -188 66q-72 64 -72 282q0 217 71 284t182 67q114 0 177 -59q42 -47 55 -170h-519v-239h915q7 52 7 117q0 274 -133 441q-136 166 -503 166q-355 0 -496 -163q-142 -163 -142 -443q0 -277 142 -441q140 -164 504 -164zM696 244v-256q191 0 298 33
q106 32 185 98q79 65 103 180l-356 101q-24 -52 -49 -89q-26 -36 -69 -51q-43 -16 -112 -16zM327 1275h725v144h-725v-144z" />
    <glyph glyph-name="Ebreve" unicode="&#x114;" horiz-adv-x="1186" 
d="M69 0h1032v273h-627v278h578v260h-578v266h627v273h-1032v-1350zM580 1395q87 0 149 29.5t94.5 77.5t32.5 107h-184q0 -27 -9 -46.5t-29 -29t-54 -9.5q-30 0 -50.5 10t-31 28.5t-10.5 46.5h-185q0 -59 34 -107t96 -77.5t147 -29.5z" />
    <glyph glyph-name="ebreve" unicode="&#x115;" horiz-adv-x="1396" 
d="M696 -12v256q-117 0 -188 66q-72 64 -72 282q0 217 71 284t182 67q114 0 177 -59q42 -47 55 -170h-519v-239h915q7 52 7 117q0 274 -133 441q-136 166 -503 166q-355 0 -496 -163q-142 -163 -142 -443q0 -277 142 -441q140 -164 504 -164zM696 244v-256q191 0 298 33
q106 32 185 98q79 65 103 180l-356 101q-24 -52 -49 -89q-26 -36 -69 -51q-43 -16 -112 -16zM690 1230q87 0 149 29.5t94.5 77.5t32.5 107h-184q0 -27 -9 -46.5t-29 -29t-54 -9.5q-30 0 -50.5 10t-31 28.5t-10.5 46.5h-185q0 -59 34 -107t96 -77.5t147 -29.5z" />
    <glyph glyph-name="Edotaccent" unicode="&#x116;" horiz-adv-x="1186" 
d="M69 0h1032v273h-627v278h578v260h-578v266h627v273h-1032v-1350zM581 1396q46 0 78 32.5t32 78.5q0 45 -32 77.5t-78 32.5t-78.5 -32.5t-32.5 -77.5q0 -46 32.5 -78.5t78.5 -32.5z" />
    <glyph glyph-name="edotaccent" unicode="&#x117;" horiz-adv-x="1396" 
d="M696 -12v256q-117 0 -188 66q-72 64 -72 282q0 217 71 284t182 67q114 0 177 -59q42 -47 55 -170h-519v-239h915q7 52 7 117q0 274 -133 441q-136 166 -503 166q-355 0 -496 -163q-142 -163 -142 -443q0 -277 142 -441q140 -164 504 -164zM696 244v-256q191 0 298 33
q106 32 185 98q79 65 103 180l-356 101q-24 -52 -49 -89q-26 -36 -69 -51q-43 -16 -112 -16zM689 1232q46 0 78 32.5t32 78.5q0 45 -32 77.5t-78 32.5t-78.5 -32.5t-32.5 -77.5q0 -46 32.5 -78.5t78.5 -32.5z" />
    <glyph glyph-name="Eogonek" unicode="&#x118;" horiz-adv-x="1186" 
d="M69 0h1032v273h-627v278h578v260h-578v266h627v273h-1032v-1350zM829 -399q53 0 101.5 5t83.5 12t45 11l-1 193q-11 -5 -39.5 -12.5t-63.5 -12.5t-67 -5q-41 0 -59.5 15.5t-18.5 40.5q0 21 10 50t25 57.5t28 44.5h-192q-17 -19 -40 -54t-39 -80.5t-16 -96.5
q0 -66 35 -102.5t91 -51t117 -14.5z" />
    <glyph glyph-name="eogonek" unicode="&#x119;" horiz-adv-x="1396" 
d="M696 -12v256q-117 0 -188 66q-72 64 -72 282q0 217 71 284t182 67q114 0 177 -59q42 -47 55 -170h-519v-239h915q7 52 7 117q0 274 -133 441q-136 166 -503 166q-355 0 -496 -163q-142 -163 -142 -443q0 -277 142 -441q140 -164 504 -164zM696 244v-256q191 0 298 33
q106 32 185 98q79 65 103 180l-356 101q-24 -52 -49 -89q-26 -36 -69 -51q-43 -16 -112 -16zM1074 -342q53 0 101.5 5t83.5 12t45 11l-1 193q-11 -5 -39.5 -12.5t-63.5 -12.5t-67 -5q-41 0 -59.5 15.5t-18.5 40.5q0 21 10 50t25 57.5t28 44.5h-192q-17 -19 -40 -54
t-39 -80.5t-16 -96.5q0 -66 35 -102.5t91 -51t117 -14.5z" />
    <glyph glyph-name="Ecaron" unicode="&#x11a;" horiz-adv-x="1186" 
d="M69 0h1032v273h-627v278h578v260h-578v266h627v273h-1032v-1350zM454 1394h252l229 221h-226l-129 -143l-128 143h-226z" />
    <glyph glyph-name="ecaron" unicode="&#x11b;" horiz-adv-x="1396" 
d="M696 -12v256q-117 0 -188 66q-72 64 -72 282q0 217 71 284t182 67q114 0 177 -59q42 -47 55 -170h-519v-239h915q7 52 7 117q0 274 -133 441q-136 166 -503 166q-355 0 -496 -163q-142 -163 -142 -443q0 -277 142 -441q140 -164 504 -164zM696 244v-256q191 0 298 33
q106 32 185 98q79 65 103 180l-356 101q-24 -52 -49 -89q-26 -36 -69 -51q-43 -16 -112 -16zM563 1230h252l229 221h-226l-129 -143l-128 143h-226z" />
    <glyph glyph-name="Gcircumflex" unicode="&#x11c;" horiz-adv-x="1458" 
d="M676 -8q305 1 401 159l45 -151h226v721h-614v-236h202l-1 -23q-10 -116 -59 -157t-161 -41q-122 0 -189.5 77.5t-67.5 325.5q0 295 67.5 359t185.5 64q115 0 168.5 -43t64.5 -191h404q-9 193 -143.5 350t-494.5 157q-385 0 -522 -176t-137 -507q0 -326 132.5 -507
t492.5 -181zM354 1403h226l129 144l128 -144h226l-229 221h-252z" />
    <glyph glyph-name="gcircumflex" unicode="&#x11d;" horiz-adv-x="1412" 
d="M667 -471q199 0 326.5 47.5t217.5 168t90 333.5v1108h-292l-109 -230v-920q0 -173 -61.5 -214t-158.5 -41q-58 0 -105 17t-74.5 56.5t-33.5 96.5h-390q24 -232 194 -327t396 -95zM529 -7q221 0 385 98t164 225l-179 166q0 -96 -70 -157t-163 -61q-103 0 -157.5 63
t-54.5 267q0 202 54.5 265.5t157.5 63.5q93 0 163 -60.5t70 -155.5l177 155q0 126 -165 229.5t-386 103.5q-254 0 -364 -164t-110 -435q0 -272 112 -437.5t366 -165.5zM336 1239h226l129 144l128 -144h226l-229 221h-252z" />
    <glyph glyph-name="Gbreve" unicode="&#x11e;" horiz-adv-x="1458" 
d="M676 -8q305 1 401 159l45 -151h226v721h-614v-236h202l-1 -23q-10 -116 -59 -157t-161 -41q-122 0 -189.5 77.5t-67.5 325.5q0 295 67.5 359t185.5 64q115 0 168.5 -43t64.5 -191h404q-9 193 -143.5 350t-494.5 157q-385 0 -522 -176t-137 -507q0 -326 132.5 -507
t492.5 -181zM708 1395q87 0 149 29.5t94.5 77.5t32.5 107h-184q0 -27 -9 -46.5t-29 -29t-54 -9.5q-30 0 -50.5 10t-31 28.5t-10.5 46.5h-185q0 -59 34 -107t96 -77.5t147 -29.5z" />
    <glyph glyph-name="gbreve" unicode="&#x11f;" horiz-adv-x="1412" 
d="M667 -471q199 0 326.5 47.5t217.5 168t90 333.5v1108h-292l-109 -230v-920q0 -173 -61.5 -214t-158.5 -41q-58 0 -105 17t-74.5 56.5t-33.5 96.5h-390q24 -232 194 -327t396 -95zM529 -7q221 0 385 98t164 225l-179 166q0 -96 -70 -157t-163 -61q-103 0 -157.5 63
t-54.5 267q0 202 54.5 265.5t157.5 63.5q93 0 163 -60.5t70 -155.5l177 155q0 126 -165 229.5t-386 103.5q-254 0 -364 -164t-110 -435q0 -272 112 -437.5t366 -165.5zM691 1230q87 0 149 29.5t94.5 77.5t32.5 107h-184q0 -27 -9 -46.5t-29 -29t-54 -9.5q-30 0 -50.5 10
t-31 28.5t-10.5 46.5h-185q0 -59 34 -107t96 -77.5t147 -29.5z" />
    <glyph glyph-name="Gdotaccent" unicode="&#x120;" horiz-adv-x="1458" 
d="M676 -8q305 1 401 159l45 -151h226v721h-614v-236h202l-1 -23q-10 -116 -59 -157t-161 -41q-122 0 -189.5 77.5t-67.5 325.5q0 295 67.5 359t185.5 64q115 0 168.5 -43t64.5 -191h404q-9 193 -143.5 350t-494.5 157q-385 0 -522 -176t-137 -507q0 -326 132.5 -507
t492.5 -181zM709 1396q46 0 78 32.5t32 78.5q0 45 -32 77.5t-78 32.5t-78.5 -32.5t-32.5 -77.5q0 -46 32.5 -78.5t78.5 -32.5z" />
    <glyph glyph-name="gdotaccent" unicode="&#x121;" horiz-adv-x="1412" 
d="M667 -471q199 0 326.5 47.5t217.5 168t90 333.5v1108h-292l-109 -230v-920q0 -173 -61.5 -214t-158.5 -41q-58 0 -105 17t-74.5 56.5t-33.5 96.5h-390q24 -232 194 -327t396 -95zM529 -7q221 0 385 98t164 225l-179 166q0 -96 -70 -157t-163 -61q-103 0 -157.5 63
t-54.5 267q0 202 54.5 265.5t157.5 63.5q93 0 163 -60.5t70 -155.5l177 155q0 126 -165 229.5t-386 103.5q-254 0 -364 -164t-110 -435q0 -272 112 -437.5t366 -165.5zM690 1232q46 0 78 32.5t32 78.5q0 45 -32 77.5t-78 32.5t-78.5 -32.5t-32.5 -77.5q0 -46 32.5 -78.5
t78.5 -32.5z" />
    <glyph glyph-name="uni0122" unicode="&#x122;" horiz-adv-x="1458" 
d="M676 -8q305 1 401 159l45 -151h226v721h-614v-236h202l-1 -23q-10 -116 -59 -157t-161 -41q-122 0 -189.5 77.5t-67.5 325.5q0 295 67.5 359t185.5 64q115 0 168.5 -43t64.5 -191h404q-9 193 -143.5 350t-494.5 157q-385 0 -522 -176t-137 -507q0 -326 132.5 -507
t492.5 -181zM552 -345h135l140 289h-218z" />
    <glyph glyph-name="uni0123" unicode="&#x123;" horiz-adv-x="1412" 
d="M667 -471q199 0 326.5 47.5t217.5 168t90 333.5v1108h-292l-109 -230v-920q0 -173 -61.5 -214t-158.5 -41q-58 0 -105 17t-74.5 56.5t-33.5 96.5h-390q24 -232 194 -327t396 -95zM529 -7q221 0 385 98t164 225l-179 166q0 -96 -70 -157t-163 -61q-103 0 -157.5 63
t-54.5 267q0 202 54.5 265.5t157.5 63.5q93 0 163 -60.5t70 -155.5l177 155q0 126 -165 229.5t-386 103.5q-254 0 -364 -164t-110 -435q0 -272 112 -437.5t366 -165.5zM592 1267h173l48 241h-107z" />
    <glyph glyph-name="Hcircumflex" unicode="&#x124;" horiz-adv-x="1443" 
d="M78 0h404v530h447v-530h404v1350h-404v-546h-447v546h-404v-1350zM360 1403h226l129 144l128 -144h226l-229 221h-252z" />
    <glyph glyph-name="hcircumflex" unicode="&#x125;" horiz-adv-x="1381" 
d="M80 0h400v1570h-400v-1570zM873 0h399v625q0 258 -90 414t-329 156q-258 0 -416.5 -163t-158.5 -326l194 -81q0 134 67 215.5t162 81.5q88 0 130 -62t42 -255v-605zM438 1549h226l129 144l128 -144h226l-229 221h-252z" />
    <glyph glyph-name="Hbar" unicode="&#x126;" horiz-adv-x="1455" 
d="M31 1029h1377v142h-1377v-142zM92 0h404v530h447v-530h404v1350h-404v-546h-447v546h-404v-1350z" />
    <glyph glyph-name="hbar" unicode="&#x127;" horiz-adv-x="1355" 
d="M-13 1284h874v188h-874v-188zM79 0h400v1570h-400v-1570zM873 0h399v625q0 258 -90 414t-330 156q-257 0 -416 -163t-159 -326l195 -81q0 134 66.5 215.5t161.5 81.5q88 0 130.5 -62t42.5 -255v-605z" />
    <glyph glyph-name="Itilde" unicode="&#x128;" horiz-adv-x="663" 
d="M123 0h402v1350h-402v-1350zM472 1406q63 0 105 17.5t68 45.5t40 59.5t19 61t5 48.5h-190q0 -14 -8 -32.5t-25 -32t-43 -13.5q-30 0 -55 13t-52.5 30.5t-61.5 30.5t-82 13q-65 0 -109 -17t-70.5 -44.5t-40 -59t-18 -60.5t-6.5 -48h192q0 14 6.5 33t23.5 32t47 13
q29 0 54.5 -14t53.5 -31.5t63 -31t84 -13.5z" />
    <glyph glyph-name="itilde" unicode="&#x129;" horiz-adv-x="607" 
d="M89 0h402v1186h-402v-1186zM438 1242q63 0 105 17.5t68 45.5t40 59.5t19 61t5 48.5h-190q0 -14 -8 -32.5t-25 -32t-43 -13.5q-30 0 -55 13t-52.5 30.5t-61.5 30.5t-82 13q-65 0 -109 -17t-70.5 -44.5t-40 -59t-18 -60.5t-6.5 -48h192q0 14 6.5 33t23.5 32t47 13
q29 0 54.5 -14t53.5 -31.5t63 -31t84 -13.5z" />
    <glyph glyph-name="Imacron" unicode="&#x12a;" horiz-adv-x="663" 
d="M123 0h402v1350h-402v-1350zM-38 1440h725v144h-725v-144z" />
    <glyph glyph-name="imacron" unicode="&#x12b;" horiz-adv-x="607" 
d="M16 1275h548v144h-548v-144zM89 0h402v1186h-402v-1186z" />
    <glyph glyph-name="Ibreve" unicode="&#x12c;" horiz-adv-x="663" 
d="M123 0h402v1350h-402v-1350zM325 1395q87 0 149 29.5t94.5 77.5t32.5 107h-184q0 -27 -9 -46.5t-29 -29t-54 -9.5q-30 0 -50.5 10t-31 28.5t-10.5 46.5h-185q0 -59 34 -107t96 -77.5t147 -29.5z" />
    <glyph glyph-name="ibreve" unicode="&#x12d;" horiz-adv-x="607" 
d="M89 0h402v1186h-402v-1186zM291 1230q87 0 149 29.5t94.5 77.5t32.5 107h-184q0 -27 -9 -46.5t-29 -29t-54 -9.5q-30 0 -50.5 10t-31 28.5t-10.5 46.5h-185q0 -59 34 -107t96 -77.5t147 -29.5z" />
    <glyph glyph-name="Iogonek" unicode="&#x12e;" horiz-adv-x="663" 
d="M123 0h402v1350h-402v-1350zM482 -399q53 0 101.5 5t83.5 12t45 11l-1 193q-11 -5 -39.5 -12.5t-63.5 -12.5t-67 -5q-41 0 -59.5 15.5t-18.5 40.5q0 21 10 50t25 57.5t28 44.5h-192q-17 -19 -40 -54t-39 -80.5t-16 -96.5q0 -66 35 -102.5t91 -51t117 -14.5z" />
    <glyph glyph-name="iogonek" unicode="&#x12f;" horiz-adv-x="607" 
d="M92 1557v-261h400v261h-400zM89 0h402v1186h-402v-1186zM447 -399q53 0 101.5 5t83.5 12t45 11l-1 193q-11 -5 -39.5 -12.5t-63.5 -12.5t-67 -5q-41 0 -59.5 15.5t-18.5 40.5q0 21 10 50t25 57.5t28 44.5h-192q-17 -19 -40 -54t-39 -80.5t-16 -96.5q0 -66 35 -102.5
t91 -51t117 -14.5z" />
    <glyph glyph-name="Idotaccent" unicode="&#x130;" horiz-adv-x="663" 
d="M123 0h402v1350h-402v-1350zM324 1396q46 0 78 32.5t32 78.5q0 45 -32 77.5t-78 32.5t-78.5 -32.5t-32.5 -77.5q0 -46 32.5 -78.5t78.5 -32.5z" />
    <glyph glyph-name="dotlessi" unicode="&#x131;" horiz-adv-x="607" 
d="M89 0h402v1186h-402v-1186z" />
    <glyph glyph-name="IJ" unicode="&#x132;" horiz-adv-x="2064" 
d="M123 0h402v1350h-402v-1350zM1336 -11q311 0 466 102.5t155 301.5v957h-403v-898q0 -98 -47 -145.5t-172 -47.5t-170 50.5t-45 150.5v146h-403v-192q0 -218 155.5 -321.5t463.5 -103.5z" />
    <glyph glyph-name="ij" unicode="&#x133;" horiz-adv-x="1282" 
d="M103 0h401v1186h-401v-1186zM103 1557v-261h401v261h-401zM495 -460q326 0 495.5 108t169.5 431v1107h-399v-1123q0 -153 -69.5 -200.5t-196.5 -47.5v-275zM761 1557v-261h399v261h-399z" />
    <glyph glyph-name="Jcircumflex" unicode="&#x134;" horiz-adv-x="1400" 
d="M673 -11q311 0 466 102.5t155 301.5v957h-403v-898q0 -98 -47 -145.5t-172 -47.5t-170 50.5t-45 150.5v146h-403v-192q0 -218 155.5 -321.5t463.5 -103.5zM749 1403h226l129 144l128 -144h226l-229 221h-252z" />
    <glyph glyph-name="jcircumflex" unicode="&#x135;" horiz-adv-x="655" 
d="M-132 -460q326 0 495.5 108t169.5 431v1107h-399v-1123q0 -153 -69.5 -200.5t-196.5 -47.5v-275zM-26 1239h226l129 144l128 -144h226l-229 221h-252z" />
    <glyph glyph-name="uni0136" unicode="&#x136;" horiz-adv-x="1347" 
d="M78 0h401v567l393 -567h450l-479 674l478 676h-451l-391 -568v568h-401v-1350zM506 -346h135l140 289h-218z" />
    <glyph glyph-name="uni0137" unicode="&#x137;" horiz-adv-x="1336" 
d="M633 491l227 -491h426l-382 765zM80 0h399v345l169 147l253 247l377 447h-464l-335 -402v786h-399v-1570zM525 -346h135l140 289h-218z" />
    <glyph glyph-name="kgreenlandic" unicode="&#x138;" horiz-adv-x="1347" 
d="M78 0h402v1186h-402v-1186zM410 583l438 4l473 599h-450zM870 0h451l-473 595l-438 7z" />
    <glyph glyph-name="Lacute" unicode="&#x139;" horiz-adv-x="1077" 
d="M78 0h932v272h-528v1078h-404v-1350zM323 1392h179l255 229h-265z" />
    <glyph glyph-name="lacute" unicode="&#x13a;" horiz-adv-x="623" 
d="M107 0h400v1570h-400v-1570zM90 1612h179l255 229h-265z" />
    <glyph glyph-name="uni013B" unicode="&#x13b;" horiz-adv-x="1077" 
d="M78 0h932v272h-528v1078h-404v-1350zM384 -346h135l140 289h-218z" />
    <glyph glyph-name="uni013C" unicode="&#x13c;" horiz-adv-x="623" 
d="M107 0h400v1570h-400v-1570zM151 -346h135l140 289h-218z" />
    <glyph glyph-name="Lcaron" unicode="&#x13d;" horiz-adv-x="1149" 
d="M877 973h238l118 375h-257zM78 0h932v272h-528v1078h-404v-1350z" />
    <glyph glyph-name="lcaron" unicode="&#x13e;" horiz-adv-x="623" 
d="M107 0h400v1570h-400v-1570zM181 1614h252l229 221h-226l-129 -143l-128 143h-226z" />
    <glyph glyph-name="Ldot" unicode="&#x13f;" horiz-adv-x="1171" 
d="M78 0h932v272h-528v1078h-404v-1350zM666 822v-276h374v276h-374z" />
    <glyph glyph-name="ldot" unicode="&#x140;" horiz-adv-x="967" 
d="M107 0h400v1570h-400v-1570zM569 786v-276h374v276h-374z" />
    <glyph glyph-name="Lslash" unicode="&#x141;" horiz-adv-x="1178" 
d="M70 381l741 406l-92 199l-741 -406zM168 0h932v272h-528v1078h-404v-1350z" />
    <glyph glyph-name="lslash" unicode="&#x142;" horiz-adv-x="646" 
d="M-7 327l658 339v306l-658 -339v-306zM125 0h400v1570h-400v-1570z" />
    <glyph glyph-name="Nacute" unicode="&#x143;" horiz-adv-x="1662" 
d="M78 0h401v1065h5l433 -1065h635v1350h-402l-4 -1044h-3l-424 1044h-641v-1350zM607 1392h179l255 229h-265z" />
    <glyph glyph-name="nacute" unicode="&#x144;" horiz-adv-x="1374" 
d="M80 0h399v999l-92 187h-307v-1186zM866 0h399v611q0 258 -89.5 421t-328.5 163q-258 0 -417 -163t-159 -326l194 -81q0 134 67.5 215.5t162.5 81.5q88 0 129.5 -62t41.5 -255v-605zM466 1227h179l255 229h-265z" />
    <glyph glyph-name="uni0145" unicode="&#x145;" horiz-adv-x="1662" 
d="M78 0h401v1065h5l433 -1065h635v1350h-402l-4 -1044h-3l-424 1044h-641v-1350zM669 -346h135l140 289h-218z" />
    <glyph glyph-name="uni0146" unicode="&#x146;" horiz-adv-x="1374" 
d="M80 0h399v999l-92 187h-307v-1186zM866 0h399v611q0 258 -89.5 421t-328.5 163q-258 0 -417 -163t-159 -326l194 -81q0 134 67.5 215.5t162.5 81.5q88 0 129.5 -62t41.5 -255v-605zM527 -346h135l140 289h-218z" />
    <glyph glyph-name="Ncaron" unicode="&#x147;" horiz-adv-x="1662" 
d="M78 0h401v1065h5l433 -1065h635v1350h-402l-4 -1044h-3l-424 1044h-641v-1350zM698 1394h252l229 221h-226l-129 -143l-128 143h-226z" />
    <glyph glyph-name="ncaron" unicode="&#x148;" horiz-adv-x="1374" 
d="M80 0h399v999l-92 187h-307v-1186zM866 0h399v611q0 258 -89.5 421t-328.5 163q-258 0 -417 -163t-159 -326l194 -81q0 134 67.5 215.5t162.5 81.5q88 0 129.5 -62t41.5 -255v-605zM556 1230h252l229 221h-226l-129 -143l-128 143h-226z" />
    <glyph glyph-name="Eng" unicode="&#x14a;" horiz-adv-x="1663" 
d="M818 -461q148 0 281 21.5t234.5 72.5t160 141t58.5 226h-417q1 -48 -12.5 -85.5t-48.5 -62.5t-97.5 -38t-158.5 -13v-262zM78 0h401v1065h5l433 -1065h635v1350h-402l-4 -1044h-3l-424 1044h-641v-1350z" />
    <glyph glyph-name="eng" unicode="&#x14b;" horiz-adv-x="1374" 
d="M623 -440q156 0 275.5 23t201.5 75t123.5 136t41.5 206h-399q0 -69 -32 -111.5t-86.5 -61.5t-124.5 -19v-248zM80 0h399v999l-92 187h-307v-1186zM866 0h399v611q0 258 -89.5 421t-328.5 163q-258 0 -417 -163t-159 -326l194 -81q0 134 67.5 215.5t162.5 81.5
q88 0 129.5 -62t41.5 -255v-605z" />
    <glyph glyph-name="Omacron" unicode="&#x14c;" horiz-adv-x="1459" 
d="M726 -12q387 0 531.5 178t144.5 509t-144.5 509.5t-531.5 178.5t-531 -178t-144 -510q0 -331 144.5 -509t530.5 -178zM726 262q-124 0 -198.5 64.5t-74.5 348.5q0 289 74.5 351.5t198.5 62.5q125 0 199 -62.5t74 -351.5q0 -284 -74 -348.5t-199 -64.5zM366 1440h725v144
h-725v-144z" />
    <glyph glyph-name="omacron" unicode="&#x14d;" horiz-adv-x="1400" 
d="M691 -9q355 0 498 161.5t143 445.5q0 286 -143 444t-498 158q-353 0 -496.5 -158t-143.5 -444q0 -284 143.5 -445.5t496.5 -161.5zM691 260q-106 0 -173.5 62.5t-67.5 274.5q0 211 67.5 272.5t173.5 61.5q107 0 174.5 -61.5t67.5 -272.5q0 -212 -67.5 -274.5
t-174.5 -62.5zM328 1276h725v144h-725v-144z" />
    <glyph glyph-name="Obreve" unicode="&#x14e;" horiz-adv-x="1459" 
d="M726 -12q387 0 531.5 178t144.5 509t-144.5 509.5t-531.5 178.5t-531 -178t-144 -510q0 -331 144.5 -509t530.5 -178zM726 262q-124 0 -198.5 64.5t-74.5 348.5q0 289 74.5 351.5t198.5 62.5q125 0 199 -62.5t74 -351.5q0 -284 -74 -348.5t-199 -64.5zM729 1395
q87 0 149 29.5t94.5 77.5t32.5 107h-184q0 -27 -9 -46.5t-29 -29t-54 -9.5q-30 0 -50.5 10t-31 28.5t-10.5 46.5h-185q0 -59 34 -107t96 -77.5t147 -29.5z" />
    <glyph glyph-name="obreve" unicode="&#x14f;" horiz-adv-x="1400" 
d="M691 -9q355 0 498 161.5t143 445.5q0 286 -143 444t-498 158q-353 0 -496.5 -158t-143.5 -444q0 -284 143.5 -445.5t496.5 -161.5zM691 260q-106 0 -173.5 62.5t-67.5 274.5q0 211 67.5 272.5t173.5 61.5q107 0 174.5 -61.5t67.5 -272.5q0 -212 -67.5 -274.5
t-174.5 -62.5zM691 1231q87 0 149 29.5t94.5 77.5t32.5 107h-184q0 -27 -9 -46.5t-29 -29t-54 -9.5q-30 0 -50.5 10t-31 28.5t-10.5 46.5h-185q0 -59 34 -107t96 -77.5t147 -29.5z" />
    <glyph glyph-name="Ohungarumlaut" unicode="&#x150;" horiz-adv-x="1459" 
d="M726 -12q387 0 531.5 178t144.5 509t-144.5 509.5t-531.5 178.5t-531 -178t-144 -510q0 -331 144.5 -509t530.5 -178zM726 262q-124 0 -198.5 64.5t-74.5 348.5q0 289 74.5 351.5t198.5 62.5q125 0 199 -62.5t74 -351.5q0 -284 -74 -348.5t-199 -64.5zM597 1417h175
l240 207h-237zM445 1417h176l229 207h-229z" />
    <glyph glyph-name="ohungarumlaut" unicode="&#x151;" horiz-adv-x="1400" 
d="M691 -9q355 0 498 161.5t143 445.5q0 286 -143 444t-498 158q-353 0 -496.5 -158t-143.5 -444q0 -284 143.5 -445.5t496.5 -161.5zM691 260q-106 0 -173.5 62.5t-67.5 274.5q0 211 67.5 272.5t173.5 61.5q107 0 174.5 -61.5t67.5 -272.5q0 -212 -67.5 -274.5
t-174.5 -62.5zM561 1254h175l240 207h-237zM409 1254h176l229 207h-229z" />
    <glyph glyph-name="OE" unicode="&#x152;" horiz-adv-x="2118" 
d="M726 -12q387 0 531.5 178t144.5 509t-144.5 509.5t-531.5 178.5t-531 -178t-144 -510q0 -331 144.5 -509t530.5 -178zM726 262q-124 0 -198.5 64.5t-74.5 348.5q0 289 74.5 351.5t198.5 62.5q125 0 199 -62.5t74 -351.5q0 -284 -74 -348.5t-199 -64.5zM1001 0h1032v273
h-627v278h578v260h-578v266h627v273h-1032v-1350z" />
    <glyph glyph-name="oe" unicode="&#x153;" horiz-adv-x="2279" 
d="M691 -9q355 0 498 161.5t143 445.5q0 286 -143 444t-498 158q-353 0 -496.5 -158t-143.5 -444q0 -284 143.5 -445.5t496.5 -161.5zM691 260q-106 0 -173.5 62.5t-67.5 274.5q0 211 67.5 272.5t173.5 61.5q107 0 174.5 -61.5t67.5 -272.5q0 -212 -67.5 -274.5
t-174.5 -62.5zM1580 -12v256q-117 0 -188 66q-72 64 -72 282q0 217 71 284t182 67q114 0 177 -59q42 -47 55 -170h-519v-239h915q7 52 7 117q0 274 -133 441q-136 166 -503 166q-355 0 -496 -163q-142 -163 -142 -443q0 -277 142 -441q140 -164 504 -164zM1580 244v-256
q191 0 298 33q106 32 185 98q79 65 103 180l-356 101q-24 -52 -49 -89q-26 -36 -69 -51q-43 -16 -112 -16z" />
    <glyph glyph-name="Racute" unicode="&#x154;" horiz-adv-x="1393" 
d="M78 0h405v520h409q246 0 329.5 117t83.5 289q0 174 -79 299t-318 125h-830v-1350zM896 0h438l-333 640l-400 -15zM483 766v311h291q71 0 98.5 -39.5t27.5 -117.5q0 -76 -27 -115t-99 -39h-291zM467 1392h179l255 229h-265z" />
    <glyph glyph-name="racute" unicode="&#x155;" horiz-adv-x="1368" 
d="M860 587h399q0 311 -86 460t-336 149q-228 0 -370 -118t-142 -293l152 -86q0 88 57 156t151 68q81 0 128 -60.5t47 -275.5zM80 0h399v992l-92 194h-307v-1186zM489 1227h179l255 229h-265z" />
    <glyph glyph-name="uni0156" unicode="&#x156;" horiz-adv-x="1393" 
d="M78 0h405v520h409q246 0 329.5 117t83.5 289q0 174 -79 299t-318 125h-830v-1350zM896 0h438l-333 640l-400 -15zM483 766v311h291q71 0 98.5 -39.5t27.5 -117.5q0 -76 -27 -115t-99 -39h-291zM529 -346h135l140 289h-218z" />
    <glyph glyph-name="uni0157" unicode="&#x157;" horiz-adv-x="1368" 
d="M860 587h399q0 311 -86 460t-336 149q-228 0 -370 -118t-142 -293l152 -86q0 88 57 156t151 68q81 0 128 -60.5t47 -275.5zM80 0h399v992l-92 194h-307v-1186zM407 -346h135l140 289h-218z" />
    <glyph glyph-name="Rcaron" unicode="&#x158;" horiz-adv-x="1393" 
d="M78 0h405v520h409q246 0 329.5 117t83.5 289q0 174 -79 299t-318 125h-830v-1350zM896 0h438l-333 640l-400 -15zM483 766v311h291q71 0 98.5 -39.5t27.5 -117.5q0 -76 -27 -115t-99 -39h-291zM558 1394h252l229 221h-226l-129 -143l-128 143h-226z" />
    <glyph glyph-name="rcaron" unicode="&#x159;" horiz-adv-x="1368" 
d="M860 587h399q0 311 -86 460t-336 149q-228 0 -370 -118t-142 -293l152 -86q0 88 57 156t151 68q81 0 128 -60.5t47 -275.5zM80 0h399v992l-92 194h-307v-1186zM581 1230h252l229 221h-226l-129 -143l-128 143h-226z" />
    <glyph glyph-name="Sacute" unicode="&#x15a;" horiz-adv-x="1421" 
d="M502 1504h179l255 229h-265zM704 -7q376 0 505.5 130.5t129.5 315.5q0 173 -106.5 242.5t-411.5 128.5q-170 31 -272 56.5t-102 107.5q0 59 68.5 88t176.5 29q98 0 169.5 -34.5t71.5 -178.5h404q0 208 -133.5 346.5t-507.5 138.5q-373 0 -506 -128.5t-133 -307.5
q0 -176 109.5 -252.5t404.5 -135.5q172 -29 271 -55t99 -102q0 -65 -68.5 -91.5t-171.5 -26.5q-104 0 -173 35.5t-69 181.5h-403q0 -221 131 -354.5t517 -133.5z" />
    <glyph glyph-name="sacute" unicode="&#x15b;" horiz-adv-x="1380" 
d="M713 -9q283 0 439.5 86t156.5 300q0 182 -139 255t-347 96q-156 22 -254.5 36.5t-98.5 77.5q0 47 45.5 72t141.5 25q104 0 180.5 -46t101.5 -117l349 127q-50 161 -213.5 227t-412.5 66q-259 0 -422 -84.5t-163 -270.5q0 -185 127.5 -270t339.5 -110q163 -23 267 -37
t104 -77q0 -48 -53 -73t-143 -25q-119 0 -198 44.5t-104 122.5l-349 -129q55 -162 227.5 -229t417.5 -67zM474 1228h179l255 229h-265z" />
    <glyph glyph-name="Scircumflex" unicode="&#x15c;" horiz-adv-x="1421" 
d="M704 -7q376 0 505.5 130.5t129.5 315.5q0 173 -106.5 242.5t-411.5 128.5q-170 31 -272 56.5t-102 107.5q0 59 68.5 88t176.5 29q98 0 169.5 -34.5t71.5 -178.5h404q0 208 -133.5 346.5t-507.5 138.5q-373 0 -506 -128.5t-133 -307.5q0 -176 109.5 -252.5t404.5 -135.5
q172 -29 271 -55t99 -102q0 -65 -68.5 -91.5t-171.5 -26.5q-104 0 -173 35.5t-69 181.5h-403q0 -221 131 -354.5t517 -133.5zM353 1403h226l129 144l128 -144h226l-229 221h-252z" />
    <glyph glyph-name="scircumflex" unicode="&#x15d;" horiz-adv-x="1380" 
d="M713 -9q283 0 439.5 86t156.5 300q0 182 -139 255t-347 96q-156 22 -254.5 36.5t-98.5 77.5q0 47 45.5 72t141.5 25q104 0 180.5 -46t101.5 -117l349 127q-50 161 -213.5 227t-412.5 66q-259 0 -422 -84.5t-163 -270.5q0 -185 127.5 -270t339.5 -110q163 -23 267 -37
t104 -77q0 -48 -53 -73t-143 -25q-119 0 -198 44.5t-104 122.5l-349 -129q55 -162 227.5 -229t417.5 -67zM337 1239h226l129 144l128 -144h226l-229 221h-252z" />
    <glyph glyph-name="Scedilla" unicode="&#x15e;" horiz-adv-x="1421" 
d="M705 -380q66 0 130.5 13.5t116 40.5t82.5 65.5t31 87.5q0 65 -46 98t-123 33q-60 0 -106 -17t-70 -42l-7 -63q11 9 31.5 16.5t40.5 7.5q24 0 35 -6t11 -21q0 -22 -30.5 -35t-93.5 -13q-43 0 -81.5 6.5t-66.5 12.5l-52 -162q50 -10 101.5 -16t96.5 -6zM713 -164l61 166
h-154l-47 -154zM704 -7q376 0 505.5 130.5t129.5 315.5q0 173 -106.5 242.5t-411.5 128.5q-170 31 -272 56.5t-102 107.5q0 59 68.5 88t176.5 29q98 0 169.5 -34.5t71.5 -178.5h404q0 208 -133.5 346.5t-507.5 138.5q-373 0 -506 -128.5t-133 -307.5q0 -176 109.5 -252.5
t404.5 -135.5q172 -29 271 -55t99 -102q0 -65 -68.5 -91.5t-171.5 -26.5q-104 0 -173 35.5t-69 181.5h-403q0 -221 131 -354.5t517 -133.5z" />
    <glyph glyph-name="scedilla" unicode="&#x15f;" horiz-adv-x="1380" 
d="M713 -9q283 0 439.5 86t156.5 300q0 182 -139 255t-347 96q-156 22 -254.5 36.5t-98.5 77.5q0 47 45.5 72t141.5 25q104 0 180.5 -46t101.5 -117l349 127q-50 161 -213.5 227t-412.5 66q-259 0 -422 -84.5t-163 -270.5q0 -185 127.5 -270t339.5 -110q163 -23 267 -37
t104 -77q0 -48 -53 -73t-143 -25q-119 0 -198 44.5t-104 122.5l-349 -129q55 -162 227.5 -229t417.5 -67zM703 -382q66 0 130.5 13.5t116 40.5t82.5 65.5t31 87.5q0 65 -46 98t-123 33q-60 0 -106 -17t-70 -42l-7 -63q11 9 31.5 16.5t40.5 7.5q24 0 35 -6t11 -21
q0 -22 -30.5 -35t-93.5 -13q-43 0 -81.5 6.5t-66.5 12.5l-52 -162q50 -10 101.5 -16t96.5 -6zM711 -166l61 166h-154l-47 -154z" />
    <glyph glyph-name="Scaron" unicode="&#x160;" horiz-adv-x="1421" 
d="M573 1504h252l229 221h-226l-129 -143l-128 143h-226zM704 -7q376 0 505.5 130.5t129.5 315.5q0 173 -106.5 242.5t-411.5 128.5q-170 31 -272 56.5t-102 107.5q0 59 68.5 88t176.5 29q98 0 169.5 -34.5t71.5 -178.5h404q0 208 -133.5 346.5t-507.5 138.5
q-373 0 -506 -128.5t-133 -307.5q0 -176 109.5 -252.5t404.5 -135.5q172 -29 271 -55t99 -102q0 -65 -68.5 -91.5t-171.5 -26.5q-104 0 -173 35.5t-69 181.5h-403q0 -221 131 -354.5t517 -133.5z" />
    <glyph glyph-name="scaron" unicode="&#x161;" horiz-adv-x="1380" 
d="M713 -9q283 0 439.5 86t156.5 300q0 182 -139 255t-347 96q-156 22 -254.5 36.5t-98.5 77.5q0 47 45.5 72t141.5 25q104 0 180.5 -46t101.5 -117l349 127q-50 161 -213.5 227t-412.5 66q-259 0 -422 -84.5t-163 -270.5q0 -185 127.5 -270t339.5 -110q163 -23 267 -37
t104 -77q0 -48 -53 -73t-143 -25q-119 0 -198 44.5t-104 122.5l-349 -129q55 -162 227.5 -229t417.5 -67zM565 1231h252l229 221h-226l-129 -143l-128 143h-226z" />
    <glyph glyph-name="uni0162" unicode="&#x162;" horiz-adv-x="1336" 
d="M465 0h404v1077h396v273h-1196v-273h396v-1077zM684 -382q66 0 130.5 13.5t116 40.5t82.5 65.5t31 87.5q0 65 -46 98t-123 33q-60 0 -106 -17t-70 -42l-7 -63q11 9 31.5 16.5t40.5 7.5q24 0 35 -6t11 -21q0 -22 -30.5 -35t-93.5 -13q-43 0 -81.5 6.5t-66.5 12.5l-52 -162
q50 -10 101.5 -16t96.5 -6zM692 -166l61 166h-154l-47 -154z" />
    <glyph glyph-name="uni0163" unicode="&#x163;" horiz-adv-x="1130" 
d="M698 -16q148 0 283 30v262q-72 -26 -146 -26q-70 0 -109 27t-39 117v518h353v274h-353v272h-400v-272h-266v-274h266v-603q0 -183 120.5 -254t290.5 -71zM679 -381q66 0 130.5 13.5t116 40.5t82.5 65.5t31 87.5q0 65 -46 98t-123 33q-60 0 -106 -17t-70 -42l-7 -63
q11 9 31.5 16.5t40.5 7.5q24 0 35 -6t11 -21q0 -22 -30.5 -35t-93.5 -13q-43 0 -81.5 6.5t-66.5 12.5l-52 -162q50 -10 101.5 -16t96.5 -6zM687 -165l61 166h-154l-47 -154z" />
    <glyph glyph-name="Tcaron" unicode="&#x164;" horiz-adv-x="1336" 
d="M465 0h404v1077h396v273h-1196v-273h396v-1077zM542 1394h252l229 221h-226l-129 -143l-128 143h-226z" />
    <glyph glyph-name="tcaron" unicode="&#x165;" horiz-adv-x="1308" 
d="M1058 1172h183l67 286h-203zM698 -16q148 0 283 30v262q-72 -26 -146 -26q-70 0 -109 27t-39 117v518h353v274h-353v272h-400v-272h-266v-274h266v-603q0 -183 120.5 -254t290.5 -71z" />
    <glyph glyph-name="Tbar" unicode="&#x166;" horiz-adv-x="1336" 
d="M163 634h1020v235h-1020v-235zM465 0h404v1077h396v273h-1196v-273h396v-1077z" />
    <glyph glyph-name="tbar" unicode="&#x167;" horiz-adv-x="1101" 
d="M94 492h797v211h-797v-211zM698 -16q148 0 283 30v262q-72 -26 -146 -26q-70 0 -109 27t-39 117v518h353v274h-353v272h-400v-272h-266v-274h266v-603q0 -183 120.5 -254t290.5 -71z" />
    <glyph glyph-name="Utilde" unicode="&#x168;" horiz-adv-x="1463" 
d="M723 -7q328 0 487 108t159 361v888h-404v-845q0 -128 -56 -183.5t-186 -55.5t-185.5 56t-55.5 183v845h-404v-888q0 -253 159 -361t486 -108zM878 1406q63 0 105 17.5t68 45.5t40 59.5t19 61t5 48.5h-190q0 -14 -8 -32.5t-25 -32t-43 -13.5q-30 0 -55 13t-52.5 30.5
t-61.5 30.5t-82 13q-65 0 -109 -17t-70.5 -44.5t-40 -59t-18 -60.5t-6.5 -48h192q0 14 6.5 33t23.5 32t47 13q29 0 54.5 -14t53.5 -31.5t63 -31t84 -13.5z" />
    <glyph glyph-name="utilde" unicode="&#x169;" horiz-adv-x="1372" 
d="M960 0h306v1186h-399v-1002zM468 1186h-399v-625q0 -257 87.5 -413.5t330.5 -156.5q278 0 427.5 163.5t149.5 325.5l-195 73q0 -134 -69 -211.5t-165 -77.5q-88 0 -127.5 62t-39.5 256v604zM827 1242q63 0 105 17.5t68 45.5t40 59.5t19 61t5 48.5h-190q0 -14 -8 -32.5
t-25 -32t-43 -13.5q-30 0 -55 13t-52.5 30.5t-61.5 30.5t-82 13q-65 0 -109 -17t-70.5 -44.5t-40 -59t-18 -60.5t-6.5 -48h192q0 14 6.5 33t23.5 32t47 13q29 0 54.5 -14t53.5 -31.5t63 -31t84 -13.5z" />
    <glyph glyph-name="Umacron" unicode="&#x16a;" horiz-adv-x="1463" 
d="M723 -7q328 0 487 108t159 361v888h-404v-845q0 -128 -56 -183.5t-186 -55.5t-185.5 56t-55.5 183v845h-404v-888q0 -253 159 -361t486 -108zM368 1440h725v144h-725v-144z" />
    <glyph glyph-name="umacron" unicode="&#x16b;" horiz-adv-x="1372" 
d="M960 0h306v1186h-399v-1002zM468 1186h-399v-625q0 -257 87.5 -413.5t330.5 -156.5q278 0 427.5 163.5t149.5 325.5l-195 73q0 -134 -69 -211.5t-165 -77.5q-88 0 -127.5 62t-39.5 256v604zM316 1275h725v144h-725v-144z" />
    <glyph glyph-name="Ubreve" unicode="&#x16c;" horiz-adv-x="1463" 
d="M723 -7q328 0 487 108t159 361v888h-404v-845q0 -128 -56 -183.5t-186 -55.5t-185.5 56t-55.5 183v845h-404v-888q0 -253 159 -361t486 -108zM731 1395q87 0 149 29.5t94.5 77.5t32.5 107h-184q0 -27 -9 -46.5t-29 -29t-54 -9.5q-30 0 -50.5 10t-31 28.5t-10.5 46.5h-185
q0 -59 34 -107t96 -77.5t147 -29.5z" />
    <glyph glyph-name="ubreve" unicode="&#x16d;" horiz-adv-x="1372" 
d="M960 0h306v1186h-399v-1002zM468 1186h-399v-625q0 -257 87.5 -413.5t330.5 -156.5q278 0 427.5 163.5t149.5 325.5l-195 73q0 -134 -69 -211.5t-165 -77.5q-88 0 -127.5 62t-39.5 256v604zM679 1230q87 0 149 29.5t94.5 77.5t32.5 107h-184q0 -27 -9 -46.5t-29 -29
t-54 -9.5q-30 0 -50.5 10t-31 28.5t-10.5 46.5h-185q0 -59 34 -107t96 -77.5t147 -29.5z" />
    <glyph glyph-name="Uring" unicode="&#x16e;" horiz-adv-x="1463" 
d="M723 -7q328 0 487 108t159 361v888h-404v-845q0 -128 -56 -183.5t-186 -55.5t-185.5 56t-55.5 183v845h-404v-888q0 -253 159 -361t486 -108zM730 1392q79 0 133 55t54 134q0 81 -54 134.5t-133 53.5q-80 0 -133.5 -53.5t-53.5 -134.5q0 -80 53.5 -134.5t133.5 -54.5z
M730 1530q-19 0 -33.5 15.5t-14.5 35.5q0 22 14.5 35.5t33.5 13.5q20 0 34 -13.5t14 -35.5q0 -20 -14 -35.5t-34 -15.5z" />
    <glyph glyph-name="uring" unicode="&#x16f;" horiz-adv-x="1372" 
d="M960 0h306v1186h-399v-1002zM468 1186h-399v-625q0 -257 87.5 -413.5t330.5 -156.5q278 0 427.5 163.5t149.5 325.5l-195 73q0 -134 -69 -211.5t-165 -77.5q-88 0 -127.5 62t-39.5 256v604zM679 1228q79 0 133 55t54 134q0 81 -54 134.5t-133 53.5q-80 0 -133.5 -53.5
t-53.5 -134.5q0 -80 53.5 -134.5t133.5 -54.5zM679 1366q-19 0 -33.5 15.5t-14.5 35.5q0 22 14.5 35.5t33.5 13.5q20 0 34 -13.5t14 -35.5q0 -20 -14 -35.5t-34 -15.5z" />
    <glyph glyph-name="Uhungarumlaut" unicode="&#x170;" horiz-adv-x="1463" 
d="M723 -7q328 0 487 108t159 361v888h-404v-845q0 -128 -56 -183.5t-186 -55.5t-185.5 56t-55.5 183v845h-404v-888q0 -253 159 -361t486 -108zM599 1417h175l240 207h-237zM447 1417h176l229 207h-229z" />
    <glyph glyph-name="uhungarumlaut" unicode="&#x171;" horiz-adv-x="1372" 
d="M960 0h306v1186h-399v-1002zM468 1186h-399v-625q0 -257 87.5 -413.5t330.5 -156.5q278 0 427.5 163.5t149.5 325.5l-195 73q0 -134 -69 -211.5t-165 -77.5q-88 0 -127.5 62t-39.5 256v604zM548 1253h175l240 207h-237zM396 1253h176l229 207h-229z" />
    <glyph glyph-name="Uogonek" unicode="&#x172;" horiz-adv-x="1463" 
d="M723 -7q328 0 487 108t159 361v888h-404v-845q0 -128 -56 -183.5t-186 -55.5t-185.5 56t-55.5 183v845h-404v-888q0 -253 159 -361t486 -108zM682 -399q53 0 101.5 5t83.5 12t45 11l-1 193q-11 -5 -39.5 -12.5t-63.5 -12.5t-67 -5q-41 0 -59.5 15.5t-18.5 40.5
q0 21 10 50t25 57.5t28 44.5h-192q-17 -19 -40 -54t-39 -80.5t-16 -96.5q0 -66 35 -102.5t91 -51t117 -14.5z" />
    <glyph glyph-name="uogonek" unicode="&#x173;" horiz-adv-x="1372" 
d="M960 0h306v1186h-399v-1002zM468 1186h-399v-625q0 -257 87.5 -413.5t330.5 -156.5q278 0 427.5 163.5t149.5 325.5l-195 73q0 -134 -69 -211.5t-165 -77.5q-88 0 -127.5 62t-39.5 256v604zM1222 -399q53 0 101.5 5t83.5 12t45 11l-1 193q-11 -5 -39.5 -12.5t-63.5 -12.5
t-67 -5q-41 0 -59.5 15.5t-18.5 40.5q0 21 10 50t25 57.5t28 44.5h-192q-17 -19 -40 -54t-39 -80.5t-16 -96.5q0 -66 35 -102.5t91 -51t117 -14.5z" />
    <glyph glyph-name="Wcircumflex" unicode="&#x174;" horiz-adv-x="2136" 
d="M272 0h615l168 1077h3l167 -1077h616l245 1350h-437l-138 -1057h-3l-187 1057h-528l-186 -1056h-4l-132 1056h-434zM714 1403h226l129 144l128 -144h226l-229 221h-252z" />
    <glyph glyph-name="wcircumflex" unicode="&#x175;" horiz-adv-x="2001" 
d="M308 0h533l157 786l156 -786h528l262 1186h-412l-125 -922h-3l-206 922h-396l-208 -925h-3l-132 925h-412zM642 1239h226l129 144l128 -144h226l-229 221h-252z" />
    <glyph glyph-name="Ycircumflex" unicode="&#x176;" horiz-adv-x="1483" 
d="M540 0h403v488l529 862h-438l-291 -547h-1l-294 547h-437l529 -861v-489zM386 1403h226l129 144l128 -144h226l-229 221h-252z" />
    <glyph glyph-name="ycircumflex" unicode="&#x177;" horiz-adv-x="1328" 
d="M352 0h609l328 1186h-418l-214 -926h-3l-216 926h-417zM125 -467q342 0 547.5 88t288.5 379l-369 1q-35 -130 -139 -165t-328 -35v-268zM298 1239h226l129 144l128 -144h226l-229 221h-252z" />
    <glyph glyph-name="Ydieresis" unicode="&#x178;" horiz-adv-x="1483" 
d="M540 0h403v488l529 862h-438l-291 -547h-1l-294 547h-437l529 -861v-489zM519 1408q44 0 75 31t31 75q0 45 -31 76t-75 31q-45 0 -76 -31t-31 -76q0 -44 31 -75t76 -31zM955 1408q45 0 75.5 31t30.5 75q0 45 -30.5 76t-75.5 31q-43 0 -74.5 -31t-31.5 -76q0 -44 31 -75
t75 -31z" />
    <glyph glyph-name="Zacute" unicode="&#x179;" horiz-adv-x="1220" 
d="M59 0h1074v273h-630l616 804v273h-1046v-271h602l-616 -797v-282zM394 1392h179l255 229h-265z" />
    <glyph glyph-name="zacute" unicode="&#x17a;" horiz-adv-x="1149" 
d="M72 0h998v272h-521v2l510 645v267h-988v-272h525v-1l-524 -645v-268zM352 1227h179l255 229h-265z" />
    <glyph glyph-name="Zdotaccent" unicode="&#x17b;" horiz-adv-x="1220" 
d="M59 0h1074v273h-630l616 804v273h-1046v-271h602l-616 -797v-282zM610 1396q46 0 78 32.5t32 78.5q0 45 -32 77.5t-78 32.5t-78.5 -32.5t-32.5 -77.5q0 -46 32.5 -78.5t78.5 -32.5z" />
    <glyph glyph-name="zdotaccent" unicode="&#x17c;" horiz-adv-x="1149" 
d="M72 0h998v272h-521v2l510 645v267h-988v-272h525v-1l-524 -645v-268zM570 1232q46 0 78 32.5t32 78.5q0 45 -32 77.5t-78 32.5t-78.5 -32.5t-32.5 -77.5q0 -46 32.5 -78.5t78.5 -32.5z" />
    <glyph glyph-name="Zcaron" unicode="&#x17d;" horiz-adv-x="1220" 
d="M59 0h1074v273h-630l616 804v273h-1046v-271h602l-616 -797v-282zM484 1394h252l229 221h-226l-129 -143l-128 143h-226z" />
    <glyph glyph-name="zcaron" unicode="&#x17e;" horiz-adv-x="1149" 
d="M72 0h998v272h-521v2l510 645v267h-988v-272h525v-1l-524 -645v-268zM444 1230h252l229 221h-226l-129 -143l-128 143h-226z" />
    <glyph glyph-name="uni018F" unicode="&#x18f;" horiz-adv-x="1382" 
d="M687 -11v0q357 0 497 169q141 170 141 522q0 353 -140 517q-142 166 -505 166l-1 -258q134 0 198 -73q62 -71 62 -356q0 -303 -65 -367q-66 -64 -188 -64q-103 0 -171 57q-60 52 -67 251h526v243h-915q-8 -51 -8 -121q0 -341 135 -512q134 -174 501 -174zM450 942v0
q9 40 31.5 70.5t53 51t68 31t76.5 10.5l25 153l-24 105q-87 0 -167.5 -10.5t-150 -33.5t-125 -58.5t-92.5 -85t-51 -113.5z" />
    <glyph glyph-name="florin" unicode="&#x192;" horiz-adv-x="1111" 
d="M-265 -437h196q174 0 302.5 36.5t206.5 115.5t99 204l146 995h360l43 272h-359l4 29q13 57 59.5 80.5t123.5 23.5h195l41 252h-197q-176 0 -307 -36t-210 -113.5t-102 -203.5l-5 -32h-244l-44 -272h243l-145 -991q-8 -60 -53.5 -83.5t-117.5 -23.5h-191z" />
    <glyph glyph-name="Ohorn" unicode="&#x1a0;" horiz-adv-x="1459" 
d="M726 -12q387 0 531.5 178t144.5 509t-144.5 509.5t-531.5 178.5t-531 -178t-144 -510q0 -331 144.5 -509t530.5 -178zM726 262q-124 0 -198.5 64.5t-74.5 348.5q0 289 74.5 351.5t198.5 62.5q125 0 199 -62.5t74 -351.5q0 -284 -74 -348.5t-199 -64.5zM1190 1207v-128
q144 0 247.5 35t160.5 104.5t57 173.5h-226q0 -66 -24 -106.5t-76.5 -59.5t-138.5 -19z" />
    <glyph glyph-name="ohorn" unicode="&#x1a1;" horiz-adv-x="1400" 
d="M691 -9q355 0 498 161.5t143 445.5q0 286 -143 444t-498 158q-353 0 -496.5 -158t-143.5 -444q0 -284 143.5 -445.5t496.5 -161.5zM691 260q-106 0 -173.5 62.5t-67.5 274.5q0 211 67.5 272.5t173.5 61.5q107 0 174.5 -61.5t67.5 -272.5q0 -212 -67.5 -274.5
t-174.5 -62.5zM1148 1057v-128q144 0 247.5 35t160.5 104.5t57 173.5h-226q0 -66 -24 -106.5t-76.5 -59.5t-138.5 -19z" />
    <glyph glyph-name="Uhorn" unicode="&#x1af;" horiz-adv-x="1463" 
d="M723 -7q328 0 487 108t159 361v888h-404v-845q0 -128 -56 -183.5t-186 -55.5t-185.5 56t-55.5 183v845h-404v-888q0 -253 159 -361t486 -108zM1366 1226v-128q144 0 247.5 35t160.5 104.5t57 173.5h-226q0 -66 -24 -106.5t-76.5 -59.5t-138.5 -19z" />
    <glyph glyph-name="uhorn" unicode="&#x1b0;" horiz-adv-x="1372" 
d="M960 0h306v1186h-399v-1002zM468 1186h-399v-625q0 -257 87.5 -413.5t330.5 -156.5q278 0 427.5 163.5t149.5 325.5l-195 73q0 -134 -69 -211.5t-165 -77.5q-88 0 -127.5 62t-39.5 256v604zM1264 1185v-128q144 0 247.5 35t160.5 104.5t57 173.5h-226q0 -66 -24 -106.5
t-76.5 -59.5t-138.5 -19z" />
    <glyph glyph-name="uni01C4" unicode="&#x1c4;" horiz-adv-x="2625" 
d="M78 0h753q292 0 404 152.5t112 523.5q0 370 -111.5 522t-404.5 152h-753v-1350zM481 273v804h239q116 0 170 -59t54 -342q0 -284 -54 -343.5t-170 -59.5h-239zM1464 0h1074v273h-630l616 804v273h-1046v-271h602l-616 -797v-282zM1888 1394h252l229 221h-226l-129 -143
l-128 143h-226z" />
    <glyph glyph-name="uni01C5" unicode="&#x1c5;" horiz-adv-x="2553" 
d="M78 0h753q292 0 404 152.5t112 523.5q0 370 -111.5 522t-404.5 152h-753v-1350zM481 273v804h239q116 0 170 -59t54 -342q0 -284 -54 -343.5t-170 -59.5h-239zM1477 0h998v272h-521v2l510 645v267h-988v-272h525v-1l-524 -645v-268zM1847 1230h252l229 221h-226
l-129 -143l-128 143h-226z" />
    <glyph glyph-name="uni01C6" unicode="&#x1c6;" horiz-adv-x="2554" 
d="M926 0h371v1570h-398v-1401zM525 -7q221 0 386 98t165 225l-177 166q0 -96 -70 -157t-163 -61q-103 0 -157.5 63t-54.5 267q0 202 54.5 265.5t157.5 63.5q93 0 163 -60.5t70 -155.5l177 164q0 126 -165 225t-386 99q-254 0 -364 -164t-110 -435q0 -272 110 -437.5
t364 -165.5zM1477 0h998v272h-521v2l510 645v267h-988v-272h525v-1l-524 -645v-268zM1847 1230h252l229 221h-226l-129 -143l-128 143h-226z" />
    <glyph glyph-name="uni01C7" unicode="&#x1c7;" horiz-adv-x="2476" 
d="M78 0h932v272h-528v1078h-404v-1350zM1750 -11q311 0 466 102.5t155 301.5v957h-403v-898q0 -98 -47 -145.5t-172 -47.5t-170 50.5t-45 150.5v146h-403v-192q0 -218 155.5 -321.5t463.5 -103.5z" />
    <glyph glyph-name="uni01C8" unicode="&#x1c8;" horiz-adv-x="1732" 
d="M78 0h932v272h-528v1078h-404v-1350zM945 -460q326 0 495.5 108t169.5 431v1107h-399v-1123q0 -153 -69.5 -200.5t-196.5 -47.5v-275zM1211 1557v-261h399v261h-399z" />
    <glyph glyph-name="uni01C9" unicode="&#x1c9;" horiz-adv-x="1277" 
d="M107 0h400v1570h-400v-1570zM491 -460q326 0 495.5 108t169.5 431v1107h-399v-1123q0 -153 -69.5 -200.5t-196.5 -47.5v-275zM757 1557v-261h399v261h-399z" />
    <glyph glyph-name="uni01CA" unicode="&#x1ca;" horiz-adv-x="3062" 
d="M78 0h401v1065h5l433 -1065h635v1350h-402l-4 -1044h-3l-424 1044h-641v-1350zM2335 -11q311 0 466 102.5t155 301.5v957h-403v-898q0 -98 -47 -145.5t-172 -47.5t-170 50.5t-45 150.5v146h-403v-192q0 -218 155.5 -321.5t463.5 -103.5z" />
    <glyph glyph-name="uni01CB" unicode="&#x1cb;" horiz-adv-x="2318" 
d="M78 0h401v1065h5l433 -1065h635v1350h-402l-4 -1044h-3l-424 1044h-641v-1350zM1530 -460q326 0 495.5 108t169.5 431v1107h-399v-1123q0 -153 -69.5 -200.5t-196.5 -47.5v-275zM1796 1557v-261h399v261h-399z" />
    <glyph glyph-name="uni01CC" unicode="&#x1cc;" horiz-adv-x="2029" 
d="M80 0h399v999l-92 187h-307v-1186zM866 0h399v611q0 258 -89.5 421t-328.5 163q-258 0 -417 -163t-159 -326l194 -81q0 134 67.5 215.5t162.5 81.5q88 0 129.5 -62t41.5 -255v-605zM1242 -460q326 0 495.5 108t169.5 431v1107h-399v-1123q0 -153 -69.5 -200.5
t-196.5 -47.5v-275zM1508 1557v-261h399v261h-399z" />
    <glyph glyph-name="uni01CD" unicode="&#x1cd;" horiz-adv-x="1522" 
d="M56 0h416l80 307h421l78 -307h416l-421 1351h-570zM617 571l144 545h4l144 -545h-292zM634 1394h252l229 221h-226l-129 -143l-128 143h-226z" />
    <glyph glyph-name="uni01CE" unicode="&#x1ce;" horiz-adv-x="1400" 
d="M535 -13q72 0 137 12t118 32t90.5 45t55.5 53l35 -129h332v733q0 170 -70.5 271.5t-208.5 147.5t-341 46q-107 0 -207.5 -17t-183.5 -53.5t-141.5 -97.5t-81.5 -149l390 -110q16 62 50 97t80 49t96 14q68 0 116 -16.5t74 -55t26 -105.5v-35h-368q-120 0 -210 -19.5
t-149.5 -61.5t-89 -110.5t-29.5 -168.5q0 -106 31 -178t93 -114.5t151 -61t205 -18.5zM625 241q-37 0 -68 6t-53 20.5t-33.5 40t-11.5 66.5q0 42 11 68t32.5 39t53.5 18.5t72 5.5h267v-166q-20 -27 -61.5 -49.5t-95.5 -35.5t-113 -13zM555 1231h252l229 221h-226l-129 -143
l-128 143h-226z" />
    <glyph glyph-name="uni01CF" unicode="&#x1cf;" horiz-adv-x="663" 
d="M123 0h402v1350h-402v-1350zM197 1394h252l229 221h-226l-129 -143l-128 143h-226z" />
    <glyph glyph-name="uni01D0" unicode="&#x1d0;" horiz-adv-x="607" 
d="M89 0h402v1186h-402v-1186zM164 1230h252l229 221h-226l-129 -143l-128 143h-226z" />
    <glyph glyph-name="uni01D1" unicode="&#x1d1;" horiz-adv-x="1459" 
d="M726 -12q387 0 531.5 178t144.5 509t-144.5 509.5t-531.5 178.5t-531 -178t-144 -510q0 -331 144.5 -509t530.5 -178zM726 262q-124 0 -198.5 64.5t-74.5 348.5q0 289 74.5 351.5t198.5 62.5q125 0 199 -62.5t74 -351.5q0 -284 -74 -348.5t-199 -64.5zM603 1394h252
l229 221h-226l-129 -143l-128 143h-226z" />
    <glyph glyph-name="uni01D2" unicode="&#x1d2;" horiz-adv-x="1400" 
d="M691 -9q355 0 498 161.5t143 445.5q0 286 -143 444t-498 158q-353 0 -496.5 -158t-143.5 -444q0 -284 143.5 -445.5t496.5 -161.5zM691 260q-106 0 -173.5 62.5t-67.5 274.5q0 211 67.5 272.5t173.5 61.5q107 0 174.5 -61.5t67.5 -272.5q0 -212 -67.5 -274.5
t-174.5 -62.5zM565 1231h252l229 221h-226l-129 -143l-128 143h-226z" />
    <glyph glyph-name="uni01D3" unicode="&#x1d3;" horiz-adv-x="1463" 
d="M723 -7q328 0 487 108t159 361v888h-404v-845q0 -128 -56 -183.5t-186 -55.5t-185.5 56t-55.5 183v845h-404v-888q0 -253 159 -361t486 -108zM603 1394h252l229 221h-226l-129 -143l-128 143h-226z" />
    <glyph glyph-name="uni01D4" unicode="&#x1d4;" horiz-adv-x="1372" 
d="M960 0h306v1186h-399v-1002zM468 1186h-399v-625q0 -257 87.5 -413.5t330.5 -156.5q278 0 427.5 163.5t149.5 325.5l-195 73q0 -134 -69 -211.5t-165 -77.5q-88 0 -127.5 62t-39.5 256v604zM553 1230h252l229 221h-226l-129 -143l-128 143h-226z" />
    <glyph glyph-name="uni01D5" unicode="&#x1d5;" horiz-adv-x="1463" 
d="M723 -7q328 0 487 108t159 361v888h-404v-845q0 -128 -56 -183.5t-186 -55.5t-185.5 56t-55.5 183v845h-404v-888q0 -253 159 -361t486 -108zM509 1408q44 0 75 31t31 75q0 45 -31 76t-75 31q-45 0 -76 -31t-31 -76q0 -44 31 -75t76 -31zM945 1408q45 0 75.5 31t30.5 75
q0 45 -30.5 76t-75.5 31q-43 0 -74.5 -31t-31.5 -76q0 -44 31 -75t75 -31zM363 1710h725v144h-725v-144z" />
    <glyph glyph-name="uni01D6" unicode="&#x1d6;" horiz-adv-x="1372" 
d="M960 0h306v1186h-399v-1002zM468 1186h-399v-625q0 -257 87.5 -413.5t330.5 -156.5q278 0 427.5 163.5t149.5 325.5l-195 73q0 -134 -69 -211.5t-165 -77.5q-88 0 -127.5 62t-39.5 256v604zM458 1244q44 0 75 31t31 75q0 45 -31 76t-75 31q-45 0 -76 -31t-31 -76
q0 -44 31 -75t76 -31zM894 1244q45 0 75.5 31t30.5 75q0 45 -30.5 76t-75.5 31q-43 0 -74.5 -31t-31.5 -76q0 -44 31 -75t75 -31zM316 1548h725v144h-725v-144z" />
    <glyph glyph-name="uni01D7" unicode="&#x1d7;" horiz-adv-x="1463" 
d="M723 -7q328 0 487 108t159 361v888h-404v-845q0 -128 -56 -183.5t-186 -55.5t-185.5 56t-55.5 183v845h-404v-888q0 -253 159 -361t486 -108zM509 1408q44 0 75 31t31 75q0 45 -31 76t-75 31q-45 0 -76 -31t-31 -76q0 -44 31 -75t76 -31zM945 1408q45 0 75.5 31t30.5 75
q0 45 -30.5 76t-75.5 31q-43 0 -74.5 -31t-31.5 -76q0 -44 31 -75t75 -31zM532 1704h179l255 229h-265z" />
    <glyph glyph-name="uni01D8" unicode="&#x1d8;" horiz-adv-x="1372" 
d="M960 0h306v1186h-399v-1002zM468 1186h-399v-625q0 -257 87.5 -413.5t330.5 -156.5q278 0 427.5 163.5t149.5 325.5l-195 73q0 -134 -69 -211.5t-165 -77.5q-88 0 -127.5 62t-39.5 256v604zM458 1244q44 0 75 31t31 75q0 45 -31 76t-75 31q-45 0 -76 -31t-31 -76
q0 -44 31 -75t76 -31zM894 1244q45 0 75.5 31t30.5 75q0 45 -30.5 76t-75.5 31q-43 0 -74.5 -31t-31.5 -76q0 -44 31 -75t75 -31zM541 1459h179l255 229h-265z" />
    <glyph glyph-name="uni01D9" unicode="&#x1d9;" horiz-adv-x="1463" 
d="M723 -7q328 0 487 108t159 361v888h-404v-845q0 -128 -56 -183.5t-186 -55.5t-185.5 56t-55.5 183v845h-404v-888q0 -253 159 -361t486 -108zM509 1408q44 0 75 31t31 75q0 45 -31 76t-75 31q-45 0 -76 -31t-31 -76q0 -44 31 -75t76 -31zM945 1408q45 0 75.5 31t30.5 75
q0 45 -30.5 76t-75.5 31q-43 0 -74.5 -31t-31.5 -76q0 -44 31 -75t75 -31zM600 1709h252l229 221h-226l-129 -143l-128 143h-226z" />
    <glyph glyph-name="uni01DA" unicode="&#x1da;" horiz-adv-x="1372" 
d="M960 0h306v1186h-399v-1002zM468 1186h-399v-625q0 -257 87.5 -413.5t330.5 -156.5q278 0 427.5 163.5t149.5 325.5l-195 73q0 -134 -69 -211.5t-165 -77.5q-88 0 -127.5 62t-39.5 256v604zM458 1244q44 0 75 31t31 75q0 45 -31 76t-75 31q-45 0 -76 -31t-31 -76
q0 -44 31 -75t76 -31zM894 1244q45 0 75.5 31t30.5 75q0 45 -30.5 76t-75.5 31q-43 0 -74.5 -31t-31.5 -76q0 -44 31 -75t75 -31zM553 1502h252l229 221h-226l-129 -143l-128 143h-226z" />
    <glyph glyph-name="uni01DB" unicode="&#x1db;" horiz-adv-x="1463" 
d="M723 -7q328 0 487 108t159 361v888h-404v-845q0 -128 -56 -183.5t-186 -55.5t-185.5 56t-55.5 183v845h-404v-888q0 -253 159 -361t486 -108zM509 1408q44 0 75 31t31 75q0 45 -31 76t-75 31q-45 0 -76 -31t-31 -76q0 -44 31 -75t76 -31zM945 1408q45 0 75.5 31t30.5 75
q0 45 -30.5 76t-75.5 31q-43 0 -74.5 -31t-31.5 -76q0 -44 31 -75t75 -31zM703 1700h179l-170 229h-265z" />
    <glyph glyph-name="uni01DC" unicode="&#x1dc;" horiz-adv-x="1372" 
d="M960 0h306v1186h-399v-1002zM468 1186h-399v-625q0 -257 87.5 -413.5t330.5 -156.5q278 0 427.5 163.5t149.5 325.5l-195 73q0 -134 -69 -211.5t-165 -77.5q-88 0 -127.5 62t-39.5 256v604zM458 1244q44 0 75 31t31 75q0 45 -31 76t-75 31q-45 0 -76 -31t-31 -76
q0 -44 31 -75t76 -31zM894 1244q45 0 75.5 31t30.5 75q0 45 -30.5 76t-75.5 31q-43 0 -74.5 -31t-31.5 -76q0 -44 31 -75t75 -31zM642 1466h179l-170 229h-265z" />
    <glyph glyph-name="Gcaron" unicode="&#x1e6;" horiz-adv-x="1458" 
d="M676 -8q305 1 401 159l45 -151h226v721h-614v-236h202l-1 -23q-10 -116 -59 -157t-161 -41q-122 0 -189.5 77.5t-67.5 325.5q0 295 67.5 359t185.5 64q115 0 168.5 -43t64.5 -191h404q-9 193 -143.5 350t-494.5 157q-385 0 -522 -176t-137 -507q0 -326 132.5 -507
t492.5 -181zM582 1394h252l229 221h-226l-129 -143l-128 143h-226z" />
    <glyph glyph-name="gcaron" unicode="&#x1e7;" horiz-adv-x="1412" 
d="M667 -471q199 0 326.5 47.5t217.5 168t90 333.5v1108h-292l-109 -230v-920q0 -173 -61.5 -214t-158.5 -41q-58 0 -105 17t-74.5 56.5t-33.5 96.5h-390q24 -232 194 -327t396 -95zM529 -7q221 0 385 98t164 225l-179 166q0 -96 -70 -157t-163 -61q-103 0 -157.5 63
t-54.5 267q0 202 54.5 265.5t157.5 63.5q93 0 163 -60.5t70 -155.5l177 155q0 126 -165 229.5t-386 103.5q-254 0 -364 -164t-110 -435q0 -272 112 -437.5t366 -165.5zM564 1230h252l229 221h-226l-129 -143l-128 143h-226z" />
    <glyph glyph-name="uni01EA" unicode="&#x1ea;" horiz-adv-x="1459" 
d="M726 -12q387 0 531.5 178t144.5 509t-144.5 509.5t-531.5 178.5t-531 -178t-144 -510q0 -331 144.5 -509t530.5 -178zM726 262q-124 0 -198.5 64.5t-74.5 348.5q0 289 74.5 351.5t198.5 62.5q125 0 199 -62.5t74 -351.5q0 -284 -74 -348.5t-199 -64.5zM1134 -316
q53 0 101.5 5t83.5 12t45 11l-1 193q-11 -5 -39.5 -12.5t-63.5 -12.5t-67 -5q-41 0 -59.5 15.5t-18.5 40.5q0 21 10 50t25 57.5t28 44.5h-192q-17 -19 -40 -54t-39 -80.5t-16 -96.5q0 -66 35 -102.5t91 -51t117 -14.5z" />
    <glyph glyph-name="uni01EB" unicode="&#x1eb;" horiz-adv-x="1400" 
d="M691 -9q355 0 498 161.5t143 445.5q0 286 -143 444t-498 158q-353 0 -496.5 -158t-143.5 -444q0 -284 143.5 -445.5t496.5 -161.5zM691 260q-106 0 -173.5 62.5t-67.5 274.5q0 211 67.5 272.5t173.5 61.5q107 0 174.5 -61.5t67.5 -272.5q0 -212 -67.5 -274.5
t-174.5 -62.5zM658 -400q53 0 101.5 5t83.5 12t45 11l-1 193q-11 -5 -39.5 -12.5t-63.5 -12.5t-67 -5q-41 0 -59.5 15.5t-18.5 40.5q0 21 10 50t25 57.5t28 44.5h-192q-17 -19 -40 -54t-39 -80.5t-16 -96.5q0 -66 35 -102.5t91 -51t117 -14.5z" />
    <glyph glyph-name="Aringacute" unicode="&#x1fa;" horiz-adv-x="1522" 
d="M56 0h416l80 307h421l78 -307h416l-421 1351h-570zM617 571l144 545h4l144 -545h-292zM760 1368q79 0 133 55t54 134q0 81 -54 134.5t-133 53.5q-80 0 -133.5 -53.5t-53.5 -134.5q0 -80 53.5 -134.5t133.5 -54.5zM760 1506q-19 0 -33.5 15.5t-14.5 35.5q0 22 14.5 35.5
t33.5 13.5q20 0 34 -13.5t14 -35.5q0 -20 -14 -35.5t-34 -15.5zM543 1787h179l255 229h-265z" />
    <glyph glyph-name="aringacute" unicode="&#x1fb;" horiz-adv-x="1400" 
d="M535 -13q72 0 137 12t118 32t90.5 45t55.5 53l35 -129h332v733q0 170 -70.5 271.5t-208.5 147.5t-341 46q-107 0 -207.5 -17t-183.5 -53.5t-141.5 -97.5t-81.5 -149l390 -110q16 62 50 97t80 49t96 14q68 0 116 -16.5t74 -55t26 -105.5v-35h-368q-120 0 -210 -19.5
t-149.5 -61.5t-89 -110.5t-29.5 -168.5q0 -106 31 -178t93 -114.5t151 -61t205 -18.5zM625 241q-37 0 -68 6t-53 20.5t-33.5 40t-11.5 66.5q0 42 11 68t32.5 39t53.5 18.5t72 5.5h267v-166q-20 -27 -61.5 -49.5t-95.5 -35.5t-113 -13zM682 1229q79 0 133 55t54 134
q0 81 -54 134.5t-133 53.5q-80 0 -133.5 -53.5t-53.5 -134.5q0 -80 53.5 -134.5t133.5 -54.5zM682 1367q-19 0 -33.5 15.5t-14.5 35.5q0 22 14.5 35.5t33.5 13.5q20 0 34 -13.5t14 -35.5q0 -20 -14 -35.5t-34 -15.5zM464 1647h179l255 229h-265z" />
    <glyph glyph-name="AEacute" unicode="&#x1fc;" horiz-adv-x="2096" 
d="M56 0h424l592 1208v142h-346zM423 246h642v266h-564zM979 0h1031v273h-626v278h578v260h-578v266h626v273h-1031v-1350zM810 1392h179l255 229h-265z" />
    <glyph glyph-name="aeacute" unicode="&#x1fd;" horiz-adv-x="2243" 
d="M1270 417v288q0 228 -125.5 360t-452.5 132t-437.5 -102.5t-161.5 -238.5l381 -112q29 129 80 164.5t141 35.5q96 0 151.5 -46t55.5 -160v-465l60 -24zM530 -13q277 0 429 84.5t166 262.5l-220 120q0 -131 -64 -178.5t-182 -47.5t-153.5 32.5t-35.5 82.5q0 64 42.5 91
t162.5 27h242v224h-378q-216 0 -350 -68t-134 -273q0 -185 131 -271t344 -86zM1544 -12v256q-117 0 -188 66q-71 64 -71 282q0 217 70 284t183 67q112 0 175 -59q43 -47 56 -170h-519v-239h915q8 52 8 117q0 274 -135 441q-134 166 -501 166q-357 0 -497 -163
q-141 -163 -141 -443q0 -277 141 -441q140 -164 504 -164zM1544 244v-256q192 0 297 33q107 32 187 98q78 65 102 180l-356 101q-23 -52 -50 -89q-26 -36 -68 -51q-42 -16 -112 -16zM892 1228h179l255 229h-265z" />
    <glyph glyph-name="Oslashacute" unicode="&#x1fe;" horiz-adv-x="1410" 
d="M25 0h206l1161 1348h-203zM726 -12q387 0 531.5 178t144.5 509t-144.5 509.5t-531.5 178.5t-531 -178t-144 -510q0 -331 144.5 -509t530.5 -178zM726 262q-124 0 -198.5 64.5t-74.5 348.5q0 289 74.5 351.5t198.5 62.5q125 0 199 -62.5t74 -351.5q0 -284 -74 -348.5
t-199 -64.5zM496 1392h179l255 229h-265z" />
    <glyph glyph-name="oslashacute" unicode="&#x1ff;" horiz-adv-x="1399" 
d="M-23 22l124 -103l1283 1259l-132 93zM691 -9q355 0 498 161.5t143 445.5q0 286 -143 444t-498 158q-353 0 -496.5 -158t-143.5 -444q0 -284 143.5 -445.5t496.5 -161.5zM691 260q-106 0 -173.5 62.5t-67.5 274.5q0 211 67.5 272.5t173.5 61.5q107 0 174.5 -61.5
t67.5 -272.5q0 -212 -67.5 -274.5t-174.5 -62.5zM475 1234h179l255 229h-265z" />
    <glyph glyph-name="uni0200" unicode="&#x200;" horiz-adv-x="1522" 
d="M56 0h416l80 307h421l78 -307h416l-421 1351h-570zM617 571l144 545h4l144 -545h-292zM886 1413h179l-170 229h-265zM553 1413h179l-170 229h-265z" />
    <glyph glyph-name="uni0201" unicode="&#x201;" horiz-adv-x="1400" 
d="M535 -13q72 0 137 12t118 32t90.5 45t55.5 53l35 -129h332v733q0 170 -70.5 271.5t-208.5 147.5t-341 46q-107 0 -207.5 -17t-183.5 -53.5t-141.5 -97.5t-81.5 -149l390 -110q16 62 50 97t80 49t96 14q68 0 116 -16.5t74 -55t26 -105.5v-35h-368q-120 0 -210 -19.5
t-149.5 -61.5t-89 -110.5t-29.5 -168.5q0 -106 31 -178t93 -114.5t151 -61t205 -18.5zM625 241q-37 0 -68 6t-53 20.5t-33.5 40t-11.5 66.5q0 42 11 68t32.5 39t53.5 18.5t72 5.5h267v-166q-20 -27 -61.5 -49.5t-95.5 -35.5t-113 -13zM806 1248h179l-170 229h-265zM475 1248
h179l-170 229h-265z" />
    <glyph glyph-name="uni0202" unicode="&#x202;" horiz-adv-x="1522" 
d="M56 0h416l80 307h421l78 -307h416l-421 1351h-570zM617 571l144 545h4l144 -545h-292zM761 1630q-87 0 -149 -28.5t-95 -77t-33 -108.5h185q0 28 9 47t29 28.5t54 9.5q30 0 50.5 -9.5t31 -28t10.5 -47.5h185q0 60 -33.5 108.5t-96 77t-147.5 28.5z" />
    <glyph glyph-name="uni0203" unicode="&#x203;" horiz-adv-x="1400" 
d="M535 -13q72 0 137 12t118 32t90.5 45t55.5 53l35 -129h332v733q0 170 -70.5 271.5t-208.5 147.5t-341 46q-107 0 -207.5 -17t-183.5 -53.5t-141.5 -97.5t-81.5 -149l390 -110q16 62 50 97t80 49t96 14q68 0 116 -16.5t74 -55t26 -105.5v-35h-368q-120 0 -210 -19.5
t-149.5 -61.5t-89 -110.5t-29.5 -168.5q0 -106 31 -178t93 -114.5t151 -61t205 -18.5zM625 241q-37 0 -68 6t-53 20.5t-33.5 40t-11.5 66.5q0 42 11 68t32.5 39t53.5 18.5t72 5.5h267v-166q-20 -27 -61.5 -49.5t-95.5 -35.5t-113 -13zM682 1466q-87 0 -149 -28.5t-95 -77
t-33 -108.5h185q0 28 9 47t29 28.5t54 9.5q30 0 50.5 -9.5t31 -28t10.5 -47.5h185q0 60 -33.5 108.5t-96 77t-147.5 28.5z" />
    <glyph glyph-name="uni0204" unicode="&#x204;" horiz-adv-x="1186" 
d="M69 0h1032v273h-627v278h578v260h-578v266h627v273h-1032v-1350zM705 1413h179l-170 229h-265zM374 1413h179l-170 229h-265z" />
    <glyph glyph-name="uni0205" unicode="&#x205;" horiz-adv-x="1396" 
d="M696 -12v256q-117 0 -188 66q-72 64 -72 282q0 217 71 284t182 67q114 0 177 -59q42 -47 55 -170h-519v-239h915q7 52 7 117q0 274 -133 441q-136 166 -503 166q-355 0 -496 -163q-142 -163 -142 -443q0 -277 142 -441q140 -164 504 -164zM696 244v-256q191 0 298 33
q106 32 185 98q79 65 103 180l-356 101q-24 -52 -49 -89q-26 -36 -69 -51q-43 -16 -112 -16zM815 1249h179l-170 229h-265zM483 1249h179l-170 229h-265z" />
    <glyph glyph-name="uni0206" unicode="&#x206;" horiz-adv-x="1186" 
d="M69 0h1032v273h-627v278h578v260h-578v266h627v273h-1032v-1350zM580 1630q-87 0 -149 -28.5t-95 -77t-33 -108.5h185q0 28 9 47t29 28.5t54 9.5q30 0 50.5 -9.5t31 -28t10.5 -47.5h185q0 60 -33.5 108.5t-96 77t-147.5 28.5z" />
    <glyph glyph-name="uni0207" unicode="&#x207;" horiz-adv-x="1396" 
d="M696 -12v256q-117 0 -188 66q-72 64 -72 282q0 217 71 284t182 67q114 0 177 -59q42 -47 55 -170h-519v-239h915q7 52 7 117q0 274 -133 441q-136 166 -503 166q-355 0 -496 -163q-142 -163 -142 -443q0 -277 142 -441q140 -164 504 -164zM696 244v-256q191 0 298 33
q106 32 185 98q79 65 103 180l-356 101q-24 -52 -49 -89q-26 -36 -69 -51q-43 -16 -112 -16zM690 1466q-87 0 -149 -28.5t-95 -77t-33 -108.5h185q0 28 9 47t29 28.5t54 9.5q30 0 50.5 -9.5t31 -28t10.5 -47.5h185q0 60 -33.5 108.5t-96 77t-147.5 28.5z" />
    <glyph glyph-name="uni0208" unicode="&#x208;" horiz-adv-x="663" 
d="M123 0h402v1350h-402v-1350zM449 1413h179l-170 229h-265zM117 1413h179l-170 229h-265z" />
    <glyph glyph-name="uni0209" unicode="&#x209;" horiz-adv-x="607" 
d="M89 0h402v1186h-402v-1186zM416 1249h179l-170 229h-265zM84 1249h179l-170 229h-265z" />
    <glyph glyph-name="uni020A" unicode="&#x20a;" horiz-adv-x="663" 
d="M123 0h402v1350h-402v-1350zM325 1630q-87 0 -149 -28.5t-95 -77t-33 -108.5h185q0 28 9 47t29 28.5t54 9.5q30 0 50.5 -9.5t31 -28t10.5 -47.5h185q0 60 -33.5 108.5t-96 77t-147.5 28.5z" />
    <glyph glyph-name="uni020B" unicode="&#x20b;" horiz-adv-x="607" 
d="M89 0h402v1186h-402v-1186zM291 1466q-87 0 -149 -28.5t-95 -77t-33 -108.5h185q0 28 9 47t29 28.5t54 9.5q30 0 50.5 -9.5t31 -28t10.5 -47.5h185q0 60 -33.5 108.5t-96 77t-147.5 28.5z" />
    <glyph glyph-name="uni020C" unicode="&#x20c;" horiz-adv-x="1459" 
d="M726 -12q387 0 531.5 178t144.5 509t-144.5 509.5t-531.5 178.5t-531 -178t-144 -510q0 -331 144.5 -509t530.5 -178zM726 262q-124 0 -198.5 64.5t-74.5 348.5q0 289 74.5 351.5t198.5 62.5q125 0 199 -62.5t74 -351.5q0 -284 -74 -348.5t-199 -64.5zM854 1413h179
l-170 229h-265zM522 1413h179l-170 229h-265z" />
    <glyph glyph-name="uni020D" unicode="&#x20d;" horiz-adv-x="1400" 
d="M691 -9q355 0 498 161.5t143 445.5q0 286 -143 444t-498 158q-353 0 -496.5 -158t-143.5 -444q0 -284 143.5 -445.5t496.5 -161.5zM691 260q-106 0 -173.5 62.5t-67.5 274.5q0 211 67.5 272.5t173.5 61.5q107 0 174.5 -61.5t67.5 -272.5q0 -212 -67.5 -274.5
t-174.5 -62.5zM816 1249h179l-170 229h-265zM485 1249h179l-170 229h-265z" />
    <glyph glyph-name="uni020E" unicode="&#x20e;" horiz-adv-x="1459" 
d="M726 -12q387 0 531.5 178t144.5 509t-144.5 509.5t-531.5 178.5t-531 -178t-144 -510q0 -331 144.5 -509t530.5 -178zM726 262q-124 0 -198.5 64.5t-74.5 348.5q0 289 74.5 351.5t198.5 62.5q125 0 199 -62.5t74 -351.5q0 -284 -74 -348.5t-199 -64.5zM729 1630
q-87 0 -149 -28.5t-95 -77t-33 -108.5h185q0 28 9 47t29 28.5t54 9.5q30 0 50.5 -9.5t31 -28t10.5 -47.5h185q0 60 -33.5 108.5t-96 77t-147.5 28.5z" />
    <glyph glyph-name="uni020F" unicode="&#x20f;" horiz-adv-x="1400" 
d="M691 -9q355 0 498 161.5t143 445.5q0 286 -143 444t-498 158q-353 0 -496.5 -158t-143.5 -444q0 -284 143.5 -445.5t496.5 -161.5zM691 260q-106 0 -173.5 62.5t-67.5 274.5q0 211 67.5 272.5t173.5 61.5q107 0 174.5 -61.5t67.5 -272.5q0 -212 -67.5 -274.5
t-174.5 -62.5zM691 1466q-87 0 -149 -28.5t-95 -77t-33 -108.5h185q0 28 9 47t29 28.5t54 9.5q30 0 50.5 -9.5t31 -28t10.5 -47.5h185q0 60 -33.5 108.5t-96 77t-147.5 28.5z" />
    <glyph glyph-name="uni0210" unicode="&#x210;" horiz-adv-x="1393" 
d="M78 0h405v520h409q246 0 329.5 117t83.5 289q0 174 -79 299t-318 125h-830v-1350zM896 0h438l-333 640l-400 -15zM483 766v311h291q71 0 98.5 -39.5t27.5 -117.5q0 -76 -27 -115t-99 -39h-291zM809 1413h179l-170 229h-265zM478 1413h179l-170 229h-265z" />
    <glyph glyph-name="uni0211" unicode="&#x211;" horiz-adv-x="1368" 
d="M860 587h399q0 311 -86 460t-336 149q-228 0 -370 -118t-142 -293l152 -86q0 88 57 156t151 68q81 0 128 -60.5t47 -275.5zM80 0h399v992l-92 194h-307v-1186zM832 1249h179l-170 229h-265zM500 1249h179l-170 229h-265z" />
    <glyph glyph-name="uni0212" unicode="&#x212;" horiz-adv-x="1393" 
d="M78 0h405v520h409q246 0 329.5 117t83.5 289q0 174 -79 299t-318 125h-830v-1350zM896 0h438l-333 640l-400 -15zM483 766v311h291q71 0 98.5 -39.5t27.5 -117.5q0 -76 -27 -115t-99 -39h-291zM684 1630q-87 0 -149 -28.5t-95 -77t-33 -108.5h185q0 28 9 47t29 28.5
t54 9.5q30 0 50.5 -9.5t31 -28t10.5 -47.5h185q0 60 -33.5 108.5t-96 77t-147.5 28.5z" />
    <glyph glyph-name="uni0213" unicode="&#x213;" horiz-adv-x="1368" 
d="M860 587h399q0 311 -86 460t-336 149q-228 0 -370 -118t-142 -293l152 -86q0 88 57 156t151 68q81 0 128 -60.5t47 -275.5zM80 0h399v992l-92 194h-307v-1186zM707 1466q-87 0 -149 -28.5t-95 -77t-33 -108.5h185q0 28 9 47t29 28.5t54 9.5q30 0 50.5 -9.5t31 -28
t10.5 -47.5h185q0 60 -33.5 108.5t-96 77t-147.5 28.5z" />
    <glyph glyph-name="uni0214" unicode="&#x214;" horiz-adv-x="1463" 
d="M723 -7q328 0 487 108t159 361v888h-404v-845q0 -128 -56 -183.5t-186 -55.5t-185.5 56t-55.5 183v845h-404v-888q0 -253 159 -361t486 -108zM855 1413h179l-170 229h-265zM523 1413h179l-170 229h-265z" />
    <glyph glyph-name="uni0215" unicode="&#x215;" horiz-adv-x="1372" 
d="M960 0h306v1186h-399v-1002zM468 1186h-399v-625q0 -257 87.5 -413.5t330.5 -156.5q278 0 427.5 163.5t149.5 325.5l-195 73q0 -134 -69 -211.5t-165 -77.5q-88 0 -127.5 62t-39.5 256v604zM804 1249h179l-170 229h-265zM473 1249h179l-170 229h-265z" />
    <glyph glyph-name="uni0216" unicode="&#x216;" horiz-adv-x="1463" 
d="M723 -7q328 0 487 108t159 361v888h-404v-845q0 -128 -56 -183.5t-186 -55.5t-185.5 56t-55.5 183v845h-404v-888q0 -253 159 -361t486 -108zM731 1630q-87 0 -149 -28.5t-95 -77t-33 -108.5h185q0 28 9 47t29 28.5t54 9.5q30 0 50.5 -9.5t31 -28t10.5 -47.5h185
q0 60 -33.5 108.5t-96 77t-147.5 28.5z" />
    <glyph glyph-name="uni0217" unicode="&#x217;" horiz-adv-x="1372" 
d="M960 0h306v1186h-399v-1002zM468 1186h-399v-625q0 -257 87.5 -413.5t330.5 -156.5q278 0 427.5 163.5t149.5 325.5l-195 73q0 -134 -69 -211.5t-165 -77.5q-88 0 -127.5 62t-39.5 256v604zM679 1466q-87 0 -149 -28.5t-95 -77t-33 -108.5h185q0 28 9 47t29 28.5t54 9.5
q30 0 50.5 -9.5t31 -28t10.5 -47.5h185q0 60 -33.5 108.5t-96 77t-147.5 28.5z" />
    <glyph glyph-name="uni0218" unicode="&#x218;" horiz-adv-x="1421" 
d="M536 -344h135l140 289h-218zM704 -7q376 0 505.5 130.5t129.5 315.5q0 173 -106.5 242.5t-411.5 128.5q-170 31 -272 56.5t-102 107.5q0 59 68.5 88t176.5 29q98 0 169.5 -34.5t71.5 -178.5h404q0 208 -133.5 346.5t-507.5 138.5q-373 0 -506 -128.5t-133 -307.5
q0 -176 109.5 -252.5t404.5 -135.5q172 -29 271 -55t99 -102q0 -65 -68.5 -91.5t-171.5 -26.5q-104 0 -173 35.5t-69 181.5h-403q0 -221 131 -354.5t517 -133.5z" />
    <glyph glyph-name="uni0219" unicode="&#x219;" horiz-adv-x="1380" 
d="M713 -9q283 0 439.5 86t156.5 300q0 182 -139 255t-347 96q-156 22 -254.5 36.5t-98.5 77.5q0 47 45.5 72t141.5 25q104 0 180.5 -46t101.5 -117l349 127q-50 161 -213.5 227t-412.5 66q-259 0 -422 -84.5t-163 -270.5q0 -185 127.5 -270t339.5 -110q163 -23 267 -37
t104 -77q0 -48 -53 -73t-143 -25q-119 0 -198 44.5t-104 122.5l-349 -129q55 -162 227.5 -229t417.5 -67zM532 -346h135l140 289h-218z" />
    <glyph glyph-name="uni021A" unicode="&#x21a;" horiz-adv-x="1336" 
d="M465 0h404v1077h396v273h-1196v-273h396v-1077zM533 -346h135l140 289h-218z" />
    <glyph glyph-name="uni021B" unicode="&#x21b;" horiz-adv-x="1101" 
d="M698 -16q148 0 283 30v262q-72 -26 -146 -26q-70 0 -109 27t-39 117v518h353v274h-353v272h-400v-272h-266v-274h266v-603q0 -183 120.5 -254t290.5 -71zM522 -346h135l140 289h-218z" />
    <glyph glyph-name="uni022A" unicode="&#x22a;" horiz-adv-x="1459" 
d="M726 -12q387 0 531.5 178t144.5 509t-144.5 509.5t-531.5 178.5t-531 -178t-144 -510q0 -331 144.5 -509t530.5 -178zM726 262q-124 0 -198.5 64.5t-74.5 348.5q0 289 74.5 351.5t198.5 62.5q125 0 199 -62.5t74 -351.5q0 -284 -74 -348.5t-199 -64.5zM508 1408
q44 0 75 31t31 75q0 45 -31 76t-75 31q-45 0 -76 -31t-31 -76q0 -44 31 -75t76 -31zM944 1408q45 0 75.5 31t30.5 75q0 45 -30.5 76t-75.5 31q-43 0 -74.5 -31t-31.5 -76q0 -44 31 -75t75 -31zM366 1712h725v144h-725v-144z" />
    <glyph glyph-name="uni022B" unicode="&#x22b;" horiz-adv-x="1400" 
d="M691 -9q355 0 498 161.5t143 445.5q0 286 -143 444t-498 158q-353 0 -496.5 -158t-143.5 -444q0 -284 143.5 -445.5t496.5 -161.5zM691 260q-106 0 -173.5 62.5t-67.5 274.5q0 211 67.5 272.5t173.5 61.5q107 0 174.5 -61.5t67.5 -272.5q0 -212 -67.5 -274.5
t-174.5 -62.5zM471 1245q44 0 75 31t31 75q0 45 -31 76t-75 31q-45 0 -76 -31t-31 -76q0 -44 31 -75t76 -31zM907 1245q45 0 75.5 31t30.5 75q0 45 -30.5 76t-75.5 31q-43 0 -74.5 -31t-31.5 -76q0 -44 31 -75t75 -31zM328 1549h725v144h-725v-144z" />
    <glyph glyph-name="uni022C" unicode="&#x22c;" horiz-adv-x="1459" 
d="M726 -12q387 0 531.5 178t144.5 509t-144.5 509.5t-531.5 178.5t-531 -178t-144 -510q0 -331 144.5 -509t530.5 -178zM726 262q-124 0 -198.5 64.5t-74.5 348.5q0 289 74.5 351.5t198.5 62.5q125 0 199 -62.5t74 -351.5q0 -284 -74 -348.5t-199 -64.5zM877 1406
q63 0 105 17.5t68 45.5t40 59.5t19 61t5 48.5h-190q0 -14 -8 -32.5t-25 -32t-43 -13.5q-30 0 -55 13t-52.5 30.5t-61.5 30.5t-82 13q-65 0 -109 -17t-70.5 -44.5t-40 -59t-18 -60.5t-6.5 -48h192q0 14 6.5 33t23.5 32t47 13q29 0 54.5 -14t53.5 -31.5t63 -31t84 -13.5z
M366 1731h725v144h-725v-144z" />
    <glyph glyph-name="uni022D" unicode="&#x22d;" horiz-adv-x="1400" 
d="M691 -9q355 0 498 161.5t143 445.5q0 286 -143 444t-498 158q-353 0 -496.5 -158t-143.5 -444q0 -284 143.5 -445.5t496.5 -161.5zM691 260q-106 0 -173.5 62.5t-67.5 274.5q0 211 67.5 272.5t173.5 61.5q107 0 174.5 -61.5t67.5 -272.5q0 -212 -67.5 -274.5
t-174.5 -62.5zM839 1243q63 0 105 17.5t68 45.5t40 59.5t19 61t5 48.5h-190q0 -14 -8 -32.5t-25 -32t-43 -13.5q-30 0 -55 13t-52.5 30.5t-61.5 30.5t-82 13q-65 0 -109 -17t-70.5 -44.5t-40 -59t-18 -60.5t-6.5 -48h192q0 14 6.5 33t23.5 32t47 13q29 0 54.5 -14
t53.5 -31.5t63 -31t84 -13.5zM328 1568h725v144h-725v-144z" />
    <glyph glyph-name="uni0230" unicode="&#x230;" horiz-adv-x="1459" 
d="M726 -12q387 0 531.5 178t144.5 509t-144.5 509.5t-531.5 178.5t-531 -178t-144 -510q0 -331 144.5 -509t530.5 -178zM726 262q-124 0 -198.5 64.5t-74.5 348.5q0 289 74.5 351.5t198.5 62.5q125 0 199 -62.5t74 -351.5q0 -284 -74 -348.5t-199 -64.5zM729 1396
q46 0 78 32.5t32 78.5q0 45 -32 77.5t-78 32.5t-78.5 -32.5t-32.5 -77.5q0 -46 32.5 -78.5t78.5 -32.5zM366 1707h725v144h-725v-144z" />
    <glyph glyph-name="uni0231" unicode="&#x231;" horiz-adv-x="1400" 
d="M691 -9q355 0 498 161.5t143 445.5q0 286 -143 444t-498 158q-353 0 -496.5 -158t-143.5 -444q0 -284 143.5 -445.5t496.5 -161.5zM691 260q-106 0 -173.5 62.5t-67.5 274.5q0 211 67.5 272.5t173.5 61.5q107 0 174.5 -61.5t67.5 -272.5q0 -212 -67.5 -274.5
t-174.5 -62.5zM692 1233q46 0 78 32.5t32 78.5q0 45 -32 77.5t-78 32.5t-78.5 -32.5t-32.5 -77.5q0 -46 32.5 -78.5t78.5 -32.5zM328 1544h725v144h-725v-144z" />
    <glyph glyph-name="uni0232" unicode="&#x232;" horiz-adv-x="1483" 
d="M540 0h403v488l529 862h-438l-291 -547h-1l-294 547h-437l529 -861v-489zM378 1440h725v144h-725v-144z" />
    <glyph glyph-name="uni0233" unicode="&#x233;" horiz-adv-x="1328" 
d="M352 0h609l328 1186h-418l-214 -926h-3l-216 926h-417zM125 -467q342 0 547.5 88t288.5 379l-369 1q-35 -130 -139 -165t-328 -35v-268zM290 1275h725v144h-725v-144z" />
    <glyph glyph-name="uni0237" unicode="&#x237;" horiz-adv-x="655" 
d="M-132 -460q326 0 495.5 108t169.5 431v1107h-399v-1123q0 -153 -69.5 -200.5t-196.5 -47.5v-275z" />
    <glyph glyph-name="uni0259" unicode="&#x259;" horiz-adv-x="1396" 
d="M700 1199v-256q117 0 188 -65q71 -66 71 -284q0 -217 -70 -283q-71 -66 -183 -66q-113 0 -176 58q-42 48 -55 169h519v239h-915q-8 -51 -8 -117q0 -273 134 -439q136 -166 502 -166q356 0 498 163q140 163 140 443q0 277 -142 440q-139 164 -503 164zM700 943v256
q-192 0 -298 -32q-106 -33 -185 -98q-80 -66 -104 -180l357 -102q23 53 50 88q25 37 67 52q43 16 113 16z" />
    <glyph glyph-name="uni02BC" unicode="&#x2bc;" horiz-adv-x="412" 
d="M377 1559h-286v-271h22l-75 -296h257l82 296v271z" />
    <glyph glyph-name="circumflex" unicode="&#x2c6;" horiz-adv-x="889" 
d="M72 1206h226l129 144l128 -144h226l-229 221h-252z" />
    <glyph glyph-name="caron" unicode="&#x2c7;" horiz-adv-x="889" 
d="M300 1206h252l229 221h-226l-129 -143l-128 143h-226z" />
    <glyph glyph-name="uni02C9" unicode="&#x2c9;" horiz-adv-x="983" 
d="M110 1178h725v144h-725v-144z" />
    <glyph glyph-name="breve" unicode="&#x2d8;" horiz-adv-x="841" 
d="M401 1221q87 0 149 29.5t94.5 77.5t32.5 107h-184q0 -27 -9 -46.5t-29 -29t-54 -9.5q-30 0 -50.5 10t-31 28.5t-10.5 46.5h-185q0 -59 34 -107t96 -77.5t147 -29.5z" />
    <glyph glyph-name="dotaccent" unicode="&#x2d9;" horiz-adv-x="500" 
d="M250 1183q46 0 78 32.5t32 78.5q0 45 -32 77.5t-78 32.5t-78.5 -32.5t-32.5 -77.5q0 -46 32.5 -78.5t78.5 -32.5z" />
    <glyph glyph-name="ring" unicode="&#x2da;" horiz-adv-x="500" 
d="M249 1208q79 0 133 55t54 134q0 81 -54 134.5t-133 53.5q-80 0 -133.5 -53.5t-53.5 -134.5q0 -80 53.5 -134.5t133.5 -54.5zM249 1346q-19 0 -33.5 15.5t-14.5 35.5q0 22 14.5 35.5t33.5 13.5q20 0 34 -13.5t14 -35.5q0 -20 -14 -35.5t-34 -15.5z" />
    <glyph glyph-name="ogonek" unicode="&#x2db;" horiz-adv-x="858" 
d="M447 -399q53 0 101.5 5t83.5 12t45 11l-1 193q-11 -5 -39.5 -12.5t-63.5 -12.5t-67 -5q-41 0 -59.5 15.5t-18.5 40.5q0 21 10 50t25 57.5t28 44.5h-192q-17 -19 -40 -54t-39 -80.5t-16 -96.5q0 -66 35 -102.5t91 -51t117 -14.5z" />
    <glyph glyph-name="tilde" unicode="&#x2dc;" horiz-adv-x="843" 
d="M564 1247q63 0 105 17.5t68 45.5t40 59.5t19 61t5 48.5h-190q0 -14 -8 -32.5t-25 -32t-43 -13.5q-30 0 -55 13t-52.5 30.5t-61.5 30.5t-82 13q-65 0 -109 -17t-70.5 -44.5t-40 -59t-18 -60.5t-6.5 -48h192q0 14 6.5 33t23.5 32t47 13q29 0 54.5 -14t53.5 -31.5t63 -31
t84 -13.5z" />
    <glyph glyph-name="hungarumlaut" unicode="&#x2dd;" horiz-adv-x="1138" 
d="M438 1223h175l240 207h-237zM286 1223h176l229 207h-229z" />
    <glyph glyph-name="gravecomb" unicode="&#x300;" 
d="M289 1116h179l-170 229h-265z" />
    <glyph glyph-name="acutecomb" unicode="&#x301;" 
d="M37 1116h179l255 229h-265z" />
    <glyph glyph-name="uni0302" unicode="&#x302;" 
d="M28 1116h226l129 144l128 -144h226l-229 221h-252z" />
    <glyph glyph-name="tildecomb" unicode="&#x303;" 
d="M564 1166q63 0 105 17.5t68 45.5t40 59.5t19 61t5 48.5h-190q0 -14 -8 -32.5t-25 -32t-43 -13.5q-30 0 -55 13t-52.5 30.5t-61.5 30.5t-82 13q-65 0 -109 -17t-70.5 -44.5t-40 -59t-18 -60.5t-6.5 -48h192q0 14 6.5 33t23.5 32t47 13q29 0 54.5 -14t53.5 -31.5t63 -31
t84 -13.5z" />
    <glyph glyph-name="uni0304" unicode="&#x304;" 
d="M110 1178h725v144h-725v-144z" />
    <glyph glyph-name="uni0306" unicode="&#x306;" 
d="M314 1131q87 0 149 29.5t94.5 77.5t32.5 107h-184q0 -27 -9 -46.5t-29 -29t-54 -9.5q-30 0 -50.5 10t-31 28.5t-10.5 46.5h-185q0 -59 34 -107t96 -77.5t147 -29.5z" />
    <glyph glyph-name="uni0307" unicode="&#x307;" 
d="M151 1118q46 0 78 32.5t32 78.5q0 45 -32 77.5t-78 32.5t-78.5 -32.5t-32.5 -77.5q0 -46 32.5 -78.5t78.5 -32.5z" />
    <glyph glyph-name="uni0308" unicode="&#x308;" 
d="M181 1130q44 0 75 31t31 75q0 45 -31 76t-75 31q-45 0 -76 -31t-31 -76q0 -44 31 -75t76 -31zM617 1130q45 0 75.5 31t30.5 75q0 45 -30.5 76t-75.5 31q-43 0 -74.5 -31t-31.5 -76q0 -44 31 -75t75 -31z" />
    <glyph glyph-name="hookabovecomb" unicode="&#x309;" 
d="M20 1497v-118q105 0 164 -1.5t82.5 -7t23.5 -16.5q0 -9 -21 -15.5t-62 -9t-102 -2.5v-148h138v57q43 0 85 7t76 22t54.5 40.5t20.5 61.5q0 52 -46.5 80t-147 39t-265.5 11z" />
    <glyph glyph-name="uni030A" unicode="&#x30a;" 
d="M205 1125q79 0 133 55t54 134q0 81 -54 134.5t-133 53.5q-80 0 -133.5 -53.5t-53.5 -134.5q0 -80 53.5 -134.5t133.5 -54.5zM205 1263q-19 0 -33.5 15.5t-14.5 35.5q0 22 14.5 35.5t33.5 13.5q20 0 34 -13.5t14 -35.5q0 -20 -14 -35.5t-34 -15.5z" />
    <glyph glyph-name="uni030B" unicode="&#x30b;" 
d="M298 1139h175l240 207h-237zM146 1139h176l229 207h-229z" />
    <glyph glyph-name="uni030C" unicode="&#x30c;" 
d="M256 1116h252l229 221h-226l-129 -143l-128 143h-226z" />
    <glyph glyph-name="uni030F" unicode="&#x30f;" 
d="M595 1206h179l-170 229h-265zM263 1206h179l-170 229h-265z" />
    <glyph glyph-name="uni0311" unicode="&#x311;" 
d="M358 1339q-87 0 -149 -28.5t-95 -77t-33 -108.5h185q0 28 9 47t29 28.5t54 9.5q30 0 50.5 -9.5t31 -28t10.5 -47.5h185q0 60 -33.5 108.5t-96 77t-147.5 28.5z" />
    <glyph glyph-name="uni0312" unicode="&#x312;" 
d="M206 1182h235l60 318h-144z" />
    <glyph glyph-name="uni031B" unicode="&#x31b;" 
d="M20 1251v-128q144 0 247.5 35t160.5 104.5t57 173.5h-226q0 -66 -24 -106.5t-76.5 -59.5t-138.5 -19z" />
    <glyph glyph-name="dotbelowcomb" unicode="&#x323;" 
d="M250 -341q46 0 78 32.5t32 78.5q0 45 -32 77.5t-78 32.5t-78.5 -32.5t-32.5 -77.5q0 -46 32.5 -78.5t78.5 -32.5z" />
    <glyph glyph-name="uni0324" unicode="&#x324;" 
d="M175 -284q44 0 75 31t31 75q0 45 -31 76t-75 31q-45 0 -76 -31t-31 -76q0 -44 31 -75t76 -31zM611 -284q45 0 75.5 31t30.5 75q0 45 -30.5 76t-75.5 31q-43 0 -74.5 -31t-31.5 -76q0 -44 31 -75t75 -31z" />
    <glyph glyph-name="uni0326" unicode="&#x326;" 
d="M48 -346h135l140 289h-218z" />
    <glyph glyph-name="uni0327" unicode="&#x327;" 
d="M376 -382q66 0 130.5 13.5t116 40.5t82.5 65.5t31 87.5q0 65 -46 98t-123 33q-60 0 -106 -17t-70 -42l-7 -63q11 9 31.5 16.5t40.5 7.5q24 0 35 -6t11 -21q0 -22 -30.5 -35t-93.5 -13q-43 0 -81.5 6.5t-66.5 12.5l-52 -162q50 -10 101.5 -16t96.5 -6zM384 -166l61 166
h-154l-47 -154z" />
    <glyph glyph-name="uni0328" unicode="&#x328;" 
d="M447 -399q53 0 101.5 5t83.5 12t45 11l-1 193q-11 -5 -39.5 -12.5t-63.5 -12.5t-67 -5q-41 0 -59.5 15.5t-18.5 40.5q0 21 10 50t25 57.5t28 44.5h-192q-17 -19 -40 -54t-39 -80.5t-16 -96.5q0 -66 35 -102.5t91 -51t117 -14.5z" />
    <glyph glyph-name="uni032E" unicode="&#x32e;" 
d="M322 -312q87 0 149 29.5t94.5 77.5t32.5 107h-184q0 -27 -9 -46.5t-29 -29t-54 -9.5q-30 0 -50.5 10t-31 28.5t-10.5 46.5h-185q0 -59 34 -107t96 -77.5t147 -29.5z" />
    <glyph glyph-name="uni0331" unicode="&#x331;" 
d="M0 -248h725v144h-725v-144z" />
    <glyph glyph-name="uni0335" unicode="&#x335;" 
d="M57 1320h824v261h-824v-261z" />
    <glyph glyph-name="uni0336" unicode="&#x336;" 
d="M110 1178h725v144h-725v-144z" />
    <glyph glyph-name="uni0337" unicode="&#x337;" 
d="M145 0h186l427 972h-187z" />
    <glyph glyph-name="uni0338" unicode="&#x338;" 
d="M20 0h339l654 1348h-342z" />
    <glyph glyph-name="uni1E08" unicode="&#x1e08;" horiz-adv-x="1411" 
d="M700 -8q391 0 515 174.5t124 387.5h-409q0 -180 -61.5 -234.5t-171.5 -54.5q-113 0 -182 63t-69 351q0 286 69.5 348t181.5 62q111 0 172 -53t61 -236h409q0 220 -123.5 391.5t-515.5 171.5q-388 0 -525.5 -179.5t-137.5 -504.5t137.5 -506t525.5 -181zM711 -382
q66 0 130.5 13.5t116 40.5t82.5 65.5t31 87.5q0 65 -46 98t-123 33q-60 0 -106 -17t-70 -42l-7 -63q11 9 31.5 16.5t40.5 7.5q24 0 35 -6t11 -21q0 -22 -30.5 -35t-93.5 -13q-43 0 -81.5 6.5t-66.5 12.5l-52 -162q50 -10 101.5 -16t96.5 -6zM719 -166l61 166h-154l-47 -154z
M477 1392h179l255 229h-265z" />
    <glyph glyph-name="uni1E09" unicode="&#x1e09;" horiz-adv-x="1320" 
d="M672 -12q316 0 435.5 126t141.5 254l-355 130q-9 -124 -68 -180.5t-154 -56.5q-93 0 -159 63.5t-66 265.5q0 207 65.5 270t159.5 63q96 0 154.5 -55.5t67.5 -186.5l355 125q-22 135 -141.5 263t-435.5 128q-359 0 -495.5 -159t-136.5 -448q0 -287 136.5 -444.5
t495.5 -157.5zM689 -382q66 0 130.5 13.5t116 40.5t82.5 65.5t31 87.5q0 65 -46 98t-123 33q-60 0 -106 -17t-70 -42l-7 -63q11 9 31.5 16.5t40.5 7.5q24 0 35 -6t11 -21q0 -22 -30.5 -35t-93.5 -13q-43 0 -81.5 6.5t-66.5 12.5l-52 -162q50 -10 101.5 -16t96.5 -6z
M697 -166l61 166h-154l-47 -154zM454 1227h179l255 229h-265z" />
    <glyph glyph-name="uni1E0C" unicode="&#x1e0c;" horiz-adv-x="1405" 
d="M78 0h753q292 0 404 152.5t112 523.5q0 370 -111.5 522t-404.5 152h-753v-1350zM481 273v804h239q116 0 170 -59t54 -342q0 -284 -54 -343.5t-170 -59.5h-239zM708 -309q46 0 78 32.5t32 78.5q0 45 -32 77.5t-78 32.5t-78.5 -32.5t-32.5 -77.5q0 -46 32.5 -78.5
t78.5 -32.5z" />
    <glyph glyph-name="uni1E0D" unicode="&#x1e0d;" horiz-adv-x="1405" 
d="M926 0h371v1570h-398v-1401zM525 -7q221 0 386 98t165 225l-177 166q0 -96 -70 -157t-163 -61q-103 0 -157.5 63t-54.5 267q0 202 54.5 265.5t157.5 63.5q93 0 163 -60.5t70 -155.5l177 164q0 126 -165 225t-386 99q-254 0 -364 -164t-110 -435q0 -272 110 -437.5
t364 -165.5zM708 -341q46 0 78 32.5t32 78.5q0 45 -32 77.5t-78 32.5t-78.5 -32.5t-32.5 -77.5q0 -46 32.5 -78.5t78.5 -32.5z" />
    <glyph glyph-name="Dmacronbelow" unicode="&#x1e0e;" horiz-adv-x="1405" 
d="M78 0h753q292 0 404 152.5t112 523.5q0 370 -111.5 522t-404.5 152h-753v-1350zM481 273v804h239q116 0 170 -59t54 -342q0 -284 -54 -343.5t-170 -59.5h-239zM345 -248h725v144h-725v-144z" />
    <glyph glyph-name="dmacronbelow" unicode="&#x1e0f;" horiz-adv-x="1405" 
d="M926 0h371v1570h-398v-1401zM525 -7q221 0 386 98t165 225l-177 166q0 -96 -70 -157t-163 -61q-103 0 -157.5 63t-54.5 267q0 202 54.5 265.5t157.5 63.5q93 0 163 -60.5t70 -155.5l177 164q0 126 -165 225t-386 99q-254 0 -364 -164t-110 -435q0 -272 110 -437.5
t364 -165.5zM345 -248h725v144h-725v-144z" />
    <glyph glyph-name="uni1E14" unicode="&#x1e14;" horiz-adv-x="1186" 
d="M69 0h1032v273h-627v278h578v260h-578v266h627v273h-1032v-1350zM218 1440h725v144h-725v-144zM620 1635h179l-170 229h-265z" />
    <glyph glyph-name="uni1E15" unicode="&#x1e15;" horiz-adv-x="1396" 
d="M696 -12v256q-117 0 -188 66q-72 64 -72 282q0 217 71 284t182 67q114 0 177 -59q42 -47 55 -170h-519v-239h915q7 52 7 117q0 274 -133 441q-136 166 -503 166q-355 0 -496 -163q-142 -163 -142 -443q0 -277 142 -441q140 -164 504 -164zM696 244v-256q191 0 298 33
q106 32 185 98q79 65 103 180l-356 101q-24 -52 -49 -89q-26 -36 -69 -51q-43 -16 -112 -16zM327 1275h725v144h-725v-144zM728 1463h179l-170 229h-265z" />
    <glyph glyph-name="uni1E16" unicode="&#x1e16;" horiz-adv-x="1186" 
d="M69 0h1032v273h-627v278h578v260h-578v266h627v273h-1032v-1350zM218 1440h725v144h-725v-144zM364 1625h179l255 229h-265z" />
    <glyph glyph-name="uni1E17" unicode="&#x1e17;" horiz-adv-x="1396" 
d="M696 -12v256q-117 0 -188 66q-72 64 -72 282q0 217 71 284t182 67q114 0 177 -59q42 -47 55 -170h-519v-239h915q7 52 7 117q0 274 -133 441q-136 166 -503 166q-355 0 -496 -163q-142 -163 -142 -443q0 -277 142 -441q140 -164 504 -164zM696 244v-256q191 0 298 33
q106 32 185 98q79 65 103 180l-356 101q-24 -52 -49 -89q-26 -36 -69 -51q-43 -16 -112 -16zM327 1275h725v144h-725v-144zM473 1461h179l255 229h-265z" />
    <glyph glyph-name="uni1E1C" unicode="&#x1e1c;" horiz-adv-x="1186" 
d="M69 0h1032v273h-627v278h578v260h-578v266h627v273h-1032v-1350zM597 -382q66 0 130.5 13.5t116 40.5t82.5 65.5t31 87.5q0 65 -46 98t-123 33q-60 0 -106 -17t-70 -42l-7 -63q11 9 31.5 16.5t40.5 7.5q24 0 35 -6t11 -21q0 -22 -30.5 -35t-93.5 -13q-43 0 -81.5 6.5
t-66.5 12.5l-52 -162q50 -10 101.5 -16t96.5 -6zM605 -166l61 166h-154l-47 -154zM580 1395q87 0 149 29.5t94.5 77.5t32.5 107h-184q0 -27 -9 -46.5t-29 -29t-54 -9.5q-30 0 -50.5 10t-31 28.5t-10.5 46.5h-185q0 -59 34 -107t96 -77.5t147 -29.5z" />
    <glyph glyph-name="uni1E1D" unicode="&#x1e1d;" horiz-adv-x="1396" 
d="M696 -12v256q-117 0 -188 66q-72 64 -72 282q0 217 71 284t182 67q114 0 177 -59q42 -47 55 -170h-519v-239h915q7 52 7 117q0 274 -133 441q-136 166 -503 166q-355 0 -496 -163q-142 -163 -142 -443q0 -277 142 -441q140 -164 504 -164zM696 244v-256q191 0 298 33
q106 32 185 98q79 65 103 180l-356 101q-24 -52 -49 -89q-26 -36 -69 -51q-43 -16 -112 -16zM713 -382q66 0 130.5 13.5t116 40.5t82.5 65.5t31 87.5q0 65 -46 98t-123 33q-60 0 -106 -17t-70 -42l-7 -63q11 9 31.5 16.5t40.5 7.5q24 0 35 -6t11 -21q0 -22 -30.5 -35
t-93.5 -13q-43 0 -81.5 6.5t-66.5 12.5l-52 -162q50 -10 101.5 -16t96.5 -6zM721 -166l61 166h-154l-47 -154zM690 1230q87 0 149 29.5t94.5 77.5t32.5 107h-184q0 -27 -9 -46.5t-29 -29t-54 -9.5q-30 0 -50.5 10t-31 28.5t-10.5 46.5h-185q0 -59 34 -107t96 -77.5
t147 -29.5z" />
    <glyph glyph-name="uni1E20" unicode="&#x1e20;" horiz-adv-x="1458" 
d="M676 -8q305 1 401 159l45 -151h226v721h-614v-236h202l-1 -23q-10 -116 -59 -157t-161 -41q-122 0 -189.5 77.5t-67.5 325.5q0 295 67.5 359t185.5 64q115 0 168.5 -43t64.5 -191h404q-9 193 -143.5 350t-494.5 157q-385 0 -522 -176t-137 -507q0 -326 132.5 -507
t492.5 -181zM345 1440h725v144h-725v-144z" />
    <glyph glyph-name="uni1E21" unicode="&#x1e21;" horiz-adv-x="1412" 
d="M667 -471q199 0 326.5 47.5t217.5 168t90 333.5v1108h-292l-109 -230v-920q0 -173 -61.5 -214t-158.5 -41q-58 0 -105 17t-74.5 56.5t-33.5 96.5h-390q24 -232 194 -327t396 -95zM529 -7q221 0 385 98t164 225l-179 166q0 -96 -70 -157t-163 -61q-103 0 -157.5 63
t-54.5 267q0 202 54.5 265.5t157.5 63.5q93 0 163 -60.5t70 -155.5l177 155q0 126 -165 229.5t-386 103.5q-254 0 -364 -164t-110 -435q0 -272 112 -437.5t366 -165.5zM328 1275h725v144h-725v-144z" />
    <glyph glyph-name="uni1E24" unicode="&#x1e24;" horiz-adv-x="1443" 
d="M78 0h404v530h447v-530h404v1350h-404v-546h-447v546h-404v-1350zM715 -309q46 0 78 32.5t32 78.5q0 45 -32 77.5t-78 32.5t-78.5 -32.5t-32.5 -77.5q0 -46 32.5 -78.5t78.5 -32.5z" />
    <glyph glyph-name="uni1E25" unicode="&#x1e25;" horiz-adv-x="1381" 
d="M80 0h400v1570h-400v-1570zM873 0h399v625q0 258 -90 414t-329 156q-258 0 -416.5 -163t-158.5 -326l194 -81q0 134 67 215.5t162 81.5q88 0 130 -62t42 -255v-605zM685 -341q46 0 78 32.5t32 78.5q0 45 -32 77.5t-78 32.5t-78.5 -32.5t-32.5 -77.5q0 -46 32.5 -78.5
t78.5 -32.5z" />
    <glyph glyph-name="uni1E2A" unicode="&#x1e2a;" horiz-adv-x="1443" 
d="M78 0h404v530h447v-530h404v1350h-404v-546h-447v546h-404v-1350zM715 -312q87 0 149 29.5t94.5 77.5t32.5 107h-184q0 -27 -9 -46.5t-29 -29t-54 -9.5q-30 0 -50.5 10t-31 28.5t-10.5 46.5h-185q0 -59 34 -107t96 -77.5t147 -29.5z" />
    <glyph glyph-name="uni1E2B" unicode="&#x1e2b;" horiz-adv-x="1381" 
d="M80 0h400v1570h-400v-1570zM873 0h399v625q0 258 -90 414t-329 156q-258 0 -416.5 -163t-158.5 -326l194 -81q0 134 67 215.5t162 81.5q88 0 130 -62t42 -255v-605zM686 -312q87 0 149 29.5t94.5 77.5t32.5 107h-184q0 -27 -9 -46.5t-29 -29t-54 -9.5q-30 0 -50.5 10
t-31 28.5t-10.5 46.5h-185q0 -59 34 -107t96 -77.5t147 -29.5z" />
    <glyph glyph-name="uni1E2E" unicode="&#x1e2e;" horiz-adv-x="663" 
d="M123 0h402v1350h-402v-1350zM104 1408q44 0 75 31t31 75q0 45 -31 76t-75 31q-45 0 -76 -31t-31 -76q0 -44 31 -75t76 -31zM540 1408q45 0 75.5 31t30.5 75q0 45 -30.5 76t-75.5 31q-43 0 -74.5 -31t-31.5 -76q0 -44 31 -75t75 -31zM108 1664h179l255 229h-265z" />
    <glyph glyph-name="uni1E2F" unicode="&#x1e2f;" horiz-adv-x="607" 
d="M89 0h402v1186h-402v-1186zM70 1244q44 0 75 31t31 75q0 45 -31 76t-75 31q-45 0 -76 -31t-31 -76q0 -44 31 -75t76 -31zM506 1244q45 0 75.5 31t30.5 75q0 45 -30.5 76t-75.5 31q-43 0 -74.5 -31t-31.5 -76q0 -44 31 -75t75 -31zM74 1500h179l255 229h-265z" />
    <glyph glyph-name="uni1E36" unicode="&#x1e36;" horiz-adv-x="1077" 
d="M78 0h932v272h-528v1078h-404v-1350zM541 -309q46 0 78 32.5t32 78.5q0 45 -32 77.5t-78 32.5t-78.5 -32.5t-32.5 -77.5q0 -46 32.5 -78.5t78.5 -32.5z" />
    <glyph glyph-name="uni1E37" unicode="&#x1e37;" horiz-adv-x="623" 
d="M107 0h400v1570h-400v-1570zM307 -341q46 0 78 32.5t32 78.5q0 45 -32 77.5t-78 32.5t-78.5 -32.5t-32.5 -77.5q0 -46 32.5 -78.5t78.5 -32.5z" />
    <glyph glyph-name="Lmacronbelow" unicode="&#x1e3a;" horiz-adv-x="1077" 
d="M78 0h932v272h-528v1078h-404v-1350zM178 -248h725v144h-725v-144z" />
    <glyph glyph-name="lmacronbelow" unicode="&#x1e3b;" horiz-adv-x="623" 
d="M107 0h400v1570h-400v-1570zM-56 -248h725v144h-725v-144z" />
    <glyph glyph-name="uni1E42" unicode="&#x1e42;" horiz-adv-x="1925" 
d="M78 0h399v1073h4l232 -1054h468l232 1054h4v-1073h399v1350h-651l-217 -1043h-3l-217 1043h-650v-1350zM951 -309q46 0 78 32.5t32 78.5q0 45 -32 77.5t-78 32.5t-78.5 -32.5t-32.5 -77.5q0 -46 32.5 -78.5t78.5 -32.5z" />
    <glyph glyph-name="uni1E43" unicode="&#x1e43;" horiz-adv-x="2029" 
d="M80 0h400v1016l-92 170h-308v-1186zM803 0h399v677q0 205 -81 361.5t-327 156.5q-210 0 -369.5 -158.5t-159.5 -325.5l211 -81q0 152 51.5 222t131.5 70q75 0 109.5 -60t34.5 -219v-643zM1521 0h399v677q0 204 -78.5 361t-324.5 157q-210 0 -369.5 -161.5t-159.5 -322.5
l212 -81q0 152 51 222t131 70q75 0 107 -60t32 -219v-643zM1050 -341q46 0 78 32.5t32 78.5q0 45 -32 77.5t-78 32.5t-78.5 -32.5t-32.5 -77.5q0 -46 32.5 -78.5t78.5 -32.5z" />
    <glyph glyph-name="uni1E44" unicode="&#x1e44;" horiz-adv-x="1662" 
d="M78 0h401v1065h5l433 -1065h635v1350h-402l-4 -1044h-3l-424 1044h-641v-1350zM825 1396q46 0 78 32.5t32 78.5q0 45 -32 77.5t-78 32.5t-78.5 -32.5t-32.5 -77.5q0 -46 32.5 -78.5t78.5 -32.5z" />
    <glyph glyph-name="uni1E45" unicode="&#x1e45;" horiz-adv-x="1374" 
d="M80 0h399v999l-92 187h-307v-1186zM866 0h399v611q0 258 -89.5 421t-328.5 163q-258 0 -417 -163t-159 -326l194 -81q0 134 67.5 215.5t162.5 81.5q88 0 129.5 -62t41.5 -255v-605zM683 1232q46 0 78 32.5t32 78.5q0 45 -32 77.5t-78 32.5t-78.5 -32.5t-32.5 -77.5
q0 -46 32.5 -78.5t78.5 -32.5z" />
    <glyph glyph-name="uni1E46" unicode="&#x1e46;" horiz-adv-x="1662" 
d="M78 0h401v1065h5l433 -1065h635v1350h-402l-4 -1044h-3l-424 1044h-641v-1350zM825 -309q46 0 78 32.5t32 78.5q0 45 -32 77.5t-78 32.5t-78.5 -32.5t-32.5 -77.5q0 -46 32.5 -78.5t78.5 -32.5z" />
    <glyph glyph-name="uni1E47" unicode="&#x1e47;" horiz-adv-x="1374" 
d="M80 0h399v999l-92 187h-307v-1186zM866 0h399v611q0 258 -89.5 421t-328.5 163q-258 0 -417 -163t-159 -326l194 -81q0 134 67.5 215.5t162.5 81.5q88 0 129.5 -62t41.5 -255v-605zM683 -341q46 0 78 32.5t32 78.5q0 45 -32 77.5t-78 32.5t-78.5 -32.5t-32.5 -77.5
q0 -46 32.5 -78.5t78.5 -32.5z" />
    <glyph glyph-name="Nmacronbelow" unicode="&#x1e48;" horiz-adv-x="1662" 
d="M78 0h401v1065h5l433 -1065h635v1350h-402l-4 -1044h-3l-424 1044h-641v-1350zM461 -248h725v144h-725v-144z" />
    <glyph glyph-name="nmacronbelow" unicode="&#x1e49;" horiz-adv-x="1374" 
d="M80 0h399v999l-92 187h-307v-1186zM866 0h399v611q0 258 -89.5 421t-328.5 163q-258 0 -417 -163t-159 -326l194 -81q0 134 67.5 215.5t162.5 81.5q88 0 129.5 -62t41.5 -255v-605zM321 -248h725v144h-725v-144z" />
    <glyph glyph-name="uni1E4C" unicode="&#x1e4c;" horiz-adv-x="1459" 
d="M726 -12q387 0 531.5 178t144.5 509t-144.5 509.5t-531.5 178.5t-531 -178t-144 -510q0 -331 144.5 -509t530.5 -178zM726 262q-124 0 -198.5 64.5t-74.5 348.5q0 289 74.5 351.5t198.5 62.5q125 0 199 -62.5t74 -351.5q0 -284 -74 -348.5t-199 -64.5zM877 1406
q63 0 105 17.5t68 45.5t40 59.5t19 61t5 48.5h-190q0 -14 -8 -32.5t-25 -32t-43 -13.5q-30 0 -55 13t-52.5 30.5t-61.5 30.5t-82 13q-65 0 -109 -17t-70.5 -44.5t-40 -59t-18 -60.5t-6.5 -48h192q0 14 6.5 33t23.5 32t47 13q29 0 54.5 -14t53.5 -31.5t63 -31t84 -13.5z
M511 1683h179l255 229h-265z" />
    <glyph glyph-name="uni1E4D" unicode="&#x1e4d;" horiz-adv-x="1400" 
d="M691 -9q355 0 498 161.5t143 445.5q0 286 -143 444t-498 158q-353 0 -496.5 -158t-143.5 -444q0 -284 143.5 -445.5t496.5 -161.5zM691 260q-106 0 -173.5 62.5t-67.5 274.5q0 211 67.5 272.5t173.5 61.5q107 0 174.5 -61.5t67.5 -272.5q0 -212 -67.5 -274.5
t-174.5 -62.5zM839 1243q63 0 105 17.5t68 45.5t40 59.5t19 61t5 48.5h-190q0 -14 -8 -32.5t-25 -32t-43 -13.5q-30 0 -55 13t-52.5 30.5t-61.5 30.5t-82 13q-65 0 -109 -17t-70.5 -44.5t-40 -59t-18 -60.5t-6.5 -48h192q0 14 6.5 33t23.5 32t47 13q29 0 54.5 -14
t53.5 -31.5t63 -31t84 -13.5zM474 1520h179l255 229h-265z" />
    <glyph glyph-name="uni1E4E" unicode="&#x1e4e;" horiz-adv-x="1459" 
d="M726 -12q387 0 531.5 178t144.5 509t-144.5 509.5t-531.5 178.5t-531 -178t-144 -510q0 -331 144.5 -509t530.5 -178zM726 262q-124 0 -198.5 64.5t-74.5 348.5q0 289 74.5 351.5t198.5 62.5q125 0 199 -62.5t74 -351.5q0 -284 -74 -348.5t-199 -64.5zM877 1406
q63 0 105 17.5t68 45.5t40 59.5t19 61t5 48.5h-190q0 -14 -8 -32.5t-25 -32t-43 -13.5q-30 0 -55 13t-52.5 30.5t-61.5 30.5t-82 13q-65 0 -109 -17t-70.5 -44.5t-40 -59t-18 -60.5t-6.5 -48h192q0 14 6.5 33t23.5 32t47 13q29 0 54.5 -14t53.5 -31.5t63 -31t84 -13.5z
M508 1700q44 0 75 31t31 75q0 45 -31 76t-75 31q-45 0 -76 -31t-31 -76q0 -44 31 -75t76 -31zM944 1700q45 0 75.5 31t30.5 75q0 45 -30.5 76t-75.5 31q-43 0 -74.5 -31t-31.5 -76q0 -44 31 -75t75 -31z" />
    <glyph glyph-name="uni1E4F" unicode="&#x1e4f;" horiz-adv-x="1400" 
d="M691 -9q355 0 498 161.5t143 445.5q0 286 -143 444t-498 158q-353 0 -496.5 -158t-143.5 -444q0 -284 143.5 -445.5t496.5 -161.5zM691 260q-106 0 -173.5 62.5t-67.5 274.5q0 211 67.5 272.5t173.5 61.5q107 0 174.5 -61.5t67.5 -272.5q0 -212 -67.5 -274.5
t-174.5 -62.5zM839 1243q63 0 105 17.5t68 45.5t40 59.5t19 61t5 48.5h-190q0 -14 -8 -32.5t-25 -32t-43 -13.5q-30 0 -55 13t-52.5 30.5t-61.5 30.5t-82 13q-65 0 -109 -17t-70.5 -44.5t-40 -59t-18 -60.5t-6.5 -48h192q0 14 6.5 33t23.5 32t47 13q29 0 54.5 -14
t53.5 -31.5t63 -31t84 -13.5zM471 1537q44 0 75 31t31 75q0 45 -31 76t-75 31q-45 0 -76 -31t-31 -76q0 -44 31 -75t76 -31zM907 1537q45 0 75.5 31t30.5 75q0 45 -30.5 76t-75.5 31q-43 0 -74.5 -31t-31.5 -76q0 -44 31 -75t75 -31z" />
    <glyph glyph-name="uni1E50" unicode="&#x1e50;" horiz-adv-x="1459" 
d="M726 -12q387 0 531.5 178t144.5 509t-144.5 509.5t-531.5 178.5t-531 -178t-144 -510q0 -331 144.5 -509t530.5 -178zM726 262q-124 0 -198.5 64.5t-74.5 348.5q0 289 74.5 351.5t198.5 62.5q125 0 199 -62.5t74 -351.5q0 -284 -74 -348.5t-199 -64.5zM366 1440h725v144
h-725v-144zM767 1635h179l-170 229h-265z" />
    <glyph glyph-name="uni1E51" unicode="&#x1e51;" horiz-adv-x="1400" 
d="M691 -9q355 0 498 161.5t143 445.5q0 286 -143 444t-498 158q-353 0 -496.5 -158t-143.5 -444q0 -284 143.5 -445.5t496.5 -161.5zM691 260q-106 0 -173.5 62.5t-67.5 274.5q0 211 67.5 272.5t173.5 61.5q107 0 174.5 -61.5t67.5 -272.5q0 -212 -67.5 -274.5
t-174.5 -62.5zM328 1276h725v144h-725v-144zM731 1464h179l-170 229h-265z" />
    <glyph glyph-name="uni1E52" unicode="&#x1e52;" horiz-adv-x="1459" 
d="M726 -12q387 0 531.5 178t144.5 509t-144.5 509.5t-531.5 178.5t-531 -178t-144 -510q0 -331 144.5 -509t530.5 -178zM726 262q-124 0 -198.5 64.5t-74.5 348.5q0 289 74.5 351.5t198.5 62.5q125 0 199 -62.5t74 -351.5q0 -284 -74 -348.5t-199 -64.5zM366 1440h725v144
h-725v-144zM511 1625h179l255 229h-265z" />
    <glyph glyph-name="uni1E53" unicode="&#x1e53;" horiz-adv-x="1400" 
d="M691 -9q355 0 498 161.5t143 445.5q0 286 -143 444t-498 158q-353 0 -496.5 -158t-143.5 -444q0 -284 143.5 -445.5t496.5 -161.5zM691 260q-106 0 -173.5 62.5t-67.5 274.5q0 211 67.5 272.5t173.5 61.5q107 0 174.5 -61.5t67.5 -272.5q0 -212 -67.5 -274.5
t-174.5 -62.5zM328 1276h725v144h-725v-144zM474 1462h179l255 229h-265z" />
    <glyph glyph-name="uni1E5A" unicode="&#x1e5a;" horiz-adv-x="1393" 
d="M78 0h405v520h409q246 0 329.5 117t83.5 289q0 174 -79 299t-318 125h-830v-1350zM896 0h438l-333 640l-400 -15zM483 766v311h291q71 0 98.5 -39.5t27.5 -117.5q0 -76 -27 -115t-99 -39h-291zM685 -309q46 0 78 32.5t32 78.5q0 45 -32 77.5t-78 32.5t-78.5 -32.5
t-32.5 -77.5q0 -46 32.5 -78.5t78.5 -32.5z" />
    <glyph glyph-name="uni1E5B" unicode="&#x1e5b;" horiz-adv-x="1368" 
d="M860 587h399q0 311 -86 460t-336 149q-228 0 -370 -118t-142 -293l152 -86q0 88 57 156t151 68q81 0 128 -60.5t47 -275.5zM80 0h399v992l-92 194h-307v-1186zM689 -341q46 0 78 32.5t32 78.5q0 45 -32 77.5t-78 32.5t-78.5 -32.5t-32.5 -77.5q0 -46 32.5 -78.5
t78.5 -32.5z" />
    <glyph glyph-name="Rmacronbelow" unicode="&#x1e5e;" horiz-adv-x="1393" 
d="M78 0h405v520h409q246 0 329.5 117t83.5 289q0 174 -79 299t-318 125h-830v-1350zM896 0h438l-333 640l-400 -15zM483 766v311h291q71 0 98.5 -39.5t27.5 -117.5q0 -76 -27 -115t-99 -39h-291zM321 -248h725v144h-725v-144z" />
    <glyph glyph-name="rmacronbelow" unicode="&#x1e5f;" horiz-adv-x="1368" 
d="M860 587h399q0 311 -86 460t-336 149q-228 0 -370 -118t-142 -293l152 -86q0 88 57 156t151 68q81 0 128 -60.5t47 -275.5zM80 0h399v992l-92 194h-307v-1186zM327 -248h725v144h-725v-144z" />
    <glyph glyph-name="uni1E60" unicode="&#x1e60;" horiz-adv-x="1421" 
d="M704 -7q376 0 505.5 130.5t129.5 315.5q0 173 -106.5 242.5t-411.5 128.5q-170 31 -272 56.5t-102 107.5q0 59 68.5 88t176.5 29q98 0 169.5 -34.5t71.5 -178.5h404q0 208 -133.5 346.5t-507.5 138.5q-373 0 -506 -128.5t-133 -307.5q0 -176 109.5 -252.5t404.5 -135.5
q172 -29 271 -55t99 -102q0 -65 -68.5 -91.5t-171.5 -26.5q-104 0 -173 35.5t-69 181.5h-403q0 -221 131 -354.5t517 -133.5zM708 1396q46 0 78 32.5t32 78.5q0 45 -32 77.5t-78 32.5t-78.5 -32.5t-32.5 -77.5q0 -46 32.5 -78.5t78.5 -32.5z" />
    <glyph glyph-name="uni1E61" unicode="&#x1e61;" horiz-adv-x="1380" 
d="M713 -9q283 0 439.5 86t156.5 300q0 182 -139 255t-347 96q-156 22 -254.5 36.5t-98.5 77.5q0 47 45.5 72t141.5 25q104 0 180.5 -46t101.5 -117l349 127q-50 161 -213.5 227t-412.5 66q-259 0 -422 -84.5t-163 -270.5q0 -185 127.5 -270t339.5 -110q163 -23 267 -37
t104 -77q0 -48 -53 -73t-143 -25q-119 0 -198 44.5t-104 122.5l-349 -129q55 -162 227.5 -229t417.5 -67zM692 1233q46 0 78 32.5t32 78.5q0 45 -32 77.5t-78 32.5t-78.5 -32.5t-32.5 -77.5q0 -46 32.5 -78.5t78.5 -32.5z" />
    <glyph glyph-name="uni1E62" unicode="&#x1e62;" horiz-adv-x="1421" 
d="M704 -7q376 0 505.5 130.5t129.5 315.5q0 173 -106.5 242.5t-411.5 128.5q-170 31 -272 56.5t-102 107.5q0 59 68.5 88t176.5 29q98 0 169.5 -34.5t71.5 -178.5h404q0 208 -133.5 346.5t-507.5 138.5q-373 0 -506 -128.5t-133 -307.5q0 -176 109.5 -252.5t404.5 -135.5
q172 -29 271 -55t99 -102q0 -65 -68.5 -91.5t-171.5 -26.5q-104 0 -173 35.5t-69 181.5h-403q0 -221 131 -354.5t517 -133.5zM708 -309q46 0 78 32.5t32 78.5q0 45 -32 77.5t-78 32.5t-78.5 -32.5t-32.5 -77.5q0 -46 32.5 -78.5t78.5 -32.5z" />
    <glyph glyph-name="uni1E63" unicode="&#x1e63;" horiz-adv-x="1380" 
d="M713 -9q283 0 439.5 86t156.5 300q0 182 -139 255t-347 96q-156 22 -254.5 36.5t-98.5 77.5q0 47 45.5 72t141.5 25q104 0 180.5 -46t101.5 -117l349 127q-50 161 -213.5 227t-412.5 66q-259 0 -422 -84.5t-163 -270.5q0 -185 127.5 -270t339.5 -110q163 -23 267 -37
t104 -77q0 -48 -53 -73t-143 -25q-119 0 -198 44.5t-104 122.5l-349 -129q55 -162 227.5 -229t417.5 -67zM687 -341q46 0 78 32.5t32 78.5q0 45 -32 77.5t-78 32.5t-78.5 -32.5t-32.5 -77.5q0 -46 32.5 -78.5t78.5 -32.5z" />
    <glyph glyph-name="uni1E64" unicode="&#x1e64;" horiz-adv-x="1421" 
d="M704 -7q376 0 505.5 130.5t129.5 315.5q0 173 -106.5 242.5t-411.5 128.5q-170 31 -272 56.5t-102 107.5q0 59 68.5 88t176.5 29q98 0 169.5 -34.5t71.5 -178.5h404q0 208 -133.5 346.5t-507.5 138.5q-373 0 -506 -128.5t-133 -307.5q0 -176 109.5 -252.5t404.5 -135.5
q172 -29 271 -55t99 -102q0 -65 -68.5 -91.5t-171.5 -26.5q-104 0 -173 35.5t-69 181.5h-403q0 -221 131 -354.5t517 -133.5zM490 1392h179l255 229h-265zM708 1667q46 0 78 32.5t32 78.5q0 45 -32 77.5t-78 32.5t-78.5 -32.5t-32.5 -77.5q0 -46 32.5 -78.5t78.5 -32.5z" />
    <glyph glyph-name="uni1E65" unicode="&#x1e65;" horiz-adv-x="1380" 
d="M713 -9q283 0 439.5 86t156.5 300q0 182 -139 255t-347 96q-156 22 -254.5 36.5t-98.5 77.5q0 47 45.5 72t141.5 25q104 0 180.5 -46t101.5 -117l349 127q-50 161 -213.5 227t-412.5 66q-259 0 -422 -84.5t-163 -270.5q0 -185 127.5 -270t339.5 -110q163 -23 267 -37
t104 -77q0 -48 -53 -73t-143 -25q-119 0 -198 44.5t-104 122.5l-349 -129q55 -162 227.5 -229t417.5 -67zM474 1228h179l255 229h-265zM692 1503q46 0 78 32.5t32 78.5q0 45 -32 77.5t-78 32.5t-78.5 -32.5t-32.5 -77.5q0 -46 32.5 -78.5t78.5 -32.5z" />
    <glyph glyph-name="uni1E66" unicode="&#x1e66;" horiz-adv-x="1421" 
d="M704 -7q376 0 505.5 130.5t129.5 315.5q0 173 -106.5 242.5t-411.5 128.5q-170 31 -272 56.5t-102 107.5q0 59 68.5 88t176.5 29q98 0 169.5 -34.5t71.5 -178.5h404q0 208 -133.5 346.5t-507.5 138.5q-373 0 -506 -128.5t-133 -307.5q0 -176 109.5 -252.5t404.5 -135.5
q172 -29 271 -55t99 -102q0 -65 -68.5 -91.5t-171.5 -26.5q-104 0 -173 35.5t-69 181.5h-403q0 -221 131 -354.5t517 -133.5zM581 1394h252l229 221h-226l-129 -143l-128 143h-226zM708 1661q46 0 78 32.5t32 78.5q0 45 -32 77.5t-78 32.5t-78.5 -32.5t-32.5 -77.5
q0 -46 32.5 -78.5t78.5 -32.5z" />
    <glyph glyph-name="uni1E67" unicode="&#x1e67;" horiz-adv-x="1380" 
d="M713 -9q283 0 439.5 86t156.5 300q0 182 -139 255t-347 96q-156 22 -254.5 36.5t-98.5 77.5q0 47 45.5 72t141.5 25q104 0 180.5 -46t101.5 -117l349 127q-50 161 -213.5 227t-412.5 66q-259 0 -422 -84.5t-163 -270.5q0 -185 127.5 -270t339.5 -110q163 -23 267 -37
t104 -77q0 -48 -53 -73t-143 -25q-119 0 -198 44.5t-104 122.5l-349 -129q55 -162 227.5 -229t417.5 -67zM565 1231h252l229 221h-226l-129 -143l-128 143h-226zM692 1498q46 0 78 32.5t32 78.5q0 45 -32 77.5t-78 32.5t-78.5 -32.5t-32.5 -77.5q0 -46 32.5 -78.5
t78.5 -32.5z" />
    <glyph glyph-name="uni1E68" unicode="&#x1e68;" horiz-adv-x="1421" 
d="M704 -7q376 0 505.5 130.5t129.5 315.5q0 173 -106.5 242.5t-411.5 128.5q-170 31 -272 56.5t-102 107.5q0 59 68.5 88t176.5 29q98 0 169.5 -34.5t71.5 -178.5h404q0 208 -133.5 346.5t-507.5 138.5q-373 0 -506 -128.5t-133 -307.5q0 -176 109.5 -252.5t404.5 -135.5
q172 -29 271 -55t99 -102q0 -65 -68.5 -91.5t-171.5 -26.5q-104 0 -173 35.5t-69 181.5h-403q0 -221 131 -354.5t517 -133.5zM708 -309q46 0 78 32.5t32 78.5q0 45 -32 77.5t-78 32.5t-78.5 -32.5t-32.5 -77.5q0 -46 32.5 -78.5t78.5 -32.5zM708 1396q46 0 78 32.5t32 78.5
q0 45 -32 77.5t-78 32.5t-78.5 -32.5t-32.5 -77.5q0 -46 32.5 -78.5t78.5 -32.5z" />
    <glyph glyph-name="uni1E69" unicode="&#x1e69;" horiz-adv-x="1380" 
d="M713 -9q283 0 439.5 86t156.5 300q0 182 -139 255t-347 96q-156 22 -254.5 36.5t-98.5 77.5q0 47 45.5 72t141.5 25q104 0 180.5 -46t101.5 -117l349 127q-50 161 -213.5 227t-412.5 66q-259 0 -422 -84.5t-163 -270.5q0 -185 127.5 -270t339.5 -110q163 -23 267 -37
t104 -77q0 -48 -53 -73t-143 -25q-119 0 -198 44.5t-104 122.5l-349 -129q55 -162 227.5 -229t417.5 -67zM687 -341q46 0 78 32.5t32 78.5q0 45 -32 77.5t-78 32.5t-78.5 -32.5t-32.5 -77.5q0 -46 32.5 -78.5t78.5 -32.5zM692 1233q46 0 78 32.5t32 78.5q0 45 -32 77.5
t-78 32.5t-78.5 -32.5t-32.5 -77.5q0 -46 32.5 -78.5t78.5 -32.5z" />
    <glyph glyph-name="uni1E6C" unicode="&#x1e6c;" horiz-adv-x="1336" 
d="M465 0h404v1077h396v273h-1196v-273h396v-1077zM668 -309q46 0 78 32.5t32 78.5q0 45 -32 77.5t-78 32.5t-78.5 -32.5t-32.5 -77.5q0 -46 32.5 -78.5t78.5 -32.5z" />
    <glyph glyph-name="uni1E6D" unicode="&#x1e6d;" horiz-adv-x="1101" 
d="M698 -16q148 0 283 30v262q-72 -26 -146 -26q-70 0 -109 27t-39 117v518h353v274h-353v272h-400v-272h-266v-274h266v-603q0 -183 120.5 -254t290.5 -71zM679 -341q46 0 78 32.5t32 78.5q0 45 -32 77.5t-78 32.5t-78.5 -32.5t-32.5 -77.5q0 -46 32.5 -78.5t78.5 -32.5z
" />
    <glyph glyph-name="Tmacronbelow" unicode="&#x1e6e;" horiz-adv-x="1336" 
d="M465 0h404v1077h396v273h-1196v-273h396v-1077zM305 -248h725v144h-725v-144z" />
    <glyph glyph-name="tmacronbelow" unicode="&#x1e6f;" horiz-adv-x="1101" 
d="M698 -16q148 0 283 30v262q-72 -26 -146 -26q-70 0 -109 27t-39 117v518h353v274h-353v272h-400v-272h-266v-274h266v-603q0 -183 120.5 -254t290.5 -71zM316 -248h725v144h-725v-144z" />
    <glyph glyph-name="uni1E78" unicode="&#x1e78;" horiz-adv-x="1463" 
d="M723 -7q328 0 487 108t159 361v888h-404v-845q0 -128 -56 -183.5t-186 -55.5t-185.5 56t-55.5 183v845h-404v-888q0 -253 159 -361t486 -108zM878 1406q63 0 105 17.5t68 45.5t40 59.5t19 61t5 48.5h-190q0 -14 -8 -32.5t-25 -32t-43 -13.5q-30 0 -55 13t-52.5 30.5
t-61.5 30.5t-82 13q-65 0 -109 -17t-70.5 -44.5t-40 -59t-18 -60.5t-6.5 -48h192q0 14 6.5 33t23.5 32t47 13q29 0 54.5 -14t53.5 -31.5t63 -31t84 -13.5zM513 1683h179l255 229h-265z" />
    <glyph glyph-name="uni1E79" unicode="&#x1e79;" horiz-adv-x="1372" 
d="M960 0h306v1186h-399v-1002zM468 1186h-399v-625q0 -257 87.5 -413.5t330.5 -156.5q278 0 427.5 163.5t149.5 325.5l-195 73q0 -134 -69 -211.5t-165 -77.5q-88 0 -127.5 62t-39.5 256v604zM827 1242q63 0 105 17.5t68 45.5t40 59.5t19 61t5 48.5h-190q0 -14 -8 -32.5
t-25 -32t-43 -13.5q-30 0 -55 13t-52.5 30.5t-61.5 30.5t-82 13q-65 0 -109 -17t-70.5 -44.5t-40 -59t-18 -60.5t-6.5 -48h192q0 14 6.5 33t23.5 32t47 13q29 0 54.5 -14t53.5 -31.5t63 -31t84 -13.5zM461 1519h179l255 229h-265z" />
    <glyph glyph-name="uni1E7A" unicode="&#x1e7a;" horiz-adv-x="1463" 
d="M723 -7q328 0 487 108t159 361v888h-404v-845q0 -128 -56 -183.5t-186 -55.5t-185.5 56t-55.5 183v845h-404v-888q0 -253 159 -361t486 -108zM368 1440h725v144h-725v-144zM509 1641q44 0 75 31t31 75q0 45 -31 76t-75 31q-45 0 -76 -31t-31 -76q0 -44 31 -75t76 -31z
M945 1641q45 0 75.5 31t30.5 75q0 45 -30.5 76t-75.5 31q-43 0 -74.5 -31t-31.5 -76q0 -44 31 -75t75 -31z" />
    <glyph glyph-name="uni1E7B" unicode="&#x1e7b;" horiz-adv-x="1372" 
d="M960 0h306v1186h-399v-1002zM468 1186h-399v-625q0 -257 87.5 -413.5t330.5 -156.5q278 0 427.5 163.5t149.5 325.5l-195 73q0 -134 -69 -211.5t-165 -77.5q-88 0 -127.5 62t-39.5 256v604zM316 1275h725v144h-725v-144zM458 1477q44 0 75 31t31 75q0 45 -31 76t-75 31
q-45 0 -76 -31t-31 -76q0 -44 31 -75t76 -31zM894 1477q45 0 75.5 31t30.5 75q0 45 -30.5 76t-75.5 31q-43 0 -74.5 -31t-31.5 -76q0 -44 31 -75t75 -31z" />
    <glyph glyph-name="Wgrave" unicode="&#x1e80;" horiz-adv-x="2136" 
d="M272 0h615l168 1077h3l167 -1077h616l245 1350h-437l-138 -1057h-3l-187 1057h-528l-186 -1056h-4l-132 1056h-434zM1108 1394h179l-170 229h-265z" />
    <glyph glyph-name="wgrave" unicode="&#x1e81;" horiz-adv-x="2001" 
d="M308 0h533l157 786l156 -786h528l262 1186h-412l-125 -922h-3l-206 922h-396l-208 -925h-3l-132 925h-412zM1036 1230h179l-170 229h-265z" />
    <glyph glyph-name="Wacute" unicode="&#x1e82;" horiz-adv-x="2136" 
d="M272 0h615l168 1077h3l167 -1077h616l245 1350h-437l-138 -1057h-3l-187 1057h-528l-186 -1056h-4l-132 1056h-434zM852 1392h179l255 229h-265z" />
    <glyph glyph-name="wacute" unicode="&#x1e83;" horiz-adv-x="2001" 
d="M308 0h533l157 786l156 -786h528l262 1186h-412l-125 -922h-3l-206 922h-396l-208 -925h-3l-132 925h-412zM780 1227h179l255 229h-265z" />
    <glyph glyph-name="Wdieresis" unicode="&#x1e84;" horiz-adv-x="2136" 
d="M272 0h615l168 1077h3l167 -1077h616l245 1350h-437l-138 -1057h-3l-187 1057h-528l-186 -1056h-4l-132 1056h-434zM849 1408q44 0 75 31t31 75q0 45 -31 76t-75 31q-45 0 -76 -31t-31 -76q0 -44 31 -75t76 -31zM1285 1408q45 0 75.5 31t30.5 75q0 45 -30.5 76t-75.5 31
q-43 0 -74.5 -31t-31.5 -76q0 -44 31 -75t75 -31z" />
    <glyph glyph-name="wdieresis" unicode="&#x1e85;" horiz-adv-x="2001" 
d="M308 0h533l157 786l156 -786h528l262 1186h-412l-125 -922h-3l-206 922h-396l-208 -925h-3l-132 925h-412zM777 1244q44 0 75 31t31 75q0 45 -31 76t-75 31q-45 0 -76 -31t-31 -76q0 -44 31 -75t76 -31zM1213 1244q45 0 75.5 31t30.5 75q0 45 -30.5 76t-75.5 31
q-43 0 -74.5 -31t-31.5 -76q0 -44 31 -75t75 -31z" />
    <glyph glyph-name="uni1E8E" unicode="&#x1e8e;" horiz-adv-x="1483" 
d="M540 0h403v488l529 862h-438l-291 -547h-1l-294 547h-437l529 -861v-489zM741 1396q46 0 78 32.5t32 78.5q0 45 -32 77.5t-78 32.5t-78.5 -32.5t-32.5 -77.5q0 -46 32.5 -78.5t78.5 -32.5z" />
    <glyph glyph-name="uni1E8F" unicode="&#x1e8f;" horiz-adv-x="1328" 
d="M352 0h609l328 1186h-418l-214 -926h-3l-216 926h-417zM125 -467q342 0 547.5 88t288.5 379l-369 1q-35 -130 -139 -165t-328 -35v-268zM653 1232q46 0 78 32.5t32 78.5q0 45 -32 77.5t-78 32.5t-78.5 -32.5t-32.5 -77.5q0 -46 32.5 -78.5t78.5 -32.5z" />
    <glyph glyph-name="uni1E92" unicode="&#x1e92;" horiz-adv-x="1220" 
d="M59 0h1074v273h-630l616 804v273h-1046v-271h602l-616 -797v-282zM610 -309q46 0 78 32.5t32 78.5q0 45 -32 77.5t-78 32.5t-78.5 -32.5t-32.5 -77.5q0 -46 32.5 -78.5t78.5 -32.5z" />
    <glyph glyph-name="uni1E93" unicode="&#x1e93;" horiz-adv-x="1149" 
d="M72 0h998v272h-521v2l510 645v267h-988v-272h525v-1l-524 -645v-268zM574 -341q46 0 78 32.5t32 78.5q0 45 -32 77.5t-78 32.5t-78.5 -32.5t-32.5 -77.5q0 -46 32.5 -78.5t78.5 -32.5z" />
    <glyph glyph-name="uni1E97" unicode="&#x1e97;" horiz-adv-x="1101" 
d="M698 -16q148 0 283 30v262q-72 -26 -146 -26q-70 0 -109 27t-39 117v518h353v274h-353v272h-400v-272h-266v-274h266v-603q0 -183 120.5 -254t290.5 -71zM271 1511q44 0 75 31t31 75q0 45 -31 76t-75 31q-45 0 -76 -31t-31 -76q0 -44 31 -75t76 -31zM707 1511
q45 0 75.5 31t30.5 75q0 45 -30.5 76t-75.5 31q-43 0 -74.5 -31t-31.5 -76q0 -44 31 -75t75 -31z" />
    <glyph glyph-name="uni1E9E" unicode="&#x1e9e;" horiz-adv-x="1367" 
d="M78 0h402v1067h293l-179 -233v-240q60 -4 110.5 -14t88.5 -29.5t59 -50.5t21 -77q0 -48 -14 -79.5t-46.5 -48.5t-85.5 -23.5t-132 -6.5v-265q219 0 355 25.5t208.5 78t99.5 129.5t27 178q0 76 -20.5 133.5t-62.5 98.5t-107 66t-154 37l285 345v259h-1148v-1350z" />
    <glyph glyph-name="uni1EA0" unicode="&#x1ea0;" horiz-adv-x="1522" 
d="M56 0h416l80 307h421l78 -307h416l-421 1351h-570zM617 571l144 545h4l144 -545h-292zM760 -309q46 0 78 32.5t32 78.5q0 45 -32 77.5t-78 32.5t-78.5 -32.5t-32.5 -77.5q0 -46 32.5 -78.5t78.5 -32.5z" />
    <glyph glyph-name="uni1EA1" unicode="&#x1ea1;" horiz-adv-x="1400" 
d="M535 -13q72 0 137 12t118 32t90.5 45t55.5 53l35 -129h332v733q0 170 -70.5 271.5t-208.5 147.5t-341 46q-107 0 -207.5 -17t-183.5 -53.5t-141.5 -97.5t-81.5 -149l390 -110q16 62 50 97t80 49t96 14q68 0 116 -16.5t74 -55t26 -105.5v-35h-368q-120 0 -210 -19.5
t-149.5 -61.5t-89 -110.5t-29.5 -168.5q0 -106 31 -178t93 -114.5t151 -61t205 -18.5zM625 241q-37 0 -68 6t-53 20.5t-33.5 40t-11.5 66.5q0 42 11 68t32.5 39t53.5 18.5t72 5.5h267v-166q-20 -27 -61.5 -49.5t-95.5 -35.5t-113 -13zM700 -341q46 0 78 32.5t32 78.5
q0 45 -32 77.5t-78 32.5t-78.5 -32.5t-32.5 -77.5q0 -46 32.5 -78.5t78.5 -32.5z" />
    <glyph glyph-name="uni1EA2" unicode="&#x1ea2;" horiz-adv-x="1522" 
d="M56 0h416l80 307h421l78 -307h416l-421 1351h-570zM617 571l144 545h4l144 -545h-292zM606 1726v-118q105 0 164 -1.5t82.5 -7t23.5 -16.5q0 -9 -21 -15.5t-62 -9t-102 -2.5v-148h138v57q43 0 85 7t76 22t54.5 40.5t20.5 61.5q0 52 -46.5 80t-147 39t-265.5 11z" />
    <glyph glyph-name="uni1EA3" unicode="&#x1ea3;" horiz-adv-x="1400" 
d="M535 -13q72 0 137 12t118 32t90.5 45t55.5 53l35 -129h332v733q0 170 -70.5 271.5t-208.5 147.5t-341 46q-107 0 -207.5 -17t-183.5 -53.5t-141.5 -97.5t-81.5 -149l390 -110q16 62 50 97t80 49t96 14q68 0 116 -16.5t74 -55t26 -105.5v-35h-368q-120 0 -210 -19.5
t-149.5 -61.5t-89 -110.5t-29.5 -168.5q0 -106 31 -178t93 -114.5t151 -61t205 -18.5zM625 241q-37 0 -68 6t-53 20.5t-33.5 40t-11.5 66.5q0 42 11 68t32.5 39t53.5 18.5t72 5.5h267v-166q-20 -27 -61.5 -49.5t-95.5 -35.5t-113 -13zM517 1563v-118q105 0 164 -1.5t82.5 -7
t23.5 -16.5q0 -9 -21 -15.5t-62 -9t-102 -2.5v-148h138v57q43 0 85 7t76 22t54.5 40.5t20.5 61.5q0 52 -46.5 80t-147 39t-265.5 11z" />
    <glyph glyph-name="uni1EA4" unicode="&#x1ea4;" horiz-adv-x="1522" 
d="M56 0h416l80 307h421l78 -307h416l-421 1351h-570zM617 571l144 545h4l144 -545h-292zM405 1413h226l129 144l128 -144h226l-229 221h-252zM979 1592h179l255 229h-265z" />
    <glyph glyph-name="uni1EA5" unicode="&#x1ea5;" horiz-adv-x="1400" 
d="M535 -13q72 0 137 12t118 32t90.5 45t55.5 53l35 -129h332v733q0 170 -70.5 271.5t-208.5 147.5t-341 46q-107 0 -207.5 -17t-183.5 -53.5t-141.5 -97.5t-81.5 -149l390 -110q16 62 50 97t80 49t96 14q68 0 116 -16.5t74 -55t26 -105.5v-35h-368q-120 0 -210 -19.5
t-149.5 -61.5t-89 -110.5t-29.5 -168.5q0 -106 31 -178t93 -114.5t151 -61t205 -18.5zM625 241q-37 0 -68 6t-53 20.5t-33.5 40t-11.5 66.5q0 42 11 68t32.5 39t53.5 18.5t72 5.5h267v-166q-20 -27 -61.5 -49.5t-95.5 -35.5t-113 -13zM325 1249h226l129 144l128 -144h226
l-229 221h-252zM899 1428h179l255 229h-265z" />
    <glyph glyph-name="uni1EA6" unicode="&#x1ea6;" horiz-adv-x="1522" 
d="M56 0h416l80 307h421l78 -307h416l-421 1351h-570zM617 571l144 545h4l144 -545h-292zM405 1413h226l129 144l128 -144h226l-229 221h-252zM1062 1592h179l-170 229h-265z" />
    <glyph glyph-name="uni1EA7" unicode="&#x1ea7;" horiz-adv-x="1400" 
d="M535 -13q72 0 137 12t118 32t90.5 45t55.5 53l35 -129h332v733q0 170 -70.5 271.5t-208.5 147.5t-341 46q-107 0 -207.5 -17t-183.5 -53.5t-141.5 -97.5t-81.5 -149l390 -110q16 62 50 97t80 49t96 14q68 0 116 -16.5t74 -55t26 -105.5v-35h-368q-120 0 -210 -19.5
t-149.5 -61.5t-89 -110.5t-29.5 -168.5q0 -106 31 -178t93 -114.5t151 -61t205 -18.5zM625 241q-37 0 -68 6t-53 20.5t-33.5 40t-11.5 66.5q0 42 11 68t32.5 39t53.5 18.5t72 5.5h267v-166q-20 -27 -61.5 -49.5t-95.5 -35.5t-113 -13zM326 1249h226l129 144l128 -144h226
l-229 221h-252zM983 1428h179l-170 229h-265z" />
    <glyph glyph-name="uni1EA8" unicode="&#x1ea8;" horiz-adv-x="1522" 
d="M56 0h416l80 307h421l78 -307h416l-421 1351h-570zM617 571l144 545h4l144 -545h-292zM406 1403h226l129 144l128 -144h226l-229 221h-252zM596 2000v-118q105 0 164 -1.5t82.5 -7t23.5 -16.5q0 -9 -21 -15.5t-62 -9t-102 -2.5v-148h138v57q43 0 85 7t76 22t54.5 40.5
t20.5 61.5q0 52 -46.5 80t-147 39t-265.5 11z" />
    <glyph glyph-name="uni1EA9" unicode="&#x1ea9;" horiz-adv-x="1400" 
d="M535 -13q72 0 137 12t118 32t90.5 45t55.5 53l35 -129h332v733q0 170 -70.5 271.5t-208.5 147.5t-341 46q-107 0 -207.5 -17t-183.5 -53.5t-141.5 -97.5t-81.5 -149l390 -110q16 62 50 97t80 49t96 14q68 0 116 -16.5t74 -55t26 -105.5v-35h-368q-120 0 -210 -19.5
t-149.5 -61.5t-89 -110.5t-29.5 -168.5q0 -106 31 -178t93 -114.5t151 -61t205 -18.5zM625 241q-37 0 -68 6t-53 20.5t-33.5 40t-11.5 66.5q0 42 11 68t32.5 39t53.5 18.5t72 5.5h267v-166q-20 -27 -61.5 -49.5t-95.5 -35.5t-113 -13zM327 1240h226l129 144l128 -144h226
l-229 221h-252zM517 1837v-118q105 0 164 -1.5t82.5 -7t23.5 -16.5q0 -9 -21 -15.5t-62 -9t-102 -2.5v-148h138v57q43 0 85 7t76 22t54.5 40.5t20.5 61.5q0 52 -46.5 80t-147 39t-265.5 11z" />
    <glyph glyph-name="uni1EAA" unicode="&#x1eaa;" horiz-adv-x="1522" 
d="M56 0h416l80 307h421l78 -307h416l-421 1351h-570zM617 571l144 545h4l144 -545h-292zM406 1403h226l129 144l128 -144h226l-229 221h-252zM908 1680q63 0 105 17.5t68 45.5t40 59.5t19 61t5 48.5h-190q0 -14 -8 -32.5t-25 -32t-43 -13.5q-30 0 -55 13t-52.5 30.5
t-61.5 30.5t-82 13q-65 0 -109 -17t-70.5 -44.5t-40 -59t-18 -60.5t-6.5 -48h192q0 14 6.5 33t23.5 32t47 13q29 0 54.5 -14t53.5 -31.5t63 -31t84 -13.5z" />
    <glyph glyph-name="uni1EAB" unicode="&#x1eab;" horiz-adv-x="1400" 
d="M535 -13q72 0 137 12t118 32t90.5 45t55.5 53l35 -129h332v733q0 170 -70.5 271.5t-208.5 147.5t-341 46q-107 0 -207.5 -17t-183.5 -53.5t-141.5 -97.5t-81.5 -149l390 -110q16 62 50 97t80 49t96 14q68 0 116 -16.5t74 -55t26 -105.5v-35h-368q-120 0 -210 -19.5
t-149.5 -61.5t-89 -110.5t-29.5 -168.5q0 -106 31 -178t93 -114.5t151 -61t205 -18.5zM625 241q-37 0 -68 6t-53 20.5t-33.5 40t-11.5 66.5q0 42 11 68t32.5 39t53.5 18.5t72 5.5h267v-166q-20 -27 -61.5 -49.5t-95.5 -35.5t-113 -13zM327 1240h226l129 144l128 -144h226
l-229 221h-252zM829 1517q63 0 105 17.5t68 45.5t40 59.5t19 61t5 48.5h-190q0 -14 -8 -32.5t-25 -32t-43 -13.5q-30 0 -55 13t-52.5 30.5t-61.5 30.5t-82 13q-65 0 -109 -17t-70.5 -44.5t-40 -59t-18 -60.5t-6.5 -48h192q0 14 6.5 33t23.5 32t47 13q29 0 54.5 -14
t53.5 -31.5t63 -31t84 -13.5z" />
    <glyph glyph-name="uni1EAC" unicode="&#x1eac;" horiz-adv-x="1522" 
d="M56 0h416l80 307h421l78 -307h416l-421 1351h-570zM617 571l144 545h4l144 -545h-292zM760 -309q46 0 78 32.5t32 78.5q0 45 -32 77.5t-78 32.5t-78.5 -32.5t-32.5 -77.5q0 -46 32.5 -78.5t78.5 -32.5zM406 1403h226l129 144l128 -144h226l-229 221h-252z" />
    <glyph glyph-name="uni1EAD" unicode="&#x1ead;" horiz-adv-x="1400" 
d="M535 -13q72 0 137 12t118 32t90.5 45t55.5 53l35 -129h332v733q0 170 -70.5 271.5t-208.5 147.5t-341 46q-107 0 -207.5 -17t-183.5 -53.5t-141.5 -97.5t-81.5 -149l390 -110q16 62 50 97t80 49t96 14q68 0 116 -16.5t74 -55t26 -105.5v-35h-368q-120 0 -210 -19.5
t-149.5 -61.5t-89 -110.5t-29.5 -168.5q0 -106 31 -178t93 -114.5t151 -61t205 -18.5zM625 241q-37 0 -68 6t-53 20.5t-33.5 40t-11.5 66.5q0 42 11 68t32.5 39t53.5 18.5t72 5.5h267v-166q-20 -27 -61.5 -49.5t-95.5 -35.5t-113 -13zM700 -341q46 0 78 32.5t32 78.5
q0 45 -32 77.5t-78 32.5t-78.5 -32.5t-32.5 -77.5q0 -46 32.5 -78.5t78.5 -32.5zM327 1240h226l129 144l128 -144h226l-229 221h-252z" />
    <glyph glyph-name="uni1EAE" unicode="&#x1eae;" horiz-adv-x="1522" 
d="M56 0h416l80 307h421l78 -307h416l-421 1351h-570zM617 571l144 545h4l144 -545h-292zM761 1395q87 0 149 29.5t94.5 77.5t32.5 107h-184q0 -27 -9 -46.5t-29 -29t-54 -9.5q-30 0 -50.5 10t-31 28.5t-10.5 46.5h-185q0 -59 34 -107t96 -77.5t147 -29.5zM543 1650h179
l255 229h-265z" />
    <glyph glyph-name="uni1EAF" unicode="&#x1eaf;" horiz-adv-x="1400" 
d="M535 -13q72 0 137 12t118 32t90.5 45t55.5 53l35 -129h332v733q0 170 -70.5 271.5t-208.5 147.5t-341 46q-107 0 -207.5 -17t-183.5 -53.5t-141.5 -97.5t-81.5 -149l390 -110q16 62 50 97t80 49t96 14q68 0 116 -16.5t74 -55t26 -105.5v-35h-368q-120 0 -210 -19.5
t-149.5 -61.5t-89 -110.5t-29.5 -168.5q0 -106 31 -178t93 -114.5t151 -61t205 -18.5zM625 241q-37 0 -68 6t-53 20.5t-33.5 40t-11.5 66.5q0 42 11 68t32.5 39t53.5 18.5t72 5.5h267v-166q-20 -27 -61.5 -49.5t-95.5 -35.5t-113 -13zM682 1231q87 0 149 29.5t94.5 77.5
t32.5 107h-184q0 -27 -9 -46.5t-29 -29t-54 -9.5q-30 0 -50.5 10t-31 28.5t-10.5 46.5h-185q0 -59 34 -107t96 -77.5t147 -29.5zM464 1487h179l255 229h-265z" />
    <glyph glyph-name="uni1EB0" unicode="&#x1eb0;" horiz-adv-x="1522" 
d="M56 0h416l80 307h421l78 -307h416l-421 1351h-570zM617 571l144 545h4l144 -545h-292zM761 1395q87 0 149 29.5t94.5 77.5t32.5 107h-184q0 -27 -9 -46.5t-29 -29t-54 -9.5q-30 0 -50.5 10t-31 28.5t-10.5 46.5h-185q0 -59 34 -107t96 -77.5t147 -29.5zM798 1653h179
l-170 229h-265z" />
    <glyph glyph-name="uni1EB1" unicode="&#x1eb1;" horiz-adv-x="1400" 
d="M535 -13q72 0 137 12t118 32t90.5 45t55.5 53l35 -129h332v733q0 170 -70.5 271.5t-208.5 147.5t-341 46q-107 0 -207.5 -17t-183.5 -53.5t-141.5 -97.5t-81.5 -149l390 -110q16 62 50 97t80 49t96 14q68 0 116 -16.5t74 -55t26 -105.5v-35h-368q-120 0 -210 -19.5
t-149.5 -61.5t-89 -110.5t-29.5 -168.5q0 -106 31 -178t93 -114.5t151 -61t205 -18.5zM625 241q-37 0 -68 6t-53 20.5t-33.5 40t-11.5 66.5q0 42 11 68t32.5 39t53.5 18.5t72 5.5h267v-166q-20 -27 -61.5 -49.5t-95.5 -35.5t-113 -13zM682 1231q87 0 149 29.5t94.5 77.5
t32.5 107h-184q0 -27 -9 -46.5t-29 -29t-54 -9.5q-30 0 -50.5 10t-31 28.5t-10.5 46.5h-185q0 -59 34 -107t96 -77.5t147 -29.5zM720 1489h179l-170 229h-265z" />
    <glyph glyph-name="uni1EB2" unicode="&#x1eb2;" horiz-adv-x="1522" 
d="M56 0h416l80 307h421l78 -307h416l-421 1351h-570zM617 571l144 545h4l144 -545h-292zM761 1395q87 0 149 29.5t94.5 77.5t32.5 107h-184q0 -27 -9 -46.5t-29 -29t-54 -9.5q-30 0 -50.5 10t-31 28.5t-10.5 46.5h-185q0 -59 34 -107t96 -77.5t147 -29.5zM596 1985v-118
q105 0 164 -1.5t82.5 -7t23.5 -16.5q0 -9 -21 -15.5t-62 -9t-102 -2.5v-148h138v57q43 0 85 7t76 22t54.5 40.5t20.5 61.5q0 52 -46.5 80t-147 39t-265.5 11z" />
    <glyph glyph-name="uni1EB3" unicode="&#x1eb3;" horiz-adv-x="1400" 
d="M535 -13q72 0 137 12t118 32t90.5 45t55.5 53l35 -129h332v733q0 170 -70.5 271.5t-208.5 147.5t-341 46q-107 0 -207.5 -17t-183.5 -53.5t-141.5 -97.5t-81.5 -149l390 -110q16 62 50 97t80 49t96 14q68 0 116 -16.5t74 -55t26 -105.5v-35h-368q-120 0 -210 -19.5
t-149.5 -61.5t-89 -110.5t-29.5 -168.5q0 -106 31 -178t93 -114.5t151 -61t205 -18.5zM625 241q-37 0 -68 6t-53 20.5t-33.5 40t-11.5 66.5q0 42 11 68t32.5 39t53.5 18.5t72 5.5h267v-166q-20 -27 -61.5 -49.5t-95.5 -35.5t-113 -13zM682 1231q87 0 149 29.5t94.5 77.5
t32.5 107h-184q0 -27 -9 -46.5t-29 -29t-54 -9.5q-30 0 -50.5 10t-31 28.5t-10.5 46.5h-185q0 -59 34 -107t96 -77.5t147 -29.5zM517 1821v-118q105 0 164 -1.5t82.5 -7t23.5 -16.5q0 -9 -21 -15.5t-62 -9t-102 -2.5v-148h138v57q43 0 85 7t76 22t54.5 40.5t20.5 61.5
q0 52 -46.5 80t-147 39t-265.5 11z" />
    <glyph glyph-name="uni1EB4" unicode="&#x1eb4;" horiz-adv-x="1522" 
d="M56 0h416l80 307h421l78 -307h416l-421 1351h-570zM617 571l144 545h4l144 -545h-292zM761 1395q87 0 149 29.5t94.5 77.5t32.5 107h-184q0 -27 -9 -46.5t-29 -29t-54 -9.5q-30 0 -50.5 10t-31 28.5t-10.5 46.5h-185q0 -59 34 -107t96 -77.5t147 -29.5zM908 1665
q63 0 105 17.5t68 45.5t40 59.5t19 61t5 48.5h-190q0 -14 -8 -32.5t-25 -32t-43 -13.5q-30 0 -55 13t-52.5 30.5t-61.5 30.5t-82 13q-65 0 -109 -17t-70.5 -44.5t-40 -59t-18 -60.5t-6.5 -48h192q0 14 6.5 33t23.5 32t47 13q29 0 54.5 -14t53.5 -31.5t63 -31t84 -13.5z" />
    <glyph glyph-name="uni1EB5" unicode="&#x1eb5;" horiz-adv-x="1400" 
d="M535 -13q72 0 137 12t118 32t90.5 45t55.5 53l35 -129h332v733q0 170 -70.5 271.5t-208.5 147.5t-341 46q-107 0 -207.5 -17t-183.5 -53.5t-141.5 -97.5t-81.5 -149l390 -110q16 62 50 97t80 49t96 14q68 0 116 -16.5t74 -55t26 -105.5v-35h-368q-120 0 -210 -19.5
t-149.5 -61.5t-89 -110.5t-29.5 -168.5q0 -106 31 -178t93 -114.5t151 -61t205 -18.5zM625 241q-37 0 -68 6t-53 20.5t-33.5 40t-11.5 66.5q0 42 11 68t32.5 39t53.5 18.5t72 5.5h267v-166q-20 -27 -61.5 -49.5t-95.5 -35.5t-113 -13zM682 1231q87 0 149 29.5t94.5 77.5
t32.5 107h-184q0 -27 -9 -46.5t-29 -29t-54 -9.5q-30 0 -50.5 10t-31 28.5t-10.5 46.5h-185q0 -59 34 -107t96 -77.5t147 -29.5zM829 1502q63 0 105 17.5t68 45.5t40 59.5t19 61t5 48.5h-190q0 -14 -8 -32.5t-25 -32t-43 -13.5q-30 0 -55 13t-52.5 30.5t-61.5 30.5t-82 13
q-65 0 -109 -17t-70.5 -44.5t-40 -59t-18 -60.5t-6.5 -48h192q0 14 6.5 33t23.5 32t47 13q29 0 54.5 -14t53.5 -31.5t63 -31t84 -13.5z" />
    <glyph glyph-name="uni1EB6" unicode="&#x1eb6;" horiz-adv-x="1522" 
d="M56 0h416l80 307h421l78 -307h416l-421 1351h-570zM617 571l144 545h4l144 -545h-292zM760 -309q46 0 78 32.5t32 78.5q0 45 -32 77.5t-78 32.5t-78.5 -32.5t-32.5 -77.5q0 -46 32.5 -78.5t78.5 -32.5zM761 1395q87 0 149 29.5t94.5 77.5t32.5 107h-184q0 -27 -9 -46.5
t-29 -29t-54 -9.5q-30 0 -50.5 10t-31 28.5t-10.5 46.5h-185q0 -59 34 -107t96 -77.5t147 -29.5z" />
    <glyph glyph-name="uni1EB7" unicode="&#x1eb7;" horiz-adv-x="1400" 
d="M535 -13q72 0 137 12t118 32t90.5 45t55.5 53l35 -129h332v733q0 170 -70.5 271.5t-208.5 147.5t-341 46q-107 0 -207.5 -17t-183.5 -53.5t-141.5 -97.5t-81.5 -149l390 -110q16 62 50 97t80 49t96 14q68 0 116 -16.5t74 -55t26 -105.5v-35h-368q-120 0 -210 -19.5
t-149.5 -61.5t-89 -110.5t-29.5 -168.5q0 -106 31 -178t93 -114.5t151 -61t205 -18.5zM625 241q-37 0 -68 6t-53 20.5t-33.5 40t-11.5 66.5q0 42 11 68t32.5 39t53.5 18.5t72 5.5h267v-166q-20 -27 -61.5 -49.5t-95.5 -35.5t-113 -13zM700 -341q46 0 78 32.5t32 78.5
q0 45 -32 77.5t-78 32.5t-78.5 -32.5t-32.5 -77.5q0 -46 32.5 -78.5t78.5 -32.5zM682 1231q87 0 149 29.5t94.5 77.5t32.5 107h-184q0 -27 -9 -46.5t-29 -29t-54 -9.5q-30 0 -50.5 10t-31 28.5t-10.5 46.5h-185q0 -59 34 -107t96 -77.5t147 -29.5z" />
    <glyph glyph-name="uni1EB8" unicode="&#x1eb8;" horiz-adv-x="1186" 
d="M69 0h1032v273h-627v278h578v260h-578v266h627v273h-1032v-1350zM581 -309q46 0 78 32.5t32 78.5q0 45 -32 77.5t-78 32.5t-78.5 -32.5t-32.5 -77.5q0 -46 32.5 -78.5t78.5 -32.5z" />
    <glyph glyph-name="uni1EB9" unicode="&#x1eb9;" horiz-adv-x="1396" 
d="M696 -12v256q-117 0 -188 66q-72 64 -72 282q0 217 71 284t182 67q114 0 177 -59q42 -47 55 -170h-519v-239h915q7 52 7 117q0 274 -133 441q-136 166 -503 166q-355 0 -496 -163q-142 -163 -142 -443q0 -277 142 -441q140 -164 504 -164zM696 244v-256q191 0 298 33
q106 32 185 98q79 65 103 180l-356 101q-24 -52 -49 -89q-26 -36 -69 -51q-43 -16 -112 -16zM696 -341q46 0 78 32.5t32 78.5q0 45 -32 77.5t-78 32.5t-78.5 -32.5t-32.5 -77.5q0 -46 32.5 -78.5t78.5 -32.5z" />
    <glyph glyph-name="uni1EBA" unicode="&#x1eba;" horiz-adv-x="1186" 
d="M69 0h1032v273h-627v278h578v260h-578v266h627v273h-1032v-1350zM426 1726v-118q105 0 164 -1.5t82.5 -7t23.5 -16.5q0 -9 -21 -15.5t-62 -9t-102 -2.5v-148h138v57q43 0 85 7t76 22t54.5 40.5t20.5 61.5q0 52 -46.5 80t-147 39t-265.5 11z" />
    <glyph glyph-name="uni1EBB" unicode="&#x1ebb;" horiz-adv-x="1396" 
d="M696 -12v256q-117 0 -188 66q-72 64 -72 282q0 217 71 284t182 67q114 0 177 -59q42 -47 55 -170h-519v-239h915q7 52 7 117q0 274 -133 441q-136 166 -503 166q-355 0 -496 -163q-142 -163 -142 -443q0 -277 142 -441q140 -164 504 -164zM696 244v-256q191 0 298 33
q106 32 185 98q79 65 103 180l-356 101q-24 -52 -49 -89q-26 -36 -69 -51q-43 -16 -112 -16zM526 1562v-118q105 0 164 -1.5t82.5 -7t23.5 -16.5q0 -9 -21 -15.5t-62 -9t-102 -2.5v-148h138v57q43 0 85 7t76 22t54.5 40.5t20.5 61.5q0 52 -46.5 80t-147 39t-265.5 11z" />
    <glyph glyph-name="uni1EBC" unicode="&#x1ebc;" horiz-adv-x="1186" 
d="M69 0h1032v273h-627v278h578v260h-578v266h627v273h-1032v-1350zM728 1406q63 0 105 17.5t68 45.5t40 59.5t19 61t5 48.5h-190q0 -14 -8 -32.5t-25 -32t-43 -13.5q-30 0 -55 13t-52.5 30.5t-61.5 30.5t-82 13q-65 0 -109 -17t-70.5 -44.5t-40 -59t-18 -60.5t-6.5 -48h192
q0 14 6.5 33t23.5 32t47 13q29 0 54.5 -14t53.5 -31.5t63 -31t84 -13.5z" />
    <glyph glyph-name="uni1EBD" unicode="&#x1ebd;" horiz-adv-x="1396" 
d="M696 -12v256q-117 0 -188 66q-72 64 -72 282q0 217 71 284t182 67q114 0 177 -59q42 -47 55 -170h-519v-239h915q7 52 7 117q0 274 -133 441q-136 166 -503 166q-355 0 -496 -163q-142 -163 -142 -443q0 -277 142 -441q140 -164 504 -164zM696 244v-256q191 0 298 33
q106 32 185 98q79 65 103 180l-356 101q-24 -52 -49 -89q-26 -36 -69 -51q-43 -16 -112 -16zM837 1242q63 0 105 17.5t68 45.5t40 59.5t19 61t5 48.5h-190q0 -14 -8 -32.5t-25 -32t-43 -13.5q-30 0 -55 13t-52.5 30.5t-61.5 30.5t-82 13q-65 0 -109 -17t-70.5 -44.5t-40 -59
t-18 -60.5t-6.5 -48h192q0 14 6.5 33t23.5 32t47 13q29 0 54.5 -14t53.5 -31.5t63 -31t84 -13.5z" />
    <glyph glyph-name="uni1EBE" unicode="&#x1ebe;" horiz-adv-x="1186" 
d="M69 0h1032v273h-627v278h578v260h-578v266h627v273h-1032v-1350zM224 1413h226l129 144l128 -144h226l-229 221h-252zM799 1592h179l255 229h-265z" />
    <glyph glyph-name="uni1EBF" unicode="&#x1ebf;" horiz-adv-x="1396" 
d="M696 -12v256q-117 0 -188 66q-72 64 -72 282q0 217 71 284t182 67q114 0 177 -59q42 -47 55 -170h-519v-239h915q7 52 7 117q0 274 -133 441q-136 166 -503 166q-355 0 -496 -163q-142 -163 -142 -443q0 -277 142 -441q140 -164 504 -164zM696 244v-256q191 0 298 33
q106 32 185 98q79 65 103 180l-356 101q-24 -52 -49 -89q-26 -36 -69 -51q-43 -16 -112 -16zM334 1249h226l129 144l128 -144h226l-229 221h-252zM909 1428h179l255 229h-265z" />
    <glyph glyph-name="uni1EC0" unicode="&#x1ec0;" horiz-adv-x="1186" 
d="M69 0h1032v273h-627v278h578v260h-578v266h627v273h-1032v-1350zM224 1413h226l129 144l128 -144h226l-229 221h-252zM883 1592h179l-170 229h-265z" />
    <glyph glyph-name="uni1EC1" unicode="&#x1ec1;" horiz-adv-x="1396" 
d="M696 -12v256q-117 0 -188 66q-72 64 -72 282q0 217 71 284t182 67q114 0 177 -59q42 -47 55 -170h-519v-239h915q7 52 7 117q0 274 -133 441q-136 166 -503 166q-355 0 -496 -163q-142 -163 -142 -443q0 -277 142 -441q140 -164 504 -164zM696 244v-256q191 0 298 33
q106 32 185 98q79 65 103 180l-356 101q-24 -52 -49 -89q-26 -36 -69 -51q-43 -16 -112 -16zM334 1248h226l129 144l128 -144h226l-229 221h-252zM992 1428h179l-170 229h-265z" />
    <glyph glyph-name="uni1EC2" unicode="&#x1ec2;" horiz-adv-x="1186" 
d="M69 0h1032v273h-627v278h578v260h-578v266h627v273h-1032v-1350zM226 1403h226l129 144l128 -144h226l-229 221h-252zM417 2000v-118q105 0 164 -1.5t82.5 -7t23.5 -16.5q0 -9 -21 -15.5t-62 -9t-102 -2.5v-148h138v57q43 0 85 7t76 22t54.5 40.5t20.5 61.5
q0 52 -46.5 80t-147 39t-265.5 11z" />
    <glyph glyph-name="uni1EC3" unicode="&#x1ec3;" horiz-adv-x="1396" 
d="M696 -12v256q-117 0 -188 66q-72 64 -72 282q0 217 71 284t182 67q114 0 177 -59q42 -47 55 -170h-519v-239h915q7 52 7 117q0 274 -133 441q-136 166 -503 166q-355 0 -496 -163q-142 -163 -142 -443q0 -277 142 -441q140 -164 504 -164zM696 244v-256q191 0 298 33
q106 32 185 98q79 65 103 180l-356 101q-24 -52 -49 -89q-26 -36 -69 -51q-43 -16 -112 -16zM335 1239h226l129 144l128 -144h226l-229 221h-252zM526 1836v-118q105 0 164 -1.5t82.5 -7t23.5 -16.5q0 -9 -21 -15.5t-62 -9t-102 -2.5v-148h138v57q43 0 85 7t76 22t54.5 40.5
t20.5 61.5q0 52 -46.5 80t-147 39t-265.5 11z" />
    <glyph glyph-name="uni1EC4" unicode="&#x1ec4;" horiz-adv-x="1186" 
d="M69 0h1032v273h-627v278h578v260h-578v266h627v273h-1032v-1350zM226 1403h226l129 144l128 -144h226l-229 221h-252zM728 1680q63 0 105 17.5t68 45.5t40 59.5t19 61t5 48.5h-190q0 -14 -8 -32.5t-25 -32t-43 -13.5q-30 0 -55 13t-52.5 30.5t-61.5 30.5t-82 13
q-65 0 -109 -17t-70.5 -44.5t-40 -59t-18 -60.5t-6.5 -48h192q0 14 6.5 33t23.5 32t47 13q29 0 54.5 -14t53.5 -31.5t63 -31t84 -13.5z" />
    <glyph glyph-name="uni1EC5" unicode="&#x1ec5;" horiz-adv-x="1396" 
d="M696 -12v256q-117 0 -188 66q-72 64 -72 282q0 217 71 284t182 67q114 0 177 -59q42 -47 55 -170h-519v-239h915q7 52 7 117q0 274 -133 441q-136 166 -503 166q-355 0 -496 -163q-142 -163 -142 -443q0 -277 142 -441q140 -164 504 -164zM696 244v-256q191 0 298 33
q106 32 185 98q79 65 103 180l-356 101q-24 -52 -49 -89q-26 -36 -69 -51q-43 -16 -112 -16zM335 1239h226l129 144l128 -144h226l-229 221h-252zM837 1516q63 0 105 17.5t68 45.5t40 59.5t19 61t5 48.5h-190q0 -14 -8 -32.5t-25 -32t-43 -13.5q-30 0 -55 13t-52.5 30.5
t-61.5 30.5t-82 13q-65 0 -109 -17t-70.5 -44.5t-40 -59t-18 -60.5t-6.5 -48h192q0 14 6.5 33t23.5 32t47 13q29 0 54.5 -14t53.5 -31.5t63 -31t84 -13.5z" />
    <glyph glyph-name="uni1EC6" unicode="&#x1ec6;" horiz-adv-x="1186" 
d="M69 0h1032v273h-627v278h578v260h-578v266h627v273h-1032v-1350zM581 -309q46 0 78 32.5t32 78.5q0 45 -32 77.5t-78 32.5t-78.5 -32.5t-32.5 -77.5q0 -46 32.5 -78.5t78.5 -32.5zM226 1403h226l129 144l128 -144h226l-229 221h-252z" />
    <glyph glyph-name="uni1EC7" unicode="&#x1ec7;" horiz-adv-x="1396" 
d="M696 -12v256q-117 0 -188 66q-72 64 -72 282q0 217 71 284t182 67q114 0 177 -59q42 -47 55 -170h-519v-239h915q7 52 7 117q0 274 -133 441q-136 166 -503 166q-355 0 -496 -163q-142 -163 -142 -443q0 -277 142 -441q140 -164 504 -164zM696 244v-256q191 0 298 33
q106 32 185 98q79 65 103 180l-356 101q-24 -52 -49 -89q-26 -36 -69 -51q-43 -16 -112 -16zM696 -341q46 0 78 32.5t32 78.5q0 45 -32 77.5t-78 32.5t-78.5 -32.5t-32.5 -77.5q0 -46 32.5 -78.5t78.5 -32.5zM335 1239h226l129 144l128 -144h226l-229 221h-252z" />
    <glyph glyph-name="uni1EC8" unicode="&#x1ec8;" horiz-adv-x="663" 
d="M123 0h402v1350h-402v-1350zM170 1726v-118q105 0 164 -1.5t82.5 -7t23.5 -16.5q0 -9 -21 -15.5t-62 -9t-102 -2.5v-148h138v57q43 0 85 7t76 22t54.5 40.5t20.5 61.5q0 52 -46.5 80t-147 39t-265.5 11z" />
    <glyph glyph-name="uni1EC9" unicode="&#x1ec9;" horiz-adv-x="607" 
d="M89 0h402v1186h-402v-1186zM127 1562v-118q105 0 164 -1.5t82.5 -7t23.5 -16.5q0 -9 -21 -15.5t-62 -9t-102 -2.5v-148h138v57q43 0 85 7t76 22t54.5 40.5t20.5 61.5q0 52 -46.5 80t-147 39t-265.5 11z" />
    <glyph glyph-name="uni1ECA" unicode="&#x1eca;" horiz-adv-x="663" 
d="M123 0h402v1350h-402v-1350zM325 -309q46 0 78 32.5t32 78.5q0 45 -32 77.5t-78 32.5t-78.5 -32.5t-32.5 -77.5q0 -46 32.5 -78.5t78.5 -32.5z" />
    <glyph glyph-name="uni1ECB" unicode="&#x1ecb;" horiz-adv-x="627" 
d="M103 0h401v1186h-401v-1186zM103 1557v-261h401v261h-401zM321 -341q46 0 78 32.5t32 78.5q0 45 -32 77.5t-78 32.5t-78.5 -32.5t-32.5 -77.5q0 -46 32.5 -78.5t78.5 -32.5z" />
    <glyph glyph-name="uni1ECC" unicode="&#x1ecc;" horiz-adv-x="1459" 
d="M726 -12q387 0 531.5 178t144.5 509t-144.5 509.5t-531.5 178.5t-531 -178t-144 -510q0 -331 144.5 -509t530.5 -178zM726 262q-124 0 -198.5 64.5t-74.5 348.5q0 289 74.5 351.5t198.5 62.5q125 0 199 -62.5t74 -351.5q0 -284 -74 -348.5t-199 -64.5zM729 -309
q46 0 78 32.5t32 78.5q0 45 -32 77.5t-78 32.5t-78.5 -32.5t-32.5 -77.5q0 -46 32.5 -78.5t78.5 -32.5z" />
    <glyph glyph-name="uni1ECD" unicode="&#x1ecd;" horiz-adv-x="1400" 
d="M691 -9q355 0 498 161.5t143 445.5q0 286 -143 444t-498 158q-353 0 -496.5 -158t-143.5 -444q0 -284 143.5 -445.5t496.5 -161.5zM691 260q-106 0 -173.5 62.5t-67.5 274.5q0 211 67.5 272.5t173.5 61.5q107 0 174.5 -61.5t67.5 -272.5q0 -212 -67.5 -274.5
t-174.5 -62.5zM698 -341q46 0 78 32.5t32 78.5q0 45 -32 77.5t-78 32.5t-78.5 -32.5t-32.5 -77.5q0 -46 32.5 -78.5t78.5 -32.5z" />
    <glyph glyph-name="uni1ECE" unicode="&#x1ece;" horiz-adv-x="1459" 
d="M726 -12q387 0 531.5 178t144.5 509t-144.5 509.5t-531.5 178.5t-531 -178t-144 -510q0 -331 144.5 -509t530.5 -178zM726 262q-124 0 -198.5 64.5t-74.5 348.5q0 289 74.5 351.5t198.5 62.5q125 0 199 -62.5t74 -351.5q0 -284 -74 -348.5t-199 -64.5zM574 1726v-118
q105 0 164 -1.5t82.5 -7t23.5 -16.5q0 -9 -21 -15.5t-62 -9t-102 -2.5v-148h138v57q43 0 85 7t76 22t54.5 40.5t20.5 61.5q0 52 -46.5 80t-147 39t-265.5 11z" />
    <glyph glyph-name="uni1ECF" unicode="&#x1ecf;" horiz-adv-x="1400" 
d="M691 -9q355 0 498 161.5t143 445.5q0 286 -143 444t-498 158q-353 0 -496.5 -158t-143.5 -444q0 -284 143.5 -445.5t496.5 -161.5zM691 260q-106 0 -173.5 62.5t-67.5 274.5q0 211 67.5 272.5t173.5 61.5q107 0 174.5 -61.5t67.5 -272.5q0 -212 -67.5 -274.5
t-174.5 -62.5zM528 1563v-118q105 0 164 -1.5t82.5 -7t23.5 -16.5q0 -9 -21 -15.5t-62 -9t-102 -2.5v-148h138v57q43 0 85 7t76 22t54.5 40.5t20.5 61.5q0 52 -46.5 80t-147 39t-265.5 11z" />
    <glyph glyph-name="uni1ED0" unicode="&#x1ed0;" horiz-adv-x="1459" 
d="M726 -12q387 0 531.5 178t144.5 509t-144.5 509.5t-531.5 178.5t-531 -178t-144 -510q0 -331 144.5 -509t530.5 -178zM726 262q-124 0 -198.5 64.5t-74.5 348.5q0 289 74.5 351.5t198.5 62.5q125 0 199 -62.5t74 -351.5q0 -284 -74 -348.5t-199 -64.5zM373 1413h226
l129 144l128 -144h226l-229 221h-252zM947 1592h179l255 229h-265z" />
    <glyph glyph-name="uni1ED1" unicode="&#x1ed1;" horiz-adv-x="1400" 
d="M691 -9q355 0 498 161.5t143 445.5q0 286 -143 444t-498 158q-353 0 -496.5 -158t-143.5 -444q0 -284 143.5 -445.5t496.5 -161.5zM691 260q-106 0 -173.5 62.5t-67.5 274.5q0 211 67.5 272.5t173.5 61.5q107 0 174.5 -61.5t67.5 -272.5q0 -212 -67.5 -274.5
t-174.5 -62.5zM335 1250h226l129 144l128 -144h226l-229 221h-252zM910 1429h179l255 229h-265z" />
    <glyph glyph-name="uni1ED2" unicode="&#x1ed2;" horiz-adv-x="1459" 
d="M726 -12q387 0 531.5 178t144.5 509t-144.5 509.5t-531.5 178.5t-531 -178t-144 -510q0 -331 144.5 -509t530.5 -178zM726 262q-124 0 -198.5 64.5t-74.5 348.5q0 289 74.5 351.5t198.5 62.5q125 0 199 -62.5t74 -351.5q0 -284 -74 -348.5t-199 -64.5zM373 1413h226
l129 144l128 -144h226l-229 221h-252zM1030 1592h179l-170 229h-265z" />
    <glyph glyph-name="uni1ED3" unicode="&#x1ed3;" horiz-adv-x="1400" 
d="M691 -9q355 0 498 161.5t143 445.5q0 286 -143 444t-498 158q-353 0 -496.5 -158t-143.5 -444q0 -284 143.5 -445.5t496.5 -161.5zM691 260q-106 0 -173.5 62.5t-67.5 274.5q0 211 67.5 272.5t173.5 61.5q107 0 174.5 -61.5t67.5 -272.5q0 -212 -67.5 -274.5
t-174.5 -62.5zM335 1249h226l129 144l128 -144h226l-229 221h-252zM994 1429h179l-170 229h-265z" />
    <glyph glyph-name="uni1ED4" unicode="&#x1ed4;" horiz-adv-x="1459" 
d="M726 -12q387 0 531.5 178t144.5 509t-144.5 509.5t-531.5 178.5t-531 -178t-144 -510q0 -331 144.5 -509t530.5 -178zM726 262q-124 0 -198.5 64.5t-74.5 348.5q0 289 74.5 351.5t198.5 62.5q125 0 199 -62.5t74 -351.5q0 -284 -74 -348.5t-199 -64.5zM375 1403h226
l129 144l128 -144h226l-229 221h-252zM564 2000v-118q105 0 164 -1.5t82.5 -7t23.5 -16.5q0 -9 -21 -15.5t-62 -9t-102 -2.5v-148h138v57q43 0 85 7t76 22t54.5 40.5t20.5 61.5q0 52 -46.5 80t-147 39t-265.5 11z" />
    <glyph glyph-name="uni1ED5" unicode="&#x1ed5;" horiz-adv-x="1400" 
d="M691 -9q355 0 498 161.5t143 445.5q0 286 -143 444t-498 158q-353 0 -496.5 -158t-143.5 -444q0 -284 143.5 -445.5t496.5 -161.5zM691 260q-106 0 -173.5 62.5t-67.5 274.5q0 211 67.5 272.5t173.5 61.5q107 0 174.5 -61.5t67.5 -272.5q0 -212 -67.5 -274.5
t-174.5 -62.5zM337 1240h226l129 144l128 -144h226l-229 221h-252zM528 1837v-118q105 0 164 -1.5t82.5 -7t23.5 -16.5q0 -9 -21 -15.5t-62 -9t-102 -2.5v-148h138v57q43 0 85 7t76 22t54.5 40.5t20.5 61.5q0 52 -46.5 80t-147 39t-265.5 11z" />
    <glyph glyph-name="uni1ED6" unicode="&#x1ed6;" horiz-adv-x="1459" 
d="M726 -12q387 0 531.5 178t144.5 509t-144.5 509.5t-531.5 178.5t-531 -178t-144 -510q0 -331 144.5 -509t530.5 -178zM726 262q-124 0 -198.5 64.5t-74.5 348.5q0 289 74.5 351.5t198.5 62.5q125 0 199 -62.5t74 -351.5q0 -284 -74 -348.5t-199 -64.5zM375 1403h226
l129 144l128 -144h226l-229 221h-252zM877 1680q63 0 105 17.5t68 45.5t40 59.5t19 61t5 48.5h-190q0 -14 -8 -32.5t-25 -32t-43 -13.5q-30 0 -55 13t-52.5 30.5t-61.5 30.5t-82 13q-65 0 -109 -17t-70.5 -44.5t-40 -59t-18 -60.5t-6.5 -48h192q0 14 6.5 33t23.5 32t47 13
q29 0 54.5 -14t53.5 -31.5t63 -31t84 -13.5z" />
    <glyph glyph-name="uni1ED7" unicode="&#x1ed7;" horiz-adv-x="1400" 
d="M691 -9q355 0 498 161.5t143 445.5q0 286 -143 444t-498 158q-353 0 -496.5 -158t-143.5 -444q0 -284 143.5 -445.5t496.5 -161.5zM691 260q-106 0 -173.5 62.5t-67.5 274.5q0 211 67.5 272.5t173.5 61.5q107 0 174.5 -61.5t67.5 -272.5q0 -212 -67.5 -274.5
t-174.5 -62.5zM337 1240h226l129 144l128 -144h226l-229 221h-252zM839 1517q63 0 105 17.5t68 45.5t40 59.5t19 61t5 48.5h-190q0 -14 -8 -32.5t-25 -32t-43 -13.5q-30 0 -55 13t-52.5 30.5t-61.5 30.5t-82 13q-65 0 -109 -17t-70.5 -44.5t-40 -59t-18 -60.5t-6.5 -48h192
q0 14 6.5 33t23.5 32t47 13q29 0 54.5 -14t53.5 -31.5t63 -31t84 -13.5z" />
    <glyph glyph-name="uni1ED8" unicode="&#x1ed8;" horiz-adv-x="1459" 
d="M726 -12q387 0 531.5 178t144.5 509t-144.5 509.5t-531.5 178.5t-531 -178t-144 -510q0 -331 144.5 -509t530.5 -178zM726 262q-124 0 -198.5 64.5t-74.5 348.5q0 289 74.5 351.5t198.5 62.5q125 0 199 -62.5t74 -351.5q0 -284 -74 -348.5t-199 -64.5zM729 -309
q46 0 78 32.5t32 78.5q0 45 -32 77.5t-78 32.5t-78.5 -32.5t-32.5 -77.5q0 -46 32.5 -78.5t78.5 -32.5zM375 1403h226l129 144l128 -144h226l-229 221h-252z" />
    <glyph glyph-name="uni1ED9" unicode="&#x1ed9;" horiz-adv-x="1400" 
d="M691 -9q355 0 498 161.5t143 445.5q0 286 -143 444t-498 158q-353 0 -496.5 -158t-143.5 -444q0 -284 143.5 -445.5t496.5 -161.5zM691 260q-106 0 -173.5 62.5t-67.5 274.5q0 211 67.5 272.5t173.5 61.5q107 0 174.5 -61.5t67.5 -272.5q0 -212 -67.5 -274.5
t-174.5 -62.5zM698 -341q46 0 78 32.5t32 78.5q0 45 -32 77.5t-78 32.5t-78.5 -32.5t-32.5 -77.5q0 -46 32.5 -78.5t78.5 -32.5zM337 1240h226l129 144l128 -144h226l-229 221h-252z" />
    <glyph glyph-name="uni1EDA" unicode="&#x1eda;" horiz-adv-x="1459" 
d="M726 -12q387 0 531.5 178t144.5 509t-144.5 509.5t-531.5 178.5t-531 -178t-144 -510q0 -331 144.5 -509t530.5 -178zM726 262q-124 0 -198.5 64.5t-74.5 348.5q0 289 74.5 351.5t198.5 62.5q125 0 199 -62.5t74 -351.5q0 -284 -74 -348.5t-199 -64.5zM1190 1207v-128
q144 0 247.5 35t160.5 104.5t57 173.5h-226q0 -66 -24 -106.5t-76.5 -59.5t-138.5 -19zM511 1392h179l255 229h-265z" />
    <glyph glyph-name="uni1EDB" unicode="&#x1edb;" horiz-adv-x="1400" 
d="M691 -9q355 0 498 161.5t143 445.5q0 286 -143 444t-498 158q-353 0 -496.5 -158t-143.5 -444q0 -284 143.5 -445.5t496.5 -161.5zM691 260q-106 0 -173.5 62.5t-67.5 274.5q0 211 67.5 272.5t173.5 61.5q107 0 174.5 -61.5t67.5 -272.5q0 -212 -67.5 -274.5
t-174.5 -62.5zM1148 1057v-128q144 0 247.5 35t160.5 104.5t57 173.5h-226q0 -66 -24 -106.5t-76.5 -59.5t-138.5 -19zM474 1228h179l255 229h-265z" />
    <glyph glyph-name="uni1EDC" unicode="&#x1edc;" horiz-adv-x="1459" 
d="M726 -12q387 0 531.5 178t144.5 509t-144.5 509.5t-531.5 178.5t-531 -178t-144 -510q0 -331 144.5 -509t530.5 -178zM726 262q-124 0 -198.5 64.5t-74.5 348.5q0 289 74.5 351.5t198.5 62.5q125 0 199 -62.5t74 -351.5q0 -284 -74 -348.5t-199 -64.5zM1190 1207v-128
q144 0 247.5 35t160.5 104.5t57 173.5h-226q0 -66 -24 -106.5t-76.5 -59.5t-138.5 -19zM767 1402h179l-170 229h-265z" />
    <glyph glyph-name="uni1EDD" unicode="&#x1edd;" horiz-adv-x="1400" 
d="M691 -9q355 0 498 161.5t143 445.5q0 286 -143 444t-498 158q-353 0 -496.5 -158t-143.5 -444q0 -284 143.5 -445.5t496.5 -161.5zM691 260q-106 0 -173.5 62.5t-67.5 274.5q0 211 67.5 272.5t173.5 61.5q107 0 174.5 -61.5t67.5 -272.5q0 -212 -67.5 -274.5
t-174.5 -62.5zM1148 1057v-128q144 0 247.5 35t160.5 104.5t57 173.5h-226q0 -66 -24 -106.5t-76.5 -59.5t-138.5 -19zM731 1231h179l-170 229h-265z" />
    <glyph glyph-name="uni1EDE" unicode="&#x1ede;" horiz-adv-x="1459" 
d="M726 -12q387 0 531.5 178t144.5 509t-144.5 509.5t-531.5 178.5t-531 -178t-144 -510q0 -331 144.5 -509t530.5 -178zM726 262q-124 0 -198.5 64.5t-74.5 348.5q0 289 74.5 351.5t198.5 62.5q125 0 199 -62.5t74 -351.5q0 -284 -74 -348.5t-199 -64.5zM1190 1207v-128
q144 0 247.5 35t160.5 104.5t57 173.5h-226q0 -66 -24 -106.5t-76.5 -59.5t-138.5 -19zM574 1726v-118q105 0 164 -1.5t82.5 -7t23.5 -16.5q0 -9 -21 -15.5t-62 -9t-102 -2.5v-148h138v57q43 0 85 7t76 22t54.5 40.5t20.5 61.5q0 52 -46.5 80t-147 39t-265.5 11z" />
    <glyph glyph-name="uni1EDF" unicode="&#x1edf;" horiz-adv-x="1400" 
d="M691 -9q355 0 498 161.5t143 445.5q0 286 -143 444t-498 158q-353 0 -496.5 -158t-143.5 -444q0 -284 143.5 -445.5t496.5 -161.5zM691 260q-106 0 -173.5 62.5t-67.5 274.5q0 211 67.5 272.5t173.5 61.5q107 0 174.5 -61.5t67.5 -272.5q0 -212 -67.5 -274.5
t-174.5 -62.5zM1148 1057v-128q144 0 247.5 35t160.5 104.5t57 173.5h-226q0 -66 -24 -106.5t-76.5 -59.5t-138.5 -19zM528 1563v-118q105 0 164 -1.5t82.5 -7t23.5 -16.5q0 -9 -21 -15.5t-62 -9t-102 -2.5v-148h138v57q43 0 85 7t76 22t54.5 40.5t20.5 61.5q0 52 -46.5 80
t-147 39t-265.5 11z" />
    <glyph glyph-name="uni1EE0" unicode="&#x1ee0;" horiz-adv-x="1459" 
d="M726 -12q387 0 531.5 178t144.5 509t-144.5 509.5t-531.5 178.5t-531 -178t-144 -510q0 -331 144.5 -509t530.5 -178zM726 262q-124 0 -198.5 64.5t-74.5 348.5q0 289 74.5 351.5t198.5 62.5q125 0 199 -62.5t74 -351.5q0 -284 -74 -348.5t-199 -64.5zM1190 1207v-128
q144 0 247.5 35t160.5 104.5t57 173.5h-226q0 -66 -24 -106.5t-76.5 -59.5t-138.5 -19zM877 1406q63 0 105 17.5t68 45.5t40 59.5t19 61t5 48.5h-190q0 -14 -8 -32.5t-25 -32t-43 -13.5q-30 0 -55 13t-52.5 30.5t-61.5 30.5t-82 13q-65 0 -109 -17t-70.5 -44.5t-40 -59
t-18 -60.5t-6.5 -48h192q0 14 6.5 33t23.5 32t47 13q29 0 54.5 -14t53.5 -31.5t63 -31t84 -13.5z" />
    <glyph glyph-name="uni1EE1" unicode="&#x1ee1;" horiz-adv-x="1400" 
d="M691 -9q355 0 498 161.5t143 445.5q0 286 -143 444t-498 158q-353 0 -496.5 -158t-143.5 -444q0 -284 143.5 -445.5t496.5 -161.5zM691 260q-106 0 -173.5 62.5t-67.5 274.5q0 211 67.5 272.5t173.5 61.5q107 0 174.5 -61.5t67.5 -272.5q0 -212 -67.5 -274.5
t-174.5 -62.5zM1148 1057v-128q144 0 247.5 35t160.5 104.5t57 173.5h-226q0 -66 -24 -106.5t-76.5 -59.5t-138.5 -19zM839 1243q63 0 105 17.5t68 45.5t40 59.5t19 61t5 48.5h-190q0 -14 -8 -32.5t-25 -32t-43 -13.5q-30 0 -55 13t-52.5 30.5t-61.5 30.5t-82 13
q-65 0 -109 -17t-70.5 -44.5t-40 -59t-18 -60.5t-6.5 -48h192q0 14 6.5 33t23.5 32t47 13q29 0 54.5 -14t53.5 -31.5t63 -31t84 -13.5z" />
    <glyph glyph-name="uni1EE2" unicode="&#x1ee2;" horiz-adv-x="1459" 
d="M726 -12q387 0 531.5 178t144.5 509t-144.5 509.5t-531.5 178.5t-531 -178t-144 -510q0 -331 144.5 -509t530.5 -178zM726 262q-124 0 -198.5 64.5t-74.5 348.5q0 289 74.5 351.5t198.5 62.5q125 0 199 -62.5t74 -351.5q0 -284 -74 -348.5t-199 -64.5zM1190 1207v-128
q144 0 247.5 35t160.5 104.5t57 173.5h-226q0 -66 -24 -106.5t-76.5 -59.5t-138.5 -19zM729 -309q46 0 78 32.5t32 78.5q0 45 -32 77.5t-78 32.5t-78.5 -32.5t-32.5 -77.5q0 -46 32.5 -78.5t78.5 -32.5z" />
    <glyph glyph-name="uni1EE3" unicode="&#x1ee3;" horiz-adv-x="1400" 
d="M691 -9q355 0 498 161.5t143 445.5q0 286 -143 444t-498 158q-353 0 -496.5 -158t-143.5 -444q0 -284 143.5 -445.5t496.5 -161.5zM691 260q-106 0 -173.5 62.5t-67.5 274.5q0 211 67.5 272.5t173.5 61.5q107 0 174.5 -61.5t67.5 -272.5q0 -212 -67.5 -274.5
t-174.5 -62.5zM1148 1057v-128q144 0 247.5 35t160.5 104.5t57 173.5h-226q0 -66 -24 -106.5t-76.5 -59.5t-138.5 -19zM698 -341q46 0 78 32.5t32 78.5q0 45 -32 77.5t-78 32.5t-78.5 -32.5t-32.5 -77.5q0 -46 32.5 -78.5t78.5 -32.5z" />
    </font>
</defs>
</svg>
