<?xml version="1.0" standalone="no"?>
<!DOCTYPE svg PUBLIC "-//W3C//DTD SVG 1.1//EN" "http://www.w3.org/Graphics/SVG/1.1/DTD/svg11.dtd" >
<svg xmlns="http://www.w3.org/2000/svg" xmlns:xlink="http://www.w3.org/1999/xlink" version="1.1">
<metadata>
Created by FontForge 20201107 at Wed Mar  8 16:58:27 2023
 By 
Copyright 2020 The Anybody Project Authors (https://github.com/Etcetera-Type-Co/Anybody)
</metadata>
<defs>
<font id="Anybody-Black" horiz-adv-x="0" >
  <font-face 
    font-family="Anybody Black"
    font-weight="900"
    font-stretch="normal"
    units-per-em="2000"
    panose-1="0 0 0 0 0 0 0 0 0 0"
    ascent="1600"
    descent="-400"
    x-height="1186"
    cap-height="1350"
    bbox="-360 -586 3097 2065"
    underline-thickness="120"
    underline-position="-270"
    unicode-range="U+000D-FB02"
  />
<missing-glyph horiz-adv-x="565" 
d="M100 146h348v1042h-348v-1042zM202 226l170 172l-20 20l-170 -172zM352 226l20 20l-170 172l-20 -20zM202 564l170 172l-20 20l-170 -172zM352 564l20 20l-170 172l-20 -20zM126 172v990h296v-990h-296zM202 902l170 172l-20 20l-170 -172zM352 902l20 20l-170 172
l-20 -20z" />
    <glyph glyph-name="fi" unicode="fi" horiz-adv-x="1751" 
d="M263 0h451v880h304v306h-304v12q0 53 53 70.5t216 17.5h34v294h-47q-352 0 -529.5 -89t-177.5 -292v-13h-242v-306h242v-880zM1184 0h453v1186h-453v-1186zM1184 1570v-283h453v283h-453z" />
    <glyph glyph-name="fl" unicode="fl" horiz-adv-x="1738" 
d="M263 0h451v880h304v306h-304v12q0 53 53 70.5t216 17.5h34v294h-47q-352 0 -529.5 -89t-177.5 -292v-13h-242v-306h242v-880zM1175 0h452v1570h-452v-1570z" />
    <glyph glyph-name="f_f" unicode="ff" horiz-adv-x="2126" 
d="M263 0h451v880h304v306h-304v12q0 53 53 70.5t216 17.5h34v294h-47q-352 0 -529.5 -89t-177.5 -292v-13h-242v-306h242v-880zM1301 0h451v880h304v306h-304v12q0 53 53 70.5t216 17.5h34v294h-47q-352 0 -529.5 -89t-177.5 -292v-13h-242v-306h242v-880z" />
    <glyph glyph-name="f_f_i" unicode="ffi" horiz-adv-x="2789" 
d="M263 0h451v880h304v306h-304v12q0 53 53 70.5t216 17.5h34v294h-47q-352 0 -529.5 -89t-177.5 -292v-13h-242v-306h242v-880zM1301 0h451v880h304v306h-304v12q0 53 53 70.5t216 17.5h34v294h-47q-352 0 -529.5 -89t-177.5 -292v-13h-242v-306h242v-880zM2222 0h453v1186
h-453v-1186zM2222 1570v-283h453v283h-453z" />
    <glyph glyph-name="f_f_l" unicode="ffl" horiz-adv-x="2776" 
d="M263 0h451v880h304v306h-304v12q0 53 53 70.5t216 17.5h34v294h-47q-352 0 -529.5 -89t-177.5 -292v-13h-242v-306h242v-880zM1301 0h451v880h304v306h-304v12q0 53 53 70.5t216 17.5h34v294h-47q-352 0 -529.5 -89t-177.5 -292v-13h-242v-306h242v-880zM2213 0h452v1570
h-452v-1570z" />
    <glyph glyph-name=".notdef" horiz-adv-x="565" 
d="M100 146h348v1042h-348v-1042zM202 226l170 172l-20 20l-170 -172zM352 226l20 20l-170 172l-20 -20zM202 564l170 172l-20 20l-170 -172zM352 564l20 20l-170 172l-20 -20zM126 172v990h296v-990h-296zM202 902l170 172l-20 20l-170 -172zM352 902l20 20l-170 172
l-20 -20z" />
    <glyph glyph-name=".null" 
 />
    <glyph glyph-name="nonmarkingreturn" horiz-adv-x="666" 
 />
    <glyph glyph-name="CR" unicode="&#xd;" horiz-adv-x="450" 
 />
    <glyph glyph-name="space" unicode=" " horiz-adv-x="525" 
 />
    <glyph glyph-name="exclam" unicode="!" horiz-adv-x="614" 
d="M92 494h436l43 856h-523zM76 -22h448v318h-448v-318z" />
    <glyph glyph-name="quotedbl" unicode="&#x22;" horiz-adv-x="687" 
d="M387 744h252v606h-252v-606zM47 744h262v606h-262v-606z" />
    <glyph glyph-name="numbersign" unicode="#" horiz-adv-x="1702" 
d="M948 0h340l192 1350h-340zM44 286h1575v262h-1575v-262zM213 0h339l192 1350h-340zM76 798h1575v264h-1575v-264z" />
    <glyph glyph-name="dollar" unicode="$" horiz-adv-x="1402" 
d="M582 1186h266v195h-266v-195zM583 -30h267v189h-267v-189zM748 85q296 0 461.5 88.5t165.5 314.5q0 183 -143 257t-358 96q-156 16 -255 25t-99 60q0 38 40 57t126 19q95 0 170 -40t102 -97l395 145q-55 156 -229 218t-432 62q-269 0 -442.5 -85t-173.5 -280
q0 -189 131 -276.5t353 -111.5q164 -18 267 -26t103 -58q0 -39 -49 -58t-126 -19q-112 0 -189.5 39.5t-104.5 98.5l-394 -147q61 -151 245 -216.5t436 -65.5z" />
    <glyph glyph-name="percent" unicode="%" horiz-adv-x="1648" 
d="M78 0h307l1173 1348h-305zM458 826q178 0 271 54.5t93 177.5v77q0 125 -93 180t-271 55q-179 0 -273 -55.5t-94 -179.5v-77q0 -122 94.5 -177t272.5 -55zM456 996q-42 0 -61 12t-19 45v88q0 33 19 45.5t61 12.5q41 0 61 -12.5t20 -45.5v-88q0 -33 -20 -45t-61 -12z
M1212 -8q178 0 271 54.5t93 177.5v77q0 125 -93 180t-271 55q-179 0 -273 -55.5t-94 -179.5v-77q0 -122 94.5 -177t272.5 -55zM1210 162q-42 0 -61 12t-19 45v88q0 33 19 45.5t61 12.5q41 0 61 -12.5t20 -45.5v-88q0 -33 -20 -45t-61 -12z" />
    <glyph glyph-name="ampersand" unicode="&#x26;" horiz-adv-x="1758" 
d="M694 -13q377 0 682.5 192t305.5 506h-403q0 -190 -184 -288.5t-379 -98.5q-139 0 -190.5 17.5t-51.5 65.5q0 51 66 86t268 109q200 80 350.5 172.5t150.5 254.5q0 182 -166.5 270.5t-417.5 88.5q-232 0 -402 -91t-170 -271q0 -134 117 -250.5t212 -191.5l726 -558h513
l-919 770q-105 82 -161.5 131.5t-56.5 98.5q0 37 36.5 53t108.5 16q70 0 112 -15.5t42 -52.5q0 -49 -67 -92t-216 -79q-162 -69 -368.5 -177.5t-206.5 -297.5q0 -184 172.5 -276t496.5 -92z" />
    <glyph glyph-name="quotesingle" unicode="'" horiz-adv-x="424" 
d="M51 784h322v566h-322v-566z" />
    <glyph glyph-name="parenleft" unicode="(" horiz-adv-x="824" 
d="M420 -527l333 190q-24 28 -60 78t-75 123t-73.5 168.5t-57 215t-22.5 262.5q0 144 22.5 265.5t57 219t73.5 172.5t75 126.5t60 78.5l-333 189q-24 -24 -67 -79t-92.5 -143t-94 -209t-73 -275.5t-28.5 -344.5q0 -189 28.5 -343t73 -272t94 -203.5t92.5 -140t67 -78.5z" />
    <glyph glyph-name="parenright" unicode=")" horiz-adv-x="836" 
d="M396 -527q25 24 68 78.5t92.5 140t93.5 203.5t72.5 272t28.5 343q0 190 -28.5 344.5t-72.5 275.5t-93.5 209t-92.5 143t-68 79l-331 -189q22 -27 58 -78.5t75.5 -126.5t74.5 -172.5t56.5 -219t21.5 -265.5q0 -143 -21.5 -262.5t-56.5 -215t-74.5 -168.5t-75.5 -123
t-58 -78z" />
    <glyph glyph-name="asterisk" unicode="*" horiz-adv-x="665" 
d="M529 1155l70 119l-476 273l-70 -119zM123 1155l476 273l-70 119l-476 -273zM257 1120h138v461h-138v-461z" />
    <glyph glyph-name="plus" unicode="+" horiz-adv-x="659" 
d="M199 170h288v176h166v268h-166v177h-288v-177h-168v-268h168v-176z" />
    <glyph glyph-name="comma" unicode="," horiz-adv-x="700" 
d="M39 -317h254l243 512h-408z" />
    <glyph glyph-name="hyphen" unicode="-" horiz-adv-x="989" 
d="M54 331h864v294h-864v-294z" />
    <glyph glyph-name="period" unicode="." horiz-adv-x="561" 
d="M60 300v-300h423v300h-423z" />
    <glyph glyph-name="slash" unicode="/" horiz-adv-x="1117" 
d="M21 0h383l692 1348h-386z" />
    <glyph glyph-name="zero" unicode="0" horiz-adv-x="1343" 
d="M661 -16q308 0 458 99.5t150 316.5v546q0 217 -150 316.5t-458 99.5t-458.5 -99.5t-150.5 -316.5v-546q0 -217 149.5 -316.5t459.5 -99.5zM661 292q-86 0 -120.5 29.5t-34.5 97.5v509q0 68 34.5 97t120.5 29q82 0 117.5 -29.5t35.5 -96.5v-509q0 -67 -36 -97t-117 -30z
" />
    <glyph glyph-name="one" unicode="1" horiz-adv-x="1268" 
d="M62 0h1155v308h-345v1044h-376l-440 -137v-328l365 101v-680h-359v-308z" />
    <glyph glyph-name="two" unicode="2" horiz-adv-x="1376" 
d="M72 0h1227v308h-750q0 26 75 55.5t234 92.5q193 89 318 196t125 277q0 143 -98 288t-501 145q-392 0 -513 -152t-121 -327h451q0 111 49 141t134 30q71 0 107 -24t36 -108q0 -61 -43.5 -96.5t-267.5 -117.5q-233 -91 -347.5 -193.5t-114.5 -252.5v-262z" />
    <glyph glyph-name="three" unicode="3" horiz-adv-x="1367" 
d="M683 -16q401 0 511 125.5t110 284.5q0 113 -69.5 196t-239.5 89q170 6 239.5 91.5t69.5 199.5q0 157 -110 274.5t-510 117.5q-385 0 -505 -149.5t-120 -339.5h450q0 133 47 160t130 27q78 0 123 -20.5t45 -140.5q0 -49 -51.5 -68t-186.5 -19v-278q135 0 186.5 -18
t51.5 -67q0 -116 -45 -139.5t-123 -23.5q-80 0 -128.5 27t-48.5 152h-450q0 -192 120 -336.5t504 -144.5z" />
    <glyph glyph-name="four" unicode="4" horiz-adv-x="1356" 
d="M694 0h450v260h162v289h-162v801h-667l-435 -795v-295h652v-260zM491 549l200 484h3v-484h-203z" />
    <glyph glyph-name="five" unicode="5" horiz-adv-x="1355" 
d="M640 -14q387 0 513 138t126 355q0 190 -99 309.5t-342 119.5q-207 0 -384.5 -80.5t-199.5 -260.5l248 -9q5 37 46.5 57t114.5 20q75 0 115.5 -26.5t40.5 -137.5q0 -132 -40 -159.5t-116 -27.5q-74 0 -116 19.5t-45 128.5h-451q0 -174 125.5 -310t463.5 -136zM51 558h451
v486h738v306h-1189v-792z" />
    <glyph glyph-name="six" unicode="6" horiz-adv-x="1368" 
d="M652 -14q416 0 528 148t112 345q0 187 -96.5 304t-356.5 117q-225 0 -383 -104t-168 -182l211 -94q13 50 58.5 81.5t122.5 31.5q79 0 116 -28t37 -151q0 -113 -37 -142t-116 -29q-77 0 -127.5 40t-50.5 291q0 339 52.5 396.5t135.5 57.5q62 0 90.5 -23.5t34.5 -97.5h453
q0 132 -104 273.5t-474 141.5q-415 0 -528 -193.5t-113 -507.5q0 -318 102 -496.5t501 -178.5z" />
    <glyph glyph-name="seven" unicode="7" horiz-adv-x="1225" 
d="M247 0h489q-2 301 128.5 561.5t339.5 483.5v305h-1185v-307h702l-1 -5q-202 -177 -338 -451t-135 -587z" />
    <glyph glyph-name="eight" unicode="8" horiz-adv-x="1350" 
d="M674 -16q358 0 482.5 143t124.5 320q0 179 -166.5 273t-440.5 94t-441.5 -93.5t-167.5 -273.5q0 -177 114.5 -320t494.5 -143zM673 286q-79 0 -118.5 27.5t-39.5 119.5q0 100 41.5 125.5t116.5 25.5q76 0 117 -25.5t41 -125.5q0 -92 -39.5 -119.5t-118.5 -27.5zM674 623
q279 0 433 80t154 254q0 149 -121.5 277t-465.5 128q-364 0 -476.5 -128t-112.5 -277q0 -175 155 -254.5t434 -79.5zM673 843q-76 0 -114.5 22t-38.5 100q0 55 39.5 78.5t113.5 23.5t113.5 -23.5t39.5 -78.5q0 -78 -38.5 -100t-114.5 -22z" />
    <glyph glyph-name="nine" unicode="9" horiz-adv-x="1374" 
d="M673 -14q415 0 528 203.5t113 497.5q0 298 -102 486.5t-496 188.5q-421 0 -534 -138t-113 -325t97.5 -319t357.5 -132q225 0 383 104t168 182l-211 94q-8 -50 -56 -76.5t-125 -26.5q-79 0 -120 27t-41 145q0 108 45.5 135.5t124.5 27.5q77 0 123 -37.5t46 -288.5
q0 -344 -50 -399t-138 -55q-62 0 -90.5 23.5t-34.5 87.5h-453q0 -104 95.5 -254.5t482.5 -150.5z" />
    <glyph glyph-name="colon" unicode=":" horiz-adv-x="572" 
d="M60 300v-300h423v300h-423zM60 1069v-300h423v300h-423z" />
    <glyph glyph-name="semicolon" unicode=";" horiz-adv-x="674" 
d="M114 1071v-300h423v300h-423zM21 -202h254l243 512h-408z" />
    <glyph glyph-name="less" unicode="&#x3c;" horiz-adv-x="926" 
d="M837 -10v386l-481 111l481 110v385l-784 -335v-322z" />
    <glyph glyph-name="equal" unicode="=" horiz-adv-x="660" 
d="M21 584h618v262h-618v-262zM21 123h618v261h-618v-261z" />
    <glyph glyph-name="greater" unicode="&#x3e;" horiz-adv-x="925" 
d="M90 -10l784 335v322l-784 335v-385l482 -110l-482 -111v-386z" />
    <glyph glyph-name="question" unicode="?" horiz-adv-x="1399" 
d="M495 471h442q2 55 26.5 112t133.5 125q93 55 163.5 125.5t70.5 192.5q0 157 -140 245.5t-490 88.5q-331 0 -484.5 -106.5t-153.5 -368.5h438q0 104 51 149t157 45q95 0 136 -21.5t41 -72.5q0 -38 -47.5 -69t-127.5 -80q-107 -59 -161.5 -143.5t-54.5 -221.5zM509 280
v-300h423v300h-423z" />
    <glyph glyph-name="at" unicode="@" horiz-adv-x="2010" 
d="M858 -52q86 0 169.5 10t156 26t127 37.5t83.5 42.5l-233 207q-5 -6 -27 -18t-58.5 -23.5t-84 -20t-105.5 -8.5q-60 0 -124.5 14.5t-124 46.5t-106 84t-73 126.5t-23.5 173.5q4 133 56.5 226t139.5 152t195.5 86.5t225.5 27.5q111 0 205.5 -19t164 -61.5t105.5 -110
t32 -165.5q-4 -104 -27 -176t-62.5 -108.5t-93.5 -36.5q-24 0 -45.5 9t-32.5 28.5t-8 50.5l50 475h-208l-12 -91q0 16 -16 40.5t-51.5 43.5t-92.5 19q-64 0 -126 -23.5t-112 -72.5t-80.5 -123.5t-33.5 -176.5q-2 -83 19.5 -145t62.5 -102.5t95.5 -61t118.5 -20.5
q74 0 126.5 18t82 42.5t36.5 46.5q0 -19 12 -45.5t39 -51t68 -40.5t100 -16q77 0 155 19.5t149.5 60t128.5 103.5t92 149.5t38 197.5q5 141 -53 251t-168 187.5t-265.5 118t-345.5 40.5q-166 0 -318 -28.5t-282 -87.5t-227 -149.5t-152.5 -213.5t-59.5 -280
q-3 -127 29 -227.5t90.5 -177t137 -129.5t168.5 -86.5t185.5 -49t187.5 -15.5zM977 497q-23 0 -41.5 13t-30.5 35.5t-17.5 53t-4.5 65.5q1 33 12 64.5t29 57t39.5 40t42.5 14.5q17 0 38.5 -5.5t37 -18.5t15.5 -34l-22 -235q-7 -18 -34 -34t-64 -16z" />
    <glyph glyph-name="A" unicode="A" horiz-adv-x="1574" 
d="M54 0h470l69 289h391l68 -289h470l-413 1351h-643zM666 587l121 499h4l121 -499h-246z" />
    <glyph glyph-name="B" unicode="B" horiz-adv-x="1468" 
d="M76 0h880q298 0 361.5 114.5t63.5 274.5q0 137 -69 229.5t-202 99.5q134 4 185 97t51 205q0 113 -66.5 221.5t-355.5 108.5h-848v-1350zM533 308v267h306q61 0 73.5 -32.5t12.5 -105.5t-12.5 -101t-72.5 -28h-307zM533 848v196h277q49 0 62.5 -21.5t13.5 -70.5
q0 -50 -13 -77t-64 -27h-276z" />
    <glyph glyph-name="C" unicode="C" horiz-adv-x="1454" 
d="M725 -8q414 0 541 179.5t127 387.5h-463q0 -171 -56 -215t-153 -44q-100 0 -163.5 52t-63.5 327q0 273 64 324.5t163 51.5q98 0 153.5 -43t55.5 -217h463q0 215 -126.5 391.5t-542.5 176.5q-410 0 -551 -183.5t-141 -500.5q0 -316 141 -501.5t552 -185.5z" />
    <glyph glyph-name="D" unicode="D" horiz-adv-x="1455" 
d="M76 0h802q302 0 414.5 154.5t112.5 521.5t-112 520.5t-415 153.5h-802v-1350zM532 308v734h221q103 0 149.5 -48.5t46.5 -317.5q0 -270 -46.5 -319t-149.5 -49h-221z" />
    <glyph glyph-name="E" unicode="E" horiz-adv-x="1213" 
d="M66 0h1068v308h-611v224h560v293h-560v217h611v308h-1068v-1350z" />
    <glyph glyph-name="F" unicode="F" horiz-adv-x="1127" 
d="M55 0h457v447h500v293h-500v302h547v308h-1004v-1350z" />
    <glyph glyph-name="G" unicode="G" horiz-adv-x="1506" 
d="M696 -8q298 1 400 145l52 -137h254v739h-643v-266h178l-1 -3q-12 -106 -54 -138.5t-142 -32.5q-109 0 -171.5 68t-62.5 298q0 285 62.5 338t167.5 53q101 0 149 -30.5t60 -166.5h457q-10 186 -149.5 345t-517.5 159q-407 0 -548 -179.5t-141 -503.5q0 -318 136 -503
t514 -185z" />
    <glyph glyph-name="H" unicode="H" horiz-adv-x="1499" 
d="M76 0h457v506h405v-506h457v1350h-457v-536h-405v536h-457v-1350z" />
    <glyph glyph-name="I" unicode="I" horiz-adv-x="700" 
d="M118 0h455v1350h-455v-1350z" />
    <glyph glyph-name="J" unicode="J" horiz-adv-x="1455" 
d="M704 -11q328 0 491.5 103.5t163.5 300.5v957h-455v-891q0 -83 -42 -124.5t-159 -41.5q-118 0 -157.5 46t-39.5 132v134h-456v-186q0 -219 165 -324.5t489 -105.5z" />
    <glyph glyph-name="K" unicode="K" horiz-adv-x="1407" 
d="M76 0h454v553l353 -553h508l-450 674l449 676h-508l-352 -554v554h-454v-1350z" />
    <glyph glyph-name="L" unicode="L" horiz-adv-x="1106" 
d="M76 0h968v306h-511v1044h-457v-1350z" />
    <glyph glyph-name="M" unicode="M" horiz-adv-x="2012" 
d="M76 0h451v1037h4l198 -1032h527l198 1032h4v-1037h451v1350h-734l-181 -1020h-3l-181 1020h-734v-1350z" />
    <glyph glyph-name="N" unicode="N" horiz-adv-x="1738" 
d="M76 0h454v1029h5l382 -1029h717v1350h-455l-4 -1005h-3l-372 1005h-724v-1350z" />
    <glyph glyph-name="O" unicode="O" horiz-adv-x="1498" 
d="M747 -12q410 0 556 181.5t146 505.5q0 325 -146 506.5t-556 181.5t-555.5 -181t-145.5 -507q0 -324 146 -505.5t555 -181.5zM747 296q-113 0 -179.5 53.5t-66.5 325.5q0 278 66.5 329t179.5 51q114 0 180.5 -51t66.5 -329q0 -272 -66.5 -325.5t-180.5 -53.5z" />
    <glyph glyph-name="P" unicode="P" horiz-adv-x="1405" 
d="M76 0h457v331h381q278 0 359.5 149t81.5 362q0 211 -81 359.5t-360 148.5h-838v-1350zM533 639v403h244q66 0 95.5 -40t29.5 -161q0 -122 -29 -162t-96 -40h-244z" />
    <glyph glyph-name="Q" unicode="Q" horiz-adv-x="1498" 
d="M1102 -303l322 171l-278 409l-336 -153zM747 -12q410 0 556 169t146 518q0 350 -146 519t-556 169t-555.5 -168.5t-145.5 -519.5q0 -349 146 -518t555 -169zM747 296q-113 0 -179.5 53.5t-66.5 325.5q0 278 66.5 329t179.5 51q114 0 180.5 -51t66.5 -329
q0 -272 -66.5 -325.5t-180.5 -53.5z" />
    <glyph glyph-name="R" unicode="R" horiz-adv-x="1449" 
d="M76 0h458v503h399q258 0 345 119t87 294q0 178 -82 306t-331 128h-876v-1350zM904 0h495l-345 637l-452 -15zM534 780v262h265q61 0 84.5 -32t23.5 -100q0 -67 -23 -98.5t-85 -31.5h-265z" />
    <glyph glyph-name="S" unicode="S" horiz-adv-x="1474" 
d="M734 -7q398 0 531 136t133 327q0 173 -106.5 242.5t-425.5 127.5q-166 28 -268 46.5t-102 91.5q0 51 64.5 72t159.5 21q83 0 151 -26t68 -148h457q0 195 -138.5 337.5t-532.5 142.5q-396 0 -533 -133.5t-137 -318.5q0 -178 110.5 -255t417.5 -135q169 -26 267.5 -46
t98.5 -84q0 -56 -64.5 -74t-154.5 -18q-89 0 -154.5 26.5t-65.5 150.5h-456q0 -208 135.5 -345.5t544.5 -137.5z" />
    <glyph glyph-name="T" unicode="T" horiz-adv-x="1379" 
d="M461 0h457v1042h391v308h-1240v-308h392v-1042z" />
    <glyph glyph-name="U" unicode="U" horiz-adv-x="1509" 
d="M748 -7q345 0 510.5 110.5t165.5 369.5v877h-457v-830q0 -116 -49 -167.5t-170 -51.5t-170 52t-49 167v830h-457v-877q0 -259 165.5 -369.5t510.5 -110.5z" />
    <glyph glyph-name="V" unicode="V" horiz-adv-x="1502" 
d="M439 0h620l392 1350h-463l-237 -1031h-3l-239 1031h-463z" />
    <glyph glyph-name="W" unicode="W" horiz-adv-x="2219" 
d="M259 0h695l143 1042h3l142 -1042h695l239 1350h-493l-119 -1020h-3l-165 1020h-595l-164 -1019h-4l-111 1019h-491z" />
    <glyph glyph-name="X" unicode="X" horiz-adv-x="1506" 
d="M2 0h524l228 477l227 -477h523l-413 668l400 682h-523l-214 -489l-215 489h-524l398 -682z" />
    <glyph glyph-name="Y" unicode="Y" horiz-adv-x="1541" 
d="M545 0h456v477l541 873h-494l-273 -519h-2l-276 519h-494l542 -872v-478z" />
    <glyph glyph-name="Z" unicode="Z" horiz-adv-x="1252" 
d="M56 0h1113v307h-611l601 736v307h-1088v-305h587l-602 -728v-317z" />
    <glyph glyph-name="bracketleft" unicode="[" horiz-adv-x="861" 
d="M47 -428h762v293h-392v1297h392v293h-762v-1883z" />
    <glyph glyph-name="backslash" unicode="\" horiz-adv-x="1153" 
d="M700 0h407l-654 1348h-404z" />
    <glyph glyph-name="bracketright" unicode="]" horiz-adv-x="862" 
d="M45 -428h762v1883h-762v-293h392v-1297h-392v-293z" />
    <glyph glyph-name="asciicircum" unicode="^" horiz-adv-x="866" 
d="M0 1182h272l242 264h-252zM574 1184h270l-260 262h-253z" />
    <glyph glyph-name="underscore" unicode="_" horiz-adv-x="1402" 
d="M-1 -333h1405v291h-1405v-291z" />
    <glyph glyph-name="grave" unicode="`" horiz-adv-x="734" 
d="M379 1204h199l-176 245h-297z" />
    <glyph glyph-name="a" unicode="a" horiz-adv-x="1457" 
d="M549 -14q69 0 133 11t117.5 30t92.5 43.5t58 52.5l40 -123h375v727q0 173 -74 276t-219 149t-360 46q-111 0 -216 -16t-193 -51t-150.5 -94t-87.5 -145l441 -125q16 52 48.5 80.5t74.5 39.5t85 11q62 0 106 -13t67.5 -44.5t23.5 -88.5v-27h-363q-127 0 -221 -20
t-155.5 -63t-91.5 -112t-30 -168q0 -106 32 -178.5t96 -116t156.5 -62.5t214.5 -19zM652 272q-34 0 -61 5t-46 16.5t-28.5 32t-9.5 53.5q0 34 9 55t27 31.5t46.5 14.5t66.5 4h248v-128q-21 -24 -61.5 -43.5t-90.5 -30t-100 -10.5z" />
    <glyph glyph-name="b" unicode="b" horiz-adv-x="1448" 
d="M74 0h412l40 162v1408h-452v-1570zM900 -7q265 0 376 170t111 433t-111 431t-376 168q-228 0 -402 -99.5t-174 -231.5l201 -179q0 93 65 148t150 55q95 0 143 -54.5t48 -239.5q0 -189 -48 -242.5t-143 -53.5q-85 0 -150 54.5t-65 151.5l-201 -182q0 -132 174 -230.5
t402 -98.5z" />
    <glyph glyph-name="c" unicode="c" horiz-adv-x="1365" 
d="M699 -12q333 0 456 124t148 248l-400 148q-10 -121 -65 -167t-139 -46q-81 0 -141.5 52t-60.5 243q0 193 60 245.5t142 52.5q85 0 139.5 -46t64.5 -172l400 142q-25 129 -148 257t-456 128q-382 0 -522 -161.5t-140 -445.5q0 -286 140 -444t522 -158z" />
    <glyph glyph-name="d" unicode="d" horiz-adv-x="1464" 
d="M938 0h420v1570h-450v-1408zM534 -7q228 0 401.5 98.5t173.5 230.5l-201 182q0 -95 -64.5 -150.5t-149.5 -55.5q-95 0 -143 54.5t-48 241.5q0 185 48 239.5t143 54.5q85 0 149.5 -55t64.5 -148l201 179q0 132 -173.5 231.5t-401.5 99.5q-265 0 -376 -168t-111 -431
t111 -433t376 -170z" />
    <glyph glyph-name="e" unicode="e" horiz-adv-x="1448" 
d="M725 -12v288q-108 0 -175 54q-68 52 -68 261q0 205 66 262q66 58 169 58q105 0 163 -49q34 -36 49 -133h-485v-269h932q9 58 9 131q0 267 -138 438q-140 170 -531 170q-379 0 -524 -166q-146 -166 -146 -441t147 -440q145 -164 532 -164zM725 276v-288q202 0 311 31
q108 30 192 91q84 59 110 172l-403 116q-25 -43 -48 -71q-24 -27 -61 -39q-36 -12 -101 -12z" />
    <glyph glyph-name="f" unicode="f" horiz-adv-x="1088" 
d="M263 0h451v880h304v306h-304v12q0 53 53 70.5t216 17.5h34v294h-47q-352 0 -529.5 -89t-177.5 -292v-13h-242v-306h242v-880z" />
    <glyph glyph-name="g" unicode="g" horiz-adv-x="1468" 
d="M693 -473q211 0 344.5 48.5t229 171.5t95.5 343v1096h-329l-124 -226v-918q0 -165 -56.5 -198t-144.5 -33q-52 0 -94.5 14.5t-68 49.5t-31.5 83h-440q26 -237 206 -334t413 -97zM539 -7q228 0 399.5 98.5t171.5 230.5l-202 182q0 -95 -64.5 -150.5t-149.5 -55.5
q-95 0 -143 54.5t-48 241.5q0 185 48 239.5t143 54.5q85 0 149.5 -55t64.5 -148l201 169q0 132 -173.5 236.5t-401.5 104.5q-265 0 -376 -168t-111 -431t113.5 -433t378.5 -170z" />
    <glyph glyph-name="h" unicode="h" horiz-adv-x="1437" 
d="M74 0h452v1570h-452v-1570zM880 0h451v609q0 262 -90.5 424t-338.5 162q-271 0 -437.5 -172.5t-166.5 -339.5l220 -86q0 133 62 211.5t149 78.5q78 0 114.5 -55.5t36.5 -245.5v-586z" />
    <glyph glyph-name="i" unicode="i" horiz-adv-x="663" 
d="M96 0h453v1186h-453v-1186zM96 1570v-283h453v283h-453z" />
    <glyph glyph-name="j" unicode="j" horiz-adv-x="696" 
d="M-133 -460q350 0 532 112t182 453v1081h-451v-1099q0 -150 -68.5 -193.5t-194.5 -43.5v-310zM130 1570v-283h452v283h-452z" />
    <glyph glyph-name="k" unicode="k" horiz-adv-x="1393" 
d="M669 455l198 -455h481l-373 764zM74 0h451v323l160 134l287 280l369 449h-523l-293 -369v753h-451v-1570z" />
    <glyph glyph-name="l" unicode="l" horiz-adv-x="665" 
d="M102 0h452v1570h-452v-1570z" />
    <glyph glyph-name="m" unicode="m" horiz-adv-x="2104" 
d="M74 0h452v1023l-104 163h-348v-1186zM813 0h451v664q0 206 -83 368.5t-341 162.5q-219 0 -388 -166t-169 -331l239 -88q0 149 46.5 213t118.5 64q65 0 95.5 -53.5t30.5 -208.5v-625zM1547 0h451v664q0 205 -80.5 368t-338.5 163q-219 0 -388 -169t-169 -328l240 -88
q0 149 46 213t118 64q65 0 93 -53.5t28 -208.5v-625z" />
    <glyph glyph-name="n" unicode="n" horiz-adv-x="1429" 
d="M74 0h451v1011l-104 175h-347v-1186zM872 0h451v594q0 262 -90.5 431.5t-338.5 169.5q-271 0 -437.5 -172.5t-166.5 -339.5l220 -86q0 133 62 211.5t149 78.5q78 0 114.5 -55.5t36.5 -245.5v-586z" />
    <glyph glyph-name="o" unicode="o" horiz-adv-x="1452" 
d="M719 -9q378 0 525 165t147 443q0 279 -147 440t-525 161q-377 0 -524.5 -161t-147.5 -440q0 -278 147.5 -443t524.5 -165zM719 294q-97 0 -159 53.5t-62 249.5t62 248t159 52q98 0 159.5 -52t61.5 -248t-61.5 -249.5t-159.5 -53.5z" />
    <glyph glyph-name="p" unicode="p" horiz-adv-x="1448" 
d="M74 -445h451v1456l-104 175h-347v-1631zM900 -7q265 0 376 170t111 433t-111 431t-376 168q-228 0 -402 -99.5t-174 -231.5l201 -179q0 93 65 148t150 55q95 0 143 -54.5t48 -239.5q0 -189 -48 -242.5t-143 -53.5q-85 0 -150 54.5t-65 151.5l-201 -182q0 -132 174 -230.5
t402 -98.5z" />
    <glyph glyph-name="q" unicode="q" horiz-adv-x="1453" 
d="M904 -445h451v1631h-348l-103 -199v-1432zM534 -7q228 0 401.5 98.5t173.5 230.5l-201 182q0 -95 -64.5 -150.5t-149.5 -55.5q-95 0 -143 54.5t-48 241.5q0 185 48 239.5t143 54.5q85 0 149.5 -55t64.5 -148l201 179q0 132 -173.5 231.5t-401.5 99.5q-265 0 -376 -168
t-111 -431t111 -433t376 -170z" />
    <glyph glyph-name="r" unicode="r" horiz-adv-x="1431" 
d="M874 575h451q0 316 -88 468.5t-351 152.5q-236 0 -385.5 -121t-149.5 -302l172 -93q0 82 52.5 145t137.5 63q73 0 117 -53t44 -260zM74 0h451v1001l-104 185h-347v-1186z" />
    <glyph glyph-name="s" unicode="s" horiz-adv-x="1437" 
d="M746 -9q296 0 461.5 87.5t165.5 314.5q0 183 -143 257.5t-359 94.5q-156 18 -254.5 26.5t-98.5 60.5q0 37 40 56t126 19q95 0 170 -40.5t102 -95.5l394 145q-55 155 -228.5 217.5t-431.5 62.5q-270 0 -443 -85.5t-173 -279.5q0 -189 131 -277.5t352 -110.5
q164 -19 267.5 -26.5t103.5 -57.5q0 -40 -49 -59t-126 -19q-112 0 -189.5 39t-104.5 99l-394 -147q61 -152 244.5 -216.5t436.5 -64.5z" />
    <glyph glyph-name="t" unicode="t" horiz-adv-x="1134" 
d="M721 -17q158 0 302 31v296q-72 -27 -147 -27q-66 0 -103.5 25t-37.5 110v460h342v308h-342v273h-452v-273h-264v-308h264v-556q0 -189 128.5 -264t309.5 -75z" />
    <glyph glyph-name="u" unicode="u" horiz-adv-x="1426" 
d="M981 0h345v1186h-451v-1006zM515 1186h-451v-609q0 -261 88 -423.5t341 -162.5q294 0 449.5 173t155.5 339l-221 77q0 -133 -64 -207t-152 -74q-78 0 -112 55.5t-34 246.5v585z" />
    <glyph glyph-name="v" unicode="v" horiz-adv-x="1391" 
d="M377 0h616l369 1186h-472l-203 -885h-2l-202 885h-473z" />
    <glyph glyph-name="w" unicode="w" horiz-adv-x="2098" 
d="M306 0h601l140 734l139 -734h595l266 1186h-466l-111 -889h-3l-194 889h-446l-198 -892h-3l-118 892h-466z" />
    <glyph glyph-name="x" unicode="x" horiz-adv-x="1438" 
d="M18 0h505l183 412l193 -412h510l-371 593l367 593h-505l-174 -411l-185 411h-510l364 -593z" />
    <glyph glyph-name="y" unicode="y" horiz-adv-x="1392" 
d="M344 0h689l323 1186h-472l-195 -894h-3l-198 894h-471zM136 -469q372 0 592.5 87.5t304.5 381.5l-417 1q-30 -112 -136 -139.5t-344 -27.5v-303z" />
    <glyph glyph-name="z" unicode="z" horiz-adv-x="1192" 
d="M72 0h1045v306h-505v2l494 579v299h-1036v-306h513v-1l-511 -578v-301z" />
    <glyph glyph-name="braceleft" unicode="{" horiz-adv-x="901" 
d="M839 -428v293q-30 0 -68 2.5t-73 15.5t-58 42.5t-23 83.5v275q0 51 -25 86t-62 57t-74.5 33.5t-63 16t-26.5 3.5q1 1 26.5 5t63 15t75 33t62 57t24.5 86v331q0 55 23 84t58 41t73 14.5t68 2.5v293q-98 0 -187 -13.5t-162.5 -41.5t-127.5 -73t-84 -108.5t-30 -147.5v-251
q0 -57 -31 -97.5t-79.5 -62t-99.5 -21.5v-295q51 0 99.5 -20t79.5 -59.5t31 -97.5v-197q0 -80 29 -143t82.5 -108.5t127 -75t163 -44t189.5 -14.5z" />
    <glyph glyph-name="bar" unicode="|" horiz-adv-x="479" 
d="M52 -226h370v1648h-370v-1648z" />
    <glyph glyph-name="braceright" unicode="}" horiz-adv-x="890" 
d="M46 -428q101 0 190 14.5t163 44t127 75t82 108.5t29 143v197q0 58 31.5 97.5t80 59.5t98.5 20v295q-50 0 -98.5 21.5t-80 62t-31.5 97.5v251q0 84 -29.5 147.5t-83.5 108.5t-128 73t-162.5 41.5t-187.5 13.5v-293q31 0 68.5 -2.5t73 -14.5t58 -41t22.5 -84v-331
q0 -51 25.5 -86t63 -57t74.5 -33t63 -15t26 -5q0 1 -26 -3.5t-63 -16t-74.5 -33.5t-63 -57t-25.5 -86v-275q0 -54 -22.5 -83.5t-58 -42.5t-73 -15.5t-68.5 -2.5v-293z" />
    <glyph glyph-name="asciitilde" unicode="~" horiz-adv-x="980" 
d="M673 507q76 0 138 23.5t102 50.5t47 36l-198 235q-2 -3 -30.5 -23.5t-94.5 -20.5q-48 0 -79.5 10.5t-59 24t-62.5 24t-93 10.5q-78 0 -144 -24.5t-111.5 -55t-64.5 -48.5l197 -225q12 15 52.5 41.5t102.5 26.5q48 0 80 -13t60 -29.5t65 -29.5t93 -13z" />
    <glyph glyph-name="uni00A0" unicode="&#xa0;" horiz-adv-x="525" 
 />
    <glyph glyph-name="exclamdown" unicode="&#xa1;" horiz-adv-x="554" 
d="M71 670l-44 -856h523l-43 856h-436zM56 870h449v316h-449v-316z" />
    <glyph glyph-name="cent" unicode="&#xa2;" horiz-adv-x="1391" 
d="M550 1200h311v180h-311v-180zM550 -30h311v190h-311v-190zM714 70q333 0 456 124.5t148 248.5l-400 148q-10 -121 -65 -167.5t-139 -46.5q-81 0 -141.5 52.5t-60.5 242.5q0 193 60 246t142 53q85 0 139.5 -46.5t64.5 -171.5l400 142q-25 129 -148 257t-456 128
q-382 0 -522 -161.5t-140 -446.5t140 -443.5t522 -158.5z" />
    <glyph glyph-name="sterling" unicode="&#xa3;" horiz-adv-x="1379" 
d="M269 -30l-158 257q10 5 36.5 22.5t57 46t51.5 67t21 86.5q0 70 -9 122.5t-22 96t-27 84.5t-23 88t-9 107q0 71 25.5 144.5t89 135t174.5 99.5t281 38q154 0 257.5 -33.5t167.5 -84.5t98 -103.5t48 -90.5l-363 -131q-14 38 -38.5 72.5t-63.5 56t-101 21.5q-49 0 -79 -15
t-43.5 -45.5t-13.5 -77.5q0 -49 5.5 -93t13.5 -87t15.5 -87.5t12.5 -94.5t5 -108q0 -44 -14.5 -85.5t-36.5 -76.5q22 5 43.5 7.5t42.5 2.5q51 0 89.5 -5.5t71.5 -14t67.5 -14t75.5 -6.5q76 1 118.5 7t75.5 20l125 -291q-7 -3 -53 -9.5t-117 -12.5t-154 -7q-65 1 -111 9.5
t-86.5 19.5t-91 19.5t-127.5 7.5q-116 0 -205 -20.5t-122 -43.5zM58 538v256h950v-256h-950z" />
    <glyph glyph-name="currency" unicode="&#xa4;" horiz-adv-x="1515" 
d="M758 185q392 0 532 130t140 320q0 189 -140 323t-532 134t-532.5 -132t-140.5 -321q0 -190 140.5 -322t532.5 -132zM216 28l322 322l-196 156l-322 -322zM1297 28l196 156l-322 322l-196 -156zM758 447q-97 0 -159.5 36t-62.5 156t62.5 155.5t159.5 35.5t159 -35.5
t62 -155.5t-62 -156t-159 -36zM342 764l196 156l-322 322l-196 -156zM1171 764l322 322l-196 156l-322 -322z" />
    <glyph glyph-name="yen" unicode="&#xa5;" horiz-adv-x="1541" 
d="M207 443h1133v237h-1133v-237zM207 144h1133v237h-1133v-237zM545 0h456v477l541 873h-494l-273 -519h-2l-276 519h-494l542 -872v-478z" />
    <glyph glyph-name="brokenbar" unicode="&#xa6;" horiz-adv-x="478" 
d="M51 -156h370v660h-370v-660zM51 764h370v658h-370v-658z" />
    <glyph glyph-name="section" unicode="&#xa7;" horiz-adv-x="1413" 
d="M709 -278q117 0 206.5 18.5t155.5 49.5t109 69t65.5 77.5t26.5 73.5q8 56 -9 99.5t-45.5 74.5t-57 51.5t-44.5 27.5q14 9 42.5 20.5t63 28.5t65.5 43.5t51.5 64t20.5 89.5q0 62 -37.5 113.5t-101 94t-142.5 79.5t-161 67q-79 31 -152 57t-131.5 50t-94.5 47t-39 45
q-4 28 18 40t67.5 15.5t112.5 3.5q61 0 105.5 -4.5t68 -16t23.5 -32.5v-39h379v50q0 49 -32.5 99t-102 91t-179 66t-265.5 25q-140 0 -244 -22.5t-172 -62t-103 -88t-39 -102.5q-3 -55 8.5 -98t35 -77t56 -59t70.5 -46q-26 -7 -69 -20.5t-86.5 -39.5t-73.5 -71t-30 -116
q0 -59 36 -108t96.5 -90t136.5 -76t155 -66q78 -29 153.5 -55t138.5 -49.5t101.5 -46t41.5 -44.5q8 -21 -15.5 -34.5t-71.5 -20.5t-112 -7q-65 0 -109 6.5t-66 18t-22 28.5v39h-377v-50q0 -48 30.5 -97.5t98 -91.5t177.5 -67t269 -25zM897 372q-85 30 -172 63.5t-149 60.5
q-52 21 -92 41t-61.5 37.5t-22.5 30.5q1 18 12.5 32t30 25t40.5 19.5t41 14.5q66 -27 139.5 -54.5t135.5 -52.5q45 -15 84.5 -29t69 -27.5t46 -26t16.5 -25.5q0 -17 -12 -32.5t-30.5 -29t-39 -25t-36.5 -22.5z" />
    <glyph glyph-name="dieresis" unicode="&#xa8;" horiz-adv-x="982" 
d="M265 1168q47 0 81 34t34 82t-34 82t-81 34q-49 0 -83 -34t-34 -82t34 -82t83 -34zM734 1168q49 0 82.5 34t33.5 82t-33.5 82t-82.5 34q-47 0 -81 -34t-34 -82t33.5 -82t81.5 -34z" />
    <glyph glyph-name="copyright" unicode="&#xa9;" horiz-adv-x="1622" 
d="M805 -21q221 0 368 47.5t234.5 127t125 180.5t37.5 207v256q0 106 -37 206t-124 180t-234.5 126.5t-369.5 46.5q-218 0 -365 -46.5t-234 -126t-125 -179.5t-38 -207v-256q0 -106 38.5 -206.5t126 -180.5t234 -127.5t363.5 -47.5zM805 187q-138 0 -229 22.5t-145 60
t-80.5 85t-34.5 99t-8 100.5v229q0 41 7 89.5t31.5 97t77.5 89.5t146 65.5t235 24.5q147 0 240.5 -24t146.5 -64t77 -88.5t29.5 -98.5t5.5 -93v-236q0 -40 -5 -88t-28 -95.5t-76 -87t-147 -63.5t-243 -24zM801 265q74 0 146.5 14.5t131 44.5t93.5 77.5t35 113.5v82h-244v-32
q0 -15 -4.5 -30t-16 -27.5t-30 -21t-47 -14t-67.5 -5.5q-56 0 -87 9.5t-44 25t-16.5 35.5t-3.5 41v191q0 23 4.5 42t19 34t45.5 23t85 8q41 0 70 -4.5t47 -12.5t28 -20t13.5 -27t3.5 -33v-34h244v76q0 69 -33.5 117.5t-91 79t-130 44.5t-151.5 14q-77 0 -148 -15.5
t-126.5 -48t-88 -85t-32.5 -125.5v-281q0 -63 32.5 -110.5t87.5 -80t126 -49t149 -16.5z" />
    <glyph glyph-name="ordfeminine" unicode="&#xaa;" horiz-adv-x="793" 
d="M474 831h227v307q0 115 -67.5 170t-248.5 55q-153 0 -236 -29t-89 -88l157 -81q1 22 50 34.5t99 12.5q58 0 73 -13t15 -61v-270zM281 824q124 0 206 44.5t82 118.5l-115 32q0 -27 -27 -38.5t-84 -11.5q-28 0 -39.5 5t-11.5 22q0 14 20.5 20t48.5 7q35 2 125 3v125
q-112 0 -169 -6q-147 -6 -207 -44t-60 -113q0 -85 58.5 -124.5t172.5 -39.5z" />
    <glyph glyph-name="guillemotleft" unicode="&#xab;" horiz-adv-x="1577" 
d="M453 80h454l-414 414l414 414h-454l-411 -414zM1083 80h454l-415 414l415 414h-454l-412 -414z" />
    <glyph glyph-name="logicalnot" unicode="&#xac;" horiz-adv-x="1080" 
d="M738 125h280v510h-956v-274h676v-236z" />
    <glyph glyph-name="uni00AD" unicode="&#xad;" horiz-adv-x="721" 
d="M54 331h613v294h-613v-294z" />
    <glyph glyph-name="registered" unicode="&#xae;" horiz-adv-x="1544" 
d="M769 304q218 0 358.5 47t220 124.5t111.5 168.5t31 179v146q1 89 -31 181t-111.5 168.5t-220 123.5t-358.5 47q-175 0 -300.5 -32.5t-207 -88t-129 -124t-66.5 -140t-20 -135.5v-146q1 -63 20 -134t66 -139t129.5 -123.5t207.5 -89t300 -33.5zM769 504q-158 0 -254 25.5
t-146 70t-66.5 104.5t-17.5 128v122q1 54 11 104t38 92t82 74t140.5 49t212.5 17q128 0 214 -17t139 -48.5t81.5 -74t38.5 -92.5t9 -105v-124q1 -52 -8.5 -99.5t-38 -88.5t-81.5 -72t-139.5 -48t-214.5 -17zM464 591h210v220h138l42 -220h216l-74 238q42 14 63.5 55t21.5 82
v60q0 44 -16.5 83t-58.5 63.5t-117 24.5h-425v-606zM674 958v81h157q26 0 33 -6t7 -18v-33q0 -10 -7 -17t-34 -7h-156z" />
    <glyph glyph-name="macron" unicode="&#xaf;" horiz-adv-x="999" 
d="M102 1292h761v161h-761v-161z" />
    <glyph glyph-name="degree" unicode="&#xb0;" horiz-adv-x="331" 
d="M175 1120q63 0 106.5 45t43.5 108q0 64 -43.5 108.5t-106.5 44.5q-62 0 -105.5 -44.5t-43.5 -108.5q0 -63 43.5 -108t105.5 -45zM175 1239q-13 0 -22.5 10t-9.5 24q0 15 9.5 25t22.5 10t22.5 -10t9.5 -25q0 -14 -9.5 -24t-22.5 -10z" />
    <glyph glyph-name="plusminus" unicode="&#xb1;" horiz-adv-x="664" 
d="M199 379h288v176h166v268h-166v177h-288v-177h-168v-268h168v-176zM67 72h543v268h-543v-268z" />
    <glyph glyph-name="uni00B2" unicode="&#xb2;" horiz-adv-x="822" 
d="M52 750h713v144h-499q0 12 53.5 23t171.5 39q127 44 201.5 88.5t74.5 118.5q0 63 -64.5 131.5t-286.5 68.5q-218 0 -292 -70.5t-74 -143.5h203q0 31 43 50.5t121 19.5q70 0 108 -10.5t38 -49.5q0 -24 -44 -38t-178 -48q-146 -39 -217.5 -84.5t-71.5 -116.5v-122z" />
    <glyph glyph-name="uni00B3" unicode="&#xb3;" horiz-adv-x="837" 
d="M416 743q228 0 296 58t68 127q0 48 -33 86.5t-149 41.5q115 2 148.5 42t33.5 89q0 68 -68 122t-295 54q-220 0 -293 -69.5t-73 -149.5h203q0 41 42 59.5t122 18.5q79 0 119 -15t40 -54q0 -20 -43 -27.5t-157 -7.5v-130q116 0 158 -7.5t42 -25.5q0 -38 -39.5 -54.5
t-119.5 -16.5q-83 0 -123.5 18.5t-40.5 57.5h-203q0 -81 71.5 -149t293.5 -68z" />
    <glyph glyph-name="acute" unicode="&#xb4;" horiz-adv-x="720" 
d="M126 1204h199l273 245h-297z" />
    <glyph glyph-name="uni00B5" unicode="&#xb5;" horiz-adv-x="1425" 
d="M64 -445h451v799l-451 832v-1631zM981 0h345v1186h-451v-1006zM515 1186h-451v-609q0 -261 88 -423.5t341 -162.5q294 0 449.5 173t155.5 339l-221 77q0 -133 -64 -207t-152 -74q-78 0 -112 55.5t-34 246.5v585z" />
    <glyph glyph-name="paragraph" unicode="&#xb6;" horiz-adv-x="1430" 
d="M571 -156h289v1214h226v-1214h290v1506h-824q-178 0 -292.5 -44.5t-169.5 -127.5t-55 -199q0 -126 63.5 -209t180 -124t273.5 -41h19v-761z" />
    <glyph glyph-name="periodcentered" unicode="&#xb7;" horiz-adv-x="572" 
d="M73 787v-300h423v300h-423z" />
    <glyph glyph-name="cedilla" unicode="&#xb8;" horiz-adv-x="842" 
d="M373 -405q71 0 141 15t126.5 44t90 70.5t33.5 94.5q0 69 -48.5 104.5t-132.5 35.5q-64 0 -112.5 -18.5t-73.5 -45.5l-8 -69q9 9 28.5 16.5t39.5 7.5q24 0 34 -5t10 -19q0 -20 -31 -33t-95 -13q-45 0 -86 7t-70 14l-58 -182q54 -11 109.5 -17.5t102.5 -6.5zM389 -174
l65 174h-173l-49 -161z" />
    <glyph glyph-name="uni00B9" unicode="&#xb9;" horiz-adv-x="758" 
d="M52 750h658v144h-225v464h-169l-269 -62v-153l236 46v-295h-231v-144z" />
    <glyph glyph-name="ordmasculine" unicode="&#xba;" horiz-adv-x="767" 
d="M396 826q179 0 272 54.5t93 177.5v77q0 125 -93 180t-272 55t-273 -55.5t-94 -179.5v-77q0 -122 94.5 -177t272.5 -55zM394 996q-42 0 -61 12t-19 45v88q0 33 19 45.5t61 12.5t62 -12.5t20 -45.5v-88q0 -33 -20 -45t-62 -12z" />
    <glyph glyph-name="guillemotright" unicode="&#xbb;" horiz-adv-x="1581" 
d="M676 80h455l411 414l-411 414h-455l414 -414zM45 80h455l412 414l-412 414h-455l416 -414z" />
    <glyph glyph-name="onequarter" unicode="&#xbc;" horiz-adv-x="2127" 
d="M52 750h658v144h-225v464h-169l-269 -62v-153l236 46v-295h-231v-144zM398 0h221l1045 1348h-221zM1758 0h202v116h122v135h-122v357h-313l-312 -354v-138h423v-116zM1564 251l182 223h12v-223h-194z" />
    <glyph glyph-name="onehalf" unicode="&#xbd;" horiz-adv-x="2125" 
d="M52 750h658v144h-225v464h-169l-269 -62v-153l236 46v-295h-231v-144zM398 0h221l1045 1348h-221zM1355 0h713v144h-499q0 12 53.5 23t171.5 39q127 44 201.5 88.5t74.5 118.5q0 63 -64.5 131.5t-286.5 68.5q-218 0 -292 -70.5t-74 -143.5h203q0 31 43 50.5t121 19.5
q70 0 108 -10.5t38 -49.5q0 -24 -44 -38t-178 -48q-146 -39 -217.5 -84.5t-71.5 -116.5v-122z" />
    <glyph glyph-name="threequarters" unicode="&#xbe;" horiz-adv-x="2205" 
d="M416 743q228 0 296 58t68 127q0 48 -33 86.5t-149 41.5q115 2 148.5 42t33.5 89q0 68 -68 122t-295 54q-220 0 -293 -69.5t-73 -149.5h203q0 41 42 59.5t122 18.5q79 0 119 -15t40 -54q0 -20 -43 -27.5t-157 -7.5v-130q116 0 158 -7.5t42 -25.5q0 -38 -39.5 -54.5
t-119.5 -16.5q-83 0 -123.5 18.5t-40.5 57.5h-203q0 -81 71.5 -149t293.5 -68zM477 0h221l1045 1348h-221zM1837 0h202v116h122v135h-122v357h-313l-312 -354v-138h423v-116zM1643 251l182 223h12v-223h-194z" />
    <glyph glyph-name="questiondown" unicode="&#xbf;" horiz-adv-x="1357" 
d="M885 695h-442q-2 -54 -26.5 -110.5t-133.5 -126.5q-92 -53 -163 -124t-71 -193q0 -157 140 -246t490 -89q331 0 484.5 106.5t153.5 368.5h-438q0 -104 -51 -149t-157 -45q-95 0 -136 21.5t-41 72.5q0 38 48 70t127 79q108 60 162 144t54 221zM871 888v298h-423v-298h423z
" />
    <glyph glyph-name="Agrave" unicode="&#xc0;" horiz-adv-x="1574" 
d="M54 0h470l69 289h391l68 -289h470l-413 1351h-643zM666 587l121 499h4l121 -499h-246zM823 1401h199l-176 245h-297z" />
    <glyph glyph-name="Aacute" unicode="&#xc1;" horiz-adv-x="1574" 
d="M54 0h470l69 289h391l68 -289h470l-413 1351h-643zM666 587l121 499h4l121 -499h-246zM550 1392h199l273 245h-297z" />
    <glyph glyph-name="Acircumflex" unicode="&#xc2;" horiz-adv-x="1574" 
d="M54 0h470l69 289h391l68 -289h470l-413 1351h-643zM666 587l121 499h4l121 -499h-246zM409 1403h253l125 148l123 -148h253l-236 233h-283z" />
    <glyph glyph-name="Atilde" unicode="&#xc3;" horiz-adv-x="1574" 
d="M54 0h470l69 289h391l68 -289h470l-413 1351h-643zM666 587l121 499h4l121 -499h-246zM943 1400q69 0 114.5 19.5t73.5 50.5t43 65.5t20.5 67t4.5 53.5h-213q0 -15 -7.5 -35t-25 -34t-44.5 -14q-29 0 -55 13.5t-55 32t-65.5 32t-87.5 13.5q-71 0 -119 -19t-76.5 -49
t-43 -65t-19 -66.5t-5.5 -52.5h215q0 15 6 35t23 34t48 14q29 0 56 -14.5t57 -33t67 -33t88 -14.5z" />
    <glyph glyph-name="Adieresis" unicode="&#xc4;" horiz-adv-x="1574" 
d="M54 0h470l69 289h391l68 -289h470l-413 1351h-643zM666 587l121 499h4l121 -499h-246zM548 1405q47 0 81 34t34 82t-34 82t-81 34q-49 0 -83 -34t-34 -82t34 -82t83 -34zM1017 1405q49 0 82.5 34t33.5 82t-33.5 82t-82.5 34q-47 0 -81 -34t-34 -82t33.5 -82t81.5 -34z
" />
    <glyph glyph-name="Aring" unicode="&#xc5;" horiz-adv-x="1574" 
d="M54 0h470l69 289h391l68 -289h470l-413 1351h-643zM666 587l121 499h4l121 -499h-246zM786 1394q87 0 145.5 59.5t58.5 146.5q0 88 -58.5 146.5t-145.5 58.5t-145.5 -58.5t-58.5 -146.5q0 -87 58.5 -146.5t145.5 -59.5zM786 1548q-19 0 -34 15.5t-15 36.5q0 22 15 36
t34 14q21 0 35 -14t14 -36q0 -21 -14 -36.5t-35 -15.5z" />
    <glyph glyph-name="AE" unicode="&#xc6;" horiz-adv-x="2151" 
d="M54 0h479l575 1190v160h-391zM439 228h661v299h-574zM1004 0h1067v308h-610v224h560v293h-560v217h610v308h-1067v-1350z" />
    <glyph glyph-name="Ccedilla" unicode="&#xc7;" horiz-adv-x="1454" 
d="M725 -8q414 0 541 179.5t127 387.5h-463q0 -171 -56 -215t-153 -44q-100 0 -163.5 52t-63.5 327q0 273 64 324.5t163 51.5q98 0 153.5 -43t55.5 -217h463q0 215 -126.5 391.5t-542.5 176.5q-410 0 -551 -183.5t-141 -500.5q0 -316 141 -501.5t552 -185.5zM734 -405
q71 0 141 15t126.5 44t90 70.5t33.5 94.5q0 69 -48.5 104.5t-132.5 35.5q-64 0 -112.5 -18.5t-73.5 -45.5l-8 -69q9 9 28.5 16.5t39.5 7.5q24 0 34 -5t10 -19q0 -20 -31 -33t-95 -13q-45 0 -86 7t-70 14l-58 -182q54 -11 109.5 -17.5t102.5 -6.5zM750 -174l65 174h-173
l-49 -161z" />
    <glyph glyph-name="Egrave" unicode="&#xc8;" horiz-adv-x="1213" 
d="M66 0h1068v308h-611v224h560v293h-560v217h611v308h-1068v-1350zM630 1401h199l-176 245h-297z" />
    <glyph glyph-name="Eacute" unicode="&#xc9;" horiz-adv-x="1213" 
d="M66 0h1068v308h-611v224h560v293h-560v217h611v308h-1068v-1350zM356 1392h199l273 245h-297z" />
    <glyph glyph-name="Ecircumflex" unicode="&#xca;" horiz-adv-x="1213" 
d="M66 0h1068v308h-611v224h560v293h-560v217h611v308h-1068v-1350zM215 1403h253l125 148l123 -148h253l-236 233h-283z" />
    <glyph glyph-name="Edieresis" unicode="&#xcb;" horiz-adv-x="1213" 
d="M66 0h1068v308h-611v224h560v293h-560v217h611v308h-1068v-1350zM355 1405q47 0 81 34t34 82t-34 82t-81 34q-49 0 -83 -34t-34 -82t34 -82t83 -34zM824 1405q49 0 82.5 34t33.5 82t-33.5 82t-82.5 34q-47 0 -81 -34t-34 -82t33.5 -82t81.5 -34z" />
    <glyph glyph-name="Igrave" unicode="&#xcc;" horiz-adv-x="700" 
d="M118 0h455v1350h-455v-1350zM383 1401h199l-176 245h-297z" />
    <glyph glyph-name="Iacute" unicode="&#xcd;" horiz-adv-x="700" 
d="M118 0h455v1350h-455v-1350zM110 1392h199l273 245h-297z" />
    <glyph glyph-name="Icircumflex" unicode="&#xce;" horiz-adv-x="700" 
d="M118 0h455v1350h-455v-1350zM-32 1403h253l125 148l123 -148h253l-236 233h-283z" />
    <glyph glyph-name="Idieresis" unicode="&#xcf;" horiz-adv-x="700" 
d="M118 0h455v1350h-455v-1350zM108 1405q47 0 81 34t34 82t-34 82t-81 34q-49 0 -83 -34t-34 -82t34 -82t83 -34zM577 1405q49 0 82.5 34t33.5 82t-33.5 82t-82.5 34q-47 0 -81 -34t-34 -82t33.5 -82t81.5 -34z" />
    <glyph glyph-name="Eth" unicode="&#xd0;" horiz-adv-x="1503" 
d="M-20 529h775v294h-775v-294zM124 0h802q302 0 414.5 154.5t112.5 521.5t-112 520.5t-415 153.5h-802v-1350zM580 308v734h221q103 0 149.5 -48.5t46.5 -317.5q0 -270 -46.5 -319t-149.5 -49h-221z" />
    <glyph glyph-name="Ntilde" unicode="&#xd1;" horiz-adv-x="1738" 
d="M76 0h454v1029h5l382 -1029h717v1350h-455l-4 -1005h-3l-372 1005h-724v-1350zM1020 1400q69 0 114.5 19.5t73.5 50.5t43 65.5t20.5 67t4.5 53.5h-213q0 -15 -7.5 -35t-25 -34t-44.5 -14q-29 0 -55 13.5t-55 32t-65.5 32t-87.5 13.5q-71 0 -119 -19t-76.5 -49t-43 -65
t-19 -66.5t-5.5 -52.5h215q0 15 6 35t23 34t48 14q29 0 56 -14.5t57 -33t67 -33t88 -14.5z" />
    <glyph glyph-name="Ograve" unicode="&#xd2;" horiz-adv-x="1498" 
d="M747 -12q410 0 556 181.5t146 505.5q0 325 -146 506.5t-556 181.5t-555.5 -181t-145.5 -507q0 -324 146 -505.5t555 -181.5zM747 296q-113 0 -179.5 53.5t-66.5 325.5q0 278 66.5 329t179.5 51q114 0 180.5 -51t66.5 -329q0 -272 -66.5 -325.5t-180.5 -53.5zM787 1401
h199l-176 245h-297z" />
    <glyph glyph-name="Oacute" unicode="&#xd3;" horiz-adv-x="1498" 
d="M747 -12q410 0 556 181.5t146 505.5q0 325 -146 506.5t-556 181.5t-555.5 -181t-145.5 -507q0 -324 146 -505.5t555 -181.5zM747 296q-113 0 -179.5 53.5t-66.5 325.5q0 278 66.5 329t179.5 51q114 0 180.5 -51t66.5 -329q0 -272 -66.5 -325.5t-180.5 -53.5zM513 1392
h199l273 245h-297z" />
    <glyph glyph-name="Ocircumflex" unicode="&#xd4;" horiz-adv-x="1498" 
d="M747 -12q410 0 556 181.5t146 505.5q0 325 -146 506.5t-556 181.5t-555.5 -181t-145.5 -507q0 -324 146 -505.5t555 -181.5zM747 296q-113 0 -179.5 53.5t-66.5 325.5q0 278 66.5 329t179.5 51q114 0 180.5 -51t66.5 -329q0 -272 -66.5 -325.5t-180.5 -53.5zM373 1403
h253l125 148l123 -148h253l-236 233h-283z" />
    <glyph glyph-name="Otilde" unicode="&#xd5;" horiz-adv-x="1498" 
d="M747 -12q410 0 556 181.5t146 505.5q0 325 -146 506.5t-556 181.5t-555.5 -181t-145.5 -507q0 -324 146 -505.5t555 -181.5zM747 296q-113 0 -179.5 53.5t-66.5 325.5q0 278 66.5 329t179.5 51q114 0 180.5 -51t66.5 -329q0 -272 -66.5 -325.5t-180.5 -53.5zM907 1400
q69 0 114.5 19.5t73.5 50.5t43 65.5t20.5 67t4.5 53.5h-213q0 -15 -7.5 -35t-25 -34t-44.5 -14q-29 0 -55 13.5t-55 32t-65.5 32t-87.5 13.5q-71 0 -119 -19t-76.5 -49t-43 -65t-19 -66.5t-5.5 -52.5h215q0 15 6 35t23 34t48 14q29 0 56 -14.5t57 -33t67 -33t88 -14.5z" />
    <glyph glyph-name="Odieresis" unicode="&#xd6;" horiz-adv-x="1498" 
d="M747 -12q410 0 556 181.5t146 505.5q0 325 -146 506.5t-556 181.5t-555.5 -181t-145.5 -507q0 -324 146 -505.5t555 -181.5zM747 296q-113 0 -179.5 53.5t-66.5 325.5q0 278 66.5 329t179.5 51q114 0 180.5 -51t66.5 -329q0 -272 -66.5 -325.5t-180.5 -53.5zM512 1405
q47 0 81 34t34 82t-34 82t-81 34q-49 0 -83 -34t-34 -82t34 -82t83 -34zM981 1405q49 0 82.5 34t33.5 82t-33.5 82t-82.5 34q-47 0 -81 -34t-34 -82t33.5 -82t81.5 -34z" />
    <glyph glyph-name="multiply" unicode="&#xd7;" horiz-adv-x="699" 
d="M501 147l189 190l-467 477l-190 -188zM223 147l467 479l-189 188l-468 -477z" />
    <glyph glyph-name="Oslash" unicode="&#xd8;" horiz-adv-x="1467" 
d="M15 0h230l1206 1348h-227zM747 -12q410 0 556 181.5t146 505.5q0 325 -146 506.5t-556 181.5t-555.5 -181t-145.5 -507q0 -324 146 -505.5t555 -181.5zM747 296q-113 0 -179.5 53.5t-66.5 325.5q0 278 66.5 329t179.5 51q114 0 180.5 -51t66.5 -329q0 -272 -66.5 -325.5
t-180.5 -53.5z" />
    <glyph glyph-name="Ugrave" unicode="&#xd9;" horiz-adv-x="1509" 
d="M748 -7q345 0 510.5 110.5t165.5 369.5v877h-457v-830q0 -116 -49 -167.5t-170 -51.5t-170 52t-49 167v830h-457v-877q0 -259 165.5 -369.5t510.5 -110.5zM792 1401h199l-176 245h-297z" />
    <glyph glyph-name="Uacute" unicode="&#xda;" horiz-adv-x="1509" 
d="M748 -7q345 0 510.5 110.5t165.5 369.5v877h-457v-830q0 -116 -49 -167.5t-170 -51.5t-170 52t-49 167v830h-457v-877q0 -259 165.5 -369.5t510.5 -110.5zM519 1392h199l273 245h-297z" />
    <glyph glyph-name="Ucircumflex" unicode="&#xdb;" horiz-adv-x="1509" 
d="M748 -7q345 0 510.5 110.5t165.5 369.5v877h-457v-830q0 -116 -49 -167.5t-170 -51.5t-170 52t-49 167v830h-457v-877q0 -259 165.5 -369.5t510.5 -110.5zM378 1403h253l125 148l123 -148h253l-236 233h-283z" />
    <glyph glyph-name="Udieresis" unicode="&#xdc;" horiz-adv-x="1509" 
d="M748 -7q345 0 510.5 110.5t165.5 369.5v877h-457v-830q0 -116 -49 -167.5t-170 -51.5t-170 52t-49 167v830h-457v-877q0 -259 165.5 -369.5t510.5 -110.5zM517 1405q47 0 81 34t34 82t-34 82t-81 34q-49 0 -83 -34t-34 -82t34 -82t83 -34zM986 1405q49 0 82.5 34t33.5 82
t-33.5 82t-82.5 34q-47 0 -81 -34t-34 -82t33.5 -82t81.5 -34z" />
    <glyph glyph-name="Yacute" unicode="&#xdd;" horiz-adv-x="1541" 
d="M545 0h456v477l541 873h-494l-273 -519h-2l-276 519h-494l542 -872v-478zM535 1392h199l273 245h-297z" />
    <glyph glyph-name="Thorn" unicode="&#xde;" horiz-adv-x="1396" 
d="M60 0h452v228h494q116 0 187 31t103 99t32 181v285q0 104 -35 172t-106 102t-181 34h-494v218h-452v-1350zM512 519v321h320q18 0 27 -8t12.5 -22.5t3.5 -34.5v-182q0 -23 -3 -39.5t-12.5 -25.5t-27.5 -9h-320z" />
    <glyph glyph-name="germandbls" unicode="&#xdf;" horiz-adv-x="1503" 
d="M76 0h453v940q0 42 10 82t33.5 72.5t65.5 51.5t106 19q99 0 137 -38t38 -89q0 -35 -15.5 -64t-35.5 -61t-35.5 -71.5t-15.5 -94.5q0 -43 13.5 -78t34 -64t41 -55t34 -52t13.5 -54q0 -32 -13 -58t-47.5 -44.5t-94 -28.5t-151.5 -10v-303q208 0 358 23t246 71.5t142 125
t46 184.5q0 61 -18.5 107t-46 79.5t-55 60.5t-46 50.5t-18.5 47.5q0 31 17.5 60t40.5 62.5t40.5 80.5t17.5 115q0 73 -34.5 144t-110 129t-196.5 92t-292 34q-184 0 -310.5 -43.5t-204 -121t-112.5 -178t-35 -213.5v-910z" />
    <glyph glyph-name="agrave" unicode="&#xe0;" horiz-adv-x="1457" 
d="M549 -14q69 0 133 11t117.5 30t92.5 43.5t58 52.5l40 -123h375v727q0 173 -74 276t-219 149t-360 46q-111 0 -216 -16t-193 -51t-150.5 -94t-87.5 -145l441 -125q16 52 48.5 80.5t74.5 39.5t85 11q62 0 106 -13t67.5 -44.5t23.5 -88.5v-27h-363q-127 0 -221 -20
t-155.5 -63t-91.5 -112t-30 -168q0 -106 32 -178.5t96 -116t156.5 -62.5t214.5 -19zM652 272q-34 0 -61 5t-46 16.5t-28.5 32t-9.5 53.5q0 34 9 55t27 31.5t46.5 14.5t66.5 4h248v-128q-21 -24 -61.5 -43.5t-90.5 -30t-100 -10.5zM747 1229h199l-176 245h-297z" />
    <glyph glyph-name="aacute" unicode="&#xe1;" horiz-adv-x="1457" 
d="M549 -14q69 0 133 11t117.5 30t92.5 43.5t58 52.5l40 -123h375v727q0 173 -74 276t-219 149t-360 46q-111 0 -216 -16t-193 -51t-150.5 -94t-87.5 -145l441 -125q16 52 48.5 80.5t74.5 39.5t85 11q62 0 106 -13t67.5 -44.5t23.5 -88.5v-27h-363q-127 0 -221 -20
t-155.5 -63t-91.5 -112t-30 -168q0 -106 32 -178.5t96 -116t156.5 -62.5t214.5 -19zM652 272q-34 0 -61 5t-46 16.5t-28.5 32t-9.5 53.5q0 34 9 55t27 31.5t46.5 14.5t66.5 4h248v-128q-21 -24 -61.5 -43.5t-90.5 -30t-100 -10.5zM473 1229h199l273 245h-297z" />
    <glyph glyph-name="acircumflex" unicode="&#xe2;" horiz-adv-x="1457" 
d="M549 -14q69 0 133 11t117.5 30t92.5 43.5t58 52.5l40 -123h375v727q0 173 -74 276t-219 149t-360 46q-111 0 -216 -16t-193 -51t-150.5 -94t-87.5 -145l441 -125q16 52 48.5 80.5t74.5 39.5t85 11q62 0 106 -13t67.5 -44.5t23.5 -88.5v-27h-363q-127 0 -221 -20
t-155.5 -63t-91.5 -112t-30 -168q0 -106 32 -178.5t96 -116t156.5 -62.5t214.5 -19zM652 272q-34 0 -61 5t-46 16.5t-28.5 32t-9.5 53.5q0 34 9 55t27 31.5t46.5 14.5t66.5 4h248v-128q-21 -24 -61.5 -43.5t-90.5 -30t-100 -10.5zM333 1240h253l125 148l123 -148h253
l-236 233h-283z" />
    <glyph glyph-name="atilde" unicode="&#xe3;" horiz-adv-x="1457" 
d="M549 -14q69 0 133 11t117.5 30t92.5 43.5t58 52.5l40 -123h375v727q0 173 -74 276t-219 149t-360 46q-111 0 -216 -16t-193 -51t-150.5 -94t-87.5 -145l441 -125q16 52 48.5 80.5t74.5 39.5t85 11q62 0 106 -13t67.5 -44.5t23.5 -88.5v-27h-363q-127 0 -221 -20
t-155.5 -63t-91.5 -112t-30 -168q0 -106 32 -178.5t96 -116t156.5 -62.5t214.5 -19zM652 272q-34 0 -61 5t-46 16.5t-28.5 32t-9.5 53.5q0 34 9 55t27 31.5t46.5 14.5t66.5 4h248v-128q-21 -24 -61.5 -43.5t-90.5 -30t-100 -10.5zM867 1237q69 0 114.5 19.5t73.5 50.5
t43 65.5t20.5 67t4.5 53.5h-213q0 -15 -7.5 -35t-25 -34t-44.5 -14q-29 0 -55 13.5t-55 32t-65.5 32t-87.5 13.5q-71 0 -119 -19t-76.5 -49t-43 -65t-19 -66.5t-5.5 -52.5h215q0 15 6 35t23 34t48 14q29 0 56 -14.5t57 -33t67 -33t88 -14.5z" />
    <glyph glyph-name="adieresis" unicode="&#xe4;" horiz-adv-x="1457" 
d="M549 -14q69 0 133 11t117.5 30t92.5 43.5t58 52.5l40 -123h375v727q0 173 -74 276t-219 149t-360 46q-111 0 -216 -16t-193 -51t-150.5 -94t-87.5 -145l441 -125q16 52 48.5 80.5t74.5 39.5t85 11q62 0 106 -13t67.5 -44.5t23.5 -88.5v-27h-363q-127 0 -221 -20
t-155.5 -63t-91.5 -112t-30 -168q0 -106 32 -178.5t96 -116t156.5 -62.5t214.5 -19zM652 272q-34 0 -61 5t-46 16.5t-28.5 32t-9.5 53.5q0 34 9 55t27 31.5t46.5 14.5t66.5 4h248v-128q-21 -24 -61.5 -43.5t-90.5 -30t-100 -10.5zM472 1242q47 0 81 34t34 82t-34 82t-81 34
q-49 0 -83 -34t-34 -82t34 -82t83 -34zM941 1242q49 0 82.5 34t33.5 82t-33.5 82t-82.5 34q-47 0 -81 -34t-34 -82t33.5 -82t81.5 -34z" />
    <glyph glyph-name="aring" unicode="&#xe5;" horiz-adv-x="1457" 
d="M549 -14q69 0 133 11t117.5 30t92.5 43.5t58 52.5l40 -123h375v727q0 173 -74 276t-219 149t-360 46q-111 0 -216 -16t-193 -51t-150.5 -94t-87.5 -145l441 -125q16 52 48.5 80.5t74.5 39.5t85 11q62 0 106 -13t67.5 -44.5t23.5 -88.5v-27h-363q-127 0 -221 -20
t-155.5 -63t-91.5 -112t-30 -168q0 -106 32 -178.5t96 -116t156.5 -62.5t214.5 -19zM652 272q-34 0 -61 5t-46 16.5t-28.5 32t-9.5 53.5q0 34 9 55t27 31.5t46.5 14.5t66.5 4h248v-128q-21 -24 -61.5 -43.5t-90.5 -30t-100 -10.5zM710 1231q87 0 145.5 59.5t58.5 146.5
q0 88 -58.5 146.5t-145.5 58.5t-145.5 -58.5t-58.5 -146.5q0 -87 58.5 -146.5t145.5 -59.5zM710 1385q-19 0 -34 15.5t-15 36.5q0 22 15 36t34 14q21 0 35 -14t14 -36q0 -21 -14 -36.5t-35 -15.5z" />
    <glyph glyph-name="ae" unicode="&#xe6;" horiz-adv-x="2314" 
d="M1332 427v273q0 230 -130.5 363.5t-478.5 133.5q-346 0 -459 -100.5t-171 -228.5l431 -127q33 120 78.5 145.5t123.5 25.5q88 0 139.5 -36.5t51.5 -136.5v-480l68 -24zM546 -14q290 0 448 84.5t174 256.5l-248 136q0 -119 -58 -162.5t-169 -43.5q-112 0 -143 27t-31 66
q0 49 38.5 71t149.5 22h226v252h-382q-216 0 -358.5 -67t-142.5 -277q0 -192 139 -278.5t357 -86.5zM1592 -12v288q-108 0 -175 54q-68 52 -68 261q0 205 65 262q66 58 170 58t162 -49q35 -36 49 -133h-484v-269h932q9 58 9 131q0 267 -139 438q-139 170 -530 170
q-380 0 -525 -166t-145 -441t146 -440q146 -164 533 -164zM1592 276v-288q202 0 310 31q109 30 193 91q83 59 109 172l-402 116q-25 -43 -49 -71q-24 -27 -60 -39t-101 -12z" />
    <glyph glyph-name="ccedilla" unicode="&#xe7;" horiz-adv-x="1365" 
d="M699 -12q333 0 456 124t148 248l-400 148q-10 -121 -65 -167t-139 -46q-81 0 -141.5 52t-60.5 243q0 193 60 245.5t142 52.5q85 0 139.5 -46t64.5 -172l400 142q-25 129 -148 257t-456 128q-382 0 -522 -161.5t-140 -445.5q0 -286 140 -444t522 -158zM712 -405
q71 0 141 15t126.5 44t90 70.5t33.5 94.5q0 69 -48.5 104.5t-132.5 35.5q-64 0 -112.5 -18.5t-73.5 -45.5l-8 -69q9 9 28.5 16.5t39.5 7.5q24 0 34 -5t10 -19q0 -20 -31 -33t-95 -13q-45 0 -86 7t-70 14l-58 -182q54 -11 109.5 -17.5t102.5 -6.5zM728 -174l65 174h-173
l-49 -161z" />
    <glyph glyph-name="egrave" unicode="&#xe8;" horiz-adv-x="1448" 
d="M725 -12v288q-108 0 -175 54q-68 52 -68 261q0 205 66 262q66 58 169 58q105 0 163 -49q34 -36 49 -133h-485v-269h932q9 58 9 131q0 267 -138 438q-140 170 -531 170q-379 0 -524 -166q-146 -166 -146 -441t147 -440q145 -164 532 -164zM725 276v-288q202 0 311 31
q108 30 192 91q84 59 110 172l-403 116q-25 -43 -48 -71q-24 -27 -61 -39q-36 -12 -101 -12zM755 1228h199l-176 245h-297z" />
    <glyph glyph-name="eacute" unicode="&#xe9;" horiz-adv-x="1448" 
d="M725 -12v288q-108 0 -175 54q-68 52 -68 261q0 205 66 262q66 58 169 58q105 0 163 -49q34 -36 49 -133h-485v-269h932q9 58 9 131q0 267 -138 438q-140 170 -531 170q-379 0 -524 -166q-146 -166 -146 -441t147 -440q145 -164 532 -164zM725 276v-288q202 0 311 31
q108 30 192 91q84 59 110 172l-403 116q-25 -43 -48 -71q-24 -27 -61 -39q-36 -12 -101 -12zM482 1228h199l273 245h-297z" />
    <glyph glyph-name="ecircumflex" unicode="&#xea;" horiz-adv-x="1448" 
d="M725 -12v288q-108 0 -175 54q-68 52 -68 261q0 205 66 262q66 58 169 58q105 0 163 -49q34 -36 49 -133h-485v-269h932q9 58 9 131q0 267 -138 438q-140 170 -531 170q-379 0 -524 -166q-146 -166 -146 -441t147 -440q145 -164 532 -164zM725 276v-288q202 0 311 31
q108 30 192 91q84 59 110 172l-403 116q-25 -43 -48 -71q-24 -27 -61 -39q-36 -12 -101 -12zM340 1239h253l125 148l123 -148h253l-236 233h-283z" />
    <glyph glyph-name="edieresis" unicode="&#xeb;" horiz-adv-x="1448" 
d="M725 -12v288q-108 0 -175 54q-68 52 -68 261q0 205 66 262q66 58 169 58q105 0 163 -49q34 -36 49 -133h-485v-269h932q9 58 9 131q0 267 -138 438q-140 170 -531 170q-379 0 -524 -166q-146 -166 -146 -441t147 -440q145 -164 532 -164zM725 276v-288q202 0 311 31
q108 30 192 91q84 59 110 172l-403 116q-25 -43 -48 -71q-24 -27 -61 -39q-36 -12 -101 -12zM480 1241q47 0 81 34t34 82t-34 82t-81 34q-49 0 -83 -34t-34 -82t34 -82t83 -34zM949 1241q49 0 82.5 34t33.5 82t-33.5 82t-82.5 34q-47 0 -81 -34t-34 -82t33.5 -82t81.5 -34z
" />
    <glyph glyph-name="igrave" unicode="&#xec;" horiz-adv-x="648" 
d="M85 0h454v1186h-454v-1186zM350 1228h199l-176 245h-297z" />
    <glyph glyph-name="iacute" unicode="&#xed;" horiz-adv-x="648" 
d="M85 0h454v1186h-454v-1186zM77 1228h199l273 245h-297z" />
    <glyph glyph-name="icircumflex" unicode="&#xee;" horiz-adv-x="648" 
d="M85 0h454v1186h-454v-1186zM-65 1239h253l125 148l123 -148h253l-236 233h-283z" />
    <glyph glyph-name="idieresis" unicode="&#xef;" horiz-adv-x="648" 
d="M85 0h454v1186h-454v-1186zM75 1241q47 0 81 34t34 82t-34 82t-81 34q-49 0 -83 -34t-34 -82t34 -82t83 -34zM544 1241q49 0 82.5 34t33.5 82t-33.5 82t-82.5 34q-47 0 -81 -34t-34 -82t33.5 -82t81.5 -34z" />
    <glyph glyph-name="eth" unicode="&#xf0;" horiz-adv-x="1452" 
d="M720 -9q392 0 531.5 170t139.5 441q0 212 -177.5 403t-513.5 191q-392 0 -523 -166.5t-131 -432.5t141 -436t533 -170zM720 299q-107 0 -165 57.5t-58 240.5t58 242t165 59t163.5 -59t56.5 -242t-56.5 -240.5t-163.5 -57.5zM1391 644q0 98 -20 198.5t-62 187.5t-105 140
q-51 107 -130.5 185.5t-184 129.5t-234 77t-282.5 29l-91 -259q153 1 269 -15.5t199 -52.5t134.5 -94.5t76 -145t24.5 -202.5zM695 1214l200 391l-235 43l-209 -396z" />
    <glyph glyph-name="ntilde" unicode="&#xf1;" horiz-adv-x="1429" 
d="M74 0h451v1011l-104 175h-347v-1186zM872 0h451v594q0 262 -90.5 431.5t-338.5 169.5q-271 0 -437.5 -172.5t-166.5 -339.5l220 -86q0 133 62 211.5t149 78.5q78 0 114.5 -55.5t36.5 -245.5v-586zM869 1236q69 0 114.5 19.5t73.5 50.5t43 65.5t20.5 67t4.5 53.5h-213
q0 -15 -7.5 -35t-25 -34t-44.5 -14q-29 0 -55 13.5t-55 32t-65.5 32t-87.5 13.5q-71 0 -119 -19t-76.5 -49t-43 -65t-19 -66.5t-5.5 -52.5h215q0 15 6 35t23 34t48 14q29 0 56 -14.5t57 -33t67 -33t88 -14.5z" />
    <glyph glyph-name="ograve" unicode="&#xf2;" horiz-adv-x="1452" 
d="M719 -9q378 0 525 165t147 443q0 279 -147 440t-525 161q-377 0 -524.5 -161t-147.5 -440q0 -278 147.5 -443t524.5 -165zM719 294q-97 0 -159 53.5t-62 249.5t62 248t159 52q98 0 159.5 -52t61.5 -248t-61.5 -249.5t-159.5 -53.5zM757 1229h199l-176 245h-297z" />
    <glyph glyph-name="oacute" unicode="&#xf3;" horiz-adv-x="1452" 
d="M719 -9q378 0 525 165t147 443q0 279 -147 440t-525 161q-377 0 -524.5 -161t-147.5 -440q0 -278 147.5 -443t524.5 -165zM719 294q-97 0 -159 53.5t-62 249.5t62 248t159 52q98 0 159.5 -52t61.5 -248t-61.5 -249.5t-159.5 -53.5zM483 1229h199l273 245h-297z" />
    <glyph glyph-name="ocircumflex" unicode="&#xf4;" horiz-adv-x="1452" 
d="M719 -9q378 0 525 165t147 443q0 279 -147 440t-525 161q-377 0 -524.5 -161t-147.5 -440q0 -278 147.5 -443t524.5 -165zM719 294q-97 0 -159 53.5t-62 249.5t62 248t159 52q98 0 159.5 -52t61.5 -248t-61.5 -249.5t-159.5 -53.5zM342 1240h253l125 148l123 -148h253
l-236 233h-283z" />
    <glyph glyph-name="otilde" unicode="&#xf5;" horiz-adv-x="1452" 
d="M719 -9q378 0 525 165t147 443q0 279 -147 440t-525 161q-377 0 -524.5 -161t-147.5 -440q0 -278 147.5 -443t524.5 -165zM719 294q-97 0 -159 53.5t-62 249.5t62 248t159 52q98 0 159.5 -52t61.5 -248t-61.5 -249.5t-159.5 -53.5zM876 1237q69 0 114.5 19.5t73.5 50.5
t43 65.5t20.5 67t4.5 53.5h-213q0 -15 -7.5 -35t-25 -34t-44.5 -14q-29 0 -55 13.5t-55 32t-65.5 32t-87.5 13.5q-71 0 -119 -19t-76.5 -49t-43 -65t-19 -66.5t-5.5 -52.5h215q0 15 6 35t23 34t48 14q29 0 56 -14.5t57 -33t67 -33t88 -14.5z" />
    <glyph glyph-name="odieresis" unicode="&#xf6;" horiz-adv-x="1452" 
d="M719 -9q378 0 525 165t147 443q0 279 -147 440t-525 161q-377 0 -524.5 -161t-147.5 -440q0 -278 147.5 -443t524.5 -165zM719 294q-97 0 -159 53.5t-62 249.5t62 248t159 52q98 0 159.5 -52t61.5 -248t-61.5 -249.5t-159.5 -53.5zM482 1242q47 0 81 34t34 82t-34 82
t-81 34q-49 0 -83 -34t-34 -82t34 -82t83 -34zM951 1242q49 0 82.5 34t33.5 82t-33.5 82t-82.5 34q-47 0 -81 -34t-34 -82t33.5 -82t81.5 -34z" />
    <glyph glyph-name="divide" unicode="&#xf7;" horiz-adv-x="673" 
d="M35 347h618v262h-618v-262zM352 -37q55 0 92 39.5t37 97.5q0 55 -37 93.5t-92 38.5q-60 0 -99.5 -38.5t-39.5 -93.5q0 -58 39.5 -97.5t99.5 -39.5zM352 720q55 0 92 40.5t37 97.5q0 55 -37 93t-92 38q-60 0 -99.5 -38.5t-39.5 -92.5q0 -57 39.5 -97.5t99.5 -40.5z" />
    <glyph glyph-name="oslash" unicode="&#xf8;" horiz-adv-x="1452" 
d="M-31 27l138 -116l1340 1264l-147 104zM719 -9q378 0 525 165t147 443q0 279 -147 440t-525 161q-377 0 -524.5 -161t-147.5 -440q0 -278 147.5 -443t524.5 -165zM719 294q-97 0 -159 53.5t-62 249.5t62 248t159 52q98 0 159.5 -52t61.5 -248t-61.5 -249.5t-159.5 -53.5z
" />
    <glyph glyph-name="ugrave" unicode="&#xf9;" horiz-adv-x="1426" 
d="M981 0h345v1186h-451v-1006zM515 1186h-451v-609q0 -261 88 -423.5t341 -162.5q294 0 449.5 173t155.5 339l-221 77q0 -133 -64 -207t-152 -74q-78 0 -112 55.5t-34 246.5v585zM745 1228h199l-176 245h-297z" />
    <glyph glyph-name="uacute" unicode="&#xfa;" horiz-adv-x="1426" 
d="M981 0h345v1186h-451v-1006zM515 1186h-451v-609q0 -261 88 -423.5t341 -162.5q294 0 449.5 173t155.5 339l-221 77q0 -133 -64 -207t-152 -74q-78 0 -112 55.5t-34 246.5v585zM471 1228h199l273 245h-297z" />
    <glyph glyph-name="ucircumflex" unicode="&#xfb;" horiz-adv-x="1426" 
d="M981 0h345v1186h-451v-1006zM515 1186h-451v-609q0 -261 88 -423.5t341 -162.5q294 0 449.5 173t155.5 339l-221 77q0 -133 -64 -207t-152 -74q-78 0 -112 55.5t-34 246.5v585zM331 1239h253l125 148l123 -148h253l-236 233h-283z" />
    <glyph glyph-name="udieresis" unicode="&#xfc;" horiz-adv-x="1426" 
d="M981 0h345v1186h-451v-1006zM515 1186h-451v-609q0 -261 88 -423.5t341 -162.5q294 0 449.5 173t155.5 339l-221 77q0 -133 -64 -207t-152 -74q-78 0 -112 55.5t-34 246.5v585zM470 1241q47 0 81 34t34 82t-34 82t-81 34q-49 0 -83 -34t-34 -82t34 -82t83 -34zM939 1241
q49 0 82.5 34t33.5 82t-33.5 82t-82.5 34q-47 0 -81 -34t-34 -82t33.5 -82t81.5 -34z" />
    <glyph glyph-name="yacute" unicode="&#xfd;" horiz-adv-x="1392" 
d="M344 0h689l323 1186h-472l-195 -894h-3l-198 894h-471zM136 -469q372 0 592.5 87.5t304.5 381.5l-417 1q-30 -112 -136 -139.5t-344 -27.5v-303zM448 1228h199l273 245h-297z" />
    <glyph glyph-name="thorn" unicode="&#xfe;" horiz-adv-x="1452" 
d="M74 -400h449v1309h-449v-1309zM78 0h412l40 162v1408h-452v-1570zM904 -7q265 0 376 170t111 433t-111 431t-376 168q-228 0 -401.5 -99.5t-173.5 -231.5l201 -179q0 93 64.5 148t149.5 55q95 0 143 -54.5t48 -239.5q0 -189 -48 -242.5t-143 -53.5q-85 0 -149.5 54.5
t-64.5 151.5l-201 -182q0 -132 173.5 -230.5t401.5 -98.5z" />
    <glyph glyph-name="ydieresis" unicode="&#xff;" horiz-adv-x="1392" 
d="M344 0h689l323 1186h-472l-195 -894h-3l-198 894h-471zM136 -469q372 0 592.5 87.5t304.5 381.5l-417 1q-30 -112 -136 -139.5t-344 -27.5v-303zM447 1241q47 0 81 34t34 82t-34 82t-81 34q-49 0 -83 -34t-34 -82t34 -82t83 -34zM916 1241q49 0 82.5 34t33.5 82t-33.5 82
t-82.5 34q-47 0 -81 -34t-34 -82t33.5 -82t81.5 -34z" />
    <glyph glyph-name="Amacron" unicode="&#x100;" horiz-adv-x="1574" 
d="M54 0h470l69 289h391l68 -289h470l-413 1351h-643zM666 587l121 499h4l121 -499h-246zM406 1437h761v161h-761v-161z" />
    <glyph glyph-name="amacron" unicode="&#x101;" horiz-adv-x="1457" 
d="M549 -14q69 0 133 11t117.5 30t92.5 43.5t58 52.5l40 -123h375v727q0 173 -74 276t-219 149t-360 46q-111 0 -216 -16t-193 -51t-150.5 -94t-87.5 -145l441 -125q16 52 48.5 80.5t74.5 39.5t85 11q62 0 106 -13t67.5 -44.5t23.5 -88.5v-27h-363q-127 0 -221 -20
t-155.5 -63t-91.5 -112t-30 -168q0 -106 32 -178.5t96 -116t156.5 -62.5t214.5 -19zM652 272q-34 0 -61 5t-46 16.5t-28.5 32t-9.5 53.5q0 34 9 55t27 31.5t46.5 14.5t66.5 4h248v-128q-21 -24 -61.5 -43.5t-90.5 -30t-100 -10.5zM329 1273h761v161h-761v-161z" />
    <glyph glyph-name="Abreve" unicode="&#x102;" horiz-adv-x="1574" 
d="M54 0h470l69 289h391l68 -289h470l-413 1351h-643zM666 587l121 499h4l121 -499h-246zM787 1394q93 0 159.5 31t102 82.5t35.5 114.5h-207q0 -28 -8.5 -47t-28.5 -28t-53 -9q-29 0 -49 9t-30.5 27.5t-10.5 47.5h-208q0 -63 37 -114.5t103.5 -82.5t157.5 -31z" />
    <glyph glyph-name="abreve" unicode="&#x103;" horiz-adv-x="1457" 
d="M549 -14q69 0 133 11t117.5 30t92.5 43.5t58 52.5l40 -123h375v727q0 173 -74 276t-219 149t-360 46q-111 0 -216 -16t-193 -51t-150.5 -94t-87.5 -145l441 -125q16 52 48.5 80.5t74.5 39.5t85 11q62 0 106 -13t67.5 -44.5t23.5 -88.5v-27h-363q-127 0 -221 -20
t-155.5 -63t-91.5 -112t-30 -168q0 -106 32 -178.5t96 -116t156.5 -62.5t214.5 -19zM652 272q-34 0 -61 5t-46 16.5t-28.5 32t-9.5 53.5q0 34 9 55t27 31.5t46.5 14.5t66.5 4h248v-128q-21 -24 -61.5 -43.5t-90.5 -30t-100 -10.5zM710 1231q93 0 159.5 31t102 82.5
t35.5 114.5h-207q0 -28 -8.5 -47t-28.5 -28t-53 -9q-29 0 -49 9t-30.5 27.5t-10.5 47.5h-208q0 -63 37 -114.5t103.5 -82.5t157.5 -31z" />
    <glyph glyph-name="Aogonek" unicode="&#x104;" horiz-adv-x="1574" 
d="M54 0h470l69 289h391l68 -289h470l-413 1351h-643zM666 587l121 499h4l121 -499h-246zM1470 -420q58 0 110.5 5.5t90 13t48.5 11.5v216q-12 -5 -42.5 -13t-68 -13.5t-71.5 -5.5q-42 0 -60.5 15.5t-18.5 39.5q0 21 10 49.5t25.5 57t28.5 44.5h-215q-19 -20 -43 -56
t-41 -83t-17 -101q0 -71 38.5 -110t99 -54.5t126.5 -15.5z" />
    <glyph glyph-name="aogonek" unicode="&#x105;" horiz-adv-x="1457" 
d="M549 -14q69 0 133 11t117.5 30t92.5 43.5t58 52.5l40 -123h375v727q0 173 -74 276t-219 149t-360 46q-111 0 -216 -16t-193 -51t-150.5 -94t-87.5 -145l441 -125q16 52 48.5 80.5t74.5 39.5t85 11q62 0 106 -13t67.5 -44.5t23.5 -88.5v-27h-363q-127 0 -221 -20
t-155.5 -63t-91.5 -112t-30 -168q0 -106 32 -178.5t96 -116t156.5 -62.5t214.5 -19zM652 272q-34 0 -61 5t-46 16.5t-28.5 32t-9.5 53.5q0 34 9 55t27 31.5t46.5 14.5t66.5 4h248v-128q-21 -24 -61.5 -43.5t-90.5 -30t-100 -10.5zM1313 -420q58 0 110.5 5.5t90 13t48.5 11.5
v216q-12 -5 -42.5 -13t-68 -13.5t-71.5 -5.5q-42 0 -60.5 15.5t-18.5 39.5q0 21 10 49.5t25.5 57t28.5 44.5h-215q-19 -20 -43 -56t-41 -83t-17 -101q0 -71 38.5 -110t99 -54.5t126.5 -15.5z" />
    <glyph glyph-name="Cacute" unicode="&#x106;" horiz-adv-x="1454" 
d="M725 -8q414 0 541 179.5t127 387.5h-463q0 -171 -56 -215t-153 -44q-100 0 -163.5 52t-63.5 327q0 273 64 324.5t163 51.5q98 0 153.5 -43t55.5 -217h463q0 215 -126.5 391.5t-542.5 176.5q-410 0 -551 -183.5t-141 -500.5q0 -316 141 -501.5t552 -185.5zM483 1392h199
l273 245h-297z" />
    <glyph glyph-name="cacute" unicode="&#x107;" horiz-adv-x="1365" 
d="M699 -12q333 0 456 124t148 248l-400 148q-10 -121 -65 -167t-139 -46q-81 0 -141.5 52t-60.5 243q0 193 60 245.5t142 52.5q85 0 139.5 -46t64.5 -172l400 142q-25 129 -148 257t-456 128q-382 0 -522 -161.5t-140 -445.5q0 -286 140 -444t522 -158zM462 1228h199
l273 245h-297z" />
    <glyph glyph-name="Ccircumflex" unicode="&#x108;" horiz-adv-x="1454" 
d="M725 -8q414 0 541 179.5t127 387.5h-463q0 -171 -56 -215t-153 -44q-100 0 -163.5 52t-63.5 327q0 273 64 324.5t163 51.5q98 0 153.5 -43t55.5 -217h463q0 215 -126.5 391.5t-542.5 176.5q-410 0 -551 -183.5t-141 -500.5q0 -316 141 -501.5t552 -185.5zM343 1403h253
l125 148l123 -148h253l-236 233h-283z" />
    <glyph glyph-name="ccircumflex" unicode="&#x109;" horiz-adv-x="1365" 
d="M699 -12q333 0 456 124t148 248l-400 148q-10 -121 -65 -167t-139 -46q-81 0 -141.5 52t-60.5 243q0 193 60 245.5t142 52.5q85 0 139.5 -46t64.5 -172l400 142q-25 129 -148 257t-456 128q-382 0 -522 -161.5t-140 -445.5q0 -286 140 -444t522 -158zM320 1239h253
l125 148l123 -148h253l-236 233h-283z" />
    <glyph glyph-name="Cdotaccent" unicode="&#x10a;" horiz-adv-x="1454" 
d="M725 -8q414 0 541 179.5t127 387.5h-463q0 -171 -56 -215t-153 -44q-100 0 -163.5 52t-63.5 327q0 273 64 324.5t163 51.5q98 0 153.5 -43t55.5 -217h463q0 215 -126.5 391.5t-542.5 176.5q-410 0 -551 -183.5t-141 -500.5q0 -316 141 -501.5t552 -185.5zM720 1392
q50 0 85.5 35.5t35.5 85.5t-35 85.5t-86 35.5q-50 0 -85.5 -35.5t-35.5 -85.5t35.5 -85.5t85.5 -35.5z" />
    <glyph glyph-name="cdotaccent" unicode="&#x10b;" horiz-adv-x="1365" 
d="M699 -12q333 0 456 124t148 248l-400 148q-10 -121 -65 -167t-139 -46q-81 0 -141.5 52t-60.5 243q0 193 60 245.5t142 52.5q85 0 139.5 -46t64.5 -172l400 142q-25 129 -148 257t-456 128q-382 0 -522 -161.5t-140 -445.5q0 -286 140 -444t522 -158zM697 1228
q50 0 85.5 35.5t35.5 85.5t-35 85.5t-86 35.5q-50 0 -85.5 -35.5t-35.5 -85.5t35.5 -85.5t85.5 -35.5z" />
    <glyph glyph-name="Ccaron" unicode="&#x10c;" horiz-adv-x="1454" 
d="M725 -8q414 0 541 179.5t127 387.5h-463q0 -171 -56 -215t-153 -44q-100 0 -163.5 52t-63.5 327q0 273 64 324.5t163 51.5q98 0 153.5 -43t55.5 -217h463q0 215 -126.5 391.5t-542.5 176.5q-410 0 -551 -183.5t-141 -500.5q0 -316 141 -501.5t552 -185.5zM578 1393h283
l236 233h-253l-124 -147l-124 147h-253z" />
    <glyph glyph-name="ccaron" unicode="&#x10d;" horiz-adv-x="1365" 
d="M699 -12q333 0 456 124t148 248l-400 148q-10 -121 -65 -167t-139 -46q-81 0 -141.5 52t-60.5 243q0 193 60 245.5t142 52.5q85 0 139.5 -46t64.5 -172l400 142q-25 129 -148 257t-456 128q-382 0 -522 -161.5t-140 -445.5q0 -286 140 -444t522 -158zM555 1229h283
l236 233h-253l-124 -147l-124 147h-253z" />
    <glyph glyph-name="Dcaron" unicode="&#x10e;" horiz-adv-x="1455" 
d="M76 0h802q302 0 414.5 154.5t112.5 521.5t-112 520.5t-415 153.5h-802v-1350zM532 308v734h221q103 0 149.5 -48.5t46.5 -317.5q0 -270 -46.5 -319t-149.5 -49h-221zM595 1393h283l236 233h-253l-124 -147l-124 147h-253z" />
    <glyph glyph-name="dcaron" unicode="&#x10f;" horiz-adv-x="1788" 
d="M1432 1166h268l88 404h-288zM938 0h420v1570h-450v-1408zM534 -7q228 0 401.5 98.5t173.5 230.5l-201 182q0 -95 -64.5 -150.5t-149.5 -55.5q-95 0 -143 54.5t-48 241.5q0 185 48 239.5t143 54.5q85 0 149.5 -55t64.5 -148l201 179q0 132 -173.5 231.5t-401.5 99.5
q-265 0 -376 -168t-111 -431t111 -433t376 -170z" />
    <glyph glyph-name="Dcroat" unicode="&#x110;" horiz-adv-x="1503" 
d="M-20 529h775v294h-775v-294zM124 0h802q302 0 414.5 154.5t112.5 521.5t-112 520.5t-415 153.5h-802v-1350zM580 308v734h221q103 0 149.5 -48.5t46.5 -317.5q0 -270 -46.5 -319t-149.5 -49h-221z" />
    <glyph glyph-name="dcroat" unicode="&#x111;" horiz-adv-x="1465" 
d="M549 1268h930v211h-930v-211zM938 0h420v1570h-450v-1408zM534 -7q228 0 401.5 98.5t173.5 230.5l-201 182q0 -95 -64.5 -150.5t-149.5 -55.5q-95 0 -143 54.5t-48 241.5q0 185 48 239.5t143 54.5q85 0 149.5 -55t64.5 -148l201 179q0 132 -173.5 231.5t-401.5 99.5
q-265 0 -376 -168t-111 -431t111 -433t376 -170z" />
    <glyph glyph-name="Emacron" unicode="&#x112;" horiz-adv-x="1213" 
d="M66 0h1068v308h-611v224h560v293h-560v217h611v308h-1068v-1350zM211 1437h761v161h-761v-161z" />
    <glyph glyph-name="emacron" unicode="&#x113;" horiz-adv-x="1448" 
d="M725 -12v288q-108 0 -175 54q-68 52 -68 261q0 205 66 262q66 58 169 58q105 0 163 -49q34 -36 49 -133h-485v-269h932q9 58 9 131q0 267 -138 438q-140 170 -531 170q-379 0 -524 -166q-146 -166 -146 -441t147 -440q145 -164 532 -164zM725 276v-288q202 0 311 31
q108 30 192 91q84 59 110 172l-403 116q-25 -43 -48 -71q-24 -27 -61 -39q-36 -12 -101 -12zM337 1273h761v161h-761v-161z" />
    <glyph glyph-name="Ebreve" unicode="&#x114;" horiz-adv-x="1213" 
d="M66 0h1068v308h-611v224h560v293h-560v217h611v308h-1068v-1350zM592 1394q93 0 159.5 31t102 82.5t35.5 114.5h-207q0 -28 -8.5 -47t-28.5 -28t-53 -9q-29 0 -49 9t-30.5 27.5t-10.5 47.5h-208q0 -63 37 -114.5t103.5 -82.5t157.5 -31z" />
    <glyph glyph-name="ebreve" unicode="&#x115;" horiz-adv-x="1448" 
d="M725 -12v288q-108 0 -175 54q-68 52 -68 261q0 205 66 262q66 58 169 58q105 0 163 -49q34 -36 49 -133h-485v-269h932q9 58 9 131q0 267 -138 438q-140 170 -531 170q-379 0 -524 -166q-146 -166 -146 -441t147 -440q145 -164 532 -164zM725 276v-288q202 0 311 31
q108 30 192 91q84 59 110 172l-403 116q-25 -43 -48 -71q-24 -27 -61 -39q-36 -12 -101 -12zM718 1230q93 0 159.5 31t102 82.5t35.5 114.5h-207q0 -28 -8.5 -47t-28.5 -28t-53 -9q-29 0 -49 9t-30.5 27.5t-10.5 47.5h-208q0 -63 37 -114.5t103.5 -82.5t157.5 -31z" />
    <glyph glyph-name="Edotaccent" unicode="&#x116;" horiz-adv-x="1213" 
d="M66 0h1068v308h-611v224h560v293h-560v217h611v308h-1068v-1350zM592 1392q50 0 85.5 35.5t35.5 85.5t-35 85.5t-86 35.5q-50 0 -85.5 -35.5t-35.5 -85.5t35.5 -85.5t85.5 -35.5z" />
    <glyph glyph-name="edotaccent" unicode="&#x117;" horiz-adv-x="1448" 
d="M725 -12v288q-108 0 -175 54q-68 52 -68 261q0 205 66 262q66 58 169 58q105 0 163 -49q34 -36 49 -133h-485v-269h932q9 58 9 131q0 267 -138 438q-140 170 -531 170q-379 0 -524 -166q-146 -166 -146 -441t147 -440q145 -164 532 -164zM725 276v-288q202 0 311 31
q108 30 192 91q84 59 110 172l-403 116q-25 -43 -48 -71q-24 -27 -61 -39q-36 -12 -101 -12zM717 1228q50 0 85.5 35.5t35.5 85.5t-35 85.5t-86 35.5q-50 0 -85.5 -35.5t-35.5 -85.5t35.5 -85.5t85.5 -35.5z" />
    <glyph glyph-name="Eogonek" unicode="&#x118;" horiz-adv-x="1213" 
d="M66 0h1068v308h-611v224h560v293h-560v217h611v308h-1068v-1350zM869 -420q58 0 110.5 5.5t90 13t48.5 11.5v216q-12 -5 -42.5 -13t-68 -13.5t-71.5 -5.5q-42 0 -60.5 15.5t-18.5 39.5q0 21 10 49.5t25.5 57t28.5 44.5h-215q-19 -20 -43 -56t-41 -83t-17 -101
q0 -71 38.5 -110t99 -54.5t126.5 -15.5z" />
    <glyph glyph-name="eogonek" unicode="&#x119;" horiz-adv-x="1448" 
d="M725 -12v288q-108 0 -175 54q-68 52 -68 261q0 205 66 262q66 58 169 58q105 0 163 -49q34 -36 49 -133h-485v-269h932q9 58 9 131q0 267 -138 438q-140 170 -531 170q-379 0 -524 -166q-146 -166 -146 -441t147 -440q145 -164 532 -164zM725 276v-288q202 0 311 31
q108 30 192 91q84 59 110 172l-403 116q-25 -43 -48 -71q-24 -27 -61 -39q-36 -12 -101 -12zM1118 -363q58 0 110.5 5.5t90 13t48.5 11.5v216q-12 -5 -42.5 -13t-68 -13.5t-71.5 -5.5q-42 0 -60.5 15.5t-18.5 39.5q0 21 10 49.5t25.5 57t28.5 44.5h-215q-19 -20 -43 -56
t-41 -83t-17 -101q0 -71 38.5 -110t99 -54.5t126.5 -15.5z" />
    <glyph glyph-name="Ecaron" unicode="&#x11a;" horiz-adv-x="1213" 
d="M66 0h1068v308h-611v224h560v293h-560v217h611v308h-1068v-1350zM450 1393h283l236 233h-253l-124 -147l-124 147h-253z" />
    <glyph glyph-name="ecaron" unicode="&#x11b;" horiz-adv-x="1448" 
d="M725 -12v288q-108 0 -175 54q-68 52 -68 261q0 205 66 262q66 58 169 58q105 0 163 -49q34 -36 49 -133h-485v-269h932q9 58 9 131q0 267 -138 438q-140 170 -531 170q-379 0 -524 -166q-146 -166 -146 -441t147 -440q145 -164 532 -164zM725 276v-288q202 0 311 31
q108 30 192 91q84 59 110 172l-403 116q-25 -43 -48 -71q-24 -27 -61 -39q-36 -12 -101 -12zM575 1229h283l236 233h-253l-124 -147l-124 147h-253z" />
    <glyph glyph-name="Gcircumflex" unicode="&#x11c;" horiz-adv-x="1506" 
d="M696 -8q298 1 400 145l52 -137h254v739h-643v-266h178l-1 -3q-12 -106 -54 -138.5t-142 -32.5q-109 0 -171.5 68t-62.5 298q0 285 62.5 338t167.5 53q101 0 149 -30.5t60 -166.5h457q-10 186 -149.5 345t-517.5 159q-407 0 -548 -179.5t-141 -503.5q0 -318 136 -503
t514 -185zM353 1403h253l125 148l123 -148h253l-236 233h-283z" />
    <glyph glyph-name="gcircumflex" unicode="&#x11d;" horiz-adv-x="1468" 
d="M693 -473q211 0 344.5 48.5t229 171.5t95.5 343v1096h-329l-124 -226v-918q0 -165 -56.5 -198t-144.5 -33q-52 0 -94.5 14.5t-68 49.5t-31.5 83h-440q26 -237 206 -334t413 -97zM539 -7q228 0 399.5 98.5t171.5 230.5l-202 182q0 -95 -64.5 -150.5t-149.5 -55.5
q-95 0 -143 54.5t-48 241.5q0 185 48 239.5t143 54.5q85 0 149.5 -55t64.5 -148l201 169q0 132 -173.5 236.5t-401.5 104.5q-265 0 -376 -168t-111 -431t113.5 -433t378.5 -170zM341 1239h253l125 148l123 -148h253l-236 233h-283z" />
    <glyph glyph-name="Gbreve" unicode="&#x11e;" horiz-adv-x="1506" 
d="M696 -8q298 1 400 145l52 -137h254v739h-643v-266h178l-1 -3q-12 -106 -54 -138.5t-142 -32.5q-109 0 -171.5 68t-62.5 298q0 285 62.5 338t167.5 53q101 0 149 -30.5t60 -166.5h457q-10 186 -149.5 345t-517.5 159q-407 0 -548 -179.5t-141 -503.5q0 -318 136 -503
t514 -185zM730 1394q93 0 159.5 31t102 82.5t35.5 114.5h-207q0 -28 -8.5 -47t-28.5 -28t-53 -9q-29 0 -49 9t-30.5 27.5t-10.5 47.5h-208q0 -63 37 -114.5t103.5 -82.5t157.5 -31z" />
    <glyph glyph-name="gbreve" unicode="&#x11f;" horiz-adv-x="1468" 
d="M693 -473q211 0 344.5 48.5t229 171.5t95.5 343v1096h-329l-124 -226v-918q0 -165 -56.5 -198t-144.5 -33q-52 0 -94.5 14.5t-68 49.5t-31.5 83h-440q26 -237 206 -334t413 -97zM539 -7q228 0 399.5 98.5t171.5 230.5l-202 182q0 -95 -64.5 -150.5t-149.5 -55.5
q-95 0 -143 54.5t-48 241.5q0 185 48 239.5t143 54.5q85 0 149.5 -55t64.5 -148l201 169q0 132 -173.5 236.5t-401.5 104.5q-265 0 -376 -168t-111 -431t113.5 -433t378.5 -170zM719 1230q93 0 159.5 31t102 82.5t35.5 114.5h-207q0 -28 -8.5 -47t-28.5 -28t-53 -9
q-29 0 -49 9t-30.5 27.5t-10.5 47.5h-208q0 -63 37 -114.5t103.5 -82.5t157.5 -31z" />
    <glyph glyph-name="Gdotaccent" unicode="&#x120;" horiz-adv-x="1506" 
d="M696 -8q298 1 400 145l52 -137h254v739h-643v-266h178l-1 -3q-12 -106 -54 -138.5t-142 -32.5q-109 0 -171.5 68t-62.5 298q0 285 62.5 338t167.5 53q101 0 149 -30.5t60 -166.5h457q-10 186 -149.5 345t-517.5 159q-407 0 -548 -179.5t-141 -503.5q0 -318 136 -503
t514 -185zM730 1392q50 0 85.5 35.5t35.5 85.5t-35 85.5t-86 35.5q-50 0 -85.5 -35.5t-35.5 -85.5t35.5 -85.5t85.5 -35.5z" />
    <glyph glyph-name="gdotaccent" unicode="&#x121;" horiz-adv-x="1468" 
d="M693 -473q211 0 344.5 48.5t229 171.5t95.5 343v1096h-329l-124 -226v-918q0 -165 -56.5 -198t-144.5 -33q-52 0 -94.5 14.5t-68 49.5t-31.5 83h-440q26 -237 206 -334t413 -97zM539 -7q228 0 399.5 98.5t171.5 230.5l-202 182q0 -95 -64.5 -150.5t-149.5 -55.5
q-95 0 -143 54.5t-48 241.5q0 185 48 239.5t143 54.5q85 0 149.5 -55t64.5 -148l201 169q0 132 -173.5 236.5t-401.5 104.5q-265 0 -376 -168t-111 -431t113.5 -433t378.5 -170zM718 1228q50 0 85.5 35.5t35.5 85.5t-35 85.5t-86 35.5q-50 0 -85.5 -35.5t-35.5 -85.5
t35.5 -85.5t85.5 -35.5z" />
    <glyph glyph-name="uni0122" unicode="&#x122;" horiz-adv-x="1506" 
d="M696 -8q298 1 400 145l52 -137h254v739h-643v-266h178l-1 -3q-12 -106 -54 -138.5t-142 -32.5q-109 0 -171.5 68t-62.5 298q0 285 62.5 338t167.5 53q101 0 149 -30.5t60 -166.5h457q-10 186 -149.5 345t-517.5 159q-407 0 -548 -179.5t-141 -503.5q0 -318 136 -503
t514 -185zM562 -357h151l145 304h-243z" />
    <glyph glyph-name="uni0123" unicode="&#x123;" horiz-adv-x="1468" 
d="M693 -473q211 0 344.5 48.5t229 171.5t95.5 343v1096h-329l-124 -226v-918q0 -165 -56.5 -198t-144.5 -33q-52 0 -94.5 14.5t-68 49.5t-31.5 83h-440q26 -237 206 -334t413 -97zM539 -7q228 0 399.5 98.5t171.5 230.5l-202 182q0 -95 -64.5 -150.5t-149.5 -55.5
q-95 0 -143 54.5t-48 241.5q0 185 48 239.5t143 54.5q85 0 149.5 -55t64.5 -148l201 169q0 132 -173.5 236.5t-401.5 104.5q-265 0 -376 -168t-111 -431t113.5 -433t378.5 -170zM614 1273h192l42 242h-119z" />
    <glyph glyph-name="Hcircumflex" unicode="&#x124;" horiz-adv-x="1499" 
d="M76 0h457v506h405v-506h457v1350h-457v-536h-405v536h-457v-1350zM364 1403h253l125 148l123 -148h253l-236 233h-283z" />
    <glyph glyph-name="hcircumflex" unicode="&#x125;" horiz-adv-x="1437" 
d="M74 0h452v1570h-452v-1570zM880 0h451v609q0 262 -90.5 424t-338.5 162q-271 0 -437.5 -172.5t-166.5 -339.5l220 -86q0 133 62 211.5t149 78.5q78 0 114.5 -55.5t36.5 -245.5v-586zM459 1550h253l125 148l123 -148h253l-236 233h-283z" />
    <glyph glyph-name="Hbar" unicode="&#x126;" horiz-adv-x="1521" 
d="M32 1026h1440v159h-1440v-159zM92 0h457v506h405v-506h457v1350h-457v-536h-405v536h-457v-1350z" />
    <glyph glyph-name="hbar" unicode="&#x127;" horiz-adv-x="1422" 
d="M-15 1268h932v211h-932v-211zM74 0h452v1570h-452v-1570zM880 0h451v609q0 262 -90 424t-339 162q-271 0 -437.5 -172.5t-166.5 -339.5l220 -86q0 133 62 211.5t149 78.5q78 0 114.5 -55.5t36.5 -245.5v-586z" />
    <glyph glyph-name="Itilde" unicode="&#x128;" horiz-adv-x="700" 
d="M118 0h455v1350h-455v-1350zM502 1400q69 0 114.5 19.5t73.5 50.5t43 65.5t20.5 67t4.5 53.5h-213q0 -15 -7.5 -35t-25 -34t-44.5 -14q-29 0 -55 13.5t-55 32t-65.5 32t-87.5 13.5q-71 0 -119 -19t-76.5 -49t-43 -65t-19 -66.5t-5.5 -52.5h215q0 15 6 35t23 34t48 14
q29 0 56 -14.5t57 -33t67 -33t88 -14.5z" />
    <glyph glyph-name="itilde" unicode="&#x129;" horiz-adv-x="648" 
d="M85 0h454v1186h-454v-1186zM469 1236q69 0 114.5 19.5t73.5 50.5t43 65.5t20.5 67t4.5 53.5h-213q0 -15 -7.5 -35t-25 -34t-44.5 -14q-29 0 -55 13.5t-55 32t-65.5 32t-87.5 13.5q-71 0 -119 -19t-76.5 -49t-43 -65t-19 -66.5t-5.5 -52.5h215q0 15 6 35t23 34t48 14
q29 0 56 -14.5t57 -33t67 -33t88 -14.5z" />
    <glyph glyph-name="Imacron" unicode="&#x12a;" horiz-adv-x="700" 
d="M118 0h455v1350h-455v-1350zM-35 1437h761v161h-761v-161z" />
    <glyph glyph-name="imacron" unicode="&#x12b;" horiz-adv-x="648" 
d="M17 1273h590v161h-590v-161zM85 0h454v1186h-454v-1186z" />
    <glyph glyph-name="Ibreve" unicode="&#x12c;" horiz-adv-x="700" 
d="M118 0h455v1350h-455v-1350zM346 1394q93 0 159.5 31t102 82.5t35.5 114.5h-207q0 -28 -8.5 -47t-28.5 -28t-53 -9q-29 0 -49 9t-30.5 27.5t-10.5 47.5h-208q0 -63 37 -114.5t103.5 -82.5t157.5 -31z" />
    <glyph glyph-name="ibreve" unicode="&#x12d;" horiz-adv-x="648" 
d="M85 0h454v1186h-454v-1186zM313 1230q93 0 159.5 31t102 82.5t35.5 114.5h-207q0 -28 -8.5 -47t-28.5 -28t-53 -9q-29 0 -49 9t-30.5 27.5t-10.5 47.5h-208q0 -63 37 -114.5t103.5 -82.5t157.5 -31z" />
    <glyph glyph-name="Iogonek" unicode="&#x12e;" horiz-adv-x="700" 
d="M118 0h455v1350h-455v-1350zM521 -420q58 0 110.5 5.5t90 13t48.5 11.5v216q-12 -5 -42.5 -13t-68 -13.5t-71.5 -5.5q-42 0 -60.5 15.5t-18.5 39.5q0 21 10 49.5t25.5 57t28.5 44.5h-215q-19 -20 -43 -56t-41 -83t-17 -101q0 -71 38.5 -110t99 -54.5t126.5 -15.5z" />
    <glyph glyph-name="iogonek" unicode="&#x12f;" horiz-adv-x="648" 
d="M88 1570v-283h453v283h-453zM85 0h454v1186h-454v-1186zM487 -420q58 0 110.5 5.5t90 13t48.5 11.5v216q-12 -5 -42.5 -13t-68 -13.5t-71.5 -5.5q-42 0 -60.5 15.5t-18.5 39.5q0 21 10 49.5t25.5 57t28.5 44.5h-215q-19 -20 -43 -56t-41 -83t-17 -101q0 -71 38.5 -110
t99 -54.5t126.5 -15.5z" />
    <glyph glyph-name="Idotaccent" unicode="&#x130;" horiz-adv-x="700" 
d="M118 0h455v1350h-455v-1350zM345 1392q50 0 85.5 35.5t35.5 85.5t-35 85.5t-86 35.5q-50 0 -85.5 -35.5t-35.5 -85.5t35.5 -85.5t85.5 -35.5z" />
    <glyph glyph-name="dotlessi" unicode="&#x131;" horiz-adv-x="648" 
d="M85 0h454v1186h-454v-1186z" />
    <glyph glyph-name="IJ" unicode="&#x132;" horiz-adv-x="2155" 
d="M118 0h455v1350h-455v-1350zM1404 -11q328 0 491.5 103.5t163.5 300.5v957h-455v-891q0 -83 -42 -124.5t-159 -41.5q-118 0 -157.5 46t-39.5 132v134h-456v-186q0 -219 165 -324.5t489 -105.5z" />
    <glyph glyph-name="ij" unicode="&#x133;" horiz-adv-x="1358" 
d="M96 0h453v1186h-453v-1186zM96 1570v-283h453v283h-453zM530 -460q350 0 532 112t182 453v1081h-451v-1099q0 -150 -68.5 -193.5t-194.5 -43.5v-310zM793 1570v-283h452v283h-452z" />
    <glyph glyph-name="Jcircumflex" unicode="&#x134;" horiz-adv-x="1455" 
d="M704 -11q328 0 491.5 103.5t163.5 300.5v957h-455v-891q0 -83 -42 -124.5t-159 -41.5q-118 0 -157.5 46t-39.5 132v134h-456v-186q0 -219 165 -324.5t489 -105.5zM767 1403h253l125 148l123 -148h253l-236 233h-283z" />
    <glyph glyph-name="jcircumflex" unicode="&#x135;" horiz-adv-x="695" 
d="M-133 -460q350 0 532 112t182 453v1081h-451v-1099q0 -150 -68.5 -193.5t-194.5 -43.5v-310zM-27 1239h253l125 148l123 -148h253l-236 233h-283z" />
    <glyph glyph-name="uni0136" unicode="&#x136;" horiz-adv-x="1407" 
d="M76 0h454v553l353 -553h508l-450 674l449 676h-508l-352 -554v554h-454v-1350zM524 -358h151l145 304h-243z" />
    <glyph glyph-name="uni0137" unicode="&#x137;" horiz-adv-x="1393" 
d="M669 455l198 -455h481l-373 764zM74 0h451v323l160 134l287 280l369 449h-523l-293 -369v753h-451v-1570zM540 -358h151l145 304h-243z" />
    <glyph glyph-name="kgreenlandic" unicode="&#x138;" horiz-adv-x="1404" 
d="M73 0h454v1186h-454v-1186zM449 581l495 6l443 599h-508zM878 0h508l-442 595l-495 8z" />
    <glyph glyph-name="Lacute" unicode="&#x139;" horiz-adv-x="1106" 
d="M76 0h968v306h-511v1044h-457v-1350zM319 1392h199l273 245h-297z" />
    <glyph glyph-name="lacute" unicode="&#x13a;" horiz-adv-x="665" 
d="M102 0h452v1570h-452v-1570zM92 1612h199l273 245h-297z" />
    <glyph glyph-name="uni013B" unicode="&#x13b;" horiz-adv-x="1106" 
d="M76 0h968v306h-511v1044h-457v-1350zM387 -358h151l145 304h-243z" />
    <glyph glyph-name="uni013C" unicode="&#x13c;" horiz-adv-x="665" 
d="M102 0h452v1570h-452v-1570zM160 -358h151l145 304h-243z" />
    <glyph glyph-name="Lcaron" unicode="&#x13d;" horiz-adv-x="1199" 
d="M895 950h268l125 398h-289zM76 0h968v306h-511v1044h-457v-1350z" />
    <glyph glyph-name="lcaron" unicode="&#x13e;" horiz-adv-x="665" 
d="M102 0h452v1570h-452v-1570zM186 1613h283l236 233h-253l-124 -147l-124 147h-253z" />
    <glyph glyph-name="Ldot" unicode="&#x13f;" horiz-adv-x="1209" 
d="M76 0h968v306h-511v1044h-457v-1350zM683 830v-300h423v300h-423z" />
    <glyph glyph-name="ldot" unicode="&#x140;" horiz-adv-x="1054" 
d="M102 0h452v1570h-452v-1570zM613 786v-300h423v300h-423z" />
    <glyph glyph-name="Lslash" unicode="&#x141;" horiz-adv-x="1205" 
d="M77 374l780 398l-103 224l-780 -397zM168 0h968v306h-511v1044h-457v-1350z" />
    <glyph glyph-name="lslash" unicode="&#x142;" horiz-adv-x="691" 
d="M-10 301l712 340v343l-712 -340v-343zM124 0h452v1570h-452v-1570z" />
    <glyph glyph-name="Nacute" unicode="&#x143;" horiz-adv-x="1738" 
d="M76 0h454v1029h5l382 -1029h717v1350h-455l-4 -1005h-3l-372 1005h-724v-1350zM627 1392h199l273 245h-297z" />
    <glyph glyph-name="nacute" unicode="&#x144;" horiz-adv-x="1429" 
d="M74 0h451v1011l-104 175h-347v-1186zM872 0h451v594q0 262 -90.5 431.5t-338.5 169.5q-271 0 -437.5 -172.5t-166.5 -339.5l220 -86q0 133 62 211.5t149 78.5q78 0 114.5 -55.5t36.5 -245.5v-586zM476 1228h199l273 245h-297z" />
    <glyph glyph-name="uni0145" unicode="&#x145;" horiz-adv-x="1738" 
d="M76 0h454v1029h5l382 -1029h717v1350h-455l-4 -1005h-3l-372 1005h-724v-1350zM696 -358h151l145 304h-243z" />
    <glyph glyph-name="uni0146" unicode="&#x146;" horiz-adv-x="1429" 
d="M74 0h451v1011l-104 175h-347v-1186zM872 0h451v594q0 262 -90.5 431.5t-338.5 169.5q-271 0 -437.5 -172.5t-166.5 -339.5l220 -86q0 133 62 211.5t149 78.5q78 0 114.5 -55.5t36.5 -245.5v-586zM544 -358h151l145 304h-243z" />
    <glyph glyph-name="Ncaron" unicode="&#x147;" horiz-adv-x="1738" 
d="M76 0h454v1029h5l382 -1029h717v1350h-455l-4 -1005h-3l-372 1005h-724v-1350zM721 1393h283l236 233h-253l-124 -147l-124 147h-253z" />
    <glyph glyph-name="ncaron" unicode="&#x148;" horiz-adv-x="1429" 
d="M74 0h451v1011l-104 175h-347v-1186zM872 0h451v594q0 262 -90.5 431.5t-338.5 169.5q-271 0 -437.5 -172.5t-166.5 -339.5l220 -86q0 133 62 211.5t149 78.5q78 0 114.5 -55.5t36.5 -245.5v-586zM570 1229h283l236 233h-253l-124 -147l-124 147h-253z" />
    <glyph glyph-name="Eng" unicode="&#x14a;" horiz-adv-x="1738" 
d="M845 -465q155 0 297 20t252.5 70.5t174.5 142t64 232.5h-471q1 -43 -12.5 -75t-49 -53t-97.5 -31.5t-158 -10.5v-295zM76 0h454v1029h5l382 -1029h717v1350h-455l-4 -1005h-3l-372 1005h-724v-1350z" />
    <glyph glyph-name="eng" unicode="&#x14b;" horiz-adv-x="1429" 
d="M644 -446q164 0 290.5 24t213 76.5t131 137.5t44.5 208h-451q0 -62 -31 -99t-82.5 -52t-114.5 -15v-280zM74 0h451v1011l-104 175h-347v-1186zM872 0h451v594q0 262 -90.5 431.5t-338.5 169.5q-271 0 -437.5 -172.5t-166.5 -339.5l220 -86q0 133 62 211.5t149 78.5
q78 0 114.5 -55.5t36.5 -245.5v-586z" />
    <glyph glyph-name="Omacron" unicode="&#x14c;" horiz-adv-x="1498" 
d="M747 -12q410 0 556 181.5t146 505.5q0 325 -146 506.5t-556 181.5t-555.5 -181t-145.5 -507q0 -324 146 -505.5t555 -181.5zM747 296q-113 0 -179.5 53.5t-66.5 325.5q0 278 66.5 329t179.5 51q114 0 180.5 -51t66.5 -329q0 -272 -66.5 -325.5t-180.5 -53.5zM369 1437
h761v161h-761v-161z" />
    <glyph glyph-name="omacron" unicode="&#x14d;" horiz-adv-x="1452" 
d="M719 -9q378 0 525 165t147 443q0 279 -147 440t-525 161q-377 0 -524.5 -161t-147.5 -440q0 -278 147.5 -443t524.5 -165zM719 294q-97 0 -159 53.5t-62 249.5t62 248t159 52q98 0 159.5 -52t61.5 -248t-61.5 -249.5t-159.5 -53.5zM338 1274h761v161h-761v-161z" />
    <glyph glyph-name="Obreve" unicode="&#x14e;" horiz-adv-x="1498" 
d="M747 -12q410 0 556 181.5t146 505.5q0 325 -146 506.5t-556 181.5t-555.5 -181t-145.5 -507q0 -324 146 -505.5t555 -181.5zM747 296q-113 0 -179.5 53.5t-66.5 325.5q0 278 66.5 329t179.5 51q114 0 180.5 -51t66.5 -329q0 -272 -66.5 -325.5t-180.5 -53.5zM750 1394
q93 0 159.5 31t102 82.5t35.5 114.5h-207q0 -28 -8.5 -47t-28.5 -28t-53 -9q-29 0 -49 9t-30.5 27.5t-10.5 47.5h-208q0 -63 37 -114.5t103.5 -82.5t157.5 -31z" />
    <glyph glyph-name="obreve" unicode="&#x14f;" horiz-adv-x="1452" 
d="M719 -9q378 0 525 165t147 443q0 279 -147 440t-525 161q-377 0 -524.5 -161t-147.5 -440q0 -278 147.5 -443t524.5 -165zM719 294q-97 0 -159 53.5t-62 249.5t62 248t159 52q98 0 159.5 -52t61.5 -248t-61.5 -249.5t-159.5 -53.5zM719 1231q93 0 159.5 31t102 82.5
t35.5 114.5h-207q0 -28 -8.5 -47t-28.5 -28t-53 -9q-29 0 -49 9t-30.5 27.5t-10.5 47.5h-208q0 -63 37 -114.5t103.5 -82.5t157.5 -31z" />
    <glyph glyph-name="Ohungarumlaut" unicode="&#x150;" horiz-adv-x="1498" 
d="M747 -12q410 0 556 181.5t146 505.5q0 325 -146 506.5t-556 181.5t-555.5 -181t-145.5 -507q0 -324 146 -505.5t555 -181.5zM747 296q-113 0 -179.5 53.5t-66.5 325.5q0 278 66.5 329t179.5 51q114 0 180.5 -51t66.5 -329q0 -272 -66.5 -325.5t-180.5 -53.5zM597 1416
h196l257 221h-264zM450 1416h196l246 221h-255z" />
    <glyph glyph-name="ohungarumlaut" unicode="&#x151;" horiz-adv-x="1452" 
d="M719 -9q378 0 525 165t147 443q0 279 -147 440t-525 161q-377 0 -524.5 -161t-147.5 -440q0 -278 147.5 -443t524.5 -165zM719 294q-97 0 -159 53.5t-62 249.5t62 248t159 52q98 0 159.5 -52t61.5 -248t-61.5 -249.5t-159.5 -53.5zM567 1253h196l257 221h-264zM420 1253
h196l246 221h-255z" />
    <glyph glyph-name="OE" unicode="&#x152;" horiz-adv-x="2143" 
d="M747 -12q410 0 556 181.5t146 505.5q0 325 -146 506.5t-556 181.5t-555.5 -181t-145.5 -507q0 -324 146 -505.5t555 -181.5zM747 296q-113 0 -179.5 53.5t-66.5 325.5q0 278 66.5 329t179.5 51q114 0 180.5 -51t66.5 -329q0 -272 -66.5 -325.5t-180.5 -53.5zM996 0h1068
v308h-611v224h560v293h-560v217h611v308h-1068v-1350z" />
    <glyph glyph-name="oe" unicode="&#x153;" horiz-adv-x="2343" 
d="M719 -9q378 0 525 165t147 443q0 279 -147 440t-525 161q-377 0 -524.5 -161t-147.5 -440q0 -278 147.5 -443t524.5 -165zM719 294q-97 0 -159 53.5t-62 249.5t62 248t159 52q98 0 159.5 -52t61.5 -248t-61.5 -249.5t-159.5 -53.5zM1621 -12v288q-108 0 -175 54
q-68 52 -68 261q0 205 66 262q66 58 169 58q105 0 163 -49q34 -36 49 -133h-485v-269h932q9 58 9 131q0 267 -138 438q-140 170 -531 170q-379 0 -524 -166q-146 -166 -146 -441t147 -440q145 -164 532 -164zM1621 276v-288q202 0 311 31q108 30 192 91q84 59 110 172
l-403 116q-25 -43 -48 -71q-24 -27 -61 -39q-36 -12 -101 -12z" />
    <glyph glyph-name="Racute" unicode="&#x154;" horiz-adv-x="1449" 
d="M76 0h458v503h399q258 0 345 119t87 294q0 178 -82 306t-331 128h-876v-1350zM904 0h495l-345 637l-452 -15zM534 780v262h265q61 0 84.5 -32t23.5 -100q0 -67 -23 -98.5t-85 -31.5h-265zM477 1392h199l273 245h-297z" />
    <glyph glyph-name="racute" unicode="&#x155;" horiz-adv-x="1431" 
d="M874 575h451q0 316 -88 468.5t-351 152.5q-236 0 -385.5 -121t-149.5 -302l172 -93q0 82 52.5 145t137.5 63q73 0 117 -53t44 -260zM74 0h451v1001l-104 185h-347v-1186zM500 1228h199l273 245h-297z" />
    <glyph glyph-name="uni0156" unicode="&#x156;" horiz-adv-x="1449" 
d="M76 0h458v503h399q258 0 345 119t87 294q0 178 -82 306t-331 128h-876v-1350zM904 0h495l-345 637l-452 -15zM534 780v262h265q61 0 84.5 -32t23.5 -100q0 -67 -23 -98.5t-85 -31.5h-265zM546 -358h151l145 304h-243z" />
    <glyph glyph-name="uni0157" unicode="&#x157;" horiz-adv-x="1431" 
d="M874 575h451q0 316 -88 468.5t-351 152.5q-236 0 -385.5 -121t-149.5 -302l172 -93q0 82 52.5 145t137.5 63q73 0 117 -53t44 -260zM74 0h451v1001l-104 185h-347v-1186zM421 -358h151l145 304h-243z" />
    <glyph glyph-name="Rcaron" unicode="&#x158;" horiz-adv-x="1449" 
d="M76 0h458v503h399q258 0 345 119t87 294q0 178 -82 306t-331 128h-876v-1350zM904 0h495l-345 637l-452 -15zM534 780v262h265q61 0 84.5 -32t23.5 -100q0 -67 -23 -98.5t-85 -31.5h-265zM571 1393h283l236 233h-253l-124 -147l-124 147h-253z" />
    <glyph glyph-name="rcaron" unicode="&#x159;" horiz-adv-x="1431" 
d="M874 575h451q0 316 -88 468.5t-351 152.5q-236 0 -385.5 -121t-149.5 -302l172 -93q0 82 52.5 145t137.5 63q73 0 117 -53t44 -260zM74 0h451v1001l-104 185h-347v-1186zM595 1229h283l236 233h-253l-124 -147l-124 147h-253z" />
    <glyph glyph-name="Sacute" unicode="&#x15a;" horiz-adv-x="1474" 
d="M514 1512h199l273 245h-297zM734 -7q398 0 531 136t133 327q0 173 -106.5 242.5t-425.5 127.5q-166 28 -268 46.5t-102 91.5q0 51 64.5 72t159.5 21q83 0 151 -26t68 -148h457q0 195 -138.5 337.5t-532.5 142.5q-396 0 -533 -133.5t-137 -318.5q0 -178 110.5 -255
t417.5 -135q169 -26 267.5 -46t98.5 -84q0 -56 -64.5 -74t-154.5 -18q-89 0 -154.5 26.5t-65.5 150.5h-456q0 -208 135.5 -345.5t544.5 -137.5z" />
    <glyph glyph-name="sacute" unicode="&#x15b;" horiz-adv-x="1437" 
d="M746 -9q296 0 461.5 87.5t165.5 314.5q0 183 -143 257.5t-359 94.5q-156 18 -254.5 26.5t-98.5 60.5q0 37 40 56t126 19q95 0 170 -40.5t102 -95.5l394 145q-55 155 -228.5 217.5t-431.5 62.5q-270 0 -443 -85.5t-173 -279.5q0 -189 131 -277.5t352 -110.5
q164 -19 267.5 -26.5t103.5 -57.5q0 -40 -49 -59t-126 -19q-112 0 -189.5 39t-104.5 99l-394 -147q61 -152 244.5 -216.5t436.5 -64.5zM486 1229h199l273 245h-297z" />
    <glyph glyph-name="Scircumflex" unicode="&#x15c;" horiz-adv-x="1474" 
d="M734 -7q398 0 531 136t133 327q0 173 -106.5 242.5t-425.5 127.5q-166 28 -268 46.5t-102 91.5q0 51 64.5 72t159.5 21q83 0 151 -26t68 -148h457q0 195 -138.5 337.5t-532.5 142.5q-396 0 -533 -133.5t-137 -318.5q0 -178 110.5 -255t417.5 -135q169 -26 267.5 -46
t98.5 -84q0 -56 -64.5 -74t-154.5 -18q-89 0 -154.5 26.5t-65.5 150.5h-456q0 -208 135.5 -345.5t544.5 -137.5zM360 1403h253l125 148l123 -148h253l-236 233h-283z" />
    <glyph glyph-name="scircumflex" unicode="&#x15d;" horiz-adv-x="1437" 
d="M746 -9q296 0 461.5 87.5t165.5 314.5q0 183 -143 257.5t-359 94.5q-156 18 -254.5 26.5t-98.5 60.5q0 37 40 56t126 19q95 0 170 -40.5t102 -95.5l394 145q-55 155 -228.5 217.5t-431.5 62.5q-270 0 -443 -85.5t-173 -279.5q0 -189 131 -277.5t352 -110.5
q164 -19 267.5 -26.5t103.5 -57.5q0 -40 -49 -59t-126 -19q-112 0 -189.5 39t-104.5 99l-394 -147q61 -152 244.5 -216.5t436.5 -64.5zM345 1240h253l125 148l123 -148h253l-236 233h-283z" />
    <glyph glyph-name="Scedilla" unicode="&#x15e;" horiz-adv-x="1474" 
d="M734 -402q71 0 141 15t126.5 44t90 70.5t33.5 94.5q0 69 -48.5 104.5t-132.5 35.5q-64 0 -112.5 -18.5t-73.5 -45.5l-8 -69q9 9 28.5 16.5t39.5 7.5q24 0 34 -5t10 -19q0 -20 -31 -33t-95 -13q-45 0 -86 7t-70 14l-58 -182q54 -11 109.5 -17.5t102.5 -6.5zM750 -171
l65 174h-173l-49 -161zM734 -7q398 0 531 136t133 327q0 173 -106.5 242.5t-425.5 127.5q-166 28 -268 46.5t-102 91.5q0 51 64.5 72t159.5 21q83 0 151 -26t68 -148h457q0 195 -138.5 337.5t-532.5 142.5q-396 0 -533 -133.5t-137 -318.5q0 -178 110.5 -255t417.5 -135
q169 -26 267.5 -46t98.5 -84q0 -56 -64.5 -74t-154.5 -18q-89 0 -154.5 26.5t-65.5 150.5h-456q0 -208 135.5 -345.5t544.5 -137.5z" />
    <glyph glyph-name="scedilla" unicode="&#x15f;" horiz-adv-x="1437" 
d="M746 -9q296 0 461.5 87.5t165.5 314.5q0 183 -143 257.5t-359 94.5q-156 18 -254.5 26.5t-98.5 60.5q0 37 40 56t126 19q95 0 170 -40.5t102 -95.5l394 145q-55 155 -228.5 217.5t-431.5 62.5q-270 0 -443 -85.5t-173 -279.5q0 -189 131 -277.5t352 -110.5
q164 -19 267.5 -26.5t103.5 -57.5q0 -40 -49 -59t-126 -19q-112 0 -189.5 39t-104.5 99l-394 -147q61 -152 244.5 -216.5t436.5 -64.5zM732 -405q71 0 141 15t126.5 44t90 70.5t33.5 94.5q0 69 -48.5 104.5t-132.5 35.5q-64 0 -112.5 -18.5t-73.5 -45.5l-8 -69
q9 9 28.5 16.5t39.5 7.5q24 0 34 -5t10 -19q0 -20 -31 -33t-95 -13q-45 0 -86 7t-70 14l-58 -182q54 -11 109.5 -17.5t102.5 -6.5zM748 -174l65 174h-173l-49 -161z" />
    <glyph glyph-name="Scaron" unicode="&#x160;" horiz-adv-x="1474" 
d="M587 1513h283l236 233h-253l-124 -147l-124 147h-253zM734 -7q398 0 531 136t133 327q0 173 -106.5 242.5t-425.5 127.5q-166 28 -268 46.5t-102 91.5q0 51 64.5 72t159.5 21q83 0 151 -26t68 -148h457q0 195 -138.5 337.5t-532.5 142.5q-396 0 -533 -133.5t-137 -318.5
q0 -178 110.5 -255t417.5 -135q169 -26 267.5 -46t98.5 -84q0 -56 -64.5 -74t-154.5 -18q-89 0 -154.5 26.5t-65.5 150.5h-456q0 -208 135.5 -345.5t544.5 -137.5z" />
    <glyph glyph-name="scaron" unicode="&#x161;" horiz-adv-x="1437" 
d="M746 -9q296 0 461.5 87.5t165.5 314.5q0 183 -143 257.5t-359 94.5q-156 18 -254.5 26.5t-98.5 60.5q0 37 40 56t126 19q95 0 170 -40.5t102 -95.5l394 145q-55 155 -228.5 217.5t-431.5 62.5q-270 0 -443 -85.5t-173 -279.5q0 -189 131 -277.5t352 -110.5
q164 -19 267.5 -26.5t103.5 -57.5q0 -40 -49 -59t-126 -19q-112 0 -189.5 39t-104.5 99l-394 -147q61 -152 244.5 -216.5t436.5 -64.5zM580 1230h283l236 233h-253l-124 -147l-124 147h-253z" />
    <glyph glyph-name="uni0162" unicode="&#x162;" horiz-adv-x="1379" 
d="M461 0h457v1042h391v308h-1240v-308h392v-1042zM705 -405q71 0 141 15t126.5 44t90 70.5t33.5 94.5q0 69 -48.5 104.5t-132.5 35.5q-64 0 -112.5 -18.5t-73.5 -45.5l-8 -69q9 9 28.5 16.5t39.5 7.5q24 0 34 -5t10 -19q0 -20 -31 -33t-95 -13q-45 0 -86 7t-70 14l-58 -182
q54 -11 109.5 -17.5t102.5 -6.5zM721 -174l65 174h-173l-49 -161z" />
    <glyph glyph-name="uni0163" unicode="&#x163;" horiz-adv-x="1166" 
d="M721 -17q158 0 302 31v296q-72 -27 -147 -27q-66 0 -103.5 25t-37.5 110v460h342v308h-342v273h-452v-273h-264v-308h264v-556q0 -189 128.5 -264t309.5 -75zM701 -404q71 0 141 15t126.5 44t90 70.5t33.5 94.5q0 69 -48.5 104.5t-132.5 35.5q-64 0 -112.5 -18.5
t-73.5 -45.5l-8 -69q9 9 28.5 16.5t39.5 7.5q24 0 34 -5t10 -19q0 -20 -31 -33t-95 -13q-45 0 -86 7t-70 14l-58 -182q54 -11 109.5 -17.5t102.5 -6.5zM717 -173l65 174h-173l-49 -161z" />
    <glyph glyph-name="Tcaron" unicode="&#x164;" horiz-adv-x="1379" 
d="M461 0h457v1042h391v308h-1240v-308h392v-1042zM548 1393h283l236 233h-253l-124 -147l-124 147h-253z" />
    <glyph glyph-name="tcaron" unicode="&#x165;" horiz-adv-x="1373" 
d="M1095 1160h206l72 301h-228zM721 -17q158 0 302 31v296q-72 -27 -147 -27q-66 0 -103.5 25t-37.5 110v460h342v308h-342v273h-452v-273h-264v-308h264v-556q0 -189 128.5 -264t309.5 -75z" />
    <glyph glyph-name="Tbar" unicode="&#x166;" horiz-adv-x="1379" 
d="M167 599h1058v264h-1058v-264zM461 0h457v1042h391v308h-1240v-308h392v-1042z" />
    <glyph glyph-name="tbar" unicode="&#x167;" horiz-adv-x="1134" 
d="M98 466h833v237h-833v-237zM721 -17q158 0 302 31v296q-72 -27 -147 -27q-66 0 -103.5 25t-37.5 110v460h342v308h-342v273h-452v-273h-264v-308h264v-556q0 -189 128.5 -264t309.5 -75z" />
    <glyph glyph-name="Utilde" unicode="&#x168;" horiz-adv-x="1509" 
d="M748 -7q345 0 510.5 110.5t165.5 369.5v877h-457v-830q0 -116 -49 -167.5t-170 -51.5t-170 52t-49 167v830h-457v-877q0 -259 165.5 -369.5t510.5 -110.5zM912 1400q69 0 114.5 19.5t73.5 50.5t43 65.5t20.5 67t4.5 53.5h-213q0 -15 -7.5 -35t-25 -34t-44.5 -14
q-29 0 -55 13.5t-55 32t-65.5 32t-87.5 13.5q-71 0 -119 -19t-76.5 -49t-43 -65t-19 -66.5t-5.5 -52.5h215q0 15 6 35t23 34t48 14q29 0 56 -14.5t57 -33t67 -33t88 -14.5z" />
    <glyph glyph-name="utilde" unicode="&#x169;" horiz-adv-x="1426" 
d="M981 0h345v1186h-451v-1006zM515 1186h-451v-609q0 -261 88 -423.5t341 -162.5q294 0 449.5 173t155.5 339l-221 77q0 -133 -64 -207t-152 -74q-78 0 -112 55.5t-34 246.5v585zM865 1236q69 0 114.5 19.5t73.5 50.5t43 65.5t20.5 67t4.5 53.5h-213q0 -15 -7.5 -35
t-25 -34t-44.5 -14q-29 0 -55 13.5t-55 32t-65.5 32t-87.5 13.5q-71 0 -119 -19t-76.5 -49t-43 -65t-19 -66.5t-5.5 -52.5h215q0 15 6 35t23 34t48 14q29 0 56 -14.5t57 -33t67 -33t88 -14.5z" />
    <glyph glyph-name="Umacron" unicode="&#x16a;" horiz-adv-x="1509" 
d="M748 -7q345 0 510.5 110.5t165.5 369.5v877h-457v-830q0 -116 -49 -167.5t-170 -51.5t-170 52t-49 167v830h-457v-877q0 -259 165.5 -369.5t510.5 -110.5zM375 1437h761v161h-761v-161z" />
    <glyph glyph-name="umacron" unicode="&#x16b;" horiz-adv-x="1426" 
d="M981 0h345v1186h-451v-1006zM515 1186h-451v-609q0 -261 88 -423.5t341 -162.5q294 0 449.5 173t155.5 339l-221 77q0 -133 -64 -207t-152 -74q-78 0 -112 55.5t-34 246.5v585zM327 1273h761v161h-761v-161z" />
    <glyph glyph-name="Ubreve" unicode="&#x16c;" horiz-adv-x="1509" 
d="M748 -7q345 0 510.5 110.5t165.5 369.5v877h-457v-830q0 -116 -49 -167.5t-170 -51.5t-170 52t-49 167v830h-457v-877q0 -259 165.5 -369.5t510.5 -110.5zM756 1394q93 0 159.5 31t102 82.5t35.5 114.5h-207q0 -28 -8.5 -47t-28.5 -28t-53 -9q-29 0 -49 9t-30.5 27.5
t-10.5 47.5h-208q0 -63 37 -114.5t103.5 -82.5t157.5 -31z" />
    <glyph glyph-name="ubreve" unicode="&#x16d;" horiz-adv-x="1426" 
d="M981 0h345v1186h-451v-1006zM515 1186h-451v-609q0 -261 88 -423.5t341 -162.5q294 0 449.5 173t155.5 339l-221 77q0 -133 -64 -207t-152 -74q-78 0 -112 55.5t-34 246.5v585zM708 1230q93 0 159.5 31t102 82.5t35.5 114.5h-207q0 -28 -8.5 -47t-28.5 -28t-53 -9
q-29 0 -49 9t-30.5 27.5t-10.5 47.5h-208q0 -63 37 -114.5t103.5 -82.5t157.5 -31z" />
    <glyph glyph-name="Uring" unicode="&#x16e;" horiz-adv-x="1509" 
d="M748 -7q345 0 510.5 110.5t165.5 369.5v877h-457v-830q0 -116 -49 -167.5t-170 -51.5t-170 52t-49 167v830h-457v-877q0 -259 165.5 -369.5t510.5 -110.5zM755 1394q87 0 145.5 59.5t58.5 146.5q0 88 -58.5 146.5t-145.5 58.5t-145.5 -58.5t-58.5 -146.5
q0 -87 58.5 -146.5t145.5 -59.5zM755 1548q-19 0 -34 15.5t-15 36.5q0 22 15 36t34 14q21 0 35 -14t14 -36q0 -21 -14 -36.5t-35 -15.5z" />
    <glyph glyph-name="uring" unicode="&#x16f;" horiz-adv-x="1426" 
d="M981 0h345v1186h-451v-1006zM515 1186h-451v-609q0 -261 88 -423.5t341 -162.5q294 0 449.5 173t155.5 339l-221 77q0 -133 -64 -207t-152 -74q-78 0 -112 55.5t-34 246.5v585zM708 1230q87 0 145.5 59.5t58.5 146.5q0 88 -58.5 146.5t-145.5 58.5t-145.5 -58.5
t-58.5 -146.5q0 -87 58.5 -146.5t145.5 -59.5zM708 1384q-19 0 -34 15.5t-15 36.5q0 22 15 36t34 14q21 0 35 -14t14 -36q0 -21 -14 -36.5t-35 -15.5z" />
    <glyph glyph-name="Uhungarumlaut" unicode="&#x170;" horiz-adv-x="1509" 
d="M748 -7q345 0 510.5 110.5t165.5 369.5v877h-457v-830q0 -116 -49 -167.5t-170 -51.5t-170 52t-49 167v830h-457v-877q0 -259 165.5 -369.5t510.5 -110.5zM603 1416h196l257 221h-264zM456 1416h196l246 221h-255z" />
    <glyph glyph-name="uhungarumlaut" unicode="&#x171;" horiz-adv-x="1426" 
d="M981 0h345v1186h-451v-1006zM515 1186h-451v-609q0 -261 88 -423.5t341 -162.5q294 0 449.5 173t155.5 339l-221 77q0 -133 -64 -207t-152 -74q-78 0 -112 55.5t-34 246.5v585zM555 1252h196l257 221h-264zM408 1252h196l246 221h-255z" />
    <glyph glyph-name="Uogonek" unicode="&#x172;" horiz-adv-x="1509" 
d="M748 -7q345 0 510.5 110.5t165.5 369.5v877h-457v-830q0 -116 -49 -167.5t-170 -51.5t-170 52t-49 167v830h-457v-877q0 -259 165.5 -369.5t510.5 -110.5zM698 -420q58 0 110.5 5.5t90 13t48.5 11.5v216q-12 -5 -42.5 -13t-68 -13.5t-71.5 -5.5q-42 0 -60.5 15.5
t-18.5 39.5q0 21 10 49.5t25.5 57t28.5 44.5h-215q-19 -20 -43 -56t-41 -83t-17 -101q0 -71 38.5 -110t99 -54.5t126.5 -15.5z" />
    <glyph glyph-name="uogonek" unicode="&#x173;" horiz-adv-x="1426" 
d="M981 0h345v1186h-451v-1006zM515 1186h-451v-609q0 -261 88 -423.5t341 -162.5q294 0 449.5 173t155.5 339l-221 77q0 -133 -64 -207t-152 -74q-78 0 -112 55.5t-34 246.5v585zM1274 -420q58 0 110.5 5.5t90 13t48.5 11.5v216q-12 -5 -42.5 -13t-68 -13.5t-71.5 -5.5
q-42 0 -60.5 15.5t-18.5 39.5q0 21 10 49.5t25.5 57t28.5 44.5h-215q-19 -20 -43 -56t-41 -83t-17 -101q0 -71 38.5 -110t99 -54.5t126.5 -15.5z" />
    <glyph glyph-name="Wcircumflex" unicode="&#x174;" horiz-adv-x="2219" 
d="M259 0h695l143 1042h3l142 -1042h695l239 1350h-493l-119 -1020h-3l-165 1020h-595l-164 -1019h-4l-111 1019h-491zM733 1403h253l125 148l123 -148h253l-236 233h-283z" />
    <glyph glyph-name="wcircumflex" unicode="&#x175;" horiz-adv-x="2098" 
d="M306 0h601l140 734l139 -734h595l266 1186h-466l-111 -889h-3l-194 889h-446l-198 -892h-3l-118 892h-466zM669 1239h253l125 148l123 -148h253l-236 233h-283z" />
    <glyph glyph-name="Ycircumflex" unicode="&#x176;" horiz-adv-x="1541" 
d="M545 0h456v477l541 873h-494l-273 -519h-2l-276 519h-494l542 -872v-478zM394 1403h253l125 148l123 -148h253l-236 233h-283z" />
    <glyph glyph-name="ycircumflex" unicode="&#x177;" horiz-adv-x="1392" 
d="M344 0h689l323 1186h-472l-195 -894h-3l-198 894h-471zM136 -469q372 0 592.5 87.5t304.5 381.5l-417 1q-30 -112 -136 -139.5t-344 -27.5v-303zM307 1239h253l125 148l123 -148h253l-236 233h-283z" />
    <glyph glyph-name="Ydieresis" unicode="&#x178;" horiz-adv-x="1541" 
d="M545 0h456v477l541 873h-494l-273 -519h-2l-276 519h-494l542 -872v-478zM533 1405q47 0 81 34t34 82t-34 82t-81 34q-49 0 -83 -34t-34 -82t34 -82t83 -34zM1002 1405q49 0 82.5 34t33.5 82t-33.5 82t-82.5 34q-47 0 -81 -34t-34 -82t33.5 -82t81.5 -34z" />
    <glyph glyph-name="Zacute" unicode="&#x179;" horiz-adv-x="1252" 
d="M56 0h1113v307h-611l601 736v307h-1088v-305h587l-602 -728v-317zM391 1392h199l273 245h-297z" />
    <glyph glyph-name="zacute" unicode="&#x17a;" horiz-adv-x="1192" 
d="M72 0h1045v306h-505v2l494 579v299h-1036v-306h513v-1l-511 -578v-301zM356 1228h199l273 245h-297z" />
    <glyph glyph-name="Zdotaccent" unicode="&#x17b;" horiz-adv-x="1252" 
d="M56 0h1113v307h-611l601 736v307h-1088v-305h587l-602 -728v-317zM626 1392q50 0 85.5 35.5t35.5 85.5t-35 85.5t-86 35.5q-50 0 -85.5 -35.5t-35.5 -85.5t35.5 -85.5t85.5 -35.5z" />
    <glyph glyph-name="zdotaccent" unicode="&#x17c;" horiz-adv-x="1192" 
d="M72 0h1045v306h-505v2l494 579v299h-1036v-306h513v-1l-511 -578v-301zM593 1228q50 0 85.5 35.5t35.5 85.5t-35 85.5t-86 35.5q-50 0 -85.5 -35.5t-35.5 -85.5t35.5 -85.5t85.5 -35.5z" />
    <glyph glyph-name="Zcaron" unicode="&#x17d;" horiz-adv-x="1252" 
d="M56 0h1113v307h-611l601 736v307h-1088v-305h587l-602 -728v-317zM484 1393h283l236 233h-253l-124 -147l-124 147h-253z" />
    <glyph glyph-name="zcaron" unicode="&#x17e;" horiz-adv-x="1192" 
d="M72 0h1045v306h-505v2l494 579v299h-1036v-306h513v-1l-511 -578v-301zM451 1229h283l236 233h-253l-124 -147l-124 147h-253z" />
    <glyph glyph-name="uni018F" unicode="&#x18f;" horiz-adv-x="1435" 
d="M715 -11v0q381 0 525 171q145 171 145 521q0 355 -145 518q-147 165 -533 165l-1 -291q127 0 186 -60q57 -58 57 -337q0 -295 -60 -347t-175 -52q-93 0 -157 44q-54 39 -62 217h492v274h-932q-9 -57 -9 -136q0 -337 140 -511q138 -176 529 -176zM496 943v0
q11 32 32.5 56.5t49.5 40.5t61 24.5t67 8.5l28 172l-27 119q-89 0 -172.5 -10t-156 -31t-131 -54.5t-98 -80.5t-55.5 -108z" />
    <glyph glyph-name="florin" unicode="&#x192;" horiz-adv-x="1147" 
d="M-276 -441h222q182 0 317.5 37t218 118.5t104.5 211.5l144 954h348l49 306h-348l3 14q11 51 49.5 68.5t98.5 17.5h215l46 284h-218q-181 0 -316.5 -37t-218 -117.5t-105.5 -211.5l-3 -18h-245l-49 -306h243l-142 -950q-8 -51 -48 -69t-100 -18h-215z" />
    <glyph glyph-name="Ohorn" unicode="&#x1a0;" horiz-adv-x="1498" 
d="M747 -12q410 0 556 181.5t146 505.5q0 325 -146 506.5t-556 181.5t-555.5 -181t-145.5 -507q0 -324 146 -505.5t555 -181.5zM747 296q-113 0 -179.5 53.5t-66.5 325.5q0 278 66.5 329t179.5 51q114 0 180.5 -51t66.5 -329q0 -272 -66.5 -325.5t-180.5 -53.5zM1231 1206
v-143q152 0 263 37.5t173 112t62 186.5h-253q0 -69 -25.5 -111.5t-79 -62t-140.5 -19.5z" />
    <glyph glyph-name="ohorn" unicode="&#x1a1;" horiz-adv-x="1452" 
d="M719 -9q378 0 525 165t147 443q0 279 -147 440t-525 161q-377 0 -524.5 -161t-147.5 -440q0 -278 147.5 -443t524.5 -165zM719 294q-97 0 -159 53.5t-62 249.5t62 248t159 52q98 0 159.5 -52t61.5 -248t-61.5 -249.5t-159.5 -53.5zM1200 1055v-143q152 0 263 37.5
t173 112t62 186.5h-253q0 -69 -25.5 -111.5t-79 -62t-140.5 -19.5z" />
    <glyph glyph-name="Uhorn" unicode="&#x1af;" horiz-adv-x="1509" 
d="M748 -7q345 0 510.5 110.5t165.5 369.5v877h-457v-830q0 -116 -49 -167.5t-170 -51.5t-170 52t-49 167v830h-457v-877q0 -259 165.5 -369.5t510.5 -110.5zM1421 1223v-143q152 0 263 37.5t173 112t62 186.5h-253q0 -69 -25.5 -111.5t-79 -62t-140.5 -19.5z" />
    <glyph glyph-name="uhorn" unicode="&#x1b0;" horiz-adv-x="1426" 
d="M981 0h345v1186h-451v-1006zM515 1186h-451v-609q0 -261 88 -423.5t341 -162.5q294 0 449.5 173t155.5 339l-221 77q0 -133 -64 -207t-152 -74q-78 0 -112 55.5t-34 246.5v585zM1325 1186v-143q152 0 263 37.5t173 112t62 186.5h-253q0 -69 -25.5 -111.5t-79 -62
t-140.5 -19.5z" />
    <glyph glyph-name="uni01C4" unicode="&#x1c4;" horiz-adv-x="2707" 
d="M76 0h802q302 0 414.5 154.5t112.5 521.5t-112 520.5t-415 153.5h-802v-1350zM532 308v734h221q103 0 149.5 -48.5t46.5 -317.5q0 -270 -46.5 -319t-149.5 -49h-221zM1511 0h1113v307h-611l601 736v307h-1088v-305h587l-602 -728v-317zM1939 1393h283l236 233h-253
l-124 -147l-124 147h-253z" />
    <glyph glyph-name="uni01C5" unicode="&#x1c5;" horiz-adv-x="2647" 
d="M76 0h802q302 0 414.5 154.5t112.5 521.5t-112 520.5t-415 153.5h-802v-1350zM532 308v734h221q103 0 149.5 -48.5t46.5 -317.5q0 -270 -46.5 -319t-149.5 -49h-221zM1527 0h1045v306h-505v2l494 579v299h-1036v-306h513v-1l-511 -578v-301zM1905 1229h283l236 233h-253
l-124 -147l-124 147h-253z" />
    <glyph glyph-name="uni01C6" unicode="&#x1c6;" horiz-adv-x="2656" 
d="M938 0h420v1570h-450v-1408zM534 -7q228 0 401.5 98.5t173.5 230.5l-201 182q0 -95 -64.5 -150.5t-149.5 -55.5q-95 0 -143 54.5t-48 241.5q0 185 48 239.5t143 54.5q85 0 149.5 -55t64.5 -148l201 179q0 132 -173.5 231.5t-401.5 99.5q-265 0 -376 -168t-111 -431
t111 -433t376 -170zM1536 0h1045v306h-505v2l494 579v299h-1036v-306h513v-1l-511 -578v-301zM1913 1229h283l236 233h-253l-124 -147l-124 147h-253z" />
    <glyph glyph-name="uni01C7" unicode="&#x1c7;" horiz-adv-x="2560" 
d="M76 0h968v306h-511v1044h-457v-1350zM1810 -11q328 0 491.5 103.5t163.5 300.5v957h-455v-891q0 -83 -42 -124.5t-159 -41.5q-118 0 -157.5 46t-39.5 132v134h-456v-186q0 -219 165 -324.5t489 -105.5z" />
    <glyph glyph-name="uni01C8" unicode="&#x1c8;" horiz-adv-x="1800" 
d="M76 0h968v306h-511v1044h-457v-1350zM973 -460q350 0 532 112t182 453v1081h-451v-1099q0 -150 -68.5 -193.5t-194.5 -43.5v-310zM1236 1570v-283h452v283h-452z" />
    <glyph glyph-name="uni01C9" unicode="&#x1c9;" horiz-adv-x="1359" 
d="M102 0h452v1570h-452v-1570zM532 -460q350 0 532 112t182 453v1081h-451v-1099q0 -150 -68.5 -193.5t-194.5 -43.5v-310zM795 1570v-283h452v283h-452z" />
    <glyph glyph-name="uni01CA" unicode="&#x1ca;" horiz-adv-x="3193" 
d="M76 0h454v1029h5l382 -1029h717v1350h-455l-4 -1005h-3l-372 1005h-724v-1350zM2442 -11q328 0 491.5 103.5t163.5 300.5v957h-455v-891q0 -83 -42 -124.5t-159 -41.5q-118 0 -157.5 46t-39.5 132v134h-456v-186q0 -219 165 -324.5t489 -105.5z" />
    <glyph glyph-name="uni01CB" unicode="&#x1cb;" horiz-adv-x="2433" 
d="M76 0h454v1029h5l382 -1029h717v1350h-455l-4 -1005h-3l-372 1005h-724v-1350zM1605 -460q350 0 532 112t182 453v1081h-451v-1099q0 -150 -68.5 -193.5t-194.5 -43.5v-310zM1868 1570v-283h452v283h-452z" />
    <glyph glyph-name="uni01CC" unicode="&#x1cc;" horiz-adv-x="2124" 
d="M74 0h451v1011l-104 175h-347v-1186zM872 0h451v594q0 262 -90.5 431.5t-338.5 169.5q-271 0 -437.5 -172.5t-166.5 -339.5l220 -86q0 133 62 211.5t149 78.5q78 0 114.5 -55.5t36.5 -245.5v-586zM1296 -460q350 0 532 112t182 453v1081h-451v-1099q0 -150 -68.5 -193.5
t-194.5 -43.5v-310zM1559 1570v-283h452v283h-452z" />
    <glyph glyph-name="uni01CD" unicode="&#x1cd;" horiz-adv-x="1574" 
d="M54 0h470l69 289h391l68 -289h470l-413 1351h-643zM666 587l121 499h4l121 -499h-246zM644 1393h283l236 233h-253l-124 -147l-124 147h-253z" />
    <glyph glyph-name="uni01CE" unicode="&#x1ce;" horiz-adv-x="1457" 
d="M549 -14q69 0 133 11t117.5 30t92.5 43.5t58 52.5l40 -123h375v727q0 173 -74 276t-219 149t-360 46q-111 0 -216 -16t-193 -51t-150.5 -94t-87.5 -145l441 -125q16 52 48.5 80.5t74.5 39.5t85 11q62 0 106 -13t67.5 -44.5t23.5 -88.5v-27h-363q-127 0 -221 -20
t-155.5 -63t-91.5 -112t-30 -168q0 -106 32 -178.5t96 -116t156.5 -62.5t214.5 -19zM652 272q-34 0 -61 5t-46 16.5t-28.5 32t-9.5 53.5q0 34 9 55t27 31.5t46.5 14.5t66.5 4h248v-128q-21 -24 -61.5 -43.5t-90.5 -30t-100 -10.5zM568 1230h283l236 233h-253l-124 -147
l-124 147h-253z" />
    <glyph glyph-name="uni01CF" unicode="&#x1cf;" horiz-adv-x="700" 
d="M118 0h455v1350h-455v-1350zM203 1393h283l236 233h-253l-124 -147l-124 147h-253z" />
    <glyph glyph-name="uni01D0" unicode="&#x1d0;" horiz-adv-x="648" 
d="M85 0h454v1186h-454v-1186zM170 1229h283l236 233h-253l-124 -147l-124 147h-253z" />
    <glyph glyph-name="uni01D1" unicode="&#x1d1;" horiz-adv-x="1498" 
d="M747 -12q410 0 556 181.5t146 505.5q0 325 -146 506.5t-556 181.5t-555.5 -181t-145.5 -507q0 -324 146 -505.5t555 -181.5zM747 296q-113 0 -179.5 53.5t-66.5 325.5q0 278 66.5 329t179.5 51q114 0 180.5 -51t66.5 -329q0 -272 -66.5 -325.5t-180.5 -53.5zM608 1393
h283l236 233h-253l-124 -147l-124 147h-253z" />
    <glyph glyph-name="uni01D2" unicode="&#x1d2;" horiz-adv-x="1452" 
d="M719 -9q378 0 525 165t147 443q0 279 -147 440t-525 161q-377 0 -524.5 -161t-147.5 -440q0 -278 147.5 -443t524.5 -165zM719 294q-97 0 -159 53.5t-62 249.5t62 248t159 52q98 0 159.5 -52t61.5 -248t-61.5 -249.5t-159.5 -53.5zM577 1230h283l236 233h-253l-124 -147
l-124 147h-253z" />
    <glyph glyph-name="uni01D3" unicode="&#x1d3;" horiz-adv-x="1509" 
d="M748 -7q345 0 510.5 110.5t165.5 369.5v877h-457v-830q0 -116 -49 -167.5t-170 -51.5t-170 52t-49 167v830h-457v-877q0 -259 165.5 -369.5t510.5 -110.5zM613 1393h283l236 233h-253l-124 -147l-124 147h-253z" />
    <glyph glyph-name="uni01D4" unicode="&#x1d4;" horiz-adv-x="1426" 
d="M981 0h345v1186h-451v-1006zM515 1186h-451v-609q0 -261 88 -423.5t341 -162.5q294 0 449.5 173t155.5 339l-221 77q0 -133 -64 -207t-152 -74q-78 0 -112 55.5t-34 246.5v585zM566 1229h283l236 233h-253l-124 -147l-124 147h-253z" />
    <glyph glyph-name="uni01D5" unicode="&#x1d5;" horiz-adv-x="1509" 
d="M748 -7q345 0 510.5 110.5t165.5 369.5v877h-457v-830q0 -116 -49 -167.5t-170 -51.5t-170 52t-49 167v830h-457v-877q0 -259 165.5 -369.5t510.5 -110.5zM517 1405q47 0 81 34t34 82t-34 82t-81 34q-49 0 -83 -34t-34 -82t34 -82t83 -34zM986 1405q49 0 82.5 34t33.5 82
t-33.5 82t-82.5 34q-47 0 -81 -34t-34 -82t33.5 -82t81.5 -34zM371 1718h761v161h-761v-161z" />
    <glyph glyph-name="uni01D6" unicode="&#x1d6;" horiz-adv-x="1426" 
d="M981 0h345v1186h-451v-1006zM515 1186h-451v-609q0 -261 88 -423.5t341 -162.5q294 0 449.5 173t155.5 339l-221 77q0 -133 -64 -207t-152 -74q-78 0 -112 55.5t-34 246.5v585zM470 1241q47 0 81 34t34 82t-34 82t-81 34q-49 0 -83 -34t-34 -82t34 -82t83 -34zM939 1241
q49 0 82.5 34t33.5 82t-33.5 82t-82.5 34q-47 0 -81 -34t-34 -82t33.5 -82t81.5 -34zM327 1562h761v161h-761v-161z" />
    <glyph glyph-name="uni01D7" unicode="&#x1d7;" horiz-adv-x="1509" 
d="M748 -7q345 0 510.5 110.5t165.5 369.5v877h-457v-830q0 -116 -49 -167.5t-170 -51.5t-170 52t-49 167v830h-457v-877q0 -259 165.5 -369.5t510.5 -110.5zM517 1405q47 0 81 34t34 82t-34 82t-81 34q-49 0 -83 -34t-34 -82t34 -82t83 -34zM986 1405q49 0 82.5 34t33.5 82
t-33.5 82t-82.5 34q-47 0 -81 -34t-34 -82t33.5 -82t81.5 -34zM540 1714h199l273 245h-297z" />
    <glyph glyph-name="uni01D8" unicode="&#x1d8;" horiz-adv-x="1426" 
d="M981 0h345v1186h-451v-1006zM515 1186h-451v-609q0 -261 88 -423.5t341 -162.5q294 0 449.5 173t155.5 339l-221 77q0 -133 -64 -207t-152 -74q-78 0 -112 55.5t-34 246.5v585zM470 1241q47 0 81 34t34 82t-34 82t-81 34q-49 0 -83 -34t-34 -82t34 -82t83 -34zM939 1241
q49 0 82.5 34t33.5 82t-33.5 82t-82.5 34q-47 0 -81 -34t-34 -82t33.5 -82t81.5 -34zM561 1472h199l273 245h-297z" />
    <glyph glyph-name="uni01D9" unicode="&#x1d9;" horiz-adv-x="1509" 
d="M748 -7q345 0 510.5 110.5t165.5 369.5v877h-457v-830q0 -116 -49 -167.5t-170 -51.5t-170 52t-49 167v830h-457v-877q0 -259 165.5 -369.5t510.5 -110.5zM517 1405q47 0 81 34t34 82t-34 82t-81 34q-49 0 -83 -34t-34 -82t34 -82t83 -34zM986 1405q49 0 82.5 34t33.5 82
t-33.5 82t-82.5 34q-47 0 -81 -34t-34 -82t33.5 -82t81.5 -34zM609 1723h283l236 233h-253l-124 -147l-124 147h-253z" />
    <glyph glyph-name="uni01DA" unicode="&#x1da;" horiz-adv-x="1426" 
d="M981 0h345v1186h-451v-1006zM515 1186h-451v-609q0 -261 88 -423.5t341 -162.5q294 0 449.5 173t155.5 339l-221 77q0 -133 -64 -207t-152 -74q-78 0 -112 55.5t-34 246.5v585zM470 1241q47 0 81 34t34 82t-34 82t-81 34q-49 0 -83 -34t-34 -82t34 -82t83 -34zM939 1241
q49 0 82.5 34t33.5 82t-33.5 82t-82.5 34q-47 0 -81 -34t-34 -82t33.5 -82t81.5 -34zM566 1518h283l236 233h-253l-124 -147l-124 147h-253z" />
    <glyph glyph-name="uni01DB" unicode="&#x1db;" horiz-adv-x="1509" 
d="M748 -7q345 0 510.5 110.5t165.5 369.5v877h-457v-830q0 -116 -49 -167.5t-170 -51.5t-170 52t-49 167v830h-457v-877q0 -259 165.5 -369.5t510.5 -110.5zM517 1405q47 0 81 34t34 82t-34 82t-81 34q-49 0 -83 -34t-34 -82t34 -82t83 -34zM986 1405q49 0 82.5 34t33.5 82
t-33.5 82t-82.5 34q-47 0 -81 -34t-34 -82t33.5 -82t81.5 -34zM722 1711h199l-176 245h-297z" />
    <glyph glyph-name="uni01DC" unicode="&#x1dc;" horiz-adv-x="1426" 
d="M981 0h345v1186h-451v-1006zM515 1186h-451v-609q0 -261 88 -423.5t341 -162.5q294 0 449.5 173t155.5 339l-221 77q0 -133 -64 -207t-152 -74q-78 0 -112 55.5t-34 246.5v585zM470 1241q47 0 81 34t34 82t-34 82t-81 34q-49 0 -83 -34t-34 -82t34 -82t83 -34zM939 1241
q49 0 82.5 34t33.5 82t-33.5 82t-82.5 34q-47 0 -81 -34t-34 -82t33.5 -82t81.5 -34zM659 1478h199l-176 245h-297z" />
    <glyph glyph-name="Gcaron" unicode="&#x1e6;" horiz-adv-x="1506" 
d="M696 -8q298 1 400 145l52 -137h254v739h-643v-266h178l-1 -3q-12 -106 -54 -138.5t-142 -32.5q-109 0 -171.5 68t-62.5 298q0 285 62.5 338t167.5 53q101 0 149 -30.5t60 -166.5h457q-10 186 -149.5 345t-517.5 159q-407 0 -548 -179.5t-141 -503.5q0 -318 136 -503
t514 -185zM588 1393h283l236 233h-253l-124 -147l-124 147h-253z" />
    <glyph glyph-name="gcaron" unicode="&#x1e7;" horiz-adv-x="1468" 
d="M693 -473q211 0 344.5 48.5t229 171.5t95.5 343v1096h-329l-124 -226v-918q0 -165 -56.5 -198t-144.5 -33q-52 0 -94.5 14.5t-68 49.5t-31.5 83h-440q26 -237 206 -334t413 -97zM539 -7q228 0 399.5 98.5t171.5 230.5l-202 182q0 -95 -64.5 -150.5t-149.5 -55.5
q-95 0 -143 54.5t-48 241.5q0 185 48 239.5t143 54.5q85 0 149.5 -55t64.5 -148l201 169q0 132 -173.5 236.5t-401.5 104.5q-265 0 -376 -168t-111 -431t113.5 -433t378.5 -170zM576 1229h283l236 233h-253l-124 -147l-124 147h-253z" />
    <glyph glyph-name="uni01EA" unicode="&#x1ea;" horiz-adv-x="1498" 
d="M747 -12q410 0 556 181.5t146 505.5q0 325 -146 506.5t-556 181.5t-555.5 -181t-145.5 -507q0 -324 146 -505.5t555 -181.5zM747 296q-113 0 -179.5 53.5t-66.5 325.5q0 278 66.5 329t179.5 51q114 0 180.5 -51t66.5 -329q0 -272 -66.5 -325.5t-180.5 -53.5zM1165 -337
q58 0 110.5 5.5t90 13t48.5 11.5v216q-12 -5 -42.5 -13t-68 -13.5t-71.5 -5.5q-42 0 -60.5 15.5t-18.5 39.5q0 21 10 49.5t25.5 57t28.5 44.5h-215q-19 -20 -43 -56t-41 -83t-17 -101q0 -71 38.5 -110t99 -54.5t126.5 -15.5z" />
    <glyph glyph-name="uni01EB" unicode="&#x1eb;" horiz-adv-x="1452" 
d="M719 -9q378 0 525 165t147 443q0 279 -147 440t-525 161q-377 0 -524.5 -161t-147.5 -440q0 -278 147.5 -443t524.5 -165zM719 294q-97 0 -159 53.5t-62 249.5t62 248t159 52q98 0 159.5 -52t61.5 -248t-61.5 -249.5t-159.5 -53.5zM679 -420q58 0 110.5 5.5t90 13
t48.5 11.5v216q-12 -5 -42.5 -13t-68 -13.5t-71.5 -5.5q-42 0 -60.5 15.5t-18.5 39.5q0 21 10 49.5t25.5 57t28.5 44.5h-215q-19 -20 -43 -56t-41 -83t-17 -101q0 -71 38.5 -110t99 -54.5t126.5 -15.5z" />
    <glyph glyph-name="Aringacute" unicode="&#x1fa;" horiz-adv-x="1574" 
d="M54 0h470l69 289h391l68 -289h470l-413 1351h-643zM666 587l121 499h4l121 -499h-246zM786 1367q87 0 145.5 59.5t58.5 146.5q0 88 -58.5 146.5t-145.5 58.5t-145.5 -58.5t-58.5 -146.5q0 -87 58.5 -146.5t145.5 -59.5zM786 1521q-19 0 -34 15.5t-15 36.5q0 22 15 36
t34 14q21 0 35 -14t14 -36q0 -21 -14 -36.5t-35 -15.5zM550 1820h199l273 245h-297z" />
    <glyph glyph-name="aringacute" unicode="&#x1fb;" horiz-adv-x="1457" 
d="M549 -14q69 0 133 11t117.5 30t92.5 43.5t58 52.5l40 -123h375v727q0 173 -74 276t-219 149t-360 46q-111 0 -216 -16t-193 -51t-150.5 -94t-87.5 -145l441 -125q16 52 48.5 80.5t74.5 39.5t85 11q62 0 106 -13t67.5 -44.5t23.5 -88.5v-27h-363q-127 0 -221 -20
t-155.5 -63t-91.5 -112t-30 -168q0 -106 32 -178.5t96 -116t156.5 -62.5t214.5 -19zM652 272q-34 0 -61 5t-46 16.5t-28.5 32t-9.5 53.5q0 34 9 55t27 31.5t46.5 14.5t66.5 4h248v-128q-21 -24 -61.5 -43.5t-90.5 -30t-100 -10.5zM710 1231q87 0 145.5 59.5t58.5 146.5
q0 88 -58.5 146.5t-145.5 58.5t-145.5 -58.5t-58.5 -146.5q0 -87 58.5 -146.5t145.5 -59.5zM710 1385q-19 0 -34 15.5t-15 36.5q0 22 15 36t34 14q21 0 35 -14t14 -36q0 -21 -14 -36.5t-35 -15.5zM473 1684h199l273 245h-297z" />
    <glyph glyph-name="AEacute" unicode="&#x1fc;" horiz-adv-x="2151" 
d="M54 0h479l575 1190v160h-391zM439 228h661v299h-574zM1004 0h1067v308h-610v224h560v293h-560v217h610v308h-1067v-1350zM813 1392h199l273 245h-297z" />
    <glyph glyph-name="aeacute" unicode="&#x1fd;" horiz-adv-x="2314" 
d="M1332 427v273q0 230 -130.5 363.5t-478.5 133.5q-346 0 -459 -100.5t-171 -228.5l431 -127q33 120 78.5 145.5t123.5 25.5q88 0 139.5 -36.5t51.5 -136.5v-480l68 -24zM546 -14q290 0 448 84.5t174 256.5l-248 136q0 -119 -58 -162.5t-169 -43.5q-112 0 -143 27t-31 66
q0 49 38.5 71t149.5 22h226v252h-382q-216 0 -358.5 -67t-142.5 -277q0 -192 139 -278.5t357 -86.5zM1592 -12v288q-108 0 -175 54q-68 52 -68 261q0 205 65 262q66 58 170 58t162 -49q35 -36 49 -133h-484v-269h932q9 58 9 131q0 267 -139 438q-139 170 -530 170
q-380 0 -525 -166t-145 -441t146 -440q146 -164 533 -164zM1592 276v-288q202 0 310 31q109 30 193 91q83 59 109 172l-402 116q-25 -43 -49 -71q-24 -27 -60 -39t-101 -12zM912 1228h199l273 245h-297z" />
    <glyph glyph-name="Oslashacute" unicode="&#x1fe;" horiz-adv-x="1467" 
d="M15 0h230l1206 1348h-227zM747 -12q410 0 556 181.5t146 505.5q0 325 -146 506.5t-556 181.5t-555.5 -181t-145.5 -507q0 -324 146 -505.5t555 -181.5zM747 296q-113 0 -179.5 53.5t-66.5 325.5q0 278 66.5 329t179.5 51q114 0 180.5 -51t66.5 -329q0 -272 -66.5 -325.5
t-180.5 -53.5zM498 1392h199l273 245h-297z" />
    <glyph glyph-name="oslashacute" unicode="&#x1ff;" horiz-adv-x="1452" 
d="M-31 27l138 -116l1340 1264l-147 104zM719 -9q378 0 525 165t147 443q0 279 -147 440t-525 161q-377 0 -524.5 -161t-147.5 -440q0 -278 147.5 -443t524.5 -165zM719 294q-97 0 -159 53.5t-62 249.5t62 248t159 52q98 0 159.5 -52t61.5 -248t-61.5 -249.5t-159.5 -53.5z
M484 1235h199l273 245h-297z" />
    <glyph glyph-name="uni0200" unicode="&#x200;" horiz-adv-x="1574" 
d="M54 0h470l69 289h391l68 -289h470l-413 1351h-643zM666 587l121 499h4l121 -499h-246zM912 1414h199l-176 245h-297zM555 1414h199l-176 245h-297z" />
    <glyph glyph-name="uni0201" unicode="&#x201;" horiz-adv-x="1457" 
d="M549 -14q69 0 133 11t117.5 30t92.5 43.5t58 52.5l40 -123h375v727q0 173 -74 276t-219 149t-360 46q-111 0 -216 -16t-193 -51t-150.5 -94t-87.5 -145l441 -125q16 52 48.5 80.5t74.5 39.5t85 11q62 0 106 -13t67.5 -44.5t23.5 -88.5v-27h-363q-127 0 -221 -20
t-155.5 -63t-91.5 -112t-30 -168q0 -106 32 -178.5t96 -116t156.5 -62.5t214.5 -19zM652 272q-34 0 -61 5t-46 16.5t-28.5 32t-9.5 53.5q0 34 9 55t27 31.5t46.5 14.5t66.5 4h248v-128q-21 -24 -61.5 -43.5t-90.5 -30t-100 -10.5zM835 1249h199l-176 245h-297zM479 1249h199
l-176 245h-297z" />
    <glyph glyph-name="uni0202" unicode="&#x202;" horiz-adv-x="1574" 
d="M54 0h470l69 289h391l68 -289h470l-413 1351h-643zM666 587l121 499h4l121 -499h-246zM787 1645q-93 0 -159.5 -30t-102 -82t-35.5 -116h207q0 29 9 47.5t28.5 27.5t52.5 9q29 0 49 -8.5t30.5 -27t10.5 -48.5h208q0 64 -36.5 116t-103.5 82t-158 30z" />
    <glyph glyph-name="uni0203" unicode="&#x203;" horiz-adv-x="1457" 
d="M549 -14q69 0 133 11t117.5 30t92.5 43.5t58 52.5l40 -123h375v727q0 173 -74 276t-219 149t-360 46q-111 0 -216 -16t-193 -51t-150.5 -94t-87.5 -145l441 -125q16 52 48.5 80.5t74.5 39.5t85 11q62 0 106 -13t67.5 -44.5t23.5 -88.5v-27h-363q-127 0 -221 -20
t-155.5 -63t-91.5 -112t-30 -168q0 -106 32 -178.5t96 -116t156.5 -62.5t214.5 -19zM652 272q-34 0 -61 5t-46 16.5t-28.5 32t-9.5 53.5q0 34 9 55t27 31.5t46.5 14.5t66.5 4h248v-128q-21 -24 -61.5 -43.5t-90.5 -30t-100 -10.5zM710 1481q-93 0 -159.5 -30t-102 -82
t-35.5 -116h207q0 29 9 47.5t28.5 27.5t52.5 9q29 0 49 -8.5t30.5 -27t10.5 -48.5h208q0 64 -36.5 116t-103.5 82t-158 30z" />
    <glyph glyph-name="uni0204" unicode="&#x204;" horiz-adv-x="1213" 
d="M66 0h1068v308h-611v224h560v293h-560v217h611v308h-1068v-1350zM717 1414h199l-176 245h-297zM361 1414h199l-176 245h-297z" />
    <glyph glyph-name="uni0205" unicode="&#x205;" horiz-adv-x="1448" 
d="M725 -12v288q-108 0 -175 54q-68 52 -68 261q0 205 66 262q66 58 169 58q105 0 163 -49q34 -36 49 -133h-485v-269h932q9 58 9 131q0 267 -138 438q-140 170 -531 170q-379 0 -524 -166q-146 -166 -146 -441t147 -440q145 -164 532 -164zM725 276v-288q202 0 311 31
q108 30 192 91q84 59 110 172l-403 116q-25 -43 -48 -71q-24 -27 -61 -39q-36 -12 -101 -12zM843 1250h199l-176 245h-297zM486 1250h199l-176 245h-297z" />
    <glyph glyph-name="uni0206" unicode="&#x206;" horiz-adv-x="1213" 
d="M66 0h1068v308h-611v224h560v293h-560v217h611v308h-1068v-1350zM592 1645q-93 0 -159.5 -30t-102 -82t-35.5 -116h207q0 29 9 47.5t28.5 27.5t52.5 9q29 0 49 -8.5t30.5 -27t10.5 -48.5h208q0 64 -36.5 116t-103.5 82t-158 30z" />
    <glyph glyph-name="uni0207" unicode="&#x207;" horiz-adv-x="1448" 
d="M725 -12v288q-108 0 -175 54q-68 52 -68 261q0 205 66 262q66 58 169 58q105 0 163 -49q34 -36 49 -133h-485v-269h932q9 58 9 131q0 267 -138 438q-140 170 -531 170q-379 0 -524 -166q-146 -166 -146 -441t147 -440q145 -164 532 -164zM725 276v-288q202 0 311 31
q108 30 192 91q84 59 110 172l-403 116q-25 -43 -48 -71q-24 -27 -61 -39q-36 -12 -101 -12zM718 1481q-93 0 -159.5 -30t-102 -82t-35.5 -116h207q0 29 9 47.5t28.5 27.5t52.5 9q29 0 49 -8.5t30.5 -27t10.5 -48.5h208q0 64 -36.5 116t-103.5 82t-158 30z" />
    <glyph glyph-name="uni0208" unicode="&#x208;" horiz-adv-x="700" 
d="M118 0h455v1350h-455v-1350zM471 1414h199l-176 245h-297zM114 1414h199l-176 245h-297z" />
    <glyph glyph-name="uni0209" unicode="&#x209;" horiz-adv-x="648" 
d="M85 0h454v1186h-454v-1186zM438 1250h199l-176 245h-297zM81 1250h199l-176 245h-297z" />
    <glyph glyph-name="uni020A" unicode="&#x20a;" horiz-adv-x="700" 
d="M118 0h455v1350h-455v-1350zM346 1645q-93 0 -159.5 -30t-102 -82t-35.5 -116h207q0 29 9 47.5t28.5 27.5t52.5 9q29 0 49 -8.5t30.5 -27t10.5 -48.5h208q0 64 -36.5 116t-103.5 82t-158 30z" />
    <glyph glyph-name="uni020B" unicode="&#x20b;" horiz-adv-x="648" 
d="M85 0h454v1186h-454v-1186zM313 1481q-93 0 -159.5 -30t-102 -82t-35.5 -116h207q0 29 9 47.5t28.5 27.5t52.5 9q29 0 49 -8.5t30.5 -27t10.5 -48.5h208q0 64 -36.5 116t-103.5 82t-158 30z" />
    <glyph glyph-name="uni020C" unicode="&#x20c;" horiz-adv-x="1498" 
d="M747 -12q410 0 556 181.5t146 505.5q0 325 -146 506.5t-556 181.5t-555.5 -181t-145.5 -507q0 -324 146 -505.5t555 -181.5zM747 296q-113 0 -179.5 53.5t-66.5 325.5q0 278 66.5 329t179.5 51q114 0 180.5 -51t66.5 -329q0 -272 -66.5 -325.5t-180.5 -53.5zM875 1414
h199l-176 245h-297zM519 1414h199l-176 245h-297z" />
    <glyph glyph-name="uni020D" unicode="&#x20d;" horiz-adv-x="1452" 
d="M719 -9q378 0 525 165t147 443q0 279 -147 440t-525 161q-377 0 -524.5 -161t-147.5 -440q0 -278 147.5 -443t524.5 -165zM719 294q-97 0 -159 53.5t-62 249.5t62 248t159 52q98 0 159.5 -52t61.5 -248t-61.5 -249.5t-159.5 -53.5zM844 1250h199l-176 245h-297zM488 1250
h199l-176 245h-297z" />
    <glyph glyph-name="uni020E" unicode="&#x20e;" horiz-adv-x="1498" 
d="M747 -12q410 0 556 181.5t146 505.5q0 325 -146 506.5t-556 181.5t-555.5 -181t-145.5 -507q0 -324 146 -505.5t555 -181.5zM747 296q-113 0 -179.5 53.5t-66.5 325.5q0 278 66.5 329t179.5 51q114 0 180.5 -51t66.5 -329q0 -272 -66.5 -325.5t-180.5 -53.5zM750 1645
q-93 0 -159.5 -30t-102 -82t-35.5 -116h207q0 29 9 47.5t28.5 27.5t52.5 9q29 0 49 -8.5t30.5 -27t10.5 -48.5h208q0 64 -36.5 116t-103.5 82t-158 30z" />
    <glyph glyph-name="uni020F" unicode="&#x20f;" horiz-adv-x="1452" 
d="M719 -9q378 0 525 165t147 443q0 279 -147 440t-525 161q-377 0 -524.5 -161t-147.5 -440q0 -278 147.5 -443t524.5 -165zM719 294q-97 0 -159 53.5t-62 249.5t62 248t159 52q98 0 159.5 -52t61.5 -248t-61.5 -249.5t-159.5 -53.5zM719 1481q-93 0 -159.5 -30t-102 -82
t-35.5 -116h207q0 29 9 47.5t28.5 27.5t52.5 9q29 0 49 -8.5t30.5 -27t10.5 -48.5h208q0 64 -36.5 116t-103.5 82t-158 30z" />
    <glyph glyph-name="uni0210" unicode="&#x210;" horiz-adv-x="1449" 
d="M76 0h458v503h399q258 0 345 119t87 294q0 178 -82 306t-331 128h-876v-1350zM904 0h495l-345 637l-452 -15zM534 780v262h265q61 0 84.5 -32t23.5 -100q0 -67 -23 -98.5t-85 -31.5h-265zM838 1414h199l-176 245h-297zM482 1414h199l-176 245h-297z" />
    <glyph glyph-name="uni0211" unicode="&#x211;" horiz-adv-x="1431" 
d="M874 575h451q0 316 -88 468.5t-351 152.5q-236 0 -385.5 -121t-149.5 -302l172 -93q0 82 52.5 145t137.5 63q73 0 117 -53t44 -260zM74 0h451v1001l-104 185h-347v-1186zM862 1250h199l-176 245h-297zM506 1250h199l-176 245h-297z" />
    <glyph glyph-name="uni0212" unicode="&#x212;" horiz-adv-x="1449" 
d="M76 0h458v503h399q258 0 345 119t87 294q0 178 -82 306t-331 128h-876v-1350zM904 0h495l-345 637l-452 -15zM534 780v262h265q61 0 84.5 -32t23.5 -100q0 -67 -23 -98.5t-85 -31.5h-265zM713 1645q-93 0 -159.5 -30t-102 -82t-35.5 -116h207q0 29 9 47.5t28.5 27.5
t52.5 9q29 0 49 -8.5t30.5 -27t10.5 -48.5h208q0 64 -36.5 116t-103.5 82t-158 30z" />
    <glyph glyph-name="uni0213" unicode="&#x213;" horiz-adv-x="1431" 
d="M874 575h451q0 316 -88 468.5t-351 152.5q-236 0 -385.5 -121t-149.5 -302l172 -93q0 82 52.5 145t137.5 63q73 0 117 -53t44 -260zM74 0h451v1001l-104 185h-347v-1186zM737 1481q-93 0 -159.5 -30t-102 -82t-35.5 -116h207q0 29 9 47.5t28.5 27.5t52.5 9q29 0 49 -8.5
t30.5 -27t10.5 -48.5h208q0 64 -36.5 116t-103.5 82t-158 30z" />
    <glyph glyph-name="uni0214" unicode="&#x214;" horiz-adv-x="1509" 
d="M748 -7q345 0 510.5 110.5t165.5 369.5v877h-457v-830q0 -116 -49 -167.5t-170 -51.5t-170 52t-49 167v830h-457v-877q0 -259 165.5 -369.5t510.5 -110.5zM881 1414h199l-176 245h-297zM524 1414h199l-176 245h-297z" />
    <glyph glyph-name="uni0215" unicode="&#x215;" horiz-adv-x="1426" 
d="M981 0h345v1186h-451v-1006zM515 1186h-451v-609q0 -261 88 -423.5t341 -162.5q294 0 449.5 173t155.5 339l-221 77q0 -133 -64 -207t-152 -74q-78 0 -112 55.5t-34 246.5v585zM833 1250h199l-176 245h-297zM477 1250h199l-176 245h-297z" />
    <glyph glyph-name="uni0216" unicode="&#x216;" horiz-adv-x="1509" 
d="M748 -7q345 0 510.5 110.5t165.5 369.5v877h-457v-830q0 -116 -49 -167.5t-170 -51.5t-170 52t-49 167v830h-457v-877q0 -259 165.5 -369.5t510.5 -110.5zM756 1645q-93 0 -159.5 -30t-102 -82t-35.5 -116h207q0 29 9 47.5t28.5 27.5t52.5 9q29 0 49 -8.5t30.5 -27
t10.5 -48.5h208q0 64 -36.5 116t-103.5 82t-158 30z" />
    <glyph glyph-name="uni0217" unicode="&#x217;" horiz-adv-x="1426" 
d="M981 0h345v1186h-451v-1006zM515 1186h-451v-609q0 -261 88 -423.5t341 -162.5q294 0 449.5 173t155.5 339l-221 77q0 -133 -64 -207t-152 -74q-78 0 -112 55.5t-34 246.5v585zM708 1481q-93 0 -159.5 -30t-102 -82t-35.5 -116h207q0 29 9 47.5t28.5 27.5t52.5 9
q29 0 49 -8.5t30.5 -27t10.5 -48.5h208q0 64 -36.5 116t-103.5 82t-158 30z" />
    <glyph glyph-name="uni0218" unicode="&#x218;" horiz-adv-x="1474" 
d="M555 -355h151l145 304h-243zM734 -7q398 0 531 136t133 327q0 173 -106.5 242.5t-425.5 127.5q-166 28 -268 46.5t-102 91.5q0 51 64.5 72t159.5 21q83 0 151 -26t68 -148h457q0 195 -138.5 337.5t-532.5 142.5q-396 0 -533 -133.5t-137 -318.5q0 -178 110.5 -255
t417.5 -135q169 -26 267.5 -46t98.5 -84q0 -56 -64.5 -74t-154.5 -18q-89 0 -154.5 26.5t-65.5 150.5h-456q0 -208 135.5 -345.5t544.5 -137.5z" />
    <glyph glyph-name="uni0219" unicode="&#x219;" horiz-adv-x="1437" 
d="M746 -9q296 0 461.5 87.5t165.5 314.5q0 183 -143 257.5t-359 94.5q-156 18 -254.5 26.5t-98.5 60.5q0 37 40 56t126 19q95 0 170 -40.5t102 -95.5l394 145q-55 155 -228.5 217.5t-431.5 62.5q-270 0 -443 -85.5t-173 -279.5q0 -189 131 -277.5t352 -110.5
q164 -19 267.5 -26.5t103.5 -57.5q0 -40 -49 -59t-126 -19q-112 0 -189.5 39t-104.5 99l-394 -147q61 -152 244.5 -216.5t436.5 -64.5zM550 -358h151l145 304h-243z" />
    <glyph glyph-name="uni021A" unicode="&#x21a;" horiz-adv-x="1379" 
d="M461 0h457v1042h391v308h-1240v-308h392v-1042zM547 -358h151l145 304h-243z" />
    <glyph glyph-name="uni021B" unicode="&#x21b;" horiz-adv-x="1134" 
d="M721 -17q158 0 302 31v296q-72 -27 -147 -27q-66 0 -103.5 25t-37.5 110v460h342v308h-342v273h-452v-273h-264v-308h264v-556q0 -189 128.5 -264t309.5 -75zM532 -358h151l145 304h-243z" />
    <glyph glyph-name="uni022A" unicode="&#x22a;" horiz-adv-x="1498" 
d="M747 -12q410 0 556 181.5t146 505.5q0 325 -146 506.5t-556 181.5t-555.5 -181t-145.5 -507q0 -324 146 -505.5t555 -181.5zM747 296q-113 0 -179.5 53.5t-66.5 325.5q0 278 66.5 329t179.5 51q114 0 180.5 -51t66.5 -329q0 -272 -66.5 -325.5t-180.5 -53.5zM512 1405
q47 0 81 34t34 82t-34 82t-81 34q-49 0 -83 -34t-34 -82t34 -82t83 -34zM981 1405q49 0 82.5 34t33.5 82t-33.5 82t-82.5 34q-47 0 -81 -34t-34 -82t33.5 -82t81.5 -34zM369 1726h761v161h-761v-161z" />
    <glyph glyph-name="uni022B" unicode="&#x22b;" horiz-adv-x="1452" 
d="M719 -9q378 0 525 165t147 443q0 279 -147 440t-525 161q-377 0 -524.5 -161t-147.5 -440q0 -278 147.5 -443t524.5 -165zM719 294q-97 0 -159 53.5t-62 249.5t62 248t159 52q98 0 159.5 -52t61.5 -248t-61.5 -249.5t-159.5 -53.5zM482 1242q47 0 81 34t34 82t-34 82
t-81 34q-49 0 -83 -34t-34 -82t34 -82t83 -34zM951 1242q49 0 82.5 34t33.5 82t-33.5 82t-82.5 34q-47 0 -81 -34t-34 -82t33.5 -82t81.5 -34zM338 1563h761v161h-761v-161z" />
    <glyph glyph-name="uni022C" unicode="&#x22c;" horiz-adv-x="1498" 
d="M747 -12q410 0 556 181.5t146 505.5q0 325 -146 506.5t-556 181.5t-555.5 -181t-145.5 -507q0 -324 146 -505.5t555 -181.5zM747 296q-113 0 -179.5 53.5t-66.5 325.5q0 278 66.5 329t179.5 51q114 0 180.5 -51t66.5 -329q0 -272 -66.5 -325.5t-180.5 -53.5zM907 1400
q69 0 114.5 19.5t73.5 50.5t43 65.5t20.5 67t4.5 53.5h-213q0 -15 -7.5 -35t-25 -34t-44.5 -14q-29 0 -55 13.5t-55 32t-65.5 32t-87.5 13.5q-71 0 -119 -19t-76.5 -49t-43 -65t-19 -66.5t-5.5 -52.5h215q0 15 6 35t23 34t48 14q29 0 56 -14.5t57 -33t67 -33t88 -14.5z
M369 1745h761v161h-761v-161z" />
    <glyph glyph-name="uni022D" unicode="&#x22d;" horiz-adv-x="1452" 
d="M719 -9q378 0 525 165t147 443q0 279 -147 440t-525 161q-377 0 -524.5 -161t-147.5 -440q0 -278 147.5 -443t524.5 -165zM719 294q-97 0 -159 53.5t-62 249.5t62 248t159 52q98 0 159.5 -52t61.5 -248t-61.5 -249.5t-159.5 -53.5zM876 1237q69 0 114.5 19.5t73.5 50.5
t43 65.5t20.5 67t4.5 53.5h-213q0 -15 -7.5 -35t-25 -34t-44.5 -14q-29 0 -55 13.5t-55 32t-65.5 32t-87.5 13.5q-71 0 -119 -19t-76.5 -49t-43 -65t-19 -66.5t-5.5 -52.5h215q0 15 6 35t23 34t48 14q29 0 56 -14.5t57 -33t67 -33t88 -14.5zM338 1582h761v161h-761v-161z
" />
    <glyph glyph-name="uni0230" unicode="&#x230;" horiz-adv-x="1498" 
d="M747 -12q410 0 556 181.5t146 505.5q0 325 -146 506.5t-556 181.5t-555.5 -181t-145.5 -507q0 -324 146 -505.5t555 -181.5zM747 296q-113 0 -179.5 53.5t-66.5 325.5q0 278 66.5 329t179.5 51q114 0 180.5 -51t66.5 -329q0 -272 -66.5 -325.5t-180.5 -53.5zM750 1392
q50 0 85.5 35.5t35.5 85.5t-35 85.5t-86 35.5q-50 0 -85.5 -35.5t-35.5 -85.5t35.5 -85.5t85.5 -35.5zM369 1721h761v161h-761v-161z" />
    <glyph glyph-name="uni0231" unicode="&#x231;" horiz-adv-x="1452" 
d="M719 -9q378 0 525 165t147 443q0 279 -147 440t-525 161q-377 0 -524.5 -161t-147.5 -440q0 -278 147.5 -443t524.5 -165zM719 294q-97 0 -159 53.5t-62 249.5t62 248t159 52q98 0 159.5 -52t61.5 -248t-61.5 -249.5t-159.5 -53.5zM719 1229q50 0 85.5 35.5t35.5 85.5
t-35 85.5t-86 35.5q-50 0 -85.5 -35.5t-35.5 -85.5t35.5 -85.5t85.5 -35.5zM338 1558h761v161h-761v-161z" />
    <glyph glyph-name="uni0232" unicode="&#x232;" horiz-adv-x="1541" 
d="M545 0h456v477l541 873h-494l-273 -519h-2l-276 519h-494l542 -872v-478zM391 1437h761v161h-761v-161z" />
    <glyph glyph-name="uni0233" unicode="&#x233;" horiz-adv-x="1392" 
d="M344 0h689l323 1186h-472l-195 -894h-3l-198 894h-471zM136 -469q372 0 592.5 87.5t304.5 381.5l-417 1q-30 -112 -136 -139.5t-344 -27.5v-303zM303 1273h761v161h-761v-161z" />
    <glyph glyph-name="uni0237" unicode="&#x237;" horiz-adv-x="695" 
d="M-133 -460q350 0 532 112t182 453v1081h-451v-1099q0 -150 -68.5 -193.5t-194.5 -43.5v-310z" />
    <glyph glyph-name="uni0259" unicode="&#x259;" horiz-adv-x="1448" 
d="M723 1200v-289q108 0 175 -53q68 -54 68 -263q0 -205 -66 -261q-66 -57 -169 -57q-105 0 -163 48q-34 37 -49 132h485v269h-932q-9 -56 -9 -131q0 -266 138 -436q140 -170 531 -170q379 0 525 166q145 166 145 441t-147 439q-145 165 -532 165zM723 911v289
q-202 0 -311 -31q-108 -31 -192 -91t-110 -172l403 -117q25 44 49 70q23 28 59 40q37 12 102 12z" />
    <glyph glyph-name="uni02BC" unicode="&#x2bc;" horiz-adv-x="448" 
d="M412 1559h-321v-286h25l-79 -318h288l87 319v285z" />
    <glyph glyph-name="circumflex" unicode="&#x2c6;" horiz-adv-x="921" 
d="M67 1205h253l125 148l123 -148h253l-236 233h-283z" />
    <glyph glyph-name="caron" unicode="&#x2c7;" horiz-adv-x="921" 
d="M302 1205h283l236 233h-253l-124 -147l-124 147h-253z" />
    <glyph glyph-name="uni02C9" unicode="&#x2c9;" horiz-adv-x="999" 
d="M102 1170h761v161h-761v-161z" />
    <glyph glyph-name="breve" unicode="&#x2d8;" horiz-adv-x="868" 
d="M417 1221q93 0 159.5 31t102 82.5t35.5 114.5h-207q0 -28 -8.5 -47t-28.5 -28t-53 -9q-29 0 -49 9t-30.5 27.5t-10.5 47.5h-208q0 -63 37 -114.5t103.5 -82.5t157.5 -31z" />
    <glyph glyph-name="dotaccent" unicode="&#x2d9;" horiz-adv-x="510" 
d="M258 1174q50 0 85.5 35.5t35.5 85.5t-35 85.5t-86 35.5q-50 0 -85.5 -35.5t-35.5 -85.5t35.5 -85.5t85.5 -35.5z" />
    <glyph glyph-name="ring" unicode="&#x2da;" horiz-adv-x="531" 
d="M266 1206q87 0 145.5 59.5t58.5 146.5q0 88 -58.5 146.5t-145.5 58.5t-145.5 -58.5t-58.5 -146.5q0 -87 58.5 -146.5t145.5 -59.5zM266 1360q-19 0 -34 15.5t-15 36.5q0 22 15 36t34 14q21 0 35 -14t14 -36q0 -21 -14 -36.5t-35 -15.5z" />
    <glyph glyph-name="ogonek" unicode="&#x2db;" horiz-adv-x="890" 
d="M463 -420q58 0 110.5 5.5t90 13t48.5 11.5v216q-12 -5 -42.5 -13t-68 -13.5t-71.5 -5.5q-42 0 -60.5 15.5t-18.5 39.5q0 21 10 49.5t25.5 57t28.5 44.5h-215q-19 -20 -43 -56t-41 -83t-17 -101q0 -71 38.5 -110t99 -54.5t126.5 -15.5z" />
    <glyph glyph-name="tilde" unicode="&#x2dc;" horiz-adv-x="898" 
d="M602 1242q69 0 114.5 19.5t73.5 50.5t43 65.5t20.5 67t4.5 53.5h-213q0 -15 -7.5 -35t-25 -34t-44.5 -14q-29 0 -55 13.5t-55 32t-65.5 32t-87.5 13.5q-71 0 -119 -19t-76.5 -49t-43 -65t-19 -66.5t-5.5 -52.5h215q0 15 6 35t23 34t48 14q29 0 56 -14.5t57 -33t67 -33
t88 -14.5z" />
    <glyph glyph-name="hungarumlaut" unicode="&#x2dd;" horiz-adv-x="1188" 
d="M439 1222h196l257 221h-264zM292 1222h196l246 221h-255z" />
    <glyph glyph-name="gravecomb" unicode="&#x300;" 
d="M306 1114h199l-176 245h-297z" />
    <glyph glyph-name="acutecomb" unicode="&#x301;" 
d="M36 1114h199l273 245h-297z" />
    <glyph glyph-name="uni0302" unicode="&#x302;" 
d="M26 1115h253l125 148l123 -148h253l-236 233h-283z" />
    <glyph glyph-name="tildecomb" unicode="&#x303;" 
d="M602 1160q69 0 114.5 19.5t73.5 50.5t43 65.5t20.5 67t4.5 53.5h-213q0 -15 -7.5 -35t-25 -34t-44.5 -14q-29 0 -55 13.5t-55 32t-65.5 32t-87.5 13.5q-71 0 -119 -19t-76.5 -49t-43 -65t-19 -66.5t-5.5 -52.5h215q0 15 6 35t23 34t48 14q29 0 56 -14.5t57 -33t67 -33
t88 -14.5z" />
    <glyph glyph-name="uni0304" unicode="&#x304;" 
d="M102 1170h761v161h-761v-161z" />
    <glyph glyph-name="uni0306" unicode="&#x306;" 
d="M334 1131q93 0 159.5 31t102 82.5t35.5 114.5h-207q0 -28 -8.5 -47t-28.5 -28t-53 -9q-29 0 -49 9t-30.5 27.5t-10.5 47.5h-208q0 -63 37 -114.5t103.5 -82.5t157.5 -31z" />
    <glyph glyph-name="uni0307" unicode="&#x307;" 
d="M160 1114q50 0 85.5 35.5t35.5 85.5t-35 85.5t-86 35.5q-50 0 -85.5 -35.5t-35.5 -85.5t35.5 -85.5t85.5 -35.5z" />
    <glyph glyph-name="uni0308" unicode="&#x308;" 
d="M193 1127q47 0 81 34t34 82t-34 82t-81 34q-49 0 -83 -34t-34 -82t34 -82t83 -34zM662 1127q49 0 82.5 34t33.5 82t-33.5 82t-82.5 34q-47 0 -81 -34t-34 -82t33.5 -82t81.5 -34z" />
    <glyph glyph-name="hookabovecomb" unicode="&#x309;" 
d="M20 1507v-131q110 0 170 -1t83 -5.5t23 -13.5q0 -8 -20.5 -13.5t-62 -7.5t-105.5 -2v-157h154v56q46 0 90 7.5t79 23.5t55.5 42.5t20.5 64.5q0 54 -48 83.5t-154.5 41.5t-284.5 12z" />
    <glyph glyph-name="uni030A" unicode="&#x30a;" 
d="M216 1126q87 0 145.5 59.5t58.5 146.5q0 88 -58.5 146.5t-145.5 58.5t-145.5 -58.5t-58.5 -146.5q0 -87 58.5 -146.5t145.5 -59.5zM216 1280q-19 0 -34 15.5t-15 36.5q0 22 15 36t34 14q21 0 35 -14t14 -36q0 -21 -14 -36.5t-35 -15.5z" />
    <glyph glyph-name="uni030B" unicode="&#x30b;" 
d="M306 1138h196l257 221h-264zM159 1138h196l246 221h-255z" />
    <glyph glyph-name="uni030C" unicode="&#x30c;" 
d="M261 1115h283l236 233h-253l-124 -147l-124 147h-253z" />
    <glyph glyph-name="uni030F" unicode="&#x30f;" 
d="M634 1204h199l-176 245h-297zM277 1204h199l-176 245h-297z" />
    <glyph glyph-name="uni0311" unicode="&#x311;" 
d="M382 1339q-93 0 -159.5 -30t-102 -82t-35.5 -116h207q0 29 9 47.5t28.5 27.5t52.5 9q29 0 49 -8.5t30.5 -27t10.5 -48.5h208q0 64 -36.5 116t-103.5 82t-158 30z" />
    <glyph glyph-name="uni0312" unicode="&#x312;" 
d="M205 1192h262l57 330h-162z" />
    <glyph glyph-name="uni031B" unicode="&#x31b;" 
d="M20 1259v-143q152 0 263 37.5t173 112t62 186.5h-253q0 -69 -25.5 -111.5t-79 -62t-140.5 -19.5z" />
    <glyph glyph-name="dotbelowcomb" unicode="&#x323;" 
d="M258 -360q50 0 85.5 35.5t35.5 85.5t-35 85.5t-86 35.5q-50 0 -85.5 -35.5t-35.5 -85.5t35.5 -85.5t85.5 -35.5z" />
    <glyph glyph-name="uni0324" unicode="&#x324;" 
d="M186 -299q47 0 81 34t34 82t-34 82t-81 34q-49 0 -83 -34t-34 -82t34 -82t83 -34zM655 -299q49 0 82.5 34t33.5 82t-33.5 82t-82.5 34q-47 0 -81 -34t-34 -82t33.5 -82t81.5 -34z" />
    <glyph glyph-name="uni0326" unicode="&#x326;" 
d="M51 -358h151l145 304h-243z" />
    <glyph glyph-name="uni0327" unicode="&#x327;" 
d="M382 -405q71 0 141 15t126.5 44t90 70.5t33.5 94.5q0 69 -48.5 104.5t-132.5 35.5q-64 0 -112.5 -18.5t-73.5 -45.5l-8 -69q9 9 28.5 16.5t39.5 7.5q24 0 34 -5t10 -19q0 -20 -31 -33t-95 -13q-45 0 -86 7t-70 14l-58 -182q54 -11 109.5 -17.5t102.5 -6.5zM398 -174
l65 174h-173l-49 -161z" />
    <glyph glyph-name="uni0328" unicode="&#x328;" 
d="M463 -420q58 0 110.5 5.5t90 13t48.5 11.5v216q-12 -5 -42.5 -13t-68 -13.5t-71.5 -5.5q-42 0 -60.5 15.5t-18.5 39.5q0 21 10 49.5t25.5 57t28.5 44.5h-215q-19 -20 -43 -56t-41 -83t-17 -101q0 -71 38.5 -110t99 -54.5t126.5 -15.5z" />
    <glyph glyph-name="uni032E" unicode="&#x32e;" 
d="M344 -321q93 0 159.5 31t102 82.5t35.5 114.5h-207q0 -28 -8.5 -47t-28.5 -28t-53 -9q-29 0 -49 9t-30.5 27.5t-10.5 47.5h-208q0 -63 37 -114.5t103.5 -82.5t157.5 -31z" />
    <glyph glyph-name="uni0331" unicode="&#x331;" 
d="M-5 -257h761v161h-761v-161z" />
    <glyph glyph-name="uni0335" unicode="&#x335;" 
d="M54 1303h864v294h-864v-294z" />
    <glyph glyph-name="uni0336" unicode="&#x336;" 
d="M102 1170h761v161h-761v-161z" />
    <glyph glyph-name="uni0337" unicode="&#x337;" 
d="M149 0h209l405 972h-210z" />
    <glyph glyph-name="uni0338" unicode="&#x338;" 
d="M21 0h383l692 1348h-386z" />
    <glyph glyph-name="uni1E08" unicode="&#x1e08;" horiz-adv-x="1454" 
d="M725 -8q414 0 541 179.5t127 387.5h-463q0 -171 -56 -215t-153 -44q-100 0 -163.5 52t-63.5 327q0 273 64 324.5t163 51.5q98 0 153.5 -43t55.5 -217h463q0 215 -126.5 391.5t-542.5 176.5q-410 0 -551 -183.5t-141 -500.5q0 -316 141 -501.5t552 -185.5zM734 -405
q71 0 141 15t126.5 44t90 70.5t33.5 94.5q0 69 -48.5 104.5t-132.5 35.5q-64 0 -112.5 -18.5t-73.5 -45.5l-8 -69q9 9 28.5 16.5t39.5 7.5q24 0 34 -5t10 -19q0 -20 -31 -33t-95 -13q-45 0 -86 7t-70 14l-58 -182q54 -11 109.5 -17.5t102.5 -6.5zM750 -174l65 174h-173
l-49 -161zM483 1392h199l273 245h-297z" />
    <glyph glyph-name="uni1E09" unicode="&#x1e09;" horiz-adv-x="1365" 
d="M699 -12q333 0 456 124t148 248l-400 148q-10 -121 -65 -167t-139 -46q-81 0 -141.5 52t-60.5 243q0 193 60 245.5t142 52.5q85 0 139.5 -46t64.5 -172l400 142q-25 129 -148 257t-456 128q-382 0 -522 -161.5t-140 -445.5q0 -286 140 -444t522 -158zM712 -405
q71 0 141 15t126.5 44t90 70.5t33.5 94.5q0 69 -48.5 104.5t-132.5 35.5q-64 0 -112.5 -18.5t-73.5 -45.5l-8 -69q9 9 28.5 16.5t39.5 7.5q24 0 34 -5t10 -19q0 -20 -31 -33t-95 -13q-45 0 -86 7t-70 14l-58 -182q54 -11 109.5 -17.5t102.5 -6.5zM728 -174l65 174h-173
l-49 -161zM462 1228h199l273 245h-297z" />
    <glyph glyph-name="uni1E0C" unicode="&#x1e0c;" horiz-adv-x="1455" 
d="M76 0h802q302 0 414.5 154.5t112.5 521.5t-112 520.5t-415 153.5h-802v-1350zM532 308v734h221q103 0 149.5 -48.5t46.5 -317.5q0 -270 -46.5 -319t-149.5 -49h-221zM737 -329q50 0 85.5 35.5t35.5 85.5t-35 85.5t-86 35.5q-50 0 -85.5 -35.5t-35.5 -85.5t35.5 -85.5
t85.5 -35.5z" />
    <glyph glyph-name="uni1E0D" unicode="&#x1e0d;" horiz-adv-x="1464" 
d="M938 0h420v1570h-450v-1408zM534 -7q228 0 401.5 98.5t173.5 230.5l-201 182q0 -95 -64.5 -150.5t-149.5 -55.5q-95 0 -143 54.5t-48 241.5q0 185 48 239.5t143 54.5q85 0 149.5 -55t64.5 -148l201 179q0 132 -173.5 231.5t-401.5 99.5q-265 0 -376 -168t-111 -431
t111 -433t376 -170zM732 -360q50 0 85.5 35.5t35.5 85.5t-35 85.5t-86 35.5q-50 0 -85.5 -35.5t-35.5 -85.5t35.5 -85.5t85.5 -35.5z" />
    <glyph glyph-name="Dmacronbelow" unicode="&#x1e0e;" horiz-adv-x="1455" 
d="M76 0h802q302 0 414.5 154.5t112.5 521.5t-112 520.5t-415 153.5h-802v-1350zM532 308v734h221q103 0 149.5 -48.5t46.5 -317.5q0 -270 -46.5 -319t-149.5 -49h-221zM356 -257h761v161h-761v-161z" />
    <glyph glyph-name="dmacronbelow" unicode="&#x1e0f;" horiz-adv-x="1464" 
d="M938 0h420v1570h-450v-1408zM534 -7q228 0 401.5 98.5t173.5 230.5l-201 182q0 -95 -64.5 -150.5t-149.5 -55.5q-95 0 -143 54.5t-48 241.5q0 185 48 239.5t143 54.5q85 0 149.5 -55t64.5 -148l201 179q0 132 -173.5 231.5t-401.5 99.5q-265 0 -376 -168t-111 -431
t111 -433t376 -170zM352 -257h761v161h-761v-161z" />
    <glyph glyph-name="uni1E14" unicode="&#x1e14;" horiz-adv-x="1213" 
d="M66 0h1068v308h-611v224h560v293h-560v217h611v308h-1068v-1350zM211 1437h761v161h-761v-161zM630 1649h199l-176 245h-297z" />
    <glyph glyph-name="uni1E15" unicode="&#x1e15;" horiz-adv-x="1448" 
d="M725 -12v288q-108 0 -175 54q-68 52 -68 261q0 205 66 262q66 58 169 58q105 0 163 -49q34 -36 49 -133h-485v-269h932q9 58 9 131q0 267 -138 438q-140 170 -531 170q-379 0 -524 -166q-146 -166 -146 -441t147 -440q145 -164 532 -164zM725 276v-288q202 0 311 31
q108 30 192 91q84 59 110 172l-403 116q-25 -43 -48 -71q-24 -27 -61 -39q-36 -12 -101 -12zM337 1273h761v161h-761v-161zM755 1476h199l-176 245h-297z" />
    <glyph glyph-name="uni1E16" unicode="&#x1e16;" horiz-adv-x="1213" 
d="M66 0h1068v308h-611v224h560v293h-560v217h611v308h-1068v-1350zM211 1437h761v161h-761v-161zM356 1640h199l273 245h-297z" />
    <glyph glyph-name="uni1E17" unicode="&#x1e17;" horiz-adv-x="1448" 
d="M725 -12v288q-108 0 -175 54q-68 52 -68 261q0 205 66 262q66 58 169 58q105 0 163 -49q34 -36 49 -133h-485v-269h932q9 58 9 131q0 267 -138 438q-140 170 -531 170q-379 0 -524 -166q-146 -166 -146 -441t147 -440q145 -164 532 -164zM725 276v-288q202 0 311 31
q108 30 192 91q84 59 110 172l-403 116q-25 -43 -48 -71q-24 -27 -61 -39q-36 -12 -101 -12zM337 1273h761v161h-761v-161zM482 1476h199l273 245h-297z" />
    <glyph glyph-name="uni1E1C" unicode="&#x1e1c;" horiz-adv-x="1213" 
d="M66 0h1068v308h-611v224h560v293h-560v217h611v308h-1068v-1350zM607 -405q71 0 141 15t126.5 44t90 70.5t33.5 94.5q0 69 -48.5 104.5t-132.5 35.5q-64 0 -112.5 -18.5t-73.5 -45.5l-8 -69q9 9 28.5 16.5t39.5 7.5q24 0 34 -5t10 -19q0 -20 -31 -33t-95 -13q-45 0 -86 7
t-70 14l-58 -182q54 -11 109.5 -17.5t102.5 -6.5zM623 -174l65 174h-173l-49 -161zM592 1394q93 0 159.5 31t102 82.5t35.5 114.5h-207q0 -28 -8.5 -47t-28.5 -28t-53 -9q-29 0 -49 9t-30.5 27.5t-10.5 47.5h-208q0 -63 37 -114.5t103.5 -82.5t157.5 -31z" />
    <glyph glyph-name="uni1E1D" unicode="&#x1e1d;" horiz-adv-x="1448" 
d="M725 -12v288q-108 0 -175 54q-68 52 -68 261q0 205 66 262q66 58 169 58q105 0 163 -49q34 -36 49 -133h-485v-269h932q9 58 9 131q0 267 -138 438q-140 170 -531 170q-379 0 -524 -166q-146 -166 -146 -441t147 -440q145 -164 532 -164zM725 276v-288q202 0 311 31
q108 30 192 91q84 59 110 172l-403 116q-25 -43 -48 -71q-24 -27 -61 -39q-36 -12 -101 -12zM740 -405q71 0 141 15t126.5 44t90 70.5t33.5 94.5q0 69 -48.5 104.5t-132.5 35.5q-64 0 -112.5 -18.5t-73.5 -45.5l-8 -69q9 9 28.5 16.5t39.5 7.5q24 0 34 -5t10 -19
q0 -20 -31 -33t-95 -13q-45 0 -86 7t-70 14l-58 -182q54 -11 109.5 -17.5t102.5 -6.5zM756 -174l65 174h-173l-49 -161zM718 1230q93 0 159.5 31t102 82.5t35.5 114.5h-207q0 -28 -8.5 -47t-28.5 -28t-53 -9q-29 0 -49 9t-30.5 27.5t-10.5 47.5h-208q0 -63 37 -114.5
t103.5 -82.5t157.5 -31z" />
    <glyph glyph-name="uni1E20" unicode="&#x1e20;" horiz-adv-x="1506" 
d="M696 -8q298 1 400 145l52 -137h254v739h-643v-266h178l-1 -3q-12 -106 -54 -138.5t-142 -32.5q-109 0 -171.5 68t-62.5 298q0 285 62.5 338t167.5 53q101 0 149 -30.5t60 -166.5h457q-10 186 -149.5 345t-517.5 159q-407 0 -548 -179.5t-141 -503.5q0 -318 136 -503
t514 -185zM349 1437h761v161h-761v-161z" />
    <glyph glyph-name="uni1E21" unicode="&#x1e21;" horiz-adv-x="1468" 
d="M693 -473q211 0 344.5 48.5t229 171.5t95.5 343v1096h-329l-124 -226v-918q0 -165 -56.5 -198t-144.5 -33q-52 0 -94.5 14.5t-68 49.5t-31.5 83h-440q26 -237 206 -334t413 -97zM539 -7q228 0 399.5 98.5t171.5 230.5l-202 182q0 -95 -64.5 -150.5t-149.5 -55.5
q-95 0 -143 54.5t-48 241.5q0 185 48 239.5t143 54.5q85 0 149.5 -55t64.5 -148l201 169q0 132 -173.5 236.5t-401.5 104.5q-265 0 -376 -168t-111 -431t113.5 -433t378.5 -170zM338 1273h761v161h-761v-161z" />
    <glyph glyph-name="uni1E24" unicode="&#x1e24;" horiz-adv-x="1499" 
d="M76 0h457v506h405v-506h457v1350h-457v-536h-405v536h-457v-1350zM741 -329q50 0 85.5 35.5t35.5 85.5t-35 85.5t-86 35.5q-50 0 -85.5 -35.5t-35.5 -85.5t35.5 -85.5t85.5 -35.5z" />
    <glyph glyph-name="uni1E25" unicode="&#x1e25;" horiz-adv-x="1437" 
d="M74 0h452v1570h-452v-1570zM880 0h451v609q0 262 -90.5 424t-338.5 162q-271 0 -437.5 -172.5t-166.5 -339.5l220 -86q0 133 62 211.5t149 78.5q78 0 114.5 -55.5t36.5 -245.5v-586zM710 -360q50 0 85.5 35.5t35.5 85.5t-35 85.5t-86 35.5q-50 0 -85.5 -35.5t-35.5 -85.5
t35.5 -85.5t85.5 -35.5z" />
    <glyph glyph-name="uni1E2A" unicode="&#x1e2a;" horiz-adv-x="1499" 
d="M76 0h457v506h405v-506h457v1350h-457v-536h-405v536h-457v-1350zM742 -321q93 0 159.5 31t102 82.5t35.5 114.5h-207q0 -28 -8.5 -47t-28.5 -28t-53 -9q-29 0 -49 9t-30.5 27.5t-10.5 47.5h-208q0 -63 37 -114.5t103.5 -82.5t157.5 -31z" />
    <glyph glyph-name="uni1E2B" unicode="&#x1e2b;" horiz-adv-x="1437" 
d="M74 0h452v1570h-452v-1570zM880 0h451v609q0 262 -90.5 424t-338.5 162q-271 0 -437.5 -172.5t-166.5 -339.5l220 -86q0 133 62 211.5t149 78.5q78 0 114.5 -55.5t36.5 -245.5v-586zM711 -321q93 0 159.5 31t102 82.5t35.5 114.5h-207q0 -28 -8.5 -47t-28.5 -28t-53 -9
q-29 0 -49 9t-30.5 27.5t-10.5 47.5h-208q0 -63 37 -114.5t103.5 -82.5t157.5 -31z" />
    <glyph glyph-name="uni1E2E" unicode="&#x1e2e;" horiz-adv-x="700" 
d="M118 0h455v1350h-455v-1350zM108 1405q47 0 81 34t34 82t-34 82t-81 34q-49 0 -83 -34t-34 -82t34 -82t83 -34zM577 1405q49 0 82.5 34t33.5 82t-33.5 82t-82.5 34q-47 0 -81 -34t-34 -82t33.5 -82t81.5 -34zM110 1681h199l273 245h-297z" />
    <glyph glyph-name="uni1E2F" unicode="&#x1e2f;" horiz-adv-x="648" 
d="M85 0h454v1186h-454v-1186zM75 1241q47 0 81 34t34 82t-34 82t-81 34q-49 0 -83 -34t-34 -82t34 -82t83 -34zM544 1241q49 0 82.5 34t33.5 82t-33.5 82t-82.5 34q-47 0 -81 -34t-34 -82t33.5 -82t81.5 -34zM77 1517h199l273 245h-297z" />
    <glyph glyph-name="uni1E36" unicode="&#x1e36;" horiz-adv-x="1106" 
d="M76 0h968v306h-511v1044h-457v-1350zM555 -329q50 0 85.5 35.5t35.5 85.5t-35 85.5t-86 35.5q-50 0 -85.5 -35.5t-35.5 -85.5t35.5 -85.5t85.5 -35.5z" />
    <glyph glyph-name="uni1E37" unicode="&#x1e37;" horiz-adv-x="665" 
d="M102 0h452v1570h-452v-1570zM327 -360q50 0 85.5 35.5t35.5 85.5t-35 85.5t-86 35.5q-50 0 -85.5 -35.5t-35.5 -85.5t35.5 -85.5t85.5 -35.5z" />
    <glyph glyph-name="Lmacronbelow" unicode="&#x1e3a;" horiz-adv-x="1106" 
d="M76 0h968v306h-511v1044h-457v-1350zM175 -257h761v161h-761v-161z" />
    <glyph glyph-name="lmacronbelow" unicode="&#x1e3b;" horiz-adv-x="665" 
d="M102 0h452v1570h-452v-1570zM-53 -257h761v161h-761v-161z" />
    <glyph glyph-name="uni1E42" unicode="&#x1e42;" horiz-adv-x="2012" 
d="M76 0h451v1037h4l198 -1032h527l198 1032h4v-1037h451v1350h-734l-181 -1020h-3l-181 1020h-734v-1350zM996 -329q50 0 85.5 35.5t35.5 85.5t-35 85.5t-86 35.5q-50 0 -85.5 -35.5t-35.5 -85.5t35.5 -85.5t85.5 -35.5z" />
    <glyph glyph-name="uni1E43" unicode="&#x1e43;" horiz-adv-x="2104" 
d="M74 0h452v1023l-104 163h-348v-1186zM813 0h451v664q0 206 -83 368.5t-341 162.5q-219 0 -388 -166t-169 -331l239 -88q0 149 46.5 213t118.5 64q65 0 95.5 -53.5t30.5 -208.5v-625zM1547 0h451v664q0 205 -80.5 368t-338.5 163q-219 0 -388 -169t-169 -328l240 -88
q0 149 46 213t118 64q65 0 93 -53.5t28 -208.5v-625zM1092 -360q50 0 85.5 35.5t35.5 85.5t-35 85.5t-86 35.5q-50 0 -85.5 -35.5t-35.5 -85.5t35.5 -85.5t85.5 -35.5z" />
    <glyph glyph-name="uni1E44" unicode="&#x1e44;" horiz-adv-x="1738" 
d="M76 0h454v1029h5l382 -1029h717v1350h-455l-4 -1005h-3l-372 1005h-724v-1350zM863 1392q50 0 85.5 35.5t35.5 85.5t-35 85.5t-86 35.5q-50 0 -85.5 -35.5t-35.5 -85.5t35.5 -85.5t85.5 -35.5z" />
    <glyph glyph-name="uni1E45" unicode="&#x1e45;" horiz-adv-x="1429" 
d="M74 0h451v1011l-104 175h-347v-1186zM872 0h451v594q0 262 -90.5 431.5t-338.5 169.5q-271 0 -437.5 -172.5t-166.5 -339.5l220 -86q0 133 62 211.5t149 78.5q78 0 114.5 -55.5t36.5 -245.5v-586zM712 1228q50 0 85.5 35.5t35.5 85.5t-35 85.5t-86 35.5
q-50 0 -85.5 -35.5t-35.5 -85.5t35.5 -85.5t85.5 -35.5z" />
    <glyph glyph-name="uni1E46" unicode="&#x1e46;" horiz-adv-x="1738" 
d="M76 0h454v1029h5l382 -1029h717v1350h-455l-4 -1005h-3l-372 1005h-724v-1350zM863 -329q50 0 85.5 35.5t35.5 85.5t-35 85.5t-86 35.5q-50 0 -85.5 -35.5t-35.5 -85.5t35.5 -85.5t85.5 -35.5z" />
    <glyph glyph-name="uni1E47" unicode="&#x1e47;" horiz-adv-x="1429" 
d="M74 0h451v1011l-104 175h-347v-1186zM872 0h451v594q0 262 -90.5 431.5t-338.5 169.5q-271 0 -437.5 -172.5t-166.5 -339.5l220 -86q0 133 62 211.5t149 78.5q78 0 114.5 -55.5t36.5 -245.5v-586zM712 -360q50 0 85.5 35.5t35.5 85.5t-35 85.5t-86 35.5
q-50 0 -85.5 -35.5t-35.5 -85.5t35.5 -85.5t85.5 -35.5z" />
    <glyph glyph-name="Nmacronbelow" unicode="&#x1e48;" horiz-adv-x="1738" 
d="M76 0h454v1029h5l382 -1029h717v1350h-455l-4 -1005h-3l-372 1005h-724v-1350zM482 -257h761v161h-761v-161z" />
    <glyph glyph-name="nmacronbelow" unicode="&#x1e49;" horiz-adv-x="1429" 
d="M74 0h451v1011l-104 175h-347v-1186zM872 0h451v594q0 262 -90.5 431.5t-338.5 169.5q-271 0 -437.5 -172.5t-166.5 -339.5l220 -86q0 133 62 211.5t149 78.5q78 0 114.5 -55.5t36.5 -245.5v-586zM332 -257h761v161h-761v-161z" />
    <glyph glyph-name="uni1E4C" unicode="&#x1e4c;" horiz-adv-x="1498" 
d="M747 -12q410 0 556 181.5t146 505.5q0 325 -146 506.5t-556 181.5t-555.5 -181t-145.5 -507q0 -324 146 -505.5t555 -181.5zM747 296q-113 0 -179.5 53.5t-66.5 325.5q0 278 66.5 329t179.5 51q114 0 180.5 -51t66.5 -329q0 -272 -66.5 -325.5t-180.5 -53.5zM907 1400
q69 0 114.5 19.5t73.5 50.5t43 65.5t20.5 67t4.5 53.5h-213q0 -15 -7.5 -35t-25 -34t-44.5 -14q-29 0 -55 13.5t-55 32t-65.5 32t-87.5 13.5q-71 0 -119 -19t-76.5 -49t-43 -65t-19 -66.5t-5.5 -52.5h215q0 15 6 35t23 34t48 14q29 0 56 -14.5t57 -33t67 -33t88 -14.5z
M513 1700h199l273 245h-297z" />
    <glyph glyph-name="uni1E4D" unicode="&#x1e4d;" horiz-adv-x="1452" 
d="M719 -9q378 0 525 165t147 443q0 279 -147 440t-525 161q-377 0 -524.5 -161t-147.5 -440q0 -278 147.5 -443t524.5 -165zM719 294q-97 0 -159 53.5t-62 249.5t62 248t159 52q98 0 159.5 -52t61.5 -248t-61.5 -249.5t-159.5 -53.5zM876 1237q69 0 114.5 19.5t73.5 50.5
t43 65.5t20.5 67t4.5 53.5h-213q0 -15 -7.5 -35t-25 -34t-44.5 -14q-29 0 -55 13.5t-55 32t-65.5 32t-87.5 13.5q-71 0 -119 -19t-76.5 -49t-43 -65t-19 -66.5t-5.5 -52.5h215q0 15 6 35t23 34t48 14q29 0 56 -14.5t57 -33t67 -33t88 -14.5zM483 1537h199l273 245h-297z" />
    <glyph glyph-name="uni1E4E" unicode="&#x1e4e;" horiz-adv-x="1498" 
d="M747 -12q410 0 556 181.5t146 505.5q0 325 -146 506.5t-556 181.5t-555.5 -181t-145.5 -507q0 -324 146 -505.5t555 -181.5zM747 296q-113 0 -179.5 53.5t-66.5 325.5q0 278 66.5 329t179.5 51q114 0 180.5 -51t66.5 -329q0 -272 -66.5 -325.5t-180.5 -53.5zM907 1400
q69 0 114.5 19.5t73.5 50.5t43 65.5t20.5 67t4.5 53.5h-213q0 -15 -7.5 -35t-25 -34t-44.5 -14q-29 0 -55 13.5t-55 32t-65.5 32t-87.5 13.5q-71 0 -119 -19t-76.5 -49t-43 -65t-19 -66.5t-5.5 -52.5h215q0 15 6 35t23 34t48 14q29 0 56 -14.5t57 -33t67 -33t88 -14.5z
M512 1713q47 0 81 34t34 82t-34 82t-81 34q-49 0 -83 -34t-34 -82t34 -82t83 -34zM981 1713q49 0 82.5 34t33.5 82t-33.5 82t-82.5 34q-47 0 -81 -34t-34 -82t33.5 -82t81.5 -34z" />
    <glyph glyph-name="uni1E4F" unicode="&#x1e4f;" horiz-adv-x="1452" 
d="M719 -9q378 0 525 165t147 443q0 279 -147 440t-525 161q-377 0 -524.5 -161t-147.5 -440q0 -278 147.5 -443t524.5 -165zM719 294q-97 0 -159 53.5t-62 249.5t62 248t159 52q98 0 159.5 -52t61.5 -248t-61.5 -249.5t-159.5 -53.5zM876 1237q69 0 114.5 19.5t73.5 50.5
t43 65.5t20.5 67t4.5 53.5h-213q0 -15 -7.5 -35t-25 -34t-44.5 -14q-29 0 -55 13.5t-55 32t-65.5 32t-87.5 13.5q-71 0 -119 -19t-76.5 -49t-43 -65t-19 -66.5t-5.5 -52.5h215q0 15 6 35t23 34t48 14q29 0 56 -14.5t57 -33t67 -33t88 -14.5zM482 1550q47 0 81 34t34 82
t-34 82t-81 34q-49 0 -83 -34t-34 -82t34 -82t83 -34zM951 1550q49 0 82.5 34t33.5 82t-33.5 82t-82.5 34q-47 0 -81 -34t-34 -82t33.5 -82t81.5 -34z" />
    <glyph glyph-name="uni1E50" unicode="&#x1e50;" horiz-adv-x="1498" 
d="M747 -12q410 0 556 181.5t146 505.5q0 325 -146 506.5t-556 181.5t-555.5 -181t-145.5 -507q0 -324 146 -505.5t555 -181.5zM747 296q-113 0 -179.5 53.5t-66.5 325.5q0 278 66.5 329t179.5 51q114 0 180.5 -51t66.5 -329q0 -272 -66.5 -325.5t-180.5 -53.5zM369 1437
h761v161h-761v-161zM787 1649h199l-176 245h-297z" />
    <glyph glyph-name="uni1E51" unicode="&#x1e51;" horiz-adv-x="1452" 
d="M719 -9q378 0 525 165t147 443q0 279 -147 440t-525 161q-377 0 -524.5 -161t-147.5 -440q0 -278 147.5 -443t524.5 -165zM719 294q-97 0 -159 53.5t-62 249.5t62 248t159 52q98 0 159.5 -52t61.5 -248t-61.5 -249.5t-159.5 -53.5zM338 1274h761v161h-761v-161zM757 1477
h199l-176 245h-297z" />
    <glyph glyph-name="uni1E52" unicode="&#x1e52;" horiz-adv-x="1498" 
d="M747 -12q410 0 556 181.5t146 505.5q0 325 -146 506.5t-556 181.5t-555.5 -181t-145.5 -507q0 -324 146 -505.5t555 -181.5zM747 296q-113 0 -179.5 53.5t-66.5 325.5q0 278 66.5 329t179.5 51q114 0 180.5 -51t66.5 -329q0 -272 -66.5 -325.5t-180.5 -53.5zM369 1437
h761v161h-761v-161zM513 1640h199l273 245h-297z" />
    <glyph glyph-name="uni1E53" unicode="&#x1e53;" horiz-adv-x="1452" 
d="M719 -9q378 0 525 165t147 443q0 279 -147 440t-525 161q-377 0 -524.5 -161t-147.5 -440q0 -278 147.5 -443t524.5 -165zM719 294q-97 0 -159 53.5t-62 249.5t62 248t159 52q98 0 159.5 -52t61.5 -248t-61.5 -249.5t-159.5 -53.5zM338 1274h761v161h-761v-161zM483 1477
h199l273 245h-297z" />
    <glyph glyph-name="uni1E5A" unicode="&#x1e5a;" horiz-adv-x="1449" 
d="M76 0h458v503h399q258 0 345 119t87 294q0 178 -82 306t-331 128h-876v-1350zM904 0h495l-345 637l-452 -15zM534 780v262h265q61 0 84.5 -32t23.5 -100q0 -67 -23 -98.5t-85 -31.5h-265zM713 -329q50 0 85.5 35.5t35.5 85.5t-35 85.5t-86 35.5q-50 0 -85.5 -35.5
t-35.5 -85.5t35.5 -85.5t85.5 -35.5z" />
    <glyph glyph-name="uni1E5B" unicode="&#x1e5b;" horiz-adv-x="1431" 
d="M874 575h451q0 316 -88 468.5t-351 152.5q-236 0 -385.5 -121t-149.5 -302l172 -93q0 82 52.5 145t137.5 63q73 0 117 -53t44 -260zM74 0h451v1001l-104 185h-347v-1186zM716 -360q50 0 85.5 35.5t35.5 85.5t-35 85.5t-86 35.5q-50 0 -85.5 -35.5t-35.5 -85.5t35.5 -85.5
t85.5 -35.5z" />
    <glyph glyph-name="Rmacronbelow" unicode="&#x1e5e;" horiz-adv-x="1449" 
d="M76 0h458v503h399q258 0 345 119t87 294q0 178 -82 306t-331 128h-876v-1350zM904 0h495l-345 637l-452 -15zM534 780v262h265q61 0 84.5 -32t23.5 -100q0 -67 -23 -98.5t-85 -31.5h-265zM332 -257h761v161h-761v-161z" />
    <glyph glyph-name="rmacronbelow" unicode="&#x1e5f;" horiz-adv-x="1431" 
d="M874 575h451q0 316 -88 468.5t-351 152.5q-236 0 -385.5 -121t-149.5 -302l172 -93q0 82 52.5 145t137.5 63q73 0 117 -53t44 -260zM74 0h451v1001l-104 185h-347v-1186zM336 -257h761v161h-761v-161z" />
    <glyph glyph-name="uni1E60" unicode="&#x1e60;" horiz-adv-x="1474" 
d="M734 -7q398 0 531 136t133 327q0 173 -106.5 242.5t-425.5 127.5q-166 28 -268 46.5t-102 91.5q0 51 64.5 72t159.5 21q83 0 151 -26t68 -148h457q0 195 -138.5 337.5t-532.5 142.5q-396 0 -533 -133.5t-137 -318.5q0 -178 110.5 -255t417.5 -135q169 -26 267.5 -46
t98.5 -84q0 -56 -64.5 -74t-154.5 -18q-89 0 -154.5 26.5t-65.5 150.5h-456q0 -208 135.5 -345.5t544.5 -137.5zM737 1392q50 0 85.5 35.5t35.5 85.5t-35 85.5t-86 35.5q-50 0 -85.5 -35.5t-35.5 -85.5t35.5 -85.5t85.5 -35.5z" />
    <glyph glyph-name="uni1E61" unicode="&#x1e61;" horiz-adv-x="1437" 
d="M746 -9q296 0 461.5 87.5t165.5 314.5q0 183 -143 257.5t-359 94.5q-156 18 -254.5 26.5t-98.5 60.5q0 37 40 56t126 19q95 0 170 -40.5t102 -95.5l394 145q-55 155 -228.5 217.5t-431.5 62.5q-270 0 -443 -85.5t-173 -279.5q0 -189 131 -277.5t352 -110.5
q164 -19 267.5 -26.5t103.5 -57.5q0 -40 -49 -59t-126 -19q-112 0 -189.5 39t-104.5 99l-394 -147q61 -152 244.5 -216.5t436.5 -64.5zM722 1229q50 0 85.5 35.5t35.5 85.5t-35 85.5t-86 35.5q-50 0 -85.5 -35.5t-35.5 -85.5t35.5 -85.5t85.5 -35.5z" />
    <glyph glyph-name="uni1E62" unicode="&#x1e62;" horiz-adv-x="1474" 
d="M734 -7q398 0 531 136t133 327q0 173 -106.5 242.5t-425.5 127.5q-166 28 -268 46.5t-102 91.5q0 51 64.5 72t159.5 21q83 0 151 -26t68 -148h457q0 195 -138.5 337.5t-532.5 142.5q-396 0 -533 -133.5t-137 -318.5q0 -178 110.5 -255t417.5 -135q169 -26 267.5 -46
t98.5 -84q0 -56 -64.5 -74t-154.5 -18q-89 0 -154.5 26.5t-65.5 150.5h-456q0 -208 135.5 -345.5t544.5 -137.5zM737 -329q50 0 85.5 35.5t35.5 85.5t-35 85.5t-86 35.5q-50 0 -85.5 -35.5t-35.5 -85.5t35.5 -85.5t85.5 -35.5z" />
    <glyph glyph-name="uni1E63" unicode="&#x1e63;" horiz-adv-x="1437" 
d="M746 -9q296 0 461.5 87.5t165.5 314.5q0 183 -143 257.5t-359 94.5q-156 18 -254.5 26.5t-98.5 60.5q0 37 40 56t126 19q95 0 170 -40.5t102 -95.5l394 145q-55 155 -228.5 217.5t-431.5 62.5q-270 0 -443 -85.5t-173 -279.5q0 -189 131 -277.5t352 -110.5
q164 -19 267.5 -26.5t103.5 -57.5q0 -40 -49 -59t-126 -19q-112 0 -189.5 39t-104.5 99l-394 -147q61 -152 244.5 -216.5t436.5 -64.5zM717 -360q50 0 85.5 35.5t35.5 85.5t-35 85.5t-86 35.5q-50 0 -85.5 -35.5t-35.5 -85.5t35.5 -85.5t85.5 -35.5z" />
    <glyph glyph-name="uni1E64" unicode="&#x1e64;" horiz-adv-x="1474" 
d="M734 -7q398 0 531 136t133 327q0 173 -106.5 242.5t-425.5 127.5q-166 28 -268 46.5t-102 91.5q0 51 64.5 72t159.5 21q83 0 151 -26t68 -148h457q0 195 -138.5 337.5t-532.5 142.5q-396 0 -533 -133.5t-137 -318.5q0 -178 110.5 -255t417.5 -135q169 -26 267.5 -46
t98.5 -84q0 -56 -64.5 -74t-154.5 -18q-89 0 -154.5 26.5t-65.5 150.5h-456q0 -208 135.5 -345.5t544.5 -137.5zM501 1392h199l273 245h-297zM737 1679q50 0 85.5 35.5t35.5 85.5t-35 85.5t-86 35.5q-50 0 -85.5 -35.5t-35.5 -85.5t35.5 -85.5t85.5 -35.5z" />
    <glyph glyph-name="uni1E65" unicode="&#x1e65;" horiz-adv-x="1437" 
d="M746 -9q296 0 461.5 87.5t165.5 314.5q0 183 -143 257.5t-359 94.5q-156 18 -254.5 26.5t-98.5 60.5q0 37 40 56t126 19q95 0 170 -40.5t102 -95.5l394 145q-55 155 -228.5 217.5t-431.5 62.5q-270 0 -443 -85.5t-173 -279.5q0 -189 131 -277.5t352 -110.5
q164 -19 267.5 -26.5t103.5 -57.5q0 -40 -49 -59t-126 -19q-112 0 -189.5 39t-104.5 99l-394 -147q61 -152 244.5 -216.5t436.5 -64.5zM486 1229h199l273 245h-297zM722 1516q50 0 85.5 35.5t35.5 85.5t-35 85.5t-86 35.5q-50 0 -85.5 -35.5t-35.5 -85.5t35.5 -85.5
t85.5 -35.5z" />
    <glyph glyph-name="uni1E66" unicode="&#x1e66;" horiz-adv-x="1474" 
d="M734 -7q398 0 531 136t133 327q0 173 -106.5 242.5t-425.5 127.5q-166 28 -268 46.5t-102 91.5q0 51 64.5 72t159.5 21q83 0 151 -26t68 -148h457q0 195 -138.5 337.5t-532.5 142.5q-396 0 -533 -133.5t-137 -318.5q0 -178 110.5 -255t417.5 -135q169 -26 267.5 -46
t98.5 -84q0 -56 -64.5 -74t-154.5 -18q-89 0 -154.5 26.5t-65.5 150.5h-456q0 -208 135.5 -345.5t544.5 -137.5zM595 1393h283l236 233h-253l-124 -147l-124 147h-253zM737 1668q50 0 85.5 35.5t35.5 85.5t-35 85.5t-86 35.5q-50 0 -85.5 -35.5t-35.5 -85.5t35.5 -85.5
t85.5 -35.5z" />
    <glyph glyph-name="uni1E67" unicode="&#x1e67;" horiz-adv-x="1437" 
d="M746 -9q296 0 461.5 87.5t165.5 314.5q0 183 -143 257.5t-359 94.5q-156 18 -254.5 26.5t-98.5 60.5q0 37 40 56t126 19q95 0 170 -40.5t102 -95.5l394 145q-55 155 -228.5 217.5t-431.5 62.5q-270 0 -443 -85.5t-173 -279.5q0 -189 131 -277.5t352 -110.5
q164 -19 267.5 -26.5t103.5 -57.5q0 -40 -49 -59t-126 -19q-112 0 -189.5 39t-104.5 99l-394 -147q61 -152 244.5 -216.5t436.5 -64.5zM580 1230h283l236 233h-253l-124 -147l-124 147h-253zM722 1505q50 0 85.5 35.5t35.5 85.5t-35 85.5t-86 35.5q-50 0 -85.5 -35.5
t-35.5 -85.5t35.5 -85.5t85.5 -35.5z" />
    <glyph glyph-name="uni1E68" unicode="&#x1e68;" horiz-adv-x="1474" 
d="M734 -7q398 0 531 136t133 327q0 173 -106.5 242.5t-425.5 127.5q-166 28 -268 46.5t-102 91.5q0 51 64.5 72t159.5 21q83 0 151 -26t68 -148h457q0 195 -138.5 337.5t-532.5 142.5q-396 0 -533 -133.5t-137 -318.5q0 -178 110.5 -255t417.5 -135q169 -26 267.5 -46
t98.5 -84q0 -56 -64.5 -74t-154.5 -18q-89 0 -154.5 26.5t-65.5 150.5h-456q0 -208 135.5 -345.5t544.5 -137.5zM737 -329q50 0 85.5 35.5t35.5 85.5t-35 85.5t-86 35.5q-50 0 -85.5 -35.5t-35.5 -85.5t35.5 -85.5t85.5 -35.5zM737 1392q50 0 85.5 35.5t35.5 85.5t-35 85.5
t-86 35.5q-50 0 -85.5 -35.5t-35.5 -85.5t35.5 -85.5t85.5 -35.5z" />
    <glyph glyph-name="uni1E69" unicode="&#x1e69;" horiz-adv-x="1437" 
d="M746 -9q296 0 461.5 87.5t165.5 314.5q0 183 -143 257.5t-359 94.5q-156 18 -254.5 26.5t-98.5 60.5q0 37 40 56t126 19q95 0 170 -40.5t102 -95.5l394 145q-55 155 -228.5 217.5t-431.5 62.5q-270 0 -443 -85.5t-173 -279.5q0 -189 131 -277.5t352 -110.5
q164 -19 267.5 -26.5t103.5 -57.5q0 -40 -49 -59t-126 -19q-112 0 -189.5 39t-104.5 99l-394 -147q61 -152 244.5 -216.5t436.5 -64.5zM717 -360q50 0 85.5 35.5t35.5 85.5t-35 85.5t-86 35.5q-50 0 -85.5 -35.5t-35.5 -85.5t35.5 -85.5t85.5 -35.5zM722 1229
q50 0 85.5 35.5t35.5 85.5t-35 85.5t-86 35.5q-50 0 -85.5 -35.5t-35.5 -85.5t35.5 -85.5t85.5 -35.5z" />
    <glyph glyph-name="uni1E6C" unicode="&#x1e6c;" horiz-adv-x="1379" 
d="M461 0h457v1042h391v308h-1240v-308h392v-1042zM690 -329q50 0 85.5 35.5t35.5 85.5t-35 85.5t-86 35.5q-50 0 -85.5 -35.5t-35.5 -85.5t35.5 -85.5t85.5 -35.5z" />
    <glyph glyph-name="uni1E6D" unicode="&#x1e6d;" horiz-adv-x="1134" 
d="M721 -17q158 0 302 31v296q-72 -27 -147 -27q-66 0 -103.5 25t-37.5 110v460h342v308h-342v273h-452v-273h-264v-308h264v-556q0 -189 128.5 -264t309.5 -75zM700 -360q50 0 85.5 35.5t35.5 85.5t-35 85.5t-86 35.5q-50 0 -85.5 -35.5t-35.5 -85.5t35.5 -85.5t85.5 -35.5
z" />
    <glyph glyph-name="Tmacronbelow" unicode="&#x1e6e;" horiz-adv-x="1379" 
d="M461 0h457v1042h391v308h-1240v-308h392v-1042zM309 -257h761v161h-761v-161z" />
    <glyph glyph-name="tmacronbelow" unicode="&#x1e6f;" horiz-adv-x="1134" 
d="M721 -17q158 0 302 31v296q-72 -27 -147 -27q-66 0 -103.5 25t-37.5 110v460h342v308h-342v273h-452v-273h-264v-308h264v-556q0 -189 128.5 -264t309.5 -75zM319 -257h761v161h-761v-161z" />
    <glyph glyph-name="uni1E78" unicode="&#x1e78;" horiz-adv-x="1509" 
d="M748 -7q345 0 510.5 110.5t165.5 369.5v877h-457v-830q0 -116 -49 -167.5t-170 -51.5t-170 52t-49 167v830h-457v-877q0 -259 165.5 -369.5t510.5 -110.5zM912 1400q69 0 114.5 19.5t73.5 50.5t43 65.5t20.5 67t4.5 53.5h-213q0 -15 -7.5 -35t-25 -34t-44.5 -14
q-29 0 -55 13.5t-55 32t-65.5 32t-87.5 13.5q-71 0 -119 -19t-76.5 -49t-43 -65t-19 -66.5t-5.5 -52.5h215q0 15 6 35t23 34t48 14q29 0 56 -14.5t57 -33t67 -33t88 -14.5zM519 1700h199l273 245h-297z" />
    <glyph glyph-name="uni1E79" unicode="&#x1e79;" horiz-adv-x="1426" 
d="M981 0h345v1186h-451v-1006zM515 1186h-451v-609q0 -261 88 -423.5t341 -162.5q294 0 449.5 173t155.5 339l-221 77q0 -133 -64 -207t-152 -74q-78 0 -112 55.5t-34 246.5v585zM865 1236q69 0 114.5 19.5t73.5 50.5t43 65.5t20.5 67t4.5 53.5h-213q0 -15 -7.5 -35
t-25 -34t-44.5 -14q-29 0 -55 13.5t-55 32t-65.5 32t-87.5 13.5q-71 0 -119 -19t-76.5 -49t-43 -65t-19 -66.5t-5.5 -52.5h215q0 15 6 35t23 34t48 14q29 0 56 -14.5t57 -33t67 -33t88 -14.5zM471 1536h199l273 245h-297z" />
    <glyph glyph-name="uni1E7A" unicode="&#x1e7a;" horiz-adv-x="1509" 
d="M748 -7q345 0 510.5 110.5t165.5 369.5v877h-457v-830q0 -116 -49 -167.5t-170 -51.5t-170 52t-49 167v830h-457v-877q0 -259 165.5 -369.5t510.5 -110.5zM375 1437h761v161h-761v-161zM517 1653q47 0 81 34t34 82t-34 82t-81 34q-49 0 -83 -34t-34 -82t34 -82t83 -34z
M986 1653q49 0 82.5 34t33.5 82t-33.5 82t-82.5 34q-47 0 -81 -34t-34 -82t33.5 -82t81.5 -34z" />
    <glyph glyph-name="uni1E7B" unicode="&#x1e7b;" horiz-adv-x="1426" 
d="M981 0h345v1186h-451v-1006zM515 1186h-451v-609q0 -261 88 -423.5t341 -162.5q294 0 449.5 173t155.5 339l-221 77q0 -133 -64 -207t-152 -74q-78 0 -112 55.5t-34 246.5v585zM327 1273h761v161h-761v-161zM470 1489q47 0 81 34t34 82t-34 82t-81 34q-49 0 -83 -34
t-34 -82t34 -82t83 -34zM939 1489q49 0 82.5 34t33.5 82t-33.5 82t-82.5 34q-47 0 -81 -34t-34 -82t33.5 -82t81.5 -34z" />
    <glyph glyph-name="Wgrave" unicode="&#x1e80;" horiz-adv-x="2219" 
d="M259 0h695l143 1042h3l142 -1042h695l239 1350h-493l-119 -1020h-3l-165 1020h-595l-164 -1019h-4l-111 1019h-491zM1148 1392h199l-176 245h-297z" />
    <glyph glyph-name="wgrave" unicode="&#x1e81;" horiz-adv-x="2098" 
d="M306 0h601l140 734l139 -734h595l266 1186h-466l-111 -889h-3l-194 889h-446l-198 -892h-3l-118 892h-466zM1084 1228h199l-176 245h-297z" />
    <glyph glyph-name="Wacute" unicode="&#x1e82;" horiz-adv-x="2219" 
d="M259 0h695l143 1042h3l142 -1042h695l239 1350h-493l-119 -1020h-3l-165 1020h-595l-164 -1019h-4l-111 1019h-491zM874 1392h199l273 245h-297z" />
    <glyph glyph-name="wacute" unicode="&#x1e83;" horiz-adv-x="2098" 
d="M306 0h601l140 734l139 -734h595l266 1186h-466l-111 -889h-3l-194 889h-446l-198 -892h-3l-118 892h-466zM810 1228h199l273 245h-297z" />
    <glyph glyph-name="Wdieresis" unicode="&#x1e84;" horiz-adv-x="2219" 
d="M259 0h695l143 1042h3l142 -1042h695l239 1350h-493l-119 -1020h-3l-165 1020h-595l-164 -1019h-4l-111 1019h-491zM873 1405q47 0 81 34t34 82t-34 82t-81 34q-49 0 -83 -34t-34 -82t34 -82t83 -34zM1342 1405q49 0 82.5 34t33.5 82t-33.5 82t-82.5 34q-47 0 -81 -34
t-34 -82t33.5 -82t81.5 -34z" />
    <glyph glyph-name="wdieresis" unicode="&#x1e85;" horiz-adv-x="2098" 
d="M306 0h601l140 734l139 -734h595l266 1186h-466l-111 -889h-3l-194 889h-446l-198 -892h-3l-118 892h-466zM809 1241q47 0 81 34t34 82t-34 82t-81 34q-49 0 -83 -34t-34 -82t34 -82t83 -34zM1278 1241q49 0 82.5 34t33.5 82t-33.5 82t-82.5 34q-47 0 -81 -34t-34 -82
t33.5 -82t81.5 -34z" />
    <glyph glyph-name="uni1E8E" unicode="&#x1e8e;" horiz-adv-x="1541" 
d="M545 0h456v477l541 873h-494l-273 -519h-2l-276 519h-494l542 -872v-478zM771 1392q50 0 85.5 35.5t35.5 85.5t-35 85.5t-86 35.5q-50 0 -85.5 -35.5t-35.5 -85.5t35.5 -85.5t85.5 -35.5z" />
    <glyph glyph-name="uni1E8F" unicode="&#x1e8f;" horiz-adv-x="1392" 
d="M344 0h689l323 1186h-472l-195 -894h-3l-198 894h-471zM136 -469q372 0 592.5 87.5t304.5 381.5l-417 1q-30 -112 -136 -139.5t-344 -27.5v-303zM684 1228q50 0 85.5 35.5t35.5 85.5t-35 85.5t-86 35.5q-50 0 -85.5 -35.5t-35.5 -85.5t35.5 -85.5t85.5 -35.5z" />
    <glyph glyph-name="uni1E92" unicode="&#x1e92;" horiz-adv-x="1252" 
d="M56 0h1113v307h-611l601 736v307h-1088v-305h587l-602 -728v-317zM626 -329q50 0 85.5 35.5t35.5 85.5t-35 85.5t-86 35.5q-50 0 -85.5 -35.5t-35.5 -85.5t35.5 -85.5t85.5 -35.5z" />
    <glyph glyph-name="uni1E93" unicode="&#x1e93;" horiz-adv-x="1192" 
d="M72 0h1045v306h-505v2l494 579v299h-1036v-306h513v-1l-511 -578v-301zM597 -360q50 0 85.5 35.5t35.5 85.5t-35 85.5t-86 35.5q-50 0 -85.5 -35.5t-35.5 -85.5t35.5 -85.5t85.5 -35.5z" />
    <glyph glyph-name="uni1E97" unicode="&#x1e97;" horiz-adv-x="1134" 
d="M721 -17q158 0 302 31v296q-72 -27 -147 -27q-66 0 -103.5 25t-37.5 110v460h342v308h-342v273h-452v-273h-264v-308h264v-556q0 -189 128.5 -264t309.5 -75zM276 1509q47 0 81 34t34 82t-34 82t-81 34q-49 0 -83 -34t-34 -82t34 -82t83 -34zM745 1509q49 0 82.5 34
t33.5 82t-33.5 82t-82.5 34q-47 0 -81 -34t-34 -82t33.5 -82t81.5 -34z" />
    <glyph glyph-name="uni1E9E" unicode="&#x1e9e;" horiz-adv-x="1422" 
d="M76 0h455v1031h243l-137 -190v-270q46 -3 89 -10.5t78 -23t56 -41t21 -64.5q0 -41 -12.5 -67.5t-41 -40.5t-74.5 -19t-115 -6v-299q227 1 367 28t214 80.5t100.5 131t26.5 178.5q0 73 -19.5 128t-59 95t-99.5 64.5t-140 36.5l258 316v292h-1210v-1350z" />
    <glyph glyph-name="uni1EA0" unicode="&#x1ea0;" horiz-adv-x="1574" 
d="M54 0h470l69 289h391l68 -289h470l-413 1351h-643zM666 587l121 499h4l121 -499h-246zM786 -329q50 0 85.5 35.5t35.5 85.5t-35 85.5t-86 35.5q-50 0 -85.5 -35.5t-35.5 -85.5t35.5 -85.5t85.5 -35.5z" />
    <glyph glyph-name="uni1EA1" unicode="&#x1ea1;" horiz-adv-x="1457" 
d="M549 -14q69 0 133 11t117.5 30t92.5 43.5t58 52.5l40 -123h375v727q0 173 -74 276t-219 149t-360 46q-111 0 -216 -16t-193 -51t-150.5 -94t-87.5 -145l441 -125q16 52 48.5 80.5t74.5 39.5t85 11q62 0 106 -13t67.5 -44.5t23.5 -88.5v-27h-363q-127 0 -221 -20
t-155.5 -63t-91.5 -112t-30 -168q0 -106 32 -178.5t96 -116t156.5 -62.5t214.5 -19zM652 272q-34 0 -61 5t-46 16.5t-28.5 32t-9.5 53.5q0 34 9 55t27 31.5t46.5 14.5t66.5 4h248v-128q-21 -24 -61.5 -43.5t-90.5 -30t-100 -10.5zM730 -360q50 0 85.5 35.5t35.5 85.5
t-35 85.5t-86 35.5q-50 0 -85.5 -35.5t-35.5 -85.5t35.5 -85.5t85.5 -35.5z" />
    <glyph glyph-name="uni1EA2" unicode="&#x1ea2;" horiz-adv-x="1574" 
d="M54 0h470l69 289h391l68 -289h470l-413 1351h-643zM666 587l121 499h4l121 -499h-246zM621 1741v-131q110 0 170 -1t83 -5.5t23 -13.5q0 -8 -20.5 -13.5t-62 -7.5t-105.5 -2v-157h154v56q46 0 90 7.5t79 23.5t55.5 42.5t20.5 64.5q0 54 -48 83.5t-154.5 41.5t-284.5 12z
" />
    <glyph glyph-name="uni1EA3" unicode="&#x1ea3;" horiz-adv-x="1457" 
d="M549 -14q69 0 133 11t117.5 30t92.5 43.5t58 52.5l40 -123h375v727q0 173 -74 276t-219 149t-360 46q-111 0 -216 -16t-193 -51t-150.5 -94t-87.5 -145l441 -125q16 52 48.5 80.5t74.5 39.5t85 11q62 0 106 -13t67.5 -44.5t23.5 -88.5v-27h-363q-127 0 -221 -20
t-155.5 -63t-91.5 -112t-30 -168q0 -106 32 -178.5t96 -116t156.5 -62.5t214.5 -19zM652 272q-34 0 -61 5t-46 16.5t-28.5 32t-9.5 53.5q0 34 9 55t27 31.5t46.5 14.5t66.5 4h248v-128q-21 -24 -61.5 -43.5t-90.5 -30t-100 -10.5zM533 1578v-131q110 0 170 -1t83 -5.5
t23 -13.5q0 -8 -20.5 -13.5t-62 -7.5t-105.5 -2v-157h154v56q46 0 90 7.5t79 23.5t55.5 42.5t20.5 64.5q0 54 -48 83.5t-154.5 41.5t-284.5 12z" />
    <glyph glyph-name="uni1EA4" unicode="&#x1ea4;" horiz-adv-x="1574" 
d="M54 0h470l69 289h391l68 -289h470l-413 1351h-643zM666 587l121 499h4l121 -499h-246zM408 1414h253l125 148l123 -148h253l-236 233h-283zM1021 1602h199l273 245h-297z" />
    <glyph glyph-name="uni1EA5" unicode="&#x1ea5;" horiz-adv-x="1457" 
d="M549 -14q69 0 133 11t117.5 30t92.5 43.5t58 52.5l40 -123h375v727q0 173 -74 276t-219 149t-360 46q-111 0 -216 -16t-193 -51t-150.5 -94t-87.5 -145l441 -125q16 52 48.5 80.5t74.5 39.5t85 11q62 0 106 -13t67.5 -44.5t23.5 -88.5v-27h-363q-127 0 -221 -20
t-155.5 -63t-91.5 -112t-30 -168q0 -106 32 -178.5t96 -116t156.5 -62.5t214.5 -19zM652 272q-34 0 -61 5t-46 16.5t-28.5 32t-9.5 53.5q0 34 9 55t27 31.5t46.5 14.5t66.5 4h248v-128q-21 -24 -61.5 -43.5t-90.5 -30t-100 -10.5zM331 1250h253l125 148l123 -148h253
l-236 233h-283zM944 1438h199l273 245h-297z" />
    <glyph glyph-name="uni1EA6" unicode="&#x1ea6;" horiz-adv-x="1574" 
d="M54 0h470l69 289h391l68 -289h470l-413 1351h-643zM666 587l121 499h4l121 -499h-246zM408 1414h253l125 148l123 -148h253l-236 233h-283zM1109 1602h199l-176 245h-297z" />
    <glyph glyph-name="uni1EA7" unicode="&#x1ea7;" horiz-adv-x="1457" 
d="M549 -14q69 0 133 11t117.5 30t92.5 43.5t58 52.5l40 -123h375v727q0 173 -74 276t-219 149t-360 46q-111 0 -216 -16t-193 -51t-150.5 -94t-87.5 -145l441 -125q16 52 48.5 80.5t74.5 39.5t85 11q62 0 106 -13t67.5 -44.5t23.5 -88.5v-27h-363q-127 0 -221 -20
t-155.5 -63t-91.5 -112t-30 -168q0 -106 32 -178.5t96 -116t156.5 -62.5t214.5 -19zM652 272q-34 0 -61 5t-46 16.5t-28.5 32t-9.5 53.5q0 34 9 55t27 31.5t46.5 14.5t66.5 4h248v-128q-21 -24 -61.5 -43.5t-90.5 -30t-100 -10.5zM331 1251h253l125 148l123 -148h253
l-236 233h-283zM1032 1438h199l-176 245h-297z" />
    <glyph glyph-name="uni1EA8" unicode="&#x1ea8;" horiz-adv-x="1574" 
d="M54 0h470l69 289h391l68 -289h470l-413 1351h-643zM666 587l121 499h4l121 -499h-246zM409 1403h253l125 148l123 -148h253l-236 233h-283zM610 2027v-131q110 0 170 -1t83 -5.5t23 -13.5q0 -8 -20.5 -13.5t-62 -7.5t-105.5 -2v-157h154v56q46 0 90 7.5t79 23.5
t55.5 42.5t20.5 64.5q0 54 -48 83.5t-154.5 41.5t-284.5 12z" />
    <glyph glyph-name="uni1EA9" unicode="&#x1ea9;" horiz-adv-x="1457" 
d="M549 -14q69 0 133 11t117.5 30t92.5 43.5t58 52.5l40 -123h375v727q0 173 -74 276t-219 149t-360 46q-111 0 -216 -16t-193 -51t-150.5 -94t-87.5 -145l441 -125q16 52 48.5 80.5t74.5 39.5t85 11q62 0 106 -13t67.5 -44.5t23.5 -88.5v-27h-363q-127 0 -221 -20
t-155.5 -63t-91.5 -112t-30 -168q0 -106 32 -178.5t96 -116t156.5 -62.5t214.5 -19zM652 272q-34 0 -61 5t-46 16.5t-28.5 32t-9.5 53.5q0 34 9 55t27 31.5t46.5 14.5t66.5 4h248v-128q-21 -24 -61.5 -43.5t-90.5 -30t-100 -10.5zM333 1240h253l125 148l123 -148h253
l-236 233h-283zM533 1864v-131q110 0 170 -1t83 -5.5t23 -13.5q0 -8 -20.5 -13.5t-62 -7.5t-105.5 -2v-157h154v56q46 0 90 7.5t79 23.5t55.5 42.5t20.5 64.5q0 54 -48 83.5t-154.5 41.5t-284.5 12z" />
    <glyph glyph-name="uni1EAA" unicode="&#x1eaa;" horiz-adv-x="1574" 
d="M54 0h470l69 289h391l68 -289h470l-413 1351h-643zM666 587l121 499h4l121 -499h-246zM409 1403h253l125 148l123 -148h253l-236 233h-283zM943 1686q69 0 114.5 19.5t73.5 50.5t43 65.5t20.5 67t4.5 53.5h-213q0 -15 -7.5 -35t-25 -34t-44.5 -14q-29 0 -55 13.5t-55 32
t-65.5 32t-87.5 13.5q-71 0 -119 -19t-76.5 -49t-43 -65t-19 -66.5t-5.5 -52.5h215q0 15 6 35t23 34t48 14q29 0 56 -14.5t57 -33t67 -33t88 -14.5z" />
    <glyph glyph-name="uni1EAB" unicode="&#x1eab;" horiz-adv-x="1457" 
d="M549 -14q69 0 133 11t117.5 30t92.5 43.5t58 52.5l40 -123h375v727q0 173 -74 276t-219 149t-360 46q-111 0 -216 -16t-193 -51t-150.5 -94t-87.5 -145l441 -125q16 52 48.5 80.5t74.5 39.5t85 11q62 0 106 -13t67.5 -44.5t23.5 -88.5v-27h-363q-127 0 -221 -20
t-155.5 -63t-91.5 -112t-30 -168q0 -106 32 -178.5t96 -116t156.5 -62.5t214.5 -19zM652 272q-34 0 -61 5t-46 16.5t-28.5 32t-9.5 53.5q0 34 9 55t27 31.5t46.5 14.5t66.5 4h248v-128q-21 -24 -61.5 -43.5t-90.5 -30t-100 -10.5zM333 1240h253l125 148l123 -148h253
l-236 233h-283zM867 1523q69 0 114.5 19.5t73.5 50.5t43 65.5t20.5 67t4.5 53.5h-213q0 -15 -7.5 -35t-25 -34t-44.5 -14q-29 0 -55 13.5t-55 32t-65.5 32t-87.5 13.5q-71 0 -119 -19t-76.5 -49t-43 -65t-19 -66.5t-5.5 -52.5h215q0 15 6 35t23 34t48 14q29 0 56 -14.5
t57 -33t67 -33t88 -14.5z" />
    <glyph glyph-name="uni1EAC" unicode="&#x1eac;" horiz-adv-x="1574" 
d="M54 0h470l69 289h391l68 -289h470l-413 1351h-643zM666 587l121 499h4l121 -499h-246zM786 -329q50 0 85.5 35.5t35.5 85.5t-35 85.5t-86 35.5q-50 0 -85.5 -35.5t-35.5 -85.5t35.5 -85.5t85.5 -35.5zM409 1403h253l125 148l123 -148h253l-236 233h-283z" />
    <glyph glyph-name="uni1EAD" unicode="&#x1ead;" horiz-adv-x="1457" 
d="M549 -14q69 0 133 11t117.5 30t92.5 43.5t58 52.5l40 -123h375v727q0 173 -74 276t-219 149t-360 46q-111 0 -216 -16t-193 -51t-150.5 -94t-87.5 -145l441 -125q16 52 48.5 80.5t74.5 39.5t85 11q62 0 106 -13t67.5 -44.5t23.5 -88.5v-27h-363q-127 0 -221 -20
t-155.5 -63t-91.5 -112t-30 -168q0 -106 32 -178.5t96 -116t156.5 -62.5t214.5 -19zM652 272q-34 0 -61 5t-46 16.5t-28.5 32t-9.5 53.5q0 34 9 55t27 31.5t46.5 14.5t66.5 4h248v-128q-21 -24 -61.5 -43.5t-90.5 -30t-100 -10.5zM730 -360q50 0 85.5 35.5t35.5 85.5
t-35 85.5t-86 35.5q-50 0 -85.5 -35.5t-35.5 -85.5t35.5 -85.5t85.5 -35.5zM333 1240h253l125 148l123 -148h253l-236 233h-283z" />
    <glyph glyph-name="uni1EAE" unicode="&#x1eae;" horiz-adv-x="1574" 
d="M54 0h470l69 289h391l68 -289h470l-413 1351h-643zM666 587l121 499h4l121 -499h-246zM787 1394q93 0 159.5 31t102 82.5t35.5 114.5h-207q0 -28 -8.5 -47t-28.5 -28t-53 -9q-29 0 -49 9t-30.5 27.5t-10.5 47.5h-208q0 -63 37 -114.5t103.5 -82.5t157.5 -31zM550 1664
h199l273 245h-297z" />
    <glyph glyph-name="uni1EAF" unicode="&#x1eaf;" horiz-adv-x="1457" 
d="M549 -14q69 0 133 11t117.5 30t92.5 43.5t58 52.5l40 -123h375v727q0 173 -74 276t-219 149t-360 46q-111 0 -216 -16t-193 -51t-150.5 -94t-87.5 -145l441 -125q16 52 48.5 80.5t74.5 39.5t85 11q62 0 106 -13t67.5 -44.5t23.5 -88.5v-27h-363q-127 0 -221 -20
t-155.5 -63t-91.5 -112t-30 -168q0 -106 32 -178.5t96 -116t156.5 -62.5t214.5 -19zM652 272q-34 0 -61 5t-46 16.5t-28.5 32t-9.5 53.5q0 34 9 55t27 31.5t46.5 14.5t66.5 4h248v-128q-21 -24 -61.5 -43.5t-90.5 -30t-100 -10.5zM710 1231q93 0 159.5 31t102 82.5
t35.5 114.5h-207q0 -28 -8.5 -47t-28.5 -28t-53 -9q-29 0 -49 9t-30.5 27.5t-10.5 47.5h-208q0 -63 37 -114.5t103.5 -82.5t157.5 -31zM473 1501h199l273 245h-297z" />
    <glyph glyph-name="uni1EB0" unicode="&#x1eb0;" horiz-adv-x="1574" 
d="M54 0h470l69 289h391l68 -289h470l-413 1351h-643zM666 587l121 499h4l121 -499h-246zM787 1394q93 0 159.5 31t102 82.5t35.5 114.5h-207q0 -28 -8.5 -47t-28.5 -28t-53 -9q-29 0 -49 9t-30.5 27.5t-10.5 47.5h-208q0 -63 37 -114.5t103.5 -82.5t157.5 -31zM823 1664
h199l-176 245h-297z" />
    <glyph glyph-name="uni1EB1" unicode="&#x1eb1;" horiz-adv-x="1457" 
d="M549 -14q69 0 133 11t117.5 30t92.5 43.5t58 52.5l40 -123h375v727q0 173 -74 276t-219 149t-360 46q-111 0 -216 -16t-193 -51t-150.5 -94t-87.5 -145l441 -125q16 52 48.5 80.5t74.5 39.5t85 11q62 0 106 -13t67.5 -44.5t23.5 -88.5v-27h-363q-127 0 -221 -20
t-155.5 -63t-91.5 -112t-30 -168q0 -106 32 -178.5t96 -116t156.5 -62.5t214.5 -19zM652 272q-34 0 -61 5t-46 16.5t-28.5 32t-9.5 53.5q0 34 9 55t27 31.5t46.5 14.5t66.5 4h248v-128q-21 -24 -61.5 -43.5t-90.5 -30t-100 -10.5zM710 1231q93 0 159.5 31t102 82.5
t35.5 114.5h-207q0 -28 -8.5 -47t-28.5 -28t-53 -9q-29 0 -49 9t-30.5 27.5t-10.5 47.5h-208q0 -63 37 -114.5t103.5 -82.5t157.5 -31zM747 1501h199l-176 245h-297z" />
    <glyph glyph-name="uni1EB2" unicode="&#x1eb2;" horiz-adv-x="1574" 
d="M54 0h470l69 289h391l68 -289h470l-413 1351h-643zM666 587l121 499h4l121 -499h-246zM787 1394q93 0 159.5 31t102 82.5t35.5 114.5h-207q0 -28 -8.5 -47t-28.5 -28t-53 -9q-29 0 -49 9t-30.5 27.5t-10.5 47.5h-208q0 -63 37 -114.5t103.5 -82.5t157.5 -31zM610 2013
v-131q110 0 170 -1t83 -5.5t23 -13.5q0 -8 -20.5 -13.5t-62 -7.5t-105.5 -2v-157h154v56q46 0 90 7.5t79 23.5t55.5 42.5t20.5 64.5q0 54 -48 83.5t-154.5 41.5t-284.5 12z" />
    <glyph glyph-name="uni1EB3" unicode="&#x1eb3;" horiz-adv-x="1457" 
d="M549 -14q69 0 133 11t117.5 30t92.5 43.5t58 52.5l40 -123h375v727q0 173 -74 276t-219 149t-360 46q-111 0 -216 -16t-193 -51t-150.5 -94t-87.5 -145l441 -125q16 52 48.5 80.5t74.5 39.5t85 11q62 0 106 -13t67.5 -44.5t23.5 -88.5v-27h-363q-127 0 -221 -20
t-155.5 -63t-91.5 -112t-30 -168q0 -106 32 -178.5t96 -116t156.5 -62.5t214.5 -19zM652 272q-34 0 -61 5t-46 16.5t-28.5 32t-9.5 53.5q0 34 9 55t27 31.5t46.5 14.5t66.5 4h248v-128q-21 -24 -61.5 -43.5t-90.5 -30t-100 -10.5zM710 1231q93 0 159.5 31t102 82.5
t35.5 114.5h-207q0 -28 -8.5 -47t-28.5 -28t-53 -9q-29 0 -49 9t-30.5 27.5t-10.5 47.5h-208q0 -63 37 -114.5t103.5 -82.5t157.5 -31zM533 1850v-131q110 0 170 -1t83 -5.5t23 -13.5q0 -8 -20.5 -13.5t-62 -7.5t-105.5 -2v-157h154v56q46 0 90 7.5t79 23.5t55.5 42.5
t20.5 64.5q0 54 -48 83.5t-154.5 41.5t-284.5 12z" />
    <glyph glyph-name="uni1EB4" unicode="&#x1eb4;" horiz-adv-x="1574" 
d="M54 0h470l69 289h391l68 -289h470l-413 1351h-643zM666 587l121 499h4l121 -499h-246zM787 1394q93 0 159.5 31t102 82.5t35.5 114.5h-207q0 -28 -8.5 -47t-28.5 -28t-53 -9q-29 0 -49 9t-30.5 27.5t-10.5 47.5h-208q0 -63 37 -114.5t103.5 -82.5t157.5 -31zM943 1672
q69 0 114.5 19.5t73.5 50.5t43 65.5t20.5 67t4.5 53.5h-213q0 -15 -7.5 -35t-25 -34t-44.5 -14q-29 0 -55 13.5t-55 32t-65.5 32t-87.5 13.5q-71 0 -119 -19t-76.5 -49t-43 -65t-19 -66.5t-5.5 -52.5h215q0 15 6 35t23 34t48 14q29 0 56 -14.5t57 -33t67 -33t88 -14.5z" />
    <glyph glyph-name="uni1EB5" unicode="&#x1eb5;" horiz-adv-x="1457" 
d="M549 -14q69 0 133 11t117.5 30t92.5 43.5t58 52.5l40 -123h375v727q0 173 -74 276t-219 149t-360 46q-111 0 -216 -16t-193 -51t-150.5 -94t-87.5 -145l441 -125q16 52 48.5 80.5t74.5 39.5t85 11q62 0 106 -13t67.5 -44.5t23.5 -88.5v-27h-363q-127 0 -221 -20
t-155.5 -63t-91.5 -112t-30 -168q0 -106 32 -178.5t96 -116t156.5 -62.5t214.5 -19zM652 272q-34 0 -61 5t-46 16.5t-28.5 32t-9.5 53.5q0 34 9 55t27 31.5t46.5 14.5t66.5 4h248v-128q-21 -24 -61.5 -43.5t-90.5 -30t-100 -10.5zM710 1231q93 0 159.5 31t102 82.5
t35.5 114.5h-207q0 -28 -8.5 -47t-28.5 -28t-53 -9q-29 0 -49 9t-30.5 27.5t-10.5 47.5h-208q0 -63 37 -114.5t103.5 -82.5t157.5 -31zM867 1509q69 0 114.5 19.5t73.5 50.5t43 65.5t20.5 67t4.5 53.5h-213q0 -15 -7.5 -35t-25 -34t-44.5 -14q-29 0 -55 13.5t-55 32
t-65.5 32t-87.5 13.5q-71 0 -119 -19t-76.5 -49t-43 -65t-19 -66.5t-5.5 -52.5h215q0 15 6 35t23 34t48 14q29 0 56 -14.5t57 -33t67 -33t88 -14.5z" />
    <glyph glyph-name="uni1EB6" unicode="&#x1eb6;" horiz-adv-x="1574" 
d="M54 0h470l69 289h391l68 -289h470l-413 1351h-643zM666 587l121 499h4l121 -499h-246zM786 -329q50 0 85.5 35.5t35.5 85.5t-35 85.5t-86 35.5q-50 0 -85.5 -35.5t-35.5 -85.5t35.5 -85.5t85.5 -35.5zM787 1394q93 0 159.5 31t102 82.5t35.5 114.5h-207q0 -28 -8.5 -47
t-28.5 -28t-53 -9q-29 0 -49 9t-30.5 27.5t-10.5 47.5h-208q0 -63 37 -114.5t103.5 -82.5t157.5 -31z" />
    <glyph glyph-name="uni1EB7" unicode="&#x1eb7;" horiz-adv-x="1457" 
d="M549 -14q69 0 133 11t117.5 30t92.5 43.5t58 52.5l40 -123h375v727q0 173 -74 276t-219 149t-360 46q-111 0 -216 -16t-193 -51t-150.5 -94t-87.5 -145l441 -125q16 52 48.5 80.5t74.5 39.5t85 11q62 0 106 -13t67.5 -44.5t23.5 -88.5v-27h-363q-127 0 -221 -20
t-155.5 -63t-91.5 -112t-30 -168q0 -106 32 -178.5t96 -116t156.5 -62.5t214.5 -19zM652 272q-34 0 -61 5t-46 16.5t-28.5 32t-9.5 53.5q0 34 9 55t27 31.5t46.5 14.5t66.5 4h248v-128q-21 -24 -61.5 -43.5t-90.5 -30t-100 -10.5zM730 -360q50 0 85.5 35.5t35.5 85.5
t-35 85.5t-86 35.5q-50 0 -85.5 -35.5t-35.5 -85.5t35.5 -85.5t85.5 -35.5zM710 1231q93 0 159.5 31t102 82.5t35.5 114.5h-207q0 -28 -8.5 -47t-28.5 -28t-53 -9q-29 0 -49 9t-30.5 27.5t-10.5 47.5h-208q0 -63 37 -114.5t103.5 -82.5t157.5 -31z" />
    <glyph glyph-name="uni1EB8" unicode="&#x1eb8;" horiz-adv-x="1213" 
d="M66 0h1068v308h-611v224h560v293h-560v217h611v308h-1068v-1350zM592 -329q50 0 85.5 35.5t35.5 85.5t-35 85.5t-86 35.5q-50 0 -85.5 -35.5t-35.5 -85.5t35.5 -85.5t85.5 -35.5z" />
    <glyph glyph-name="uni1EB9" unicode="&#x1eb9;" horiz-adv-x="1448" 
d="M725 -12v288q-108 0 -175 54q-68 52 -68 261q0 205 66 262q66 58 169 58q105 0 163 -49q34 -36 49 -133h-485v-269h932q9 58 9 131q0 267 -138 438q-140 170 -531 170q-379 0 -524 -166q-146 -166 -146 -441t147 -440q145 -164 532 -164zM725 276v-288q202 0 311 31
q108 30 192 91q84 59 110 172l-403 116q-25 -43 -48 -71q-24 -27 -61 -39q-36 -12 -101 -12zM725 -360q50 0 85.5 35.5t35.5 85.5t-35 85.5t-86 35.5q-50 0 -85.5 -35.5t-35.5 -85.5t35.5 -85.5t85.5 -35.5z" />
    <glyph glyph-name="uni1EBA" unicode="&#x1eba;" horiz-adv-x="1213" 
d="M66 0h1068v308h-611v224h560v293h-560v217h611v308h-1068v-1350zM426 1741v-131q110 0 170 -1t83 -5.5t23 -13.5q0 -8 -20.5 -13.5t-62 -7.5t-105.5 -2v-157h154v56q46 0 90 7.5t79 23.5t55.5 42.5t20.5 64.5q0 54 -48 83.5t-154.5 41.5t-284.5 12z" />
    <glyph glyph-name="uni1EBB" unicode="&#x1ebb;" horiz-adv-x="1448" 
d="M725 -12v288q-108 0 -175 54q-68 52 -68 261q0 205 66 262q66 58 169 58q105 0 163 -49q34 -36 49 -133h-485v-269h932q9 58 9 131q0 267 -138 438q-140 170 -531 170q-379 0 -524 -166q-146 -166 -146 -441t147 -440q145 -164 532 -164zM725 276v-288q202 0 311 31
q108 30 192 91q84 59 110 172l-403 116q-25 -43 -48 -71q-24 -27 -61 -39q-36 -12 -101 -12zM542 1577v-131q110 0 170 -1t83 -5.5t23 -13.5q0 -8 -20.5 -13.5t-62 -7.5t-105.5 -2v-157h154v56q46 0 90 7.5t79 23.5t55.5 42.5t20.5 64.5q0 54 -48 83.5t-154.5 41.5
t-284.5 12z" />
    <glyph glyph-name="uni1EBC" unicode="&#x1ebc;" horiz-adv-x="1213" 
d="M66 0h1068v308h-611v224h560v293h-560v217h611v308h-1068v-1350zM749 1400q69 0 114.5 19.5t73.5 50.5t43 65.5t20.5 67t4.5 53.5h-213q0 -15 -7.5 -35t-25 -34t-44.5 -14q-29 0 -55 13.5t-55 32t-65.5 32t-87.5 13.5q-71 0 -119 -19t-76.5 -49t-43 -65t-19 -66.5
t-5.5 -52.5h215q0 15 6 35t23 34t48 14q29 0 56 -14.5t57 -33t67 -33t88 -14.5z" />
    <glyph glyph-name="uni1EBD" unicode="&#x1ebd;" horiz-adv-x="1448" 
d="M725 -12v288q-108 0 -175 54q-68 52 -68 261q0 205 66 262q66 58 169 58q105 0 163 -49q34 -36 49 -133h-485v-269h932q9 58 9 131q0 267 -138 438q-140 170 -531 170q-379 0 -524 -166q-146 -166 -146 -441t147 -440q145 -164 532 -164zM725 276v-288q202 0 311 31
q108 30 192 91q84 59 110 172l-403 116q-25 -43 -48 -71q-24 -27 -61 -39q-36 -12 -101 -12zM874 1236q69 0 114.5 19.5t73.5 50.5t43 65.5t20.5 67t4.5 53.5h-213q0 -15 -7.5 -35t-25 -34t-44.5 -14q-29 0 -55 13.5t-55 32t-65.5 32t-87.5 13.5q-71 0 -119 -19t-76.5 -49
t-43 -65t-19 -66.5t-5.5 -52.5h215q0 15 6 35t23 34t48 14q29 0 56 -14.5t57 -33t67 -33t88 -14.5z" />
    <glyph glyph-name="uni1EBE" unicode="&#x1ebe;" horiz-adv-x="1213" 
d="M66 0h1068v308h-611v224h560v293h-560v217h611v308h-1068v-1350zM213 1414h253l125 148l123 -148h253l-236 233h-283zM827 1602h199l273 245h-297z" />
    <glyph glyph-name="uni1EBF" unicode="&#x1ebf;" horiz-adv-x="1448" 
d="M725 -12v288q-108 0 -175 54q-68 52 -68 261q0 205 66 262q66 58 169 58q105 0 163 -49q34 -36 49 -133h-485v-269h932q9 58 9 131q0 267 -138 438q-140 170 -531 170q-379 0 -524 -166q-146 -166 -146 -441t147 -440q145 -164 532 -164zM725 276v-288q202 0 311 31
q108 30 192 91q84 59 110 172l-403 116q-25 -43 -48 -71q-24 -27 -61 -39q-36 -12 -101 -12zM339 1250h253l125 148l123 -148h253l-236 233h-283zM953 1438h199l273 245h-297z" />
    <glyph glyph-name="uni1EC0" unicode="&#x1ec0;" horiz-adv-x="1213" 
d="M66 0h1068v308h-611v224h560v293h-560v217h611v308h-1068v-1350zM213 1414h253l125 148l123 -148h253l-236 233h-283zM915 1602h199l-176 245h-297z" />
    <glyph glyph-name="uni1EC1" unicode="&#x1ec1;" horiz-adv-x="1448" 
d="M725 -12v288q-108 0 -175 54q-68 52 -68 261q0 205 66 262q66 58 169 58q105 0 163 -49q34 -36 49 -133h-485v-269h932q9 58 9 131q0 267 -138 438q-140 170 -531 170q-379 0 -524 -166q-146 -166 -146 -441t147 -440q145 -164 532 -164zM725 276v-288q202 0 311 31
q108 30 192 91q84 59 110 172l-403 116q-25 -43 -48 -71q-24 -27 -61 -39q-36 -12 -101 -12zM339 1250h253l125 148l123 -148h253l-236 233h-283zM1041 1438h199l-176 245h-297z" />
    <glyph glyph-name="uni1EC2" unicode="&#x1ec2;" horiz-adv-x="1213" 
d="M66 0h1068v308h-611v224h560v293h-560v217h611v308h-1068v-1350zM215 1403h253l125 148l123 -148h253l-236 233h-283zM416 2027v-131q110 0 170 -1t83 -5.5t23 -13.5q0 -8 -20.5 -13.5t-62 -7.5t-105.5 -2v-157h154v56q46 0 90 7.5t79 23.5t55.5 42.5t20.5 64.5
q0 54 -48 83.5t-154.5 41.5t-284.5 12z" />
    <glyph glyph-name="uni1EC3" unicode="&#x1ec3;" horiz-adv-x="1448" 
d="M725 -12v288q-108 0 -175 54q-68 52 -68 261q0 205 66 262q66 58 169 58q105 0 163 -49q34 -36 49 -133h-485v-269h932q9 58 9 131q0 267 -138 438q-140 170 -531 170q-379 0 -524 -166q-146 -166 -146 -441t147 -440q145 -164 532 -164zM725 276v-288q202 0 311 31
q108 30 192 91q84 59 110 172l-403 116q-25 -43 -48 -71q-24 -27 -61 -39q-36 -12 -101 -12zM340 1239h253l125 148l123 -148h253l-236 233h-283zM542 1863v-131q110 0 170 -1t83 -5.5t23 -13.5q0 -8 -20.5 -13.5t-62 -7.5t-105.5 -2v-157h154v56q46 0 90 7.5t79 23.5
t55.5 42.5t20.5 64.5q0 54 -48 83.5t-154.5 41.5t-284.5 12z" />
    <glyph glyph-name="uni1EC4" unicode="&#x1ec4;" horiz-adv-x="1213" 
d="M66 0h1068v308h-611v224h560v293h-560v217h611v308h-1068v-1350zM215 1403h253l125 148l123 -148h253l-236 233h-283zM749 1686q69 0 114.5 19.5t73.5 50.5t43 65.5t20.5 67t4.5 53.5h-213q0 -15 -7.5 -35t-25 -34t-44.5 -14q-29 0 -55 13.5t-55 32t-65.5 32t-87.5 13.5
q-71 0 -119 -19t-76.5 -49t-43 -65t-19 -66.5t-5.5 -52.5h215q0 15 6 35t23 34t48 14q29 0 56 -14.5t57 -33t67 -33t88 -14.5z" />
    <glyph glyph-name="uni1EC5" unicode="&#x1ec5;" horiz-adv-x="1448" 
d="M725 -12v288q-108 0 -175 54q-68 52 -68 261q0 205 66 262q66 58 169 58q105 0 163 -49q34 -36 49 -133h-485v-269h932q9 58 9 131q0 267 -138 438q-140 170 -531 170q-379 0 -524 -166q-146 -166 -146 -441t147 -440q145 -164 532 -164zM725 276v-288q202 0 311 31
q108 30 192 91q84 59 110 172l-403 116q-25 -43 -48 -71q-24 -27 -61 -39q-36 -12 -101 -12zM340 1239h253l125 148l123 -148h253l-236 233h-283zM874 1522q69 0 114.5 19.5t73.5 50.5t43 65.5t20.5 67t4.5 53.5h-213q0 -15 -7.5 -35t-25 -34t-44.5 -14q-29 0 -55 13.5
t-55 32t-65.5 32t-87.5 13.5q-71 0 -119 -19t-76.5 -49t-43 -65t-19 -66.5t-5.5 -52.5h215q0 15 6 35t23 34t48 14q29 0 56 -14.5t57 -33t67 -33t88 -14.5z" />
    <glyph glyph-name="uni1EC6" unicode="&#x1ec6;" horiz-adv-x="1213" 
d="M66 0h1068v308h-611v224h560v293h-560v217h611v308h-1068v-1350zM592 -329q50 0 85.5 35.5t35.5 85.5t-35 85.5t-86 35.5q-50 0 -85.5 -35.5t-35.5 -85.5t35.5 -85.5t85.5 -35.5zM215 1403h253l125 148l123 -148h253l-236 233h-283z" />
    <glyph glyph-name="uni1EC7" unicode="&#x1ec7;" horiz-adv-x="1448" 
d="M725 -12v288q-108 0 -175 54q-68 52 -68 261q0 205 66 262q66 58 169 58q105 0 163 -49q34 -36 49 -133h-485v-269h932q9 58 9 131q0 267 -138 438q-140 170 -531 170q-379 0 -524 -166q-146 -166 -146 -441t147 -440q145 -164 532 -164zM725 276v-288q202 0 311 31
q108 30 192 91q84 59 110 172l-403 116q-25 -43 -48 -71q-24 -27 -61 -39q-36 -12 -101 -12zM725 -360q50 0 85.5 35.5t35.5 85.5t-35 85.5t-86 35.5q-50 0 -85.5 -35.5t-35.5 -85.5t35.5 -85.5t85.5 -35.5zM340 1239h253l125 148l123 -148h253l-236 233h-283z" />
    <glyph glyph-name="uni1EC8" unicode="&#x1ec8;" horiz-adv-x="700" 
d="M118 0h455v1350h-455v-1350zM180 1741v-131q110 0 170 -1t83 -5.5t23 -13.5q0 -8 -20.5 -13.5t-62 -7.5t-105.5 -2v-157h154v56q46 0 90 7.5t79 23.5t55.5 42.5t20.5 64.5q0 54 -48 83.5t-154.5 41.5t-284.5 12z" />
    <glyph glyph-name="uni1EC9" unicode="&#x1ec9;" horiz-adv-x="648" 
d="M85 0h454v1186h-454v-1186zM137 1577v-131q110 0 170 -1t83 -5.5t23 -13.5q0 -8 -20.5 -13.5t-62 -7.5t-105.5 -2v-157h154v56q46 0 90 7.5t79 23.5t55.5 42.5t20.5 64.5q0 54 -48 83.5t-154.5 41.5t-284.5 12z" />
    <glyph glyph-name="uni1ECA" unicode="&#x1eca;" horiz-adv-x="700" 
d="M118 0h455v1350h-455v-1350zM346 -329q50 0 85.5 35.5t35.5 85.5t-35 85.5t-86 35.5q-50 0 -85.5 -35.5t-35.5 -85.5t35.5 -85.5t85.5 -35.5z" />
    <glyph glyph-name="uni1ECB" unicode="&#x1ecb;" horiz-adv-x="663" 
d="M96 0h453v1186h-453v-1186zM96 1570v-283h453v283h-453zM342 -360q50 0 85.5 35.5t35.5 85.5t-35 85.5t-86 35.5q-50 0 -85.5 -35.5t-35.5 -85.5t35.5 -85.5t85.5 -35.5z" />
    <glyph glyph-name="uni1ECC" unicode="&#x1ecc;" horiz-adv-x="1498" 
d="M747 -12q410 0 556 181.5t146 505.5q0 325 -146 506.5t-556 181.5t-555.5 -181t-145.5 -507q0 -324 146 -505.5t555 -181.5zM747 296q-113 0 -179.5 53.5t-66.5 325.5q0 278 66.5 329t179.5 51q114 0 180.5 -51t66.5 -329q0 -272 -66.5 -325.5t-180.5 -53.5zM750 -329
q50 0 85.5 35.5t35.5 85.5t-35 85.5t-86 35.5q-50 0 -85.5 -35.5t-35.5 -85.5t35.5 -85.5t85.5 -35.5z" />
    <glyph glyph-name="uni1ECD" unicode="&#x1ecd;" horiz-adv-x="1452" 
d="M719 -9q378 0 525 165t147 443q0 279 -147 440t-525 161q-377 0 -524.5 -161t-147.5 -440q0 -278 147.5 -443t524.5 -165zM719 294q-97 0 -159 53.5t-62 249.5t62 248t159 52q98 0 159.5 -52t61.5 -248t-61.5 -249.5t-159.5 -53.5zM726 -360q50 0 85.5 35.5t35.5 85.5
t-35 85.5t-86 35.5q-50 0 -85.5 -35.5t-35.5 -85.5t35.5 -85.5t85.5 -35.5z" />
    <glyph glyph-name="uni1ECE" unicode="&#x1ece;" horiz-adv-x="1498" 
d="M747 -12q410 0 556 181.5t146 505.5q0 325 -146 506.5t-556 181.5t-555.5 -181t-145.5 -507q0 -324 146 -505.5t555 -181.5zM747 296q-113 0 -179.5 53.5t-66.5 325.5q0 278 66.5 329t179.5 51q114 0 180.5 -51t66.5 -329q0 -272 -66.5 -325.5t-180.5 -53.5zM584 1741
v-131q110 0 170 -1t83 -5.5t23 -13.5q0 -8 -20.5 -13.5t-62 -7.5t-105.5 -2v-157h154v56q46 0 90 7.5t79 23.5t55.5 42.5t20.5 64.5q0 54 -48 83.5t-154.5 41.5t-284.5 12z" />
    <glyph glyph-name="uni1ECF" unicode="&#x1ecf;" horiz-adv-x="1452" 
d="M719 -9q378 0 525 165t147 443q0 279 -147 440t-525 161q-377 0 -524.5 -161t-147.5 -440q0 -278 147.5 -443t524.5 -165zM719 294q-97 0 -159 53.5t-62 249.5t62 248t159 52q98 0 159.5 -52t61.5 -248t-61.5 -249.5t-159.5 -53.5zM543 1578v-131q110 0 170 -1t83 -5.5
t23 -13.5q0 -8 -20.5 -13.5t-62 -7.5t-105.5 -2v-157h154v56q46 0 90 7.5t79 23.5t55.5 42.5t20.5 64.5q0 54 -48 83.5t-154.5 41.5t-284.5 12z" />
    <glyph glyph-name="uni1ED0" unicode="&#x1ed0;" horiz-adv-x="1498" 
d="M747 -12q410 0 556 181.5t146 505.5q0 325 -146 506.5t-556 181.5t-555.5 -181t-145.5 -507q0 -324 146 -505.5t555 -181.5zM747 296q-113 0 -179.5 53.5t-66.5 325.5q0 278 66.5 329t179.5 51q114 0 180.5 -51t66.5 -329q0 -272 -66.5 -325.5t-180.5 -53.5zM371 1414
h253l125 148l123 -148h253l-236 233h-283zM984 1602h199l273 245h-297z" />
    <glyph glyph-name="uni1ED1" unicode="&#x1ed1;" horiz-adv-x="1452" 
d="M719 -9q378 0 525 165t147 443q0 279 -147 440t-525 161q-377 0 -524.5 -161t-147.5 -440q0 -278 147.5 -443t524.5 -165zM719 294q-97 0 -159 53.5t-62 249.5t62 248t159 52q98 0 159.5 -52t61.5 -248t-61.5 -249.5t-159.5 -53.5zM340 1251h253l125 148l123 -148h253
l-236 233h-283zM954 1439h199l273 245h-297z" />
    <glyph glyph-name="uni1ED2" unicode="&#x1ed2;" horiz-adv-x="1498" 
d="M747 -12q410 0 556 181.5t146 505.5q0 325 -146 506.5t-556 181.5t-555.5 -181t-145.5 -507q0 -324 146 -505.5t555 -181.5zM747 296q-113 0 -179.5 53.5t-66.5 325.5q0 278 66.5 329t179.5 51q114 0 180.5 -51t66.5 -329q0 -272 -66.5 -325.5t-180.5 -53.5zM371 1414
h253l125 148l123 -148h253l-236 233h-283zM1072 1602h199l-176 245h-297z" />
    <glyph glyph-name="uni1ED3" unicode="&#x1ed3;" horiz-adv-x="1452" 
d="M719 -9q378 0 525 165t147 443q0 279 -147 440t-525 161q-377 0 -524.5 -161t-147.5 -440q0 -278 147.5 -443t524.5 -165zM719 294q-97 0 -159 53.5t-62 249.5t62 248t159 52q98 0 159.5 -52t61.5 -248t-61.5 -249.5t-159.5 -53.5zM340 1251h253l125 148l123 -148h253
l-236 233h-283zM1042 1439h199l-176 245h-297z" />
    <glyph glyph-name="uni1ED4" unicode="&#x1ed4;" horiz-adv-x="1498" 
d="M747 -12q410 0 556 181.5t146 505.5q0 325 -146 506.5t-556 181.5t-555.5 -181t-145.5 -507q0 -324 146 -505.5t555 -181.5zM747 296q-113 0 -179.5 53.5t-66.5 325.5q0 278 66.5 329t179.5 51q114 0 180.5 -51t66.5 -329q0 -272 -66.5 -325.5t-180.5 -53.5zM373 1403
h253l125 148l123 -148h253l-236 233h-283zM573 2027v-131q110 0 170 -1t83 -5.5t23 -13.5q0 -8 -20.5 -13.5t-62 -7.5t-105.5 -2v-157h154v56q46 0 90 7.5t79 23.5t55.5 42.5t20.5 64.5q0 54 -48 83.5t-154.5 41.5t-284.5 12z" />
    <glyph glyph-name="uni1ED5" unicode="&#x1ed5;" horiz-adv-x="1452" 
d="M719 -9q378 0 525 165t147 443q0 279 -147 440t-525 161q-377 0 -524.5 -161t-147.5 -440q0 -278 147.5 -443t524.5 -165zM719 294q-97 0 -159 53.5t-62 249.5t62 248t159 52q98 0 159.5 -52t61.5 -248t-61.5 -249.5t-159.5 -53.5zM342 1240h253l125 148l123 -148h253
l-236 233h-283zM543 1864v-131q110 0 170 -1t83 -5.5t23 -13.5q0 -8 -20.5 -13.5t-62 -7.5t-105.5 -2v-157h154v56q46 0 90 7.5t79 23.5t55.5 42.5t20.5 64.5q0 54 -48 83.5t-154.5 41.5t-284.5 12z" />
    <glyph glyph-name="uni1ED6" unicode="&#x1ed6;" horiz-adv-x="1498" 
d="M747 -12q410 0 556 181.5t146 505.5q0 325 -146 506.5t-556 181.5t-555.5 -181t-145.5 -507q0 -324 146 -505.5t555 -181.5zM747 296q-113 0 -179.5 53.5t-66.5 325.5q0 278 66.5 329t179.5 51q114 0 180.5 -51t66.5 -329q0 -272 -66.5 -325.5t-180.5 -53.5zM373 1403
h253l125 148l123 -148h253l-236 233h-283zM907 1686q69 0 114.5 19.5t73.5 50.5t43 65.5t20.5 67t4.5 53.5h-213q0 -15 -7.5 -35t-25 -34t-44.5 -14q-29 0 -55 13.5t-55 32t-65.5 32t-87.5 13.5q-71 0 -119 -19t-76.5 -49t-43 -65t-19 -66.5t-5.5 -52.5h215q0 15 6 35t23 34
t48 14q29 0 56 -14.5t57 -33t67 -33t88 -14.5z" />
    <glyph glyph-name="uni1ED7" unicode="&#x1ed7;" horiz-adv-x="1452" 
d="M719 -9q378 0 525 165t147 443q0 279 -147 440t-525 161q-377 0 -524.5 -161t-147.5 -440q0 -278 147.5 -443t524.5 -165zM719 294q-97 0 -159 53.5t-62 249.5t62 248t159 52q98 0 159.5 -52t61.5 -248t-61.5 -249.5t-159.5 -53.5zM342 1240h253l125 148l123 -148h253
l-236 233h-283zM876 1523q69 0 114.5 19.5t73.5 50.5t43 65.5t20.5 67t4.5 53.5h-213q0 -15 -7.5 -35t-25 -34t-44.5 -14q-29 0 -55 13.5t-55 32t-65.5 32t-87.5 13.5q-71 0 -119 -19t-76.5 -49t-43 -65t-19 -66.5t-5.5 -52.5h215q0 15 6 35t23 34t48 14q29 0 56 -14.5
t57 -33t67 -33t88 -14.5z" />
    <glyph glyph-name="uni1ED8" unicode="&#x1ed8;" horiz-adv-x="1498" 
d="M747 -12q410 0 556 181.5t146 505.5q0 325 -146 506.5t-556 181.5t-555.5 -181t-145.5 -507q0 -324 146 -505.5t555 -181.5zM747 296q-113 0 -179.5 53.5t-66.5 325.5q0 278 66.5 329t179.5 51q114 0 180.5 -51t66.5 -329q0 -272 -66.5 -325.5t-180.5 -53.5zM750 -329
q50 0 85.5 35.5t35.5 85.5t-35 85.5t-86 35.5q-50 0 -85.5 -35.5t-35.5 -85.5t35.5 -85.5t85.5 -35.5zM373 1403h253l125 148l123 -148h253l-236 233h-283z" />
    <glyph glyph-name="uni1ED9" unicode="&#x1ed9;" horiz-adv-x="1452" 
d="M719 -9q378 0 525 165t147 443q0 279 -147 440t-525 161q-377 0 -524.5 -161t-147.5 -440q0 -278 147.5 -443t524.5 -165zM719 294q-97 0 -159 53.5t-62 249.5t62 248t159 52q98 0 159.5 -52t61.5 -248t-61.5 -249.5t-159.5 -53.5zM726 -360q50 0 85.5 35.5t35.5 85.5
t-35 85.5t-86 35.5q-50 0 -85.5 -35.5t-35.5 -85.5t35.5 -85.5t85.5 -35.5zM342 1240h253l125 148l123 -148h253l-236 233h-283z" />
    <glyph glyph-name="uni1EDA" unicode="&#x1eda;" horiz-adv-x="1498" 
d="M747 -12q410 0 556 181.5t146 505.5q0 325 -146 506.5t-556 181.5t-555.5 -181t-145.5 -507q0 -324 146 -505.5t555 -181.5zM747 296q-113 0 -179.5 53.5t-66.5 325.5q0 278 66.5 329t179.5 51q114 0 180.5 -51t66.5 -329q0 -272 -66.5 -325.5t-180.5 -53.5zM1231 1206
v-143q152 0 263 37.5t173 112t62 186.5h-253q0 -69 -25.5 -111.5t-79 -62t-140.5 -19.5zM513 1392h199l273 245h-297z" />
    <glyph glyph-name="uni1EDB" unicode="&#x1edb;" horiz-adv-x="1452" 
d="M719 -9q378 0 525 165t147 443q0 279 -147 440t-525 161q-377 0 -524.5 -161t-147.5 -440q0 -278 147.5 -443t524.5 -165zM719 294q-97 0 -159 53.5t-62 249.5t62 248t159 52q98 0 159.5 -52t61.5 -248t-61.5 -249.5t-159.5 -53.5zM1200 1055v-143q152 0 263 37.5
t173 112t62 186.5h-253q0 -69 -25.5 -111.5t-79 -62t-140.5 -19.5zM483 1229h199l273 245h-297z" />
    <glyph glyph-name="uni1EDC" unicode="&#x1edc;" horiz-adv-x="1498" 
d="M747 -12q410 0 556 181.5t146 505.5q0 325 -146 506.5t-556 181.5t-555.5 -181t-145.5 -507q0 -324 146 -505.5t555 -181.5zM747 296q-113 0 -179.5 53.5t-66.5 325.5q0 278 66.5 329t179.5 51q114 0 180.5 -51t66.5 -329q0 -272 -66.5 -325.5t-180.5 -53.5zM1231 1206
v-143q152 0 263 37.5t173 112t62 186.5h-253q0 -69 -25.5 -111.5t-79 -62t-140.5 -19.5zM787 1401h199l-176 245h-297z" />
    <glyph glyph-name="uni1EDD" unicode="&#x1edd;" horiz-adv-x="1452" 
d="M719 -9q378 0 525 165t147 443q0 279 -147 440t-525 161q-377 0 -524.5 -161t-147.5 -440q0 -278 147.5 -443t524.5 -165zM719 294q-97 0 -159 53.5t-62 249.5t62 248t159 52q98 0 159.5 -52t61.5 -248t-61.5 -249.5t-159.5 -53.5zM1200 1055v-143q152 0 263 37.5
t173 112t62 186.5h-253q0 -69 -25.5 -111.5t-79 -62t-140.5 -19.5zM757 1229h199l-176 245h-297z" />
    <glyph glyph-name="uni1EDE" unicode="&#x1ede;" horiz-adv-x="1498" 
d="M747 -12q410 0 556 181.5t146 505.5q0 325 -146 506.5t-556 181.5t-555.5 -181t-145.5 -507q0 -324 146 -505.5t555 -181.5zM747 296q-113 0 -179.5 53.5t-66.5 325.5q0 278 66.5 329t179.5 51q114 0 180.5 -51t66.5 -329q0 -272 -66.5 -325.5t-180.5 -53.5zM1231 1206
v-143q152 0 263 37.5t173 112t62 186.5h-253q0 -69 -25.5 -111.5t-79 -62t-140.5 -19.5zM584 1741v-131q110 0 170 -1t83 -5.5t23 -13.5q0 -8 -20.5 -13.5t-62 -7.5t-105.5 -2v-157h154v56q46 0 90 7.5t79 23.5t55.5 42.5t20.5 64.5q0 54 -48 83.5t-154.5 41.5t-284.5 12z
" />
    <glyph glyph-name="uni1EDF" unicode="&#x1edf;" horiz-adv-x="1452" 
d="M719 -9q378 0 525 165t147 443q0 279 -147 440t-525 161q-377 0 -524.5 -161t-147.5 -440q0 -278 147.5 -443t524.5 -165zM719 294q-97 0 -159 53.5t-62 249.5t62 248t159 52q98 0 159.5 -52t61.5 -248t-61.5 -249.5t-159.5 -53.5zM1200 1055v-143q152 0 263 37.5
t173 112t62 186.5h-253q0 -69 -25.5 -111.5t-79 -62t-140.5 -19.5zM543 1578v-131q110 0 170 -1t83 -5.5t23 -13.5q0 -8 -20.5 -13.5t-62 -7.5t-105.5 -2v-157h154v56q46 0 90 7.5t79 23.5t55.5 42.5t20.5 64.5q0 54 -48 83.5t-154.5 41.5t-284.5 12z" />
    <glyph glyph-name="uni1EE0" unicode="&#x1ee0;" horiz-adv-x="1498" 
d="M747 -12q410 0 556 181.5t146 505.5q0 325 -146 506.5t-556 181.5t-555.5 -181t-145.5 -507q0 -324 146 -505.5t555 -181.5zM747 296q-113 0 -179.5 53.5t-66.5 325.5q0 278 66.5 329t179.5 51q114 0 180.5 -51t66.5 -329q0 -272 -66.5 -325.5t-180.5 -53.5zM1231 1206
v-143q152 0 263 37.5t173 112t62 186.5h-253q0 -69 -25.5 -111.5t-79 -62t-140.5 -19.5zM907 1400q69 0 114.5 19.5t73.5 50.5t43 65.5t20.5 67t4.5 53.5h-213q0 -15 -7.5 -35t-25 -34t-44.5 -14q-29 0 -55 13.5t-55 32t-65.5 32t-87.5 13.5q-71 0 -119 -19t-76.5 -49
t-43 -65t-19 -66.5t-5.5 -52.5h215q0 15 6 35t23 34t48 14q29 0 56 -14.5t57 -33t67 -33t88 -14.5z" />
    <glyph glyph-name="uni1EE1" unicode="&#x1ee1;" horiz-adv-x="1452" 
d="M719 -9q378 0 525 165t147 443q0 279 -147 440t-525 161q-377 0 -524.5 -161t-147.5 -440q0 -278 147.5 -443t524.5 -165zM719 294q-97 0 -159 53.5t-62 249.5t62 248t159 52q98 0 159.5 -52t61.5 -248t-61.5 -249.5t-159.5 -53.5zM1200 1055v-143q152 0 263 37.5
t173 112t62 186.5h-253q0 -69 -25.5 -111.5t-79 -62t-140.5 -19.5zM876 1237q69 0 114.5 19.5t73.5 50.5t43 65.5t20.5 67t4.5 53.5h-213q0 -15 -7.5 -35t-25 -34t-44.5 -14q-29 0 -55 13.5t-55 32t-65.5 32t-87.5 13.5q-71 0 -119 -19t-76.5 -49t-43 -65t-19 -66.5
t-5.5 -52.5h215q0 15 6 35t23 34t48 14q29 0 56 -14.5t57 -33t67 -33t88 -14.5z" />
    <glyph glyph-name="uni1EE2" unicode="&#x1ee2;" horiz-adv-x="1498" 
d="M747 -12q410 0 556 181.5t146 505.5q0 325 -146 506.5t-556 181.5t-555.5 -181t-145.5 -507q0 -324 146 -505.5t555 -181.5zM747 296q-113 0 -179.5 53.5t-66.5 325.5q0 278 66.5 329t179.5 51q114 0 180.5 -51t66.5 -329q0 -272 -66.5 -325.5t-180.5 -53.5zM1231 1206
v-143q152 0 263 37.5t173 112t62 186.5h-253q0 -69 -25.5 -111.5t-79 -62t-140.5 -19.5zM750 -329q50 0 85.5 35.5t35.5 85.5t-35 85.5t-86 35.5q-50 0 -85.5 -35.5t-35.5 -85.5t35.5 -85.5t85.5 -35.5z" />
    <glyph glyph-name="uni1EE3" unicode="&#x1ee3;" horiz-adv-x="1452" 
d="M719 -9q378 0 525 165t147 443q0 279 -147 440t-525 161q-377 0 -524.5 -161t-147.5 -440q0 -278 147.5 -443t524.5 -165zM719 294q-97 0 -159 53.5t-62 249.5t62 248t159 52q98 0 159.5 -52t61.5 -248t-61.5 -249.5t-159.5 -53.5zM1200 1055v-143q152 0 263 37.5
t173 112t62 186.5h-253q0 -69 -25.5 -111.5t-79 -62t-140.5 -19.5zM726 -360q50 0 85.5 35.5t35.5 85.5t-35 85.5t-86 35.5q-50 0 -85.5 -35.5t-35.5 -85.5t35.5 -85.5t85.5 -35.5z" />
    <glyph glyph-name="uni1EE4" unicode="&#x1ee4;" horiz-adv-x="1509" 
d="M748 -7q345 0 510.5 110.5t165.5 369.5v877h-457v-830q0 -116 -49 -167.5t-170 -51.5t-170 52t-49 167v830h-457v-877q0 -259 165.5 -369.5t510.5 -110.5zM755 -329q50 0 85.5 35.5t35.5 85.5t-35 85.5t-86 35.5q-50 0 -85.5 -35.5t-35.5 -85.5t35.5 -85.5t85.5 -35.5z
" />
    <glyph glyph-name="uni1EE5" unicode="&#x1ee5;" horiz-adv-x="1426" 
d="M981 0h345v1186h-451v-1006zM515 1186h-451v-609q0 -261 88 -423.5t341 -162.5q294 0 449.5 173t155.5 339l-221 77q0 -133 -64 -207t-152 -74q-78 0 -112 55.5t-34 246.5v585zM713 -360q50 0 85.5 35.5t35.5 85.5t-35 85.5t-86 35.5q-50 0 -85.5 -35.5t-35.5 -85.5
t35.5 -85.5t85.5 -35.5z" />
    <glyph glyph-name="uni1EE6" unicode="&#x1ee6;" horiz-adv-x="1509" 
d="M748 -7q345 0 510.5 110.5t165.5 369.5v877h-457v-830q0 -116 -49 -167.5t-170 -51.5t-170 52t-49 167v830h-457v-877q0 -259 165.5 -369.5t510.5 -110.5zM590 1741v-131q110 0 170 -1t83 -5.5t23 -13.5q0 -8 -20.5 -13.5t-62 -7.5t-105.5 -2v-157h154v56q46 0 90 7.5
t79 23.5t55.5 42.5t20.5 64.5q0 54 -48 83.5t-154.5 41.5t-284.5 12z" />
    <glyph glyph-name="uni1EE7" unicode="&#x1ee7;" horiz-adv-x="1426" 
d="M981 0h345v1186h-451v-1006zM515 1186h-451v-609q0 -261 88 -423.5t341 -162.5q294 0 449.5 173t155.5 339l-221 77q0 -133 -64 -207t-152 -74q-78 0 -112 55.5t-34 246.5v585zM531 1577v-131q110 0 170 -1t83 -5.5t23 -13.5q0 -8 -20.5 -13.5t-62 -7.5t-105.5 -2v-157
h154v56q46 0 90 7.5t79 23.5t55.5 42.5t20.5 64.5q0 54 -48 83.5t-154.5 41.5t-284.5 12z" />
    <glyph glyph-name="uni1EE8" unicode="&#x1ee8;" horiz-adv-x="1509" 
d="M748 -7q345 0 510.5 110.5t165.5 369.5v877h-457v-830q0 -116 -49 -167.5t-170 -51.5t-170 52t-49 167v830h-457v-877q0 -259 165.5 -369.5t510.5 -110.5zM1421 1223v-143q152 0 263 37.5t173 112t62 186.5h-253q0 -69 -25.5 -111.5t-79 -62t-140.5 -19.5zM519 1392h199
l273 245h-297z" />
    </font>
</defs>
</svg>
