<?xml version="1.0" standalone="no"?>
<!DOCTYPE svg PUBLIC "-//W3C//DTD SVG 1.1//EN" "http://www.w3.org/Graphics/SVG/1.1/DTD/svg11.dtd" >
<svg xmlns="http://www.w3.org/2000/svg" xmlns:xlink="http://www.w3.org/1999/xlink" version="1.1">
<metadata>
Created by FontForge 20201107 at Wed Mar  8 16:58:28 2023
 By 
Copyright 2020 The Anybody Project Authors (https://github.com/Etcetera-Type-Co/Anybody)
</metadata>
<defs>
<font id="Anybody-ThinItalic" horiz-adv-x="0" >
  <font-face 
    font-family="Anybody Thin"
    font-weight="250"
    font-style="italic"
    font-stretch="normal"
    units-per-em="2000"
    panose-1="0 0 0 0 0 0 0 0 0 0"
    ascent="1600"
    descent="-400"
    x-height="1184"
    cap-height="1350"
    bbox="-387 -459 2069 1834"
    underline-thickness="60"
    underline-position="-240"
    slope="-10"
    unicode-range="U+000D-FB02"
  />
<missing-glyph horiz-adv-x="610" 
d="M28 146h348l184 1042h-348zM144 226l200 172l-16 20l-200 -172zM296 228l22 18l-140 172l-22 -18zM204 564l200 172l-16 20l-200 -172zM356 566l22 18l-140 172l-22 -18zM58 172l176 990h296l-176 -990h-296zM264 902l200 172l-16 20l-202 -172zM416 904l20 18l-138 172
l-22 -18z" />
    <glyph glyph-name="fi" unicode="fi" horiz-adv-x="1109" 
d="M165 0h22l205 1162h363l4 22h-364l22 119q27 153 143.5 202t260.5 49h28l3 22h-26q-154 0 -278.5 -57t-152.5 -215l-22 -120h-241l-4 -22h242zM802 0h22l209 1186h-22zM1061 1466l-19 -103h22l19 103h-22z" />
    <glyph glyph-name="fl" unicode="fl" horiz-adv-x="1092" 
d="M165 0h22l205 1162h363l4 22h-364l22 119q27 153 143.5 202t260.5 49h28l3 22h-26q-154 0 -278.5 -57t-152.5 -215l-22 -120h-241l-4 -22h242zM796 0h22l278 1570h-22z" />
    <glyph glyph-name="f_f" unicode="ff" horiz-adv-x="1536" 
d="M165 0h22l205 1162h363l4 22h-364l22 119q27 153 143.5 202t260.5 49h28l3 22h-26q-154 0 -278.5 -57t-152.5 -215l-22 -120h-241l-4 -22h242zM908 0h22l205 1162h363l4 22h-364l22 119q27 153 143.5 202t260.5 49h28l3 22h-26q-154 0 -278.5 -57t-152.5 -215l-22 -120
h-241l-4 -22h242z" />
    <glyph glyph-name="f_f_i" unicode="ffi" horiz-adv-x="1852" 
d="M165 0h22l205 1162h363l4 22h-364l22 119q27 153 143.5 202t260.5 49h28l3 22h-26q-154 0 -278.5 -57t-152.5 -215l-22 -120h-241l-4 -22h242zM908 0h22l205 1162h363l4 22h-364l22 119q27 153 143.5 202t260.5 49h28l3 22h-26q-154 0 -278.5 -57t-152.5 -215l-22 -120
h-241l-4 -22h242zM1545 0h22l209 1186h-22zM1804 1466l-19 -103h22l19 103h-22z" />
    <glyph glyph-name="f_f_l" unicode="ffl" horiz-adv-x="1835" 
d="M165 0h22l205 1162h363l4 22h-364l22 119q27 153 143.5 202t260.5 49h28l3 22h-26q-154 0 -278.5 -57t-152.5 -215l-22 -120h-241l-4 -22h242zM908 0h22l205 1162h363l4 22h-364l22 119q27 153 143.5 202t260.5 49h28l3 22h-26q-154 0 -278.5 -57t-152.5 -215l-22 -120
h-241l-4 -22h242zM1539 0h22l278 1570h-22z" />
    <glyph glyph-name=".notdef" horiz-adv-x="610" 
d="M28 146h348l184 1042h-348zM144 226l200 172l-16 20l-200 -172zM296 228l22 18l-140 172l-22 -18zM204 564l200 172l-16 20l-200 -172zM356 566l22 18l-140 172l-22 -18zM58 172l176 990h296l-176 -990h-296zM264 902l200 172l-16 20l-202 -172zM416 904l20 18l-138 172
l-22 -18z" />
    <glyph glyph-name=".null" 
 />
    <glyph glyph-name="nonmarkingreturn" horiz-adv-x="666" 
 />
    <glyph glyph-name="CR" unicode="&#xd;" horiz-adv-x="356" 
 />
    <glyph glyph-name="space" unicode=" " horiz-adv-x="481" 
 />
    <glyph glyph-name="exclam" unicode="!" horiz-adv-x="245" 
d="M38 186h22l206 1164h-22zM1 0h23l18 104h-23z" />
    <glyph glyph-name="quotedbl" unicode="&#x22;" horiz-adv-x="218" 
d="M220 1057h25l51 293h-25zM136 1057h25l51 293h-25z" />
    <glyph glyph-name="numbersign" unicode="#" horiz-adv-x="942" 
d="M447 0h25l430 1350h-25zM5 406h784l3 22h-784zM22 0h25l430 1350h-25zM127 918h784l4 22h-784z" />
    <glyph glyph-name="dollar" unicode="$" horiz-adv-x="867" 
d="M518 1266l21 -2l21 116h-22zM291 -30h22l21 117h-22zM344 73q190 0 294.5 74.5t117.5 194.5q22 164 -54 229t-254 120q-164 42 -241.5 102t-57.5 201q15 117 112 188.5t267 71.5q173 0 246.5 -87t50.5 -274h24q26 204 -52 293.5t-265 89.5q-182 0 -286.5 -76t-119.5 -203
q-21 -154 55 -217.5t239 -109.5q175 -53 254.5 -112t58.5 -213q-13 -107 -109.5 -178.5t-276.5 -71.5q-169 0 -245 84.5t-53 299.5h-24q-26 -232 53.5 -319t265.5 -87z" />
    <glyph glyph-name="percent" unicode="%" horiz-adv-x="991" 
d="M-25 0h32l1048 1348h-31zM349 826q141 0 215.5 51t95.5 173l15 87q21 124 -37 174.5t-200 50.5q-140 0 -214 -50.5t-96 -174.5l-15 -87q-21 -122 37 -173t199 -51zM350 848q-129 0 -181.5 46t-33.5 158l15 83q20 114 88 159.5t199 45.5q130 0 183 -45.5t33 -159.5
l-15 -83q-20 -112 -88 -158t-200 -46zM631 -5q141 0 215 51.5t95 173.5l15 87q22 123 -36.5 173.5t-199.5 50.5t-215 -50.5t-95 -173.5l-15 -87q-21 -122 37 -173.5t199 -51.5zM632 17q-129 0 -182 46.5t-33 158.5l15 83q20 113 88 158.5t199 45.5q129 0 182 -45.5
t33 -158.5l-15 -83q-19 -112 -87.5 -158.5t-199.5 -46.5z" />
    <glyph glyph-name="ampersand" unicode="&#x26;" horiz-adv-x="1230" 
d="M419 -10q258 0 456.5 141.5t268.5 538.5h-22q-67 -380 -262.5 -519t-436.5 -139q-229 0 -332 84t-80 242q22 155 176.5 256.5t294.5 167.5q134 70 249 145t133 192q20 132 -36.5 197.5t-174.5 65.5q-108 0 -189 -63.5t-103 -199.5q-19 -115 20 -192.5t85 -142.5l533 -764
h32l-542 779q-47 58 -84.5 136.5t-20.5 183.5q20 125 96 183t171 58q105 0 157 -60t33 -181q-17 -103 -127.5 -177t-252.5 -145q-132 -65 -292 -169t-182 -270q-22 -170 84.5 -259t347.5 -89z" />
    <glyph glyph-name="quotesingle" unicode="'" horiz-adv-x="154" 
d="M150 1057h24l51 293h-24z" />
    <glyph glyph-name="parenleft" unicode="(" horiz-adv-x="437" 
d="M176 -355l17 19q-24 24 -55.5 70.5t-59.5 119t-45.5 174t-15 236t32.5 306.5q31 171 76.5 305.5t98.5 236t107 174.5t101.5 119.5t80.5 70.5l-12 19q-33 -24 -81.5 -71t-103.5 -120.5t-110 -177.5t-102 -242t-78 -314q-31 -175 -32.5 -313t16.5 -241.5t47 -177t61 -121
t57 -72.5z" />
    <glyph glyph-name="parenright" unicode=")" horiz-adv-x="418" 
d="M-100 -355q34 25 82.5 72.5t103.5 121t110 177t101.5 241.5t77.5 313q31 176 33 314t-16 242t-47.5 177.5t-61.5 120.5t-57 71l-17 -19q25 -24 56 -70t59.5 -118.5t45.5 -174t15 -236.5t-33 -307q-30 -170 -75.5 -304.5t-99 -236t-107.5 -174.5t-101 -120t-81 -71z" />
    <glyph glyph-name="asterisk" unicode="*" horiz-adv-x="405" 
d="M191 1252l295 179l-10 17l-295 -179zM441 1252l14 15l-229 181l-14 -16zM299 1216h21l48 267h-21z" />
    <glyph glyph-name="plus" unicode="+" horiz-adv-x="439" 
d="M149 248h22l39 220h163l4 24h-163l38 220h-22l-38 -220h-165l-4 -24h165z" />
    <glyph glyph-name="comma" unicode="," horiz-adv-x="349" 
d="M-98 -151h29l179 204h-50z" />
    <glyph glyph-name="hyphen" unicode="-" horiz-adv-x="730" 
d="M44 468h531l4 22h-531z" />
    <glyph glyph-name="period" unicode="." horiz-adv-x="250" 
d="M0 104l-18 -104h23l18 104h-23z" />
    <glyph glyph-name="slash" unicode="/" horiz-adv-x="420" 
d="M-97 0h20l616 1348h-20z" />
    <glyph glyph-name="zero" unicode="0" horiz-adv-x="825" 
d="M286 -12q166 0 256.5 77t117.5 232l133 754q27 154 -39.5 231t-232.5 77t-256.5 -76.5t-117.5 -231.5l-133 -754q-27 -155 40 -232t232 -77zM287 10q-157 0 -216.5 72.5t-33.5 218.5l131 745q26 146 109.5 218.5t242.5 72.5t217.5 -72.5t32.5 -218.5l-131 -745
q-26 -146 -110 -218.5t-242 -72.5z" />
    <glyph glyph-name="one" unicode="1" horiz-adv-x="763" 
d="M-14 0h574l4 22h-278l234 1330h-18l-295 -50l-4 -24l291 51l-230 -1307h-274z" />
    <glyph glyph-name="two" unicode="2" horiz-adv-x="823" 
d="M-32 0h655l4 22h-632q20 114 115.5 240t301.5 270q165 130 273 256.5t131 298.5q18 132 -52.5 202t-226.5 70q-169 0 -270 -109t-145 -365h24q45 253 140.5 352.5t248.5 99.5q146 0 210 -63.5t49 -184.5q-25 -170 -132 -293t-279 -259q-195 -137 -293 -269t-118 -247z
" />
    <glyph glyph-name="three" unicode="3" horiz-adv-x="885" 
d="M320 -12q188 0 282.5 88.5t124.5 299.5q22 158 -41 226.5t-203 71.5q142 5 236 78t115 232q27 190 -33.5 282.5t-244.5 92.5q-180 0 -276 -96t-148 -392h23q51 289 145 377.5t255 88.5q168 0 225.5 -85.5t30.5 -269.5q-23 -155 -114 -222.5t-292 -75.5l-4 -22
q202 -5 263.5 -67.5t38.5 -221.5q-28 -197 -119 -280t-263 -83q-171 0 -229.5 84.5t-13.5 343.5h-23q-47 -269 16 -359.5t249 -90.5z" />
    <glyph glyph-name="four" unicode="4" horiz-adv-x="851" 
d="M437 0h22l69 389h185l3 22h-185l167 939h-37l-656 -941l-3 -20h504zM34 411l634 914h3l-162 -914h-475z" />
    <glyph glyph-name="five" unicode="5" horiz-adv-x="828" 
d="M293 -11q166 0 271.5 99t149.5 390q40 270 -18.5 362.5t-208.5 92.5q-158 0 -270 -88.5t-138 -234.5h22q25 134 132 217.5t250 83.5q135 0 191.5 -85t16.5 -348q-43 -283 -144 -375t-252 -92q-156 0 -209 89t-24 284h-23q-31 -205 26 -300t228 -95zM78 610h22l127 718
h615l4 22h-637z" />
    <glyph glyph-name="six" unicode="6" horiz-adv-x="838" 
d="M294 -11q177 0 271 109t142 377q48 271 -10 364.5t-217 93.5q-156 0 -267.5 -85.5t-135.5 -217.5l19 -16q21 121 128.5 209t252.5 88q146 0 200.5 -84.5t6.5 -351.5q-46 -258 -136.5 -361t-253.5 -103q-164 0 -213.5 116t9.5 454q85 488 193 622t262 134q148 0 192.5 -96
t23.5 -220h23q22 132 -24.5 235t-210.5 103q-173 0 -284 -141t-198 -634q-62 -350 -7 -472.5t234 -122.5z" />
    <glyph glyph-name="seven" unicode="7" horiz-adv-x="784" 
d="M211 0h24q70 386 205 700t400 627l4 23h-660l-4 -22h630v-1q-261 -313 -396 -629.5t-203 -697.5z" />
    <glyph glyph-name="eight" unicode="8" horiz-adv-x="832" 
d="M293 -12q172 0 272.5 99.5t134.5 294.5q31 181 -33.5 264t-247.5 83t-275 -82t-125 -265q-35 -195 34 -294.5t240 -99.5zM294 10q-156 0 -221 92t-31 279q30 175 119.5 252.5t257.5 77.5q167 0 228.5 -77.5t30.5 -252.5q-34 -186 -130.5 -278.5t-253.5 -92.5zM424 717
q174 0 258 78.5t115 250.5q27 152 -37.5 232.5t-230.5 80.5q-168 0 -257 -80.5t-115 -232.5q-30 -172 31.5 -250.5t235.5 -78.5zM423 734q-159 0 -216 74.5t-28 237.5q25 144 112 217.5t238 73.5q150 0 211 -73.5t35 -217.5q-29 -162 -111 -237t-241 -75z" />
    <glyph glyph-name="nine" unicode="9" horiz-adv-x="812" 
d="M299 -11q168 0 273.5 131t195.5 644q62 350 5 472.5t-236 122.5q-177 0 -271.5 -106t-136.5 -380q-41 -266 15 -362t215 -96q156 0 265 85.5t133 217.5l-17 16q-21 -121 -126.5 -209t-250.5 -88q-146 0 -199.5 88t-11.5 348q41 266 131.5 365t253.5 99q164 0 216 -117
t-7 -453q-90 -508 -193 -632t-252 -124q-158 0 -202.5 96t-22.5 230h-23q-24 -142 24 -245t222 -103z" />
    <glyph glyph-name="colon" unicode=":" horiz-adv-x="258" 
d="M25 104l-18 -104h23l18 104h-23zM222 1218l-18 -104h23l18 104h-23z" />
    <glyph glyph-name="semicolon" unicode=";" horiz-adv-x="290" 
d="M232 1222l-18 -104h23l18 104h-23zM-122 -91h29l179 204h-50z" />
    <glyph glyph-name="less" unicode="&#x3c;" horiz-adv-x="628" 
d="M484 0l7 40l-447 445l605 446l7 41l-623 -468l-7 -36z" />
    <glyph glyph-name="equal" unicode="=" horiz-adv-x="532" 
d="M62 652h415l3 22h-415zM0 300h415l3 22h-415z" />
    <glyph glyph-name="greater" unicode="&#x3e;" horiz-adv-x="629" 
d="M-51 0l622 468l7 36l-458 468l-6 -40l447 -442l-605 -449z" />
    <glyph glyph-name="question" unicode="?" horiz-adv-x="727" 
d="M228 186h22q25 141 88 249.5t138 184.5q65 67 135 162.5t98 253.5q29 163 -22 243.5t-210 80.5q-137 0 -229 -80t-130 -288h23q33 184 116 265t216 81q152 0 195 -81t18 -221q-26 -147 -91 -237.5t-121 -154.5q-86 -89 -152.5 -197t-93.5 -261zM214 104l-18 -104h23
l18 104h-23z" />
    <glyph glyph-name="at" unicode="@" horiz-adv-x="1519" 
d="M578 2q120 0 206.5 18t144.5 43.5t88.5 49t38.5 33.5l-14 17q-7 -8 -36.5 -30.5t-85 -47.5t-139.5 -43t-200 -18q-108 0 -194 20.5t-148.5 63.5t-100.5 111t-49.5 162t3.5 216q25 180 89.5 312.5t167.5 219t242 129t312 42.5q131 0 222.5 -24t149.5 -70.5t86.5 -113
t32.5 -151.5t-11 -185q-16 -120 -52 -206.5t-84 -141.5t-105 -81t-116 -26q-48 0 -84 13t-51 43.5t-1 83.5l150 583h-23l-28 -109q2 24 -19 53.5t-62 51.5t-100 22q-56 0 -115 -27.5t-110.5 -80.5t-89 -130.5t-53.5 -177.5q-13 -83 -3.5 -144.5t35 -103t62.5 -62t79 -20.5
q52 0 102.5 14.5t91 43.5t60.5 72q-12 -39 -2.5 -67.5t33.5 -46t57 -25.5t67 -8q48 0 97 16t94 51t83.5 90.5t66.5 134.5t43 184q20 135 5.5 240.5t-71 178.5t-163 110.5t-270.5 37.5q-149 0 -271 -28.5t-218.5 -86.5t-167.5 -145.5t-116.5 -205t-66.5 -265.5
q-16 -126 -3.5 -223t52.5 -166.5t105.5 -113.5t155 -65t201.5 -21zM622 317q-56 0 -97.5 36t-59 105t-2.5 169q14 95 51.5 168t87.5 122.5t104 74.5t102 25q51 0 91.5 -23t59.5 -64t8 -97l-82 -325q-24 -84 -98 -137.5t-165 -53.5z" />
    <glyph glyph-name="A" unicode="A" horiz-adv-x="1146" 
d="M-38 0h25l232 437h642l77 -437h25l-241 1354h-41zM231 459l467 876h2l157 -876h-626z" />
    <glyph glyph-name="B" unicode="B" horiz-adv-x="1071" 
d="M-18 0h616q118 0 191.5 104t104.5 281q27 158 -17 253t-133 101q80 6 152.5 93t96.5 226q22 126 -14 209t-171 83h-588zM8 22l124 705h522q147 0 197 -85t20 -257q-30 -170 -98.5 -266.5t-174.5 -96.5h-590zM136 749l102 579h561q125 0 160 -67.5t11 -201.5
q-22 -128 -97.5 -219t-214.5 -91h-522z" />
    <glyph glyph-name="C" unicode="C" horiz-adv-x="1100" 
d="M419 -9q218 0 345 132t172 396h-22q-43 -254 -166.5 -380t-328.5 -126q-209 0 -290.5 144.5t-21.5 519.5q63 391 199 526t346 135q205 0 280.5 -117.5t36.5 -384.5h23q40 276 -40.5 400t-299.5 124q-223 0 -363.5 -141.5t-204.5 -541.5q-62 -385 24.5 -535.5
t310.5 -150.5z" />
    <glyph glyph-name="D" unicode="D" horiz-adv-x="1045" 
d="M-18 0h398q221 0 358 137t201 538q62 390 -19 532.5t-302 142.5h-398zM8 22l230 1306h372q209 0 288.5 -135.5t17.5 -517.5q-64 -392 -195.5 -522.5t-340.5 -130.5h-372z" />
    <glyph glyph-name="E" unicode="E" horiz-adv-x="992" 
d="M-14 0h768l4 22h-746l117 666h712l4 22h-712l109 618h746l4 22h-768z" />
    <glyph glyph-name="F" unicode="F" horiz-adv-x="934" 
d="M-18 0h22l115 650h661l4 22h-661l115 656h718l4 22h-740z" />
    <glyph glyph-name="G" unicode="G" horiz-adv-x="1107" 
d="M419 -8q354 0 451 265l-46 -257h21l104 594h-403l-4 -23h376l-30 -169q-34 -191 -149 -289.5t-319 -98.5q-215 0 -286 144.5t-19 514.5q53 380 188 522.5t352 142.5q212 0 283.5 -135t30.5 -366h23q42 240 -33.5 381.5t-301.5 141.5q-232 0 -371 -149t-194 -538
q-53 -379 22.5 -530t304.5 -151z" />
    <glyph glyph-name="H" unicode="H" horiz-adv-x="1040" 
d="M-18 0h22l125 706h751l-124 -706h22l238 1350h-22l-110 -622h-751l110 622h-22z" />
    <glyph glyph-name="I" unicode="I" horiz-adv-x="399" 
d="M61 0h22l239 1350h-22z" />
    <glyph glyph-name="J" unicode="J" horiz-adv-x="1002" 
d="M346 -12q188 0 295.5 97t145.5 312l168 953h-22l-168 -952q-36 -205 -137.5 -296.5t-281.5 -91.5t-248.5 86t-36.5 281l42 235h-22l-42 -238q-33 -204 41 -295t266 -91z" />
    <glyph glyph-name="K" unicode="K" horiz-adv-x="908" 
d="M-18 0h22l118 668l560 -668h34l-568 675l802 675h-37l-788 -664l117 664h-22z" />
    <glyph glyph-name="L" unicode="L" horiz-adv-x="863" 
d="M-18 0h672l4 22h-650l235 1328h-22z" />
    <glyph glyph-name="M" unicode="M" horiz-adv-x="1295" 
d="M-18 0h22l235 1331h4l266 -1208h40l692 1208h4l-234 -1331h22l237 1350h-46l-691 -1209h-4l-266 1209h-43z" />
    <glyph glyph-name="N" unicode="N" horiz-adv-x="1114" 
d="M-18 0h22l234 1327h3l571 -1327h40l238 1350h-22l-234 -1327h-4l-571 1327h-39z" />
    <glyph glyph-name="O" unicode="O" horiz-adv-x="1174" 
d="M459 -8q218 0 382.5 151t226.5 532q61 378 -44.5 531.5t-323.5 153.5t-382.5 -152t-226.5 -533q-61 -379 44.5 -531t323.5 -152zM463 14q-204 0 -306.5 145.5t-42.5 515.5q61 370 219.5 516.5t362.5 146.5t306.5 -146.5t42.5 -516.5q-60 -371 -219 -516t-363 -145z" />
    <glyph glyph-name="P" unicode="P" horiz-adv-x="958" 
d="M-18 0h22l77 440h409q184 0 280 127t131 328q36 201 -18 328t-239 127h-424zM85 462l153 866h398q179 0 227.5 -120t14.5 -313q-34 -194 -125 -313.5t-270 -119.5h-398z" />
    <glyph glyph-name="Q" unicode="Q" horiz-adv-x="1193" 
d="M874 -126l20 14l-117 193l-20 -15zM461 -8q228 0 383.5 149.5t223.5 533.5q67 383 -37.5 534t-332.5 151t-383.5 -150.5t-223.5 -534.5t37 -533.5t333 -149.5zM463 14q-214 0 -314.5 143t-34.5 518t217 519t365 144t314.5 -144t34.5 -519t-217 -518t-365 -143z" />
    <glyph glyph-name="R" unicode="R" horiz-adv-x="986" 
d="M-18 0h22l112 640h483q159 0 235.5 102.5t102.5 252.5q27 150 -14.5 252.5t-200.5 102.5h-502zM734 0h23l-128 659l-25 -11zM120 662l118 666h481q147 0 184 -93.5t11 -239.5q-25 -145 -97 -239t-216 -94h-481z" />
    <glyph glyph-name="S" unicode="S" horiz-adv-x="1034" 
d="M380 -9q219 0 339 92.5t138 232.5q25 175 -65.5 242.5t-284.5 134.5q-183 58 -270.5 130.5t-67.5 221.5q16 123 132 208t316 85q204 0 280.5 -98.5t29.5 -394.5h23q48 299 -29 407t-302 108q-213 0 -334 -91t-139 -224q-23 -162 66 -235t279 -137q186 -61 276.5 -129.5
t66.5 -227.5q-19 -132 -133.5 -217.5t-319.5 -85.5q-206 0 -280 99.5t-24 406.5h-23q-52 -314 25 -421t301 -107z" />
    <glyph glyph-name="T" unicode="T" horiz-adv-x="1025" 
d="M364 0h22l234 1328h428l4 22h-881l-3 -22h430z" />
    <glyph glyph-name="U" unicode="U" horiz-adv-x="1130" 
d="M424 -9q201 0 329.5 90t166.5 303l169 965h-22l-168 -955q-37 -209 -156.5 -295t-314.5 -86q-194 0 -283.5 86t-52.5 295l169 955h-22l-170 -965q-38 -213 58.5 -303t296.5 -90z" />
    <glyph glyph-name="V" unicode="V" horiz-adv-x="1054" 
d="M376 0h35l672 1350h-25l-660 -1328h-1l-189 1328h-24z" />
    <glyph glyph-name="W" unicode="W" horiz-adv-x="1538" 
d="M260 0h37l584 1328h3l113 -1328h38l527 1350h-25l-516 -1327h-3l-113 1327h-40l-581 -1327h-3l-47 1327h-24z" />
    <glyph glyph-name="X" unicode="X" horiz-adv-x="1049" 
d="M-43 0h31l532 658l301 -658h28l-306 668l533 682h-30l-522 -671l-287 671h-28l291 -682z" />
    <glyph glyph-name="Y" unicode="Y" horiz-adv-x="1061" 
d="M382 0h22l101 571l573 779h-28l-551 -742h-1l-289 742h-26l299 -780z" />
    <glyph glyph-name="Z" unicode="Z" horiz-adv-x="991" 
d="M-25 0h799l4 23h-771l956 1304l5 23h-747l-4 -23h719l-956 -1301z" />
    <glyph glyph-name="bracketleft" unicode="[" horiz-adv-x="395" 
d="M-59 -265h215l4 24h-193l289 1645h194l4 24h-216z" />
    <glyph glyph-name="backslash" unicode="\" horiz-adv-x="371" 
d="M196 0h21l-35 1348h-21z" />
    <glyph glyph-name="bracketright" unicode="]" horiz-adv-x="395" 
d="M-64 -265h216l298 1693h-216l-4 -24h193l-289 -1645h-194z" />
    <glyph glyph-name="asciicircum" unicode="^" horiz-adv-x="616" 
d="M205 1262h34l232 184h-33zM609 1264h32l-167 182h-33z" />
    <glyph glyph-name="underscore" unicode="_" horiz-adv-x="1045" 
d="M-118 -64h1049l4 22h-1049z" />
    <glyph glyph-name="grave" unicode="`" horiz-adv-x="516" 
d="M371 1224h32l-104 110h-37z" />
    <glyph glyph-name="a" unicode="a" horiz-adv-x="986" 
d="M319 -8q99 0 174 18.5t128.5 47t85.5 58.5t44 54l-30 -170h21l136 774q27 150 -2.5 242.5t-106.5 135.5t-195 43q-81 0 -150 -22t-125.5 -69t-99 -122t-70.5 -182h23q36 132 95.5 214t141 120.5t182.5 38.5q110 0 182.5 -42t100.5 -130.5t2 -228.5l-17 -96h-405
q-53 0 -106.5 -8.5t-102 -31t-88 -62t-65.5 -101t-34 -149.5q-13 -137 20 -208.5t101.5 -97.5t159.5 -26zM324 14q-83 0 -147 25t-96 92.5t-20 194.5q9 102 45 166.5t90 99.5t115.5 48.5t121.5 13.5h403l-78 -440q-24 -45 -80.5 -91.5t-144.5 -77.5t-209 -31z" />
    <glyph glyph-name="b" unicode="b" horiz-adv-x="1002" 
d="M-6 0h21l36 200l242 1370h-22zM396 -8q176 0 300 137.5t182 464.5q57 328 -20 465.5t-254 137.5q-168 0 -292.5 -96.5t-139.5 -182.5l-4 -54q19 110 148.5 210.5t285.5 100.5q162 0 235.5 -131t17.5 -450q-56 -318 -177 -449t-281 -131q-158 0 -251.5 101t-73.5 211
l-15 -55q-16 -86 77 -182.5t262 -96.5z" />
    <glyph glyph-name="c" unicode="c" horiz-adv-x="991" 
d="M385 -8q189 0 306.5 140.5t143.5 289.5h-23q-25 -139 -138.5 -273.5t-287.5 -134.5q-170 0 -241 145t-47 394q30 333 160.5 476.5t327.5 143.5q174 0 239.5 -122t46.5 -288h23q21 176 -49.5 304t-259.5 128q-210 0 -345.5 -149t-165.5 -493q-24 -261 51 -411t259 -150z
" />
    <glyph glyph-name="d" unicode="d" horiz-adv-x="985" 
d="M733 0h21l276 1570h-22l-241 -1370zM357 -8q170 0 292.5 96.5t138.5 182.5l2 55q-20 -110 -146 -211t-284 -101q-151 0 -224 122t-42 407q32 350 159.5 491t311.5 141q158 0 248.5 -100.5t71.5 -210.5l14 54q16 86 -75.5 182.5t-259.5 96.5q-200 0 -330.5 -147.5
t-162.5 -506.5q-32 -294 44 -422.5t242 -128.5z" />
    <glyph glyph-name="e" unicode="e" horiz-adv-x="1016" 
d="M383 -8l4 22q-183 0 -252 152q-70 151 -25 432q50 310 181 443q130 132 302 132q177 0 254 -131q74 -129 22 -433h-767l-4 -23h791q2 10 3 17q56 319 -23 456q-80 136 -272 136q-186 0 -322 -139t-188 -458q-46 -291 27 -449q73 -157 269 -157zM387 14l-4 -22
q114 0 212 45q97 45 162 149q63 103 96 232h-23q-31 -119 -92 -220q-62 -101 -154 -143q-94 -41 -197 -41z" />
    <glyph glyph-name="f" unicode="f" horiz-adv-x="793" 
d="M165 0h22l205 1162h363l4 22h-364l22 119q27 153 143.5 202t260.5 49h28l3 22h-26q-154 0 -278.5 -57t-152.5 -215l-22 -120h-241l-4 -22h242z" />
    <glyph glyph-name="g" unicode="g" horiz-adv-x="1010" 
d="M289 -458q113 0 204 42t157.5 142t96.5 268l210 1190h-22l-45 -254l-165 -934q-41 -235 -155.5 -334.5t-280.5 -99.5q-101 0 -171.5 35.5t-99 106.5t-19.5 199h-23q-21 -199 62 -280t251 -81zM349 -8q170 0 293.5 92.5t139.5 184.5l2 57q-19 -110 -145.5 -211
t-284.5 -101q-161 0 -235 128.5t-22 451.5q52 325 176.5 453t285.5 128q158 0 248.5 -100.5t71.5 -210.5l16 52q15 86 -74 183.5t-259 97.5q-176 0 -305.5 -134.5t-182.5 -468.5q-54 -332 22.5 -467t252.5 -135z" />
    <glyph glyph-name="h" unicode="h" horiz-adv-x="973" 
d="M-7 0h22l278 1570h-22zM696 0h22l130 738q40 229 -27.5 344.5t-242.5 115.5q-161 0 -279 -97.5t-141 -227.5l3 -46q25 145 143 247t272 102q159 0 224.5 -108t26.5 -326z" />
    <glyph glyph-name="i" unicode="i" horiz-adv-x="363" 
d="M56 0h22l209 1186h-22zM315 1466l-19 -103h22l19 103h-22z" />
    <glyph glyph-name="j" unicode="j" horiz-adv-x="362" 
d="M-313 -459q151 0 244 79.5t127 272.5l228 1293h-22l-228 -1293q-32 -181 -119.5 -256t-225.5 -75zM313 1466l-18 -103h22l18 103h-22z" />
    <glyph glyph-name="k" unicode="k" horiz-adv-x="923" 
d="M-6 0h22l84 482l283 253l303 -735h27l-309 755l494 431h-32l-758 -665l184 1049h-22z" />
    <glyph glyph-name="l" unicode="l" horiz-adv-x="319" 
d="M23 0h22l278 1570h-22z" />
    <glyph glyph-name="m" unicode="m" horiz-adv-x="1486" 
d="M-7 0h22l170 962l39 222h-22zM601 0h22l136 769q35 199 -11 313t-207 114q-149 0 -258 -106t-141 -286l10 -28q31 174 137.5 286t249.5 112q145 0 188 -107t10 -294zM1208 0h22l136 769q35 199 -11 313t-206 114q-149 0 -258.5 -106t-141.5 -286l11 -28q30 174 137 286
t249 112q146 0 188.5 -107t9.5 -294z" />
    <glyph glyph-name="n" unicode="n" horiz-adv-x="972" 
d="M-7 0h22l164 927l48 259h-23zM695 0h22l130 738q40 229 -25 344.5t-240 115.5q-161 0 -281.5 -97.5t-143.5 -227.5l3 -46q25 145 145.5 247t274.5 102q159 0 222 -108t24 -326z" />
    <glyph glyph-name="o" unicode="o" horiz-adv-x="1022" 
d="M380 -8q184 0 324 135t194 466q53 331 -34.5 467t-271.5 136q-185 0 -325.5 -135.5t-193.5 -467.5q-53 -330 34.5 -465.5t272.5 -135.5zM383 14q-169 0 -253.5 129t-33.5 450q52 320 187.5 450.5t304.5 130.5t254 -129.5t33 -451.5q-52 -319 -187.5 -449t-304.5 -130z
" />
    <glyph glyph-name="p" unicode="p" horiz-adv-x="1002" 
d="M-84 -440h22l248 1403l39 221h-22zM396 -8q176 0 300 137.5t182 464.5q57 328 -20 465.5t-254 137.5q-168 0 -292.5 -96.5t-139.5 -182.5l-4 -54q19 110 148.5 210.5t285.5 100.5q162 0 235.5 -131t17.5 -450q-56 -318 -177 -449t-281 -131q-158 0 -251.5 101t-73.5 211
l-15 -55q-16 -86 77 -182.5t262 -96.5z" />
    <glyph glyph-name="q" unicode="q" horiz-adv-x="1000" 
d="M654 -440h22l287 1624h-22l-40 -225zM357 -8q170 0 292.5 96.5t138.5 182.5l2 55q-20 -110 -146 -211t-284 -101q-151 0 -224 122t-42 407q32 350 159.5 491t311.5 141q158 0 248.5 -100.5t71.5 -210.5l14 54q16 86 -75.5 182.5t-259.5 96.5q-200 0 -330.5 -147.5
t-162.5 -506.5q-32 -294 44 -422.5t242 -128.5z" />
    <glyph glyph-name="r" unicode="r" horiz-adv-x="913" 
d="M753 675h23q49 277 -2.5 398.5t-210.5 121.5q-167 0 -276 -97t-132 -229l8 -30q23 128 130 231t268 103q143 0 191.5 -114t0.5 -384zM-7 0h22l163 923l46 261h-22z" />
    <glyph glyph-name="s" unicode="s" horiz-adv-x="966" 
d="M358 -8q190 0 294.5 74.5t117.5 194.5q22 163 -54 228t-254 121q-164 41 -241.5 101.5t-57.5 201.5q15 117 112 188.5t267 71.5q173 0 246.5 -87.5t50.5 -273.5h24q26 203 -52 293t-265 90q-182 0 -286.5 -76t-119.5 -203q-21 -155 55 -218t239 -110q175 -53 254.5 -112
t58.5 -212q-13 -108 -109.5 -179t-276.5 -71q-169 0 -245 84t-53 299h-24q-26 -232 53.5 -318.5t265.5 -86.5z" />
    <glyph glyph-name="t" unicode="t" horiz-adv-x="862" 
d="M416 -10q75 0 145 20l4 22q-73 -20 -145 -20q-93 0 -134 42.5t-19 169.5l166 938h427l4 22h-427l46 265h-22l-46 -265h-288l-4 -22h288l-168 -950q-23 -133 27.5 -177.5t145.5 -44.5z" />
    <glyph glyph-name="u" unicode="u" horiz-adv-x="982" 
d="M714 0h22l208 1184h-22l-168 -952zM242 1186h-22l-130 -738q-40 -228 22.5 -344t237.5 -116q161 0 283.5 98t145.5 227l-2 47q-25 -145 -148 -247.5t-277 -102.5q-159 0 -219.5 108t-21.5 326z" />
    <glyph glyph-name="v" unicode="v" horiz-adv-x="947" 
d="M326 0h33l590 1186h-25l-576 -1161h-3l-166 1161h-24z" />
    <glyph glyph-name="w" unicode="w" horiz-adv-x="1302" 
d="M212 0h41l483 1163l81 -1163h41l442 1184h-26l-433 -1162h-2l-83 1162h-34l-486 -1162h-2l-29 1162h-23z" />
    <glyph glyph-name="x" unicode="x" horiz-adv-x="940" 
d="M-69 0h30l496 579l290 -579h27l-296 592l491 592h-30l-479 -578l-276 578h-27l282 -592z" />
    <glyph glyph-name="y" unicode="y" horiz-adv-x="820" 
d="M288 0h34l566 1184h-25l-553 -1156h-1l-149 1156h-24zM-156 -456q128 0 240.5 94.5t237.5 361.5l-23 1q-121 -254 -226 -344.5t-225 -90.5z" />
    <glyph glyph-name="z" unicode="z" horiz-adv-x="835" 
d="M-36 0h659l4 22h-634l1 5l822 1127l5 30h-634l-4 -22h611l-1 -2l-824 -1132z" />
    <glyph glyph-name="braceleft" unicode="{" horiz-adv-x="480" 
d="M220 -266l4 23q-17 0 -41 10.5t-44.5 36.5t-28.5 72.5t4 118.5l59 333q11 58 8.5 97t-14 63.5t-27.5 38t-33 20.5t-31 11q16 5 35.5 12.5t40 21t40.5 38t36 63.5t26 97l59 337q13 71 38 117t54 73t57 38t46 11l4 22q-5 0 -25 -4.5t-47.5 -18.5t-56.5 -42t-53.5 -75
t-37.5 -118l-63 -356q-13 -79 -44 -122.5t-68 -61.5t-68 -18l-5 -26q32 0 62.5 -17.5t46 -61.5t1.5 -121l-62 -354q-13 -70 -4.5 -117t27.5 -75t42 -42.5t41 -19t22 -4.5z" />
    <glyph glyph-name="bar" unicode="|" horiz-adv-x="207" 
d="M-69 -226h22l290 1648h-22z" />
    <glyph glyph-name="braceright" unicode="}" horiz-adv-x="465" 
d="M-64 -266q5 0 25 4.5t47.5 18.5t56.5 42t53.5 75t36.5 118l64 356q14 79 44.5 123t67.5 61.5t68 17.5l4 26q-31 0 -61.5 18t-46 61.5t-1.5 120.5l62 354q13 71 5 118t-27.5 75t-42 42t-40.5 18.5t-23 4.5l-4 -23q19 0 42.5 -10t43.5 -36t28.5 -72t-4.5 -119l-60 -333
q-10 -57 -7 -96t14 -64t27 -39t33.5 -21t30.5 -11q-16 -4 -35.5 -11.5t-40 -21t-40.5 -38t-36 -63.5t-27 -97l-59 -337q-12 -70 -36.5 -116.5t-54 -73.5t-57 -38.5t-46.5 -11.5z" />
    <glyph glyph-name="asciitilde" unicode="~" horiz-adv-x="625" 
d="M472 642q31 0 52.5 6t35.5 15t22 17l-24 14q-10 -10 -26.5 -19t-59.5 -9q-42 0 -71 11.5t-53.5 26.5t-53.5 26.5t-72 11.5q-34 0 -64 -9t-54 -22t-38 -25l25 -14q18 15 54 30.5t76 15.5q37 0 63 -11.5t51 -26.5t57 -26.5t80 -11.5z" />
    <glyph glyph-name="uni00A0" unicode="&#xa0;" horiz-adv-x="481" 
 />
    <glyph glyph-name="exclamdown" unicode="&#xa1;" horiz-adv-x="235" 
d="M197 1000h-22l-206 -1164h22zM216 1083l18 103h-23l-18 -103h23z" />
    <glyph glyph-name="cent" unicode="&#xa2;" horiz-adv-x="968" 
d="M566 1266h21l20 114h-21zM336 -30h21l20 114h-21zM390 71q189 0 306 140.5t143 289.5h-23q-24 -139 -138 -273.5t-288 -134.5q-169 0 -240 145t-47 394q29 333 159.5 476.5t327.5 143.5q175 0 240 -122t46 -288h23q21 176 -49 304t-259 128q-211 0 -346 -149t-165 -493
q-25 -261 50 -411t260 -150z" />
    <glyph glyph-name="sterling" unicode="&#xa3;" horiz-adv-x="926" 
d="M61 -19l-16 24q11 7 34 25.5t50.5 53t52 86.5t36.5 125q17 96 16 172t-10 141.5t-18.5 128.5t-11 132t12.5 153q15 83 49.5 146.5t85.5 107t114.5 66t134.5 22.5q56 0 102 -9.5t81.5 -28.5t61 -47.5t39.5 -67.5l-23 -13q-13 42 -44 74.5t-84.5 51t-134.5 18.5
q-88 0 -163.5 -40t-126.5 -113t-68 -173q-14 -79 -11.5 -145t12.5 -127.5t19 -127.5t9 -143.5t-17 -176.5q-17 -97 -58.5 -168.5t-85.5 -110.5q27 8 72.5 12.5t86.5 4.5q44 0 78 -4.5t62.5 -11t55.5 -11t58 -5.5q49 0 88 5t52 10l7 -21q-16 -5 -39.5 -8.5t-52.5 -5.5t-61 -2
q-32 1 -59.5 5.5t-56 10.5t-61 10.5t-73.5 4.5q-90 0 -135.5 -11t-59.5 -19zM57 656l4 22h531l-4 -22h-531z" />
    <glyph glyph-name="currency" unicode="&#xa4;" horiz-adv-x="801" 
d="M315 192q193 0 291.5 113t134.5 331t-20 332t-249 114t-291.5 -114t-133.5 -332t20 -331t248 -113zM-7 154l117 99l-16 18l-116 -99zM624 154l20 18l-82 99l-19 -18zM317 214q-177 0 -229 107.5t-18 314.5q35 211 129 317.5t271 106.5t229 -108t19 -316t-128.5 -315
t-272.5 -107zM227 1005l19 18l-81 99l-20 -18zM692 1005l116 99l-15 18l-117 -99z" />
    <glyph glyph-name="yen" unicode="&#xa5;" horiz-adv-x="1073" 
d="M207 494h548l4 22h-548zM175 314h548l4 22h-548zM382 0h22l101 571l573 779h-28l-551 -742h-1l-289 742h-26l299 -780z" />
    <glyph glyph-name="brokenbar" unicode="&#xa6;" horiz-adv-x="206" 
d="M-69 -156h22l116 660h-22zM93 764h22l116 658h-22z" />
    <glyph glyph-name="section" unicode="&#xa7;" horiz-adv-x="979" 
d="M310 -278q39 0 84.5 6.5t91.5 22t86 43t69 69t38 99.5q7 38 -1 70t-23.5 59t-32.5 47t-30 33q14 8 41 24t59.5 41t64.5 59t56.5 77.5t33.5 96.5t-2 96t-38.5 79.5t-66.5 66t-85 54t-95 45.5q-59 37 -119 69t-108.5 65t-73.5 73t-15 94q13 72 63.5 122.5t125.5 77.5
t163 27q83 0 143.5 -27t88.5 -85.5t11 -153.5l-17 -89h22l16 89q14 77 -2 131.5t-54 89t-91 51t-114 16.5q-60 0 -121 -14.5t-114.5 -45t-91 -77.5t-49.5 -111q-5 -30 3.5 -56.5t25 -48.5t32 -39t23.5 -30q-28 -17 -66 -44.5t-76 -65.5t-66.5 -87t-39.5 -110q-11 -62 5 -111
t52 -88t85.5 -70t105.5 -58q85 -41 154 -75.5t117 -70.5t69.5 -82t9.5 -111q-14 -80 -63 -128.5t-121.5 -70.5t-158.5 -22q-78 0 -140.5 26.5t-93.5 84.5t-14 155l16 89h-22l-16 -89q-14 -80 2.5 -135t55.5 -89t93 -49t115 -15zM577 186q-40 23 -85 45.5t-90.5 46.5
t-88.5 53q-74 29 -131 70t-85.5 97t-15.5 130q11 61 39.5 109.5t65 85t73.5 61t63 37.5q26 -19 67.5 -41.5t85.5 -46.5t79 -47q63 -26 117 -57.5t92 -69.5t55.5 -84t7.5 -102q-11 -62 -41.5 -110.5t-70 -84t-77 -58.5t-60.5 -34z" />
    <glyph glyph-name="dieresis" unicode="&#xa8;" horiz-adv-x="673" 
d="M329 1249q17 0 31 12.5t14 31.5q0 15 -9.5 24t-23.5 9q-17 0 -31 -12.5t-14 -31.5q0 -15 9 -24t24 -9zM522 1249q18 0 31.5 12.5t13.5 31.5q0 15 -9 24t-24 9q-17 0 -31 -12.5t-14 -31.5q0 -15 9.5 -24t23.5 -9z" />
    <glyph glyph-name="copyright" unicode="&#xa9;" horiz-adv-x="981" 
d="M365 -14q100 0 184 35t149 98.5t109 152t63 195.5l72 413q20 108 7 196.5t-57 152.5t-116.5 98.5t-172.5 34.5q-99 0 -182.5 -34.5t-148.5 -98t-108.5 -151.5t-62.5 -197l-74 -413q-19 -107 -6 -196t56.5 -152.5t116 -98.5t171.5 -35zM366 8q-74 0 -132.5 21.5t-100 61
t-65 96.5t-28 129t10.5 156l71 402q15 85 45 157t74 129t100 97.5t122 61.5t140 21t132.5 -21t100 -61.5t65 -97.5t28.5 -129t-10 -156l-71 -402q-15 -84 -45 -156t-74 -129t-100 -97t-122 -61.5t-141 -21.5zM408 240q80 0 132 22t83.5 59.5t48 84.5t24.5 96l8 43h-22
l-7 -42q-5 -28 -13.5 -60.5t-25 -64t-45 -58t-72.5 -42.5t-108 -16q-72 0 -113 23t-58 60.5t-17 83.5t9 91l53 294q10 46 26.5 92.5t46 85.5t78 62.5t120.5 23.5q64 0 102.5 -15t58 -39.5t25 -55t3 -61.5t-7.5 -58l-8 -43h22l7 43q7 39 8.5 76t-7 69t-32 55.5t-64.5 37
t-105 13.5q-74 0 -125.5 -22.5t-85 -62.5t-53 -91.5t-31.5 -109.5l-52 -291q-11 -58 -9.5 -109t22.5 -90t65.5 -61.5t118.5 -22.5z" />
    <glyph glyph-name="ordfeminine" unicode="&#xaa;" horiz-adv-x="684" 
d="M563 831h22l52 290q21 115 -21 178.5t-173 63.5q-128 0 -180.5 -57.5t-68.5 -148.5h22q15 85 66 134.5t163 49.5q114 0 151.5 -54.5t18.5 -163.5l-46 -262zM348 827q117 0 183 38.5t74 88.5l-18 7q-9 -48 -68.5 -80t-166.5 -32q-110 0 -150.5 28.5t-30.5 86.5
q9 54 54.5 90.5t170.5 40.5q128 2 227 3l4 22q-115 0 -232 -2q-132 -7 -184 -51t-63 -103q-12 -67 31.5 -102t168.5 -35z" />
    <glyph glyph-name="guillemotleft" unicode="&#xab;" horiz-adv-x="759" 
d="M390 80h30l-363 413l511 415h-33l-505 -414zM566 80h31l-365 413l512 415h-33l-506 -414z" />
    <glyph glyph-name="logicalnot" unicode="&#xac;" horiz-adv-x="741" 
d="M597 301h24l34 189h-591l-4 -22h567z" />
    <glyph glyph-name="uni00AD" unicode="&#xad;" horiz-adv-x="485" 
d="M56 468h324l4 22h-324z" />
    <glyph glyph-name="registered" unicode="&#xae;" horiz-adv-x="783" 
d="M356 588q63 0 125.5 17t118 57.5t96 108.5t57.5 169l30 169q18 103 1 171t-57.5 108t-96.5 57t-117 17q-60 0 -122 -16t-117 -55.5t-95.5 -108t-58.5 -172.5l-30 -169q-15 -84 -7 -144.5t33.5 -101t63 -64t83 -33.5t93.5 -10zM358 610q-45 0 -87.5 9.5t-77.5 31.5t-58 60
t-30 95.5t7 137.5l29 163q18 101 57.5 166t91.5 101.5t110 51t112 14.5q46 0 89 -9.5t78 -32.5t58 -61.5t30 -96t-8 -137.5l-28 -157q-18 -101 -57.5 -167t-92 -102.5t-110.5 -51.5t-113 -15zM255 728h23l50 280h158l50 -280h25l-51 282q42 5 66.5 41t33.5 89l13 74
q8 45 2 71t-28.5 37.5t-62.5 11.5h-172zM332 1032l49 278h151q40 0 56 -11t16.5 -35t-6.5 -62l-9 -50q-14 -77 -40 -98.5t-57 -21.5h-160z" />
    <glyph glyph-name="macron" unicode="&#xaf;" horiz-adv-x="867" 
d="M281 1308h467l3 20h-466z" />
    <glyph glyph-name="degree" unicode="&#xb0;" horiz-adv-x="234" 
d="M207 1220q30 0 55.5 22t30.5 52q6 32 -12.5 54t-50.5 22q-30 0 -55 -21t-31 -51q-5 -31 13.5 -54.5t49.5 -23.5zM208 1244q-20 0 -32 14.5t-9 35.5q4 22 21.5 37t40.5 15q21 0 32.5 -13.5t7.5 -34.5q-3 -23 -20 -38.5t-41 -15.5z" />
    <glyph glyph-name="plusminus" unicode="&#xb1;" horiz-adv-x="444" 
d="M181 432h22l39 220h163l4 24h-163l38 220h-22l-38 -220h-165l-4 -24h165zM4 214h284l4 24h-284z" />
    <glyph glyph-name="uni00B2" unicode="&#xb2;" horiz-adv-x="589" 
d="M78 750h472l3 26h-445q9 46 69 96.5t198 112.5q112 56 182 112t79 134q7 64 -45.5 97.5t-167.5 33.5q-122 0 -189.5 -51.5t-86.5 -162.5h27q19 106 81 147t167 41q101 0 148 -24.5t39 -80.5q-9 -68 -76 -120t-184 -110q-133 -60 -196.5 -117.5t-72.5 -110.5z" />
    <glyph glyph-name="uni00B3" unicode="&#xb3;" horiz-adv-x="631" 
d="M331 745q136 0 199.5 41.5t74.5 134.5q7 68 -33 100t-136 33q98 2 153.5 35t63.5 104q10 83 -37 126t-180 43q-131 0 -195.5 -46t-86.5 -174h26q23 121 83.5 157.5t171.5 36.5q116 0 159 -35t31 -114q-8 -64 -71.5 -91.5t-194.5 -30.5l-3 -24q145 -2 188 -27t34 -93
q-12 -82 -71 -116.5t-175 -34.5q-118 0 -162 35t-24 144h-27q-21 -117 28 -160.5t184 -43.5z" />
    <glyph glyph-name="acute" unicode="&#xb4;" horiz-adv-x="518" 
d="M257 1224h33l148 110h-39z" />
    <glyph glyph-name="uni00B5" unicode="&#xb5;" horiz-adv-x="974" 
d="M-67 -440h22l124 703l140 923zM714 0h22l208 1184h-22l-168 -952zM242 1186h-22l-130 -738q-40 -228 22.5 -344t237.5 -116q161 0 283.5 98t145.5 227l-2 47q-25 -145 -148 -247.5t-277 -102.5q-159 0 -219.5 108t-21.5 326z" />
    <glyph glyph-name="paragraph" unicode="&#xb6;" horiz-adv-x="793" 
d="M253 -156h22l261 1482h276l-261 -1482h22l266 1506h-342q-110 0 -190.5 -35t-132 -110.5t-73.5 -196.5q-17 -96 -3.5 -163t52 -108t96.5 -60t131 -19h20z" />
    <glyph glyph-name="periodcentered" unicode="&#xb7;" horiz-adv-x="255" 
d="M146 762l-18 -104h23l18 104h-23z" />
    <glyph glyph-name="cedilla" unicode="&#xb8;" horiz-adv-x="666" 
d="M174 -219q27 0 52 5t45 15.5t33 27.5t16 40q6 36 -16 50.5t-55 14.5q-28 0 -60 -8t-47 -17l-2 -19q27 11 54.5 17.5t49.5 6.5q26 0 42 -11.5t11 -35.5q-6 -30 -37 -47t-82 -17q-27 0 -49 3t-39 7l-13 -21q18 -4 42.5 -7.5t54.5 -3.5zM140 -110l54 110h-25l-47 -100z" />
    <glyph glyph-name="uni00B9" unicode="&#xb9;" horiz-adv-x="546" 
d="M88 750h416l5 26h-196l103 582h-21l-215 -32l-5 -26l210 31l-98 -555h-194z" />
    <glyph glyph-name="ordmasculine" unicode="&#xba;" horiz-adv-x="639" 
d="M364 826q141 0 215.5 51t95.5 173l15 87q21 124 -37 174.5t-200 50.5q-140 0 -214 -50.5t-96 -174.5l-15 -87q-21 -122 37 -173t199 -51zM365 848q-129 0 -181.5 46t-33.5 158l15 83q20 114 88 159.5t199 45.5q130 0 183 -45.5t33 -159.5l-15 -83q-20 -112 -88 -158
t-200 -46z" />
    <glyph glyph-name="guillemotright" unicode="&#xbb;" horiz-adv-x="759" 
d="M151 80h33l504 414l-359 414h-31l363 -413zM-25 80h32l506 414l-360 414h-32l365 -413z" />
    <glyph glyph-name="onequarter" unicode="&#xbc;" horiz-adv-x="1543" 
d="M88 750h416l5 26h-196l103 582h-21l-215 -32l-5 -26l210 31l-98 -555h-194zM236 0h32l1003 1348h-32zM1215 0h25l30 168h129l4 25h-129l74 415h-40l-415 -416l-4 -24h356zM931 193l384 390h3l-69 -390h-318z" />
    <glyph glyph-name="onehalf" unicode="&#xbd;" horiz-adv-x="1525" 
d="M88 750h416l5 26h-196l103 582h-21l-215 -32l-5 -26l210 31l-98 -555h-194zM236 0h32l1003 1348h-32zM882 0h472l3 26h-445q9 46 69 96.5t198 112.5q112 56 182 112t79 134q7 64 -45.5 97.5t-167.5 33.5q-122 0 -189.5 -51.5t-86.5 -162.5h27q19 106 81 147t167 41
q101 0 148 -24.5t39 -80.5q-9 -68 -76 -120t-184 -110q-133 -60 -196.5 -117.5t-72.5 -110.5z" />
    <glyph glyph-name="threequarters" unicode="&#xbe;" horiz-adv-x="1628" 
d="M331 745q136 0 199.5 41.5t74.5 134.5q7 68 -33 100t-136 33q98 2 153.5 35t63.5 104q10 83 -37 126t-180 43q-131 0 -195.5 -46t-86.5 -174h26q23 121 83.5 157.5t171.5 36.5q116 0 159 -35t31 -114q-8 -64 -71.5 -91.5t-194.5 -30.5l-3 -24q145 -2 188 -27t34 -93
q-12 -82 -71 -116.5t-175 -34.5q-118 0 -162 35t-24 144h-27q-21 -117 28 -160.5t184 -43.5zM321 0h32l1003 1348h-32zM1299 0h25l30 168h129l4 25h-129l74 415h-40l-415 -416l-4 -24h356zM1015 193l384 390h3l-69 -390h-318z" />
    <glyph glyph-name="questiondown" unicode="&#xbf;" horiz-adv-x="700" 
d="M450 1000h-22q-25 -141 -88 -249.5t-138 -184.5q-65 -67 -135 -162.5t-98 -253.5q-29 -163 22 -243.5t210 -80.5q137 0 229 80t130 288h-23q-33 -184 -116 -265t-216 -81q-152 0 -195 81t-18 221q26 147 91 237.5t121 154.5q86 89 152.5 197t93.5 261zM464 1083l18 103
h-23l-18 -103h23z" />
    <glyph glyph-name="Agrave" unicode="&#xc0;" horiz-adv-x="1146" 
d="M-38 0h25l232 437h642l77 -437h25l-241 1354h-41zM231 459l467 876h2l157 -876h-626zM761 1412h32l-104 110h-37z" />
    <glyph glyph-name="Aacute" unicode="&#xc1;" horiz-adv-x="1146" 
d="M-38 0h25l232 437h642l77 -437h25l-241 1354h-41zM231 459l467 876h2l157 -876h-626zM626 1392h33l148 110h-39z" />
    <glyph glyph-name="Acircumflex" unicode="&#xc2;" horiz-adv-x="1146" 
d="M-38 0h25l232 437h642l77 -437h25l-241 1354h-41zM231 459l467 876h2l157 -876h-626zM520 1399h33l178 115l138 -115h31l-154 137h-26z" />
    <glyph glyph-name="Atilde" unicode="&#xc3;" horiz-adv-x="1146" 
d="M-38 0h25l232 437h642l77 -437h25l-241 1354h-41zM231 459l467 876h2l157 -876h-626zM800 1451q27 0 47 6.5t33.5 17t21 21t9.5 18.5h-23q-3 -8 -13.5 -18.5t-28 -17.5t-39.5 -7q-32 0 -50 8t-30 19t-27 19t-43 8q-23 0 -42.5 -5.5t-34 -15t-24 -20t-12.5 -21.5h23
q3 9 14 19t29.5 16.5t41.5 6.5q25 0 39.5 -8t27.5 -19t31 -19t50 -8z" />
    <glyph glyph-name="Adieresis" unicode="&#xc4;" horiz-adv-x="1146" 
d="M-38 0h25l232 437h642l77 -437h25l-241 1354h-41zM231 459l467 876h2l157 -876h-626zM619 1427q17 0 31 12.5t14 31.5q0 15 -9.5 24t-23.5 9q-17 0 -31 -12.5t-14 -31.5q0 -15 9 -24t24 -9zM812 1427q18 0 31.5 12.5t13.5 31.5q0 15 -9 24t-24 9q-17 0 -31 -12.5
t-14 -31.5q0 -15 9.5 -24t23.5 -9z" />
    <glyph glyph-name="Aring" unicode="&#xc5;" horiz-adv-x="1146" 
d="M-38 0h25l232 437h642l77 -437h25l-241 1354h-41zM231 459l467 876h2l157 -876h-626zM711 1382q18 0 33 9t24 23.5t10 31.5q3 25 -13.5 43.5t-43.5 18.5q-18 0 -32.5 -8.5t-23.5 -22.5t-11 -31q-2 -27 14.5 -45.5t42.5 -18.5zM712 1404q-16 0 -26.5 12t-9.5 30
q2 18 15 29t29 11q17 0 27.5 -11t8.5 -29q-1 -18 -14 -30t-30 -12z" />
    <glyph glyph-name="AE" unicode="&#xc6;" horiz-adv-x="1611" 
d="M-38 0h27l856 1336l3 14h-22zM231 372h451l4 22h-435zM605 0h768l4 22h-746l117 666h712l4 22h-712l109 618h746l4 22h-768z" />
    <glyph glyph-name="Ccedilla" unicode="&#xc7;" horiz-adv-x="1100" 
d="M419 -9q218 0 345 132t172 396h-22q-43 -254 -166.5 -380t-328.5 -126q-209 0 -290.5 144.5t-21.5 519.5q63 391 199 526t346 135q205 0 280.5 -117.5t36.5 -384.5h23q40 276 -40.5 400t-299.5 124q-223 0 -363.5 -141.5t-204.5 -541.5q-62 -385 24.5 -535.5
t310.5 -150.5zM356 -219q27 0 52 5t45 15.5t33 27.5t16 40q6 36 -16 50.5t-55 14.5q-28 0 -60 -8t-47 -17l-2 -19q27 11 54.5 17.5t49.5 6.5q26 0 42 -11.5t11 -35.5q-6 -30 -37 -47t-82 -17q-27 0 -49 3t-39 7l-13 -21q18 -4 42.5 -7.5t54.5 -3.5zM322 -110l54 110h-25
l-47 -100z" />
    <glyph glyph-name="Egrave" unicode="&#xc8;" horiz-adv-x="992" 
d="M-14 0h768l4 22h-746l117 666h712l4 22h-712l109 618h746l4 22h-768zM644 1412h32l-104 110h-37z" />
    <glyph glyph-name="Eacute" unicode="&#xc9;" horiz-adv-x="992" 
d="M-14 0h768l4 22h-746l117 666h712l4 22h-712l109 618h746l4 22h-768zM510 1392h33l148 110h-39z" />
    <glyph glyph-name="Ecircumflex" unicode="&#xca;" horiz-adv-x="992" 
d="M-14 0h768l4 22h-746l117 666h712l4 22h-712l109 618h746l4 22h-768zM403 1399h33l178 115l138 -115h31l-154 137h-26z" />
    <glyph glyph-name="Edieresis" unicode="&#xcb;" horiz-adv-x="992" 
d="M-14 0h768l4 22h-746l117 666h712l4 22h-712l109 618h746l4 22h-768zM502 1427q17 0 31 12.5t14 31.5q0 15 -9.5 24t-23.5 9q-17 0 -31 -12.5t-14 -31.5q0 -15 9 -24t24 -9zM695 1427q18 0 31.5 12.5t13.5 31.5q0 15 -9 24t-24 9q-17 0 -31 -12.5t-14 -31.5
q0 -15 9.5 -24t23.5 -9z" />
    <glyph glyph-name="Igrave" unicode="&#xcc;" horiz-adv-x="399" 
d="M61 0h22l239 1350h-22zM377 1412h32l-104 110h-37z" />
    <glyph glyph-name="Iacute" unicode="&#xcd;" horiz-adv-x="399" 
d="M61 0h22l239 1350h-22zM243 1392h33l148 110h-39z" />
    <glyph glyph-name="Icircumflex" unicode="&#xce;" horiz-adv-x="399" 
d="M61 0h22l239 1350h-22zM136 1399h33l178 115l138 -115h31l-154 137h-26z" />
    <glyph glyph-name="Idieresis" unicode="&#xcf;" horiz-adv-x="399" 
d="M61 0h22l239 1350h-22zM235 1427q17 0 31 12.5t14 31.5q0 15 -9.5 24t-23.5 9q-17 0 -31 -12.5t-14 -31.5q0 -15 9 -24t24 -9zM428 1427q18 0 31.5 12.5t13.5 31.5q0 15 -9 24t-24 9q-17 0 -31 -12.5t-14 -31.5q0 -15 9.5 -24t23.5 -9z" />
    <glyph glyph-name="Eth" unicode="&#xd0;" horiz-adv-x="1070" 
d="M-7 666h351l2 22h-350zM7 0h398q221 0 358 137t201 538q62 390 -19 532.5t-302 142.5h-398zM33 22l230 1306h372q209 0 288.5 -135.5t17.5 -517.5q-64 -392 -195.5 -522.5t-340.5 -130.5h-372z" />
    <glyph glyph-name="Ntilde" unicode="&#xd1;" horiz-adv-x="1114" 
d="M-18 0h22l234 1327h3l571 -1327h40l238 1350h-22l-234 -1327h-4l-571 1327h-39zM737 1451q27 0 47 6.5t33.5 17t21 21t9.5 18.5h-23q-3 -8 -13.5 -18.5t-28 -17.5t-39.5 -7q-32 0 -50 8t-30 19t-27 19t-43 8q-23 0 -42.5 -5.5t-34 -15t-24 -20t-12.5 -21.5h23q3 9 14 19
t29.5 16.5t41.5 6.5q25 0 39.5 -8t27.5 -19t31 -19t50 -8z" />
    <glyph glyph-name="Ograve" unicode="&#xd2;" horiz-adv-x="1174" 
d="M459 -8q218 0 382.5 151t226.5 532q61 378 -44.5 531.5t-323.5 153.5t-382.5 -152t-226.5 -533q-61 -379 44.5 -531t323.5 -152zM463 14q-204 0 -306.5 145.5t-42.5 515.5q61 370 219.5 516.5t362.5 146.5t306.5 -146.5t42.5 -516.5q-60 -371 -219 -516t-363 -145z
M760 1412h32l-104 110h-37z" />
    <glyph glyph-name="Oacute" unicode="&#xd3;" horiz-adv-x="1174" 
d="M459 -8q218 0 382.5 151t226.5 532q61 378 -44.5 531.5t-323.5 153.5t-382.5 -152t-226.5 -533q-61 -379 44.5 -531t323.5 -152zM463 14q-204 0 -306.5 145.5t-42.5 515.5q61 370 219.5 516.5t362.5 146.5t306.5 -146.5t42.5 -516.5q-60 -371 -219 -516t-363 -145z
M626 1392h33l148 110h-39z" />
    <glyph glyph-name="Ocircumflex" unicode="&#xd4;" horiz-adv-x="1174" 
d="M459 -8q218 0 382.5 151t226.5 532q61 378 -44.5 531.5t-323.5 153.5t-382.5 -152t-226.5 -533q-61 -379 44.5 -531t323.5 -152zM463 14q-204 0 -306.5 145.5t-42.5 515.5q61 370 219.5 516.5t362.5 146.5t306.5 -146.5t42.5 -516.5q-60 -371 -219 -516t-363 -145z
M519 1399h33l178 115l138 -115h31l-154 137h-26z" />
    <glyph glyph-name="Otilde" unicode="&#xd5;" horiz-adv-x="1174" 
d="M459 -8q218 0 382.5 151t226.5 532q61 378 -44.5 531.5t-323.5 153.5t-382.5 -152t-226.5 -533q-61 -379 44.5 -531t323.5 -152zM463 14q-204 0 -306.5 145.5t-42.5 515.5q61 370 219.5 516.5t362.5 146.5t306.5 -146.5t42.5 -516.5q-60 -371 -219 -516t-363 -145z
M799 1451q27 0 47 6.5t33.5 17t21 21t9.5 18.5h-23q-3 -8 -13.5 -18.5t-28 -17.5t-39.5 -7q-32 0 -50 8t-30 19t-27 19t-43 8q-23 0 -42.5 -5.5t-34 -15t-24 -20t-12.5 -21.5h23q3 9 14 19t29.5 16.5t41.5 6.5q25 0 39.5 -8t27.5 -19t31 -19t50 -8z" />
    <glyph glyph-name="Odieresis" unicode="&#xd6;" horiz-adv-x="1174" 
d="M459 -8q218 0 382.5 151t226.5 532q61 378 -44.5 531.5t-323.5 153.5t-382.5 -152t-226.5 -533q-61 -379 44.5 -531t323.5 -152zM463 14q-204 0 -306.5 145.5t-42.5 515.5q61 370 219.5 516.5t362.5 146.5t306.5 -146.5t42.5 -516.5q-60 -371 -219 -516t-363 -145z
M618 1427q17 0 31 12.5t14 31.5q0 15 -9.5 24t-23.5 9q-17 0 -31 -12.5t-14 -31.5q0 -15 9 -24t24 -9zM811 1427q18 0 31.5 12.5t13.5 31.5q0 15 -9 24t-24 9q-17 0 -31 -12.5t-14 -31.5q0 -15 9.5 -24t23.5 -9z" />
    <glyph glyph-name="multiply" unicode="&#xd7;" horiz-adv-x="346" 
d="M246 342l20 18l-205 246l-20 -16zM14 342l291 248l-16 16l-290 -246z" />
    <glyph glyph-name="Oslash" unicode="&#xd8;" horiz-adv-x="977" 
d="M-33 0h31l976 1348h-27zM459 -8q218 0 382.5 151t226.5 532q61 378 -44.5 531.5t-323.5 153.5t-382.5 -152t-226.5 -533q-61 -379 44.5 -531t323.5 -152zM463 14q-204 0 -306.5 145.5t-42.5 515.5q61 370 219.5 516.5t362.5 146.5t306.5 -146.5t42.5 -516.5
q-60 -371 -219 -516t-363 -145z" />
    <glyph glyph-name="Ugrave" unicode="&#xd9;" horiz-adv-x="1130" 
d="M424 -9q201 0 329.5 90t166.5 303l169 965h-22l-168 -955q-37 -209 -156.5 -295t-314.5 -86q-194 0 -283.5 86t-52.5 295l169 955h-22l-170 -965q-38 -213 58.5 -303t296.5 -90zM744 1412h32l-104 110h-37z" />
    <glyph glyph-name="Uacute" unicode="&#xda;" horiz-adv-x="1130" 
d="M424 -9q201 0 329.5 90t166.5 303l169 965h-22l-168 -955q-37 -209 -156.5 -295t-314.5 -86q-194 0 -283.5 86t-52.5 295l169 955h-22l-170 -965q-38 -213 58.5 -303t296.5 -90zM610 1392h33l148 110h-39z" />
    <glyph glyph-name="Ucircumflex" unicode="&#xdb;" horiz-adv-x="1130" 
d="M424 -9q201 0 329.5 90t166.5 303l169 965h-22l-168 -955q-37 -209 -156.5 -295t-314.5 -86q-194 0 -283.5 86t-52.5 295l169 955h-22l-170 -965q-38 -213 58.5 -303t296.5 -90zM503 1399h33l178 115l138 -115h31l-154 137h-26z" />
    <glyph glyph-name="Udieresis" unicode="&#xdc;" horiz-adv-x="1130" 
d="M424 -9q201 0 329.5 90t166.5 303l169 965h-22l-168 -955q-37 -209 -156.5 -295t-314.5 -86q-194 0 -283.5 86t-52.5 295l169 955h-22l-170 -965q-38 -213 58.5 -303t296.5 -90zM602 1427q17 0 31 12.5t14 31.5q0 15 -9.5 24t-23.5 9q-17 0 -31 -12.5t-14 -31.5
q0 -15 9 -24t24 -9zM795 1427q18 0 31.5 12.5t13.5 31.5q0 15 -9 24t-24 9q-17 0 -31 -12.5t-14 -31.5q0 -15 9.5 -24t23.5 -9z" />
    <glyph glyph-name="Yacute" unicode="&#xdd;" horiz-adv-x="1061" 
d="M382 0h22l101 571l573 779h-28l-551 -742h-1l-289 742h-26l299 -780zM571 1392h33l148 110h-39z" />
    <glyph glyph-name="Thorn" unicode="&#xde;" horiz-adv-x="941" 
d="M-16 0h22l40 228h424q100 0 163.5 41t99.5 112t52 162l48 271q17 91 4.5 163t-63 113.5t-151.5 41.5h-417l38 218h-22zM50 250l151 858h414q95 0 142.5 -37.5t58 -106.5t-6.5 -164l-43 -243q-17 -94 -52.5 -163t-96 -106.5t-153.5 -37.5h-414z" />
    <glyph glyph-name="germandbls" unicode="&#xdf;" horiz-adv-x="1031" 
d="M-18 0h22l180 1021q23 125 67 209.5t103.5 134t128.5 70.5t141 21q132 0 192.5 -59t41.5 -184q-10 -67 -38.5 -120.5t-62 -99t-60 -88.5t-32.5 -88q-5 -37 14 -70.5t48.5 -68.5t57.5 -78.5t43 -101t2 -136.5q-15 -94 -65.5 -159.5t-133 -105t-191.5 -57.5t-239 -18
l-4 -22q136 0 249.5 18.5t199 60t138.5 112t69 174.5q13 80 -1.5 139.5t-42 103.5t-57 79t-49 66t-14.5 65q5 39 31 79.5t59.5 86.5t62.5 102.5t39 127.5q10 68 -3 118t-47 82t-86 47.5t-120 15.5q-78 0 -151.5 -23.5t-135.5 -76t-107.5 -138.5t-67.5 -212z" />
    <glyph glyph-name="agrave" unicode="&#xe0;" horiz-adv-x="986" 
d="M319 -8q99 0 174 18.5t128.5 47t85.5 58.5t44 54l-30 -170h21l136 774q27 150 -2.5 242.5t-106.5 135.5t-195 43q-81 0 -150 -22t-125.5 -69t-99 -122t-70.5 -182h23q36 132 95.5 214t141 120.5t182.5 38.5q110 0 182.5 -42t100.5 -130.5t2 -228.5l-17 -96h-405
q-53 0 -106.5 -8.5t-102 -31t-88 -62t-65.5 -101t-34 -149.5q-13 -137 20 -208.5t101.5 -97.5t159.5 -26zM324 14q-83 0 -147 25t-96 92.5t-20 194.5q9 102 45 166.5t90 99.5t115.5 48.5t121.5 13.5h403l-78 -440q-24 -45 -80.5 -91.5t-144.5 -77.5t-209 -31zM641 1248h32
l-104 110h-37z" />
    <glyph glyph-name="aacute" unicode="&#xe1;" horiz-adv-x="986" 
d="M319 -8q99 0 174 18.5t128.5 47t85.5 58.5t44 54l-30 -170h21l136 774q27 150 -2.5 242.5t-106.5 135.5t-195 43q-81 0 -150 -22t-125.5 -69t-99 -122t-70.5 -182h23q36 132 95.5 214t141 120.5t182.5 38.5q110 0 182.5 -42t100.5 -130.5t2 -228.5l-17 -96h-405
q-53 0 -106.5 -8.5t-102 -31t-88 -62t-65.5 -101t-34 -149.5q-13 -137 20 -208.5t101.5 -97.5t159.5 -26zM324 14q-83 0 -147 25t-96 92.5t-20 194.5q9 102 45 166.5t90 99.5t115.5 48.5t121.5 13.5h403l-78 -440q-24 -45 -80.5 -91.5t-144.5 -77.5t-209 -31zM508 1228h33
l148 110h-39z" />
    <glyph glyph-name="acircumflex" unicode="&#xe2;" horiz-adv-x="986" 
d="M319 -8q99 0 174 18.5t128.5 47t85.5 58.5t44 54l-30 -170h21l136 774q27 150 -2.5 242.5t-106.5 135.5t-195 43q-81 0 -150 -22t-125.5 -69t-99 -122t-70.5 -182h23q36 132 95.5 214t141 120.5t182.5 38.5q110 0 182.5 -42t100.5 -130.5t2 -228.5l-17 -96h-405
q-53 0 -106.5 -8.5t-102 -31t-88 -62t-65.5 -101t-34 -149.5q-13 -137 20 -208.5t101.5 -97.5t159.5 -26zM324 14q-83 0 -147 25t-96 92.5t-20 194.5q9 102 45 166.5t90 99.5t115.5 48.5t121.5 13.5h403l-78 -440q-24 -45 -80.5 -91.5t-144.5 -77.5t-209 -31zM402 1235h33
l178 115l138 -115h31l-154 137h-26z" />
    <glyph glyph-name="atilde" unicode="&#xe3;" horiz-adv-x="986" 
d="M319 -8q99 0 174 18.5t128.5 47t85.5 58.5t44 54l-30 -170h21l136 774q27 150 -2.5 242.5t-106.5 135.5t-195 43q-81 0 -150 -22t-125.5 -69t-99 -122t-70.5 -182h23q36 132 95.5 214t141 120.5t182.5 38.5q110 0 182.5 -42t100.5 -130.5t2 -228.5l-17 -96h-405
q-53 0 -106.5 -8.5t-102 -31t-88 -62t-65.5 -101t-34 -149.5q-13 -137 20 -208.5t101.5 -97.5t159.5 -26zM324 14q-83 0 -147 25t-96 92.5t-20 194.5q9 102 45 166.5t90 99.5t115.5 48.5t121.5 13.5h403l-78 -440q-24 -45 -80.5 -91.5t-144.5 -77.5t-209 -31zM682 1287
q27 0 47 6.5t33.5 17t21 21t9.5 18.5h-23q-3 -8 -13.5 -18.5t-28 -17.5t-39.5 -7q-32 0 -50 8t-30 19t-27 19t-43 8q-23 0 -42.5 -5.5t-34 -15t-24 -20t-12.5 -21.5h23q3 9 14 19t29.5 16.5t41.5 6.5q25 0 39.5 -8t27.5 -19t31 -19t50 -8z" />
    <glyph glyph-name="adieresis" unicode="&#xe4;" horiz-adv-x="986" 
d="M319 -8q99 0 174 18.5t128.5 47t85.5 58.5t44 54l-30 -170h21l136 774q27 150 -2.5 242.5t-106.5 135.5t-195 43q-81 0 -150 -22t-125.5 -69t-99 -122t-70.5 -182h23q36 132 95.5 214t141 120.5t182.5 38.5q110 0 182.5 -42t100.5 -130.5t2 -228.5l-17 -96h-405
q-53 0 -106.5 -8.5t-102 -31t-88 -62t-65.5 -101t-34 -149.5q-13 -137 20 -208.5t101.5 -97.5t159.5 -26zM324 14q-83 0 -147 25t-96 92.5t-20 194.5q9 102 45 166.5t90 99.5t115.5 48.5t121.5 13.5h403l-78 -440q-24 -45 -80.5 -91.5t-144.5 -77.5t-209 -31zM501 1263
q17 0 31 12.5t14 31.5q0 15 -9.5 24t-23.5 9q-17 0 -31 -12.5t-14 -31.5q0 -15 9 -24t24 -9zM694 1263q18 0 31.5 12.5t13.5 31.5q0 15 -9 24t-24 9q-17 0 -31 -12.5t-14 -31.5q0 -15 9.5 -24t23.5 -9z" />
    <glyph glyph-name="aring" unicode="&#xe5;" horiz-adv-x="986" 
d="M319 -8q99 0 174 18.5t128.5 47t85.5 58.5t44 54l-30 -170h21l136 774q27 150 -2.5 242.5t-106.5 135.5t-195 43q-81 0 -150 -22t-125.5 -69t-99 -122t-70.5 -182h23q36 132 95.5 214t141 120.5t182.5 38.5q110 0 182.5 -42t100.5 -130.5t2 -228.5l-17 -96h-405
q-53 0 -106.5 -8.5t-102 -31t-88 -62t-65.5 -101t-34 -149.5q-13 -137 20 -208.5t101.5 -97.5t159.5 -26zM324 14q-83 0 -147 25t-96 92.5t-20 194.5q9 102 45 166.5t90 99.5t115.5 48.5t121.5 13.5h403l-78 -440q-24 -45 -80.5 -91.5t-144.5 -77.5t-209 -31zM593 1218
q18 0 33 9t24 23.5t10 31.5q3 25 -13.5 43.5t-43.5 18.5q-18 0 -32.5 -8.5t-23.5 -22.5t-11 -31q-2 -27 14.5 -45.5t42.5 -18.5zM594 1240q-16 0 -26.5 12t-9.5 30q2 18 15 29t29 11q17 0 27.5 -11t8.5 -29q-1 -18 -14 -30t-30 -12z" />
    <glyph glyph-name="ae" unicode="&#xe6;" horiz-adv-x="1719" 
d="M768 346l69 392q39 216 -28.5 336t-243.5 120q-192 0 -302.5 -113.5t-146.5 -314.5h24q34 192 141 299t283 107q160 0 223.5 -113.5t26.5 -330.5l-62 -353l-4 -25zM304 -8q183 0 307 85t164 310h-21q-39 -216 -158.5 -294.5t-289.5 -78.5q-161 0 -215.5 74t-36.5 206
q24 169 111 231.5t274 62.5h359l3 22h-355q-214 0 -303 -74t-112 -242q-19 -138 38.5 -220t234.5 -82zM1086 -8l4 22q-183 0 -252 152q-70 151 -25 432q50 310 181 443q130 132 302 132q177 0 254 -131q74 -129 22 -433h-767l-4 -23h791q2 10 3 17q56 319 -23 456
q-80 136 -272 136q-186 0 -322 -139t-188 -458q-46 -291 27 -449q73 -157 269 -157zM1090 14l-4 -22q114 0 212 45q97 45 162 149q63 103 96 232h-23q-31 -119 -92 -220q-62 -101 -154 -143q-94 -41 -197 -41z" />
    <glyph glyph-name="ccedilla" unicode="&#xe7;" horiz-adv-x="991" 
d="M385 -8q189 0 306.5 140.5t143.5 289.5h-23q-25 -139 -138.5 -273.5t-287.5 -134.5q-170 0 -241 145t-47 394q30 333 160.5 476.5t327.5 143.5q174 0 239.5 -122t46.5 -288h23q21 176 -49.5 304t-259.5 128q-210 0 -345.5 -149t-165.5 -493q-24 -261 51 -411t259 -150z
M376 -219q27 0 52 5t45 15.5t33 27.5t16 40q6 36 -16 50.5t-55 14.5q-28 0 -60 -8t-47 -17l-2 -19q27 11 54.5 17.5t49.5 6.5q26 0 42 -11.5t11 -35.5q-6 -30 -37 -47t-82 -17q-27 0 -49 3t-39 7l-13 -21q18 -4 42.5 -7.5t54.5 -3.5zM342 -110l54 110h-25l-47 -100z" />
    <glyph glyph-name="egrave" unicode="&#xe8;" horiz-adv-x="1016" 
d="M383 -8l4 22q-183 0 -252 152q-70 151 -25 432q50 310 181 443q130 132 302 132q177 0 254 -131q74 -129 22 -433h-767l-4 -23h791q2 10 3 17q56 319 -23 456q-80 136 -272 136q-186 0 -322 -139t-188 -458q-46 -291 27 -449q73 -157 269 -157zM387 14l-4 -22
q114 0 212 45q97 45 162 149q63 103 96 232h-23q-31 -119 -92 -220q-62 -101 -154 -143q-94 -41 -197 -41zM657 1248h32l-104 110h-37z" />
    <glyph glyph-name="eacute" unicode="&#xe9;" horiz-adv-x="1016" 
d="M383 -8l4 22q-183 0 -252 152q-70 151 -25 432q50 310 181 443q130 132 302 132q177 0 254 -131q74 -129 22 -433h-767l-4 -23h791q2 10 3 17q56 319 -23 456q-80 136 -272 136q-186 0 -322 -139t-188 -458q-46 -291 27 -449q73 -157 269 -157zM387 14l-4 -22
q114 0 212 45q97 45 162 149q63 103 96 232h-23q-31 -119 -92 -220q-62 -101 -154 -143q-94 -41 -197 -41zM524 1228h33l148 110h-39z" />
    <glyph glyph-name="ecircumflex" unicode="&#xea;" horiz-adv-x="1016" 
d="M383 -8l4 22q-183 0 -252 152q-70 151 -25 432q50 310 181 443q130 132 302 132q177 0 254 -131q74 -129 22 -433h-767l-4 -23h791q2 10 3 17q56 319 -23 456q-80 136 -272 136q-186 0 -322 -139t-188 -458q-46 -291 27 -449q73 -157 269 -157zM387 14l-4 -22
q114 0 212 45q97 45 162 149q63 103 96 232h-23q-31 -119 -92 -220q-62 -101 -154 -143q-94 -41 -197 -41zM417 1235h33l178 115l138 -115h31l-154 137h-26z" />
    <glyph glyph-name="edieresis" unicode="&#xeb;" horiz-adv-x="1016" 
d="M383 -8l4 22q-183 0 -252 152q-70 151 -25 432q50 310 181 443q130 132 302 132q177 0 254 -131q74 -129 22 -433h-767l-4 -23h791q2 10 3 17q56 319 -23 456q-80 136 -272 136q-186 0 -322 -139t-188 -458q-46 -291 27 -449q73 -157 269 -157zM387 14l-4 -22
q114 0 212 45q97 45 162 149q63 103 96 232h-23q-31 -119 -92 -220q-62 -101 -154 -143q-94 -41 -197 -41zM516 1263q17 0 31 12.5t14 31.5q0 15 -9.5 24t-23.5 9q-17 0 -31 -12.5t-14 -31.5q0 -15 9 -24t24 -9zM709 1263q18 0 31.5 12.5t13.5 31.5q0 15 -9 24t-24 9
q-17 0 -31 -12.5t-14 -31.5q0 -15 9.5 -24t23.5 -9z" />
    <glyph glyph-name="igrave" unicode="&#xec;" horiz-adv-x="311" 
d="M25 0h22l209 1184h-22zM307 1248h32l-104 110h-37z" />
    <glyph glyph-name="iacute" unicode="&#xed;" horiz-adv-x="311" 
d="M25 0h22l209 1184h-22zM174 1228h33l148 110h-39z" />
    <glyph glyph-name="icircumflex" unicode="&#xee;" horiz-adv-x="311" 
d="M25 0h22l209 1184h-22zM68 1235h33l178 115l138 -115h31l-154 137h-26z" />
    <glyph glyph-name="idieresis" unicode="&#xef;" horiz-adv-x="311" 
d="M25 0h22l209 1184h-22zM167 1263q17 0 31 12.5t14 31.5q0 15 -9.5 24t-23.5 9q-17 0 -31 -12.5t-14 -31.5q0 -15 9 -24t24 -9zM360 1263q18 0 31.5 12.5t13.5 31.5q0 15 -9 24t-24 9q-17 0 -31 -12.5t-14 -31.5q0 -15 9.5 -24t23.5 -9z" />
    <glyph glyph-name="eth" unicode="&#xf0;" horiz-adv-x="1014" 
d="M359 -8q192 0 309.5 142.5t172.5 455.5q55 314 -15.5 457.5t-260.5 143.5q-194 0 -314 -146t-169 -455t18 -453.5t259 -144.5zM360 14q-178 0 -240 138.5t-15 437.5q48 302 165 440.5t294 138.5t242.5 -138t11.5 -441t-167.5 -439.5t-290.5 -136.5zM865 726
q12 66 15.5 131t-2 126.5t-24.5 115.5q-3 115 -27.5 195t-72 130.5t-120 76.5t-173.5 34l-10 -20q87 -6 162.5 -29.5t133 -74.5t91.5 -138t37.5 -221.5t-30.5 -325.5h20zM548 1371l125 182l-18 8l-123 -178z" />
    <glyph glyph-name="ntilde" unicode="&#xf1;" horiz-adv-x="972" 
d="M-7 0h22l164 927l48 259h-23zM695 0h22l130 738q40 229 -25 344.5t-240 115.5q-161 0 -281.5 -97.5t-143.5 -227.5l3 -46q25 145 145.5 247t274.5 102q159 0 222 -108t24 -326zM675 1287q27 0 47 6.5t33.5 17t21 21t9.5 18.5h-23q-3 -8 -13.5 -18.5t-28 -17.5t-39.5 -7
q-32 0 -50 8t-30 19t-27 19t-43 8q-23 0 -42.5 -5.5t-34 -15t-24 -20t-12.5 -21.5h23q3 9 14 19t29.5 16.5t41.5 6.5q25 0 39.5 -8t27.5 -19t31 -19t50 -8z" />
    <glyph glyph-name="ograve" unicode="&#xf2;" horiz-adv-x="1022" 
d="M380 -8q184 0 324 135t194 466q53 331 -34.5 467t-271.5 136q-185 0 -325.5 -135.5t-193.5 -467.5q-53 -330 34.5 -465.5t272.5 -135.5zM383 14q-169 0 -253.5 129t-33.5 450q52 320 187.5 450.5t304.5 130.5t254 -129.5t33 -451.5q-52 -319 -187.5 -449t-304.5 -130z
M649 1248h32l-104 110h-37z" />
    <glyph glyph-name="oacute" unicode="&#xf3;" horiz-adv-x="1022" 
d="M380 -8q184 0 324 135t194 466q53 331 -34.5 467t-271.5 136q-185 0 -325.5 -135.5t-193.5 -467.5q-53 -330 34.5 -465.5t272.5 -135.5zM383 14q-169 0 -253.5 129t-33.5 450q52 320 187.5 450.5t304.5 130.5t254 -129.5t33 -451.5q-52 -319 -187.5 -449t-304.5 -130z
M516 1228h33l148 110h-39z" />
    <glyph glyph-name="ocircumflex" unicode="&#xf4;" horiz-adv-x="1022" 
d="M380 -8q184 0 324 135t194 466q53 331 -34.5 467t-271.5 136q-185 0 -325.5 -135.5t-193.5 -467.5q-53 -330 34.5 -465.5t272.5 -135.5zM383 14q-169 0 -253.5 129t-33.5 450q52 320 187.5 450.5t304.5 130.5t254 -129.5t33 -451.5q-52 -319 -187.5 -449t-304.5 -130z
M410 1235h33l178 115l138 -115h31l-154 137h-26z" />
    <glyph glyph-name="otilde" unicode="&#xf5;" horiz-adv-x="1022" 
d="M380 -8q184 0 324 135t194 466q53 331 -34.5 467t-271.5 136q-185 0 -325.5 -135.5t-193.5 -467.5q-53 -330 34.5 -465.5t272.5 -135.5zM383 14q-169 0 -253.5 129t-33.5 450q52 320 187.5 450.5t304.5 130.5t254 -129.5t33 -451.5q-52 -319 -187.5 -449t-304.5 -130z
M690 1287q27 0 47 6.5t33.5 17t21 21t9.5 18.5h-23q-3 -8 -13.5 -18.5t-28 -17.5t-39.5 -7q-32 0 -50 8t-30 19t-27 19t-43 8q-23 0 -42.5 -5.5t-34 -15t-24 -20t-12.5 -21.5h23q3 9 14 19t29.5 16.5t41.5 6.5q25 0 39.5 -8t27.5 -19t31 -19t50 -8z" />
    <glyph glyph-name="odieresis" unicode="&#xf6;" horiz-adv-x="1022" 
d="M380 -8q184 0 324 135t194 466q53 331 -34.5 467t-271.5 136q-185 0 -325.5 -135.5t-193.5 -467.5q-53 -330 34.5 -465.5t272.5 -135.5zM383 14q-169 0 -253.5 129t-33.5 450q52 320 187.5 450.5t304.5 130.5t254 -129.5t33 -451.5q-52 -319 -187.5 -449t-304.5 -130z
M509 1263q17 0 31 12.5t14 31.5q0 15 -9.5 24t-23.5 9q-17 0 -31 -12.5t-14 -31.5q0 -15 9 -24t24 -9zM702 1263q18 0 31.5 12.5t13.5 31.5q0 15 -9 24t-24 9q-17 0 -31 -12.5t-14 -31.5q0 -15 9.5 -24t23.5 -9z" />
    <glyph glyph-name="divide" unicode="&#xf7;" horiz-adv-x="329" 
d="M23 466h230l4 24h-230zM85 154q14 0 25.5 10.5t14.5 25.5q3 17 -6 27.5t-24 10.5q-16 0 -28 -10t-14 -24q-3 -18 5.5 -29t26.5 -11zM187 738q15 0 27 10.5t15 25.5q3 17 -6 27.5t-26 10.5q-15 0 -27 -10t-15 -24q-3 -18 6.5 -29t25.5 -11z" />
    <glyph glyph-name="oslash" unicode="&#xf8;" horiz-adv-x="1014" 
d="M-67 -13l16 -11l1083 1227l-15 10zM380 -8q184 0 324 135t194 466q53 331 -34.5 467t-271.5 136q-185 0 -325.5 -135.5t-193.5 -467.5q-53 -330 34.5 -465.5t272.5 -135.5zM383 14q-169 0 -253.5 129t-33.5 450q52 320 187.5 450.5t304.5 130.5t254 -129.5t33 -451.5
q-52 -319 -187.5 -449t-304.5 -130z" />
    <glyph glyph-name="ugrave" unicode="&#xf9;" horiz-adv-x="982" 
d="M714 0h22l208 1184h-22l-168 -952zM242 1186h-22l-130 -738q-40 -228 22.5 -344t237.5 -116q161 0 283.5 98t145.5 227l-2 47q-25 -145 -148 -247.5t-277 -102.5q-159 0 -219.5 108t-21.5 326zM640 1248h32l-104 110h-37z" />
    <glyph glyph-name="uacute" unicode="&#xfa;" horiz-adv-x="982" 
d="M714 0h22l208 1184h-22l-168 -952zM242 1186h-22l-130 -738q-40 -228 22.5 -344t237.5 -116q161 0 283.5 98t145.5 227l-2 47q-25 -145 -148 -247.5t-277 -102.5q-159 0 -219.5 108t-21.5 326zM507 1228h33l148 110h-39z" />
    <glyph glyph-name="ucircumflex" unicode="&#xfb;" horiz-adv-x="982" 
d="M714 0h22l208 1184h-22l-168 -952zM242 1186h-22l-130 -738q-40 -228 22.5 -344t237.5 -116q161 0 283.5 98t145.5 227l-2 47q-25 -145 -148 -247.5t-277 -102.5q-159 0 -219.5 108t-21.5 326zM401 1235h33l178 115l138 -115h31l-154 137h-26z" />
    <glyph glyph-name="udieresis" unicode="&#xfc;" horiz-adv-x="982" 
d="M714 0h22l208 1184h-22l-168 -952zM242 1186h-22l-130 -738q-40 -228 22.5 -344t237.5 -116q161 0 283.5 98t145.5 227l-2 47q-25 -145 -148 -247.5t-277 -102.5q-159 0 -219.5 108t-21.5 326zM500 1263q17 0 31 12.5t14 31.5q0 15 -9.5 24t-23.5 9q-17 0 -31 -12.5
t-14 -31.5q0 -15 9 -24t24 -9zM693 1263q18 0 31.5 12.5t13.5 31.5q0 15 -9 24t-24 9q-17 0 -31 -12.5t-14 -31.5q0 -15 9.5 -24t23.5 -9z" />
    <glyph glyph-name="yacute" unicode="&#xfd;" horiz-adv-x="820" 
d="M288 0h34l566 1184h-25l-553 -1156h-1l-149 1156h-24zM-156 -456q128 0 240.5 94.5t237.5 361.5l-23 1q-121 -254 -226 -344.5t-225 -90.5zM430 1228h33l148 110h-39z" />
    <glyph glyph-name="thorn" unicode="&#xfe;" horiz-adv-x="1012" 
d="M-77 -400h23l229 1295h-21zM4 0h21l36 200l242 1370h-22zM407 -8q176 0 300 137.5t181 464.5q58 328 -19 465.5t-254 137.5q-169 0 -293 -96.5t-140 -182.5l-4 -54q20 110 149 210.5t286 100.5q162 0 235 -131t17 -450q-56 -318 -176.5 -449t-280.5 -131q-159 0 -252 101
t-74 211l-15 -55q-15 -86 77.5 -182.5t262.5 -96.5z" />
    <glyph glyph-name="ydieresis" unicode="&#xff;" horiz-adv-x="820" 
d="M288 0h34l566 1184h-25l-553 -1156h-1l-149 1156h-24zM-156 -456q128 0 240.5 94.5t237.5 361.5l-23 1q-121 -254 -226 -344.5t-225 -90.5zM423 1263q17 0 31 12.5t14 31.5q0 15 -9.5 24t-23.5 9q-17 0 -31 -12.5t-14 -31.5q0 -15 9 -24t24 -9zM616 1263q18 0 31.5 12.5
t13.5 31.5q0 15 -9 24t-24 9q-17 0 -31 -12.5t-14 -31.5q0 -15 9.5 -24t23.5 -9z" />
    <glyph glyph-name="Amacron" unicode="&#x100;" horiz-adv-x="1146" 
d="M-38 0h25l232 437h642l77 -437h25l-241 1354h-41zM231 459l467 876h2l157 -876h-626zM487 1458h467l3 20h-466z" />
    <glyph glyph-name="amacron" unicode="&#x101;" horiz-adv-x="986" 
d="M319 -8q99 0 174 18.5t128.5 47t85.5 58.5t44 54l-30 -170h21l136 774q27 150 -2.5 242.5t-106.5 135.5t-195 43q-81 0 -150 -22t-125.5 -69t-99 -122t-70.5 -182h23q36 132 95.5 214t141 120.5t182.5 38.5q110 0 182.5 -42t100.5 -130.5t2 -228.5l-17 -96h-405
q-53 0 -106.5 -8.5t-102 -31t-88 -62t-65.5 -101t-34 -149.5q-13 -137 20 -208.5t101.5 -97.5t159.5 -26zM324 14q-83 0 -147 25t-96 92.5t-20 194.5q9 102 45 166.5t90 99.5t115.5 48.5t121.5 13.5h403l-78 -440q-24 -45 -80.5 -91.5t-144.5 -77.5t-209 -31zM369 1294h467
l3 20h-466z" />
    <glyph glyph-name="Abreve" unicode="&#x102;" horiz-adv-x="1146" 
d="M-38 0h25l232 437h642l77 -437h25l-241 1354h-41zM231 459l467 876h2l157 -876h-626zM710 1412q45 0 76 16t49.5 41t23.5 53h-25q-4 -22 -16.5 -42.5t-37.5 -33.5t-66 -13q-37 0 -57 13.5t-27 33.5t-3 42h-24q-5 -28 5.5 -53t36 -41t65.5 -16z" />
    <glyph glyph-name="abreve" unicode="&#x103;" horiz-adv-x="986" 
d="M319 -8q99 0 174 18.5t128.5 47t85.5 58.5t44 54l-30 -170h21l136 774q27 150 -2.5 242.5t-106.5 135.5t-195 43q-81 0 -150 -22t-125.5 -69t-99 -122t-70.5 -182h23q36 132 95.5 214t141 120.5t182.5 38.5q110 0 182.5 -42t100.5 -130.5t2 -228.5l-17 -96h-405
q-53 0 -106.5 -8.5t-102 -31t-88 -62t-65.5 -101t-34 -149.5q-13 -137 20 -208.5t101.5 -97.5t159.5 -26zM324 14q-83 0 -147 25t-96 92.5t-20 194.5q9 102 45 166.5t90 99.5t115.5 48.5t121.5 13.5h403l-78 -440q-24 -45 -80.5 -91.5t-144.5 -77.5t-209 -31zM592 1248
q45 0 76 16t49.5 41t23.5 53h-25q-4 -22 -16.5 -42.5t-37.5 -33.5t-66 -13q-37 0 -57 13.5t-27 33.5t-3 42h-24q-5 -28 5.5 -53t36 -41t65.5 -16z" />
    <glyph glyph-name="Aogonek" unicode="&#x104;" horiz-adv-x="1146" 
d="M-38 0h25l232 437h642l77 -437h25l-241 1354h-41zM231 459l467 876h2l157 -876h-626zM934 -248q19 0 38.5 2.5t36 7t24.5 7.5l-3 23q-9 -4 -24 -8t-32 -6.5t-34 -2.5q-31 0 -46.5 12t-15.5 35q0 24 15.5 59t36 68.5t33.5 50.5h-21q-15 -17 -36 -50t-36 -69.5t-15 -64.5
q0 -23 10 -37t28 -20.5t41 -6.5z" />
    <glyph glyph-name="aogonek" unicode="&#x105;" horiz-adv-x="986" 
d="M319 -8q99 0 174 18.5t128.5 47t85.5 58.5t44 54l-30 -170h21l136 774q27 150 -2.5 242.5t-106.5 135.5t-195 43q-81 0 -150 -22t-125.5 -69t-99 -122t-70.5 -182h23q36 132 95.5 214t141 120.5t182.5 38.5q110 0 182.5 -42t100.5 -130.5t2 -228.5l-17 -96h-405
q-53 0 -106.5 -8.5t-102 -31t-88 -62t-65.5 -101t-34 -149.5q-13 -137 20 -208.5t101.5 -97.5t159.5 -26zM324 14q-83 0 -147 25t-96 92.5t-20 194.5q9 102 45 166.5t90 99.5t115.5 48.5t121.5 13.5h403l-78 -440q-24 -45 -80.5 -91.5t-144.5 -77.5t-209 -31zM713 -248
q19 0 38.5 2.5t36 7t24.5 7.5l-3 23q-9 -4 -24 -8t-32 -6.5t-34 -2.5q-31 0 -46.5 12t-15.5 35q0 24 15.5 59t36 68.5t33.5 50.5h-21q-15 -17 -36 -50t-36 -69.5t-15 -64.5q0 -23 10 -37t28 -20.5t41 -6.5z" />
    <glyph glyph-name="Cacute" unicode="&#x106;" horiz-adv-x="1100" 
d="M419 -9q218 0 345 132t172 396h-22q-43 -254 -166.5 -380t-328.5 -126q-209 0 -290.5 144.5t-21.5 519.5q63 391 199 526t346 135q205 0 280.5 -117.5t36.5 -384.5h23q40 276 -40.5 400t-299.5 124q-223 0 -363.5 -141.5t-204.5 -541.5q-62 -385 24.5 -535.5
t310.5 -150.5zM529 1392h33l148 110h-39z" />
    <glyph glyph-name="cacute" unicode="&#x107;" horiz-adv-x="991" 
d="M385 -8q189 0 306.5 140.5t143.5 289.5h-23q-25 -139 -138.5 -273.5t-287.5 -134.5q-170 0 -241 145t-47 394q30 333 160.5 476.5t327.5 143.5q174 0 239.5 -122t46.5 -288h23q21 176 -49.5 304t-259.5 128q-210 0 -345.5 -149t-165.5 -493q-24 -261 51 -411t259 -150z
M517 1228h33l148 110h-39z" />
    <glyph glyph-name="Ccircumflex" unicode="&#x108;" horiz-adv-x="1100" 
d="M419 -9q218 0 345 132t172 396h-22q-43 -254 -166.5 -380t-328.5 -126q-209 0 -290.5 144.5t-21.5 519.5q63 391 199 526t346 135q205 0 280.5 -117.5t36.5 -384.5h23q40 276 -40.5 400t-299.5 124q-223 0 -363.5 -141.5t-204.5 -541.5q-62 -385 24.5 -535.5
t310.5 -150.5zM422 1399h33l178 115l138 -115h31l-154 137h-26z" />
    <glyph glyph-name="ccircumflex" unicode="&#x109;" horiz-adv-x="991" 
d="M385 -8q189 0 306.5 140.5t143.5 289.5h-23q-25 -139 -138.5 -273.5t-287.5 -134.5q-170 0 -241 145t-47 394q30 333 160.5 476.5t327.5 143.5q174 0 239.5 -122t46.5 -288h23q21 176 -49.5 304t-259.5 128q-210 0 -345.5 -149t-165.5 -493q-24 -261 51 -411t259 -150z
M410 1235h33l178 115l138 -115h31l-154 137h-26z" />
    <glyph glyph-name="Cdotaccent" unicode="&#x10a;" horiz-adv-x="1100" 
d="M419 -9q218 0 345 132t172 396h-22q-43 -254 -166.5 -380t-328.5 -126q-209 0 -290.5 144.5t-21.5 519.5q63 391 199 526t346 135q205 0 280.5 -117.5t36.5 -384.5h23q40 276 -40.5 400t-299.5 124q-223 0 -363.5 -141.5t-204.5 -541.5q-62 -385 24.5 -535.5
t310.5 -150.5zM625 1424q16 0 26.5 11.5t10.5 26.5t-11 25.5t-25 10.5q-16 0 -27 -10.5t-11 -25.5q0 -16 11 -27t26 -11z" />
    <glyph glyph-name="cdotaccent" unicode="&#x10b;" horiz-adv-x="991" 
d="M385 -8q189 0 306.5 140.5t143.5 289.5h-23q-25 -139 -138.5 -273.5t-287.5 -134.5q-170 0 -241 145t-47 394q30 333 160.5 476.5t327.5 143.5q174 0 239.5 -122t46.5 -288h23q21 176 -49.5 304t-259.5 128q-210 0 -345.5 -149t-165.5 -493q-24 -261 51 -411t259 -150z
M613 1260q16 0 26.5 11.5t10.5 26.5t-11 25.5t-25 10.5q-16 0 -27 -10.5t-11 -25.5q0 -16 11 -27t26 -11z" />
    <glyph glyph-name="Ccaron" unicode="&#x10c;" horiz-adv-x="1100" 
d="M419 -9q218 0 345 132t172 396h-22q-43 -254 -166.5 -380t-328.5 -126q-209 0 -290.5 144.5t-21.5 519.5q63 391 199 526t346 135q205 0 280.5 -117.5t36.5 -384.5h23q40 276 -40.5 400t-299.5 124q-223 0 -363.5 -141.5t-204.5 -541.5q-62 -385 24.5 -535.5
t310.5 -150.5zM600 1399h26l200 137h-33l-177 -115l-139 115h-31z" />
    <glyph glyph-name="ccaron" unicode="&#x10d;" horiz-adv-x="991" 
d="M385 -8q189 0 306.5 140.5t143.5 289.5h-23q-25 -139 -138.5 -273.5t-287.5 -134.5q-170 0 -241 145t-47 394q30 333 160.5 476.5t327.5 143.5q174 0 239.5 -122t46.5 -288h23q21 176 -49.5 304t-259.5 128q-210 0 -345.5 -149t-165.5 -493q-24 -261 51 -411t259 -150z
M588 1235h26l200 137h-33l-177 -115l-139 115h-31z" />
    <glyph glyph-name="Dcaron" unicode="&#x10e;" horiz-adv-x="1045" 
d="M-18 0h398q221 0 358 137t201 538q62 390 -19 532.5t-302 142.5h-398zM8 22l230 1306h372q209 0 288.5 -135.5t17.5 -517.5q-64 -392 -195.5 -522.5t-340.5 -130.5h-372zM607 1399h26l200 137h-33l-177 -115l-139 115h-31z" />
    <glyph glyph-name="dcaron" unicode="&#x10f;" horiz-adv-x="978" 
d="M1063 1354h23l67 216h-28zM733 0h21l276 1570h-22l-241 -1370zM357 -8q170 0 292.5 96.5t138.5 182.5l2 55q-20 -110 -146 -211t-284 -101q-151 0 -224 122t-42 407q32 350 159.5 491t311.5 141q158 0 248.5 -100.5t71.5 -210.5l14 54q16 86 -75.5 182.5t-259.5 96.5
q-200 0 -330.5 -147.5t-162.5 -506.5q-32 -294 44 -422.5t242 -128.5z" />
    <glyph glyph-name="Dcroat" unicode="&#x110;" horiz-adv-x="1070" 
d="M-7 666h351l2 22h-350zM7 0h398q221 0 358 137t201 538q62 390 -19 532.5t-302 142.5h-398zM33 22l230 1306h372q209 0 288.5 -135.5t17.5 -517.5q-64 -392 -195.5 -522.5t-340.5 -130.5h-372z" />
    <glyph glyph-name="dcroat" unicode="&#x111;" horiz-adv-x="985" 
d="M675 1398h451l4 22h-451zM733 0h21l276 1570h-22l-241 -1370zM357 -8q170 0 292.5 96.5t138.5 182.5l2 55q-20 -110 -146 -211t-284 -101q-151 0 -224 122t-42 407q32 350 159.5 491t311.5 141q158 0 248.5 -100.5t71.5 -210.5l14 54q16 86 -75.5 182.5t-259.5 96.5
q-200 0 -330.5 -147.5t-162.5 -506.5q-32 -294 44 -422.5t242 -128.5z" />
    <glyph glyph-name="Emacron" unicode="&#x112;" horiz-adv-x="992" 
d="M-14 0h768l4 22h-746l117 666h712l4 22h-712l109 618h746l4 22h-768zM371 1458h467l3 20h-466z" />
    <glyph glyph-name="emacron" unicode="&#x113;" horiz-adv-x="1016" 
d="M383 -8l4 22q-183 0 -252 152q-70 151 -25 432q50 310 181 443q130 132 302 132q177 0 254 -131q74 -129 22 -433h-767l-4 -23h791q2 10 3 17q56 319 -23 456q-80 136 -272 136q-186 0 -322 -139t-188 -458q-46 -291 27 -449q73 -157 269 -157zM387 14l-4 -22
q114 0 212 45q97 45 162 149q63 103 96 232h-23q-31 -119 -92 -220q-62 -101 -154 -143q-94 -41 -197 -41zM385 1294h467l3 20h-466z" />
    <glyph glyph-name="Ebreve" unicode="&#x114;" horiz-adv-x="992" 
d="M-14 0h768l4 22h-746l117 666h712l4 22h-712l109 618h746l4 22h-768zM593 1412q45 0 76 16t49.5 41t23.5 53h-25q-4 -22 -16.5 -42.5t-37.5 -33.5t-66 -13q-37 0 -57 13.5t-27 33.5t-3 42h-24q-5 -28 5.5 -53t36 -41t65.5 -16z" />
    <glyph glyph-name="ebreve" unicode="&#x115;" horiz-adv-x="1016" 
d="M383 -8l4 22q-183 0 -252 152q-70 151 -25 432q50 310 181 443q130 132 302 132q177 0 254 -131q74 -129 22 -433h-767l-4 -23h791q2 10 3 17q56 319 -23 456q-80 136 -272 136q-186 0 -322 -139t-188 -458q-46 -291 27 -449q73 -157 269 -157zM387 14l-4 -22
q114 0 212 45q97 45 162 149q63 103 96 232h-23q-31 -119 -92 -220q-62 -101 -154 -143q-94 -41 -197 -41zM607 1248q45 0 76 16t49.5 41t23.5 53h-25q-4 -22 -16.5 -42.5t-37.5 -33.5t-66 -13q-37 0 -57 13.5t-27 33.5t-3 42h-24q-5 -28 5.5 -53t36 -41t65.5 -16z" />
    <glyph glyph-name="Edotaccent" unicode="&#x116;" horiz-adv-x="992" 
d="M-14 0h768l4 22h-746l117 666h712l4 22h-712l109 618h746l4 22h-768zM606 1424q16 0 26.5 11.5t10.5 26.5t-11 25.5t-25 10.5q-16 0 -27 -10.5t-11 -25.5q0 -16 11 -27t26 -11z" />
    <glyph glyph-name="edotaccent" unicode="&#x117;" horiz-adv-x="1016" 
d="M383 -8l4 22q-183 0 -252 152q-70 151 -25 432q50 310 181 443q130 132 302 132q177 0 254 -131q74 -129 22 -433h-767l-4 -23h791q2 10 3 17q56 319 -23 456q-80 136 -272 136q-186 0 -322 -139t-188 -458q-46 -291 27 -449q73 -157 269 -157zM387 14l-4 -22
q114 0 212 45q97 45 162 149q63 103 96 232h-23q-31 -119 -92 -220q-62 -101 -154 -143q-94 -41 -197 -41zM620 1260q16 0 26.5 11.5t10.5 26.5t-11 25.5t-25 10.5q-16 0 -27 -10.5t-11 -25.5q0 -16 11 -27t26 -11z" />
    <glyph glyph-name="Eogonek" unicode="&#x118;" horiz-adv-x="992" 
d="M-14 0h768l4 22h-746l117 666h712l4 22h-712l109 618h746l4 22h-768zM333 -248q19 0 38.5 2.5t36 7t24.5 7.5l-3 23q-9 -4 -24 -8t-32 -6.5t-34 -2.5q-31 0 -46.5 12t-15.5 35q0 24 15.5 59t36 68.5t33.5 50.5h-21q-15 -17 -36 -50t-36 -69.5t-15 -64.5q0 -23 10 -37
t28 -20.5t41 -6.5z" />
    <glyph glyph-name="eogonek" unicode="&#x119;" horiz-adv-x="1016" 
d="M383 -8l4 22q-183 0 -252 152q-70 151 -25 432q50 310 181 443q130 132 302 132q177 0 254 -131q74 -129 22 -433h-767l-4 -23h791q2 10 3 17q56 319 -23 456q-80 136 -272 136q-186 0 -322 -139t-188 -458q-46 -291 27 -449q73 -157 269 -157zM387 14l-4 -22
q114 0 212 45q97 45 162 149q63 103 96 232h-23q-31 -119 -92 -220q-62 -101 -154 -143q-94 -41 -197 -41zM619 -195q19 0 38.5 2.5t36 7t24.5 7.5l-3 23q-9 -4 -24 -8t-32 -6.5t-34 -2.5q-31 0 -46.5 12t-15.5 35q0 24 15.5 59t36 68.5t33.5 50.5h-21q-15 -17 -36 -50
t-36 -69.5t-15 -64.5q0 -23 10 -37t28 -20.5t41 -6.5z" />
    <glyph glyph-name="Ecaron" unicode="&#x11a;" horiz-adv-x="992" 
d="M-14 0h768l4 22h-746l117 666h712l4 22h-712l109 618h746l4 22h-768zM581 1399h26l200 137h-33l-177 -115l-139 115h-31z" />
    <glyph glyph-name="ecaron" unicode="&#x11b;" horiz-adv-x="1016" 
d="M383 -8l4 22q-183 0 -252 152q-70 151 -25 432q50 310 181 443q130 132 302 132q177 0 254 -131q74 -129 22 -433h-767l-4 -23h791q2 10 3 17q56 319 -23 456q-80 136 -272 136q-186 0 -322 -139t-188 -458q-46 -291 27 -449q73 -157 269 -157zM387 14l-4 -22
q114 0 212 45q97 45 162 149q63 103 96 232h-23q-31 -119 -92 -220q-62 -101 -154 -143q-94 -41 -197 -41zM595 1235h26l200 137h-33l-177 -115l-139 115h-31z" />
    <glyph glyph-name="Gcircumflex" unicode="&#x11c;" horiz-adv-x="1107" 
d="M419 -8q354 0 451 265l-46 -257h21l104 594h-403l-4 -23h376l-30 -169q-34 -191 -149 -289.5t-319 -98.5q-215 0 -286 144.5t-19 514.5q53 380 188 522.5t352 142.5q212 0 283.5 -135t30.5 -366h23q42 240 -33.5 381.5t-301.5 141.5q-232 0 -371 -149t-194 -538
q-53 -379 22.5 -530t304.5 -151zM462 1399h33l178 115l138 -115h31l-154 137h-26z" />
    <glyph glyph-name="gcircumflex" unicode="&#x11d;" horiz-adv-x="1010" 
d="M289 -458q113 0 204 42t157.5 142t96.5 268l210 1190h-22l-45 -254l-165 -934q-41 -235 -155.5 -334.5t-280.5 -99.5q-101 0 -171.5 35.5t-99 106.5t-19.5 199h-23q-21 -199 62 -280t251 -81zM349 -8q170 0 293.5 92.5t139.5 184.5l2 57q-19 -110 -145.5 -211
t-284.5 -101q-161 0 -235 128.5t-22 451.5q52 325 176.5 453t285.5 128q158 0 248.5 -100.5t71.5 -210.5l16 52q15 86 -74 183.5t-259 97.5q-176 0 -305.5 -134.5t-182.5 -468.5q-54 -332 22.5 -467t252.5 -135zM406 1235h33l178 115l138 -115h31l-154 137h-26z" />
    <glyph glyph-name="Gbreve" unicode="&#x11e;" horiz-adv-x="1107" 
d="M419 -8q354 0 451 265l-46 -257h21l104 594h-403l-4 -23h376l-30 -169q-34 -191 -149 -289.5t-319 -98.5q-215 0 -286 144.5t-19 514.5q53 380 188 522.5t352 142.5q212 0 283.5 -135t30.5 -366h23q42 240 -33.5 381.5t-301.5 141.5q-232 0 -371 -149t-194 -538
q-53 -379 22.5 -530t304.5 -151zM652 1412q45 0 76 16t49.5 41t23.5 53h-25q-4 -22 -16.5 -42.5t-37.5 -33.5t-66 -13q-37 0 -57 13.5t-27 33.5t-3 42h-24q-5 -28 5.5 -53t36 -41t65.5 -16z" />
    <glyph glyph-name="gbreve" unicode="&#x11f;" horiz-adv-x="1010" 
d="M289 -458q113 0 204 42t157.5 142t96.5 268l210 1190h-22l-45 -254l-165 -934q-41 -235 -155.5 -334.5t-280.5 -99.5q-101 0 -171.5 35.5t-99 106.5t-19.5 199h-23q-21 -199 62 -280t251 -81zM349 -8q170 0 293.5 92.5t139.5 184.5l2 57q-19 -110 -145.5 -211
t-284.5 -101q-161 0 -235 128.5t-22 451.5q52 325 176.5 453t285.5 128q158 0 248.5 -100.5t71.5 -210.5l16 52q15 86 -74 183.5t-259 97.5q-176 0 -305.5 -134.5t-182.5 -468.5q-54 -332 22.5 -467t252.5 -135zM596 1248q45 0 76 16t49.5 41t23.5 53h-25
q-4 -22 -16.5 -42.5t-37.5 -33.5t-66 -13q-37 0 -57 13.5t-27 33.5t-3 42h-24q-5 -28 5.5 -53t36 -41t65.5 -16z" />
    <glyph glyph-name="Gdotaccent" unicode="&#x120;" horiz-adv-x="1107" 
d="M419 -8q354 0 451 265l-46 -257h21l104 594h-403l-4 -23h376l-30 -169q-34 -191 -149 -289.5t-319 -98.5q-215 0 -286 144.5t-19 514.5q53 380 188 522.5t352 142.5q212 0 283.5 -135t30.5 -366h23q42 240 -33.5 381.5t-301.5 141.5q-232 0 -371 -149t-194 -538
q-53 -379 22.5 -530t304.5 -151zM664 1424q16 0 26.5 11.5t10.5 26.5t-11 25.5t-25 10.5q-16 0 -27 -10.5t-11 -25.5q0 -16 11 -27t26 -11z" />
    <glyph glyph-name="gdotaccent" unicode="&#x121;" horiz-adv-x="1010" 
d="M289 -458q113 0 204 42t157.5 142t96.5 268l210 1190h-22l-45 -254l-165 -934q-41 -235 -155.5 -334.5t-280.5 -99.5q-101 0 -171.5 35.5t-99 106.5t-19.5 199h-23q-21 -199 62 -280t251 -81zM349 -8q170 0 293.5 92.5t139.5 184.5l2 57q-19 -110 -145.5 -211
t-284.5 -101q-161 0 -235 128.5t-22 451.5q52 325 176.5 453t285.5 128q158 0 248.5 -100.5t71.5 -210.5l16 52q15 86 -74 183.5t-259 97.5q-176 0 -305.5 -134.5t-182.5 -468.5q-54 -332 22.5 -467t252.5 -135zM608 1260q16 0 26.5 11.5t10.5 26.5t-11 25.5t-25 10.5
q-16 0 -27 -10.5t-11 -25.5q0 -16 11 -27t26 -11z" />
    <glyph glyph-name="uni0122" unicode="&#x122;" horiz-adv-x="1107" 
d="M419 -8q354 0 451 265l-46 -257h21l104 594h-403l-4 -23h376l-30 -169q-34 -191 -149 -289.5t-319 -98.5q-215 0 -286 144.5t-19 514.5q53 380 188 522.5t352 142.5q212 0 283.5 -135t30.5 -366h23q42 240 -33.5 381.5t-301.5 141.5q-232 0 -371 -149t-194 -538
q-53 -379 22.5 -530t304.5 -151zM295 -241h22l135 153h-38z" />
    <glyph glyph-name="uni0123" unicode="&#x123;" horiz-adv-x="1010" 
d="M289 -458q113 0 204 42t157.5 142t96.5 268l210 1190h-22l-45 -254l-165 -934q-41 -235 -155.5 -334.5t-280.5 -99.5q-101 0 -171.5 35.5t-99 106.5t-19.5 199h-23q-21 -199 62 -280t251 -81zM349 -8q170 0 293.5 92.5t139.5 184.5l2 57q-19 -110 -145.5 -211
t-284.5 -101q-161 0 -235 128.5t-22 451.5q52 325 176.5 453t285.5 128q158 0 248.5 -100.5t71.5 -210.5l16 52q15 86 -74 183.5t-259 97.5q-176 0 -305.5 -134.5t-182.5 -468.5q-54 -332 22.5 -467t252.5 -135zM529 1231h41l125 198h-23z" />
    <glyph glyph-name="Hcircumflex" unicode="&#x124;" horiz-adv-x="1040" 
d="M-18 0h22l125 706h751l-124 -706h22l238 1350h-22l-110 -622h-751l110 622h-22zM423 1399h33l178 115l138 -115h31l-154 137h-26z" />
    <glyph glyph-name="hcircumflex" unicode="&#x125;" horiz-adv-x="973" 
d="M-7 0h22l278 1570h-22zM696 0h22l130 738q40 229 -27.5 344.5t-242.5 115.5q-161 0 -279 -97.5t-141 -227.5l3 -46q25 145 143 247t272 102q159 0 224.5 -108t26.5 -326zM428 1574h33l178 115l138 -115h31l-154 137h-26z" />
    <glyph glyph-name="Hbar" unicode="&#x126;" horiz-adv-x="971" 
d="M103 1048h924l4 22h-924zM-18 0h22l125 706h751l-124 -706h22l238 1350h-22l-110 -622h-751l110 622h-22z" />
    <glyph glyph-name="hbar" unicode="&#x127;" horiz-adv-x="964" 
d="M142 1398h451l4 22h-451zM-7 0h22l278 1570h-22zM696 0h22l130 738q40 229 -27.5 344.5t-242.5 115.5q-161 0 -279 -97.5t-141 -227.5l3 -46q25 145 143 247t272 102q159 0 224.5 -108t26.5 -326z" />
    <glyph glyph-name="Itilde" unicode="&#x128;" horiz-adv-x="399" 
d="M61 0h22l239 1350h-22zM416 1451q27 0 47 6.5t33.5 17t21 21t9.5 18.5h-23q-3 -8 -13.5 -18.5t-28 -17.5t-39.5 -7q-32 0 -50 8t-30 19t-27 19t-43 8q-23 0 -42.5 -5.5t-34 -15t-24 -20t-12.5 -21.5h23q3 9 14 19t29.5 16.5t41.5 6.5q25 0 39.5 -8t27.5 -19t31 -19t50 -8
z" />
    <glyph glyph-name="itilde" unicode="&#x129;" horiz-adv-x="311" 
d="M25 0h22l209 1184h-22zM348 1287q27 0 47 6.5t33.5 17t21 21t9.5 18.5h-23q-3 -8 -13.5 -18.5t-28 -17.5t-39.5 -7q-32 0 -50 8t-30 19t-27 19t-43 8q-23 0 -42.5 -5.5t-34 -15t-24 -20t-12.5 -21.5h23q3 9 14 19t29.5 16.5t41.5 6.5q25 0 39.5 -8t27.5 -19t31 -19t50 -8
z" />
    <glyph glyph-name="Imacron" unicode="&#x12a;" horiz-adv-x="399" 
d="M61 0h22l239 1350h-22zM104 1458h467l3 20h-466z" />
    <glyph glyph-name="imacron" unicode="&#x12b;" horiz-adv-x="311" 
d="M143 1292h240l4 20h-240zM25 0h22l209 1184h-22z" />
    <glyph glyph-name="Ibreve" unicode="&#x12c;" horiz-adv-x="399" 
d="M61 0h22l239 1350h-22zM326 1412q45 0 76 16t49.5 41t23.5 53h-25q-4 -22 -16.5 -42.5t-37.5 -33.5t-66 -13q-37 0 -57 13.5t-27 33.5t-3 42h-24q-5 -28 5.5 -53t36 -41t65.5 -16z" />
    <glyph glyph-name="ibreve" unicode="&#x12d;" horiz-adv-x="311" 
d="M25 0h22l209 1184h-22zM258 1248q45 0 76 16t49.5 41t23.5 53h-25q-4 -22 -16.5 -42.5t-37.5 -33.5t-66 -13q-37 0 -57 13.5t-27 33.5t-3 42h-24q-5 -28 5.5 -53t36 -41t65.5 -16z" />
    <glyph glyph-name="Iogonek" unicode="&#x12e;" horiz-adv-x="399" 
d="M61 0h22l239 1350h-22zM54 -248q19 0 38.5 2.5t36 7t24.5 7.5l-3 23q-9 -4 -24 -8t-32 -6.5t-34 -2.5q-31 0 -46.5 12t-15.5 35q0 24 15.5 59t36 68.5t33.5 50.5h-21q-15 -17 -36 -50t-36 -69.5t-15 -64.5q0 -23 10 -37t28 -20.5t41 -6.5z" />
    <glyph glyph-name="iogonek" unicode="&#x12f;" horiz-adv-x="311" 
d="M290 1466l-18 -103h22l18 103h-22zM25 0h22l209 1184h-22zM23 -248q19 0 39 2.5t36 7t25 7.5l-3 23q-10 -4 -25 -8t-32 -6.5t-33 -2.5q-32 0 -47.5 12t-15.5 35q0 24 15.5 59t36 68.5t34.5 50.5h-21q-16 -17 -36.5 -50t-36 -69.5t-15.5 -64.5q0 -23 10.5 -37t28 -20.5
t40.5 -6.5z" />
    <glyph glyph-name="Idotaccent" unicode="&#x130;" horiz-adv-x="399" 
d="M61 0h22l239 1350h-22zM339 1424q16 0 26.5 11.5t10.5 26.5t-11 25.5t-25 10.5q-16 0 -27 -10.5t-11 -25.5q0 -16 11 -27t26 -11z" />
    <glyph glyph-name="dotlessi" unicode="&#x131;" horiz-adv-x="311" 
d="M25 0h22l209 1184h-22z" />
    <glyph glyph-name="IJ" unicode="&#x132;" horiz-adv-x="1401" 
d="M61 0h22l239 1350h-22zM745 -12q188 0 295.5 97t145.5 312l168 953h-22l-168 -952q-36 -205 -137.5 -296.5t-281.5 -91.5t-248.5 86t-36.5 281l42 235h-22l-42 -238q-33 -204 41 -295t266 -91z" />
    <glyph glyph-name="ij" unicode="&#x133;" horiz-adv-x="725" 
d="M56 0h22l209 1186h-22zM315 1466l-19 -103h22l19 103h-22zM50 -459q151 0 244 79.5t127 272.5l228 1293h-22l-228 -1293q-32 -181 -119.5 -256t-225.5 -75zM676 1466l-18 -103h22l18 103h-22z" />
    <glyph glyph-name="Jcircumflex" unicode="&#x134;" horiz-adv-x="1002" 
d="M346 -12q188 0 295.5 97t145.5 312l168 953h-22l-168 -952q-36 -205 -137.5 -296.5t-281.5 -91.5t-248.5 86t-36.5 281l42 235h-22l-42 -238q-33 -204 41 -295t266 -91zM764 1399h33l178 115l138 -115h31l-154 137h-26z" />
    <glyph glyph-name="jcircumflex" unicode="&#x135;" horiz-adv-x="363" 
d="M-313 -459q151 0 244 79.5t127 272.5l229 1293h-22l-229 -1293q-32 -181 -119.5 -256t-225.5 -75zM100 1235h33l178 115l138 -115h31l-154 137h-26z" />
    <glyph glyph-name="uni0136" unicode="&#x136;" horiz-adv-x="908" 
d="M-18 0h22l118 668l560 -668h34l-568 675l802 675h-37l-788 -664l117 664h-22zM191 -241h22l135 153h-38z" />
    <glyph glyph-name="uni0137" unicode="&#x137;" horiz-adv-x="923" 
d="M-6 0h22l84 482l283 253l303 -735h27l-309 755l494 431h-32l-758 -665l184 1049h-22zM185 -241h22l135 153h-38z" />
    <glyph glyph-name="kgreenlandic" unicode="&#x138;" horiz-adv-x="936" 
d="M24 0h22l209 1186h-22zM142 594l26 -5l795 597h-37zM723 0h35l-588 599l-26 -4z" />
    <glyph glyph-name="Lacute" unicode="&#x139;" horiz-adv-x="863" 
d="M-18 0h672l4 22h-650l235 1328h-22zM476 1392h33l148 110h-39z" />
    <glyph glyph-name="lacute" unicode="&#x13a;" horiz-adv-x="319" 
d="M23 0h22l278 1570h-22zM244 1612h33l148 110h-39z" />
    <glyph glyph-name="uni013B" unicode="&#x13b;" horiz-adv-x="863" 
d="M-18 0h672l4 22h-650l235 1328h-22zM203 -241h22l135 153h-38z" />
    <glyph glyph-name="uni013C" unicode="&#x13c;" horiz-adv-x="319" 
d="M23 0h22l278 1570h-22zM-70 -241h22l135 153h-38z" />
    <glyph glyph-name="Lcaron" unicode="&#x13d;" horiz-adv-x="785" 
d="M745 1137h23l150 211h-26zM-18 0h672l4 22h-650l235 1328h-22z" />
    <glyph glyph-name="lcaron" unicode="&#x13e;" horiz-adv-x="319" 
d="M23 0h22l278 1570h-22zM315 1619h26l200 137h-33l-177 -115l-139 115h-31z" />
    <glyph glyph-name="Ldot" unicode="&#x13f;" horiz-adv-x="892" 
d="M-18 0h672l4 22h-650l235 1328h-22zM534 765l-18 -104h23l18 104h-23z" />
    <glyph glyph-name="ldot" unicode="&#x140;" horiz-adv-x="359" 
d="M23 0h22l278 1570h-22zM284 790l-18 -104h23l18 104h-23z" />
    <glyph glyph-name="Lslash" unicode="&#x141;" horiz-adv-x="891" 
d="M-2 429l541 466l-13 15l-541 -466zM64 0h672l4 22h-650l235 1328h-22z" />
    <glyph glyph-name="lslash" unicode="&#x142;" horiz-adv-x="321" 
d="M2 511l314 332l5 39l-313 -332zM41 0h22l278 1570h-22z" />
    <glyph glyph-name="Nacute" unicode="&#x143;" horiz-adv-x="1114" 
d="M-18 0h22l234 1327h3l571 -1327h40l238 1350h-22l-234 -1327h-4l-571 1327h-39zM563 1392h33l148 110h-39z" />
    <glyph glyph-name="nacute" unicode="&#x144;" horiz-adv-x="972" 
d="M-7 0h22l164 927l48 259h-23zM695 0h22l130 738q40 229 -25 344.5t-240 115.5q-161 0 -281.5 -97.5t-143.5 -227.5l3 -46q25 145 145.5 247t274.5 102q159 0 222 -108t24 -326zM501 1228h33l148 110h-39z" />
    <glyph glyph-name="uni0145" unicode="&#x145;" horiz-adv-x="1114" 
d="M-18 0h22l234 1327h3l571 -1327h40l238 1350h-22l-234 -1327h-4l-571 1327h-39zM290 -241h22l135 153h-38z" />
    <glyph glyph-name="uni0146" unicode="&#x146;" horiz-adv-x="972" 
d="M-7 0h22l164 927l48 259h-23zM695 0h22l130 738q40 229 -25 344.5t-240 115.5q-161 0 -281.5 -97.5t-143.5 -227.5l3 -46q25 145 145.5 247t274.5 102q159 0 222 -108t24 -326zM208 -241h22l135 153h-38z" />
    <glyph glyph-name="Ncaron" unicode="&#x147;" horiz-adv-x="1114" 
d="M-18 0h22l234 1327h3l571 -1327h40l238 1350h-22l-234 -1327h-4l-571 1327h-39zM634 1399h26l200 137h-33l-177 -115l-139 115h-31z" />
    <glyph glyph-name="ncaron" unicode="&#x148;" horiz-adv-x="972" 
d="M-7 0h22l164 927l48 259h-23zM695 0h22l130 738q40 229 -25 344.5t-240 115.5q-161 0 -281.5 -97.5t-143.5 -227.5l3 -46q25 145 145.5 247t274.5 102q159 0 222 -108t24 -326zM572 1235h26l200 137h-33l-177 -115l-139 115h-31z" />
    <glyph glyph-name="Eng" unicode="&#x14a;" horiz-adv-x="1117" 
d="M465 -430q75 0 133.5 28t102.5 74.5t75.5 103.5t50.5 115t28 109h-22q-11 -62 -36 -133t-67.5 -133.5t-106.5 -102t-154 -39.5zM-18 0h22l234 1327h3l571 -1327h40l238 1350h-22l-234 -1327h-4l-571 1327h-39z" />
    <glyph glyph-name="eng" unicode="&#x14b;" horiz-adv-x="972" 
d="M310 -400q108 0 189 33t135.5 119t82.5 248h-22q-22 -122 -71 -206t-127 -128t-185 -44zM-7 0h22l164 927l48 259h-23zM695 0h22l130 738q40 229 -25 344.5t-240 115.5q-161 0 -281.5 -97.5t-143.5 -227.5l3 -46q25 145 145.5 247t274.5 102q159 0 222 -108t24 -326z" />
    <glyph glyph-name="Omacron" unicode="&#x14c;" horiz-adv-x="1174" 
d="M459 -8q218 0 382.5 151t226.5 532q61 378 -44.5 531.5t-323.5 153.5t-382.5 -152t-226.5 -533q-61 -379 44.5 -531t323.5 -152zM463 14q-204 0 -306.5 145.5t-42.5 515.5q61 370 219.5 516.5t362.5 146.5t306.5 -146.5t42.5 -516.5q-60 -371 -219 -516t-363 -145z
M487 1458h467l3 20h-466z" />
    <glyph glyph-name="omacron" unicode="&#x14d;" horiz-adv-x="1022" 
d="M380 -8q184 0 324 135t194 466q53 331 -34.5 467t-271.5 136q-185 0 -325.5 -135.5t-193.5 -467.5q-53 -330 34.5 -465.5t272.5 -135.5zM383 14q-169 0 -253.5 129t-33.5 450q52 320 187.5 450.5t304.5 130.5t254 -129.5t33 -451.5q-52 -319 -187.5 -449t-304.5 -130z
M377 1294h467l3 20h-466z" />
    <glyph glyph-name="Obreve" unicode="&#x14e;" horiz-adv-x="1174" 
d="M459 -8q218 0 382.5 151t226.5 532q61 378 -44.5 531.5t-323.5 153.5t-382.5 -152t-226.5 -533q-61 -379 44.5 -531t323.5 -152zM463 14q-204 0 -306.5 145.5t-42.5 515.5q61 370 219.5 516.5t362.5 146.5t306.5 -146.5t42.5 -516.5q-60 -371 -219 -516t-363 -145z
M709 1412q45 0 76 16t49.5 41t23.5 53h-25q-4 -22 -16.5 -42.5t-37.5 -33.5t-66 -13q-37 0 -57 13.5t-27 33.5t-3 42h-24q-5 -28 5.5 -53t36 -41t65.5 -16z" />
    <glyph glyph-name="obreve" unicode="&#x14f;" horiz-adv-x="1022" 
d="M380 -8q184 0 324 135t194 466q53 331 -34.5 467t-271.5 136q-185 0 -325.5 -135.5t-193.5 -467.5q-53 -330 34.5 -465.5t272.5 -135.5zM383 14q-169 0 -253.5 129t-33.5 450q52 320 187.5 450.5t304.5 130.5t254 -129.5t33 -451.5q-52 -319 -187.5 -449t-304.5 -130z
M600 1248q45 0 76 16t49.5 41t23.5 53h-25q-4 -22 -16.5 -42.5t-37.5 -33.5t-66 -13q-37 0 -57 13.5t-27 33.5t-3 42h-24q-5 -28 5.5 -53t36 -41t65.5 -16z" />
    <glyph glyph-name="Ohungarumlaut" unicode="&#x150;" horiz-adv-x="1174" 
d="M459 -8q218 0 382.5 151t226.5 532q61 378 -44.5 531.5t-323.5 153.5t-382.5 -152t-226.5 -533q-61 -379 44.5 -531t323.5 -152zM463 14q-204 0 -306.5 145.5t-42.5 515.5q61 370 219.5 516.5t362.5 146.5t306.5 -146.5t42.5 -516.5q-60 -371 -219 -516t-363 -145z
M745 1427h28l129 95h-40zM542 1427h27l127 95h-39z" />
    <glyph glyph-name="ohungarumlaut" unicode="&#x151;" horiz-adv-x="1022" 
d="M380 -8q184 0 324 135t194 466q53 331 -34.5 467t-271.5 136q-185 0 -325.5 -135.5t-193.5 -467.5q-53 -330 34.5 -465.5t272.5 -135.5zM383 14q-169 0 -253.5 129t-33.5 450q52 320 187.5 450.5t304.5 130.5t254 -129.5t33 -451.5q-52 -319 -187.5 -449t-304.5 -130z
M635 1263h28l129 95h-40zM432 1263h27l127 95h-39z" />
    <glyph glyph-name="OE" unicode="&#x152;" horiz-adv-x="1934" 
d="M459 -8q218 0 382.5 151t226.5 532q61 378 -44.5 531.5t-323.5 153.5t-382.5 -152t-226.5 -533q-61 -379 44.5 -531t323.5 -152zM463 14q-204 0 -306.5 145.5t-42.5 515.5q61 370 219.5 516.5t362.5 146.5t306.5 -146.5t42.5 -516.5q-60 -371 -219 -516t-363 -145zM928 0
h768l4 22h-746l117 666h712l4 22h-712l109 618h746l4 22h-768z" />
    <glyph glyph-name="oe" unicode="&#x153;" horiz-adv-x="1804" 
d="M380 -8q184 0 324 135t194 466q53 331 -34.5 467t-271.5 136q-185 0 -325.5 -135.5t-193.5 -467.5q-53 -330 34.5 -465.5t272.5 -135.5zM383 14q-169 0 -253.5 129t-33.5 450q52 320 187.5 450.5t304.5 130.5t254 -129.5t33 -451.5q-52 -319 -187.5 -449t-304.5 -130z
M1171 -8l4 22q-183 0 -252 152q-70 151 -25 432q50 310 181 443q130 132 302 132q177 0 254 -131q74 -129 22 -433h-767l-4 -23h791q2 10 3 17q56 319 -23 456q-80 136 -272 136q-186 0 -322 -139t-188 -458q-46 -291 27 -449q73 -157 269 -157zM1175 14l-4 -22
q114 0 212 45q97 45 162 149q63 103 96 232h-23q-31 -119 -92 -220q-62 -101 -154 -143q-94 -41 -197 -41z" />
    <glyph glyph-name="Racute" unicode="&#x154;" horiz-adv-x="986" 
d="M-18 0h22l112 640h483q159 0 235.5 102.5t102.5 252.5q27 150 -14.5 252.5t-200.5 102.5h-502zM734 0h23l-128 659l-25 -11zM120 662l118 666h481q147 0 184 -93.5t11 -239.5q-25 -145 -97 -239t-216 -94h-481zM478 1392h33l148 110h-39z" />
    <glyph glyph-name="racute" unicode="&#x155;" horiz-adv-x="913" 
d="M753 675h23q49 277 -2.5 398.5t-210.5 121.5q-167 0 -276 -97t-132 -229l8 -30q23 128 130 231t268 103q143 0 191.5 -114t0.5 -384zM-7 0h22l163 923l46 261h-22zM464 1228h33l148 110h-39z" />
    <glyph glyph-name="uni0156" unicode="&#x156;" horiz-adv-x="986" 
d="M-18 0h22l112 640h483q159 0 235.5 102.5t102.5 252.5q27 150 -14.5 252.5t-200.5 102.5h-502zM734 0h23l-128 659l-25 -11zM120 662l118 666h481q147 0 184 -93.5t11 -239.5q-25 -145 -97 -239t-216 -94h-481zM205 -241h22l135 153h-38z" />
    <glyph glyph-name="uni0157" unicode="&#x157;" horiz-adv-x="913" 
d="M753 675h23q49 277 -2.5 398.5t-210.5 121.5q-167 0 -276 -97t-132 -229l8 -30q23 128 130 231t268 103q143 0 191.5 -114t0.5 -384zM-7 0h22l163 923l46 261h-22zM134 -241h22l135 153h-38z" />
    <glyph glyph-name="Rcaron" unicode="&#x158;" horiz-adv-x="986" 
d="M-18 0h22l112 640h483q159 0 235.5 102.5t102.5 252.5q27 150 -14.5 252.5t-200.5 102.5h-502zM734 0h23l-128 659l-25 -11zM120 662l118 666h481q147 0 184 -93.5t11 -239.5q-25 -145 -97 -239t-216 -94h-481zM549 1399h26l200 137h-33l-177 -115l-139 115h-31z" />
    <glyph glyph-name="rcaron" unicode="&#x159;" horiz-adv-x="913" 
d="M753 675h23q49 277 -2.5 398.5t-210.5 121.5q-167 0 -276 -97t-132 -229l8 -30q23 128 130 231t268 103q143 0 191.5 -114t0.5 -384zM-7 0h22l163 923l46 261h-22zM535 1235h26l200 137h-33l-177 -115l-139 115h-31z" />
    <glyph glyph-name="Sacute" unicode="&#x15a;" horiz-adv-x="1034" 
d="M506 1452h33l148 110h-39zM380 -9q219 0 339 92.5t138 232.5q25 175 -65.5 242.5t-284.5 134.5q-183 58 -270.5 130.5t-67.5 221.5q16 123 132 208t316 85q204 0 280.5 -98.5t29.5 -394.5h23q48 299 -29 407t-302 108q-213 0 -334 -91t-139 -224q-23 -162 66 -235
t279 -137q186 -61 276.5 -129.5t66.5 -227.5q-19 -132 -133.5 -217.5t-319.5 -85.5q-206 0 -280 99.5t-24 406.5h-23q-52 -314 25 -421t301 -107z" />
    <glyph glyph-name="sacute" unicode="&#x15b;" horiz-adv-x="966" 
d="M358 -8q190 0 294.5 74.5t117.5 194.5q22 163 -54 228t-254 121q-164 41 -241.5 101.5t-57.5 201.5q15 117 112 188.5t267 71.5q173 0 246.5 -87.5t50.5 -273.5h24q26 203 -52 293t-265 90q-182 0 -286.5 -76t-119.5 -203q-21 -155 55 -218t239 -110q175 -53 254.5 -112
t58.5 -212q-13 -108 -109.5 -179t-276.5 -71q-169 0 -245 84t-53 299h-24q-26 -232 53.5 -318.5t265.5 -86.5zM483 1228h33l148 110h-39z" />
    <glyph glyph-name="Scircumflex" unicode="&#x15c;" horiz-adv-x="1034" 
d="M380 -9q219 0 339 92.5t138 232.5q25 175 -65.5 242.5t-284.5 134.5q-183 58 -270.5 130.5t-67.5 221.5q16 123 132 208t316 85q204 0 280.5 -98.5t29.5 -394.5h23q48 299 -29 407t-302 108q-213 0 -334 -91t-139 -224q-23 -162 66 -235t279 -137q186 -61 276.5 -129.5
t66.5 -227.5q-19 -132 -133.5 -217.5t-319.5 -85.5q-206 0 -280 99.5t-24 406.5h-23q-52 -314 25 -421t301 -107zM441 1395h33l178 115l138 -115h31l-154 137h-26z" />
    <glyph glyph-name="scircumflex" unicode="&#x15d;" horiz-adv-x="966" 
d="M358 -8q190 0 294.5 74.5t117.5 194.5q22 163 -54 228t-254 121q-164 41 -241.5 101.5t-57.5 201.5q15 117 112 188.5t267 71.5q173 0 246.5 -87.5t50.5 -273.5h24q26 203 -52 293t-265 90q-182 0 -286.5 -76t-119.5 -203q-21 -155 55 -218t239 -110q175 -53 254.5 -112
t58.5 -212q-13 -108 -109.5 -179t-276.5 -71q-169 0 -245 84t-53 299h-24q-26 -232 53.5 -318.5t265.5 -86.5zM377 1235h33l178 115l138 -115h31l-154 137h-26z" />
    <glyph glyph-name="Scedilla" unicode="&#x15e;" horiz-adv-x="1034" 
d="M334 -222q27 0 52 5t45 15.5t33 27.5t16 40q6 36 -16 50.5t-55 14.5q-28 0 -60 -8t-47 -17l-2 -19q27 11 54.5 17.5t49.5 6.5q26 0 42 -11.5t11 -35.5q-6 -30 -37 -47t-82 -17q-27 0 -49 3t-39 7l-13 -21q18 -4 42.5 -7.5t54.5 -3.5zM300 -113l54 110h-25l-47 -100z
M380 -9q219 0 339 92.5t138 232.5q25 175 -65.5 242.5t-284.5 134.5q-183 58 -270.5 130.5t-67.5 221.5q16 123 132 208t316 85q204 0 280.5 -98.5t29.5 -394.5h23q48 299 -29 407t-302 108q-213 0 -334 -91t-139 -224q-23 -162 66 -235t279 -137q186 -61 276.5 -129.5
t66.5 -227.5q-19 -132 -133.5 -217.5t-319.5 -85.5q-206 0 -280 99.5t-24 406.5h-23q-52 -314 25 -421t301 -107z" />
    <glyph glyph-name="scedilla" unicode="&#x15f;" horiz-adv-x="966" 
d="M358 -8q190 0 294.5 74.5t117.5 194.5q22 163 -54 228t-254 121q-164 41 -241.5 101.5t-57.5 201.5q15 117 112 188.5t267 71.5q173 0 246.5 -87.5t50.5 -273.5h24q26 203 -52 293t-265 90q-182 0 -286.5 -76t-119.5 -203q-21 -155 55 -218t239 -110q175 -53 254.5 -112
t58.5 -212q-13 -108 -109.5 -179t-276.5 -71q-169 0 -245 84t-53 299h-24q-26 -232 53.5 -318.5t265.5 -86.5zM340 -219q27 0 52 5t45 15.5t33 27.5t16 40q6 36 -16 50.5t-55 14.5q-28 0 -60 -8t-47 -17l-2 -19q27 11 54.5 17.5t49.5 6.5q26 0 42 -11.5t11 -35.5
q-6 -30 -37 -47t-82 -17q-27 0 -49 3t-39 7l-13 -21q18 -4 42.5 -7.5t54.5 -3.5zM306 -110l54 110h-25l-47 -100z" />
    <glyph glyph-name="Scaron" unicode="&#x160;" horiz-adv-x="1034" 
d="M559 1439h26l200 137h-33l-177 -115l-139 115h-31zM380 -9q219 0 339 92.5t138 232.5q25 175 -65.5 242.5t-284.5 134.5q-183 58 -270.5 130.5t-67.5 221.5q16 123 132 208t316 85q204 0 280.5 -98.5t29.5 -394.5h23q48 299 -29 407t-302 108q-213 0 -334 -91t-139 -224
q-23 -162 66 -235t279 -137q186 -61 276.5 -129.5t66.5 -227.5q-19 -132 -133.5 -217.5t-319.5 -85.5q-206 0 -280 99.5t-24 406.5h-23q-52 -314 25 -421t301 -107z" />
    <glyph glyph-name="scaron" unicode="&#x161;" horiz-adv-x="966" 
d="M358 -8q190 0 294.5 74.5t117.5 194.5q22 163 -54 228t-254 121q-164 41 -241.5 101.5t-57.5 201.5q15 117 112 188.5t267 71.5q173 0 246.5 -87.5t50.5 -273.5h24q26 203 -52 293t-265 90q-182 0 -286.5 -76t-119.5 -203q-21 -155 55 -218t239 -110q175 -53 254.5 -112
t58.5 -212q-13 -108 -109.5 -179t-276.5 -71q-169 0 -245 84t-53 299h-24q-26 -232 53.5 -318.5t265.5 -86.5zM554 1235h26l200 137h-33l-177 -115l-139 115h-31z" />
    <glyph glyph-name="uni0162" unicode="&#x162;" horiz-adv-x="1025" 
d="M364 0h22l234 1328h428l4 22h-881l-3 -22h430zM367 -219q27 0 52 5t45 15.5t33 27.5t16 40q6 36 -16 50.5t-55 14.5q-28 0 -60 -8t-47 -17l-2 -19q27 11 54.5 17.5t49.5 6.5q26 0 42 -11.5t11 -35.5q-6 -30 -37 -47t-82 -17q-27 0 -49 3t-39 7l-13 -21q18 -4 42.5 -7.5
t54.5 -3.5zM333 -110l54 110h-25l-47 -100z" />
    <glyph glyph-name="uni0163" unicode="&#x163;" horiz-adv-x="870" 
d="M416 -10q75 0 145 20l4 22q-73 -20 -145 -20q-93 0 -134 42.5t-19 169.5l166 938h427l4 22h-427l46 265h-22l-46 -265h-288l-4 -22h288l-168 -950q-23 -133 27.5 -177.5t145.5 -44.5zM380 -219q27 0 52 5t45 15.5t33 27.5t16 40q6 36 -16 50.5t-55 14.5q-28 0 -60 -8
t-47 -17l-2 -19q27 11 54.5 17.5t49.5 6.5q26 0 42 -11.5t11 -35.5q-6 -30 -37 -47t-82 -17q-27 0 -49 3t-39 7l-13 -21q18 -4 42.5 -7.5t54.5 -3.5zM346 -110l54 110h-25l-47 -100z" />
    <glyph glyph-name="Tcaron" unicode="&#x164;" horiz-adv-x="1025" 
d="M364 0h22l234 1328h428l4 22h-881l-3 -22h430zM610 1399h26l200 137h-33l-177 -115l-139 115h-31z" />
    <glyph glyph-name="tcaron" unicode="&#x165;" horiz-adv-x="835" 
d="M895 1262h18l57 176h-23zM416 -10q75 0 145 20l4 22q-73 -20 -145 -20q-93 0 -134 42.5t-19 169.5l166 938h427l4 22h-427l46 265h-22l-46 -265h-288l-4 -22h288l-168 -950q-23 -133 27.5 -177.5t145.5 -44.5z" />
    <glyph glyph-name="Tbar" unicode="&#x166;" horiz-adv-x="1027" 
d="M200 897h666l4 22h-666zM364 0h22l234 1328h428l4 22h-881l-3 -22h430z" />
    <glyph glyph-name="tbar" unicode="&#x167;" horiz-adv-x="862" 
d="M70 684h535l4 22h-535zM416 -10q75 0 145 20l4 22q-73 -20 -145 -20q-93 0 -134 42.5t-19 169.5l166 938h427l4 22h-427l46 265h-22l-46 -265h-288l-4 -22h288l-168 -950q-23 -133 27.5 -177.5t145.5 -44.5z" />
    <glyph glyph-name="Utilde" unicode="&#x168;" horiz-adv-x="1130" 
d="M424 -9q201 0 329.5 90t166.5 303l169 965h-22l-168 -955q-37 -209 -156.5 -295t-314.5 -86q-194 0 -283.5 86t-52.5 295l169 955h-22l-170 -965q-38 -213 58.5 -303t296.5 -90zM783 1451q27 0 47 6.5t33.5 17t21 21t9.5 18.5h-23q-3 -8 -13.5 -18.5t-28 -17.5t-39.5 -7
q-32 0 -50 8t-30 19t-27 19t-43 8q-23 0 -42.5 -5.5t-34 -15t-24 -20t-12.5 -21.5h23q3 9 14 19t29.5 16.5t41.5 6.5q25 0 39.5 -8t27.5 -19t31 -19t50 -8z" />
    <glyph glyph-name="utilde" unicode="&#x169;" horiz-adv-x="982" 
d="M714 0h22l208 1184h-22l-168 -952zM242 1186h-22l-130 -738q-40 -228 22.5 -344t237.5 -116q161 0 283.5 98t145.5 227l-2 47q-25 -145 -148 -247.5t-277 -102.5q-159 0 -219.5 108t-21.5 326zM681 1287q27 0 47 6.5t33.5 17t21 21t9.5 18.5h-23q-3 -8 -13.5 -18.5
t-28 -17.5t-39.5 -7q-32 0 -50 8t-30 19t-27 19t-43 8q-23 0 -42.5 -5.5t-34 -15t-24 -20t-12.5 -21.5h23q3 9 14 19t29.5 16.5t41.5 6.5q25 0 39.5 -8t27.5 -19t31 -19t50 -8z" />
    <glyph glyph-name="Umacron" unicode="&#x16a;" horiz-adv-x="1130" 
d="M424 -9q201 0 329.5 90t166.5 303l169 965h-22l-168 -955q-37 -209 -156.5 -295t-314.5 -86q-194 0 -283.5 86t-52.5 295l169 955h-22l-170 -965q-38 -213 58.5 -303t296.5 -90zM471 1458h467l3 20h-466z" />
    <glyph glyph-name="umacron" unicode="&#x16b;" horiz-adv-x="982" 
d="M714 0h22l208 1184h-22l-168 -952zM242 1186h-22l-130 -738q-40 -228 22.5 -344t237.5 -116q161 0 283.5 98t145.5 227l-2 47q-25 -145 -148 -247.5t-277 -102.5q-159 0 -219.5 108t-21.5 326zM368 1294h467l3 20h-466z" />
    <glyph glyph-name="Ubreve" unicode="&#x16c;" horiz-adv-x="1130" 
d="M424 -9q201 0 329.5 90t166.5 303l169 965h-22l-168 -955q-37 -209 -156.5 -295t-314.5 -86q-194 0 -283.5 86t-52.5 295l169 955h-22l-170 -965q-38 -213 58.5 -303t296.5 -90zM693 1412q45 0 76 16t49.5 41t23.5 53h-25q-4 -22 -16.5 -42.5t-37.5 -33.5t-66 -13
q-37 0 -57 13.5t-27 33.5t-3 42h-24q-5 -28 5.5 -53t36 -41t65.5 -16z" />
    <glyph glyph-name="ubreve" unicode="&#x16d;" horiz-adv-x="982" 
d="M714 0h22l208 1184h-22l-168 -952zM242 1186h-22l-130 -738q-40 -228 22.5 -344t237.5 -116q161 0 283.5 98t145.5 227l-2 47q-25 -145 -148 -247.5t-277 -102.5q-159 0 -219.5 108t-21.5 326zM591 1248q45 0 76 16t49.5 41t23.5 53h-25q-4 -22 -16.5 -42.5t-37.5 -33.5
t-66 -13q-37 0 -57 13.5t-27 33.5t-3 42h-24q-5 -28 5.5 -53t36 -41t65.5 -16z" />
    <glyph glyph-name="Uring" unicode="&#x16e;" horiz-adv-x="1130" 
d="M424 -9q201 0 329.5 90t166.5 303l169 965h-22l-168 -955q-37 -209 -156.5 -295t-314.5 -86q-194 0 -283.5 86t-52.5 295l169 955h-22l-170 -965q-38 -213 58.5 -303t296.5 -90zM694 1382q18 0 33 9t24 23.5t10 31.5q3 25 -13.5 43.5t-43.5 18.5q-18 0 -32.5 -8.5
t-23.5 -22.5t-11 -31q-2 -27 14.5 -45.5t42.5 -18.5zM695 1404q-16 0 -26.5 12t-9.5 30q2 18 15 29t29 11q17 0 27.5 -11t8.5 -29q-1 -18 -14 -30t-30 -12z" />
    <glyph glyph-name="uring" unicode="&#x16f;" horiz-adv-x="982" 
d="M714 0h22l208 1184h-22l-168 -952zM242 1186h-22l-130 -738q-40 -228 22.5 -344t237.5 -116q161 0 283.5 98t145.5 227l-2 47q-25 -145 -148 -247.5t-277 -102.5q-159 0 -219.5 108t-21.5 326zM592 1218q18 0 33 9t24 23.5t10 31.5q3 25 -13.5 43.5t-43.5 18.5
q-18 0 -32.5 -8.5t-23.5 -22.5t-11 -31q-2 -27 14.5 -45.5t42.5 -18.5zM593 1240q-16 0 -26.5 12t-9.5 30q2 18 15 29t29 11q17 0 27.5 -11t8.5 -29q-1 -18 -14 -30t-30 -12z" />
    <glyph glyph-name="Uhungarumlaut" unicode="&#x170;" horiz-adv-x="1130" 
d="M424 -9q201 0 329.5 90t166.5 303l169 965h-22l-168 -955q-37 -209 -156.5 -295t-314.5 -86q-194 0 -283.5 86t-52.5 295l169 955h-22l-170 -965q-38 -213 58.5 -303t296.5 -90zM729 1427h28l129 95h-40zM526 1427h27l127 95h-39z" />
    <glyph glyph-name="uhungarumlaut" unicode="&#x171;" horiz-adv-x="982" 
d="M714 0h22l208 1184h-22l-168 -952zM242 1186h-22l-130 -738q-40 -228 22.5 -344t237.5 -116q161 0 283.5 98t145.5 227l-2 47q-25 -145 -148 -247.5t-277 -102.5q-159 0 -219.5 108t-21.5 326zM626 1263h28l129 95h-40zM423 1263h27l127 95h-39z" />
    <glyph glyph-name="Uogonek" unicode="&#x172;" horiz-adv-x="1130" 
d="M424 -9q201 0 329.5 90t166.5 303l169 965h-22l-168 -955q-37 -209 -156.5 -295t-314.5 -86q-194 0 -283.5 86t-52.5 295l169 955h-22l-170 -965q-38 -213 58.5 -303t296.5 -90zM399 -248q19 0 38.5 2.5t36 7t24.5 7.5l-3 23q-9 -4 -24 -8t-32 -6.5t-34 -2.5
q-31 0 -46.5 12t-15.5 35q0 24 15.5 59t36 68.5t33.5 50.5h-21q-15 -17 -36 -50t-36 -69.5t-15 -64.5q0 -23 10 -37t28 -20.5t41 -6.5z" />
    <glyph glyph-name="uogonek" unicode="&#x173;" horiz-adv-x="982" 
d="M714 0h22l208 1184h-22l-168 -952zM242 1186h-22l-130 -738q-40 -228 22.5 -344t237.5 -116q161 0 283.5 98t145.5 227l-2 47q-25 -145 -148 -247.5t-277 -102.5q-159 0 -219.5 108t-21.5 326zM707 -248q19 0 38.5 2.5t36 7t24.5 7.5l-3 23q-9 -4 -24 -8t-32 -6.5
t-34 -2.5q-31 0 -46.5 12t-15.5 35q0 24 15.5 59t36 68.5t33.5 50.5h-21q-15 -17 -36 -50t-36 -69.5t-15 -64.5q0 -23 10 -37t28 -20.5t41 -6.5z" />
    <glyph glyph-name="Wcircumflex" unicode="&#x174;" horiz-adv-x="1538" 
d="M260 0h37l584 1328h3l113 -1328h38l527 1350h-25l-516 -1327h-3l-113 1327h-40l-581 -1327h-3l-47 1327h-24zM709 1399h33l178 115l138 -115h31l-154 137h-26z" />
    <glyph glyph-name="wcircumflex" unicode="&#x175;" horiz-adv-x="1302" 
d="M212 0h41l483 1163l81 -1163h41l442 1184h-26l-433 -1162h-2l-83 1162h-34l-486 -1162h-2l-29 1162h-23zM559 1235h33l178 115l138 -115h31l-154 137h-26z" />
    <glyph glyph-name="Ycircumflex" unicode="&#x176;" horiz-adv-x="1061" 
d="M382 0h22l101 571l573 779h-28l-551 -742h-1l-289 742h-26l299 -780zM465 1399h33l178 115l138 -115h31l-154 137h-26z" />
    <glyph glyph-name="ycircumflex" unicode="&#x177;" horiz-adv-x="820" 
d="M288 0h34l566 1184h-25l-553 -1156h-1l-149 1156h-24zM-156 -456q128 0 240.5 94.5t237.5 361.5l-23 1q-121 -254 -226 -344.5t-225 -90.5zM324 1235h33l178 115l138 -115h31l-154 137h-26z" />
    <glyph glyph-name="Ydieresis" unicode="&#x178;" horiz-adv-x="1061" 
d="M382 0h22l101 571l573 779h-28l-551 -742h-1l-289 742h-26l299 -780zM564 1427q17 0 31 12.5t14 31.5q0 15 -9.5 24t-23.5 9q-17 0 -31 -12.5t-14 -31.5q0 -15 9 -24t24 -9zM757 1427q18 0 31.5 12.5t13.5 31.5q0 15 -9 24t-24 9q-17 0 -31 -12.5t-14 -31.5
q0 -15 9.5 -24t23.5 -9z" />
    <glyph glyph-name="Zacute" unicode="&#x179;" horiz-adv-x="991" 
d="M-25 0h799l4 23h-771l956 1304l5 23h-747l-4 -23h719l-956 -1301zM507 1392h33l148 110h-39z" />
    <glyph glyph-name="zacute" unicode="&#x17a;" horiz-adv-x="835" 
d="M-36 0h659l4 22h-634l1 5l822 1127l5 30h-634l-4 -22h611l-1 -2l-824 -1132zM424 1228h33l148 110h-39z" />
    <glyph glyph-name="Zdotaccent" unicode="&#x17b;" horiz-adv-x="991" 
d="M-25 0h799l4 23h-771l956 1304l5 23h-747l-4 -23h719l-956 -1301zM603 1424q16 0 26.5 11.5t10.5 26.5t-11 25.5t-25 10.5q-16 0 -27 -10.5t-11 -25.5q0 -16 11 -27t26 -11z" />
    <glyph glyph-name="zdotaccent" unicode="&#x17c;" horiz-adv-x="835" 
d="M-36 0h659l4 22h-634l1 5l822 1127l5 30h-634l-4 -22h611l-1 -2l-824 -1132zM520 1260q16 0 26.5 11.5t10.5 26.5t-11 25.5t-25 10.5q-16 0 -27 -10.5t-11 -25.5q0 -16 11 -27t26 -11z" />
    <glyph glyph-name="Zcaron" unicode="&#x17d;" horiz-adv-x="991" 
d="M-25 0h799l4 23h-771l956 1304l5 23h-747l-4 -23h719l-956 -1301zM578 1399h26l200 137h-33l-177 -115l-139 115h-31z" />
    <glyph glyph-name="zcaron" unicode="&#x17e;" horiz-adv-x="835" 
d="M-36 0h659l4 22h-634l1 5l822 1127l5 30h-634l-4 -22h611l-1 -2l-824 -1132zM495 1235h26l200 137h-33l-177 -115l-139 115h-31z" />
    <glyph glyph-name="uni018F" unicode="&#x18f;" horiz-adv-x="1001" 
d="M371 -9v0q186 0 323 156q136 157 201 526q60 341 -14 513q-75 173 -272 173l-1 -22q184 0 254 -167q68 -167 10 -498q-64 -359 -195 -509t-304 -150q-176 0 -249 149q-72 146 -11 499h767l4 23h-791q-2 -9 -3 -17q-65 -369 12 -522q77 -154 269 -154zM166 933v0
q17 97 58.5 172.5t101 127t131.5 78t151 26.5l5 12l-4 10q-69 0 -132 -17.5t-117 -52t-98 -86t-74.5 -119.5t-44.5 -151h23z" />
    <glyph glyph-name="florin" unicode="&#x192;" horiz-adv-x="849" 
d="M-387 -404h11q113 0 196.5 30.5t139 92t84.5 152.5l392 1291h443l8 22h-443l41 136q37 108 154.5 171t321.5 63h49l7 22h-46q-140 0 -242.5 -27.5t-168.5 -84t-96 -142.5l-42 -138h-242l-7 -22h241l-392 -1289q-38 -122 -132.5 -188.5t-256.5 -66.5h-13z" />
    <glyph glyph-name="Ohorn" unicode="&#x1a0;" horiz-adv-x="1174" 
d="M459 -8q218 0 382.5 151t226.5 532q61 378 -44.5 531.5t-323.5 153.5t-382.5 -152t-226.5 -533q-61 -379 44.5 -531t323.5 -152zM463 14q-204 0 -306.5 145.5t-42.5 515.5q61 370 219.5 516.5t362.5 146.5t306.5 -146.5t42.5 -516.5q-60 -371 -219 -516t-363 -145z
M998 1220l-3 -19q85 0 136 14.5t77 46.5t35 85h-24q-8 -47 -30 -74.5t-67 -40t-124 -12.5z" />
    <glyph glyph-name="ohorn" unicode="&#x1a1;" horiz-adv-x="1022" 
d="M380 -8q184 0 324 135t194 466q53 331 -34.5 467t-271.5 136q-185 0 -325.5 -135.5t-193.5 -467.5q-53 -330 34.5 -465.5t272.5 -135.5zM383 14q-169 0 -253.5 129t-33.5 450q52 320 187.5 450.5t304.5 130.5t254 -129.5t33 -451.5q-52 -319 -187.5 -449t-304.5 -130z
M845 1078l-3 -19q85 0 136 14.5t77 46.5t35 85h-24q-8 -47 -30 -74.5t-67 -40t-124 -12.5z" />
    <glyph glyph-name="Uhorn" unicode="&#x1af;" horiz-adv-x="1130" 
d="M424 -9q201 0 329.5 90t166.5 303l169 965h-22l-168 -955q-37 -209 -156.5 -295t-314.5 -86q-194 0 -283.5 86t-52.5 295l169 955h-22l-170 -965q-38 -213 58.5 -303t296.5 -90zM1070 1247l-3 -19q85 0 136 14.5t77 46.5t35 85h-24q-8 -47 -30 -74.5t-67 -40t-124 -12.5z
" />
    <glyph glyph-name="uhorn" unicode="&#x1b0;" horiz-adv-x="982" 
d="M714 0h22l208 1184h-22l-168 -952zM242 1186h-22l-130 -738q-40 -228 22.5 -344t237.5 -116q161 0 283.5 98t145.5 227l-2 47q-25 -145 -148 -247.5t-277 -102.5q-159 0 -219.5 108t-21.5 326zM942 1186l-3 -19q85 0 136 14.5t77 46.5t35 85h-24q-8 -47 -30 -74.5
t-67 -40t-124 -12.5z" />
    <glyph glyph-name="uni01C4" unicode="&#x1c4;" horiz-adv-x="2035" 
d="M-18 0h398q221 0 358 137t201 538q62 390 -19 532.5t-302 142.5h-398zM8 22l230 1306h372q209 0 288.5 -135.5t17.5 -517.5q-64 -392 -195.5 -522.5t-340.5 -130.5h-372zM1020 0h799l4 23h-771l956 1304l5 23h-747l-4 -23h719l-956 -1301zM1622 1399h26l200 137h-33
l-177 -115l-139 115h-31z" />
    <glyph glyph-name="uni01C5" unicode="&#x1c5;" horiz-adv-x="1880" 
d="M-18 0h398q221 0 358 137t201 538q62 390 -19 532.5t-302 142.5h-398zM8 22l230 1306h372q209 0 288.5 -135.5t17.5 -517.5q-64 -392 -195.5 -522.5t-340.5 -130.5h-372zM1009 0h659l4 22h-634l1 5l822 1127l5 30h-634l-4 -22h611l-1 -2l-824 -1132zM1539 1235h26
l200 137h-33l-177 -115l-139 115h-31z" />
    <glyph glyph-name="uni01C6" unicode="&#x1c6;" horiz-adv-x="1820" 
d="M733 0h21l276 1570h-22l-241 -1370zM357 -8q170 0 292.5 96.5t138.5 182.5l2 55q-20 -110 -146 -211t-284 -101q-151 0 -224 122t-42 407q32 350 159.5 491t311.5 141q158 0 248.5 -100.5t71.5 -210.5l14 54q16 86 -75.5 182.5t-259.5 96.5q-200 0 -330.5 -147.5
t-162.5 -506.5q-32 -294 44 -422.5t242 -128.5zM949 0h659l4 22h-634l1 5l822 1127l5 30h-634l-4 -22h611l-1 -2l-824 -1132zM1479 1235h26l200 137h-33l-177 -115l-139 115h-31z" />
    <glyph glyph-name="uni01C7" unicode="&#x1c7;" horiz-adv-x="1864" 
d="M-18 0h672l4 22h-650l235 1328h-22zM1209 -12q188 0 295.5 97t145.5 312l168 953h-22l-168 -952q-36 -205 -137.5 -296.5t-281.5 -91.5t-248.5 86t-36.5 281l42 235h-22l-42 -238q-33 -204 41 -295t266 -91z" />
    <glyph glyph-name="uni01C8" unicode="&#x1c8;" horiz-adv-x="1225" 
d="M-18 0h672l4 22h-650l235 1328h-22zM550 -459q151 0 244 79.5t127 272.5l228 1293h-22l-228 -1293q-32 -181 -119.5 -256t-225.5 -75zM1176 1466l-18 -103h22l18 103h-22z" />
    <glyph glyph-name="uni01C9" unicode="&#x1c9;" horiz-adv-x="681" 
d="M23 0h22l278 1570h-22zM6 -459q151 0 244 79.5t127 272.5l228 1293h-22l-228 -1293q-32 -181 -119.5 -256t-225.5 -75zM632 1466l-18 -103h22l18 103h-22z" />
    <glyph glyph-name="uni01CA" unicode="&#x1ca;" horiz-adv-x="2116" 
d="M-18 0h22l234 1327h3l571 -1327h40l238 1350h-22l-234 -1327h-4l-571 1327h-39zM1460 -12q188 0 295.5 97t145.5 312l168 953h-22l-168 -952q-36 -205 -137.5 -296.5t-281.5 -91.5t-248.5 86t-36.5 281l42 235h-22l-42 -238q-33 -204 41 -295t266 -91z" />
    <glyph glyph-name="uni01CB" unicode="&#x1cb;" horiz-adv-x="1476" 
d="M-18 0h22l234 1327h3l571 -1327h40l238 1350h-22l-234 -1327h-4l-571 1327h-39zM801 -459q151 0 244 79.5t127 272.5l228 1293h-22l-228 -1293q-32 -181 -119.5 -256t-225.5 -75zM1427 1466l-18 -103h22l18 103h-22z" />
    <glyph glyph-name="uni01CC" unicode="&#x1cc;" horiz-adv-x="1334" 
d="M-7 0h22l164 927l48 259h-23zM695 0h22l130 738q40 229 -25 344.5t-240 115.5q-161 0 -281.5 -97.5t-143.5 -227.5l3 -46q25 145 145.5 247t274.5 102q159 0 222 -108t24 -326zM659 -459q151 0 244 79.5t127 272.5l228 1293h-22l-228 -1293q-32 -181 -119.5 -256
t-225.5 -75zM1285 1466l-18 -103h22l18 103h-22z" />
    <glyph glyph-name="uni01CD" unicode="&#x1cd;" horiz-adv-x="1146" 
d="M-38 0h25l232 437h642l77 -437h25l-241 1354h-41zM231 459l467 876h2l157 -876h-626zM697 1399h26l200 137h-33l-177 -115l-139 115h-31z" />
    <glyph glyph-name="uni01CE" unicode="&#x1ce;" horiz-adv-x="986" 
d="M319 -8q99 0 174 18.5t128.5 47t85.5 58.5t44 54l-30 -170h21l136 774q27 150 -2.5 242.5t-106.5 135.5t-195 43q-81 0 -150 -22t-125.5 -69t-99 -122t-70.5 -182h23q36 132 95.5 214t141 120.5t182.5 38.5q110 0 182.5 -42t100.5 -130.5t2 -228.5l-17 -96h-405
q-53 0 -106.5 -8.5t-102 -31t-88 -62t-65.5 -101t-34 -149.5q-13 -137 20 -208.5t101.5 -97.5t159.5 -26zM324 14q-83 0 -147 25t-96 92.5t-20 194.5q9 102 45 166.5t90 99.5t115.5 48.5t121.5 13.5h403l-78 -440q-24 -45 -80.5 -91.5t-144.5 -77.5t-209 -31zM579 1235h26
l200 137h-33l-177 -115l-139 115h-31z" />
    <glyph glyph-name="uni01CF" unicode="&#x1cf;" horiz-adv-x="399" 
d="M61 0h22l239 1350h-22zM314 1399h26l200 137h-33l-177 -115l-139 115h-31z" />
    <glyph glyph-name="uni01D0" unicode="&#x1d0;" horiz-adv-x="311" 
d="M25 0h22l209 1184h-22zM245 1235h26l200 137h-33l-177 -115l-139 115h-31z" />
    <glyph glyph-name="uni01D1" unicode="&#x1d1;" horiz-adv-x="1174" 
d="M459 -8q218 0 382.5 151t226.5 532q61 378 -44.5 531.5t-323.5 153.5t-382.5 -152t-226.5 -533q-61 -379 44.5 -531t323.5 -152zM463 14q-204 0 -306.5 145.5t-42.5 515.5q61 370 219.5 516.5t362.5 146.5t306.5 -146.5t42.5 -516.5q-60 -371 -219 -516t-363 -145z
M697 1399h26l200 137h-33l-177 -115l-139 115h-31z" />
    <glyph glyph-name="uni01D2" unicode="&#x1d2;" horiz-adv-x="1022" 
d="M380 -8q184 0 324 135t194 466q53 331 -34.5 467t-271.5 136q-185 0 -325.5 -135.5t-193.5 -467.5q-53 -330 34.5 -465.5t272.5 -135.5zM383 14q-169 0 -253.5 129t-33.5 450q52 320 187.5 450.5t304.5 130.5t254 -129.5t33 -451.5q-52 -319 -187.5 -449t-304.5 -130z
M587 1235h26l200 137h-33l-177 -115l-139 115h-31z" />
    <glyph glyph-name="uni01D3" unicode="&#x1d3;" horiz-adv-x="1130" 
d="M424 -9q201 0 329.5 90t166.5 303l169 965h-22l-168 -955q-37 -209 -156.5 -295t-314.5 -86q-194 0 -283.5 86t-52.5 295l169 955h-22l-170 -965q-38 -213 58.5 -303t296.5 -90zM681 1399h26l200 137h-33l-177 -115l-139 115h-31z" />
    <glyph glyph-name="uni01D4" unicode="&#x1d4;" horiz-adv-x="982" 
d="M714 0h22l208 1184h-22l-168 -952zM242 1186h-22l-130 -738q-40 -228 22.5 -344t237.5 -116q161 0 283.5 98t145.5 227l-2 47q-25 -145 -148 -247.5t-277 -102.5q-159 0 -219.5 108t-21.5 326zM578 1235h26l200 137h-33l-177 -115l-139 115h-31z" />
    <glyph glyph-name="uni01D5" unicode="&#x1d5;" horiz-adv-x="1130" 
d="M424 -9q201 0 329.5 90t166.5 303l169 965h-22l-168 -955q-37 -209 -156.5 -295t-314.5 -86q-194 0 -283.5 86t-52.5 295l169 955h-22l-170 -965q-38 -213 58.5 -303t296.5 -90zM602 1427q17 0 31 12.5t14 31.5q0 15 -9.5 24t-23.5 9q-17 0 -31 -12.5t-14 -31.5
q0 -15 9 -24t24 -9zM795 1427q18 0 31.5 12.5t13.5 31.5q0 15 -9 24t-24 9q-17 0 -31 -12.5t-14 -31.5q0 -15 9.5 -24t23.5 -9zM424 1723h467l3 20h-466z" />
    <glyph glyph-name="uni01D6" unicode="&#x1d6;" horiz-adv-x="982" 
d="M714 0h22l208 1184h-22l-168 -952zM242 1186h-22l-130 -738q-40 -228 22.5 -344t237.5 -116q161 0 283.5 98t145.5 227l-2 47q-25 -145 -148 -247.5t-277 -102.5q-159 0 -219.5 108t-21.5 326zM500 1263q17 0 31 12.5t14 31.5q0 15 -9.5 24t-23.5 9q-17 0 -31 -12.5
t-14 -31.5q0 -15 9 -24t24 -9zM693 1263q18 0 31.5 12.5t13.5 31.5q0 15 -9 24t-24 9q-17 0 -31 -12.5t-14 -31.5q0 -15 9.5 -24t23.5 -9zM395 1446h467l3 20h-466z" />
    <glyph glyph-name="uni01D7" unicode="&#x1d7;" horiz-adv-x="1130" 
d="M424 -9q201 0 329.5 90t166.5 303l169 965h-22l-168 -955q-37 -209 -156.5 -295t-314.5 -86q-194 0 -283.5 86t-52.5 295l169 955h-22l-170 -965q-38 -213 58.5 -303t296.5 -90zM602 1427q17 0 31 12.5t14 31.5q0 15 -9.5 24t-23.5 9q-17 0 -31 -12.5t-14 -31.5
q0 -15 9 -24t24 -9zM795 1427q18 0 31.5 12.5t13.5 31.5q0 15 -9 24t-24 9q-17 0 -31 -12.5t-14 -31.5q0 -15 9.5 -24t23.5 -9zM593 1648h33l148 110h-39z" />
    <glyph glyph-name="uni01D8" unicode="&#x1d8;" horiz-adv-x="982" 
d="M714 0h22l208 1184h-22l-168 -952zM242 1186h-22l-130 -738q-40 -228 22.5 -344t237.5 -116q161 0 283.5 98t145.5 227l-2 47q-25 -145 -148 -247.5t-277 -102.5q-159 0 -219.5 108t-21.5 326zM500 1263q17 0 31 12.5t14 31.5q0 15 -9.5 24t-23.5 9q-17 0 -31 -12.5
t-14 -31.5q0 -15 9 -24t24 -9zM693 1263q18 0 31.5 12.5t13.5 31.5q0 15 -9 24t-24 9q-17 0 -31 -12.5t-14 -31.5q0 -15 9.5 -24t23.5 -9zM540 1368h33l148 110h-39z" />
    <glyph glyph-name="uni01D9" unicode="&#x1d9;" horiz-adv-x="1130" 
d="M424 -9q201 0 329.5 90t166.5 303l169 965h-22l-168 -955q-37 -209 -156.5 -295t-314.5 -86q-194 0 -283.5 86t-52.5 295l169 955h-22l-170 -965q-38 -213 58.5 -303t296.5 -90zM602 1427q17 0 31 12.5t14 31.5q0 15 -9.5 24t-23.5 9q-17 0 -31 -12.5t-14 -31.5
q0 -15 9 -24t24 -9zM795 1427q18 0 31.5 12.5t13.5 31.5q0 15 -9 24t-24 9q-17 0 -31 -12.5t-14 -31.5q0 -15 9.5 -24t23.5 -9zM646 1628h26l200 137h-33l-177 -115l-139 115h-31z" />
    <glyph glyph-name="uni01DA" unicode="&#x1da;" horiz-adv-x="982" 
d="M714 0h22l208 1184h-22l-168 -952zM242 1186h-22l-130 -738q-40 -228 22.5 -344t237.5 -116q161 0 283.5 98t145.5 227l-2 47q-25 -145 -148 -247.5t-277 -102.5q-159 0 -219.5 108t-21.5 326zM500 1263q17 0 31 12.5t14 31.5q0 15 -9.5 24t-23.5 9q-17 0 -31 -12.5
t-14 -31.5q0 -15 9 -24t24 -9zM693 1263q18 0 31.5 12.5t13.5 31.5q0 15 -9 24t-24 9q-17 0 -31 -12.5t-14 -31.5q0 -15 9.5 -24t23.5 -9zM605 1387h26l200 137h-33l-177 -115l-139 115h-31z" />
    <glyph glyph-name="uni01DB" unicode="&#x1db;" horiz-adv-x="1130" 
d="M424 -9q201 0 329.5 90t166.5 303l169 965h-22l-168 -955q-37 -209 -156.5 -295t-314.5 -86q-194 0 -283.5 86t-52.5 295l169 955h-22l-170 -965q-38 -213 58.5 -303t296.5 -90zM602 1427q17 0 31 12.5t14 31.5q0 15 -9.5 24t-23.5 9q-17 0 -31 -12.5t-14 -31.5
q0 -15 9 -24t24 -9zM795 1427q18 0 31.5 12.5t13.5 31.5q0 15 -9 24t-24 9q-17 0 -31 -12.5t-14 -31.5q0 -15 9.5 -24t23.5 -9zM707 1643h32l-104 110h-37z" />
    <glyph glyph-name="uni01DC" unicode="&#x1dc;" horiz-adv-x="982" 
d="M714 0h22l208 1184h-22l-168 -952zM242 1186h-22l-130 -738q-40 -228 22.5 -344t237.5 -116q161 0 283.5 98t145.5 227l-2 47q-25 -145 -148 -247.5t-277 -102.5q-159 0 -219.5 108t-21.5 326zM500 1263q17 0 31 12.5t14 31.5q0 15 -9.5 24t-23.5 9q-17 0 -31 -12.5
t-14 -31.5q0 -15 9 -24t24 -9zM693 1263q18 0 31.5 12.5t13.5 31.5q0 15 -9 24t-24 9q-17 0 -31 -12.5t-14 -31.5q0 -15 9.5 -24t23.5 -9zM643 1380h32l-104 110h-37z" />
    <glyph glyph-name="Gcaron" unicode="&#x1e6;" horiz-adv-x="1107" 
d="M419 -8q354 0 451 265l-46 -257h21l104 594h-403l-4 -23h376l-30 -169q-34 -191 -149 -289.5t-319 -98.5q-215 0 -286 144.5t-19 514.5q53 380 188 522.5t352 142.5q212 0 283.5 -135t30.5 -366h23q42 240 -33.5 381.5t-301.5 141.5q-232 0 -371 -149t-194 -538
q-53 -379 22.5 -530t304.5 -151zM639 1399h26l200 137h-33l-177 -115l-139 115h-31z" />
    <glyph glyph-name="gcaron" unicode="&#x1e7;" horiz-adv-x="1010" 
d="M289 -458q113 0 204 42t157.5 142t96.5 268l210 1190h-22l-45 -254l-165 -934q-41 -235 -155.5 -334.5t-280.5 -99.5q-101 0 -171.5 35.5t-99 106.5t-19.5 199h-23q-21 -199 62 -280t251 -81zM349 -8q170 0 293.5 92.5t139.5 184.5l2 57q-19 -110 -145.5 -211
t-284.5 -101q-161 0 -235 128.5t-22 451.5q52 325 176.5 453t285.5 128q158 0 248.5 -100.5t71.5 -210.5l16 52q15 86 -74 183.5t-259 97.5q-176 0 -305.5 -134.5t-182.5 -468.5q-54 -332 22.5 -467t252.5 -135zM583 1235h26l200 137h-33l-177 -115l-139 115h-31z" />
    <glyph glyph-name="uni01EA" unicode="&#x1ea;" horiz-adv-x="1174" 
d="M459 -8q218 0 382.5 151t226.5 532q61 378 -44.5 531.5t-323.5 153.5t-382.5 -152t-226.5 -533q-61 -379 44.5 -531t323.5 -152zM463 14q-204 0 -306.5 145.5t-42.5 515.5q61 370 219.5 516.5t362.5 146.5t306.5 -146.5t42.5 -516.5q-60 -371 -219 -516t-363 -145z
M768 -164q19 0 38.5 2.5t36 7t24.5 7.5l-3 23q-9 -4 -24 -8t-32 -6.5t-34 -2.5q-31 0 -46.5 12t-15.5 35q0 24 15.5 59t36 68.5t33.5 50.5h-21q-15 -17 -36 -50t-36 -69.5t-15 -64.5q0 -23 10 -37t28 -20.5t41 -6.5z" />
    <glyph glyph-name="uni01EB" unicode="&#x1eb;" horiz-adv-x="1022" 
d="M380 -8q184 0 324 135t194 466q53 331 -34.5 467t-271.5 136q-185 0 -325.5 -135.5t-193.5 -467.5q-53 -330 34.5 -465.5t272.5 -135.5zM383 14q-169 0 -253.5 129t-33.5 450q52 320 187.5 450.5t304.5 130.5t254 -129.5t33 -451.5q-52 -319 -187.5 -449t-304.5 -130z
M367 -248q19 0 38.5 2.5t36 7t24.5 7.5l-3 23q-9 -4 -24 -8t-32 -6.5t-34 -2.5q-31 0 -46.5 12t-15.5 35q0 24 15.5 59t36 68.5t33.5 50.5h-21q-15 -17 -36 -50t-36 -69.5t-15 -64.5q0 -23 10 -37t28 -20.5t41 -6.5z" />
    <glyph glyph-name="Aringacute" unicode="&#x1fa;" horiz-adv-x="1146" 
d="M-38 0h25l232 437h642l77 -437h25l-241 1354h-41zM231 459l467 876h2l157 -876h-626zM711 1382q18 0 33 9t24 23.5t10 31.5q3 25 -13.5 43.5t-43.5 18.5q-18 0 -32.5 -8.5t-23.5 -22.5t-11 -31q-2 -27 14.5 -45.5t42.5 -18.5zM712 1404q-16 0 -26.5 12t-9.5 30
q2 18 15 29t29 11q17 0 27.5 -11t8.5 -29q-1 -18 -14 -30t-30 -12zM653 1550h33l148 110h-39z" />
    <glyph glyph-name="aringacute" unicode="&#x1fb;" horiz-adv-x="986" 
d="M319 -8q99 0 174 18.5t128.5 47t85.5 58.5t44 54l-30 -170h21l136 774q27 150 -2.5 242.5t-106.5 135.5t-195 43q-81 0 -150 -22t-125.5 -69t-99 -122t-70.5 -182h23q36 132 95.5 214t141 120.5t182.5 38.5q110 0 182.5 -42t100.5 -130.5t2 -228.5l-17 -96h-405
q-53 0 -106.5 -8.5t-102 -31t-88 -62t-65.5 -101t-34 -149.5q-13 -137 20 -208.5t101.5 -97.5t159.5 -26zM324 14q-83 0 -147 25t-96 92.5t-20 194.5q9 102 45 166.5t90 99.5t115.5 48.5t121.5 13.5h403l-78 -440q-24 -45 -80.5 -91.5t-144.5 -77.5t-209 -31zM593 1218
q18 0 33 9t24 23.5t10 31.5q3 25 -13.5 43.5t-43.5 18.5q-18 0 -32.5 -8.5t-23.5 -22.5t-11 -31q-2 -27 14.5 -45.5t42.5 -18.5zM594 1240q-16 0 -26.5 12t-9.5 30q2 18 15 29t29 11q17 0 27.5 -11t8.5 -29q-1 -18 -14 -30t-30 -12zM535 1386h33l148 110h-39z" />
    <glyph glyph-name="AEacute" unicode="&#x1fc;" horiz-adv-x="1611" 
d="M-38 0h27l856 1336l3 14h-22zM231 372h451l4 22h-435zM605 0h768l4 22h-746l117 666h712l4 22h-712l109 618h746l4 22h-768zM833 1392h33l148 110h-39z" />
    <glyph glyph-name="aeacute" unicode="&#x1fd;" horiz-adv-x="1719" 
d="M768 346l69 392q39 216 -28.5 336t-243.5 120q-192 0 -302.5 -113.5t-146.5 -314.5h24q34 192 141 299t283 107q160 0 223.5 -113.5t26.5 -330.5l-62 -353l-4 -25zM304 -8q183 0 307 85t164 310h-21q-39 -216 -158.5 -294.5t-289.5 -78.5q-161 0 -215.5 74t-36.5 206
q24 169 111 231.5t274 62.5h359l3 22h-355q-214 0 -303 -74t-112 -242q-19 -138 38.5 -220t234.5 -82zM1086 -8l4 22q-183 0 -252 152q-70 151 -25 432q50 310 181 443q130 132 302 132q177 0 254 -131q74 -129 22 -433h-767l-4 -23h791q2 10 3 17q56 319 -23 456
q-80 136 -272 136q-186 0 -322 -139t-188 -458q-46 -291 27 -449q73 -157 269 -157zM1090 14l-4 -22q114 0 212 45q97 45 162 149q63 103 96 232h-23q-31 -119 -92 -220q-62 -101 -154 -143q-94 -41 -197 -41zM839 1228h33l148 110h-39z" />
    <glyph glyph-name="Oslashacute" unicode="&#x1fe;" horiz-adv-x="977" 
d="M-33 0h31l976 1348h-27zM459 -8q218 0 382.5 151t226.5 532q61 378 -44.5 531.5t-323.5 153.5t-382.5 -152t-226.5 -533q-61 -379 44.5 -531t323.5 -152zM463 14q-204 0 -306.5 145.5t-42.5 515.5q61 370 219.5 516.5t362.5 146.5t306.5 -146.5t42.5 -516.5
q-60 -371 -219 -516t-363 -145zM559 1392h33l148 110h-39z" />
    <glyph glyph-name="oslashacute" unicode="&#x1ff;" horiz-adv-x="1014" 
d="M-67 -13l16 -11l1083 1227l-15 10zM380 -8q184 0 324 135t194 466q53 331 -34.5 467t-271.5 136q-185 0 -325.5 -135.5t-193.5 -467.5q-53 -330 34.5 -465.5t272.5 -135.5zM383 14q-169 0 -253.5 129t-33.5 450q52 320 187.5 450.5t304.5 130.5t254 -129.5t33 -451.5
q-52 -319 -187.5 -449t-304.5 -130zM511 1228h33l148 110h-39z" />
    <glyph glyph-name="uni0200" unicode="&#x200;" horiz-adv-x="1146" 
d="M-38 0h25l232 437h642l77 -437h25l-241 1354h-41zM231 459l467 876h2l157 -876h-626zM847 1411h32l-104 110h-37zM695 1411h32l-104 110h-37z" />
    <glyph glyph-name="uni0201" unicode="&#x201;" horiz-adv-x="986" 
d="M319 -8q99 0 174 18.5t128.5 47t85.5 58.5t44 54l-30 -170h21l136 774q27 150 -2.5 242.5t-106.5 135.5t-195 43q-81 0 -150 -22t-125.5 -69t-99 -122t-70.5 -182h23q36 132 95.5 214t141 120.5t182.5 38.5q110 0 182.5 -42t100.5 -130.5t2 -228.5l-17 -96h-405
q-53 0 -106.5 -8.5t-102 -31t-88 -62t-65.5 -101t-34 -149.5q-13 -137 20 -208.5t101.5 -97.5t159.5 -26zM324 14q-83 0 -147 25t-96 92.5t-20 194.5q9 102 45 166.5t90 99.5t115.5 48.5t121.5 13.5h403l-78 -440q-24 -45 -80.5 -91.5t-144.5 -77.5t-209 -31zM729 1247h32
l-104 110h-37zM577 1247h32l-104 110h-37z" />
    <glyph glyph-name="uni0202" unicode="&#x202;" horiz-adv-x="1146" 
d="M-38 0h25l232 437h642l77 -437h25l-241 1354h-41zM231 459l467 876h2l157 -876h-626zM733 1520q-45 0 -76 -15.5t-49.5 -41t-23.5 -53.5h25q4 22 17 42.5t37.5 33.5t65.5 13q37 0 57 -13t27 -33.5t3 -42.5h24q5 28 -5.5 53.5t-36 41t-65.5 15.5z" />
    <glyph glyph-name="uni0203" unicode="&#x203;" horiz-adv-x="986" 
d="M319 -8q99 0 174 18.5t128.5 47t85.5 58.5t44 54l-30 -170h21l136 774q27 150 -2.5 242.5t-106.5 135.5t-195 43q-81 0 -150 -22t-125.5 -69t-99 -122t-70.5 -182h23q36 132 95.5 214t141 120.5t182.5 38.5q110 0 182.5 -42t100.5 -130.5t2 -228.5l-17 -96h-405
q-53 0 -106.5 -8.5t-102 -31t-88 -62t-65.5 -101t-34 -149.5q-13 -137 20 -208.5t101.5 -97.5t159.5 -26zM324 14q-83 0 -147 25t-96 92.5t-20 194.5q9 102 45 166.5t90 99.5t115.5 48.5t121.5 13.5h403l-78 -440q-24 -45 -80.5 -91.5t-144.5 -77.5t-209 -31zM620 1356
q-45 0 -76 -15.5t-49.5 -41t-23.5 -53.5h25q4 22 17 42.5t37.5 33.5t65.5 13q37 0 57 -13t27 -33.5t3 -42.5h24q5 28 -5.5 53.5t-36 41t-65.5 15.5z" />
    <glyph glyph-name="uni0204" unicode="&#x204;" horiz-adv-x="992" 
d="M-14 0h768l4 22h-746l117 666h712l4 22h-712l109 618h746l4 22h-768zM730 1411h32l-104 110h-37zM578 1411h32l-104 110h-37z" />
    <glyph glyph-name="uni0205" unicode="&#x205;" horiz-adv-x="1016" 
d="M383 -8l4 22q-183 0 -252 152q-70 151 -25 432q50 310 181 443q130 132 302 132q177 0 254 -131q74 -129 22 -433h-767l-4 -23h791q2 10 3 17q56 319 -23 456q-80 136 -272 136q-186 0 -322 -139t-188 -458q-46 -291 27 -449q73 -157 269 -157zM387 14l-4 -22
q114 0 212 45q97 45 162 149q63 103 96 232h-23q-31 -119 -92 -220q-62 -101 -154 -143q-94 -41 -197 -41zM744 1247h32l-104 110h-37zM592 1247h32l-104 110h-37z" />
    <glyph glyph-name="uni0206" unicode="&#x206;" horiz-adv-x="992" 
d="M-14 0h768l4 22h-746l117 666h712l4 22h-712l109 618h746l4 22h-768zM616 1520q-45 0 -76 -15.5t-49.5 -41t-23.5 -53.5h25q4 22 17 42.5t37.5 33.5t65.5 13q37 0 57 -13t27 -33.5t3 -42.5h24q5 28 -5.5 53.5t-36 41t-65.5 15.5z" />
    <glyph glyph-name="uni0207" unicode="&#x207;" horiz-adv-x="1016" 
d="M383 -8l4 22q-183 0 -252 152q-70 151 -25 432q50 310 181 443q130 132 302 132q177 0 254 -131q74 -129 22 -433h-767l-4 -23h791q2 10 3 17q56 319 -23 456q-80 136 -272 136q-186 0 -322 -139t-188 -458q-46 -291 27 -449q73 -157 269 -157zM387 14l-4 -22
q114 0 212 45q97 45 162 149q63 103 96 232h-23q-31 -119 -92 -220q-62 -101 -154 -143q-94 -41 -197 -41zM636 1356q-45 0 -76 -15.5t-49.5 -41t-23.5 -53.5h25q4 22 17 42.5t37.5 33.5t65.5 13q37 0 57 -13t27 -33.5t3 -42.5h24q5 28 -5.5 53.5t-36 41t-65.5 15.5z" />
    <glyph glyph-name="uni0208" unicode="&#x208;" horiz-adv-x="399" 
d="M61 0h22l239 1350h-22zM463 1411h32l-104 110h-37zM311 1411h32l-104 110h-37z" />
    <glyph glyph-name="uni0209" unicode="&#x209;" horiz-adv-x="311" 
d="M25 0h22l209 1184h-22zM395 1247h32l-104 110h-37zM243 1247h32l-104 110h-37z" />
    <glyph glyph-name="uni020A" unicode="&#x20a;" horiz-adv-x="399" 
d="M61 0h22l239 1350h-22zM349 1520q-45 0 -76 -15.5t-49.5 -41t-23.5 -53.5h25q4 22 17 42.5t37.5 33.5t65.5 13q37 0 57 -13t27 -33.5t3 -42.5h24q5 28 -5.5 53.5t-36 41t-65.5 15.5z" />
    <glyph glyph-name="uni020B" unicode="&#x20b;" horiz-adv-x="311" 
d="M25 0h22l209 1184h-22zM286 1356q-45 0 -76 -15.5t-49.5 -41t-23.5 -53.5h25q4 22 17 42.5t37.5 33.5t65.5 13q37 0 57 -13t27 -33.5t3 -42.5h24q5 28 -5.5 53.5t-36 41t-65.5 15.5z" />
    <glyph glyph-name="uni020C" unicode="&#x20c;" horiz-adv-x="1174" 
d="M459 -8q218 0 382.5 151t226.5 532q61 378 -44.5 531.5t-323.5 153.5t-382.5 -152t-226.5 -533q-61 -379 44.5 -531t323.5 -152zM463 14q-204 0 -306.5 145.5t-42.5 515.5q61 370 219.5 516.5t362.5 146.5t306.5 -146.5t42.5 -516.5q-60 -371 -219 -516t-363 -145z
M846 1411h32l-104 110h-37zM694 1411h32l-104 110h-37z" />
    <glyph glyph-name="uni020D" unicode="&#x20d;" horiz-adv-x="1022" 
d="M380 -8q184 0 324 135t194 466q53 331 -34.5 467t-271.5 136q-185 0 -325.5 -135.5t-193.5 -467.5q-53 -330 34.5 -465.5t272.5 -135.5zM383 14q-169 0 -253.5 129t-33.5 450q52 320 187.5 450.5t304.5 130.5t254 -129.5t33 -451.5q-52 -319 -187.5 -449t-304.5 -130z
M737 1247h32l-104 110h-37zM585 1247h32l-104 110h-37z" />
    <glyph glyph-name="uni020E" unicode="&#x20e;" horiz-adv-x="1174" 
d="M459 -8q218 0 382.5 151t226.5 532q61 378 -44.5 531.5t-323.5 153.5t-382.5 -152t-226.5 -533q-61 -379 44.5 -531t323.5 -152zM463 14q-204 0 -306.5 145.5t-42.5 515.5q61 370 219.5 516.5t362.5 146.5t306.5 -146.5t42.5 -516.5q-60 -371 -219 -516t-363 -145z
M732 1520q-45 0 -76 -15.5t-49.5 -41t-23.5 -53.5h25q4 22 17 42.5t37.5 33.5t65.5 13q37 0 57 -13t27 -33.5t3 -42.5h24q5 28 -5.5 53.5t-36 41t-65.5 15.5z" />
    <glyph glyph-name="uni020F" unicode="&#x20f;" horiz-adv-x="1022" 
d="M380 -8q184 0 324 135t194 466q53 331 -34.5 467t-271.5 136q-185 0 -325.5 -135.5t-193.5 -467.5q-53 -330 34.5 -465.5t272.5 -135.5zM383 14q-169 0 -253.5 129t-33.5 450q52 320 187.5 450.5t304.5 130.5t254 -129.5t33 -451.5q-52 -319 -187.5 -449t-304.5 -130z
M628 1356q-45 0 -76 -15.5t-49.5 -41t-23.5 -53.5h25q4 22 17 42.5t37.5 33.5t65.5 13q37 0 57 -13t27 -33.5t3 -42.5h24q5 28 -5.5 53.5t-36 41t-65.5 15.5z" />
    <glyph glyph-name="uni0210" unicode="&#x210;" horiz-adv-x="986" 
d="M-18 0h22l112 640h483q159 0 235.5 102.5t102.5 252.5q27 150 -14.5 252.5t-200.5 102.5h-502zM734 0h23l-128 659l-25 -11zM120 662l118 666h481q147 0 184 -93.5t11 -239.5q-25 -145 -97 -239t-216 -94h-481zM699 1411h32l-104 110h-37zM547 1411h32l-104 110h-37z" />
    <glyph glyph-name="uni0211" unicode="&#x211;" horiz-adv-x="913" 
d="M753 675h23q49 277 -2.5 398.5t-210.5 121.5q-167 0 -276 -97t-132 -229l8 -30q23 128 130 231t268 103q143 0 191.5 -114t0.5 -384zM-7 0h22l163 923l46 261h-22zM685 1247h32l-104 110h-37zM533 1247h32l-104 110h-37z" />
    <glyph glyph-name="uni0212" unicode="&#x212;" horiz-adv-x="986" 
d="M-18 0h22l112 640h483q159 0 235.5 102.5t102.5 252.5q27 150 -14.5 252.5t-200.5 102.5h-502zM734 0h23l-128 659l-25 -11zM120 662l118 666h481q147 0 184 -93.5t11 -239.5q-25 -145 -97 -239t-216 -94h-481zM585 1520q-45 0 -76 -15.5t-49.5 -41t-23.5 -53.5h25
q4 22 17 42.5t37.5 33.5t65.5 13q37 0 57 -13t27 -33.5t3 -42.5h24q5 28 -5.5 53.5t-36 41t-65.5 15.5z" />
    <glyph glyph-name="uni0213" unicode="&#x213;" horiz-adv-x="913" 
d="M753 675h23q49 277 -2.5 398.5t-210.5 121.5q-167 0 -276 -97t-132 -229l8 -30q23 128 130 231t268 103q143 0 191.5 -114t0.5 -384zM-7 0h22l163 923l46 261h-22zM576 1356q-45 0 -76 -15.5t-49.5 -41t-23.5 -53.5h25q4 22 17 42.5t37.5 33.5t65.5 13q37 0 57 -13
t27 -33.5t3 -42.5h24q5 28 -5.5 53.5t-36 41t-65.5 15.5z" />
    <glyph glyph-name="uni0214" unicode="&#x214;" horiz-adv-x="1130" 
d="M424 -9q201 0 329.5 90t166.5 303l169 965h-22l-168 -955q-37 -209 -156.5 -295t-314.5 -86q-194 0 -283.5 86t-52.5 295l169 955h-22l-170 -965q-38 -213 58.5 -303t296.5 -90zM830 1411h32l-104 110h-37zM678 1411h32l-104 110h-37z" />
    <glyph glyph-name="uni0215" unicode="&#x215;" horiz-adv-x="982" 
d="M714 0h22l208 1184h-22l-168 -952zM242 1186h-22l-130 -738q-40 -228 22.5 -344t237.5 -116q161 0 283.5 98t145.5 227l-2 47q-25 -145 -148 -247.5t-277 -102.5q-159 0 -219.5 108t-21.5 326zM728 1247h32l-104 110h-37zM576 1247h32l-104 110h-37z" />
    <glyph glyph-name="uni0216" unicode="&#x216;" horiz-adv-x="1130" 
d="M424 -9q201 0 329.5 90t166.5 303l169 965h-22l-168 -955q-37 -209 -156.5 -295t-314.5 -86q-194 0 -283.5 86t-52.5 295l169 955h-22l-170 -965q-38 -213 58.5 -303t296.5 -90zM716 1520q-45 0 -76 -15.5t-49.5 -41t-23.5 -53.5h25q4 22 17 42.5t37.5 33.5t65.5 13
q37 0 57 -13t27 -33.5t3 -42.5h24q5 28 -5.5 53.5t-36 41t-65.5 15.5z" />
    <glyph glyph-name="uni0217" unicode="&#x217;" horiz-adv-x="982" 
d="M714 0h22l208 1184h-22l-168 -952zM242 1186h-22l-130 -738q-40 -228 22.5 -344t237.5 -116q161 0 283.5 98t145.5 227l-2 47q-25 -145 -148 -247.5t-277 -102.5q-159 0 -219.5 108t-21.5 326zM619 1356q-45 0 -76 -15.5t-49.5 -41t-23.5 -53.5h25q4 22 17 42.5
t37.5 33.5t65.5 13q37 0 57 -13t27 -33.5t3 -42.5h24q5 28 -5.5 53.5t-36 41t-65.5 15.5z" />
    <glyph glyph-name="uni0218" unicode="&#x218;" horiz-adv-x="1034" 
d="M210 -244h22l135 153h-38zM380 -9q219 0 339 92.5t138 232.5q25 175 -65.5 242.5t-284.5 134.5q-183 58 -270.5 130.5t-67.5 221.5q16 123 132 208t316 85q204 0 280.5 -98.5t29.5 -394.5h23q48 299 -29 407t-302 108q-213 0 -334 -91t-139 -224q-23 -162 66 -235
t279 -137q186 -61 276.5 -129.5t66.5 -227.5q-19 -132 -133.5 -217.5t-319.5 -85.5q-206 0 -280 99.5t-24 406.5h-23q-52 -314 25 -421t301 -107z" />
    <glyph glyph-name="uni0219" unicode="&#x219;" horiz-adv-x="966" 
d="M358 -8q190 0 294.5 74.5t117.5 194.5q22 163 -54 228t-254 121q-164 41 -241.5 101.5t-57.5 201.5q15 117 112 188.5t267 71.5q173 0 246.5 -87.5t50.5 -273.5h24q26 203 -52 293t-265 90q-182 0 -286.5 -76t-119.5 -203q-21 -155 55 -218t239 -110q175 -53 254.5 -112
t58.5 -212q-13 -108 -109.5 -179t-276.5 -71q-169 0 -245 84t-53 299h-24q-26 -232 53.5 -318.5t265.5 -86.5zM240 -241h22l135 153h-38z" />
    <glyph glyph-name="uni021A" unicode="&#x21a;" horiz-adv-x="1025" 
d="M364 0h22l234 1328h428l4 22h-881l-3 -22h430zM266 -241h22l135 153h-38z" />
    <glyph glyph-name="uni021B" unicode="&#x21b;" horiz-adv-x="862" 
d="M416 -10q75 0 145 20l4 22q-73 -20 -145 -20q-93 0 -134 42.5t-19 169.5l166 938h427l4 22h-427l46 265h-22l-46 -265h-288l-4 -22h288l-168 -950q-23 -133 27.5 -177.5t145.5 -44.5zM229 -241h22l135 153h-38z" />
    <glyph glyph-name="uni022A" unicode="&#x22a;" horiz-adv-x="1174" 
d="M459 -8q218 0 382.5 151t226.5 532q61 378 -44.5 531.5t-323.5 153.5t-382.5 -152t-226.5 -533q-61 -379 44.5 -531t323.5 -152zM463 14q-204 0 -306.5 145.5t-42.5 515.5q61 370 219.5 516.5t362.5 146.5t306.5 -146.5t42.5 -516.5q-60 -371 -219 -516t-363 -145z
M618 1427q17 0 31 12.5t14 31.5q0 15 -9.5 24t-23.5 9q-17 0 -31 -12.5t-14 -31.5q0 -15 9 -24t24 -9zM811 1427q18 0 31.5 12.5t13.5 31.5q0 15 -9 24t-24 9q-17 0 -31 -12.5t-14 -31.5q0 -15 9.5 -24t23.5 -9zM514 1610h467l3 20h-466z" />
    <glyph glyph-name="uni022B" unicode="&#x22b;" horiz-adv-x="1022" 
d="M380 -8q184 0 324 135t194 466q53 331 -34.5 467t-271.5 136q-185 0 -325.5 -135.5t-193.5 -467.5q-53 -330 34.5 -465.5t272.5 -135.5zM383 14q-169 0 -253.5 129t-33.5 450q52 320 187.5 450.5t304.5 130.5t254 -129.5t33 -451.5q-52 -319 -187.5 -449t-304.5 -130z
M509 1263q17 0 31 12.5t14 31.5q0 15 -9.5 24t-23.5 9q-17 0 -31 -12.5t-14 -31.5q0 -15 9 -24t24 -9zM702 1263q18 0 31.5 12.5t13.5 31.5q0 15 -9 24t-24 9q-17 0 -31 -12.5t-14 -31.5q0 -15 9.5 -24t23.5 -9zM404 1446h467l3 20h-466z" />
    <glyph glyph-name="uni022C" unicode="&#x22c;" horiz-adv-x="1174" 
d="M459 -8q218 0 382.5 151t226.5 532q61 378 -44.5 531.5t-323.5 153.5t-382.5 -152t-226.5 -533q-61 -379 44.5 -531t323.5 -152zM463 14q-204 0 -306.5 145.5t-42.5 515.5q61 370 219.5 516.5t362.5 146.5t306.5 -146.5t42.5 -516.5q-60 -371 -219 -516t-363 -145z
M799 1451q27 0 47 6.5t33.5 17t21 21t9.5 18.5h-23q-3 -8 -13.5 -18.5t-28 -17.5t-39.5 -7q-32 0 -50 8t-30 19t-27 19t-43 8q-23 0 -42.5 -5.5t-34 -15t-24 -20t-12.5 -21.5h23q3 9 14 19t29.5 16.5t41.5 6.5q25 0 39.5 -8t27.5 -19t31 -19t50 -8zM517 1633h467l3 20h-466z
" />
    <glyph glyph-name="uni022D" unicode="&#x22d;" horiz-adv-x="1022" 
d="M380 -8q184 0 324 135t194 466q53 331 -34.5 467t-271.5 136q-185 0 -325.5 -135.5t-193.5 -467.5q-53 -330 34.5 -465.5t272.5 -135.5zM383 14q-169 0 -253.5 129t-33.5 450q52 320 187.5 450.5t304.5 130.5t254 -129.5t33 -451.5q-52 -319 -187.5 -449t-304.5 -130z
M690 1287q27 0 47 6.5t33.5 17t21 21t9.5 18.5h-23q-3 -8 -13.5 -18.5t-28 -17.5t-39.5 -7q-32 0 -50 8t-30 19t-27 19t-43 8q-23 0 -42.5 -5.5t-34 -15t-24 -20t-12.5 -21.5h23q3 9 14 19t29.5 16.5t41.5 6.5q25 0 39.5 -8t27.5 -19t31 -19t50 -8zM408 1469h467l3 20h-466z
" />
    <glyph glyph-name="uni0230" unicode="&#x230;" horiz-adv-x="1174" 
d="M459 -8q218 0 382.5 151t226.5 532q61 378 -44.5 531.5t-323.5 153.5t-382.5 -152t-226.5 -533q-61 -379 44.5 -531t323.5 -152zM463 14q-204 0 -306.5 145.5t-42.5 515.5q61 370 219.5 516.5t362.5 146.5t306.5 -146.5t42.5 -516.5q-60 -371 -219 -516t-363 -145z
M722 1424q16 0 26.5 11.5t10.5 26.5t-11 25.5t-25 10.5q-16 0 -27 -10.5t-11 -25.5q0 -16 11 -27t26 -11zM513 1606h467l3 20h-466z" />
    <glyph glyph-name="uni0231" unicode="&#x231;" horiz-adv-x="1022" 
d="M380 -8q184 0 324 135t194 466q53 331 -34.5 467t-271.5 136q-185 0 -325.5 -135.5t-193.5 -467.5q-53 -330 34.5 -465.5t272.5 -135.5zM383 14q-169 0 -253.5 129t-33.5 450q52 320 187.5 450.5t304.5 130.5t254 -129.5t33 -451.5q-52 -319 -187.5 -449t-304.5 -130z
M612 1260q16 0 26.5 11.5t10.5 26.5t-11 25.5t-25 10.5q-16 0 -27 -10.5t-11 -25.5q0 -16 11 -27t26 -11zM403 1442h467l3 20h-466z" />
    <glyph glyph-name="uni0232" unicode="&#x232;" horiz-adv-x="1061" 
d="M382 0h22l101 571l573 779h-28l-551 -742h-1l-289 742h-26l299 -780zM432 1458h467l3 20h-466z" />
    <glyph glyph-name="uni0233" unicode="&#x233;" horiz-adv-x="820" 
d="M288 0h34l566 1184h-25l-553 -1156h-1l-149 1156h-24zM-156 -456q128 0 240.5 94.5t237.5 361.5l-23 1q-121 -254 -226 -344.5t-225 -90.5zM291 1294h467l3 20h-466z" />
    <glyph glyph-name="uni0237" unicode="&#x237;" horiz-adv-x="363" 
d="M-313 -459q151 0 244 79.5t127 272.5l229 1293h-22l-229 -1293q-32 -181 -119.5 -256t-225.5 -75z" />
    <glyph glyph-name="uni0259" unicode="&#x259;" horiz-adv-x="1016" 
d="M633 1195l-4 -22q183 0 253 -152q69 -152 24 -433q-50 -310 -180 -442q-131 -132 -303 -132q-177 0 -253 131q-75 129 -23 432h767l4 23h-791q-2 -9 -3 -17q-56 -319 24 -455q79 -136 271 -136q186 0 323 139q135 138 187 458q46 291 -27 448q-73 158 -269 158zM629 1173
l4 22q-114 0 -212 -45q-97 -45 -161 -149t-97 -232h23q31 119 92 220q62 101 155 142q93 42 196 42z" />
    <glyph glyph-name="uni02BC" unicode="&#x2bc;" horiz-adv-x="150" 
d="M284 1559h-31l-29 -162v-1l-66 -135h30l67 132z" />
    <glyph glyph-name="circumflex" unicode="&#x2c6;" horiz-adv-x="656" 
d="M240 1211h33l178 115l138 -115h31l-154 137h-26z" />
    <glyph glyph-name="caron" unicode="&#x2c7;" horiz-adv-x="657" 
d="M377 1211h26l200 137h-33l-177 -115l-139 115h-31z" />
    <glyph glyph-name="uni02C9" unicode="&#x2c9;" horiz-adv-x="868" 
d="M269 1239h467l3 20h-466z" />
    <glyph glyph-name="breve" unicode="&#x2d8;" horiz-adv-x="640" 
d="M378 1224q45 0 76 16t49.5 41t23.5 53h-25q-4 -22 -16.5 -42.5t-37.5 -33.5t-66 -13q-37 0 -57 13.5t-27 33.5t-3 42h-24q-5 -28 5.5 -53t36 -41t65.5 -16z" />
    <glyph glyph-name="dotaccent" unicode="&#x2d9;" horiz-adv-x="426" 
d="M313 1246q16 0 26.5 11.5t10.5 26.5t-11 25.5t-25 10.5q-16 0 -27 -10.5t-11 -25.5q0 -16 11 -27t26 -11z" />
    <glyph glyph-name="ring" unicode="&#x2da;" horiz-adv-x="274" 
d="M225 1226q18 0 33 9t24 23.5t10 31.5q3 25 -13.5 43.5t-43.5 18.5q-18 0 -32.5 -8.5t-23.5 -22.5t-11 -31q-2 -27 14.5 -45.5t42.5 -18.5zM226 1248q-16 0 -26.5 12t-9.5 30q2 18 15 29t29 11q17 0 27.5 -11t8.5 -29q-1 -18 -14 -30t-30 -12z" />
    <glyph glyph-name="ogonek" unicode="&#x2db;" horiz-adv-x="627" 
d="M176 -248q19 0 38.5 2.5t36 7t24.5 7.5l-3 23q-9 -4 -24 -8t-32 -6.5t-34 -2.5q-36 0 -51 16t-10 47q5 26 21.5 58.5t34.5 61.5t28 42h-21q-10 -12 -28.5 -39.5t-35 -60.5t-21.5 -63q-5 -31 3.5 -50t28 -27t45.5 -8z" />
    <glyph glyph-name="tilde" unicode="&#x2dc;" horiz-adv-x="445" 
d="M397 1282q27 0 47 6.5t33.5 17t21 21t9.5 18.5h-23q-3 -8 -13.5 -18.5t-28 -17.5t-39.5 -7q-32 0 -50 8t-30 19t-27 19t-43 8q-23 0 -42.5 -5.5t-34 -15t-24 -20t-12.5 -21.5h23q3 9 14 19t29.5 16.5t41.5 6.5q25 0 39.5 -8t27.5 -19t31 -19t50 -8z" />
    <glyph glyph-name="hungarumlaut" unicode="&#x2dd;" horiz-adv-x="781" 
d="M542 1233h28l129 95h-40zM339 1233h27l127 95h-39z" />
    <glyph glyph-name="gravecomb" unicode="&#x300;" 
d="M258 1134h32l-104 110h-37z" />
    <glyph glyph-name="acutecomb" unicode="&#x301;" 
d="M124 1134h33l148 110h-39z" />
    <glyph glyph-name="uni0302" unicode="&#x302;" 
d="M126 1121h33l178 115l138 -115h31l-154 137h-26z" />
    <glyph glyph-name="tildecomb" unicode="&#x303;" 
d="M384 1212q27 0 47 6.5t33.5 17t21 21t9.5 18.5h-23q-3 -8 -13.5 -18.5t-28 -17.5t-39.5 -7q-32 0 -50 8t-30 19t-27 19t-43 8q-23 0 -42.5 -5.5t-34 -15t-24 -20t-12.5 -21.5h23q3 9 14 19t29.5 16.5t41.5 6.5q25 0 39.5 -8t27.5 -19t31 -19t50 -8z" />
    <glyph glyph-name="uni0304" unicode="&#x304;" 
d="M269 1239h467l3 20h-466z" />
    <glyph glyph-name="uni0306" unicode="&#x306;" 
d="M248 1134q45 0 76 16t49.5 41t23.5 53h-25q-4 -22 -16.5 -42.5t-37.5 -33.5t-66 -13q-37 0 -57 13.5t-27 33.5t-3 42h-24q-5 -28 5.5 -53t36 -41t65.5 -16z" />
    <glyph glyph-name="uni0307" unicode="&#x307;" 
d="M186 1146q16 0 26.5 11.5t10.5 26.5t-11 25.5t-25 10.5q-16 0 -27 -10.5t-11 -25.5q0 -16 11 -27t26 -11z" />
    <glyph glyph-name="uni0308" unicode="&#x308;" 
d="M197 1149q17 0 31 12.5t14 31.5q0 15 -9.5 24t-23.5 9q-17 0 -31 -12.5t-14 -31.5q0 -15 9 -24t24 -9zM390 1149q18 0 31.5 12.5t13.5 31.5q0 15 -9 24t-24 9q-17 0 -31 -12.5t-14 -31.5q0 -15 9.5 -24t23.5 -9z" />
    <glyph glyph-name="hookabovecomb" unicode="&#x309;" 
d="M167 1423l-4 -21q69 0 120 -4t77.5 -16.5t22.5 -38.5q-3 -21 -32 -33.5t-68.5 -17.5t-76.5 -5l-15 -83h22l11 62q18 0 46.5 3.5t58.5 12t51.5 23.5t25.5 38q4 27 -12.5 43t-49 24t-78 10.5t-99.5 2.5z" />
    <glyph glyph-name="uni030A" unicode="&#x30a;" 
d="M209 1124q18 0 33 9t24 23.5t10 31.5q3 25 -13.5 43.5t-43.5 18.5q-18 0 -32.5 -8.5t-23.5 -22.5t-11 -31q-2 -27 14.5 -45.5t42.5 -18.5zM210 1146q-16 0 -26.5 12t-9.5 30q2 18 15 29t29 11q17 0 27.5 -11t8.5 -29q-1 -18 -14 -30t-30 -12z" />
    <glyph glyph-name="uni030B" unicode="&#x30b;" 
d="M340 1149h28l129 95h-40zM137 1149h27l127 95h-39z" />
    <glyph glyph-name="uni030C" unicode="&#x30c;" 
d="M296 1121h26l200 137h-33l-177 -115l-139 115h-31z" />
    <glyph glyph-name="uni030F" unicode="&#x30f;" 
d="M411 1224h32l-104 110h-37zM259 1224h32l-104 110h-37z" />
    <glyph glyph-name="uni0311" unicode="&#x311;" 
d="M317 1336q-45 0 -76 -15.5t-49.5 -41t-23.5 -53.5h25q4 22 17 42.5t37.5 33.5t65.5 13q37 0 57 -13t27 -33.5t3 -42.5h24q5 28 -5.5 53.5t-36 41t-65.5 15.5z" />
    <glyph glyph-name="uni0312" unicode="&#x312;" 
d="M248 1117h41l125 198h-23z" />
    <glyph glyph-name="uni031B" unicode="&#x31b;" 
d="M127 1196l-3 -19q85 0 136 14.5t77 46.5t35 85h-24q-8 -47 -30 -74.5t-67 -40t-124 -12.5z" />
    <glyph glyph-name="dotbelowcomb" unicode="&#x323;" 
d="M57 -208q16 0 26.5 11.5t10.5 26.5t-11 25.5t-25 10.5q-16 0 -27 -10.5t-11 -25.5q0 -16 11 -27t26 -11z" />
    <glyph glyph-name="uni0324" unicode="&#x324;" 
d="M-34 -180q17 0 31 12.5t14 31.5q0 15 -9.5 24t-23.5 9q-17 0 -31 -12.5t-14 -31.5q0 -15 9 -24t24 -9zM159 -180q18 0 31.5 12.5t13.5 31.5q0 15 -9 24t-24 9q-17 0 -31 -12.5t-14 -31.5q0 -15 9.5 -24t23.5 -9z" />
    <glyph glyph-name="uni0326" unicode="&#x326;" 
d="M-109 -241h22l135 153h-38z" />
    <glyph glyph-name="uni0327" unicode="&#x327;" 
d="M172 -219q27 0 52 5t45 15.5t33 27.5t16 40q6 36 -16 50.5t-55 14.5q-28 0 -60 -8t-47 -17l-2 -19q27 11 54.5 17.5t49.5 6.5q26 0 42 -11.5t11 -35.5q-6 -30 -37 -47t-82 -17q-27 0 -49 3t-39 7l-13 -21q18 -4 42.5 -7.5t54.5 -3.5zM138 -110l54 110h-25l-47 -100z" />
    <glyph glyph-name="uni0328" unicode="&#x328;" 
d="M176 -248q19 0 38.5 2.5t36 7t24.5 7.5l-3 23q-9 -4 -24 -8t-32 -6.5t-34 -2.5q-31 0 -46.5 12t-15.5 35q0 24 15.5 59t36 68.5t33.5 50.5h-21q-15 -17 -36 -50t-36 -69.5t-15 -64.5q0 -23 10 -37t28 -20.5t41 -6.5z" />
    <glyph glyph-name="uni032E" unicode="&#x32e;" 
d="M17 -245q45 0 76 16t49.5 41t23.5 53h-25q-4 -22 -16.5 -42.5t-37.5 -33.5t-66 -13q-37 0 -57 13.5t-27 33.5t-3 42h-24q-5 -28 5.5 -53t36 -41t65.5 -16z" />
    <glyph glyph-name="uni0331" unicode="&#x331;" 
d="M-102 -182h467l3 20h-466z" />
    <glyph glyph-name="uni0335" unicode="&#x335;" 
d="M216 1440h531l4 22h-531z" />
    <glyph glyph-name="uni0336" unicode="&#x336;" 
d="M269 1239h467l3 20h-466z" />
    <glyph glyph-name="uni0337" unicode="&#x337;" 
d="M0 0h23l755 972h-23z" />
    <glyph glyph-name="uni0338" unicode="&#x338;" 
d="M-97 0h20l616 1348h-20z" />
    <glyph glyph-name="uni1E08" unicode="&#x1e08;" horiz-adv-x="1100" 
d="M419 -9q218 0 345 132t172 396h-22q-43 -254 -166.5 -380t-328.5 -126q-209 0 -290.5 144.5t-21.5 519.5q63 391 199 526t346 135q205 0 280.5 -117.5t36.5 -384.5h23q40 276 -40.5 400t-299.5 124q-223 0 -363.5 -141.5t-204.5 -541.5q-62 -385 24.5 -535.5
t310.5 -150.5zM356 -219q27 0 52 5t45 15.5t33 27.5t16 40q6 36 -16 50.5t-55 14.5q-28 0 -60 -8t-47 -17l-2 -19q27 11 54.5 17.5t49.5 6.5q26 0 42 -11.5t11 -35.5q-6 -30 -37 -47t-82 -17q-27 0 -49 3t-39 7l-13 -21q18 -4 42.5 -7.5t54.5 -3.5zM322 -110l54 110h-25
l-47 -100zM529 1392h33l148 110h-39z" />
    <glyph glyph-name="uni1E09" unicode="&#x1e09;" horiz-adv-x="991" 
d="M385 -8q189 0 306.5 140.5t143.5 289.5h-23q-25 -139 -138.5 -273.5t-287.5 -134.5q-170 0 -241 145t-47 394q30 333 160.5 476.5t327.5 143.5q174 0 239.5 -122t46.5 -288h23q21 176 -49.5 304t-259.5 128q-210 0 -345.5 -149t-165.5 -493q-24 -261 51 -411t259 -150z
M376 -219q27 0 52 5t45 15.5t33 27.5t16 40q6 36 -16 50.5t-55 14.5q-28 0 -60 -8t-47 -17l-2 -19q27 11 54.5 17.5t49.5 6.5q26 0 42 -11.5t11 -35.5q-6 -30 -37 -47t-82 -17q-27 0 -49 3t-39 7l-13 -21q18 -4 42.5 -7.5t54.5 -3.5zM342 -110l54 110h-25l-47 -100z
M517 1228h33l148 110h-39z" />
    <glyph glyph-name="uni1E0C" unicode="&#x1e0c;" horiz-adv-x="1045" 
d="M-18 0h398q221 0 358 137t201 538q62 390 -19 532.5t-302 142.5h-398zM8 22l230 1306h372q209 0 288.5 -135.5t17.5 -517.5q-64 -392 -195.5 -522.5t-340.5 -130.5h-372zM344 -170q16 0 26.5 11.5t10.5 26.5t-11 25.5t-25 10.5q-16 0 -27 -10.5t-11 -25.5q0 -16 11 -27
t26 -11z" />
    <glyph glyph-name="uni1E0D" unicode="&#x1e0d;" horiz-adv-x="985" 
d="M733 0h21l276 1570h-22l-241 -1370zM357 -8q170 0 292.5 96.5t138.5 182.5l2 55q-20 -110 -146 -211t-284 -101q-151 0 -224 122t-42 407q32 350 159.5 491t311.5 141q158 0 248.5 -100.5t71.5 -210.5l14 54q16 86 -75.5 182.5t-259.5 96.5q-200 0 -330.5 -147.5
t-162.5 -506.5q-32 -294 44 -422.5t242 -128.5zM434 -208q16 0 26.5 11.5t10.5 26.5t-11 25.5t-25 10.5q-16 0 -27 -10.5t-11 -25.5q0 -16 11 -27t26 -11z" />
    <glyph glyph-name="Dmacronbelow" unicode="&#x1e0e;" horiz-adv-x="1045" 
d="M-18 0h398q221 0 358 137t201 538q62 390 -19 532.5t-302 142.5h-398zM8 22l230 1306h372q209 0 288.5 -135.5t17.5 -517.5q-64 -392 -195.5 -522.5t-340.5 -130.5h-372zM102 -182h467l3 20h-466z" />
    <glyph glyph-name="dmacronbelow" unicode="&#x1e0f;" horiz-adv-x="985" 
d="M733 0h21l276 1570h-22l-241 -1370zM357 -8q170 0 292.5 96.5t138.5 182.5l2 55q-20 -110 -146 -211t-284 -101q-151 0 -224 122t-42 407q32 350 159.5 491t311.5 141q158 0 248.5 -100.5t71.5 -210.5l14 54q16 86 -75.5 182.5t-259.5 96.5q-200 0 -330.5 -147.5
t-162.5 -506.5q-32 -294 44 -422.5t242 -128.5zM196 -182h467l3 20h-466z" />
    <glyph glyph-name="uni1E14" unicode="&#x1e14;" horiz-adv-x="992" 
d="M-14 0h768l4 22h-746l117 666h712l4 22h-712l109 618h746l4 22h-768zM371 1458h467l3 20h-466zM669 1540h32l-104 110h-37z" />
    <glyph glyph-name="uni1E15" unicode="&#x1e15;" horiz-adv-x="1016" 
d="M383 -8l4 22q-183 0 -252 152q-70 151 -25 432q50 310 181 443q130 132 302 132q177 0 254 -131q74 -129 22 -433h-767l-4 -23h791q2 10 3 17q56 319 -23 456q-80 136 -272 136q-186 0 -322 -139t-188 -458q-46 -291 27 -449q73 -157 269 -157zM387 14l-4 -22
q114 0 212 45q97 45 162 149q63 103 96 232h-23q-31 -119 -92 -220q-62 -101 -154 -143q-94 -41 -197 -41zM385 1294h467l3 20h-466zM681 1376h32l-104 110h-37z" />
    <glyph glyph-name="uni1E16" unicode="&#x1e16;" horiz-adv-x="992" 
d="M-14 0h768l4 22h-746l117 666h712l4 22h-712l109 618h746l4 22h-768zM371 1458h467l3 20h-466zM534 1520h33l148 110h-39z" />
    <glyph glyph-name="uni1E17" unicode="&#x1e17;" horiz-adv-x="1016" 
d="M383 -8l4 22q-183 0 -252 152q-70 151 -25 432q50 310 181 443q130 132 302 132q177 0 254 -131q74 -129 22 -433h-767l-4 -23h791q2 10 3 17q56 319 -23 456q-80 136 -272 136q-186 0 -322 -139t-188 -458q-46 -291 27 -449q73 -157 269 -157zM387 14l-4 -22
q114 0 212 45q97 45 162 149q63 103 96 232h-23q-31 -119 -92 -220q-62 -101 -154 -143q-94 -41 -197 -41zM385 1294h467l3 20h-466zM548 1356h33l148 110h-39z" />
    <glyph glyph-name="uni1E1C" unicode="&#x1e1c;" horiz-adv-x="992" 
d="M-14 0h768l4 22h-746l117 666h712l4 22h-712l109 618h746l4 22h-768zM337 -219q27 0 52 5t45 15.5t33 27.5t16 40q6 36 -16 50.5t-55 14.5q-28 0 -60 -8t-47 -17l-2 -19q27 11 54.5 17.5t49.5 6.5q26 0 42 -11.5t11 -35.5q-6 -30 -37 -47t-82 -17q-27 0 -49 3t-39 7
l-13 -21q18 -4 42.5 -7.5t54.5 -3.5zM303 -110l54 110h-25l-47 -100zM593 1412q45 0 76 16t49.5 41t23.5 53h-25q-4 -22 -16.5 -42.5t-37.5 -33.5t-66 -13q-37 0 -57 13.5t-27 33.5t-3 42h-24q-5 -28 5.5 -53t36 -41t65.5 -16z" />
    <glyph glyph-name="uni1E1D" unicode="&#x1e1d;" horiz-adv-x="1016" 
d="M383 -8l4 22q-183 0 -252 152q-70 151 -25 432q50 310 181 443q130 132 302 132q177 0 254 -131q74 -129 22 -433h-767l-4 -23h791q2 10 3 17q56 319 -23 456q-80 136 -272 136q-186 0 -322 -139t-188 -458q-46 -291 27 -449q73 -157 269 -157zM387 14l-4 -22
q114 0 212 45q97 45 162 149q63 103 96 232h-23q-31 -119 -92 -220q-62 -101 -154 -143q-94 -41 -197 -41zM321 -219q27 0 52 5t45 15.5t33 27.5t16 40q6 36 -16 50.5t-55 14.5q-28 0 -60 -8t-47 -17l-2 -19q27 11 54.5 17.5t49.5 6.5q26 0 42 -11.5t11 -35.5
q-6 -30 -37 -47t-82 -17q-27 0 -49 3t-39 7l-13 -21q18 -4 42.5 -7.5t54.5 -3.5zM287 -110l54 110h-25l-47 -100zM607 1248q45 0 76 16t49.5 41t23.5 53h-25q-4 -22 -16.5 -42.5t-37.5 -33.5t-66 -13q-37 0 -57 13.5t-27 33.5t-3 42h-24q-5 -28 5.5 -53t36 -41t65.5 -16z
" />
    <glyph glyph-name="uni1E20" unicode="&#x1e20;" horiz-adv-x="1107" 
d="M419 -8q354 0 451 265l-46 -257h21l104 594h-403l-4 -23h376l-30 -169q-34 -191 -149 -289.5t-319 -98.5q-215 0 -286 144.5t-19 514.5q53 380 188 522.5t352 142.5q212 0 283.5 -135t30.5 -366h23q42 240 -33.5 381.5t-301.5 141.5q-232 0 -371 -149t-194 -538
q-53 -379 22.5 -530t304.5 -151zM429 1458h467l3 20h-466z" />
    <glyph glyph-name="uni1E21" unicode="&#x1e21;" horiz-adv-x="1010" 
d="M289 -458q113 0 204 42t157.5 142t96.5 268l210 1190h-22l-45 -254l-165 -934q-41 -235 -155.5 -334.5t-280.5 -99.5q-101 0 -171.5 35.5t-99 106.5t-19.5 199h-23q-21 -199 62 -280t251 -81zM349 -8q170 0 293.5 92.5t139.5 184.5l2 57q-19 -110 -145.5 -211
t-284.5 -101q-161 0 -235 128.5t-22 451.5q52 325 176.5 453t285.5 128q158 0 248.5 -100.5t71.5 -210.5l16 52q15 86 -74 183.5t-259 97.5q-176 0 -305.5 -134.5t-182.5 -468.5q-54 -332 22.5 -467t252.5 -135zM373 1294h467l3 20h-466z" />
    <glyph glyph-name="uni1E24" unicode="&#x1e24;" horiz-adv-x="1040" 
d="M-18 0h22l125 706h751l-124 -706h22l238 1350h-22l-110 -622h-751l110 622h-22zM340 -170q16 0 26.5 11.5t10.5 26.5t-11 25.5t-25 10.5q-16 0 -27 -10.5t-11 -25.5q0 -16 11 -27t26 -11z" />
    <glyph glyph-name="uni1E25" unicode="&#x1e25;" horiz-adv-x="973" 
d="M-7 0h22l278 1570h-22zM696 0h22l130 738q40 229 -27.5 344.5t-242.5 115.5q-161 0 -279 -97.5t-141 -227.5l3 -46q25 145 143 247t272 102q159 0 224.5 -108t26.5 -326zM319 -208q16 0 26.5 11.5t10.5 26.5t-11 25.5t-25 10.5q-16 0 -27 -10.5t-11 -25.5q0 -16 11 -27
t26 -11z" />
    <glyph glyph-name="uni1E2A" unicode="&#x1e2a;" horiz-adv-x="1040" 
d="M-18 0h22l125 706h751l-124 -706h22l238 1350h-22l-110 -622h-751l110 622h-22zM320 -245q45 0 76 16t49.5 41t23.5 53h-25q-4 -22 -16.5 -42.5t-37.5 -33.5t-66 -13q-37 0 -57 13.5t-27 33.5t-3 42h-24q-5 -28 5.5 -53t36 -41t65.5 -16z" />
    <glyph glyph-name="uni1E2B" unicode="&#x1e2b;" horiz-adv-x="973" 
d="M-7 0h22l278 1570h-22zM696 0h22l130 738q40 229 -27.5 344.5t-242.5 115.5q-161 0 -279 -97.5t-141 -227.5l3 -46q25 145 143 247t272 102q159 0 224.5 -108t26.5 -326zM303 -245q45 0 76 16t49.5 41t23.5 53h-25q-4 -22 -16.5 -42.5t-37.5 -33.5t-66 -13
q-37 0 -57 13.5t-27 33.5t-3 42h-24q-5 -28 5.5 -53t36 -41t65.5 -16z" />
    <glyph glyph-name="uni1E2E" unicode="&#x1e2e;" horiz-adv-x="399" 
d="M61 0h22l239 1350h-22zM235 1427q17 0 31 12.5t14 31.5q0 15 -9.5 24t-23.5 9q-17 0 -31 -12.5t-14 -31.5q0 -15 9 -24t24 -9zM428 1427q18 0 31.5 12.5t13.5 31.5q0 15 -9 24t-24 9q-17 0 -31 -12.5t-14 -31.5q0 -15 9.5 -24t23.5 -9zM270 1544h33l148 110h-39z" />
    <glyph glyph-name="uni1E2F" unicode="&#x1e2f;" horiz-adv-x="311" 
d="M25 0h22l209 1184h-22zM167 1263q17 0 31 12.5t14 31.5q0 15 -9.5 24t-23.5 9q-17 0 -31 -12.5t-14 -31.5q0 -15 9 -24t24 -9zM360 1263q18 0 31.5 12.5t13.5 31.5q0 15 -9 24t-24 9q-17 0 -31 -12.5t-14 -31.5q0 -15 9.5 -24t23.5 -9zM201 1380h33l148 110h-39z" />
    <glyph glyph-name="uni1E36" unicode="&#x1e36;" horiz-adv-x="863" 
d="M-18 0h672l4 22h-650l235 1328h-22zM287 -170q16 0 26.5 11.5t10.5 26.5t-11 25.5t-25 10.5q-16 0 -27 -10.5t-11 -25.5q0 -16 11 -27t26 -11z" />
    <glyph glyph-name="uni1E37" unicode="&#x1e37;" horiz-adv-x="319" 
d="M23 0h22l278 1570h-22zM10 -208q16 0 26.5 11.5t10.5 26.5t-11 25.5t-25 10.5q-16 0 -27 -10.5t-11 -25.5q0 -16 11 -27t26 -11z" />
    <glyph glyph-name="Lmacronbelow" unicode="&#x1e3a;" horiz-adv-x="863" 
d="M-18 0h672l4 22h-650l235 1328h-22zM45 -182h467l3 20h-466z" />
    <glyph glyph-name="lmacronbelow" unicode="&#x1e3b;" horiz-adv-x="319" 
d="M23 0h22l278 1570h-22zM-228 -182h467l3 20h-466z" />
    <glyph glyph-name="uni1E42" unicode="&#x1e42;" horiz-adv-x="1295" 
d="M-18 0h22l235 1331h4l266 -1208h40l692 1208h4l-234 -1331h22l237 1350h-46l-691 -1209h-4l-266 1209h-43zM449 -170q16 0 26.5 11.5t10.5 26.5t-11 25.5t-25 10.5q-16 0 -27 -10.5t-11 -25.5q0 -16 11 -27t26 -11z" />
    <glyph glyph-name="uni1E43" unicode="&#x1e43;" horiz-adv-x="1486" 
d="M-7 0h22l170 962l39 222h-22zM601 0h22l136 769q35 199 -11 313t-207 114q-149 0 -258 -106t-141 -286l10 -28q31 174 137.5 286t249.5 112q145 0 188 -107t10 -294zM1208 0h22l136 769q35 199 -11 313t-206 114q-149 0 -258.5 -106t-141.5 -286l11 -28q30 174 137 286
t249 112q146 0 188.5 -107t9.5 -294zM516 -208q16 0 26.5 11.5t10.5 26.5t-11 25.5t-25 10.5q-16 0 -27 -10.5t-11 -25.5q0 -16 11 -27t26 -11z" />
    <glyph glyph-name="uni1E44" unicode="&#x1e44;" horiz-adv-x="1114" 
d="M-18 0h22l234 1327h3l571 -1327h40l238 1350h-22l-234 -1327h-4l-571 1327h-39zM659 1424q16 0 26.5 11.5t10.5 26.5t-11 25.5t-25 10.5q-16 0 -27 -10.5t-11 -25.5q0 -16 11 -27t26 -11z" />
    <glyph glyph-name="uni1E45" unicode="&#x1e45;" horiz-adv-x="972" 
d="M-7 0h22l164 927l48 259h-23zM695 0h22l130 738q40 229 -25 344.5t-240 115.5q-161 0 -281.5 -97.5t-143.5 -227.5l3 -46q25 145 145.5 247t274.5 102q159 0 222 -108t24 -326zM597 1260q16 0 26.5 11.5t10.5 26.5t-11 25.5t-25 10.5q-16 0 -27 -10.5t-11 -25.5
q0 -16 11 -27t26 -11z" />
    <glyph glyph-name="uni1E46" unicode="&#x1e46;" horiz-adv-x="1114" 
d="M-18 0h22l234 1327h3l571 -1327h40l238 1350h-22l-234 -1327h-4l-571 1327h-39zM374 -170q16 0 26.5 11.5t10.5 26.5t-11 25.5t-25 10.5q-16 0 -27 -10.5t-11 -25.5q0 -16 11 -27t26 -11z" />
    <glyph glyph-name="uni1E47" unicode="&#x1e47;" horiz-adv-x="972" 
d="M-7 0h22l164 927l48 259h-23zM695 0h22l130 738q40 229 -25 344.5t-240 115.5q-161 0 -281.5 -97.5t-143.5 -227.5l3 -46q25 145 145.5 247t274.5 102q159 0 222 -108t24 -326zM288 -208q16 0 26.5 11.5t10.5 26.5t-11 25.5t-25 10.5q-16 0 -27 -10.5t-11 -25.5
q0 -16 11 -27t26 -11z" />
    <glyph glyph-name="Nmacronbelow" unicode="&#x1e48;" horiz-adv-x="1114" 
d="M-18 0h22l234 1327h3l571 -1327h40l238 1350h-22l-234 -1327h-4l-571 1327h-39zM132 -182h467l3 20h-466z" />
    <glyph glyph-name="nmacronbelow" unicode="&#x1e49;" horiz-adv-x="972" 
d="M-7 0h22l164 927l48 259h-23zM695 0h22l130 738q40 229 -25 344.5t-240 115.5q-161 0 -281.5 -97.5t-143.5 -227.5l3 -46q25 145 145.5 247t274.5 102q159 0 222 -108t24 -326zM50 -182h467l3 20h-466z" />
    <glyph glyph-name="uni1E4C" unicode="&#x1e4c;" horiz-adv-x="1174" 
d="M459 -8q218 0 382.5 151t226.5 532q61 378 -44.5 531.5t-323.5 153.5t-382.5 -152t-226.5 -533q-61 -379 44.5 -531t323.5 -152zM463 14q-204 0 -306.5 145.5t-42.5 515.5q61 370 219.5 516.5t362.5 146.5t306.5 -146.5t42.5 -516.5q-60 -371 -219 -516t-363 -145z
M799 1451q27 0 47 6.5t33.5 17t21 21t9.5 18.5h-23q-3 -8 -13.5 -18.5t-28 -17.5t-39.5 -7q-32 0 -50 8t-30 19t-27 19t-43 8q-23 0 -42.5 -5.5t-34 -15t-24 -20t-12.5 -21.5h23q3 9 14 19t29.5 16.5t41.5 6.5q25 0 39.5 -8t27.5 -19t31 -19t50 -8zM656 1567h33l148 110h-39
z" />
    <glyph glyph-name="uni1E4D" unicode="&#x1e4d;" horiz-adv-x="1022" 
d="M380 -8q184 0 324 135t194 466q53 331 -34.5 467t-271.5 136q-185 0 -325.5 -135.5t-193.5 -467.5q-53 -330 34.5 -465.5t272.5 -135.5zM383 14q-169 0 -253.5 129t-33.5 450q52 320 187.5 450.5t304.5 130.5t254 -129.5t33 -451.5q-52 -319 -187.5 -449t-304.5 -130z
M690 1287q27 0 47 6.5t33.5 17t21 21t9.5 18.5h-23q-3 -8 -13.5 -18.5t-28 -17.5t-39.5 -7q-32 0 -50 8t-30 19t-27 19t-43 8q-23 0 -42.5 -5.5t-34 -15t-24 -20t-12.5 -21.5h23q3 9 14 19t29.5 16.5t41.5 6.5q25 0 39.5 -8t27.5 -19t31 -19t50 -8zM547 1403h33l148 110h-39
z" />
    <glyph glyph-name="uni1E4E" unicode="&#x1e4e;" horiz-adv-x="1174" 
d="M459 -8q218 0 382.5 151t226.5 532q61 378 -44.5 531.5t-323.5 153.5t-382.5 -152t-226.5 -533q-61 -379 44.5 -531t323.5 -152zM463 14q-204 0 -306.5 145.5t-42.5 515.5q61 370 219.5 516.5t362.5 146.5t306.5 -146.5t42.5 -516.5q-60 -371 -219 -516t-363 -145z
M799 1451q27 0 47 6.5t33.5 17t21 21t9.5 18.5h-23q-3 -8 -13.5 -18.5t-28 -17.5t-39.5 -7q-32 0 -50 8t-30 19t-27 19t-43 8q-23 0 -42.5 -5.5t-34 -15t-24 -20t-12.5 -21.5h23q3 9 14 19t29.5 16.5t41.5 6.5q25 0 39.5 -8t27.5 -19t31 -19t50 -8zM649 1602q17 0 31 12.5
t14 31.5q0 15 -9.5 24t-23.5 9q-17 0 -31 -12.5t-14 -31.5q0 -15 9 -24t24 -9zM842 1602q18 0 31.5 12.5t13.5 31.5q0 15 -9 24t-24 9q-17 0 -31 -12.5t-14 -31.5q0 -15 9.5 -24t23.5 -9z" />
    <glyph glyph-name="uni1E4F" unicode="&#x1e4f;" horiz-adv-x="1022" 
d="M380 -8q184 0 324 135t194 466q53 331 -34.5 467t-271.5 136q-185 0 -325.5 -135.5t-193.5 -467.5q-53 -330 34.5 -465.5t272.5 -135.5zM383 14q-169 0 -253.5 129t-33.5 450q52 320 187.5 450.5t304.5 130.5t254 -129.5t33 -451.5q-52 -319 -187.5 -449t-304.5 -130z
M690 1287q27 0 47 6.5t33.5 17t21 21t9.5 18.5h-23q-3 -8 -13.5 -18.5t-28 -17.5t-39.5 -7q-32 0 -50 8t-30 19t-27 19t-43 8q-23 0 -42.5 -5.5t-34 -15t-24 -20t-12.5 -21.5h23q3 9 14 19t29.5 16.5t41.5 6.5q25 0 39.5 -8t27.5 -19t31 -19t50 -8zM539 1438q17 0 31 12.5
t14 31.5q0 15 -9.5 24t-23.5 9q-17 0 -31 -12.5t-14 -31.5q0 -15 9 -24t24 -9zM732 1438q18 0 31.5 12.5t13.5 31.5q0 15 -9 24t-24 9q-17 0 -31 -12.5t-14 -31.5q0 -15 9.5 -24t23.5 -9z" />
    <glyph glyph-name="uni1E50" unicode="&#x1e50;" horiz-adv-x="1174" 
d="M459 -8q218 0 382.5 151t226.5 532q61 378 -44.5 531.5t-323.5 153.5t-382.5 -152t-226.5 -533q-61 -379 44.5 -531t323.5 -152zM463 14q-204 0 -306.5 145.5t-42.5 515.5q61 370 219.5 516.5t362.5 146.5t306.5 -146.5t42.5 -516.5q-60 -371 -219 -516t-363 -145z
M487 1458h467l3 20h-466zM785 1540h32l-104 110h-37z" />
    <glyph glyph-name="uni1E51" unicode="&#x1e51;" horiz-adv-x="1022" 
d="M380 -8q184 0 324 135t194 466q53 331 -34.5 467t-271.5 136q-185 0 -325.5 -135.5t-193.5 -467.5q-53 -330 34.5 -465.5t272.5 -135.5zM383 14q-169 0 -253.5 129t-33.5 450q52 320 187.5 450.5t304.5 130.5t254 -129.5t33 -451.5q-52 -319 -187.5 -449t-304.5 -130z
M377 1294h467l3 20h-466zM673 1376h32l-104 110h-37z" />
    <glyph glyph-name="uni1E52" unicode="&#x1e52;" horiz-adv-x="1174" 
d="M459 -8q218 0 382.5 151t226.5 532q61 378 -44.5 531.5t-323.5 153.5t-382.5 -152t-226.5 -533q-61 -379 44.5 -531t323.5 -152zM463 14q-204 0 -306.5 145.5t-42.5 515.5q61 370 219.5 516.5t362.5 146.5t306.5 -146.5t42.5 -516.5q-60 -371 -219 -516t-363 -145z
M487 1458h467l3 20h-466zM650 1520h33l148 110h-39z" />
    <glyph glyph-name="uni1E53" unicode="&#x1e53;" horiz-adv-x="1022" 
d="M380 -8q184 0 324 135t194 466q53 331 -34.5 467t-271.5 136q-185 0 -325.5 -135.5t-193.5 -467.5q-53 -330 34.5 -465.5t272.5 -135.5zM383 14q-169 0 -253.5 129t-33.5 450q52 320 187.5 450.5t304.5 130.5t254 -129.5t33 -451.5q-52 -319 -187.5 -449t-304.5 -130z
M377 1294h467l3 20h-466zM541 1356h33l148 110h-39z" />
    <glyph glyph-name="uni1E5A" unicode="&#x1e5a;" horiz-adv-x="986" 
d="M-18 0h22l112 640h483q159 0 235.5 102.5t102.5 252.5q27 150 -14.5 252.5t-200.5 102.5h-502zM734 0h23l-128 659l-25 -11zM120 662l118 666h481q147 0 184 -93.5t11 -239.5q-25 -145 -97 -239t-216 -94h-481zM289 -170q16 0 26.5 11.5t10.5 26.5t-11 25.5t-25 10.5
q-16 0 -27 -10.5t-11 -25.5q0 -16 11 -27t26 -11z" />
    <glyph glyph-name="uni1E5B" unicode="&#x1e5b;" horiz-adv-x="913" 
d="M753 675h23q49 277 -2.5 398.5t-210.5 121.5q-167 0 -276 -97t-132 -229l8 -30q23 128 130 231t268 103q143 0 191.5 -114t0.5 -384zM-7 0h22l163 923l46 261h-22zM264 -208q16 0 26.5 11.5t10.5 26.5t-11 25.5t-25 10.5q-16 0 -27 -10.5t-11 -25.5q0 -16 11 -27t26 -11z
" />
    <glyph glyph-name="Rmacronbelow" unicode="&#x1e5e;" horiz-adv-x="986" 
d="M-18 0h22l112 640h483q159 0 235.5 102.5t102.5 252.5q27 150 -14.5 252.5t-200.5 102.5h-502zM734 0h23l-128 659l-25 -11zM120 662l118 666h481q147 0 184 -93.5t11 -239.5q-25 -145 -97 -239t-216 -94h-481zM47 -182h467l3 20h-466z" />
    <glyph glyph-name="rmacronbelow" unicode="&#x1e5f;" horiz-adv-x="913" 
d="M753 675h23q49 277 -2.5 398.5t-210.5 121.5q-167 0 -276 -97t-132 -229l8 -30q23 128 130 231t268 103q143 0 191.5 -114t0.5 -384zM-7 0h22l163 923l46 261h-22zM26 -182h467l3 20h-466z" />
    <glyph glyph-name="uni1E60" unicode="&#x1e60;" horiz-adv-x="1034" 
d="M380 -9q219 0 339 92.5t138 232.5q25 175 -65.5 242.5t-284.5 134.5q-183 58 -270.5 130.5t-67.5 221.5q16 123 132 208t316 85q204 0 280.5 -98.5t29.5 -394.5h23q48 299 -29 407t-302 108q-213 0 -334 -91t-139 -224q-23 -162 66 -235t279 -137q186 -61 276.5 -129.5
t66.5 -227.5q-19 -132 -133.5 -217.5t-319.5 -85.5q-206 0 -280 99.5t-24 406.5h-23q-52 -314 25 -421t301 -107zM643 1420q16 0 26.5 11.5t10.5 26.5t-11 25.5t-25 10.5q-16 0 -27 -10.5t-11 -25.5q0 -16 11 -27t26 -11z" />
    <glyph glyph-name="uni1E61" unicode="&#x1e61;" horiz-adv-x="966" 
d="M358 -8q190 0 294.5 74.5t117.5 194.5q22 163 -54 228t-254 121q-164 41 -241.5 101.5t-57.5 201.5q15 117 112 188.5t267 71.5q173 0 246.5 -87.5t50.5 -273.5h24q26 203 -52 293t-265 90q-182 0 -286.5 -76t-119.5 -203q-21 -155 55 -218t239 -110q175 -53 254.5 -112
t58.5 -212q-13 -108 -109.5 -179t-276.5 -71q-169 0 -245 84t-53 299h-24q-26 -232 53.5 -318.5t265.5 -86.5zM579 1260q16 0 26.5 11.5t10.5 26.5t-11 25.5t-25 10.5q-16 0 -27 -10.5t-11 -25.5q0 -16 11 -27t26 -11z" />
    <glyph glyph-name="uni1E62" unicode="&#x1e62;" horiz-adv-x="1034" 
d="M380 -9q219 0 339 92.5t138 232.5q25 175 -65.5 242.5t-284.5 134.5q-183 58 -270.5 130.5t-67.5 221.5q16 123 132 208t316 85q204 0 280.5 -98.5t29.5 -394.5h23q48 299 -29 407t-302 108q-213 0 -334 -91t-139 -224q-23 -162 66 -235t279 -137q186 -61 276.5 -129.5
t66.5 -227.5q-19 -132 -133.5 -217.5t-319.5 -85.5q-206 0 -280 99.5t-24 406.5h-23q-52 -314 25 -421t301 -107zM362 -170q16 0 26.5 11.5t10.5 26.5t-11 25.5t-25 10.5q-16 0 -27 -10.5t-11 -25.5q0 -16 11 -27t26 -11z" />
    <glyph glyph-name="uni1E63" unicode="&#x1e63;" horiz-adv-x="966" 
d="M358 -8q190 0 294.5 74.5t117.5 194.5q22 163 -54 228t-254 121q-164 41 -241.5 101.5t-57.5 201.5q15 117 112 188.5t267 71.5q173 0 246.5 -87.5t50.5 -273.5h24q26 203 -52 293t-265 90q-182 0 -286.5 -76t-119.5 -203q-21 -155 55 -218t239 -110q175 -53 254.5 -112
t58.5 -212q-13 -108 -109.5 -179t-276.5 -71q-169 0 -245 84t-53 299h-24q-26 -232 53.5 -318.5t265.5 -86.5zM320 -208q16 0 26.5 11.5t10.5 26.5t-11 25.5t-25 10.5q-16 0 -27 -10.5t-11 -25.5q0 -16 11 -27t26 -11z" />
    <glyph glyph-name="uni1E64" unicode="&#x1e64;" horiz-adv-x="1034" 
d="M380 -9q219 0 339 92.5t138 232.5q25 175 -65.5 242.5t-284.5 134.5q-183 58 -270.5 130.5t-67.5 221.5q16 123 132 208t316 85q204 0 280.5 -98.5t29.5 -394.5h23q48 299 -29 407t-302 108q-213 0 -334 -91t-139 -224q-23 -162 66 -235t279 -137q186 -61 276.5 -129.5
t66.5 -227.5q-19 -132 -133.5 -217.5t-319.5 -85.5q-206 0 -280 99.5t-24 406.5h-23q-52 -314 25 -421t301 -107zM547 1388h33l148 110h-39zM669 1572q16 0 26.5 11.5t10.5 26.5t-11 25.5t-25 10.5q-16 0 -27 -10.5t-11 -25.5q0 -16 11 -27t26 -11z" />
    <glyph glyph-name="uni1E65" unicode="&#x1e65;" horiz-adv-x="966" 
d="M358 -8q190 0 294.5 74.5t117.5 194.5q22 163 -54 228t-254 121q-164 41 -241.5 101.5t-57.5 201.5q15 117 112 188.5t267 71.5q173 0 246.5 -87.5t50.5 -273.5h24q26 203 -52 293t-265 90q-182 0 -286.5 -76t-119.5 -203q-21 -155 55 -218t239 -110q175 -53 254.5 -112
t58.5 -212q-13 -108 -109.5 -179t-276.5 -71q-169 0 -245 84t-53 299h-24q-26 -232 53.5 -318.5t265.5 -86.5zM483 1228h33l148 110h-39zM605 1412q16 0 26.5 11.5t10.5 26.5t-11 25.5t-25 10.5q-16 0 -27 -10.5t-11 -25.5q0 -16 11 -27t26 -11z" />
    <glyph glyph-name="uni1E66" unicode="&#x1e66;" horiz-adv-x="1034" 
d="M380 -9q219 0 339 92.5t138 232.5q25 175 -65.5 242.5t-284.5 134.5q-183 58 -270.5 130.5t-67.5 221.5q16 123 132 208t316 85q204 0 280.5 -98.5t29.5 -394.5h23q48 299 -29 407t-302 108q-213 0 -334 -91t-139 -224q-23 -162 66 -235t279 -137q186 -61 276.5 -129.5
t66.5 -227.5q-19 -132 -133.5 -217.5t-319.5 -85.5q-206 0 -280 99.5t-24 406.5h-23q-52 -314 25 -421t301 -107zM618 1395h26l200 137h-33l-177 -115l-139 115h-31zM676 1606q16 0 26.5 11.5t10.5 26.5t-11 25.5t-25 10.5q-16 0 -27 -10.5t-11 -25.5q0 -16 11 -27t26 -11z
" />
    <glyph glyph-name="uni1E67" unicode="&#x1e67;" horiz-adv-x="966" 
d="M358 -8q190 0 294.5 74.5t117.5 194.5q22 163 -54 228t-254 121q-164 41 -241.5 101.5t-57.5 201.5q15 117 112 188.5t267 71.5q173 0 246.5 -87.5t50.5 -273.5h24q26 203 -52 293t-265 90q-182 0 -286.5 -76t-119.5 -203q-21 -155 55 -218t239 -110q175 -53 254.5 -112
t58.5 -212q-13 -108 -109.5 -179t-276.5 -71q-169 0 -245 84t-53 299h-24q-26 -232 53.5 -318.5t265.5 -86.5zM554 1235h26l200 137h-33l-177 -115l-139 115h-31zM612 1446q16 0 26.5 11.5t10.5 26.5t-11 25.5t-25 10.5q-16 0 -27 -10.5t-11 -25.5q0 -16 11 -27t26 -11z" />
    <glyph glyph-name="uni1E68" unicode="&#x1e68;" horiz-adv-x="1034" 
d="M380 -9q219 0 339 92.5t138 232.5q25 175 -65.5 242.5t-284.5 134.5q-183 58 -270.5 130.5t-67.5 221.5q16 123 132 208t316 85q204 0 280.5 -98.5t29.5 -394.5h23q48 299 -29 407t-302 108q-213 0 -334 -91t-139 -224q-23 -162 66 -235t279 -137q186 -61 276.5 -129.5
t66.5 -227.5q-19 -132 -133.5 -217.5t-319.5 -85.5q-206 0 -280 99.5t-24 406.5h-23q-52 -314 25 -421t301 -107zM362 -170q16 0 26.5 11.5t10.5 26.5t-11 25.5t-25 10.5q-16 0 -27 -10.5t-11 -25.5q0 -16 11 -27t26 -11zM643 1420q16 0 26.5 11.5t10.5 26.5t-11 25.5
t-25 10.5q-16 0 -27 -10.5t-11 -25.5q0 -16 11 -27t26 -11z" />
    <glyph glyph-name="uni1E69" unicode="&#x1e69;" horiz-adv-x="966" 
d="M358 -8q190 0 294.5 74.5t117.5 194.5q22 163 -54 228t-254 121q-164 41 -241.5 101.5t-57.5 201.5q15 117 112 188.5t267 71.5q173 0 246.5 -87.5t50.5 -273.5h24q26 203 -52 293t-265 90q-182 0 -286.5 -76t-119.5 -203q-21 -155 55 -218t239 -110q175 -53 254.5 -112
t58.5 -212q-13 -108 -109.5 -179t-276.5 -71q-169 0 -245 84t-53 299h-24q-26 -232 53.5 -318.5t265.5 -86.5zM320 -208q16 0 26.5 11.5t10.5 26.5t-11 25.5t-25 10.5q-16 0 -27 -10.5t-11 -25.5q0 -16 11 -27t26 -11zM579 1260q16 0 26.5 11.5t10.5 26.5t-11 25.5t-25 10.5
q-16 0 -27 -10.5t-11 -25.5q0 -16 11 -27t26 -11z" />
    <glyph glyph-name="uni1E6C" unicode="&#x1e6c;" horiz-adv-x="1025" 
d="M364 0h22l234 1328h428l4 22h-881l-3 -22h430zM350 -170q16 0 26.5 11.5t10.5 26.5t-11 25.5t-25 10.5q-16 0 -27 -10.5t-11 -25.5q0 -16 11 -27t26 -11z" />
    <glyph glyph-name="uni1E6D" unicode="&#x1e6d;" horiz-adv-x="862" 
d="M416 -10q75 0 145 20l4 22q-73 -20 -145 -20q-93 0 -134 42.5t-19 169.5l166 938h427l4 22h-427l46 265h-22l-46 -265h-288l-4 -22h288l-168 -950q-23 -133 27.5 -177.5t145.5 -44.5zM309 -208q16 0 26.5 11.5t10.5 26.5t-11 25.5t-25 10.5q-16 0 -27 -10.5t-11 -25.5
q0 -16 11 -27t26 -11z" />
    <glyph glyph-name="Tmacronbelow" unicode="&#x1e6e;" horiz-adv-x="1025" 
d="M364 0h22l234 1328h428l4 22h-881l-3 -22h430zM108 -182h467l3 20h-466z" />
    <glyph glyph-name="tmacronbelow" unicode="&#x1e6f;" horiz-adv-x="862" 
d="M416 -10q75 0 145 20l4 22q-73 -20 -145 -20q-93 0 -134 42.5t-19 169.5l166 938h427l4 22h-427l46 265h-22l-46 -265h-288l-4 -22h288l-168 -950q-23 -133 27.5 -177.5t145.5 -44.5zM71 -182h467l3 20h-466z" />
    <glyph glyph-name="uni1E78" unicode="&#x1e78;" horiz-adv-x="1130" 
d="M424 -9q201 0 329.5 90t166.5 303l169 965h-22l-168 -955q-37 -209 -156.5 -295t-314.5 -86q-194 0 -283.5 86t-52.5 295l169 955h-22l-170 -965q-38 -213 58.5 -303t296.5 -90zM783 1451q27 0 47 6.5t33.5 17t21 21t9.5 18.5h-23q-3 -8 -13.5 -18.5t-28 -17.5t-39.5 -7
q-32 0 -50 8t-30 19t-27 19t-43 8q-23 0 -42.5 -5.5t-34 -15t-24 -20t-12.5 -21.5h23q3 9 14 19t29.5 16.5t41.5 6.5q25 0 39.5 -8t27.5 -19t31 -19t50 -8zM640 1567h33l148 110h-39z" />
    <glyph glyph-name="uni1E79" unicode="&#x1e79;" horiz-adv-x="982" 
d="M714 0h22l208 1184h-22l-168 -952zM242 1186h-22l-130 -738q-40 -228 22.5 -344t237.5 -116q161 0 283.5 98t145.5 227l-2 47q-25 -145 -148 -247.5t-277 -102.5q-159 0 -219.5 108t-21.5 326zM681 1287q27 0 47 6.5t33.5 17t21 21t9.5 18.5h-23q-3 -8 -13.5 -18.5
t-28 -17.5t-39.5 -7q-32 0 -50 8t-30 19t-27 19t-43 8q-23 0 -42.5 -5.5t-34 -15t-24 -20t-12.5 -21.5h23q3 9 14 19t29.5 16.5t41.5 6.5q25 0 39.5 -8t27.5 -19t31 -19t50 -8zM538 1403h33l148 110h-39z" />
    <glyph glyph-name="uni1E7A" unicode="&#x1e7a;" horiz-adv-x="1130" 
d="M424 -9q201 0 329.5 90t166.5 303l169 965h-22l-168 -955q-37 -209 -156.5 -295t-314.5 -86q-194 0 -283.5 86t-52.5 295l169 955h-22l-170 -965q-38 -213 58.5 -303t296.5 -90zM471 1458h467l3 20h-466zM626 1555q17 0 31 12.5t14 31.5q0 15 -9.5 24t-23.5 9
q-17 0 -31 -12.5t-14 -31.5q0 -15 9 -24t24 -9zM819 1555q18 0 31.5 12.5t13.5 31.5q0 15 -9 24t-24 9q-17 0 -31 -12.5t-14 -31.5q0 -15 9.5 -24t23.5 -9z" />
    <glyph glyph-name="uni1E7B" unicode="&#x1e7b;" horiz-adv-x="982" 
d="M714 0h22l208 1184h-22l-168 -952zM242 1186h-22l-130 -738q-40 -228 22.5 -344t237.5 -116q161 0 283.5 98t145.5 227l-2 47q-25 -145 -148 -247.5t-277 -102.5q-159 0 -219.5 108t-21.5 326zM368 1294h467l3 20h-466zM524 1391q17 0 31 12.5t14 31.5q0 15 -9.5 24
t-23.5 9q-17 0 -31 -12.5t-14 -31.5q0 -15 9 -24t24 -9zM717 1391q18 0 31.5 12.5t13.5 31.5q0 15 -9 24t-24 9q-17 0 -31 -12.5t-14 -31.5q0 -15 9.5 -24t23.5 -9z" />
    <glyph glyph-name="Wgrave" unicode="&#x1e80;" horiz-adv-x="1538" 
d="M260 0h37l584 1328h3l113 -1328h38l527 1350h-25l-516 -1327h-3l-113 1327h-40l-581 -1327h-3l-47 1327h-24zM949 1412h32l-104 110h-37z" />
    <glyph glyph-name="wgrave" unicode="&#x1e81;" horiz-adv-x="1302" 
d="M212 0h41l483 1163l81 -1163h41l442 1184h-26l-433 -1162h-2l-83 1162h-34l-486 -1162h-2l-29 1162h-23zM799 1248h32l-104 110h-37z" />
    <glyph glyph-name="Wacute" unicode="&#x1e82;" horiz-adv-x="1538" 
d="M260 0h37l584 1328h3l113 -1328h38l527 1350h-25l-516 -1327h-3l-113 1327h-40l-581 -1327h-3l-47 1327h-24zM816 1392h33l148 110h-39z" />
    <glyph glyph-name="wacute" unicode="&#x1e83;" horiz-adv-x="1302" 
d="M212 0h41l483 1163l81 -1163h41l442 1184h-26l-433 -1162h-2l-83 1162h-34l-486 -1162h-2l-29 1162h-23zM666 1228h33l148 110h-39z" />
    <glyph glyph-name="Wdieresis" unicode="&#x1e84;" horiz-adv-x="1538" 
d="M260 0h37l584 1328h3l113 -1328h38l527 1350h-25l-516 -1327h-3l-113 1327h-40l-581 -1327h-3l-47 1327h-24zM808 1427q17 0 31 12.5t14 31.5q0 15 -9.5 24t-23.5 9q-17 0 -31 -12.5t-14 -31.5q0 -15 9 -24t24 -9zM1001 1427q18 0 31.5 12.5t13.5 31.5q0 15 -9 24t-24 9
q-17 0 -31 -12.5t-14 -31.5q0 -15 9.5 -24t23.5 -9z" />
    <glyph glyph-name="wdieresis" unicode="&#x1e85;" horiz-adv-x="1302" 
d="M212 0h41l483 1163l81 -1163h41l442 1184h-26l-433 -1162h-2l-83 1162h-34l-486 -1162h-2l-29 1162h-23zM658 1263q17 0 31 12.5t14 31.5q0 15 -9.5 24t-23.5 9q-17 0 -31 -12.5t-14 -31.5q0 -15 9 -24t24 -9zM851 1263q18 0 31.5 12.5t13.5 31.5q0 15 -9 24t-24 9
q-17 0 -31 -12.5t-14 -31.5q0 -15 9.5 -24t23.5 -9z" />
    <glyph glyph-name="uni1E8E" unicode="&#x1e8e;" horiz-adv-x="1061" 
d="M382 0h22l101 571l573 779h-28l-551 -742h-1l-289 742h-26l299 -780zM667 1424q16 0 26.5 11.5t10.5 26.5t-11 25.5t-25 10.5q-16 0 -27 -10.5t-11 -25.5q0 -16 11 -27t26 -11z" />
    <glyph glyph-name="uni1E8F" unicode="&#x1e8f;" horiz-adv-x="820" 
d="M288 0h34l566 1184h-25l-553 -1156h-1l-149 1156h-24zM-156 -456q128 0 240.5 94.5t237.5 361.5l-23 1q-121 -254 -226 -344.5t-225 -90.5zM526 1260q16 0 26.5 11.5t10.5 26.5t-11 25.5t-25 10.5q-16 0 -27 -10.5t-11 -25.5q0 -16 11 -27t26 -11z" />
    <glyph glyph-name="uni1E92" unicode="&#x1e92;" horiz-adv-x="991" 
d="M-25 0h799l4 23h-771l956 1304l5 23h-747l-4 -23h719l-956 -1301zM317 -170q16 0 26.5 11.5t10.5 26.5t-11 25.5t-25 10.5q-16 0 -27 -10.5t-11 -25.5q0 -16 11 -27t26 -11z" />
    <glyph glyph-name="uni1E93" unicode="&#x1e93;" horiz-adv-x="835" 
d="M-36 0h659l4 22h-634l1 5l822 1127l5 30h-634l-4 -22h611l-1 -2l-824 -1132zM267 -208q16 0 26.5 11.5t10.5 26.5t-11 25.5t-25 10.5q-16 0 -27 -10.5t-11 -25.5q0 -16 11 -27t26 -11z" />
    <glyph glyph-name="uni1E97" unicode="&#x1e97;" horiz-adv-x="862" 
d="M416 -10q75 0 145 20l4 22q-73 -20 -145 -20q-93 0 -134 42.5t-19 169.5l166 938h427l4 22h-427l46 265h-22l-46 -265h-288l-4 -22h288l-168 -950q-23 -133 27.5 -177.5t145.5 -44.5zM388 1526q17 0 31 12.5t14 31.5q0 15 -9.5 24t-23.5 9q-17 0 -31 -12.5t-14 -31.5
q0 -15 9 -24t24 -9zM581 1526q18 0 31.5 12.5t13.5 31.5q0 15 -9 24t-24 9q-17 0 -31 -12.5t-14 -31.5q0 -15 9.5 -24t23.5 -9z" />
    <glyph glyph-name="uni1E9E" unicode="&#x1e9e;" horiz-adv-x="967" 
d="M-18 0h22l235 1330h652l-577 -545l-3 -23q156 -13 252 -39t145.5 -68t64 -103t7.5 -143q-10 -150 -74.5 -239t-193 -124t-332.5 -24l-4 -22q157 -8 271.5 10t190 66.5t116 131t48.5 203.5q7 83 -8 146.5t-64 108.5t-143 72.5t-247 40.5l583 551l4 20h-706z" />
    <glyph glyph-name="uni1EA0" unicode="&#x1ea0;" horiz-adv-x="1146" 
d="M-38 0h25l232 437h642l77 -437h25l-241 1354h-41zM231 459l467 876h2l157 -876h-626zM438 -170q16 0 26.5 11.5t10.5 26.5t-11 25.5t-25 10.5q-16 0 -27 -10.5t-11 -25.5q0 -16 11 -27t26 -11z" />
    <glyph glyph-name="uni1EA1" unicode="&#x1ea1;" horiz-adv-x="986" 
d="M319 -8q99 0 174 18.5t128.5 47t85.5 58.5t44 54l-30 -170h21l136 774q27 150 -2.5 242.5t-106.5 135.5t-195 43q-81 0 -150 -22t-125.5 -69t-99 -122t-70.5 -182h23q36 132 95.5 214t141 120.5t182.5 38.5q110 0 182.5 -42t100.5 -130.5t2 -228.5l-17 -96h-405
q-53 0 -106.5 -8.5t-102 -31t-88 -62t-65.5 -101t-34 -149.5q-13 -137 20 -208.5t101.5 -97.5t159.5 -26zM324 14q-83 0 -147 25t-96 92.5t-20 194.5q9 102 45 166.5t90 99.5t115.5 48.5t121.5 13.5h403l-78 -440q-24 -45 -80.5 -91.5t-144.5 -77.5t-209 -31zM324 -208
q16 0 26.5 11.5t10.5 26.5t-11 25.5t-25 10.5q-16 0 -27 -10.5t-11 -25.5q0 -16 11 -27t26 -11z" />
    <glyph glyph-name="uni1EA2" unicode="&#x1ea2;" horiz-adv-x="1146" 
d="M-38 0h25l232 437h642l77 -437h25l-241 1354h-41zM231 459l467 876h2l157 -876h-626zM672 1616l-4 -21q69 0 120 -4t77.5 -16.5t22.5 -38.5q-3 -21 -32 -33.5t-68.5 -17.5t-76.5 -5l-15 -83h22l11 62q18 0 46.5 3.5t58.5 12t51.5 23.5t25.5 38q4 27 -12.5 43t-49 24
t-78 10.5t-99.5 2.5z" />
    <glyph glyph-name="uni1EA3" unicode="&#x1ea3;" horiz-adv-x="986" 
d="M319 -8q99 0 174 18.5t128.5 47t85.5 58.5t44 54l-30 -170h21l136 774q27 150 -2.5 242.5t-106.5 135.5t-195 43q-81 0 -150 -22t-125.5 -69t-99 -122t-70.5 -182h23q36 132 95.5 214t141 120.5t182.5 38.5q110 0 182.5 -42t100.5 -130.5t2 -228.5l-17 -96h-405
q-53 0 -106.5 -8.5t-102 -31t-88 -62t-65.5 -101t-34 -149.5q-13 -137 20 -208.5t101.5 -97.5t159.5 -26zM324 14q-83 0 -147 25t-96 92.5t-20 194.5q9 102 45 166.5t90 99.5t115.5 48.5t121.5 13.5h403l-78 -440q-24 -45 -80.5 -91.5t-144.5 -77.5t-209 -31zM557 1452
l-4 -21q69 0 120 -4t77.5 -16.5t22.5 -38.5q-3 -21 -32 -33.5t-68.5 -17.5t-76.5 -5l-15 -83h22l11 62q18 0 46.5 3.5t58.5 12t51.5 23.5t25.5 38q4 27 -12.5 43t-49 24t-78 10.5t-99.5 2.5z" />
    <glyph glyph-name="uni1EA4" unicode="&#x1ea4;" horiz-adv-x="1146" 
d="M-38 0h25l232 437h642l77 -437h25l-241 1354h-41zM231 459l467 876h2l157 -876h-626zM521 1407h33l178 115l138 -115h31l-154 137h-26zM812 1522h33l148 110h-39z" />
    <glyph glyph-name="uni1EA5" unicode="&#x1ea5;" horiz-adv-x="986" 
d="M319 -8q99 0 174 18.5t128.5 47t85.5 58.5t44 54l-30 -170h21l136 774q27 150 -2.5 242.5t-106.5 135.5t-195 43q-81 0 -150 -22t-125.5 -69t-99 -122t-70.5 -182h23q36 132 95.5 214t141 120.5t182.5 38.5q110 0 182.5 -42t100.5 -130.5t2 -228.5l-17 -96h-405
q-53 0 -106.5 -8.5t-102 -31t-88 -62t-65.5 -101t-34 -149.5q-13 -137 20 -208.5t101.5 -97.5t159.5 -26zM324 14q-83 0 -147 25t-96 92.5t-20 194.5q9 102 45 166.5t90 99.5t115.5 48.5t121.5 13.5h403l-78 -440q-24 -45 -80.5 -91.5t-144.5 -77.5t-209 -31zM403 1243h33
l178 115l138 -115h31l-154 137h-26zM694 1358h33l148 110h-39z" />
    <glyph glyph-name="uni1EA6" unicode="&#x1ea6;" horiz-adv-x="1146" 
d="M-38 0h25l232 437h642l77 -437h25l-241 1354h-41zM231 459l467 876h2l157 -876h-626zM516 1400h33l178 115l138 -115h31l-154 137h-26zM868 1522h32l-104 110h-37z" />
    <glyph glyph-name="uni1EA7" unicode="&#x1ea7;" horiz-adv-x="986" 
d="M319 -8q99 0 174 18.5t128.5 47t85.5 58.5t44 54l-30 -170h21l136 774q27 150 -2.5 242.5t-106.5 135.5t-195 43q-81 0 -150 -22t-125.5 -69t-99 -122t-70.5 -182h23q36 132 95.5 214t141 120.5t182.5 38.5q110 0 182.5 -42t100.5 -130.5t2 -228.5l-17 -96h-405
q-53 0 -106.5 -8.5t-102 -31t-88 -62t-65.5 -101t-34 -149.5q-13 -137 20 -208.5t101.5 -97.5t159.5 -26zM324 14q-83 0 -147 25t-96 92.5t-20 194.5q9 102 45 166.5t90 99.5t115.5 48.5t121.5 13.5h403l-78 -440q-24 -45 -80.5 -91.5t-144.5 -77.5t-209 -31zM398 1236h33
l178 115l138 -115h31l-154 137h-26zM750 1358h32l-104 110h-37z" />
    <glyph glyph-name="uni1EA8" unicode="&#x1ea8;" horiz-adv-x="1146" 
d="M-38 0h25l232 437h642l77 -437h25l-241 1354h-41zM231 459l467 876h2l157 -876h-626zM520 1399h33l178 115l138 -115h31l-154 137h-26zM707 1802l-4 -21q69 0 120 -4t77.5 -16.5t22.5 -38.5q-3 -21 -32 -33.5t-68.5 -17.5t-76.5 -5l-15 -83h22l11 62q18 0 46.5 3.5
t58.5 12t51.5 23.5t25.5 38q4 27 -12.5 43t-49 24t-78 10.5t-99.5 2.5z" />
    <glyph glyph-name="uni1EA9" unicode="&#x1ea9;" horiz-adv-x="986" 
d="M319 -8q99 0 174 18.5t128.5 47t85.5 58.5t44 54l-30 -170h21l136 774q27 150 -2.5 242.5t-106.5 135.5t-195 43q-81 0 -150 -22t-125.5 -69t-99 -122t-70.5 -182h23q36 132 95.5 214t141 120.5t182.5 38.5q110 0 182.5 -42t100.5 -130.5t2 -228.5l-17 -96h-405
q-53 0 -106.5 -8.5t-102 -31t-88 -62t-65.5 -101t-34 -149.5q-13 -137 20 -208.5t101.5 -97.5t159.5 -26zM324 14q-83 0 -147 25t-96 92.5t-20 194.5q9 102 45 166.5t90 99.5t115.5 48.5t121.5 13.5h403l-78 -440q-24 -45 -80.5 -91.5t-144.5 -77.5t-209 -31zM402 1235h33
l178 115l138 -115h31l-154 137h-26zM589 1638l-4 -21q69 0 120 -4t77.5 -16.5t22.5 -38.5q-3 -21 -32 -33.5t-68.5 -17.5t-76.5 -5l-15 -83h22l11 62q18 0 46.5 3.5t58.5 12t51.5 23.5t25.5 38q4 27 -12.5 43t-49 24t-78 10.5t-99.5 2.5z" />
    <glyph glyph-name="uni1EAA" unicode="&#x1eaa;" horiz-adv-x="1146" 
d="M-38 0h25l232 437h642l77 -437h25l-241 1354h-41zM231 459l467 876h2l157 -876h-626zM520 1399h33l178 115l138 -115h31l-154 137h-26zM832 1637q27 0 47 6.5t33.5 17t21 21t9.5 18.5h-23q-3 -8 -13.5 -18.5t-28 -17.5t-39.5 -7q-32 0 -50 8t-30 19t-27 19t-43 8
q-23 0 -42.5 -5.5t-34 -15t-24 -20t-12.5 -21.5h23q3 9 14 19t29.5 16.5t41.5 6.5q25 0 39.5 -8t27.5 -19t31 -19t50 -8z" />
    <glyph glyph-name="uni1EAB" unicode="&#x1eab;" horiz-adv-x="986" 
d="M319 -8q99 0 174 18.5t128.5 47t85.5 58.5t44 54l-30 -170h21l136 774q27 150 -2.5 242.5t-106.5 135.5t-195 43q-81 0 -150 -22t-125.5 -69t-99 -122t-70.5 -182h23q36 132 95.5 214t141 120.5t182.5 38.5q110 0 182.5 -42t100.5 -130.5t2 -228.5l-17 -96h-405
q-53 0 -106.5 -8.5t-102 -31t-88 -62t-65.5 -101t-34 -149.5q-13 -137 20 -208.5t101.5 -97.5t159.5 -26zM324 14q-83 0 -147 25t-96 92.5t-20 194.5q9 102 45 166.5t90 99.5t115.5 48.5t121.5 13.5h403l-78 -440q-24 -45 -80.5 -91.5t-144.5 -77.5t-209 -31zM402 1235h33
l178 115l138 -115h31l-154 137h-26zM714 1473q27 0 47 6.5t33.5 17t21 21t9.5 18.5h-23q-3 -8 -13.5 -18.5t-28 -17.5t-39.5 -7q-32 0 -50 8t-30 19t-27 19t-43 8q-23 0 -42.5 -5.5t-34 -15t-24 -20t-12.5 -21.5h23q3 9 14 19t29.5 16.5t41.5 6.5q25 0 39.5 -8t27.5 -19
t31 -19t50 -8z" />
    <glyph glyph-name="uni1EAC" unicode="&#x1eac;" horiz-adv-x="1146" 
d="M-38 0h25l232 437h642l77 -437h25l-241 1354h-41zM231 459l467 876h2l157 -876h-626zM438 -170q16 0 26.5 11.5t10.5 26.5t-11 25.5t-25 10.5q-16 0 -27 -10.5t-11 -25.5q0 -16 11 -27t26 -11zM520 1399h33l178 115l138 -115h31l-154 137h-26z" />
    <glyph glyph-name="uni1EAD" unicode="&#x1ead;" horiz-adv-x="986" 
d="M319 -8q99 0 174 18.5t128.5 47t85.5 58.5t44 54l-30 -170h21l136 774q27 150 -2.5 242.5t-106.5 135.5t-195 43q-81 0 -150 -22t-125.5 -69t-99 -122t-70.5 -182h23q36 132 95.5 214t141 120.5t182.5 38.5q110 0 182.5 -42t100.5 -130.5t2 -228.5l-17 -96h-405
q-53 0 -106.5 -8.5t-102 -31t-88 -62t-65.5 -101t-34 -149.5q-13 -137 20 -208.5t101.5 -97.5t159.5 -26zM324 14q-83 0 -147 25t-96 92.5t-20 194.5q9 102 45 166.5t90 99.5t115.5 48.5t121.5 13.5h403l-78 -440q-24 -45 -80.5 -91.5t-144.5 -77.5t-209 -31zM324 -208
q16 0 26.5 11.5t10.5 26.5t-11 25.5t-25 10.5q-16 0 -27 -10.5t-11 -25.5q0 -16 11 -27t26 -11zM402 1235h33l178 115l138 -115h31l-154 137h-26z" />
    <glyph glyph-name="uni1EAE" unicode="&#x1eae;" horiz-adv-x="1146" 
d="M-38 0h25l232 437h642l77 -437h25l-241 1354h-41zM231 459l467 876h2l157 -876h-626zM710 1412q45 0 76 16t49.5 41t23.5 53h-25q-4 -22 -16.5 -42.5t-37.5 -33.5t-66 -13q-37 0 -57 13.5t-27 33.5t-3 42h-24q-5 -28 5.5 -53t36 -41t65.5 -16zM657 1564h33l148 110h-39z
" />
    <glyph glyph-name="uni1EAF" unicode="&#x1eaf;" horiz-adv-x="986" 
d="M319 -8q99 0 174 18.5t128.5 47t85.5 58.5t44 54l-30 -170h21l136 774q27 150 -2.5 242.5t-106.5 135.5t-195 43q-81 0 -150 -22t-125.5 -69t-99 -122t-70.5 -182h23q36 132 95.5 214t141 120.5t182.5 38.5q110 0 182.5 -42t100.5 -130.5t2 -228.5l-17 -96h-405
q-53 0 -106.5 -8.5t-102 -31t-88 -62t-65.5 -101t-34 -149.5q-13 -137 20 -208.5t101.5 -97.5t159.5 -26zM324 14q-83 0 -147 25t-96 92.5t-20 194.5q9 102 45 166.5t90 99.5t115.5 48.5t121.5 13.5h403l-78 -440q-24 -45 -80.5 -91.5t-144.5 -77.5t-209 -31zM592 1248
q45 0 76 16t49.5 41t23.5 53h-25q-4 -22 -16.5 -42.5t-37.5 -33.5t-66 -13q-37 0 -57 13.5t-27 33.5t-3 42h-24q-5 -28 5.5 -53t36 -41t65.5 -16zM539 1400h33l148 110h-39z" />
    <glyph glyph-name="uni1EB0" unicode="&#x1eb0;" horiz-adv-x="1146" 
d="M-38 0h25l232 437h642l77 -437h25l-241 1354h-41zM231 459l467 876h2l157 -876h-626zM710 1412q45 0 76 16t49.5 41t23.5 53h-25q-4 -22 -16.5 -42.5t-37.5 -33.5t-66 -13q-37 0 -57 13.5t-27 33.5t-3 42h-24q-5 -28 5.5 -53t36 -41t65.5 -16zM790 1584h32l-104 110h-37z
" />
    <glyph glyph-name="uni1EB1" unicode="&#x1eb1;" horiz-adv-x="986" 
d="M319 -8q99 0 174 18.5t128.5 47t85.5 58.5t44 54l-30 -170h21l136 774q27 150 -2.5 242.5t-106.5 135.5t-195 43q-81 0 -150 -22t-125.5 -69t-99 -122t-70.5 -182h23q36 132 95.5 214t141 120.5t182.5 38.5q110 0 182.5 -42t100.5 -130.5t2 -228.5l-17 -96h-405
q-53 0 -106.5 -8.5t-102 -31t-88 -62t-65.5 -101t-34 -149.5q-13 -137 20 -208.5t101.5 -97.5t159.5 -26zM324 14q-83 0 -147 25t-96 92.5t-20 194.5q9 102 45 166.5t90 99.5t115.5 48.5t121.5 13.5h403l-78 -440q-24 -45 -80.5 -91.5t-144.5 -77.5t-209 -31zM592 1248
q45 0 76 16t49.5 41t23.5 53h-25q-4 -22 -16.5 -42.5t-37.5 -33.5t-66 -13q-37 0 -57 13.5t-27 33.5t-3 42h-24q-5 -28 5.5 -53t36 -41t65.5 -16zM672 1420h32l-104 110h-37z" />
    <glyph glyph-name="uni1EB2" unicode="&#x1eb2;" horiz-adv-x="1146" 
d="M-38 0h25l232 437h642l77 -437h25l-241 1354h-41zM231 459l467 876h2l157 -876h-626zM710 1412q45 0 76 16t49.5 41t23.5 53h-25q-4 -22 -16.5 -42.5t-37.5 -33.5t-66 -13q-37 0 -57 13.5t-27 33.5t-3 42h-24q-5 -28 5.5 -53t36 -41t65.5 -16zM705 1788l-4 -21
q69 0 120 -4t77.5 -16.5t22.5 -38.5q-3 -21 -32 -33.5t-68.5 -17.5t-76.5 -5l-15 -83h22l11 62q18 0 46.5 3.5t58.5 12t51.5 23.5t25.5 38q4 27 -12.5 43t-49 24t-78 10.5t-99.5 2.5z" />
    <glyph glyph-name="uni1EB3" unicode="&#x1eb3;" horiz-adv-x="986" 
d="M319 -8q99 0 174 18.5t128.5 47t85.5 58.5t44 54l-30 -170h21l136 774q27 150 -2.5 242.5t-106.5 135.5t-195 43q-81 0 -150 -22t-125.5 -69t-99 -122t-70.5 -182h23q36 132 95.5 214t141 120.5t182.5 38.5q110 0 182.5 -42t100.5 -130.5t2 -228.5l-17 -96h-405
q-53 0 -106.5 -8.5t-102 -31t-88 -62t-65.5 -101t-34 -149.5q-13 -137 20 -208.5t101.5 -97.5t159.5 -26zM324 14q-83 0 -147 25t-96 92.5t-20 194.5q9 102 45 166.5t90 99.5t115.5 48.5t121.5 13.5h403l-78 -440q-24 -45 -80.5 -91.5t-144.5 -77.5t-209 -31zM592 1248
q45 0 76 16t49.5 41t23.5 53h-25q-4 -22 -16.5 -42.5t-37.5 -33.5t-66 -13q-37 0 -57 13.5t-27 33.5t-3 42h-24q-5 -28 5.5 -53t36 -41t65.5 -16zM587 1624l-4 -21q69 0 120 -4t77.5 -16.5t22.5 -38.5q-3 -21 -32 -33.5t-68.5 -17.5t-76.5 -5l-15 -83h22l11 62
q18 0 46.5 3.5t58.5 12t51.5 23.5t25.5 38q4 27 -12.5 43t-49 24t-78 10.5t-99.5 2.5z" />
    <glyph glyph-name="uni1EB4" unicode="&#x1eb4;" horiz-adv-x="1146" 
d="M-38 0h25l232 437h642l77 -437h25l-241 1354h-41zM231 459l467 876h2l157 -876h-626zM710 1412q45 0 76 16t49.5 41t23.5 53h-25q-4 -22 -16.5 -42.5t-37.5 -33.5t-66 -13q-37 0 -57 13.5t-27 33.5t-3 42h-24q-5 -28 5.5 -53t36 -41t65.5 -16zM830 1623q27 0 47 6.5
t33.5 17t21 21t9.5 18.5h-23q-3 -8 -13.5 -18.5t-28 -17.5t-39.5 -7q-32 0 -50 8t-30 19t-27 19t-43 8q-23 0 -42.5 -5.5t-34 -15t-24 -20t-12.5 -21.5h23q3 9 14 19t29.5 16.5t41.5 6.5q25 0 39.5 -8t27.5 -19t31 -19t50 -8z" />
    <glyph glyph-name="uni1EB5" unicode="&#x1eb5;" horiz-adv-x="986" 
d="M319 -8q99 0 174 18.5t128.5 47t85.5 58.5t44 54l-30 -170h21l136 774q27 150 -2.5 242.5t-106.5 135.5t-195 43q-81 0 -150 -22t-125.5 -69t-99 -122t-70.5 -182h23q36 132 95.5 214t141 120.5t182.5 38.5q110 0 182.5 -42t100.5 -130.5t2 -228.5l-17 -96h-405
q-53 0 -106.5 -8.5t-102 -31t-88 -62t-65.5 -101t-34 -149.5q-13 -137 20 -208.5t101.5 -97.5t159.5 -26zM324 14q-83 0 -147 25t-96 92.5t-20 194.5q9 102 45 166.5t90 99.5t115.5 48.5t121.5 13.5h403l-78 -440q-24 -45 -80.5 -91.5t-144.5 -77.5t-209 -31zM592 1248
q45 0 76 16t49.5 41t23.5 53h-25q-4 -22 -16.5 -42.5t-37.5 -33.5t-66 -13q-37 0 -57 13.5t-27 33.5t-3 42h-24q-5 -28 5.5 -53t36 -41t65.5 -16zM712 1459q27 0 47 6.5t33.5 17t21 21t9.5 18.5h-23q-3 -8 -13.5 -18.5t-28 -17.5t-39.5 -7q-32 0 -50 8t-30 19t-27 19t-43 8
q-23 0 -42.5 -5.5t-34 -15t-24 -20t-12.5 -21.5h23q3 9 14 19t29.5 16.5t41.5 6.5q25 0 39.5 -8t27.5 -19t31 -19t50 -8z" />
    <glyph glyph-name="uni1EB6" unicode="&#x1eb6;" horiz-adv-x="1146" 
d="M-38 0h25l232 437h642l77 -437h25l-241 1354h-41zM231 459l467 876h2l157 -876h-626zM438 -170q16 0 26.5 11.5t10.5 26.5t-11 25.5t-25 10.5q-16 0 -27 -10.5t-11 -25.5q0 -16 11 -27t26 -11zM710 1412q45 0 76 16t49.5 41t23.5 53h-25q-4 -22 -16.5 -42.5t-37.5 -33.5
t-66 -13q-37 0 -57 13.5t-27 33.5t-3 42h-24q-5 -28 5.5 -53t36 -41t65.5 -16z" />
    <glyph glyph-name="uni1EB7" unicode="&#x1eb7;" horiz-adv-x="986" 
d="M319 -8q99 0 174 18.5t128.5 47t85.5 58.5t44 54l-30 -170h21l136 774q27 150 -2.5 242.5t-106.5 135.5t-195 43q-81 0 -150 -22t-125.5 -69t-99 -122t-70.5 -182h23q36 132 95.5 214t141 120.5t182.5 38.5q110 0 182.5 -42t100.5 -130.5t2 -228.5l-17 -96h-405
q-53 0 -106.5 -8.5t-102 -31t-88 -62t-65.5 -101t-34 -149.5q-13 -137 20 -208.5t101.5 -97.5t159.5 -26zM324 14q-83 0 -147 25t-96 92.5t-20 194.5q9 102 45 166.5t90 99.5t115.5 48.5t121.5 13.5h403l-78 -440q-24 -45 -80.5 -91.5t-144.5 -77.5t-209 -31zM324 -208
q16 0 26.5 11.5t10.5 26.5t-11 25.5t-25 10.5q-16 0 -27 -10.5t-11 -25.5q0 -16 11 -27t26 -11zM592 1248q45 0 76 16t49.5 41t23.5 53h-25q-4 -22 -16.5 -42.5t-37.5 -33.5t-66 -13q-37 0 -57 13.5t-27 33.5t-3 42h-24q-5 -28 5.5 -53t36 -41t65.5 -16z" />
    <glyph glyph-name="uni1EB8" unicode="&#x1eb8;" horiz-adv-x="992" 
d="M-14 0h768l4 22h-746l117 666h712l4 22h-712l109 618h746l4 22h-768zM320 -170q16 0 26.5 11.5t10.5 26.5t-11 25.5t-25 10.5q-16 0 -27 -10.5t-11 -25.5q0 -16 11 -27t26 -11z" />
    <glyph glyph-name="uni1EB9" unicode="&#x1eb9;" horiz-adv-x="1016" 
d="M383 -8l4 22q-183 0 -252 152q-70 151 -25 432q50 310 181 443q130 132 302 132q177 0 254 -131q74 -129 22 -433h-767l-4 -23h791q2 10 3 17q56 319 -23 456q-80 136 -272 136q-186 0 -322 -139t-188 -458q-46 -291 27 -449q73 -157 269 -157zM387 14l-4 -22
q114 0 212 45q97 45 162 149q63 103 96 232h-23q-31 -119 -92 -220q-62 -101 -154 -143q-94 -41 -197 -41zM301 -208q16 0 26.5 11.5t10.5 26.5t-11 25.5t-25 10.5q-16 0 -27 -10.5t-11 -25.5q0 -16 11 -27t26 -11z" />
    <glyph glyph-name="uni1EBA" unicode="&#x1eba;" horiz-adv-x="992" 
d="M-14 0h768l4 22h-746l117 666h712l4 22h-712l109 618h746l4 22h-768zM556 1616l-4 -21q69 0 120 -4t77.5 -16.5t22.5 -38.5q-3 -21 -32 -33.5t-68.5 -17.5t-76.5 -5l-15 -83h22l11 62q18 0 46.5 3.5t58.5 12t51.5 23.5t25.5 38q4 27 -12.5 43t-49 24t-78 10.5t-99.5 2.5z
" />
    <glyph glyph-name="uni1EBB" unicode="&#x1ebb;" horiz-adv-x="1016" 
d="M383 -8l4 22q-183 0 -252 152q-70 151 -25 432q50 310 181 443q130 132 302 132q177 0 254 -131q74 -129 22 -433h-767l-4 -23h791q2 10 3 17q56 319 -23 456q-80 136 -272 136q-186 0 -322 -139t-188 -458q-46 -291 27 -449q73 -157 269 -157zM387 14l-4 -22
q114 0 212 45q97 45 162 149q63 103 96 232h-23q-31 -119 -92 -220q-62 -101 -154 -143q-94 -41 -197 -41zM572 1452l-4 -21q69 0 120 -4t77.5 -16.5t22.5 -38.5q-3 -21 -32 -33.5t-68.5 -17.5t-76.5 -5l-15 -83h22l11 62q18 0 46.5 3.5t58.5 12t51.5 23.5t25.5 38
q4 27 -12.5 43t-49 24t-78 10.5t-99.5 2.5z" />
    <glyph glyph-name="uni1EBC" unicode="&#x1ebc;" horiz-adv-x="992" 
d="M-14 0h768l4 22h-746l117 666h712l4 22h-712l109 618h746l4 22h-768zM683 1451q27 0 47 6.5t33.5 17t21 21t9.5 18.5h-23q-3 -8 -13.5 -18.5t-28 -17.5t-39.5 -7q-32 0 -50 8t-30 19t-27 19t-43 8q-23 0 -42.5 -5.5t-34 -15t-24 -20t-12.5 -21.5h23q3 9 14 19t29.5 16.5
t41.5 6.5q25 0 39.5 -8t27.5 -19t31 -19t50 -8z" />
    <glyph glyph-name="uni1EBD" unicode="&#x1ebd;" horiz-adv-x="1016" 
d="M383 -8l4 22q-183 0 -252 152q-70 151 -25 432q50 310 181 443q130 132 302 132q177 0 254 -131q74 -129 22 -433h-767l-4 -23h791q2 10 3 17q56 319 -23 456q-80 136 -272 136q-186 0 -322 -139t-188 -458q-46 -291 27 -449q73 -157 269 -157zM387 14l-4 -22
q114 0 212 45q97 45 162 149q63 103 96 232h-23q-31 -119 -92 -220q-62 -101 -154 -143q-94 -41 -197 -41zM697 1287q27 0 47 6.5t33.5 17t21 21t9.5 18.5h-23q-3 -8 -13.5 -18.5t-28 -17.5t-39.5 -7q-32 0 -50 8t-30 19t-27 19t-43 8q-23 0 -42.5 -5.5t-34 -15t-24 -20
t-12.5 -21.5h23q3 9 14 19t29.5 16.5t41.5 6.5q25 0 39.5 -8t27.5 -19t31 -19t50 -8z" />
    <glyph glyph-name="uni1EBE" unicode="&#x1ebe;" horiz-adv-x="992" 
d="M-14 0h768l4 22h-746l117 666h712l4 22h-712l109 618h746l4 22h-768zM404 1407h33l178 115l138 -115h31l-154 137h-26zM696 1522h33l148 110h-39z" />
    <glyph glyph-name="uni1EBF" unicode="&#x1ebf;" horiz-adv-x="1016" 
d="M383 -8l4 22q-183 0 -252 152q-70 151 -25 432q50 310 181 443q130 132 302 132q177 0 254 -131q74 -129 22 -433h-767l-4 -23h791q2 10 3 17q56 319 -23 456q-80 136 -272 136q-186 0 -322 -139t-188 -458q-46 -291 27 -449q73 -157 269 -157zM387 14l-4 -22
q114 0 212 45q97 45 162 149q63 103 96 232h-23q-31 -119 -92 -220q-62 -101 -154 -143q-94 -41 -197 -41zM418 1243h33l178 115l138 -115h31l-154 137h-26zM710 1358h33l148 110h-39z" />
    <glyph glyph-name="uni1EC0" unicode="&#x1ec0;" horiz-adv-x="992" 
d="M-14 0h768l4 22h-746l117 666h712l4 22h-712l109 618h746l4 22h-768zM400 1400h33l178 115l138 -115h31l-154 137h-26zM751 1522h32l-104 110h-37z" />
    <glyph glyph-name="uni1EC1" unicode="&#x1ec1;" horiz-adv-x="1016" 
d="M383 -8l4 22q-183 0 -252 152q-70 151 -25 432q50 310 181 443q130 132 302 132q177 0 254 -131q74 -129 22 -433h-767l-4 -23h791q2 10 3 17q56 319 -23 456q-80 136 -272 136q-186 0 -322 -139t-188 -458q-46 -291 27 -449q73 -157 269 -157zM387 14l-4 -22
q114 0 212 45q97 45 162 149q63 103 96 232h-23q-31 -119 -92 -220q-62 -101 -154 -143q-94 -41 -197 -41zM414 1236h33l178 115l138 -115h31l-154 137h-26zM765 1358h32l-104 110h-37z" />
    <glyph glyph-name="uni1EC2" unicode="&#x1ec2;" horiz-adv-x="992" 
d="M-14 0h768l4 22h-746l117 666h712l4 22h-712l109 618h746l4 22h-768zM403 1399h33l178 115l138 -115h31l-154 137h-26zM591 1802l-4 -21q69 0 120 -4t77.5 -16.5t22.5 -38.5q-3 -21 -32 -33.5t-68.5 -17.5t-76.5 -5l-15 -83h22l11 62q18 0 46.5 3.5t58.5 12t51.5 23.5
t25.5 38q4 27 -12.5 43t-49 24t-78 10.5t-99.5 2.5z" />
    <glyph glyph-name="uni1EC3" unicode="&#x1ec3;" horiz-adv-x="1016" 
d="M383 -8l4 22q-183 0 -252 152q-70 151 -25 432q50 310 181 443q130 132 302 132q177 0 254 -131q74 -129 22 -433h-767l-4 -23h791q2 10 3 17q56 319 -23 456q-80 136 -272 136q-186 0 -322 -139t-188 -458q-46 -291 27 -449q73 -157 269 -157zM387 14l-4 -22
q114 0 212 45q97 45 162 149q63 103 96 232h-23q-31 -119 -92 -220q-62 -101 -154 -143q-94 -41 -197 -41zM417 1235h33l178 115l138 -115h31l-154 137h-26zM605 1638l-4 -21q69 0 120 -4t77.5 -16.5t22.5 -38.5q-3 -21 -32 -33.5t-68.5 -17.5t-76.5 -5l-15 -83h22l11 62
q18 0 46.5 3.5t58.5 12t51.5 23.5t25.5 38q4 27 -12.5 43t-49 24t-78 10.5t-99.5 2.5z" />
    <glyph glyph-name="uni1EC4" unicode="&#x1ec4;" horiz-adv-x="992" 
d="M-14 0h768l4 22h-746l117 666h712l4 22h-712l109 618h746l4 22h-768zM403 1399h33l178 115l138 -115h31l-154 137h-26zM716 1637q27 0 47 6.5t33.5 17t21 21t9.5 18.5h-23q-3 -8 -13.5 -18.5t-28 -17.5t-39.5 -7q-32 0 -50 8t-30 19t-27 19t-43 8q-23 0 -42.5 -5.5
t-34 -15t-24 -20t-12.5 -21.5h23q3 9 14 19t29.5 16.5t41.5 6.5q25 0 39.5 -8t27.5 -19t31 -19t50 -8z" />
    <glyph glyph-name="uni1EC5" unicode="&#x1ec5;" horiz-adv-x="1016" 
d="M383 -8l4 22q-183 0 -252 152q-70 151 -25 432q50 310 181 443q130 132 302 132q177 0 254 -131q74 -129 22 -433h-767l-4 -23h791q2 10 3 17q56 319 -23 456q-80 136 -272 136q-186 0 -322 -139t-188 -458q-46 -291 27 -449q73 -157 269 -157zM387 14l-4 -22
q114 0 212 45q97 45 162 149q63 103 96 232h-23q-31 -119 -92 -220q-62 -101 -154 -143q-94 -41 -197 -41zM417 1235h33l178 115l138 -115h31l-154 137h-26zM730 1473q27 0 47 6.5t33.5 17t21 21t9.5 18.5h-23q-3 -8 -13.5 -18.5t-28 -17.5t-39.5 -7q-32 0 -50 8t-30 19
t-27 19t-43 8q-23 0 -42.5 -5.5t-34 -15t-24 -20t-12.5 -21.5h23q3 9 14 19t29.5 16.5t41.5 6.5q25 0 39.5 -8t27.5 -19t31 -19t50 -8z" />
    <glyph glyph-name="uni1EC6" unicode="&#x1ec6;" horiz-adv-x="992" 
d="M-14 0h768l4 22h-746l117 666h712l4 22h-712l109 618h746l4 22h-768zM320 -170q16 0 26.5 11.5t10.5 26.5t-11 25.5t-25 10.5q-16 0 -27 -10.5t-11 -25.5q0 -16 11 -27t26 -11zM403 1399h33l178 115l138 -115h31l-154 137h-26z" />
    <glyph glyph-name="uni1EC7" unicode="&#x1ec7;" horiz-adv-x="1016" 
d="M383 -8l4 22q-183 0 -252 152q-70 151 -25 432q50 310 181 443q130 132 302 132q177 0 254 -131q74 -129 22 -433h-767l-4 -23h791q2 10 3 17q56 319 -23 456q-80 136 -272 136q-186 0 -322 -139t-188 -458q-46 -291 27 -449q73 -157 269 -157zM387 14l-4 -22
q114 0 212 45q97 45 162 149q63 103 96 232h-23q-31 -119 -92 -220q-62 -101 -154 -143q-94 -41 -197 -41zM301 -208q16 0 26.5 11.5t10.5 26.5t-11 25.5t-25 10.5q-16 0 -27 -10.5t-11 -25.5q0 -16 11 -27t26 -11zM417 1235h33l178 115l138 -115h31l-154 137h-26z" />
    <glyph glyph-name="uni1EC8" unicode="&#x1ec8;" horiz-adv-x="399" 
d="M61 0h22l239 1350h-22zM289 1616l-4 -21q69 0 120 -4t77.5 -16.5t22.5 -38.5q-3 -21 -32 -33.5t-68.5 -17.5t-76.5 -5l-15 -83h22l11 62q18 0 46.5 3.5t58.5 12t51.5 23.5t25.5 38q4 27 -12.5 43t-49 24t-78 10.5t-99.5 2.5z" />
    <glyph glyph-name="uni1EC9" unicode="&#x1ec9;" horiz-adv-x="311" 
d="M25 0h22l209 1184h-22zM223 1452l-4 -21q69 0 120 -4t77.5 -16.5t22.5 -38.5q-3 -21 -32 -33.5t-68.5 -17.5t-76.5 -5l-15 -83h22l11 62q18 0 46.5 3.5t58.5 12t51.5 23.5t25.5 38q4 27 -12.5 43t-49 24t-78 10.5t-99.5 2.5z" />
    <glyph glyph-name="uni1ECA" unicode="&#x1eca;" horiz-adv-x="399" 
d="M61 0h22l239 1350h-22zM47 -170q16 0 26.5 11.5t10.5 26.5t-11 25.5t-25 10.5q-16 0 -27 -10.5t-11 -25.5q0 -16 11 -27t26 -11z" />
    <glyph glyph-name="uni1ECB" unicode="&#x1ecb;" horiz-adv-x="363" 
d="M56 0h22l209 1186h-22zM315 1466l-19 -103h22l19 103h-22zM51 -208q16 0 26.5 11.5t10.5 26.5t-11 25.5t-25 10.5q-16 0 -27 -10.5t-11 -25.5q0 -16 11 -27t26 -11z" />
    <glyph glyph-name="uni1ECC" unicode="&#x1ecc;" horiz-adv-x="1174" 
d="M459 -8q218 0 382.5 151t226.5 532q61 378 -44.5 531.5t-323.5 153.5t-382.5 -152t-226.5 -533q-61 -379 44.5 -531t323.5 -152zM463 14q-204 0 -306.5 145.5t-42.5 515.5q61 370 219.5 516.5t362.5 146.5t306.5 -146.5t42.5 -516.5q-60 -371 -219 -516t-363 -145z
M436 -170q16 0 26.5 11.5t10.5 26.5t-11 25.5t-25 10.5q-16 0 -27 -10.5t-11 -25.5q0 -16 11 -27t26 -11z" />
    <glyph glyph-name="uni1ECD" unicode="&#x1ecd;" horiz-adv-x="1022" 
d="M380 -8q184 0 324 135t194 466q53 331 -34.5 467t-271.5 136q-185 0 -325.5 -135.5t-193.5 -467.5q-53 -330 34.5 -465.5t272.5 -135.5zM383 14q-169 0 -253.5 129t-33.5 450q52 320 187.5 450.5t304.5 130.5t254 -129.5t33 -451.5q-52 -319 -187.5 -449t-304.5 -130z
M360 -208q16 0 26.5 11.5t10.5 26.5t-11 25.5t-25 10.5q-16 0 -27 -10.5t-11 -25.5q0 -16 11 -27t26 -11z" />
    <glyph glyph-name="uni1ECE" unicode="&#x1ece;" horiz-adv-x="1174" 
d="M459 -8q218 0 382.5 151t226.5 532q61 378 -44.5 531.5t-323.5 153.5t-382.5 -152t-226.5 -533q-61 -379 44.5 -531t323.5 -152zM463 14q-204 0 -306.5 145.5t-42.5 515.5q61 370 219.5 516.5t362.5 146.5t306.5 -146.5t42.5 -516.5q-60 -371 -219 -516t-363 -145z
M672 1616l-4 -21q69 0 120 -4t77.5 -16.5t22.5 -38.5q-3 -21 -32 -33.5t-68.5 -17.5t-76.5 -5l-15 -83h22l11 62q18 0 46.5 3.5t58.5 12t51.5 23.5t25.5 38q4 27 -12.5 43t-49 24t-78 10.5t-99.5 2.5z" />
    <glyph glyph-name="uni1ECF" unicode="&#x1ecf;" horiz-adv-x="1022" 
d="M380 -8q184 0 324 135t194 466q53 331 -34.5 467t-271.5 136q-185 0 -325.5 -135.5t-193.5 -467.5q-53 -330 34.5 -465.5t272.5 -135.5zM383 14q-169 0 -253.5 129t-33.5 450q52 320 187.5 450.5t304.5 130.5t254 -129.5t33 -451.5q-52 -319 -187.5 -449t-304.5 -130z
M565 1452l-4 -21q69 0 120 -4t77.5 -16.5t22.5 -38.5q-3 -21 -32 -33.5t-68.5 -17.5t-76.5 -5l-15 -83h22l11 62q18 0 46.5 3.5t58.5 12t51.5 23.5t25.5 38q4 27 -12.5 43t-49 24t-78 10.5t-99.5 2.5z" />
    <glyph glyph-name="uni1ED0" unicode="&#x1ed0;" horiz-adv-x="1174" 
d="M459 -8q218 0 382.5 151t226.5 532q61 378 -44.5 531.5t-323.5 153.5t-382.5 -152t-226.5 -533q-61 -379 44.5 -531t323.5 -152zM463 14q-204 0 -306.5 145.5t-42.5 515.5q61 370 219.5 516.5t362.5 146.5t306.5 -146.5t42.5 -516.5q-60 -371 -219 -516t-363 -145z
M520 1407h33l178 115l138 -115h31l-154 137h-26zM812 1522h33l148 110h-39z" />
    <glyph glyph-name="uni1ED1" unicode="&#x1ed1;" horiz-adv-x="1022" 
d="M380 -8q184 0 324 135t194 466q53 331 -34.5 467t-271.5 136q-185 0 -325.5 -135.5t-193.5 -467.5q-53 -330 34.5 -465.5t272.5 -135.5zM383 14q-169 0 -253.5 129t-33.5 450q52 320 187.5 450.5t304.5 130.5t254 -129.5t33 -451.5q-52 -319 -187.5 -449t-304.5 -130z
M411 1243h33l178 115l138 -115h31l-154 137h-26zM702 1358h33l148 110h-39z" />
    <glyph glyph-name="uni1ED2" unicode="&#x1ed2;" horiz-adv-x="1174" 
d="M459 -8q218 0 382.5 151t226.5 532q61 378 -44.5 531.5t-323.5 153.5t-382.5 -152t-226.5 -533q-61 -379 44.5 -531t323.5 -152zM463 14q-204 0 -306.5 145.5t-42.5 515.5q61 370 219.5 516.5t362.5 146.5t306.5 -146.5t42.5 -516.5q-60 -371 -219 -516t-363 -145z
M516 1400h33l178 115l138 -115h31l-154 137h-26zM867 1522h32l-104 110h-37z" />
    <glyph glyph-name="uni1ED3" unicode="&#x1ed3;" horiz-adv-x="1022" 
d="M380 -8q184 0 324 135t194 466q53 331 -34.5 467t-271.5 136q-185 0 -325.5 -135.5t-193.5 -467.5q-53 -330 34.5 -465.5t272.5 -135.5zM383 14q-169 0 -253.5 129t-33.5 450q52 320 187.5 450.5t304.5 130.5t254 -129.5t33 -451.5q-52 -319 -187.5 -449t-304.5 -130z
M406 1236h33l178 115l138 -115h31l-154 137h-26zM758 1358h32l-104 110h-37z" />
    <glyph glyph-name="uni1ED4" unicode="&#x1ed4;" horiz-adv-x="1174" 
d="M459 -8q218 0 382.5 151t226.5 532q61 378 -44.5 531.5t-323.5 153.5t-382.5 -152t-226.5 -533q-61 -379 44.5 -531t323.5 -152zM463 14q-204 0 -306.5 145.5t-42.5 515.5q61 370 219.5 516.5t362.5 146.5t306.5 -146.5t42.5 -516.5q-60 -371 -219 -516t-363 -145z
M519 1399h33l178 115l138 -115h31l-154 137h-26zM707 1802l-4 -21q69 0 120 -4t77.5 -16.5t22.5 -38.5q-3 -21 -32 -33.5t-68.5 -17.5t-76.5 -5l-15 -83h22l11 62q18 0 46.5 3.5t58.5 12t51.5 23.5t25.5 38q4 27 -12.5 43t-49 24t-78 10.5t-99.5 2.5z" />
    <glyph glyph-name="uni1ED5" unicode="&#x1ed5;" horiz-adv-x="1022" 
d="M380 -8q184 0 324 135t194 466q53 331 -34.5 467t-271.5 136q-185 0 -325.5 -135.5t-193.5 -467.5q-53 -330 34.5 -465.5t272.5 -135.5zM383 14q-169 0 -253.5 129t-33.5 450q52 320 187.5 450.5t304.5 130.5t254 -129.5t33 -451.5q-52 -319 -187.5 -449t-304.5 -130z
M410 1235h33l178 115l138 -115h31l-154 137h-26zM597 1638l-4 -21q69 0 120 -4t77.5 -16.5t22.5 -38.5q-3 -21 -32 -33.5t-68.5 -17.5t-76.5 -5l-15 -83h22l11 62q18 0 46.5 3.5t58.5 12t51.5 23.5t25.5 38q4 27 -12.5 43t-49 24t-78 10.5t-99.5 2.5z" />
    <glyph glyph-name="uni1ED6" unicode="&#x1ed6;" horiz-adv-x="1174" 
d="M459 -8q218 0 382.5 151t226.5 532q61 378 -44.5 531.5t-323.5 153.5t-382.5 -152t-226.5 -533q-61 -379 44.5 -531t323.5 -152zM463 14q-204 0 -306.5 145.5t-42.5 515.5q61 370 219.5 516.5t362.5 146.5t306.5 -146.5t42.5 -516.5q-60 -371 -219 -516t-363 -145z
M519 1399h33l178 115l138 -115h31l-154 137h-26zM832 1637q27 0 47 6.5t33.5 17t21 21t9.5 18.5h-23q-3 -8 -13.5 -18.5t-28 -17.5t-39.5 -7q-32 0 -50 8t-30 19t-27 19t-43 8q-23 0 -42.5 -5.5t-34 -15t-24 -20t-12.5 -21.5h23q3 9 14 19t29.5 16.5t41.5 6.5q25 0 39.5 -8
t27.5 -19t31 -19t50 -8z" />
    <glyph glyph-name="uni1ED7" unicode="&#x1ed7;" horiz-adv-x="1022" 
d="M380 -8q184 0 324 135t194 466q53 331 -34.5 467t-271.5 136q-185 0 -325.5 -135.5t-193.5 -467.5q-53 -330 34.5 -465.5t272.5 -135.5zM383 14q-169 0 -253.5 129t-33.5 450q52 320 187.5 450.5t304.5 130.5t254 -129.5t33 -451.5q-52 -319 -187.5 -449t-304.5 -130z
M410 1235h33l178 115l138 -115h31l-154 137h-26zM722 1473q27 0 47 6.5t33.5 17t21 21t9.5 18.5h-23q-3 -8 -13.5 -18.5t-28 -17.5t-39.5 -7q-32 0 -50 8t-30 19t-27 19t-43 8q-23 0 -42.5 -5.5t-34 -15t-24 -20t-12.5 -21.5h23q3 9 14 19t29.5 16.5t41.5 6.5q25 0 39.5 -8
t27.5 -19t31 -19t50 -8z" />
    <glyph glyph-name="uni1ED8" unicode="&#x1ed8;" horiz-adv-x="1174" 
d="M459 -8q218 0 382.5 151t226.5 532q61 378 -44.5 531.5t-323.5 153.5t-382.5 -152t-226.5 -533q-61 -379 44.5 -531t323.5 -152zM463 14q-204 0 -306.5 145.5t-42.5 515.5q61 370 219.5 516.5t362.5 146.5t306.5 -146.5t42.5 -516.5q-60 -371 -219 -516t-363 -145z
M436 -170q16 0 26.5 11.5t10.5 26.5t-11 25.5t-25 10.5q-16 0 -27 -10.5t-11 -25.5q0 -16 11 -27t26 -11zM519 1399h33l178 115l138 -115h31l-154 137h-26z" />
    <glyph glyph-name="uni1ED9" unicode="&#x1ed9;" horiz-adv-x="1022" 
d="M380 -8q184 0 324 135t194 466q53 331 -34.5 467t-271.5 136q-185 0 -325.5 -135.5t-193.5 -467.5q-53 -330 34.5 -465.5t272.5 -135.5zM383 14q-169 0 -253.5 129t-33.5 450q52 320 187.5 450.5t304.5 130.5t254 -129.5t33 -451.5q-52 -319 -187.5 -449t-304.5 -130z
M360 -208q16 0 26.5 11.5t10.5 26.5t-11 25.5t-25 10.5q-16 0 -27 -10.5t-11 -25.5q0 -16 11 -27t26 -11zM410 1235h33l178 115l138 -115h31l-154 137h-26z" />
    <glyph glyph-name="uni1EDA" unicode="&#x1eda;" horiz-adv-x="1174" 
d="M459 -8q218 0 382.5 151t226.5 532q61 378 -44.5 531.5t-323.5 153.5t-382.5 -152t-226.5 -533q-61 -379 44.5 -531t323.5 -152zM463 14q-204 0 -306.5 145.5t-42.5 515.5q61 370 219.5 516.5t362.5 146.5t306.5 -146.5t42.5 -516.5q-60 -371 -219 -516t-363 -145z
M998 1220l-3 -19q85 0 136 14.5t77 46.5t35 85h-24q-8 -47 -30 -74.5t-67 -40t-124 -12.5zM626 1392h33l148 110h-39z" />
    <glyph glyph-name="uni1EDB" unicode="&#x1edb;" horiz-adv-x="1022" 
d="M380 -8q184 0 324 135t194 466q53 331 -34.5 467t-271.5 136q-185 0 -325.5 -135.5t-193.5 -467.5q-53 -330 34.5 -465.5t272.5 -135.5zM383 14q-169 0 -253.5 129t-33.5 450q52 320 187.5 450.5t304.5 130.5t254 -129.5t33 -451.5q-52 -319 -187.5 -449t-304.5 -130z
M845 1078l-3 -19q85 0 136 14.5t77 46.5t35 85h-24q-8 -47 -30 -74.5t-67 -40t-124 -12.5zM516 1228h33l148 110h-39z" />
    <glyph glyph-name="uni1EDC" unicode="&#x1edc;" horiz-adv-x="1174" 
d="M459 -8q218 0 382.5 151t226.5 532q61 378 -44.5 531.5t-323.5 153.5t-382.5 -152t-226.5 -533q-61 -379 44.5 -531t323.5 -152zM463 14q-204 0 -306.5 145.5t-42.5 515.5q61 370 219.5 516.5t362.5 146.5t306.5 -146.5t42.5 -516.5q-60 -371 -219 -516t-363 -145z
M998 1220l-3 -19q85 0 136 14.5t77 46.5t35 85h-24q-8 -47 -30 -74.5t-67 -40t-124 -12.5zM760 1412h32l-104 110h-37z" />
    <glyph glyph-name="uni1EDD" unicode="&#x1edd;" horiz-adv-x="1022" 
d="M380 -8q184 0 324 135t194 466q53 331 -34.5 467t-271.5 136q-185 0 -325.5 -135.5t-193.5 -467.5q-53 -330 34.5 -465.5t272.5 -135.5zM383 14q-169 0 -253.5 129t-33.5 450q52 320 187.5 450.5t304.5 130.5t254 -129.5t33 -451.5q-52 -319 -187.5 -449t-304.5 -130z
M845 1078l-3 -19q85 0 136 14.5t77 46.5t35 85h-24q-8 -47 -30 -74.5t-67 -40t-124 -12.5zM649 1248h32l-104 110h-37z" />
    <glyph glyph-name="uni1EDE" unicode="&#x1ede;" horiz-adv-x="1174" 
d="M459 -8q218 0 382.5 151t226.5 532q61 378 -44.5 531.5t-323.5 153.5t-382.5 -152t-226.5 -533q-61 -379 44.5 -531t323.5 -152zM463 14q-204 0 -306.5 145.5t-42.5 515.5q61 370 219.5 516.5t362.5 146.5t306.5 -146.5t42.5 -516.5q-60 -371 -219 -516t-363 -145z
M998 1220l-3 -19q85 0 136 14.5t77 46.5t35 85h-24q-8 -47 -30 -74.5t-67 -40t-124 -12.5zM672 1616l-4 -21q69 0 120 -4t77.5 -16.5t22.5 -38.5q-3 -21 -32 -33.5t-68.5 -17.5t-76.5 -5l-15 -83h22l11 62q18 0 46.5 3.5t58.5 12t51.5 23.5t25.5 38q4 27 -12.5 43t-49 24
t-78 10.5t-99.5 2.5z" />
    <glyph glyph-name="uni1EDF" unicode="&#x1edf;" horiz-adv-x="1022" 
d="M380 -8q184 0 324 135t194 466q53 331 -34.5 467t-271.5 136q-185 0 -325.5 -135.5t-193.5 -467.5q-53 -330 34.5 -465.5t272.5 -135.5zM383 14q-169 0 -253.5 129t-33.5 450q52 320 187.5 450.5t304.5 130.5t254 -129.5t33 -451.5q-52 -319 -187.5 -449t-304.5 -130z
M845 1078l-3 -19q85 0 136 14.5t77 46.5t35 85h-24q-8 -47 -30 -74.5t-67 -40t-124 -12.5zM565 1452l-4 -21q69 0 120 -4t77.5 -16.5t22.5 -38.5q-3 -21 -32 -33.5t-68.5 -17.5t-76.5 -5l-15 -83h22l11 62q18 0 46.5 3.5t58.5 12t51.5 23.5t25.5 38q4 27 -12.5 43t-49 24
t-78 10.5t-99.5 2.5z" />
    <glyph glyph-name="uni1EE0" unicode="&#x1ee0;" horiz-adv-x="1174" 
d="M459 -8q218 0 382.5 151t226.5 532q61 378 -44.5 531.5t-323.5 153.5t-382.5 -152t-226.5 -533q-61 -379 44.5 -531t323.5 -152zM463 14q-204 0 -306.5 145.5t-42.5 515.5q61 370 219.5 516.5t362.5 146.5t306.5 -146.5t42.5 -516.5q-60 -371 -219 -516t-363 -145z
M998 1220l-3 -19q85 0 136 14.5t77 46.5t35 85h-24q-8 -47 -30 -74.5t-67 -40t-124 -12.5zM799 1451q27 0 47 6.5t33.5 17t21 21t9.5 18.5h-23q-3 -8 -13.5 -18.5t-28 -17.5t-39.5 -7q-32 0 -50 8t-30 19t-27 19t-43 8q-23 0 -42.5 -5.5t-34 -15t-24 -20t-12.5 -21.5h23
q3 9 14 19t29.5 16.5t41.5 6.5q25 0 39.5 -8t27.5 -19t31 -19t50 -8z" />
    <glyph glyph-name="uni1EE1" unicode="&#x1ee1;" horiz-adv-x="1022" 
d="M380 -8q184 0 324 135t194 466q53 331 -34.5 467t-271.5 136q-185 0 -325.5 -135.5t-193.5 -467.5q-53 -330 34.5 -465.5t272.5 -135.5zM383 14q-169 0 -253.5 129t-33.5 450q52 320 187.5 450.5t304.5 130.5t254 -129.5t33 -451.5q-52 -319 -187.5 -449t-304.5 -130z
M845 1078l-3 -19q85 0 136 14.5t77 46.5t35 85h-24q-8 -47 -30 -74.5t-67 -40t-124 -12.5zM690 1287q27 0 47 6.5t33.5 17t21 21t9.5 18.5h-23q-3 -8 -13.5 -18.5t-28 -17.5t-39.5 -7q-32 0 -50 8t-30 19t-27 19t-43 8q-23 0 -42.5 -5.5t-34 -15t-24 -20t-12.5 -21.5h23
q3 9 14 19t29.5 16.5t41.5 6.5q25 0 39.5 -8t27.5 -19t31 -19t50 -8z" />
    </font>
</defs>
</svg>
