<?xml version="1.0" standalone="no"?>
<!DOCTYPE svg PUBLIC "-//W3C//DTD SVG 1.1//EN" "http://www.w3.org/Graphics/SVG/1.1/DTD/svg11.dtd" >
<svg xmlns="http://www.w3.org/2000/svg" xmlns:xlink="http://www.w3.org/1999/xlink" version="1.1">
<metadata>
Created by FontForge 20201107 at Wed Mar  8 16:58:28 2023
 By 
Copyright 2020 The Anybody Project Authors (https://github.com/Etcetera-Type-Co/Anybody)
</metadata>
<defs>
<font id="Anybody-BoldItalic" horiz-adv-x="0" >
  <font-face 
    font-family="Anybody"
    font-weight="700"
    font-style="italic"
    font-stretch="normal"
    units-per-em="2000"
    panose-1="0 0 0 0 0 0 0 0 0 0"
    ascent="1600"
    descent="-400"
    x-height="1185"
    cap-height="1350"
    bbox="-438 -549 2912 1966"
    underline-thickness="104"
    underline-position="-262"
    slope="-10"
    unicode-range="U+000D-FB02"
  />
<missing-glyph horiz-adv-x="577" 
d="M28 146h348l184 1042h-348zM144 226l200 172l-16 20l-200 -172zM296 228l22 18l-140 172l-22 -18zM204 564l200 172l-16 20l-200 -172zM356 566l22 18l-140 172l-22 -18zM58 172l176 990h296l-176 -990h-296zM264 902l200 172l-16 20l-202 -172zM416 904l20 18l-138 172
l-22 -18z" />
    <glyph glyph-name="fi" unicode="fi" horiz-adv-x="1579" 
d="M164 0h335l170 956h318l41 229h-320l8 41q14 80 86.5 106t229.5 26h33l38 221h-41q-299 0 -473.5 -80.5t-208.5 -271.5l-8 -42h-242l-41 -229h244zM1009 0h336l209 1186h-337zM1280 1542l-41 -235h336l42 235h-337z" />
    <glyph glyph-name="fl" unicode="fl" horiz-adv-x="1565" 
d="M164 0h335l170 956h318l41 229h-320l8 41q14 80 86.5 106t229.5 26h33l38 221h-41q-299 0 -473.5 -80.5t-208.5 -271.5l-8 -42h-242l-41 -229h244zM992 0h337l276 1570h-336z" />
    <glyph glyph-name="f_f" unicode="ff" horiz-adv-x="1968" 
d="M164 0h335l170 956h318l41 229h-320l8 41q14 80 86.5 106t229.5 26h33l38 221h-41q-299 0 -473.5 -80.5t-208.5 -271.5l-8 -42h-242l-41 -229h244zM1123 0h335l170 956h318l41 229h-320l8 41q14 80 86.5 106t229.5 26h33l38 221h-41q-299 0 -473.5 -80.5t-208.5 -271.5
l-8 -42h-242l-41 -229h244z" />
    <glyph glyph-name="f_f_i" unicode="ffi" horiz-adv-x="2538" 
d="M164 0h335l170 956h318l41 229h-320l8 41q14 80 86.5 106t229.5 26h33l38 221h-41q-299 0 -473.5 -80.5t-208.5 -271.5l-8 -42h-242l-41 -229h244zM1123 0h335l170 956h318l41 229h-320l8 41q14 80 86.5 106t229.5 26h33l38 221h-41q-299 0 -473.5 -80.5t-208.5 -271.5
l-8 -42h-242l-41 -229h244zM1968 0h336l209 1186h-337zM2239 1542l-41 -235h336l42 235h-337z" />
    <glyph glyph-name="f_f_l" unicode="ffl" horiz-adv-x="2523" 
d="M164 0h335l170 956h318l41 229h-320l8 41q14 80 86.5 106t229.5 26h33l38 221h-41q-299 0 -473.5 -80.5t-208.5 -271.5l-8 -42h-242l-41 -229h244zM1123 0h335l170 956h318l41 229h-320l8 41q14 80 86.5 106t229.5 26h33l38 221h-41q-299 0 -473.5 -80.5t-208.5 -271.5
l-8 -42h-242l-41 -229h244zM1951 0h337l276 1570h-336z" />
    <glyph glyph-name=".notdef" horiz-adv-x="577" 
d="M28 146h348l184 1042h-348zM144 226l200 172l-16 20l-200 -172zM296 228l22 18l-140 172l-22 -18zM204 564l200 172l-16 20l-200 -172zM356 566l22 18l-140 172l-22 -18zM58 172l176 990h296l-176 -990h-296zM264 902l200 172l-16 20l-202 -172zM416 904l20 18l-138 172
l-22 -18z" />
    <glyph glyph-name=".null" 
 />
    <glyph glyph-name="nonmarkingreturn" horiz-adv-x="666" 
 />
    <glyph glyph-name="CR" unicode="&#xd;" horiz-adv-x="425" 
 />
    <glyph glyph-name="space" unicode=" " horiz-adv-x="513" 
 />
    <glyph glyph-name="exclam" unicode="!" horiz-adv-x="515" 
d="M67 411h325l197 939h-388zM-24 -16h335l46 260h-335z" />
    <glyph glyph-name="quotedbl" unicode="&#x22;" horiz-adv-x="560" 
d="M363 828h191l91 522h-191zM91 828h199l91 522h-198z" />
    <glyph glyph-name="numbersign" unicode="#" horiz-adv-x="1500" 
d="M726 0h256l431 1350h-255zM-16 318h1363l34 198h-1363zM75 0h254l432 1350h-256zM106 830h1363l35 199h-1363z" />
    <glyph glyph-name="dollar" unicode="$" horiz-adv-x="1255" 
d="M618 1208l208 -1l31 174h-209zM398 -30h208l30 170h-208zM552 82q235 0 414 87t206 276q26 179 -80 253.5t-323 104.5q-156 24 -247.5 46t-80.5 95q7 56 68.5 89.5t169.5 33.5q116 0 183 -51.5t73 -142.5l314 106q-13 168 -153.5 237.5t-379.5 69.5q-238 0 -409.5 -82.5
t-196.5 -259.5q-26 -179 77.5 -258.5t305.5 -107.5q165 -28 260 -51.5t84 -100.5q-8 -54 -72.5 -88t-176.5 -34q-127 0 -196 50t-74 151l-314 -108q18 -173 165.5 -244t382.5 -71z" />
    <glyph glyph-name="percent" unicode="%" horiz-adv-x="1472" 
d="M-38 0h234l1332 1348h-233zM419 826q167 0 260.5 53.5t115.5 176.5l14 80q22 124 -56.5 178t-247.5 54q-167 0 -261 -54t-117 -178l-14 -80q-22 -122 57.5 -176t248.5 -54zM436 956q-66 0 -92.5 21.5t-16.5 75.5l15 86q10 56 43.5 77t99.5 21q65 0 92.5 -21.5t17.5 -76.5
l-16 -86q-10 -54 -44 -75.5t-99 -21.5zM1006 -8q168 0 260.5 54.5t114.5 177.5l15 79q22 123 -57 177t-247 54t-262 -54t-116 -177l-14 -79q-22 -122 58 -177t248 -55zM1023 122q-66 0 -92.5 22t-16.5 77l16 86q10 55 43 75.5t99 20.5q64 0 92 -21t18 -75l-16 -86
q-9 -55 -43.5 -77t-99.5 -22z" />
    <glyph glyph-name="ampersand" unicode="&#x26;" horiz-adv-x="1616" 
d="M546 -12q345 0 643 178.5t357 514.5h-301q-42 -241 -242 -350.5t-407 -109.5q-163 0 -226.5 35.5t-51.5 112.5q13 80 107 132.5t290 123.5q192 78 347 165.5t177 238.5q25 168 -100.5 250.5t-340.5 82.5q-199 0 -357 -83.5t-182 -251.5q-20 -126 59.5 -234t151.5 -180
l602 -613h384l-718 772q-79 76 -124.5 133.5t-33.5 121.5q10 60 59 87.5t127 27.5q79 0 122 -27.5t33 -87.5q-11 -63 -95.5 -114.5t-236.5 -96.5q-163 -68 -376 -174.5t-233 -294.5q-19 -181 122.5 -270t443.5 -89z" />
    <glyph glyph-name="quotesingle" unicode="'" horiz-adv-x="348" 
d="M105 857h242l88 493h-242z" />
    <glyph glyph-name="parenleft" unicode="(" horiz-adv-x="720" 
d="M207 -481l272 144q-20 27 -48 76t-55 122t-44.5 170t-17.5 220.5t26 274.5q28 152 72 276.5t96 223t104.5 173t98.5 125t75 76.5l-222 143q-30 -24 -81.5 -76.5t-113.5 -137t-125 -201t-116.5 -266.5t-85.5 -336q-33 -185 -32.5 -335t22.5 -264t54.5 -196t65.5 -135
t55 -77z" />
    <glyph glyph-name="parenright" unicode=")" horiz-adv-x="724" 
d="M144 -481q30 24 81.5 77t113 135t124 196t116 264t86.5 335q32 186 32 336t-22 266.5t-54.5 201t-65.5 137t-55 76.5l-271 -143q20 -26 47.5 -76t54.5 -124.5t44.5 -173t17.5 -223.5t-27 -277q-26 -150 -70 -273.5t-96.5 -220.5t-105 -170t-97.5 -122.5t-75 -76.5z" />
    <glyph glyph-name="asterisk" unicode="*" horiz-adv-x="595" 
d="M216 1181l462 248l-38 91l-463 -247zM580 1181l67 87l-371 252l-69 -88zM338 1146h106l73 409h-106z" />
    <glyph glyph-name="plus" unicode="+" horiz-adv-x="600" 
d="M134 191h218l31 188h166l37 202h-165l32 189h-217l-33 -189h-166l-38 -202h168z" />
    <glyph glyph-name="comma" unicode="," horiz-adv-x="611" 
d="M-114 -272h193l291 429h-311z" />
    <glyph glyph-name="hyphen" unicode="-" horiz-adv-x="919" 
d="M5 368h776l39 221h-774z" />
    <glyph glyph-name="period" unicode="." horiz-adv-x="478" 
d="M12 247l-43 -247h315l44 247h-316z" />
    <glyph glyph-name="slash" unicode="/" horiz-adv-x="930" 
d="M-87 0h286l846 1348h-288z" />
    <glyph glyph-name="zero" unicode="0" horiz-adv-x="1204" 
d="M467 -15q270 0 417.5 93.5t185.5 293.5l108 602q37 200 -77 293.5t-384 93.5t-418 -93t-185 -294l-108 -602q-37 -200 76.5 -293.5t384.5 -93.5zM509 216q-105 0 -141.5 41t-20.5 130l102 573q17 89 69 129.5t157 40.5q103 0 140.5 -41t20.5 -129l-102 -573
q-16 -88 -69.5 -129.5t-155.5 -41.5z" />
    <glyph glyph-name="one" unicode="1" horiz-adv-x="1132" 
d="M-40 0h999l41 231h-327l197 1121h-279l-420 -114l-43 -246l359 88l-150 -849h-336z" />
    <glyph glyph-name="two" unicode="2" horiz-adv-x="1228" 
d="M-44 0h1074l40 231h-718q8 50 93 105.5t265 139.5q196 100 335 211.5t158 283.5q17 145 -57.5 267.5t-407.5 122.5q-332 0 -463.5 -140.5t-165.5 -336.5h336q27 149 92 197.5t168 48.5q92 0 132 -34.5t26 -128.5q-15 -90 -80.5 -149t-285.5 -156q-234 -103 -357.5 -213.5
t-148.5 -251.5z" />
    <glyph glyph-name="three" unicode="3" horiz-adv-x="1238" 
d="M502 -15q344 0 469 115t148 289q16 125 -39 204t-216 85q163 5 252 87t106 209q22 166 -57 276.5t-421 110.5q-329 0 -462.5 -135t-171.5 -354h335q32 175 95 218.5t166 43.5t148.5 -38t23.5 -175q-12 -76 -77.5 -108.5t-217.5 -34.5l-37 -210q153 -1 205.5 -31
t38.5 -108q-22 -138 -82.5 -177.5t-164.5 -39.5t-151.5 42.5t-19.5 203.5h-335q-37 -213 49 -343t416 -130z" />
    <glyph glyph-name="four" unicode="4" horiz-adv-x="1219" 
d="M535 0h335l52 295h169l38 217h-169l148 838h-497l-597 -834l-39 -221h612zM349 512l378 599h4l-106 -599h-276z" />
    <glyph glyph-name="five" unicode="5" horiz-adv-x="1214" 
d="M480 -13q324 0 465 125t171 367q26 208 -46 322t-290 114q-193 0 -360 -83t-213 -253l186 -7q15 63 77 100t153 37q92 0 133 -42t16 -194q-27 -173 -87.5 -217.5t-156.5 -44.5t-138.5 38t-23.5 170h-336q-23 -182 65 -307t385 -125zM57 572h336l97 548h705l40 230h-1041z
" />
    <glyph glyph-name="six" unicode="6" horiz-adv-x="1225" 
d="M484 -13q352 0 477 137t155 354q29 209 -38 320t-299 111q-207 0 -366 -99t-183 -192l148 -73q21 69 87.5 116t161.5 47q97 0 135 -43.5t9 -204.5q-26 -152 -82 -201t-157 -49t-145.5 60.5t3.5 334.5q66 379 141 457t177 78q85 0 115 -43t19 -130h338q23 132 -47.5 263
t-385.5 131q-350 0 -492.5 -179t-196.5 -542q-47 -328 23.5 -490.5t402.5 -162.5z" />
    <glyph glyph-name="seven" unicode="7" horiz-adv-x="1106" 
d="M164 0h364q56 324 222 599t419 522l39 229h-1044l-40 -231h691l-1 -4q-241 -210 -415.5 -493t-234.5 -622z" />
    <glyph glyph-name="eight" unicode="8" horiz-adv-x="1211" 
d="M496 -15q308 0 446 131t166 314q28 179 -97 270t-375 91q-249 0 -410.5 -90t-189.5 -271q-29 -182 53.5 -313.5t406.5 -131.5zM533 212q-99 0 -142 45t-21 162q20 120 77.5 159.5t158.5 39.5q100 0 143 -39.5t23 -159.5q-22 -117 -80.5 -162t-158.5 -45zM613 648
q251 0 397.5 79.5t174.5 253.5q23 150 -67 265t-386 115q-312 0 -434.5 -115t-144.5 -265q-27 -174 91 -253.5t369 -79.5zM640 814q-98 0 -139 36t-23 137q14 79 69.5 115.5t149.5 36.5q95 0 137 -36.5t28 -115.5q-18 -101 -70.5 -137t-151.5 -36z" />
    <glyph glyph-name="nine" unicode="9" horiz-adv-x="1223" 
d="M499 -13q348 0 485 184t196 537q52 312 -19.5 482.5t-400.5 170.5q-355 0 -481 -128.5t-154 -340.5q-27 -208 38.5 -330.5t297.5 -122.5q207 0 365.5 99t181.5 192l-147 73q-17 -69 -84 -112t-162 -43q-97 0 -138 43t-14 200q24 151 85.5 197t163.5 46q100 0 141 -58.5
t-4 -332.5q-66 -389 -138.5 -462t-176.5 -73q-88 0 -118 43t-20 126h-338q-19 -115 46 -252.5t395 -137.5z" />
    <glyph glyph-name="colon" unicode=":" horiz-adv-x="494" 
d="M19 247l-43 -247h315l44 247h-316zM173 1109l-43 -247h315l44 247h-316z" />
    <glyph glyph-name="semicolon" unicode=";" horiz-adv-x="577" 
d="M197 1111l-43 -247h315l44 247h-316zM-104 -172h193l291 429h-311z" />
    <glyph glyph-name="less" unicode="&#x3c;" horiz-adv-x="847" 
d="M676 -7l53 293l-458 200l529 201l51 292l-784 -370l-43 -246z" />
    <glyph glyph-name="equal" unicode="=" horiz-adv-x="626" 
d="M36 602h563l36 198h-563zM-40 171h563l35 196h-563z" />
    <glyph glyph-name="greater" unicode="&#x3e;" horiz-adv-x="847" 
d="M-29 -7l784 370l43 246l-652 370l-52 -292l458 -199l-529 -202z" />
    <glyph glyph-name="question" unicode="?" horiz-adv-x="1217" 
d="M392 395h329q18 83 59.5 148t149.5 141q91 63 176.5 151t97.5 220q18 156 -91 230.5t-389 74.5q-279 0 -429.5 -99.5t-194.5 -346.5h326q22 125 87.5 180t178.5 55q111 0 149 -37.5t26 -112.5q-10 -68 -68 -115t-136 -100q-110 -67 -178 -157.5t-93 -231.5zM379 233
l-44 -248h316l43 248h-315z" />
    <glyph glyph-name="at" unicode="@" horiz-adv-x="1878" 
d="M711 -38q95 0 180 12.5t156.5 31.5t122 40.5t76.5 39.5l-158 156q-7 -7 -32.5 -21.5t-68.5 -29.5t-101.5 -26.5t-131.5 -11.5t-140 17t-122 53t-92 92t-51 135.5t1 182.5q21 147 87.5 251.5t167.5 170t223 96t254 30.5q101 0 181 -15.5t138.5 -48t93.5 -82t46 -116.5
t-4 -151q-16 -91 -43.5 -157.5t-63 -109t-78 -63t-87.5 -20.5q-31 0 -55 10t-34 32.5t1 59.5l139 504h-159l-28 -96q3 18 -11.5 44t-49 46t-92.5 20q-62 0 -126 -25t-120.5 -75t-98.5 -125t-62 -177q-15 -83 -4.5 -144.5t41.5 -102.5t78.5 -61.5t104.5 -20.5q69 0 123 17
t90 43t49 53q-6 -24 2 -51t30.5 -50t60 -36.5t89.5 -13.5q69 0 142 18.5t142.5 57.5t129.5 100t104.5 145.5t64.5 193.5q28 139 -5.5 248t-120.5 185.5t-225.5 116t-321.5 39.5q-162 0 -310.5 -27.5t-277.5 -85t-230 -147t-167.5 -212t-90.5 -279.5q-20 -142 4.5 -251.5
t85.5 -187t148 -126t191.5 -72t214.5 -23.5zM869 449q-37 0 -61 25.5t-31.5 72t3.5 107.5q8 50 30.5 92.5t52.5 74.5t62 49.5t60 17.5q26 0 51.5 -10.5t40.5 -31t10 -50.5l-69 -259q-14 -36 -56 -62t-93 -26z" />
    <glyph glyph-name="A" unicode="A" horiz-adv-x="1459" 
d="M-48 0h350l150 329h459l34 -329h350l-193 1352h-482zM547 553l279 600h3l67 -600h-349z" />
    <glyph glyph-name="B" unicode="B" horiz-adv-x="1358" 
d="M-22 0h808q250 0 338 113.5t106 291.5q14 135 -32 223.5t-167 95.5q120 4 194.5 99t85.5 229q8 104 -32.5 201t-283.5 97h-779zM359 231l68 385h364q83 0 101.5 -47t1.5 -146t-48.5 -145.5t-103.5 -46.5h-383zM463 821l53 299h352q71 0 87 -33.5t3 -105.5t-46 -116
t-107 -44h-342z" />
    <glyph glyph-name="C" unicode="C" horiz-adv-x="1359" 
d="M572 -8q362 0 510 166.5t186 389.5h-343q-34 -193 -113.5 -259t-205.5 -66q-130 0 -190 77t-12 378q48 309 140 381t221 72q127 0 181.5 -62.5t23.5 -262.5h344q35 231 -56 393.5t-455 162.5q-359 0 -524 -171.5t-219 -512.5q-54 -334 48 -510t464 -176z" />
    <glyph glyph-name="D" unicode="D" horiz-adv-x="1354" 
d="M-22 0h700q281 0 419.5 149.5t197.5 526.5q56 369 -28.5 521.5t-365.5 152.5h-685zM358 231l157 888h260q133 0 182 -72t-2 -371q-53 -303 -128.5 -374t-207.5 -71h-261z" />
    <glyph glyph-name="E" unicode="E" horiz-adv-x="1154" 
d="M-36 0h987l40 231h-645l60 343h600l39 220h-600l57 325h645l42 231h-987z" />
    <glyph glyph-name="F" unicode="F" horiz-adv-x="1075" 
d="M-52 0h340l89 501h543l39 221h-543l69 397h594l40 231h-933z" />
    <glyph glyph-name="G" unicode="G" horiz-adv-x="1391" 
d="M542 -8q313 0 429 177l8 -169h192l123 700h-580l-34 -201h230l-10 -49q-31 -128 -96 -177.5t-194 -49.5q-137 0 -191.5 88.5t-13.5 355.5q49 311 138.5 388t224.5 77q130 0 181 -58.5t31 -220.5h341q28 201 -77.5 355t-442.5 154q-361 0 -524.5 -171t-212.5 -513
q-47 -334 46.5 -510t431.5 -176z" />
    <glyph glyph-name="H" unicode="H" horiz-adv-x="1376" 
d="M-22 0h341l98 560h497l-98 -560h340l238 1350h-340l-99 -559h-497l99 559h-340z" />
    <glyph glyph-name="I" unicode="I" horiz-adv-x="619" 
d="M20 0h339l238 1350h-338z" />
    <glyph glyph-name="J" unicode="J" horiz-adv-x="1333" 
d="M530 -11q291 0 449 101.5t194 303.5l168 956h-338l-160 -907q-21 -116 -84.5 -171t-198.5 -55q-134 0 -176.5 57t-20.5 172l29 161h-340l-35 -200q-40 -214 92 -316t421 -102z" />
    <glyph glyph-name="K" unicode="K" horiz-adv-x="1285" 
d="M-22 0h338l103 584l336 -584h379l-392 671l633 679h-387l-537 -584l103 584h-338z" />
    <glyph glyph-name="L" unicode="L" horiz-adv-x="1055" 
d="M-22 0h888l41 230h-549l199 1120h-340z" />
    <glyph glyph-name="M" unicode="M" horiz-adv-x="1820" 
d="M-22 0h335l198 1116h3l84 -1079h395l465 1079h3l-196 -1116h336l237 1350h-554l-450 -1071h-3l-73 1071h-542z" />
    <glyph glyph-name="N" unicode="N" horiz-adv-x="1571" 
d="M-22 0h338l196 1109h3l308 -1109h529l238 1350h-339l-195 -1091h-4l-304 1091h-532z" />
    <glyph glyph-name="O" unicode="O" horiz-adv-x="1411" 
d="M587 -11q359 0 536 173t229 513q51 340 -57 513.5t-466 173.5q-359 0 -536.5 -173t-229.5 -514q-51 -339 57 -512.5t467 -173.5zM628 220q-139 0 -206 78.5t-20 376.5q49 303 148 379.5t238 76.5q138 0 205.5 -76.5t19.5 -379.5q-48 -299 -147.5 -377t-237.5 -78z" />
    <glyph glyph-name="P" unicode="P" horiz-adv-x="1286" 
d="M-22 0h341l63 360h395q254 0 364.5 162t127.5 362q18 170 -30.5 318t-301.5 148h-720zM423 591l93 528h285q97 0 123.5 -61.5t6.5 -193.5q-18 -143 -72 -208t-151 -65h-285z" />
    <glyph glyph-name="Q" unicode="Q" horiz-adv-x="1416" 
d="M914 -253l262 123l-182 351l-271 -110zM595 -11q361 0 530.5 163t226.5 523q55 355 -57.5 521t-473.5 166t-531 -163t-227 -524q-56 -355 57 -520.5t475 -165.5zM628 220q-142 0 -210.5 77.5t-15.5 377.5q54 304 149.5 380t236.5 76t209.5 -76t15.5 -380
q-53 -300 -149 -377.5t-236 -77.5z" />
    <glyph glyph-name="R" unicode="R" horiz-adv-x="1325" 
d="M-22 0h341l95 540h421q231 0 332.5 114t127.5 283q27 167 -26 290t-278 123h-775zM785 0h369l-205 643l-339 -14zM451 748l65 371h322q85 0 108 -48.5t7 -137.5q-15 -88 -55.5 -136.5t-124.5 -48.5h-322z" />
    <glyph glyph-name="S" unicode="S" horiz-adv-x="1356" 
d="M558 -8q350 0 502 124.5t172 301.5q22 165 -64.5 237.5t-370.5 134.5q-178 38 -268.5 71t-76.5 127q11 71 94 106t205 35q115 0 181.5 -42t37.5 -214h341q37 223 -66.5 356t-452.5 133q-346 0 -504.5 -122.5t-171.5 -292.5q-16 -155 69 -240.5t360 -144.5
q170 -36 264 -69t80 -122q-13 -77 -93.5 -113t-200.5 -36q-121 0 -185 44t-34 222h-341q-41 -237 61.5 -366.5t461.5 -129.5z" />
    <glyph glyph-name="T" unicode="T" horiz-adv-x="1284" 
d="M354 0h341l196 1119h401l42 231h-1144l-41 -231h402z" />
    <glyph glyph-name="U" unicode="U" horiz-adv-x="1407" 
d="M581 -8q307 0 477 105t214 352l158 901h-340l-152 -864q-26 -144 -96.5 -203t-218.5 -59t-198 59t-24 203l152 864h-340l-159 -901q-43 -247 89 -352t438 -105z" />
    <glyph glyph-name="V" unicode="V" horiz-adv-x="1382" 
d="M338 0h464l641 1350h-351l-484 -1111h-2l-92 1111h-341z" />
    <glyph glyph-name="W" unicode="W" horiz-adv-x="2036" 
d="M177 0h518l397 1119h3l-1 -1119h519l490 1350h-373l-357 -1102h-3l-19 1102h-446l-408 -1102h-3l37 1102h-361z" />
    <glyph glyph-name="X" unicode="X" horiz-adv-x="1383" 
d="M-82 0h392l370 526l186 -526h391l-299 668l525 682h-391l-361 -538l-170 538h-391l280 -682z" />
    <glyph glyph-name="Y" unicode="Y" horiz-adv-x="1411" 
d="M415 0h339l89 504l662 846h-373l-414 -580h-3l-212 580h-365l364 -848z" />
    <glyph glyph-name="Z" unicode="Z" horiz-adv-x="1182" 
d="M-47 0h1030l41 231h-652l789 888l41 231h-998l-40 -229h620l-789 -882z" />
    <glyph glyph-name="bracketleft" unicode="[" horiz-adv-x="735" 
d="M-103 -384h615l40 221h-338l242 1390h339l41 221h-616z" />
    <glyph glyph-name="backslash" unicode="\" horiz-adv-x="943" 
d="M487 0h304l-314 1348h-301z" />
    <glyph glyph-name="bracketright" unicode="]" horiz-adv-x="737" 
d="M-97 -384h616l324 1831h-616l-39 -220h338l-243 -1391h-340z" />
    <glyph glyph-name="asciicircum" unicode="^" horiz-adv-x="797" 
d="M118 1203h213l274 243h-197zM651 1205h201l-199 241h-190z" />
    <glyph glyph-name="underscore" unicode="_" horiz-adv-x="1305" 
d="M-152 -261h1308l39 219h-1308z" />
    <glyph glyph-name="grave" unicode="`" horiz-adv-x="671" 
d="M447 1209h151l-126 209h-224z" />
    <glyph glyph-name="a" unicode="a" horiz-adv-x="1331" 
d="M405 -12q78 0 146.5 13t124.5 34.5t96 47.5t61 53l5 -136h280l131 740q30 166 -21 266.5t-174 145.5t-311 45q-104 0 -200 -17.5t-178.5 -55.5t-145.5 -101.5t-101 -155.5l313 -91q27 73 71 116t98 61.5t112 18.5q75 0 124.5 -20.5t70 -67.5t7.5 -127l-8 -45h-375
q-70 0 -141 -9.5t-135 -33.5t-115.5 -65.5t-84.5 -106.5t-41 -157q-15 -137 26.5 -213.5t134.5 -107.5t230 -31zM516 203q-56 0 -94 13t-55 48t-10 101q6 52 24.5 84.5t48 50t67.5 24t82 6.5h290l-37 -212q-26 -30 -74 -56.5t-110.5 -42.5t-131.5 -16z" />
    <glyph glyph-name="b" unicode="b" horiz-adv-x="1336" 
d="M-20 0h307l60 172l246 1398h-337zM692 -7q241 0 382 164t182 446q37 269 -37.5 431t-315.5 162q-212 0 -385.5 -99t-194.5 -219l122 -145q17 98 106.5 165t193.5 67q113 0 159.5 -75t10.5 -292q-36 -225 -112 -300.5t-189 -75.5q-104 0 -170 67t-48 167l-174 -148
q-22 -119 117.5 -217t352.5 -98z" />
    <glyph glyph-name="c" unicode="c" horiz-adv-x="1265" 
d="M541 -11q294 0 430 128.5t176 259.5l-279 108q-30 -126 -106 -195.5t-184 -69.5q-107 0 -159 75.5t-29 274.5q26 238 115.5 316t202.5 78q108 0 159.5 -66t37.5 -203l317 104q4 141 -90 269t-388 128q-337 0 -504.5 -163t-192.5 -479q-22 -262 71 -413.5t423 -151.5z" />
    <glyph glyph-name="d" unicode="d" horiz-adv-x="1328" 
d="M803 0h312l276 1570h-335l-245 -1398zM408 -7q213 0 384 98t193 217l-123 148q-18 -99 -106.5 -166.5t-193.5 -67.5q-110 0 -155.5 72t-17.5 286q30 230 107.5 307.5t196.5 77.5q105 0 169.5 -67t48.5 -165l173 145q22 120 -117 219t-352 99q-254 0 -399 -174.5
t-168 -474.5q-22 -245 53.5 -399.5t306.5 -154.5z" />
    <glyph glyph-name="e" unicode="e" horiz-adv-x="1332" 
d="M559 -11l39 217q-128 0 -189 80q-62 79 -22 307q40 233 130 311q91 77 212 77q124 0 182 -71q39 -61 23 -213h-559l-36 -203h895q14 45 23 100q49 281 -51 443q-102 161 -439 161q-327 0 -492 -160q-164 -158 -214 -444q-47 -280 58 -443q105 -162 440 -162zM598 206
l-39 -217q179 0 289 35q109 34 196 106q85 71 128 188l-286 85q-32 -63 -69 -111q-39 -46 -90 -67q-54 -19 -129 -19z" />
    <glyph glyph-name="f" unicode="f" horiz-adv-x="1009" 
d="M164 0h335l170 956h318l41 229h-320l8 41q14 80 86.5 106t229.5 26h33l38 221h-41q-299 0 -473.5 -80.5t-208.5 -271.5l-8 -42h-242l-41 -229h244z" />
    <glyph glyph-name="g" unicode="g" horiz-adv-x="1345" 
d="M443 -469q185 0 313.5 47t232 163.5t139.5 322.5l198 1121h-245l-133 -233l-163 -922q-31 -184 -107.5 -235t-185.5 -51q-65 0 -113 20t-70.5 65t-17.5 114h-328q-18 -227 124 -319.5t356 -92.5zM407 -7q213 0 384.5 97t192.5 218l-124 148q-17 -99 -105.5 -166.5
t-193.5 -67.5q-113 0 -160.5 74.5t-9.5 297.5t113 297t188 74q105 0 170 -67t48 -165l173 138q21 119 -116.5 222t-351.5 103q-241 0 -381.5 -159t-182.5 -442q-41 -281 37 -441.5t319 -160.5z" />
    <glyph glyph-name="h" unicode="h" horiz-adv-x="1318" 
d="M-22 0h337l278 1570h-337zM763 0h336l113 644q45 253 -18 402.5t-293 149.5q-241 0 -416.5 -152.5t-203.5 -309.5l150 -75q24 136 111.5 221t192.5 85q100 0 137 -70t2 -267z" />
    <glyph glyph-name="i" unicode="i" horiz-adv-x="582" 
d="M13 0h336l209 1186h-337zM284 1542l-41 -235h336l42 235h-337z" />
    <glyph glyph-name="j" unicode="j" horiz-adv-x="601" 
d="M-320 -460q297 0 470 103.5t225 404.5l201 1138h-335l-204 -1151q-27 -158 -106 -210t-209 -52zM303 1542l-42 -235h337l41 235h-336z" />
    <glyph glyph-name="k" unicode="k" horiz-adv-x="1268" 
d="M-21 0h337l60 347l205 171l167 -518h357l-253 747l448 439h-394l-462 -463l148 847h-337z" />
    <glyph glyph-name="l" unicode="l" horiz-adv-x="572" 
d="M0 0h337l276 1570h-336z" />
    <glyph glyph-name="m" unicode="m" horiz-adv-x="1938" 
d="M-21 0h337l177 1007l-45 178h-261zM683 0h336l122 692q36 204 -16.5 353.5t-284.5 149.5q-200 0 -374 -150t-204 -319l166 -71q28 155 98.5 232t161.5 77q87 0 114 -68t-2 -231zM1383 0h336l121 692q37 204 -13.5 353.5t-282.5 149.5q-200 0 -375 -152t-203 -317l166 -71
q27 155 98 232t162 77q87 0 111.5 -68t-3.5 -231z" />
    <glyph glyph-name="n" unicode="n" horiz-adv-x="1306" 
d="M-21 0h336l173 988l-39 198h-260zM751 0h336l111 633q45 254 -16.5 408.5t-290.5 154.5q-242 0 -418 -152.5t-204 -309.5l150 -75q24 136 112 221t193 85q100 0 136.5 -70t1.5 -267z" />
    <glyph glyph-name="o" unicode="o" horiz-adv-x="1337" 
d="M552 -9q324 0 492.5 156.5t212.5 449.5q43 290 -66 446t-434 156t-493.5 -154t-212.5 -448q-43 -289 66 -447.5t435 -158.5zM588 219q-116 0 -175.5 75t-25.5 302q35 225 126 300t207 75q117 0 176.5 -74.5t24.5 -300.5q-35 -225 -126 -301t-207 -76z" />
    <glyph glyph-name="p" unicode="p" horiz-adv-x="1335" 
d="M-99 -444h336l254 1442l-43 187h-260zM690 -7q241 0 381 161t183 441q42 281 -35 441t-318 160q-212 0 -385.5 -99t-194.5 -219l124 -145q16 98 105.5 165t193.5 67q113 0 159 -75t11 -296q-36 -224 -112.5 -298t-188.5 -74q-105 0 -170.5 67t-47.5 167l-174 -148
q-23 -119 117 -217t352 -98z" />
    <glyph glyph-name="q" unicode="q" horiz-adv-x="1342" 
d="M700 -444h336l288 1629h-261l-112 -206zM406 -7q213 0 385.5 98t194.5 217l-124 148q-17 -99 -105 -166.5t-194 -67.5q-110 0 -155.5 72.5t-17.5 285.5q29 230 107.5 307.5t196.5 77.5q106 0 170 -67t48 -165l173 145q22 120 -117 219t-351 99q-248 0 -390 -162
t-176 -452q-35 -272 41 -430.5t314 -158.5z" />
    <glyph glyph-name="r" unicode="r" horiz-adv-x="1292" 
d="M842 602h336q54 305 -4 449.5t-293 144.5q-219 0 -373 -114.5t-184 -282.5l116 -76q17 94 92.5 167.5t180.5 73.5q92 0 130 -69t-1 -293zM-22 0h336l173 980l-39 205h-261z" />
    <glyph glyph-name="s" unicode="s" horiz-adv-x="1311" 
d="M554 -9q235 0 414 87t206 276q26 178 -80 252.5t-323 105.5q-156 22 -247.5 45t-80.5 96q7 56 68 89t170 33q116 0 183 -51.5t74 -141.5l313 106q-13 168 -153 238t-379 70t-410.5 -82.5t-196.5 -259.5q-26 -181 77 -259.5t306 -108.5q165 -28 260.5 -51.5t83.5 -98.5
q-8 -56 -72.5 -90t-176.5 -34q-127 0 -196 49.5t-74 151.5l-314 -107q18 -174 165.5 -244.5t382.5 -70.5z" />
    <glyph glyph-name="t" unicode="t" horiz-adv-x="1061" 
d="M563 -15q136 0 264 28l39 222q-75 -25 -150 -25q-73 0 -108 30t-18 126l104 588h364l41 231h-364l47 271h-336l-48 -271h-270l-41 -231h271l-118 -662q-30 -173 67.5 -240t255.5 -67z" />
    <glyph glyph-name="u" unicode="u" horiz-adv-x="1307" 
d="M821 0h258l209 1185h-336l-175 -991zM506 1186h-336l-113 -644q-44 -252 16 -402t292 -150q258 0 426.5 153t196.5 309l-152 70q-23 -137 -113 -219t-195 -82q-100 0 -134 70t2 268z" />
    <glyph glyph-name="v" unicode="v" horiz-adv-x="1272" 
d="M286 0h460l581 1186h-358l-417 -959h-3l-77 959h-348z" />
    <glyph glyph-name="w" unicode="w" horiz-adv-x="1884" 
d="M200 0h451l326 849l29 -849h447l466 1185h-352l-313 -962h-3l-49 962h-336l-390 -964h-3l22 964h-344z" />
    <glyph glyph-name="x" unicode="x" horiz-adv-x="1304" 
d="M-81 0h377l320 457l166 -457h380l-274 593l477 592h-377l-310 -455l-157 455h-379l266 -592z" />
    <glyph glyph-name="y" unicode="y" horiz-adv-x="1239" 
d="M256 0h514l540 1185h-352l-407 -964h-1l-70 964h-351zM-76 -466q310 0 509 85.5t337 380.5l-312 1q-69 -149 -178.5 -194t-315.5 -45z" />
    <glyph glyph-name="z" unicode="z" horiz-adv-x="1096" 
d="M-35 0h941l41 230h-539l1 3l656 726l41 226h-929l-40 -229h538l-1 -2l-668 -726z" />
    <glyph glyph-name="braceleft" unicode="{" horiz-adv-x="786" 
d="M565 -385l40 221q-26 0 -61 3t-65 17t-46 46.5t-6 91.5l50 283q11 53 -3 90.5t-40 62t-55.5 39.5t-52.5 21.5t-31 8.5q8 2 33 6t58 14.5t68 31.5t60.5 56t35.5 88l59 332q10 60 38 95.5t63.5 54t71.5 24.5t63 6l40 221q-73 0 -145.5 -10t-137 -33t-117.5 -62t-90 -97
t-51 -138l-48 -278q-13 -76 -49 -119t-83.5 -61t-95.5 -18l-42 -223q51 0 92.5 -16.5t62.5 -54.5t9 -101l-41 -239q-14 -77 1.5 -137t53.5 -102.5t94.5 -70t124.5 -40.5t142 -13z" />
    <glyph glyph-name="bar" unicode="|" horiz-adv-x="405" 
d="M-87 -226h277l290 1648h-277z" />
    <glyph glyph-name="braceright" unicode="}" horiz-adv-x="774" 
d="M-101 -384q74 0 146.5 10t137 33t117.5 62t90 96.5t50 137.5l50 279q13 77 48.5 120t83 60.5t95.5 17.5l40 222q-48 0 -89.5 17.5t-62.5 55.5t-10 100l41 239q15 79 -0.5 138.5t-54 102.5t-94.5 69t-124 39t-143 13l-41 -220q28 0 62.5 -3t65 -17t46 -46t4.5 -92
l-50 -283q-9 -52 5 -89t40 -62.5t55 -40t52.5 -21.5t29.5 -9q-6 -1 -31 -5.5t-59 -15t-68 -31.5t-60.5 -56t-36.5 -88l-58 -333q-9 -58 -36.5 -94t-63.5 -54.5t-72 -25t-64 -6.5z" />
    <glyph glyph-name="asciitilde" unicode="~" horiz-adv-x="885" 
d="M616 543q62 0 115.5 18t89 39.5t44.5 29.5l-120 184q-5 -5 -35.5 -24.5t-90.5 -19.5q-46 0 -75 10.5t-53.5 24.5t-57.5 25t-88 11q-66 0 -124 -19.5t-101.5 -44.5t-62.5 -41l123 -176q14 15 58.5 40.5t103.5 25.5q43 0 71 -12.5t53.5 -29t60 -29t89.5 -12.5z" />
    <glyph glyph-name="uni00A0" unicode="&#xa0;" horiz-adv-x="513" 
 />
    <glyph glyph-name="exclamdown" unicode="&#xa1;" horiz-adv-x="468" 
d="M414 759h-325l-197 -939h389zM459 927l46 259h-334l-47 -259h335z" />
    <glyph glyph-name="cent" unicode="&#xa2;" horiz-adv-x="1275" 
d="M623 1218h233l29 162h-233zM403 -30h233l30 170h-233zM552 70q294 0 429.5 129t175.5 260l-280 108q-28 -126 -104.5 -196t-184.5 -70q-106 0 -158 76t-29 274q25 239 114.5 317t202.5 78q108 0 159.5 -66.5t37.5 -202.5l317 104q4 141 -89.5 269t-387.5 128
q-338 0 -505 -163t-192 -479q-23 -262 70 -414t424 -152z" />
    <glyph glyph-name="sterling" unicode="&#xa3;" horiz-adv-x="1265" 
d="M127 -27l-87 195q12 6 39.5 23t60.5 47.5t61 72.5t36 97q14 77 14 136t-7 108t-14.5 96t-7.5 100t11 119q13 74 48.5 145t101.5 127.5t167.5 90.5t244.5 34q128 0 213 -27t137.5 -69.5t79 -88.5t36.5 -84l-290 -100q-8 39 -30 73t-62.5 55t-106.5 21q-60 0 -104 -22
t-71.5 -64t-37.5 -103q-11 -56 -12 -106.5t2 -98.5t5.5 -98.5t-0.5 -107.5t-15 -126q-10 -58 -37 -107t-59 -85q22 5 49.5 8t53.5 3q49 0 86 -5.5t68 -13.5t63.5 -13t71.5 -6q68 1 110 6.5t72 17.5l57 -219q-11 -3 -51.5 -9t-101 -11t-130.5 -5q-57 1 -96.5 8t-76 16.5
t-80.5 17t-112 7.5q-109 0 -188.5 -18t-110.5 -37zM36 556l47 221h837l-46 -221h-838z" />
    <glyph glyph-name="currency" unicode="&#xa4;" horiz-adv-x="1323" 
d="M594 187q338 0 484 125.5t180 322.5q33 197 -67 325.5t-439 128.5q-338 0 -484 -127t-180 -324t66.5 -324t439.5 -127zM90 62l309 262l-127 119l-309 -262zM1050 62l169 119l-215 262l-169 -119zM628 384q-119 0 -173.5 55.5t-30.5 198.5q25 145 100.5 199.5t194.5 54.5
q118 0 172.5 -55t30.5 -199q-23 -143 -99.5 -198.5t-194.5 -55.5zM340 829l169 119l-215 262l-169 -119zM1071 829l309 262l-127 119l-309 -262z" />
    <glyph glyph-name="yen" unicode="&#xa5;" horiz-adv-x="1413" 
d="M178 457h976l32 179h-976zM130 190h976l32 179h-976zM415 0h339l89 504l662 846h-373l-414 -580h-3l-212 580h-365l364 -848z" />
    <glyph glyph-name="brokenbar" unicode="&#xa6;" horiz-adv-x="404" 
d="M-90 -156h276l118 660h-277zM73 764h277l116 658h-277z" />
    <glyph glyph-name="section" unicode="&#xa7;" horiz-adv-x="1294" 
d="M477 -278q94 0 173 13.5t143.5 37t112.5 55.5t78.5 69.5t39.5 78.5q15 55 5.5 98t-30.5 75.5t-43.5 52t-35.5 27.5q17 10 47 22.5t65.5 31t69.5 45t59 62.5t34 86q10 57 -10.5 105.5t-65 89.5t-103.5 75.5t-126 63.5t-133 54q-55 26 -107 50t-92.5 48.5t-63 50.5
t-20.5 57q5 36 35.5 60.5t85 36.5t131.5 12q68 0 116.5 -9.5t71.5 -34t14 -70.5l-9 -48h284l9 48q10 58 -11.5 110.5t-77 94t-147 66t-225.5 24.5q-116 0 -209.5 -18.5t-162.5 -52t-111 -78.5t-54 -96q-8 -43 -2.5 -83.5t22.5 -75.5t40.5 -61.5t48.5 -42.5q-24 -10 -68 -27
t-91 -45t-81.5 -71.5t-43.5 -107.5q-10 -74 19 -128.5t84 -94t125 -70t141 -57.5q74 -29 140 -55.5t116.5 -52.5t77.5 -54.5t19 -62.5q-7 -36 -41 -64t-89.5 -43.5t-129.5 -15.5q-68 0 -114.5 11.5t-67.5 37t-13 68.5l8 45h-281l-9 -48q-9 -58 9.5 -110.5t71 -94.5t144 -66
t228.5 -24zM776 335q-47 20 -102 40t-108.5 39.5t-96.5 40.5q-55 21 -94 43t-58.5 49t-13.5 61q6 27 26 50t48 42t57 34t49 25q36 -18 79.5 -35t88 -35t83.5 -38q37 -15 77 -34.5t72 -39.5t49 -44t10 -53q-6 -27 -26 -49.5t-46 -40.5t-51.5 -31.5t-42.5 -23.5z" />
    <glyph glyph-name="dieresis" unicode="&#xa8;" horiz-adv-x="898" 
d="M346 1190q41 0 75 32t34 75q0 36 -23.5 59.5t-58.5 23.5q-42 0 -76 -32t-34 -76q0 -35 23 -58.5t60 -23.5zM741 1190q43 0 76 32t33 75q0 36 -22.5 59.5t-59.5 23.5q-42 0 -75.5 -32t-33.5 -76q0 -35 23.5 -58.5t58.5 -23.5z" />
    <glyph glyph-name="copyright" unicode="&#xa9;" horiz-adv-x="1450" 
d="M596 -19q189 0 325 44t228 119.5t144.5 172.5t71.5 204l52 298q20 107 2 204t-83.5 172.5t-186.5 119t-310 43.5q-186 0 -322 -43.5t-227.5 -118.5t-144 -172t-71.5 -204l-53 -299q-19 -106 -1 -203.5t83.5 -173t186.5 -119.5t306 -44zM624 139q-121 0 -200 22t-124.5 60
t-65 88.5t-20 107.5t8.5 115l48 275q9 53 28 108t55 105.5t96 91.5t148.5 64.5t212.5 23.5q127 0 208.5 -23t126 -63.5t62 -91.5t16.5 -106.5t-10 -109.5l-49 -280q-9 -52 -26.5 -106.5t-52.5 -104.5t-94 -89.5t-149 -63t-219 -23.5zM642 258q76 0 144.5 16.5t124 48.5
t92 79.5t46.5 109.5l13 71h-185l-6 -35q-3 -19 -11 -38.5t-22 -37t-37 -30.5t-56 -21.5t-79 -8.5q-60 0 -92.5 13t-45 34.5t-11.5 48.5t5 54l40 219q6 29 15.5 55.5t30 48t57.5 33.5t96 12q47 0 78 -7t48 -19.5t24 -30t7.5 -36.5t-3.5 -39l-7 -37h185l12 68q9 50 -1 91
t-37 71.5t-69 50.5t-95 30t-116 10q-76 0 -144 -17t-122 -52t-89 -86.5t-48 -121.5l-51 -283q-10 -62 7 -110.5t59.5 -82.5t104 -52.5t138.5 -18.5z" />
    <glyph glyph-name="ordfeminine" unicode="&#xaa;" horiz-adv-x="764" 
d="M526 831h172l53 302q21 116 -32.5 173t-220.5 57q-147 0 -225.5 -36.5t-94.5 -104.5l110 -59q8 39 59 61.5t118 22.5q73 0 92 -25t8 -88l-47 -268zM326 825q123 0 206 43t95 110l-85 25q-6 -32 -43 -49t-107 -17q-50 0 -69 11t-14 39q4 27 32.5 40.5t81.5 14.5
q61 2 153 3l17 98q-113 0 -186 -5q-144 -7 -208 -46.5t-74 -109.5q-11 -81 36.5 -119t164.5 -38z" />
    <glyph glyph-name="guillemotleft" unicode="&#xab;" horiz-adv-x="1357" 
d="M377 80h336l-346 414l497 414h-346l-488 -414zM885 80h336l-345 414l496 414h-346l-488 -414z" />
    <glyph glyph-name="logicalnot" unicode="&#xac;" horiz-adv-x="982" 
d="M632 172h222l75 424h-861l-37 -206h640z" />
    <glyph glyph-name="uni00AD" unicode="&#xad;" horiz-adv-x="658" 
d="M21 368h535l39 221h-535z" />
    <glyph glyph-name="registered" unicode="&#xae;" horiz-adv-x="1340" 
d="M604 380q176 0 301.5 38.5t208.5 105t129.5 151t61.5 175.5l27 152q16 94 0 180t-74 153t-170.5 107t-289.5 40q-175 0 -301 -40.5t-209.5 -108.5t-129 -151.5t-60.5 -170.5l-26 -152q-12 -68 -5 -136.5t39 -130t94.5 -109.5t162 -75.5t241.5 -27.5zM626 532
q-104 0 -175.5 14.5t-116 41.5t-65.5 66.5t-24 90.5t7 113l24 133q13 77 44 139t87 107t147 69t225 24q105 0 176.5 -14.5t115.5 -43t65 -69t23.5 -92.5t-9.5 -113l-23 -133q-12 -74 -42 -135.5t-86 -105t-147 -68t-226 -24.5zM392 628h160l42 236h143l15 -236h165l-35 247
q43 12 70 50.5t33 82.5l11 63q8 45 -1 82t-43 59t-100 22h-354zM614 978l22 134h154q23 0 33.5 -5.5t12.5 -16t-1 -27.5l-5 -31q-5 -33 -19.5 -43.5t-42.5 -10.5h-154z" />
    <glyph glyph-name="macron" unicode="&#xaf;" horiz-adv-x="964" 
d="M233 1296h683l22 123h-682z" />
    <glyph glyph-name="degree" unicode="&#xb0;" horiz-adv-x="304" 
d="M275 1147q48 0 88 33t48 80q12 62 -22 106.5t-93 44.5q-48 0 -87.5 -32t-49.5 -80q-10 -61 24 -106.5t92 -45.5zM278 1240q-13 0 -22 11.5t-6 27.5q3 20 14 29.5t26 9.5q16 0 23.5 -10.5t4.5 -28.5q-3 -19 -12.5 -29t-27.5 -10z" />
    <glyph glyph-name="plusminus" unicode="&#xb1;" horiz-adv-x="606" 
d="M169 393h218l32 188h165l38 203h-165l32 188h-217l-33 -188h-166l-38 -203h167zM-14 110h472l40 203h-473z" />
    <glyph glyph-name="uni00B2" unicode="&#xb2;" horiz-adv-x="760" 
d="M73 750h649l19 112h-485q4 21 61 43t183 59q129 47 210 91.5t88 121.5q8 68 -46.5 127t-248.5 59q-192 0 -269.5 -65.5t-92.5 -148.5h156q9 51 60 76t136 25q78 0 117 -14.5t31 -57.5q-5 -35 -56.5 -59.5t-185.5 -64.5q-148 -45 -223 -93.5t-87 -115.5z" />
    <glyph glyph-name="uni00B3" unicode="&#xb3;" horiz-adv-x="782" 
d="M410 744q203 0 278 53t82 128q4 54 -24 91.5t-138 38.5q110 2 156 40.5t53 93.5q7 72 -50 123t-259 51q-196 0 -272 -63.5t-92 -156.5h155q12 63 61 86.5t136 23.5q90 0 129.5 -20.5t30.5 -70.5q-5 -32 -54.5 -44.5t-167.5 -13.5l-18 -102q125 0 165.5 -12t36.5 -44
q-8 -49 -55 -71t-137 -22q-91 0 -131 23t-29 81h-155q-17 -91 41.5 -152t257.5 -61z" />
    <glyph glyph-name="acute" unicode="&#xb4;" horiz-adv-x="668" 
d="M236 1209h159l272 209h-233z" />
    <glyph glyph-name="uni00B5" unicode="&#xb5;" horiz-adv-x="1304" 
d="M-117 -444h336l129 734l-179 896zM821 0h258l209 1185h-336l-175 -991zM506 1186h-336l-113 -644q-44 -252 16 -402t292 -150q258 0 426.5 153t196.5 309l-152 70q-23 -137 -113 -219t-195 -82q-100 0 -134 70t2 268z" />
    <glyph glyph-name="paragraph" unicode="&#xb6;" horiz-adv-x="1258" 
d="M377 -156h218l226 1286h239l-226 -1286h219l266 1506h-703q-159 0 -267.5 -38.5t-170.5 -114.5t-83 -188q-17 -98 4.5 -172t76 -122t137.5 -72t190 -24h11z" />
    <glyph glyph-name="periodcentered" unicode="&#xb7;" horiz-adv-x="488" 
d="M121 780l-43 -247h315l44 247h-316z" />
    <glyph glyph-name="cedilla" unicode="&#xb8;" horiz-adv-x="793" 
d="M181 -355q60 0 119 12.5t110 36t84.5 58.5t41.5 80q11 61 -26 90.5t-107 29.5q-55 0 -101.5 -15.5t-72.5 -37.5l-15 -56q14 10 37 17t43 7q25 0 36.5 -6.5t7.5 -23.5q-4 -22 -36.5 -36.5t-93.5 -14.5q-40 0 -75.5 6t-59.5 12l-70 -139q43 -9 89.5 -14.5t88.5 -5.5z
M214 -157l84 157h-133l-69 -145z" />
    <glyph glyph-name="uni00B9" unicode="&#xb9;" horiz-adv-x="702" 
d="M76 750h592l20 112h-217l88 496h-129l-263 -54l-21 -119l235 42l-65 -365h-220z" />
    <glyph glyph-name="ordmasculine" unicode="&#xba;" horiz-adv-x="732" 
d="M425 826q168 0 261.5 53.5t115.5 176.5l14 80q22 124 -56.5 178t-247.5 54q-168 0 -261.5 -54t-116.5 -178l-14 -80q-23 -122 57 -176t248 -54zM443 956q-66 0 -92.5 21.5t-16.5 75.5l15 86q10 56 43.5 77t99.5 21q65 0 92.5 -21.5t17.5 -76.5l-16 -86q-10 -54 -44 -75.5
t-99 -21.5z" />
    <glyph glyph-name="guillemotright" unicode="&#xbb;" horiz-adv-x="1360" 
d="M484 80h345l487 414l-345 414h-336l344 -414zM-25 80h346l488 414l-347 414h-336l346 -414z" />
    <glyph glyph-name="onequarter" unicode="&#xbc;" horiz-adv-x="1970" 
d="M76 750h592l20 112h-217l88 496h-129l-263 -54l-21 -119l235 42l-65 -365h-220zM279 0h171l1207 1348h-171zM1532 0h154l24 130h123l19 105h-124l66 373h-239l-386 -371l-19 -107h405zM1347 235l264 268h10l-47 -268h-227z" />
    <glyph glyph-name="onehalf" unicode="&#xbd;" horiz-adv-x="1965" 
d="M76 750h592l20 112h-217l88 496h-129l-263 -54l-21 -119l235 42l-65 -365h-220zM279 0h171l1207 1348h-171zM1147 0h649l19 112h-485q4 21 61 43t183 59q129 47 210 91.5t88 121.5q8 68 -46.5 127t-248.5 59q-192 0 -269.5 -65.5t-92.5 -148.5h156q9 51 60 76t136 25
q78 0 117 -14.5t31 -57.5q-5 -35 -56.5 -59.5t-185.5 -64.5q-148 -45 -223 -93.5t-87 -115.5z" />
    <glyph glyph-name="threequarters" unicode="&#xbe;" horiz-adv-x="2049" 
d="M410 744q203 0 278 53t82 128q4 54 -24 91.5t-138 38.5q110 2 156 40.5t53 93.5q7 72 -50 123t-259 51q-196 0 -272 -63.5t-92 -156.5h155q12 63 61 86.5t136 23.5q90 0 129.5 -20.5t30.5 -70.5q-5 -32 -54.5 -44.5t-167.5 -13.5l-18 -102q125 0 165.5 -12t36.5 -44
q-8 -49 -55 -71t-137 -22q-91 0 -131 23t-29 81h-155q-17 -91 41.5 -152t257.5 -61zM359 0h171l1207 1348h-171zM1611 0h154l24 130h123l19 105h-124l66 373h-239l-386 -371l-19 -107h405zM1426 235l264 268h10l-47 -268h-227z" />
    <glyph glyph-name="questiondown" unicode="&#xbf;" horiz-adv-x="1179" 
d="M787 777h-330q-17 -84 -58.5 -149t-148.5 -141q-93 -62 -178 -150t-97 -221q-18 -155 90.5 -230t389.5 -75q279 0 429.5 99.5t194.5 347.5h-326q-22 -126 -87.5 -180.5t-178.5 -54.5q-111 0 -149 37.5t-26 112.5q10 67 68 114.5t136 99.5q109 68 177.5 158.5t93.5 231.5z
M800 940l43 246h-315l-44 -246h316z" />
    <glyph glyph-name="Agrave" unicode="&#xc0;" horiz-adv-x="1459" 
d="M-48 0h350l150 329h459l34 -329h350l-193 1352h-482zM547 553l279 600h3l67 -600h-349zM926 1404h151l-126 209h-224z" />
    <glyph glyph-name="Aacute" unicode="&#xc1;" horiz-adv-x="1459" 
d="M-48 0h350l150 329h459l34 -329h350l-193 1352h-482zM547 553l279 600h3l67 -600h-349zM680 1392h159l272 209h-233z" />
    <glyph glyph-name="Acircumflex" unicode="&#xc2;" horiz-adv-x="1459" 
d="M-48 0h350l150 329h459l34 -329h350l-193 1352h-482zM547 553l279 600h3l67 -600h-349zM552 1402h194l157 139l109 -139h194l-185 207h-214z" />
    <glyph glyph-name="Atilde" unicode="&#xc3;" horiz-adv-x="1459" 
d="M-48 0h350l150 329h459l34 -329h350l-193 1352h-482zM547 553l279 600h3l67 -600h-349zM1011 1414q70 0 117 23t75.5 57.5t43 68.5t19.5 55h-162q-3 -13 -14.5 -30.5t-30.5 -29.5t-45 -12q-30 0 -52 12t-44 28.5t-51 28.5t-73 12q-71 0 -119.5 -22.5t-77 -56t-43 -67
t-20.5 -55.5h164q4 13 13.5 30.5t29 29.5t48.5 12q28 0 49 -13t44 -29.5t53 -29t76 -12.5z" />
    <glyph glyph-name="Adieresis" unicode="&#xc4;" horiz-adv-x="1459" 
d="M-48 0h350l150 329h459l34 -329h350l-193 1352h-482zM547 553l279 600h3l67 -600h-349zM681 1412q41 0 75 32t34 75q0 36 -23.5 59.5t-58.5 23.5q-42 0 -76 -32t-34 -76q0 -35 23 -58.5t60 -23.5zM1076 1412q43 0 76 32t33 75q0 36 -22.5 59.5t-59.5 23.5
q-42 0 -75.5 -32t-33.5 -76q0 -35 23.5 -58.5t58.5 -23.5z" />
    <glyph glyph-name="Aring" unicode="&#xc5;" horiz-adv-x="1459" 
d="M-48 0h350l150 329h459l34 -329h350l-193 1352h-482zM547 553l279 600h3l67 -600h-349zM881 1390q47 0 88 22.5t68.5 60.5t34.5 85q12 71 -29 119t-112 48q-48 0 -88.5 -21.5t-67 -59.5t-35.5 -86q-11 -71 30 -119.5t111 -48.5zM898 1509q-18 0 -29.5 14.5t-9.5 34.5
q5 21 20.5 34.5t34.5 13.5t31 -13.5t7 -34.5q-2 -20 -18 -34.5t-36 -14.5z" />
    <glyph glyph-name="AE" unicode="&#xc6;" horiz-adv-x="2018" 
d="M-48 0h358l771 1228l23 122h-293zM324 266h616l39 225h-547zM828 0h987l40 231h-645l60 343h600l40 220h-601l57 325h646l41 231h-987z" />
    <glyph glyph-name="Ccedilla" unicode="&#xc7;" horiz-adv-x="1359" 
d="M572 -8q362 0 510 166.5t186 389.5h-343q-34 -193 -113.5 -259t-205.5 -66q-130 0 -190 77t-12 378q48 309 140 381t221 72q127 0 181.5 -62.5t23.5 -262.5h344q35 231 -56 393.5t-455 162.5q-359 0 -524 -171.5t-219 -512.5q-54 -334 48 -510t464 -176zM506 -355
q60 0 119 12.5t110 36t84.5 58.5t41.5 80q11 61 -26 90.5t-107 29.5q-55 0 -101.5 -15.5t-72.5 -37.5l-15 -56q14 10 37 17t43 7q25 0 36.5 -6.5t7.5 -23.5q-4 -22 -36.5 -36.5t-93.5 -14.5q-40 0 -75.5 6t-59.5 12l-70 -139q43 -9 89.5 -14.5t88.5 -5.5zM539 -157l84 157
h-133l-69 -145z" />
    <glyph glyph-name="Egrave" unicode="&#xc8;" horiz-adv-x="1154" 
d="M-36 0h987l40 231h-645l60 343h600l39 220h-600l57 325h645l42 231h-987zM749 1404h151l-126 209h-224z" />
    <glyph glyph-name="Eacute" unicode="&#xc9;" horiz-adv-x="1154" 
d="M-36 0h987l40 231h-645l60 343h600l39 220h-600l57 325h645l42 231h-987zM505 1392h159l272 209h-233z" />
    <glyph glyph-name="Ecircumflex" unicode="&#xca;" horiz-adv-x="1154" 
d="M-36 0h987l40 231h-645l60 343h600l39 220h-600l57 325h645l42 231h-987zM376 1402h194l157 139l109 -139h194l-185 207h-214z" />
    <glyph glyph-name="Edieresis" unicode="&#xcb;" horiz-adv-x="1154" 
d="M-36 0h987l40 231h-645l60 343h600l39 220h-600l57 325h645l42 231h-987zM505 1412q41 0 75 32t34 75q0 36 -23.5 59.5t-58.5 23.5q-42 0 -76 -32t-34 -76q0 -35 23 -58.5t60 -23.5zM900 1412q43 0 76 32t33 75q0 36 -22.5 59.5t-59.5 23.5q-42 0 -75.5 -32t-33.5 -76
q0 -35 23.5 -58.5t58.5 -23.5z" />
    <glyph glyph-name="Igrave" unicode="&#xcc;" horiz-adv-x="619" 
d="M20 0h339l238 1350h-338zM498 1404h151l-126 209h-224z" />
    <glyph glyph-name="Iacute" unicode="&#xcd;" horiz-adv-x="619" 
d="M20 0h339l238 1350h-338zM253 1392h159l272 209h-233z" />
    <glyph glyph-name="Icircumflex" unicode="&#xce;" horiz-adv-x="619" 
d="M20 0h339l238 1350h-338zM124 1402h194l157 139l109 -139h194l-185 207h-214z" />
    <glyph glyph-name="Idieresis" unicode="&#xcf;" horiz-adv-x="619" 
d="M20 0h339l238 1350h-338zM253 1412q41 0 75 32t34 75q0 36 -23.5 59.5t-58.5 23.5q-42 0 -76 -32t-34 -76q0 -35 23 -58.5t60 -23.5zM648 1412q43 0 76 32t33 75q0 36 -22.5 59.5t-59.5 23.5q-42 0 -75.5 -32t-33.5 -76q0 -35 23.5 -58.5t58.5 -23.5z" />
    <glyph glyph-name="Eth" unicode="&#xd0;" horiz-adv-x="1396" 
d="M-43 566h676l36 221h-675zM21 0h699q282 0 420.5 149.5t196.5 526.5q56 369 -28 521.5t-365 152.5h-685zM401 231l156 888h261q132 0 181 -72t-2 -371q-52 -303 -127.5 -374t-207.5 -71h-261z" />
    <glyph glyph-name="Ntilde" unicode="&#xd1;" horiz-adv-x="1571" 
d="M-22 0h338l196 1109h3l308 -1109h529l238 1350h-339l-195 -1091h-4l-304 1091h-532zM1064 1414q70 0 117 23t75.5 57.5t43 68.5t19.5 55h-162q-3 -13 -14.5 -30.5t-30.5 -29.5t-45 -12q-30 0 -52 12t-44 28.5t-51 28.5t-73 12q-71 0 -119.5 -22.5t-77 -56t-43 -67
t-20.5 -55.5h164q4 13 13.5 30.5t29 29.5t48.5 12q28 0 49 -13t44 -29.5t53 -29t76 -12.5z" />
    <glyph glyph-name="Ograve" unicode="&#xd2;" horiz-adv-x="1411" 
d="M587 -11q359 0 536 173t229 513q51 340 -57 513.5t-466 173.5q-359 0 -536.5 -173t-229.5 -514q-51 -339 57 -512.5t467 -173.5zM628 220q-139 0 -206 78.5t-20 376.5q49 303 148 379.5t238 76.5q138 0 205.5 -76.5t19.5 -379.5q-48 -299 -147.5 -377t-237.5 -78z
M881 1404h151l-126 209h-224z" />
    <glyph glyph-name="Oacute" unicode="&#xd3;" horiz-adv-x="1411" 
d="M587 -11q359 0 536 173t229 513q51 340 -57 513.5t-466 173.5q-359 0 -536.5 -173t-229.5 -514q-51 -339 57 -512.5t467 -173.5zM628 220q-139 0 -206 78.5t-20 376.5q49 303 148 379.5t238 76.5q138 0 205.5 -76.5t19.5 -379.5q-48 -299 -147.5 -377t-237.5 -78z
M636 1392h159l272 209h-233z" />
    <glyph glyph-name="Ocircumflex" unicode="&#xd4;" horiz-adv-x="1411" 
d="M587 -11q359 0 536 173t229 513q51 340 -57 513.5t-466 173.5q-359 0 -536.5 -173t-229.5 -514q-51 -339 57 -512.5t467 -173.5zM628 220q-139 0 -206 78.5t-20 376.5q49 303 148 379.5t238 76.5q138 0 205.5 -76.5t19.5 -379.5q-48 -299 -147.5 -377t-237.5 -78z
M507 1402h194l157 139l109 -139h194l-185 207h-214z" />
    <glyph glyph-name="Otilde" unicode="&#xd5;" horiz-adv-x="1411" 
d="M587 -11q359 0 536 173t229 513q51 340 -57 513.5t-466 173.5q-359 0 -536.5 -173t-229.5 -514q-51 -339 57 -512.5t467 -173.5zM628 220q-139 0 -206 78.5t-20 376.5q49 303 148 379.5t238 76.5q138 0 205.5 -76.5t19.5 -379.5q-48 -299 -147.5 -377t-237.5 -78z
M966 1414q70 0 117 23t75.5 57.5t43 68.5t19.5 55h-162q-3 -13 -14.5 -30.5t-30.5 -29.5t-45 -12q-30 0 -52 12t-44 28.5t-51 28.5t-73 12q-71 0 -119.5 -22.5t-77 -56t-43 -67t-20.5 -55.5h164q4 13 13.5 30.5t29 29.5t48.5 12q28 0 49 -13t44 -29.5t53 -29t76 -12.5z" />
    <glyph glyph-name="Odieresis" unicode="&#xd6;" horiz-adv-x="1411" 
d="M587 -11q359 0 536 173t229 513q51 340 -57 513.5t-466 173.5q-359 0 -536.5 -173t-229.5 -514q-51 -339 57 -512.5t467 -173.5zM628 220q-139 0 -206 78.5t-20 376.5q49 303 148 379.5t238 76.5q138 0 205.5 -76.5t19.5 -379.5q-48 -299 -147.5 -377t-237.5 -78z
M636 1412q41 0 75 32t34 75q0 36 -23.5 59.5t-58.5 23.5q-42 0 -76 -32t-34 -76q0 -35 23 -58.5t60 -23.5zM1031 1412q43 0 76 32t33 75q0 36 -22.5 59.5t-59.5 23.5q-42 0 -75.5 -32t-33.5 -76q0 -35 23.5 -58.5t58.5 -23.5z" />
    <glyph glyph-name="multiply" unicode="&#xd7;" horiz-adv-x="603" 
d="M382 199l164 144l-339 415l-165 -142zM117 199l477 417l-122 142l-477 -415z" />
    <glyph glyph-name="Oslash" unicode="&#xd8;" horiz-adv-x="1334" 
d="M-76 0h176l1317 1348h-174zM587 -11q359 0 536 173t229 513q51 340 -57 513.5t-466 173.5q-359 0 -536.5 -173t-229.5 -514q-51 -339 57 -512.5t467 -173.5zM628 220q-139 0 -206 78.5t-20 376.5q49 303 148 379.5t238 76.5q138 0 205.5 -76.5t19.5 -379.5
q-48 -299 -147.5 -377t-237.5 -78z" />
    <glyph glyph-name="Ugrave" unicode="&#xd9;" horiz-adv-x="1407" 
d="M581 -8q307 0 477 105t214 352l158 901h-340l-152 -864q-26 -144 -96.5 -203t-218.5 -59t-198 59t-24 203l152 864h-340l-159 -901q-43 -247 89 -352t438 -105zM891 1404h151l-126 209h-224z" />
    <glyph glyph-name="Uacute" unicode="&#xda;" horiz-adv-x="1407" 
d="M581 -8q307 0 477 105t214 352l158 901h-340l-152 -864q-26 -144 -96.5 -203t-218.5 -59t-198 59t-24 203l152 864h-340l-159 -901q-43 -247 89 -352t438 -105zM647 1392h159l272 209h-233z" />
    <glyph glyph-name="Ucircumflex" unicode="&#xdb;" horiz-adv-x="1407" 
d="M581 -8q307 0 477 105t214 352l158 901h-340l-152 -864q-26 -144 -96.5 -203t-218.5 -59t-198 59t-24 203l152 864h-340l-159 -901q-43 -247 89 -352t438 -105zM518 1402h194l157 139l109 -139h194l-185 207h-214z" />
    <glyph glyph-name="Udieresis" unicode="&#xdc;" horiz-adv-x="1407" 
d="M581 -8q307 0 477 105t214 352l158 901h-340l-152 -864q-26 -144 -96.5 -203t-218.5 -59t-198 59t-24 203l152 864h-340l-159 -901q-43 -247 89 -352t438 -105zM647 1412q41 0 75 32t34 75q0 36 -23.5 59.5t-58.5 23.5q-42 0 -76 -32t-34 -76q0 -35 23 -58.5t60 -23.5z
M1042 1412q43 0 76 32t33 75q0 36 -22.5 59.5t-59.5 23.5q-42 0 -75.5 -32t-33.5 -76q0 -35 23.5 -58.5t58.5 -23.5z" />
    <glyph glyph-name="Yacute" unicode="&#xdd;" horiz-adv-x="1411" 
d="M415 0h339l89 504l662 846h-373l-414 -580h-3l-212 580h-365l364 -848zM647 1392h159l272 209h-233z" />
    <glyph glyph-name="Thorn" unicode="&#xde;" horiz-adv-x="1274" 
d="M-45 0h337l40 228h475q112 0 184.5 33.5t114.5 102.5t61 176l49 281q19 101 -1.5 170t-81.5 105t-168 36h-473l38 218h-337zM370 447l83 465h344q39 0 57.5 -16t22 -45t-3.5 -69l-35 -199q-9 -42 -22.5 -72.5t-37 -47t-62.5 -16.5h-346z" />
    <glyph glyph-name="germandbls" unicode="&#xdf;" horiz-adv-x="1390" 
d="M-22 0h338l169 962q12 63 35.5 115.5t61 89.5t89 56.5t118.5 19.5q107 0 147 -43.5t28 -114.5q-7 -44 -29.5 -79.5t-50.5 -70.5t-52 -76t-32 -93q-8 -42 3 -76.5t30 -65l38 -61t30 -65t4 -76.5q-9 -49 -35.5 -85.5t-76 -60.5t-123.5 -36t-176 -12l-40 -228q188 0 331 22
t242.5 68.5t157 121.5t76.5 182q12 66 0 115.5t-35 86t-48 65.5t-40.5 54t-10.5 53q5 33 28.5 65t54 69t57 86.5t38.5 117.5q11 72 -8.5 137.5t-76 116.5t-155 80t-241.5 29q-156 0 -274.5 -38t-201 -109t-133 -167.5t-71.5 -213.5z" />
    <glyph glyph-name="agrave" unicode="&#xe0;" horiz-adv-x="1331" 
d="M405 -12q78 0 146.5 13t124.5 34.5t96 47.5t61 53l5 -136h280l131 740q30 166 -21 266.5t-174 145.5t-311 45q-104 0 -200 -17.5t-178.5 -55.5t-145.5 -101.5t-101 -155.5l313 -91q27 73 71 116t98 61.5t112 18.5q75 0 124.5 -20.5t70 -67.5t7.5 -127l-8 -45h-375
q-70 0 -141 -9.5t-135 -33.5t-115.5 -65.5t-84.5 -106.5t-41 -157q-15 -137 26.5 -213.5t134.5 -107.5t230 -31zM516 203q-56 0 -94 13t-55 48t-10 101q6 52 24.5 84.5t48 50t67.5 24t82 6.5h290l-37 -212q-26 -30 -74 -56.5t-110.5 -42.5t-131.5 -16zM811 1233h151
l-126 209h-224z" />
    <glyph glyph-name="aacute" unicode="&#xe1;" horiz-adv-x="1331" 
d="M405 -12q78 0 146.5 13t124.5 34.5t96 47.5t61 53l5 -136h280l131 740q30 166 -21 266.5t-174 145.5t-311 45q-104 0 -200 -17.5t-178.5 -55.5t-145.5 -101.5t-101 -155.5l313 -91q27 73 71 116t98 61.5t112 18.5q75 0 124.5 -20.5t70 -67.5t7.5 -127l-8 -45h-375
q-70 0 -141 -9.5t-135 -33.5t-115.5 -65.5t-84.5 -106.5t-41 -157q-15 -137 26.5 -213.5t134.5 -107.5t230 -31zM516 203q-56 0 -94 13t-55 48t-10 101q6 52 24.5 84.5t48 50t67.5 24t82 6.5h290l-37 -212q-26 -30 -74 -56.5t-110.5 -42.5t-131.5 -16zM570 1228h159l272 209
h-233z" />
    <glyph glyph-name="acircumflex" unicode="&#xe2;" horiz-adv-x="1331" 
d="M405 -12q78 0 146.5 13t124.5 34.5t96 47.5t61 53l5 -136h280l131 740q30 166 -21 266.5t-174 145.5t-311 45q-104 0 -200 -17.5t-178.5 -55.5t-145.5 -101.5t-101 -155.5l313 -91q27 73 71 116t98 61.5t112 18.5q75 0 124.5 -20.5t70 -67.5t7.5 -127l-8 -45h-375
q-70 0 -141 -9.5t-135 -33.5t-115.5 -65.5t-84.5 -106.5t-41 -157q-15 -137 26.5 -213.5t134.5 -107.5t230 -31zM516 203q-56 0 -94 13t-55 48t-10 101q6 52 24.5 84.5t48 50t67.5 24t82 6.5h290l-37 -212q-26 -30 -74 -56.5t-110.5 -42.5t-131.5 -16zM443 1238h194l157 139
l109 -139h194l-185 207h-214z" />
    <glyph glyph-name="atilde" unicode="&#xe3;" horiz-adv-x="1331" 
d="M405 -12q78 0 146.5 13t124.5 34.5t96 47.5t61 53l5 -136h280l131 740q30 166 -21 266.5t-174 145.5t-311 45q-104 0 -200 -17.5t-178.5 -55.5t-145.5 -101.5t-101 -155.5l313 -91q27 73 71 116t98 61.5t112 18.5q75 0 124.5 -20.5t70 -67.5t7.5 -127l-8 -45h-375
q-70 0 -141 -9.5t-135 -33.5t-115.5 -65.5t-84.5 -106.5t-41 -157q-15 -137 26.5 -213.5t134.5 -107.5t230 -31zM516 203q-56 0 -94 13t-55 48t-10 101q6 52 24.5 84.5t48 50t67.5 24t82 6.5h290l-37 -212q-26 -30 -74 -56.5t-110.5 -42.5t-131.5 -16zM901 1250q70 0 117 23
t75.5 57.5t43 68.5t19.5 55h-162q-3 -13 -14.5 -30.5t-30.5 -29.5t-45 -12q-30 0 -52 12t-44 28.5t-51 28.5t-73 12q-71 0 -119.5 -22.5t-77 -56t-43 -67t-20.5 -55.5h164q4 13 13.5 30.5t29 29.5t48.5 12q28 0 49 -13t44 -29.5t53 -29t76 -12.5z" />
    <glyph glyph-name="adieresis" unicode="&#xe4;" horiz-adv-x="1331" 
d="M405 -12q78 0 146.5 13t124.5 34.5t96 47.5t61 53l5 -136h280l131 740q30 166 -21 266.5t-174 145.5t-311 45q-104 0 -200 -17.5t-178.5 -55.5t-145.5 -101.5t-101 -155.5l313 -91q27 73 71 116t98 61.5t112 18.5q75 0 124.5 -20.5t70 -67.5t7.5 -127l-8 -45h-375
q-70 0 -141 -9.5t-135 -33.5t-115.5 -65.5t-84.5 -106.5t-41 -157q-15 -137 26.5 -213.5t134.5 -107.5t230 -31zM516 203q-56 0 -94 13t-55 48t-10 101q6 52 24.5 84.5t48 50t67.5 24t82 6.5h290l-37 -212q-26 -30 -74 -56.5t-110.5 -42.5t-131.5 -16zM571 1248q41 0 75 32
t34 75q0 36 -23.5 59.5t-58.5 23.5q-42 0 -76 -32t-34 -76q0 -35 23 -58.5t60 -23.5zM966 1248q43 0 76 32t33 75q0 36 -22.5 59.5t-59.5 23.5q-42 0 -75.5 -32t-33.5 -76q0 -35 23.5 -58.5t58.5 -23.5z" />
    <glyph glyph-name="aring" unicode="&#xe5;" horiz-adv-x="1331" 
d="M405 -12q78 0 146.5 13t124.5 34.5t96 47.5t61 53l5 -136h280l131 740q30 166 -21 266.5t-174 145.5t-311 45q-104 0 -200 -17.5t-178.5 -55.5t-145.5 -101.5t-101 -155.5l313 -91q27 73 71 116t98 61.5t112 18.5q75 0 124.5 -20.5t70 -67.5t7.5 -127l-8 -45h-375
q-70 0 -141 -9.5t-135 -33.5t-115.5 -65.5t-84.5 -106.5t-41 -157q-15 -137 26.5 -213.5t134.5 -107.5t230 -31zM516 203q-56 0 -94 13t-55 48t-10 101q6 52 24.5 84.5t48 50t67.5 24t82 6.5h290l-37 -212q-26 -30 -74 -56.5t-110.5 -42.5t-131.5 -16zM772 1226
q47 0 88 22.5t68.5 60.5t34.5 85q12 71 -29 119t-112 48q-48 0 -88.5 -21.5t-67 -59.5t-35.5 -86q-11 -71 30 -119.5t111 -48.5zM789 1345q-18 0 -29.5 14.5t-9.5 34.5q5 21 20.5 34.5t34.5 13.5t31 -13.5t7 -34.5q-2 -20 -18 -34.5t-36 -14.5z" />
    <glyph glyph-name="ae" unicode="&#xe6;" horiz-adv-x="2151" 
d="M1129 252l81 458q40 226 -55.5 356t-398.5 130q-305 0 -430 -104t-195 -251l306 -93q49 139 114.5 186.5t169.5 47.5q108 0 157.5 -57t26.5 -189l-78 -446l45 -24zM414 -12q262 0 414.5 84.5t196.5 270.5l-169 100q-27 -145 -106.5 -198t-206.5 -53q-125 0 -158.5 40
t-24.5 103q13 80 67 113.5t185 33.5h263l34 190h-375q-216 0 -353 -69t-170 -267q-30 -177 76 -262.5t327 -85.5zM1379 -11l39 217q-128 0 -189 80q-62 79 -22 307q39 233 130 311q90 77 212 77q124 0 181 -71q40 -61 24 -213h-560l-35 -203h894q14 45 24 100
q49 281 -51 443q-102 161 -439 161q-328 0 -492 -160q-164 -158 -214 -444q-47 -280 57 -443q106 -162 441 -162zM1418 206l-39 -217q179 0 288 35q109 34 197 106q86 71 127 188l-285 85q-32 -63 -70 -111q-38 -46 -89 -67q-54 -19 -129 -19z" />
    <glyph glyph-name="ccedilla" unicode="&#xe7;" horiz-adv-x="1265" 
d="M541 -11q294 0 430 128.5t176 259.5l-279 108q-30 -126 -106 -195.5t-184 -69.5q-107 0 -159 75.5t-29 274.5q26 238 115.5 316t202.5 78q108 0 159.5 -66t37.5 -203l317 104q4 141 -90 269t-388 128q-337 0 -504.5 -163t-192.5 -479q-22 -262 71 -413.5t423 -151.5z
M488 -355q60 0 119 12.5t110 36t84.5 58.5t41.5 80q11 61 -26 90.5t-107 29.5q-55 0 -101.5 -15.5t-72.5 -37.5l-15 -56q14 10 37 17t43 7q25 0 36.5 -6.5t7.5 -23.5q-4 -22 -36.5 -36.5t-93.5 -14.5q-40 0 -75.5 6t-59.5 12l-70 -139q43 -9 89.5 -14.5t88.5 -5.5zM521 -157
l84 157h-133l-69 -145z" />
    <glyph glyph-name="egrave" unicode="&#xe8;" horiz-adv-x="1332" 
d="M559 -11l39 217q-128 0 -189 80q-62 79 -22 307q40 233 130 311q91 77 212 77q124 0 182 -71q39 -61 23 -213h-559l-36 -203h895q14 45 23 100q49 281 -51 443q-102 161 -439 161q-327 0 -492 -160q-164 -158 -214 -444q-47 -280 58 -443q105 -162 440 -162zM598 206
l-39 -217q179 0 289 35q109 34 196 106q85 71 128 188l-286 85q-32 -63 -69 -111q-39 -46 -90 -67q-54 -19 -129 -19zM819 1233h151l-126 209h-224z" />
    <glyph glyph-name="eacute" unicode="&#xe9;" horiz-adv-x="1332" 
d="M559 -11l39 217q-128 0 -189 80q-62 79 -22 307q40 233 130 311q91 77 212 77q124 0 182 -71q39 -61 23 -213h-559l-36 -203h895q14 45 23 100q49 281 -51 443q-102 161 -439 161q-327 0 -492 -160q-164 -158 -214 -444q-47 -280 58 -443q105 -162 440 -162zM598 206
l-39 -217q179 0 289 35q109 34 196 106q85 71 128 188l-286 85q-32 -63 -69 -111q-39 -46 -90 -67q-54 -19 -129 -19zM579 1228h159l272 209h-233z" />
    <glyph glyph-name="ecircumflex" unicode="&#xea;" horiz-adv-x="1332" 
d="M559 -11l39 217q-128 0 -189 80q-62 79 -22 307q40 233 130 311q91 77 212 77q124 0 182 -71q39 -61 23 -213h-559l-36 -203h895q14 45 23 100q49 281 -51 443q-102 161 -439 161q-327 0 -492 -160q-164 -158 -214 -444q-47 -280 58 -443q105 -162 440 -162zM598 206
l-39 -217q179 0 289 35q109 34 196 106q85 71 128 188l-286 85q-32 -63 -69 -111q-39 -46 -90 -67q-54 -19 -129 -19zM450 1238h194l157 139l109 -139h194l-185 207h-214z" />
    <glyph glyph-name="edieresis" unicode="&#xeb;" horiz-adv-x="1332" 
d="M559 -11l39 217q-128 0 -189 80q-62 79 -22 307q40 233 130 311q91 77 212 77q124 0 182 -71q39 -61 23 -213h-559l-36 -203h895q14 45 23 100q49 281 -51 443q-102 161 -439 161q-327 0 -492 -160q-164 -158 -214 -444q-47 -280 58 -443q105 -162 440 -162zM598 206
l-39 -217q179 0 289 35q109 34 196 106q85 71 128 188l-286 85q-32 -63 -69 -111q-39 -46 -90 -67q-54 -19 -129 -19zM579 1248q41 0 75 32t34 75q0 36 -23.5 59.5t-58.5 23.5q-42 0 -76 -32t-34 -76q0 -35 23 -58.5t60 -23.5zM974 1248q43 0 76 32t33 75q0 36 -22.5 59.5
t-59.5 23.5q-42 0 -75.5 -32t-33.5 -76q0 -35 23.5 -58.5t58.5 -23.5z" />
    <glyph glyph-name="igrave" unicode="&#xec;" horiz-adv-x="558" 
d="M-18 0h338l209 1185h-338zM412 1233h151l-126 209h-224z" />
    <glyph glyph-name="iacute" unicode="&#xed;" horiz-adv-x="558" 
d="M-18 0h338l209 1185h-338zM171 1228h159l272 209h-233z" />
    <glyph glyph-name="icircumflex" unicode="&#xee;" horiz-adv-x="558" 
d="M-18 0h338l209 1185h-338zM43 1238h194l157 139l109 -139h194l-185 207h-214z" />
    <glyph glyph-name="idieresis" unicode="&#xef;" horiz-adv-x="558" 
d="M-18 0h338l209 1185h-338zM172 1248q41 0 75 32t34 75q0 36 -23.5 59.5t-58.5 23.5q-42 0 -76 -32t-34 -76q0 -35 23 -58.5t60 -23.5zM567 1248q43 0 76 32t33 75q0 36 -22.5 59.5t-59.5 23.5q-42 0 -75.5 -32t-33.5 -76q0 -35 23.5 -58.5t58.5 -23.5z" />
    <glyph glyph-name="eth" unicode="&#xf0;" horiz-adv-x="1334" 
d="M555 -9q338 0 492.5 163t203.5 445q42 239 -84 417.5t-423 178.5q-339 0 -490 -160.5t-191 -439.5q-40 -277 57 -440.5t435 -163.5zM591 223q-126 0 -177 79t-15 293q37 215 118 295.5t207 80.5t177.5 -80.5t13.5 -295.5t-118 -293.5t-206 -78.5zM1263 666
q16 89 15 178.5t-21.5 169.5t-65.5 137q-23 111 -77 190t-137.5 129.5t-195 76t-249.5 29.5l-102 -195q135 -1 238 -19.5t174.5 -58.5t111 -106t47 -165.5t-17.5 -235.5zM742 1256l230 335l-170 34l-237 -338z" />
    <glyph glyph-name="ntilde" unicode="&#xf1;" horiz-adv-x="1308" 
d="M-21 0h336l173 988l-39 198h-260zM751 0h336l111 633q45 254 -16.5 408.5t-290.5 154.5q-242 0 -418 -152.5t-204 -309.5l150 -75q24 136 112 221t193 85q100 0 136.5 -70t1.5 -267zM910 1268q70 0 117 23t75.5 57.5t43 68.5t19.5 55h-162q-3 -13 -14.5 -30.5
t-30.5 -29.5t-45 -12q-30 0 -52 12t-44 28.5t-51 28.5t-73 12q-71 0 -119.5 -22.5t-77 -56t-43 -67t-20.5 -55.5h164q4 13 13.5 30.5t29 29.5t48.5 12q28 0 49 -13t44 -29.5t53 -29t76 -12.5z" />
    <glyph glyph-name="ograve" unicode="&#xf2;" horiz-adv-x="1337" 
d="M552 -9q324 0 492.5 156.5t212.5 449.5q43 290 -66 446t-434 156t-493.5 -154t-212.5 -448q-43 -289 66 -447.5t435 -158.5zM588 219q-116 0 -175.5 75t-25.5 302q35 225 126 300t207 75q117 0 176.5 -74.5t24.5 -300.5q-35 -225 -126 -301t-207 -76zM808 1233h151
l-126 209h-224z" />
    <glyph glyph-name="oacute" unicode="&#xf3;" horiz-adv-x="1337" 
d="M552 -9q324 0 492.5 156.5t212.5 449.5q43 290 -66 446t-434 156t-493.5 -154t-212.5 -448q-43 -289 66 -447.5t435 -158.5zM588 219q-116 0 -175.5 75t-25.5 302q35 225 126 300t207 75q117 0 176.5 -74.5t24.5 -300.5q-35 -225 -126 -301t-207 -76zM567 1228h159
l272 209h-233z" />
    <glyph glyph-name="ocircumflex" unicode="&#xf4;" horiz-adv-x="1337" 
d="M552 -9q324 0 492.5 156.5t212.5 449.5q43 290 -66 446t-434 156t-493.5 -154t-212.5 -448q-43 -289 66 -447.5t435 -158.5zM588 219q-116 0 -175.5 75t-25.5 302q35 225 126 300t207 75q117 0 176.5 -74.5t24.5 -300.5q-35 -225 -126 -301t-207 -76zM440 1238h194
l157 139l109 -139h194l-185 207h-214z" />
    <glyph glyph-name="otilde" unicode="&#xf5;" horiz-adv-x="1337" 
d="M552 -9q324 0 492.5 156.5t212.5 449.5q43 290 -66 446t-434 156t-493.5 -154t-212.5 -448q-43 -289 66 -447.5t435 -158.5zM588 219q-116 0 -175.5 75t-25.5 302q35 225 126 300t207 75q117 0 176.5 -74.5t24.5 -300.5q-35 -225 -126 -301t-207 -76zM898 1250
q70 0 117 23t75.5 57.5t43 68.5t19.5 55h-162q-3 -13 -14.5 -30.5t-30.5 -29.5t-45 -12q-30 0 -52 12t-44 28.5t-51 28.5t-73 12q-71 0 -119.5 -22.5t-77 -56t-43 -67t-20.5 -55.5h164q4 13 13.5 30.5t29 29.5t48.5 12q28 0 49 -13t44 -29.5t53 -29t76 -12.5z" />
    <glyph glyph-name="odieresis" unicode="&#xf6;" horiz-adv-x="1337" 
d="M552 -9q324 0 492.5 156.5t212.5 449.5q43 290 -66 446t-434 156t-493.5 -154t-212.5 -448q-43 -289 66 -447.5t435 -158.5zM588 219q-116 0 -175.5 75t-25.5 302q35 225 126 300t207 75q117 0 176.5 -74.5t24.5 -300.5q-35 -225 -126 -301t-207 -76zM568 1248
q41 0 75 32t34 75q0 36 -23.5 59.5t-58.5 23.5q-42 0 -76 -32t-34 -76q0 -35 23 -58.5t60 -23.5zM963 1248q43 0 76 32t33 75q0 36 -22.5 59.5t-59.5 23.5q-42 0 -75.5 -32t-33.5 -76q0 -35 23.5 -58.5t58.5 -23.5z" />
    <glyph glyph-name="divide" unicode="&#xf7;" horiz-adv-x="581" 
d="M3 379h514l36 198h-515zM216 14q39 0 68.5 25t35.5 62q11 53 -17.5 91.5t-78.5 38.5q-43 0 -73.5 -23.5t-36.5 -58.5q-10 -56 18.5 -95.5t83.5 -39.5zM342 725q39 0 68.5 25t36.5 62q10 54 -18 91.5t-79 37.5q-42 0 -73 -23.5t-37 -58.5q-10 -55 18.5 -94.5t83.5 -39.5z
" />
    <glyph glyph-name="oslash" unicode="&#xf8;" horiz-adv-x="1334" 
d="M-110 16l90 -88l1433 1255l-97 78zM552 -9q324 0 492.5 156.5t212.5 449.5q43 290 -66 446t-434 156t-493.5 -154t-212.5 -448q-43 -289 66 -447.5t435 -158.5zM588 219q-116 0 -175.5 75t-25.5 302q35 225 126 300t207 75q117 0 176.5 -74.5t24.5 -300.5
q-35 -225 -126 -301t-207 -76z" />
    <glyph glyph-name="ugrave" unicode="&#xf9;" horiz-adv-x="1307" 
d="M821 0h258l209 1185h-336l-175 -991zM506 1186h-336l-113 -644q-44 -252 16 -402t292 -150q258 0 426.5 153t196.5 309l-152 70q-23 -137 -113 -219t-195 -82q-100 0 -134 70t2 268zM795 1233h151l-126 209h-224z" />
    <glyph glyph-name="uacute" unicode="&#xfa;" horiz-adv-x="1307" 
d="M821 0h258l209 1185h-336l-175 -991zM506 1186h-336l-113 -644q-44 -252 16 -402t292 -150q258 0 426.5 153t196.5 309l-152 70q-23 -137 -113 -219t-195 -82q-100 0 -134 70t2 268zM555 1228h159l272 209h-233z" />
    <glyph glyph-name="ucircumflex" unicode="&#xfb;" horiz-adv-x="1307" 
d="M821 0h258l209 1185h-336l-175 -991zM506 1186h-336l-113 -644q-44 -252 16 -402t292 -150q258 0 426.5 153t196.5 309l-152 70q-23 -137 -113 -219t-195 -82q-100 0 -134 70t2 268zM427 1238h194l157 139l109 -139h194l-185 207h-214z" />
    <glyph glyph-name="udieresis" unicode="&#xfc;" horiz-adv-x="1307" 
d="M821 0h258l209 1185h-336l-175 -991zM506 1186h-336l-113 -644q-44 -252 16 -402t292 -150q258 0 426.5 153t196.5 309l-152 70q-23 -137 -113 -219t-195 -82q-100 0 -134 70t2 268zM557 1248q41 0 75 32t34 75q0 36 -23.5 59.5t-58.5 23.5q-42 0 -76 -32t-34 -76
q0 -35 23 -58.5t60 -23.5zM952 1248q43 0 76 32t33 75q0 36 -22.5 59.5t-59.5 23.5q-42 0 -75.5 -32t-33.5 -76q0 -35 23.5 -58.5t58.5 -23.5z" />
    <glyph glyph-name="yacute" unicode="&#xfd;" horiz-adv-x="1239" 
d="M256 0h514l540 1185h-352l-407 -964h-1l-70 964h-351zM-76 -466q310 0 509 85.5t337 380.5l-312 1q-69 -149 -178.5 -194t-315.5 -45zM533 1228h159l272 209h-233z" />
    <glyph glyph-name="thorn" unicode="&#xfe;" horiz-adv-x="1338" 
d="M-92 -400h336l229 1294h-334zM-18 0h307l60 172l246 1398h-337zM695 -7q241 0 382.5 164t179.5 446q39 269 -35.5 431t-316.5 162q-212 0 -385 -99t-195 -219l123 -145q18 98 106.5 165t193.5 67q113 0 159 -75t11 -292q-37 -225 -112.5 -300.5t-188.5 -75.5
q-105 0 -170.5 67t-47.5 167l-175 -148q-21 -119 118 -217t353 -98z" />
    <glyph glyph-name="ydieresis" unicode="&#xff;" horiz-adv-x="1239" 
d="M256 0h514l540 1185h-352l-407 -964h-1l-70 964h-351zM-76 -466q310 0 509 85.5t337 380.5l-312 1q-69 -149 -178.5 -194t-315.5 -45zM534 1248q41 0 75 32t34 75q0 36 -23.5 59.5t-58.5 23.5q-42 0 -76 -32t-34 -76q0 -35 23 -58.5t60 -23.5zM929 1248q43 0 76 32t33 75
q0 36 -22.5 59.5t-59.5 23.5q-42 0 -75.5 -32t-33.5 -76q0 -35 23.5 -58.5t58.5 -23.5z" />
    <glyph glyph-name="Amacron" unicode="&#x100;" horiz-adv-x="1459" 
d="M-48 0h350l150 329h459l34 -329h350l-193 1352h-482zM547 553l279 600h3l67 -600h-349zM544 1442h683l22 123h-682z" />
    <glyph glyph-name="amacron" unicode="&#x101;" horiz-adv-x="1331" 
d="M405 -12q78 0 146.5 13t124.5 34.5t96 47.5t61 53l5 -136h280l131 740q30 166 -21 266.5t-174 145.5t-311 45q-104 0 -200 -17.5t-178.5 -55.5t-145.5 -101.5t-101 -155.5l313 -91q27 73 71 116t98 61.5t112 18.5q75 0 124.5 -20.5t70 -67.5t7.5 -127l-8 -45h-375
q-70 0 -141 -9.5t-135 -33.5t-115.5 -65.5t-84.5 -106.5t-41 -157q-15 -137 26.5 -213.5t134.5 -107.5t230 -31zM516 203q-56 0 -94 13t-55 48t-10 101q6 52 24.5 84.5t48 50t67.5 24t82 6.5h290l-37 -212q-26 -30 -74 -56.5t-110.5 -42.5t-131.5 -16zM434 1278h683l22 123
h-682z" />
    <glyph glyph-name="Abreve" unicode="&#x102;" horiz-adv-x="1459" 
d="M-48 0h350l150 329h459l34 -329h350l-193 1352h-482zM547 553l279 600h3l67 -600h-349zM881 1410q80 0 141 27t99 71.5t47 97.5h-158q-5 -26 -17 -45.5t-34.5 -29.5t-57.5 -10q-31 0 -50 10t-26 29t-3 46h-158q-9 -53 13.5 -97.5t74.5 -71.5t129 -27z" />
    <glyph glyph-name="abreve" unicode="&#x103;" horiz-adv-x="1331" 
d="M405 -12q78 0 146.5 13t124.5 34.5t96 47.5t61 53l5 -136h280l131 740q30 166 -21 266.5t-174 145.5t-311 45q-104 0 -200 -17.5t-178.5 -55.5t-145.5 -101.5t-101 -155.5l313 -91q27 73 71 116t98 61.5t112 18.5q75 0 124.5 -20.5t70 -67.5t7.5 -127l-8 -45h-375
q-70 0 -141 -9.5t-135 -33.5t-115.5 -65.5t-84.5 -106.5t-41 -157q-15 -137 26.5 -213.5t134.5 -107.5t230 -31zM516 203q-56 0 -94 13t-55 48t-10 101q6 52 24.5 84.5t48 50t67.5 24t82 6.5h290l-37 -212q-26 -30 -74 -56.5t-110.5 -42.5t-131.5 -16zM771 1246q80 0 141 27
t99 71.5t47 97.5h-158q-5 -26 -17 -45.5t-34.5 -29.5t-57.5 -10q-31 0 -50 10t-26 29t-3 46h-158q-9 -53 13.5 -97.5t74.5 -71.5t129 -27z" />
    <glyph glyph-name="Aogonek" unicode="&#x104;" horiz-adv-x="1459" 
d="M-48 0h350l150 329h459l34 -329h350l-193 1352h-482zM547 553l279 600h3l67 -600h-349zM1199 -374q48 0 92 5t77 11.5t43 10.5l28 164q-12 -5 -39.5 -12t-60 -11.5t-62.5 -4.5q-35 0 -51 12t-16 32q0 22 15.5 54.5t37 64t36.5 48.5h-163q-29 -27 -59.5 -69t-50.5 -89.5
t-20 -92.5q0 -47 27 -73.5t71.5 -38t94.5 -11.5z" />
    <glyph glyph-name="aogonek" unicode="&#x105;" horiz-adv-x="1331" 
d="M405 -12q78 0 146.5 13t124.5 34.5t96 47.5t61 53l5 -136h280l131 740q30 166 -21 266.5t-174 145.5t-311 45q-104 0 -200 -17.5t-178.5 -55.5t-145.5 -101.5t-101 -155.5l313 -91q27 73 71 116t98 61.5t112 18.5q75 0 124.5 -20.5t70 -67.5t7.5 -127l-8 -45h-375
q-70 0 -141 -9.5t-135 -33.5t-115.5 -65.5t-84.5 -106.5t-41 -157q-15 -137 26.5 -213.5t134.5 -107.5t230 -31zM516 203q-56 0 -94 13t-55 48t-10 101q6 52 24.5 84.5t48 50t67.5 24t82 6.5h290l-37 -212q-26 -30 -74 -56.5t-110.5 -42.5t-131.5 -16zM1019 -374q48 0 92 5
t77 11.5t43 10.5l28 164q-12 -5 -39.5 -12t-60 -11.5t-62.5 -4.5q-35 0 -51 12t-16 32q0 22 15.5 54.5t37 64t36.5 48.5h-163q-29 -27 -59.5 -69t-50.5 -89.5t-20 -92.5q0 -47 27 -73.5t71.5 -38t94.5 -11.5z" />
    <glyph glyph-name="Cacute" unicode="&#x106;" horiz-adv-x="1359" 
d="M572 -8q362 0 510 166.5t186 389.5h-343q-34 -193 -113.5 -259t-205.5 -66q-130 0 -190 77t-12 378q48 309 140 381t221 72q127 0 181.5 -62.5t23.5 -262.5h344q35 231 -56 393.5t-455 162.5q-359 0 -524 -171.5t-219 -512.5q-54 -334 48 -510t464 -176zM599 1392h159
l272 209h-233z" />
    <glyph glyph-name="cacute" unicode="&#x107;" horiz-adv-x="1265" 
d="M541 -11q294 0 430 128.5t176 259.5l-279 108q-30 -126 -106 -195.5t-184 -69.5q-107 0 -159 75.5t-29 274.5q26 238 115.5 316t202.5 78q108 0 159.5 -66t37.5 -203l317 104q4 141 -90 269t-388 128q-337 0 -504.5 -163t-192.5 -479q-22 -262 71 -413.5t423 -151.5z
M549 1228h159l272 209h-233z" />
    <glyph glyph-name="Ccircumflex" unicode="&#x108;" horiz-adv-x="1359" 
d="M572 -8q362 0 510 166.5t186 389.5h-343q-34 -193 -113.5 -259t-205.5 -66q-130 0 -190 77t-12 378q48 309 140 381t221 72q127 0 181.5 -62.5t23.5 -262.5h344q35 231 -56 393.5t-455 162.5q-359 0 -524 -171.5t-219 -512.5q-54 -334 48 -510t464 -176zM470 1402h194
l157 139l109 -139h194l-185 207h-214z" />
    <glyph glyph-name="ccircumflex" unicode="&#x109;" horiz-adv-x="1265" 
d="M541 -11q294 0 430 128.5t176 259.5l-279 108q-30 -126 -106 -195.5t-184 -69.5q-107 0 -159 75.5t-29 274.5q26 238 115.5 316t202.5 78q108 0 159.5 -66t37.5 -203l317 104q4 141 -90 269t-388 128q-337 0 -504.5 -163t-192.5 -479q-22 -262 71 -413.5t423 -151.5z
M421 1238h194l157 139l109 -139h194l-185 207h-214z" />
    <glyph glyph-name="Cdotaccent" unicode="&#x10a;" horiz-adv-x="1359" 
d="M572 -8q362 0 510 166.5t186 389.5h-343q-34 -193 -113.5 -259t-205.5 -66q-130 0 -190 77t-12 378q48 309 140 381t221 72q127 0 181.5 -62.5t23.5 -262.5h344q35 231 -56 393.5t-455 162.5q-359 0 -524 -171.5t-219 -512.5q-54 -334 48 -510t464 -176zM818 1400
q41 0 70 29t29 70t-29 69.5t-69 28.5q-41 0 -70 -28.5t-29 -69.5t28.5 -70t69.5 -29z" />
    <glyph glyph-name="cdotaccent" unicode="&#x10b;" horiz-adv-x="1265" 
d="M541 -11q294 0 430 128.5t176 259.5l-279 108q-30 -126 -106 -195.5t-184 -69.5q-107 0 -159 75.5t-29 274.5q26 238 115.5 316t202.5 78q108 0 159.5 -66t37.5 -203l317 104q4 141 -90 269t-388 128q-337 0 -504.5 -163t-192.5 -479q-22 -262 71 -413.5t423 -151.5z
M769 1236q41 0 70 29t29 70t-29 69.5t-69 28.5q-41 0 -70 -28.5t-29 -69.5t28.5 -70t69.5 -29z" />
    <glyph glyph-name="Ccaron" unicode="&#x10c;" horiz-adv-x="1359" 
d="M572 -8q362 0 510 166.5t186 389.5h-343q-34 -193 -113.5 -259t-205.5 -66q-130 0 -190 77t-12 378q48 309 140 381t221 72q127 0 181.5 -62.5t23.5 -262.5h344q35 231 -56 393.5t-455 162.5q-359 0 -524 -171.5t-219 -512.5q-54 -334 48 -510t464 -176zM692 1395h214
l255 207h-195l-155 -139l-112 139h-191z" />
    <glyph glyph-name="ccaron" unicode="&#x10d;" horiz-adv-x="1265" 
d="M541 -11q294 0 430 128.5t176 259.5l-279 108q-30 -126 -106 -195.5t-184 -69.5q-107 0 -159 75.5t-29 274.5q26 238 115.5 316t202.5 78q108 0 159.5 -66t37.5 -203l317 104q4 141 -90 269t-388 128q-337 0 -504.5 -163t-192.5 -479q-22 -262 71 -413.5t423 -151.5z
M643 1231h214l255 207h-195l-155 -139l-112 139h-191z" />
    <glyph glyph-name="Dcaron" unicode="&#x10e;" horiz-adv-x="1354" 
d="M-22 0h700q281 0 419.5 149.5t197.5 526.5q56 369 -28.5 521.5t-365.5 152.5h-685zM358 231l157 888h260q133 0 182 -72t-2 -371q-53 -303 -128.5 -374t-207.5 -71h-261zM692 1395h214l255 207h-195l-155 -139l-112 139h-191z" />
    <glyph glyph-name="dcaron" unicode="&#x10f;" horiz-adv-x="1571" 
d="M1398 1216h207l135 354h-222zM803 0h312l276 1570h-335l-245 -1398zM408 -7q213 0 384 98t193 217l-123 148q-18 -99 -106.5 -166.5t-193.5 -67.5q-110 0 -155.5 72t-17.5 286q30 230 107.5 307.5t196.5 77.5q105 0 169.5 -67t48.5 -165l173 145q22 120 -117 219t-352 99
q-254 0 -399 -174.5t-168 -474.5q-22 -245 53.5 -399.5t306.5 -154.5z" />
    <glyph glyph-name="Dcroat" unicode="&#x110;" horiz-adv-x="1396" 
d="M-43 566h676l36 221h-675zM21 0h699q282 0 420.5 149.5t196.5 526.5q56 369 -28 521.5t-365 152.5h-685zM401 231l156 888h261q132 0 181 -72t-2 -371q-52 -303 -127.5 -374t-207.5 -71h-261z" />
    <glyph glyph-name="dcroat" unicode="&#x111;" horiz-adv-x="1334" 
d="M668 1303h802l28 160h-802zM803 0h312l276 1570h-335l-245 -1398zM408 -7q213 0 384 98t193 217l-123 148q-18 -99 -106.5 -166.5t-193.5 -67.5q-110 0 -155.5 72t-17.5 286q30 230 107.5 307.5t196.5 77.5q105 0 169.5 -67t48.5 -165l173 145q22 120 -117 219t-352 99
q-254 0 -399 -174.5t-168 -474.5q-22 -245 53.5 -399.5t306.5 -154.5z" />
    <glyph glyph-name="Emacron" unicode="&#x112;" horiz-adv-x="1154" 
d="M-36 0h987l40 231h-645l60 343h600l39 220h-600l57 325h645l42 231h-987zM369 1442h683l22 123h-682z" />
    <glyph glyph-name="emacron" unicode="&#x113;" horiz-adv-x="1332" 
d="M559 -11l39 217q-128 0 -189 80q-62 79 -22 307q40 233 130 311q91 77 212 77q124 0 182 -71q39 -61 23 -213h-559l-36 -203h895q14 45 23 100q49 281 -51 443q-102 161 -439 161q-327 0 -492 -160q-164 -158 -214 -444q-47 -280 58 -443q105 -162 440 -162zM598 206
l-39 -217q179 0 289 35q109 34 196 106q85 71 128 188l-286 85q-32 -63 -69 -111q-39 -46 -90 -67q-54 -19 -129 -19zM443 1278h683l22 123h-682z" />
    <glyph glyph-name="Ebreve" unicode="&#x114;" horiz-adv-x="1154" 
d="M-36 0h987l40 231h-645l60 343h600l39 220h-600l57 325h645l42 231h-987zM705 1410q80 0 141 27t99 71.5t47 97.5h-158q-5 -26 -17 -45.5t-34.5 -29.5t-57.5 -10q-31 0 -50 10t-26 29t-3 46h-158q-9 -53 13.5 -97.5t74.5 -71.5t129 -27z" />
    <glyph glyph-name="ebreve" unicode="&#x115;" horiz-adv-x="1332" 
d="M559 -11l39 217q-128 0 -189 80q-62 79 -22 307q40 233 130 311q91 77 212 77q124 0 182 -71q39 -61 23 -213h-559l-36 -203h895q14 45 23 100q49 281 -51 443q-102 161 -439 161q-327 0 -492 -160q-164 -158 -214 -444q-47 -280 58 -443q105 -162 440 -162zM598 206
l-39 -217q179 0 289 35q109 34 196 106q85 71 128 188l-286 85q-32 -63 -69 -111q-39 -46 -90 -67q-54 -19 -129 -19zM779 1246q80 0 141 27t99 71.5t47 97.5h-158q-5 -26 -17 -45.5t-34.5 -29.5t-57.5 -10q-31 0 -50 10t-26 29t-3 46h-158q-9 -53 13.5 -97.5t74.5 -71.5
t129 -27z" />
    <glyph glyph-name="Edotaccent" unicode="&#x116;" horiz-adv-x="1154" 
d="M-36 0h987l40 231h-645l60 343h600l39 220h-600l57 325h645l42 231h-987zM724 1400q41 0 70 29t29 70t-29 69.5t-69 28.5q-41 0 -70 -28.5t-29 -69.5t28.5 -70t69.5 -29z" />
    <glyph glyph-name="edotaccent" unicode="&#x117;" horiz-adv-x="1332" 
d="M559 -11l39 217q-128 0 -189 80q-62 79 -22 307q40 233 130 311q91 77 212 77q124 0 182 -71q39 -61 23 -213h-559l-36 -203h895q14 45 23 100q49 281 -51 443q-102 161 -439 161q-327 0 -492 -160q-164 -158 -214 -444q-47 -280 58 -443q105 -162 440 -162zM598 206
l-39 -217q179 0 289 35q109 34 196 106q85 71 128 188l-286 85q-32 -63 -69 -111q-39 -46 -90 -67q-54 -19 -129 -19zM798 1236q41 0 70 29t29 70t-29 69.5t-69 28.5q-41 0 -70 -28.5t-29 -69.5t28.5 -70t69.5 -29z" />
    <glyph glyph-name="Eogonek" unicode="&#x118;" horiz-adv-x="1154" 
d="M-36 0h987l40 231h-645l60 343h600l39 220h-600l57 325h645l42 231h-987zM569 -374q48 0 92 5t77 11.5t43 10.5l28 164q-12 -5 -39.5 -12t-60 -11.5t-62.5 -4.5q-35 0 -51 12t-16 32q0 22 15.5 54.5t37 64t36.5 48.5h-163q-29 -27 -59.5 -69t-50.5 -89.5t-20 -92.5
q0 -47 27 -73.5t71.5 -38t94.5 -11.5z" />
    <glyph glyph-name="eogonek" unicode="&#x119;" horiz-adv-x="1332" 
d="M559 -11l39 217q-128 0 -189 80q-62 79 -22 307q40 233 130 311q91 77 212 77q124 0 182 -71q39 -61 23 -213h-559l-36 -203h895q14 45 23 100q49 281 -51 443q-102 161 -439 161q-327 0 -492 -160q-164 -158 -214 -444q-47 -280 58 -443q105 -162 440 -162zM598 206
l-39 -217q179 0 289 35q109 34 196 106q85 71 128 188l-286 85q-32 -63 -69 -111q-39 -46 -90 -67q-54 -19 -129 -19zM867 -317q48 0 92 5t77 11.5t43 10.5l28 164q-12 -5 -39.5 -12t-60 -11.5t-62.5 -4.5q-35 0 -51 12t-16 32q0 22 15.5 54.5t37 64t36.5 48.5h-163
q-29 -27 -59.5 -69t-50.5 -89.5t-20 -92.5q0 -47 27 -73.5t71.5 -38t94.5 -11.5z" />
    <glyph glyph-name="Ecaron" unicode="&#x11a;" horiz-adv-x="1154" 
d="M-36 0h987l40 231h-645l60 343h600l39 220h-600l57 325h645l42 231h-987zM598 1395h214l255 207h-195l-155 -139l-112 139h-191z" />
    <glyph glyph-name="ecaron" unicode="&#x11b;" horiz-adv-x="1332" 
d="M559 -11l39 217q-128 0 -189 80q-62 79 -22 307q40 233 130 311q91 77 212 77q124 0 182 -71q39 -61 23 -213h-559l-36 -203h895q14 45 23 100q49 281 -51 443q-102 161 -439 161q-327 0 -492 -160q-164 -158 -214 -444q-47 -280 58 -443q105 -162 440 -162zM598 206
l-39 -217q179 0 289 35q109 34 196 106q85 71 128 188l-286 85q-32 -63 -69 -111q-39 -46 -90 -67q-54 -19 -129 -19zM672 1231h214l255 207h-195l-155 -139l-112 139h-191z" />
    <glyph glyph-name="Gcircumflex" unicode="&#x11c;" horiz-adv-x="1391" 
d="M542 -8q313 0 429 177l8 -169h192l123 700h-580l-34 -201h230l-10 -49q-31 -128 -96 -177.5t-194 -49.5q-137 0 -191.5 88.5t-13.5 355.5q49 311 138.5 388t224.5 77q130 0 181 -58.5t31 -220.5h341q28 201 -77.5 355t-442.5 154q-361 0 -524.5 -171t-212.5 -513
q-47 -334 46.5 -510t431.5 -176zM500 1402h194l157 139l109 -139h194l-185 207h-214z" />
    <glyph glyph-name="gcircumflex" unicode="&#x11d;" horiz-adv-x="1345" 
d="M443 -469q185 0 313.5 47t232 163.5t139.5 322.5l198 1121h-245l-133 -233l-163 -922q-31 -184 -107.5 -235t-185.5 -51q-65 0 -113 20t-70.5 65t-17.5 114h-328q-18 -227 124 -319.5t356 -92.5zM407 -7q213 0 384.5 97t192.5 218l-124 148q-17 -99 -105.5 -166.5
t-193.5 -67.5q-113 0 -160.5 74.5t-9.5 297.5t113 297t188 74q105 0 170 -67t48 -165l173 138q21 119 -116.5 222t-351.5 103q-241 0 -381.5 -159t-182.5 -442q-41 -281 37 -441.5t319 -160.5zM444 1238h194l157 139l109 -139h194l-185 207h-214z" />
    <glyph glyph-name="Gbreve" unicode="&#x11e;" horiz-adv-x="1391" 
d="M542 -8q313 0 429 177l8 -169h192l123 700h-580l-34 -201h230l-10 -49q-31 -128 -96 -177.5t-194 -49.5q-137 0 -191.5 88.5t-13.5 355.5q49 311 138.5 388t224.5 77q130 0 181 -58.5t31 -220.5h341q28 201 -77.5 355t-442.5 154q-361 0 -524.5 -171t-212.5 -513
q-47 -334 46.5 -510t431.5 -176zM829 1410q80 0 141 27t99 71.5t47 97.5h-158q-5 -26 -17 -45.5t-34.5 -29.5t-57.5 -10q-31 0 -50 10t-26 29t-3 46h-158q-9 -53 13.5 -97.5t74.5 -71.5t129 -27z" />
    <glyph glyph-name="gbreve" unicode="&#x11f;" horiz-adv-x="1345" 
d="M443 -469q185 0 313.5 47t232 163.5t139.5 322.5l198 1121h-245l-133 -233l-163 -922q-31 -184 -107.5 -235t-185.5 -51q-65 0 -113 20t-70.5 65t-17.5 114h-328q-18 -227 124 -319.5t356 -92.5zM407 -7q213 0 384.5 97t192.5 218l-124 148q-17 -99 -105.5 -166.5
t-193.5 -67.5q-113 0 -160.5 74.5t-9.5 297.5t113 297t188 74q105 0 170 -67t48 -165l173 138q21 119 -116.5 222t-351.5 103q-241 0 -381.5 -159t-182.5 -442q-41 -281 37 -441.5t319 -160.5zM773 1246q80 0 141 27t99 71.5t47 97.5h-158q-5 -26 -17 -45.5t-34.5 -29.5
t-57.5 -10q-31 0 -50 10t-26 29t-3 46h-158q-9 -53 13.5 -97.5t74.5 -71.5t129 -27z" />
    <glyph glyph-name="Gdotaccent" unicode="&#x120;" horiz-adv-x="1391" 
d="M542 -8q313 0 429 177l8 -169h192l123 700h-580l-34 -201h230l-10 -49q-31 -128 -96 -177.5t-194 -49.5q-137 0 -191.5 88.5t-13.5 355.5q49 311 138.5 388t224.5 77q130 0 181 -58.5t31 -220.5h341q28 201 -77.5 355t-442.5 154q-361 0 -524.5 -171t-212.5 -513
q-47 -334 46.5 -510t431.5 -176zM847 1400q41 0 70 29t29 70t-29 69.5t-69 28.5q-41 0 -70 -28.5t-29 -69.5t28.5 -70t69.5 -29z" />
    <glyph glyph-name="gdotaccent" unicode="&#x121;" horiz-adv-x="1345" 
d="M443 -469q185 0 313.5 47t232 163.5t139.5 322.5l198 1121h-245l-133 -233l-163 -922q-31 -184 -107.5 -235t-185.5 -51q-65 0 -113 20t-70.5 65t-17.5 114h-328q-18 -227 124 -319.5t356 -92.5zM407 -7q213 0 384.5 97t192.5 218l-124 148q-17 -99 -105.5 -166.5
t-193.5 -67.5q-113 0 -160.5 74.5t-9.5 297.5t113 297t188 74q105 0 170 -67t48 -165l173 138q21 119 -116.5 222t-351.5 103q-241 0 -381.5 -159t-182.5 -442q-41 -281 37 -441.5t319 -160.5zM792 1236q41 0 70 29t29 70t-29 69.5t-69 28.5q-41 0 -70 -28.5t-29 -69.5
t28.5 -70t69.5 -29z" />
    <glyph glyph-name="uni0122" unicode="&#x122;" horiz-adv-x="1391" 
d="M542 -8q313 0 429 177l8 -169h192l123 700h-580l-34 -201h230l-10 -49q-31 -128 -96 -177.5t-194 -49.5q-137 0 -191.5 88.5t-13.5 355.5q49 311 138.5 388t224.5 77q130 0 181 -58.5t31 -220.5h341q28 201 -77.5 355t-442.5 154q-361 0 -524.5 -171t-212.5 -513
q-47 -334 46.5 -510t431.5 -176zM384 -327h117l181 264h-188z" />
    <glyph glyph-name="uni0123" unicode="&#x123;" horiz-adv-x="1345" 
d="M443 -469q185 0 313.5 47t232 163.5t139.5 322.5l198 1121h-245l-133 -233l-163 -922q-31 -184 -107.5 -235t-185.5 -51q-65 0 -113 20t-70.5 65t-17.5 114h-328q-18 -227 124 -319.5t356 -92.5zM407 -7q213 0 384.5 97t192.5 218l-124 148q-17 -99 -105.5 -166.5
t-193.5 -67.5q-113 0 -160.5 74.5t-9.5 297.5t113 297t188 74q105 0 170 -67t48 -165l173 138q21 119 -116.5 222t-351.5 103q-241 0 -381.5 -159t-182.5 -442q-41 -281 37 -441.5t319 -160.5zM679 1262h152l95 230h-94z" />
    <glyph glyph-name="Hcircumflex" unicode="&#x124;" horiz-adv-x="1376" 
d="M-22 0h341l98 560h497l-98 -560h340l238 1350h-340l-99 -559h-497l99 559h-340zM491 1402h194l157 139l109 -139h194l-185 207h-214z" />
    <glyph glyph-name="hcircumflex" unicode="&#x125;" horiz-adv-x="1318" 
d="M-22 0h337l278 1570h-337zM763 0h336l113 644q45 253 -18 402.5t-293 149.5q-241 0 -416.5 -152.5t-203.5 -309.5l150 -75q24 136 111.5 221t192.5 85q100 0 137 -70t2 -267zM496 1605h194l157 139l109 -139h194l-185 207h-214z" />
    <glyph glyph-name="Hbar" unicode="&#x126;" horiz-adv-x="1373" 
d="M110 1032h1301l22 122h-1301zM-10 0h340l99 560h498l-99 -560h340l238 1350h-340l-99 -559h-497l99 559h-341z" />
    <glyph glyph-name="hbar" unicode="&#x127;" horiz-adv-x="1293" 
d="M115 1303h801l29 160h-802zM-22 0h337l278 1570h-337zM763 0h336l113 644q45 253 -18 402.5t-293 149.5q-241 0 -416.5 -152.5t-203.5 -309.5l150 -75q24 136 111.5 221t192.5 85q100 0 137 -70t2 -267z" />
    <glyph glyph-name="Itilde" unicode="&#x128;" horiz-adv-x="619" 
d="M20 0h339l238 1350h-338zM583 1414q70 0 117 23t75.5 57.5t43 68.5t19.5 55h-162q-3 -13 -14.5 -30.5t-30.5 -29.5t-45 -12q-30 0 -52 12t-44 28.5t-51 28.5t-73 12q-71 0 -119.5 -22.5t-77 -56t-43 -67t-20.5 -55.5h164q4 13 13.5 30.5t29 29.5t48.5 12q28 0 49 -13
t44 -29.5t53 -29t76 -12.5z" />
    <glyph glyph-name="itilde" unicode="&#x129;" horiz-adv-x="558" 
d="M-18 0h338l209 1185h-338zM502 1250q70 0 117 23t75.5 57.5t43 68.5t19.5 55h-162q-3 -13 -14.5 -30.5t-30.5 -29.5t-45 -12q-30 0 -52 12t-44 28.5t-51 28.5t-73 12q-71 0 -119.5 -22.5t-77 -56t-43 -67t-20.5 -55.5h164q4 13 13.5 30.5t29 29.5t48.5 12q28 0 49 -13
t44 -29.5t53 -29t76 -12.5z" />
    <glyph glyph-name="Imacron" unicode="&#x12a;" horiz-adv-x="619" 
d="M20 0h339l238 1350h-338zM117 1442h683l22 123h-682z" />
    <glyph glyph-name="imacron" unicode="&#x12b;" horiz-adv-x="558" 
d="M128 1278h496l22 123h-496zM-18 0h338l209 1185h-338z" />
    <glyph glyph-name="Ibreve" unicode="&#x12c;" horiz-adv-x="619" 
d="M20 0h339l238 1350h-338zM453 1410q80 0 141 27t99 71.5t47 97.5h-158q-5 -26 -17 -45.5t-34.5 -29.5t-57.5 -10q-31 0 -50 10t-26 29t-3 46h-158q-9 -53 13.5 -97.5t74.5 -71.5t129 -27z" />
    <glyph glyph-name="ibreve" unicode="&#x12d;" horiz-adv-x="558" 
d="M-18 0h338l209 1185h-338zM372 1246q80 0 141 27t99 71.5t47 97.5h-158q-5 -26 -17 -45.5t-34.5 -29.5t-57.5 -10q-31 0 -50 10t-26 29t-3 46h-158q-9 -53 13.5 -97.5t74.5 -71.5t129 -27z" />
    <glyph glyph-name="Iogonek" unicode="&#x12e;" horiz-adv-x="619" 
d="M20 0h339l238 1350h-338zM259 -374q48 0 92 5t77 11.5t43 10.5l28 164q-12 -5 -39.5 -12t-60 -11.5t-62.5 -4.5q-35 0 -51 12t-16 32q0 22 15.5 54.5t37 64t36.5 48.5h-163q-29 -27 -59.5 -69t-50.5 -89.5t-20 -92.5q0 -47 27 -73.5t71.5 -38t94.5 -11.5z" />
    <glyph glyph-name="iogonek" unicode="&#x12f;" horiz-adv-x="558" 
d="M258 1542l-41 -235h337l40 235h-336zM-18 0h338l209 1185h-338zM221 -374q47 0 92 5t77.5 11.5t43.5 10.5l28 164q-13 -5 -40.5 -12t-60.5 -11.5t-62 -4.5q-35 0 -51.5 12t-16.5 32q0 22 16 54.5t37 64t38 48.5h-163q-30 -27 -60 -69t-51 -89.5t-21 -92.5q0 -47 28 -73.5
t71.5 -38t94.5 -11.5z" />
    <glyph glyph-name="Idotaccent" unicode="&#x130;" horiz-adv-x="619" 
d="M20 0h339l238 1350h-338zM472 1400q41 0 70 29t29 70t-29 69.5t-69 28.5q-41 0 -70 -28.5t-29 -69.5t28.5 -70t69.5 -29z" />
    <glyph glyph-name="dotlessi" unicode="&#x131;" horiz-adv-x="558" 
d="M-18 0h338l209 1185h-338z" />
    <glyph glyph-name="IJ" unicode="&#x132;" horiz-adv-x="1953" 
d="M20 0h339l238 1350h-338zM1149 -11q291 0 449 101.5t194 303.5l168 956h-338l-160 -907q-21 -116 -84.5 -171t-198.5 -55q-134 0 -176.5 57t-20.5 172l29 161h-340l-35 -200q-40 -214 92 -316t421 -102z" />
    <glyph glyph-name="ij" unicode="&#x133;" horiz-adv-x="1183" 
d="M13 0h336l209 1186h-337zM284 1542l-41 -235h336l42 235h-337zM262 -460q297 0 470 103.5t225 404.5l201 1138h-335l-204 -1151q-27 -158 -106 -210t-209 -52zM885 1542l-42 -235h337l41 235h-336z" />
    <glyph glyph-name="Jcircumflex" unicode="&#x134;" horiz-adv-x="1333" 
d="M530 -11q291 0 449 101.5t194 303.5l168 956h-338l-160 -907q-21 -116 -84.5 -171t-198.5 -55q-134 0 -176.5 57t-20.5 172l29 161h-340l-35 -200q-40 -214 92 -316t421 -102zM857 1402h194l157 139l109 -139h194l-185 207h-214z" />
    <glyph glyph-name="jcircumflex" unicode="&#x135;" horiz-adv-x="601" 
d="M-320 -460q297 0 470 103.5t225 404.5l202 1138h-336l-204 -1151q-27 -158 -106 -210t-209 -52zM90 1238h194l157 139l109 -139h194l-185 207h-214z" />
    <glyph glyph-name="uni0136" unicode="&#x136;" horiz-adv-x="1285" 
d="M-22 0h338l103 584l336 -584h379l-392 671l633 679h-387l-537 -584l103 584h-338zM342 -327h117l181 264h-188z" />
    <glyph glyph-name="uni0137" unicode="&#x137;" horiz-adv-x="1268" 
d="M-21 0h337l60 347l205 171l167 -518h357l-253 747l448 439h-394l-462 -463l148 847h-337zM319 -327h117l181 264h-188z" />
    <glyph glyph-name="kgreenlandic" unicode="&#x138;" horiz-adv-x="1278" 
d="M-16 0h339l209 1186h-339zM363 584l374 4l614 598h-385zM765 0h378l-405 596l-365 5z" />
    <glyph glyph-name="Lacute" unicode="&#x139;" horiz-adv-x="1055" 
d="M-22 0h888l41 230h-549l199 1120h-340zM484 1392h159l272 209h-233z" />
    <glyph glyph-name="lacute" unicode="&#x13a;" horiz-adv-x="572" 
d="M0 0h337l276 1570h-336zM258 1612h159l272 209h-233z" />
    <glyph glyph-name="uni013B" unicode="&#x13b;" horiz-adv-x="1055" 
d="M-22 0h888l41 230h-549l199 1120h-340zM240 -327h117l181 264h-188z" />
    <glyph glyph-name="uni013C" unicode="&#x13c;" horiz-adv-x="572" 
d="M0 0h337l276 1570h-336zM-21 -327h117l181 264h-188z" />
    <glyph glyph-name="Lcaron" unicode="&#x13d;" horiz-adv-x="1089" 
d="M888 999h207l183 349h-223zM-22 0h888l41 230h-549l199 1120h-340z" />
    <glyph glyph-name="lcaron" unicode="&#x13e;" horiz-adv-x="572" 
d="M0 0h337l276 1570h-336zM351 1615h214l255 207h-195l-155 -139l-112 139h-191z" />
    <glyph glyph-name="Ldot" unicode="&#x13f;" horiz-adv-x="1130" 
d="M-22 0h888l41 230h-549l199 1120h-340zM672 811l-43 -247h315l44 247h-316z" />
    <glyph glyph-name="ldot" unicode="&#x140;" horiz-adv-x="876" 
d="M0 0h337l276 1570h-336zM554 787l-43 -247h315l44 247h-316z" />
    <glyph glyph-name="Lslash" unicode="&#x141;" horiz-adv-x="1119" 
d="M16 389l767 416l-50 168l-768 -416zM64 0h888l40 230h-548l199 1120h-341z" />
    <glyph glyph-name="lslash" unicode="&#x142;" horiz-adv-x="592" 
d="M-45 357l656 338l44 262l-656 -338zM34 0h337l277 1570h-337z" />
    <glyph glyph-name="Nacute" unicode="&#x143;" horiz-adv-x="1571" 
d="M-22 0h338l196 1109h3l308 -1109h529l238 1350h-339l-195 -1091h-4l-304 1091h-532zM733 1392h159l272 209h-233z" />
    <glyph glyph-name="nacute" unicode="&#x144;" horiz-adv-x="1308" 
d="M-21 0h336l173 988l-39 198h-260zM751 0h336l111 633q45 254 -16.5 408.5t-290.5 154.5q-242 0 -418 -152.5t-204 -309.5l150 -75q24 136 112 221t193 85q100 0 136.5 -70t1.5 -267zM579 1217h159l272 209h-233z" />
    <glyph glyph-name="uni0145" unicode="&#x145;" horiz-adv-x="1571" 
d="M-22 0h338l196 1109h3l308 -1109h529l238 1350h-339l-195 -1091h-4l-304 1091h-532zM490 -327h117l181 264h-188z" />
    <glyph glyph-name="uni0146" unicode="&#x146;" horiz-adv-x="1308" 
d="M-21 0h336l173 988l-39 198h-260zM751 0h336l111 633q45 254 -16.5 408.5t-290.5 154.5q-242 0 -418 -152.5t-204 -309.5l150 -75q24 136 112 221t193 85q100 0 136.5 -70t1.5 -267zM351 -326h117l181 264h-188z" />
    <glyph glyph-name="Ncaron" unicode="&#x147;" horiz-adv-x="1571" 
d="M-22 0h338l196 1109h3l308 -1109h529l238 1350h-339l-195 -1091h-4l-304 1091h-532zM825 1395h214l255 207h-195l-155 -139l-112 139h-191z" />
    <glyph glyph-name="ncaron" unicode="&#x148;" horiz-adv-x="1308" 
d="M-21 0h336l173 988l-39 198h-260zM751 0h336l111 633q45 254 -16.5 408.5t-290.5 154.5q-242 0 -418 -152.5t-204 -309.5l150 -75q24 136 112 221t193 85q100 0 136.5 -70t1.5 -267zM659 1221h214l255 207h-195l-155 -139l-112 139h-191z" />
    <glyph glyph-name="Eng" unicode="&#x14a;" horiz-adv-x="1572" 
d="M611 -456q111 0 213 17t190.5 50.5t158.5 87.5t116 128.5t64 172.5h-351q-9 -48 -30 -90.5t-60 -74.5t-102.5 -50.5t-159.5 -18.5zM-22 0h338l196 1109h3l308 -1109h529l238 1350h-339l-195 -1091h-4l-304 1091h-532z" />
    <glyph glyph-name="eng" unicode="&#x14b;" horiz-adv-x="1306" 
d="M423 -434q202 0 340 45t218 140t106 249h-336q-14 -82 -54 -130.5t-101 -70.5t-135 -22zM-21 0h336l173 988l-39 198h-260zM751 0h336l111 633q45 254 -16.5 408.5t-290.5 154.5q-242 0 -418 -152.5t-204 -309.5l150 -75q24 136 112 221t193 85q100 0 136.5 -70t1.5 -267
z" />
    <glyph glyph-name="Omacron" unicode="&#x14c;" horiz-adv-x="1411" 
d="M587 -11q359 0 536 173t229 513q51 340 -57 513.5t-466 173.5q-359 0 -536.5 -173t-229.5 -514q-51 -339 57 -512.5t467 -173.5zM628 220q-139 0 -206 78.5t-20 376.5q49 303 148 379.5t238 76.5q138 0 205.5 -76.5t19.5 -379.5q-48 -299 -147.5 -377t-237.5 -78z
M500 1442h683l22 123h-682z" />
    <glyph glyph-name="omacron" unicode="&#x14d;" horiz-adv-x="1337" 
d="M552 -9q324 0 492.5 156.5t212.5 449.5q43 290 -66 446t-434 156t-493.5 -154t-212.5 -448q-43 -289 66 -447.5t435 -158.5zM588 219q-116 0 -175.5 75t-25.5 302q35 225 126 300t207 75q117 0 176.5 -74.5t24.5 -300.5q-35 -225 -126 -301t-207 -76zM431 1278h683
l22 123h-682z" />
    <glyph glyph-name="Obreve" unicode="&#x14e;" horiz-adv-x="1411" 
d="M587 -11q359 0 536 173t229 513q51 340 -57 513.5t-466 173.5q-359 0 -536.5 -173t-229.5 -514q-51 -339 57 -512.5t467 -173.5zM628 220q-139 0 -206 78.5t-20 376.5q49 303 148 379.5t238 76.5q138 0 205.5 -76.5t19.5 -379.5q-48 -299 -147.5 -377t-237.5 -78z
M836 1410q80 0 141 27t99 71.5t47 97.5h-158q-5 -26 -17 -45.5t-34.5 -29.5t-57.5 -10q-31 0 -50 10t-26 29t-3 46h-158q-9 -53 13.5 -97.5t74.5 -71.5t129 -27z" />
    <glyph glyph-name="obreve" unicode="&#x14f;" horiz-adv-x="1337" 
d="M552 -9q324 0 492.5 156.5t212.5 449.5q43 290 -66 446t-434 156t-493.5 -154t-212.5 -448q-43 -289 66 -447.5t435 -158.5zM588 219q-116 0 -175.5 75t-25.5 302q35 225 126 300t207 75q117 0 176.5 -74.5t24.5 -300.5q-35 -225 -126 -301t-207 -76zM768 1246
q80 0 141 27t99 71.5t47 97.5h-158q-5 -26 -17 -45.5t-34.5 -29.5t-57.5 -10q-31 0 -50 10t-26 29t-3 46h-158q-9 -53 13.5 -97.5t74.5 -71.5t129 -27z" />
    <glyph glyph-name="Ohungarumlaut" unicode="&#x150;" horiz-adv-x="1411" 
d="M587 -11q359 0 536 173t229 513q51 340 -57 513.5t-466 173.5q-359 0 -536.5 -173t-229.5 -514q-51 -339 57 -512.5t467 -173.5zM628 220q-139 0 -206 78.5t-20 376.5q49 303 148 379.5t238 76.5q138 0 205.5 -76.5t19.5 -379.5q-48 -299 -147.5 -377t-237.5 -78z
M740 1419h154l238 187h-206zM578 1419h153l231 187h-201z" />
    <glyph glyph-name="ohungarumlaut" unicode="&#x151;" horiz-adv-x="1337" 
d="M552 -9q324 0 492.5 156.5t212.5 449.5q43 290 -66 446t-434 156t-493.5 -154t-212.5 -448q-43 -289 66 -447.5t435 -158.5zM588 219q-116 0 -175.5 75t-25.5 302q35 225 126 300t207 75q117 0 176.5 -74.5t24.5 -300.5q-35 -225 -126 -301t-207 -76zM671 1255h154
l238 187h-206zM509 1255h153l231 187h-201z" />
    <glyph glyph-name="OE" unicode="&#x152;" horiz-adv-x="2085" 
d="M587 -11q359 0 536 173t229 513q51 340 -57 513.5t-466 173.5q-359 0 -536.5 -173t-229.5 -514q-51 -339 57 -512.5t467 -173.5zM628 220q-139 0 -206 78.5t-20 376.5q49 303 148 379.5t238 76.5q138 0 205.5 -76.5t19.5 -379.5q-48 -299 -147.5 -377t-237.5 -78zM896 0
h987l40 231h-645l60 343h600l39 220h-600l57 325h645l42 231h-987z" />
    <glyph glyph-name="oe" unicode="&#x153;" horiz-adv-x="2192" 
d="M552 -9q324 0 492.5 156.5t212.5 449.5q43 290 -66 446t-434 156t-493.5 -154t-212.5 -448q-43 -289 66 -447.5t435 -158.5zM588 219q-116 0 -175.5 75t-25.5 302q35 225 126 300t207 75q117 0 176.5 -74.5t24.5 -300.5q-35 -225 -126 -301t-207 -76zM1419 -11l39 217
q-128 0 -189 80q-62 79 -22 307q40 233 130 311q91 77 212 77q124 0 182 -71q39 -61 23 -213h-559l-36 -203h895q14 45 23 100q49 281 -51 443q-102 161 -439 161q-327 0 -492 -160q-164 -158 -214 -444q-47 -280 58 -443q105 -162 440 -162zM1458 206l-39 -217
q179 0 289 35q109 34 196 106q85 71 128 188l-286 85q-32 -63 -69 -111q-39 -46 -90 -67q-54 -19 -129 -19z" />
    <glyph glyph-name="Racute" unicode="&#x154;" horiz-adv-x="1325" 
d="M-22 0h341l95 540h421q231 0 332.5 114t127.5 283q27 167 -26 290t-278 123h-775zM785 0h369l-205 643l-339 -14zM451 748l65 371h322q85 0 108 -48.5t7 -137.5q-15 -88 -55.5 -136.5t-124.5 -48.5h-322zM576 1392h159l272 209h-233z" />
    <glyph glyph-name="racute" unicode="&#x155;" horiz-adv-x="1292" 
d="M842 602h336q54 305 -4 449.5t-293 144.5q-219 0 -373 -114.5t-184 -282.5l116 -76q17 94 92.5 167.5t180.5 73.5q92 0 130 -69t-1 -293zM-22 0h336l173 980l-39 205h-261zM556 1228h159l272 209h-233z" />
    <glyph glyph-name="uni0156" unicode="&#x156;" horiz-adv-x="1325" 
d="M-22 0h341l95 540h421q231 0 332.5 114t127.5 283q27 167 -26 290t-278 123h-775zM785 0h369l-205 643l-339 -14zM451 748l65 371h322q85 0 108 -48.5t7 -137.5q-15 -88 -55.5 -136.5t-124.5 -48.5h-322zM333 -327h117l181 264h-188z" />
    <glyph glyph-name="uni0157" unicode="&#x157;" horiz-adv-x="1292" 
d="M842 602h336q54 305 -4 449.5t-293 144.5q-219 0 -373 -114.5t-184 -282.5l116 -76q17 94 92.5 167.5t180.5 73.5q92 0 130 -69t-1 -293zM-22 0h336l173 980l-39 205h-261zM279 -327h117l181 264h-188z" />
    <glyph glyph-name="Rcaron" unicode="&#x158;" horiz-adv-x="1325" 
d="M-22 0h341l95 540h421q231 0 332.5 114t127.5 283q27 167 -26 290t-278 123h-775zM785 0h369l-205 643l-339 -14zM451 748l65 371h322q85 0 108 -48.5t7 -137.5q-15 -88 -55.5 -136.5t-124.5 -48.5h-322zM669 1395h214l255 207h-195l-155 -139l-112 139h-191z" />
    <glyph glyph-name="rcaron" unicode="&#x159;" horiz-adv-x="1292" 
d="M842 602h336q54 305 -4 449.5t-293 144.5q-219 0 -373 -114.5t-184 -282.5l116 -76q17 94 92.5 167.5t180.5 73.5q92 0 130 -69t-1 -293zM-22 0h336l173 980l-39 205h-261zM649 1231h214l255 207h-195l-155 -139l-112 139h-191z" />
    <glyph glyph-name="Sacute" unicode="&#x15a;" horiz-adv-x="1356" 
d="M633 1496h159l272 209h-233zM558 -8q350 0 502 124.5t172 301.5q22 165 -64.5 237.5t-370.5 134.5q-178 38 -268.5 71t-76.5 127q11 71 94 106t205 35q115 0 181.5 -42t37.5 -214h341q37 223 -66.5 356t-452.5 133q-346 0 -504.5 -122.5t-171.5 -292.5
q-16 -155 69 -240.5t360 -144.5q170 -36 264 -69t80 -122q-13 -77 -93.5 -113t-200.5 -36q-121 0 -185 44t-34 222h-341q-41 -237 61.5 -366.5t461.5 -129.5z" />
    <glyph glyph-name="sacute" unicode="&#x15b;" horiz-adv-x="1311" 
d="M554 -9q235 0 414 87t206 276q26 178 -80 252.5t-323 105.5q-156 22 -247.5 45t-80.5 96q7 56 68 89t170 33q116 0 183 -51.5t74 -141.5l313 106q-13 168 -153 238t-379 70t-410.5 -82.5t-196.5 -259.5q-26 -181 77 -259.5t306 -108.5q165 -28 260.5 -51.5t83.5 -98.5
q-8 -56 -72.5 -90t-176.5 -34q-127 0 -196 49.5t-74 151.5l-314 -107q18 -174 165.5 -244.5t382.5 -70.5zM545 1228h159l272 209h-233z" />
    <glyph glyph-name="Scircumflex" unicode="&#x15c;" horiz-adv-x="1356" 
d="M558 -8q350 0 502 124.5t172 301.5q22 165 -64.5 237.5t-370.5 134.5q-178 38 -268.5 71t-76.5 127q11 71 94 106t205 35q115 0 181.5 -42t37.5 -214h341q37 223 -66.5 356t-452.5 133q-346 0 -504.5 -122.5t-171.5 -292.5q-16 -155 69 -240.5t360 -144.5
q170 -36 264 -69t80 -122q-13 -77 -93.5 -113t-200.5 -36q-121 0 -185 44t-34 222h-341q-41 -237 61.5 -366.5t461.5 -129.5zM477 1402h194l157 139l109 -139h194l-185 207h-214z" />
    <glyph glyph-name="scircumflex" unicode="&#x15d;" horiz-adv-x="1311" 
d="M554 -9q235 0 414 87t206 276q26 178 -80 252.5t-323 105.5q-156 22 -247.5 45t-80.5 96q7 56 68 89t170 33q116 0 183 -51.5t74 -141.5l313 106q-13 168 -153 238t-379 70t-410.5 -82.5t-196.5 -259.5q-26 -181 77 -259.5t306 -108.5q165 -28 260.5 -51.5t83.5 -98.5
q-8 -56 -72.5 -90t-176.5 -34q-127 0 -196 49.5t-74 151.5l-314 -107q18 -174 165.5 -244.5t382.5 -70.5zM417 1238h194l157 139l109 -139h194l-185 207h-214z" />
    <glyph glyph-name="Scedilla" unicode="&#x15e;" horiz-adv-x="1356" 
d="M505 -354q60 0 119 12.5t110 36t84.5 58.5t41.5 80q11 61 -26 90.5t-107 29.5q-55 0 -101.5 -15.5t-72.5 -37.5l-15 -56q14 10 37 17t43 7q25 0 36.5 -6.5t7.5 -23.5q-4 -22 -36.5 -36.5t-93.5 -14.5q-40 0 -75.5 6t-59.5 12l-70 -139q43 -9 89.5 -14.5t88.5 -5.5z
M538 -156l84 157h-133l-69 -145zM558 -8q350 0 502 124.5t172 301.5q22 165 -64.5 237.5t-370.5 134.5q-178 38 -268.5 71t-76.5 127q11 71 94 106t205 35q115 0 181.5 -42t37.5 -214h341q37 223 -66.5 356t-452.5 133q-346 0 -504.5 -122.5t-171.5 -292.5
q-16 -155 69 -240.5t360 -144.5q170 -36 264 -69t80 -122q-13 -77 -93.5 -113t-200.5 -36q-121 0 -185 44t-34 222h-341q-41 -237 61.5 -366.5t461.5 -129.5z" />
    <glyph glyph-name="scedilla" unicode="&#x15f;" horiz-adv-x="1311" 
d="M554 -9q235 0 414 87t206 276q26 178 -80 252.5t-323 105.5q-156 22 -247.5 45t-80.5 96q7 56 68 89t170 33q116 0 183 -51.5t74 -141.5l313 106q-13 168 -153 238t-379 70t-410.5 -82.5t-196.5 -259.5q-26 -181 77 -259.5t306 -108.5q165 -28 260.5 -51.5t83.5 -98.5
q-8 -56 -72.5 -90t-176.5 -34q-127 0 -196 49.5t-74 151.5l-314 -107q18 -174 165.5 -244.5t382.5 -70.5zM485 -355q60 0 119 12.5t110 36t84.5 58.5t41.5 80q11 61 -26 90.5t-107 29.5q-55 0 -101.5 -15.5t-72.5 -37.5l-15 -56q14 10 37 17t43 7q25 0 36.5 -6.5t7.5 -23.5
q-4 -22 -36.5 -36.5t-93.5 -14.5q-40 0 -75.5 6t-59.5 12l-70 -139q43 -9 89.5 -14.5t88.5 -5.5zM518 -157l84 157h-133l-69 -145z" />
    <glyph glyph-name="Scaron" unicode="&#x160;" horiz-adv-x="1355" 
d="M682 1494h214l255 207h-195l-155 -139l-112 139h-191zM558 -8q350 0 502 124.5t172 301.5q22 165 -64.5 237.5t-370.5 134.5q-178 38 -268.5 71t-76.5 127q11 71 94 106t205 35q115 0 181.5 -42t37.5 -214h341q37 223 -66.5 356t-452.5 133q-346 0 -504.5 -122.5
t-171.5 -292.5q-16 -155 69 -240.5t360 -144.5q170 -36 264 -69t80 -122q-13 -77 -93.5 -113t-200.5 -36q-121 0 -185 44t-34 222h-341q-41 -237 61.5 -366.5t461.5 -129.5z" />
    <glyph glyph-name="scaron" unicode="&#x161;" horiz-adv-x="1311" 
d="M554 -9q235 0 414 87t206 276q26 178 -80 252.5t-323 105.5q-156 22 -247.5 45t-80.5 96q7 56 68 89t170 33q116 0 183 -51.5t74 -141.5l313 106q-13 168 -153 238t-379 70t-410.5 -82.5t-196.5 -259.5q-26 -181 77 -259.5t306 -108.5q165 -28 260.5 -51.5t83.5 -98.5
q-8 -56 -72.5 -90t-176.5 -34q-127 0 -196 49.5t-74 151.5l-314 -107q18 -174 165.5 -244.5t382.5 -70.5zM637 1231h214l255 207h-195l-155 -139l-112 139h-191z" />
    <glyph glyph-name="uni0162" unicode="&#x162;" horiz-adv-x="1284" 
d="M354 0h341l196 1119h401l42 231h-1144l-41 -231h402zM486 -355q60 0 119 12.5t110 36t84.5 58.5t41.5 80q11 61 -26 90.5t-107 29.5q-55 0 -101.5 -15.5t-72.5 -37.5l-15 -56q14 10 37 17t43 7q25 0 36.5 -6.5t7.5 -23.5q-4 -22 -36.5 -36.5t-93.5 -14.5q-40 0 -75.5 6
t-59.5 12l-70 -139q43 -9 89.5 -14.5t88.5 -5.5zM519 -157l84 157h-133l-69 -145z" />
    <glyph glyph-name="uni0163" unicode="&#x163;" horiz-adv-x="1082" 
d="M563 -15q136 0 264 28l39 222q-75 -25 -150 -25q-73 0 -108 30t-18 126l104 588h364l41 231h-364l47 271h-336l-48 -271h-270l-41 -231h271l-118 -662q-30 -173 67.5 -240t255.5 -67zM471 -355q60 0 119 12.5t110 36t84.5 58.5t41.5 80q11 61 -26 90.5t-107 29.5
q-55 0 -101.5 -15.5t-72.5 -37.5l-15 -56q14 10 37 17t43 7q25 0 36.5 -6.5t7.5 -23.5q-4 -22 -36.5 -36.5t-93.5 -14.5q-40 0 -75.5 6t-59.5 12l-70 -139q43 -9 89.5 -14.5t88.5 -5.5zM504 -157l84 157h-133l-69 -145z" />
    <glyph glyph-name="Tcaron" unicode="&#x164;" horiz-adv-x="1284" 
d="M354 0h341l196 1119h401l42 231h-1144l-41 -231h402zM671 1395h214l255 207h-195l-155 -139l-112 139h-191z" />
    <glyph glyph-name="tcaron" unicode="&#x165;" horiz-adv-x="1229" 
d="M1117 1187h156l106 268h-173zM563 -15q136 0 264 28l39 222q-75 -25 -150 -25q-73 0 -108 30t-18 126l104 588h364l41 231h-364l47 271h-336l-48 -271h-270l-41 -231h271l-118 -662q-30 -173 67.5 -240t255.5 -67z" />
    <glyph glyph-name="Tbar" unicode="&#x166;" horiz-adv-x="1285" 
d="M180 678h954l35 199h-953zM354 0h341l196 1119h401l42 231h-1144l-41 -231h402z" />
    <glyph glyph-name="tbar" unicode="&#x167;" horiz-adv-x="1061" 
d="M81 525h752l31 179h-752zM563 -15q136 0 264 28l39 222q-75 -25 -150 -25q-73 0 -108 30t-18 126l104 588h364l41 231h-364l47 271h-336l-48 -271h-270l-41 -231h271l-118 -662q-30 -173 67.5 -240t255.5 -67z" />
    <glyph glyph-name="Utilde" unicode="&#x168;" horiz-adv-x="1407" 
d="M581 -8q307 0 477 105t214 352l158 901h-340l-152 -864q-26 -144 -96.5 -203t-218.5 -59t-198 59t-24 203l152 864h-340l-159 -901q-43 -247 89 -352t438 -105zM977 1414q70 0 117 23t75.5 57.5t43 68.5t19.5 55h-162q-3 -13 -14.5 -30.5t-30.5 -29.5t-45 -12
q-30 0 -52 12t-44 28.5t-51 28.5t-73 12q-71 0 -119.5 -22.5t-77 -56t-43 -67t-20.5 -55.5h164q4 13 13.5 30.5t29 29.5t48.5 12q28 0 49 -13t44 -29.5t53 -29t76 -12.5z" />
    <glyph glyph-name="utilde" unicode="&#x169;" horiz-adv-x="1307" 
d="M821 0h258l209 1185h-336l-175 -991zM506 1186h-336l-113 -644q-44 -252 16 -402t292 -150q258 0 426.5 153t196.5 309l-152 70q-23 -137 -113 -219t-195 -82q-100 0 -134 70t2 268zM886 1250q70 0 117 23t75.5 57.5t43 68.5t19.5 55h-162q-3 -13 -14.5 -30.5
t-30.5 -29.5t-45 -12q-30 0 -52 12t-44 28.5t-51 28.5t-73 12q-71 0 -119.5 -22.5t-77 -56t-43 -67t-20.5 -55.5h164q4 13 13.5 30.5t29 29.5t48.5 12q28 0 49 -13t44 -29.5t53 -29t76 -12.5z" />
    <glyph glyph-name="Umacron" unicode="&#x16a;" horiz-adv-x="1407" 
d="M581 -8q307 0 477 105t214 352l158 901h-340l-152 -864q-26 -144 -96.5 -203t-218.5 -59t-198 59t-24 203l152 864h-340l-159 -901q-43 -247 89 -352t438 -105zM511 1442h683l22 123h-682z" />
    <glyph glyph-name="umacron" unicode="&#x16b;" horiz-adv-x="1307" 
d="M821 0h258l209 1185h-336l-175 -991zM506 1186h-336l-113 -644q-44 -252 16 -402t292 -150q258 0 426.5 153t196.5 309l-152 70q-23 -137 -113 -219t-195 -82q-100 0 -134 70t2 268zM420 1278h683l22 123h-682z" />
    <glyph glyph-name="Ubreve" unicode="&#x16c;" horiz-adv-x="1407" 
d="M581 -8q307 0 477 105t214 352l158 901h-340l-152 -864q-26 -144 -96.5 -203t-218.5 -59t-198 59t-24 203l152 864h-340l-159 -901q-43 -247 89 -352t438 -105zM846 1410q80 0 141 27t99 71.5t47 97.5h-158q-5 -26 -17 -45.5t-34.5 -29.5t-57.5 -10q-31 0 -50 10t-26 29
t-3 46h-158q-9 -53 13.5 -97.5t74.5 -71.5t129 -27z" />
    <glyph glyph-name="ubreve" unicode="&#x16d;" horiz-adv-x="1307" 
d="M821 0h258l209 1185h-336l-175 -991zM506 1186h-336l-113 -644q-44 -252 16 -402t292 -150q258 0 426.5 153t196.5 309l-152 70q-23 -137 -113 -219t-195 -82q-100 0 -134 70t2 268zM756 1246q80 0 141 27t99 71.5t47 97.5h-158q-5 -26 -17 -45.5t-34.5 -29.5t-57.5 -10
q-31 0 -50 10t-26 29t-3 46h-158q-9 -53 13.5 -97.5t74.5 -71.5t129 -27z" />
    <glyph glyph-name="Uring" unicode="&#x16e;" horiz-adv-x="1407" 
d="M581 -8q307 0 477 105t214 352l158 901h-340l-152 -864q-26 -144 -96.5 -203t-218.5 -59t-198 59t-24 203l152 864h-340l-159 -901q-43 -247 89 -352t438 -105zM847 1390q47 0 88 22.5t68.5 60.5t34.5 85q12 71 -29 119t-112 48q-48 0 -88.5 -21.5t-67 -59.5t-35.5 -86
q-11 -71 30 -119.5t111 -48.5zM864 1509q-18 0 -29.5 14.5t-9.5 34.5q5 21 20.5 34.5t34.5 13.5t31 -13.5t7 -34.5q-2 -20 -18 -34.5t-36 -14.5z" />
    <glyph glyph-name="uring" unicode="&#x16f;" horiz-adv-x="1307" 
d="M821 0h258l209 1185h-336l-175 -991zM506 1186h-336l-113 -644q-44 -252 16 -402t292 -150q258 0 426.5 153t196.5 309l-152 70q-23 -137 -113 -219t-195 -82q-100 0 -134 70t2 268zM756 1226q47 0 88 22.5t68.5 60.5t34.5 85q12 71 -29 119t-112 48q-48 0 -88.5 -21.5
t-67 -59.5t-35.5 -86q-11 -71 30 -119.5t111 -48.5zM773 1345q-18 0 -29.5 14.5t-9.5 34.5q5 21 20.5 34.5t34.5 13.5t31 -13.5t7 -34.5q-2 -20 -18 -34.5t-36 -14.5z" />
    <glyph glyph-name="Uhungarumlaut" unicode="&#x170;" horiz-adv-x="1407" 
d="M581 -8q307 0 477 105t214 352l158 901h-340l-152 -864q-26 -144 -96.5 -203t-218.5 -59t-198 59t-24 203l152 864h-340l-159 -901q-43 -247 89 -352t438 -105zM751 1419h154l238 187h-206zM589 1419h153l231 187h-201z" />
    <glyph glyph-name="uhungarumlaut" unicode="&#x171;" horiz-adv-x="1307" 
d="M821 0h258l209 1185h-336l-175 -991zM506 1186h-336l-113 -644q-44 -252 16 -402t292 -150q258 0 426.5 153t196.5 309l-152 70q-23 -137 -113 -219t-195 -82q-100 0 -134 70t2 268zM659 1255h154l238 187h-206zM497 1255h153l231 187h-201z" />
    <glyph glyph-name="Uogonek" unicode="&#x172;" horiz-adv-x="1407" 
d="M581 -8q307 0 477 105t214 352l158 901h-340l-152 -864q-26 -144 -96.5 -203t-218.5 -59t-198 59t-24 203l152 864h-340l-159 -901q-43 -247 89 -352t438 -105zM493 -374q48 0 92 5t77 11.5t43 10.5l28 164q-12 -5 -39.5 -12t-60 -11.5t-62.5 -4.5q-35 0 -51 12t-16 32
q0 22 15.5 54.5t37 64t36.5 48.5h-163q-29 -27 -59.5 -69t-50.5 -89.5t-20 -92.5q0 -47 27 -73.5t71.5 -38t94.5 -11.5z" />
    <glyph glyph-name="uogonek" unicode="&#x173;" horiz-adv-x="1307" 
d="M821 0h258l209 1185h-336l-175 -991zM506 1186h-336l-113 -644q-44 -252 16 -402t292 -150q258 0 426.5 153t196.5 309l-152 70q-23 -137 -113 -219t-195 -82q-100 0 -134 70t2 268zM979 -374q48 0 92 5t77 11.5t43 10.5l28 164q-12 -5 -39.5 -12t-60 -11.5t-62.5 -4.5
q-35 0 -51 12t-16 32q0 22 15.5 54.5t37 64t36.5 48.5h-163q-29 -27 -59.5 -69t-50.5 -89.5t-20 -92.5q0 -47 27 -73.5t71.5 -38t94.5 -11.5z" />
    <glyph glyph-name="Wcircumflex" unicode="&#x174;" horiz-adv-x="2036" 
d="M177 0h518l397 1119h3l-1 -1119h519l490 1350h-373l-357 -1102h-3l-19 1102h-446l-408 -1102h-3l37 1102h-361zM823 1402h194l157 139l109 -139h194l-185 207h-214z" />
    <glyph glyph-name="wcircumflex" unicode="&#x175;" horiz-adv-x="1884" 
d="M200 0h451l326 849l29 -849h447l466 1185h-352l-313 -962h-3l-49 962h-336l-390 -964h-3l22 964h-344zM723 1238h194l157 139l109 -139h194l-185 207h-214z" />
    <glyph glyph-name="Ycircumflex" unicode="&#x176;" horiz-adv-x="1411" 
d="M415 0h339l89 504l662 846h-373l-414 -580h-3l-212 580h-365l364 -848zM519 1402h194l157 139l109 -139h194l-185 207h-214z" />
    <glyph glyph-name="ycircumflex" unicode="&#x177;" horiz-adv-x="1239" 
d="M256 0h514l540 1185h-352l-407 -964h-1l-70 964h-351zM-76 -466q310 0 509 85.5t337 380.5l-312 1q-69 -149 -178.5 -194t-315.5 -45zM405 1238h194l157 139l109 -139h194l-185 207h-214z" />
    <glyph glyph-name="Ydieresis" unicode="&#x178;" horiz-adv-x="1411" 
d="M415 0h339l89 504l662 846h-373l-414 -580h-3l-212 580h-365l364 -848zM648 1412q41 0 75 32t34 75q0 36 -23.5 59.5t-58.5 23.5q-42 0 -76 -32t-34 -76q0 -35 23 -58.5t60 -23.5zM1043 1412q43 0 76 32t33 75q0 36 -22.5 59.5t-59.5 23.5q-42 0 -75.5 -32t-33.5 -76
q0 -35 23.5 -58.5t58.5 -23.5z" />
    <glyph glyph-name="Zacute" unicode="&#x179;" horiz-adv-x="1182" 
d="M-47 0h1030l41 231h-652l789 888l41 231h-998l-40 -229h620l-789 -882zM529 1392h159l272 209h-233z" />
    <glyph glyph-name="zacute" unicode="&#x17a;" horiz-adv-x="1096" 
d="M-35 0h941l41 230h-539l1 3l656 726l41 226h-929l-40 -229h538l-1 -2l-668 -726zM455 1228h159l272 209h-233z" />
    <glyph glyph-name="Zdotaccent" unicode="&#x17b;" horiz-adv-x="1182" 
d="M-47 0h1030l41 231h-652l789 888l41 231h-998l-40 -229h620l-789 -882zM749 1400q41 0 70 29t29 70t-29 69.5t-69 28.5q-41 0 -70 -28.5t-29 -69.5t28.5 -70t69.5 -29z" />
    <glyph glyph-name="zdotaccent" unicode="&#x17c;" horiz-adv-x="1096" 
d="M-35 0h941l41 230h-539l1 3l656 726l41 226h-929l-40 -229h538l-1 -2l-668 -726zM674 1236q41 0 70 29t29 70t-29 69.5t-69 28.5q-41 0 -70 -28.5t-29 -69.5t28.5 -70t69.5 -29z" />
    <glyph glyph-name="Zcaron" unicode="&#x17d;" horiz-adv-x="1182" 
d="M-47 0h1030l41 231h-652l789 888l41 231h-998l-40 -229h620l-789 -882zM622 1395h214l255 207h-195l-155 -139l-112 139h-191z" />
    <glyph glyph-name="zcaron" unicode="&#x17e;" horiz-adv-x="1096" 
d="M-35 0h941l41 230h-539l1 3l656 726l41 226h-929l-40 -229h538l-1 -2l-668 -726zM547 1231h214l255 207h-195l-155 -139l-112 139h-191z" />
    <glyph glyph-name="uni018F" unicode="&#x18f;" horiz-adv-x="1318" 
d="M539 -10v0q327 0 493 167q165 167 227 522q63 351 -43 517q-106 167 -442 167l-39 -219q143 0 197 -88q53 -88 1 -381q-55 -312 -141 -391q-86 -78 -216 -78q-116 0 -176 72q-54 68 -21 293h566l37 207h-894q-15 -44 -25 -104q-61 -346 39 -514q100 -170 437 -170z
M447 940v0q16 50 45.5 88t69 63.5t83.5 39t90 13.5l44 129l-5 90q-83 0 -162 -12t-149.5 -37t-129.5 -63t-102.5 -91t-66.5 -119z" />
    <glyph glyph-name="florin" unicode="&#x192;" horiz-adv-x="1067" 
d="M-438 -431h164q165 0 291 35t211.5 111.5t125.5 195.5l334 1045h373l78 229h-373l15 47q23 67 86 96.5t161 29.5h169l73 214h-172q-170 0 -301 -34.5t-219.5 -108.5t-130.5 -193l-15 -51h-245l-77 -229h242l-331 -1041q-24 -70 -80.5 -101t-143.5 -31h-160z" />
    <glyph glyph-name="Ohorn" unicode="&#x1a0;" horiz-adv-x="1411" 
d="M587 -11q359 0 536 173t229 513q51 340 -57 513.5t-466 173.5q-359 0 -536.5 -173t-229.5 -514q-51 -339 57 -512.5t467 -173.5zM628 220q-139 0 -206 78.5t-20 376.5q49 303 148 379.5t238 76.5q138 0 205.5 -76.5t19.5 -379.5q-48 -299 -147.5 -377t-237.5 -78z
M1246 1210l-18 -110q133 0 233 31.5t161.5 94.5t78.5 159h-192q-11 -63 -41 -101.5t-83.5 -56t-138.5 -17.5z" />
    <glyph glyph-name="ohorn" unicode="&#x1a1;" horiz-adv-x="1337" 
d="M552 -9q324 0 492.5 156.5t212.5 449.5q43 290 -66 446t-434 156t-493.5 -154t-212.5 -448q-43 -289 66 -447.5t435 -158.5zM588 219q-116 0 -175.5 75t-25.5 302q35 225 126 300t207 75q117 0 176.5 -74.5t24.5 -300.5q-35 -225 -126 -301t-207 -76zM1141 1061l-18 -110
q133 0 233 31.5t161.5 94.5t78.5 159h-192q-11 -63 -41 -101.5t-83.5 -56t-138.5 -17.5z" />
    <glyph glyph-name="Uhorn" unicode="&#x1af;" horiz-adv-x="1407" 
d="M581 -8q307 0 477 105t214 352l158 901h-340l-152 -864q-26 -144 -96.5 -203t-218.5 -59t-198 59t-24 203l152 864h-340l-159 -901q-43 -247 89 -352t438 -105zM1402 1229l-18 -110q133 0 233 31.5t161.5 94.5t78.5 159h-192q-11 -63 -41 -101.5t-83.5 -56t-138.5 -17.5z
" />
    <glyph glyph-name="uhorn" unicode="&#x1b0;" horiz-adv-x="1307" 
d="M821 0h258l209 1185h-336l-175 -991zM506 1186h-336l-113 -644q-44 -252 16 -402t292 -150q258 0 426.5 153t196.5 309l-152 70q-23 -137 -113 -219t-195 -82q-100 0 -134 70t2 268zM1286 1186l-18 -110q133 0 233 31.5t161.5 94.5t78.5 159h-192q-11 -63 -41 -101.5
t-83.5 -56t-138.5 -17.5z" />
    <glyph glyph-name="uni01C4" unicode="&#x1c4;" horiz-adv-x="2535" 
d="M-22 0h700q281 0 419.5 149.5t197.5 526.5q56 369 -28.5 521.5t-365.5 152.5h-685zM358 231l157 888h260q133 0 182 -72t-2 -371q-53 -303 -128.5 -374t-207.5 -71h-261zM1307 0h1030l41 231h-652l789 888l41 231h-998l-40 -229h620l-789 -882zM1975 1395h214l255 207
h-195l-155 -139l-112 139h-191z" />
    <glyph glyph-name="uni01C5" unicode="&#x1c5;" horiz-adv-x="2450" 
d="M-22 0h700q281 0 419.5 149.5t197.5 526.5q56 369 -28.5 521.5t-365.5 152.5h-685zM358 231l157 888h260q133 0 182 -72t-2 -371q-53 -303 -128.5 -374t-207.5 -71h-261zM1319 0h941l41 230h-539l1 3l656 726l41 226h-929l-40 -229h538l-1 -2l-668 -726zM1900 1231h214
l255 207h-195l-155 -139l-112 139h-191z" />
    <glyph glyph-name="uni01C6" unicode="&#x1c6;" horiz-adv-x="2424" 
d="M803 0h312l276 1570h-335l-245 -1398zM408 -7q213 0 384 98t193 217l-123 148q-18 -99 -106.5 -166.5t-193.5 -67.5q-110 0 -155.5 72t-17.5 286q30 230 107.5 307.5t196.5 77.5q105 0 169.5 -67t48.5 -165l173 145q22 120 -117 219t-352 99q-254 0 -399 -174.5
t-168 -474.5q-22 -245 53.5 -399.5t306.5 -154.5zM1293 0h941l41 230h-539l1 3l656 726l41 226h-929l-40 -229h538l-1 -2l-668 -726zM1875 1231h214l255 207h-195l-155 -139l-112 139h-191z" />
    <glyph glyph-name="uni01C7" unicode="&#x1c7;" horiz-adv-x="2387" 
d="M-22 0h888l41 230h-549l199 1120h-340zM1585 -11q291 0 449 101.5t194 303.5l168 956h-338l-160 -907q-21 -116 -84.5 -171t-198.5 -55q-134 0 -176.5 57t-20.5 172l29 161h-340l-35 -200q-40 -214 92 -316t421 -102z" />
    <glyph glyph-name="uni01C8" unicode="&#x1c8;" horiz-adv-x="1656" 
d="M-22 0h888l41 230h-549l199 1120h-340zM735 -460q297 0 470 103.5t225 404.5l201 1138h-335l-204 -1151q-27 -158 -106 -210t-209 -52zM1358 1542l-42 -235h337l41 235h-336z" />
    <glyph glyph-name="uni01C9" unicode="&#x1c9;" horiz-adv-x="1173" 
d="M0 0h337l276 1570h-336zM252 -460q297 0 470 103.5t225 404.5l201 1138h-335l-204 -1151q-27 -158 -106 -210t-209 -52zM875 1542l-42 -235h337l41 235h-336z" />
    <glyph glyph-name="uni01CA" unicode="&#x1ca;" horiz-adv-x="2905" 
d="M-22 0h338l196 1109h3l308 -1109h529l238 1350h-339l-195 -1091h-4l-304 1091h-532zM2101 -11q291 0 449 101.5t194 303.5l168 956h-338l-160 -907q-21 -116 -84.5 -171t-198.5 -55q-134 0 -176.5 57t-20.5 172l29 161h-340l-35 -200q-40 -214 92 -316t421 -102z" />
    <glyph glyph-name="uni01CB" unicode="&#x1cb;" horiz-adv-x="2172" 
d="M-22 0h338l196 1109h3l308 -1109h529l238 1350h-339l-195 -1091h-4l-304 1091h-532zM1251 -460q297 0 470 103.5t225 404.5l201 1138h-335l-204 -1151q-27 -158 -106 -210t-209 -52zM1874 1542l-42 -235h337l41 235h-336z" />
    <glyph glyph-name="uni01CC" unicode="&#x1cc;" horiz-adv-x="1907" 
d="M-21 0h336l173 988l-39 198h-260zM751 0h336l111 633q45 254 -16.5 408.5t-290.5 154.5q-242 0 -418 -152.5t-204 -309.5l150 -75q24 136 112 221t193 85q100 0 136.5 -70t1.5 -267zM986 -460q297 0 470 103.5t225 404.5l201 1138h-335l-204 -1151q-27 -158 -106 -210
t-209 -52zM1609 1542l-42 -235h337l41 235h-336z" />
    <glyph glyph-name="uni01CD" unicode="&#x1cd;" horiz-adv-x="1459" 
d="M-48 0h350l150 329h459l34 -329h350l-193 1352h-482zM547 553l279 600h3l67 -600h-349zM773 1395h214l255 207h-195l-155 -139l-112 139h-191z" />
    <glyph glyph-name="uni01CE" unicode="&#x1ce;" horiz-adv-x="1331" 
d="M405 -12q78 0 146.5 13t124.5 34.5t96 47.5t61 53l5 -136h280l131 740q30 166 -21 266.5t-174 145.5t-311 45q-104 0 -200 -17.5t-178.5 -55.5t-145.5 -101.5t-101 -155.5l313 -91q27 73 71 116t98 61.5t112 18.5q75 0 124.5 -20.5t70 -67.5t7.5 -127l-8 -45h-375
q-70 0 -141 -9.5t-135 -33.5t-115.5 -65.5t-84.5 -106.5t-41 -157q-15 -137 26.5 -213.5t134.5 -107.5t230 -31zM516 203q-56 0 -94 13t-55 48t-10 101q6 52 24.5 84.5t48 50t67.5 24t82 6.5h290l-37 -212q-26 -30 -74 -56.5t-110.5 -42.5t-131.5 -16zM663 1231h214l255 207
h-195l-155 -139l-112 139h-191z" />
    <glyph glyph-name="uni01CF" unicode="&#x1cf;" horiz-adv-x="619" 
d="M20 0h339l238 1350h-338zM346 1395h214l255 207h-195l-155 -139l-112 139h-191z" />
    <glyph glyph-name="uni01D0" unicode="&#x1d0;" horiz-adv-x="558" 
d="M-18 0h338l209 1185h-338zM264 1231h214l255 207h-195l-155 -139l-112 139h-191z" />
    <glyph glyph-name="uni01D1" unicode="&#x1d1;" horiz-adv-x="1411" 
d="M587 -11q359 0 536 173t229 513q51 340 -57 513.5t-466 173.5q-359 0 -536.5 -173t-229.5 -514q-51 -339 57 -512.5t467 -173.5zM628 220q-139 0 -206 78.5t-20 376.5q49 303 148 379.5t238 76.5q138 0 205.5 -76.5t19.5 -379.5q-48 -299 -147.5 -377t-237.5 -78z
M729 1395h214l255 207h-195l-155 -139l-112 139h-191z" />
    <glyph glyph-name="uni01D2" unicode="&#x1d2;" horiz-adv-x="1337" 
d="M552 -9q324 0 492.5 156.5t212.5 449.5q43 290 -66 446t-434 156t-493.5 -154t-212.5 -448q-43 -289 66 -447.5t435 -158.5zM588 219q-116 0 -175.5 75t-25.5 302q35 225 126 300t207 75q117 0 176.5 -74.5t24.5 -300.5q-35 -225 -126 -301t-207 -76zM660 1231h214
l255 207h-195l-155 -139l-112 139h-191z" />
    <glyph glyph-name="uni01D3" unicode="&#x1d3;" horiz-adv-x="1407" 
d="M581 -8q307 0 477 105t214 352l158 901h-340l-152 -864q-26 -144 -96.5 -203t-218.5 -59t-198 59t-24 203l152 864h-340l-159 -901q-43 -247 89 -352t438 -105zM739 1395h214l255 207h-195l-155 -139l-112 139h-191z" />
    <glyph glyph-name="uni01D4" unicode="&#x1d4;" horiz-adv-x="1307" 
d="M821 0h258l209 1185h-336l-175 -991zM506 1186h-336l-113 -644q-44 -252 16 -402t292 -150q258 0 426.5 153t196.5 309l-152 70q-23 -137 -113 -219t-195 -82q-100 0 -134 70t2 268zM648 1231h214l255 207h-195l-155 -139l-112 139h-191z" />
    <glyph glyph-name="uni01D5" unicode="&#x1d5;" horiz-adv-x="1407" 
d="M581 -8q307 0 477 105t214 352l158 901h-340l-152 -864q-26 -144 -96.5 -203t-218.5 -59t-198 59t-24 203l152 864h-340l-159 -901q-43 -247 89 -352t438 -105zM647 1412q41 0 75 32t34 75q0 36 -23.5 59.5t-58.5 23.5q-42 0 -76 -32t-34 -76q0 -35 23 -58.5t60 -23.5z
M1042 1412q43 0 76 32t33 75q0 36 -22.5 59.5t-59.5 23.5q-42 0 -75.5 -32t-33.5 -76q0 -35 23.5 -58.5t58.5 -23.5zM522 1729h683l22 123h-682z" />
    <glyph glyph-name="uni01D6" unicode="&#x1d6;" horiz-adv-x="1307" 
d="M821 0h258l209 1185h-336l-175 -991zM506 1186h-336l-113 -644q-44 -252 16 -402t292 -150q258 0 426.5 153t196.5 309l-152 70q-23 -137 -113 -219t-195 -82q-100 0 -134 70t2 268zM557 1248q41 0 75 32t34 75q0 36 -23.5 59.5t-58.5 23.5q-42 0 -76 -32t-34 -76
q0 -35 23 -58.5t60 -23.5zM952 1248q43 0 76 32t33 75q0 36 -22.5 59.5t-59.5 23.5q-42 0 -75.5 -32t-33.5 -76q0 -35 23.5 -58.5t58.5 -23.5zM458 1531h683l22 123h-682z" />
    <glyph glyph-name="uni01D7" unicode="&#x1d7;" horiz-adv-x="1407" 
d="M581 -8q307 0 477 105t214 352l158 901h-340l-152 -864q-26 -144 -96.5 -203t-218.5 -59t-198 59t-24 203l152 864h-340l-159 -901q-43 -247 89 -352t438 -105zM647 1412q41 0 75 32t34 75q0 36 -23.5 59.5t-58.5 23.5q-42 0 -76 -32t-34 -76q0 -35 23 -58.5t60 -23.5z
M1042 1412q43 0 76 32t33 75q0 36 -22.5 59.5t-59.5 23.5q-42 0 -75.5 -32t-33.5 -76q0 -35 23.5 -58.5t58.5 -23.5zM692 1696h159l272 209h-233z" />
    <glyph glyph-name="uni01D8" unicode="&#x1d8;" horiz-adv-x="1307" 
d="M821 0h258l209 1185h-336l-175 -991zM506 1186h-336l-113 -644q-44 -252 16 -402t292 -150q258 0 426.5 153t196.5 309l-152 70q-23 -137 -113 -219t-195 -82q-100 0 -134 70t2 268zM557 1248q41 0 75 32t34 75q0 36 -23.5 59.5t-58.5 23.5q-42 0 -76 -32t-34 -76
q0 -35 23 -58.5t60 -23.5zM952 1248q43 0 76 32t33 75q0 36 -22.5 59.5t-59.5 23.5q-42 0 -75.5 -32t-33.5 -76q0 -35 23.5 -58.5t58.5 -23.5zM651 1444h159l272 209h-233z" />
    <glyph glyph-name="uni01D9" unicode="&#x1d9;" horiz-adv-x="1407" 
d="M581 -8q307 0 477 105t214 352l158 901h-340l-152 -864q-26 -144 -96.5 -203t-218.5 -59t-198 59t-24 203l152 864h-340l-159 -901q-43 -247 89 -352t438 -105zM647 1412q41 0 75 32t34 75q0 36 -23.5 59.5t-58.5 23.5q-42 0 -76 -32t-34 -76q0 -35 23 -58.5t60 -23.5z
M1042 1412q43 0 76 32t33 75q0 36 -22.5 59.5t-59.5 23.5q-42 0 -75.5 -32t-33.5 -76q0 -35 23.5 -58.5t58.5 -23.5zM747 1697h214l255 207h-195l-155 -139l-112 139h-191z" />
    <glyph glyph-name="uni01DA" unicode="&#x1da;" horiz-adv-x="1307" 
d="M821 0h258l209 1185h-336l-175 -991zM506 1186h-336l-113 -644q-44 -252 16 -402t292 -150q258 0 426.5 153t196.5 309l-152 70q-23 -137 -113 -219t-195 -82q-100 0 -134 70t2 268zM557 1248q41 0 75 32t34 75q0 36 -23.5 59.5t-58.5 23.5q-42 0 -76 -32t-34 -76
q0 -35 23 -58.5t60 -23.5zM952 1248q43 0 76 32t33 75q0 36 -22.5 59.5t-59.5 23.5q-42 0 -75.5 -32t-33.5 -76q0 -35 23.5 -58.5t58.5 -23.5zM686 1484h214l255 207h-195l-155 -139l-112 139h-191z" />
    <glyph glyph-name="uni01DB" unicode="&#x1db;" horiz-adv-x="1407" 
d="M581 -8q307 0 477 105t214 352l158 901h-340l-152 -864q-26 -144 -96.5 -203t-218.5 -59t-198 59t-24 203l152 864h-340l-159 -901q-43 -247 89 -352t438 -105zM647 1412q41 0 75 32t34 75q0 36 -23.5 59.5t-58.5 23.5q-42 0 -76 -32t-34 -76q0 -35 23 -58.5t60 -23.5z
M1042 1412q43 0 76 32t33 75q0 36 -22.5 59.5t-59.5 23.5q-42 0 -75.5 -32t-33.5 -76q0 -35 23.5 -58.5t58.5 -23.5zM853 1692h151l-126 209h-224z" />
    <glyph glyph-name="uni01DC" unicode="&#x1dc;" horiz-adv-x="1307" 
d="M821 0h258l209 1185h-336l-175 -991zM506 1186h-336l-113 -644q-44 -252 16 -402t292 -150q258 0 426.5 153t196.5 309l-152 70q-23 -137 -113 -219t-195 -82q-100 0 -134 70t2 268zM557 1248q41 0 75 32t34 75q0 36 -23.5 59.5t-58.5 23.5q-42 0 -76 -32t-34 -76
q0 -35 23 -58.5t60 -23.5zM952 1248q43 0 76 32t33 75q0 36 -22.5 59.5t-59.5 23.5q-42 0 -75.5 -32t-33.5 -76q0 -35 23.5 -58.5t58.5 -23.5zM751 1451h151l-126 209h-224z" />
    <glyph glyph-name="Gcaron" unicode="&#x1e6;" horiz-adv-x="1391" 
d="M542 -8q313 0 429 177l8 -169h192l123 700h-580l-34 -201h230l-10 -49q-31 -128 -96 -177.5t-194 -49.5q-137 0 -191.5 88.5t-13.5 355.5q49 311 138.5 388t224.5 77q130 0 181 -58.5t31 -220.5h341q28 201 -77.5 355t-442.5 154q-361 0 -524.5 -171t-212.5 -513
q-47 -334 46.5 -510t431.5 -176zM721 1395h214l255 207h-195l-155 -139l-112 139h-191z" />
    <glyph glyph-name="gcaron" unicode="&#x1e7;" horiz-adv-x="1345" 
d="M443 -469q185 0 313.5 47t232 163.5t139.5 322.5l198 1121h-245l-133 -233l-163 -922q-31 -184 -107.5 -235t-185.5 -51q-65 0 -113 20t-70.5 65t-17.5 114h-328q-18 -227 124 -319.5t356 -92.5zM407 -7q213 0 384.5 97t192.5 218l-124 148q-17 -99 -105.5 -166.5
t-193.5 -67.5q-113 0 -160.5 74.5t-9.5 297.5t113 297t188 74q105 0 170 -67t48 -165l173 138q21 119 -116.5 222t-351.5 103q-241 0 -381.5 -159t-182.5 -442q-41 -281 37 -441.5t319 -160.5zM665 1231h214l255 207h-195l-155 -139l-112 139h-191z" />
    <glyph glyph-name="uni01EA" unicode="&#x1ea;" horiz-adv-x="1411" 
d="M587 -11q359 0 536 173t229 513q51 340 -57 513.5t-466 173.5q-359 0 -536.5 -173t-229.5 -514q-51 -339 57 -512.5t467 -173.5zM628 220q-139 0 -206 78.5t-20 376.5q49 303 148 379.5t238 76.5q138 0 205.5 -76.5t19.5 -379.5q-48 -299 -147.5 -377t-237.5 -78z
M941 -291q48 0 92 5t77 11.5t43 10.5l28 164q-12 -5 -39.5 -12t-60 -11.5t-62.5 -4.5q-35 0 -51 12t-16 32q0 22 15.5 54.5t37 64t36.5 48.5h-163q-29 -27 -59.5 -69t-50.5 -89.5t-20 -92.5q0 -47 27 -73.5t71.5 -38t94.5 -11.5z" />
    <glyph glyph-name="uni01EB" unicode="&#x1eb;" horiz-adv-x="1337" 
d="M552 -9q324 0 492.5 156.5t212.5 449.5q43 290 -66 446t-434 156t-493.5 -154t-212.5 -448q-43 -289 66 -447.5t435 -158.5zM588 219q-116 0 -175.5 75t-25.5 302q35 225 126 300t207 75q117 0 176.5 -74.5t24.5 -300.5q-35 -225 -126 -301t-207 -76zM453 -374q48 0 92 5
t77 11.5t43 10.5l28 164q-12 -5 -39.5 -12t-60 -11.5t-62.5 -4.5q-35 0 -51 12t-16 32q0 22 15.5 54.5t37 64t36.5 48.5h-163q-29 -27 -59.5 -69t-50.5 -89.5t-20 -92.5q0 -47 27 -73.5t71.5 -38t94.5 -11.5z" />
    <glyph glyph-name="Aringacute" unicode="&#x1fa;" horiz-adv-x="1459" 
d="M-48 0h350l150 329h459l34 -329h350l-193 1352h-482zM547 553l279 600h3l67 -600h-349zM874 1371q47 0 88 22.5t68.5 60.5t34.5 85q12 71 -29 119t-112 48q-48 0 -88.5 -21.5t-67 -59.5t-35.5 -86q-11 -71 30 -119.5t111 -48.5zM891 1490q-18 0 -29.5 14.5t-9.5 34.5
q5 21 20.5 34.5t34.5 13.5t31 -13.5t7 -34.5q-2 -20 -18 -34.5t-36 -14.5zM739 1747h159l272 209h-233z" />
    <glyph glyph-name="aringacute" unicode="&#x1fb;" horiz-adv-x="1331" 
d="M405 -12q78 0 146.5 13t124.5 34.5t96 47.5t61 53l5 -136h280l131 740q30 166 -21 266.5t-174 145.5t-311 45q-104 0 -200 -17.5t-178.5 -55.5t-145.5 -101.5t-101 -155.5l313 -91q27 73 71 116t98 61.5t112 18.5q75 0 124.5 -20.5t70 -67.5t7.5 -127l-8 -45h-375
q-70 0 -141 -9.5t-135 -33.5t-115.5 -65.5t-84.5 -106.5t-41 -157q-15 -137 26.5 -213.5t134.5 -107.5t230 -31zM516 203q-56 0 -94 13t-55 48t-10 101q6 52 24.5 84.5t48 50t67.5 24t82 6.5h290l-37 -212q-26 -30 -74 -56.5t-110.5 -42.5t-131.5 -16zM772 1226
q47 0 88 22.5t68.5 60.5t34.5 85q12 71 -29 119t-112 48q-48 0 -88.5 -21.5t-67 -59.5t-35.5 -86q-11 -71 30 -119.5t111 -48.5zM789 1345q-18 0 -29.5 14.5t-9.5 34.5q5 21 20.5 34.5t34.5 13.5t31 -13.5t7 -34.5q-2 -20 -18 -34.5t-36 -14.5zM636 1603h159l272 209h-233z
" />
    <glyph glyph-name="AEacute" unicode="&#x1fc;" horiz-adv-x="2018" 
d="M-48 0h358l771 1228l23 122h-293zM324 266h616l39 225h-547zM828 0h987l40 231h-645l60 343h600l40 220h-601l57 325h646l41 231h-987zM941 1392h159l272 209h-233z" />
    <glyph glyph-name="aeacute" unicode="&#x1fd;" horiz-adv-x="2151" 
d="M1129 252l81 458q40 226 -55.5 356t-398.5 130q-305 0 -430 -104t-195 -251l306 -93q49 139 114.5 186.5t169.5 47.5q108 0 157.5 -57t26.5 -189l-78 -446l45 -24zM414 -12q262 0 414.5 84.5t196.5 270.5l-169 100q-27 -145 -106.5 -198t-206.5 -53q-125 0 -158.5 40
t-24.5 103q13 80 67 113.5t185 33.5h263l34 190h-375q-216 0 -353 -69t-170 -267q-30 -177 76 -262.5t327 -85.5zM1379 -11l39 217q-128 0 -189 80q-62 79 -22 307q39 233 130 311q90 77 212 77q124 0 181 -71q40 -61 24 -213h-560l-35 -203h894q14 45 24 100
q49 281 -51 443q-102 161 -439 161q-328 0 -492 -160q-164 -158 -214 -444q-47 -280 57 -443q106 -162 441 -162zM1418 206l-39 -217q179 0 288 35q109 34 197 106q86 71 127 188l-285 85q-32 -63 -70 -111q-38 -46 -89 -67q-54 -19 -129 -19zM961 1228h159l272 209h-233z
" />
    <glyph glyph-name="Oslashacute" unicode="&#x1fe;" horiz-adv-x="1334" 
d="M-76 0h176l1317 1348h-174zM587 -11q359 0 536 173t229 513q51 340 -57 513.5t-466 173.5q-359 0 -536.5 -173t-229.5 -514q-51 -339 57 -512.5t467 -173.5zM628 220q-139 0 -206 78.5t-20 376.5q49 303 148 379.5t238 76.5q138 0 205.5 -76.5t19.5 -379.5
q-48 -299 -147.5 -377t-237.5 -78zM622 1392h159l272 209h-233z" />
    <glyph glyph-name="oslashacute" unicode="&#x1ff;" horiz-adv-x="1334" 
d="M-110 16l90 -88l1433 1255l-97 78zM552 -9q324 0 492.5 156.5t212.5 449.5q43 290 -66 446t-434 156t-493.5 -154t-212.5 -448q-43 -289 66 -447.5t435 -158.5zM588 219q-116 0 -175.5 75t-25.5 302q35 225 126 300t207 75q117 0 176.5 -74.5t24.5 -300.5
q-35 -225 -126 -301t-207 -76zM562 1222h159l272 209h-233z" />
    <glyph glyph-name="uni0200" unicode="&#x200;" horiz-adv-x="1459" 
d="M-48 0h350l150 329h459l34 -329h350l-193 1352h-482zM547 553l279 600h3l67 -600h-349zM1081 1413h151l-126 209h-224zM780 1413h151l-126 209h-224z" />
    <glyph glyph-name="uni0201" unicode="&#x201;" horiz-adv-x="1331" 
d="M405 -12q78 0 146.5 13t124.5 34.5t96 47.5t61 53l5 -136h280l131 740q30 166 -21 266.5t-174 145.5t-311 45q-104 0 -200 -17.5t-178.5 -55.5t-145.5 -101.5t-101 -155.5l313 -91q27 73 71 116t98 61.5t112 18.5q75 0 124.5 -20.5t70 -67.5t7.5 -127l-8 -45h-375
q-70 0 -141 -9.5t-135 -33.5t-115.5 -65.5t-84.5 -106.5t-41 -157q-15 -137 26.5 -213.5t134.5 -107.5t230 -31zM516 203q-56 0 -94 13t-55 48t-10 101q6 52 24.5 84.5t48 50t67.5 24t82 6.5h290l-37 -212q-26 -30 -74 -56.5t-110.5 -42.5t-131.5 -16zM972 1249h151
l-126 209h-224zM670 1249h151l-126 209h-224z" />
    <glyph glyph-name="uni0202" unicode="&#x202;" horiz-adv-x="1459" 
d="M-48 0h350l150 329h459l34 -329h350l-193 1352h-482zM547 553l279 600h3l67 -600h-349zM925 1611q-79 0 -140 -26t-99 -71t-47 -99h158q5 27 17.5 46t34.5 29t57 10q32 0 50.5 -9.5t25.5 -28.5t2 -47h159q9 54 -14 99t-74.5 71t-129.5 26z" />
    <glyph glyph-name="uni0203" unicode="&#x203;" horiz-adv-x="1331" 
d="M405 -12q78 0 146.5 13t124.5 34.5t96 47.5t61 53l5 -136h280l131 740q30 166 -21 266.5t-174 145.5t-311 45q-104 0 -200 -17.5t-178.5 -55.5t-145.5 -101.5t-101 -155.5l313 -91q27 73 71 116t98 61.5t112 18.5q75 0 124.5 -20.5t70 -67.5t7.5 -127l-8 -45h-375
q-70 0 -141 -9.5t-135 -33.5t-115.5 -65.5t-84.5 -106.5t-41 -157q-15 -137 26.5 -213.5t134.5 -107.5t230 -31zM516 203q-56 0 -94 13t-55 48t-10 101q6 52 24.5 84.5t48 50t67.5 24t82 6.5h290l-37 -212q-26 -30 -74 -56.5t-110.5 -42.5t-131.5 -16zM813 1447
q-79 0 -140 -26t-99 -71t-47 -99h158q5 27 17.5 46t34.5 29t57 10q32 0 50.5 -9.5t25.5 -28.5t2 -47h159q9 54 -14 99t-74.5 71t-129.5 26z" />
    <glyph glyph-name="uni0204" unicode="&#x204;" horiz-adv-x="1154" 
d="M-36 0h987l40 231h-645l60 343h600l39 220h-600l57 325h645l42 231h-987zM906 1413h151l-126 209h-224zM604 1413h151l-126 209h-224z" />
    <glyph glyph-name="uni0205" unicode="&#x205;" horiz-adv-x="1332" 
d="M559 -11l39 217q-128 0 -189 80q-62 79 -22 307q40 233 130 311q91 77 212 77q124 0 182 -71q39 -61 23 -213h-559l-36 -203h895q14 45 23 100q49 281 -51 443q-102 161 -439 161q-327 0 -492 -160q-164 -158 -214 -444q-47 -280 58 -443q105 -162 440 -162zM598 206
l-39 -217q179 0 289 35q109 34 196 106q85 71 128 188l-286 85q-32 -63 -69 -111q-39 -46 -90 -67q-54 -19 -129 -19zM979 1249h151l-126 209h-224zM678 1249h151l-126 209h-224z" />
    <glyph glyph-name="uni0206" unicode="&#x206;" horiz-adv-x="1154" 
d="M-36 0h987l40 231h-645l60 343h600l39 220h-600l57 325h645l42 231h-987zM749 1611q-79 0 -140 -26t-99 -71t-47 -99h158q5 27 17.5 46t34.5 29t57 10q32 0 50.5 -9.5t25.5 -28.5t2 -47h159q9 54 -14 99t-74.5 71t-129.5 26z" />
    <glyph glyph-name="uni0207" unicode="&#x207;" horiz-adv-x="1332" 
d="M559 -11l39 217q-128 0 -189 80q-62 79 -22 307q40 233 130 311q91 77 212 77q124 0 182 -71q39 -61 23 -213h-559l-36 -203h895q14 45 23 100q49 281 -51 443q-102 161 -439 161q-327 0 -492 -160q-164 -158 -214 -444q-47 -280 58 -443q105 -162 440 -162zM598 206
l-39 -217q179 0 289 35q109 34 196 106q85 71 128 188l-286 85q-32 -63 -69 -111q-39 -46 -90 -67q-54 -19 -129 -19zM822 1447q-79 0 -140 -26t-99 -71t-47 -99h158q5 27 17.5 46t34.5 29t57 10q32 0 50.5 -9.5t25.5 -28.5t2 -47h159q9 54 -14 99t-74.5 71t-129.5 26z" />
    <glyph glyph-name="uni0208" unicode="&#x208;" horiz-adv-x="619" 
d="M20 0h339l238 1350h-338zM653 1413h151l-126 209h-224zM352 1413h151l-126 209h-224z" />
    <glyph glyph-name="uni0209" unicode="&#x209;" horiz-adv-x="558" 
d="M-18 0h338l209 1185h-338zM573 1249h151l-126 209h-224zM271 1249h151l-126 209h-224z" />
    <glyph glyph-name="uni020A" unicode="&#x20a;" horiz-adv-x="619" 
d="M20 0h339l238 1350h-338zM497 1611q-79 0 -140 -26t-99 -71t-47 -99h158q5 27 17.5 46t34.5 29t57 10q32 0 50.5 -9.5t25.5 -28.5t2 -47h159q9 54 -14 99t-74.5 71t-129.5 26z" />
    <glyph glyph-name="uni020B" unicode="&#x20b;" horiz-adv-x="558" 
d="M-18 0h338l209 1185h-338zM414 1447q-79 0 -140 -26t-99 -71t-47 -99h158q5 27 17.5 46t34.5 29t57 10q32 0 50.5 -9.5t25.5 -28.5t2 -47h159q9 54 -14 99t-74.5 71t-129.5 26z" />
    <glyph glyph-name="uni020C" unicode="&#x20c;" horiz-adv-x="1411" 
d="M587 -11q359 0 536 173t229 513q51 340 -57 513.5t-466 173.5q-359 0 -536.5 -173t-229.5 -514q-51 -339 57 -512.5t467 -173.5zM628 220q-139 0 -206 78.5t-20 376.5q49 303 148 379.5t238 76.5q138 0 205.5 -76.5t19.5 -379.5q-48 -299 -147.5 -377t-237.5 -78z
M1036 1413h151l-126 209h-224zM735 1413h151l-126 209h-224z" />
    <glyph glyph-name="uni020D" unicode="&#x20d;" horiz-adv-x="1337" 
d="M552 -9q324 0 492.5 156.5t212.5 449.5q43 290 -66 446t-434 156t-493.5 -154t-212.5 -448q-43 -289 66 -447.5t435 -158.5zM588 219q-116 0 -175.5 75t-25.5 302q35 225 126 300t207 75q117 0 176.5 -74.5t24.5 -300.5q-35 -225 -126 -301t-207 -76zM969 1249h151
l-126 209h-224zM667 1249h151l-126 209h-224z" />
    <glyph glyph-name="uni020E" unicode="&#x20e;" horiz-adv-x="1411" 
d="M587 -11q359 0 536 173t229 513q51 340 -57 513.5t-466 173.5q-359 0 -536.5 -173t-229.5 -514q-51 -339 57 -512.5t467 -173.5zM628 220q-139 0 -206 78.5t-20 376.5q49 303 148 379.5t238 76.5q138 0 205.5 -76.5t19.5 -379.5q-48 -299 -147.5 -377t-237.5 -78z
M880 1611q-79 0 -140 -26t-99 -71t-47 -99h158q5 27 17.5 46t34.5 29t57 10q32 0 50.5 -9.5t25.5 -28.5t2 -47h159q9 54 -14 99t-74.5 71t-129.5 26z" />
    <glyph glyph-name="uni020F" unicode="&#x20f;" horiz-adv-x="1337" 
d="M552 -9q324 0 492.5 156.5t212.5 449.5q43 290 -66 446t-434 156t-493.5 -154t-212.5 -448q-43 -289 66 -447.5t435 -158.5zM588 219q-116 0 -175.5 75t-25.5 302q35 225 126 300t207 75q117 0 176.5 -74.5t24.5 -300.5q-35 -225 -126 -301t-207 -76zM810 1447
q-79 0 -140 -26t-99 -71t-47 -99h158q5 27 17.5 46t34.5 29t57 10q32 0 50.5 -9.5t25.5 -28.5t2 -47h159q9 54 -14 99t-74.5 71t-129.5 26z" />
    <glyph glyph-name="uni0210" unicode="&#x210;" horiz-adv-x="1325" 
d="M-22 0h341l95 540h421q231 0 332.5 114t127.5 283q27 167 -26 290t-278 123h-775zM785 0h369l-205 643l-339 -14zM451 748l65 371h322q85 0 108 -48.5t7 -137.5q-15 -88 -55.5 -136.5t-124.5 -48.5h-322zM978 1413h151l-126 209h-224zM676 1413h151l-126 209h-224z" />
    <glyph glyph-name="uni0211" unicode="&#x211;" horiz-adv-x="1292" 
d="M842 602h336q54 305 -4 449.5t-293 144.5q-219 0 -373 -114.5t-184 -282.5l116 -76q17 94 92.5 167.5t180.5 73.5q92 0 130 -69t-1 -293zM-22 0h336l173 980l-39 205h-261zM958 1249h151l-126 209h-224zM656 1249h151l-126 209h-224z" />
    <glyph glyph-name="uni0212" unicode="&#x212;" horiz-adv-x="1325" 
d="M-22 0h341l95 540h421q231 0 332.5 114t127.5 283q27 167 -26 290t-278 123h-775zM785 0h369l-205 643l-339 -14zM451 748l65 371h322q85 0 108 -48.5t7 -137.5q-15 -88 -55.5 -136.5t-124.5 -48.5h-322zM822 1611q-79 0 -140 -26t-99 -71t-47 -99h158q5 27 17.5 46
t34.5 29t57 10q32 0 50.5 -9.5t25.5 -28.5t2 -47h159q9 54 -14 99t-74.5 71t-129.5 26z" />
    <glyph glyph-name="uni0213" unicode="&#x213;" horiz-adv-x="1292" 
d="M842 602h336q54 305 -4 449.5t-293 144.5q-219 0 -373 -114.5t-184 -282.5l116 -76q17 94 92.5 167.5t180.5 73.5q92 0 130 -69t-1 -293zM-22 0h336l173 980l-39 205h-261zM799 1447q-79 0 -140 -26t-99 -71t-47 -99h158q5 27 17.5 46t34.5 29t57 10q32 0 50.5 -9.5
t25.5 -28.5t2 -47h159q9 54 -14 99t-74.5 71t-129.5 26z" />
    <glyph glyph-name="uni0214" unicode="&#x214;" horiz-adv-x="1407" 
d="M581 -8q307 0 477 105t214 352l158 901h-340l-152 -864q-26 -144 -96.5 -203t-218.5 -59t-198 59t-24 203l152 864h-340l-159 -901q-43 -247 89 -352t438 -105zM1047 1413h151l-126 209h-224zM745 1413h151l-126 209h-224z" />
    <glyph glyph-name="uni0215" unicode="&#x215;" horiz-adv-x="1307" 
d="M821 0h258l209 1185h-336l-175 -991zM506 1186h-336l-113 -644q-44 -252 16 -402t292 -150q258 0 426.5 153t196.5 309l-152 70q-23 -137 -113 -219t-195 -82q-100 0 -134 70t2 268zM956 1249h151l-126 209h-224zM655 1249h151l-126 209h-224z" />
    <glyph glyph-name="uni0216" unicode="&#x216;" horiz-adv-x="1407" 
d="M581 -8q307 0 477 105t214 352l158 901h-340l-152 -864q-26 -144 -96.5 -203t-218.5 -59t-198 59t-24 203l152 864h-340l-159 -901q-43 -247 89 -352t438 -105zM890 1611q-79 0 -140 -26t-99 -71t-47 -99h158q5 27 17.5 46t34.5 29t57 10q32 0 50.5 -9.5t25.5 -28.5
t2 -47h159q9 54 -14 99t-74.5 71t-129.5 26z" />
    <glyph glyph-name="uni0217" unicode="&#x217;" horiz-adv-x="1307" 
d="M821 0h258l209 1185h-336l-175 -991zM506 1186h-336l-113 -644q-44 -252 16 -402t292 -150q258 0 426.5 153t196.5 309l-152 70q-23 -137 -113 -219t-195 -82q-100 0 -134 70t2 268zM799 1447q-79 0 -140 -26t-99 -71t-47 -99h158q5 27 17.5 46t34.5 29t57 10
q32 0 50.5 -9.5t25.5 -28.5t2 -47h159q9 54 -14 99t-74.5 71t-129.5 26z" />
    <glyph glyph-name="uni0218" unicode="&#x218;" horiz-adv-x="1356" 
d="M334 -326h117l181 264h-188zM558 -8q350 0 502 124.5t172 301.5q22 165 -64.5 237.5t-370.5 134.5q-178 38 -268.5 71t-76.5 127q11 71 94 106t205 35q115 0 181.5 -42t37.5 -214h341q37 223 -66.5 356t-452.5 133q-346 0 -504.5 -122.5t-171.5 -292.5
q-16 -155 69 -240.5t360 -144.5q170 -36 264 -69t80 -122q-13 -77 -93.5 -113t-200.5 -36q-121 0 -185 44t-34 222h-341q-41 -237 61.5 -366.5t461.5 -129.5z" />
    <glyph glyph-name="uni0219" unicode="&#x219;" horiz-adv-x="1311" 
d="M554 -9q235 0 414 87t206 276q26 178 -80 252.5t-323 105.5q-156 22 -247.5 45t-80.5 96q7 56 68 89t170 33q116 0 183 -51.5t74 -141.5l313 106q-13 168 -153 238t-379 70t-410.5 -82.5t-196.5 -259.5q-26 -181 77 -259.5t306 -108.5q165 -28 260.5 -51.5t83.5 -98.5
q-8 -56 -72.5 -90t-176.5 -34q-127 0 -196 49.5t-74 151.5l-314 -107q18 -174 165.5 -244.5t382.5 -70.5zM336 -327h117l181 264h-188z" />
    <glyph glyph-name="uni021A" unicode="&#x21a;" horiz-adv-x="1284" 
d="M354 0h341l196 1119h401l42 231h-1144l-41 -231h402zM319 -327h117l181 264h-188z" />
    <glyph glyph-name="uni021B" unicode="&#x21b;" horiz-adv-x="1061" 
d="M563 -15q136 0 264 28l39 222q-75 -25 -150 -25q-73 0 -108 30t-18 126l104 588h364l41 231h-364l47 271h-336l-48 -271h-270l-41 -231h271l-118 -662q-30 -173 67.5 -240t255.5 -67zM336 -327h117l181 264h-188z" />
    <glyph glyph-name="uni022A" unicode="&#x22a;" horiz-adv-x="1411" 
d="M587 -11q359 0 536 173t229 513q51 340 -57 513.5t-466 173.5q-359 0 -536.5 -173t-229.5 -514q-51 -339 57 -512.5t467 -173.5zM628 220q-139 0 -206 78.5t-20 376.5q49 303 148 379.5t238 76.5q138 0 205.5 -76.5t19.5 -379.5q-48 -299 -147.5 -377t-237.5 -78z
M636 1412q41 0 75 32t34 75q0 36 -23.5 59.5t-58.5 23.5q-42 0 -76 -32t-34 -76q0 -35 23 -58.5t60 -23.5zM1031 1412q43 0 76 32t33 75q0 36 -22.5 59.5t-59.5 23.5q-42 0 -75.5 -32t-33.5 -76q0 -35 23.5 -58.5t58.5 -23.5zM539 1695h683l22 123h-682z" />
    <glyph glyph-name="uni022B" unicode="&#x22b;" horiz-adv-x="1337" 
d="M552 -9q324 0 492.5 156.5t212.5 449.5q43 290 -66 446t-434 156t-493.5 -154t-212.5 -448q-43 -289 66 -447.5t435 -158.5zM588 219q-116 0 -175.5 75t-25.5 302q35 225 126 300t207 75q117 0 176.5 -74.5t24.5 -300.5q-35 -225 -126 -301t-207 -76zM568 1248
q41 0 75 32t34 75q0 36 -23.5 59.5t-58.5 23.5q-42 0 -76 -32t-34 -76q0 -35 23 -58.5t60 -23.5zM963 1248q43 0 76 32t33 75q0 36 -22.5 59.5t-59.5 23.5q-42 0 -75.5 -32t-33.5 -76q0 -35 23.5 -58.5t58.5 -23.5zM470 1531h683l22 123h-682z" />
    <glyph glyph-name="uni022C" unicode="&#x22c;" horiz-adv-x="1411" 
d="M587 -11q359 0 536 173t229 513q51 340 -57 513.5t-466 173.5q-359 0 -536.5 -173t-229.5 -514q-51 -339 57 -512.5t467 -173.5zM628 220q-139 0 -206 78.5t-20 376.5q49 303 148 379.5t238 76.5q138 0 205.5 -76.5t19.5 -379.5q-48 -299 -147.5 -377t-237.5 -78z
M966 1414q70 0 117 23t75.5 57.5t43 68.5t19.5 55h-162q-3 -13 -14.5 -30.5t-30.5 -29.5t-45 -12q-30 0 -52 12t-44 28.5t-51 28.5t-73 12q-71 0 -119.5 -22.5t-77 -56t-43 -67t-20.5 -55.5h164q4 13 13.5 30.5t29 29.5t48.5 12q28 0 49 -13t44 -29.5t53 -29t76 -12.5z
M547 1715h683l22 123h-682z" />
    <glyph glyph-name="uni022D" unicode="&#x22d;" horiz-adv-x="1337" 
d="M552 -9q324 0 492.5 156.5t212.5 449.5q43 290 -66 446t-434 156t-493.5 -154t-212.5 -448q-43 -289 66 -447.5t435 -158.5zM588 219q-116 0 -175.5 75t-25.5 302q35 225 126 300t207 75q117 0 176.5 -74.5t24.5 -300.5q-35 -225 -126 -301t-207 -76zM898 1250
q70 0 117 23t75.5 57.5t43 68.5t19.5 55h-162q-3 -13 -14.5 -30.5t-30.5 -29.5t-45 -12q-30 0 -52 12t-44 28.5t-51 28.5t-73 12q-71 0 -119.5 -22.5t-77 -56t-43 -67t-20.5 -55.5h164q4 13 13.5 30.5t29 29.5t48.5 12q28 0 49 -13t44 -29.5t53 -29t76 -12.5zM479 1551h683
l22 123h-682z" />
    <glyph glyph-name="uni0230" unicode="&#x230;" horiz-adv-x="1411" 
d="M587 -11q359 0 536 173t229 513q51 340 -57 513.5t-466 173.5q-359 0 -536.5 -173t-229.5 -514q-51 -339 57 -512.5t467 -173.5zM628 220q-139 0 -206 78.5t-20 376.5q49 303 148 379.5t238 76.5q138 0 205.5 -76.5t19.5 -379.5q-48 -299 -147.5 -377t-237.5 -78z
M855 1400q41 0 70 29t29 70t-29 69.5t-69 28.5q-41 0 -70 -28.5t-29 -69.5t28.5 -70t69.5 -29zM546 1689h683l22 123h-682z" />
    <glyph glyph-name="uni0231" unicode="&#x231;" horiz-adv-x="1337" 
d="M552 -9q324 0 492.5 156.5t212.5 449.5q43 290 -66 446t-434 156t-493.5 -154t-212.5 -448q-43 -289 66 -447.5t435 -158.5zM588 219q-116 0 -175.5 75t-25.5 302q35 225 126 300t207 75q117 0 176.5 -74.5t24.5 -300.5q-35 -225 -126 -301t-207 -76zM786 1236
q41 0 70 29t29 70t-29 69.5t-69 28.5q-41 0 -70 -28.5t-29 -69.5t28.5 -70t69.5 -29zM478 1525h683l22 123h-682z" />
    <glyph glyph-name="uni0232" unicode="&#x232;" horiz-adv-x="1411" 
d="M415 0h339l89 504l662 846h-373l-414 -580h-3l-212 580h-365l364 -848zM511 1442h683l22 123h-682z" />
    <glyph glyph-name="uni0233" unicode="&#x233;" horiz-adv-x="1239" 
d="M256 0h514l540 1185h-352l-407 -964h-1l-70 964h-351zM-76 -466q310 0 509 85.5t337 380.5l-312 1q-69 -149 -178.5 -194t-315.5 -45zM397 1278h683l22 123h-682z" />
    <glyph glyph-name="uni0237" unicode="&#x237;" horiz-adv-x="601" 
d="M-320 -460q297 0 470 103.5t225 404.5l202 1138h-336l-204 -1151q-27 -158 -106 -210t-209 -52z" />
    <glyph glyph-name="uni0259" unicode="&#x259;" horiz-adv-x="1332" 
d="M773 1199l-39 -218q128 0 190 -79q61 -81 21 -309q-40 -233 -130 -310q-91 -77 -212 -77q-124 0 -181 71q-40 61 -24 212h559l36 203h-895q-14 -43 -23 -100q-49 -280 52 -441t438 -161q328 0 493 159q163 157 213 445q47 279 -58 442t-440 163zM734 981l39 218
q-179 0 -288 -35q-110 -35 -196 -107q-86 -71 -129 -188l286 -85q32 64 69 111q39 46 91 66q53 20 128 20z" />
    <glyph glyph-name="uni02BC" unicode="&#x2bc;" horiz-adv-x="368" 
d="M493 1559h-243l-45 -253h18l-117 -269h220l122 269z" />
    <glyph glyph-name="circumflex" unicode="&#x2c6;" horiz-adv-x="849" 
d="M214 1207h194l157 139l109 -139h194l-185 207h-214z" />
    <glyph glyph-name="caron" unicode="&#x2c7;" horiz-adv-x="849" 
d="M387 1207h214l255 207h-195l-155 -139l-112 139h-191z" />
    <glyph glyph-name="uni02C9" unicode="&#x2c9;" horiz-adv-x="964" 
d="M214 1188h683l22 123h-682z" />
    <glyph glyph-name="breve" unicode="&#x2d8;" horiz-adv-x="805" 
d="M483 1222q80 0 141 27t99 71.5t47 97.5h-158q-5 -26 -17 -45.5t-34.5 -29.5t-57.5 -10q-31 0 -50 10t-26 29t-3 46h-158q-9 -53 13.5 -97.5t74.5 -71.5t129 -27z" />
    <glyph glyph-name="dotaccent" unicode="&#x2d9;" horiz-adv-x="485" 
d="M352 1193q41 0 70 29t29 70t-29 69.5t-69 28.5q-41 0 -70 -28.5t-29 -69.5t28.5 -70t69.5 -29z" />
    <glyph glyph-name="ring" unicode="&#x2da;" horiz-adv-x="462" 
d="M328 1211q47 0 88 22.5t68.5 60.5t34.5 85q12 71 -29 119t-112 48q-48 0 -88.5 -21.5t-67 -59.5t-35.5 -86q-11 -71 30 -119.5t111 -48.5zM345 1330q-18 0 -29.5 14.5t-9.5 34.5q5 21 20.5 34.5t34.5 13.5t31 -13.5t7 -34.5q-2 -20 -18 -34.5t-36 -14.5z" />
    <glyph glyph-name="ogonek" unicode="&#x2db;" horiz-adv-x="819" 
d="M247 -374q48 0 92 5t77 11.5t43 10.5l28 164q-12 -5 -39.5 -12t-60 -11.5t-62.5 -4.5q-41 0 -56 15.5t-11 41.5q4 22 20 52t35.5 58.5t33.5 43.5h-163q-20 -18 -46.5 -51.5t-50 -77t-30.5 -90.5q-11 -61 14 -94.5t73 -47t103 -13.5z" />
    <glyph glyph-name="tilde" unicode="&#x2dc;" horiz-adv-x="778" 
d="M625 1253q70 0 117 23t75.5 57.5t43 68.5t19.5 55h-162q-3 -13 -14.5 -30.5t-30.5 -29.5t-45 -12q-30 0 -52 12t-44 28.5t-51 28.5t-73 12q-71 0 -119.5 -22.5t-77 -56t-43 -67t-20.5 -55.5h164q4 13 13.5 30.5t29 29.5t48.5 12q28 0 49 -13t44 -29.5t53 -29t76 -12.5z
" />
    <glyph glyph-name="hungarumlaut" unicode="&#x2dd;" horiz-adv-x="1080" 
d="M546 1225h154l238 187h-206zM384 1225h153l231 187h-201z" />
    <glyph glyph-name="gravecomb" unicode="&#x300;" 
d="M354 1119h151l-126 209h-224z" />
    <glyph glyph-name="acutecomb" unicode="&#x301;" 
d="M123 1119h159l272 209h-233z" />
    <glyph glyph-name="uni0302" unicode="&#x302;" 
d="M114 1117h194l157 139l109 -139h194l-185 207h-214z" />
    <glyph glyph-name="tildecomb" unicode="&#x303;" 
d="M611 1174q70 0 117 23t75.5 57.5t43 68.5t19.5 55h-162q-3 -13 -14.5 -30.5t-30.5 -29.5t-45 -12q-30 0 -52 12t-44 28.5t-51 28.5t-73 12q-71 0 -119.5 -22.5t-77 -56t-43 -67t-20.5 -55.5h164q4 13 13.5 30.5t29 29.5t48.5 12q28 0 49 -13t44 -29.5t53 -29t76 -12.5z
" />
    <glyph glyph-name="uni0304" unicode="&#x304;" 
d="M214 1188h683l22 123h-682z" />
    <glyph glyph-name="uni0306" unicode="&#x306;" 
d="M376 1132q80 0 141 27t99 71.5t47 97.5h-158q-5 -26 -17 -45.5t-34.5 -29.5t-57.5 -10q-31 0 -50 10t-26 29t-3 46h-158q-9 -53 13.5 -97.5t74.5 -71.5t129 -27z" />
    <glyph glyph-name="uni0307" unicode="&#x307;" 
d="M241 1122q41 0 70 29t29 70t-29 69.5t-69 28.5q-41 0 -70 -28.5t-29 -69.5t28.5 -70t69.5 -29z" />
    <glyph glyph-name="uni0308" unicode="&#x308;" 
d="M246 1134q41 0 75 32t34 75q0 36 -23.5 59.5t-58.5 23.5q-42 0 -76 -32t-34 -76q0 -35 23 -58.5t60 -23.5zM641 1134q43 0 76 32t33 75q0 36 -22.5 59.5t-59.5 23.5q-42 0 -75.5 -32t-33.5 -76q0 -35 23.5 -58.5t58.5 -23.5z" />
    <glyph glyph-name="hookabovecomb" unicode="&#x309;" 
d="M178 1484l-19 -101q99 0 156.5 -2t81 -8.5t21.5 -19.5q-1 -12 -25 -19.5t-65.5 -10t-98.5 -2.5l-24 -137h118l11 57q39 0 80.5 6.5t78 20.5t60 37.5t27.5 57.5q3 35 -17.5 58.5t-68 37.5t-126 19.5t-190.5 5.5z" />
    <glyph glyph-name="uni030A" unicode="&#x30a;" 
d="M285 1125q47 0 88 22.5t68.5 60.5t34.5 85q12 71 -29 119t-112 48q-48 0 -88.5 -21.5t-67 -59.5t-35.5 -86q-11 -71 30 -119.5t111 -48.5zM302 1244q-18 0 -29.5 14.5t-9.5 34.5q5 21 20.5 34.5t34.5 13.5t31 -13.5t7 -34.5q-2 -20 -18 -34.5t-36 -14.5z" />
    <glyph glyph-name="uni030B" unicode="&#x30b;" 
d="M384 1141h154l238 187h-206zM222 1141h153l231 187h-201z" />
    <glyph glyph-name="uni030C" unicode="&#x30c;" 
d="M324 1117h214l255 207h-195l-155 -139l-112 139h-191z" />
    <glyph glyph-name="uni030F" unicode="&#x30f;" 
d="M644 1209h151l-126 209h-224zM342 1209h151l-126 209h-224z" />
    <glyph glyph-name="uni0311" unicode="&#x311;" 
d="M457 1338q-79 0 -140 -26t-99 -71t-47 -99h158q5 27 17.5 46t34.5 29t57 10q32 0 50.5 -9.5t25.5 -28.5t2 -47h159q9 54 -14 99t-74.5 71t-129.5 26z" />
    <glyph glyph-name="uni0312" unicode="&#x312;" 
d="M288 1172h204l117 294h-126z" />
    <glyph glyph-name="uni031B" unicode="&#x31b;" 
d="M134 1242l-18 -110q133 0 233 31.5t161.5 94.5t78.5 159h-192q-11 -63 -41 -101.5t-83.5 -56t-138.5 -17.5z" />
    <glyph glyph-name="dotbelowcomb" unicode="&#x323;" 
d="M85 -320q41 0 70 29t29 70t-29 69.5t-69 28.5q-41 0 -70 -28.5t-29 -69.5t28.5 -70t69.5 -29z" />
    <glyph glyph-name="uni0324" unicode="&#x324;" 
d="M23 -267q41 0 75 32t34 75q0 36 -23.5 59.5t-58.5 23.5q-42 0 -76 -32t-34 -76q0 -35 23 -58.5t60 -23.5zM418 -267q43 0 76 32t33 75q0 36 -22.5 59.5t-59.5 23.5q-42 0 -75.5 -32t-33.5 -76q0 -35 23.5 -58.5t58.5 -23.5z" />
    <glyph glyph-name="uni0326" unicode="&#x326;" 
d="M-104 -327h117l181 264h-188z" />
    <glyph glyph-name="uni0327" unicode="&#x327;" 
d="M187 -355q60 0 119 12.5t110 36t84.5 58.5t41.5 80q11 61 -26 90.5t-107 29.5q-55 0 -101.5 -15.5t-72.5 -37.5l-15 -56q14 10 37 17t43 7q25 0 36.5 -6.5t7.5 -23.5q-4 -22 -36.5 -36.5t-93.5 -14.5q-40 0 -75.5 6t-59.5 12l-70 -139q43 -9 89.5 -14.5t88.5 -5.5z
M220 -157l84 157h-133l-69 -145z" />
    <glyph glyph-name="uni0328" unicode="&#x328;" 
d="M247 -374q48 0 92 5t77 11.5t43 10.5l28 164q-12 -5 -39.5 -12t-60 -11.5t-62.5 -4.5q-35 0 -51 12t-16 32q0 22 15.5 54.5t37 64t36.5 48.5h-163q-29 -27 -59.5 -69t-50.5 -89.5t-20 -92.5q0 -47 27 -73.5t71.5 -38t94.5 -11.5z" />
    <glyph glyph-name="uni032E" unicode="&#x32e;" 
d="M139 -300q80 0 141 27t99 71.5t47 97.5h-158q-5 -26 -17 -45.5t-34.5 -29.5t-57.5 -10q-31 0 -50 10t-26 29t-3 46h-158q-9 -53 13.5 -97.5t74.5 -71.5t129 -27z" />
    <glyph glyph-name="uni0331" unicode="&#x331;" 
d="M-140 -237h683l22 123h-682z" />
    <glyph glyph-name="uni0335" unicode="&#x335;" 
d="M177 1340h776l39 221h-774z" />
    <glyph glyph-name="uni0336" unicode="&#x336;" 
d="M214 1188h683l22 123h-682z" />
    <glyph glyph-name="uni0337" unicode="&#x337;" 
d="M19 0h163l625 972h-164z" />
    <glyph glyph-name="uni0338" unicode="&#x338;" 
d="M-87 0h286l846 1348h-288z" />
    <glyph glyph-name="uni1E08" unicode="&#x1e08;" horiz-adv-x="1359" 
d="M572 -8q362 0 510 166.5t186 389.5h-343q-34 -193 -113.5 -259t-205.5 -66q-130 0 -190 77t-12 378q48 309 140 381t221 72q127 0 181.5 -62.5t23.5 -262.5h344q35 231 -56 393.5t-455 162.5q-359 0 -524 -171.5t-219 -512.5q-54 -334 48 -510t464 -176zM506 -355
q60 0 119 12.5t110 36t84.5 58.5t41.5 80q11 61 -26 90.5t-107 29.5q-55 0 -101.5 -15.5t-72.5 -37.5l-15 -56q14 10 37 17t43 7q25 0 36.5 -6.5t7.5 -23.5q-4 -22 -36.5 -36.5t-93.5 -14.5q-40 0 -75.5 6t-59.5 12l-70 -139q43 -9 89.5 -14.5t88.5 -5.5zM539 -157l84 157
h-133l-69 -145zM599 1392h159l272 209h-233z" />
    <glyph glyph-name="uni1E09" unicode="&#x1e09;" horiz-adv-x="1265" 
d="M541 -11q294 0 430 128.5t176 259.5l-279 108q-30 -126 -106 -195.5t-184 -69.5q-107 0 -159 75.5t-29 274.5q26 238 115.5 316t202.5 78q108 0 159.5 -66t37.5 -203l317 104q4 141 -90 269t-388 128q-337 0 -504.5 -163t-192.5 -479q-22 -262 71 -413.5t423 -151.5z
M488 -355q60 0 119 12.5t110 36t84.5 58.5t41.5 80q11 61 -26 90.5t-107 29.5q-55 0 -101.5 -15.5t-72.5 -37.5l-15 -56q14 10 37 17t43 7q25 0 36.5 -6.5t7.5 -23.5q-4 -22 -36.5 -36.5t-93.5 -14.5q-40 0 -75.5 6t-59.5 12l-70 -139q43 -9 89.5 -14.5t88.5 -5.5zM521 -157
l84 157h-133l-69 -145zM549 1228h159l272 209h-233z" />
    <glyph glyph-name="uni1E0C" unicode="&#x1e0c;" horiz-adv-x="1354" 
d="M-22 0h700q281 0 419.5 149.5t197.5 526.5q56 369 -28.5 521.5t-365.5 152.5h-685zM358 231l157 888h260q133 0 182 -72t-2 -371q-53 -303 -128.5 -374t-207.5 -71h-261zM521 -287q41 0 70 29t29 70t-29 69.5t-69 28.5q-41 0 -70 -28.5t-29 -69.5t28.5 -70t69.5 -29z" />
    <glyph glyph-name="uni1E0D" unicode="&#x1e0d;" horiz-adv-x="1328" 
d="M803 0h312l276 1570h-335l-245 -1398zM408 -7q213 0 384 98t193 217l-123 148q-18 -99 -106.5 -166.5t-193.5 -67.5q-110 0 -155.5 72t-17.5 286q30 230 107.5 307.5t196.5 77.5q105 0 169.5 -67t48.5 -165l173 145q22 120 -117 219t-352 99q-254 0 -399 -174.5
t-168 -474.5q-22 -245 53.5 -399.5t306.5 -154.5zM554 -320q41 0 70 29t29 70t-29 69.5t-69 28.5q-41 0 -70 -28.5t-29 -69.5t28.5 -70t69.5 -29z" />
    <glyph glyph-name="Dmacronbelow" unicode="&#x1e0e;" horiz-adv-x="1354" 
d="M-22 0h700q281 0 419.5 149.5t197.5 526.5q56 369 -28.5 521.5t-365.5 152.5h-685zM358 231l157 888h260q133 0 182 -72t-2 -371q-53 -303 -128.5 -374t-207.5 -71h-261zM166 -237h683l22 123h-682z" />
    <glyph glyph-name="dmacronbelow" unicode="&#x1e0f;" horiz-adv-x="1328" 
d="M803 0h312l276 1570h-335l-245 -1398zM408 -7q213 0 384 98t193 217l-123 148q-18 -99 -106.5 -166.5t-193.5 -67.5q-110 0 -155.5 72t-17.5 286q30 230 107.5 307.5t196.5 77.5q105 0 169.5 -67t48.5 -165l173 145q22 120 -117 219t-352 99q-254 0 -399 -174.5
t-168 -474.5q-22 -245 53.5 -399.5t306.5 -154.5zM208 -237h683l22 123h-682z" />
    <glyph glyph-name="uni1E14" unicode="&#x1e14;" horiz-adv-x="1154" 
d="M-36 0h987l40 231h-645l60 343h600l39 220h-600l57 325h645l42 231h-987zM369 1442h683l22 123h-682zM788 1619h151l-126 209h-224z" />
    <glyph glyph-name="uni1E15" unicode="&#x1e15;" horiz-adv-x="1332" 
d="M559 -11l39 217q-128 0 -189 80q-62 79 -22 307q40 233 130 311q91 77 212 77q124 0 182 -71q39 -61 23 -213h-559l-36 -203h895q14 45 23 100q49 281 -51 443q-102 161 -439 161q-327 0 -492 -160q-164 -158 -214 -444q-47 -280 58 -443q105 -162 440 -162zM598 206
l-39 -217q179 0 289 35q109 34 196 106q85 71 128 188l-286 85q-32 -63 -69 -111q-39 -46 -90 -67q-54 -19 -129 -19zM443 1278h683l22 123h-682zM857 1449h151l-126 209h-224z" />
    <glyph glyph-name="uni1E16" unicode="&#x1e16;" horiz-adv-x="1154" 
d="M-36 0h987l40 231h-645l60 343h600l39 220h-600l57 325h645l42 231h-987zM369 1442h683l22 123h-682zM543 1607h159l272 209h-233z" />
    <glyph glyph-name="uni1E17" unicode="&#x1e17;" horiz-adv-x="1332" 
d="M559 -11l39 217q-128 0 -189 80q-62 79 -22 307q40 233 130 311q91 77 212 77q124 0 182 -71q39 -61 23 -213h-559l-36 -203h895q14 45 23 100q49 281 -51 443q-102 161 -439 161q-327 0 -492 -160q-164 -158 -214 -444q-47 -280 58 -443q105 -162 440 -162zM598 206
l-39 -217q179 0 289 35q109 34 196 106q85 71 128 188l-286 85q-32 -63 -69 -111q-39 -46 -90 -67q-54 -19 -129 -19zM443 1278h683l22 123h-682zM617 1443h159l272 209h-233z" />
    <glyph glyph-name="uni1E1C" unicode="&#x1e1c;" horiz-adv-x="1154" 
d="M-36 0h987l40 231h-645l60 343h600l39 220h-600l57 325h645l42 231h-987zM411 -355q60 0 119 12.5t110 36t84.5 58.5t41.5 80q11 61 -26 90.5t-107 29.5q-55 0 -101.5 -15.5t-72.5 -37.5l-15 -56q14 10 37 17t43 7q25 0 36.5 -6.5t7.5 -23.5q-4 -22 -36.5 -36.5
t-93.5 -14.5q-40 0 -75.5 6t-59.5 12l-70 -139q43 -9 89.5 -14.5t88.5 -5.5zM444 -157l84 157h-133l-69 -145zM705 1410q80 0 141 27t99 71.5t47 97.5h-158q-5 -26 -17 -45.5t-34.5 -29.5t-57.5 -10q-31 0 -50 10t-26 29t-3 46h-158q-9 -53 13.5 -97.5t74.5 -71.5t129 -27z
" />
    <glyph glyph-name="uni1E1D" unicode="&#x1e1d;" horiz-adv-x="1332" 
d="M559 -11l39 217q-128 0 -189 80q-62 79 -22 307q40 233 130 311q91 77 212 77q124 0 182 -71q39 -61 23 -213h-559l-36 -203h895q14 45 23 100q49 281 -51 443q-102 161 -439 161q-327 0 -492 -160q-164 -158 -214 -444q-47 -280 58 -443q105 -162 440 -162zM598 206
l-39 -217q179 0 289 35q109 34 196 106q85 71 128 188l-286 85q-32 -63 -69 -111q-39 -46 -90 -67q-54 -19 -129 -19zM504 -355q60 0 119 12.5t110 36t84.5 58.5t41.5 80q11 61 -26 90.5t-107 29.5q-55 0 -101.5 -15.5t-72.5 -37.5l-15 -56q14 10 37 17t43 7q25 0 36.5 -6.5
t7.5 -23.5q-4 -22 -36.5 -36.5t-93.5 -14.5q-40 0 -75.5 6t-59.5 12l-70 -139q43 -9 89.5 -14.5t88.5 -5.5zM537 -157l84 157h-133l-69 -145zM779 1246q80 0 141 27t99 71.5t47 97.5h-158q-5 -26 -17 -45.5t-34.5 -29.5t-57.5 -10q-31 0 -50 10t-26 29t-3 46h-158
q-9 -53 13.5 -97.5t74.5 -71.5t129 -27z" />
    <glyph glyph-name="uni1E20" unicode="&#x1e20;" horiz-adv-x="1391" 
d="M542 -8q313 0 429 177l8 -169h192l123 700h-580l-34 -201h230l-10 -49q-31 -128 -96 -177.5t-194 -49.5q-137 0 -191.5 88.5t-13.5 355.5q49 311 138.5 388t224.5 77q130 0 181 -58.5t31 -220.5h341q28 201 -77.5 355t-442.5 154q-361 0 -524.5 -171t-212.5 -513
q-47 -334 46.5 -510t431.5 -176zM492 1442h683l22 123h-682z" />
    <glyph glyph-name="uni1E21" unicode="&#x1e21;" horiz-adv-x="1345" 
d="M443 -469q185 0 313.5 47t232 163.5t139.5 322.5l198 1121h-245l-133 -233l-163 -922q-31 -184 -107.5 -235t-185.5 -51q-65 0 -113 20t-70.5 65t-17.5 114h-328q-18 -227 124 -319.5t356 -92.5zM407 -7q213 0 384.5 97t192.5 218l-124 148q-17 -99 -105.5 -166.5
t-193.5 -67.5q-113 0 -160.5 74.5t-9.5 297.5t113 297t188 74q105 0 170 -67t48 -165l173 138q21 119 -116.5 222t-351.5 103q-241 0 -381.5 -159t-182.5 -442q-41 -281 37 -441.5t319 -160.5zM437 1278h683l22 123h-682z" />
    <glyph glyph-name="uni1E24" unicode="&#x1e24;" horiz-adv-x="1376" 
d="M-22 0h341l98 560h497l-98 -560h340l238 1350h-340l-99 -559h-497l99 559h-340zM541 -287q41 0 70 29t29 70t-29 69.5t-69 28.5q-41 0 -70 -28.5t-29 -69.5t28.5 -70t69.5 -29z" />
    <glyph glyph-name="uni1E25" unicode="&#x1e25;" horiz-adv-x="1318" 
d="M-22 0h337l278 1570h-337zM763 0h336l113 644q45 253 -18 402.5t-293 149.5q-241 0 -416.5 -152.5t-203.5 -309.5l150 -75q24 136 111.5 221t192.5 85q100 0 137 -70t2 -267zM514 -320q41 0 70 29t29 70t-29 69.5t-69 28.5q-41 0 -70 -28.5t-29 -69.5t28.5 -70t69.5 -29z
" />
    <glyph glyph-name="uni1E2A" unicode="&#x1e2a;" horiz-adv-x="1376" 
d="M-22 0h341l98 560h497l-98 -560h340l238 1350h-340l-99 -559h-497l99 559h-340zM517 -300q80 0 141 27t99 71.5t47 97.5h-158q-5 -26 -17 -45.5t-34.5 -29.5t-57.5 -10q-31 0 -50 10t-26 29t-3 46h-158q-9 -53 13.5 -97.5t74.5 -71.5t129 -27z" />
    <glyph glyph-name="uni1E2B" unicode="&#x1e2b;" horiz-adv-x="1318" 
d="M-22 0h337l278 1570h-337zM763 0h336l113 644q45 253 -18 402.5t-293 149.5q-241 0 -416.5 -152.5t-203.5 -309.5l150 -75q24 136 111.5 221t192.5 85q100 0 137 -70t2 -267zM499 -300q80 0 141 27t99 71.5t47 97.5h-158q-5 -26 -17 -45.5t-34.5 -29.5t-57.5 -10
q-31 0 -50 10t-26 29t-3 46h-158q-9 -53 13.5 -97.5t74.5 -71.5t129 -27z" />
    <glyph glyph-name="uni1E2E" unicode="&#x1e2e;" horiz-adv-x="619" 
d="M20 0h339l238 1350h-338zM253 1412q41 0 75 32t34 75q0 36 -23.5 59.5t-58.5 23.5q-42 0 -76 -32t-34 -76q0 -35 23 -58.5t60 -23.5zM648 1412q43 0 76 32t33 75q0 36 -22.5 59.5t-59.5 23.5q-42 0 -75.5 -32t-33.5 -76q0 -35 23.5 -58.5t58.5 -23.5zM291 1645h159
l272 209h-233z" />
    <glyph glyph-name="uni1E2F" unicode="&#x1e2f;" horiz-adv-x="558" 
d="M-18 0h338l209 1185h-338zM172 1248q41 0 75 32t34 75q0 36 -23.5 59.5t-58.5 23.5q-42 0 -76 -32t-34 -76q0 -35 23 -58.5t60 -23.5zM567 1248q43 0 76 32t33 75q0 36 -22.5 59.5t-59.5 23.5q-42 0 -75.5 -32t-33.5 -76q0 -35 23.5 -58.5t58.5 -23.5zM210 1481h159
l272 209h-233z" />
    <glyph glyph-name="uni1E36" unicode="&#x1e36;" horiz-adv-x="1055" 
d="M-22 0h888l41 230h-549l199 1120h-340zM406 -287q41 0 70 29t29 70t-29 69.5t-69 28.5q-41 0 -70 -28.5t-29 -69.5t28.5 -70t69.5 -29z" />
    <glyph glyph-name="uni1E37" unicode="&#x1e37;" horiz-adv-x="572" 
d="M0 0h337l276 1570h-336zM135 -320q41 0 70 29t29 70t-29 69.5t-69 28.5q-41 0 -70 -28.5t-29 -69.5t28.5 -70t69.5 -29z" />
    <glyph glyph-name="Lmacronbelow" unicode="&#x1e3a;" horiz-adv-x="1055" 
d="M-22 0h888l41 230h-549l199 1120h-340zM50 -237h683l22 123h-682z" />
    <glyph glyph-name="lmacronbelow" unicode="&#x1e3b;" horiz-adv-x="572" 
d="M0 0h337l276 1570h-336zM-211 -237h683l22 123h-682z" />
    <glyph glyph-name="uni1E42" unicode="&#x1e42;" horiz-adv-x="1820" 
d="M-22 0h335l198 1116h3l84 -1079h395l465 1079h3l-196 -1116h336l237 1350h-554l-450 -1071h-3l-73 1071h-542zM759 -287q41 0 70 29t29 70t-29 69.5t-69 28.5q-41 0 -70 -28.5t-29 -69.5t28.5 -70t69.5 -29z" />
    <glyph glyph-name="uni1E43" unicode="&#x1e43;" horiz-adv-x="1938" 
d="M-21 0h337l177 1007l-45 178h-261zM683 0h336l122 692q36 204 -16.5 353.5t-284.5 149.5q-200 0 -374 -150t-204 -319l166 -71q28 155 98.5 232t161.5 77q87 0 114 -68t-2 -231zM1383 0h336l121 692q37 204 -13.5 353.5t-282.5 149.5q-200 0 -375 -152t-203 -317l166 -71
q27 155 98 232t162 77q87 0 111.5 -68t-3.5 -231zM820 -320q41 0 70 29t29 70t-29 69.5t-69 28.5q-41 0 -70 -28.5t-29 -69.5t28.5 -70t69.5 -29z" />
    <glyph glyph-name="uni1E44" unicode="&#x1e44;" horiz-adv-x="1571" 
d="M-22 0h338l196 1109h3l308 -1109h529l238 1350h-339l-195 -1091h-4l-304 1091h-532zM952 1400q41 0 70 29t29 70t-29 69.5t-69 28.5q-41 0 -70 -28.5t-29 -69.5t28.5 -70t69.5 -29z" />
    <glyph glyph-name="uni1E45" unicode="&#x1e45;" horiz-adv-x="1306" 
d="M-21 0h336l173 988l-39 198h-260zM751 0h336l111 633q45 254 -16.5 408.5t-290.5 154.5q-242 0 -418 -152.5t-204 -309.5l150 -75q24 136 112 221t193 85q100 0 136.5 -70t1.5 -267zM786 1236q41 0 70 29t29 70t-29 69.5t-69 28.5q-41 0 -70 -28.5t-29 -69.5t28.5 -70
t69.5 -29z" />
    <glyph glyph-name="uni1E46" unicode="&#x1e46;" horiz-adv-x="1571" 
d="M-22 0h338l196 1109h3l308 -1109h529l238 1350h-339l-195 -1091h-4l-304 1091h-532zM655 -287q41 0 70 29t29 70t-29 69.5t-69 28.5q-41 0 -70 -28.5t-29 -69.5t28.5 -70t69.5 -29z" />
    <glyph glyph-name="uni1E47" unicode="&#x1e47;" horiz-adv-x="1306" 
d="M-21 0h336l173 988l-39 198h-260zM751 0h336l111 633q45 254 -16.5 408.5t-290.5 154.5q-242 0 -418 -152.5t-204 -309.5l150 -75q24 136 112 221t193 85q100 0 136.5 -70t1.5 -267zM509 -320q41 0 70 29t29 70t-29 69.5t-69 28.5q-41 0 -70 -28.5t-29 -69.5t28.5 -70
t69.5 -29z" />
    <glyph glyph-name="Nmacronbelow" unicode="&#x1e48;" horiz-adv-x="1571" 
d="M-22 0h338l196 1109h3l308 -1109h529l238 1350h-339l-195 -1091h-4l-304 1091h-532zM300 -237h683l22 123h-682z" />
    <glyph glyph-name="nmacronbelow" unicode="&#x1e49;" horiz-adv-x="1306" 
d="M-21 0h336l173 988l-39 198h-260zM751 0h336l111 633q45 254 -16.5 408.5t-290.5 154.5q-242 0 -418 -152.5t-204 -309.5l150 -75q24 136 112 221t193 85q100 0 136.5 -70t1.5 -267zM164 -237h683l22 123h-682z" />
    <glyph glyph-name="uni1E4C" unicode="&#x1e4c;" horiz-adv-x="1411" 
d="M587 -11q359 0 536 173t229 513q51 340 -57 513.5t-466 173.5q-359 0 -536.5 -173t-229.5 -514q-51 -339 57 -512.5t467 -173.5zM628 220q-139 0 -206 78.5t-20 376.5q49 303 148 379.5t238 76.5q138 0 205.5 -76.5t19.5 -379.5q-48 -299 -147.5 -377t-237.5 -78z
M966 1414q70 0 117 23t75.5 57.5t43 68.5t19.5 55h-162q-3 -13 -14.5 -30.5t-30.5 -29.5t-45 -12q-30 0 -52 12t-44 28.5t-51 28.5t-73 12q-71 0 -119.5 -22.5t-77 -56t-43 -67t-20.5 -55.5h164q4 13 13.5 30.5t29 29.5t48.5 12q28 0 49 -13t44 -29.5t53 -29t76 -12.5z
M683 1664h159l272 209h-233z" />
    <glyph glyph-name="uni1E4D" unicode="&#x1e4d;" horiz-adv-x="1337" 
d="M552 -9q324 0 492.5 156.5t212.5 449.5q43 290 -66 446t-434 156t-493.5 -154t-212.5 -448q-43 -289 66 -447.5t435 -158.5zM588 219q-116 0 -175.5 75t-25.5 302q35 225 126 300t207 75q117 0 176.5 -74.5t24.5 -300.5q-35 -225 -126 -301t-207 -76zM898 1250
q70 0 117 23t75.5 57.5t43 68.5t19.5 55h-162q-3 -13 -14.5 -30.5t-30.5 -29.5t-45 -12q-30 0 -52 12t-44 28.5t-51 28.5t-73 12q-71 0 -119.5 -22.5t-77 -56t-43 -67t-20.5 -55.5h164q4 13 13.5 30.5t29 29.5t48.5 12q28 0 49 -13t44 -29.5t53 -29t76 -12.5zM615 1500h159
l272 209h-233z" />
    <glyph glyph-name="uni1E4E" unicode="&#x1e4e;" horiz-adv-x="1411" 
d="M587 -11q359 0 536 173t229 513q51 340 -57 513.5t-466 173.5q-359 0 -536.5 -173t-229.5 -514q-51 -339 57 -512.5t467 -173.5zM628 220q-139 0 -206 78.5t-20 376.5q49 303 148 379.5t238 76.5q138 0 205.5 -76.5t19.5 -379.5q-48 -299 -147.5 -377t-237.5 -78z
M966 1414q70 0 117 23t75.5 57.5t43 68.5t19.5 55h-162q-3 -13 -14.5 -30.5t-30.5 -29.5t-45 -12q-30 0 -52 12t-44 28.5t-51 28.5t-73 12q-71 0 -119.5 -22.5t-77 -56t-43 -67t-20.5 -55.5h164q4 13 13.5 30.5t29 29.5t48.5 12q28 0 49 -13t44 -29.5t53 -29t76 -12.5z
M684 1684q41 0 75 32t34 75q0 36 -23.5 59.5t-58.5 23.5q-42 0 -76 -32t-34 -76q0 -35 23 -58.5t60 -23.5zM1079 1684q43 0 76 32t33 75q0 36 -22.5 59.5t-59.5 23.5q-42 0 -75.5 -32t-33.5 -76q0 -35 23.5 -58.5t58.5 -23.5z" />
    <glyph glyph-name="uni1E4F" unicode="&#x1e4f;" horiz-adv-x="1337" 
d="M552 -9q324 0 492.5 156.5t212.5 449.5q43 290 -66 446t-434 156t-493.5 -154t-212.5 -448q-43 -289 66 -447.5t435 -158.5zM588 219q-116 0 -175.5 75t-25.5 302q35 225 126 300t207 75q117 0 176.5 -74.5t24.5 -300.5q-35 -225 -126 -301t-207 -76zM898 1250
q70 0 117 23t75.5 57.5t43 68.5t19.5 55h-162q-3 -13 -14.5 -30.5t-30.5 -29.5t-45 -12q-30 0 -52 12t-44 28.5t-51 28.5t-73 12q-71 0 -119.5 -22.5t-77 -56t-43 -67t-20.5 -55.5h164q4 13 13.5 30.5t29 29.5t48.5 12q28 0 49 -13t44 -29.5t53 -29t76 -12.5zM615 1520
q41 0 75 32t34 75q0 36 -23.5 59.5t-58.5 23.5q-42 0 -76 -32t-34 -76q0 -35 23 -58.5t60 -23.5zM1010 1520q43 0 76 32t33 75q0 36 -22.5 59.5t-59.5 23.5q-42 0 -75.5 -32t-33.5 -76q0 -35 23.5 -58.5t58.5 -23.5z" />
    <glyph glyph-name="uni1E50" unicode="&#x1e50;" horiz-adv-x="1411" 
d="M587 -11q359 0 536 173t229 513q51 340 -57 513.5t-466 173.5q-359 0 -536.5 -173t-229.5 -514q-51 -339 57 -512.5t467 -173.5zM628 220q-139 0 -206 78.5t-20 376.5q49 303 148 379.5t238 76.5q138 0 205.5 -76.5t19.5 -379.5q-48 -299 -147.5 -377t-237.5 -78z
M500 1442h683l22 123h-682zM920 1619h151l-126 209h-224z" />
    <glyph glyph-name="uni1E51" unicode="&#x1e51;" horiz-adv-x="1337" 
d="M552 -9q324 0 492.5 156.5t212.5 449.5q43 290 -66 446t-434 156t-493.5 -154t-212.5 -448q-43 -289 66 -447.5t435 -158.5zM588 219q-116 0 -175.5 75t-25.5 302q35 225 126 300t207 75q117 0 176.5 -74.5t24.5 -300.5q-35 -225 -126 -301t-207 -76zM431 1278h683
l22 123h-682zM846 1449h151l-126 209h-224z" />
    <glyph glyph-name="uni1E52" unicode="&#x1e52;" horiz-adv-x="1411" 
d="M587 -11q359 0 536 173t229 513q51 340 -57 513.5t-466 173.5q-359 0 -536.5 -173t-229.5 -514q-51 -339 57 -512.5t467 -173.5zM628 220q-139 0 -206 78.5t-20 376.5q49 303 148 379.5t238 76.5q138 0 205.5 -76.5t19.5 -379.5q-48 -299 -147.5 -377t-237.5 -78z
M500 1442h683l22 123h-682zM674 1607h159l272 209h-233z" />
    <glyph glyph-name="uni1E53" unicode="&#x1e53;" horiz-adv-x="1337" 
d="M552 -9q324 0 492.5 156.5t212.5 449.5q43 290 -66 446t-434 156t-493.5 -154t-212.5 -448q-43 -289 66 -447.5t435 -158.5zM588 219q-116 0 -175.5 75t-25.5 302q35 225 126 300t207 75q117 0 176.5 -74.5t24.5 -300.5q-35 -225 -126 -301t-207 -76zM431 1278h683
l22 123h-682zM606 1443h159l272 209h-233z" />
    <glyph glyph-name="uni1E5A" unicode="&#x1e5a;" horiz-adv-x="1325" 
d="M-22 0h341l95 540h421q231 0 332.5 114t127.5 283q27 167 -26 290t-278 123h-775zM785 0h369l-205 643l-339 -14zM451 748l65 371h322q85 0 108 -48.5t7 -137.5q-15 -88 -55.5 -136.5t-124.5 -48.5h-322zM498 -287q41 0 70 29t29 70t-29 69.5t-69 28.5q-41 0 -70 -28.5
t-29 -69.5t28.5 -70t69.5 -29z" />
    <glyph glyph-name="uni1E5B" unicode="&#x1e5b;" horiz-adv-x="1292" 
d="M842 602h336q54 305 -4 449.5t-293 144.5q-219 0 -373 -114.5t-184 -282.5l116 -76q17 94 92.5 167.5t180.5 73.5q92 0 130 -69t-1 -293zM-22 0h336l173 980l-39 205h-261zM498 -320q41 0 70 29t29 70t-29 69.5t-69 28.5q-41 0 -70 -28.5t-29 -69.5t28.5 -70t69.5 -29z
" />
    <glyph glyph-name="Rmacronbelow" unicode="&#x1e5e;" horiz-adv-x="1325" 
d="M-22 0h341l95 540h421q231 0 332.5 114t127.5 283q27 167 -26 290t-278 123h-775zM785 0h369l-205 643l-339 -14zM451 748l65 371h322q85 0 108 -48.5t7 -137.5q-15 -88 -55.5 -136.5t-124.5 -48.5h-322zM143 -237h683l22 123h-682z" />
    <glyph glyph-name="rmacronbelow" unicode="&#x1e5f;" horiz-adv-x="1292" 
d="M842 602h336q54 305 -4 449.5t-293 144.5q-219 0 -373 -114.5t-184 -282.5l116 -76q17 94 92.5 167.5t180.5 73.5q92 0 130 -69t-1 -293zM-22 0h336l173 980l-39 205h-261zM152 -237h683l22 123h-682z" />
    <glyph glyph-name="uni1E60" unicode="&#x1e60;" horiz-adv-x="1356" 
d="M558 -8q350 0 502 124.5t172 301.5q22 165 -64.5 237.5t-370.5 134.5q-178 38 -268.5 71t-76.5 127q11 71 94 106t205 35q115 0 181.5 -42t37.5 -214h341q37 223 -66.5 356t-452.5 133q-346 0 -504.5 -122.5t-171.5 -292.5q-16 -155 69 -240.5t360 -144.5
q170 -36 264 -69t80 -122q-13 -77 -93.5 -113t-200.5 -36q-121 0 -185 44t-34 222h-341q-41 -237 61.5 -366.5t461.5 -129.5zM824 1400q41 0 70 29t29 70t-29 69.5t-69 28.5q-41 0 -70 -28.5t-29 -69.5t28.5 -70t69.5 -29z" />
    <glyph glyph-name="uni1E61" unicode="&#x1e61;" horiz-adv-x="1311" 
d="M554 -9q235 0 414 87t206 276q26 178 -80 252.5t-323 105.5q-156 22 -247.5 45t-80.5 96q7 56 68 89t170 33q116 0 183 -51.5t74 -141.5l313 106q-13 168 -153 238t-379 70t-410.5 -82.5t-196.5 -259.5q-26 -181 77 -259.5t306 -108.5q165 -28 260.5 -51.5t83.5 -98.5
q-8 -56 -72.5 -90t-176.5 -34q-127 0 -196 49.5t-74 151.5l-314 -107q18 -174 165.5 -244.5t382.5 -70.5zM764 1236q41 0 70 29t29 70t-29 69.5t-69 28.5q-41 0 -70 -28.5t-29 -69.5t28.5 -70t69.5 -29z" />
    <glyph glyph-name="uni1E62" unicode="&#x1e62;" horiz-adv-x="1356" 
d="M558 -8q350 0 502 124.5t172 301.5q22 165 -64.5 237.5t-370.5 134.5q-178 38 -268.5 71t-76.5 127q11 71 94 106t205 35q115 0 181.5 -42t37.5 -214h341q37 223 -66.5 356t-452.5 133q-346 0 -504.5 -122.5t-171.5 -292.5q-16 -155 69 -240.5t360 -144.5
q170 -36 264 -69t80 -122q-13 -77 -93.5 -113t-200.5 -36q-121 0 -185 44t-34 222h-341q-41 -237 61.5 -366.5t461.5 -129.5zM528 -287q41 0 70 29t29 70t-29 69.5t-69 28.5q-41 0 -70 -28.5t-29 -69.5t28.5 -70t69.5 -29z" />
    <glyph glyph-name="uni1E63" unicode="&#x1e63;" horiz-adv-x="1311" 
d="M554 -9q235 0 414 87t206 276q26 178 -80 252.5t-323 105.5q-156 22 -247.5 45t-80.5 96q7 56 68 89t170 33q116 0 183 -51.5t74 -141.5l313 106q-13 168 -153 238t-379 70t-410.5 -82.5t-196.5 -259.5q-26 -181 77 -259.5t306 -108.5q165 -28 260.5 -51.5t83.5 -98.5
q-8 -56 -72.5 -90t-176.5 -34q-127 0 -196 49.5t-74 151.5l-314 -107q18 -174 165.5 -244.5t382.5 -70.5zM491 -320q41 0 70 29t29 70t-29 69.5t-69 28.5q-41 0 -70 -28.5t-29 -69.5t28.5 -70t69.5 -29z" />
    <glyph glyph-name="uni1E64" unicode="&#x1e64;" horiz-adv-x="1356" 
d="M558 -8q350 0 502 124.5t172 301.5q22 165 -64.5 237.5t-370.5 134.5q-178 38 -268.5 71t-76.5 127q11 71 94 106t205 35q115 0 181.5 -42t37.5 -214h341q37 223 -66.5 356t-452.5 133q-346 0 -504.5 -122.5t-171.5 -292.5q-16 -155 69 -240.5t360 -144.5
q170 -36 264 -69t80 -122q-13 -77 -93.5 -113t-200.5 -36q-121 0 -185 44t-34 222h-341q-41 -237 61.5 -366.5t461.5 -129.5zM605 1391h159l272 209h-233zM868 1651q41 0 70 29t29 70t-29 69.5t-69 28.5q-41 0 -70 -28.5t-29 -69.5t28.5 -70t69.5 -29z" />
    <glyph glyph-name="uni1E65" unicode="&#x1e65;" horiz-adv-x="1311" 
d="M554 -9q235 0 414 87t206 276q26 178 -80 252.5t-323 105.5q-156 22 -247.5 45t-80.5 96q7 56 68 89t170 33q116 0 183 -51.5t74 -141.5l313 106q-13 168 -153 238t-379 70t-410.5 -82.5t-196.5 -259.5q-26 -181 77 -259.5t306 -108.5q165 -28 260.5 -51.5t83.5 -98.5
q-8 -56 -72.5 -90t-176.5 -34q-127 0 -196 49.5t-74 151.5l-314 -107q18 -174 165.5 -244.5t382.5 -70.5zM545 1228h159l272 209h-233zM808 1487q41 0 70 29t29 70t-29 69.5t-69 28.5q-41 0 -70 -28.5t-29 -69.5t28.5 -70t69.5 -29z" />
    <glyph glyph-name="uni1E66" unicode="&#x1e66;" horiz-adv-x="1356" 
d="M558 -8q350 0 502 124.5t172 301.5q22 165 -64.5 237.5t-370.5 134.5q-178 38 -268.5 71t-76.5 127q11 71 94 106t205 35q115 0 181.5 -42t37.5 -214h341q37 223 -66.5 356t-452.5 133q-346 0 -504.5 -122.5t-171.5 -292.5q-16 -155 69 -240.5t360 -144.5
q170 -36 264 -69t80 -122q-13 -77 -93.5 -113t-200.5 -36q-121 0 -185 44t-34 222h-341q-41 -237 61.5 -366.5t461.5 -129.5zM698 1395h214l255 207h-195l-155 -139l-112 139h-191zM869 1652q41 0 70 29t29 70t-29 69.5t-69 28.5q-41 0 -70 -28.5t-29 -69.5t28.5 -70
t69.5 -29z" />
    <glyph glyph-name="uni1E67" unicode="&#x1e67;" horiz-adv-x="1311" 
d="M554 -9q235 0 414 87t206 276q26 178 -80 252.5t-323 105.5q-156 22 -247.5 45t-80.5 96q7 56 68 89t170 33q116 0 183 -51.5t74 -141.5l313 106q-13 168 -153 238t-379 70t-410.5 -82.5t-196.5 -259.5q-26 -181 77 -259.5t306 -108.5q165 -28 260.5 -51.5t83.5 -98.5
q-8 -56 -72.5 -90t-176.5 -34q-127 0 -196 49.5t-74 151.5l-314 -107q18 -174 165.5 -244.5t382.5 -70.5zM637 1231h214l255 207h-195l-155 -139l-112 139h-191zM809 1488q41 0 70 29t29 70t-29 69.5t-69 28.5q-41 0 -70 -28.5t-29 -69.5t28.5 -70t69.5 -29z" />
    <glyph glyph-name="uni1E68" unicode="&#x1e68;" horiz-adv-x="1356" 
d="M558 -8q350 0 502 124.5t172 301.5q22 165 -64.5 237.5t-370.5 134.5q-178 38 -268.5 71t-76.5 127q11 71 94 106t205 35q115 0 181.5 -42t37.5 -214h341q37 223 -66.5 356t-452.5 133q-346 0 -504.5 -122.5t-171.5 -292.5q-16 -155 69 -240.5t360 -144.5
q170 -36 264 -69t80 -122q-13 -77 -93.5 -113t-200.5 -36q-121 0 -185 44t-34 222h-341q-41 -237 61.5 -366.5t461.5 -129.5zM528 -287q41 0 70 29t29 70t-29 69.5t-69 28.5q-41 0 -70 -28.5t-29 -69.5t28.5 -70t69.5 -29zM824 1400q41 0 70 29t29 70t-29 69.5t-69 28.5
q-41 0 -70 -28.5t-29 -69.5t28.5 -70t69.5 -29z" />
    <glyph glyph-name="uni1E69" unicode="&#x1e69;" horiz-adv-x="1311" 
d="M554 -9q235 0 414 87t206 276q26 178 -80 252.5t-323 105.5q-156 22 -247.5 45t-80.5 96q7 56 68 89t170 33q116 0 183 -51.5t74 -141.5l313 106q-13 168 -153 238t-379 70t-410.5 -82.5t-196.5 -259.5q-26 -181 77 -259.5t306 -108.5q165 -28 260.5 -51.5t83.5 -98.5
q-8 -56 -72.5 -90t-176.5 -34q-127 0 -196 49.5t-74 151.5l-314 -107q18 -174 165.5 -244.5t382.5 -70.5zM491 -320q41 0 70 29t29 70t-29 69.5t-69 28.5q-41 0 -70 -28.5t-29 -69.5t28.5 -70t69.5 -29zM764 1236q41 0 70 29t29 70t-29 69.5t-69 28.5q-41 0 -70 -28.5
t-29 -69.5t28.5 -70t69.5 -29z" />
    <glyph glyph-name="uni1E6C" unicode="&#x1e6c;" horiz-adv-x="1284" 
d="M354 0h341l196 1119h401l42 231h-1144l-41 -231h402zM500 -287q41 0 70 29t29 70t-29 69.5t-69 28.5q-41 0 -70 -28.5t-29 -69.5t28.5 -70t69.5 -29z" />
    <glyph glyph-name="uni1E6D" unicode="&#x1e6d;" horiz-adv-x="1061" 
d="M563 -15q136 0 264 28l39 222q-75 -25 -150 -25q-73 0 -108 30t-18 126l104 588h364l41 231h-364l47 271h-336l-48 -271h-270l-41 -231h271l-118 -662q-30 -173 67.5 -240t255.5 -67zM492 -320q41 0 70 29t29 70t-29 69.5t-69 28.5q-41 0 -70 -28.5t-29 -69.5t28.5 -70
t69.5 -29z" />
    <glyph glyph-name="Tmacronbelow" unicode="&#x1e6e;" horiz-adv-x="1284" 
d="M354 0h341l196 1119h401l42 231h-1144l-41 -231h402zM145 -237h683l22 123h-682z" />
    <glyph glyph-name="tmacronbelow" unicode="&#x1e6f;" horiz-adv-x="1061" 
d="M563 -15q136 0 264 28l39 222q-75 -25 -150 -25q-73 0 -108 30t-18 126l104 588h364l41 231h-364l47 271h-336l-48 -271h-270l-41 -231h271l-118 -662q-30 -173 67.5 -240t255.5 -67zM146 -237h683l22 123h-682z" />
    <glyph glyph-name="uni1E78" unicode="&#x1e78;" horiz-adv-x="1407" 
d="M581 -8q307 0 477 105t214 352l158 901h-340l-152 -864q-26 -144 -96.5 -203t-218.5 -59t-198 59t-24 203l152 864h-340l-159 -901q-43 -247 89 -352t438 -105zM977 1414q70 0 117 23t75.5 57.5t43 68.5t19.5 55h-162q-3 -13 -14.5 -30.5t-30.5 -29.5t-45 -12
q-30 0 -52 12t-44 28.5t-51 28.5t-73 12q-71 0 -119.5 -22.5t-77 -56t-43 -67t-20.5 -55.5h164q4 13 13.5 30.5t29 29.5t48.5 12q28 0 49 -13t44 -29.5t53 -29t76 -12.5zM693 1664h159l272 209h-233z" />
    <glyph glyph-name="uni1E79" unicode="&#x1e79;" horiz-adv-x="1307" 
d="M821 0h258l209 1185h-336l-175 -991zM506 1186h-336l-113 -644q-44 -252 16 -402t292 -150q258 0 426.5 153t196.5 309l-152 70q-23 -137 -113 -219t-195 -82q-100 0 -134 70t2 268zM886 1250q70 0 117 23t75.5 57.5t43 68.5t19.5 55h-162q-3 -13 -14.5 -30.5
t-30.5 -29.5t-45 -12q-30 0 -52 12t-44 28.5t-51 28.5t-73 12q-71 0 -119.5 -22.5t-77 -56t-43 -67t-20.5 -55.5h164q4 13 13.5 30.5t29 29.5t48.5 12q28 0 49 -13t44 -29.5t53 -29t76 -12.5zM603 1500h159l272 209h-233z" />
    <glyph glyph-name="uni1E7A" unicode="&#x1e7a;" horiz-adv-x="1407" 
d="M581 -8q307 0 477 105t214 352l158 901h-340l-152 -864q-26 -144 -96.5 -203t-218.5 -59t-198 59t-24 203l152 864h-340l-159 -901q-43 -247 89 -352t438 -105zM511 1442h683l22 123h-682zM685 1628q41 0 75 32t34 75q0 36 -23.5 59.5t-58.5 23.5q-42 0 -76 -32t-34 -76
q0 -35 23 -58.5t60 -23.5zM1080 1628q43 0 76 32t33 75q0 36 -22.5 59.5t-59.5 23.5q-42 0 -75.5 -32t-33.5 -76q0 -35 23.5 -58.5t58.5 -23.5z" />
    <glyph glyph-name="uni1E7B" unicode="&#x1e7b;" horiz-adv-x="1307" 
d="M821 0h258l209 1185h-336l-175 -991zM506 1186h-336l-113 -644q-44 -252 16 -402t292 -150q258 0 426.5 153t196.5 309l-152 70q-23 -137 -113 -219t-195 -82q-100 0 -134 70t2 268zM420 1278h683l22 123h-682zM594 1464q41 0 75 32t34 75q0 36 -23.5 59.5t-58.5 23.5
q-42 0 -76 -32t-34 -76q0 -35 23 -58.5t60 -23.5zM989 1464q43 0 76 32t33 75q0 36 -22.5 59.5t-59.5 23.5q-42 0 -75.5 -32t-33.5 -76q0 -35 23.5 -58.5t58.5 -23.5z" />
    <glyph glyph-name="Wgrave" unicode="&#x1e80;" horiz-adv-x="2036" 
d="M177 0h518l397 1119h3l-1 -1119h519l490 1350h-373l-357 -1102h-3l-19 1102h-446l-408 -1102h-3l37 1102h-361zM1192 1397h151l-126 209h-224z" />
    <glyph glyph-name="wgrave" unicode="&#x1e81;" horiz-adv-x="1884" 
d="M200 0h451l326 849l29 -849h447l466 1185h-352l-313 -962h-3l-49 962h-336l-390 -964h-3l22 964h-344zM1092 1233h151l-126 209h-224z" />
    <glyph glyph-name="Wacute" unicode="&#x1e82;" horiz-adv-x="2036" 
d="M177 0h518l397 1119h3l-1 -1119h519l490 1350h-373l-357 -1102h-3l-19 1102h-446l-408 -1102h-3l37 1102h-361zM952 1392h159l272 209h-233z" />
    <glyph glyph-name="wacute" unicode="&#x1e83;" horiz-adv-x="1884" 
d="M200 0h451l326 849l29 -849h447l466 1185h-352l-313 -962h-3l-49 962h-336l-390 -964h-3l22 964h-344zM852 1228h159l272 209h-233z" />
    <glyph glyph-name="Wdieresis" unicode="&#x1e84;" horiz-adv-x="2036" 
d="M177 0h518l397 1119h3l-1 -1119h519l490 1350h-373l-357 -1102h-3l-19 1102h-446l-408 -1102h-3l37 1102h-361zM952 1412q41 0 75 32t34 75q0 36 -23.5 59.5t-58.5 23.5q-42 0 -76 -32t-34 -76q0 -35 23 -58.5t60 -23.5zM1347 1412q43 0 76 32t33 75q0 36 -22.5 59.5
t-59.5 23.5q-42 0 -75.5 -32t-33.5 -76q0 -35 23.5 -58.5t58.5 -23.5z" />
    <glyph glyph-name="wdieresis" unicode="&#x1e85;" horiz-adv-x="1884" 
d="M200 0h451l326 849l29 -849h447l466 1185h-352l-313 -962h-3l-49 962h-336l-390 -964h-3l22 964h-344zM852 1248q41 0 75 32t34 75q0 36 -23.5 59.5t-58.5 23.5q-42 0 -76 -32t-34 -76q0 -35 23 -58.5t60 -23.5zM1247 1248q43 0 76 32t33 75q0 36 -22.5 59.5t-59.5 23.5
q-42 0 -75.5 -32t-33.5 -76q0 -35 23.5 -58.5t58.5 -23.5z" />
    <glyph glyph-name="uni1E8E" unicode="&#x1e8e;" horiz-adv-x="1411" 
d="M415 0h339l89 504l662 846h-373l-414 -580h-3l-212 580h-365l364 -848zM866 1400q41 0 70 29t29 70t-29 69.5t-69 28.5q-41 0 -70 -28.5t-29 -69.5t28.5 -70t69.5 -29z" />
    <glyph glyph-name="uni1E8F" unicode="&#x1e8f;" horiz-adv-x="1239" 
d="M256 0h514l540 1185h-352l-407 -964h-1l-70 964h-351zM-76 -466q310 0 509 85.5t337 380.5l-312 1q-69 -149 -178.5 -194t-315.5 -45zM752 1236q41 0 70 29t29 70t-29 69.5t-69 28.5q-41 0 -70 -28.5t-29 -69.5t28.5 -70t69.5 -29z" />
    <glyph glyph-name="uni1E92" unicode="&#x1e92;" horiz-adv-x="1182" 
d="M-47 0h1030l41 231h-652l789 888l41 231h-998l-40 -229h620l-789 -882zM450 -287q41 0 70 29t29 70t-29 69.5t-69 28.5q-41 0 -70 -28.5t-29 -69.5t28.5 -70t69.5 -29z" />
    <glyph glyph-name="uni1E93" unicode="&#x1e93;" horiz-adv-x="1096" 
d="M-35 0h941l41 230h-539l1 3l656 726l41 226h-929l-40 -229h538l-1 -2l-668 -726zM406 -320q41 0 70 29t29 70t-29 69.5t-69 28.5q-41 0 -70 -28.5t-29 -69.5t28.5 -70t69.5 -29z" />
    <glyph glyph-name="uni1E97" unicode="&#x1e97;" horiz-adv-x="1061" 
d="M563 -15q136 0 264 28l39 222q-75 -25 -150 -25q-73 0 -108 30t-18 126l104 588h364l41 231h-364l47 271h-336l-48 -271h-270l-41 -231h271l-118 -662q-30 -173 67.5 -240t255.5 -67zM440 1518q41 0 75 32t34 75q0 36 -23.5 59.5t-58.5 23.5q-42 0 -76 -32t-34 -76
q0 -35 23 -58.5t60 -23.5zM835 1518q43 0 76 32t33 75q0 36 -22.5 59.5t-59.5 23.5q-42 0 -75.5 -32t-33.5 -76q0 -35 23.5 -58.5t58.5 -23.5z" />
    <glyph glyph-name="uni1E9E" unicode="&#x1e9e;" horiz-adv-x="1306" 
d="M-22 0h339l196 1111h352l-280 -285l-34 -204q74 -5 130 -17.5t93.5 -35t53 -58t8.5 -84.5q-9 -82 -47 -126.5t-112.5 -61.5t-195.5 -14l-39 -225q207 -1 344 23.5t218 76.5t121.5 131t55.5 186q11 75 0 132t-48.5 98.5t-103 67t-164.5 37.5l387 379l39 219h-1074z" />
    <glyph glyph-name="uni1EA0" unicode="&#x1ea0;" horiz-adv-x="1459" 
d="M-48 0h350l150 329h459l34 -329h350l-193 1352h-482zM547 553l279 600h3l67 -600h-349zM589 -287q41 0 70 29t29 70t-29 69.5t-69 28.5q-41 0 -70 -28.5t-29 -69.5t28.5 -70t69.5 -29z" />
    <glyph glyph-name="uni1EA1" unicode="&#x1ea1;" horiz-adv-x="1331" 
d="M405 -12q78 0 146.5 13t124.5 34.5t96 47.5t61 53l5 -136h280l131 740q30 166 -21 266.5t-174 145.5t-311 45q-104 0 -200 -17.5t-178.5 -55.5t-145.5 -101.5t-101 -155.5l313 -91q27 73 71 116t98 61.5t112 18.5q75 0 124.5 -20.5t70 -67.5t7.5 -127l-8 -45h-375
q-70 0 -141 -9.5t-135 -33.5t-115.5 -65.5t-84.5 -106.5t-41 -157q-15 -137 26.5 -213.5t134.5 -107.5t230 -31zM516 203q-56 0 -94 13t-55 48t-10 101q6 52 24.5 84.5t48 50t67.5 24t82 6.5h290l-37 -212q-26 -30 -74 -56.5t-110.5 -42.5t-131.5 -16zM518 -320q41 0 70 29
t29 70t-29 69.5t-69 28.5q-41 0 -70 -28.5t-29 -69.5t28.5 -70t69.5 -29z" />
    <glyph glyph-name="uni1EA2" unicode="&#x1ea2;" horiz-adv-x="1459" 
d="M-48 0h350l150 329h459l34 -329h350l-193 1352h-482zM547 553l279 600h3l67 -600h-349zM793 1707l-19 -101q99 0 156.5 -2t81 -8.5t21.5 -19.5q-1 -12 -25 -19.5t-65.5 -10t-98.5 -2.5l-24 -137h118l11 57q39 0 80.5 6.5t78 20.5t60 37.5t27.5 57.5q3 35 -17.5 58.5
t-68 37.5t-126 19.5t-190.5 5.5z" />
    <glyph glyph-name="uni1EA3" unicode="&#x1ea3;" horiz-adv-x="1331" 
d="M405 -12q78 0 146.5 13t124.5 34.5t96 47.5t61 53l5 -136h280l131 740q30 166 -21 266.5t-174 145.5t-311 45q-104 0 -200 -17.5t-178.5 -55.5t-145.5 -101.5t-101 -155.5l313 -91q27 73 71 116t98 61.5t112 18.5q75 0 124.5 -20.5t70 -67.5t7.5 -127l-8 -45h-375
q-70 0 -141 -9.5t-135 -33.5t-115.5 -65.5t-84.5 -106.5t-41 -157q-15 -137 26.5 -213.5t134.5 -107.5t230 -31zM516 203q-56 0 -94 13t-55 48t-10 101q6 52 24.5 84.5t48 50t67.5 24t82 6.5h290l-37 -212q-26 -30 -74 -56.5t-110.5 -42.5t-131.5 -16zM679 1543l-19 -101
q99 0 156.5 -2t81 -8.5t21.5 -19.5q-1 -12 -25 -19.5t-65.5 -10t-98.5 -2.5l-24 -137h118l11 57q39 0 80.5 6.5t78 20.5t60 37.5t27.5 57.5q3 35 -17.5 58.5t-68 37.5t-126 19.5t-190.5 5.5z" />
    <glyph glyph-name="uni1EA4" unicode="&#x1ea4;" horiz-adv-x="1459" 
d="M-48 0h350l150 329h459l34 -329h350l-193 1352h-482zM547 553l279 600h3l67 -600h-349zM555 1413h194l157 139l109 -139h194l-185 207h-214zM1084 1580h159l272 209h-233z" />
    <glyph glyph-name="uni1EA5" unicode="&#x1ea5;" horiz-adv-x="1331" 
d="M405 -12q78 0 146.5 13t124.5 34.5t96 47.5t61 53l5 -136h280l131 740q30 166 -21 266.5t-174 145.5t-311 45q-104 0 -200 -17.5t-178.5 -55.5t-145.5 -101.5t-101 -155.5l313 -91q27 73 71 116t98 61.5t112 18.5q75 0 124.5 -20.5t70 -67.5t7.5 -127l-8 -45h-375
q-70 0 -141 -9.5t-135 -33.5t-115.5 -65.5t-84.5 -106.5t-41 -157q-15 -137 26.5 -213.5t134.5 -107.5t230 -31zM516 203q-56 0 -94 13t-55 48t-10 101q6 52 24.5 84.5t48 50t67.5 24t82 6.5h290l-37 -212q-26 -30 -74 -56.5t-110.5 -42.5t-131.5 -16zM446 1249h194l157 139
l109 -139h194l-185 207h-214zM974 1416h159l272 209h-233z" />
    <glyph glyph-name="uni1EA6" unicode="&#x1ea6;" horiz-adv-x="1459" 
d="M-48 0h350l150 329h459l34 -329h350l-193 1352h-482zM547 553l279 600h3l67 -600h-349zM555 1411h194l157 139l109 -139h194l-185 207h-214zM1163 1580h151l-126 209h-224z" />
    <glyph glyph-name="uni1EA7" unicode="&#x1ea7;" horiz-adv-x="1331" 
d="M405 -12q78 0 146.5 13t124.5 34.5t96 47.5t61 53l5 -136h280l131 740q30 166 -21 266.5t-174 145.5t-311 45q-104 0 -200 -17.5t-178.5 -55.5t-145.5 -101.5t-101 -155.5l313 -91q27 73 71 116t98 61.5t112 18.5q75 0 124.5 -20.5t70 -67.5t7.5 -127l-8 -45h-375
q-70 0 -141 -9.5t-135 -33.5t-115.5 -65.5t-84.5 -106.5t-41 -157q-15 -137 26.5 -213.5t134.5 -107.5t230 -31zM516 203q-56 0 -94 13t-55 48t-10 101q6 52 24.5 84.5t48 50t67.5 24t82 6.5h290l-37 -212q-26 -30 -74 -56.5t-110.5 -42.5t-131.5 -16zM445 1247h194l157 139
l109 -139h194l-185 207h-214zM1054 1416h151l-126 209h-224z" />
    <glyph glyph-name="uni1EA8" unicode="&#x1ea8;" horiz-adv-x="1459" 
d="M-48 0h350l150 329h459l34 -329h350l-193 1352h-482zM547 553l279 600h3l67 -600h-349zM552 1402h194l157 139l109 -139h194l-185 207h-214zM833 1966l-19 -101q99 0 156.5 -2t81 -8.5t21.5 -19.5q-1 -12 -25 -19.5t-65.5 -10t-98.5 -2.5l-24 -137h118l11 57
q39 0 80.5 6.5t78 20.5t60 37.5t27.5 57.5q3 35 -17.5 58.5t-68 37.5t-126 19.5t-190.5 5.5z" />
    <glyph glyph-name="uni1EA9" unicode="&#x1ea9;" horiz-adv-x="1331" 
d="M405 -12q78 0 146.5 13t124.5 34.5t96 47.5t61 53l5 -136h280l131 740q30 166 -21 266.5t-174 145.5t-311 45q-104 0 -200 -17.5t-178.5 -55.5t-145.5 -101.5t-101 -155.5l313 -91q27 73 71 116t98 61.5t112 18.5q75 0 124.5 -20.5t70 -67.5t7.5 -127l-8 -45h-375
q-70 0 -141 -9.5t-135 -33.5t-115.5 -65.5t-84.5 -106.5t-41 -157q-15 -137 26.5 -213.5t134.5 -107.5t230 -31zM516 203q-56 0 -94 13t-55 48t-10 101q6 52 24.5 84.5t48 50t67.5 24t82 6.5h290l-37 -212q-26 -30 -74 -56.5t-110.5 -42.5t-131.5 -16zM443 1238h194l157 139
l109 -139h194l-185 207h-214zM723 1802l-19 -101q99 0 156.5 -2t81 -8.5t21.5 -19.5q-1 -12 -25 -19.5t-65.5 -10t-98.5 -2.5l-24 -137h118l11 57q39 0 80.5 6.5t78 20.5t60 37.5t27.5 57.5q3 35 -17.5 58.5t-68 37.5t-126 19.5t-190.5 5.5z" />
    <glyph glyph-name="uni1EAA" unicode="&#x1eaa;" horiz-adv-x="1459" 
d="M-48 0h350l150 329h459l34 -329h350l-193 1352h-482zM547 553l279 600h3l67 -600h-349zM552 1402h194l157 139l109 -139h194l-185 207h-214zM1055 1673q70 0 117 23t75.5 57.5t43 68.5t19.5 55h-162q-3 -13 -14.5 -30.5t-30.5 -29.5t-45 -12q-30 0 -52 12t-44 28.5
t-51 28.5t-73 12q-71 0 -119.5 -22.5t-77 -56t-43 -67t-20.5 -55.5h164q4 13 13.5 30.5t29 29.5t48.5 12q28 0 49 -13t44 -29.5t53 -29t76 -12.5z" />
    <glyph glyph-name="uni1EAB" unicode="&#x1eab;" horiz-adv-x="1331" 
d="M405 -12q78 0 146.5 13t124.5 34.5t96 47.5t61 53l5 -136h280l131 740q30 166 -21 266.5t-174 145.5t-311 45q-104 0 -200 -17.5t-178.5 -55.5t-145.5 -101.5t-101 -155.5l313 -91q27 73 71 116t98 61.5t112 18.5q75 0 124.5 -20.5t70 -67.5t7.5 -127l-8 -45h-375
q-70 0 -141 -9.5t-135 -33.5t-115.5 -65.5t-84.5 -106.5t-41 -157q-15 -137 26.5 -213.5t134.5 -107.5t230 -31zM516 203q-56 0 -94 13t-55 48t-10 101q6 52 24.5 84.5t48 50t67.5 24t82 6.5h290l-37 -212q-26 -30 -74 -56.5t-110.5 -42.5t-131.5 -16zM443 1238h194l157 139
l109 -139h194l-185 207h-214zM946 1509q70 0 117 23t75.5 57.5t43 68.5t19.5 55h-162q-3 -13 -14.5 -30.5t-30.5 -29.5t-45 -12q-30 0 -52 12t-44 28.5t-51 28.5t-73 12q-71 0 -119.5 -22.5t-77 -56t-43 -67t-20.5 -55.5h164q4 13 13.5 30.5t29 29.5t48.5 12q28 0 49 -13
t44 -29.5t53 -29t76 -12.5z" />
    <glyph glyph-name="uni1EAC" unicode="&#x1eac;" horiz-adv-x="1459" 
d="M-48 0h350l150 329h459l34 -329h350l-193 1352h-482zM547 553l279 600h3l67 -600h-349zM589 -287q41 0 70 29t29 70t-29 69.5t-69 28.5q-41 0 -70 -28.5t-29 -69.5t28.5 -70t69.5 -29zM552 1402h194l157 139l109 -139h194l-185 207h-214z" />
    <glyph glyph-name="uni1EAD" unicode="&#x1ead;" horiz-adv-x="1331" 
d="M405 -12q78 0 146.5 13t124.5 34.5t96 47.5t61 53l5 -136h280l131 740q30 166 -21 266.5t-174 145.5t-311 45q-104 0 -200 -17.5t-178.5 -55.5t-145.5 -101.5t-101 -155.5l313 -91q27 73 71 116t98 61.5t112 18.5q75 0 124.5 -20.5t70 -67.5t7.5 -127l-8 -45h-375
q-70 0 -141 -9.5t-135 -33.5t-115.5 -65.5t-84.5 -106.5t-41 -157q-15 -137 26.5 -213.5t134.5 -107.5t230 -31zM516 203q-56 0 -94 13t-55 48t-10 101q6 52 24.5 84.5t48 50t67.5 24t82 6.5h290l-37 -212q-26 -30 -74 -56.5t-110.5 -42.5t-131.5 -16zM518 -320q41 0 70 29
t29 70t-29 69.5t-69 28.5q-41 0 -70 -28.5t-29 -69.5t28.5 -70t69.5 -29zM443 1238h194l157 139l109 -139h194l-185 207h-214z" />
    <glyph glyph-name="uni1EAE" unicode="&#x1eae;" horiz-adv-x="1459" 
d="M-48 0h350l150 329h459l34 -329h350l-193 1352h-482zM547 553l279 600h3l67 -600h-349zM881 1410q80 0 141 27t99 71.5t47 97.5h-158q-5 -26 -17 -45.5t-34.5 -29.5t-57.5 -10q-31 0 -50 10t-26 29t-3 46h-158q-9 -53 13.5 -97.5t74.5 -71.5t129 -27zM726 1648h159
l272 209h-233z" />
    <glyph glyph-name="uni1EAF" unicode="&#x1eaf;" horiz-adv-x="1331" 
d="M405 -12q78 0 146.5 13t124.5 34.5t96 47.5t61 53l5 -136h280l131 740q30 166 -21 266.5t-174 145.5t-311 45q-104 0 -200 -17.5t-178.5 -55.5t-145.5 -101.5t-101 -155.5l313 -91q27 73 71 116t98 61.5t112 18.5q75 0 124.5 -20.5t70 -67.5t7.5 -127l-8 -45h-375
q-70 0 -141 -9.5t-135 -33.5t-115.5 -65.5t-84.5 -106.5t-41 -157q-15 -137 26.5 -213.5t134.5 -107.5t230 -31zM516 203q-56 0 -94 13t-55 48t-10 101q6 52 24.5 84.5t48 50t67.5 24t82 6.5h290l-37 -212q-26 -30 -74 -56.5t-110.5 -42.5t-131.5 -16zM771 1246q80 0 141 27
t99 71.5t47 97.5h-158q-5 -26 -17 -45.5t-34.5 -29.5t-57.5 -10q-31 0 -50 10t-26 29t-3 46h-158q-9 -53 13.5 -97.5t74.5 -71.5t129 -27zM616 1484h159l272 209h-233z" />
    <glyph glyph-name="uni1EB0" unicode="&#x1eb0;" horiz-adv-x="1459" 
d="M-48 0h350l150 329h459l34 -329h350l-193 1352h-482zM547 553l279 600h3l67 -600h-349zM881 1410q80 0 141 27t99 71.5t47 97.5h-158q-5 -26 -17 -45.5t-34.5 -29.5t-57.5 -10q-31 0 -50 10t-26 29t-3 46h-158q-9 -53 13.5 -97.5t74.5 -71.5t129 -27zM966 1653h151
l-126 209h-224z" />
    <glyph glyph-name="uni1EB1" unicode="&#x1eb1;" horiz-adv-x="1331" 
d="M405 -12q78 0 146.5 13t124.5 34.5t96 47.5t61 53l5 -136h280l131 740q30 166 -21 266.5t-174 145.5t-311 45q-104 0 -200 -17.5t-178.5 -55.5t-145.5 -101.5t-101 -155.5l313 -91q27 73 71 116t98 61.5t112 18.5q75 0 124.5 -20.5t70 -67.5t7.5 -127l-8 -45h-375
q-70 0 -141 -9.5t-135 -33.5t-115.5 -65.5t-84.5 -106.5t-41 -157q-15 -137 26.5 -213.5t134.5 -107.5t230 -31zM516 203q-56 0 -94 13t-55 48t-10 101q6 52 24.5 84.5t48 50t67.5 24t82 6.5h290l-37 -212q-26 -30 -74 -56.5t-110.5 -42.5t-131.5 -16zM771 1246q80 0 141 27
t99 71.5t47 97.5h-158q-5 -26 -17 -45.5t-34.5 -29.5t-57.5 -10q-31 0 -50 10t-26 29t-3 46h-158q-9 -53 13.5 -97.5t74.5 -71.5t129 -27zM856 1489h151l-126 209h-224z" />
    <glyph glyph-name="uni1EB2" unicode="&#x1eb2;" horiz-adv-x="1459" 
d="M-48 0h350l150 329h459l34 -329h350l-193 1352h-482zM547 553l279 600h3l67 -600h-349zM881 1410q80 0 141 27t99 71.5t47 97.5h-158q-5 -26 -17 -45.5t-34.5 -29.5t-57.5 -10q-31 0 -50 10t-26 29t-3 46h-158q-9 -53 13.5 -97.5t74.5 -71.5t129 -27zM834 1963l-19 -101
q99 0 156.5 -2t81 -8.5t21.5 -19.5q-1 -12 -25 -19.5t-65.5 -10t-98.5 -2.5l-24 -137h118l11 57q39 0 80.5 6.5t78 20.5t60 37.5t27.5 57.5q3 35 -17.5 58.5t-68 37.5t-126 19.5t-190.5 5.5z" />
    <glyph glyph-name="uni1EB3" unicode="&#x1eb3;" horiz-adv-x="1331" 
d="M405 -12q78 0 146.5 13t124.5 34.5t96 47.5t61 53l5 -136h280l131 740q30 166 -21 266.5t-174 145.5t-311 45q-104 0 -200 -17.5t-178.5 -55.5t-145.5 -101.5t-101 -155.5l313 -91q27 73 71 116t98 61.5t112 18.5q75 0 124.5 -20.5t70 -67.5t7.5 -127l-8 -45h-375
q-70 0 -141 -9.5t-135 -33.5t-115.5 -65.5t-84.5 -106.5t-41 -157q-15 -137 26.5 -213.5t134.5 -107.5t230 -31zM516 203q-56 0 -94 13t-55 48t-10 101q6 52 24.5 84.5t48 50t67.5 24t82 6.5h290l-37 -212q-26 -30 -74 -56.5t-110.5 -42.5t-131.5 -16zM771 1246q80 0 141 27
t99 71.5t47 97.5h-158q-5 -26 -17 -45.5t-34.5 -29.5t-57.5 -10q-31 0 -50 10t-26 29t-3 46h-158q-9 -53 13.5 -97.5t74.5 -71.5t129 -27zM724 1799l-19 -101q99 0 156.5 -2t81 -8.5t21.5 -19.5q-1 -12 -25 -19.5t-65.5 -10t-98.5 -2.5l-24 -137h118l11 57q39 0 80.5 6.5
t78 20.5t60 37.5t27.5 57.5q3 35 -17.5 58.5t-68 37.5t-126 19.5t-190.5 5.5z" />
    <glyph glyph-name="uni1EB4" unicode="&#x1eb4;" horiz-adv-x="1459" 
d="M-48 0h350l150 329h459l34 -329h350l-193 1352h-482zM547 553l279 600h3l67 -600h-349zM881 1410q80 0 141 27t99 71.5t47 97.5h-158q-5 -26 -17 -45.5t-34.5 -29.5t-57.5 -10q-31 0 -50 10t-26 29t-3 46h-158q-9 -53 13.5 -97.5t74.5 -71.5t129 -27zM1056 1670
q70 0 117 23t75.5 57.5t43 68.5t19.5 55h-162q-3 -13 -14.5 -30.5t-30.5 -29.5t-45 -12q-30 0 -52 12t-44 28.5t-51 28.5t-73 12q-71 0 -119.5 -22.5t-77 -56t-43 -67t-20.5 -55.5h164q4 13 13.5 30.5t29 29.5t48.5 12q28 0 49 -13t44 -29.5t53 -29t76 -12.5z" />
    <glyph glyph-name="uni1EB5" unicode="&#x1eb5;" horiz-adv-x="1331" 
d="M405 -12q78 0 146.5 13t124.5 34.5t96 47.5t61 53l5 -136h280l131 740q30 166 -21 266.5t-174 145.5t-311 45q-104 0 -200 -17.5t-178.5 -55.5t-145.5 -101.5t-101 -155.5l313 -91q27 73 71 116t98 61.5t112 18.5q75 0 124.5 -20.5t70 -67.5t7.5 -127l-8 -45h-375
q-70 0 -141 -9.5t-135 -33.5t-115.5 -65.5t-84.5 -106.5t-41 -157q-15 -137 26.5 -213.5t134.5 -107.5t230 -31zM516 203q-56 0 -94 13t-55 48t-10 101q6 52 24.5 84.5t48 50t67.5 24t82 6.5h290l-37 -212q-26 -30 -74 -56.5t-110.5 -42.5t-131.5 -16zM771 1246q80 0 141 27
t99 71.5t47 97.5h-158q-5 -26 -17 -45.5t-34.5 -29.5t-57.5 -10q-31 0 -50 10t-26 29t-3 46h-158q-9 -53 13.5 -97.5t74.5 -71.5t129 -27zM947 1506q70 0 117 23t75.5 57.5t43 68.5t19.5 55h-162q-3 -13 -14.5 -30.5t-30.5 -29.5t-45 -12q-30 0 -52 12t-44 28.5t-51 28.5
t-73 12q-71 0 -119.5 -22.5t-77 -56t-43 -67t-20.5 -55.5h164q4 13 13.5 30.5t29 29.5t48.5 12q28 0 49 -13t44 -29.5t53 -29t76 -12.5z" />
    <glyph glyph-name="uni1EB6" unicode="&#x1eb6;" horiz-adv-x="1459" 
d="M-48 0h350l150 329h459l34 -329h350l-193 1352h-482zM547 553l279 600h3l67 -600h-349zM589 -287q41 0 70 29t29 70t-29 69.5t-69 28.5q-41 0 -70 -28.5t-29 -69.5t28.5 -70t69.5 -29zM881 1410q80 0 141 27t99 71.5t47 97.5h-158q-5 -26 -17 -45.5t-34.5 -29.5
t-57.5 -10q-31 0 -50 10t-26 29t-3 46h-158q-9 -53 13.5 -97.5t74.5 -71.5t129 -27z" />
    <glyph glyph-name="uni1EB7" unicode="&#x1eb7;" horiz-adv-x="1331" 
d="M405 -12q78 0 146.5 13t124.5 34.5t96 47.5t61 53l5 -136h280l131 740q30 166 -21 266.5t-174 145.5t-311 45q-104 0 -200 -17.5t-178.5 -55.5t-145.5 -101.5t-101 -155.5l313 -91q27 73 71 116t98 61.5t112 18.5q75 0 124.5 -20.5t70 -67.5t7.5 -127l-8 -45h-375
q-70 0 -141 -9.5t-135 -33.5t-115.5 -65.5t-84.5 -106.5t-41 -157q-15 -137 26.5 -213.5t134.5 -107.5t230 -31zM516 203q-56 0 -94 13t-55 48t-10 101q6 52 24.5 84.5t48 50t67.5 24t82 6.5h290l-37 -212q-26 -30 -74 -56.5t-110.5 -42.5t-131.5 -16zM518 -320q41 0 70 29
t29 70t-29 69.5t-69 28.5q-41 0 -70 -28.5t-29 -69.5t28.5 -70t69.5 -29zM771 1246q80 0 141 27t99 71.5t47 97.5h-158q-5 -26 -17 -45.5t-34.5 -29.5t-57.5 -10q-31 0 -50 10t-26 29t-3 46h-158q-9 -53 13.5 -97.5t74.5 -71.5t129 -27z" />
    <glyph glyph-name="uni1EB8" unicode="&#x1eb8;" horiz-adv-x="1154" 
d="M-36 0h987l40 231h-645l60 343h600l39 220h-600l57 325h645l42 231h-987zM426 -287q41 0 70 29t29 70t-29 69.5t-69 28.5q-41 0 -70 -28.5t-29 -69.5t28.5 -70t69.5 -29z" />
    <glyph glyph-name="uni1EB9" unicode="&#x1eb9;" horiz-adv-x="1332" 
d="M559 -11l39 217q-128 0 -189 80q-62 79 -22 307q40 233 130 311q91 77 212 77q124 0 182 -71q39 -61 23 -213h-559l-36 -203h895q14 45 23 100q49 281 -51 443q-102 161 -439 161q-327 0 -492 -160q-164 -158 -214 -444q-47 -280 58 -443q105 -162 440 -162zM598 206
l-39 -217q179 0 289 35q109 34 196 106q85 71 128 188l-286 85q-32 -63 -69 -111q-39 -46 -90 -67q-54 -19 -129 -19zM510 -320q41 0 70 29t29 70t-29 69.5t-69 28.5q-41 0 -70 -28.5t-29 -69.5t28.5 -70t69.5 -29z" />
    <glyph glyph-name="uni1EBA" unicode="&#x1eba;" horiz-adv-x="1154" 
d="M-36 0h987l40 231h-645l60 343h600l39 220h-600l57 325h645l42 231h-987zM619 1707l-19 -101q99 0 156.5 -2t81 -8.5t21.5 -19.5q-1 -12 -25 -19.5t-65.5 -10t-98.5 -2.5l-24 -137h118l11 57q39 0 80.5 6.5t78 20.5t60 37.5t27.5 57.5q3 35 -17.5 58.5t-68 37.5
t-126 19.5t-190.5 5.5z" />
    <glyph glyph-name="uni1EBB" unicode="&#x1ebb;" horiz-adv-x="1332" 
d="M559 -11l39 217q-128 0 -189 80q-62 79 -22 307q40 233 130 311q91 77 212 77q124 0 182 -71q39 -61 23 -213h-559l-36 -203h895q14 45 23 100q49 281 -51 443q-102 161 -439 161q-327 0 -492 -160q-164 -158 -214 -444q-47 -280 58 -443q105 -162 440 -162zM598 206
l-39 -217q179 0 289 35q109 34 196 106q85 71 128 188l-286 85q-32 -63 -69 -111q-39 -46 -90 -67q-54 -19 -129 -19zM687 1543l-19 -101q99 0 156.5 -2t81 -8.5t21.5 -19.5q-1 -12 -25 -19.5t-65.5 -10t-98.5 -2.5l-24 -137h118l11 57q39 0 80.5 6.5t78 20.5t60 37.5
t27.5 57.5q3 35 -17.5 58.5t-68 37.5t-126 19.5t-190.5 5.5z" />
    <glyph glyph-name="uni1EBC" unicode="&#x1ebc;" horiz-adv-x="1154" 
d="M-36 0h987l40 231h-645l60 343h600l39 220h-600l57 325h645l42 231h-987zM835 1414q70 0 117 23t75.5 57.5t43 68.5t19.5 55h-162q-3 -13 -14.5 -30.5t-30.5 -29.5t-45 -12q-30 0 -52 12t-44 28.5t-51 28.5t-73 12q-71 0 -119.5 -22.5t-77 -56t-43 -67t-20.5 -55.5h164
q4 13 13.5 30.5t29 29.5t48.5 12q28 0 49 -13t44 -29.5t53 -29t76 -12.5z" />
    <glyph glyph-name="uni1EBD" unicode="&#x1ebd;" horiz-adv-x="1332" 
d="M559 -11l39 217q-128 0 -189 80q-62 79 -22 307q40 233 130 311q91 77 212 77q124 0 182 -71q39 -61 23 -213h-559l-36 -203h895q14 45 23 100q49 281 -51 443q-102 161 -439 161q-327 0 -492 -160q-164 -158 -214 -444q-47 -280 58 -443q105 -162 440 -162zM598 206
l-39 -217q179 0 289 35q109 34 196 106q85 71 128 188l-286 85q-32 -63 -69 -111q-39 -46 -90 -67q-54 -19 -129 -19zM909 1250q70 0 117 23t75.5 57.5t43 68.5t19.5 55h-162q-3 -13 -14.5 -30.5t-30.5 -29.5t-45 -12q-30 0 -52 12t-44 28.5t-51 28.5t-73 12
q-71 0 -119.5 -22.5t-77 -56t-43 -67t-20.5 -55.5h164q4 13 13.5 30.5t29 29.5t48.5 12q28 0 49 -13t44 -29.5t53 -29t76 -12.5z" />
    <glyph glyph-name="uni1EBE" unicode="&#x1ebe;" horiz-adv-x="1154" 
d="M-36 0h987l40 231h-645l60 343h600l39 220h-600l57 325h645l42 231h-987zM379 1413h194l157 139l109 -139h194l-185 207h-214zM909 1580h159l272 209h-233z" />
    <glyph glyph-name="uni1EBF" unicode="&#x1ebf;" horiz-adv-x="1332" 
d="M559 -11l39 217q-128 0 -189 80q-62 79 -22 307q40 233 130 311q91 77 212 77q124 0 182 -71q39 -61 23 -213h-559l-36 -203h895q14 45 23 100q49 281 -51 443q-102 161 -439 161q-327 0 -492 -160q-164 -158 -214 -444q-47 -280 58 -443q105 -162 440 -162zM598 206
l-39 -217q179 0 289 35q109 34 196 106q85 71 128 188l-286 85q-32 -63 -69 -111q-39 -46 -90 -67q-54 -19 -129 -19zM453 1249h194l157 139l109 -139h194l-185 207h-214zM983 1416h159l272 209h-233z" />
    <glyph glyph-name="uni1EC0" unicode="&#x1ec0;" horiz-adv-x="1154" 
d="M-36 0h987l40 231h-645l60 343h600l39 220h-600l57 325h645l42 231h-987zM380 1411h194l157 139l109 -139h194l-185 207h-214zM987 1580h151l-126 209h-224z" />
    <glyph glyph-name="uni1EC1" unicode="&#x1ec1;" horiz-adv-x="1332" 
d="M559 -11l39 217q-128 0 -189 80q-62 79 -22 307q40 233 130 311q91 77 212 77q124 0 182 -71q39 -61 23 -213h-559l-36 -203h895q14 45 23 100q49 281 -51 443q-102 161 -439 161q-327 0 -492 -160q-164 -158 -214 -444q-47 -280 58 -443q105 -162 440 -162zM598 206
l-39 -217q179 0 289 35q109 34 196 106q85 71 128 188l-286 85q-32 -63 -69 -111q-39 -46 -90 -67q-54 -19 -129 -19zM454 1247h194l157 139l109 -139h194l-185 207h-214zM1061 1416h151l-126 209h-224z" />
    <glyph glyph-name="uni1EC2" unicode="&#x1ec2;" horiz-adv-x="1154" 
d="M-36 0h987l40 231h-645l60 343h600l39 220h-600l57 325h645l42 231h-987zM376 1402h194l157 139l109 -139h194l-185 207h-214zM658 1966l-19 -101q99 0 156.5 -2t81 -8.5t21.5 -19.5q-1 -12 -25 -19.5t-65.5 -10t-98.5 -2.5l-24 -137h118l11 57q39 0 80.5 6.5t78 20.5
t60 37.5t27.5 57.5q3 35 -17.5 58.5t-68 37.5t-126 19.5t-190.5 5.5z" />
    <glyph glyph-name="uni1EC3" unicode="&#x1ec3;" horiz-adv-x="1332" 
d="M559 -11l39 217q-128 0 -189 80q-62 79 -22 307q40 233 130 311q91 77 212 77q124 0 182 -71q39 -61 23 -213h-559l-36 -203h895q14 45 23 100q49 281 -51 443q-102 161 -439 161q-327 0 -492 -160q-164 -158 -214 -444q-47 -280 58 -443q105 -162 440 -162zM598 206
l-39 -217q179 0 289 35q109 34 196 106q85 71 128 188l-286 85q-32 -63 -69 -111q-39 -46 -90 -67q-54 -19 -129 -19zM450 1238h194l157 139l109 -139h194l-185 207h-214zM732 1802l-19 -101q99 0 156.5 -2t81 -8.5t21.5 -19.5q-1 -12 -25 -19.5t-65.5 -10t-98.5 -2.5
l-24 -137h118l11 57q39 0 80.5 6.5t78 20.5t60 37.5t27.5 57.5q3 35 -17.5 58.5t-68 37.5t-126 19.5t-190.5 5.5z" />
    <glyph glyph-name="uni1EC4" unicode="&#x1ec4;" horiz-adv-x="1154" 
d="M-36 0h987l40 231h-645l60 343h600l39 220h-600l57 325h645l42 231h-987zM376 1402h194l157 139l109 -139h194l-185 207h-214zM880 1673q70 0 117 23t75.5 57.5t43 68.5t19.5 55h-162q-3 -13 -14.5 -30.5t-30.5 -29.5t-45 -12q-30 0 -52 12t-44 28.5t-51 28.5t-73 12
q-71 0 -119.5 -22.5t-77 -56t-43 -67t-20.5 -55.5h164q4 13 13.5 30.5t29 29.5t48.5 12q28 0 49 -13t44 -29.5t53 -29t76 -12.5z" />
    <glyph glyph-name="uni1EC5" unicode="&#x1ec5;" horiz-adv-x="1332" 
d="M559 -11l39 217q-128 0 -189 80q-62 79 -22 307q40 233 130 311q91 77 212 77q124 0 182 -71q39 -61 23 -213h-559l-36 -203h895q14 45 23 100q49 281 -51 443q-102 161 -439 161q-327 0 -492 -160q-164 -158 -214 -444q-47 -280 58 -443q105 -162 440 -162zM598 206
l-39 -217q179 0 289 35q109 34 196 106q85 71 128 188l-286 85q-32 -63 -69 -111q-39 -46 -90 -67q-54 -19 -129 -19zM450 1238h194l157 139l109 -139h194l-185 207h-214zM954 1509q70 0 117 23t75.5 57.5t43 68.5t19.5 55h-162q-3 -13 -14.5 -30.5t-30.5 -29.5t-45 -12
q-30 0 -52 12t-44 28.5t-51 28.5t-73 12q-71 0 -119.5 -22.5t-77 -56t-43 -67t-20.5 -55.5h164q4 13 13.5 30.5t29 29.5t48.5 12q28 0 49 -13t44 -29.5t53 -29t76 -12.5z" />
    <glyph glyph-name="uni1EC6" unicode="&#x1ec6;" horiz-adv-x="1154" 
d="M-36 0h987l40 231h-645l60 343h600l39 220h-600l57 325h645l42 231h-987zM426 -287q41 0 70 29t29 70t-29 69.5t-69 28.5q-41 0 -70 -28.5t-29 -69.5t28.5 -70t69.5 -29zM376 1402h194l157 139l109 -139h194l-185 207h-214z" />
    <glyph glyph-name="uni1EC7" unicode="&#x1ec7;" horiz-adv-x="1332" 
d="M559 -11l39 217q-128 0 -189 80q-62 79 -22 307q40 233 130 311q91 77 212 77q124 0 182 -71q39 -61 23 -213h-559l-36 -203h895q14 45 23 100q49 281 -51 443q-102 161 -439 161q-327 0 -492 -160q-164 -158 -214 -444q-47 -280 58 -443q105 -162 440 -162zM598 206
l-39 -217q179 0 289 35q109 34 196 106q85 71 128 188l-286 85q-32 -63 -69 -111q-39 -46 -90 -67q-54 -19 -129 -19zM510 -320q41 0 70 29t29 70t-29 69.5t-69 28.5q-41 0 -70 -28.5t-29 -69.5t28.5 -70t69.5 -29zM450 1238h194l157 139l109 -139h194l-185 207h-214z" />
    <glyph glyph-name="uni1EC8" unicode="&#x1ec8;" horiz-adv-x="619" 
d="M20 0h339l238 1350h-338zM367 1707l-19 -101q99 0 156.5 -2t81 -8.5t21.5 -19.5q-1 -12 -25 -19.5t-65.5 -10t-98.5 -2.5l-24 -137h118l11 57q39 0 80.5 6.5t78 20.5t60 37.5t27.5 57.5q3 35 -17.5 58.5t-68 37.5t-126 19.5t-190.5 5.5z" />
    <glyph glyph-name="uni1EC9" unicode="&#x1ec9;" horiz-adv-x="558" 
d="M-18 0h338l209 1185h-338zM280 1543l-19 -101q99 0 156.5 -2t81 -8.5t21.5 -19.5q-1 -12 -25 -19.5t-65.5 -10t-98.5 -2.5l-24 -137h118l11 57q39 0 80.5 6.5t78 20.5t60 37.5t27.5 57.5q3 35 -17.5 58.5t-68 37.5t-126 19.5t-190.5 5.5z" />
    <glyph glyph-name="uni1ECA" unicode="&#x1eca;" horiz-adv-x="619" 
d="M20 0h339l238 1350h-338zM163 -287q41 0 70 29t29 70t-29 69.5t-69 28.5q-41 0 -70 -28.5t-29 -69.5t28.5 -70t69.5 -29z" />
    <glyph glyph-name="uni1ECB" unicode="&#x1ecb;" horiz-adv-x="582" 
d="M13 0h336l209 1186h-337zM284 1542l-41 -235h336l42 235h-337zM160 -320q41 0 70 29t29 70t-29 69.5t-69 28.5q-41 0 -70 -28.5t-29 -69.5t28.5 -70t69.5 -29z" />
    <glyph glyph-name="uni1ECC" unicode="&#x1ecc;" horiz-adv-x="1411" 
d="M587 -11q359 0 536 173t229 513q51 340 -57 513.5t-466 173.5q-359 0 -536.5 -173t-229.5 -514q-51 -339 57 -512.5t467 -173.5zM628 220q-139 0 -206 78.5t-20 376.5q49 303 148 379.5t238 76.5q138 0 205.5 -76.5t19.5 -379.5q-48 -299 -147.5 -377t-237.5 -78z
M557 -287q41 0 70 29t29 70t-29 69.5t-69 28.5q-41 0 -70 -28.5t-29 -69.5t28.5 -70t69.5 -29z" />
    <glyph glyph-name="uni1ECD" unicode="&#x1ecd;" horiz-adv-x="1337" 
d="M552 -9q324 0 492.5 156.5t212.5 449.5q43 290 -66 446t-434 156t-493.5 -154t-212.5 -448q-43 -289 66 -447.5t435 -158.5zM588 219q-116 0 -175.5 75t-25.5 302q35 225 126 300t207 75q117 0 176.5 -74.5t24.5 -300.5q-35 -225 -126 -301t-207 -76zM528 -320
q41 0 70 29t29 70t-29 69.5t-69 28.5q-41 0 -70 -28.5t-29 -69.5t28.5 -70t69.5 -29z" />
    <glyph glyph-name="uni1ECE" unicode="&#x1ece;" horiz-adv-x="1411" 
d="M587 -11q359 0 536 173t229 513q51 340 -57 513.5t-466 173.5q-359 0 -536.5 -173t-229.5 -514q-51 -339 57 -512.5t467 -173.5zM628 220q-139 0 -206 78.5t-20 376.5q49 303 148 379.5t238 76.5q138 0 205.5 -76.5t19.5 -379.5q-48 -299 -147.5 -377t-237.5 -78z
M750 1707l-19 -101q99 0 156.5 -2t81 -8.5t21.5 -19.5q-1 -12 -25 -19.5t-65.5 -10t-98.5 -2.5l-24 -137h118l11 57q39 0 80.5 6.5t78 20.5t60 37.5t27.5 57.5q3 35 -17.5 58.5t-68 37.5t-126 19.5t-190.5 5.5z" />
    <glyph glyph-name="uni1ECF" unicode="&#x1ecf;" horiz-adv-x="1337" 
d="M552 -9q324 0 492.5 156.5t212.5 449.5q43 290 -66 446t-434 156t-493.5 -154t-212.5 -448q-43 -289 66 -447.5t435 -158.5zM588 219q-116 0 -175.5 75t-25.5 302q35 225 126 300t207 75q117 0 176.5 -74.5t24.5 -300.5q-35 -225 -126 -301t-207 -76zM676 1543l-19 -101
q99 0 156.5 -2t81 -8.5t21.5 -19.5q-1 -12 -25 -19.5t-65.5 -10t-98.5 -2.5l-24 -137h118l11 57q39 0 80.5 6.5t78 20.5t60 37.5t27.5 57.5q3 35 -17.5 58.5t-68 37.5t-126 19.5t-190.5 5.5z" />
    <glyph glyph-name="uni1ED0" unicode="&#x1ed0;" horiz-adv-x="1411" 
d="M587 -11q359 0 536 173t229 513q51 340 -57 513.5t-466 173.5q-359 0 -536.5 -173t-229.5 -514q-51 -339 57 -512.5t467 -173.5zM628 220q-139 0 -206 78.5t-20 376.5q49 303 148 379.5t238 76.5q138 0 205.5 -76.5t19.5 -379.5q-48 -299 -147.5 -377t-237.5 -78z
M510 1413h194l157 139l109 -139h194l-185 207h-214zM1040 1580h159l272 209h-233z" />
    <glyph glyph-name="uni1ED1" unicode="&#x1ed1;" horiz-adv-x="1337" 
d="M552 -9q324 0 492.5 156.5t212.5 449.5q43 290 -66 446t-434 156t-493.5 -154t-212.5 -448q-43 -289 66 -447.5t435 -158.5zM588 219q-116 0 -175.5 75t-25.5 302q35 225 126 300t207 75q117 0 176.5 -74.5t24.5 -300.5q-35 -225 -126 -301t-207 -76zM443 1249h194
l157 139l109 -139h194l-185 207h-214zM971 1416h159l272 209h-233z" />
    <glyph glyph-name="uni1ED2" unicode="&#x1ed2;" horiz-adv-x="1411" 
d="M587 -11q359 0 536 173t229 513q51 340 -57 513.5t-466 173.5q-359 0 -536.5 -173t-229.5 -514q-51 -339 57 -512.5t467 -173.5zM628 220q-139 0 -206 78.5t-20 376.5q49 303 148 379.5t238 76.5q138 0 205.5 -76.5t19.5 -379.5q-48 -299 -147.5 -377t-237.5 -78z
M511 1411h194l157 139l109 -139h194l-185 207h-214zM1119 1580h151l-126 209h-224z" />
    <glyph glyph-name="uni1ED3" unicode="&#x1ed3;" horiz-adv-x="1337" 
d="M552 -9q324 0 492.5 156.5t212.5 449.5q43 290 -66 446t-434 156t-493.5 -154t-212.5 -448q-43 -289 66 -447.5t435 -158.5zM588 219q-116 0 -175.5 75t-25.5 302q35 225 126 300t207 75q117 0 176.5 -74.5t24.5 -300.5q-35 -225 -126 -301t-207 -76zM442 1247h194
l157 139l109 -139h194l-185 207h-214zM1051 1416h151l-126 209h-224z" />
    <glyph glyph-name="uni1ED4" unicode="&#x1ed4;" horiz-adv-x="1411" 
d="M587 -11q359 0 536 173t229 513q51 340 -57 513.5t-466 173.5q-359 0 -536.5 -173t-229.5 -514q-51 -339 57 -512.5t467 -173.5zM628 220q-139 0 -206 78.5t-20 376.5q49 303 148 379.5t238 76.5q138 0 205.5 -76.5t19.5 -379.5q-48 -299 -147.5 -377t-237.5 -78z
M507 1402h194l157 139l109 -139h194l-185 207h-214zM789 1966l-19 -101q99 0 156.5 -2t81 -8.5t21.5 -19.5q-1 -12 -25 -19.5t-65.5 -10t-98.5 -2.5l-24 -137h118l11 57q39 0 80.5 6.5t78 20.5t60 37.5t27.5 57.5q3 35 -17.5 58.5t-68 37.5t-126 19.5t-190.5 5.5z" />
    <glyph glyph-name="uni1ED5" unicode="&#x1ed5;" horiz-adv-x="1337" 
d="M552 -9q324 0 492.5 156.5t212.5 449.5q43 290 -66 446t-434 156t-493.5 -154t-212.5 -448q-43 -289 66 -447.5t435 -158.5zM588 219q-116 0 -175.5 75t-25.5 302q35 225 126 300t207 75q117 0 176.5 -74.5t24.5 -300.5q-35 -225 -126 -301t-207 -76zM440 1238h194
l157 139l109 -139h194l-185 207h-214zM720 1802l-19 -101q99 0 156.5 -2t81 -8.5t21.5 -19.5q-1 -12 -25 -19.5t-65.5 -10t-98.5 -2.5l-24 -137h118l11 57q39 0 80.5 6.5t78 20.5t60 37.5t27.5 57.5q3 35 -17.5 58.5t-68 37.5t-126 19.5t-190.5 5.5z" />
    <glyph glyph-name="uni1ED6" unicode="&#x1ed6;" horiz-adv-x="1411" 
d="M587 -11q359 0 536 173t229 513q51 340 -57 513.5t-466 173.5q-359 0 -536.5 -173t-229.5 -514q-51 -339 57 -512.5t467 -173.5zM628 220q-139 0 -206 78.5t-20 376.5q49 303 148 379.5t238 76.5q138 0 205.5 -76.5t19.5 -379.5q-48 -299 -147.5 -377t-237.5 -78z
M507 1402h194l157 139l109 -139h194l-185 207h-214zM1011 1673q70 0 117 23t75.5 57.5t43 68.5t19.5 55h-162q-3 -13 -14.5 -30.5t-30.5 -29.5t-45 -12q-30 0 -52 12t-44 28.5t-51 28.5t-73 12q-71 0 -119.5 -22.5t-77 -56t-43 -67t-20.5 -55.5h164q4 13 13.5 30.5t29 29.5
t48.5 12q28 0 49 -13t44 -29.5t53 -29t76 -12.5z" />
    <glyph glyph-name="uni1ED7" unicode="&#x1ed7;" horiz-adv-x="1337" 
d="M552 -9q324 0 492.5 156.5t212.5 449.5q43 290 -66 446t-434 156t-493.5 -154t-212.5 -448q-43 -289 66 -447.5t435 -158.5zM588 219q-116 0 -175.5 75t-25.5 302q35 225 126 300t207 75q117 0 176.5 -74.5t24.5 -300.5q-35 -225 -126 -301t-207 -76zM440 1238h194
l157 139l109 -139h194l-185 207h-214zM943 1509q70 0 117 23t75.5 57.5t43 68.5t19.5 55h-162q-3 -13 -14.5 -30.5t-30.5 -29.5t-45 -12q-30 0 -52 12t-44 28.5t-51 28.5t-73 12q-71 0 -119.5 -22.5t-77 -56t-43 -67t-20.5 -55.5h164q4 13 13.5 30.5t29 29.5t48.5 12
q28 0 49 -13t44 -29.5t53 -29t76 -12.5z" />
    <glyph glyph-name="uni1ED8" unicode="&#x1ed8;" horiz-adv-x="1411" 
d="M587 -11q359 0 536 173t229 513q51 340 -57 513.5t-466 173.5q-359 0 -536.5 -173t-229.5 -514q-51 -339 57 -512.5t467 -173.5zM628 220q-139 0 -206 78.5t-20 376.5q49 303 148 379.5t238 76.5q138 0 205.5 -76.5t19.5 -379.5q-48 -299 -147.5 -377t-237.5 -78z
M557 -287q41 0 70 29t29 70t-29 69.5t-69 28.5q-41 0 -70 -28.5t-29 -69.5t28.5 -70t69.5 -29zM507 1402h194l157 139l109 -139h194l-185 207h-214z" />
    <glyph glyph-name="uni1ED9" unicode="&#x1ed9;" horiz-adv-x="1337" 
d="M552 -9q324 0 492.5 156.5t212.5 449.5q43 290 -66 446t-434 156t-493.5 -154t-212.5 -448q-43 -289 66 -447.5t435 -158.5zM588 219q-116 0 -175.5 75t-25.5 302q35 225 126 300t207 75q117 0 176.5 -74.5t24.5 -300.5q-35 -225 -126 -301t-207 -76zM528 -320
q41 0 70 29t29 70t-29 69.5t-69 28.5q-41 0 -70 -28.5t-29 -69.5t28.5 -70t69.5 -29zM440 1238h194l157 139l109 -139h194l-185 207h-214z" />
    <glyph glyph-name="uni1EDA" unicode="&#x1eda;" horiz-adv-x="1411" 
d="M587 -11q359 0 536 173t229 513q51 340 -57 513.5t-466 173.5q-359 0 -536.5 -173t-229.5 -514q-51 -339 57 -512.5t467 -173.5zM628 220q-139 0 -206 78.5t-20 376.5q49 303 148 379.5t238 76.5q138 0 205.5 -76.5t19.5 -379.5q-48 -299 -147.5 -377t-237.5 -78z
M1246 1210l-18 -110q133 0 233 31.5t161.5 94.5t78.5 159h-192q-11 -63 -41 -101.5t-83.5 -56t-138.5 -17.5zM636 1392h159l272 209h-233z" />
    <glyph glyph-name="uni1EDB" unicode="&#x1edb;" horiz-adv-x="1337" 
d="M552 -9q324 0 492.5 156.5t212.5 449.5q43 290 -66 446t-434 156t-493.5 -154t-212.5 -448q-43 -289 66 -447.5t435 -158.5zM588 219q-116 0 -175.5 75t-25.5 302q35 225 126 300t207 75q117 0 176.5 -74.5t24.5 -300.5q-35 -225 -126 -301t-207 -76zM1141 1061l-18 -110
q133 0 233 31.5t161.5 94.5t78.5 159h-192q-11 -63 -41 -101.5t-83.5 -56t-138.5 -17.5zM567 1228h159l272 209h-233z" />
    <glyph glyph-name="uni1EDC" unicode="&#x1edc;" horiz-adv-x="1411" 
d="M587 -11q359 0 536 173t229 513q51 340 -57 513.5t-466 173.5q-359 0 -536.5 -173t-229.5 -514q-51 -339 57 -512.5t467 -173.5zM628 220q-139 0 -206 78.5t-20 376.5q49 303 148 379.5t238 76.5q138 0 205.5 -76.5t19.5 -379.5q-48 -299 -147.5 -377t-237.5 -78z
M1246 1210l-18 -110q133 0 233 31.5t161.5 94.5t78.5 159h-192q-11 -63 -41 -101.5t-83.5 -56t-138.5 -17.5zM881 1404h151l-126 209h-224z" />
    <glyph glyph-name="uni1EDD" unicode="&#x1edd;" horiz-adv-x="1337" 
d="M552 -9q324 0 492.5 156.5t212.5 449.5q43 290 -66 446t-434 156t-493.5 -154t-212.5 -448q-43 -289 66 -447.5t435 -158.5zM588 219q-116 0 -175.5 75t-25.5 302q35 225 126 300t207 75q117 0 176.5 -74.5t24.5 -300.5q-35 -225 -126 -301t-207 -76zM1141 1061l-18 -110
q133 0 233 31.5t161.5 94.5t78.5 159h-192q-11 -63 -41 -101.5t-83.5 -56t-138.5 -17.5zM808 1233h151l-126 209h-224z" />
    <glyph glyph-name="uni1EDE" unicode="&#x1ede;" horiz-adv-x="1411" 
d="M587 -11q359 0 536 173t229 513q51 340 -57 513.5t-466 173.5q-359 0 -536.5 -173t-229.5 -514q-51 -339 57 -512.5t467 -173.5zM628 220q-139 0 -206 78.5t-20 376.5q49 303 148 379.5t238 76.5q138 0 205.5 -76.5t19.5 -379.5q-48 -299 -147.5 -377t-237.5 -78z
M1246 1210l-18 -110q133 0 233 31.5t161.5 94.5t78.5 159h-192q-11 -63 -41 -101.5t-83.5 -56t-138.5 -17.5zM750 1707l-19 -101q99 0 156.5 -2t81 -8.5t21.5 -19.5q-1 -12 -25 -19.5t-65.5 -10t-98.5 -2.5l-24 -137h118l11 57q39 0 80.5 6.5t78 20.5t60 37.5t27.5 57.5
q3 35 -17.5 58.5t-68 37.5t-126 19.5t-190.5 5.5z" />
    </font>
</defs>
</svg>
