<?xml version="1.0" standalone="no"?>
<!DOCTYPE svg PUBLIC "-//W3C//DTD SVG 1.1//EN" "http://www.w3.org/Graphics/SVG/1.1/DTD/svg11.dtd" >
<svg xmlns="http://www.w3.org/2000/svg" xmlns:xlink="http://www.w3.org/1999/xlink" version="1.1">
<metadata>
Created by FontForge 20201107 at Wed Mar  8 16:58:28 2023
 By 
Copyright 2020 The Anybody Project Authors (https://github.com/Etcetera-Type-Co/Anybody)
</metadata>
<defs>
<font id="Anybody-MediumItalic" horiz-adv-x="0" >
  <font-face 
    font-family="Anybody Medium"
    font-weight="500"
    font-style="italic"
    font-stretch="normal"
    units-per-em="2000"
    panose-1="0 0 0 0 0 0 0 0 0 0"
    ascent="1600"
    descent="-400"
    x-height="1185"
    cap-height="1350"
    bbox="-423 -518 2658 1917"
    underline-thickness="91"
    underline-position="-254"
    slope="-10"
    unicode-range="U+000D-FB02"
  />
<missing-glyph horiz-adv-x="587" 
d="M28 146h348l184 1042h-348zM144 226l200 172l-16 20l-200 -172zM296 228l22 18l-140 172l-22 -18zM204 564l200 172l-16 20l-200 -172zM356 566l22 18l-140 172l-22 -18zM58 172l176 990h296l-176 -990h-296zM264 902l200 172l-16 20l-202 -172zM416 904l20 18l-138 172
l-22 -18z" />
    <glyph glyph-name="fi" unicode="fi" horiz-adv-x="1437" 
d="M164 0h241l180 1018h332l30 167h-333l12 64q18 102 103.5 135t238.5 33h32l27 161h-36q-255 0 -414.5 -73.5t-191.5 -254.5l-13 -65h-242l-29 -167h243zM947 0h242l208 1186h-242zM1215 1519l-35 -195h241l35 195h-241z" />
    <glyph glyph-name="fl" unicode="fl" horiz-adv-x="1422" 
d="M164 0h241l180 1018h332l30 167h-333l12 64q18 102 103.5 135t238.5 33h32l27 161h-36q-255 0 -414.5 -73.5t-191.5 -254.5l-13 -65h-242l-29 -167h243zM933 0h242l277 1570h-242z" />
    <glyph glyph-name="f_f" unicode="ff" horiz-adv-x="1838" 
d="M164 0h241l180 1018h332l30 167h-333l12 64q18 102 103.5 135t238.5 33h32l27 161h-36q-255 0 -414.5 -73.5t-191.5 -254.5l-13 -65h-242l-29 -167h243zM1058 0h241l180 1018h332l30 167h-333l12 64q18 102 103.5 135t238.5 33h32l27 161h-36q-255 0 -414.5 -73.5
t-191.5 -254.5l-13 -65h-242l-29 -167h243z" />
    <glyph glyph-name="f_f_i" unicode="ffi" horiz-adv-x="2331" 
d="M164 0h241l180 1018h332l30 167h-333l12 64q18 102 103.5 135t238.5 33h32l27 161h-36q-255 0 -414.5 -73.5t-191.5 -254.5l-13 -65h-242l-29 -167h243zM1058 0h241l180 1018h332l30 167h-333l12 64q18 102 103.5 135t238.5 33h32l27 161h-36q-255 0 -414.5 -73.5
t-191.5 -254.5l-13 -65h-242l-29 -167h243zM1841 0h242l208 1186h-242zM2109 1519l-35 -195h241l35 195h-241z" />
    <glyph glyph-name="f_f_l" unicode="ffl" horiz-adv-x="2316" 
d="M164 0h241l180 1018h332l30 167h-333l12 64q18 102 103.5 135t238.5 33h32l27 161h-36q-255 0 -414.5 -73.5t-191.5 -254.5l-13 -65h-242l-29 -167h243zM1058 0h241l180 1018h332l30 167h-333l12 64q18 102 103.5 135t238.5 33h32l27 161h-36q-255 0 -414.5 -73.5
t-191.5 -254.5l-13 -65h-242l-29 -167h243zM1827 0h242l277 1570h-242z" />
    <glyph glyph-name=".notdef" horiz-adv-x="587" 
d="M28 146h348l184 1042h-348zM144 226l200 172l-16 20l-200 -172zM296 228l22 18l-140 172l-22 -18zM204 564l200 172l-16 20l-200 -172zM356 566l22 18l-140 172l-22 -18zM58 172l176 990h296l-176 -990h-296zM264 902l200 172l-16 20l-202 -172zM416 904l20 18l-138 172
l-22 -18z" />
    <glyph glyph-name=".null" 
 />
    <glyph glyph-name="nonmarkingreturn" horiz-adv-x="666" 
 />
    <glyph glyph-name="CR" unicode="&#xd;" horiz-adv-x="404" 
 />
    <glyph glyph-name="space" unicode=" " horiz-adv-x="503" 
 />
    <glyph glyph-name="exclam" unicode="!" horiz-adv-x="434" 
d="M58 343h234l200 1007h-278zM-16 -11h240l38 213h-241z" />
    <glyph glyph-name="quotedbl" unicode="&#x22;" horiz-adv-x="457" 
d="M320 897h141l79 453h-141zM105 897h146l79 453h-146z" />
    <glyph glyph-name="numbersign" unicode="#" horiz-adv-x="1332" 
d="M642 0h186l431 1350h-186zM-10 345h1188l25 144h-1188zM59 0h185l431 1350h-186zM112 857h1188l26 145h-1188z" />
    <glyph glyph-name="dollar" unicode="$" horiz-adv-x="1138" 
d="M588 1226l151 -2l28 157h-152zM366 -30h151l28 154h-152zM489 79q222 0 378.5 83.5t179.5 251.5q24 174 -73 246t-302 109q-158 29 -245.5 63t-73.5 127q9 74 81.5 119t199.5 45q133 0 202 -62t66 -182l227 74q-2 179 -123.5 254.5t-344.5 75.5q-222 0 -373 -80.5
t-173 -242.5q-25 -171 70.5 -246t285.5 -108q168 -36 258.5 -70t76.5 -134q-10 -70 -84 -115.5t-206 -45.5q-140 0 -211.5 60.5t-67.5 195.5l-227 -75q5 -191 132 -267t347 -76z" />
    <glyph glyph-name="percent" unicode="%" horiz-adv-x="1327" 
d="M-34 0h173l1246 1348h-171zM398 826q159 0 247 53t109 175l15 82q21 124 -51.5 177t-232.5 53q-159 0 -247 -53t-111 -177l-14 -82q-22 -122 51.5 -175t233.5 -53zM410 924q-85 0 -119 28.5t-22 100.5l15 85q13 73 57 101.5t129 28.5t120 -28.5t23 -101.5l-16 -85
q-13 -72 -57.5 -100.5t-129.5 -28.5zM893 -7q160 0 247 53.5t109 176.5l14 81q23 123 -50 176t-233 53t-248 -53t-109 -176l-15 -81q-21 -122 52 -176t233 -54zM905 91q-85 0 -119.5 29t-21.5 101l16 86q13 72 56.5 100t129.5 28q83 0 118.5 -28.5t22.5 -99.5l-15 -86
q-13 -72 -57.5 -101t-129.5 -29z" />
    <glyph glyph-name="ampersand" unicode="&#x26;" horiz-adv-x="1499" 
d="M508 -12q319 0 586.5 167.5t330.5 522.5h-217q-50 -283 -248.5 -401.5t-415.5 -118.5q-183 0 -258.5 50t-59.5 152q15 102 127.5 169.5t291.5 136.5q174 76 317 159.5t164 224.5q24 157 -81 234.5t-291 77.5q-171 0 -306 -77.5t-159 -236.5q-19 -122 48.5 -221
t131.5 -169l581 -658h278l-665 774q-70 71 -112.5 134.5t-29.5 139.5q13 80 70 117t140 37q87 0 133 -37.5t33 -115.5q-13 -75 -105.5 -133.5t-241.5 -111.5q-153 -67 -350 -173t-218 -287q-20 -178 111 -267t415 -89z" />
    <glyph glyph-name="quotesingle" unicode="'" horiz-adv-x="289" 
d="M119 917h176l77 433h-177z" />
    <glyph glyph-name="parenleft" unicode="(" horiz-adv-x="635" 
d="M198 -443l195 106q-21 27 -50.5 75t-56.5 121t-44.5 171t-17 225t28.5 284q28 158 72.5 285.5t97 227t105.5 173.5t99.5 123t76.5 75l-159 106q-31 -24 -81.5 -75t-110.5 -132t-120.5 -194t-112 -259.5t-83.5 -329.5q-32 -182 -32 -328t20.5 -257t52 -190.5t64.5 -130.5
t56 -76z" />
    <glyph glyph-name="parenright" unicode=")" horiz-adv-x="632" 
d="M70 -443q32 25 82.5 76t110 130.5t120 190.5t111.5 257t83 328q32 183 32.5 329.5t-20 259.5t-52 194t-64.5 132t-55 75l-195 -106q21 -26 50 -74.5t56.5 -122.5t44.5 -173.5t16.5 -227.5t-28.5 -286q-28 -156 -72 -283t-97 -225t-106 -171t-98.5 -121.5t-76.5 -75.5z
" />
    <glyph glyph-name="asterisk" unicode="*" horiz-adv-x="538" 
d="M208 1202l412 227l-30 70l-412 -227zM538 1202l51 66l-328 231l-53 -67zM326 1167h81l65 366h-81z" />
    <glyph glyph-name="plus" unicode="+" horiz-adv-x="551" 
d="M138 208h159l34 198h165l27 148h-164l34 198h-159l-34 -198h-166l-28 -148h167z" />
    <glyph glyph-name="comma" unicode="," horiz-adv-x="532" 
d="M-109 -236h143l258 362h-233z" />
    <glyph glyph-name="hyphen" unicode="-" horiz-adv-x="862" 
d="M17 398h702l29 161h-702z" />
    <glyph glyph-name="period" unicode="." horiz-adv-x="409" 
d="M9 204l-36 -204h227l36 204h-227z" />
    <glyph glyph-name="slash" unicode="/" horiz-adv-x="776" 
d="M-90 0h206l776 1348h-207z" />
    <glyph glyph-name="zero" unicode="0" horiz-adv-x="1090" 
d="M413 -14q238 0 368.5 88.5t164.5 275.5l116 647q34 187 -65.5 275.5t-338.5 88.5t-369.5 -88.5t-164.5 -275.5l-116 -647q-34 -187 66 -275.5t339 -88.5zM442 154q-120 0 -164 50.5t-24 156.5l110 625q20 106 81.5 156t182.5 50q120 0 164 -50.5t24 -155.5l-111 -625
q-19 -105 -81.5 -156t-181.5 -51z" />
    <glyph glyph-name="one" unicode="1" horiz-adv-x="1021" 
d="M-32 0h871l30 168h-313l209 1184h-201l-382 -94l-31 -180l338 77l-174 -987h-317z" />
    <glyph glyph-name="two" unicode="2" horiz-adv-x="1106" 
d="M-40 0h947l30 168h-693q12 69 100 146t276 179q187 109 316.5 225t149.5 288q17 141 -56 248t-352 107q-283 0 -405.5 -131t-159.5 -346h242q32 180 106.5 244t192.5 64q108 0 155.5 -43t32.5 -145q-18 -114 -96 -192.5t-283 -187.5q-223 -113 -338.5 -230t-139.5 -250z
" />
    <glyph glyph-name="three" unicode="3" horiz-adv-x="1131" 
d="M447 -14q297 0 413 107t141 292q17 135 -40 211t-212 81q157 5 247.5 84t108.5 216q24 173 -49.5 278.5t-368.5 105.5q-284 0 -406 -123.5t-164 -365.5h241q37 209 109.5 266t193.5 57q122 0 171 -52t26 -203q-16 -101 -89 -144t-240 -47l-27 -152q168 -3 223 -42.5
t39 -142.5q-24 -156 -94 -208.5t-194 -52.5t-175 55t-18 246h-241q-40 -230 39.5 -348t365.5 -118z" />
    <glyph glyph-name="four" unicode="4" horiz-adv-x="1108" 
d="M505 0h241l57 323h174l27 159h-173l154 868h-359l-615 -866l-28 -161h580zM254 482l455 694h4l-123 -694h-336z" />
    <glyph glyph-name="five" unicode="5" horiz-adv-x="1097" 
d="M423 -13q277 0 407 117.5t165 374.5q30 226 -38 333.5t-265 107.5q-183 0 -333.5 -84.5t-190.5 -247.5l137 -5q18 85 93.5 136t182.5 51q104 0 150 -55t17 -241q-33 -205 -105.5 -264t-184.5 -59q-115 0 -160.5 53t-22.5 205h-242q-26 -190 52.5 -306t337.5 -116zM63 583
h241l106 600h678l30 167h-919z" />
    <glyph glyph-name="six" unicode="6" horiz-adv-x="1108" 
d="M427 -13q299 0 414.5 129t151.5 361q34 228 -30 333.5t-274 105.5q-192 0 -336.5 -95t-168.5 -199l109 -56q21 85 100 144t189 59q112 0 155 -55.5t8 -249.5q-32 -184 -98.5 -249t-186.5 -65q-119 0 -165.5 77t5.5 371q71 412 156 507t203 95q104 0 138.5 -59t20.5 -158
h242q23 132 -40 255t-333 123q-296 0 -429 -168t-197 -570q-52 -334 14 -485t352 -151z" />
    <glyph glyph-name="seven" unicode="7" horiz-adv-x="1009" 
d="M178 0h262q60 343 216.5 629.5t412.5 553.5l30 167h-929l-29 -168h673l-1 -3q-247 -241 -409.5 -534.5t-225.5 -644.5z" />
    <glyph glyph-name="eight" unicode="8" horiz-adv-x="1097" 
d="M435 -14q267 0 393.5 121.5t156.5 307.5q29 180 -78 268.5t-336 88.5q-230 0 -370 -87.5t-170 -269.5q-31 -186 47.5 -307.5t356.5 -121.5zM461 151q-117 0 -166 59t-24 198q23 136 90 187t188 51t169.5 -51t24.5 -187q-25 -138 -95 -197.5t-187 -59.5zM556 669
q228 0 355.5 79t156.5 253q24 150 -58 255t-339 105q-269 0 -381.5 -105t-135.5 -255q-28 -174 73 -253t329 -79zM575 790q-117 0 -162.5 47.5t-24.5 167.5q17 98 82 146t177 48q111 0 159 -48t30 -146q-22 -119 -83.5 -167t-177.5 -48z" />
    <glyph glyph-name="nine" unicode="9" horiz-adv-x="1099" 
d="M439 -13q294 0 421.5 168.5t195.5 569.5q55 323 -12 479.5t-351 156.5q-302 0 -418.5 -122t-148.5 -353q-31 -225 31.5 -339.5t273.5 -114.5q191 0 334.5 95t166.5 199l-107 56q-19 -85 -97.5 -141.5t-188.5 -56.5q-112 0 -157 57t-13 244q29 186 99.5 248t190.5 62
t164 -76t-5 -369q-73 -425 -155 -513.5t-199 -88.5q-109 0 -143.5 59t-21.5 158h-242q-21 -123 39 -250.5t343 -127.5z" />
    <glyph glyph-name="colon" unicode=":" horiz-adv-x="423" 
d="M21 204l-36 -204h227l36 204h-227zM188 1142l-36 -204h227l36 204h-227z" />
    <glyph glyph-name="semicolon" unicode=";" horiz-adv-x="490" 
d="M208 1145l-36 -204h227l36 204h-227zM-109 -148h143l258 362h-233z" />
    <glyph glyph-name="less" unicode="&#x3c;" horiz-adv-x="781" 
d="M618 -5l39 217l-455 274l552 274l38 217l-735 -400l-33 -182z" />
    <glyph glyph-name="equal" unicode="=" horiz-adv-x="597" 
d="M44 617h518l26 145h-518zM-28 210h518l26 144h-519z" />
    <glyph glyph-name="greater" unicode="&#x3e;" horiz-adv-x="781" 
d="M-36 -5l736 400l32 182l-594 400l-38 -216l455 -273l-552 -276z" />
    <glyph glyph-name="question" unicode="?" horiz-adv-x="1069" 
d="M342 332h237q20 101 68 179t146 154q83 64 164 154t98 230q21 158 -70.5 234.5t-335.5 76.5q-236 0 -369 -93.5t-175 -329.5h235q26 143 96.5 206t189.5 63q123 0 162.5 -51t24.5 -145q-16 -91 -75.5 -151.5t-131.5 -116.5q-103 -74 -170.5 -170t-93.5 -240zM329 194
l-36 -204h228l35 204h-227z" />
    <glyph glyph-name="at" unicode="@" horiz-adv-x="1770" 
d="M671 -26q103 0 188.5 14t152.5 35t111.5 43t65.5 38l-115 114q-7 -7 -33.5 -24t-73.5 -35t-113 -31.5t-152 -13.5q-84 0 -156.5 18t-130 56t-95 98t-50.5 143.5t2 192.5q22 157 88 270t167.5 185t229 106t271.5 34q110 0 193.5 -18t141.5 -55t91.5 -91.5t42 -127
t-6.5 -161.5q-15 -99 -45 -171.5t-69.5 -119t-86.5 -68.5t-96 -22q-36 0 -63.5 11t-39 35.5t-0.5 66.5l143 528h-118l-28 -100q3 20 -14 47t-53 47.5t-94 20.5q-61 0 -123.5 -25.5t-117.5 -76.5t-95.5 -127t-59.5 -177q-15 -83 -4.5 -144.5t40 -102.5t73.5 -61.5t97 -20.5
q64 0 117 16t90 43t52 59q-7 -29 1.5 -56.5t31 -48.5t59 -33t83.5 -12q62 0 128 17.5t127.5 55.5t115.5 97.5t93.5 142t58.5 190.5q25 138 -2.5 246t-105.5 183.5t-207 114.5t-306 39q-158 0 -298.5 -28t-259.5 -85.5t-211.5 -146.5t-152.5 -210t-83 -276q-19 -137 2 -242.5
t75.5 -180.5t135 -122.5t180.5 -70t211 -22.5zM794 409q-42 0 -71.5 29t-40 82t1.5 126q10 63 37 115t63 89t74.5 57t73.5 20q33 0 63 -14.5t46.5 -41t9.5 -64.5l-73 -279q-17 -50 -68.5 -84.5t-115.5 -34.5z" />
    <glyph glyph-name="A" unicode="A" horiz-adv-x="1365" 
d="M-45 0h252l175 361h514l47 -361h252l-208 1352h-348zM452 524l335 684h3l94 -684h-432z" />
    <glyph glyph-name="B" unicode="B" horiz-adv-x="1271" 
d="M-21 0h750q211 0 294.5 110.5t105.5 288.5q17 142 -28 232.5t-157 96.5q108 5 182 97.5t89 228.5q13 111 -26.5 203.5t-250.5 92.5h-721zM253 168l85 481h412q102 0 130 -58.5t7 -178.5q-21 -121 -63.5 -182.5t-124.5 -61.5h-446zM364 800l68 383h415q87 0 109 -44
t5 -135q-15 -88 -61 -146t-139 -58h-397z" />
    <glyph glyph-name="C" unicode="C" horiz-adv-x="1281" 
d="M526 -8q318 0 460 156t182 391h-246q-37 -211 -130 -295t-243 -84q-153 0 -219.5 97t-15.5 421q53 333 158 424t259 91q151 0 211.5 -79t27.5 -299h247q36 244 -52 395.5t-407 151.5t-476.5 -162.5t-214.5 -521.5q-56 -350 41.5 -518t417.5 -168z" />
    <glyph glyph-name="D" unicode="D" horiz-adv-x="1261" 
d="M-21 0h609q263 0 401 145.5t198 530.5q58 375 -25 524.5t-346 149.5h-599zM253 168l178 1014h294q156 0 214 -91t4 -415q-56 -330 -148.5 -419t-247.5 -89h-294z" />
    <glyph glyph-name="E" unicode="E" horiz-adv-x="1105" 
d="M-29 0h920l30 168h-676l77 440h634l29 161h-634l72 413h676l30 168h-920z" />
    <glyph glyph-name="F" unicode="F" horiz-adv-x="1033" 
d="M-42 0h244l97 546h579l28 161h-579l83 475h632l29 168h-875z" />
    <glyph glyph-name="G" unicode="G" horiz-adv-x="1305" 
d="M505 -8q325 0 436 204l-9 -196h141l117 668h-526l-26 -147h274l-15 -86q-32 -146 -112.5 -210.5t-231.5 -64.5q-161 0 -220.5 105t-15.5 404q51 332 154 428.5t263 96.5q155 0 212 -81.5t31 -264.5h244q33 213 -63.5 363.5t-399.5 150.5q-322 0 -478.5 -164.5
t-206.5 -520.5q-49 -348 39 -516.5t393 -168.5z" />
    <glyph glyph-name="H" unicode="H" horiz-adv-x="1275" 
d="M-21 0h245l106 604h574l-106 -604h244l238 1350h-244l-102 -578h-574l102 578h-244z" />
    <glyph glyph-name="I" unicode="I" horiz-adv-x="553" 
d="M32 0h244l238 1350h-243z" />
    <glyph glyph-name="J" unicode="J" horiz-adv-x="1234" 
d="M474 -11q260 0 403 100t179 306l169 955h-243l-163 -921q-25 -142 -100 -208t-223 -66q-149 0 -199 65.5t-25 204.5l33 183h-244l-37 -211q-38 -211 76.5 -309.5t373.5 -98.5z" />
    <glyph glyph-name="K" unicode="K" horiz-adv-x="1171" 
d="M-21 0h243l107 609l404 -609h275l-445 672l684 678h-282l-612 -608l107 608h-243z" />
    <glyph glyph-name="L" unicode="L" horiz-adv-x="997" 
d="M-21 0h823l30 167h-579l209 1183h-244z" />
    <glyph glyph-name="M" unicode="M" horiz-adv-x="1662" 
d="M-21 0h241l209 1181h3l139 -1118h288l534 1118h3l-208 -1181h242l237 1350h-401l-523 -1113h-3l-131 1113h-392z" />
    <glyph glyph-name="N" unicode="N" horiz-adv-x="1433" 
d="M-21 0h243l207 1175h3l388 -1175h381l238 1350h-243l-207 -1162h-4l-384 1162h-384z" />
    <glyph glyph-name="O" unicode="O" horiz-adv-x="1340" 
d="M548 -10q317 0 490 166.5t228 518.5q54 351 -53 519t-423 168t-490 -167t-228 -520q-54 -351 53 -518t423 -167zM578 158q-159 0 -236 98.5t-27 418.5q53 323 170 420.5t275 97.5t236 -97.5t27 -420.5q-52 -320 -169.5 -418.5t-275.5 -98.5z" />
    <glyph glyph-name="P" unicode="P" horiz-adv-x="1187" 
d="M-21 0h245l67 384h399q233 0 339 151.5t129 351.5q24 180 -26.5 321.5t-283.5 141.5h-630zM321 552l111 630h319q122 0 155 -79t9 -230q-23 -158 -88 -239.5t-187 -81.5h-319z" />
    <glyph glyph-name="Q" unicode="Q" horiz-adv-x="1349" 
d="M902 -214l189 89l-163 304l-195 -81zM555 -10q321 0 486 159t225 526q59 364 -51 525.5t-431 161.5t-486.5 -159.5t-225.5 -527.5q-60 -364 50.5 -524.5t432.5 -160.5zM578 158q-163 0 -241 97.5t-22 419.5q58 325 170 421.5t275 96.5t241.5 -96.5t21.5 -421.5
q-57 -322 -169.5 -419.5t-275.5 -97.5z" />
    <glyph glyph-name="R" unicode="R" horiz-adv-x="1223" 
d="M-21 0h245l100 570h440q209 0 303 110.5t120 274.5q27 161 -22.5 278t-254.5 117h-693zM770 0h264l-182 648l-244 -13zM351 722l81 460h370q104 0 131 -62t8 -168q-18 -106 -68 -168t-152 -62h-370z" />
    <glyph glyph-name="S" unicode="S" horiz-adv-x="1259" 
d="M504 -8q311 0 453.5 114.5t161.5 281.5q23 167 -65 238t-345 135q-179 44 -268.5 88.5t-73.5 155.5q12 87 105 137t239 50q142 0 211 -59t35 -269h245q41 246 -55 372t-407 126q-306 0 -453.5 -113t-161.5 -272q-18 -157 68.5 -239t335.5 -143q175 -43 268 -86.5
t75 -154.5q-14 -93 -105 -144t-236 -51q-147 0 -214 60.5t-31 277.5h-245q-45 -260 50 -382.5t413 -122.5z" />
    <glyph glyph-name="T" unicode="T" horiz-adv-x="1206" 
d="M357 0h245l208 1182h409l30 168h-1065l-29 -168h410z" />
    <glyph glyph-name="U" unicode="U" horiz-adv-x="1324" 
d="M534 -8q275 0 432.5 100.5t199.5 336.5l161 921h-244l-157 -892q-29 -164 -114.5 -231t-247.5 -67q-161 0 -223 67.5t-33 230.5l157 892h-244l-162 -921q-42 -236 79.5 -336.5t395.5 -100.5z" />
    <glyph glyph-name="V" unicode="V" horiz-adv-x="1283" 
d="M349 0h335l650 1350h-252l-537 -1176h-2l-121 1176h-246z" />
    <glyph glyph-name="W" unicode="W" horiz-adv-x="1886" 
d="M202 0h373l453 1182h3l33 -1182h375l501 1350h-268l-405 -1170h-3l-48 1170h-323l-460 -1170h-3l11 1170h-259z" />
    <glyph glyph-name="X" unicode="X" horiz-adv-x="1283" 
d="M-70 0h283l419 566l221 -566h281l-301 668l527 682h-282l-409 -578l-206 578h-281l283 -682z" />
    <glyph glyph-name="Y" unicode="Y" horiz-adv-x="1305" 
d="M405 0h244l92 524l635 826h-269l-455 -629h-2l-236 629h-262l344 -828z" />
    <glyph glyph-name="Z" unicode="Z" horiz-adv-x="1124" 
d="M-40 0h960l30 168h-688l839 1014l31 168h-923l-29 -167h650l-839 -1008z" />
    <glyph glyph-name="bracketleft" unicode="[" horiz-adv-x="633" 
d="M-90 -348h495l29 161h-295l257 1467h295l30 162h-495z" />
    <glyph glyph-name="backslash" unicode="\" horiz-adv-x="771" 
d="M399 0h219l-230 1348h-216z" />
    <glyph glyph-name="bracketright" unicode="]" horiz-adv-x="634" 
d="M-87 -348h496l315 1789h-495l-29 -161h295l-257 -1467h-296z" />
    <glyph glyph-name="asciicircum" unicode="^" horiz-adv-x="743" 
d="M144 1221h159l262 225h-148zM639 1223h150l-190 223h-143z" />
    <glyph glyph-name="underscore" unicode="_" horiz-adv-x="1227" 
d="M-142 -201h1230l29 159h-1230z" />
    <glyph glyph-name="grave" unicode="`" horiz-adv-x="624" 
d="M424 1214h115l-119 179h-168z" />
    <glyph glyph-name="a" unicode="a" horiz-adv-x="1227" 
d="M379 -11q84 0 154.5 14.5t126 38.5t93 51t55.5 53l-5 -146h202l132 750q29 162 -15 259.5t-153.5 142.5t-276.5 45q-97 0 -185 -19t-162.5 -60t-131.5 -108t-92 -163l226 -64q30 91 78.5 146t110.5 79t134 24q85 0 141.5 -26.5t79 -86.5t5.5 -157l-10 -61h-384
q-65 0 -130.5 -9t-125 -32.5t-107.5 -64.5t-79 -105t-39 -155q-14 -137 25 -212t124.5 -104.5t208.5 -29.5zM458 146q-64 0 -110 16.5t-67 61.5t-13 129q6 67 30 109.5t61 65t82 31t94 8.5h324l-49 -280q-25 -35 -76 -67.5t-121 -53t-155 -20.5z" />
    <glyph glyph-name="b" unicode="b" horiz-adv-x="1235" 
d="M-16 0h221l53 181l245 1389h-242zM602 -7q222 0 358 156t182 451q43 287 -32.5 441.5t-296.5 154.5q-199 0 -358 -98t-178 -208l85 -117q17 101 118.5 178t221.5 77q127 0 182 -91.5t13 -339.5q-42 -253 -131.5 -345.5t-216.5 -92.5q-121 0 -195 77.5t-56 180.5
l-126 -120q-20 -109 105.5 -206.5t324.5 -97.5z" />
    <glyph glyph-name="c" unicode="c" horiz-adv-x="1182" 
d="M494 -10q262 0 392.5 132t166.5 268l-202 76q-28 -130 -115.5 -219t-215.5 -89q-126 0 -184 96.5t-34 310.5q27 267 129 364.5t240 97.5q128 0 183.5 -83t40.5 -229l228 73q10 152 -77 280t-350 128q-298 0 -456 -159t-184 -483q-23 -262 64.5 -413t373.5 -151z" />
    <glyph glyph-name="d" unicode="d" horiz-adv-x="1225" 
d="M782 0h224l276 1570h-240l-244 -1389zM393 -7q200 0 356 97.5t176 206.5l-85 120q-18 -102 -118 -180t-221 -78q-122 0 -176 87.5t-25 322.5q30 266 123 362.5t231 96.5q122 0 194 -77t55 -178l125 117q20 110 -104.5 208t-323.5 98q-238 0 -378.5 -166t-166.5 -484
q-25 -260 50.5 -406.5t287.5 -146.5z" />
    <glyph glyph-name="e" unicode="e" horiz-adv-x="1237" 
d="M506 -10l28 158q-144 0 -207 102q-65 100 -23 344q43 257 145 351t239 94q140 0 203 -89q50 -81 23 -280h-621l-26 -148h863q10 34 17 75q51 292 -43 447q-95 153 -388 153q-285 0 -441 -153q-155 -153 -206 -449q-47 -283 49 -444q95 -161 388 -161zM534 148l-28 -158
q159 0 266 38q105 37 185 119q79 81 119 201l-207 60q-32 -80 -76 -144q-45 -63 -109 -90q-66 -26 -150 -26z" />
    <glyph glyph-name="f" unicode="f" horiz-adv-x="944" 
d="M164 0h241l180 1018h332l30 167h-333l12 64q18 102 103.5 135t238.5 33h32l27 161h-36q-255 0 -414.5 -73.5t-191.5 -254.5l-13 -65h-242l-29 -167h243z" />
    <glyph glyph-name="g" unicode="g" horiz-adv-x="1244" 
d="M397 -466q163 0 280.5 45.5t209.5 157t126 306.5l202 1142h-178l-107 -240l-163 -925q-34 -200 -122 -265.5t-214 -65.5q-76 0 -131 25t-79 77.5t-18 139.5h-236q-19 -218 105 -307.5t325 -89.5zM389 -7q201 0 357.5 95.5t176.5 207.5l-86 121q-17 -102 -117 -180
t-221 -78q-128 0 -183.5 91t-13.5 344q43 253 133 343.5t217 90.5q121 0 193.5 -77t54.5 -178l126 111q19 110 -104 211t-323 101q-221 0 -358.5 -151.5t-182.5 -449.5q-45 -297 32.5 -449.5t298.5 -152.5z" />
    <glyph glyph-name="h" unicode="h" horiz-adv-x="1214" 
d="M-17 0h242l278 1570h-242zM743 0h241l119 672q43 246 -21.5 385t-277.5 139q-217 0 -375.5 -135.5t-184.5 -284.5l106 -67q24 139 120.5 229t216.5 90q118 0 163.5 -81t9.5 -285z" />
    <glyph glyph-name="i" unicode="i" horiz-adv-x="516" 
d="M26 0h242l208 1186h-242zM294 1519l-35 -195h241l35 195h-241z" />
    <glyph glyph-name="j" unicode="j" horiz-adv-x="529" 
d="M-318 -460q253 0 402 96.5t195 364.5l210 1185h-241l-211 -1194q-29 -165 -110.5 -224t-213.5 -59zM306 1519l-35 -195h242l35 195h-242z" />
    <glyph glyph-name="k" unicode="k" horiz-adv-x="1164" 
d="M-16 0h242l67 388l228 196l208 -584h258l-270 749l462 437h-285l-551 -524l159 908h-242z" />
    <glyph glyph-name="l" unicode="l" horiz-adv-x="496" 
d="M7 0h242l277 1570h-242z" />
    <glyph glyph-name="m" unicode="m" horiz-adv-x="1802" 
d="M-17 0h242l175 993l-20 192h-188zM658 0h241l127 715q35 203 -15 341.5t-261 138.5q-185 0 -339.5 -136.5t-184.5 -308.5l119 -59q29 161 110.5 248.5t187.5 87.5q104 0 136 -79.5t2 -250.5zM1330 0h241l126 715q36 202 -13 341t-259 139q-185 0 -340 -138t-185 -307
l120 -59q28 161 109.5 248.5t188.5 87.5q104 0 134.5 -79.5t0.5 -250.5z" />
    <glyph glyph-name="n" unicode="n" horiz-adv-x="1206" 
d="M-17 0h242l170 970l-13 216h-189zM734 0h242l116 665q43 246 -19.5 388.5t-274.5 142.5q-218 0 -377 -135.5t-186 -284.5l106 -67q24 139 122 229t218 90q117 0 161.5 -81t8.5 -285z" />
    <glyph glyph-name="o" unicode="o" horiz-adv-x="1242" 
d="M500 -9q282 0 442 150t207 455q46 302 -56.5 452t-385.5 150t-443 -148.5t-206 -453.5q-46 -301 56.5 -453t385.5 -152zM526 157q-132 0 -199 91.5t-28 346.5q41 254 145 345.5t236 91.5q133 0 200 -91t27 -346q-40 -254 -144.5 -346t-236.5 -92z" />
    <glyph glyph-name="p" unicode="p" horiz-adv-x="1235" 
d="M-95 -443h242l252 1431l-18 197h-188zM601 -7q222 0 357 153.5t183 448.5q46 295 -31 448t-299 153q-198 0 -357 -98t-178 -208l85 -117q17 101 118.5 178t221.5 77q128 0 182.5 -91.5t12.5 -342.5q-42 -253 -131.5 -344t-216.5 -91q-121 0 -195 77.5t-56 180.5
l-126 -120q-20 -109 105.5 -206.5t324.5 -97.5z" />
    <glyph glyph-name="q" unicode="q" horiz-adv-x="1239" 
d="M686 -443h241l288 1628h-189l-90 -212zM391 -7q200 0 357.5 97.5t177.5 206.5l-85 120q-19 -102 -118.5 -180t-220.5 -78q-122 0 -176 87.5t-25 322.5q30 266 123 362.5t231 96.5q122 0 194 -77t55 -178l125 117q20 110 -105 208t-323 98q-233 0 -371.5 -157.5
t-172.5 -468.5q-34 -278 42 -427.5t292 -149.5z" />
    <glyph glyph-name="r" unicode="r" horiz-adv-x="1178" 
d="M815 624h242q52 297 -4 434.5t-268 137.5q-203 0 -343.5 -109.5t-168.5 -266.5l84 -62q19 104 103.5 186.5t206.5 82.5q108 0 149 -82.5t-1 -320.5zM-17 0h241l170 963l-14 222h-188z" />
    <glyph glyph-name="s" unicode="s" horiz-adv-x="1207" 
d="M495 -9q221 0 377.5 83.5t179.5 251.5q25 174 -72 245.5t-302 109.5q-159 28 -246 62.5t-73 127.5q9 74 81 119t199 45q133 0 202 -62.5t67 -181.5l226 74q-1 179 -122.5 255t-344.5 76q-222 0 -373.5 -81t-172.5 -242q-25 -173 70 -247t286 -110q168 -35 258.5 -69
t75.5 -133q-9 -71 -83.5 -116.5t-206.5 -45.5q-140 0 -211 60t-68 196l-226 -75q5 -191 132 -266.5t347 -75.5z" />
    <glyph glyph-name="t" unicode="t" horiz-adv-x="1001" 
d="M519 -14q117 0 228 26l29 162q-75 -24 -149 -24q-79 0 -116 34t-19 139l123 694h383l30 168h-383l47 269h-242l-47 -269h-275l-30 -168h276l-133 -749q-28 -161 55.5 -221.5t222.5 -60.5z" />
    <glyph glyph-name="u" unicode="u" horiz-adv-x="1209" 
d="M789 0h187l208 1185h-241l-173 -980zM426 1186h-241l-118 -672q-43 -245 17.5 -384.5t276.5 -139.5q228 0 383 136t181 284l-107 63q-24 -139 -123.5 -227t-219.5 -88q-118 0 -160 81t-5 285z" />
    <glyph glyph-name="v" unicode="v" horiz-adv-x="1174" 
d="M298 0h331l584 1186h-257l-465 -1020h-3l-105 1020h-249z" />
    <glyph glyph-name="w" unicode="w" horiz-adv-x="1709" 
d="M204 0h327l373 944l45 -944h324l459 1185h-254l-349 -1022h-2l-59 1022h-245l-419 -1024h-3l6 1024h-247z" />
    <glyph glyph-name="x" unicode="x" horiz-adv-x="1195" 
d="M-77 0h272l373 494l204 -494h273l-281 593l481 592h-272l-361 -493l-192 493h-274l271 -592z" />
    <glyph glyph-name="y" unicode="y" horiz-adv-x="1113" 
d="M266 0h369l548 1185h-254l-450 -1022h-2l-94 1022h-252zM-100 -463q255 0 428 88.5t307 374.5l-225 1q-84 -181 -192.5 -239.5t-288.5 -58.5z" />
    <glyph glyph-name="z" unicode="z" horiz-adv-x="1017" 
d="M-35 0h856l29 167h-567l1 4l706 847l30 167h-840l-29 -167h560l-1 -2l-715 -848z" />
    <glyph glyph-name="braceleft" unicode="{" horiz-adv-x="694" 
d="M461 -349l29 161q-23 0 -54.5 5.5t-59 23t-41 54t-2.5 99.5l53 298q10 55 -0.5 93t-32 62.5t-47 39t-46.5 21t-31 9.5q10 3 33.5 8t53 16.5t59.5 33.5t53 58t32 91l59 333q12 63 39 102t60.5 60t67 28.5t57.5 7.5l30 161q-53 0 -109.5 -8.5t-110 -28.5t-99.5 -56
t-79 -90.5t-47 -131.5l-52 -302q-13 -77 -47.5 -120t-79 -61t-87.5 -18l-30 -164q45 0 83 -16.5t57.5 -56.5t6.5 -107l-47 -274q-14 -75 -0.5 -131t46 -94t78.5 -61.5t99 -34t106 -10.5z" />
    <glyph glyph-name="bar" unicode="|" horiz-adv-x="345" 
d="M-81 -226h200l290 1648h-200z" />
    <glyph glyph-name="braceright" unicode="}" horiz-adv-x="681" 
d="M-90 -348q53 0 110 8t110.5 28.5t99 56t78.5 90t46 131.5l54 302q14 78 48 121.5t78.5 61t86.5 17.5l29 163q-43 0 -81 17.5t-57.5 57t-7.5 106.5l48 273q14 77 1 133t-46 94t-79 60.5t-99 33t-107 10.5l-29 -161q25 0 56 -5t58.5 -22.5t41 -53.5t1.5 -100l-53 -298
q-9 -54 1.5 -91.5t32 -63t46.5 -40t47 -21.5t30 -9q-10 -2 -33 -7.5t-53 -17t-60 -33.5t-53 -58t-33 -91l-58 -334q-11 -62 -37.5 -101t-60.5 -60t-67.5 -29t-58.5 -8z" />
    <glyph glyph-name="asciitilde" unicode="~" horiz-adv-x="806" 
d="M573 573q52 0 96 14.5t73 32t38 25.5l-92 133q-6 -7 -32.5 -23t-80.5 -16q-45 0 -74 11t-53.5 25t-56.5 25t-83 11q-56 0 -105.5 -16t-87.5 -37.5t-55 -36.5l93 -127q15 15 57.5 37.5t94.5 22.5q42 0 69 -12.5t52.5 -28t59.5 -28t87 -12.5z" />
    <glyph glyph-name="uni00A0" unicode="&#xa0;" horiz-adv-x="503" 
 />
    <glyph glyph-name="exclamdown" unicode="&#xa1;" horiz-adv-x="398" 
d="M349 831h-234l-200 -1006h278zM386 974l37 212h-240l-38 -212h241z" />
    <glyph glyph-name="cent" unicode="&#xa2;" horiz-adv-x="1182" 
d="M606 1232h169l26 148h-169zM383 -30h169l27 153h-169zM503 70q263 0 392.5 132.5t165.5 268.5l-202 76q-27 -130 -115 -219.5t-216 -89.5q-125 0 -182.5 97t-34.5 310q26 267 128 365t240 98q129 0 184.5 -83t39.5 -228l229 72q9 152 -77.5 280t-349.5 128
q-299 0 -456.5 -159t-183.5 -483q-24 -262 63.5 -413.5t374.5 -151.5z" />
    <glyph glyph-name="sterling" unicode="&#xa3;" horiz-adv-x="1163" 
d="M107 -25l-66 144q12 6 38.5 23.5t57.5 49t58 76.5t36 106q15 83 14.5 147t-8 118t-15.5 105.5t-8.5 109.5t11.5 130q14 77 49 145.5t96.5 121t151.5 83t212 30.5q106 0 179 -22t120.5 -57t73.5 -76t37 -79l-209 -74q-10 40 -34.5 73.5t-69 54t-114.5 20.5
q-69 0 -122.5 -27.5t-88 -79t-46.5 -123.5q-11 -64 -11.5 -119t5 -107t9.5 -107t2 -118.5t-15 -141.5q-12 -70 -43.5 -125.5t-67.5 -92.5q24 6 57 9.5t63 3.5q47 0 83.5 -5t67 -13t61 -13t66.5 -6q63 1 104 6.5t66 15.5l42 -159q-13 -4 -48.5 -9t-86.5 -9.5t-109 -4.5
q-49 1 -85 7.5t-70 15t-75 15t-100 6.5q-103 0 -172.5 -16t-95.5 -32zM42 586l34 161h745l-33 -161h-746z" />
    <glyph glyph-name="currency" unicode="&#xa4;" horiz-adv-x="1166" 
d="M510 188q294 0 425.5 122t166.5 325q34 204 -53 328t-381 124q-295 0 -426.5 -123t-165.5 -326q-34 -204 52.5 -327t381.5 -123zM60 90l252 213l-94 88l-251 -213zM921 90l125 88l-175 213l-124 -88zM534 333q-136 0 -190 71t-27 234q28 164 109.5 234t217.5 70
t189.5 -70.5t27.5 -233.5q-27 -163 -109 -234t-218 -71zM306 882l123 88l-174 213l-124 -88zM957 882l251 213l-94 88l-251 -213z" />
    <glyph glyph-name="yen" unicode="&#xa5;" horiz-adv-x="1311" 
d="M187 468h847l23 132h-847zM144 227h847l23 132h-847zM405 0h244l92 524l635 826h-269l-455 -629h-2l-236 629h-262l344 -828z" />
    <glyph glyph-name="brokenbar" unicode="&#xa6;" horiz-adv-x="344" 
d="M-84 -156h200l117 660h-200zM79 764h200l116 658h-200z" />
    <glyph glyph-name="section" unicode="&#xa7;" horiz-adv-x="1199" 
d="M427 -278q77 0 146 11.5t128 32.5t104.5 51.5t75.5 69.5t39 85q13 49 4 89t-28.5 70.5t-40.5 50.5t-34 29q17 10 46 23.5t63.5 34t67.5 49t58 67t34 89.5q10 56 -8 102.5t-57 86.5t-92 73t-113.5 60.5t-122.5 51.5q-55 29 -109.5 55.5t-97.5 53.5t-66.5 57.5t-18.5 67.5
q7 47 43.5 79.5t97.5 49t141 16.5q72 0 124 -14.5t77 -49.5t13 -96l-11 -60h205l11 60q11 64 -8.5 117t-70 92.5t-130.5 61.5t-192 22q-99 0 -183 -17.5t-148 -50t-104.5 -78t-52.5 -100.5q-8 -39 -1.5 -75.5t23.5 -67t38 -54.5t41 -39q-25 -12 -67 -32t-86.5 -51.5
t-77 -76.5t-42.5 -108q-10 -70 15 -123t74 -92.5t113 -70t131 -57.5q77 -33 144 -61.5t116.5 -58t75 -63t16.5 -76.5q-9 -50 -47.5 -84t-99.5 -51.5t-138 -17.5q-72 0 -123 16t-75 51t-13 95l10 58h-203l-11 -60q-11 -65 7 -118t66.5 -92.5t129 -61t194.5 -21.5zM716 290
q-45 21 -97 42t-103 41.5t-94 43.5q-61 24 -105.5 52t-66.5 63.5t-14 81.5q8 37 30.5 67.5t53 55t62 42.5t52.5 29q34 -18 76.5 -37t87 -39t82.5 -40q45 -19 89 -42t78 -48.5t51 -56t9 -67.5t-31 -68t-53 -54t-59 -39.5t-48 -26.5z" />
    <glyph glyph-name="dieresis" unicode="&#xa8;" horiz-adv-x="830" 
d="M341 1208q34 0 62 26t28 62q0 29 -19.5 48.5t-48.5 19.5q-34 0 -62 -26t-28 -63q0 -29 18.5 -48t49.5 -19zM675 1208q35 0 62.5 26t27.5 62q0 29 -18.5 48.5t-48.5 19.5q-35 0 -62.5 -26t-27.5 -63q0 -29 19 -48t48 -19z" />
    <glyph glyph-name="copyright" unicode="&#xa9;" horiz-adv-x="1309" 
d="M526 -18q162 0 282.5 41.5t204.5 113.5t133.5 166.5t68.5 201.5l59 333q20 107 3.5 201t-75.5 166.5t-165.5 113t-268.5 40.5q-160 0 -280 -40.5t-203.5 -112.5t-133.5 -166t-69 -202l-59 -333q-19 -106 -2.5 -201t75.5 -167t165 -113.5t265 -41.5zM546 99
q-106 0 -179 22t-117.5 60.5t-65 91t-22.5 114t9 127.5l55 313q11 63 33 123t61 112.5t97.5 93.5t140 63.5t190.5 22.5q111 0 185.5 -22.5t118.5 -63t63.5 -93t20 -113t-10.5 -123.5l-56 -317q-11 -62 -32 -121.5t-58.5 -111.5t-96 -92t-141 -63t-195.5 -23zM572 253
q76 0 140 18t112 51.5t78.5 81t39.5 105.5l12 63h-136l-6 -37q-4 -22 -12 -45.5t-22.5 -45t-39.5 -39t-61 -28t-88 -10.5q-63 0 -98.5 16t-49 42t-13 59t6.5 66l43 241q8 34 19.5 66.5t34.5 59.5t63.5 42.5t103.5 15.5q52 0 85.5 -9.5t51.5 -26t24.5 -37.5t6 -43.5
t-5.5 -45.5l-7 -38h136l10 60q9 47 2 86.5t-28 70.5t-57.5 52t-86 32.5t-112.5 11.5q-76 0 -139 -19t-110.5 -55.5t-78 -88t-43.5 -117.5l-51 -286q-10 -61 2.5 -110t48 -84.5t92 -55t133.5 -19.5z" />
    <glyph glyph-name="ordfeminine" unicode="&#xaa;" horiz-adv-x="740" 
d="M537 831h127l53 299q21 115 -29 174t-207 59q-141 0 -211.5 -43t-86.5 -118l84 -41q9 53 60 83.5t132 30.5q85 0 110 -34t11 -110l-47 -266zM333 825q121 0 199 42t88 104l-64 20q-7 -38 -51 -59.5t-125 -21.5q-68 0 -93.5 16.5t-18.5 53.5q5 35 38.5 55.5t108.5 22.5
q81 2 175 3l13 75q-113 0 -200 -4q-140 -7 -200.5 -48t-70.5 -108q-11 -76 35 -113.5t166 -37.5z" />
    <glyph glyph-name="guillemotleft" unicode="&#xab;" horiz-adv-x="1177" 
d="M381 80h243l-350 414l500 414h-251l-493 -414zM789 80h244l-351 414l500 414h-251l-493 -414z" />
    <glyph glyph-name="logicalnot" unicode="&#xac;" horiz-adv-x="909" 
d="M622 211h162l63 353h-780l-27 -151h618z" />
    <glyph glyph-name="uni00AD" unicode="&#xad;" horiz-adv-x="606" 
d="M31 398h472l29 161h-472z" />
    <glyph glyph-name="registered" unicode="&#xae;" horiz-adv-x="1172" 
d="M529 443q142 0 248.5 32t181.5 90.5t119.5 138t60.5 173.5l27 157q17 97 1 177.5t-69 139.5t-148.5 92t-237.5 33q-140 0 -247 -33t-181.5 -92.5t-118.5 -138.5t-60 -171l-27 -157q-13 -73 -6 -139t37 -121.5t85 -96t138 -62.5t197 -22zM545 556q-86 0 -149 12.5
t-104.5 38.5t-63 65t-25.5 91.5t7 120.5l26 142q14 84 47.5 147t88.5 105.5t136 63.5t191 21q87 0 150 -13t104 -39.5t62.5 -67t25.5 -93.5t-9 -121l-25 -140q-13 -82 -46 -145t-88 -104t-136 -62.5t-192 -21.5zM351 658h118l45 249h147l26 -249h122l-39 258q43 10 69 47.5
t33 84.5l12 66q8 45 0 78.5t-39 52.5t-89 19h-299zM529 994l30 178h153q29 0 41 -7t13.5 -22t-2.5 -38l-6 -37q-8 -46 -26 -60t-47 -14h-156z" />
    <glyph glyph-name="macron" unicode="&#xaf;" horiz-adv-x="934" 
d="M248 1300h618l16 92h-617z" />
    <glyph glyph-name="degree" unicode="&#xb0;" horiz-adv-x="283" 
d="M255 1169q42 0 77.5 29.5t42.5 71.5q10 53 -19 91t-80 38q-42 0 -77.5 -29t-43.5 -71q-9 -52 20.5 -91t79.5 -39zM257 1241q-15 0 -25 12.5t-7 30.5q3 20 16 31.5t30 11.5q18 0 27 -11.5t5 -30.5q-3 -21 -15 -32.5t-31 -11.5z" />
    <glyph glyph-name="plusminus" unicode="&#xb1;" horiz-adv-x="557" 
d="M173 405h159l34 197h164l28 149h-165l34 198h-158l-35 -198h-165l-28 -149h167zM-9 141h416l29 149h-416z" />
    <glyph glyph-name="uni00B2" unicode="&#xb2;" horiz-adv-x="709" 
d="M74 750h596l14 86h-473q6 29 64 59.5t187 74.5q124 50 201.5 98t85.5 125q8 67 -46 118.5t-224 51.5q-171 0 -245.5 -61.5t-90.5 -152.5h117q12 67 66 97t146 30q85 0 126 -17.5t33 -64.5q-6 -45 -62 -77.5t-185 -78.5q-143 -49 -215 -100.5t-83 -113.5z" />
    <glyph glyph-name="uni00B3" unicode="&#xb3;" horiz-adv-x="736" 
d="M386 744q183 0 254.5 49.5t79.5 130.5q5 58 -26.5 94t-137.5 37q107 2 155.5 38.5t55.5 96.5q8 75 -45.5 124t-235.5 49q-176 0 -248.5 -58.5t-90.5 -161.5h116q15 80 67.5 107.5t147.5 27.5q98 0 138 -25t30 -83q-5 -42 -59 -59t-176 -19l-13 -78q131 -1 172.5 -17
t35.5 -59q-9 -59 -59.5 -84.5t-148.5 -25.5q-100 0 -141 26.5t-27 100.5h-117q-18 -99 37.5 -155t235.5 -56z" />
    <glyph glyph-name="acute" unicode="&#xb4;" horiz-adv-x="623" 
d="M242 1214h121l235 179h-174z" />
    <glyph glyph-name="uni00B5" unicode="&#xb5;" horiz-adv-x="1204" 
d="M-102 -443h241l128 725l-83 904zM789 0h187l208 1185h-241l-173 -980zM426 1186h-241l-118 -672q-43 -245 17.5 -384.5t276.5 -139.5q228 0 383 136t181 284l-107 63q-24 -139 -123.5 -227t-219.5 -88q-118 0 -160 81t-5 285z" />
    <glyph glyph-name="paragraph" unicode="&#xb6;" horiz-adv-x="1118" 
d="M340 -156h159l236 1345h250l-236 -1345h159l266 1506h-594q-144 0 -244 -37.5t-159 -113.5t-80 -190q-17 -98 2 -169.5t69 -117.5t125 -68.5t172 -22.5h14z" />
    <glyph glyph-name="periodcentered" unicode="&#xb7;" horiz-adv-x="418" 
d="M129 775l-36 -204h227l36 204h-227z" />
    <glyph glyph-name="cedilla" unicode="&#xb8;" horiz-adv-x="755" 
d="M179 -314q50 0 99 10t90.5 30t69 49.5t33.5 67.5q9 53 -23.5 78.5t-91.5 25.5q-46 0 -88.5 -13.5t-64.5 -31.5l-11 -45q18 10 42 17t45 7q25 0 38 -8t9 -27q-5 -24 -37 -39.5t-90 -15.5q-36 0 -67.5 5t-53.5 11l-53 -103q36 -8 75.5 -13t78.5 -5zM192 -143l75 143h-101
l-62 -131z" />
    <glyph glyph-name="uni00B9" unicode="&#xb9;" horiz-adv-x="655" 
d="M79 750h539l16 86h-211l93 522h-96l-249 -47l-16 -91l227 38l-75 -422h-212z" />
    <glyph glyph-name="ordmasculine" unicode="&#xba;" horiz-adv-x="704" 
d="M407 826q159 0 247 53t109 175l15 82q21 124 -51 177t-233 53q-159 0 -247 -53t-110 -177l-15 -82q-22 -122 51.5 -175t233.5 -53zM419 924q-84 0 -118.5 28.5t-22.5 100.5l16 85q13 73 57 101.5t129 28.5t120 -28.5t22 -101.5l-16 -85q-13 -72 -57 -100.5t-130 -28.5z
" />
    <glyph glyph-name="guillemotright" unicode="&#xbb;" horiz-adv-x="1179" 
d="M384 80h251l492 414l-350 414h-244l350 -414zM-25 80h251l494 414l-351 414h-244l351 -414z" />
    <glyph glyph-name="onequarter" unicode="&#xbc;" horiz-adv-x="1841" 
d="M79 750h539l16 86h-211l93 522h-96l-249 -47l-16 -91l227 38l-75 -422h-212zM266 0h129l1145 1348h-128zM1437 0h115l26 141h124l15 82h-126l69 385h-179l-395 -384l-14 -83h390zM1222 223l300 304h8l-54 -304h-254z" />
    <glyph glyph-name="onehalf" unicode="&#xbd;" horiz-adv-x="1833" 
d="M79 750h539l16 86h-211l93 522h-96l-249 -47l-16 -91l227 38l-75 -422h-212zM266 0h129l1145 1348h-128zM1067 0h596l14 86h-473q6 29 64 59.5t187 74.5q124 50 201.5 98t85.5 125q8 67 -46 118.5t-224 51.5q-171 0 -245.5 -61.5t-90.5 -152.5h117q12 67 66 97t146 30
q85 0 126 -17.5t33 -64.5q-6 -45 -62 -77.5t-185 -78.5q-143 -49 -215 -100.5t-83 -113.5z" />
    <glyph glyph-name="threequarters" unicode="&#xbe;" horiz-adv-x="1922" 
d="M386 744q183 0 254.5 49.5t79.5 130.5q5 58 -26.5 94t-137.5 37q107 2 155.5 38.5t55.5 96.5q8 75 -45.5 124t-235.5 49q-176 0 -248.5 -58.5t-90.5 -161.5h116q15 80 67.5 107.5t147.5 27.5q98 0 138 -25t30 -83q-5 -42 -59 -59t-176 -19l-13 -78q131 -1 172.5 -17
t35.5 -59q-9 -59 -59.5 -84.5t-148.5 -25.5q-100 0 -141 26.5t-27 100.5h-117q-18 -99 37.5 -155t235.5 -56zM347 0h129l1145 1348h-128zM1517 0h115l26 141h124l15 82h-126l69 385h-179l-395 -384l-14 -83h390zM1302 223l300 304h8l-54 -304h-254z" />
    <glyph glyph-name="questiondown" unicode="&#xbf;" horiz-adv-x="1035" 
d="M685 844h-237q-19 -101 -67 -179t-146 -154q-84 -64 -164.5 -154t-97.5 -231q-21 -157 70 -233.5t335 -76.5q236 0 369 93.5t176 328.5h-235q-26 -143 -96.5 -205.5t-189.5 -62.5q-123 0 -162.5 50.5t-24.5 145.5q16 91 75.5 151.5t131.5 116.5q102 74 170 169.5
t93 240.5zM699 983l35 203h-227l-36 -203h228z" />
    <glyph glyph-name="Agrave" unicode="&#xc0;" horiz-adv-x="1365" 
d="M-45 0h252l175 361h514l47 -361h252l-208 1352h-348zM452 524l335 684h3l94 -684h-432zM876 1407h115l-119 179h-168z" />
    <glyph glyph-name="Aacute" unicode="&#xc1;" horiz-adv-x="1365" 
d="M-45 0h252l175 361h514l47 -361h252l-208 1352h-348zM452 524l335 684h3l94 -684h-432zM663 1392h121l235 179h-174z" />
    <glyph glyph-name="Acircumflex" unicode="&#xc2;" horiz-adv-x="1365" 
d="M-45 0h252l175 361h514l47 -361h252l-208 1352h-348zM452 524l335 684h3l94 -684h-432zM542 1401h145l164 132l117 -132h145l-175 186h-158z" />
    <glyph glyph-name="Atilde" unicode="&#xc3;" horiz-adv-x="1365" 
d="M-45 0h252l175 361h514l47 -361h252l-208 1352h-348zM452 524l335 684h3l94 -684h-432zM947 1425q57 0 96 18t63 45t36.5 54t16.5 44h-120q-3 -11 -14.5 -26.5t-30 -26t-43.5 -10.5q-30 0 -51 10.5t-40 25.5t-43.5 26t-64.5 11q-56 0 -95.5 -17.5t-64 -44t-37.5 -52.5
t-18 -45h121q4 12 14 27t29 25.5t47 10.5q27 0 46 -11.5t39 -26.5t46.5 -26t67.5 -11z" />
    <glyph glyph-name="Adieresis" unicode="&#xc4;" horiz-adv-x="1365" 
d="M-45 0h252l175 361h514l47 -361h252l-208 1352h-348zM452 524l335 684h3l94 -684h-432zM663 1417q34 0 62 26t28 62q0 29 -19.5 48.5t-48.5 19.5q-34 0 -62 -26t-28 -63q0 -29 18.5 -48t49.5 -19zM997 1417q35 0 62.5 26t27.5 62q0 29 -18.5 48.5t-48.5 19.5
q-35 0 -62.5 -26t-27.5 -63q0 -29 19 -48t48 -19z" />
    <glyph glyph-name="Aring" unicode="&#xc5;" horiz-adv-x="1365" 
d="M-45 0h252l175 361h514l47 -361h252l-208 1352h-348zM452 524l335 684h3l94 -684h-432zM830 1388q38 0 71.5 18.5t55 49t26.5 68.5q10 58 -24 96.5t-91 38.5q-39 0 -71.5 -17.5t-54 -48t-28.5 -69.5q-8 -57 25.5 -96.5t90.5 -39.5zM842 1477q-17 0 -28.5 14t-9.5 33
q4 20 19 32.5t32 12.5q19 0 30.5 -12.5t7.5 -32.5q-2 -19 -17 -33t-34 -14z" />
    <glyph glyph-name="AE" unicode="&#xc6;" horiz-adv-x="1895" 
d="M-45 0h258l797 1261l17 89h-212zM296 298h566l29 163h-514zM761 0h921l29 168h-676l77 440h635l28 161h-634l73 413h676l30 168h-921z" />
    <glyph glyph-name="Ccedilla" unicode="&#xc7;" horiz-adv-x="1281" 
d="M526 -8q318 0 460 156t182 391h-246q-37 -211 -130 -295t-243 -84q-153 0 -219.5 97t-15.5 421q53 333 158 424t259 91q151 0 211.5 -79t27.5 -299h247q36 244 -52 395.5t-407 151.5t-476.5 -162.5t-214.5 -521.5q-56 -350 41.5 -518t417.5 -168zM461 -314q50 0 99 10
t90.5 30t69 49.5t33.5 67.5q9 53 -23.5 78.5t-91.5 25.5q-46 0 -88.5 -13.5t-64.5 -31.5l-11 -45q18 10 42 17t45 7q25 0 38 -8t9 -27q-5 -24 -37 -39.5t-90 -15.5q-36 0 -67.5 5t-53.5 11l-53 -103q36 -8 75.5 -13t78.5 -5zM474 -143l75 143h-101l-62 -131z" />
    <glyph glyph-name="Egrave" unicode="&#xc8;" horiz-adv-x="1105" 
d="M-29 0h920l30 168h-676l77 440h634l29 161h-634l72 413h676l30 168h-920zM717 1407h115l-119 179h-168z" />
    <glyph glyph-name="Eacute" unicode="&#xc9;" horiz-adv-x="1105" 
d="M-29 0h920l30 168h-676l77 440h634l29 161h-634l72 413h676l30 168h-920zM506 1392h121l235 179h-174z" />
    <glyph glyph-name="Ecircumflex" unicode="&#xca;" horiz-adv-x="1105" 
d="M-29 0h920l30 168h-676l77 440h634l29 161h-634l72 413h676l30 168h-920zM384 1401h145l164 132l117 -132h145l-175 186h-158z" />
    <glyph glyph-name="Edieresis" unicode="&#xcb;" horiz-adv-x="1105" 
d="M-29 0h920l30 168h-676l77 440h634l29 161h-634l72 413h676l30 168h-920zM504 1417q34 0 62 26t28 62q0 29 -19.5 48.5t-48.5 19.5q-34 0 -62 -26t-28 -63q0 -29 18.5 -48t49.5 -19zM838 1417q35 0 62.5 26t27.5 62q0 29 -18.5 48.5t-48.5 19.5q-35 0 -62.5 -26
t-27.5 -63q0 -29 19 -48t48 -19z" />
    <glyph glyph-name="Igrave" unicode="&#xcc;" horiz-adv-x="553" 
d="M32 0h244l238 1350h-243zM461 1407h115l-119 179h-168z" />
    <glyph glyph-name="Iacute" unicode="&#xcd;" horiz-adv-x="553" 
d="M32 0h244l238 1350h-243zM249 1392h121l235 179h-174z" />
    <glyph glyph-name="Icircumflex" unicode="&#xce;" horiz-adv-x="553" 
d="M32 0h244l238 1350h-243zM128 1401h145l164 132l117 -132h145l-175 186h-158z" />
    <glyph glyph-name="Idieresis" unicode="&#xcf;" horiz-adv-x="553" 
d="M32 0h244l238 1350h-243zM248 1417q34 0 62 26t28 62q0 29 -19.5 48.5t-48.5 19.5q-34 0 -62 -26t-28 -63q0 -29 18.5 -48t49.5 -19zM582 1417q35 0 62.5 26t27.5 62q0 29 -18.5 48.5t-48.5 19.5q-35 0 -62.5 -26t-27.5 -63q0 -29 19 -48t48 -19z" />
    <glyph glyph-name="Eth" unicode="&#xd0;" horiz-adv-x="1298" 
d="M-32 596h578l25 161h-577zM17 0h608q264 0 402 145.5t198 530.5q58 375 -25.5 524.5t-346.5 149.5h-598zM290 168l178 1014h295q155 0 213.5 -91t3.5 -415q-55 -330 -147.5 -419t-248.5 -89h-294z" />
    <glyph glyph-name="Ntilde" unicode="&#xd1;" horiz-adv-x="1433" 
d="M-21 0h243l207 1175h3l388 -1175h381l238 1350h-243l-207 -1162h-4l-384 1162h-384zM965 1425q57 0 96 18t63 45t36.5 54t16.5 44h-120q-3 -11 -14.5 -26.5t-30 -26t-43.5 -10.5q-30 0 -51 10.5t-40 25.5t-43.5 26t-64.5 11q-56 0 -95.5 -17.5t-64 -44t-37.5 -52.5
t-18 -45h121q4 12 14 27t29 25.5t47 10.5q27 0 46 -11.5t39 -26.5t46.5 -26t67.5 -11z" />
    <glyph glyph-name="Ograve" unicode="&#xd2;" horiz-adv-x="1340" 
d="M548 -10q317 0 490 166.5t228 518.5q54 351 -53 519t-423 168t-490 -167t-228 -520q-54 -351 53 -518t423 -167zM578 158q-159 0 -236 98.5t-27 418.5q53 323 170 420.5t275 97.5t236 -97.5t27 -420.5q-52 -320 -169.5 -418.5t-275.5 -98.5zM844 1407h115l-119 179h-168z
" />
    <glyph glyph-name="Oacute" unicode="&#xd3;" horiz-adv-x="1340" 
d="M548 -10q317 0 490 166.5t228 518.5q54 351 -53 519t-423 168t-490 -167t-228 -520q-54 -351 53 -518t423 -167zM578 158q-159 0 -236 98.5t-27 418.5q53 323 170 420.5t275 97.5t236 -97.5t27 -420.5q-52 -320 -169.5 -418.5t-275.5 -98.5zM632 1392h121l235 179h-174z
" />
    <glyph glyph-name="Ocircumflex" unicode="&#xd4;" horiz-adv-x="1340" 
d="M548 -10q317 0 490 166.5t228 518.5q54 351 -53 519t-423 168t-490 -167t-228 -520q-54 -351 53 -518t423 -167zM578 158q-159 0 -236 98.5t-27 418.5q53 323 170 420.5t275 97.5t236 -97.5t27 -420.5q-52 -320 -169.5 -418.5t-275.5 -98.5zM511 1401h145l164 132
l117 -132h145l-175 186h-158z" />
    <glyph glyph-name="Otilde" unicode="&#xd5;" horiz-adv-x="1340" 
d="M548 -10q317 0 490 166.5t228 518.5q54 351 -53 519t-423 168t-490 -167t-228 -520q-54 -351 53 -518t423 -167zM578 158q-159 0 -236 98.5t-27 418.5q53 323 170 420.5t275 97.5t236 -97.5t27 -420.5q-52 -320 -169.5 -418.5t-275.5 -98.5zM916 1425q57 0 96 18t63 45
t36.5 54t16.5 44h-120q-3 -11 -14.5 -26.5t-30 -26t-43.5 -10.5q-30 0 -51 10.5t-40 25.5t-43.5 26t-64.5 11q-56 0 -95.5 -17.5t-64 -44t-37.5 -52.5t-18 -45h121q4 12 14 27t29 25.5t47 10.5q27 0 46 -11.5t39 -26.5t46.5 -26t67.5 -11z" />
    <glyph glyph-name="Odieresis" unicode="&#xd6;" horiz-adv-x="1340" 
d="M548 -10q317 0 490 166.5t228 518.5q54 351 -53 519t-423 168t-490 -167t-228 -520q-54 -351 53 -518t423 -167zM578 158q-159 0 -236 98.5t-27 418.5q53 323 170 420.5t275 97.5t236 -97.5t27 -420.5q-52 -320 -169.5 -418.5t-275.5 -98.5zM631 1417q34 0 62 26t28 62
q0 29 -19.5 48.5t-48.5 19.5q-34 0 -62 -26t-28 -63q0 -29 18.5 -48t49.5 -19zM965 1417q35 0 62.5 26t27.5 62q0 29 -18.5 48.5t-48.5 19.5q-35 0 -62.5 -26t-27.5 -63q0 -29 19 -48t48 -19z" />
    <glyph glyph-name="multiply" unicode="&#xd7;" horiz-adv-x="525" 
d="M341 242l121 106l-299 364l-121 -104zM86 242l421 366l-90 104l-421 -364z" />
    <glyph glyph-name="Oslash" unicode="&#xd8;" horiz-adv-x="1226" 
d="M-63 0h133l1214 1348h-130zM548 -10q317 0 490 166.5t228 518.5q54 351 -53 519t-423 168t-490 -167t-228 -520q-54 -351 53 -518t423 -167zM578 158q-159 0 -236 98.5t-27 418.5q53 323 170 420.5t275 97.5t236 -97.5t27 -420.5q-52 -320 -169.5 -418.5t-275.5 -98.5z
" />
    <glyph glyph-name="Ugrave" unicode="&#xd9;" horiz-adv-x="1324" 
d="M534 -8q275 0 432.5 100.5t199.5 336.5l161 921h-244l-157 -892q-29 -164 -114.5 -231t-247.5 -67q-161 0 -223 67.5t-33 230.5l157 892h-244l-162 -921q-42 -236 79.5 -336.5t395.5 -100.5zM847 1407h115l-119 179h-168z" />
    <glyph glyph-name="Uacute" unicode="&#xda;" horiz-adv-x="1324" 
d="M534 -8q275 0 432.5 100.5t199.5 336.5l161 921h-244l-157 -892q-29 -164 -114.5 -231t-247.5 -67q-161 0 -223 67.5t-33 230.5l157 892h-244l-162 -921q-42 -236 79.5 -336.5t395.5 -100.5zM635 1392h121l235 179h-174z" />
    <glyph glyph-name="Ucircumflex" unicode="&#xdb;" horiz-adv-x="1324" 
d="M534 -8q275 0 432.5 100.5t199.5 336.5l161 921h-244l-157 -892q-29 -164 -114.5 -231t-247.5 -67q-161 0 -223 67.5t-33 230.5l157 892h-244l-162 -921q-42 -236 79.5 -336.5t395.5 -100.5zM514 1401h145l164 132l117 -132h145l-175 186h-158z" />
    <glyph glyph-name="Udieresis" unicode="&#xdc;" horiz-adv-x="1324" 
d="M534 -8q275 0 432.5 100.5t199.5 336.5l161 921h-244l-157 -892q-29 -164 -114.5 -231t-247.5 -67q-161 0 -223 67.5t-33 230.5l157 892h-244l-162 -921q-42 -236 79.5 -336.5t395.5 -100.5zM633 1417q34 0 62 26t28 62q0 29 -19.5 48.5t-48.5 19.5q-34 0 -62 -26
t-28 -63q0 -29 18.5 -48t49.5 -19zM967 1417q35 0 62.5 26t27.5 62q0 29 -18.5 48.5t-48.5 19.5q-35 0 -62.5 -26t-27.5 -63q0 -29 19 -48t48 -19z" />
    <glyph glyph-name="Yacute" unicode="&#xdd;" horiz-adv-x="1305" 
d="M405 0h244l92 524l635 826h-269l-455 -629h-2l-236 629h-262l344 -828zM623 1392h121l235 179h-174z" />
    <glyph glyph-name="Thorn" unicode="&#xde;" horiz-adv-x="1174" 
d="M-36 0h242l40 228h460q108 0 178 36t110 105.5t58 171.5l49 278q18 98 0 168t-76 107.5t-163 37.5h-456l38 218h-242zM274 387l103 584h365q56 0 83.5 -22.5t33 -63.5t-5.5 -98l-37 -212q-11 -57 -31 -99.5t-55 -65.5t-90 -23h-366z" />
    <glyph glyph-name="germandbls" unicode="&#xdf;" horiz-adv-x="1282" 
d="M-21 0h243l172 980q15 82 45 144t74 102.5t101 60.5t125 20q115 0 161 -48t32 -135q-8 -51 -32.5 -92t-54 -79.5t-54 -80t-32.5 -91.5q-7 -40 6.5 -74t35.5 -66t44 -66.5t34 -76t3 -94.5q-10 -62 -44 -107.5t-93.5 -74.5t-144 -42.5t-194.5 -13.5l-30 -166q173 0 307 21
t229 66t151.5 118.5t74.5 179.5q12 70 -0.5 122.5t-37 91.5t-51 70t-43 57.5t-11.5 56.5q5 35 29.5 69.5t55.5 74t58.5 91t38.5 121.5t-6.5 131t-67.5 106t-134 70t-205 25q-132 0 -237 -33.5t-181.5 -99t-125.5 -158.5t-70 -213z" />
    <glyph glyph-name="agrave" unicode="&#xe0;" horiz-adv-x="1227" 
d="M379 -11q84 0 154.5 14.5t126 38.5t93 51t55.5 53l-5 -146h202l132 750q29 162 -15 259.5t-153.5 142.5t-276.5 45q-97 0 -185 -19t-162.5 -60t-131.5 -108t-92 -163l226 -64q30 91 78.5 146t110.5 79t134 24q85 0 141.5 -26.5t79 -86.5t5.5 -157l-10 -61h-384
q-65 0 -130.5 -9t-125 -32.5t-107.5 -64.5t-79 -105t-39 -155q-14 -137 25 -212t124.5 -104.5t208.5 -29.5zM458 146q-64 0 -110 16.5t-67 61.5t-13 129q6 67 30 109.5t61 65t82 31t94 8.5h324l-49 -280q-25 -35 -76 -67.5t-121 -53t-155 -20.5zM759 1238h115l-119 179h-168
z" />
    <glyph glyph-name="aacute" unicode="&#xe1;" horiz-adv-x="1227" 
d="M379 -11q84 0 154.5 14.5t126 38.5t93 51t55.5 53l-5 -146h202l132 750q29 162 -15 259.5t-153.5 142.5t-276.5 45q-97 0 -185 -19t-162.5 -60t-131.5 -108t-92 -163l226 -64q30 91 78.5 146t110.5 79t134 24q85 0 141.5 -26.5t79 -86.5t5.5 -157l-10 -61h-384
q-65 0 -130.5 -9t-125 -32.5t-107.5 -64.5t-79 -105t-39 -155q-14 -137 25 -212t124.5 -104.5t208.5 -29.5zM458 146q-64 0 -110 16.5t-67 61.5t-13 129q6 67 30 109.5t61 65t82 31t94 8.5h324l-49 -280q-25 -35 -76 -67.5t-121 -53t-155 -20.5zM551 1228h121l235 179h-174z
" />
    <glyph glyph-name="acircumflex" unicode="&#xe2;" horiz-adv-x="1227" 
d="M379 -11q84 0 154.5 14.5t126 38.5t93 51t55.5 53l-5 -146h202l132 750q29 162 -15 259.5t-153.5 142.5t-276.5 45q-97 0 -185 -19t-162.5 -60t-131.5 -108t-92 -163l226 -64q30 91 78.5 146t110.5 79t134 24q85 0 141.5 -26.5t79 -86.5t5.5 -157l-10 -61h-384
q-65 0 -130.5 -9t-125 -32.5t-107.5 -64.5t-79 -105t-39 -155q-14 -137 25 -212t124.5 -104.5t208.5 -29.5zM458 146q-64 0 -110 16.5t-67 61.5t-13 129q6 67 30 109.5t61 65t82 31t94 8.5h324l-49 -280q-25 -35 -76 -67.5t-121 -53t-155 -20.5zM431 1237h145l164 132
l117 -132h145l-175 186h-158z" />
    <glyph glyph-name="atilde" unicode="&#xe3;" horiz-adv-x="1227" 
d="M379 -11q84 0 154.5 14.5t126 38.5t93 51t55.5 53l-5 -146h202l132 750q29 162 -15 259.5t-153.5 142.5t-276.5 45q-97 0 -185 -19t-162.5 -60t-131.5 -108t-92 -163l226 -64q30 91 78.5 146t110.5 79t134 24q85 0 141.5 -26.5t79 -86.5t5.5 -157l-10 -61h-384
q-65 0 -130.5 -9t-125 -32.5t-107.5 -64.5t-79 -105t-39 -155q-14 -137 25 -212t124.5 -104.5t208.5 -29.5zM458 146q-64 0 -110 16.5t-67 61.5t-13 129q6 67 30 109.5t61 65t82 31t94 8.5h324l-49 -280q-25 -35 -76 -67.5t-121 -53t-155 -20.5zM835 1261q57 0 96 18t63 45
t36.5 54t16.5 44h-120q-3 -11 -14.5 -26.5t-30 -26t-43.5 -10.5q-30 0 -51 10.5t-40 25.5t-43.5 26t-64.5 11q-56 0 -95.5 -17.5t-64 -44t-37.5 -52.5t-18 -45h121q4 12 14 27t29 25.5t47 10.5q27 0 46 -11.5t39 -26.5t46.5 -26t67.5 -11z" />
    <glyph glyph-name="adieresis" unicode="&#xe4;" horiz-adv-x="1227" 
d="M379 -11q84 0 154.5 14.5t126 38.5t93 51t55.5 53l-5 -146h202l132 750q29 162 -15 259.5t-153.5 142.5t-276.5 45q-97 0 -185 -19t-162.5 -60t-131.5 -108t-92 -163l226 -64q30 91 78.5 146t110.5 79t134 24q85 0 141.5 -26.5t79 -86.5t5.5 -157l-10 -61h-384
q-65 0 -130.5 -9t-125 -32.5t-107.5 -64.5t-79 -105t-39 -155q-14 -137 25 -212t124.5 -104.5t208.5 -29.5zM458 146q-64 0 -110 16.5t-67 61.5t-13 129q6 67 30 109.5t61 65t82 31t94 8.5h324l-49 -280q-25 -35 -76 -67.5t-121 -53t-155 -20.5zM550 1253q34 0 62 26t28 62
q0 29 -19.5 48.5t-48.5 19.5q-34 0 -62 -26t-28 -63q0 -29 18.5 -48t49.5 -19zM884 1253q35 0 62.5 26t27.5 62q0 29 -18.5 48.5t-48.5 19.5q-35 0 -62.5 -26t-27.5 -63q0 -29 19 -48t48 -19z" />
    <glyph glyph-name="aring" unicode="&#xe5;" horiz-adv-x="1227" 
d="M379 -11q84 0 154.5 14.5t126 38.5t93 51t55.5 53l-5 -146h202l132 750q29 162 -15 259.5t-153.5 142.5t-276.5 45q-97 0 -185 -19t-162.5 -60t-131.5 -108t-92 -163l226 -64q30 91 78.5 146t110.5 79t134 24q85 0 141.5 -26.5t79 -86.5t5.5 -157l-10 -61h-384
q-65 0 -130.5 -9t-125 -32.5t-107.5 -64.5t-79 -105t-39 -155q-14 -137 25 -212t124.5 -104.5t208.5 -29.5zM458 146q-64 0 -110 16.5t-67 61.5t-13 129q6 67 30 109.5t61 65t82 31t94 8.5h324l-49 -280q-25 -35 -76 -67.5t-121 -53t-155 -20.5zM718 1224q38 0 71.5 18.5
t55 49t26.5 68.5q10 58 -24 96.5t-91 38.5q-39 0 -71.5 -17.5t-54 -48t-28.5 -69.5q-8 -57 25.5 -96.5t90.5 -39.5zM730 1313q-17 0 -28.5 14t-9.5 33q4 20 19 32.5t32 12.5q19 0 30.5 -12.5t7.5 -32.5q-2 -19 -17 -33t-34 -14z" />
    <glyph glyph-name="ae" unicode="&#xe6;" horiz-adv-x="2021" 
d="M1020 280l78 439q39 222 -48 349.5t-352 127.5q-270 0 -391 -107t-180 -271l220 -65q45 155 123 220.5t204 65.5q123 0 177 -74t27 -231l-73 -418l30 -25zM381 -11q238 0 382 84.5t187 282.5l-125 70q-30 -167 -122 -227.5t-231 -60.5q-136 0 -176 50.5t-28 134.5
q16 107 80 149t212 42h292l24 139h-369q-215 0 -337.5 -70.5t-152.5 -259.5q-26 -165 65 -249.5t299 -84.5zM1291 -10l28 158q-145 0 -208 102q-64 100 -23 344q43 257 146 351q102 94 239 94q140 0 203 -89q50 -81 23 -280h-622l-26 -148h863q11 34 18 75q51 292 -43 447
q-95 153 -389 153q-285 0 -440 -153q-156 -153 -206 -449q-47 -283 48 -444t389 -161zM1319 148l-28 -158q159 0 265 38q105 37 186 119q79 81 118 201l-206 60q-32 -80 -77 -144q-45 -63 -109 -90q-65 -26 -149 -26z" />
    <glyph glyph-name="ccedilla" unicode="&#xe7;" horiz-adv-x="1182" 
d="M494 -10q262 0 392.5 132t166.5 268l-202 76q-28 -130 -115.5 -219t-215.5 -89q-126 0 -184 96.5t-34 310.5q27 267 129 364.5t240 97.5q128 0 183.5 -83t40.5 -229l228 73q10 152 -77 280t-350 128q-298 0 -456 -159t-184 -483q-23 -262 64.5 -413t373.5 -151zM454 -314
q50 0 99 10t90.5 30t69 49.5t33.5 67.5q9 53 -23.5 78.5t-91.5 25.5q-46 0 -88.5 -13.5t-64.5 -31.5l-11 -45q18 10 42 17t45 7q25 0 38 -8t9 -27q-5 -24 -37 -39.5t-90 -15.5q-36 0 -67.5 5t-53.5 11l-53 -103q36 -8 75.5 -13t78.5 -5zM467 -143l75 143h-101l-62 -131z" />
    <glyph glyph-name="egrave" unicode="&#xe8;" horiz-adv-x="1237" 
d="M506 -10l28 158q-144 0 -207 102q-65 100 -23 344q43 257 145 351t239 94q140 0 203 -89q50 -81 23 -280h-621l-26 -148h863q10 34 17 75q51 292 -43 447q-95 153 -388 153q-285 0 -441 -153q-155 -153 -206 -449q-47 -283 49 -444q95 -161 388 -161zM534 148l-28 -158
q159 0 266 38q105 37 185 119q79 81 119 201l-207 60q-32 -80 -76 -144q-45 -63 -109 -90q-66 -26 -150 -26zM770 1238h115l-119 179h-168z" />
    <glyph glyph-name="eacute" unicode="&#xe9;" horiz-adv-x="1237" 
d="M506 -10l28 158q-144 0 -207 102q-65 100 -23 344q43 257 145 351t239 94q140 0 203 -89q50 -81 23 -280h-621l-26 -148h863q10 34 17 75q51 292 -43 447q-95 153 -388 153q-285 0 -441 -153q-155 -153 -206 -449q-47 -283 49 -444q95 -161 388 -161zM534 148l-28 -158
q159 0 266 38q105 37 185 119q79 81 119 201l-207 60q-32 -80 -76 -144q-45 -63 -109 -90q-66 -26 -150 -26zM562 1228h121l235 179h-174z" />
    <glyph glyph-name="ecircumflex" unicode="&#xea;" horiz-adv-x="1237" 
d="M506 -10l28 158q-144 0 -207 102q-65 100 -23 344q43 257 145 351t239 94q140 0 203 -89q50 -81 23 -280h-621l-26 -148h863q10 34 17 75q51 292 -43 447q-95 153 -388 153q-285 0 -441 -153q-155 -153 -206 -449q-47 -283 49 -444q95 -161 388 -161zM534 148l-28 -158
q159 0 266 38q105 37 185 119q79 81 119 201l-207 60q-32 -80 -76 -144q-45 -63 -109 -90q-66 -26 -150 -26zM440 1237h145l164 132l117 -132h145l-175 186h-158z" />
    <glyph glyph-name="edieresis" unicode="&#xeb;" horiz-adv-x="1237" 
d="M506 -10l28 158q-144 0 -207 102q-65 100 -23 344q43 257 145 351t239 94q140 0 203 -89q50 -81 23 -280h-621l-26 -148h863q10 34 17 75q51 292 -43 447q-95 153 -388 153q-285 0 -441 -153q-155 -153 -206 -449q-47 -283 49 -444q95 -161 388 -161zM534 148l-28 -158
q159 0 266 38q105 37 185 119q79 81 119 201l-207 60q-32 -80 -76 -144q-45 -63 -109 -90q-66 -26 -150 -26zM560 1253q34 0 62 26t28 62q0 29 -19.5 48.5t-48.5 19.5q-34 0 -62 -26t-28 -63q0 -29 18.5 -48t49.5 -19zM894 1253q35 0 62.5 26t27.5 62q0 29 -18.5 48.5
t-48.5 19.5q-35 0 -62.5 -26t-27.5 -63q0 -29 19 -48t48 -19z" />
    <glyph glyph-name="igrave" unicode="&#xec;" horiz-adv-x="483" 
d="M-5 0h243l209 1185h-243zM380 1238h115l-119 179h-168z" />
    <glyph glyph-name="iacute" unicode="&#xed;" horiz-adv-x="483" 
d="M-5 0h243l209 1185h-243zM172 1228h121l235 179h-174z" />
    <glyph glyph-name="icircumflex" unicode="&#xee;" horiz-adv-x="483" 
d="M-5 0h243l209 1185h-243zM51 1237h145l164 132l117 -132h145l-175 186h-158z" />
    <glyph glyph-name="idieresis" unicode="&#xef;" horiz-adv-x="483" 
d="M-5 0h243l209 1185h-243zM171 1253q34 0 62 26t28 62q0 29 -19.5 48.5t-48.5 19.5q-34 0 -62 -26t-28 -63q0 -29 18.5 -48t49.5 -19zM505 1253q35 0 62.5 26t27.5 62q0 29 -18.5 48.5t-48.5 19.5q-35 0 -62.5 -26t-27.5 -63q0 -29 19 -48t48 -19z" />
    <glyph glyph-name="eth" unicode="&#xf0;" horiz-adv-x="1238" 
d="M496 -9q294 0 437 157t195 448q45 262 -64 430t-374 168q-295 0 -436.5 -156t-184.5 -444q-43 -287 45 -445t382 -158zM521 160q-141 0 -195.5 97t-15.5 337q41 241 133 339t233 98t197 -98t12 -339q-42 -242 -132 -338t-232 -96zM1143 684q15 82 15 164.5t-16 156.5
t-53 130q-17 113 -62 192t-117.5 129.5t-172 76t-226.5 31.5l-75 -143q121 -2 215.5 -22t162 -63t105 -115.5t44 -182.5t-20.5 -263zM683 1291l199 289l-124 25l-203 -289z" />
    <glyph glyph-name="ntilde" unicode="&#xf1;" horiz-adv-x="1207" 
d="M-17 0h242l170 970l-13 216h-189zM734 0h242l116 665q43 246 -19.5 388.5t-274.5 142.5q-218 0 -377 -135.5t-186 -284.5l106 -67q24 139 122 229t218 90q117 0 161.5 -81t8.5 -285zM839 1274q57 0 96 18t63 45t36.5 54t16.5 44h-120q-3 -11 -14.5 -26.5t-30 -26
t-43.5 -10.5q-30 0 -51 10.5t-40 25.5t-43.5 26t-64.5 11q-56 0 -95.5 -17.5t-64 -44t-37.5 -52.5t-18 -45h121q4 12 14 27t29 25.5t47 10.5q27 0 46 -11.5t39 -26.5t46.5 -26t67.5 -11z" />
    <glyph glyph-name="ograve" unicode="&#xf2;" horiz-adv-x="1242" 
d="M500 -9q282 0 442 150t207 455q46 302 -56.5 452t-385.5 150t-443 -148.5t-206 -453.5q-46 -301 56.5 -453t385.5 -152zM526 157q-132 0 -199 91.5t-28 346.5q41 254 145 345.5t236 91.5q133 0 200 -91t27 -346q-40 -254 -144.5 -346t-236.5 -92zM760 1238h115l-119 179
h-168z" />
    <glyph glyph-name="oacute" unicode="&#xf3;" horiz-adv-x="1242" 
d="M500 -9q282 0 442 150t207 455q46 302 -56.5 452t-385.5 150t-443 -148.5t-206 -453.5q-46 -301 56.5 -453t385.5 -152zM526 157q-132 0 -199 91.5t-28 346.5q41 254 145 345.5t236 91.5q133 0 200 -91t27 -346q-40 -254 -144.5 -346t-236.5 -92zM552 1228h121l235 179
h-174z" />
    <glyph glyph-name="ocircumflex" unicode="&#xf4;" horiz-adv-x="1242" 
d="M500 -9q282 0 442 150t207 455q46 302 -56.5 452t-385.5 150t-443 -148.5t-206 -453.5q-46 -301 56.5 -453t385.5 -152zM526 157q-132 0 -199 91.5t-28 346.5q41 254 145 345.5t236 91.5q133 0 200 -91t27 -346q-40 -254 -144.5 -346t-236.5 -92zM431 1237h145l164 132
l117 -132h145l-175 186h-158z" />
    <glyph glyph-name="otilde" unicode="&#xf5;" horiz-adv-x="1242" 
d="M500 -9q282 0 442 150t207 455q46 302 -56.5 452t-385.5 150t-443 -148.5t-206 -453.5q-46 -301 56.5 -453t385.5 -152zM526 157q-132 0 -199 91.5t-28 346.5q41 254 145 345.5t236 91.5q133 0 200 -91t27 -346q-40 -254 -144.5 -346t-236.5 -92zM835 1261q57 0 96 18
t63 45t36.5 54t16.5 44h-120q-3 -11 -14.5 -26.5t-30 -26t-43.5 -10.5q-30 0 -51 10.5t-40 25.5t-43.5 26t-64.5 11q-56 0 -95.5 -17.5t-64 -44t-37.5 -52.5t-18 -45h121q4 12 14 27t29 25.5t47 10.5q27 0 46 -11.5t39 -26.5t46.5 -26t67.5 -11z" />
    <glyph glyph-name="odieresis" unicode="&#xf6;" horiz-adv-x="1242" 
d="M500 -9q282 0 442 150t207 455q46 302 -56.5 452t-385.5 150t-443 -148.5t-206 -453.5q-46 -301 56.5 -453t385.5 -152zM526 157q-132 0 -199 91.5t-28 346.5q41 254 145 345.5t236 91.5q133 0 200 -91t27 -346q-40 -254 -144.5 -346t-236.5 -92zM551 1253q34 0 62 26
t28 62q0 29 -19.5 48.5t-48.5 19.5q-34 0 -62 -26t-28 -63q0 -29 18.5 -48t49.5 -19zM885 1253q35 0 62.5 26t27.5 62q0 29 -18.5 48.5t-48.5 19.5q-35 0 -62.5 -26t-27.5 -63q0 -29 19 -48t48 -19z" />
    <glyph glyph-name="divide" unicode="&#xf7;" horiz-adv-x="505" 
d="M9 405h428l27 146h-429zM176 56q32 0 56 20.5t29 51.5q9 42 -14 72t-62 30q-34 0 -59.5 -19.5t-30.5 -48.5q-7 -44 15.5 -75t65.5 -31zM295 729q32 0 56.5 20.5t29.5 51.5q8 42 -14 71.5t-63 29.5q-34 0 -59.5 -19t-30.5 -48q-8 -44 15 -75t66 -31z" />
    <glyph glyph-name="oslash" unicode="&#xf8;" horiz-adv-x="1238" 
d="M-97 7l68 -64l1327 1246l-72 58zM500 -9q282 0 442 150t207 455q46 302 -56.5 452t-385.5 150t-443 -148.5t-206 -453.5q-46 -301 56.5 -453t385.5 -152zM526 157q-132 0 -199 91.5t-28 346.5q41 254 145 345.5t236 91.5q133 0 200 -91t27 -346q-40 -254 -144.5 -346
t-236.5 -92z" />
    <glyph glyph-name="ugrave" unicode="&#xf9;" horiz-adv-x="1209" 
d="M789 0h187l208 1185h-241l-173 -980zM426 1186h-241l-118 -672q-43 -245 17.5 -384.5t276.5 -139.5q228 0 383 136t181 284l-107 63q-24 -139 -123.5 -227t-219.5 -88q-118 0 -160 81t-5 285zM748 1238h115l-119 179h-168z" />
    <glyph glyph-name="uacute" unicode="&#xfa;" horiz-adv-x="1209" 
d="M789 0h187l208 1185h-241l-173 -980zM426 1186h-241l-118 -672q-43 -245 17.5 -384.5t276.5 -139.5q228 0 383 136t181 284l-107 63q-24 -139 -123.5 -227t-219.5 -88q-118 0 -160 81t-5 285zM540 1228h121l235 179h-174z" />
    <glyph glyph-name="ucircumflex" unicode="&#xfb;" horiz-adv-x="1209" 
d="M789 0h187l208 1185h-241l-173 -980zM426 1186h-241l-118 -672q-43 -245 17.5 -384.5t276.5 -139.5q228 0 383 136t181 284l-107 63q-24 -139 -123.5 -227t-219.5 -88q-118 0 -160 81t-5 285zM419 1237h145l164 132l117 -132h145l-175 186h-158z" />
    <glyph glyph-name="udieresis" unicode="&#xfc;" horiz-adv-x="1209" 
d="M789 0h187l208 1185h-241l-173 -980zM426 1186h-241l-118 -672q-43 -245 17.5 -384.5t276.5 -139.5q228 0 383 136t181 284l-107 63q-24 -139 -123.5 -227t-219.5 -88q-118 0 -160 81t-5 285zM540 1253q34 0 62 26t28 62q0 29 -19.5 48.5t-48.5 19.5q-34 0 -62 -26
t-28 -63q0 -29 18.5 -48t49.5 -19zM874 1253q35 0 62.5 26t27.5 62q0 29 -18.5 48.5t-48.5 19.5q-35 0 -62.5 -26t-27.5 -63q0 -29 19 -48t48 -19z" />
    <glyph glyph-name="yacute" unicode="&#xfd;" horiz-adv-x="1113" 
d="M266 0h369l548 1185h-254l-450 -1022h-2l-94 1022h-252zM-100 -463q255 0 428 88.5t307 374.5l-225 1q-84 -181 -192.5 -239.5t-288.5 -58.5zM501 1228h121l235 179h-174z" />
    <glyph glyph-name="thorn" unicode="&#xfe;" horiz-adv-x="1239" 
d="M-87 -400h241l229 1294h-240zM-11 0h220l53 181l245 1389h-242zM608 -7q221 0 357.5 156t180.5 451q45 287 -30.5 441.5t-297.5 154.5q-200 0 -358 -98t-178 -208l85 -117q18 101 119 178t222 77q127 0 181 -91.5t13 -339.5q-42 -253 -131.5 -345.5t-216.5 -92.5
q-122 0 -195.5 77.5t-55.5 180.5l-126 -120q-19 -109 106 -206.5t325 -97.5z" />
    <glyph glyph-name="ydieresis" unicode="&#xff;" horiz-adv-x="1113" 
d="M266 0h369l548 1185h-254l-450 -1022h-2l-94 1022h-252zM-100 -463q255 0 428 88.5t307 374.5l-225 1q-84 -181 -192.5 -239.5t-288.5 -58.5zM501 1253q34 0 62 26t28 62q0 29 -19.5 48.5t-48.5 19.5q-34 0 -62 -26t-28 -63q0 -29 18.5 -48t49.5 -19zM835 1253
q35 0 62.5 26t27.5 62q0 29 -18.5 48.5t-48.5 19.5q-35 0 -62.5 -26t-27.5 -63q0 -29 19 -48t48 -19z" />
    <glyph glyph-name="Amacron" unicode="&#x100;" horiz-adv-x="1365" 
d="M-45 0h252l175 361h514l47 -361h252l-208 1352h-348zM452 524l335 684h3l94 -684h-432zM528 1447h618l16 92h-617z" />
    <glyph glyph-name="amacron" unicode="&#x101;" horiz-adv-x="1227" 
d="M379 -11q84 0 154.5 14.5t126 38.5t93 51t55.5 53l-5 -146h202l132 750q29 162 -15 259.5t-153.5 142.5t-276.5 45q-97 0 -185 -19t-162.5 -60t-131.5 -108t-92 -163l226 -64q30 91 78.5 146t110.5 79t134 24q85 0 141.5 -26.5t79 -86.5t5.5 -157l-10 -61h-384
q-65 0 -130.5 -9t-125 -32.5t-107.5 -64.5t-79 -105t-39 -155q-14 -137 25 -212t124.5 -104.5t208.5 -29.5zM458 146q-64 0 -110 16.5t-67 61.5t-13 129q6 67 30 109.5t61 65t82 31t94 8.5h324l-49 -280q-25 -35 -76 -67.5t-121 -53t-155 -20.5zM415 1283h618l16 92h-617z
" />
    <glyph glyph-name="Abreve" unicode="&#x102;" horiz-adv-x="1365" 
d="M-45 0h252l175 361h514l47 -361h252l-208 1352h-348zM452 524l335 684h3l94 -684h-432zM830 1410q69 0 121 24t84 62.5t40 84.5h-118q-5 -25 -17 -45t-35.5 -31t-60.5 -11q-33 0 -52 11.5t-26 30.5t-3 45h-118q-7 -46 12 -84.5t63 -62.5t110 -24z" />
    <glyph glyph-name="abreve" unicode="&#x103;" horiz-adv-x="1227" 
d="M379 -11q84 0 154.5 14.5t126 38.5t93 51t55.5 53l-5 -146h202l132 750q29 162 -15 259.5t-153.5 142.5t-276.5 45q-97 0 -185 -19t-162.5 -60t-131.5 -108t-92 -163l226 -64q30 91 78.5 146t110.5 79t134 24q85 0 141.5 -26.5t79 -86.5t5.5 -157l-10 -61h-384
q-65 0 -130.5 -9t-125 -32.5t-107.5 -64.5t-79 -105t-39 -155q-14 -137 25 -212t124.5 -104.5t208.5 -29.5zM458 146q-64 0 -110 16.5t-67 61.5t-13 129q6 67 30 109.5t61 65t82 31t94 8.5h324l-49 -280q-25 -35 -76 -67.5t-121 -53t-155 -20.5zM718 1246q69 0 121 24
t84 62.5t40 84.5h-118q-5 -25 -17 -45t-35.5 -31t-60.5 -11q-33 0 -52 11.5t-26 30.5t-3 45h-118q-7 -46 12 -84.5t63 -62.5t110 -24z" />
    <glyph glyph-name="Aogonek" unicode="&#x104;" horiz-adv-x="1365" 
d="M-45 0h252l175 361h514l47 -361h252l-208 1352h-348zM452 524l335 684h3l94 -684h-432zM1119 -336q39 0 75.5 4t64.5 10t38 10l18 121q-11 -4 -34.5 -10t-51.5 -10t-54 -4q-34 0 -50 12t-16 33q0 22 16 55.5t37 65.5t35 49h-120q-25 -24 -52.5 -63t-46 -83.5t-18.5 -84.5
q0 -39 22 -62t58.5 -33t78.5 -10z" />
    <glyph glyph-name="aogonek" unicode="&#x105;" horiz-adv-x="1227" 
d="M379 -11q84 0 154.5 14.5t126 38.5t93 51t55.5 53l-5 -146h202l132 750q29 162 -15 259.5t-153.5 142.5t-276.5 45q-97 0 -185 -19t-162.5 -60t-131.5 -108t-92 -163l226 -64q30 91 78.5 146t110.5 79t134 24q85 0 141.5 -26.5t79 -86.5t5.5 -157l-10 -61h-384
q-65 0 -130.5 -9t-125 -32.5t-107.5 -64.5t-79 -105t-39 -155q-14 -137 25 -212t124.5 -104.5t208.5 -29.5zM458 146q-64 0 -110 16.5t-67 61.5t-13 129q6 67 30 109.5t61 65t82 31t94 8.5h324l-49 -280q-25 -35 -76 -67.5t-121 -53t-155 -20.5zM927 -336q39 0 75.5 4
t64.5 10t38 10l18 121q-11 -4 -34.5 -10t-51.5 -10t-54 -4q-34 0 -50 12t-16 33q0 22 16 55.5t37 65.5t35 49h-120q-25 -24 -52.5 -63t-46 -83.5t-18.5 -84.5q0 -39 22 -62t58.5 -33t78.5 -10z" />
    <glyph glyph-name="Cacute" unicode="&#x106;" horiz-adv-x="1281" 
d="M526 -8q318 0 460 156t182 391h-246q-37 -211 -130 -295t-243 -84q-153 0 -219.5 97t-15.5 421q53 333 158 424t259 91q151 0 211.5 -79t27.5 -299h247q36 244 -52 395.5t-407 151.5t-476.5 -162.5t-214.5 -521.5q-56 -350 41.5 -518t417.5 -168zM577 1392h121l235 179
h-174z" />
    <glyph glyph-name="cacute" unicode="&#x107;" horiz-adv-x="1182" 
d="M494 -10q262 0 392.5 132t166.5 268l-202 76q-28 -130 -115.5 -219t-215.5 -89q-126 0 -184 96.5t-34 310.5q27 267 129 364.5t240 97.5q128 0 183.5 -83t40.5 -229l228 73q10 152 -77 280t-350 128q-298 0 -456 -159t-184 -483q-23 -262 64.5 -413t373.5 -151zM539 1228
h121l235 179h-174z" />
    <glyph glyph-name="Ccircumflex" unicode="&#x108;" horiz-adv-x="1281" 
d="M526 -8q318 0 460 156t182 391h-246q-37 -211 -130 -295t-243 -84q-153 0 -219.5 97t-15.5 421q53 333 158 424t259 91q151 0 211.5 -79t27.5 -299h247q36 244 -52 395.5t-407 151.5t-476.5 -162.5t-214.5 -521.5q-56 -350 41.5 -518t417.5 -168zM456 1401h145l164 132
l117 -132h145l-175 186h-158z" />
    <glyph glyph-name="ccircumflex" unicode="&#x109;" horiz-adv-x="1182" 
d="M494 -10q262 0 392.5 132t166.5 268l-202 76q-28 -130 -115.5 -219t-215.5 -89q-126 0 -184 96.5t-34 310.5q27 267 129 364.5t240 97.5q128 0 183.5 -83t40.5 -229l228 73q10 152 -77 280t-350 128q-298 0 -456 -159t-184 -483q-23 -262 64.5 -413t373.5 -151zM418 1237
h145l164 132l117 -132h145l-175 186h-158z" />
    <glyph glyph-name="Cdotaccent" unicode="&#x10a;" horiz-adv-x="1281" 
d="M526 -8q318 0 460 156t182 391h-246q-37 -211 -130 -295t-243 -84q-153 0 -219.5 97t-15.5 421q53 333 158 424t259 91q151 0 211.5 -79t27.5 -299h247q36 244 -52 395.5t-407 151.5t-476.5 -162.5t-214.5 -521.5q-56 -350 41.5 -518t417.5 -168zM760 1407q34 0 57.5 24
t23.5 57t-24 56t-56 23q-33 0 -56.5 -23t-23.5 -56q0 -34 23 -57.5t56 -23.5z" />
    <glyph glyph-name="cdotaccent" unicode="&#x10b;" horiz-adv-x="1182" 
d="M494 -10q262 0 392.5 132t166.5 268l-202 76q-28 -130 -115.5 -219t-215.5 -89q-126 0 -184 96.5t-34 310.5q27 267 129 364.5t240 97.5q128 0 183.5 -83t40.5 -229l228 73q10 152 -77 280t-350 128q-298 0 -456 -159t-184 -483q-23 -262 64.5 -413t373.5 -151zM722 1243
q34 0 57.5 24t23.5 57t-24 56t-56 23q-33 0 -56.5 -23t-23.5 -56q0 -34 23 -57.5t56 -23.5z" />
    <glyph glyph-name="Ccaron" unicode="&#x10c;" horiz-adv-x="1281" 
d="M526 -8q318 0 460 156t182 391h-246q-37 -211 -130 -295t-243 -84q-153 0 -219.5 97t-15.5 421q53 333 158 424t259 91q151 0 211.5 -79t27.5 -299h247q36 244 -52 395.5t-407 151.5t-476.5 -162.5t-214.5 -521.5q-56 -350 41.5 -518t417.5 -168zM664 1396h157l239 186
h-147l-161 -131l-120 131h-143z" />
    <glyph glyph-name="ccaron" unicode="&#x10d;" horiz-adv-x="1182" 
d="M494 -10q262 0 392.5 132t166.5 268l-202 76q-28 -130 -115.5 -219t-215.5 -89q-126 0 -184 96.5t-34 310.5q27 267 129 364.5t240 97.5q128 0 183.5 -83t40.5 -229l228 73q10 152 -77 280t-350 128q-298 0 -456 -159t-184 -483q-23 -262 64.5 -413t373.5 -151zM626 1232
h157l239 186h-147l-161 -131l-120 131h-143z" />
    <glyph glyph-name="Dcaron" unicode="&#x10e;" horiz-adv-x="1261" 
d="M-21 0h609q263 0 401 145.5t198 530.5q58 375 -25 524.5t-346 149.5h-599zM253 168l178 1014h294q156 0 214 -91t4 -415q-56 -330 -148.5 -419t-247.5 -89h-294zM667 1396h157l239 186h-147l-161 -131l-120 131h-143z" />
    <glyph glyph-name="dcaron" unicode="&#x10f;" horiz-adv-x="1392" 
d="M1297 1258h151l115 312h-164zM782 0h224l276 1570h-240l-244 -1389zM393 -7q200 0 356 97.5t176 206.5l-85 120q-18 -102 -118 -180t-221 -78q-122 0 -176 87.5t-25 322.5q30 266 123 362.5t231 96.5q122 0 194 -77t55 -178l125 117q20 110 -104.5 208t-323.5 98
q-238 0 -378.5 -166t-166.5 -484q-25 -260 50.5 -406.5t287.5 -146.5z" />
    <glyph glyph-name="Dcroat" unicode="&#x110;" horiz-adv-x="1298" 
d="M-32 596h578l25 161h-577zM17 0h608q264 0 402 145.5t198 530.5q58 375 -25.5 524.5t-346.5 149.5h-598zM290 168l178 1014h295q155 0 213.5 -91t3.5 -415q-55 -330 -147.5 -419t-248.5 -89h-294z" />
    <glyph glyph-name="dcroat" unicode="&#x111;" horiz-adv-x="1229" 
d="M670 1332h696l21 118h-696zM782 0h224l276 1570h-240l-244 -1389zM393 -7q200 0 356 97.5t176 206.5l-85 120q-18 -102 -118 -180t-221 -78q-122 0 -176 87.5t-25 322.5q30 266 123 362.5t231 96.5q122 0 194 -77t55 -178l125 117q20 110 -104.5 208t-323.5 98
q-238 0 -378.5 -166t-166.5 -484q-25 -260 50.5 -406.5t287.5 -146.5z" />
    <glyph glyph-name="Emacron" unicode="&#x112;" horiz-adv-x="1105" 
d="M-29 0h920l30 168h-676l77 440h634l29 161h-634l72 413h676l30 168h-920zM370 1447h618l16 92h-617z" />
    <glyph glyph-name="emacron" unicode="&#x113;" horiz-adv-x="1237" 
d="M506 -10l28 158q-144 0 -207 102q-65 100 -23 344q43 257 145 351t239 94q140 0 203 -89q50 -81 23 -280h-621l-26 -148h863q10 34 17 75q51 292 -43 447q-95 153 -388 153q-285 0 -441 -153q-155 -153 -206 -449q-47 -283 49 -444q95 -161 388 -161zM534 148l-28 -158
q159 0 266 38q105 37 185 119q79 81 119 201l-207 60q-32 -80 -76 -144q-45 -63 -109 -90q-66 -26 -150 -26zM426 1283h618l16 92h-617z" />
    <glyph glyph-name="Ebreve" unicode="&#x114;" horiz-adv-x="1105" 
d="M-29 0h920l30 168h-676l77 440h634l29 161h-634l72 413h676l30 168h-920zM672 1410q69 0 121 24t84 62.5t40 84.5h-118q-5 -25 -17 -45t-35.5 -31t-60.5 -11q-33 0 -52 11.5t-26 30.5t-3 45h-118q-7 -46 12 -84.5t63 -62.5t110 -24z" />
    <glyph glyph-name="ebreve" unicode="&#x115;" horiz-adv-x="1237" 
d="M506 -10l28 158q-144 0 -207 102q-65 100 -23 344q43 257 145 351t239 94q140 0 203 -89q50 -81 23 -280h-621l-26 -148h863q10 34 17 75q51 292 -43 447q-95 153 -388 153q-285 0 -441 -153q-155 -153 -206 -449q-47 -283 49 -444q95 -161 388 -161zM534 148l-28 -158
q159 0 266 38q105 37 185 119q79 81 119 201l-207 60q-32 -80 -76 -144q-45 -63 -109 -90q-66 -26 -150 -26zM728 1246q69 0 121 24t84 62.5t40 84.5h-118q-5 -25 -17 -45t-35.5 -31t-60.5 -11q-33 0 -52 11.5t-26 30.5t-3 45h-118q-7 -46 12 -84.5t63 -62.5t110 -24z" />
    <glyph glyph-name="Edotaccent" unicode="&#x116;" horiz-adv-x="1105" 
d="M-29 0h920l30 168h-676l77 440h634l29 161h-634l72 413h676l30 168h-920zM688 1407q34 0 57.5 24t23.5 57t-24 56t-56 23q-33 0 -56.5 -23t-23.5 -56q0 -34 23 -57.5t56 -23.5z" />
    <glyph glyph-name="edotaccent" unicode="&#x117;" horiz-adv-x="1237" 
d="M506 -10l28 158q-144 0 -207 102q-65 100 -23 344q43 257 145 351t239 94q140 0 203 -89q50 -81 23 -280h-621l-26 -148h863q10 34 17 75q51 292 -43 447q-95 153 -388 153q-285 0 -441 -153q-155 -153 -206 -449q-47 -283 49 -444q95 -161 388 -161zM534 148l-28 -158
q159 0 266 38q105 37 185 119q79 81 119 201l-207 60q-32 -80 -76 -144q-45 -63 -109 -90q-66 -26 -150 -26zM744 1243q34 0 57.5 24t23.5 57t-24 56t-56 23q-33 0 -56.5 -23t-23.5 -56q0 -34 23 -57.5t56 -23.5z" />
    <glyph glyph-name="Eogonek" unicode="&#x118;" horiz-adv-x="1105" 
d="M-29 0h920l30 168h-676l77 440h634l29 161h-634l72 413h676l30 168h-920zM498 -336q39 0 75.5 4t64.5 10t38 10l18 121q-11 -4 -34.5 -10t-51.5 -10t-54 -4q-34 0 -50 12t-16 33q0 22 16 55.5t37 65.5t35 49h-120q-25 -24 -52.5 -63t-46 -83.5t-18.5 -84.5q0 -39 22 -62
t58.5 -33t78.5 -10z" />
    <glyph glyph-name="eogonek" unicode="&#x119;" horiz-adv-x="1237" 
d="M506 -10l28 158q-144 0 -207 102q-65 100 -23 344q43 257 145 351t239 94q140 0 203 -89q50 -81 23 -280h-621l-26 -148h863q10 34 17 75q51 292 -43 447q-95 153 -388 153q-285 0 -441 -153q-155 -153 -206 -449q-47 -283 49 -444q95 -161 388 -161zM534 148l-28 -158
q159 0 266 38q105 37 185 119q79 81 119 201l-207 60q-32 -80 -76 -144q-45 -63 -109 -90q-66 -26 -150 -26zM793 -280q39 0 75.5 4t64.5 10t38 10l18 121q-11 -4 -34.5 -10t-51.5 -10t-54 -4q-34 0 -50 12t-16 33q0 22 16 55.5t37 65.5t35 49h-120q-25 -24 -52.5 -63
t-46 -83.5t-18.5 -84.5q0 -39 22 -62t58.5 -33t78.5 -10z" />
    <glyph glyph-name="Ecaron" unicode="&#x11a;" horiz-adv-x="1105" 
d="M-29 0h920l30 168h-676l77 440h634l29 161h-634l72 413h676l30 168h-920zM593 1396h157l239 186h-147l-161 -131l-120 131h-143z" />
    <glyph glyph-name="ecaron" unicode="&#x11b;" horiz-adv-x="1237" 
d="M506 -10l28 158q-144 0 -207 102q-65 100 -23 344q43 257 145 351t239 94q140 0 203 -89q50 -81 23 -280h-621l-26 -148h863q10 34 17 75q51 292 -43 447q-95 153 -388 153q-285 0 -441 -153q-155 -153 -206 -449q-47 -283 49 -444q95 -161 388 -161zM534 148l-28 -158
q159 0 266 38q105 37 185 119q79 81 119 201l-207 60q-32 -80 -76 -144q-45 -63 -109 -90q-66 -26 -150 -26zM649 1232h157l239 186h-147l-161 -131l-120 131h-143z" />
    <glyph glyph-name="Gcircumflex" unicode="&#x11c;" horiz-adv-x="1305" 
d="M505 -8q325 0 436 204l-9 -196h141l117 668h-526l-26 -147h274l-15 -86q-32 -146 -112.5 -210.5t-231.5 -64.5q-161 0 -220.5 105t-15.5 404q51 332 154 428.5t263 96.5q155 0 212 -81.5t31 -264.5h244q33 213 -63.5 363.5t-399.5 150.5q-322 0 -478.5 -164.5
t-206.5 -520.5q-49 -348 39 -516.5t393 -168.5zM488 1401h145l164 132l117 -132h145l-175 186h-158z" />
    <glyph glyph-name="gcircumflex" unicode="&#x11d;" horiz-adv-x="1244" 
d="M397 -466q163 0 280.5 45.5t209.5 157t126 306.5l202 1142h-178l-107 -240l-163 -925q-34 -200 -122 -265.5t-214 -65.5q-76 0 -131 25t-79 77.5t-18 139.5h-236q-19 -218 105 -307.5t325 -89.5zM389 -7q201 0 357.5 95.5t176.5 207.5l-86 121q-17 -102 -117 -180
t-221 -78q-128 0 -183.5 91t-13.5 344q43 253 133 343.5t217 90.5q121 0 193.5 -77t54.5 -178l126 111q19 110 -104 211t-323 101q-221 0 -358.5 -151.5t-182.5 -449.5q-45 -297 32.5 -449.5t298.5 -152.5zM433 1237h145l164 132l117 -132h145l-175 186h-158z" />
    <glyph glyph-name="Gbreve" unicode="&#x11e;" horiz-adv-x="1305" 
d="M505 -8q325 0 436 204l-9 -196h141l117 668h-526l-26 -147h274l-15 -86q-32 -146 -112.5 -210.5t-231.5 -64.5q-161 0 -220.5 105t-15.5 404q51 332 154 428.5t263 96.5q155 0 212 -81.5t31 -264.5h244q33 213 -63.5 363.5t-399.5 150.5q-322 0 -478.5 -164.5
t-206.5 -520.5q-49 -348 39 -516.5t393 -168.5zM776 1410q69 0 121 24t84 62.5t40 84.5h-118q-5 -25 -17 -45t-35.5 -31t-60.5 -11q-33 0 -52 11.5t-26 30.5t-3 45h-118q-7 -46 12 -84.5t63 -62.5t110 -24z" />
    <glyph glyph-name="gbreve" unicode="&#x11f;" horiz-adv-x="1244" 
d="M397 -466q163 0 280.5 45.5t209.5 157t126 306.5l202 1142h-178l-107 -240l-163 -925q-34 -200 -122 -265.5t-214 -65.5q-76 0 -131 25t-79 77.5t-18 139.5h-236q-19 -218 105 -307.5t325 -89.5zM389 -7q201 0 357.5 95.5t176.5 207.5l-86 121q-17 -102 -117 -180
t-221 -78q-128 0 -183.5 91t-13.5 344q43 253 133 343.5t217 90.5q121 0 193.5 -77t54.5 -178l126 111q19 110 -104 211t-323 101q-221 0 -358.5 -151.5t-182.5 -449.5q-45 -297 32.5 -449.5t298.5 -152.5zM721 1246q69 0 121 24t84 62.5t40 84.5h-118q-5 -25 -17 -45
t-35.5 -31t-60.5 -11q-33 0 -52 11.5t-26 30.5t-3 45h-118q-7 -46 12 -84.5t63 -62.5t110 -24z" />
    <glyph glyph-name="Gdotaccent" unicode="&#x120;" horiz-adv-x="1305" 
d="M505 -8q325 0 436 204l-9 -196h141l117 668h-526l-26 -147h274l-15 -86q-32 -146 -112.5 -210.5t-231.5 -64.5q-161 0 -220.5 105t-15.5 404q51 332 154 428.5t263 96.5q155 0 212 -81.5t31 -264.5h244q33 213 -63.5 363.5t-399.5 150.5q-322 0 -478.5 -164.5
t-206.5 -520.5q-49 -348 39 -516.5t393 -168.5zM792 1407q34 0 57.5 24t23.5 57t-24 56t-56 23q-33 0 -56.5 -23t-23.5 -56q0 -34 23 -57.5t56 -23.5z" />
    <glyph glyph-name="gdotaccent" unicode="&#x121;" horiz-adv-x="1244" 
d="M397 -466q163 0 280.5 45.5t209.5 157t126 306.5l202 1142h-178l-107 -240l-163 -925q-34 -200 -122 -265.5t-214 -65.5q-76 0 -131 25t-79 77.5t-18 139.5h-236q-19 -218 105 -307.5t325 -89.5zM389 -7q201 0 357.5 95.5t176.5 207.5l-86 121q-17 -102 -117 -180
t-221 -78q-128 0 -183.5 91t-13.5 344q43 253 133 343.5t217 90.5q121 0 193.5 -77t54.5 -178l126 111q19 110 -104 211t-323 101q-221 0 -358.5 -151.5t-182.5 -449.5q-45 -297 32.5 -449.5t298.5 -152.5zM736 1243q34 0 57.5 24t23.5 57t-24 56t-56 23q-33 0 -56.5 -23
t-23.5 -56q0 -34 23 -57.5t56 -23.5z" />
    <glyph glyph-name="uni0122" unicode="&#x122;" horiz-adv-x="1305" 
d="M505 -8q325 0 436 204l-9 -196h141l117 668h-526l-26 -147h274l-15 -86q-32 -146 -112.5 -210.5t-231.5 -64.5q-161 0 -220.5 105t-15.5 404q51 332 154 428.5t263 96.5q155 0 212 -81.5t31 -264.5h244q33 213 -63.5 363.5t-399.5 150.5q-322 0 -478.5 -164.5
t-206.5 -520.5q-49 -348 39 -516.5t393 -168.5zM358 -301h88l167 230h-143z" />
    <glyph glyph-name="uni0123" unicode="&#x123;" horiz-adv-x="1244" 
d="M397 -466q163 0 280.5 45.5t209.5 157t126 306.5l202 1142h-178l-107 -240l-163 -925q-34 -200 -122 -265.5t-214 -65.5q-76 0 -131 25t-79 77.5t-18 139.5h-236q-19 -218 105 -307.5t325 -89.5zM389 -7q201 0 357.5 95.5t176.5 207.5l-86 121q-17 -102 -117 -180
t-221 -78q-128 0 -183.5 91t-13.5 344q43 253 133 343.5t217 90.5q121 0 193.5 -77t54.5 -178l126 111q19 110 -104 211t-323 101q-221 0 -358.5 -151.5t-182.5 -449.5q-45 -297 32.5 -449.5t298.5 -152.5zM634 1252h118l104 221h-72z" />
    <glyph glyph-name="Hcircumflex" unicode="&#x124;" horiz-adv-x="1275" 
d="M-21 0h245l106 604h574l-106 -604h244l238 1350h-244l-102 -578h-574l102 578h-244zM471 1401h145l164 132l117 -132h145l-175 186h-158z" />
    <glyph glyph-name="hcircumflex" unicode="&#x125;" horiz-adv-x="1214" 
d="M-17 0h242l278 1570h-242zM743 0h241l119 672q43 246 -21.5 385t-277.5 139q-217 0 -375.5 -135.5t-184.5 -284.5l106 -67q24 139 120.5 229t216.5 90q118 0 163.5 -81t9.5 -285zM476 1596h145l164 132l117 -132h145l-175 186h-158z" />
    <glyph glyph-name="Hbar" unicode="&#x126;" horiz-adv-x="1252" 
d="M108 1037h1187l17 92h-1188zM-12 0h244l107 604h574l-107 -604h244l238 1350h-244l-102 -578h-573l101 578h-244z" />
    <glyph glyph-name="hbar" unicode="&#x127;" horiz-adv-x="1193" 
d="M123 1332h696l21 118h-696zM-17 0h242l278 1570h-242zM743 0h241l119 672q43 246 -21.5 385t-277.5 139q-217 0 -375.5 -135.5t-184.5 -284.5l106 -67q24 139 120.5 229t216.5 90q118 0 163.5 -81t9.5 -285z" />
    <glyph glyph-name="Itilde" unicode="&#x128;" horiz-adv-x="553" 
d="M32 0h244l238 1350h-243zM533 1425q57 0 96 18t63 45t36.5 54t16.5 44h-120q-3 -11 -14.5 -26.5t-30 -26t-43.5 -10.5q-30 0 -51 10.5t-40 25.5t-43.5 26t-64.5 11q-56 0 -95.5 -17.5t-64 -44t-37.5 -52.5t-18 -45h121q4 12 14 27t29 25.5t47 10.5q27 0 46 -11.5
t39 -26.5t46.5 -26t67.5 -11z" />
    <glyph glyph-name="itilde" unicode="&#x129;" horiz-adv-x="483" 
d="M-5 0h243l209 1185h-243zM455 1261q57 0 96 18t63 45t36.5 54t16.5 44h-120q-3 -11 -14.5 -26.5t-30 -26t-43.5 -10.5q-30 0 -51 10.5t-40 25.5t-43.5 26t-64.5 11q-56 0 -95.5 -17.5t-64 -44t-37.5 -52.5t-18 -45h121q4 12 14 27t29 25.5t47 10.5q27 0 46 -11.5
t39 -26.5t46.5 -26t67.5 -11z" />
    <glyph glyph-name="Imacron" unicode="&#x12a;" horiz-adv-x="553" 
d="M32 0h244l238 1350h-243zM114 1447h618l16 92h-617z" />
    <glyph glyph-name="imacron" unicode="&#x12b;" horiz-adv-x="483" 
d="M133 1282h419l16 92h-419zM-5 0h243l209 1185h-243z" />
    <glyph glyph-name="Ibreve" unicode="&#x12c;" horiz-adv-x="553" 
d="M32 0h244l238 1350h-243zM415 1410q69 0 121 24t84 62.5t40 84.5h-118q-5 -25 -17 -45t-35.5 -31t-60.5 -11q-33 0 -52 11.5t-26 30.5t-3 45h-118q-7 -46 12 -84.5t63 -62.5t110 -24z" />
    <glyph glyph-name="ibreve" unicode="&#x12d;" horiz-adv-x="483" 
d="M-5 0h243l209 1185h-243zM338 1246q69 0 121 24t84 62.5t40 84.5h-118q-5 -25 -17 -45t-35.5 -31t-60.5 -11q-33 0 -52 11.5t-26 30.5t-3 45h-118q-7 -46 12 -84.5t63 -62.5t110 -24z" />
    <glyph glyph-name="Iogonek" unicode="&#x12e;" horiz-adv-x="553" 
d="M32 0h244l238 1350h-243zM198 -336q39 0 75.5 4t64.5 10t38 10l18 121q-11 -4 -34.5 -10t-51.5 -10t-54 -4q-34 0 -50 12t-16 33q0 22 16 55.5t37 65.5t35 49h-120q-25 -24 -52.5 -63t-46 -83.5t-18.5 -84.5q0 -39 22 -62t58.5 -33t78.5 -10z" />
    <glyph glyph-name="iogonek" unicode="&#x12f;" horiz-adv-x="483" 
d="M268 1519l-34 -195h241l34 195h-241zM-5 0h243l209 1185h-243zM161 -336q39 0 76.5 4t65 10t37.5 10l19 121q-12 -4 -36 -10t-52 -10t-53 -4q-34 0 -50.5 12t-16.5 33q0 22 16 55.5t37 65.5t37 49h-121q-25 -24 -52.5 -63t-46.5 -83.5t-19 -84.5q0 -39 22.5 -62t58.5 -33
t78 -10z" />
    <glyph glyph-name="Idotaccent" unicode="&#x130;" horiz-adv-x="553" 
d="M32 0h244l238 1350h-243zM432 1407q34 0 57.5 24t23.5 57t-24 56t-56 23q-33 0 -56.5 -23t-23.5 -56q0 -34 23 -57.5t56 -23.5z" />
    <glyph glyph-name="dotlessi" unicode="&#x131;" horiz-adv-x="483" 
d="M-5 0h243l209 1185h-243z" />
    <glyph glyph-name="IJ" unicode="&#x132;" horiz-adv-x="1786" 
d="M32 0h244l238 1350h-243zM1027 -11q260 0 403 100t179 306l169 955h-243l-163 -921q-25 -142 -100 -208t-223 -66q-149 0 -199 65.5t-25 204.5l33 183h-244l-37 -211q-38 -211 76.5 -309.5t373.5 -98.5z" />
    <glyph glyph-name="ij" unicode="&#x133;" horiz-adv-x="1045" 
d="M26 0h242l208 1186h-242zM294 1519l-35 -195h241l35 195h-241zM198 -460q253 0 402 96.5t195 364.5l210 1185h-241l-211 -1194q-29 -165 -110.5 -224t-213.5 -59zM822 1519l-35 -195h242l35 195h-242z" />
    <glyph glyph-name="Jcircumflex" unicode="&#x134;" horiz-adv-x="1234" 
d="M474 -11q260 0 403 100t179 306l169 955h-243l-163 -921q-25 -142 -100 -208t-223 -66q-149 0 -199 65.5t-25 204.5l33 183h-244l-37 -211q-38 -211 76.5 -309.5t373.5 -98.5zM829 1401h145l164 132l117 -132h145l-175 186h-158z" />
    <glyph glyph-name="jcircumflex" unicode="&#x135;" horiz-adv-x="529" 
d="M-318 -460q253 0 402 96.5t195 364.5l210 1185h-241l-211 -1194q-29 -165 -110.5 -224t-213.5 -59zM93 1237h145l164 132l117 -132h145l-175 186h-158z" />
    <glyph glyph-name="uni0136" unicode="&#x136;" horiz-adv-x="1171" 
d="M-21 0h243l107 609l404 -609h275l-445 672l684 678h-282l-612 -608l107 608h-243zM297 -301h88l167 230h-143z" />
    <glyph glyph-name="uni0137" unicode="&#x137;" horiz-adv-x="1164" 
d="M-16 0h242l67 388l228 196l208 -584h258l-270 749l462 437h-285l-551 -524l159 908h-242zM279 -301h88l167 230h-143z" />
    <glyph glyph-name="kgreenlandic" unicode="&#x138;" horiz-adv-x="1175" 
d="M-4 0h243l209 1186h-243zM296 587l270 1l668 598h-280zM753 0h274l-460 597l-263 2z" />
    <glyph glyph-name="Lacute" unicode="&#x139;" horiz-adv-x="997" 
d="M-21 0h823l30 167h-579l209 1183h-244zM481 1392h121l235 179h-174z" />
    <glyph glyph-name="lacute" unicode="&#x13a;" horiz-adv-x="496" 
d="M7 0h242l277 1570h-242zM254 1612h121l235 179h-174z" />
    <glyph glyph-name="uni013B" unicode="&#x13b;" horiz-adv-x="997" 
d="M-21 0h823l30 167h-579l209 1183h-244zM229 -301h88l167 230h-143z" />
    <glyph glyph-name="uni013C" unicode="&#x13c;" horiz-adv-x="496" 
d="M7 0h242l277 1570h-242zM-35 -301h88l167 230h-143z" />
    <glyph glyph-name="Lcaron" unicode="&#x13d;" horiz-adv-x="997" 
d="M845 1041h151l173 307h-163zM-21 0h823l30 167h-579l209 1183h-244z" />
    <glyph glyph-name="lcaron" unicode="&#x13e;" horiz-adv-x="496" 
d="M7 0h242l277 1570h-242zM340 1616h157l239 186h-147l-161 -131l-120 131h-143z" />
    <glyph glyph-name="Ldot" unicode="&#x13f;" horiz-adv-x="1058" 
d="M-21 0h823l30 167h-579l209 1183h-244zM631 798l-36 -204h227l36 204h-227z" />
    <glyph glyph-name="ldot" unicode="&#x140;" horiz-adv-x="720" 
d="M7 0h242l277 1570h-242zM473 788l-36 -204h227l36 204h-227z" />
    <glyph glyph-name="Lslash" unicode="&#x141;" horiz-adv-x="1050" 
d="M10 401l700 431l-39 122l-700 -431zM64 0h823l29 167h-579l210 1183h-245z" />
    <glyph glyph-name="lslash" unicode="&#x142;" horiz-adv-x="510" 
d="M-31 404l553 336l32 194l-552 -336zM36 0h242l277 1570h-242z" />
    <glyph glyph-name="Nacute" unicode="&#x143;" horiz-adv-x="1433" 
d="M-21 0h243l207 1175h3l388 -1175h381l238 1350h-243l-207 -1162h-4l-384 1162h-384zM681 1392h121l235 179h-174z" />
    <glyph glyph-name="nacute" unicode="&#x144;" horiz-adv-x="1207" 
d="M-17 0h242l170 970l-13 216h-189zM734 0h242l116 665q43 246 -19.5 388.5t-274.5 142.5q-218 0 -377 -135.5t-186 -284.5l106 -67q24 139 122 229t218 90q117 0 161.5 -81t8.5 -285zM555 1221h121l235 179h-174z" />
    <glyph glyph-name="uni0145" unicode="&#x145;" horiz-adv-x="1433" 
d="M-21 0h243l207 1175h3l388 -1175h381l238 1350h-243l-207 -1162h-4l-384 1162h-384zM430 -301h88l167 230h-143z" />
    <glyph glyph-name="uni0146" unicode="&#x146;" horiz-adv-x="1207" 
d="M-17 0h242l170 970l-13 216h-189zM734 0h242l116 665q43 246 -19.5 388.5t-274.5 142.5q-218 0 -377 -135.5t-186 -284.5l106 -67q24 139 122 229t218 90q117 0 161.5 -81t8.5 -285zM308 -300h88l167 230h-143z" />
    <glyph glyph-name="Ncaron" unicode="&#x147;" horiz-adv-x="1433" 
d="M-21 0h243l207 1175h3l388 -1175h381l238 1350h-243l-207 -1162h-4l-384 1162h-384zM768 1396h157l239 186h-147l-161 -131l-120 131h-143z" />
    <glyph glyph-name="ncaron" unicode="&#x148;" horiz-adv-x="1207" 
d="M-17 0h242l170 970l-13 216h-189zM734 0h242l116 665q43 246 -19.5 388.5t-274.5 142.5q-218 0 -377 -135.5t-186 -284.5l106 -67q24 139 122 229t218 90q117 0 161.5 -81t8.5 -285zM633 1225h157l239 186h-147l-161 -131l-120 131h-143z" />
    <glyph glyph-name="Eng" unicode="&#x14a;" horiz-adv-x="1435" 
d="M567 -448q100 0 189 20t164 57.5t133.5 92.5t96.5 124.5t53 153.5h-252q-9 -52 -31.5 -103t-62.5 -92.5t-104 -66t-157 -24.5zM-21 0h243l207 1175h3l388 -1175h381l238 1350h-243l-207 -1162h-4l-384 1162h-384z" />
    <glyph glyph-name="eng" unicode="&#x14b;" horiz-adv-x="1206" 
d="M389 -424q174 0 294.5 41.5t193 134t99.5 248.5h-242q-16 -94 -59 -153t-109 -88t-150 -29zM-17 0h242l170 970l-13 216h-189zM734 0h242l116 665q43 246 -19.5 388.5t-274.5 142.5q-218 0 -377 -135.5t-186 -284.5l106 -67q24 139 122 229t218 90q117 0 161.5 -81
t8.5 -285z" />
    <glyph glyph-name="Omacron" unicode="&#x14c;" horiz-adv-x="1340" 
d="M548 -10q317 0 490 166.5t228 518.5q54 351 -53 519t-423 168t-490 -167t-228 -520q-54 -351 53 -518t423 -167zM578 158q-159 0 -236 98.5t-27 418.5q53 323 170 420.5t275 97.5t236 -97.5t27 -420.5q-52 -320 -169.5 -418.5t-275.5 -98.5zM497 1447h618l16 92h-617z
" />
    <glyph glyph-name="omacron" unicode="&#x14d;" horiz-adv-x="1242" 
d="M500 -9q282 0 442 150t207 455q46 302 -56.5 452t-385.5 150t-443 -148.5t-206 -453.5q-46 -301 56.5 -453t385.5 -152zM526 157q-132 0 -199 91.5t-28 346.5q41 254 145 345.5t236 91.5q133 0 200 -91t27 -346q-40 -254 -144.5 -346t-236.5 -92zM416 1283h618l16 92
h-617z" />
    <glyph glyph-name="Obreve" unicode="&#x14e;" horiz-adv-x="1340" 
d="M548 -10q317 0 490 166.5t228 518.5q54 351 -53 519t-423 168t-490 -167t-228 -520q-54 -351 53 -518t423 -167zM578 158q-159 0 -236 98.5t-27 418.5q53 323 170 420.5t275 97.5t236 -97.5t27 -420.5q-52 -320 -169.5 -418.5t-275.5 -98.5zM798 1410q69 0 121 24
t84 62.5t40 84.5h-118q-5 -25 -17 -45t-35.5 -31t-60.5 -11q-33 0 -52 11.5t-26 30.5t-3 45h-118q-7 -46 12 -84.5t63 -62.5t110 -24z" />
    <glyph glyph-name="obreve" unicode="&#x14f;" horiz-adv-x="1242" 
d="M500 -9q282 0 442 150t207 455q46 302 -56.5 452t-385.5 150t-443 -148.5t-206 -453.5q-46 -301 56.5 -453t385.5 -152zM526 157q-132 0 -199 91.5t-28 346.5q41 254 145 345.5t236 91.5q133 0 200 -91t27 -346q-40 -254 -144.5 -346t-236.5 -92zM718 1246q69 0 121 24
t84 62.5t40 84.5h-118q-5 -25 -17 -45t-35.5 -31t-60.5 -11q-33 0 -52 11.5t-26 30.5t-3 45h-118q-7 -46 12 -84.5t63 -62.5t110 -24z" />
    <glyph glyph-name="Ohungarumlaut" unicode="&#x150;" horiz-adv-x="1340" 
d="M548 -10q317 0 490 166.5t228 518.5q54 351 -53 519t-423 168t-490 -167t-228 -520q-54 -351 53 -518t423 -167zM578 158q-159 0 -236 98.5t-27 418.5q53 323 170 420.5t275 97.5t236 -97.5t27 -420.5q-52 -320 -169.5 -418.5t-275.5 -98.5zM742 1421h116l205 160h-156z
M567 1421h116l199 160h-152z" />
    <glyph glyph-name="ohungarumlaut" unicode="&#x151;" horiz-adv-x="1242" 
d="M500 -9q282 0 442 150t207 455q46 302 -56.5 452t-385.5 150t-443 -148.5t-206 -453.5q-46 -301 56.5 -453t385.5 -152zM526 157q-132 0 -199 91.5t-28 346.5q41 254 145 345.5t236 91.5q133 0 200 -91t27 -346q-40 -254 -144.5 -346t-236.5 -92zM660 1257h116l205 160
h-156zM485 1257h116l199 160h-152z" />
    <glyph glyph-name="OE" unicode="&#x152;" horiz-adv-x="2040" 
d="M548 -10q317 0 490 166.5t228 518.5q54 351 -53 519t-423 168t-490 -167t-228 -520q-54 -351 53 -518t423 -167zM578 158q-159 0 -236 98.5t-27 418.5q53 323 170 420.5t275 97.5t236 -97.5t27 -420.5q-52 -320 -169.5 -418.5t-275.5 -98.5zM906 0h920l30 168h-676
l77 440h634l29 161h-634l72 413h676l30 168h-920z" />
    <glyph glyph-name="oe" unicode="&#x153;" horiz-adv-x="2075" 
d="M500 -9q282 0 442 150t207 455q46 302 -56.5 452t-385.5 150t-443 -148.5t-206 -453.5q-46 -301 56.5 -453t385.5 -152zM526 157q-132 0 -199 91.5t-28 346.5q41 254 145 345.5t236 91.5q133 0 200 -91t27 -346q-40 -254 -144.5 -346t-236.5 -92zM1344 -10l28 158
q-144 0 -207 102q-65 100 -23 344q43 257 145 351t239 94q140 0 203 -89q50 -81 23 -280h-621l-26 -148h863q10 34 17 75q51 292 -43 447q-95 153 -388 153q-285 0 -441 -153q-155 -153 -206 -449q-47 -283 49 -444q95 -161 388 -161zM1372 148l-28 -158q159 0 266 38
q105 37 185 119q79 81 119 201l-207 60q-32 -80 -76 -144q-45 -63 -109 -90q-66 -26 -150 -26z" />
    <glyph glyph-name="Racute" unicode="&#x154;" horiz-adv-x="1223" 
d="M-21 0h245l100 570h440q209 0 303 110.5t120 274.5q27 161 -22.5 278t-254.5 117h-693zM770 0h264l-182 648l-244 -13zM351 722l81 460h370q104 0 131 -62t8 -168q-18 -106 -68 -168t-152 -62h-370zM546 1392h121l235 179h-174z" />
    <glyph glyph-name="racute" unicode="&#x155;" horiz-adv-x="1178" 
d="M815 624h242q52 297 -4 434.5t-268 137.5q-203 0 -343.5 -109.5t-168.5 -266.5l84 -62q19 104 103.5 186.5t206.5 82.5q108 0 149 -82.5t-1 -320.5zM-17 0h241l170 963l-14 222h-188zM528 1228h121l235 179h-174z" />
    <glyph glyph-name="uni0156" unicode="&#x156;" horiz-adv-x="1223" 
d="M-21 0h245l100 570h440q209 0 303 110.5t120 274.5q27 161 -22.5 278t-254.5 117h-693zM770 0h264l-182 648l-244 -13zM351 722l81 460h370q104 0 131 -62t8 -168q-18 -106 -68 -168t-152 -62h-370zM295 -301h88l167 230h-143z" />
    <glyph glyph-name="uni0157" unicode="&#x157;" horiz-adv-x="1178" 
d="M815 624h242q52 297 -4 434.5t-268 137.5q-203 0 -343.5 -109.5t-168.5 -266.5l84 -62q19 104 103.5 186.5t206.5 82.5q108 0 149 -82.5t-1 -320.5zM-17 0h241l170 963l-14 222h-188zM236 -301h88l167 230h-143z" />
    <glyph glyph-name="Rcaron" unicode="&#x158;" horiz-adv-x="1223" 
d="M-21 0h245l100 570h440q209 0 303 110.5t120 274.5q27 161 -22.5 278t-254.5 117h-693zM770 0h264l-182 648l-244 -13zM351 722l81 460h370q104 0 131 -62t8 -168q-18 -106 -68 -168t-152 -62h-370zM633 1396h157l239 186h-147l-161 -131l-120 131h-143z" />
    <glyph glyph-name="rcaron" unicode="&#x159;" horiz-adv-x="1178" 
d="M815 624h242q52 297 -4 434.5t-268 137.5q-203 0 -343.5 -109.5t-168.5 -266.5l84 -62q19 104 103.5 186.5t206.5 82.5q108 0 149 -82.5t-1 -320.5zM-17 0h241l170 963l-14 222h-188zM615 1232h157l239 186h-147l-161 -131l-120 131h-143z" />
    <glyph glyph-name="Sacute" unicode="&#x15a;" horiz-adv-x="1259" 
d="M594 1483h121l235 179h-174zM504 -8q311 0 453.5 114.5t161.5 281.5q23 167 -65 238t-345 135q-179 44 -268.5 88.5t-73.5 155.5q12 87 105 137t239 50q142 0 211 -59t35 -269h245q41 246 -55 372t-407 126q-306 0 -453.5 -113t-161.5 -272q-18 -157 68.5 -239
t335.5 -143q175 -43 268 -86.5t75 -154.5q-14 -93 -105 -144t-236 -51q-147 0 -214 60.5t-31 277.5h-245q-45 -260 50 -382.5t413 -122.5z" />
    <glyph glyph-name="sacute" unicode="&#x15b;" horiz-adv-x="1207" 
d="M495 -9q221 0 377.5 83.5t179.5 251.5q25 174 -72 245.5t-302 109.5q-159 28 -246 62.5t-73 127.5q9 74 81 119t199 45q133 0 202 -62.5t67 -181.5l226 74q-1 179 -122.5 255t-344.5 76q-222 0 -373.5 -81t-172.5 -242q-25 -173 70 -247t286 -110q168 -35 258.5 -69
t75.5 -133q-9 -71 -83.5 -116.5t-206.5 -45.5q-140 0 -211 60t-68 196l-226 -75q5 -191 132 -266.5t347 -75.5zM526 1228h121l235 179h-174z" />
    <glyph glyph-name="Scircumflex" unicode="&#x15c;" horiz-adv-x="1259" 
d="M504 -8q311 0 453.5 114.5t161.5 281.5q23 167 -65 238t-345 135q-179 44 -268.5 88.5t-73.5 155.5q12 87 105 137t239 50q142 0 211 -59t35 -269h245q41 246 -55 372t-407 126q-306 0 -453.5 -113t-161.5 -272q-18 -157 68.5 -239t335.5 -143q175 -43 268 -86.5
t75 -154.5q-14 -93 -105 -144t-236 -51q-147 0 -214 60.5t-31 277.5h-245q-45 -260 50 -382.5t413 -122.5zM466 1400h145l164 132l117 -132h145l-175 186h-158z" />
    <glyph glyph-name="scircumflex" unicode="&#x15d;" horiz-adv-x="1207" 
d="M495 -9q221 0 377.5 83.5t179.5 251.5q25 174 -72 245.5t-302 109.5q-159 28 -246 62.5t-73 127.5q9 74 81 119t199 45q133 0 202 -62.5t67 -181.5l226 74q-1 179 -122.5 255t-344.5 76q-222 0 -373.5 -81t-172.5 -242q-25 -173 70 -247t286 -110q168 -35 258.5 -69
t75.5 -133q-9 -71 -83.5 -116.5t-206.5 -45.5q-140 0 -211 60t-68 196l-226 -75q5 -191 132 -266.5t347 -75.5zM405 1237h145l164 132l117 -132h145l-175 186h-158z" />
    <glyph glyph-name="Scedilla" unicode="&#x15e;" horiz-adv-x="1259" 
d="M453 -314q50 0 99 10t90.5 30t69 49.5t33.5 67.5q9 53 -23.5 78.5t-91.5 25.5q-46 0 -88.5 -13.5t-64.5 -31.5l-11 -45q18 10 42 17t45 7q25 0 38 -8t9 -27q-5 -24 -37 -39.5t-90 -15.5q-36 0 -67.5 5t-53.5 11l-53 -103q36 -8 75.5 -13t78.5 -5zM466 -143l75 143h-101
l-62 -131zM504 -8q311 0 453.5 114.5t161.5 281.5q23 167 -65 238t-345 135q-179 44 -268.5 88.5t-73.5 155.5q12 87 105 137t239 50q142 0 211 -59t35 -269h245q41 246 -55 372t-407 126q-306 0 -453.5 -113t-161.5 -272q-18 -157 68.5 -239t335.5 -143q175 -43 268 -86.5
t75 -154.5q-14 -93 -105 -144t-236 -51q-147 0 -214 60.5t-31 277.5h-245q-45 -260 50 -382.5t413 -122.5z" />
    <glyph glyph-name="scedilla" unicode="&#x15f;" horiz-adv-x="1207" 
d="M495 -9q221 0 377.5 83.5t179.5 251.5q25 174 -72 245.5t-302 109.5q-159 28 -246 62.5t-73 127.5q9 74 81 119t199 45q133 0 202 -62.5t67 -181.5l226 74q-1 179 -122.5 255t-344.5 76q-222 0 -373.5 -81t-172.5 -242q-25 -173 70 -247t286 -110q168 -35 258.5 -69
t75.5 -133q-9 -71 -83.5 -116.5t-206.5 -45.5q-140 0 -211 60t-68 196l-226 -75q5 -191 132 -266.5t347 -75.5zM442 -314q50 0 99 10t90.5 30t69 49.5t33.5 67.5q9 53 -23.5 78.5t-91.5 25.5q-46 0 -88.5 -13.5t-64.5 -31.5l-11 -45q18 10 42 17t45 7q25 0 38 -8t9 -27
q-5 -24 -37 -39.5t-90 -15.5q-36 0 -67.5 5t-53.5 11l-53 -103q36 -8 75.5 -13t78.5 -5zM455 -143l75 143h-101l-62 -131z" />
    <glyph glyph-name="Scaron" unicode="&#x160;" horiz-adv-x="1258" 
d="M645 1477h157l239 186h-147l-161 -131l-120 131h-143zM504 -8q311 0 453.5 114.5t161.5 281.5q23 167 -65 238t-345 135q-179 44 -268.5 88.5t-73.5 155.5q12 87 105 137t239 50q142 0 211 -59t35 -269h245q41 246 -55 372t-407 126q-306 0 -453.5 -113t-161.5 -272
q-18 -157 68.5 -239t335.5 -143q175 -43 268 -86.5t75 -154.5q-14 -93 -105 -144t-236 -51q-147 0 -214 60.5t-31 277.5h-245q-45 -260 50 -382.5t413 -122.5z" />
    <glyph glyph-name="scaron" unicode="&#x161;" horiz-adv-x="1207" 
d="M495 -9q221 0 377.5 83.5t179.5 251.5q25 174 -72 245.5t-302 109.5q-159 28 -246 62.5t-73 127.5q9 74 81 119t199 45q133 0 202 -62.5t67 -181.5l226 74q-1 179 -122.5 255t-344.5 76q-222 0 -373.5 -81t-172.5 -242q-25 -173 70 -247t286 -110q168 -35 258.5 -69
t75.5 -133q-9 -71 -83.5 -116.5t-206.5 -45.5q-140 0 -211 60t-68 196l-226 -75q5 -191 132 -266.5t347 -75.5zM612 1232h157l239 186h-147l-161 -131l-120 131h-143z" />
    <glyph glyph-name="uni0162" unicode="&#x162;" horiz-adv-x="1206" 
d="M357 0h245l208 1182h409l30 168h-1065l-29 -168h410zM450 -314q50 0 99 10t90.5 30t69 49.5t33.5 67.5q9 53 -23.5 78.5t-91.5 25.5q-46 0 -88.5 -13.5t-64.5 -31.5l-11 -45q18 10 42 17t45 7q25 0 38 -8t9 -27q-5 -24 -37 -39.5t-90 -15.5q-36 0 -67.5 5t-53.5 11
l-53 -103q36 -8 75.5 -13t78.5 -5zM463 -143l75 143h-101l-62 -131z" />
    <glyph glyph-name="uni0163" unicode="&#x163;" horiz-adv-x="1018" 
d="M519 -14q117 0 228 26l29 162q-75 -24 -149 -24q-79 0 -116 34t-19 139l123 694h383l30 168h-383l47 269h-242l-47 -269h-275l-30 -168h276l-133 -749q-28 -161 55.5 -221.5t222.5 -60.5zM444 -314q50 0 99 10t90.5 30t69 49.5t33.5 67.5q9 53 -23.5 78.5t-91.5 25.5
q-46 0 -88.5 -13.5t-64.5 -31.5l-11 -45q18 10 42 17t45 7q25 0 38 -8t9 -27q-5 -24 -37 -39.5t-90 -15.5q-36 0 -67.5 5t-53.5 11l-53 -103q36 -8 75.5 -13t78.5 -5zM457 -143l75 143h-101l-62 -131z" />
    <glyph glyph-name="Tcaron" unicode="&#x164;" horiz-adv-x="1206" 
d="M357 0h245l208 1182h409l30 168h-1065l-29 -168h410zM653 1396h157l239 186h-147l-161 -131l-120 131h-143z" />
    <glyph glyph-name="tcaron" unicode="&#x165;" horiz-adv-x="1110" 
d="M1050 1210h114l92 240h-128zM519 -14q117 0 228 26l29 162q-75 -24 -149 -24q-79 0 -116 34t-19 139l123 694h383l30 168h-383l47 269h-242l-47 -269h-275l-30 -168h276l-133 -749q-28 -161 55.5 -221.5t222.5 -60.5z" />
    <glyph glyph-name="Tbar" unicode="&#x166;" horiz-adv-x="1207" 
d="M186 744h867l26 146h-866zM357 0h245l208 1182h409l30 168h-1065l-29 -168h410z" />
    <glyph glyph-name="tbar" unicode="&#x167;" horiz-adv-x="1001" 
d="M78 573h686l23 131h-686zM519 -14q117 0 228 26l29 162q-75 -24 -149 -24q-79 0 -116 34t-19 139l123 694h383l30 168h-383l47 269h-242l-47 -269h-275l-30 -168h276l-133 -749q-28 -161 55.5 -221.5t222.5 -60.5z" />
    <glyph glyph-name="Utilde" unicode="&#x168;" horiz-adv-x="1324" 
d="M534 -8q275 0 432.5 100.5t199.5 336.5l161 921h-244l-157 -892q-29 -164 -114.5 -231t-247.5 -67q-161 0 -223 67.5t-33 230.5l157 892h-244l-162 -921q-42 -236 79.5 -336.5t395.5 -100.5zM918 1425q57 0 96 18t63 45t36.5 54t16.5 44h-120q-3 -11 -14.5 -26.5t-30 -26
t-43.5 -10.5q-30 0 -51 10.5t-40 25.5t-43.5 26t-64.5 11q-56 0 -95.5 -17.5t-64 -44t-37.5 -52.5t-18 -45h121q4 12 14 27t29 25.5t47 10.5q27 0 46 -11.5t39 -26.5t46.5 -26t67.5 -11z" />
    <glyph glyph-name="utilde" unicode="&#x169;" horiz-adv-x="1209" 
d="M789 0h187l208 1185h-241l-173 -980zM426 1186h-241l-118 -672q-43 -245 17.5 -384.5t276.5 -139.5q228 0 383 136t181 284l-107 63q-24 -139 -123.5 -227t-219.5 -88q-118 0 -160 81t-5 285zM824 1261q57 0 96 18t63 45t36.5 54t16.5 44h-120q-3 -11 -14.5 -26.5
t-30 -26t-43.5 -10.5q-30 0 -51 10.5t-40 25.5t-43.5 26t-64.5 11q-56 0 -95.5 -17.5t-64 -44t-37.5 -52.5t-18 -45h121q4 12 14 27t29 25.5t47 10.5q27 0 46 -11.5t39 -26.5t46.5 -26t67.5 -11z" />
    <glyph glyph-name="Umacron" unicode="&#x16a;" horiz-adv-x="1324" 
d="M534 -8q275 0 432.5 100.5t199.5 336.5l161 921h-244l-157 -892q-29 -164 -114.5 -231t-247.5 -67q-161 0 -223 67.5t-33 230.5l157 892h-244l-162 -921q-42 -236 79.5 -336.5t395.5 -100.5zM499 1447h618l16 92h-617z" />
    <glyph glyph-name="umacron" unicode="&#x16b;" horiz-adv-x="1209" 
d="M789 0h187l208 1185h-241l-173 -980zM426 1186h-241l-118 -672q-43 -245 17.5 -384.5t276.5 -139.5q228 0 383 136t181 284l-107 63q-24 -139 -123.5 -227t-219.5 -88q-118 0 -160 81t-5 285zM405 1283h618l16 92h-617z" />
    <glyph glyph-name="Ubreve" unicode="&#x16c;" horiz-adv-x="1324" 
d="M534 -8q275 0 432.5 100.5t199.5 336.5l161 921h-244l-157 -892q-29 -164 -114.5 -231t-247.5 -67q-161 0 -223 67.5t-33 230.5l157 892h-244l-162 -921q-42 -236 79.5 -336.5t395.5 -100.5zM801 1410q69 0 121 24t84 62.5t40 84.5h-118q-5 -25 -17 -45t-35.5 -31
t-60.5 -11q-33 0 -52 11.5t-26 30.5t-3 45h-118q-7 -46 12 -84.5t63 -62.5t110 -24z" />
    <glyph glyph-name="ubreve" unicode="&#x16d;" horiz-adv-x="1209" 
d="M789 0h187l208 1185h-241l-173 -980zM426 1186h-241l-118 -672q-43 -245 17.5 -384.5t276.5 -139.5q228 0 383 136t181 284l-107 63q-24 -139 -123.5 -227t-219.5 -88q-118 0 -160 81t-5 285zM707 1246q69 0 121 24t84 62.5t40 84.5h-118q-5 -25 -17 -45t-35.5 -31
t-60.5 -11q-33 0 -52 11.5t-26 30.5t-3 45h-118q-7 -46 12 -84.5t63 -62.5t110 -24z" />
    <glyph glyph-name="Uring" unicode="&#x16e;" horiz-adv-x="1324" 
d="M534 -8q275 0 432.5 100.5t199.5 336.5l161 921h-244l-157 -892q-29 -164 -114.5 -231t-247.5 -67q-161 0 -223 67.5t-33 230.5l157 892h-244l-162 -921q-42 -236 79.5 -336.5t395.5 -100.5zM801 1388q38 0 71.5 18.5t55 49t26.5 68.5q10 58 -24 96.5t-91 38.5
q-39 0 -71.5 -17.5t-54 -48t-28.5 -69.5q-8 -57 25.5 -96.5t90.5 -39.5zM813 1477q-17 0 -28.5 14t-9.5 33q4 20 19 32.5t32 12.5q19 0 30.5 -12.5t7.5 -32.5q-2 -19 -17 -33t-34 -14z" />
    <glyph glyph-name="uring" unicode="&#x16f;" horiz-adv-x="1209" 
d="M789 0h187l208 1185h-241l-173 -980zM426 1186h-241l-118 -672q-43 -245 17.5 -384.5t276.5 -139.5q228 0 383 136t181 284l-107 63q-24 -139 -123.5 -227t-219.5 -88q-118 0 -160 81t-5 285zM707 1224q38 0 71.5 18.5t55 49t26.5 68.5q10 58 -24 96.5t-91 38.5
q-39 0 -71.5 -17.5t-54 -48t-28.5 -69.5q-8 -57 25.5 -96.5t90.5 -39.5zM719 1313q-17 0 -28.5 14t-9.5 33q4 20 19 32.5t32 12.5q19 0 30.5 -12.5t7.5 -32.5q-2 -19 -17 -33t-34 -14z" />
    <glyph glyph-name="Uhungarumlaut" unicode="&#x170;" horiz-adv-x="1324" 
d="M534 -8q275 0 432.5 100.5t199.5 336.5l161 921h-244l-157 -892q-29 -164 -114.5 -231t-247.5 -67q-161 0 -223 67.5t-33 230.5l157 892h-244l-162 -921q-42 -236 79.5 -336.5t395.5 -100.5zM744 1421h116l205 160h-156zM569 1421h116l199 160h-152z" />
    <glyph glyph-name="uhungarumlaut" unicode="&#x171;" horiz-adv-x="1209" 
d="M789 0h187l208 1185h-241l-173 -980zM426 1186h-241l-118 -672q-43 -245 17.5 -384.5t276.5 -139.5q228 0 383 136t181 284l-107 63q-24 -139 -123.5 -227t-219.5 -88q-118 0 -160 81t-5 285zM649 1257h116l205 160h-156zM474 1257h116l199 160h-152z" />
    <glyph glyph-name="Uogonek" unicode="&#x172;" horiz-adv-x="1324" 
d="M534 -8q275 0 432.5 100.5t199.5 336.5l161 921h-244l-157 -892q-29 -164 -114.5 -231t-247.5 -67q-161 0 -223 67.5t-33 230.5l157 892h-244l-162 -921q-42 -236 79.5 -336.5t395.5 -100.5zM465 -336q39 0 75.5 4t64.5 10t38 10l18 121q-11 -4 -34.5 -10t-51.5 -10
t-54 -4q-34 0 -50 12t-16 33q0 22 16 55.5t37 65.5t35 49h-120q-25 -24 -52.5 -63t-46 -83.5t-18.5 -84.5q0 -39 22 -62t58.5 -33t78.5 -10z" />
    <glyph glyph-name="uogonek" unicode="&#x173;" horiz-adv-x="1209" 
d="M789 0h187l208 1185h-241l-173 -980zM426 1186h-241l-118 -672q-43 -245 17.5 -384.5t276.5 -139.5q228 0 383 136t181 284l-107 63q-24 -139 -123.5 -227t-219.5 -88q-118 0 -160 81t-5 285zM898 -336q39 0 75.5 4t64.5 10t38 10l18 121q-11 -4 -34.5 -10t-51.5 -10
t-54 -4q-34 0 -50 12t-16 33q0 22 16 55.5t37 65.5t35 49h-120q-25 -24 -52.5 -63t-46 -83.5t-18.5 -84.5q0 -39 22 -62t58.5 -33t78.5 -10z" />
    <glyph glyph-name="Wcircumflex" unicode="&#x174;" horiz-adv-x="1886" 
d="M202 0h373l453 1182h3l33 -1182h375l501 1350h-268l-405 -1170h-3l-48 1170h-323l-460 -1170h-3l11 1170h-259zM789 1401h145l164 132l117 -132h145l-175 186h-158z" />
    <glyph glyph-name="wcircumflex" unicode="&#x175;" horiz-adv-x="1709" 
d="M204 0h327l373 944l45 -944h324l459 1185h-254l-349 -1022h-2l-59 1022h-245l-419 -1024h-3l6 1024h-247zM674 1237h145l164 132l117 -132h145l-175 186h-158z" />
    <glyph glyph-name="Ycircumflex" unicode="&#x176;" horiz-adv-x="1305" 
d="M405 0h244l92 524l635 826h-269l-455 -629h-2l-236 629h-262l344 -828zM503 1401h145l164 132l117 -132h145l-175 186h-158z" />
    <glyph glyph-name="ycircumflex" unicode="&#x177;" horiz-adv-x="1113" 
d="M266 0h369l548 1185h-254l-450 -1022h-2l-94 1022h-252zM-100 -463q255 0 428 88.5t307 374.5l-225 1q-84 -181 -192.5 -239.5t-288.5 -58.5zM381 1237h145l164 132l117 -132h145l-175 186h-158z" />
    <glyph glyph-name="Ydieresis" unicode="&#x178;" horiz-adv-x="1305" 
d="M405 0h244l92 524l635 826h-269l-455 -629h-2l-236 629h-262l344 -828zM623 1417q34 0 62 26t28 62q0 29 -19.5 48.5t-48.5 19.5q-34 0 -62 -26t-28 -63q0 -29 18.5 -48t49.5 -19zM957 1417q35 0 62.5 26t27.5 62q0 29 -18.5 48.5t-48.5 19.5q-35 0 -62.5 -26t-27.5 -63
q0 -29 19 -48t48 -19z" />
    <glyph glyph-name="Zacute" unicode="&#x179;" horiz-adv-x="1124" 
d="M-40 0h960l30 168h-688l839 1014l31 168h-923l-29 -167h650l-839 -1008zM522 1392h121l235 179h-174z" />
    <glyph glyph-name="zacute" unicode="&#x17a;" horiz-adv-x="1017" 
d="M-35 0h856l29 167h-567l1 4l706 847l30 167h-840l-29 -167h560l-1 -2l-715 -848zM445 1228h121l235 179h-174z" />
    <glyph glyph-name="Zdotaccent" unicode="&#x17b;" horiz-adv-x="1124" 
d="M-40 0h960l30 168h-688l839 1014l31 168h-923l-29 -167h650l-839 -1008zM705 1407q34 0 57.5 24t23.5 57t-24 56t-56 23q-33 0 -56.5 -23t-23.5 -56q0 -34 23 -57.5t56 -23.5z" />
    <glyph glyph-name="zdotaccent" unicode="&#x17c;" horiz-adv-x="1017" 
d="M-35 0h856l29 167h-567l1 4l706 847l30 167h-840l-29 -167h560l-1 -2l-715 -848zM627 1243q34 0 57.5 24t23.5 57t-24 56t-56 23q-33 0 -56.5 -23t-23.5 -56q0 -34 23 -57.5t56 -23.5z" />
    <glyph glyph-name="Zcaron" unicode="&#x17d;" horiz-adv-x="1124" 
d="M-40 0h960l30 168h-688l839 1014l31 168h-923l-29 -167h650l-839 -1008zM609 1396h157l239 186h-147l-161 -131l-120 131h-143z" />
    <glyph glyph-name="zcaron" unicode="&#x17e;" horiz-adv-x="1017" 
d="M-35 0h856l29 167h-567l1 4l706 847l30 167h-840l-29 -167h560l-1 -2l-715 -848zM532 1232h157l239 186h-147l-161 -131l-120 131h-143z" />
    <glyph glyph-name="uni018F" unicode="&#x18f;" horiz-adv-x="1222" 
d="M489 -10v0q284 0 441 164q156 164 220 523q61 348 -35 516q-97 169 -391 169l-27 -160q155 0 214 -112q57 -112 4 -416q-58 -326 -158 -426q-99 -100 -242 -100q-134 0 -198 95q-60 92 -18 355h626l27 151h-863q-10 -33 -18 -77q-62 -353 31 -517q93 -165 387 -165z
M362 938v0q17 64 50 113.5t78.5 82.5t98 50.5t108.5 17.5l32 94l-5 66q-79 0 -153 -14t-139.5 -41.5t-120 -70t-94 -99.5t-59.5 -129z" />
    <glyph glyph-name="florin" unicode="&#x192;" horiz-adv-x="1001" 
d="M-423 -423h119q148 0 261.5 34t190 105.5t113.5 182.5l351 1119h394l57 167h-394l22 74q28 79 107.5 118.5t209.5 39.5h133l53 156h-134q-162 0 -284 -32.5t-204 -101t-120 -177.5l-23 -77h-244l-56 -167h242l-350 -1116q-28 -86 -96 -127.5t-178 -41.5h-115z" />
    <glyph glyph-name="Ohorn" unicode="&#x1a0;" horiz-adv-x="1340" 
d="M548 -10q317 0 490 166.5t228 518.5q54 351 -53 519t-423 168t-490 -167t-228 -520q-54 -351 53 -518t423 -167zM578 158q-159 0 -236 98.5t-27 418.5q53 323 170 420.5t275 97.5t236 -97.5t27 -420.5q-52 -320 -169.5 -418.5t-275.5 -98.5zM1171 1213l-14 -82
q119 0 204 26t136 80t65 137h-141q-10 -58 -37.5 -93.5t-78.5 -51.5t-134 -16z" />
    <glyph glyph-name="ohorn" unicode="&#x1a1;" horiz-adv-x="1242" 
d="M500 -9q282 0 442 150t207 455q46 302 -56.5 452t-385.5 150t-443 -148.5t-206 -453.5q-46 -301 56.5 -453t385.5 -152zM526 157q-132 0 -199 91.5t-28 346.5q41 254 145 345.5t236 91.5q133 0 200 -91t27 -346q-40 -254 -144.5 -346t-236.5 -92zM1052 1066l-14 -82
q119 0 204 26t136 80t65 137h-141q-10 -58 -37.5 -93.5t-78.5 -51.5t-134 -16z" />
    <glyph glyph-name="Uhorn" unicode="&#x1af;" horiz-adv-x="1324" 
d="M534 -8q275 0 432.5 100.5t199.5 336.5l161 921h-244l-157 -892q-29 -164 -114.5 -231t-247.5 -67q-161 0 -223 67.5t-33 230.5l157 892h-244l-162 -921q-42 -236 79.5 -336.5t395.5 -100.5zM1302 1235l-14 -82q119 0 204 26t136 80t65 137h-141q-10 -58 -37.5 -93.5
t-78.5 -51.5t-134 -16z" />
    <glyph glyph-name="uhorn" unicode="&#x1b0;" horiz-adv-x="1209" 
d="M789 0h187l208 1185h-241l-173 -980zM426 1186h-241l-118 -672q-43 -245 17.5 -384.5t276.5 -139.5q228 0 383 136t181 284l-107 63q-24 -139 -123.5 -227t-219.5 -88q-118 0 -160 81t-5 285zM1183 1186l-14 -82q119 0 204 26t136 80t65 137h-141q-10 -58 -37.5 -93.5
t-78.5 -51.5t-134 -16z" />
    <glyph glyph-name="uni01C4" unicode="&#x1c4;" horiz-adv-x="2384" 
d="M-21 0h609q263 0 401 145.5t198 530.5q58 375 -25 524.5t-346 149.5h-599zM253 168l178 1014h294q156 0 214 -91t4 -415q-56 -330 -148.5 -419t-247.5 -89h-294zM1221 0h960l30 168h-688l839 1014l31 168h-923l-29 -167h650l-839 -1008zM1869 1396h157l239 186h-147
l-161 -131l-120 131h-143z" />
    <glyph glyph-name="uni01C5" unicode="&#x1c5;" horiz-adv-x="2278" 
d="M-21 0h609q263 0 401 145.5t198 530.5q58 375 -25 524.5t-346 149.5h-599zM253 168l178 1014h294q156 0 214 -91t4 -415q-56 -330 -148.5 -419t-247.5 -89h-294zM1226 0h856l29 167h-567l1 4l706 847l30 167h-840l-29 -167h560l-1 -2l-715 -848zM1791 1232h157l239 186
h-147l-161 -131l-120 131h-143z" />
    <glyph glyph-name="uni01C6" unicode="&#x1c6;" horiz-adv-x="2242" 
d="M782 0h224l276 1570h-240l-244 -1389zM393 -7q200 0 356 97.5t176 206.5l-85 120q-18 -102 -118 -180t-221 -78q-122 0 -176 87.5t-25 322.5q30 266 123 362.5t231 96.5q122 0 194 -77t55 -178l125 117q20 110 -104.5 208t-323.5 98q-238 0 -378.5 -166t-166.5 -484
q-25 -260 50.5 -406.5t287.5 -146.5zM1190 0h856l29 167h-567l1 4l706 847l30 167h-840l-29 -167h560l-1 -2l-715 -848zM1755 1232h157l239 186h-147l-161 -131l-120 131h-143z" />
    <glyph glyph-name="uni01C7" unicode="&#x1c7;" horiz-adv-x="2229" 
d="M-21 0h823l30 167h-579l209 1183h-244zM1471 -11q260 0 403 100t179 306l169 955h-243l-163 -921q-25 -142 -100 -208t-223 -66q-149 0 -199 65.5t-25 204.5l33 183h-244l-37 -211q-38 -211 76.5 -309.5t373.5 -98.5z" />
    <glyph glyph-name="uni01C8" unicode="&#x1c8;" horiz-adv-x="1526" 
d="M-21 0h823l30 167h-579l209 1183h-244zM679 -460q253 0 402 96.5t195 364.5l210 1185h-241l-211 -1194q-29 -165 -110.5 -224t-213.5 -59zM1303 1519l-35 -195h242l35 195h-242z" />
    <glyph glyph-name="uni01C9" unicode="&#x1c9;" horiz-adv-x="1024" 
d="M7 0h242l277 1570h-242zM178 -460q253 0 402 96.5t195 364.5l210 1185h-241l-211 -1194q-29 -165 -110.5 -224t-213.5 -59zM802 1519l-35 -195h242l35 195h-242z" />
    <glyph glyph-name="uni01CA" unicode="&#x1ca;" horiz-adv-x="2667" 
d="M-21 0h243l207 1175h3l388 -1175h381l238 1350h-243l-207 -1162h-4l-384 1162h-384zM1907 -11q260 0 403 100t179 306l169 955h-243l-163 -921q-25 -142 -100 -208t-223 -66q-149 0 -199 65.5t-25 204.5l33 183h-244l-37 -211q-38 -211 76.5 -309.5t373.5 -98.5z" />
    <glyph glyph-name="uni01CB" unicode="&#x1cb;" horiz-adv-x="1962" 
d="M-21 0h243l207 1175h3l388 -1175h381l238 1350h-243l-207 -1162h-4l-384 1162h-384zM1115 -460q253 0 402 96.5t195 364.5l210 1185h-241l-211 -1194q-29 -165 -110.5 -224t-213.5 -59zM1739 1519l-35 -195h242l35 195h-242z" />
    <glyph glyph-name="uni01CC" unicode="&#x1cc;" horiz-adv-x="1734" 
d="M-17 0h242l170 970l-13 216h-189zM734 0h242l116 665q43 246 -19.5 388.5t-274.5 142.5q-218 0 -377 -135.5t-186 -284.5l106 -67q24 139 122 229t218 90q117 0 161.5 -81t8.5 -285zM888 -460q253 0 402 96.5t195 364.5l210 1185h-241l-211 -1194q-29 -165 -110.5 -224
t-213.5 -59zM1512 1519l-35 -195h242l35 195h-242z" />
    <glyph glyph-name="uni01CD" unicode="&#x1cd;" horiz-adv-x="1365" 
d="M-45 0h252l175 361h514l47 -361h252l-208 1352h-348zM452 524l335 684h3l94 -684h-432zM750 1396h157l239 186h-147l-161 -131l-120 131h-143z" />
    <glyph glyph-name="uni01CE" unicode="&#x1ce;" horiz-adv-x="1227" 
d="M379 -11q84 0 154.5 14.5t126 38.5t93 51t55.5 53l-5 -146h202l132 750q29 162 -15 259.5t-153.5 142.5t-276.5 45q-97 0 -185 -19t-162.5 -60t-131.5 -108t-92 -163l226 -64q30 91 78.5 146t110.5 79t134 24q85 0 141.5 -26.5t79 -86.5t5.5 -157l-10 -61h-384
q-65 0 -130.5 -9t-125 -32.5t-107.5 -64.5t-79 -105t-39 -155q-14 -137 25 -212t124.5 -104.5t208.5 -29.5zM458 146q-64 0 -110 16.5t-67 61.5t-13 129q6 67 30 109.5t61 65t82 31t94 8.5h324l-49 -280q-25 -35 -76 -67.5t-121 -53t-155 -20.5zM638 1232h157l239 186h-147
l-161 -131l-120 131h-143z" />
    <glyph glyph-name="uni01CF" unicode="&#x1cf;" horiz-adv-x="553" 
d="M32 0h244l238 1350h-243zM336 1396h157l239 186h-147l-161 -131l-120 131h-143z" />
    <glyph glyph-name="uni01D0" unicode="&#x1d0;" horiz-adv-x="483" 
d="M-5 0h243l209 1185h-243zM258 1232h157l239 186h-147l-161 -131l-120 131h-143z" />
    <glyph glyph-name="uni01D1" unicode="&#x1d1;" horiz-adv-x="1340" 
d="M548 -10q317 0 490 166.5t228 518.5q54 351 -53 519t-423 168t-490 -167t-228 -520q-54 -351 53 -518t423 -167zM578 158q-159 0 -236 98.5t-27 418.5q53 323 170 420.5t275 97.5t236 -97.5t27 -420.5q-52 -320 -169.5 -418.5t-275.5 -98.5zM719 1396h157l239 186h-147
l-161 -131l-120 131h-143z" />
    <glyph glyph-name="uni01D2" unicode="&#x1d2;" horiz-adv-x="1242" 
d="M500 -9q282 0 442 150t207 455q46 302 -56.5 452t-385.5 150t-443 -148.5t-206 -453.5q-46 -301 56.5 -453t385.5 -152zM526 157q-132 0 -199 91.5t-28 346.5q41 254 145 345.5t236 91.5q133 0 200 -91t27 -346q-40 -254 -144.5 -346t-236.5 -92zM638 1232h157l239 186
h-147l-161 -131l-120 131h-143z" />
    <glyph glyph-name="uni01D3" unicode="&#x1d3;" horiz-adv-x="1324" 
d="M534 -8q275 0 432.5 100.5t199.5 336.5l161 921h-244l-157 -892q-29 -164 -114.5 -231t-247.5 -67q-161 0 -223 67.5t-33 230.5l157 892h-244l-162 -921q-42 -236 79.5 -336.5t395.5 -100.5zM722 1396h157l239 186h-147l-161 -131l-120 131h-143z" />
    <glyph glyph-name="uni01D4" unicode="&#x1d4;" horiz-adv-x="1209" 
d="M789 0h187l208 1185h-241l-173 -980zM426 1186h-241l-118 -672q-43 -245 17.5 -384.5t276.5 -139.5q228 0 383 136t181 284l-107 63q-24 -139 -123.5 -227t-219.5 -88q-118 0 -160 81t-5 285zM627 1232h157l239 186h-147l-161 -131l-120 131h-143z" />
    <glyph glyph-name="uni01D5" unicode="&#x1d5;" horiz-adv-x="1324" 
d="M534 -8q275 0 432.5 100.5t199.5 336.5l161 921h-244l-157 -892q-29 -164 -114.5 -231t-247.5 -67q-161 0 -223 67.5t-33 230.5l157 892h-244l-162 -921q-42 -236 79.5 -336.5t395.5 -100.5zM633 1417q34 0 62 26t28 62q0 29 -19.5 48.5t-48.5 19.5q-34 0 -62 -26
t-28 -63q0 -29 18.5 -48t49.5 -19zM967 1417q35 0 62.5 26t27.5 62q0 29 -18.5 48.5t-48.5 19.5q-35 0 -62.5 -26t-27.5 -63q0 -29 19 -48t48 -19zM493 1728h618l16 92h-617z" />
    <glyph glyph-name="uni01D6" unicode="&#x1d6;" horiz-adv-x="1209" 
d="M789 0h187l208 1185h-241l-173 -980zM426 1186h-241l-118 -672q-43 -245 17.5 -384.5t276.5 -139.5q228 0 383 136t181 284l-107 63q-24 -139 -123.5 -227t-219.5 -88q-118 0 -160 81t-5 285zM540 1253q34 0 62 26t28 62q0 29 -19.5 48.5t-48.5 19.5q-34 0 -62 -26
t-28 -63q0 -29 18.5 -48t49.5 -19zM874 1253q35 0 62.5 26t27.5 62q0 29 -18.5 48.5t-48.5 19.5q-35 0 -62.5 -26t-27.5 -63q0 -29 19 -48t48 -19zM440 1506h618l16 92h-617z" />
    <glyph glyph-name="uni01D7" unicode="&#x1d7;" horiz-adv-x="1324" 
d="M534 -8q275 0 432.5 100.5t199.5 336.5l161 921h-244l-157 -892q-29 -164 -114.5 -231t-247.5 -67q-161 0 -223 67.5t-33 230.5l157 892h-244l-162 -921q-42 -236 79.5 -336.5t395.5 -100.5zM633 1417q34 0 62 26t28 62q0 29 -19.5 48.5t-48.5 19.5q-34 0 -62 -26
t-28 -63q0 -29 18.5 -48t49.5 -19zM967 1417q35 0 62.5 26t27.5 62q0 29 -18.5 48.5t-48.5 19.5q-35 0 -62.5 -26t-27.5 -63q0 -29 19 -48t48 -19zM662 1682h121l235 179h-174z" />
    <glyph glyph-name="uni01D8" unicode="&#x1d8;" horiz-adv-x="1209" 
d="M789 0h187l208 1185h-241l-173 -980zM426 1186h-241l-118 -672q-43 -245 17.5 -384.5t276.5 -139.5q228 0 383 136t181 284l-107 63q-24 -139 -123.5 -227t-219.5 -88q-118 0 -160 81t-5 285zM540 1253q34 0 62 26t28 62q0 29 -19.5 48.5t-48.5 19.5q-34 0 -62 -26
t-28 -63q0 -29 18.5 -48t49.5 -19zM874 1253q35 0 62.5 26t27.5 62q0 29 -18.5 48.5t-48.5 19.5q-35 0 -62.5 -26t-27.5 -63q0 -29 19 -48t48 -19zM617 1421h121l235 179h-174z" />
    <glyph glyph-name="uni01D9" unicode="&#x1d9;" horiz-adv-x="1324" 
d="M534 -8q275 0 432.5 100.5t199.5 336.5l161 921h-244l-157 -892q-29 -164 -114.5 -231t-247.5 -67q-161 0 -223 67.5t-33 230.5l157 892h-244l-162 -921q-42 -236 79.5 -336.5t395.5 -100.5zM633 1417q34 0 62 26t28 62q0 29 -19.5 48.5t-48.5 19.5q-34 0 -62 -26
t-28 -63q0 -29 18.5 -48t49.5 -19zM967 1417q35 0 62.5 26t27.5 62q0 29 -18.5 48.5t-48.5 19.5q-35 0 -62.5 -26t-27.5 -63q0 -29 19 -48t48 -19zM717 1676h157l239 186h-147l-161 -131l-120 131h-143z" />
    <glyph glyph-name="uni01DA" unicode="&#x1da;" horiz-adv-x="1209" 
d="M789 0h187l208 1185h-241l-173 -980zM426 1186h-241l-118 -672q-43 -245 17.5 -384.5t276.5 -139.5q228 0 383 136t181 284l-107 63q-24 -139 -123.5 -227t-219.5 -88q-118 0 -160 81t-5 285zM540 1253q34 0 62 26t28 62q0 29 -19.5 48.5t-48.5 19.5q-34 0 -62 -26
t-28 -63q0 -29 18.5 -48t49.5 -19zM874 1253q35 0 62.5 26t27.5 62q0 29 -18.5 48.5t-48.5 19.5q-35 0 -62.5 -26t-27.5 -63q0 -29 19 -48t48 -19zM662 1455h157l239 186h-147l-161 -131l-120 131h-143z" />
    <glyph glyph-name="uni01DB" unicode="&#x1db;" horiz-adv-x="1324" 
d="M534 -8q275 0 432.5 100.5t199.5 336.5l161 921h-244l-157 -892q-29 -164 -114.5 -231t-247.5 -67q-161 0 -223 67.5t-33 230.5l157 892h-244l-162 -921q-42 -236 79.5 -336.5t395.5 -100.5zM633 1417q34 0 62 26t28 62q0 29 -19.5 48.5t-48.5 19.5q-34 0 -62 -26
t-28 -63q0 -29 18.5 -48t49.5 -19zM967 1417q35 0 62.5 26t27.5 62q0 29 -18.5 48.5t-48.5 19.5q-35 0 -62.5 -26t-27.5 -63q0 -29 19 -48t48 -19zM809 1678h115l-119 179h-168z" />
    <glyph glyph-name="uni01DC" unicode="&#x1dc;" horiz-adv-x="1209" 
d="M789 0h187l208 1185h-241l-173 -980zM426 1186h-241l-118 -672q-43 -245 17.5 -384.5t276.5 -139.5q228 0 383 136t181 284l-107 63q-24 -139 -123.5 -227t-219.5 -88q-118 0 -160 81t-5 285zM540 1253q34 0 62 26t28 62q0 29 -19.5 48.5t-48.5 19.5q-34 0 -62 -26
t-28 -63q0 -29 18.5 -48t49.5 -19zM874 1253q35 0 62.5 26t27.5 62q0 29 -18.5 48.5t-48.5 19.5q-35 0 -62.5 -26t-27.5 -63q0 -29 19 -48t48 -19zM718 1430h115l-119 179h-168z" />
    <glyph glyph-name="Gcaron" unicode="&#x1e6;" horiz-adv-x="1305" 
d="M505 -8q325 0 436 204l-9 -196h141l117 668h-526l-26 -147h274l-15 -86q-32 -146 -112.5 -210.5t-231.5 -64.5q-161 0 -220.5 105t-15.5 404q51 332 154 428.5t263 96.5q155 0 212 -81.5t31 -264.5h244q33 213 -63.5 363.5t-399.5 150.5q-322 0 -478.5 -164.5
t-206.5 -520.5q-49 -348 39 -516.5t393 -168.5zM696 1396h157l239 186h-147l-161 -131l-120 131h-143z" />
    <glyph glyph-name="gcaron" unicode="&#x1e7;" horiz-adv-x="1244" 
d="M397 -466q163 0 280.5 45.5t209.5 157t126 306.5l202 1142h-178l-107 -240l-163 -925q-34 -200 -122 -265.5t-214 -65.5q-76 0 -131 25t-79 77.5t-18 139.5h-236q-19 -218 105 -307.5t325 -89.5zM389 -7q201 0 357.5 95.5t176.5 207.5l-86 121q-17 -102 -117 -180
t-221 -78q-128 0 -183.5 91t-13.5 344q43 253 133 343.5t217 90.5q121 0 193.5 -77t54.5 -178l126 111q19 110 -104 211t-323 101q-221 0 -358.5 -151.5t-182.5 -449.5q-45 -297 32.5 -449.5t298.5 -152.5zM641 1232h157l239 186h-147l-161 -131l-120 131h-143z" />
    <glyph glyph-name="uni01EA" unicode="&#x1ea;" horiz-adv-x="1340" 
d="M548 -10q317 0 490 166.5t228 518.5q54 351 -53 519t-423 168t-490 -167t-228 -520q-54 -351 53 -518t423 -167zM578 158q-159 0 -236 98.5t-27 418.5q53 323 170 420.5t275 97.5t236 -97.5t27 -420.5q-52 -320 -169.5 -418.5t-275.5 -98.5zM890 -253q39 0 75.5 4
t64.5 10t38 10l18 121q-11 -4 -34.5 -10t-51.5 -10t-54 -4q-34 0 -50 12t-16 33q0 22 16 55.5t37 65.5t35 49h-120q-25 -24 -52.5 -63t-46 -83.5t-18.5 -84.5q0 -39 22 -62t58.5 -33t78.5 -10z" />
    <glyph glyph-name="uni01EB" unicode="&#x1eb;" horiz-adv-x="1242" 
d="M500 -9q282 0 442 150t207 455q46 302 -56.5 452t-385.5 150t-443 -148.5t-206 -453.5q-46 -301 56.5 -453t385.5 -152zM526 157q-132 0 -199 91.5t-28 346.5q41 254 145 345.5t236 91.5q133 0 200 -91t27 -346q-40 -254 -144.5 -346t-236.5 -92zM428 -336q39 0 75.5 4
t64.5 10t38 10l18 121q-11 -4 -34.5 -10t-51.5 -10t-54 -4q-34 0 -50 12t-16 33q0 22 16 55.5t37 65.5t35 49h-120q-25 -24 -52.5 -63t-46 -83.5t-18.5 -84.5q0 -39 22 -62t58.5 -33t78.5 -10z" />
    <glyph glyph-name="Aringacute" unicode="&#x1fa;" horiz-adv-x="1365" 
d="M-45 0h252l175 361h514l47 -361h252l-208 1352h-348zM452 524l335 684h3l94 -684h-432zM825 1375q38 0 71.5 18.5t55 49t26.5 68.5q10 58 -24 96.5t-91 38.5q-39 0 -71.5 -17.5t-54 -48t-28.5 -69.5q-8 -57 25.5 -96.5t90.5 -39.5zM837 1464q-17 0 -28.5 14t-9.5 33
q4 20 19 32.5t32 12.5q19 0 30.5 -12.5t7.5 -32.5q-2 -19 -17 -33t-34 -14zM713 1688h121l235 179h-174z" />
    <glyph glyph-name="aringacute" unicode="&#x1fb;" horiz-adv-x="1227" 
d="M379 -11q84 0 154.5 14.5t126 38.5t93 51t55.5 53l-5 -146h202l132 750q29 162 -15 259.5t-153.5 142.5t-276.5 45q-97 0 -185 -19t-162.5 -60t-131.5 -108t-92 -163l226 -64q30 91 78.5 146t110.5 79t134 24q85 0 141.5 -26.5t79 -86.5t5.5 -157l-10 -61h-384
q-65 0 -130.5 -9t-125 -32.5t-107.5 -64.5t-79 -105t-39 -155q-14 -137 25 -212t124.5 -104.5t208.5 -29.5zM458 146q-64 0 -110 16.5t-67 61.5t-13 129q6 67 30 109.5t61 65t82 31t94 8.5h324l-49 -280q-25 -35 -76 -67.5t-121 -53t-155 -20.5zM718 1224q38 0 71.5 18.5
t55 49t26.5 68.5q10 58 -24 96.5t-91 38.5q-39 0 -71.5 -17.5t-54 -48t-28.5 -69.5q-8 -57 25.5 -96.5t90.5 -39.5zM730 1313q-17 0 -28.5 14t-9.5 33q4 20 19 32.5t32 12.5q19 0 30.5 -12.5t7.5 -32.5q-2 -19 -17 -33t-34 -14zM605 1538h121l235 179h-174z" />
    <glyph glyph-name="AEacute" unicode="&#x1fc;" horiz-adv-x="1895" 
d="M-45 0h258l797 1261l17 89h-212zM296 298h566l29 163h-514zM761 0h921l29 168h-676l77 440h635l28 161h-634l73 413h676l30 168h-921zM908 1392h121l235 179h-174z" />
    <glyph glyph-name="aeacute" unicode="&#x1fd;" horiz-adv-x="2021" 
d="M1020 280l78 439q39 222 -48 349.5t-352 127.5q-270 0 -391 -107t-180 -271l220 -65q45 155 123 220.5t204 65.5q123 0 177 -74t27 -231l-73 -418l30 -25zM381 -11q238 0 382 84.5t187 282.5l-125 70q-30 -167 -122 -227.5t-231 -60.5q-136 0 -176 50.5t-28 134.5
q16 107 80 149t212 42h292l24 139h-369q-215 0 -337.5 -70.5t-152.5 -259.5q-26 -165 65 -249.5t299 -84.5zM1291 -10l28 158q-145 0 -208 102q-64 100 -23 344q43 257 146 351q102 94 239 94q140 0 203 -89q50 -81 23 -280h-622l-26 -148h863q11 34 18 75q51 292 -43 447
q-95 153 -389 153q-285 0 -440 -153q-156 -153 -206 -449q-47 -283 48 -444t389 -161zM1319 148l-28 -158q159 0 265 38q105 37 186 119q79 81 118 201l-206 60q-32 -80 -77 -144q-45 -63 -109 -90q-65 -26 -149 -26zM924 1228h121l235 179h-174z" />
    <glyph glyph-name="Oslashacute" unicode="&#x1fe;" horiz-adv-x="1226" 
d="M-63 0h133l1214 1348h-130zM548 -10q317 0 490 166.5t228 518.5q54 351 -53 519t-423 168t-490 -167t-228 -520q-54 -351 53 -518t423 -167zM578 158q-159 0 -236 98.5t-27 418.5q53 323 170 420.5t275 97.5t236 -97.5t27 -420.5q-52 -320 -169.5 -418.5t-275.5 -98.5z
M603 1392h121l235 179h-174z" />
    <glyph glyph-name="oslashacute" unicode="&#x1ff;" horiz-adv-x="1238" 
d="M-97 7l68 -64l1327 1246l-72 58zM500 -9q282 0 442 150t207 455q46 302 -56.5 452t-385.5 150t-443 -148.5t-206 -453.5q-46 -301 56.5 -453t385.5 -152zM526 157q-132 0 -199 91.5t-28 346.5q41 254 145 345.5t236 91.5q133 0 200 -91t27 -346q-40 -254 -144.5 -346
t-236.5 -92zM547 1224h121l235 179h-174z" />
    <glyph glyph-name="uni0200" unicode="&#x200;" horiz-adv-x="1365" 
d="M-45 0h252l175 361h514l47 -361h252l-208 1352h-348zM452 524l335 684h3l94 -684h-432zM1010 1413h115l-119 179h-168zM754 1413h115l-119 179h-168z" />
    <glyph glyph-name="uni0201" unicode="&#x201;" horiz-adv-x="1227" 
d="M379 -11q84 0 154.5 14.5t126 38.5t93 51t55.5 53l-5 -146h202l132 750q29 162 -15 259.5t-153.5 142.5t-276.5 45q-97 0 -185 -19t-162.5 -60t-131.5 -108t-92 -163l226 -64q30 91 78.5 146t110.5 79t134 24q85 0 141.5 -26.5t79 -86.5t5.5 -157l-10 -61h-384
q-65 0 -130.5 -9t-125 -32.5t-107.5 -64.5t-79 -105t-39 -155q-14 -137 25 -212t124.5 -104.5t208.5 -29.5zM458 146q-64 0 -110 16.5t-67 61.5t-13 129q6 67 30 109.5t61 65t82 31t94 8.5h324l-49 -280q-25 -35 -76 -67.5t-121 -53t-155 -20.5zM899 1249h115l-119 179h-168
zM642 1249h115l-119 179h-168z" />
    <glyph glyph-name="uni0202" unicode="&#x202;" horiz-adv-x="1365" 
d="M-45 0h252l175 361h514l47 -361h252l-208 1352h-348zM452 524l335 684h3l94 -684h-432zM867 1584q-69 0 -121 -23t-84 -62t-40 -86h118q5 26 17.5 45.5t35 30.5t59.5 11q34 0 53 -11t26 -30.5t2 -45.5h118q8 47 -11 86t-63 62t-110 23z" />
    <glyph glyph-name="uni0203" unicode="&#x203;" horiz-adv-x="1227" 
d="M379 -11q84 0 154.5 14.5t126 38.5t93 51t55.5 53l-5 -146h202l132 750q29 162 -15 259.5t-153.5 142.5t-276.5 45q-97 0 -185 -19t-162.5 -60t-131.5 -108t-92 -163l226 -64q30 91 78.5 146t110.5 79t134 24q85 0 141.5 -26.5t79 -86.5t5.5 -157l-10 -61h-384
q-65 0 -130.5 -9t-125 -32.5t-107.5 -64.5t-79 -105t-39 -155q-14 -137 25 -212t124.5 -104.5t208.5 -29.5zM458 146q-64 0 -110 16.5t-67 61.5t-13 129q6 67 30 109.5t61 65t82 31t94 8.5h324l-49 -280q-25 -35 -76 -67.5t-121 -53t-155 -20.5zM755 1420q-69 0 -121 -23
t-84 -62t-40 -86h118q5 26 17.5 45.5t35 30.5t59.5 11q34 0 53 -11t26 -30.5t2 -45.5h118q8 47 -11 86t-63 62t-110 23z" />
    <glyph glyph-name="uni0204" unicode="&#x204;" horiz-adv-x="1105" 
d="M-29 0h920l30 168h-676l77 440h634l29 161h-634l72 413h676l30 168h-920zM853 1413h115l-119 179h-168zM596 1413h115l-119 179h-168z" />
    <glyph glyph-name="uni0205" unicode="&#x205;" horiz-adv-x="1237" 
d="M506 -10l28 158q-144 0 -207 102q-65 100 -23 344q43 257 145 351t239 94q140 0 203 -89q50 -81 23 -280h-621l-26 -148h863q10 34 17 75q51 292 -43 447q-95 153 -388 153q-285 0 -441 -153q-155 -153 -206 -449q-47 -283 49 -444q95 -161 388 -161zM534 148l-28 -158
q159 0 266 38q105 37 185 119q79 81 119 201l-207 60q-32 -80 -76 -144q-45 -63 -109 -90q-66 -26 -150 -26zM908 1249h115l-119 179h-168zM652 1249h115l-119 179h-168z" />
    <glyph glyph-name="uni0206" unicode="&#x206;" horiz-adv-x="1105" 
d="M-29 0h920l30 168h-676l77 440h634l29 161h-634l72 413h676l30 168h-920zM709 1584q-69 0 -121 -23t-84 -62t-40 -86h118q5 26 17.5 45.5t35 30.5t59.5 11q34 0 53 -11t26 -30.5t2 -45.5h118q8 47 -11 86t-63 62t-110 23z" />
    <glyph glyph-name="uni0207" unicode="&#x207;" horiz-adv-x="1237" 
d="M506 -10l28 158q-144 0 -207 102q-65 100 -23 344q43 257 145 351t239 94q140 0 203 -89q50 -81 23 -280h-621l-26 -148h863q10 34 17 75q51 292 -43 447q-95 153 -388 153q-285 0 -441 -153q-155 -153 -206 -449q-47 -283 49 -444q95 -161 388 -161zM534 148l-28 -158
q159 0 266 38q105 37 185 119q79 81 119 201l-207 60q-32 -80 -76 -144q-45 -63 -109 -90q-66 -26 -150 -26zM766 1420q-69 0 -121 -23t-84 -62t-40 -86h118q5 26 17.5 45.5t35 30.5t59.5 11q34 0 53 -11t26 -30.5t2 -45.5h118q8 47 -11 86t-63 62t-110 23z" />
    <glyph glyph-name="uni0208" unicode="&#x208;" horiz-adv-x="553" 
d="M32 0h244l238 1350h-243zM596 1413h115l-119 179h-168zM339 1413h115l-119 179h-168z" />
    <glyph glyph-name="uni0209" unicode="&#x209;" horiz-adv-x="483" 
d="M-5 0h243l209 1185h-243zM519 1249h115l-119 179h-168zM262 1249h115l-119 179h-168z" />
    <glyph glyph-name="uni020A" unicode="&#x20a;" horiz-adv-x="553" 
d="M32 0h244l238 1350h-243zM453 1584q-69 0 -121 -23t-84 -62t-40 -86h118q5 26 17.5 45.5t35 30.5t59.5 11q34 0 53 -11t26 -30.5t2 -45.5h118q8 47 -11 86t-63 62t-110 23z" />
    <glyph glyph-name="uni020B" unicode="&#x20b;" horiz-adv-x="483" 
d="M-5 0h243l209 1185h-243zM376 1420q-69 0 -121 -23t-84 -62t-40 -86h118q5 26 17.5 45.5t35 30.5t59.5 11q34 0 53 -11t26 -30.5t2 -45.5h118q8 47 -11 86t-63 62t-110 23z" />
    <glyph glyph-name="uni020C" unicode="&#x20c;" horiz-adv-x="1340" 
d="M548 -10q317 0 490 166.5t228 518.5q54 351 -53 519t-423 168t-490 -167t-228 -520q-54 -351 53 -518t423 -167zM578 158q-159 0 -236 98.5t-27 418.5q53 323 170 420.5t275 97.5t236 -97.5t27 -420.5q-52 -320 -169.5 -418.5t-275.5 -98.5zM979 1413h115l-119 179h-168z
M722 1413h115l-119 179h-168z" />
    <glyph glyph-name="uni020D" unicode="&#x20d;" horiz-adv-x="1242" 
d="M500 -9q282 0 442 150t207 455q46 302 -56.5 452t-385.5 150t-443 -148.5t-206 -453.5q-46 -301 56.5 -453t385.5 -152zM526 157q-132 0 -199 91.5t-28 346.5q41 254 145 345.5t236 91.5q133 0 200 -91t27 -346q-40 -254 -144.5 -346t-236.5 -92zM899 1249h115l-119 179
h-168zM642 1249h115l-119 179h-168z" />
    <glyph glyph-name="uni020E" unicode="&#x20e;" horiz-adv-x="1340" 
d="M548 -10q317 0 490 166.5t228 518.5q54 351 -53 519t-423 168t-490 -167t-228 -520q-54 -351 53 -518t423 -167zM578 158q-159 0 -236 98.5t-27 418.5q53 323 170 420.5t275 97.5t236 -97.5t27 -420.5q-52 -320 -169.5 -418.5t-275.5 -98.5zM836 1584q-69 0 -121 -23
t-84 -62t-40 -86h118q5 26 17.5 45.5t35 30.5t59.5 11q34 0 53 -11t26 -30.5t2 -45.5h118q8 47 -11 86t-63 62t-110 23z" />
    <glyph glyph-name="uni020F" unicode="&#x20f;" horiz-adv-x="1242" 
d="M500 -9q282 0 442 150t207 455q46 302 -56.5 452t-385.5 150t-443 -148.5t-206 -453.5q-46 -301 56.5 -453t385.5 -152zM526 157q-132 0 -199 91.5t-28 346.5q41 254 145 345.5t236 91.5q133 0 200 -91t27 -346q-40 -254 -144.5 -346t-236.5 -92zM756 1420
q-69 0 -121 -23t-84 -62t-40 -86h118q5 26 17.5 45.5t35 30.5t59.5 11q34 0 53 -11t26 -30.5t2 -45.5h118q8 47 -11 86t-63 62t-110 23z" />
    <glyph glyph-name="uni0210" unicode="&#x210;" horiz-adv-x="1223" 
d="M-21 0h245l100 570h440q209 0 303 110.5t120 274.5q27 161 -22.5 278t-254.5 117h-693zM770 0h264l-182 648l-244 -13zM351 722l81 460h370q104 0 131 -62t8 -168q-18 -106 -68 -168t-152 -62h-370zM894 1413h115l-119 179h-168zM637 1413h115l-119 179h-168z" />
    <glyph glyph-name="uni0211" unicode="&#x211;" horiz-adv-x="1178" 
d="M815 624h242q52 297 -4 434.5t-268 137.5q-203 0 -343.5 -109.5t-168.5 -266.5l84 -62q19 104 103.5 186.5t206.5 82.5q108 0 149 -82.5t-1 -320.5zM-17 0h241l170 963l-14 222h-188zM875 1249h115l-119 179h-168zM619 1249h115l-119 179h-168z" />
    <glyph glyph-name="uni0212" unicode="&#x212;" horiz-adv-x="1223" 
d="M-21 0h245l100 570h440q209 0 303 110.5t120 274.5q27 161 -22.5 278t-254.5 117h-693zM770 0h264l-182 648l-244 -13zM351 722l81 460h370q104 0 131 -62t8 -168q-18 -106 -68 -168t-152 -62h-370zM750 1584q-69 0 -121 -23t-84 -62t-40 -86h118q5 26 17.5 45.5t35 30.5
t59.5 11q34 0 53 -11t26 -30.5t2 -45.5h118q8 47 -11 86t-63 62t-110 23z" />
    <glyph glyph-name="uni0213" unicode="&#x213;" horiz-adv-x="1178" 
d="M815 624h242q52 297 -4 434.5t-268 137.5q-203 0 -343.5 -109.5t-168.5 -266.5l84 -62q19 104 103.5 186.5t206.5 82.5q108 0 149 -82.5t-1 -320.5zM-17 0h241l170 963l-14 222h-188zM732 1420q-69 0 -121 -23t-84 -62t-40 -86h118q5 26 17.5 45.5t35 30.5t59.5 11
q34 0 53 -11t26 -30.5t2 -45.5h118q8 47 -11 86t-63 62t-110 23z" />
    <glyph glyph-name="uni0214" unicode="&#x214;" horiz-adv-x="1324" 
d="M534 -8q275 0 432.5 100.5t199.5 336.5l161 921h-244l-157 -892q-29 -164 -114.5 -231t-247.5 -67q-161 0 -223 67.5t-33 230.5l157 892h-244l-162 -921q-42 -236 79.5 -336.5t395.5 -100.5zM982 1413h115l-119 179h-168zM725 1413h115l-119 179h-168z" />
    <glyph glyph-name="uni0215" unicode="&#x215;" horiz-adv-x="1209" 
d="M789 0h187l208 1185h-241l-173 -980zM426 1186h-241l-118 -672q-43 -245 17.5 -384.5t276.5 -139.5q228 0 383 136t181 284l-107 63q-24 -139 -123.5 -227t-219.5 -88q-118 0 -160 81t-5 285zM887 1249h115l-119 179h-168zM631 1249h115l-119 179h-168z" />
    <glyph glyph-name="uni0216" unicode="&#x216;" horiz-adv-x="1324" 
d="M534 -8q275 0 432.5 100.5t199.5 336.5l161 921h-244l-157 -892q-29 -164 -114.5 -231t-247.5 -67q-161 0 -223 67.5t-33 230.5l157 892h-244l-162 -921q-42 -236 79.5 -336.5t395.5 -100.5zM838 1584q-69 0 -121 -23t-84 -62t-40 -86h118q5 26 17.5 45.5t35 30.5
t59.5 11q34 0 53 -11t26 -30.5t2 -45.5h118q8 47 -11 86t-63 62t-110 23z" />
    <glyph glyph-name="uni0217" unicode="&#x217;" horiz-adv-x="1209" 
d="M789 0h187l208 1185h-241l-173 -980zM426 1186h-241l-118 -672q-43 -245 17.5 -384.5t276.5 -139.5q228 0 383 136t181 284l-107 63q-24 -139 -123.5 -227t-219.5 -88q-118 0 -160 81t-5 285zM745 1420q-69 0 -121 -23t-84 -62t-40 -86h118q5 26 17.5 45.5t35 30.5
t59.5 11q34 0 53 -11t26 -30.5t2 -45.5h118q8 47 -11 86t-63 62t-110 23z" />
    <glyph glyph-name="uni0218" unicode="&#x218;" horiz-adv-x="1259" 
d="M297 -301h88l167 230h-143zM504 -8q311 0 453.5 114.5t161.5 281.5q23 167 -65 238t-345 135q-179 44 -268.5 88.5t-73.5 155.5q12 87 105 137t239 50q142 0 211 -59t35 -269h245q41 246 -55 372t-407 126q-306 0 -453.5 -113t-161.5 -272q-18 -157 68.5 -239t335.5 -143
q175 -43 268 -86.5t75 -154.5q-14 -93 -105 -144t-236 -51q-147 0 -214 60.5t-31 277.5h-245q-45 -260 50 -382.5t413 -122.5z" />
    <glyph glyph-name="uni0219" unicode="&#x219;" horiz-adv-x="1207" 
d="M495 -9q221 0 377.5 83.5t179.5 251.5q25 174 -72 245.5t-302 109.5q-159 28 -246 62.5t-73 127.5q9 74 81 119t199 45q133 0 202 -62.5t67 -181.5l226 74q-1 179 -122.5 255t-344.5 76q-222 0 -373.5 -81t-172.5 -242q-25 -173 70 -247t286 -110q168 -35 258.5 -69
t75.5 -133q-9 -71 -83.5 -116.5t-206.5 -45.5q-140 0 -211 60t-68 196l-226 -75q5 -191 132 -266.5t347 -75.5zM307 -301h88l167 230h-143z" />
    <glyph glyph-name="uni021A" unicode="&#x21a;" horiz-adv-x="1206" 
d="M357 0h245l208 1182h409l30 168h-1065l-29 -168h410zM304 -301h88l167 230h-143z" />
    <glyph glyph-name="uni021B" unicode="&#x21b;" horiz-adv-x="1001" 
d="M519 -14q117 0 228 26l29 162q-75 -24 -149 -24q-79 0 -116 34t-19 139l123 694h383l30 168h-383l47 269h-242l-47 -269h-275l-30 -168h276l-133 -749q-28 -161 55.5 -221.5t222.5 -60.5zM304 -301h88l167 230h-143z" />
    <glyph glyph-name="uni022A" unicode="&#x22a;" horiz-adv-x="1340" 
d="M548 -10q317 0 490 166.5t228 518.5q54 351 -53 519t-423 168t-490 -167t-228 -520q-54 -351 53 -518t423 -167zM578 158q-159 0 -236 98.5t-27 418.5q53 323 170 420.5t275 97.5t236 -97.5t27 -420.5q-52 -320 -169.5 -418.5t-275.5 -98.5zM631 1417q34 0 62 26t28 62
q0 29 -19.5 48.5t-48.5 19.5q-34 0 -62 -26t-28 -63q0 -29 18.5 -48t49.5 -19zM965 1417q35 0 62.5 26t27.5 62q0 29 -18.5 48.5t-48.5 19.5q-35 0 -62.5 -26t-27.5 -63q0 -29 19 -48t48 -19zM532 1670h618l16 92h-617z" />
    <glyph glyph-name="uni022B" unicode="&#x22b;" horiz-adv-x="1242" 
d="M500 -9q282 0 442 150t207 455q46 302 -56.5 452t-385.5 150t-443 -148.5t-206 -453.5q-46 -301 56.5 -453t385.5 -152zM526 157q-132 0 -199 91.5t-28 346.5q41 254 145 345.5t236 91.5q133 0 200 -91t27 -346q-40 -254 -144.5 -346t-236.5 -92zM551 1253q34 0 62 26
t28 62q0 29 -19.5 48.5t-48.5 19.5q-34 0 -62 -26t-28 -63q0 -29 18.5 -48t49.5 -19zM885 1253q35 0 62.5 26t27.5 62q0 29 -18.5 48.5t-48.5 19.5q-35 0 -62.5 -26t-27.5 -63q0 -29 19 -48t48 -19zM451 1506h618l16 92h-617z" />
    <glyph glyph-name="uni022C" unicode="&#x22c;" horiz-adv-x="1340" 
d="M548 -10q317 0 490 166.5t228 518.5q54 351 -53 519t-423 168t-490 -167t-228 -520q-54 -351 53 -518t423 -167zM578 158q-159 0 -236 98.5t-27 418.5q53 323 170 420.5t275 97.5t236 -97.5t27 -420.5q-52 -320 -169.5 -418.5t-275.5 -98.5zM916 1425q57 0 96 18t63 45
t36.5 54t16.5 44h-120q-3 -11 -14.5 -26.5t-30 -26t-43.5 -10.5q-30 0 -51 10.5t-40 25.5t-43.5 26t-64.5 11q-56 0 -95.5 -17.5t-64 -44t-37.5 -52.5t-18 -45h121q4 12 14 27t29 25.5t47 10.5q27 0 46 -11.5t39 -26.5t46.5 -26t67.5 -11zM538 1690h618l16 92h-617z" />
    <glyph glyph-name="uni022D" unicode="&#x22d;" horiz-adv-x="1242" 
d="M500 -9q282 0 442 150t207 455q46 302 -56.5 452t-385.5 150t-443 -148.5t-206 -453.5q-46 -301 56.5 -453t385.5 -152zM526 157q-132 0 -199 91.5t-28 346.5q41 254 145 345.5t236 91.5q133 0 200 -91t27 -346q-40 -254 -144.5 -346t-236.5 -92zM835 1261q57 0 96 18
t63 45t36.5 54t16.5 44h-120q-3 -11 -14.5 -26.5t-30 -26t-43.5 -10.5q-30 0 -51 10.5t-40 25.5t-43.5 26t-64.5 11q-56 0 -95.5 -17.5t-64 -44t-37.5 -52.5t-18 -45h121q4 12 14 27t29 25.5t47 10.5q27 0 46 -11.5t39 -26.5t46.5 -26t67.5 -11zM458 1526h618l16 92h-617z
" />
    <glyph glyph-name="uni0230" unicode="&#x230;" horiz-adv-x="1340" 
d="M548 -10q317 0 490 166.5t228 518.5q54 351 -53 519t-423 168t-490 -167t-228 -520q-54 -351 53 -518t423 -167zM578 158q-159 0 -236 98.5t-27 418.5q53 323 170 420.5t275 97.5t236 -97.5t27 -420.5q-52 -320 -169.5 -418.5t-275.5 -98.5zM815 1407q34 0 57.5 24
t23.5 57t-24 56t-56 23q-33 0 -56.5 -23t-23.5 -56q0 -34 23 -57.5t56 -23.5zM537 1664h618l16 92h-617z" />
    <glyph glyph-name="uni0231" unicode="&#x231;" horiz-adv-x="1242" 
d="M500 -9q282 0 442 150t207 455q46 302 -56.5 452t-385.5 150t-443 -148.5t-206 -453.5q-46 -301 56.5 -453t385.5 -152zM526 157q-132 0 -199 91.5t-28 346.5q41 254 145 345.5t236 91.5q133 0 200 -91t27 -346q-40 -254 -144.5 -346t-236.5 -92zM734 1243q34 0 57.5 24
t23.5 57t-24 56t-56 23q-33 0 -56.5 -23t-23.5 -56q0 -34 23 -57.5t56 -23.5zM456 1500h618l16 92h-617z" />
    <glyph glyph-name="uni0232" unicode="&#x232;" horiz-adv-x="1305" 
d="M405 0h244l92 524l635 826h-269l-455 -629h-2l-236 629h-262l344 -828zM488 1447h618l16 92h-617z" />
    <glyph glyph-name="uni0233" unicode="&#x233;" horiz-adv-x="1113" 
d="M266 0h369l548 1185h-254l-450 -1022h-2l-94 1022h-252zM-100 -463q255 0 428 88.5t307 374.5l-225 1q-84 -181 -192.5 -239.5t-288.5 -58.5zM366 1283h618l16 92h-617z" />
    <glyph glyph-name="uni0237" unicode="&#x237;" horiz-adv-x="529" 
d="M-318 -460q253 0 402 96.5t195 364.5l210 1185h-241l-211 -1194q-29 -165 -110.5 -224t-213.5 -59z" />
    <glyph glyph-name="uni0259" unicode="&#x259;" horiz-adv-x="1237" 
d="M731 1198l-28 -159q144 0 208 -101q64 -102 22 -346q-43 -257 -145 -350q-103 -94 -239 -94q-140 0 -203 89q-51 82 -24 279h622l26 148h-863q-11 -33 -17 -75q-52 -292 43 -445q95 -154 388 -154q285 0 442 153q154 152 205 450q47 282 -49 443q-95 162 -388 162z
M703 1039l28 159q-159 0 -266 -38q-105 -38 -185 -120q-79 -81 -119 -201l206 -60q32 81 77 144t110 89q65 27 149 27z" />
    <glyph glyph-name="uni02BC" unicode="&#x2bc;" horiz-adv-x="302" 
d="M430 1559h-179l-41 -225l13 -1l-102 -228h163l105 227z" />
    <glyph glyph-name="circumflex" unicode="&#x2c6;" horiz-adv-x="791" 
d="M222 1208h145l164 132l117 -132h145l-175 186h-158z" />
    <glyph glyph-name="caron" unicode="&#x2c7;" horiz-adv-x="791" 
d="M384 1208h157l239 186h-147l-161 -131l-120 131h-143z" />
    <glyph glyph-name="uni02C9" unicode="&#x2c9;" horiz-adv-x="935" 
d="M231 1204h618l16 92h-617z" />
    <glyph glyph-name="breve" unicode="&#x2d8;" horiz-adv-x="755" 
d="M452 1222q69 0 121 24t84 62.5t40 84.5h-118q-5 -25 -17 -45t-35.5 -31t-60.5 -11q-33 0 -52 11.5t-26 30.5t-3 45h-118q-7 -46 12 -84.5t63 -62.5t110 -24z" />
    <glyph glyph-name="dotaccent" unicode="&#x2d9;" horiz-adv-x="467" 
d="M340 1209q34 0 57.5 24t23.5 57t-24 56t-56 23q-33 0 -56.5 -23t-23.5 -56q0 -34 23 -57.5t56 -23.5z" />
    <glyph glyph-name="ring" unicode="&#x2da;" horiz-adv-x="405" 
d="M297 1216q38 0 71.5 18.5t55 49t26.5 68.5q10 58 -24 96.5t-91 38.5q-39 0 -71.5 -17.5t-54 -48t-28.5 -69.5q-8 -57 25.5 -96.5t90.5 -39.5zM309 1305q-17 0 -28.5 14t-9.5 33q4 20 19 32.5t32 12.5q19 0 30.5 -12.5t7.5 -32.5q-2 -19 -17 -33t-34 -14z" />
    <glyph glyph-name="ogonek" unicode="&#x2db;" horiz-adv-x="761" 
d="M226 -336q39 0 75.5 4t64.5 10t38 10l18 121q-11 -4 -34.5 -10t-51.5 -10t-54 -4q-39 0 -54 15.5t-11 43.5q4 23 20 53.5t35 59t32 43.5h-120q-17 -16 -41 -48t-45.5 -72t-28.5 -82q-9 -52 11.5 -81t59.5 -41t86 -12z" />
    <glyph glyph-name="tilde" unicode="&#x2dc;" horiz-adv-x="678" 
d="M556 1262q57 0 96 18t63 45t36.5 54t16.5 44h-120q-3 -11 -14.5 -26.5t-30 -26t-43.5 -10.5q-30 0 -51 10.5t-40 25.5t-43.5 26t-64.5 11q-56 0 -95.5 -17.5t-64 -44t-37.5 -52.5t-18 -45h121q4 12 14 27t29 25.5t47 10.5q27 0 46 -11.5t39 -26.5t46.5 -26t67.5 -11z" />
    <glyph glyph-name="hungarumlaut" unicode="&#x2dd;" horiz-adv-x="990" 
d="M545 1227h116l205 160h-156zM370 1227h116l199 160h-152z" />
    <glyph glyph-name="gravecomb" unicode="&#x300;" 
d="M325 1124h115l-119 179h-168z" />
    <glyph glyph-name="acutecomb" unicode="&#x301;" 
d="M123 1124h121l235 179h-174z" />
    <glyph glyph-name="uni0302" unicode="&#x302;" 
d="M118 1118h145l164 132l117 -132h145l-175 186h-158z" />
    <glyph glyph-name="tildecomb" unicode="&#x303;" 
d="M542 1186q57 0 96 18t63 45t36.5 54t16.5 44h-120q-3 -11 -14.5 -26.5t-30 -26t-43.5 -10.5q-30 0 -51 10.5t-40 25.5t-43.5 26t-64.5 11q-56 0 -95.5 -17.5t-64 -44t-37.5 -52.5t-18 -45h121q4 12 14 27t29 25.5t47 10.5q27 0 46 -11.5t39 -26.5t46.5 -26t67.5 -11z" />
    <glyph glyph-name="uni0304" unicode="&#x304;" 
d="M231 1204h618l16 92h-617z" />
    <glyph glyph-name="uni0306" unicode="&#x306;" 
d="M338 1132q69 0 121 24t84 62.5t40 84.5h-118q-5 -25 -17 -45t-35.5 -31t-60.5 -11q-33 0 -52 11.5t-26 30.5t-3 45h-118q-7 -46 12 -84.5t63 -62.5t110 -24z" />
    <glyph glyph-name="uni0307" unicode="&#x307;" 
d="M224 1129q34 0 57.5 24t23.5 57t-24 56t-56 23q-33 0 -56.5 -23t-23.5 -56q0 -34 23 -57.5t56 -23.5z" />
    <glyph glyph-name="uni0308" unicode="&#x308;" 
d="M231 1139q34 0 62 26t28 62q0 29 -19.5 48.5t-48.5 19.5q-34 0 -62 -26t-28 -63q0 -29 18.5 -48t49.5 -19zM565 1139q35 0 62.5 26t27.5 62q0 29 -18.5 48.5t-48.5 19.5q-35 0 -62.5 -26t-27.5 -63q0 -29 19 -48t48 -19z" />
    <glyph glyph-name="hookabovecomb" unicode="&#x309;" 
d="M175 1466l-15 -77q90 0 145.5 -2.5t80 -11t22.5 -25.5q-2 -15 -27.5 -24t-66.5 -12t-92 -3l-21 -121h89l11 59q32 0 69.5 5.5t72.5 17.5t58 33t27 52q3 32 -16.5 53.5t-62.5 33.5t-111.5 17t-162.5 5z" />
    <glyph glyph-name="uni030A" unicode="&#x30a;" 
d="M262 1125q38 0 71.5 18.5t55 49t26.5 68.5q10 58 -24 96.5t-91 38.5q-39 0 -71.5 -17.5t-54 -48t-28.5 -69.5q-8 -57 25.5 -96.5t90.5 -39.5zM274 1214q-17 0 -28.5 14t-9.5 33q4 20 19 32.5t32 12.5q19 0 30.5 -12.5t7.5 -32.5q-2 -19 -17 -33t-34 -14z" />
    <glyph glyph-name="uni030B" unicode="&#x30b;" 
d="M371 1143h116l205 160h-156zM196 1143h116l199 160h-152z" />
    <glyph glyph-name="uni030C" unicode="&#x30c;" 
d="M316 1118h157l239 186h-147l-161 -131l-120 131h-143z" />
    <glyph glyph-name="uni030F" unicode="&#x30f;" 
d="M574 1214h115l-119 179h-168zM317 1214h115l-119 179h-168z" />
    <glyph glyph-name="uni0311" unicode="&#x311;" 
d="M415 1338q-69 0 -121 -23t-84 -62t-40 -86h118q5 26 17.5 45.5t35 30.5t59.5 11q34 0 53 -11t26 -30.5t2 -45.5h118q8 47 -11 86t-63 62t-110 23z" />
    <glyph glyph-name="uni0312" unicode="&#x312;" 
d="M276 1155h155l119 266h-95z" />
    <glyph glyph-name="uni031B" unicode="&#x31b;" 
d="M132 1228l-14 -82q119 0 204 26t136 80t65 137h-141q-10 -58 -37.5 -93.5t-78.5 -51.5t-134 -16z" />
    <glyph glyph-name="dotbelowcomb" unicode="&#x323;" 
d="M76 -286q34 0 57.5 24t23.5 57t-24 56t-56 23q-33 0 -56.5 -23t-23.5 -56q0 -34 23 -57.5t56 -23.5z" />
    <glyph glyph-name="uni0324" unicode="&#x324;" 
d="M6 -240q34 0 62 26t28 62q0 29 -19.5 48.5t-48.5 19.5q-34 0 -62 -26t-28 -63q0 -29 18.5 -48t49.5 -19zM340 -240q35 0 62.5 26t27.5 62q0 29 -18.5 48.5t-48.5 19.5q-35 0 -62.5 -26t-27.5 -63q0 -29 19 -48t48 -19z" />
    <glyph glyph-name="uni0326" unicode="&#x326;" 
d="M-105 -301h88l167 230h-143z" />
    <glyph glyph-name="uni0327" unicode="&#x327;" 
d="M183 -314q50 0 99 10t90.5 30t69 49.5t33.5 67.5q9 53 -23.5 78.5t-91.5 25.5q-46 0 -88.5 -13.5t-64.5 -31.5l-11 -45q18 10 42 17t45 7q25 0 38 -8t9 -27q-5 -24 -37 -39.5t-90 -15.5q-36 0 -67.5 5t-53.5 11l-53 -103q36 -8 75.5 -13t78.5 -5zM196 -143l75 143h-101
l-62 -131z" />
    <glyph glyph-name="uni0328" unicode="&#x328;" 
d="M226 -336q39 0 75.5 4t64.5 10t38 10l18 121q-11 -4 -34.5 -10t-51.5 -10t-54 -4q-34 0 -50 12t-16 33q0 22 16 55.5t37 65.5t35 49h-120q-25 -24 -52.5 -63t-46 -83.5t-18.5 -84.5q0 -39 22 -62t58.5 -33t78.5 -10z" />
    <glyph glyph-name="uni032E" unicode="&#x32e;" 
d="M103 -284q69 0 121 24t84 62.5t40 84.5h-118q-5 -25 -17 -45t-35.5 -31t-60.5 -11q-33 0 -52 11.5t-26 30.5t-3 45h-118q-7 -46 12 -84.5t63 -62.5t110 -24z" />
    <glyph glyph-name="uni0331" unicode="&#x331;" 
d="M-128 -220h618l16 92h-617z" />
    <glyph glyph-name="uni0335" unicode="&#x335;" 
d="M189 1370h702l29 161h-702z" />
    <glyph glyph-name="uni0336" unicode="&#x336;" 
d="M231 1204h618l16 92h-617z" />
    <glyph glyph-name="uni0337" unicode="&#x337;" 
d="M13 0h121l664 972h-121z" />
    <glyph glyph-name="uni0338" unicode="&#x338;" 
d="M-90 0h206l776 1348h-207z" />
    <glyph glyph-name="uni1E08" unicode="&#x1e08;" horiz-adv-x="1281" 
d="M526 -8q318 0 460 156t182 391h-246q-37 -211 -130 -295t-243 -84q-153 0 -219.5 97t-15.5 421q53 333 158 424t259 91q151 0 211.5 -79t27.5 -299h247q36 244 -52 395.5t-407 151.5t-476.5 -162.5t-214.5 -521.5q-56 -350 41.5 -518t417.5 -168zM461 -314q50 0 99 10
t90.5 30t69 49.5t33.5 67.5q9 53 -23.5 78.5t-91.5 25.5q-46 0 -88.5 -13.5t-64.5 -31.5l-11 -45q18 10 42 17t45 7q25 0 38 -8t9 -27q-5 -24 -37 -39.5t-90 -15.5q-36 0 -67.5 5t-53.5 11l-53 -103q36 -8 75.5 -13t78.5 -5zM474 -143l75 143h-101l-62 -131zM577 1392h121
l235 179h-174z" />
    <glyph glyph-name="uni1E09" unicode="&#x1e09;" horiz-adv-x="1182" 
d="M494 -10q262 0 392.5 132t166.5 268l-202 76q-28 -130 -115.5 -219t-215.5 -89q-126 0 -184 96.5t-34 310.5q27 267 129 364.5t240 97.5q128 0 183.5 -83t40.5 -229l228 73q10 152 -77 280t-350 128q-298 0 -456 -159t-184 -483q-23 -262 64.5 -413t373.5 -151zM454 -314
q50 0 99 10t90.5 30t69 49.5t33.5 67.5q9 53 -23.5 78.5t-91.5 25.5q-46 0 -88.5 -13.5t-64.5 -31.5l-11 -45q18 10 42 17t45 7q25 0 38 -8t9 -27q-5 -24 -37 -39.5t-90 -15.5q-36 0 -67.5 5t-53.5 11l-53 -103q36 -8 75.5 -13t78.5 -5zM467 -143l75 143h-101l-62 -131z
M539 1228h121l235 179h-174z" />
    <glyph glyph-name="uni1E0C" unicode="&#x1e0c;" horiz-adv-x="1261" 
d="M-21 0h609q263 0 401 145.5t198 530.5q58 375 -25 524.5t-346 149.5h-599zM253 168l178 1014h294q156 0 214 -91t4 -415q-56 -330 -148.5 -419t-247.5 -89h-294zM468 -251q34 0 57.5 24t23.5 57t-24 56t-56 23q-33 0 -56.5 -23t-23.5 -56q0 -34 23 -57.5t56 -23.5z" />
    <glyph glyph-name="uni1E0D" unicode="&#x1e0d;" horiz-adv-x="1225" 
d="M782 0h224l276 1570h-240l-244 -1389zM393 -7q200 0 356 97.5t176 206.5l-85 120q-18 -102 -118 -180t-221 -78q-122 0 -176 87.5t-25 322.5q30 266 123 362.5t231 96.5q122 0 194 -77t55 -178l125 117q20 110 -104.5 208t-323.5 98q-238 0 -378.5 -166t-166.5 -484
q-25 -260 50.5 -406.5t287.5 -146.5zM518 -286q34 0 57.5 24t23.5 57t-24 56t-56 23q-33 0 -56.5 -23t-23.5 -56q0 -34 23 -57.5t56 -23.5z" />
    <glyph glyph-name="Dmacronbelow" unicode="&#x1e0e;" horiz-adv-x="1261" 
d="M-21 0h609q263 0 401 145.5t198 530.5q58 375 -25 524.5t-346 149.5h-599zM253 168l178 1014h294q156 0 214 -91t4 -415q-56 -330 -148.5 -419t-247.5 -89h-294zM147 -220h618l16 92h-617z" />
    <glyph glyph-name="dmacronbelow" unicode="&#x1e0f;" horiz-adv-x="1225" 
d="M782 0h224l276 1570h-240l-244 -1389zM393 -7q200 0 356 97.5t176 206.5l-85 120q-18 -102 -118 -180t-221 -78q-122 0 -176 87.5t-25 322.5q30 266 123 362.5t231 96.5q122 0 194 -77t55 -178l125 117q20 110 -104.5 208t-323.5 98q-238 0 -378.5 -166t-166.5 -484
q-25 -260 50.5 -406.5t287.5 -146.5zM205 -220h618l16 92h-617z" />
    <glyph glyph-name="uni1E14" unicode="&#x1e14;" horiz-adv-x="1105" 
d="M-29 0h920l30 168h-676l77 440h634l29 161h-634l72 413h676l30 168h-920zM370 1447h618l16 92h-617zM752 1596h115l-119 179h-168z" />
    <glyph glyph-name="uni1E15" unicode="&#x1e15;" horiz-adv-x="1237" 
d="M506 -10l28 158q-144 0 -207 102q-65 100 -23 344q43 257 145 351t239 94q140 0 203 -89q50 -81 23 -280h-621l-26 -148h863q10 34 17 75q51 292 -43 447q-95 153 -388 153q-285 0 -441 -153q-155 -153 -206 -449q-47 -283 49 -444q95 -161 388 -161zM534 148l-28 -158
q159 0 266 38q105 37 185 119q79 81 119 201l-207 60q-32 -80 -76 -144q-45 -63 -109 -90q-66 -26 -150 -26zM426 1283h618l16 92h-617zM804 1427h115l-119 179h-168z" />
    <glyph glyph-name="uni1E16" unicode="&#x1e16;" horiz-adv-x="1105" 
d="M-29 0h920l30 168h-676l77 440h634l29 161h-634l72 413h676l30 168h-920zM370 1447h618l16 92h-617zM540 1582h121l235 179h-174z" />
    <glyph glyph-name="uni1E17" unicode="&#x1e17;" horiz-adv-x="1237" 
d="M506 -10l28 158q-144 0 -207 102q-65 100 -23 344q43 257 145 351t239 94q140 0 203 -89q50 -81 23 -280h-621l-26 -148h863q10 34 17 75q51 292 -43 447q-95 153 -388 153q-285 0 -441 -153q-155 -153 -206 -449q-47 -283 49 -444q95 -161 388 -161zM534 148l-28 -158
q159 0 266 38q105 37 185 119q79 81 119 201l-207 60q-32 -80 -76 -144q-45 -63 -109 -90q-66 -26 -150 -26zM426 1283h618l16 92h-617zM596 1418h121l235 179h-174z" />
    <glyph glyph-name="uni1E1C" unicode="&#x1e1c;" horiz-adv-x="1105" 
d="M-29 0h920l30 168h-676l77 440h634l29 161h-634l72 413h676l30 168h-920zM389 -314q50 0 99 10t90.5 30t69 49.5t33.5 67.5q9 53 -23.5 78.5t-91.5 25.5q-46 0 -88.5 -13.5t-64.5 -31.5l-11 -45q18 10 42 17t45 7q25 0 38 -8t9 -27q-5 -24 -37 -39.5t-90 -15.5
q-36 0 -67.5 5t-53.5 11l-53 -103q36 -8 75.5 -13t78.5 -5zM402 -143l75 143h-101l-62 -131zM672 1410q69 0 121 24t84 62.5t40 84.5h-118q-5 -25 -17 -45t-35.5 -31t-60.5 -11q-33 0 -52 11.5t-26 30.5t-3 45h-118q-7 -46 12 -84.5t63 -62.5t110 -24z" />
    <glyph glyph-name="uni1E1D" unicode="&#x1e1d;" horiz-adv-x="1237" 
d="M506 -10l28 158q-144 0 -207 102q-65 100 -23 344q43 257 145 351t239 94q140 0 203 -89q50 -81 23 -280h-621l-26 -148h863q10 34 17 75q51 292 -43 447q-95 153 -388 153q-285 0 -441 -153q-155 -153 -206 -449q-47 -283 49 -444q95 -161 388 -161zM534 148l-28 -158
q159 0 266 38q105 37 185 119q79 81 119 201l-207 60q-32 -80 -76 -144q-45 -63 -109 -90q-66 -26 -150 -26zM449 -314q50 0 99 10t90.5 30t69 49.5t33.5 67.5q9 53 -23.5 78.5t-91.5 25.5q-46 0 -88.5 -13.5t-64.5 -31.5l-11 -45q18 10 42 17t45 7q25 0 38 -8t9 -27
q-5 -24 -37 -39.5t-90 -15.5q-36 0 -67.5 5t-53.5 11l-53 -103q36 -8 75.5 -13t78.5 -5zM462 -143l75 143h-101l-62 -131zM728 1246q69 0 121 24t84 62.5t40 84.5h-118q-5 -25 -17 -45t-35.5 -31t-60.5 -11q-33 0 -52 11.5t-26 30.5t-3 45h-118q-7 -46 12 -84.5t63 -62.5
t110 -24z" />
    <glyph glyph-name="uni1E20" unicode="&#x1e20;" horiz-adv-x="1305" 
d="M505 -8q325 0 436 204l-9 -196h141l117 668h-526l-26 -147h274l-15 -86q-32 -146 -112.5 -210.5t-231.5 -64.5q-161 0 -220.5 105t-15.5 404q51 332 154 428.5t263 96.5q155 0 212 -81.5t31 -264.5h244q33 213 -63.5 363.5t-399.5 150.5q-322 0 -478.5 -164.5
t-206.5 -520.5q-49 -348 39 -516.5t393 -168.5zM474 1447h618l16 92h-617z" />
    <glyph glyph-name="uni1E21" unicode="&#x1e21;" horiz-adv-x="1244" 
d="M397 -466q163 0 280.5 45.5t209.5 157t126 306.5l202 1142h-178l-107 -240l-163 -925q-34 -200 -122 -265.5t-214 -65.5q-76 0 -131 25t-79 77.5t-18 139.5h-236q-19 -218 105 -307.5t325 -89.5zM389 -7q201 0 357.5 95.5t176.5 207.5l-86 121q-17 -102 -117 -180
t-221 -78q-128 0 -183.5 91t-13.5 344q43 253 133 343.5t217 90.5q121 0 193.5 -77t54.5 -178l126 111q19 110 -104 211t-323 101q-221 0 -358.5 -151.5t-182.5 -449.5q-45 -297 32.5 -449.5t298.5 -152.5zM418 1283h618l16 92h-617z" />
    <glyph glyph-name="uni1E24" unicode="&#x1e24;" horiz-adv-x="1275" 
d="M-21 0h245l106 604h574l-106 -604h244l238 1350h-244l-102 -578h-574l102 578h-244zM480 -251q34 0 57.5 24t23.5 57t-24 56t-56 23q-33 0 -56.5 -23t-23.5 -56q0 -34 23 -57.5t56 -23.5z" />
    <glyph glyph-name="uni1E25" unicode="&#x1e25;" horiz-adv-x="1214" 
d="M-17 0h242l278 1570h-242zM743 0h241l119 672q43 246 -21.5 385t-277.5 139q-217 0 -375.5 -135.5t-184.5 -284.5l106 -67q24 139 120.5 229t216.5 90q118 0 163.5 -81t9.5 -285zM455 -286q34 0 57.5 24t23.5 57t-24 56t-56 23q-33 0 -56.5 -23t-23.5 -56q0 -34 23 -57.5
t56 -23.5z" />
    <glyph glyph-name="uni1E2A" unicode="&#x1e2a;" horiz-adv-x="1275" 
d="M-21 0h245l106 604h574l-106 -604h244l238 1350h-244l-102 -578h-574l102 578h-244zM458 -284q69 0 121 24t84 62.5t40 84.5h-118q-5 -25 -17 -45t-35.5 -31t-60.5 -11q-33 0 -52 11.5t-26 30.5t-3 45h-118q-7 -46 12 -84.5t63 -62.5t110 -24z" />
    <glyph glyph-name="uni1E2B" unicode="&#x1e2b;" horiz-adv-x="1214" 
d="M-17 0h242l278 1570h-242zM743 0h241l119 672q43 246 -21.5 385t-277.5 139q-217 0 -375.5 -135.5t-184.5 -284.5l106 -67q24 139 120.5 229t216.5 90q118 0 163.5 -81t9.5 -285zM440 -284q69 0 121 24t84 62.5t40 84.5h-118q-5 -25 -17 -45t-35.5 -31t-60.5 -11
q-33 0 -52 11.5t-26 30.5t-3 45h-118q-7 -46 12 -84.5t63 -62.5t110 -24z" />
    <glyph glyph-name="uni1E2E" unicode="&#x1e2e;" horiz-adv-x="553" 
d="M32 0h244l238 1350h-243zM248 1417q34 0 62 26t28 62q0 29 -19.5 48.5t-48.5 19.5q-34 0 -62 -26t-28 -63q0 -29 18.5 -48t49.5 -19zM582 1417q35 0 62.5 26t27.5 62q0 29 -18.5 48.5t-48.5 19.5q-35 0 -62.5 -26t-27.5 -63q0 -29 19 -48t48 -19zM285 1615h121l235 179
h-174z" />
    <glyph glyph-name="uni1E2F" unicode="&#x1e2f;" horiz-adv-x="483" 
d="M-5 0h243l209 1185h-243zM171 1253q34 0 62 26t28 62q0 29 -19.5 48.5t-48.5 19.5q-34 0 -62 -26t-28 -63q0 -29 18.5 -48t49.5 -19zM505 1253q35 0 62.5 26t27.5 62q0 29 -18.5 48.5t-48.5 19.5q-35 0 -62.5 -26t-27.5 -63q0 -29 19 -48t48 -19zM207 1451h121l235 179
h-174z" />
    <glyph glyph-name="uni1E36" unicode="&#x1e36;" horiz-adv-x="997" 
d="M-21 0h823l30 167h-579l209 1183h-244zM370 -251q34 0 57.5 24t23.5 57t-24 56t-56 23q-33 0 -56.5 -23t-23.5 -56q0 -34 23 -57.5t56 -23.5z" />
    <glyph glyph-name="uni1E37" unicode="&#x1e37;" horiz-adv-x="496" 
d="M7 0h242l277 1570h-242zM97 -286q34 0 57.5 24t23.5 57t-24 56t-56 23q-33 0 -56.5 -23t-23.5 -56q0 -34 23 -57.5t56 -23.5z" />
    <glyph glyph-name="Lmacronbelow" unicode="&#x1e3a;" horiz-adv-x="997" 
d="M-21 0h823l30 167h-579l209 1183h-244zM49 -220h618l16 92h-617z" />
    <glyph glyph-name="lmacronbelow" unicode="&#x1e3b;" horiz-adv-x="496" 
d="M7 0h242l277 1570h-242zM-216 -220h618l16 92h-617z" />
    <glyph glyph-name="uni1E42" unicode="&#x1e42;" horiz-adv-x="1662" 
d="M-21 0h241l209 1181h3l139 -1118h288l534 1118h3l-208 -1181h242l237 1350h-401l-523 -1113h-3l-131 1113h-392zM666 -251q34 0 57.5 24t23.5 57t-24 56t-56 23q-33 0 -56.5 -23t-23.5 -56q0 -34 23 -57.5t56 -23.5z" />
    <glyph glyph-name="uni1E43" unicode="&#x1e43;" horiz-adv-x="1802" 
d="M-17 0h242l175 993l-20 192h-188zM658 0h241l127 715q35 203 -15 341.5t-261 138.5q-185 0 -339.5 -136.5t-184.5 -308.5l119 -59q29 161 110.5 248.5t187.5 87.5q104 0 136 -79.5t2 -250.5zM1330 0h241l126 715q36 202 -13 341t-259 139q-185 0 -340 -138t-185 -307
l120 -59q28 161 109.5 248.5t188.5 87.5q104 0 134.5 -79.5t0.5 -250.5zM728 -286q34 0 57.5 24t23.5 57t-24 56t-56 23q-33 0 -56.5 -23t-23.5 -56q0 -34 23 -57.5t56 -23.5z" />
    <glyph glyph-name="uni1E44" unicode="&#x1e44;" horiz-adv-x="1433" 
d="M-21 0h243l207 1175h3l388 -1175h381l238 1350h-243l-207 -1162h-4l-384 1162h-384zM863 1407q34 0 57.5 24t23.5 57t-24 56t-56 23q-33 0 -56.5 -23t-23.5 -56q0 -34 23 -57.5t56 -23.5z" />
    <glyph glyph-name="uni1E45" unicode="&#x1e45;" horiz-adv-x="1206" 
d="M-17 0h242l170 970l-13 216h-189zM734 0h242l116 665q43 246 -19.5 388.5t-274.5 142.5q-218 0 -377 -135.5t-186 -284.5l106 -67q24 139 122 229t218 90q117 0 161.5 -81t8.5 -285zM729 1243q34 0 57.5 24t23.5 57t-24 56t-56 23q-33 0 -56.5 -23t-23.5 -56
q0 -34 23 -57.5t56 -23.5z" />
    <glyph glyph-name="uni1E46" unicode="&#x1e46;" horiz-adv-x="1433" 
d="M-21 0h243l207 1175h3l388 -1175h381l238 1350h-243l-207 -1162h-4l-384 1162h-384zM570 -251q34 0 57.5 24t23.5 57t-24 56t-56 23q-33 0 -56.5 -23t-23.5 -56q0 -34 23 -57.5t56 -23.5z" />
    <glyph glyph-name="uni1E47" unicode="&#x1e47;" horiz-adv-x="1206" 
d="M-17 0h242l170 970l-13 216h-189zM734 0h242l116 665q43 246 -19.5 388.5t-274.5 142.5q-218 0 -377 -135.5t-186 -284.5l106 -67q24 139 122 229t218 90q117 0 161.5 -81t8.5 -285zM442 -286q34 0 57.5 24t23.5 57t-24 56t-56 23q-33 0 -56.5 -23t-23.5 -56
q0 -34 23 -57.5t56 -23.5z" />
    <glyph glyph-name="Nmacronbelow" unicode="&#x1e48;" horiz-adv-x="1433" 
d="M-21 0h243l207 1175h3l388 -1175h381l238 1350h-243l-207 -1162h-4l-384 1162h-384zM250 -220h618l16 92h-617z" />
    <glyph glyph-name="nmacronbelow" unicode="&#x1e49;" horiz-adv-x="1206" 
d="M-17 0h242l170 970l-13 216h-189zM734 0h242l116 665q43 246 -19.5 388.5t-274.5 142.5q-218 0 -377 -135.5t-186 -284.5l106 -67q24 139 122 229t218 90q117 0 161.5 -81t8.5 -285zM130 -220h618l16 92h-617z" />
    <glyph glyph-name="uni1E4C" unicode="&#x1e4c;" horiz-adv-x="1340" 
d="M548 -10q317 0 490 166.5t228 518.5q54 351 -53 519t-423 168t-490 -167t-228 -520q-54 -351 53 -518t423 -167zM578 158q-159 0 -236 98.5t-27 418.5q53 323 170 420.5t275 97.5t236 -97.5t27 -420.5q-52 -320 -169.5 -418.5t-275.5 -98.5zM916 1425q57 0 96 18t63 45
t36.5 54t16.5 44h-120q-3 -11 -14.5 -26.5t-30 -26t-43.5 -10.5q-30 0 -51 10.5t-40 25.5t-43.5 26t-64.5 11q-56 0 -95.5 -17.5t-64 -44t-37.5 -52.5t-18 -45h121q4 12 14 27t29 25.5t47 10.5q27 0 46 -11.5t39 -26.5t46.5 -26t67.5 -11zM674 1635h121l235 179h-174z" />
    <glyph glyph-name="uni1E4D" unicode="&#x1e4d;" horiz-adv-x="1242" 
d="M500 -9q282 0 442 150t207 455q46 302 -56.5 452t-385.5 150t-443 -148.5t-206 -453.5q-46 -301 56.5 -453t385.5 -152zM526 157q-132 0 -199 91.5t-28 346.5q41 254 145 345.5t236 91.5q133 0 200 -91t27 -346q-40 -254 -144.5 -346t-236.5 -92zM835 1261q57 0 96 18
t63 45t36.5 54t16.5 44h-120q-3 -11 -14.5 -26.5t-30 -26t-43.5 -10.5q-30 0 -51 10.5t-40 25.5t-43.5 26t-64.5 11q-56 0 -95.5 -17.5t-64 -44t-37.5 -52.5t-18 -45h121q4 12 14 27t29 25.5t47 10.5q27 0 46 -11.5t39 -26.5t46.5 -26t67.5 -11zM594 1471h121l235 179h-174z
" />
    <glyph glyph-name="uni1E4E" unicode="&#x1e4e;" horiz-adv-x="1340" 
d="M548 -10q317 0 490 166.5t228 518.5q54 351 -53 519t-423 168t-490 -167t-228 -520q-54 -351 53 -518t423 -167zM578 158q-159 0 -236 98.5t-27 418.5q53 323 170 420.5t275 97.5t236 -97.5t27 -420.5q-52 -320 -169.5 -418.5t-275.5 -98.5zM916 1425q57 0 96 18t63 45
t36.5 54t16.5 44h-120q-3 -11 -14.5 -26.5t-30 -26t-43.5 -10.5q-30 0 -51 10.5t-40 25.5t-43.5 26t-64.5 11q-56 0 -95.5 -17.5t-64 -44t-37.5 -52.5t-18 -45h121q4 12 14 27t29 25.5t47 10.5q27 0 46 -11.5t39 -26.5t46.5 -26t67.5 -11zM673 1660q34 0 62 26t28 62
q0 29 -19.5 48.5t-48.5 19.5q-34 0 -62 -26t-28 -63q0 -29 18.5 -48t49.5 -19zM1007 1660q35 0 62.5 26t27.5 62q0 29 -18.5 48.5t-48.5 19.5q-35 0 -62.5 -26t-27.5 -63q0 -29 19 -48t48 -19z" />
    <glyph glyph-name="uni1E4F" unicode="&#x1e4f;" horiz-adv-x="1242" 
d="M500 -9q282 0 442 150t207 455q46 302 -56.5 452t-385.5 150t-443 -148.5t-206 -453.5q-46 -301 56.5 -453t385.5 -152zM526 157q-132 0 -199 91.5t-28 346.5q41 254 145 345.5t236 91.5q133 0 200 -91t27 -346q-40 -254 -144.5 -346t-236.5 -92zM835 1261q57 0 96 18
t63 45t36.5 54t16.5 44h-120q-3 -11 -14.5 -26.5t-30 -26t-43.5 -10.5q-30 0 -51 10.5t-40 25.5t-43.5 26t-64.5 11q-56 0 -95.5 -17.5t-64 -44t-37.5 -52.5t-18 -45h121q4 12 14 27t29 25.5t47 10.5q27 0 46 -11.5t39 -26.5t46.5 -26t67.5 -11zM592 1496q34 0 62 26t28 62
q0 29 -19.5 48.5t-48.5 19.5q-34 0 -62 -26t-28 -63q0 -29 18.5 -48t49.5 -19zM926 1496q35 0 62.5 26t27.5 62q0 29 -18.5 48.5t-48.5 19.5q-35 0 -62.5 -26t-27.5 -63q0 -29 19 -48t48 -19z" />
    <glyph glyph-name="uni1E50" unicode="&#x1e50;" horiz-adv-x="1340" 
d="M548 -10q317 0 490 166.5t228 518.5q54 351 -53 519t-423 168t-490 -167t-228 -520q-54 -351 53 -518t423 -167zM578 158q-159 0 -236 98.5t-27 418.5q53 323 170 420.5t275 97.5t236 -97.5t27 -420.5q-52 -320 -169.5 -418.5t-275.5 -98.5zM497 1447h618l16 92h-617z
M879 1596h115l-119 179h-168z" />
    <glyph glyph-name="uni1E51" unicode="&#x1e51;" horiz-adv-x="1242" 
d="M500 -9q282 0 442 150t207 455q46 302 -56.5 452t-385.5 150t-443 -148.5t-206 -453.5q-46 -301 56.5 -453t385.5 -152zM526 157q-132 0 -199 91.5t-28 346.5q41 254 145 345.5t236 91.5q133 0 200 -91t27 -346q-40 -254 -144.5 -346t-236.5 -92zM416 1283h618l16 92
h-617zM793 1427h115l-119 179h-168z" />
    <glyph glyph-name="uni1E52" unicode="&#x1e52;" horiz-adv-x="1340" 
d="M548 -10q317 0 490 166.5t228 518.5q54 351 -53 519t-423 168t-490 -167t-228 -520q-54 -351 53 -518t423 -167zM578 158q-159 0 -236 98.5t-27 418.5q53 323 170 420.5t275 97.5t236 -97.5t27 -420.5q-52 -320 -169.5 -418.5t-275.5 -98.5zM497 1447h618l16 92h-617z
M666 1582h121l235 179h-174z" />
    <glyph glyph-name="uni1E53" unicode="&#x1e53;" horiz-adv-x="1242" 
d="M500 -9q282 0 442 150t207 455q46 302 -56.5 452t-385.5 150t-443 -148.5t-206 -453.5q-46 -301 56.5 -453t385.5 -152zM526 157q-132 0 -199 91.5t-28 346.5q41 254 145 345.5t236 91.5q133 0 200 -91t27 -346q-40 -254 -144.5 -346t-236.5 -92zM416 1283h618l16 92
h-617zM586 1418h121l235 179h-174z" />
    <glyph glyph-name="uni1E5A" unicode="&#x1e5a;" horiz-adv-x="1223" 
d="M-21 0h245l100 570h440q209 0 303 110.5t120 274.5q27 161 -22.5 278t-254.5 117h-693zM770 0h264l-182 648l-244 -13zM351 722l81 460h370q104 0 131 -62t8 -168q-18 -106 -68 -168t-152 -62h-370zM435 -251q34 0 57.5 24t23.5 57t-24 56t-56 23q-33 0 -56.5 -23
t-23.5 -56q0 -34 23 -57.5t56 -23.5z" />
    <glyph glyph-name="uni1E5B" unicode="&#x1e5b;" horiz-adv-x="1178" 
d="M815 624h242q52 297 -4 434.5t-268 137.5q-203 0 -343.5 -109.5t-168.5 -266.5l84 -62q19 104 103.5 186.5t206.5 82.5q108 0 149 -82.5t-1 -320.5zM-17 0h241l170 963l-14 222h-188zM427 -286q34 0 57.5 24t23.5 57t-24 56t-56 23q-33 0 -56.5 -23t-23.5 -56
q0 -34 23 -57.5t56 -23.5z" />
    <glyph glyph-name="Rmacronbelow" unicode="&#x1e5e;" horiz-adv-x="1223" 
d="M-21 0h245l100 570h440q209 0 303 110.5t120 274.5q27 161 -22.5 278t-254.5 117h-693zM770 0h264l-182 648l-244 -13zM351 722l81 460h370q104 0 131 -62t8 -168q-18 -106 -68 -168t-152 -62h-370zM115 -220h618l16 92h-617z" />
    <glyph glyph-name="rmacronbelow" unicode="&#x1e5f;" horiz-adv-x="1178" 
d="M815 624h242q52 297 -4 434.5t-268 137.5q-203 0 -343.5 -109.5t-168.5 -266.5l84 -62q19 104 103.5 186.5t206.5 82.5q108 0 149 -82.5t-1 -320.5zM-17 0h241l170 963l-14 222h-188zM115 -220h618l16 92h-617z" />
    <glyph glyph-name="uni1E60" unicode="&#x1e60;" horiz-adv-x="1259" 
d="M504 -8q311 0 453.5 114.5t161.5 281.5q23 167 -65 238t-345 135q-179 44 -268.5 88.5t-73.5 155.5q12 87 105 137t239 50q142 0 211 -59t35 -269h245q41 246 -55 372t-407 126q-306 0 -453.5 -113t-161.5 -272q-18 -157 68.5 -239t335.5 -143q175 -43 268 -86.5
t75 -154.5q-14 -93 -105 -144t-236 -51q-147 0 -214 60.5t-31 277.5h-245q-45 -260 50 -382.5t413 -122.5zM769 1406q34 0 57.5 24t23.5 57t-24 56t-56 23q-33 0 -56.5 -23t-23.5 -56q0 -34 23 -57.5t56 -23.5z" />
    <glyph glyph-name="uni1E61" unicode="&#x1e61;" horiz-adv-x="1207" 
d="M495 -9q221 0 377.5 83.5t179.5 251.5q25 174 -72 245.5t-302 109.5q-159 28 -246 62.5t-73 127.5q9 74 81 119t199 45q133 0 202 -62.5t67 -181.5l226 74q-1 179 -122.5 255t-344.5 76q-222 0 -373.5 -81t-172.5 -242q-25 -173 70 -247t286 -110q168 -35 258.5 -69
t75.5 -133q-9 -71 -83.5 -116.5t-206.5 -45.5q-140 0 -211 60t-68 196l-226 -75q5 -191 132 -266.5t347 -75.5zM708 1243q34 0 57.5 24t23.5 57t-24 56t-56 23q-33 0 -56.5 -23t-23.5 -56q0 -34 23 -57.5t56 -23.5z" />
    <glyph glyph-name="uni1E62" unicode="&#x1e62;" horiz-adv-x="1259" 
d="M504 -8q311 0 453.5 114.5t161.5 281.5q23 167 -65 238t-345 135q-179 44 -268.5 88.5t-73.5 155.5q12 87 105 137t239 50q142 0 211 -59t35 -269h245q41 246 -55 372t-407 126q-306 0 -453.5 -113t-161.5 -272q-18 -157 68.5 -239t335.5 -143q175 -43 268 -86.5
t75 -154.5q-14 -93 -105 -144t-236 -51q-147 0 -214 60.5t-31 277.5h-245q-45 -260 50 -382.5t413 -122.5zM477 -251q34 0 57.5 24t23.5 57t-24 56t-56 23q-33 0 -56.5 -23t-23.5 -56q0 -34 23 -57.5t56 -23.5z" />
    <glyph glyph-name="uni1E63" unicode="&#x1e63;" horiz-adv-x="1207" 
d="M495 -9q221 0 377.5 83.5t179.5 251.5q25 174 -72 245.5t-302 109.5q-159 28 -246 62.5t-73 127.5q9 74 81 119t199 45q133 0 202 -62.5t67 -181.5l226 74q-1 179 -122.5 255t-344.5 76q-222 0 -373.5 -81t-172.5 -242q-25 -173 70 -247t286 -110q168 -35 258.5 -69
t75.5 -133q-9 -71 -83.5 -116.5t-206.5 -45.5q-140 0 -211 60t-68 196l-226 -75q5 -191 132 -266.5t347 -75.5zM439 -286q34 0 57.5 24t23.5 57t-24 56t-56 23q-33 0 -56.5 -23t-23.5 -56q0 -34 23 -57.5t56 -23.5z" />
    <glyph glyph-name="uni1E64" unicode="&#x1e64;" horiz-adv-x="1259" 
d="M504 -8q311 0 453.5 114.5t161.5 281.5q23 167 -65 238t-345 135q-179 44 -268.5 88.5t-73.5 155.5q12 87 105 137t239 50q142 0 211 -59t35 -269h245q41 246 -55 372t-407 126q-306 0 -453.5 -113t-161.5 -272q-18 -157 68.5 -239t335.5 -143q175 -43 268 -86.5
t75 -154.5q-14 -93 -105 -144t-236 -51q-147 0 -214 60.5t-31 277.5h-245q-45 -260 50 -382.5t413 -122.5zM587 1391h121l235 179h-174zM808 1627q34 0 57.5 24t23.5 57t-24 56t-56 23q-33 0 -56.5 -23t-23.5 -56q0 -34 23 -57.5t56 -23.5z" />
    <glyph glyph-name="uni1E65" unicode="&#x1e65;" horiz-adv-x="1207" 
d="M495 -9q221 0 377.5 83.5t179.5 251.5q25 174 -72 245.5t-302 109.5q-159 28 -246 62.5t-73 127.5q9 74 81 119t199 45q133 0 202 -62.5t67 -181.5l226 74q-1 179 -122.5 255t-344.5 76q-222 0 -373.5 -81t-172.5 -242q-25 -173 70 -247t286 -110q168 -35 258.5 -69
t75.5 -133q-9 -71 -83.5 -116.5t-206.5 -45.5q-140 0 -211 60t-68 196l-226 -75q5 -191 132 -266.5t347 -75.5zM526 1228h121l235 179h-174zM746 1464q34 0 57.5 24t23.5 57t-24 56t-56 23q-33 0 -56.5 -23t-23.5 -56q0 -34 23 -57.5t56 -23.5z" />
    <glyph glyph-name="uni1E66" unicode="&#x1e66;" horiz-adv-x="1259" 
d="M504 -8q311 0 453.5 114.5t161.5 281.5q23 167 -65 238t-345 135q-179 44 -268.5 88.5t-73.5 155.5q12 87 105 137t239 50q142 0 211 -59t35 -269h245q41 246 -55 372t-407 126q-306 0 -453.5 -113t-161.5 -272q-18 -157 68.5 -239t335.5 -143q175 -43 268 -86.5
t75 -154.5q-14 -93 -105 -144t-236 -51q-147 0 -214 60.5t-31 277.5h-245q-45 -260 50 -382.5t413 -122.5zM674 1395h157l239 186h-147l-161 -131l-120 131h-143zM811 1638q34 0 57.5 24t23.5 57t-24 56t-56 23q-33 0 -56.5 -23t-23.5 -56q0 -34 23 -57.5t56 -23.5z" />
    <glyph glyph-name="uni1E67" unicode="&#x1e67;" horiz-adv-x="1207" 
d="M495 -9q221 0 377.5 83.5t179.5 251.5q25 174 -72 245.5t-302 109.5q-159 28 -246 62.5t-73 127.5q9 74 81 119t199 45q133 0 202 -62.5t67 -181.5l226 74q-1 179 -122.5 255t-344.5 76q-222 0 -373.5 -81t-172.5 -242q-25 -173 70 -247t286 -110q168 -35 258.5 -69
t75.5 -133q-9 -71 -83.5 -116.5t-206.5 -45.5q-140 0 -211 60t-68 196l-226 -75q5 -191 132 -266.5t347 -75.5zM612 1232h157l239 186h-147l-161 -131l-120 131h-143zM749 1475q34 0 57.5 24t23.5 57t-24 56t-56 23q-33 0 -56.5 -23t-23.5 -56q0 -34 23 -57.5t56 -23.5z" />
    <glyph glyph-name="uni1E68" unicode="&#x1e68;" horiz-adv-x="1259" 
d="M504 -8q311 0 453.5 114.5t161.5 281.5q23 167 -65 238t-345 135q-179 44 -268.5 88.5t-73.5 155.5q12 87 105 137t239 50q142 0 211 -59t35 -269h245q41 246 -55 372t-407 126q-306 0 -453.5 -113t-161.5 -272q-18 -157 68.5 -239t335.5 -143q175 -43 268 -86.5
t75 -154.5q-14 -93 -105 -144t-236 -51q-147 0 -214 60.5t-31 277.5h-245q-45 -260 50 -382.5t413 -122.5zM477 -251q34 0 57.5 24t23.5 57t-24 56t-56 23q-33 0 -56.5 -23t-23.5 -56q0 -34 23 -57.5t56 -23.5zM769 1406q34 0 57.5 24t23.5 57t-24 56t-56 23
q-33 0 -56.5 -23t-23.5 -56q0 -34 23 -57.5t56 -23.5z" />
    <glyph glyph-name="uni1E69" unicode="&#x1e69;" horiz-adv-x="1207" 
d="M495 -9q221 0 377.5 83.5t179.5 251.5q25 174 -72 245.5t-302 109.5q-159 28 -246 62.5t-73 127.5q9 74 81 119t199 45q133 0 202 -62.5t67 -181.5l226 74q-1 179 -122.5 255t-344.5 76q-222 0 -373.5 -81t-172.5 -242q-25 -173 70 -247t286 -110q168 -35 258.5 -69
t75.5 -133q-9 -71 -83.5 -116.5t-206.5 -45.5q-140 0 -211 60t-68 196l-226 -75q5 -191 132 -266.5t347 -75.5zM439 -286q34 0 57.5 24t23.5 57t-24 56t-56 23q-33 0 -56.5 -23t-23.5 -56q0 -34 23 -57.5t56 -23.5zM708 1243q34 0 57.5 24t23.5 57t-24 56t-56 23
q-33 0 -56.5 -23t-23.5 -56q0 -34 23 -57.5t56 -23.5z" />
    <glyph glyph-name="uni1E6C" unicode="&#x1e6c;" horiz-adv-x="1206" 
d="M357 0h245l208 1182h409l30 168h-1065l-29 -168h410zM455 -251q34 0 57.5 24t23.5 57t-24 56t-56 23q-33 0 -56.5 -23t-23.5 -56q0 -34 23 -57.5t56 -23.5z" />
    <glyph glyph-name="uni1E6D" unicode="&#x1e6d;" horiz-adv-x="1001" 
d="M519 -14q117 0 228 26l29 162q-75 -24 -149 -24q-79 0 -116 34t-19 139l123 694h383l30 168h-383l47 269h-242l-47 -269h-275l-30 -168h276l-133 -749q-28 -161 55.5 -221.5t222.5 -60.5zM437 -286q34 0 57.5 24t23.5 57t-24 56t-56 23q-33 0 -56.5 -23t-23.5 -56
q0 -34 23 -57.5t56 -23.5z" />
    <glyph glyph-name="Tmacronbelow" unicode="&#x1e6e;" horiz-adv-x="1206" 
d="M357 0h245l208 1182h409l30 168h-1065l-29 -168h410zM134 -220h618l16 92h-617z" />
    <glyph glyph-name="tmacronbelow" unicode="&#x1e6f;" horiz-adv-x="1001" 
d="M519 -14q117 0 228 26l29 162q-75 -24 -149 -24q-79 0 -116 34t-19 139l123 694h383l30 168h-383l47 269h-242l-47 -269h-275l-30 -168h276l-133 -749q-28 -161 55.5 -221.5t222.5 -60.5zM124 -220h618l16 92h-617z" />
    <glyph glyph-name="uni1E78" unicode="&#x1e78;" horiz-adv-x="1324" 
d="M534 -8q275 0 432.5 100.5t199.5 336.5l161 921h-244l-157 -892q-29 -164 -114.5 -231t-247.5 -67q-161 0 -223 67.5t-33 230.5l157 892h-244l-162 -921q-42 -236 79.5 -336.5t395.5 -100.5zM918 1425q57 0 96 18t63 45t36.5 54t16.5 44h-120q-3 -11 -14.5 -26.5t-30 -26
t-43.5 -10.5q-30 0 -51 10.5t-40 25.5t-43.5 26t-64.5 11q-56 0 -95.5 -17.5t-64 -44t-37.5 -52.5t-18 -45h121q4 12 14 27t29 25.5t47 10.5q27 0 46 -11.5t39 -26.5t46.5 -26t67.5 -11zM677 1635h121l235 179h-174z" />
    <glyph glyph-name="uni1E79" unicode="&#x1e79;" horiz-adv-x="1209" 
d="M789 0h187l208 1185h-241l-173 -980zM426 1186h-241l-118 -672q-43 -245 17.5 -384.5t276.5 -139.5q228 0 383 136t181 284l-107 63q-24 -139 -123.5 -227t-219.5 -88q-118 0 -160 81t-5 285zM824 1261q57 0 96 18t63 45t36.5 54t16.5 44h-120q-3 -11 -14.5 -26.5
t-30 -26t-43.5 -10.5q-30 0 -51 10.5t-40 25.5t-43.5 26t-64.5 11q-56 0 -95.5 -17.5t-64 -44t-37.5 -52.5t-18 -45h121q4 12 14 27t29 25.5t47 10.5q27 0 46 -11.5t39 -26.5t46.5 -26t67.5 -11zM583 1471h121l235 179h-174z" />
    <glyph glyph-name="uni1E7A" unicode="&#x1e7a;" horiz-adv-x="1324" 
d="M534 -8q275 0 432.5 100.5t199.5 336.5l161 921h-244l-157 -892q-29 -164 -114.5 -231t-247.5 -67q-161 0 -223 67.5t-33 230.5l157 892h-244l-162 -921q-42 -236 79.5 -336.5t395.5 -100.5zM499 1447h618l16 92h-617zM668 1606q34 0 62 26t28 62q0 29 -19.5 48.5
t-48.5 19.5q-34 0 -62 -26t-28 -63q0 -29 18.5 -48t49.5 -19zM1002 1606q35 0 62.5 26t27.5 62q0 29 -18.5 48.5t-48.5 19.5q-35 0 -62.5 -26t-27.5 -63q0 -29 19 -48t48 -19z" />
    <glyph glyph-name="uni1E7B" unicode="&#x1e7b;" horiz-adv-x="1209" 
d="M789 0h187l208 1185h-241l-173 -980zM426 1186h-241l-118 -672q-43 -245 17.5 -384.5t276.5 -139.5q228 0 383 136t181 284l-107 63q-24 -139 -123.5 -227t-219.5 -88q-118 0 -160 81t-5 285zM405 1283h618l16 92h-617zM573 1442q34 0 62 26t28 62q0 29 -19.5 48.5
t-48.5 19.5q-34 0 -62 -26t-28 -63q0 -29 18.5 -48t49.5 -19zM907 1442q35 0 62.5 26t27.5 62q0 29 -18.5 48.5t-48.5 19.5q-35 0 -62.5 -26t-27.5 -63q0 -29 19 -48t48 -19z" />
    <glyph glyph-name="Wgrave" unicode="&#x1e80;" horiz-adv-x="1886" 
d="M202 0h373l453 1182h3l33 -1182h375l501 1350h-268l-405 -1170h-3l-48 1170h-323l-460 -1170h-3l11 1170h-259zM1119 1402h115l-119 179h-168z" />
    <glyph glyph-name="wgrave" unicode="&#x1e81;" horiz-adv-x="1709" 
d="M204 0h327l373 944l45 -944h324l459 1185h-254l-349 -1022h-2l-59 1022h-245l-419 -1024h-3l6 1024h-247zM1004 1238h115l-119 179h-168z" />
    <glyph glyph-name="Wacute" unicode="&#x1e82;" horiz-adv-x="1886" 
d="M202 0h373l453 1182h3l33 -1182h375l501 1350h-268l-405 -1170h-3l-48 1170h-323l-460 -1170h-3l11 1170h-259zM910 1392h121l235 179h-174z" />
    <glyph glyph-name="wacute" unicode="&#x1e83;" horiz-adv-x="1709" 
d="M204 0h327l373 944l45 -944h324l459 1185h-254l-349 -1022h-2l-59 1022h-245l-419 -1024h-3l6 1024h-247zM796 1228h121l235 179h-174z" />
    <glyph glyph-name="Wdieresis" unicode="&#x1e84;" horiz-adv-x="1886" 
d="M202 0h373l453 1182h3l33 -1182h375l501 1350h-268l-405 -1170h-3l-48 1170h-323l-460 -1170h-3l11 1170h-259zM909 1417q34 0 62 26t28 62q0 29 -19.5 48.5t-48.5 19.5q-34 0 -62 -26t-28 -63q0 -29 18.5 -48t49.5 -19zM1243 1417q35 0 62.5 26t27.5 62q0 29 -18.5 48.5
t-48.5 19.5q-35 0 -62.5 -26t-27.5 -63q0 -29 19 -48t48 -19z" />
    <glyph glyph-name="wdieresis" unicode="&#x1e85;" horiz-adv-x="1709" 
d="M204 0h327l373 944l45 -944h324l459 1185h-254l-349 -1022h-2l-59 1022h-245l-419 -1024h-3l6 1024h-247zM794 1253q34 0 62 26t28 62q0 29 -19.5 48.5t-48.5 19.5q-34 0 -62 -26t-28 -63q0 -29 18.5 -48t49.5 -19zM1128 1253q35 0 62.5 26t27.5 62q0 29 -18.5 48.5
t-48.5 19.5q-35 0 -62.5 -26t-27.5 -63q0 -29 19 -48t48 -19z" />
    <glyph glyph-name="uni1E8E" unicode="&#x1e8e;" horiz-adv-x="1305" 
d="M405 0h244l92 524l635 826h-269l-455 -629h-2l-236 629h-262l344 -828zM806 1407q34 0 57.5 24t23.5 57t-24 56t-56 23q-33 0 -56.5 -23t-23.5 -56q0 -34 23 -57.5t56 -23.5z" />
    <glyph glyph-name="uni1E8F" unicode="&#x1e8f;" horiz-adv-x="1113" 
d="M266 0h369l548 1185h-254l-450 -1022h-2l-94 1022h-252zM-100 -463q255 0 428 88.5t307 374.5l-225 1q-84 -181 -192.5 -239.5t-288.5 -58.5zM684 1243q34 0 57.5 24t23.5 57t-24 56t-56 23q-33 0 -56.5 -23t-23.5 -56q0 -34 23 -57.5t56 -23.5z" />
    <glyph glyph-name="uni1E92" unicode="&#x1e92;" horiz-adv-x="1124" 
d="M-40 0h960l30 168h-688l839 1014l31 168h-923l-29 -167h650l-839 -1008zM410 -251q34 0 57.5 24t23.5 57t-24 56t-56 23q-33 0 -56.5 -23t-23.5 -56q0 -34 23 -57.5t56 -23.5z" />
    <glyph glyph-name="uni1E93" unicode="&#x1e93;" horiz-adv-x="1017" 
d="M-35 0h856l29 167h-567l1 4l706 847l30 167h-840l-29 -167h560l-1 -2l-715 -848zM364 -286q34 0 57.5 24t23.5 57t-24 56t-56 23q-33 0 -56.5 -23t-23.5 -56q0 -34 23 -57.5t56 -23.5z" />
    <glyph glyph-name="uni1E97" unicode="&#x1e97;" horiz-adv-x="1001" 
d="M519 -14q117 0 228 26l29 162q-75 -24 -149 -24q-79 0 -116 34t-19 139l123 694h383l30 168h-383l47 269h-242l-47 -269h-275l-30 -168h276l-133 -749q-28 -161 55.5 -221.5t222.5 -60.5zM425 1521q34 0 62 26t28 62q0 29 -19.5 48.5t-48.5 19.5q-34 0 -62 -26t-28 -63
q0 -29 18.5 -48t49.5 -19zM759 1521q35 0 62.5 26t27.5 62q0 29 -18.5 48.5t-48.5 19.5q-35 0 -62.5 -26t-27.5 -63q0 -29 19 -48t48 -19z" />
    <glyph glyph-name="uni1E9E" unicode="&#x1e9e;" horiz-adv-x="1204" 
d="M-21 0h244l207 1177h443l-369 -363l-25 -150q98 -7 166.5 -24t109.5 -45t56 -71t8 -103q-9 -102 -55 -160t-137 -80t-236 -17l-29 -164q192 -3 322 19.5t209.5 73.5t120 131t53.5 191q10 77 -2.5 136.5t-53.5 102t-115 68.5t-189 38l446 431l29 159h-964z" />
    <glyph glyph-name="uni1EA0" unicode="&#x1ea0;" horiz-adv-x="1365" 
d="M-45 0h252l175 361h514l47 -361h252l-208 1352h-348zM452 524l335 684h3l94 -684h-432zM543 -251q34 0 57.5 24t23.5 57t-24 56t-56 23q-33 0 -56.5 -23t-23.5 -56q0 -34 23 -57.5t56 -23.5z" />
    <glyph glyph-name="uni1EA1" unicode="&#x1ea1;" horiz-adv-x="1227" 
d="M379 -11q84 0 154.5 14.5t126 38.5t93 51t55.5 53l-5 -146h202l132 750q29 162 -15 259.5t-153.5 142.5t-276.5 45q-97 0 -185 -19t-162.5 -60t-131.5 -108t-92 -163l226 -64q30 91 78.5 146t110.5 79t134 24q85 0 141.5 -26.5t79 -86.5t5.5 -157l-10 -61h-384
q-65 0 -130.5 -9t-125 -32.5t-107.5 -64.5t-79 -105t-39 -155q-14 -137 25 -212t124.5 -104.5t208.5 -29.5zM458 146q-64 0 -110 16.5t-67 61.5t-13 129q6 67 30 109.5t61 65t82 31t94 8.5h324l-49 -280q-25 -35 -76 -67.5t-121 -53t-155 -20.5zM459 -286q34 0 57.5 24
t23.5 57t-24 56t-56 23q-33 0 -56.5 -23t-23.5 -56q0 -34 23 -57.5t56 -23.5z" />
    <glyph glyph-name="uni1EA2" unicode="&#x1ea2;" horiz-adv-x="1365" 
d="M-45 0h252l175 361h514l47 -361h252l-208 1352h-348zM452 524l335 684h3l94 -684h-432zM757 1680l-15 -77q90 0 145.5 -2.5t80 -11t22.5 -25.5q-2 -15 -27.5 -24t-66.5 -12t-92 -3l-21 -121h89l11 59q32 0 69.5 5.5t72.5 17.5t58 33t27 52q3 32 -16.5 53.5t-62.5 33.5
t-111.5 17t-162.5 5z" />
    <glyph glyph-name="uni1EA3" unicode="&#x1ea3;" horiz-adv-x="1227" 
d="M379 -11q84 0 154.5 14.5t126 38.5t93 51t55.5 53l-5 -146h202l132 750q29 162 -15 259.5t-153.5 142.5t-276.5 45q-97 0 -185 -19t-162.5 -60t-131.5 -108t-92 -163l226 -64q30 91 78.5 146t110.5 79t134 24q85 0 141.5 -26.5t79 -86.5t5.5 -157l-10 -61h-384
q-65 0 -130.5 -9t-125 -32.5t-107.5 -64.5t-79 -105t-39 -155q-14 -137 25 -212t124.5 -104.5t208.5 -29.5zM458 146q-64 0 -110 16.5t-67 61.5t-13 129q6 67 30 109.5t61 65t82 31t94 8.5h324l-49 -280q-25 -35 -76 -67.5t-121 -53t-155 -20.5zM643 1516l-15 -77
q90 0 145.5 -2.5t80 -11t22.5 -25.5q-2 -15 -27.5 -24t-66.5 -12t-92 -3l-21 -121h89l11 59q32 0 69.5 5.5t72.5 17.5t58 33t27 52q3 32 -16.5 53.5t-62.5 33.5t-111.5 17t-162.5 5z" />
    <glyph glyph-name="uni1EA4" unicode="&#x1ea4;" horiz-adv-x="1365" 
d="M-45 0h252l175 361h514l47 -361h252l-208 1352h-348zM452 524l335 684h3l94 -684h-432zM545 1411h145l164 132l117 -132h145l-175 186h-158zM1001 1563h121l235 179h-174z" />
    <glyph glyph-name="uni1EA5" unicode="&#x1ea5;" horiz-adv-x="1227" 
d="M379 -11q84 0 154.5 14.5t126 38.5t93 51t55.5 53l-5 -146h202l132 750q29 162 -15 259.5t-153.5 142.5t-276.5 45q-97 0 -185 -19t-162.5 -60t-131.5 -108t-92 -163l226 -64q30 91 78.5 146t110.5 79t134 24q85 0 141.5 -26.5t79 -86.5t5.5 -157l-10 -61h-384
q-65 0 -130.5 -9t-125 -32.5t-107.5 -64.5t-79 -105t-39 -155q-14 -137 25 -212t124.5 -104.5t208.5 -29.5zM458 146q-64 0 -110 16.5t-67 61.5t-13 129q6 67 30 109.5t61 65t82 31t94 8.5h324l-49 -280q-25 -35 -76 -67.5t-121 -53t-155 -20.5zM433 1247h145l164 132
l117 -132h145l-175 186h-158zM890 1399h121l235 179h-174z" />
    <glyph glyph-name="uni1EA6" unicode="&#x1ea6;" horiz-adv-x="1365" 
d="M-45 0h252l175 361h514l47 -361h252l-208 1352h-348zM452 524l335 684h3l94 -684h-432zM543 1407h145l164 132l117 -132h145l-175 186h-158zM1074 1563h115l-119 179h-168z" />
    <glyph glyph-name="uni1EA7" unicode="&#x1ea7;" horiz-adv-x="1227" 
d="M379 -11q84 0 154.5 14.5t126 38.5t93 51t55.5 53l-5 -146h202l132 750q29 162 -15 259.5t-153.5 142.5t-276.5 45q-97 0 -185 -19t-162.5 -60t-131.5 -108t-92 -163l226 -64q30 91 78.5 146t110.5 79t134 24q85 0 141.5 -26.5t79 -86.5t5.5 -157l-10 -61h-384
q-65 0 -130.5 -9t-125 -32.5t-107.5 -64.5t-79 -105t-39 -155q-14 -137 25 -212t124.5 -104.5t208.5 -29.5zM458 146q-64 0 -110 16.5t-67 61.5t-13 129q6 67 30 109.5t61 65t82 31t94 8.5h324l-49 -280q-25 -35 -76 -67.5t-121 -53t-155 -20.5zM431 1243h145l164 132
l117 -132h145l-175 186h-158zM962 1399h115l-119 179h-168z" />
    <glyph glyph-name="uni1EA8" unicode="&#x1ea8;" horiz-adv-x="1365" 
d="M-45 0h252l175 361h514l47 -361h252l-208 1352h-348zM452 524l335 684h3l94 -684h-432zM542 1401h145l164 132l117 -132h145l-175 186h-158zM795 1917l-15 -77q90 0 145.5 -2.5t80 -11t22.5 -25.5q-2 -15 -27.5 -24t-66.5 -12t-92 -3l-21 -121h89l11 59q32 0 69.5 5.5
t72.5 17.5t58 33t27 52q3 32 -16.5 53.5t-62.5 33.5t-111.5 17t-162.5 5z" />
    <glyph glyph-name="uni1EA9" unicode="&#x1ea9;" horiz-adv-x="1227" 
d="M379 -11q84 0 154.5 14.5t126 38.5t93 51t55.5 53l-5 -146h202l132 750q29 162 -15 259.5t-153.5 142.5t-276.5 45q-97 0 -185 -19t-162.5 -60t-131.5 -108t-92 -163l226 -64q30 91 78.5 146t110.5 79t134 24q85 0 141.5 -26.5t79 -86.5t5.5 -157l-10 -61h-384
q-65 0 -130.5 -9t-125 -32.5t-107.5 -64.5t-79 -105t-39 -155q-14 -137 25 -212t124.5 -104.5t208.5 -29.5zM458 146q-64 0 -110 16.5t-67 61.5t-13 129q6 67 30 109.5t61 65t82 31t94 8.5h324l-49 -280q-25 -35 -76 -67.5t-121 -53t-155 -20.5zM431 1237h145l164 132
l117 -132h145l-175 186h-158zM683 1753l-15 -77q90 0 145.5 -2.5t80 -11t22.5 -25.5q-2 -15 -27.5 -24t-66.5 -12t-92 -3l-21 -121h89l11 59q32 0 69.5 5.5t72.5 17.5t58 33t27 52q3 32 -16.5 53.5t-62.5 33.5t-111.5 17t-162.5 5z" />
    <glyph glyph-name="uni1EAA" unicode="&#x1eaa;" horiz-adv-x="1365" 
d="M-45 0h252l175 361h514l47 -361h252l-208 1352h-348zM452 524l335 684h3l94 -684h-432zM542 1401h145l164 132l117 -132h145l-175 186h-158zM987 1662q57 0 96 18t63 45t36.5 54t16.5 44h-120q-3 -11 -14.5 -26.5t-30 -26t-43.5 -10.5q-30 0 -51 10.5t-40 25.5t-43.5 26
t-64.5 11q-56 0 -95.5 -17.5t-64 -44t-37.5 -52.5t-18 -45h121q4 12 14 27t29 25.5t47 10.5q27 0 46 -11.5t39 -26.5t46.5 -26t67.5 -11z" />
    <glyph glyph-name="uni1EAB" unicode="&#x1eab;" horiz-adv-x="1227" 
d="M379 -11q84 0 154.5 14.5t126 38.5t93 51t55.5 53l-5 -146h202l132 750q29 162 -15 259.5t-153.5 142.5t-276.5 45q-97 0 -185 -19t-162.5 -60t-131.5 -108t-92 -163l226 -64q30 91 78.5 146t110.5 79t134 24q85 0 141.5 -26.5t79 -86.5t5.5 -157l-10 -61h-384
q-65 0 -130.5 -9t-125 -32.5t-107.5 -64.5t-79 -105t-39 -155q-14 -137 25 -212t124.5 -104.5t208.5 -29.5zM458 146q-64 0 -110 16.5t-67 61.5t-13 129q6 67 30 109.5t61 65t82 31t94 8.5h324l-49 -280q-25 -35 -76 -67.5t-121 -53t-155 -20.5zM431 1237h145l164 132
l117 -132h145l-175 186h-158zM876 1498q57 0 96 18t63 45t36.5 54t16.5 44h-120q-3 -11 -14.5 -26.5t-30 -26t-43.5 -10.5q-30 0 -51 10.5t-40 25.5t-43.5 26t-64.5 11q-56 0 -95.5 -17.5t-64 -44t-37.5 -52.5t-18 -45h121q4 12 14 27t29 25.5t47 10.5q27 0 46 -11.5
t39 -26.5t46.5 -26t67.5 -11z" />
    <glyph glyph-name="uni1EAC" unicode="&#x1eac;" horiz-adv-x="1365" 
d="M-45 0h252l175 361h514l47 -361h252l-208 1352h-348zM452 524l335 684h3l94 -684h-432zM543 -251q34 0 57.5 24t23.5 57t-24 56t-56 23q-33 0 -56.5 -23t-23.5 -56q0 -34 23 -57.5t56 -23.5zM542 1401h145l164 132l117 -132h145l-175 186h-158z" />
    <glyph glyph-name="uni1EAD" unicode="&#x1ead;" horiz-adv-x="1227" 
d="M379 -11q84 0 154.5 14.5t126 38.5t93 51t55.5 53l-5 -146h202l132 750q29 162 -15 259.5t-153.5 142.5t-276.5 45q-97 0 -185 -19t-162.5 -60t-131.5 -108t-92 -163l226 -64q30 91 78.5 146t110.5 79t134 24q85 0 141.5 -26.5t79 -86.5t5.5 -157l-10 -61h-384
q-65 0 -130.5 -9t-125 -32.5t-107.5 -64.5t-79 -105t-39 -155q-14 -137 25 -212t124.5 -104.5t208.5 -29.5zM458 146q-64 0 -110 16.5t-67 61.5t-13 129q6 67 30 109.5t61 65t82 31t94 8.5h324l-49 -280q-25 -35 -76 -67.5t-121 -53t-155 -20.5zM459 -286q34 0 57.5 24
t23.5 57t-24 56t-56 23q-33 0 -56.5 -23t-23.5 -56q0 -34 23 -57.5t56 -23.5zM431 1237h145l164 132l117 -132h145l-175 186h-158z" />
    <glyph glyph-name="uni1EAE" unicode="&#x1eae;" horiz-adv-x="1365" 
d="M-45 0h252l175 361h514l47 -361h252l-208 1352h-348zM452 524l335 684h3l94 -684h-432zM830 1410q69 0 121 24t84 62.5t40 84.5h-118q-5 -25 -17 -45t-35.5 -31t-60.5 -11q-33 0 -52 11.5t-26 30.5t-3 45h-118q-7 -46 12 -84.5t63 -62.5t110 -24zM705 1623h121l235 179
h-174z" />
    <glyph glyph-name="uni1EAF" unicode="&#x1eaf;" horiz-adv-x="1227" 
d="M379 -11q84 0 154.5 14.5t126 38.5t93 51t55.5 53l-5 -146h202l132 750q29 162 -15 259.5t-153.5 142.5t-276.5 45q-97 0 -185 -19t-162.5 -60t-131.5 -108t-92 -163l226 -64q30 91 78.5 146t110.5 79t134 24q85 0 141.5 -26.5t79 -86.5t5.5 -157l-10 -61h-384
q-65 0 -130.5 -9t-125 -32.5t-107.5 -64.5t-79 -105t-39 -155q-14 -137 25 -212t124.5 -104.5t208.5 -29.5zM458 146q-64 0 -110 16.5t-67 61.5t-13 129q6 67 30 109.5t61 65t82 31t94 8.5h324l-49 -280q-25 -35 -76 -67.5t-121 -53t-155 -20.5zM718 1246q69 0 121 24
t84 62.5t40 84.5h-118q-5 -25 -17 -45t-35.5 -31t-60.5 -11q-33 0 -52 11.5t-26 30.5t-3 45h-118q-7 -46 12 -84.5t63 -62.5t110 -24zM592 1459h121l235 179h-174z" />
    <glyph glyph-name="uni1EB0" unicode="&#x1eb0;" horiz-adv-x="1365" 
d="M-45 0h252l175 361h514l47 -361h252l-208 1352h-348zM452 524l335 684h3l94 -684h-432zM830 1410q69 0 121 24t84 62.5t40 84.5h-118q-5 -25 -17 -45t-35.5 -31t-60.5 -11q-33 0 -52 11.5t-26 30.5t-3 45h-118q-7 -46 12 -84.5t63 -62.5t110 -24zM913 1633h115l-119 179
h-168z" />
    <glyph glyph-name="uni1EB1" unicode="&#x1eb1;" horiz-adv-x="1227" 
d="M379 -11q84 0 154.5 14.5t126 38.5t93 51t55.5 53l-5 -146h202l132 750q29 162 -15 259.5t-153.5 142.5t-276.5 45q-97 0 -185 -19t-162.5 -60t-131.5 -108t-92 -163l226 -64q30 91 78.5 146t110.5 79t134 24q85 0 141.5 -26.5t79 -86.5t5.5 -157l-10 -61h-384
q-65 0 -130.5 -9t-125 -32.5t-107.5 -64.5t-79 -105t-39 -155q-14 -137 25 -212t124.5 -104.5t208.5 -29.5zM458 146q-64 0 -110 16.5t-67 61.5t-13 129q6 67 30 109.5t61 65t82 31t94 8.5h324l-49 -280q-25 -35 -76 -67.5t-121 -53t-155 -20.5zM718 1246q69 0 121 24
t84 62.5t40 84.5h-118q-5 -25 -17 -45t-35.5 -31t-60.5 -11q-33 0 -52 11.5t-26 30.5t-3 45h-118q-7 -46 12 -84.5t63 -62.5t110 -24zM801 1469h115l-119 179h-168z" />
    <glyph glyph-name="uni1EB2" unicode="&#x1eb2;" horiz-adv-x="1365" 
d="M-45 0h252l175 361h514l47 -361h252l-208 1352h-348zM452 524l335 684h3l94 -684h-432zM830 1410q69 0 121 24t84 62.5t40 84.5h-118q-5 -25 -17 -45t-35.5 -31t-60.5 -11q-33 0 -52 11.5t-26 30.5t-3 45h-118q-7 -46 12 -84.5t63 -62.5t110 -24zM795 1911l-15 -77
q90 0 145.5 -2.5t80 -11t22.5 -25.5q-2 -15 -27.5 -24t-66.5 -12t-92 -3l-21 -121h89l11 59q32 0 69.5 5.5t72.5 17.5t58 33t27 52q3 32 -16.5 53.5t-62.5 33.5t-111.5 17t-162.5 5z" />
    <glyph glyph-name="uni1EB3" unicode="&#x1eb3;" horiz-adv-x="1227" 
d="M379 -11q84 0 154.5 14.5t126 38.5t93 51t55.5 53l-5 -146h202l132 750q29 162 -15 259.5t-153.5 142.5t-276.5 45q-97 0 -185 -19t-162.5 -60t-131.5 -108t-92 -163l226 -64q30 91 78.5 146t110.5 79t134 24q85 0 141.5 -26.5t79 -86.5t5.5 -157l-10 -61h-384
q-65 0 -130.5 -9t-125 -32.5t-107.5 -64.5t-79 -105t-39 -155q-14 -137 25 -212t124.5 -104.5t208.5 -29.5zM458 146q-64 0 -110 16.5t-67 61.5t-13 129q6 67 30 109.5t61 65t82 31t94 8.5h324l-49 -280q-25 -35 -76 -67.5t-121 -53t-155 -20.5zM718 1246q69 0 121 24
t84 62.5t40 84.5h-118q-5 -25 -17 -45t-35.5 -31t-60.5 -11q-33 0 -52 11.5t-26 30.5t-3 45h-118q-7 -46 12 -84.5t63 -62.5t110 -24zM683 1747l-15 -77q90 0 145.5 -2.5t80 -11t22.5 -25.5q-2 -15 -27.5 -24t-66.5 -12t-92 -3l-21 -121h89l11 59q32 0 69.5 5.5t72.5 17.5
t58 33t27 52q3 32 -16.5 53.5t-62.5 33.5t-111.5 17t-162.5 5z" />
    <glyph glyph-name="uni1EB4" unicode="&#x1eb4;" horiz-adv-x="1365" 
d="M-45 0h252l175 361h514l47 -361h252l-208 1352h-348zM452 524l335 684h3l94 -684h-432zM830 1410q69 0 121 24t84 62.5t40 84.5h-118q-5 -25 -17 -45t-35.5 -31t-60.5 -11q-33 0 -52 11.5t-26 30.5t-3 45h-118q-7 -46 12 -84.5t63 -62.5t110 -24zM987 1656q57 0 96 18
t63 45t36.5 54t16.5 44h-120q-3 -11 -14.5 -26.5t-30 -26t-43.5 -10.5q-30 0 -51 10.5t-40 25.5t-43.5 26t-64.5 11q-56 0 -95.5 -17.5t-64 -44t-37.5 -52.5t-18 -45h121q4 12 14 27t29 25.5t47 10.5q27 0 46 -11.5t39 -26.5t46.5 -26t67.5 -11z" />
    <glyph glyph-name="uni1EB5" unicode="&#x1eb5;" horiz-adv-x="1227" 
d="M379 -11q84 0 154.5 14.5t126 38.5t93 51t55.5 53l-5 -146h202l132 750q29 162 -15 259.5t-153.5 142.5t-276.5 45q-97 0 -185 -19t-162.5 -60t-131.5 -108t-92 -163l226 -64q30 91 78.5 146t110.5 79t134 24q85 0 141.5 -26.5t79 -86.5t5.5 -157l-10 -61h-384
q-65 0 -130.5 -9t-125 -32.5t-107.5 -64.5t-79 -105t-39 -155q-14 -137 25 -212t124.5 -104.5t208.5 -29.5zM458 146q-64 0 -110 16.5t-67 61.5t-13 129q6 67 30 109.5t61 65t82 31t94 8.5h324l-49 -280q-25 -35 -76 -67.5t-121 -53t-155 -20.5zM718 1246q69 0 121 24
t84 62.5t40 84.5h-118q-5 -25 -17 -45t-35.5 -31t-60.5 -11q-33 0 -52 11.5t-26 30.5t-3 45h-118q-7 -46 12 -84.5t63 -62.5t110 -24zM876 1492q57 0 96 18t63 45t36.5 54t16.5 44h-120q-3 -11 -14.5 -26.5t-30 -26t-43.5 -10.5q-30 0 -51 10.5t-40 25.5t-43.5 26t-64.5 11
q-56 0 -95.5 -17.5t-64 -44t-37.5 -52.5t-18 -45h121q4 12 14 27t29 25.5t47 10.5q27 0 46 -11.5t39 -26.5t46.5 -26t67.5 -11z" />
    <glyph glyph-name="uni1EB6" unicode="&#x1eb6;" horiz-adv-x="1365" 
d="M-45 0h252l175 361h514l47 -361h252l-208 1352h-348zM452 524l335 684h3l94 -684h-432zM543 -251q34 0 57.5 24t23.5 57t-24 56t-56 23q-33 0 -56.5 -23t-23.5 -56q0 -34 23 -57.5t56 -23.5zM830 1410q69 0 121 24t84 62.5t40 84.5h-118q-5 -25 -17 -45t-35.5 -31
t-60.5 -11q-33 0 -52 11.5t-26 30.5t-3 45h-118q-7 -46 12 -84.5t63 -62.5t110 -24z" />
    <glyph glyph-name="uni1EB7" unicode="&#x1eb7;" horiz-adv-x="1227" 
d="M379 -11q84 0 154.5 14.5t126 38.5t93 51t55.5 53l-5 -146h202l132 750q29 162 -15 259.5t-153.5 142.5t-276.5 45q-97 0 -185 -19t-162.5 -60t-131.5 -108t-92 -163l226 -64q30 91 78.5 146t110.5 79t134 24q85 0 141.5 -26.5t79 -86.5t5.5 -157l-10 -61h-384
q-65 0 -130.5 -9t-125 -32.5t-107.5 -64.5t-79 -105t-39 -155q-14 -137 25 -212t124.5 -104.5t208.5 -29.5zM458 146q-64 0 -110 16.5t-67 61.5t-13 129q6 67 30 109.5t61 65t82 31t94 8.5h324l-49 -280q-25 -35 -76 -67.5t-121 -53t-155 -20.5zM459 -286q34 0 57.5 24
t23.5 57t-24 56t-56 23q-33 0 -56.5 -23t-23.5 -56q0 -34 23 -57.5t56 -23.5zM718 1246q69 0 121 24t84 62.5t40 84.5h-118q-5 -25 -17 -45t-35.5 -31t-60.5 -11q-33 0 -52 11.5t-26 30.5t-3 45h-118q-7 -46 12 -84.5t63 -62.5t110 -24z" />
    <glyph glyph-name="uni1EB8" unicode="&#x1eb8;" horiz-adv-x="1105" 
d="M-29 0h920l30 168h-676l77 440h634l29 161h-634l72 413h676l30 168h-920zM394 -251q34 0 57.5 24t23.5 57t-24 56t-56 23q-33 0 -56.5 -23t-23.5 -56q0 -34 23 -57.5t56 -23.5z" />
    <glyph glyph-name="uni1EB9" unicode="&#x1eb9;" horiz-adv-x="1237" 
d="M506 -10l28 158q-144 0 -207 102q-65 100 -23 344q43 257 145 351t239 94q140 0 203 -89q50 -81 23 -280h-621l-26 -148h863q10 34 17 75q51 292 -43 447q-95 153 -388 153q-285 0 -441 -153q-155 -153 -206 -449q-47 -283 49 -444q95 -161 388 -161zM534 148l-28 -158
q159 0 266 38q105 37 185 119q79 81 119 201l-207 60q-32 -80 -76 -144q-45 -63 -109 -90q-66 -26 -150 -26zM447 -286q34 0 57.5 24t23.5 57t-24 56t-56 23q-33 0 -56.5 -23t-23.5 -56q0 -34 23 -57.5t56 -23.5z" />
    <glyph glyph-name="uni1EBA" unicode="&#x1eba;" horiz-adv-x="1105" 
d="M-29 0h920l30 168h-676l77 440h634l29 161h-634l72 413h676l30 168h-920zM600 1680l-15 -77q90 0 145.5 -2.5t80 -11t22.5 -25.5q-2 -15 -27.5 -24t-66.5 -12t-92 -3l-21 -121h89l11 59q32 0 69.5 5.5t72.5 17.5t58 33t27 52q3 32 -16.5 53.5t-62.5 33.5t-111.5 17
t-162.5 5z" />
    <glyph glyph-name="uni1EBB" unicode="&#x1ebb;" horiz-adv-x="1237" 
d="M506 -10l28 158q-144 0 -207 102q-65 100 -23 344q43 257 145 351t239 94q140 0 203 -89q50 -81 23 -280h-621l-26 -148h863q10 34 17 75q51 292 -43 447q-95 153 -388 153q-285 0 -441 -153q-155 -153 -206 -449q-47 -283 49 -444q95 -161 388 -161zM534 148l-28 -158
q159 0 266 38q105 37 185 119q79 81 119 201l-207 60q-32 -80 -76 -144q-45 -63 -109 -90q-66 -26 -150 -26zM653 1516l-15 -77q90 0 145.5 -2.5t80 -11t22.5 -25.5q-2 -15 -27.5 -24t-66.5 -12t-92 -3l-21 -121h89l11 59q32 0 69.5 5.5t72.5 17.5t58 33t27 52
q3 32 -16.5 53.5t-62.5 33.5t-111.5 17t-162.5 5z" />
    <glyph glyph-name="uni1EBC" unicode="&#x1ebc;" horiz-adv-x="1105" 
d="M-29 0h920l30 168h-676l77 440h634l29 161h-634l72 413h676l30 168h-920zM789 1425q57 0 96 18t63 45t36.5 54t16.5 44h-120q-3 -11 -14.5 -26.5t-30 -26t-43.5 -10.5q-30 0 -51 10.5t-40 25.5t-43.5 26t-64.5 11q-56 0 -95.5 -17.5t-64 -44t-37.5 -52.5t-18 -45h121
q4 12 14 27t29 25.5t47 10.5q27 0 46 -11.5t39 -26.5t46.5 -26t67.5 -11z" />
    <glyph glyph-name="uni1EBD" unicode="&#x1ebd;" horiz-adv-x="1237" 
d="M506 -10l28 158q-144 0 -207 102q-65 100 -23 344q43 257 145 351t239 94q140 0 203 -89q50 -81 23 -280h-621l-26 -148h863q10 34 17 75q51 292 -43 447q-95 153 -388 153q-285 0 -441 -153q-155 -153 -206 -449q-47 -283 49 -444q95 -161 388 -161zM534 148l-28 -158
q159 0 266 38q105 37 185 119q79 81 119 201l-207 60q-32 -80 -76 -144q-45 -63 -109 -90q-66 -26 -150 -26zM845 1261q57 0 96 18t63 45t36.5 54t16.5 44h-120q-3 -11 -14.5 -26.5t-30 -26t-43.5 -10.5q-30 0 -51 10.5t-40 25.5t-43.5 26t-64.5 11q-56 0 -95.5 -17.5
t-64 -44t-37.5 -52.5t-18 -45h121q4 12 14 27t29 25.5t47 10.5q27 0 46 -11.5t39 -26.5t46.5 -26t67.5 -11z" />
    <glyph glyph-name="uni1EBE" unicode="&#x1ebe;" horiz-adv-x="1105" 
d="M-29 0h920l30 168h-676l77 440h634l29 161h-634l72 413h676l30 168h-920zM387 1411h145l164 132l117 -132h145l-175 186h-158zM845 1563h121l235 179h-174z" />
    <glyph glyph-name="uni1EBF" unicode="&#x1ebf;" horiz-adv-x="1237" 
d="M506 -10l28 158q-144 0 -207 102q-65 100 -23 344q43 257 145 351t239 94q140 0 203 -89q50 -81 23 -280h-621l-26 -148h863q10 34 17 75q51 292 -43 447q-95 153 -388 153q-285 0 -441 -153q-155 -153 -206 -449q-47 -283 49 -444q95 -161 388 -161zM534 148l-28 -158
q159 0 266 38q105 37 185 119q79 81 119 201l-207 60q-32 -80 -76 -144q-45 -63 -109 -90q-66 -26 -150 -26zM443 1247h145l164 132l117 -132h145l-175 186h-158zM900 1399h121l235 179h-174z" />
    <glyph glyph-name="uni1EC0" unicode="&#x1ec0;" horiz-adv-x="1105" 
d="M-29 0h920l30 168h-676l77 440h634l29 161h-634l72 413h676l30 168h-920zM386 1407h145l164 132l117 -132h145l-175 186h-158zM916 1563h115l-119 179h-168z" />
    <glyph glyph-name="uni1EC1" unicode="&#x1ec1;" horiz-adv-x="1237" 
d="M506 -10l28 158q-144 0 -207 102q-65 100 -23 344q43 257 145 351t239 94q140 0 203 -89q50 -81 23 -280h-621l-26 -148h863q10 34 17 75q51 292 -43 447q-95 153 -388 153q-285 0 -441 -153q-155 -153 -206 -449q-47 -283 49 -444q95 -161 388 -161zM534 148l-28 -158
q159 0 266 38q105 37 185 119q79 81 119 201l-207 60q-32 -80 -76 -144q-45 -63 -109 -90q-66 -26 -150 -26zM442 1243h145l164 132l117 -132h145l-175 186h-158zM972 1399h115l-119 179h-168z" />
    <glyph glyph-name="uni1EC2" unicode="&#x1ec2;" horiz-adv-x="1105" 
d="M-29 0h920l30 168h-676l77 440h634l29 161h-634l72 413h676l30 168h-920zM384 1401h145l164 132l117 -132h145l-175 186h-158zM638 1917l-15 -77q90 0 145.5 -2.5t80 -11t22.5 -25.5q-2 -15 -27.5 -24t-66.5 -12t-92 -3l-21 -121h89l11 59q32 0 69.5 5.5t72.5 17.5t58 33
t27 52q3 32 -16.5 53.5t-62.5 33.5t-111.5 17t-162.5 5z" />
    <glyph glyph-name="uni1EC3" unicode="&#x1ec3;" horiz-adv-x="1237" 
d="M506 -10l28 158q-144 0 -207 102q-65 100 -23 344q43 257 145 351t239 94q140 0 203 -89q50 -81 23 -280h-621l-26 -148h863q10 34 17 75q51 292 -43 447q-95 153 -388 153q-285 0 -441 -153q-155 -153 -206 -449q-47 -283 49 -444q95 -161 388 -161zM534 148l-28 -158
q159 0 266 38q105 37 185 119q79 81 119 201l-207 60q-32 -80 -76 -144q-45 -63 -109 -90q-66 -26 -150 -26zM440 1237h145l164 132l117 -132h145l-175 186h-158zM694 1753l-15 -77q90 0 145.5 -2.5t80 -11t22.5 -25.5q-2 -15 -27.5 -24t-66.5 -12t-92 -3l-21 -121h89l11 59
q32 0 69.5 5.5t72.5 17.5t58 33t27 52q3 32 -16.5 53.5t-62.5 33.5t-111.5 17t-162.5 5z" />
    <glyph glyph-name="uni1EC4" unicode="&#x1ec4;" horiz-adv-x="1105" 
d="M-29 0h920l30 168h-676l77 440h634l29 161h-634l72 413h676l30 168h-920zM384 1401h145l164 132l117 -132h145l-175 186h-158zM831 1662q57 0 96 18t63 45t36.5 54t16.5 44h-120q-3 -11 -14.5 -26.5t-30 -26t-43.5 -10.5q-30 0 -51 10.5t-40 25.5t-43.5 26t-64.5 11
q-56 0 -95.5 -17.5t-64 -44t-37.5 -52.5t-18 -45h121q4 12 14 27t29 25.5t47 10.5q27 0 46 -11.5t39 -26.5t46.5 -26t67.5 -11z" />
    <glyph glyph-name="uni1EC5" unicode="&#x1ec5;" horiz-adv-x="1237" 
d="M506 -10l28 158q-144 0 -207 102q-65 100 -23 344q43 257 145 351t239 94q140 0 203 -89q50 -81 23 -280h-621l-26 -148h863q10 34 17 75q51 292 -43 447q-95 153 -388 153q-285 0 -441 -153q-155 -153 -206 -449q-47 -283 49 -444q95 -161 388 -161zM534 148l-28 -158
q159 0 266 38q105 37 185 119q79 81 119 201l-207 60q-32 -80 -76 -144q-45 -63 -109 -90q-66 -26 -150 -26zM440 1237h145l164 132l117 -132h145l-175 186h-158zM886 1498q57 0 96 18t63 45t36.5 54t16.5 44h-120q-3 -11 -14.5 -26.5t-30 -26t-43.5 -10.5q-30 0 -51 10.5
t-40 25.5t-43.5 26t-64.5 11q-56 0 -95.5 -17.5t-64 -44t-37.5 -52.5t-18 -45h121q4 12 14 27t29 25.5t47 10.5q27 0 46 -11.5t39 -26.5t46.5 -26t67.5 -11z" />
    <glyph glyph-name="uni1EC6" unicode="&#x1ec6;" horiz-adv-x="1105" 
d="M-29 0h920l30 168h-676l77 440h634l29 161h-634l72 413h676l30 168h-920zM394 -251q34 0 57.5 24t23.5 57t-24 56t-56 23q-33 0 -56.5 -23t-23.5 -56q0 -34 23 -57.5t56 -23.5zM384 1401h145l164 132l117 -132h145l-175 186h-158z" />
    <glyph glyph-name="uni1EC7" unicode="&#x1ec7;" horiz-adv-x="1237" 
d="M506 -10l28 158q-144 0 -207 102q-65 100 -23 344q43 257 145 351t239 94q140 0 203 -89q50 -81 23 -280h-621l-26 -148h863q10 34 17 75q51 292 -43 447q-95 153 -388 153q-285 0 -441 -153q-155 -153 -206 -449q-47 -283 49 -444q95 -161 388 -161zM534 148l-28 -158
q159 0 266 38q105 37 185 119q79 81 119 201l-207 60q-32 -80 -76 -144q-45 -63 -109 -90q-66 -26 -150 -26zM447 -286q34 0 57.5 24t23.5 57t-24 56t-56 23q-33 0 -56.5 -23t-23.5 -56q0 -34 23 -57.5t56 -23.5zM440 1237h145l164 132l117 -132h145l-175 186h-158z" />
    <glyph glyph-name="uni1EC8" unicode="&#x1ec8;" horiz-adv-x="553" 
d="M32 0h244l238 1350h-243zM344 1680l-15 -77q90 0 145.5 -2.5t80 -11t22.5 -25.5q-2 -15 -27.5 -24t-66.5 -12t-92 -3l-21 -121h89l11 59q32 0 69.5 5.5t72.5 17.5t58 33t27 52q3 32 -16.5 53.5t-62.5 33.5t-111.5 17t-162.5 5z" />
    <glyph glyph-name="uni1EC9" unicode="&#x1ec9;" horiz-adv-x="483" 
d="M-5 0h243l209 1185h-243zM263 1516l-15 -77q90 0 145.5 -2.5t80 -11t22.5 -25.5q-2 -15 -27.5 -24t-66.5 -12t-92 -3l-21 -121h89l11 59q32 0 69.5 5.5t72.5 17.5t58 33t27 52q3 32 -16.5 53.5t-62.5 33.5t-111.5 17t-162.5 5z" />
    <glyph glyph-name="uni1ECA" unicode="&#x1eca;" horiz-adv-x="553" 
d="M32 0h244l238 1350h-243zM128 -251q34 0 57.5 24t23.5 57t-24 56t-56 23q-33 0 -56.5 -23t-23.5 -56q0 -34 23 -57.5t56 -23.5z" />
    <glyph glyph-name="uni1ECB" unicode="&#x1ecb;" horiz-adv-x="516" 
d="M26 0h242l208 1186h-242zM294 1519l-35 -195h241l35 195h-241zM127 -286q34 0 57.5 24t23.5 57t-24 56t-56 23q-33 0 -56.5 -23t-23.5 -56q0 -34 23 -57.5t56 -23.5z" />
    <glyph glyph-name="uni1ECC" unicode="&#x1ecc;" horiz-adv-x="1340" 
d="M548 -10q317 0 490 166.5t228 518.5q54 351 -53 519t-423 168t-490 -167t-228 -520q-54 -351 53 -518t423 -167zM578 158q-159 0 -236 98.5t-27 418.5q53 323 170 420.5t275 97.5t236 -97.5t27 -420.5q-52 -320 -169.5 -418.5t-275.5 -98.5zM520 -251q34 0 57.5 24
t23.5 57t-24 56t-56 23q-33 0 -56.5 -23t-23.5 -56q0 -34 23 -57.5t56 -23.5z" />
    <glyph glyph-name="uni1ECD" unicode="&#x1ecd;" horiz-adv-x="1242" 
d="M500 -9q282 0 442 150t207 455q46 302 -56.5 452t-385.5 150t-443 -148.5t-206 -453.5q-46 -301 56.5 -453t385.5 -152zM526 157q-132 0 -199 91.5t-28 346.5q41 254 145 345.5t236 91.5q133 0 200 -91t27 -346q-40 -254 -144.5 -346t-236.5 -92zM477 -286q34 0 57.5 24
t23.5 57t-24 56t-56 23q-33 0 -56.5 -23t-23.5 -56q0 -34 23 -57.5t56 -23.5z" />
    <glyph glyph-name="uni1ECE" unicode="&#x1ece;" horiz-adv-x="1340" 
d="M548 -10q317 0 490 166.5t228 518.5q54 351 -53 519t-423 168t-490 -167t-228 -520q-54 -351 53 -518t423 -167zM578 158q-159 0 -236 98.5t-27 418.5q53 323 170 420.5t275 97.5t236 -97.5t27 -420.5q-52 -320 -169.5 -418.5t-275.5 -98.5zM727 1680l-15 -77
q90 0 145.5 -2.5t80 -11t22.5 -25.5q-2 -15 -27.5 -24t-66.5 -12t-92 -3l-21 -121h89l11 59q32 0 69.5 5.5t72.5 17.5t58 33t27 52q3 32 -16.5 53.5t-62.5 33.5t-111.5 17t-162.5 5z" />
    <glyph glyph-name="uni1ECF" unicode="&#x1ecf;" horiz-adv-x="1242" 
d="M500 -9q282 0 442 150t207 455q46 302 -56.5 452t-385.5 150t-443 -148.5t-206 -453.5q-46 -301 56.5 -453t385.5 -152zM526 157q-132 0 -199 91.5t-28 346.5q41 254 145 345.5t236 91.5q133 0 200 -91t27 -346q-40 -254 -144.5 -346t-236.5 -92zM643 1516l-15 -77
q90 0 145.5 -2.5t80 -11t22.5 -25.5q-2 -15 -27.5 -24t-66.5 -12t-92 -3l-21 -121h89l11 59q32 0 69.5 5.5t72.5 17.5t58 33t27 52q3 32 -16.5 53.5t-62.5 33.5t-111.5 17t-162.5 5z" />
    <glyph glyph-name="uni1ED0" unicode="&#x1ed0;" horiz-adv-x="1340" 
d="M548 -10q317 0 490 166.5t228 518.5q54 351 -53 519t-423 168t-490 -167t-228 -520q-54 -351 53 -518t423 -167zM578 158q-159 0 -236 98.5t-27 418.5q53 323 170 420.5t275 97.5t236 -97.5t27 -420.5q-52 -320 -169.5 -418.5t-275.5 -98.5zM513 1411h145l164 132
l117 -132h145l-175 186h-158zM971 1563h121l235 179h-174z" />
    <glyph glyph-name="uni1ED1" unicode="&#x1ed1;" horiz-adv-x="1242" 
d="M500 -9q282 0 442 150t207 455q46 302 -56.5 452t-385.5 150t-443 -148.5t-206 -453.5q-46 -301 56.5 -453t385.5 -152zM526 157q-132 0 -199 91.5t-28 346.5q41 254 145 345.5t236 91.5q133 0 200 -91t27 -346q-40 -254 -144.5 -346t-236.5 -92zM433 1247h145l164 132
l117 -132h145l-175 186h-158zM890 1399h121l235 179h-174z" />
    <glyph glyph-name="uni1ED2" unicode="&#x1ed2;" horiz-adv-x="1340" 
d="M548 -10q317 0 490 166.5t228 518.5q54 351 -53 519t-423 168t-490 -167t-228 -520q-54 -351 53 -518t423 -167zM578 158q-159 0 -236 98.5t-27 418.5q53 323 170 420.5t275 97.5t236 -97.5t27 -420.5q-52 -320 -169.5 -418.5t-275.5 -98.5zM513 1407h145l164 132
l117 -132h145l-175 186h-158zM1043 1563h115l-119 179h-168z" />
    <glyph glyph-name="uni1ED3" unicode="&#x1ed3;" horiz-adv-x="1242" 
d="M500 -9q282 0 442 150t207 455q46 302 -56.5 452t-385.5 150t-443 -148.5t-206 -453.5q-46 -301 56.5 -453t385.5 -152zM526 157q-132 0 -199 91.5t-28 346.5q41 254 145 345.5t236 91.5q133 0 200 -91t27 -346q-40 -254 -144.5 -346t-236.5 -92zM431 1243h145l164 132
l117 -132h145l-175 186h-158zM962 1399h115l-119 179h-168z" />
    <glyph glyph-name="uni1ED4" unicode="&#x1ed4;" horiz-adv-x="1340" 
d="M548 -10q317 0 490 166.5t228 518.5q54 351 -53 519t-423 168t-490 -167t-228 -520q-54 -351 53 -518t423 -167zM578 158q-159 0 -236 98.5t-27 418.5q53 323 170 420.5t275 97.5t236 -97.5t27 -420.5q-52 -320 -169.5 -418.5t-275.5 -98.5zM511 1401h145l164 132
l117 -132h145l-175 186h-158zM765 1917l-15 -77q90 0 145.5 -2.5t80 -11t22.5 -25.5q-2 -15 -27.5 -24t-66.5 -12t-92 -3l-21 -121h89l11 59q32 0 69.5 5.5t72.5 17.5t58 33t27 52q3 32 -16.5 53.5t-62.5 33.5t-111.5 17t-162.5 5z" />
    <glyph glyph-name="uni1ED5" unicode="&#x1ed5;" horiz-adv-x="1242" 
d="M500 -9q282 0 442 150t207 455q46 302 -56.5 452t-385.5 150t-443 -148.5t-206 -453.5q-46 -301 56.5 -453t385.5 -152zM526 157q-132 0 -199 91.5t-28 346.5q41 254 145 345.5t236 91.5q133 0 200 -91t27 -346q-40 -254 -144.5 -346t-236.5 -92zM431 1237h145l164 132
l117 -132h145l-175 186h-158zM683 1753l-15 -77q90 0 145.5 -2.5t80 -11t22.5 -25.5q-2 -15 -27.5 -24t-66.5 -12t-92 -3l-21 -121h89l11 59q32 0 69.5 5.5t72.5 17.5t58 33t27 52q3 32 -16.5 53.5t-62.5 33.5t-111.5 17t-162.5 5z" />
    <glyph glyph-name="uni1ED6" unicode="&#x1ed6;" horiz-adv-x="1340" 
d="M548 -10q317 0 490 166.5t228 518.5q54 351 -53 519t-423 168t-490 -167t-228 -520q-54 -351 53 -518t423 -167zM578 158q-159 0 -236 98.5t-27 418.5q53 323 170 420.5t275 97.5t236 -97.5t27 -420.5q-52 -320 -169.5 -418.5t-275.5 -98.5zM511 1401h145l164 132
l117 -132h145l-175 186h-158zM957 1662q57 0 96 18t63 45t36.5 54t16.5 44h-120q-3 -11 -14.5 -26.5t-30 -26t-43.5 -10.5q-30 0 -51 10.5t-40 25.5t-43.5 26t-64.5 11q-56 0 -95.5 -17.5t-64 -44t-37.5 -52.5t-18 -45h121q4 12 14 27t29 25.5t47 10.5q27 0 46 -11.5
t39 -26.5t46.5 -26t67.5 -11z" />
    <glyph glyph-name="uni1ED7" unicode="&#x1ed7;" horiz-adv-x="1242" 
d="M500 -9q282 0 442 150t207 455q46 302 -56.5 452t-385.5 150t-443 -148.5t-206 -453.5q-46 -301 56.5 -453t385.5 -152zM526 157q-132 0 -199 91.5t-28 346.5q41 254 145 345.5t236 91.5q133 0 200 -91t27 -346q-40 -254 -144.5 -346t-236.5 -92zM431 1237h145l164 132
l117 -132h145l-175 186h-158zM876 1498q57 0 96 18t63 45t36.5 54t16.5 44h-120q-3 -11 -14.5 -26.5t-30 -26t-43.5 -10.5q-30 0 -51 10.5t-40 25.5t-43.5 26t-64.5 11q-56 0 -95.5 -17.5t-64 -44t-37.5 -52.5t-18 -45h121q4 12 14 27t29 25.5t47 10.5q27 0 46 -11.5
t39 -26.5t46.5 -26t67.5 -11z" />
    <glyph glyph-name="uni1ED8" unicode="&#x1ed8;" horiz-adv-x="1340" 
d="M548 -10q317 0 490 166.5t228 518.5q54 351 -53 519t-423 168t-490 -167t-228 -520q-54 -351 53 -518t423 -167zM578 158q-159 0 -236 98.5t-27 418.5q53 323 170 420.5t275 97.5t236 -97.5t27 -420.5q-52 -320 -169.5 -418.5t-275.5 -98.5zM520 -251q34 0 57.5 24
t23.5 57t-24 56t-56 23q-33 0 -56.5 -23t-23.5 -56q0 -34 23 -57.5t56 -23.5zM511 1401h145l164 132l117 -132h145l-175 186h-158z" />
    <glyph glyph-name="uni1ED9" unicode="&#x1ed9;" horiz-adv-x="1242" 
d="M500 -9q282 0 442 150t207 455q46 302 -56.5 452t-385.5 150t-443 -148.5t-206 -453.5q-46 -301 56.5 -453t385.5 -152zM526 157q-132 0 -199 91.5t-28 346.5q41 254 145 345.5t236 91.5q133 0 200 -91t27 -346q-40 -254 -144.5 -346t-236.5 -92zM477 -286q34 0 57.5 24
t23.5 57t-24 56t-56 23q-33 0 -56.5 -23t-23.5 -56q0 -34 23 -57.5t56 -23.5zM431 1237h145l164 132l117 -132h145l-175 186h-158z" />
    <glyph glyph-name="uni1EDA" unicode="&#x1eda;" horiz-adv-x="1340" 
d="M548 -10q317 0 490 166.5t228 518.5q54 351 -53 519t-423 168t-490 -167t-228 -520q-54 -351 53 -518t423 -167zM578 158q-159 0 -236 98.5t-27 418.5q53 323 170 420.5t275 97.5t236 -97.5t27 -420.5q-52 -320 -169.5 -418.5t-275.5 -98.5zM1171 1213l-14 -82
q119 0 204 26t136 80t65 137h-141q-10 -58 -37.5 -93.5t-78.5 -51.5t-134 -16zM632 1392h121l235 179h-174z" />
    <glyph glyph-name="uni1EDB" unicode="&#x1edb;" horiz-adv-x="1242" 
d="M500 -9q282 0 442 150t207 455q46 302 -56.5 452t-385.5 150t-443 -148.5t-206 -453.5q-46 -301 56.5 -453t385.5 -152zM526 157q-132 0 -199 91.5t-28 346.5q41 254 145 345.5t236 91.5q133 0 200 -91t27 -346q-40 -254 -144.5 -346t-236.5 -92zM1052 1066l-14 -82
q119 0 204 26t136 80t65 137h-141q-10 -58 -37.5 -93.5t-78.5 -51.5t-134 -16zM552 1228h121l235 179h-174z" />
    <glyph glyph-name="uni1EDC" unicode="&#x1edc;" horiz-adv-x="1340" 
d="M548 -10q317 0 490 166.5t228 518.5q54 351 -53 519t-423 168t-490 -167t-228 -520q-54 -351 53 -518t423 -167zM578 158q-159 0 -236 98.5t-27 418.5q53 323 170 420.5t275 97.5t236 -97.5t27 -420.5q-52 -320 -169.5 -418.5t-275.5 -98.5zM1171 1213l-14 -82
q119 0 204 26t136 80t65 137h-141q-10 -58 -37.5 -93.5t-78.5 -51.5t-134 -16zM844 1407h115l-119 179h-168z" />
    <glyph glyph-name="uni1EDD" unicode="&#x1edd;" horiz-adv-x="1242" 
d="M500 -9q282 0 442 150t207 455q46 302 -56.5 452t-385.5 150t-443 -148.5t-206 -453.5q-46 -301 56.5 -453t385.5 -152zM526 157q-132 0 -199 91.5t-28 346.5q41 254 145 345.5t236 91.5q133 0 200 -91t27 -346q-40 -254 -144.5 -346t-236.5 -92zM1052 1066l-14 -82
q119 0 204 26t136 80t65 137h-141q-10 -58 -37.5 -93.5t-78.5 -51.5t-134 -16zM760 1238h115l-119 179h-168z" />
    <glyph glyph-name="uni1EDE" unicode="&#x1ede;" horiz-adv-x="1340" 
d="M548 -10q317 0 490 166.5t228 518.5q54 351 -53 519t-423 168t-490 -167t-228 -520q-54 -351 53 -518t423 -167zM578 158q-159 0 -236 98.5t-27 418.5q53 323 170 420.5t275 97.5t236 -97.5t27 -420.5q-52 -320 -169.5 -418.5t-275.5 -98.5zM1171 1213l-14 -82
q119 0 204 26t136 80t65 137h-141q-10 -58 -37.5 -93.5t-78.5 -51.5t-134 -16zM727 1680l-15 -77q90 0 145.5 -2.5t80 -11t22.5 -25.5q-2 -15 -27.5 -24t-66.5 -12t-92 -3l-21 -121h89l11 59q32 0 69.5 5.5t72.5 17.5t58 33t27 52q3 32 -16.5 53.5t-62.5 33.5t-111.5 17
t-162.5 5z" />
    <glyph glyph-name="uni1EDF" unicode="&#x1edf;" horiz-adv-x="1242" 
d="M500 -9q282 0 442 150t207 455q46 302 -56.5 452t-385.5 150t-443 -148.5t-206 -453.5q-46 -301 56.5 -453t385.5 -152zM526 157q-132 0 -199 91.5t-28 346.5q41 254 145 345.5t236 91.5q133 0 200 -91t27 -346q-40 -254 -144.5 -346t-236.5 -92zM1052 1066l-14 -82
q119 0 204 26t136 80t65 137h-141q-10 -58 -37.5 -93.5t-78.5 -51.5t-134 -16zM643 1516l-15 -77q90 0 145.5 -2.5t80 -11t22.5 -25.5q-2 -15 -27.5 -24t-66.5 -12t-92 -3l-21 -121h89l11 59q32 0 69.5 5.5t72.5 17.5t58 33t27 52q3 32 -16.5 53.5t-62.5 33.5t-111.5 17
t-162.5 5z" />
    </font>
</defs>
</svg>
