<?xml version="1.0" standalone="no"?>
<!DOCTYPE svg PUBLIC "-//W3C//DTD SVG 1.1//EN" "http://www.w3.org/Graphics/SVG/1.1/DTD/svg11.dtd" >
<svg xmlns="http://www.w3.org/2000/svg" xmlns:xlink="http://www.w3.org/1999/xlink" version="1.1">
<metadata>
Created by FontForge 20201107 at Wed Mar  8 16:58:28 2023
 By 
Copyright 2020 The Anybody Project Authors (https://github.com/Etcetera-Type-Co/Anybody)
</metadata>
<defs>
<font id="Anybody-BlackItalic" horiz-adv-x="0" >
  <font-face 
    font-family="Anybody Black"
    font-weight="900"
    font-style="italic"
    font-stretch="normal"
    units-per-em="2000"
    panose-1="0 0 0 0 0 0 0 0 0 0"
    ascent="1600"
    descent="-400"
    x-height="1186"
    cap-height="1350"
    bbox="-464 -586 3222 2065"
    underline-thickness="120"
    underline-position="-270"
    slope="-10"
    unicode-range="U+000D-FB02"
  />
<missing-glyph horiz-adv-x="565" 
d="M28 146h348l184 1042h-348zM144 226l200 172l-16 20l-200 -172zM296 228l22 18l-140 172l-22 -18zM204 564l200 172l-16 20l-200 -172zM356 566l22 18l-140 172l-22 -18zM58 172l176 990h296l-176 -990h-296zM264 902l200 172l-16 20l-202 -172zM416 904l20 18l-138 172
l-22 -18z" />
    <glyph glyph-name="fi" unicode="fi" horiz-adv-x="1751" 
d="M163 0h451l156 880h302l54 306h-303l3 12q9 53 65 70.5t218 17.5h35l51 294h-47q-351 0 -544 -89t-229 -292l-3 -13h-243l-54 -306h244zM1085 0h452l208 1186h-452zM1361 1570l-50 -283h452l50 283h-452z" />
    <glyph glyph-name="fl" unicode="fl" horiz-adv-x="1738" 
d="M163 0h451l156 880h302l54 306h-303l3 12q9 53 65 70.5t218 17.5h35l51 294h-47q-351 0 -544 -89t-229 -292l-3 -13h-243l-54 -306h244zM1064 0h453l276 1570h-452z" />
    <glyph glyph-name="f_f" unicode="ff" horiz-adv-x="2126" 
d="M163 0h451l156 880h302l54 306h-303l3 12q9 53 65 70.5t218 17.5h35l51 294h-47q-351 0 -544 -89t-229 -292l-3 -13h-243l-54 -306h244zM1201 0h451l156 880h302l54 306h-303l3 12q9 53 65 70.5t218 17.5h35l51 294h-47q-351 0 -544 -89t-229 -292l-3 -13h-243l-54 -306
h244z" />
    <glyph glyph-name="f_f_i" unicode="ffi" horiz-adv-x="2789" 
d="M163 0h451l156 880h302l54 306h-303l3 12q9 53 65 70.5t218 17.5h35l51 294h-47q-351 0 -544 -89t-229 -292l-3 -13h-243l-54 -306h244zM1201 0h451l156 880h302l54 306h-303l3 12q9 53 65 70.5t218 17.5h35l51 294h-47q-351 0 -544 -89t-229 -292l-3 -13h-243l-54 -306
h244zM2123 0h452l208 1186h-452zM2399 1570l-50 -283h452l50 283h-452z" />
    <glyph glyph-name="f_f_l" unicode="ffl" horiz-adv-x="2776" 
d="M163 0h451l156 880h302l54 306h-303l3 12q9 53 65 70.5t218 17.5h35l51 294h-47q-351 0 -544 -89t-229 -292l-3 -13h-243l-54 -306h244zM1201 0h451l156 880h302l54 306h-303l3 12q9 53 65 70.5t218 17.5h35l51 294h-47q-351 0 -544 -89t-229 -292l-3 -13h-243l-54 -306
h244zM2102 0h453l276 1570h-452z" />
    <glyph glyph-name=".notdef" horiz-adv-x="565" 
d="M28 146h348l184 1042h-348zM144 226l200 172l-16 20l-200 -172zM296 228l22 18l-140 172l-22 -18zM204 564l200 172l-16 20l-200 -172zM356 566l22 18l-140 172l-22 -18zM58 172l176 990h296l-176 -990h-296zM264 902l200 172l-16 20l-202 -172zM416 904l20 18l-138 172
l-22 -18z" />
    <glyph glyph-name=".null" 
 />
    <glyph glyph-name="nonmarkingreturn" horiz-adv-x="666" 
 />
    <glyph glyph-name="CR" unicode="&#xd;" horiz-adv-x="450" 
 />
    <glyph glyph-name="space" unicode=" " horiz-adv-x="525" 
 />
    <glyph glyph-name="exclam" unicode="!" horiz-adv-x="614" 
d="M78 494h436l194 856h-523zM-33 -22h449l56 318h-449z" />
    <glyph glyph-name="quotedbl" unicode="&#x22;" horiz-adv-x="686" 
d="M415 744h252l106 606h-252zM75 744h262l106 606h-262z" />
    <glyph glyph-name="numbersign" unicode="#" horiz-adv-x="1705" 
d="M829 0h340l432 1350h-340zM-24 286h1575l46 262h-1575zM94 0h339l432 1350h-340zM98 798h1575l47 264h-1575z" />
    <glyph glyph-name="dollar" unicode="$" horiz-adv-x="1398" 
d="M655 1187l276 -1l35 195h-277zM437 -30h276l34 189h-277zM628 85q252 0 458 92t239 306q27 184 -90 262t-348 99q-153 17 -250 25.5t-89 55.5q4 34 52.5 53.5t134.5 19.5q95 0 159.5 -38t81.5 -95l420 145q-27 156 -190.5 218t-421.5 62q-259 0 -455 -85t-225 -280
q-28 -188 85.5 -273.5t330.5 -107.5q161 -19 262 -29.5t93 -58.5q-6 -35 -58.5 -55.5t-139.5 -20.5q-112 0 -178.5 37.5t-82.5 96.5l-420 -147q34 -151 207 -216.5t425 -65.5z" />
    <glyph glyph-name="percent" unicode="%" horiz-adv-x="1648" 
d="M-43 0h308l1436 1348h-306zM444 826q177 0 277.5 54.5t122.5 177.5l14 77q22 125 -64 180t-264 55t-279 -55.5t-124 -179.5l-14 -77q-23 -122 65 -177t266 -55zM467 996q-42 0 -59 12t-11 45l16 88q6 34 27 46t62 12q42 0 60 -12.5t12 -45.5l-16 -88q-7 -33 -28.5 -45
t-62.5 -12zM1143 -9q178 0 277.5 55.5t122.5 178.5l14 77q23 123 -63.5 178t-264.5 55q-179 0 -280 -55.5t-123 -177.5l-14 -77q-22 -122 66 -178t265 -56zM1166 161q-42 0 -59 12.5t-11 46.5l16 88q7 33 27.5 44.5t62.5 11.5q40 0 58.5 -12t12.5 -44l-16 -88
q-6 -34 -28 -46.5t-63 -12.5z" />
    <glyph glyph-name="ampersand" unicode="&#x26;" horiz-adv-x="1757" 
d="M593 -13q377 0 711 192t390 506h-404q-33 -190 -234.5 -288.5t-396.5 -98.5q-139 0 -188 17.5t-40 65.5q9 52 81 86.5t288 107.5q214 81 383.5 173t193.5 255q27 182 -124 270.5t-402 88.5q-232 0 -418.5 -90.5t-211.5 -271.5q-20 -129 74.5 -248.5t176.5 -194.5
l627 -557h513l-783 770q-91 82 -139 131.5t-38 98.5q6 37 45 53t111 16q70 0 109.5 -15.5t33.5 -52.5q-9 -49 -84.5 -92t-230.5 -79q-174 -69 -406.5 -176.5t-251.5 -303.5q-18 -185 136 -274t479 -89z" />
    <glyph glyph-name="quotesingle" unicode="'" horiz-adv-x="419" 
d="M89 784h322l101 566h-322z" />
    <glyph glyph-name="parenleft" unicode="(" horiz-adv-x="824" 
d="M219 -527l365 190q-18 28 -45 78t-53.5 123t-44.5 168.5t-18.5 215t24.5 262.5q26 145 69.5 266t95 218.5t104 172.5t97.5 126.5t73 78.5l-299 189q-29 -24 -81.5 -79t-117.5 -143t-131 -209t-121.5 -275.5t-88.5 -344.5q-33 -189 -32 -343t24.5 -272t57.5 -203.5
t67.5 -140t54.5 -78.5z" />
    <glyph glyph-name="parenright" unicode=")" horiz-adv-x="836" 
d="M233 -527q29 24 81.5 78.5t116.5 140t129.5 203.5t121 272t89.5 343q33 190 32 344.5t-24 275.5t-57 209t-67.5 143t-53.5 79l-365 -189q18 -27 44.5 -78.5t53 -126.5t44 -172.5t18.5 -219t-25 -265.5q-25 -143 -68 -262.5t-95 -215t-104 -168.5t-96.5 -123t-73.5 -78z
" />
    <glyph glyph-name="asterisk" unicode="*" horiz-adv-x="665" 
d="M225 1155l524 273l-49 119l-524 -273zM631 1155l87 114l-424 278l-89 -115zM352 1120h138l82 461h-138z" />
    <glyph glyph-name="plus" unicode="+" horiz-adv-x="659" 
d="M128 170h290l29 176h166l50 268h-166l30 177h-289l-31 -177h-166l-51 -268h169z" />
    <glyph glyph-name="comma" unicode="," horiz-adv-x="707" 
d="M-120 -317h253l333 512h-408z" />
    <glyph glyph-name="hyphen" unicode="-" horiz-adv-x="988" 
d="M-9 331h865l53 294h-864z" />
    <glyph glyph-name="period" unicode="." horiz-adv-x="561" 
d="M17 300l-53 -300h423l53 300h-423z" />
    <glyph glyph-name="slash" unicode="/" horiz-adv-x="1117" 
d="M-83 0h383l930 1348h-386z" />
    <glyph glyph-name="zero" unicode="0" horiz-adv-x="1343" 
d="M534 -16q308 0 476.5 99.5t209.5 316.5l99 546q41 217 -90.5 316.5t-439.5 99.5t-477 -99.5t-210 -316.5l-99 -546q-41 -217 90 -316.5t441 -99.5zM591 292q-86 0 -114.5 29.5t-15.5 97.5l91 509q14 68 54 97t126 29q82 0 112 -29.5t16 -96.5l-91 -509q-13 -67 -55 -97
t-123 -30z" />
    <glyph glyph-name="one" unicode="1" horiz-adv-x="1268" 
d="M-49 0h1155l54 308h-345l184 1044h-376l-465 -137l-57 -328l383 101l-120 -680h-359z" />
    <glyph glyph-name="two" unicode="2" horiz-adv-x="1376" 
d="M-48 0h1227l54 308h-750q4 26 85 55.5t251 92.5q208 89 358.5 195t167.5 278q16 149 -59.5 291t-473.5 142q-392 0 -534.5 -152t-173.5 -327h451q20 111 74 141t139 30q71 0 102.5 -24t17.5 -108q-11 -60 -61.5 -96t-287.5 -118q-249 -91 -381.5 -193.5t-159.5 -252.5z
" />
    <glyph glyph-name="three" unicode="3" horiz-adv-x="1367" 
d="M569 -16q401 0 537.5 124.5t156.5 285.5q13 113 -39 196t-220 89q171 6 258 91t102 200q21 157 -65 274.5t-486 117.5q-384 0 -531 -149.5t-180 -339.5h450q24 133 75.5 160t134.5 27q78 0 119.5 -20.5t20.5 -140.5q-8 -48 -63.5 -67.5t-190.5 -19.5l-49 -278
q135 0 184 -18t39 -67q-20 -116 -69.5 -139.5t-127.5 -23.5q-80 0 -123.5 27t-21.5 152h-450q-33 -192 61.5 -336.5t477.5 -144.5z" />
    <glyph glyph-name="four" unicode="4" horiz-adv-x="1354" 
d="M571 0h450l46 260h162l51 289h-162l141 801h-667l-575 -795l-52 -295h652zM465 549l284 484h4l-85 -484h-203z" />
    <glyph glyph-name="five" unicode="5" horiz-adv-x="1355" 
d="M548 -14q382 0 536 134.5t179 358.5q22 185 -55 307t-320 122q-207 0 -394 -80.5t-240 -260.5l246 -9q12 37 57 57t118 20q75 0 110.5 -26.5t16.5 -137.5q-22 -132 -67.5 -159.5t-121.5 -27.5q-74 0 -112.5 19.5t-22.5 128.5h-451q-21 -174 78.5 -310t442.5 -136zM49 558
h451l86 486h738l54 306h-1189z" />
    <glyph glyph-name="six" unicode="6" horiz-adv-x="1367" 
d="M554 -14q416 0 552.5 147.5t159.5 345.5q22 187 -48 304t-330 117q-225 0 -401.5 -104t-200.5 -182l195 -94q22 50 73 81.5t128 31.5q79 0 111 -28t10 -151q-19 -113 -62 -142t-122 -29q-77 0 -120 40t1 291q59 339 122 396.5t146 57.5q62 0 86.5 -23.5t17.5 -97.5h453
q23 132 -56 273.5t-449 141.5q-415 0 -569 -193t-196 -508q-42 -320 34 -497.5t465 -177.5z" />
    <glyph glyph-name="seven" unicode="7" horiz-adv-x="1224" 
d="M147 0h489q51 301 228 561.5t425 483.5l53 305h-1185l-54 -308h714l-2 -5q-233 -172 -422 -443t-246 -594z" />
    <glyph glyph-name="eight" unicode="8" horiz-adv-x="1350" 
d="M571 -16q358 0 509.5 142.5t177.5 320.5q27 179 -120.5 273t-421.5 94t-460.5 -93t-213.5 -274q-27 -177 61 -320t468 -143zM621 286q-79 0 -113.5 27.5t-17.5 119.5q17 100 62.5 125.5t121.5 25.5t112.5 -25.5t19.5 -125.5q-17 -92 -61.5 -119.5t-123.5 -27.5zM682 623
q279 0 448.5 80t197.5 254q21 149 -78.5 277t-443.5 128q-364 0 -499 -127.5t-155 -277.5q-27 -174 112 -254t418 -80zM720 843q-76 0 -111 22t-21 100q9 55 53 78.5t118 23.5t109.5 -23.5t25.5 -78.5q-14 -78 -56 -100t-118 -22z" />
    <glyph glyph-name="nine" unicode="9" horiz-adv-x="1374" 
d="M572 -14q415 0 563.5 203.5t195.5 497.5q48 298 -28.5 486.5t-460.5 188.5q-421 0 -558.5 -137t-159.5 -326q-23 -187 46 -319t329 -132q225 0 401.5 104t199.5 182l-194 94q-16 -50 -69 -76.5t-130 -26.5q-79 0 -115.5 27t-14.5 145q18 109 69 136t130 27
q77 0 114 -37.5t-3 -288.5q-57 -345 -118.5 -399.5t-149.5 -54.5q-62 0 -86.5 23.5t-19.5 87.5h-453q-18 -104 53.5 -254.5t458.5 -150.5z" />
    <glyph glyph-name="colon" unicode=":" horiz-adv-x="580" 
d="M17 300l-53 -300h423l53 300h-423zM155 1070l-53 -300h423l53 300h-423z" />
    <glyph glyph-name="semicolon" unicode=";" horiz-adv-x="682" 
d="M185 1071l-53 -300h423l53 300h-423zM-98 -202h253l333 512h-408z" />
    <glyph glyph-name="less" unicode="&#x3c;" horiz-adv-x="927" 
d="M747 -10l69 386l-462 111l501 110l68 385l-844 -335l-56 -322z" />
    <glyph glyph-name="equal" unicode="=" horiz-adv-x="660" 
d="M27 584h617l48 262h-617zM-55 123h617l48 261h-618z" />
    <glyph glyph-name="greater" unicode="&#x3e;" horiz-adv-x="927" 
d="M-21 -10l844 335l56 322l-724 335l-68 -385l462 -110l-501 -111z" />
    <glyph glyph-name="question" unicode="?" horiz-adv-x="1397" 
d="M452 471h442q15 63 49 112t153 125q101 61 192 146t98 208q13 153 -117 225.5t-455 72.5q-331 0 -503 -106.5t-218 -368.5h438q18 104 77 149t165 45q95 0 131 -21.5t30 -72.5q-5 -38 -60 -69t-142 -80q-118 -60 -187 -144t-93 -221zM439 280l-53 -300h423l53 300h-423z
" />
    <glyph glyph-name="at" unicode="@" horiz-adv-x="2010" 
d="M760 -52q86 0 170.5 10t160.5 26.5t134 37.5t91 42l-211 207q-7 -6 -31 -18t-62.5 -23.5t-87.5 -20t-107 -8.5q-60 0 -120 15.5t-112 48.5t-89 85t-51.5 126t-0.5 170q20 135 87.5 229t167.5 152t216 84.5t233 26.5q89 0 165 -12.5t134.5 -40t96 -70.5t51 -103.5
t-1.5 -139.5q-15 -80 -39.5 -139t-55.5 -97t-68 -56.5t-77 -18.5q-25 0 -44.5 9t-27.5 28.5t1 50.5l135 475h-209l-28 -91q4 16 -8.5 40.5t-44.5 43.5t-89 19q-64 0 -130 -23.5t-124.5 -72.5t-102 -123.5t-64.5 -176.5q-17 -83 -6 -144.5t44 -102.5t84.5 -61.5t114.5 -20.5
q75 0 130 18t89.5 42.5t44.5 46.5q-3 -19 4.5 -45.5t29 -51t61 -40.5t98.5 -16q76 0 158 19.5t160 60t146.5 103.5t118.5 149.5t73 197.5q30 140 -10 250.5t-138.5 188t-248.5 118t-341 40.5q-166 0 -324.5 -27t-299 -84.5t-253 -148t-186.5 -214.5t-99 -285
q-22 -148 7.5 -261.5t98 -194t163 -131t204.5 -74.5t220 -24zM959 497q-30 0 -47.5 22t-21 60t5.5 85q6 33 23 64.5t39.5 57t46.5 40t45 14.5q17 0 37 -5.5t33.5 -18.5t10.5 -34l-64 -235q-11 -18 -41 -34t-67 -16z" />
    <glyph glyph-name="A" unicode="A" horiz-adv-x="1574" 
d="M-51 0h469l120 289h392l17 -289h470l-176 1351h-643zM663 587l210 499h4l33 -499h-247z" />
    <glyph glyph-name="B" unicode="B" horiz-adv-x="1463" 
d="M-23 0h878q299 0 392 117t106 296q9 126 -37.5 212t-179.5 93q135 4 210 101.5t81 230.5q4 96 -38.5 198t-325.5 102h-848zM488 308l47 267h306q60 0 67 -33t-5 -105q-13 -73 -31 -101t-77 -28h-307zM583 848l35 196h275q51 0 60 -21t0 -71q-9 -51 -26.5 -77.5
t-67.5 -26.5h-276z" />
    <glyph glyph-name="C" unicode="C" horiz-adv-x="1454" 
d="M628 -8q415 0 570.5 179.5t191.5 387.5h-461q-30 -171 -94 -215t-161 -44q-100 0 -152 52t-9 327q43 278 118.5 327t175.5 49q98 0 145 -42.5t18 -217.5h462q33 214 -62 391t-511 177q-410 0 -584 -182.5t-224 -501.5q-51 -316 57 -501.5t520 -185.5z" />
    <glyph glyph-name="D" unicode="D" horiz-adv-x="1467" 
d="M-23 0h810q304 0 443 154t195 522q54 362 -31.5 518t-388.5 156h-790zM487 308l129 734h220q104 0 142 -48.5t-9 -317.5q-48 -270 -103 -319t-159 -49h-220z" />
    <glyph glyph-name="E" unicode="E" horiz-adv-x="1213" 
d="M-44 0h1067l54 308h-609l39 224h560l52 293h-560l38 217h609l55 308h-1067z" />
    <glyph glyph-name="F" unicode="F" horiz-adv-x="1127" 
d="M-65 0h457l79 447h501l51 293h-500l52 302h549l54 308h-1005z" />
    <glyph glyph-name="G" unicode="G" horiz-adv-x="1495" 
d="M587 -8q298 0 421 145l28 -137h255l129 739h-644l-46 -266h177l-2 -6q-30 -104 -77 -136t-148 -32q-109 0 -157.5 68t-11.5 298q48 286 120.5 338.5t178.5 52.5q100 0 143 -30.5t31 -166.5h457q23 186 -93.5 345t-493.5 159q-408 0 -580.5 -179t-219.5 -504
q-45 -318 55 -503t478 -185z" />
    <glyph glyph-name="H" unicode="H" horiz-adv-x="1499" 
d="M-23 0h457l88 506h405l-89 -506h457l238 1350h-457l-95 -536h-404l95 536h-457z" />
    <glyph glyph-name="I" unicode="I" horiz-adv-x="700" 
d="M5 0h455l238 1350h-454z" />
    <glyph glyph-name="J" unicode="J" horiz-adv-x="1455" 
d="M597 -11q329 0 505.5 103.5t211.5 300.5l169 957h-455l-157 -891q-15 -83 -64.5 -124.5t-167.5 -41.5t-150.5 46.5t-14.5 131.5l24 134h-456l-33 -186q-43 -218 110.5 -324t477.5 -106z" />
    <glyph glyph-name="K" unicode="K" horiz-adv-x="1423" 
d="M-23 0h454l97 553l254 -553h506l-328 669l571 681h-516l-444 -554l98 554h-454z" />
    <glyph glyph-name="L" unicode="L" horiz-adv-x="1125" 
d="M-23 0h967l54 306h-511l185 1044h-457z" />
    <glyph glyph-name="M" unicode="M" horiz-adv-x="2013" 
d="M-24 0h451l184 1037h2l18 -1032h525l382 1032h2l-182 -1037h451l237 1350h-740l-362 -1021h-2l-2 1021h-725z" />
    <glyph glyph-name="N" unicode="N" horiz-adv-x="1739" 
d="M-23 0h454l181 1029h3l212 -1029h708l238 1350h-455l-181 -1005h-4l-205 1005h-713z" />
    <glyph glyph-name="O" unicode="O" horiz-adv-x="1498" 
d="M634 -12q410 0 592 181t230 506q47 326 -61.5 507t-518.5 181t-592.5 -180.5t-230.5 -507.5q-47 -324 61.5 -505.5t519.5 -181.5zM688 296q-115 0 -168.5 53.5t-11.5 325.5q44 278 121.5 329t192.5 51q114 0 168.5 -51t10.5 -329q-44 -272 -121.5 -325.5t-191.5 -53.5z
" />
    <glyph glyph-name="P" unicode="P" horiz-adv-x="1406" 
d="M-23 0h457l58 331h390q280 0 395.5 174.5t126.5 374.5q12 159 -34.5 314.5t-325.5 155.5h-828zM547 639l71 403h244q66 0 84.5 -40t4.5 -150q-13 -124 -53.5 -168.5t-106.5 -44.5h-244z" />
    <glyph glyph-name="Q" unicode="Q" horiz-adv-x="1498" 
d="M928 -299l351 162l-206 409l-363 -144zM644 -12q410 0 584.5 168t227.5 519q51 345 -64.5 516.5t-525.5 171.5t-585 -168t-228 -520q-52 -344 64 -515.5t527 -171.5zM688 296q-115 0 -171.5 53.5t-8.5 325.5q49 278 124 329t190 51q114 0 171 -51t8 -329
q-48 -272 -123.5 -325.5t-189.5 -53.5z" />
    <glyph glyph-name="R" unicode="R" horiz-adv-x="1450" 
d="M-23 0h458l88 503h398q258 0 369 118.5t137 294.5q27 173 -30.5 303.5t-306.5 130.5h-875zM804 0h495l-233 637l-454 -15zM572 780l46 262h264q62 0 80 -32t5 -100q-11 -67 -40 -98.5t-91 -31.5h-264z" />
    <glyph glyph-name="S" unicode="S" horiz-adv-x="1474" 
d="M623 -7q398 0 562 136t185 327q20 161 -65 235t-402 135q-176 30 -267.5 48.5t-79.5 92.5q9 52 80 69t164 17q83 0 145.5 -21.5t40.5 -148.5h457q34 195 -79.5 337.5t-507.5 142.5q-395 0 -567.5 -134t-183.5 -318q-14 -152 70 -242t390 -148q164 -27 259.5 -46.5
t84.5 -83.5q-10 -56 -78 -74t-157 -18q-90 0 -150.5 23.5t-38.5 153.5h-457q-37 -208 75 -345.5t520 -137.5z" />
    <glyph glyph-name="T" unicode="T" horiz-adv-x="1379" 
d="M351 0h457l183 1042h391l55 308h-1240l-55 -308h392z" />
    <glyph glyph-name="U" unicode="U" horiz-adv-x="1509" 
d="M639 -7q346 0 531 110.5t231 369.5l154 877h-457l-146 -830q-21 -121 -74 -170t-184 -49q-130 0 -165.5 49.5t-14.5 169.5l146 830h-457l-154 -877q-46 -259 99.5 -369.5t490.5 -110.5z" />
    <glyph glyph-name="V" unicode="V" horiz-adv-x="1502" 
d="M324 0h621l630 1350h-470l-420 -1031h-2l-57 1031h-457z" />
    <glyph glyph-name="W" unicode="W" horiz-adv-x="2219" 
d="M147 0h694l328 1042h3l-43 -1042h696l476 1350h-500l-299 -1020h-3l15 1020h-595l-344 -1019h-3l68 1019h-484z" />
    <glyph glyph-name="X" unicode="X" horiz-adv-x="1506" 
d="M-96 0h524l311 477l144 -477h523l-296 668l522 682h-523l-302 -489l-127 489h-524l276 -682z" />
    <glyph glyph-name="Y" unicode="Y" horiz-adv-x="1539" 
d="M427 0h456l84 479l694 871h-499l-364 -520h-3l-184 520h-489l388 -873z" />
    <glyph glyph-name="Z" unicode="Z" horiz-adv-x="1252" 
d="M-55 0h1115l54 307h-608l727 736l55 307h-1090l-53 -305h583l-727 -728z" />
    <glyph glyph-name="bracketleft" unicode="[" horiz-adv-x="860" 
d="M-119 -428h762l53 293h-392l226 1297h392l54 293h-762z" />
    <glyph glyph-name="backslash" unicode="\" horiz-adv-x="1153" 
d="M594 0h408l-417 1348h-403z" />
    <glyph glyph-name="bracketright" unicode="]" horiz-adv-x="862" 
d="M-109 -428h763l333 1882h-762l-53 -292h392l-227 -1298h-393z" />
    <glyph glyph-name="asciicircum" unicode="^" horiz-adv-x="864" 
d="M86 1182h279l289 264h-257zM667 1184h263l-212 262h-247z" />
    <glyph glyph-name="underscore" unicode="_" horiz-adv-x="1401" 
d="M-165 -333h1403l53 291h-1403z" />
    <glyph glyph-name="grave" unicode="`" horiz-adv-x="728" 
d="M475 1204h195l-134 245h-293z" />
    <glyph glyph-name="a" unicode="a" horiz-adv-x="1457" 
d="M437 -14q70 0 136 11t123 30t100 43.5t67 52.5l18 -123h375l129 727q31 173 -27.5 276t-198.5 149t-354 46q-112 0 -218 -16t-198.5 -51t-163 -94t-111.5 -145l419 -125q24 52 62 80.5t82 39.5t87 11q62 0 103 -12.5t58.5 -44.5t9.5 -89l-5 -27h-363q-76 0 -153.5 -9.5
t-147.5 -34t-126 -67t-91.5 -109t-43.5 -159.5q-15 -137 29.5 -215.5t146 -111.5t256.5 -33zM587 272q-46 0 -75 9t-40 32t-6 66q4 34 16.5 55t33 31.5t49.5 14.5t67 4h249l-22 -128q-26 -25 -71 -44t-98 -29.5t-103 -10.5z" />
    <glyph glyph-name="b" unicode="b" horiz-adv-x="1458" 
d="M-25 0h412l69 162l247 1408h-452zM800 -7q265 0 412.5 174t181.5 439q31 248 -43 418.5t-339 170.5q-228 0 -419.5 -99.5t-214.5 -231.5l169 -179q16 93 90.5 148t159.5 55q95 0 131.5 -54.5t8.5 -234.5q-29 -190 -88.5 -245.5t-154.5 -55.5q-85 0 -140.5 54.5
t-38.5 151.5l-233 -182q-24 -132 133 -230.5t385 -98.5z" />
    <glyph glyph-name="c" unicode="c" horiz-adv-x="1365" 
d="M598 -12q333 0 475.5 124t188.5 248l-374 148q-31 -121 -93.5 -167t-146.5 -46q-83 0 -128.5 50.5t-22.5 230.5q25 204 99.5 258t156.5 54q83 0 129.5 -46t34.5 -172l425 142q-2 129 -104.5 257t-435.5 128q-383 0 -562.5 -168.5t-202.5 -473.5q-22 -263 78 -415
t483 -152z" />
    <glyph glyph-name="d" unicode="d" horiz-adv-x="1454" 
d="M828 0h420l276 1570h-450l-247 -1408zM427 -7q229 0 417.5 98.5t212.5 230.5l-169 182q-17 -95 -91.5 -150.5t-160.5 -55.5q-95 0 -130.5 54t-8.5 242q29 185 88.5 239.5t154.5 54.5q86 0 141 -55t39 -148l232 179q24 132 -132.5 231.5t-385.5 99.5q-274 0 -424.5 -184
t-169.5 -463q-19 -226 56.5 -390.5t330.5 -164.5z" />
    <glyph glyph-name="e" unicode="e" horiz-adv-x="1448" 
d="M624 -12l51 288q-108 0 -165 54q-59 52 -21 261q36 205 111 263q76 57 179 57q105 0 155 -49q27 -36 24 -133h-483l-47 -269h932q19 58 31 131q47 267 -62 438q-109 170 -500 170q-379 0 -554 -167q-174 -166 -223 -440q-48 -275 69 -440q116 -164 503 -164zM675 276
l-51 -288q202 0 317 31q113 30 208 91q94 59 140 172l-382 116q-33 -43 -61 -71q-30 -27 -67 -39q-39 -12 -104 -12z" />
    <glyph glyph-name="f" unicode="f" horiz-adv-x="1088" 
d="M163 0h451l156 880h302l54 306h-303l3 12q9 53 65 70.5t218 17.5h35l51 294h-47q-351 0 -544 -89t-229 -292l-3 -13h-243l-54 -306h244z" />
    <glyph glyph-name="g" unicode="g" horiz-adv-x="1468" 
d="M500 -473q211 0 353.5 48.5t259 171.5t155.5 343l194 1096h-328l-165 -226l-162 -918q-28 -165 -90.5 -198t-150.5 -33q-52 0 -91.5 14.5t-59.5 49.5t-17 83h-440q-16 -237 147 -334t395 -97zM428 -7q229 0 418 98.5t212 230.5l-170 182q-16 -95 -90.5 -150.5
t-160.5 -55.5q-95 0 -133 54.5t-5 241.5q33 185 90 239.5t152 54.5q86 0 141 -55t39 -148l231 169q23 132 -132.5 236.5t-384.5 104.5q-265 0 -410 -167.5t-182 -431.5q-37 -263 41.5 -433t343.5 -170z" />
    <glyph glyph-name="h" unicode="h" horiz-adv-x="1445" 
d="M-27 0h452l278 1570h-452zM788 0h451l107 609q46 262 -15.5 424t-310.5 162q-271 0 -467.5 -172.5t-226.5 -339.5l204 -86q24 133 100 211.5t163 78.5q78 0 105 -55.5t-7 -245.5z" />
    <glyph glyph-name="i" unicode="i" horiz-adv-x="663" 
d="M-3 0h452l208 1186h-452zM273 1570l-50 -283h452l50 283h-452z" />
    <glyph glyph-name="j" unicode="j" horiz-adv-x="689" 
d="M-322 -460q350 0 552 112t261 453l192 1081h-451l-194 -1099q-26 -150 -102 -193.5t-202 -43.5zM299 1570l-50 -283h452l50 283h-452z" />
    <glyph glyph-name="k" unicode="k" horiz-adv-x="1394" 
d="M-26 0h452l51 298l177 141l117 -439h478l-233 744l432 442h-528l-353 -389l135 773h-452z" />
    <glyph glyph-name="l" unicode="l" horiz-adv-x="665" 
d="M-9 0h453l276 1570h-452z" />
    <glyph glyph-name="m" unicode="m" horiz-adv-x="2104" 
d="M-26 0h452l180 1023l-76 163h-348zM713 0h451l117 664q36 206 -18.5 368.5t-312.5 162.5q-219 0 -417 -166t-227 -331l223 -88q27 149 84.5 213t129.5 64q65 0 86.5 -53.5t-6.5 -208.5zM1447 0h451l116 664q37 205 -15 368t-310 163q-219 0 -418 -169t-226 -328l224 -88
q26 149 83.5 213t129.5 64q65 0 83.5 -53.5t-8.5 -208.5z" />
    <glyph glyph-name="n" unicode="n" horiz-adv-x="1429" 
d="M-26 0h451l177 1011l-72 175h-347zM772 0h451l104 595q46 262 -14 431t-309 169q-271 0 -467.5 -172.5t-226.5 -339.5l204 -86q24 133 100 211.5t163 78.5q78 0 105 -55.5t-7 -245.5z" />
    <glyph glyph-name="o" unicode="o" horiz-adv-x="1452" 
d="M615 -9q376 0 554.5 164t219.5 444q39 274 -78 437.5t-493 163.5q-377 0 -556 -160.5t-219 -440.5q-39 -274 78 -441t494 -167zM663 294q-97 0 -147 55.5t-22 247.5q29 190 103.5 245t171.5 55q98 0 147.5 -54.5t21.5 -245.5q-29 -191 -103.5 -247t-171.5 -56z" />
    <glyph glyph-name="p" unicode="p" horiz-adv-x="1457" 
d="M-105 -445h451l257 1456l-73 175h-347zM798 -7q265 0 410.5 169.5t183.5 433.5q36 263 -40.5 431t-341.5 168q-228 0 -419.5 -99.5t-214.5 -231.5l170 -179q15 93 90 148t160 55q95 0 131 -54.5t9 -239.5q-29 -190 -89 -243t-155 -53q-85 0 -140.5 54.5t-38.5 151.5
l-232 -182q-25 -132 132 -230.5t385 -98.5z" />
    <glyph glyph-name="q" unicode="q" horiz-adv-x="1467" 
d="M717 -445h451l288 1631h-348l-138 -199zM424 -7q229 0 419.5 98.5t215.5 230.5l-170 182q-17 -95 -91 -150.5t-160 -55.5q-95 0 -131 54.5t-8 241.5q28 186 88 240t155 54q86 0 140.5 -55t39.5 -148l231 179q24 132 -132.5 231.5t-384.5 99.5q-265 0 -411 -167t-182 -432
q-36 -263 40 -433t341 -170z" />
    <glyph glyph-name="r" unicode="r" horiz-adv-x="1431" 
d="M875 575h451q55 316 -5.5 468.5t-323.5 152.5q-237 0 -408 -121t-203 -302l156 -93q15 82 78.5 145t148.5 63q73 0 107.5 -53t-1.5 -260zM-27 0h451l177 1001l-71 185h-348z" />
    <glyph glyph-name="s" unicode="s" horiz-adv-x="1437" 
d="M626 -9q251 0 457.5 91.5t238.5 305.5q28 184 -89 262t-349 99q-153 16 -249.5 25t-88.5 57q4 33 52 52.5t134 19.5q95 0 159.5 -38.5t82.5 -93.5l420 145q-28 155 -191 217.5t-421 62.5q-260 0 -456 -85t-224 -280q-28 -190 85 -274.5t331 -108.5q161 -18 262 -28.5
t93 -57.5q-6 -36 -59 -56.5t-140 -20.5q-112 0 -178 37t-82 97l-420 -147q34 -152 206.5 -216.5t425.5 -64.5z" />
    <glyph glyph-name="t" unicode="t" horiz-adv-x="1134" 
d="M617 -17q158 0 308 31l52 296q-77 -27 -152 -27q-66 0 -99 25t-18 110l82 460h340l55 308h-341l48 273h-452l-48 -273h-264l-54 -308h264l-99 -556q-33 -189 82 -264t296 -75z" />
    <glyph glyph-name="u" unicode="u" horiz-adv-x="1426" 
d="M860 0h345l209 1186h-451l-178 -1006zM603 1186h-451l-107 -609q-46 -261 13 -423.5t313 -162.5q293 0 478.5 173t214.5 339l-206 78q-23 -134 -100.5 -208t-165.5 -74q-78 0 -102 55.5t10 246.5z" />
    <glyph glyph-name="v" unicode="v" horiz-adv-x="1391" 
d="M272 0h616l577 1186h-479l-359 -885h-3l-45 885h-466z" />
    <glyph glyph-name="w" unicode="w" horiz-adv-x="2098" 
d="M196 0h601l268 734l10 -734h596l475 1186h-472l-269 -889h-3l-36 889h-447l-355 -892h-3l40 892h-462z" />
    <glyph glyph-name="x" unicode="x" horiz-adv-x="1438" 
d="M-85 0h504l255 412l121 -412h509l-266 593l472 593h-504l-248 -411l-113 411h-509l260 -593z" />
    <glyph glyph-name="y" unicode="y" horiz-adv-x="1393" 
d="M244 0h690l531 1186h-472l-353 -894h-2l-41 894h-471zM-47 -469q377 0 607.5 82t373.5 387l-418 1q-49 -111 -160.5 -139t-349.5 -28z" />
    <glyph glyph-name="z" unicode="z" horiz-adv-x="1192" 
d="M-35 0h1045l54 306h-504l1 2l596 579l53 299h-1036l-54 -306h512l-1 -1l-612 -578z" />
    <glyph glyph-name="braceleft" unicode="{" horiz-adv-x="898" 
d="M691 -428l54 293q-30 0 -68.5 0.5t-72.5 10t-52.5 36.5t-9.5 81l47 265q10 51 -8 88t-49.5 62t-66 40t-59.5 21.5t-30 7.5q4 1 31 4t65 12.5t78 29t69.5 53t38.5 84.5l59 331q10 55 38.5 86.5t66.5 47t77 20t69 4.5l54 293q-98 0 -189.5 -11.5t-170 -38t-140.5 -69.5
t-103 -105t-56 -145l-43 -250q-12 -75 -50 -118t-89.5 -61t-105.5 -18l-55 -295q57 0 102.5 -16t68.5 -52t12 -94l-33 -196q-15 -80 3.5 -144.5t63.5 -112.5t113.5 -80t155 -48t185.5 -16z" />
    <glyph glyph-name="bar" unicode="|" horiz-adv-x="478" 
d="M-93 -226h370l290 1648h-370z" />
    <glyph glyph-name="braceright" unicode="}" horiz-adv-x="887" 
d="M-114 -427q99 0 190.5 12t170 38t140 69t103 104.5t54.5 144.5l45 251q13 76 50.5 119t89 60.5t104.5 17.5l54 294q-55 0 -100 17t-68.5 53t-13.5 93l34 196q15 82 -3 146.5t-63.5 112.5t-113.5 79t-154.5 47t-187.5 16l-54 -293h69.5t72.5 -9.5t52.5 -36.5t8.5 -82
l-47 -265q-9 -50 9 -86.5t49.5 -62t65.5 -40.5t60 -22t29 -8q-3 0 -30 -3t-65.5 -12.5t-78 -29.5t-69.5 -53.5t-40 -84.5l-57 -332q-9 -53 -37.5 -85t-67 -47.5t-77.5 -20.5t-70 -5z" />
    <glyph glyph-name="asciitilde" unicode="~" horiz-adv-x="980" 
d="M669 507q73 0 138.5 22.5t109 48t52.5 34.5l-156 246q-2 -3 -38 -26.5t-102 -23.5q-47 0 -76 10.5t-54 24t-59.5 24t-93.5 10.5q-77 0 -145.5 -23t-119 -52.5t-71.5 -47.5l158 -235q13 15 61 44t113 29q46 0 74.5 -13t54 -29.5t61 -29.5t93.5 -13z" />
    <glyph glyph-name="uni00A0" unicode="&#xa0;" horiz-adv-x="525" 
 />
    <glyph glyph-name="exclamdown" unicode="&#xa1;" horiz-adv-x="554" 
d="M494 670h-436l-194 -856h523zM548 870l56 316h-448l-57 -316h449z" />
    <glyph glyph-name="cent" unicode="&#xa2;" horiz-adv-x="1387" 
d="M644 1200h311l32 180h-311zM427 -30h311l34 190h-311zM611 70q333 0 475 124.5t188 248.5l-374 148q-30 -121 -93 -167.5t-147 -46.5q-82 0 -127.5 51t-22.5 230q24 204 98.5 258.5t156.5 54.5q84 0 130 -46.5t34 -171.5l425 142q-2 129 -104 257t-435 128
q-384 0 -563 -168.5t-202 -474.5q-23 -262 77 -414.5t484 -152.5z" />
    <glyph glyph-name="sterling" unicode="&#xa3;" horiz-adv-x="1389" 
d="M151 -30l-113 258q12 5 41.5 21.5t64.5 45.5t64 67.5t36 86.5q13 71 13 123.5t-6 95.5t-12.5 84t-6.5 88t10 107q13 71 49 144.5t107 135t186.5 99.5t285.5 38q154 0 253.5 -33.5t158 -84.5t85.5 -103.5t35 -90.5l-387 -131q-7 38 -25.5 72.5t-54.5 56t-96 21.5
q-50 0 -82.5 -15t-51 -45.5t-26.5 -77.5q-9 -48 -11.5 -92.5t-2 -87.5t0.5 -88t-4 -94.5t-14 -107.5q-8 -44 -29.5 -85t-49.5 -76q20 4 41 6.5t41 2.5q51 0 89 -5.5t70.5 -14t66.5 -14t76 -6.5q76 1 119 7t79 20l75 -291q-9 -3 -56 -9.5t-119 -12.5t-155 -7q-66 1 -110 9
t-83.5 19t-88 19.5t-125.5 8.5q-116 0 -208 -20.5t-130 -43.5zM28 519l63 294h949l-61 -294h-951z" />
    <glyph glyph-name="currency" unicode="&#xa4;" horiz-adv-x="1515" 
d="M696 185q392 0 555 130t196 320q33 189 -83.5 323t-508.5 134t-555.5 -132t-196.5 -321q-33 -190 84 -322t509 -132zM125 28l380 322l-168 156l-380 -322zM1206 28l224 156l-264 322l-224 -156zM742 447q-97 0 -153 36t-35 156t90 155.5t166 35.5t152 -35.5t35 -155.5
t-89 -156t-166 -36zM381 764l224 156l-264 322l-224 -156zM1210 764l380 322l-168 156l-380 -322z" />
    <glyph glyph-name="yen" unicode="&#xa5;" horiz-adv-x="1538" 
d="M167 443h1133l42 237h-1133zM114 144h1133l42 237h-1133zM427 0h456l84 479l694 871h-499l-364 -520h-3l-184 520h-489l388 -873z" />
    <glyph glyph-name="brokenbar" unicode="&#xa6;" horiz-adv-x="477" 
d="M-98 -156h370l118 660h-371zM65 764h371l116 658h-371z" />
    <glyph glyph-name="section" unicode="&#xa7;" horiz-adv-x="1410" 
d="M538 -278q114 0 205.5 16t163 42.5t122.5 60t82 70t40 70.5q18 61 8 108t-33.5 81.5t-48 54t-37.5 25.5q19 11 50 22.5t67.5 27.5t71 39.5t60 57t33.5 81.5q11 59 -13 109.5t-74.5 93.5t-117 79t-141 66.5t-147.5 57.5q-53 22 -102 43t-87 42t-59.5 42.5t-21.5 43.5
q1 23 24.5 37.5t70.5 21.5t120 7q62 0 106 -3t65.5 -15t15.5 -40l-6 -34h380l6 34q9 50 -14.5 102t-85.5 96t-168 71.5t-266 27.5q-137 0 -242.5 -20t-180 -54.5t-118 -78.5t-55.5 -91q-10 -47 -5.5 -93t22 -85.5t43.5 -69.5t58 -48q-23 -7 -69 -20t-96 -37.5t-87 -66
t-46 -106.5q-9 -78 24.5 -134.5t95.5 -96.5t139.5 -70.5t154.5 -57.5q70 -24 135 -47.5t116 -46t80 -44.5t23 -44q-4 -21 -32.5 -41t-78 -33.5t-118.5 -13.5q-65 0 -105.5 6t-57.5 19.5t-13 37.5l5 29h-376l-7 -34q-7 -49 12.5 -101t77 -96.5t163 -72t269.5 -27.5zM849 389
q-49 19 -108 38.5t-115.5 37.5t-99.5 35q-48 18 -80.5 33.5t-48.5 31.5t-12 35q4 15 21 28.5t41.5 26t50.5 24t44 20.5q40 -17 84 -32t88.5 -31t85.5 -34q28 -12 62.5 -26.5t64.5 -28.5t47 -30t10 -34q-4 -14 -20 -27.5t-37 -25t-42 -21.5t-36 -20z" />
    <glyph glyph-name="dieresis" unicode="&#xa8;" horiz-adv-x="981" 
d="M352 1168q50 0 91.5 39t41.5 92q0 43 -28.5 72t-71.5 29q-52 0 -93 -39t-41 -92q0 -43 28 -72t73 -29zM821 1168q52 0 92.5 39t40.5 92q0 43 -27.5 72t-72.5 29q-51 0 -92 -39t-41 -92q0 -43 28.5 -72t71.5 -29z" />
    <glyph glyph-name="copyright" unicode="&#xa9;" horiz-adv-x="1622" 
d="M681 -21q221 0 376.5 47.5t257 127t157 180t74.5 207.5l45 256q20 106 0.5 206t-93 180t-212.5 126.5t-361 46.5q-218 0 -373 -46.5t-256 -126t-157 -179.5t-75 -207l-45 -256q-19 -106 1 -206.5t93.5 -180.5t212 -127.5t355.5 -47.5zM719 187q-138 0 -225 22.5
t-134 59.5t-65 85t-17 99.5t8 100.5l40 229q7 41 21.5 89.5t48 97t94.5 89.5t158 65.5t239 24.5q147 0 236.5 -24t135.5 -64.5t61.5 -89t12 -98t-10.5 -92.5l-41 -236q-7 -40 -20 -88t-44.5 -95.5t-91.5 -87t-158.5 -63.5t-247.5 -24zM728 265q74 0 149 14.5t139 44.5
t108 77.5t54 113.5l15 82h-244l-6 -32q-3 -16 -10.5 -30.5t-20.5 -27t-34 -21t-50 -14t-68 -5.5q-56 0 -85.5 9.5t-40 25t-9.5 35.5t4 41l34 191q5 23 12 42t24 34t50 23t87 8q41 0 69 -4.5t44.5 -12.5t24 -20.5t9 -27t-2.5 -32.5l-6 -34h244l14 76q10 55 -4.5 97t-48 72
t-82 49t-106.5 28t-120 9q-77 0 -151 -15.5t-135.5 -48.5t-102 -84.5t-54.5 -125.5l-50 -281q-10 -63 13 -110.5t73 -80t118 -49t146 -16.5z" />
    <glyph glyph-name="ordfeminine" unicode="&#xaa;" horiz-adv-x="793" 
d="M513 831h227l53 307q21 116 -36.5 170.5t-238.5 54.5q-154 0 -242 -29t-104 -88l143 -81q5 22 56 34.5t101 12.5q58 0 70.5 -14t4.5 -60l-48 -270zM318 824q125 0 214.5 44.5t102.5 118.5l-109 32q-5 -27 -34 -38.5t-86 -11.5q-28 0 -38.5 5t-7.5 22q2 16 24 21t49 6
q36 1 126 3l22 125q-113 0 -170 -6q-148 -6 -216.5 -44t-78.5 -113q-10 -85 39 -124.5t163 -39.5z" />
    <glyph glyph-name="guillemotleft" unicode="&#xab;" horiz-adv-x="1577" 
d="M372 80h448l-339 414l491 414h-460l-482 -414zM1002 80h448l-338 414l490 414h-460l-482 -414z" />
    <glyph glyph-name="logicalnot" unicode="&#xac;" horiz-adv-x="1070" 
d="M645 125h295l90 510h-960l-49 -274h666z" />
    <glyph glyph-name="uni00AD" unicode="&#xad;" horiz-adv-x="721" 
d="M8 331h613l52 294h-613z" />
    <glyph glyph-name="registered" unicode="&#xae;" horiz-adv-x="1544" 
d="M695 304q217 0 365.5 46t242 122.5t142 167t63.5 177.5l25 146q16 90 0.5 182.5t-80.5 170t-198 125.5t-352 48q-217 0 -367 -49t-243.5 -127.5t-141 -168t-61.5 -169.5l-24 -146q-11 -62 -4.5 -133.5t41 -141t106 -126t190.5 -90.5t296 -34zM724 504q-126 0 -208 16
t-129.5 45t-68 69t-22 88.5t7.5 103.5l22 123q11 67 38.5 128.5t85.5 109t161 75.5t266 28q127 0 209 -16.5t129 -47t67 -72t21 -91t-9 -104.5l-22 -124q-10 -64 -36.5 -124t-83.5 -106t-160 -73.5t-268 -27.5zM442 591h210l39 220h138l2 -220h216l-29 235q44 14 71.5 53.5
t33.5 80.5l10 59q8 45 -2 85.5t-48.5 66.5t-113.5 26h-421zM718 958l12 81h154q18 0 26.5 -3t11 -9t0.5 -15l-3 -24q-2 -17 -12.5 -23.5t-37.5 -6.5h-151z" />
    <glyph glyph-name="macron" unicode="&#xaf;" horiz-adv-x="999" 
d="M216 1292h762l29 161h-762z" />
    <glyph glyph-name="degree" unicode="&#xb0;" horiz-adv-x="329" 
d="M300 1120q55 0 100 37t54 90q14 74 -25.5 126.5t-108.5 52.5q-54 0 -99 -36t-56 -90q-12 -73 27.5 -126.5t107.5 -53.5zM304 1239q-11 0 -19 10t-5 25q3 19 11.5 26.5t20.5 7.5q15 0 21 -9.5t3 -26.5q-3 -18 -10 -25.5t-22 -7.5z" />
    <glyph glyph-name="plusminus" unicode="&#xb1;" horiz-adv-x="665" 
d="M165 379h290l29 176h166l50 268h-166l30 177h-289l-31 -177h-166l-51 -268h169zM-21 72h542l52 268h-542z" />
    <glyph glyph-name="uni00B2" unicode="&#xb2;" horiz-adv-x="823" 
d="M71 750h714l25 144h-500q2 12 58 23t178 39q135 44 220 84t92 117q8 69 -47.5 137.5t-277.5 68.5q-218 0 -299 -70.5t-95 -143.5h203q6 31 52.5 50.5t124.5 19.5q70 0 106 -11t28 -49q-4 -24 -50 -38t-186 -48q-153 -39 -232.5 -84.5t-92.5 -116.5z" />
    <glyph glyph-name="uni00B3" unicode="&#xb3;" horiz-adv-x="837" 
d="M439 743q228 0 307 57.5t84 126.5q4 49 -20 88t-139 41q115 2 157.5 42t48.5 90q6 67 -54.5 121t-288.5 54q-219 0 -299.5 -69.5t-94.5 -149.5h202q8 41 53 59.5t124 18.5q80 0 118 -15t30 -54q-3 -20 -47.5 -27.5t-158.5 -7.5l-23 -130q117 1 157 -6.5t38 -26.5
q-7 -37 -49.5 -54t-122.5 -17q-82 0 -120 18.5t-31 57.5h-202q-15 -81 46.5 -149t284.5 -68z" />
    <glyph glyph-name="acute" unicode="&#xb4;" horiz-adv-x="723" 
d="M228 1204h205l318 245h-304z" />
    <glyph glyph-name="uni00B5" unicode="&#xb5;" horiz-adv-x="1425" 
d="M-135 -445h451l131 745l-296 886zM860 0h345l209 1186h-451l-178 -1006zM603 1186h-451l-107 -609q-46 -261 13 -423.5t313 -162.5q293 0 478.5 173t214.5 339l-206 78q-23 -134 -100.5 -208t-165.5 -74q-78 0 -102 55.5t10 246.5z" />
    <glyph glyph-name="paragraph" unicode="&#xb6;" horiz-adv-x="1429" 
d="M423 -156h290l212 1214h226l-213 -1214h291l266 1506h-835q-178 0 -296.5 -40t-184.5 -116t-86 -184q-17 -100 7 -176t85 -126.5t153 -76.5t211 -26h8z" />
    <glyph glyph-name="periodcentered" unicode="&#xb7;" horiz-adv-x="574" 
d="M113 787l-53 -300h423l53 300h-423z" />
    <glyph glyph-name="cedilla" unicode="&#xb8;" horiz-adv-x="840" 
d="M184 -405q71 0 143 15t134 43.5t103.5 70.5t50.5 95q13 69 -29.5 104.5t-126.5 35.5q-64 0 -116 -18.5t-82 -45.5l-20 -69q10 9 31 16.5t41 7.5q24 0 33.5 -5t6.5 -19q-3 -19 -36.5 -32.5t-97.5 -13.5q-45 0 -85 7t-67 14l-91 -182q52 -11 106.5 -17.5t101.5 -6.5z
M241 -174l95 174h-173l-77 -161z" />
    <glyph glyph-name="uni00B9" unicode="&#xb9;" horiz-adv-x="759" 
d="M71 750h657l26 144h-225l82 464h-168l-281 -62l-27 -153l244 46l-52 -295h-230z" />
    <glyph glyph-name="ordmasculine" unicode="&#xba;" horiz-adv-x="766" 
d="M448 826q177 0 277.5 54.5t122.5 177.5l14 77q22 125 -64 180t-264 55t-279 -55.5t-124 -179.5l-14 -77q-23 -122 65 -177t266 -55zM471 996q-42 0 -59 12t-11 45l16 88q6 34 27 46t62 12q42 0 60 -12.5t12 -45.5l-16 -88q-7 -33 -28.5 -45t-62.5 -12z" />
    <glyph glyph-name="guillemotright" unicode="&#xbb;" horiz-adv-x="1581" 
d="M606 80h460l481 414l-341 414h-448l338 -414zM-25 80h461l482 414l-342 414h-448l339 -414z" />
    <glyph glyph-name="onequarter" unicode="&#xbc;" horiz-adv-x="2126" 
d="M71 750h657l26 144h-225l82 464h-168l-281 -62l-27 -153l244 46l-52 -295h-230zM295 0h221l1282 1348h-221zM1648 0h202l21 116h121l24 135h-122l64 357h-313l-375 -354l-24 -138h423zM1499 251l221 223h12l-39 -223h-194z" />
    <glyph glyph-name="onehalf" unicode="&#xbd;" horiz-adv-x="2127" 
d="M71 750h657l26 144h-225l82 464h-168l-281 -62l-27 -153l244 46l-52 -295h-230zM295 0h221l1282 1348h-221zM1244 0h714l25 144h-500q2 12 58 23t178 39q135 44 220 84t92 117q8 69 -47.5 137.5t-277.5 68.5q-218 0 -299 -70.5t-95 -143.5h203q6 31 52.5 50.5t124.5 19.5
q70 0 106 -11t28 -49q-4 -24 -50 -38t-186 -48q-153 -39 -232.5 -84.5t-92.5 -116.5z" />
    <glyph glyph-name="threequarters" unicode="&#xbe;" horiz-adv-x="2204" 
d="M439 743q228 0 307 57.5t84 126.5q4 49 -20 88t-139 41q115 2 157.5 42t48.5 90q6 67 -54.5 121t-288.5 54q-219 0 -299.5 -69.5t-94.5 -149.5h202q8 41 53 59.5t124 18.5q80 0 118 -15t30 -54q-3 -20 -47.5 -27.5t-158.5 -7.5l-23 -130q117 1 157 -6.5t38 -26.5
q-7 -37 -49.5 -54t-122.5 -17q-82 0 -120 18.5t-31 57.5h-202q-15 -81 46.5 -149t284.5 -68zM373 0h221l1282 1348h-221zM1725 0h202l21 116h121l24 135h-122l64 357h-313l-375 -354l-24 -138h423zM1576 251l221 223h12l-39 -223h-194z" />
    <glyph glyph-name="questiondown" unicode="&#xbf;" horiz-adv-x="1355" 
d="M910 695h-442q-15 -63 -48.5 -112t-152.5 -125q-102 -60 -192.5 -145t-97.5 -209q-14 -153 116 -225.5t455 -72.5q331 0 503 106.5t219 368.5h-438q-18 -104 -77 -149t-165 -45q-95 0 -131.5 21.5t-29.5 72.5q5 38 60 69.5t142 79.5q117 60 186.5 144t92.5 221zM923 888
l53 298h-423l-53 -298h423z" />
    <glyph glyph-name="Agrave" unicode="&#xc0;" horiz-adv-x="1574" 
d="M-51 0h469l120 289h392l17 -289h470l-176 1351h-643zM663 587l210 499h4l33 -499h-247zM986 1401h195l-134 245h-293z" />
    <glyph glyph-name="Aacute" unicode="&#xc1;" horiz-adv-x="1574" 
d="M-51 0h469l120 289h392l17 -289h470l-176 1351h-643zM663 587l210 499h4l33 -499h-247zM699 1392h205l318 245h-304z" />
    <glyph glyph-name="Acircumflex" unicode="&#xc2;" horiz-adv-x="1574" 
d="M-51 0h469l120 289h392l17 -289h470l-176 1351h-643zM663 587l210 499h4l33 -499h-247zM564 1403h252l150 148l98 -148h254l-196 233h-283z" />
    <glyph glyph-name="Atilde" unicode="&#xc3;" horiz-adv-x="1574" 
d="M-51 0h469l120 289h392l17 -289h470l-176 1351h-643zM663 587l210 499h4l33 -499h-247zM1089 1400q85 0 142 29.5t91 72.5t51.5 85.5t22.5 68.5h-213q-3 -15 -14.5 -35t-31.5 -34t-47 -14q-29 0 -52.5 13.5t-49 32t-59.5 32t-85 13.5q-88 0 -147 -28.5t-93 -71t-50.5 -84
t-22.5 -68.5h215q4 15 13.5 35t29 34t51.5 14q29 0 52.5 -14.5t50 -33t61 -33t85.5 -14.5z" />
    <glyph glyph-name="Adieresis" unicode="&#xc4;" horiz-adv-x="1574" 
d="M-51 0h469l120 289h392l17 -289h470l-176 1351h-643zM663 587l210 499h4l33 -499h-247zM704 1406q50 0 91.5 39t41.5 92q0 43 -28.5 72t-71.5 29q-52 0 -93 -39t-41 -92q0 -43 28 -72t73 -29zM1173 1406q52 0 92.5 39t40.5 92q0 43 -27.5 72t-72.5 29q-51 0 -92 -39
t-41 -92q0 -43 28.5 -72t71.5 -29z" />
    <glyph glyph-name="Aring" unicode="&#xc5;" horiz-adv-x="1574" 
d="M-51 0h469l120 289h392l17 -289h470l-176 1351h-643zM663 587l210 499h4l33 -499h-247zM944 1394q58 0 108.5 27.5t84.5 74t43 104.5q16 88 -34.5 146.5t-137.5 58.5q-58 0 -108 -26.5t-83.5 -73t-44.5 -105.5q-15 -87 35 -146.5t137 -59.5zM967 1548q-19 0 -31 15.5
t-9 36.5q5 22 22 36t36 14q21 0 33 -14t7 -36q-3 -21 -20 -36.5t-38 -15.5z" />
    <glyph glyph-name="AE" unicode="&#xc6;" horiz-adv-x="2167" 
d="M-51 0h479l739 1189l31 161h-393zM358 227h676l53 299h-589zM910 0h1067l54 308h-609l39 224h560l52 293h-560l38 217h609l55 308h-1067z" />
    <glyph glyph-name="Ccedilla" unicode="&#xc7;" horiz-adv-x="1454" 
d="M628 -8q415 0 570.5 179.5t191.5 387.5h-461q-30 -171 -94 -215t-161 -44q-100 0 -152 52t-9 327q43 278 118.5 327t175.5 49q98 0 145 -42.5t18 -217.5h462q33 214 -62 391t-511 177q-410 0 -584 -182.5t-224 -501.5q-51 -316 57 -501.5t520 -185.5zM561 -405
q71 0 143 15t134 43.5t103.5 70.5t50.5 95q13 69 -29.5 104.5t-126.5 35.5q-64 0 -116 -18.5t-82 -45.5l-20 -69q10 9 31 16.5t41 7.5q24 0 33.5 -5t6.5 -19q-3 -19 -36.5 -32.5t-97.5 -13.5q-45 0 -85 7t-67 14l-91 -182q52 -11 106.5 -17.5t101.5 -6.5zM618 -174l95 174
h-173l-77 -161z" />
    <glyph glyph-name="Egrave" unicode="&#xc8;" horiz-adv-x="1213" 
d="M-44 0h1067l54 308h-609l39 224h560l52 293h-560l38 217h609l55 308h-1067zM788 1401h195l-134 245h-293z" />
    <glyph glyph-name="Eacute" unicode="&#xc9;" horiz-adv-x="1213" 
d="M-44 0h1067l54 308h-609l39 224h560l52 293h-560l38 217h609l55 308h-1067zM503 1392h205l318 245h-304z" />
    <glyph glyph-name="Ecircumflex" unicode="&#xca;" horiz-adv-x="1213" 
d="M-44 0h1067l54 308h-609l39 224h560l52 293h-560l38 217h609l55 308h-1067zM367 1403h252l150 148l98 -148h254l-196 233h-283z" />
    <glyph glyph-name="Edieresis" unicode="&#xcb;" horiz-adv-x="1213" 
d="M-44 0h1067l54 308h-609l39 224h560l52 293h-560l38 217h609l55 308h-1067zM506 1406q50 0 91.5 39t41.5 92q0 43 -28.5 72t-71.5 29q-52 0 -93 -39t-41 -92q0 -43 28 -72t73 -29zM975 1406q52 0 92.5 39t40.5 92q0 43 -27.5 72t-72.5 29q-51 0 -92 -39t-41 -92
q0 -43 28.5 -72t71.5 -29z" />
    <glyph glyph-name="Igrave" unicode="&#xcc;" horiz-adv-x="700" 
d="M5 0h455l238 1350h-454zM542 1401h195l-134 245h-293z" />
    <glyph glyph-name="Iacute" unicode="&#xcd;" horiz-adv-x="700" 
d="M5 0h455l238 1350h-454zM256 1392h205l318 245h-304z" />
    <glyph glyph-name="Icircumflex" unicode="&#xce;" horiz-adv-x="700" 
d="M5 0h455l238 1350h-454zM120 1403h252l150 148l98 -148h254l-196 233h-283z" />
    <glyph glyph-name="Idieresis" unicode="&#xcf;" horiz-adv-x="700" 
d="M5 0h455l238 1350h-454zM260 1406q50 0 91.5 39t41.5 92q0 43 -28.5 72t-71.5 29q-52 0 -93 -39t-41 -92q0 -43 28 -72t73 -29zM729 1406q52 0 92.5 39t40.5 92q0 43 -27.5 72t-72.5 29q-51 0 -92 -39t-41 -92q0 -43 28.5 -72t71.5 -29z" />
    <glyph glyph-name="Eth" unicode="&#xd0;" horiz-adv-x="1516" 
d="M-56 529h795l48 294h-794zM26 0h810q304 0 443 154t195 522q54 362 -31.5 518t-388.5 156h-790zM536 308l129 734h220q104 0 142 -48.5t-9 -317.5q-48 -270 -103 -319t-159 -49h-220z" />
    <glyph glyph-name="Ntilde" unicode="&#xd1;" horiz-adv-x="1739" 
d="M-23 0h454l181 1029h3l212 -1029h708l238 1350h-455l-181 -1005h-4l-205 1005h-713zM1184 1400q85 0 142 29.5t91 72.5t51.5 85.5t22.5 68.5h-213q-3 -15 -14.5 -35t-31.5 -34t-47 -14q-29 0 -52.5 13.5t-49 32t-59.5 32t-85 13.5q-88 0 -147 -28.5t-93 -71t-50.5 -84
t-22.5 -68.5h215q4 15 13.5 35t29 34t51.5 14q29 0 52.5 -14.5t50 -33t61 -33t85.5 -14.5z" />
    <glyph glyph-name="Ograve" unicode="&#xd2;" horiz-adv-x="1498" 
d="M634 -12q410 0 592 181t230 506q47 326 -61.5 507t-518.5 181t-592.5 -180.5t-230.5 -507.5q-47 -324 61.5 -505.5t519.5 -181.5zM688 296q-115 0 -168.5 53.5t-11.5 325.5q44 278 121.5 329t192.5 51q114 0 168.5 -51t10.5 -329q-44 -272 -121.5 -325.5t-191.5 -53.5z
M925 1401h195l-134 245h-293z" />
    <glyph glyph-name="Oacute" unicode="&#xd3;" horiz-adv-x="1498" 
d="M634 -12q410 0 592 181t230 506q47 326 -61.5 507t-518.5 181t-592.5 -180.5t-230.5 -507.5q-47 -324 61.5 -505.5t519.5 -181.5zM688 296q-115 0 -168.5 53.5t-11.5 325.5q44 278 121.5 329t192.5 51q114 0 168.5 -51t10.5 -329q-44 -272 -121.5 -325.5t-191.5 -53.5z
M639 1392h205l318 245h-304z" />
    <glyph glyph-name="Ocircumflex" unicode="&#xd4;" horiz-adv-x="1498" 
d="M634 -12q410 0 592 181t230 506q47 326 -61.5 507t-518.5 181t-592.5 -180.5t-230.5 -507.5q-47 -324 61.5 -505.5t519.5 -181.5zM688 296q-115 0 -168.5 53.5t-11.5 325.5q44 278 121.5 329t192.5 51q114 0 168.5 -51t10.5 -329q-44 -272 -121.5 -325.5t-191.5 -53.5z
M503 1403h252l150 148l98 -148h254l-196 233h-283z" />
    <glyph glyph-name="Otilde" unicode="&#xd5;" horiz-adv-x="1498" 
d="M634 -12q410 0 592 181t230 506q47 326 -61.5 507t-518.5 181t-592.5 -180.5t-230.5 -507.5q-47 -324 61.5 -505.5t519.5 -181.5zM688 296q-115 0 -168.5 53.5t-11.5 325.5q44 278 121.5 329t192.5 51q114 0 168.5 -51t10.5 -329q-44 -272 -121.5 -325.5t-191.5 -53.5z
M1028 1400q85 0 142 29.5t91 72.5t51.5 85.5t22.5 68.5h-213q-3 -15 -14.5 -35t-31.5 -34t-47 -14q-29 0 -52.5 13.5t-49 32t-59.5 32t-85 13.5q-88 0 -147 -28.5t-93 -71t-50.5 -84t-22.5 -68.5h215q4 15 13.5 35t29 34t51.5 14q29 0 52.5 -14.5t50 -33t61 -33t85.5 -14.5z
" />
    <glyph glyph-name="Odieresis" unicode="&#xd6;" horiz-adv-x="1498" 
d="M634 -12q410 0 592 181t230 506q47 326 -61.5 507t-518.5 181t-592.5 -180.5t-230.5 -507.5q-47 -324 61.5 -505.5t519.5 -181.5zM688 296q-115 0 -168.5 53.5t-11.5 325.5q44 278 121.5 329t192.5 51q114 0 168.5 -51t10.5 -329q-44 -272 -121.5 -325.5t-191.5 -53.5z
M643 1406q50 0 91.5 39t41.5 92q0 43 -28.5 72t-71.5 29q-52 0 -93 -39t-41 -92q0 -43 28 -72t73 -29zM1112 1406q52 0 92.5 39t40.5 92q0 43 -27.5 72t-72.5 29q-51 0 -92 -39t-41 -92q0 -43 28.5 -72t71.5 -29z" />
    <glyph glyph-name="multiply" unicode="&#xd7;" horiz-adv-x="697" 
d="M432 147l217 190l-389 477l-217 -188zM155 147l545 479l-161 188l-546 -477z" />
    <glyph glyph-name="Oslash" unicode="&#xd8;" horiz-adv-x="1465" 
d="M-92 0h230l1442 1348h-228zM634 -12q410 0 592 181t230 506q47 326 -61.5 507t-518.5 181t-592.5 -180.5t-230.5 -507.5q-47 -324 61.5 -505.5t519.5 -181.5zM688 296q-115 0 -168.5 53.5t-11.5 325.5q44 278 121.5 329t192.5 51q114 0 168.5 -51t10.5 -329
q-44 -272 -121.5 -325.5t-191.5 -53.5z" />
    <glyph glyph-name="Ugrave" unicode="&#xd9;" horiz-adv-x="1509" 
d="M639 -7q346 0 531 110.5t231 369.5l154 877h-457l-146 -830q-21 -121 -74 -170t-184 -49q-130 0 -165.5 49.5t-14.5 169.5l146 830h-457l-154 -877q-46 -259 99.5 -369.5t490.5 -110.5zM945 1401h195l-134 245h-293z" />
    <glyph glyph-name="Uacute" unicode="&#xda;" horiz-adv-x="1509" 
d="M639 -7q346 0 531 110.5t231 369.5l154 877h-457l-146 -830q-21 -121 -74 -170t-184 -49q-130 0 -165.5 49.5t-14.5 169.5l146 830h-457l-154 -877q-46 -259 99.5 -369.5t490.5 -110.5zM660 1392h205l318 245h-304z" />
    <glyph glyph-name="Ucircumflex" unicode="&#xdb;" horiz-adv-x="1509" 
d="M639 -7q346 0 531 110.5t231 369.5l154 877h-457l-146 -830q-21 -121 -74 -170t-184 -49q-130 0 -165.5 49.5t-14.5 169.5l146 830h-457l-154 -877q-46 -259 99.5 -369.5t490.5 -110.5zM524 1403h252l150 148l98 -148h254l-196 233h-283z" />
    <glyph glyph-name="Udieresis" unicode="&#xdc;" horiz-adv-x="1509" 
d="M639 -7q346 0 531 110.5t231 369.5l154 877h-457l-146 -830q-21 -121 -74 -170t-184 -49q-130 0 -165.5 49.5t-14.5 169.5l146 830h-457l-154 -877q-46 -259 99.5 -369.5t490.5 -110.5zM663 1406q50 0 91.5 39t41.5 92q0 43 -28.5 72t-71.5 29q-52 0 -93 -39t-41 -92
q0 -43 28 -72t73 -29zM1132 1406q52 0 92.5 39t40.5 92q0 43 -27.5 72t-72.5 29q-51 0 -92 -39t-41 -92q0 -43 28.5 -72t71.5 -29z" />
    <glyph glyph-name="Yacute" unicode="&#xdd;" horiz-adv-x="1539" 
d="M427 0h456l84 479l694 871h-499l-364 -520h-3l-184 520h-489l388 -873zM674 1392h205l318 245h-304z" />
    <glyph glyph-name="Thorn" unicode="&#xde;" horiz-adv-x="1396" 
d="M-55 0h452l40 228h494q116 0 192 31t120 99t64 181l50 285q19 104 -4 172t-88 102t-174 34h-494l38 218h-452zM488 519l57 321h319q18 0 26 -8t9 -22.5t-3 -34.5l-32 -182q-5 -23 -10.5 -39.5t-16 -25.5t-29.5 -9h-320z" />
    <glyph glyph-name="germandbls" unicode="&#xdf;" horiz-adv-x="1522" 
d="M-23 0h453l165 940q8 41 24.5 81.5t45.5 73t74.5 51.5t109.5 19q99 0 131 -38t23 -89q-6 -35 -26.5 -64t-46.5 -60.5t-49 -71.5t-32 -95q-8 -43 -0.5 -78t23 -64t31 -55t25 -51.5t4.5 -54.5q-6 -32 -24 -58t-55 -44.5t-98.5 -28.5t-152.5 -10l-54 -303q207 0 361 23
t258.5 71.5t164 125t78.5 184.5q12 61 1 107t-32.5 79.5t-44.5 60.5t-37.5 50t-9.5 48q6 31 28.5 60t51.5 62.5t55 80.5t38 115q12 73 -10 144t-87 129t-180 92t-286 34q-184 0 -319 -43.5t-225.5 -121t-143 -178t-72.5 -213.5z" />
    <glyph glyph-name="agrave" unicode="&#xe0;" horiz-adv-x="1457" 
d="M437 -14q70 0 136 11t123 30t100 43.5t67 52.5l18 -123h375l129 727q31 173 -27.5 276t-198.5 149t-354 46q-112 0 -218 -16t-198.5 -51t-163 -94t-111.5 -145l419 -125q24 52 62 80.5t82 39.5t87 11q62 0 103 -12.5t58.5 -44.5t9.5 -89l-5 -27h-363q-76 0 -153.5 -9.5
t-147.5 -34t-126 -67t-91.5 -109t-43.5 -159.5q-15 -137 29.5 -215.5t146 -111.5t256.5 -33zM587 272q-46 0 -75 9t-40 32t-6 66q4 34 16.5 55t33 31.5t49.5 14.5t67 4h249l-22 -128q-26 -25 -71 -44t-98 -29.5t-103 -10.5zM873 1228h195l-134 245h-293z" />
    <glyph glyph-name="aacute" unicode="&#xe1;" horiz-adv-x="1457" 
d="M437 -14q70 0 136 11t123 30t100 43.5t67 52.5l18 -123h375l129 727q31 173 -27.5 276t-198.5 149t-354 46q-112 0 -218 -16t-198.5 -51t-163 -94t-111.5 -145l419 -125q24 52 62 80.5t82 39.5t87 11q62 0 103 -12.5t58.5 -44.5t9.5 -89l-5 -27h-363q-76 0 -153.5 -9.5
t-147.5 -34t-126 -67t-91.5 -109t-43.5 -159.5q-15 -137 29.5 -215.5t146 -111.5t256.5 -33zM587 272q-46 0 -75 9t-40 32t-6 66q4 34 16.5 55t33 31.5t49.5 14.5t67 4h249l-22 -128q-26 -25 -71 -44t-98 -29.5t-103 -10.5zM593 1228h205l318 245h-304z" />
    <glyph glyph-name="acircumflex" unicode="&#xe2;" horiz-adv-x="1457" 
d="M437 -14q70 0 136 11t123 30t100 43.5t67 52.5l18 -123h375l129 727q31 173 -27.5 276t-198.5 149t-354 46q-112 0 -218 -16t-198.5 -51t-163 -94t-111.5 -145l419 -125q24 52 62 80.5t82 39.5t87 11q62 0 103 -12.5t58.5 -44.5t9.5 -89l-5 -27h-363q-76 0 -153.5 -9.5
t-147.5 -34t-126 -67t-91.5 -109t-43.5 -159.5q-15 -137 29.5 -215.5t146 -111.5t256.5 -33zM587 272q-46 0 -75 9t-40 32t-6 66q4 34 16.5 55t33 31.5t49.5 14.5t67 4h249l-22 -128q-26 -25 -71 -44t-98 -29.5t-103 -10.5zM458 1239h252l150 148l98 -148h254l-196 233h-283
z" />
    <glyph glyph-name="atilde" unicode="&#xe3;" horiz-adv-x="1457" 
d="M437 -14q70 0 136 11t123 30t100 43.5t67 52.5l18 -123h375l129 727q31 173 -27.5 276t-198.5 149t-354 46q-112 0 -218 -16t-198.5 -51t-163 -94t-111.5 -145l419 -125q24 52 62 80.5t82 39.5t87 11q62 0 103 -12.5t58.5 -44.5t9.5 -89l-5 -27h-363q-76 0 -153.5 -9.5
t-147.5 -34t-126 -67t-91.5 -109t-43.5 -159.5q-15 -137 29.5 -215.5t146 -111.5t256.5 -33zM587 272q-46 0 -75 9t-40 32t-6 66q4 34 16.5 55t33 31.5t49.5 14.5t67 4h249l-22 -128q-26 -25 -71 -44t-98 -29.5t-103 -10.5zM982 1236q85 0 142 29.5t91 72.5t51.5 85.5
t22.5 68.5h-213q-3 -15 -14.5 -35t-31.5 -34t-47 -14q-29 0 -52.5 13.5t-49 32t-59.5 32t-85 13.5q-88 0 -147 -28.5t-93 -71t-50.5 -84t-22.5 -68.5h215q4 15 13.5 35t29 34t51.5 14q29 0 52.5 -14.5t50 -33t61 -33t85.5 -14.5z" />
    <glyph glyph-name="adieresis" unicode="&#xe4;" horiz-adv-x="1457" 
d="M437 -14q70 0 136 11t123 30t100 43.5t67 52.5l18 -123h375l129 727q31 173 -27.5 276t-198.5 149t-354 46q-112 0 -218 -16t-198.5 -51t-163 -94t-111.5 -145l419 -125q24 52 62 80.5t82 39.5t87 11q62 0 103 -12.5t58.5 -44.5t9.5 -89l-5 -27h-363q-76 0 -153.5 -9.5
t-147.5 -34t-126 -67t-91.5 -109t-43.5 -159.5q-15 -137 29.5 -215.5t146 -111.5t256.5 -33zM587 272q-46 0 -75 9t-40 32t-6 66q4 34 16.5 55t33 31.5t49.5 14.5t67 4h249l-22 -128q-26 -25 -71 -44t-98 -29.5t-103 -10.5zM597 1242q50 0 91.5 39t41.5 92q0 43 -28.5 72
t-71.5 29q-52 0 -93 -39t-41 -92q0 -43 28 -72t73 -29zM1066 1242q52 0 92.5 39t40.5 92q0 43 -27.5 72t-72.5 29q-51 0 -92 -39t-41 -92q0 -43 28.5 -72t71.5 -29z" />
    <glyph glyph-name="aring" unicode="&#xe5;" horiz-adv-x="1457" 
d="M437 -14q70 0 136 11t123 30t100 43.5t67 52.5l18 -123h375l129 727q31 173 -27.5 276t-198.5 149t-354 46q-112 0 -218 -16t-198.5 -51t-163 -94t-111.5 -145l419 -125q24 52 62 80.5t82 39.5t87 11q62 0 103 -12.5t58.5 -44.5t9.5 -89l-5 -27h-363q-76 0 -153.5 -9.5
t-147.5 -34t-126 -67t-91.5 -109t-43.5 -159.5q-15 -137 29.5 -215.5t146 -111.5t256.5 -33zM587 272q-46 0 -75 9t-40 32t-6 66q4 34 16.5 55t33 31.5t49.5 14.5t67 4h249l-22 -128q-26 -25 -71 -44t-98 -29.5t-103 -10.5zM838 1230q58 0 108.5 27.5t84.5 74t43 104.5
q16 88 -34.5 146.5t-137.5 58.5q-58 0 -108 -26.5t-83.5 -73t-44.5 -105.5q-15 -87 35 -146.5t137 -59.5zM861 1384q-19 0 -31 15.5t-9 36.5q5 22 22 36t36 14q21 0 33 -14t7 -36q-3 -21 -20 -36.5t-38 -15.5z" />
    <glyph glyph-name="ae" unicode="&#xe6;" horiz-adv-x="2310" 
d="M1262 217l85 483q40 229 -66 363t-455 134q-346 0 -476.5 -100.5t-212.5 -228.5l409 -127q54 120 104.5 145.5t128.5 25.5q88 0 132.5 -36t27.5 -137l-84 -480l63 -24zM455 -14q290 0 453 84.5t209 256.5l-224 136q-22 -119 -87 -162.5t-176 -43.5q-112 0 -138 28t-20 65
q9 48 51 70.5t153 22.5h227l45 252h-382q-217 0 -371.5 -67.5t-190.5 -276.5q-34 -191 89.5 -278t361.5 -87zM1487 -12l51 288q-108 0 -166 54q-58 52 -21 261q36 205 112 263q75 57 179 57t154 -49q28 -36 25 -133h-484l-47 -269h932q19 58 32 131q46 267 -62 438
q-109 170 -500 170q-380 0 -554 -167q-175 -166 -223 -440q-48 -275 68 -440q117 -164 504 -164zM1538 276l-51 -288q202 0 316 31q113 30 209 91q94 59 139 172l-382 116q-32 -43 -61 -71q-29 -27 -66 -39q-39 -12 -104 -12z" />
    <glyph glyph-name="ccedilla" unicode="&#xe7;" horiz-adv-x="1365" 
d="M598 -12q333 0 475.5 124t188.5 248l-374 148q-31 -121 -93.5 -167t-146.5 -46q-83 0 -128.5 50.5t-22.5 230.5q25 204 99.5 258t156.5 54q83 0 129.5 -46t34.5 -172l425 142q-2 129 -104.5 257t-435.5 128q-383 0 -562.5 -168.5t-202.5 -473.5q-22 -263 78 -415
t483 -152zM529 -405q71 0 143 15t134 43.5t103.5 70.5t50.5 95q13 69 -29.5 104.5t-126.5 35.5q-64 0 -116 -18.5t-82 -45.5l-20 -69q10 9 31 16.5t41 7.5q24 0 33.5 -5t6.5 -19q-3 -19 -36.5 -32.5t-97.5 -13.5q-45 0 -85 7t-67 14l-91 -182q52 -11 106.5 -17.5t101.5 -6.5
zM586 -174l95 174h-173l-77 -161z" />
    <glyph glyph-name="egrave" unicode="&#xe8;" horiz-adv-x="1448" 
d="M624 -12l51 288q-108 0 -165 54q-59 52 -21 261q36 205 111 263q76 57 179 57q105 0 155 -49q27 -36 24 -133h-483l-47 -269h932q19 58 31 131q47 267 -62 438q-109 170 -500 170q-379 0 -554 -167q-174 -166 -223 -440q-48 -275 69 -440q116 -164 503 -164zM675 276
l-51 -288q202 0 317 31q113 30 208 91q94 59 140 172l-382 116q-33 -43 -61 -71q-30 -27 -67 -39q-39 -12 -104 -12zM879 1228h195l-134 245h-293z" />
    <glyph glyph-name="eacute" unicode="&#xe9;" horiz-adv-x="1448" 
d="M624 -12l51 288q-108 0 -165 54q-59 52 -21 261q36 205 111 263q76 57 179 57q105 0 155 -49q27 -36 24 -133h-483l-47 -269h932q19 58 31 131q47 267 -62 438q-109 170 -500 170q-379 0 -554 -167q-174 -166 -223 -440q-48 -275 69 -440q116 -164 503 -164zM675 276
l-51 -288q202 0 317 31q113 30 208 91q94 59 140 172l-382 116q-33 -43 -61 -71q-30 -27 -67 -39q-39 -12 -104 -12zM599 1228h205l318 245h-304z" />
    <glyph glyph-name="ecircumflex" unicode="&#xea;" horiz-adv-x="1448" 
d="M624 -12l51 288q-108 0 -165 54q-59 52 -21 261q36 205 111 263q76 57 179 57q105 0 155 -49q27 -36 24 -133h-483l-47 -269h932q19 58 31 131q47 267 -62 438q-109 170 -500 170q-379 0 -554 -167q-174 -166 -223 -440q-48 -275 69 -440q116 -164 503 -164zM675 276
l-51 -288q202 0 317 31q113 30 208 91q94 59 140 172l-382 116q-33 -43 -61 -71q-30 -27 -67 -39q-39 -12 -104 -12zM463 1239h252l150 148l98 -148h254l-196 233h-283z" />
    <glyph glyph-name="edieresis" unicode="&#xeb;" horiz-adv-x="1448" 
d="M624 -12l51 288q-108 0 -165 54q-59 52 -21 261q36 205 111 263q76 57 179 57q105 0 155 -49q27 -36 24 -133h-483l-47 -269h932q19 58 31 131q47 267 -62 438q-109 170 -500 170q-379 0 -554 -167q-174 -166 -223 -440q-48 -275 69 -440q116 -164 503 -164zM675 276
l-51 -288q202 0 317 31q113 30 208 91q94 59 140 172l-382 116q-33 -43 -61 -71q-30 -27 -67 -39q-39 -12 -104 -12zM602 1242q50 0 91.5 39t41.5 92q0 43 -28.5 72t-71.5 29q-52 0 -93 -39t-41 -92q0 -43 28 -72t73 -29zM1071 1242q52 0 92.5 39t40.5 92q0 43 -27.5 72
t-72.5 29q-51 0 -92 -39t-41 -92q0 -43 28.5 -72t71.5 -29z" />
    <glyph glyph-name="igrave" unicode="&#xec;" horiz-adv-x="648" 
d="M-34 0h454l209 1186h-454zM450 1228h195l-134 245h-293z" />
    <glyph glyph-name="iacute" unicode="&#xed;" horiz-adv-x="648" 
d="M-34 0h454l209 1186h-454zM170 1228h205l318 245h-304z" />
    <glyph glyph-name="icircumflex" unicode="&#xee;" horiz-adv-x="648" 
d="M-34 0h454l209 1186h-454zM35 1239h252l150 148l98 -148h254l-196 233h-283z" />
    <glyph glyph-name="idieresis" unicode="&#xef;" horiz-adv-x="648" 
d="M-34 0h454l209 1186h-454zM174 1242q50 0 91.5 39t41.5 92q0 43 -28.5 72t-71.5 29q-52 0 -93 -39t-41 -92q0 -43 28 -72t73 -29zM643 1242q52 0 92.5 39t40.5 92q0 43 -27.5 72t-72.5 29q-51 0 -92 -39t-41 -92q0 -43 28.5 -72t71.5 -29z" />
    <glyph glyph-name="eth" unicode="&#xf0;" horiz-adv-x="1452" 
d="M627 -9q392 0 559.5 170t215.5 441q37 212 -109.5 403t-482.5 191q-392 0 -554.5 -165.5t-199.5 -433.5q-37 -266 71 -436t500 -170zM676 299q-107 0 -154 57.5t-15 240.5q33 183 101 242t175 59t153.5 -59t13.5 -242q-32 -183 -99.5 -240.5t-174.5 -57.5zM1409 644
q18 98 15 196.5t-29 185t-81 144.5q-30 110 -95 188.5t-161.5 129t-222 75.5t-277.5 28l-136 -259q153 1 266 -15.5t189.5 -52.5t118 -94.5t51 -145t-12.5 -202.5zM813 1214l269 391l-226 43l-279 -396z" />
    <glyph glyph-name="ntilde" unicode="&#xf1;" horiz-adv-x="1431" 
d="M-26 0h451l177 1011l-72 175h-347zM772 0h451l104 595q46 262 -14 431t-309 169q-271 0 -467.5 -172.5t-226.5 -339.5l204 -86q24 133 100 211.5t163 78.5q78 0 105 -55.5t-7 -245.5zM997 1260q85 0 142 29.5t91 72.5t51.5 85.5t22.5 68.5h-213q-3 -15 -14.5 -35
t-31.5 -34t-47 -14q-29 0 -52.5 13.5t-49 32t-59.5 32t-85 13.5q-88 0 -147 -28.5t-93 -71t-50.5 -84t-22.5 -68.5h215q4 15 13.5 35t29 34t51.5 14q29 0 52.5 -14.5t50 -33t61 -33t85.5 -14.5z" />
    <glyph glyph-name="ograve" unicode="&#xf2;" horiz-adv-x="1452" 
d="M615 -9q376 0 554.5 164t219.5 444q39 274 -78 437.5t-493 163.5q-377 0 -556 -160.5t-219 -440.5q-39 -274 78 -441t494 -167zM663 294q-97 0 -147 55.5t-22 247.5q29 190 103.5 245t171.5 55q98 0 147.5 -54.5t21.5 -245.5q-29 -191 -103.5 -247t-171.5 -56zM866 1228
h195l-134 245h-293z" />
    <glyph glyph-name="oacute" unicode="&#xf3;" horiz-adv-x="1452" 
d="M615 -9q376 0 554.5 164t219.5 444q39 274 -78 437.5t-493 163.5q-377 0 -556 -160.5t-219 -440.5q-39 -274 78 -441t494 -167zM663 294q-97 0 -147 55.5t-22 247.5q29 190 103.5 245t171.5 55q98 0 147.5 -54.5t21.5 -245.5q-29 -191 -103.5 -247t-171.5 -56zM586 1228
h205l318 245h-304z" />
    <glyph glyph-name="ocircumflex" unicode="&#xf4;" horiz-adv-x="1452" 
d="M615 -9q376 0 554.5 164t219.5 444q39 274 -78 437.5t-493 163.5q-377 0 -556 -160.5t-219 -440.5q-39 -274 78 -441t494 -167zM663 294q-97 0 -147 55.5t-22 247.5q29 190 103.5 245t171.5 55q98 0 147.5 -54.5t21.5 -245.5q-29 -191 -103.5 -247t-171.5 -56zM451 1239
h252l150 148l98 -148h254l-196 233h-283z" />
    <glyph glyph-name="otilde" unicode="&#xf5;" horiz-adv-x="1452" 
d="M615 -9q376 0 554.5 164t219.5 444q39 274 -78 437.5t-493 163.5q-377 0 -556 -160.5t-219 -440.5q-39 -274 78 -441t494 -167zM663 294q-97 0 -147 55.5t-22 247.5q29 190 103.5 245t171.5 55q98 0 147.5 -54.5t21.5 -245.5q-29 -191 -103.5 -247t-171.5 -56zM975 1236
q85 0 142 29.5t91 72.5t51.5 85.5t22.5 68.5h-213q-3 -15 -14.5 -35t-31.5 -34t-47 -14q-29 0 -52.5 13.5t-49 32t-59.5 32t-85 13.5q-88 0 -147 -28.5t-93 -71t-50.5 -84t-22.5 -68.5h215q4 15 13.5 35t29 34t51.5 14q29 0 52.5 -14.5t50 -33t61 -33t85.5 -14.5z" />
    <glyph glyph-name="odieresis" unicode="&#xf6;" horiz-adv-x="1452" 
d="M615 -9q376 0 554.5 164t219.5 444q39 274 -78 437.5t-493 163.5q-377 0 -556 -160.5t-219 -440.5q-39 -274 78 -441t494 -167zM663 294q-97 0 -147 55.5t-22 247.5q29 190 103.5 245t171.5 55q98 0 147.5 -54.5t21.5 -245.5q-29 -191 -103.5 -247t-171.5 -56zM590 1242
q50 0 91.5 39t41.5 92q0 43 -28.5 72t-71.5 29q-52 0 -93 -39t-41 -92q0 -43 28 -72t73 -29zM1059 1242q52 0 92.5 39t40.5 92q0 43 -27.5 72t-72.5 29q-51 0 -92 -39t-41 -92q0 -43 28.5 -72t71.5 -29z" />
    <glyph glyph-name="divide" unicode="&#xf7;" horiz-adv-x="674" 
d="M-5 347h619l48 262h-620zM264 -37q48 0 84 30t44 75q13 67 -22.5 115.5t-97.5 48.5q-53 0 -90.5 -28.5t-45.5 -71.5q-12 -70 24 -119.5t104 -49.5zM399 720q48 0 84 30.5t44 75.5q13 67 -22 115t-99 48q-52 0 -90 -28.5t-45 -71.5q-13 -69 23 -119t105 -50z" />
    <glyph glyph-name="oslash" unicode="&#xf8;" horiz-adv-x="1452" 
d="M-126 27l118 -116l1561 1264l-127 104zM615 -9q376 0 554.5 164t219.5 444q39 274 -78 437.5t-493 163.5q-377 0 -556 -160.5t-219 -440.5q-39 -274 78 -441t494 -167zM663 294q-97 0 -147 55.5t-22 247.5q29 190 103.5 245t171.5 55q98 0 147.5 -54.5t21.5 -245.5
q-29 -191 -103.5 -247t-171.5 -56z" />
    <glyph glyph-name="ugrave" unicode="&#xf9;" horiz-adv-x="1426" 
d="M860 0h345l209 1186h-451l-178 -1006zM603 1186h-451l-107 -609q-46 -261 13 -423.5t313 -162.5q293 0 478.5 173t214.5 339l-206 78q-23 -134 -100.5 -208t-165.5 -74q-78 0 -102 55.5t10 246.5zM852 1228h195l-134 245h-293z" />
    <glyph glyph-name="uacute" unicode="&#xfa;" horiz-adv-x="1426" 
d="M860 0h345l209 1186h-451l-178 -1006zM603 1186h-451l-107 -609q-46 -261 13 -423.5t313 -162.5q293 0 478.5 173t214.5 339l-206 78q-23 -134 -100.5 -208t-165.5 -74q-78 0 -102 55.5t10 246.5zM572 1228h205l318 245h-304z" />
    <glyph glyph-name="ucircumflex" unicode="&#xfb;" horiz-adv-x="1426" 
d="M860 0h345l209 1186h-451l-178 -1006zM603 1186h-451l-107 -609q-46 -261 13 -423.5t313 -162.5q293 0 478.5 173t214.5 339l-206 78q-23 -134 -100.5 -208t-165.5 -74q-78 0 -102 55.5t10 246.5zM437 1239h252l150 148l98 -148h254l-196 233h-283z" />
    <glyph glyph-name="udieresis" unicode="&#xfc;" horiz-adv-x="1426" 
d="M860 0h345l209 1186h-451l-178 -1006zM603 1186h-451l-107 -609q-46 -261 13 -423.5t313 -162.5q293 0 478.5 173t214.5 339l-206 78q-23 -134 -100.5 -208t-165.5 -74q-78 0 -102 55.5t10 246.5zM577 1242q50 0 91.5 39t41.5 92q0 43 -28.5 72t-71.5 29q-52 0 -93 -39
t-41 -92q0 -43 28 -72t73 -29zM1046 1242q52 0 92.5 39t40.5 92q0 43 -27.5 72t-72.5 29q-51 0 -92 -39t-41 -92q0 -43 28.5 -72t71.5 -29z" />
    <glyph glyph-name="yacute" unicode="&#xfd;" horiz-adv-x="1393" 
d="M244 0h690l531 1186h-472l-353 -894h-2l-41 894h-471zM-47 -469q377 0 607.5 82t373.5 387l-418 1q-49 -111 -160.5 -139t-349.5 -28zM570 1228h205l318 245h-304z" />
    <glyph glyph-name="thorn" unicode="&#xfe;" horiz-adv-x="1457" 
d="M-97 -400h450l229 1293h-449zM-26 0h412l69 162l247 1408h-452zM800 -7q265 0 413 174t180 439q32 248 -42 418.5t-339 170.5q-229 0 -420 -99.5t-215 -231.5l170 -179q17 93 91 148t160 55q95 0 131 -54.5t8 -234.5q-29 -190 -88.5 -245.5t-154.5 -55.5q-86 0 -141 54.5
t-38 151.5l-233 -182q-23 -132 133 -230.5t385 -98.5z" />
    <glyph glyph-name="ydieresis" unicode="&#xff;" horiz-adv-x="1393" 
d="M244 0h690l531 1186h-472l-353 -894h-2l-41 894h-471zM-47 -469q377 0 607.5 82t373.5 387l-418 1q-49 -111 -160.5 -139t-349.5 -28zM575 1242q50 0 91.5 39t41.5 92q0 43 -28.5 72t-71.5 29q-52 0 -93 -39t-41 -92q0 -43 28 -72t73 -29zM1044 1242q52 0 92.5 39
t40.5 92q0 43 -27.5 72t-72.5 29q-51 0 -92 -39t-41 -92q0 -43 28.5 -72t71.5 -29z" />
    <glyph glyph-name="Amacron" unicode="&#x100;" horiz-adv-x="1574" 
d="M-51 0h469l120 289h392l17 -289h470l-176 1351h-643zM663 587l210 499h4l33 -499h-247zM566 1437h762l29 161h-762z" />
    <glyph glyph-name="amacron" unicode="&#x101;" horiz-adv-x="1457" 
d="M437 -14q70 0 136 11t123 30t100 43.5t67 52.5l18 -123h375l129 727q31 173 -27.5 276t-198.5 149t-354 46q-112 0 -218 -16t-198.5 -51t-163 -94t-111.5 -145l419 -125q24 52 62 80.5t82 39.5t87 11q62 0 103 -12.5t58.5 -44.5t9.5 -89l-5 -27h-363q-76 0 -153.5 -9.5
t-147.5 -34t-126 -67t-91.5 -109t-43.5 -159.5q-15 -137 29.5 -215.5t146 -111.5t256.5 -33zM587 272q-46 0 -75 9t-40 32t-6 66q4 34 16.5 55t33 31.5t49.5 14.5t67 4h249l-22 -128q-26 -25 -71 -44t-98 -29.5t-103 -10.5zM459 1273h762l29 161h-762z" />
    <glyph glyph-name="Abreve" unicode="&#x102;" horiz-adv-x="1574" 
d="M-51 0h469l120 289h392l17 -289h470l-176 1351h-643zM663 587l210 499h4l33 -499h-247zM944 1409q93 0 164.5 31t117 82.5t55.5 114.5h-207q-5 -28 -17 -47t-33.5 -28t-54.5 -9q-29 0 -47.5 9t-25.5 27.5t-2 47.5h-208q-10 -63 17 -114.5t88.5 -82.5t152.5 -31z" />
    <glyph glyph-name="abreve" unicode="&#x103;" horiz-adv-x="1457" 
d="M437 -14q70 0 136 11t123 30t100 43.5t67 52.5l18 -123h375l129 727q31 173 -27.5 276t-198.5 149t-354 46q-112 0 -218 -16t-198.5 -51t-163 -94t-111.5 -145l419 -125q24 52 62 80.5t82 39.5t87 11q62 0 103 -12.5t58.5 -44.5t9.5 -89l-5 -27h-363q-76 0 -153.5 -9.5
t-147.5 -34t-126 -67t-91.5 -109t-43.5 -159.5q-15 -137 29.5 -215.5t146 -111.5t256.5 -33zM587 272q-46 0 -75 9t-40 32t-6 66q4 34 16.5 55t33 31.5t49.5 14.5t67 4h249l-22 -128q-26 -25 -71 -44t-98 -29.5t-103 -10.5zM837 1245q93 0 164.5 31t117 82.5t55.5 114.5
h-207q-5 -28 -17 -47t-33.5 -28t-54.5 -9q-29 0 -47.5 9t-25.5 27.5t-2 47.5h-208q-10 -63 17 -114.5t88.5 -82.5t152.5 -31z" />
    <glyph glyph-name="Aogonek" unicode="&#x104;" horiz-adv-x="1574" 
d="M-51 0h469l120 289h392l17 -289h470l-176 1351h-643zM663 587l210 499h4l33 -499h-247zM1296 -420q58 0 111.5 5.5t92.5 13t50 11.5l39 216q-13 -5 -45 -13t-70.5 -13.5t-73.5 -5.5q-36 0 -52.5 12t-16.5 31q0 21 16 52.5t37.5 62.5t37.5 48h-215q-34 -31 -68 -76
t-56 -96.5t-22 -102.5q0 -56 33.5 -87.5t87.5 -44.5t114 -13z" />
    <glyph glyph-name="aogonek" unicode="&#x105;" horiz-adv-x="1457" 
d="M437 -14q70 0 136 11t123 30t100 43.5t67 52.5l18 -123h375l129 727q31 173 -27.5 276t-198.5 149t-354 46q-112 0 -218 -16t-198.5 -51t-163 -94t-111.5 -145l419 -125q24 52 62 80.5t82 39.5t87 11q62 0 103 -12.5t58.5 -44.5t9.5 -89l-5 -27h-363q-76 0 -153.5 -9.5
t-147.5 -34t-126 -67t-91.5 -109t-43.5 -159.5q-15 -137 29.5 -215.5t146 -111.5t256.5 -33zM587 272q-46 0 -75 9t-40 32t-6 66q4 34 16.5 55t33 31.5t49.5 14.5t67 4h249l-22 -128q-26 -25 -71 -44t-98 -29.5t-103 -10.5zM1131 -420q58 0 111.5 5.5t92.5 13t50 11.5
l39 216q-13 -5 -45 -13t-70.5 -13.5t-73.5 -5.5q-36 0 -52.5 12t-16.5 31q0 21 16 52.5t37.5 62.5t37.5 48h-215q-34 -31 -68 -76t-56 -96.5t-22 -102.5q0 -56 33.5 -87.5t87.5 -44.5t114 -13z" />
    <glyph glyph-name="Cacute" unicode="&#x106;" horiz-adv-x="1454" 
d="M628 -8q415 0 570.5 179.5t191.5 387.5h-461q-30 -171 -94 -215t-161 -44q-100 0 -152 52t-9 327q43 278 118.5 327t175.5 49q98 0 145 -42.5t18 -217.5h462q33 214 -62 391t-511 177q-410 0 -584 -182.5t-224 -501.5q-51 -316 57 -501.5t520 -185.5zM624 1392h205
l318 245h-304z" />
    <glyph glyph-name="cacute" unicode="&#x107;" horiz-adv-x="1365" 
d="M598 -12q333 0 475.5 124t188.5 248l-374 148q-31 -121 -93.5 -167t-146.5 -46q-83 0 -128.5 50.5t-22.5 230.5q25 204 99.5 258t156.5 54q83 0 129.5 -46t34.5 -172l425 142q-2 129 -104.5 257t-435.5 128q-383 0 -562.5 -168.5t-202.5 -473.5q-22 -263 78 -415
t483 -152zM561 1228h205l318 245h-304z" />
    <glyph glyph-name="Ccircumflex" unicode="&#x108;" horiz-adv-x="1454" 
d="M628 -8q415 0 570.5 179.5t191.5 387.5h-461q-30 -171 -94 -215t-161 -44q-100 0 -152 52t-9 327q43 278 118.5 327t175.5 49q98 0 145 -42.5t18 -217.5h462q33 214 -62 391t-511 177q-410 0 -584 -182.5t-224 -501.5q-51 -316 57 -501.5t520 -185.5zM488 1403h252
l150 148l98 -148h254l-196 233h-283z" />
    <glyph glyph-name="ccircumflex" unicode="&#x109;" horiz-adv-x="1365" 
d="M598 -12q333 0 475.5 124t188.5 248l-374 148q-31 -121 -93.5 -167t-146.5 -46q-83 0 -128.5 50.5t-22.5 230.5q25 204 99.5 258t156.5 54q83 0 129.5 -46t34.5 -172l425 142q-2 129 -104.5 257t-435.5 128q-383 0 -562.5 -168.5t-202.5 -473.5q-22 -263 78 -415
t483 -152zM425 1239h252l150 148l98 -148h254l-196 233h-283z" />
    <glyph glyph-name="Cdotaccent" unicode="&#x10a;" horiz-adv-x="1454" 
d="M628 -8q415 0 570.5 179.5t191.5 387.5h-461q-30 -171 -94 -215t-161 -44q-100 0 -152 52t-9 327q43 278 118.5 327t175.5 49q98 0 145 -42.5t18 -217.5h462q33 214 -62 391t-511 177q-410 0 -584 -182.5t-224 -501.5q-51 -316 57 -501.5t520 -185.5zM889 1392
q51 0 86.5 35.5t35.5 85.5t-35.5 85.5t-85.5 35.5t-85.5 -35.5t-35.5 -85.5t35 -85.5t85 -35.5z" />
    <glyph glyph-name="cdotaccent" unicode="&#x10b;" horiz-adv-x="1365" 
d="M598 -12q333 0 475.5 124t188.5 248l-374 148q-31 -121 -93.5 -167t-146.5 -46q-83 0 -128.5 50.5t-22.5 230.5q25 204 99.5 258t156.5 54q83 0 129.5 -46t34.5 -172l425 142q-2 129 -104.5 257t-435.5 128q-383 0 -562.5 -168.5t-202.5 -473.5q-22 -263 78 -415
t483 -152zM826 1228q51 0 86.5 35.5t35.5 85.5t-35.5 85.5t-85.5 35.5t-85.5 -35.5t-35.5 -85.5t35 -85.5t85 -35.5z" />
    <glyph glyph-name="Ccaron" unicode="&#x10c;" horiz-adv-x="1454" 
d="M628 -8q415 0 570.5 179.5t191.5 387.5h-461q-30 -171 -94 -215t-161 -44q-100 0 -152 52t-9 327q43 278 118.5 327t175.5 49q98 0 145 -42.5t18 -217.5h462q33 214 -62 391t-511 177q-410 0 -584 -182.5t-224 -501.5q-51 -316 57 -501.5t520 -185.5zM725 1393h283
l276 233h-255l-147 -147l-101 147h-251z" />
    <glyph glyph-name="ccaron" unicode="&#x10d;" horiz-adv-x="1365" 
d="M598 -12q333 0 475.5 124t188.5 248l-374 148q-31 -121 -93.5 -167t-146.5 -46q-83 0 -128.5 50.5t-22.5 230.5q25 204 99.5 258t156.5 54q83 0 129.5 -46t34.5 -172l425 142q-2 129 -104.5 257t-435.5 128q-383 0 -562.5 -168.5t-202.5 -473.5q-22 -263 78 -415
t483 -152zM662 1229h283l276 233h-255l-147 -147l-101 147h-251z" />
    <glyph glyph-name="Dcaron" unicode="&#x10e;" horiz-adv-x="1467" 
d="M-23 0h810q304 0 443 154t195 522q54 362 -31.5 518t-388.5 156h-790zM487 308l129 734h220q104 0 142 -48.5t-9 -317.5q-48 -270 -103 -319t-159 -49h-220zM723 1393h283l276 233h-255l-147 -147l-101 147h-251z" />
    <glyph glyph-name="dcaron" unicode="&#x10f;" horiz-adv-x="1789" 
d="M1521 1166h274l161 404h-294zM828 0h420l276 1570h-450l-247 -1408zM427 -7q229 0 417.5 98.5t212.5 230.5l-169 182q-17 -95 -91.5 -150.5t-160.5 -55.5q-95 0 -130.5 54t-8.5 242q29 185 88.5 239.5t154.5 54.5q86 0 141 -55t39 -148l232 179q24 132 -132.5 231.5
t-385.5 99.5q-274 0 -424.5 -184t-169.5 -463q-19 -226 56.5 -390.5t330.5 -164.5z" />
    <glyph glyph-name="Dcroat" unicode="&#x110;" horiz-adv-x="1516" 
d="M-56 529h795l48 294h-794zM26 0h810q304 0 443 154t195 522q54 362 -31.5 518t-388.5 156h-790zM536 308l129 734h220q104 0 142 -48.5t-9 -317.5q-48 -270 -103 -319t-159 -49h-220z" />
    <glyph glyph-name="dcroat" unicode="&#x111;" horiz-adv-x="1462" 
d="M665 1268h931l37 211h-931zM828 0h420l276 1570h-450l-247 -1408zM427 -7q229 0 417.5 98.5t212.5 230.5l-169 182q-17 -95 -91.5 -150.5t-160.5 -55.5q-95 0 -130.5 54t-8.5 242q29 185 88.5 239.5t154.5 54.5q86 0 141 -55t39 -148l232 179q24 132 -132.5 231.5
t-385.5 99.5q-274 0 -424.5 -184t-169.5 -463q-19 -226 56.5 -390.5t330.5 -164.5z" />
    <glyph glyph-name="Emacron" unicode="&#x112;" horiz-adv-x="1213" 
d="M-44 0h1067l54 308h-609l39 224h560l52 293h-560l38 217h609l55 308h-1067zM369 1437h762l29 161h-762z" />
    <glyph glyph-name="emacron" unicode="&#x113;" horiz-adv-x="1448" 
d="M624 -12l51 288q-108 0 -165 54q-59 52 -21 261q36 205 111 263q76 57 179 57q105 0 155 -49q27 -36 24 -133h-483l-47 -269h932q19 58 31 131q47 267 -62 438q-109 170 -500 170q-379 0 -554 -167q-174 -166 -223 -440q-48 -275 69 -440q116 -164 503 -164zM675 276
l-51 -288q202 0 317 31q113 30 208 91q94 59 140 172l-382 116q-33 -43 -61 -71q-30 -27 -67 -39q-39 -12 -104 -12zM465 1273h762l29 161h-762z" />
    <glyph glyph-name="Ebreve" unicode="&#x114;" horiz-adv-x="1213" 
d="M-44 0h1067l54 308h-609l39 224h560l52 293h-560l38 217h609l55 308h-1067zM746 1409q93 0 164.5 31t117 82.5t55.5 114.5h-207q-5 -28 -17 -47t-33.5 -28t-54.5 -9q-29 0 -47.5 9t-25.5 27.5t-2 47.5h-208q-10 -63 17 -114.5t88.5 -82.5t152.5 -31z" />
    <glyph glyph-name="ebreve" unicode="&#x115;" horiz-adv-x="1448" 
d="M624 -12l51 288q-108 0 -165 54q-59 52 -21 261q36 205 111 263q76 57 179 57q105 0 155 -49q27 -36 24 -133h-483l-47 -269h932q19 58 31 131q47 267 -62 438q-109 170 -500 170q-379 0 -554 -167q-174 -166 -223 -440q-48 -275 69 -440q116 -164 503 -164zM675 276
l-51 -288q202 0 317 31q113 30 208 91q94 59 140 172l-382 116q-33 -43 -61 -71q-30 -27 -67 -39q-39 -12 -104 -12zM842 1245q93 0 164.5 31t117 82.5t55.5 114.5h-207q-5 -28 -17 -47t-33.5 -28t-54.5 -9q-29 0 -47.5 9t-25.5 27.5t-2 47.5h-208q-10 -63 17 -114.5
t88.5 -82.5t152.5 -31z" />
    <glyph glyph-name="Edotaccent" unicode="&#x116;" horiz-adv-x="1213" 
d="M-44 0h1067l54 308h-609l39 224h560l52 293h-560l38 217h609l55 308h-1067zM767 1392q51 0 86.5 35.5t35.5 85.5t-35.5 85.5t-85.5 35.5t-85.5 -35.5t-35.5 -85.5t35 -85.5t85 -35.5z" />
    <glyph glyph-name="edotaccent" unicode="&#x117;" horiz-adv-x="1448" 
d="M624 -12l51 288q-108 0 -165 54q-59 52 -21 261q36 205 111 263q76 57 179 57q105 0 155 -49q27 -36 24 -133h-483l-47 -269h932q19 58 31 131q47 267 -62 438q-109 170 -500 170q-379 0 -554 -167q-174 -166 -223 -440q-48 -275 69 -440q116 -164 503 -164zM675 276
l-51 -288q202 0 317 31q113 30 208 91q94 59 140 172l-382 116q-33 -43 -61 -71q-30 -27 -67 -39q-39 -12 -104 -12zM863 1228q51 0 86.5 35.5t35.5 85.5t-35.5 85.5t-85.5 35.5t-85.5 -35.5t-35.5 -85.5t35 -85.5t85 -35.5z" />
    <glyph glyph-name="Eogonek" unicode="&#x118;" horiz-adv-x="1213" 
d="M-44 0h1067l54 308h-609l39 224h560l52 293h-560l38 217h609l55 308h-1067zM655 -420q58 0 111.5 5.5t92.5 13t50 11.5l39 216q-13 -5 -45 -13t-70.5 -13.5t-73.5 -5.5q-36 0 -52.5 12t-16.5 31q0 21 16 52.5t37.5 62.5t37.5 48h-215q-34 -31 -68 -76t-56 -96.5
t-22 -102.5q0 -56 33.5 -87.5t87.5 -44.5t114 -13z" />
    <glyph glyph-name="eogonek" unicode="&#x119;" horiz-adv-x="1448" 
d="M624 -12l51 288q-108 0 -165 54q-59 52 -21 261q36 205 111 263q76 57 179 57q105 0 155 -49q27 -36 24 -133h-483l-47 -269h932q19 58 31 131q47 267 -62 438q-109 170 -500 170q-379 0 -554 -167q-174 -166 -223 -440q-48 -275 69 -440q116 -164 503 -164zM675 276
l-51 -288q202 0 317 31q113 30 208 91q94 59 140 172l-382 116q-33 -43 -61 -71q-30 -27 -67 -39q-39 -12 -104 -12zM958 -362q58 0 111.5 5.5t92.5 13t50 11.5l39 216q-13 -5 -45 -13t-70.5 -13.5t-73.5 -5.5q-36 0 -52.5 12t-16.5 31q0 21 16 52.5t37.5 62.5t37.5 48h-215
q-34 -31 -68 -76t-56 -96.5t-22 -102.5q0 -56 33.5 -87.5t87.5 -44.5t114 -13z" />
    <glyph glyph-name="Ecaron" unicode="&#x11a;" horiz-adv-x="1213" 
d="M-44 0h1067l54 308h-609l39 224h560l52 293h-560l38 217h609l55 308h-1067zM603 1393h283l276 233h-255l-147 -147l-101 147h-251z" />
    <glyph glyph-name="ecaron" unicode="&#x11b;" horiz-adv-x="1448" 
d="M624 -12l51 288q-108 0 -165 54q-59 52 -21 261q36 205 111 263q76 57 179 57q105 0 155 -49q27 -36 24 -133h-483l-47 -269h932q19 58 31 131q47 267 -62 438q-109 170 -500 170q-379 0 -554 -167q-174 -166 -223 -440q-48 -275 69 -440q116 -164 503 -164zM675 276
l-51 -288q202 0 317 31q113 30 208 91q94 59 140 172l-382 116q-33 -43 -61 -71q-30 -27 -67 -39q-39 -12 -104 -12zM699 1229h283l276 233h-255l-147 -147l-101 147h-251z" />
    <glyph glyph-name="Gcircumflex" unicode="&#x11c;" horiz-adv-x="1495" 
d="M587 -8q298 0 421 145l28 -137h255l129 739h-644l-46 -266h177l-2 -6q-30 -104 -77 -136t-148 -32q-109 0 -157.5 68t-11.5 298q48 286 120.5 338.5t178.5 52.5q100 0 143 -30.5t31 -166.5h457q23 186 -93.5 345t-493.5 159q-408 0 -580.5 -179t-219.5 -504
q-45 -318 55 -503t478 -185zM514 1403h252l150 148l98 -148h254l-196 233h-283z" />
    <glyph glyph-name="gcircumflex" unicode="&#x11d;" horiz-adv-x="1468" 
d="M500 -473q211 0 353.5 48.5t259 171.5t155.5 343l194 1096h-328l-165 -226l-162 -918q-28 -165 -90.5 -198t-150.5 -33q-52 0 -91.5 14.5t-59.5 49.5t-17 83h-440q-16 -237 147 -334t395 -97zM428 -7q229 0 418 98.5t212 230.5l-170 182q-16 -95 -90.5 -150.5
t-160.5 -55.5q-95 0 -133 54.5t-5 241.5q33 185 90 239.5t152 54.5q86 0 141 -55t39 -148l231 169q23 132 -132.5 236.5t-384.5 104.5q-265 0 -410 -167.5t-182 -431.5q-37 -263 41.5 -433t343.5 -170zM459 1239h252l150 148l98 -148h254l-196 233h-283z" />
    <glyph glyph-name="Gbreve" unicode="&#x11e;" horiz-adv-x="1495" 
d="M587 -8q298 0 421 145l28 -137h255l129 739h-644l-46 -266h177l-2 -6q-30 -104 -77 -136t-148 -32q-109 0 -157.5 68t-11.5 298q48 286 120.5 338.5t178.5 52.5q100 0 143 -30.5t31 -166.5h457q23 186 -93.5 345t-493.5 159q-408 0 -580.5 -179t-219.5 -504
q-45 -318 55 -503t478 -185zM894 1409q93 0 164.5 31t117 82.5t55.5 114.5h-207q-5 -28 -17 -47t-33.5 -28t-54.5 -9q-29 0 -47.5 9t-25.5 27.5t-2 47.5h-208q-10 -63 17 -114.5t88.5 -82.5t152.5 -31z" />
    <glyph glyph-name="gbreve" unicode="&#x11f;" horiz-adv-x="1468" 
d="M500 -473q211 0 353.5 48.5t259 171.5t155.5 343l194 1096h-328l-165 -226l-162 -918q-28 -165 -90.5 -198t-150.5 -33q-52 0 -91.5 14.5t-59.5 49.5t-17 83h-440q-16 -237 147 -334t395 -97zM428 -7q229 0 418 98.5t212 230.5l-170 182q-16 -95 -90.5 -150.5
t-160.5 -55.5q-95 0 -133 54.5t-5 241.5q33 185 90 239.5t152 54.5q86 0 141 -55t39 -148l231 169q23 132 -132.5 236.5t-384.5 104.5q-265 0 -410 -167.5t-182 -431.5q-37 -263 41.5 -433t343.5 -170zM839 1245q93 0 164.5 31t117 82.5t55.5 114.5h-207q-5 -28 -17 -47
t-33.5 -28t-54.5 -9q-29 0 -47.5 9t-25.5 27.5t-2 47.5h-208q-10 -63 17 -114.5t88.5 -82.5t152.5 -31z" />
    <glyph glyph-name="Gdotaccent" unicode="&#x120;" horiz-adv-x="1495" 
d="M587 -8q298 0 421 145l28 -137h255l129 739h-644l-46 -266h177l-2 -6q-30 -104 -77 -136t-148 -32q-109 0 -157.5 68t-11.5 298q48 286 120.5 338.5t178.5 52.5q100 0 143 -30.5t31 -166.5h457q23 186 -93.5 345t-493.5 159q-408 0 -580.5 -179t-219.5 -504
q-45 -318 55 -503t478 -185zM914 1392q51 0 86.5 35.5t35.5 85.5t-35.5 85.5t-85.5 35.5t-85.5 -35.5t-35.5 -85.5t35 -85.5t85 -35.5z" />
    <glyph glyph-name="gdotaccent" unicode="&#x121;" horiz-adv-x="1468" 
d="M500 -473q211 0 353.5 48.5t259 171.5t155.5 343l194 1096h-328l-165 -226l-162 -918q-28 -165 -90.5 -198t-150.5 -33q-52 0 -91.5 14.5t-59.5 49.5t-17 83h-440q-16 -237 147 -334t395 -97zM428 -7q229 0 418 98.5t212 230.5l-170 182q-16 -95 -90.5 -150.5
t-160.5 -55.5q-95 0 -133 54.5t-5 241.5q33 185 90 239.5t152 54.5q86 0 141 -55t39 -148l231 169q23 132 -132.5 236.5t-384.5 104.5q-265 0 -410 -167.5t-182 -431.5q-37 -263 41.5 -433t343.5 -170zM859 1228q51 0 86.5 35.5t35.5 85.5t-35.5 85.5t-85.5 35.5
t-85.5 -35.5t-35.5 -85.5t35 -85.5t85 -35.5z" />
    <glyph glyph-name="uni0122" unicode="&#x122;" horiz-adv-x="1495" 
d="M587 -8q298 0 421 145l28 -137h255l129 739h-644l-46 -266h177l-2 -6q-30 -104 -77 -136t-148 -32q-109 0 -157.5 68t-11.5 298q48 286 120.5 338.5t178.5 52.5q100 0 143 -30.5t31 -166.5h457q23 186 -93.5 345t-493.5 159q-408 0 -580.5 -179t-219.5 -504
q-45 -318 55 -503t478 -185zM417 -358h151l198 304h-243z" />
    <glyph glyph-name="uni0123" unicode="&#x123;" horiz-adv-x="1468" 
d="M500 -473q211 0 353.5 48.5t259 171.5t155.5 343l194 1096h-328l-165 -226l-162 -918q-28 -165 -90.5 -198t-150.5 -33q-52 0 -91.5 14.5t-59.5 49.5t-17 83h-440q-16 -237 147 -334t395 -97zM428 -7q229 0 418 98.5t212 230.5l-170 182q-16 -95 -90.5 -150.5
t-160.5 -55.5q-95 0 -133 54.5t-5 241.5q33 185 90 239.5t152 54.5q86 0 141 -55t39 -148l231 169q23 132 -132.5 236.5t-384.5 104.5q-265 0 -410 -167.5t-182 -431.5q-37 -263 41.5 -433t343.5 -170zM734 1273h193l84 242h-120z" />
    <glyph glyph-name="Hcircumflex" unicode="&#x124;" horiz-adv-x="1499" 
d="M-23 0h457l88 506h405l-89 -506h457l238 1350h-457l-95 -536h-404l95 536h-457zM517 1403h252l150 148l98 -148h254l-196 233h-283z" />
    <glyph glyph-name="hcircumflex" unicode="&#x125;" horiz-adv-x="1445" 
d="M-27 0h452l278 1570h-452zM788 0h451l107 609q46 262 -15.5 424t-310.5 162q-271 0 -467.5 -172.5t-226.5 -339.5l204 -86q24 133 100 211.5t163 78.5q78 0 105 -55.5t-7 -245.5zM522 1616h252l150 148l98 -148h254l-196 233h-283z" />
    <glyph glyph-name="Hbar" unicode="&#x126;" horiz-adv-x="1521" 
d="M112 1026h1440l28 159h-1439zM-7 0h457l89 506h405l-90 -506h457l238 1350h-457l-94 -536h-404l94 536h-457z" />
    <glyph glyph-name="hbar" unicode="&#x127;" horiz-adv-x="1413" 
d="M105 1268h930l37 211h-930zM-27 0h452l278 1570h-452zM788 0h451l107 609q46 262 -15.5 424t-310.5 162q-271 0 -467.5 -172.5t-226.5 -339.5l204 -86q24 133 100 211.5t163 78.5q78 0 105 -55.5t-7 -245.5z" />
    <glyph glyph-name="Itilde" unicode="&#x128;" horiz-adv-x="700" 
d="M5 0h455l238 1350h-454zM645 1400q85 0 142 29.5t91 72.5t51.5 85.5t22.5 68.5h-213q-3 -15 -14.5 -35t-31.5 -34t-47 -14q-29 0 -52.5 13.5t-49 32t-59.5 32t-85 13.5q-88 0 -147 -28.5t-93 -71t-50.5 -84t-22.5 -68.5h215q4 15 13.5 35t29 34t51.5 14q29 0 52.5 -14.5
t50 -33t61 -33t85.5 -14.5z" />
    <glyph glyph-name="itilde" unicode="&#x129;" horiz-adv-x="648" 
d="M-34 0h454l209 1186h-454zM559 1236q85 0 142 29.5t91 72.5t51.5 85.5t22.5 68.5h-213q-3 -15 -14.5 -35t-31.5 -34t-47 -14q-29 0 -52.5 13.5t-49 32t-59.5 32t-85 13.5q-88 0 -147 -28.5t-93 -71t-50.5 -84t-22.5 -68.5h215q4 15 13.5 35t29 34t51.5 14
q29 0 52.5 -14.5t50 -33t61 -33t85.5 -14.5z" />
    <glyph glyph-name="Imacron" unicode="&#x12a;" horiz-adv-x="700" 
d="M5 0h455l238 1350h-454zM123 1437h762l29 161h-762z" />
    <glyph glyph-name="imacron" unicode="&#x12b;" horiz-adv-x="648" 
d="M123 1273h590l28 161h-590zM-34 0h454l209 1186h-454z" />
    <glyph glyph-name="Ibreve" unicode="&#x12c;" horiz-adv-x="700" 
d="M5 0h455l238 1350h-454zM500 1409q93 0 164.5 31t117 82.5t55.5 114.5h-207q-5 -28 -17 -47t-33.5 -28t-54.5 -9q-29 0 -47.5 9t-25.5 27.5t-2 47.5h-208q-10 -63 17 -114.5t88.5 -82.5t152.5 -31z" />
    <glyph glyph-name="ibreve" unicode="&#x12d;" horiz-adv-x="648" 
d="M-34 0h454l209 1186h-454zM414 1245q93 0 164.5 31t117 82.5t55.5 114.5h-207q-5 -28 -17 -47t-33.5 -28t-54.5 -9q-29 0 -47.5 9t-25.5 27.5t-2 47.5h-208q-10 -63 17 -114.5t88.5 -82.5t152.5 -31z" />
    <glyph glyph-name="Iogonek" unicode="&#x12e;" horiz-adv-x="700" 
d="M5 0h455l238 1350h-454zM334 -420q58 0 111.5 5.5t92.5 13t50 11.5l39 216q-13 -5 -45 -13t-70.5 -13.5t-73.5 -5.5q-36 0 -52.5 12t-16.5 31q0 21 16 52.5t37.5 62.5t37.5 48h-215q-34 -31 -68 -76t-56 -96.5t-22 -102.5q0 -56 33.5 -87.5t87.5 -44.5t114 -13z" />
    <glyph glyph-name="iogonek" unicode="&#x12f;" horiz-adv-x="648" 
d="M246 1570l-49 -283h452l49 283h-452zM-34 0h454l209 1186h-454zM293 -420q58 0 112 5.5t92.5 13t50.5 11.5l39 216q-14 -5 -46 -13t-70.5 -13.5t-72.5 -5.5q-37 0 -53.5 12t-16.5 31q0 21 16 52.5t37.5 62.5t38.5 48h-215q-35 -31 -68.5 -76t-56 -96.5t-22.5 -102.5
q0 -56 34 -87.5t87.5 -44.5t113.5 -13z" />
    <glyph glyph-name="Idotaccent" unicode="&#x130;" horiz-adv-x="700" 
d="M5 0h455l238 1350h-454zM521 1392q51 0 86.5 35.5t35.5 85.5t-35.5 85.5t-85.5 35.5t-85.5 -35.5t-35.5 -85.5t35 -85.5t85 -35.5z" />
    <glyph glyph-name="dotlessi" unicode="&#x131;" horiz-adv-x="648" 
d="M-34 0h454l209 1186h-454z" />
    <glyph glyph-name="IJ" unicode="&#x132;" horiz-adv-x="2155" 
d="M5 0h455l238 1350h-454zM1297 -11q329 0 505.5 103.5t211.5 300.5l169 957h-455l-157 -891q-15 -83 -64.5 -124.5t-167.5 -41.5t-150.5 46.5t-14.5 131.5l24 134h-456l-33 -186q-43 -218 110.5 -324t477.5 -106z" />
    <glyph glyph-name="ij" unicode="&#x133;" horiz-adv-x="1351" 
d="M-3 0h452l208 1186h-452zM273 1570l-50 -283h452l50 283h-452zM341 -460q350 0 552 112t261 453l192 1081h-451l-194 -1099q-26 -150 -102 -193.5t-202 -43.5zM962 1570l-50 -283h452l50 283h-452z" />
    <glyph glyph-name="Jcircumflex" unicode="&#x134;" horiz-adv-x="1455" 
d="M597 -11q329 0 505.5 103.5t211.5 300.5l169 957h-455l-157 -891q-15 -83 -64.5 -124.5t-167.5 -41.5t-150.5 46.5t-14.5 131.5l24 134h-456l-33 -186q-43 -218 110.5 -324t477.5 -106zM891 1403h252l150 148l98 -148h254l-196 233h-283z" />
    <glyph glyph-name="jcircumflex" unicode="&#x135;" horiz-adv-x="688" 
d="M-322 -460q350 0 552 112t261 453l192 1081h-451l-195 -1099q-25 -150 -101 -193.5t-202 -43.5zM87 1239h252l150 148l98 -148h254l-196 233h-283z" />
    <glyph glyph-name="uni0136" unicode="&#x136;" horiz-adv-x="1423" 
d="M-23 0h454l97 553l254 -553h506l-328 669l571 681h-516l-444 -554l98 554h-454zM397 -358h151l198 304h-243z" />
    <glyph glyph-name="uni0137" unicode="&#x137;" horiz-adv-x="1394" 
d="M-26 0h452l51 298l177 141l117 -439h478l-233 744l432 442h-528l-353 -389l135 773h-452zM368 -358h151l198 304h-243z" />
    <glyph glyph-name="kgreenlandic" unicode="&#x138;" horiz-adv-x="1404" 
d="M-30 0h454l209 1186h-454zM444 581l502 6l547 599h-513zM781 0h503l-338 595l-489 8z" />
    <glyph glyph-name="Lacute" unicode="&#x139;" horiz-adv-x="1125" 
d="M-23 0h967l54 306h-511l185 1044h-457zM486 1392h205l318 245h-304z" />
    <glyph glyph-name="lacute" unicode="&#x13a;" horiz-adv-x="665" 
d="M-9 0h453l276 1570h-452zM263 1612h205l318 245h-304z" />
    <glyph glyph-name="uni013B" unicode="&#x13b;" horiz-adv-x="1125" 
d="M-23 0h967l54 306h-511l185 1044h-457zM254 -358h151l198 304h-243z" />
    <glyph glyph-name="uni013C" unicode="&#x13c;" horiz-adv-x="665" 
d="M-9 0h453l276 1570h-452zM-3 -358h151l198 304h-243z" />
    <glyph glyph-name="Lcaron" unicode="&#x13d;" horiz-adv-x="1200" 
d="M940 949h275l195 399h-295zM-23 0h967l54 306h-511l185 1044h-457z" />
    <glyph glyph-name="lcaron" unicode="&#x13e;" horiz-adv-x="665" 
d="M-9 0h453l276 1570h-452zM364 1613h283l276 233h-255l-147 -147l-101 147h-251z" />
    <glyph glyph-name="Ldot" unicode="&#x13f;" horiz-adv-x="1217" 
d="M-23 0h967l54 306h-511l185 1044h-457zM723 829l-53 -300h423l53 300h-423z" />
    <glyph glyph-name="ldot" unicode="&#x140;" horiz-adv-x="1066" 
d="M-9 0h453l276 1570h-452zM653 786l-53 -300h423l53 300h-423z" />
    <glyph glyph-name="Lslash" unicode="&#x141;" horiz-adv-x="1202" 
d="M22 374l851 398l-64 224l-851 -397zM64 0h967l54 306h-511l185 1044h-457z" />
    <glyph glyph-name="lslash" unicode="&#x142;" horiz-adv-x="691" 
d="M-62 301l781 340l58 343l-781 -340zM31 0h453l276 1570h-452z" />
    <glyph glyph-name="Nacute" unicode="&#x143;" horiz-adv-x="1739" 
d="M-23 0h454l181 1029h3l212 -1029h708l238 1350h-455l-181 -1005h-4l-205 1005h-713zM795 1392h205l318 245h-304z" />
    <glyph glyph-name="nacute" unicode="&#x144;" horiz-adv-x="1431" 
d="M-26 0h451l177 1011l-72 175h-347zM772 0h451l104 595q46 262 -14 431t-309 169q-271 0 -467.5 -172.5t-226.5 -339.5l204 -86q24 133 100 211.5t163 78.5q78 0 105 -55.5t-7 -245.5zM607 1214h205l318 245h-304z" />
    <glyph glyph-name="uni0145" unicode="&#x145;" horiz-adv-x="1739" 
d="M-23 0h454l181 1029h3l212 -1029h708l238 1350h-455l-181 -1005h-4l-205 1005h-713zM563 -358h151l198 304h-243z" />
    <glyph glyph-name="uni0146" unicode="&#x146;" horiz-adv-x="1431" 
d="M-26 0h451l177 1011l-72 175h-347zM772 0h451l104 595q46 262 -14 431t-309 169q-271 0 -467.5 -172.5t-226.5 -339.5l204 -86q24 133 100 211.5t163 78.5q78 0 105 -55.5t-7 -245.5zM403 -357h151l198 304h-243z" />
    <glyph glyph-name="Ncaron" unicode="&#x147;" horiz-adv-x="1739" 
d="M-23 0h454l181 1029h3l212 -1029h708l238 1350h-455l-181 -1005h-4l-205 1005h-713zM895 1393h283l276 233h-255l-147 -147l-101 147h-251z" />
    <glyph glyph-name="ncaron" unicode="&#x148;" horiz-adv-x="1431" 
d="M-26 0h451l177 1011l-72 175h-347zM772 0h451l104 595q46 262 -14 431t-309 169q-271 0 -467.5 -172.5t-226.5 -339.5l204 -86q24 133 100 211.5t163 78.5q78 0 105 -55.5t-7 -245.5zM690 1215h283l276 233h-255l-147 -147l-101 147h-251z" />
    <glyph glyph-name="Eng" unicode="&#x14a;" horiz-adv-x="1739" 
d="M665 -465q124 0 242 12.5t222.5 41.5t189 82t140.5 133.5t76 195.5h-471q-8 -43 -27.5 -75t-57.5 -53t-101.5 -31.5t-160.5 -10.5zM-23 0h454l181 1029h3l212 -1029h708l238 1350h-455l-181 -1005h-4l-205 1005h-713z" />
    <glyph glyph-name="eng" unicode="&#x14b;" horiz-adv-x="1429" 
d="M465 -446q236 0 395 49t248 147.5t115 249.5h-451q-11 -67 -48 -102.5t-91.5 -49.5t-117.5 -14zM-26 0h451l177 1011l-72 175h-347zM772 0h451l104 595q46 262 -14 431t-309 169q-271 0 -467.5 -172.5t-226.5 -339.5l204 -86q24 133 100 211.5t163 78.5q78 0 105 -55.5
t-7 -245.5z" />
    <glyph glyph-name="Omacron" unicode="&#x14c;" horiz-adv-x="1498" 
d="M634 -12q410 0 592 181t230 506q47 326 -61.5 507t-518.5 181t-592.5 -180.5t-230.5 -507.5q-47 -324 61.5 -505.5t519.5 -181.5zM688 296q-115 0 -168.5 53.5t-11.5 325.5q44 278 121.5 329t192.5 51q114 0 168.5 -51t10.5 -329q-44 -272 -121.5 -325.5t-191.5 -53.5z
M506 1437h762l29 161h-762z" />
    <glyph glyph-name="omacron" unicode="&#x14d;" horiz-adv-x="1452" 
d="M615 -9q376 0 554.5 164t219.5 444q39 274 -78 437.5t-493 163.5q-377 0 -556 -160.5t-219 -440.5q-39 -274 78 -441t494 -167zM663 294q-97 0 -147 55.5t-22 247.5q29 190 103.5 245t171.5 55q98 0 147.5 -54.5t21.5 -245.5q-29 -191 -103.5 -247t-171.5 -56zM452 1273
h762l29 161h-762z" />
    <glyph glyph-name="Obreve" unicode="&#x14e;" horiz-adv-x="1498" 
d="M634 -12q410 0 592 181t230 506q47 326 -61.5 507t-518.5 181t-592.5 -180.5t-230.5 -507.5q-47 -324 61.5 -505.5t519.5 -181.5zM688 296q-115 0 -168.5 53.5t-11.5 325.5q44 278 121.5 329t192.5 51q114 0 168.5 -51t10.5 -329q-44 -272 -121.5 -325.5t-191.5 -53.5z
M883 1409q93 0 164.5 31t117 82.5t55.5 114.5h-207q-5 -28 -17 -47t-33.5 -28t-54.5 -9q-29 0 -47.5 9t-25.5 27.5t-2 47.5h-208q-10 -63 17 -114.5t88.5 -82.5t152.5 -31z" />
    <glyph glyph-name="obreve" unicode="&#x14f;" horiz-adv-x="1452" 
d="M615 -9q376 0 554.5 164t219.5 444q39 274 -78 437.5t-493 163.5q-377 0 -556 -160.5t-219 -440.5q-39 -274 78 -441t494 -167zM663 294q-97 0 -147 55.5t-22 247.5q29 190 103.5 245t171.5 55q98 0 147.5 -54.5t21.5 -245.5q-29 -191 -103.5 -247t-171.5 -56zM830 1245
q93 0 164.5 31t117 82.5t55.5 114.5h-207q-5 -28 -17 -47t-33.5 -28t-54.5 -9q-29 0 -47.5 9t-25.5 27.5t-2 47.5h-208q-10 -63 17 -114.5t88.5 -82.5t152.5 -31z" />
    <glyph glyph-name="Ohungarumlaut" unicode="&#x150;" horiz-adv-x="1498" 
d="M634 -12q410 0 592 181t230 506q47 326 -61.5 507t-518.5 181t-592.5 -180.5t-230.5 -507.5q-47 -324 61.5 -505.5t519.5 -181.5zM688 296q-115 0 -168.5 53.5t-11.5 325.5q44 278 121.5 329t192.5 51q114 0 168.5 -51t10.5 -329q-44 -272 -121.5 -325.5t-191.5 -53.5z
M738 1416h201l278 221h-267zM591 1416h200l269 221h-260z" />
    <glyph glyph-name="ohungarumlaut" unicode="&#x151;" horiz-adv-x="1452" 
d="M615 -9q376 0 554.5 164t219.5 444q39 274 -78 437.5t-493 163.5q-377 0 -556 -160.5t-219 -440.5q-39 -274 78 -441t494 -167zM663 294q-97 0 -147 55.5t-22 247.5q29 190 103.5 245t171.5 55q98 0 147.5 -54.5t21.5 -245.5q-29 -191 -103.5 -247t-171.5 -56zM684 1252
h201l278 221h-267zM537 1252h200l269 221h-260z" />
    <glyph glyph-name="OE" unicode="&#x152;" horiz-adv-x="2141" 
d="M634 -12q410 0 592 181t230 506q47 326 -61.5 507t-518.5 181t-592.5 -180.5t-230.5 -507.5q-47 -324 61.5 -505.5t519.5 -181.5zM688 296q-115 0 -168.5 53.5t-11.5 325.5q44 278 121.5 329t192.5 51q114 0 168.5 -51t10.5 -329q-44 -272 -121.5 -325.5t-191.5 -53.5z
M884 0h1067l54 308h-609l39 224h560l52 293h-560l38 217h609l55 308h-1067z" />
    <glyph glyph-name="oe" unicode="&#x153;" horiz-adv-x="2334" 
d="M615 -9q376 0 554.5 164t219.5 444q39 274 -78 437.5t-493 163.5q-377 0 -556 -160.5t-219 -440.5q-39 -274 78 -441t494 -167zM663 294q-97 0 -147 55.5t-22 247.5q29 190 103.5 245t171.5 55q98 0 147.5 -54.5t21.5 -245.5q-29 -191 -103.5 -247t-171.5 -56zM1510 -12
l51 288q-108 0 -165 54q-59 52 -21 261q36 205 111 263q76 57 179 57q105 0 155 -49q27 -36 24 -133h-483l-47 -269h932q19 58 31 131q47 267 -62 438q-109 170 -500 170q-379 0 -554 -167q-174 -166 -223 -440q-48 -275 69 -440q116 -164 503 -164zM1561 276l-51 -288
q202 0 317 31q113 30 208 91q94 59 140 172l-382 116q-33 -43 -61 -71q-30 -27 -67 -39q-39 -12 -104 -12z" />
    <glyph glyph-name="Racute" unicode="&#x154;" horiz-adv-x="1450" 
d="M-23 0h458l88 503h398q258 0 369 118.5t137 294.5q27 173 -30.5 303.5t-306.5 130.5h-875zM804 0h495l-233 637l-454 -15zM572 780l46 262h264q62 0 80 -32t5 -100q-11 -67 -40 -98.5t-91 -31.5h-264zM612 1392h205l318 245h-304z" />
    <glyph glyph-name="racute" unicode="&#x155;" horiz-adv-x="1431" 
d="M875 575h451q55 316 -5.5 468.5t-323.5 152.5q-237 0 -408 -121t-203 -302l156 -93q15 82 78.5 145t148.5 63q73 0 107.5 -53t-1.5 -260zM-27 0h451l177 1001l-71 185h-348zM590 1228h205l318 245h-304z" />
    <glyph glyph-name="uni0156" unicode="&#x156;" horiz-adv-x="1450" 
d="M-23 0h458l88 503h398q258 0 369 118.5t137 294.5q27 173 -30.5 303.5t-306.5 130.5h-875zM804 0h495l-233 637l-454 -15zM572 780l46 262h264q62 0 80 -32t5 -100q-11 -67 -40 -98.5t-91 -31.5h-264zM380 -358h151l198 304h-243z" />
    <glyph glyph-name="uni0157" unicode="&#x157;" horiz-adv-x="1431" 
d="M875 575h451q55 316 -5.5 468.5t-323.5 152.5q-237 0 -408 -121t-203 -302l156 -93q15 82 78.5 145t148.5 63q73 0 107.5 -53t-1.5 -260zM-27 0h451l177 1001l-71 185h-348zM332 -358h151l198 304h-243z" />
    <glyph glyph-name="Rcaron" unicode="&#x158;" horiz-adv-x="1450" 
d="M-23 0h458l88 503h398q258 0 369 118.5t137 294.5q27 173 -30.5 303.5t-306.5 130.5h-875zM804 0h495l-233 637l-454 -15zM572 780l46 262h264q62 0 80 -32t5 -100q-11 -67 -40 -98.5t-91 -31.5h-264zM713 1393h283l276 233h-255l-147 -147l-101 147h-251z" />
    <glyph glyph-name="rcaron" unicode="&#x159;" horiz-adv-x="1431" 
d="M875 575h451q55 316 -5.5 468.5t-323.5 152.5q-237 0 -408 -121t-203 -302l156 -93q15 82 78.5 145t148.5 63q73 0 107.5 -53t-1.5 -260zM-27 0h451l177 1001l-71 185h-348zM690 1229h283l276 233h-255l-147 -147l-101 147h-251z" />
    <glyph glyph-name="Sacute" unicode="&#x15a;" horiz-adv-x="1474" 
d="M679 1512h205l318 245h-304zM623 -7q398 0 562 136t185 327q20 161 -65 235t-402 135q-176 30 -267.5 48.5t-79.5 92.5q9 52 80 69t164 17q83 0 145.5 -21.5t40.5 -148.5h457q34 195 -79.5 337.5t-507.5 142.5q-395 0 -567.5 -134t-183.5 -318q-14 -152 70 -242t390 -148
q164 -27 259.5 -46.5t84.5 -83.5q-10 -56 -78 -74t-157 -18q-90 0 -150.5 23.5t-38.5 153.5h-457q-37 -208 75 -345.5t520 -137.5z" />
    <glyph glyph-name="sacute" unicode="&#x15b;" horiz-adv-x="1437" 
d="M626 -9q251 0 457.5 91.5t238.5 305.5q28 184 -89 262t-349 99q-153 16 -249.5 25t-88.5 57q4 33 52 52.5t134 19.5q95 0 159.5 -38.5t82.5 -93.5l420 145q-28 155 -191 217.5t-421 62.5q-260 0 -456 -85t-224 -280q-28 -190 85 -274.5t331 -108.5q161 -18 262 -28.5
t93 -57.5q-6 -36 -59 -56.5t-140 -20.5q-112 0 -178 37t-82 97l-420 -147q34 -152 206.5 -216.5t425.5 -64.5zM567 1228h205l318 245h-304z" />
    <glyph glyph-name="Scircumflex" unicode="&#x15c;" horiz-adv-x="1474" 
d="M623 -7q398 0 562 136t185 327q20 161 -65 235t-402 135q-176 30 -267.5 48.5t-79.5 92.5q9 52 80 69t164 17q83 0 145.5 -21.5t40.5 -148.5h457q34 195 -79.5 337.5t-507.5 142.5q-395 0 -567.5 -134t-183.5 -318q-14 -152 70 -242t390 -148q164 -27 259.5 -46.5
t84.5 -83.5q-10 -56 -78 -74t-157 -18q-90 0 -150.5 23.5t-38.5 153.5h-457q-37 -208 75 -345.5t520 -137.5zM491 1404h252l150 148l98 -148h254l-196 233h-283z" />
    <glyph glyph-name="scircumflex" unicode="&#x15d;" horiz-adv-x="1437" 
d="M626 -9q251 0 457.5 91.5t238.5 305.5q28 184 -89 262t-349 99q-153 16 -249.5 25t-88.5 57q4 33 52 52.5t134 19.5q95 0 159.5 -38.5t82.5 -93.5l420 145q-28 155 -191 217.5t-421 62.5q-260 0 -456 -85t-224 -280q-28 -190 85 -274.5t331 -108.5q161 -18 262 -28.5
t93 -57.5q-6 -36 -59 -56.5t-140 -20.5q-112 0 -178 37t-82 97l-420 -147q34 -152 206.5 -216.5t425.5 -64.5zM432 1239h252l150 148l98 -148h254l-196 233h-283z" />
    <glyph glyph-name="Scedilla" unicode="&#x15e;" horiz-adv-x="1474" 
d="M568 -403q71 0 143 15t134 43.5t103.5 70.5t50.5 95q13 69 -29.5 104.5t-126.5 35.5q-64 0 -116 -18.5t-82 -45.5l-20 -69q10 9 31 16.5t41 7.5q24 0 33.5 -5t6.5 -19q-3 -19 -36.5 -32.5t-97.5 -13.5q-45 0 -85 7t-67 14l-91 -182q52 -11 106.5 -17.5t101.5 -6.5z
M625 -172l95 174h-173l-77 -161zM623 -7q398 0 562 136t185 327q20 161 -65 235t-402 135q-176 30 -267.5 48.5t-79.5 92.5q9 52 80 69t164 17q83 0 145.5 -21.5t40.5 -148.5h457q34 195 -79.5 337.5t-507.5 142.5q-395 0 -567.5 -134t-183.5 -318q-14 -152 70 -242
t390 -148q164 -27 259.5 -46.5t84.5 -83.5q-10 -56 -78 -74t-157 -18q-90 0 -150.5 23.5t-38.5 153.5h-457q-37 -208 75 -345.5t520 -137.5z" />
    <glyph glyph-name="scedilla" unicode="&#x15f;" horiz-adv-x="1437" 
d="M626 -9q251 0 457.5 91.5t238.5 305.5q28 184 -89 262t-349 99q-153 16 -249.5 25t-88.5 57q4 33 52 52.5t134 19.5q95 0 159.5 -38.5t82.5 -93.5l420 145q-28 155 -191 217.5t-421 62.5q-260 0 -456 -85t-224 -280q-28 -190 85 -274.5t331 -108.5q161 -18 262 -28.5
t93 -57.5q-6 -36 -59 -56.5t-140 -20.5q-112 0 -178 37t-82 97l-420 -147q34 -152 206.5 -216.5t425.5 -64.5zM539 -405q71 0 143 15t134 43.5t103.5 70.5t50.5 95q13 69 -29.5 104.5t-126.5 35.5q-64 0 -116 -18.5t-82 -45.5l-20 -69q10 9 31 16.5t41 7.5q24 0 33.5 -5
t6.5 -19q-3 -19 -36.5 -32.5t-97.5 -13.5q-45 0 -85 7t-67 14l-91 -182q52 -11 106.5 -17.5t101.5 -6.5zM596 -174l95 174h-173l-77 -161z" />
    <glyph glyph-name="Scaron" unicode="&#x160;" horiz-adv-x="1473" 
d="M726 1513h283l276 233h-255l-147 -147l-101 147h-251zM623 -7q398 0 562 136t185 327q20 161 -65 235t-402 135q-176 30 -267.5 48.5t-79.5 92.5q9 52 80 69t164 17q83 0 145.5 -21.5t40.5 -148.5h457q34 195 -79.5 337.5t-507.5 142.5q-395 0 -567.5 -134t-183.5 -318
q-14 -152 70 -242t390 -148q164 -27 259.5 -46.5t84.5 -83.5q-10 -56 -78 -74t-157 -18q-90 0 -150.5 23.5t-38.5 153.5h-457q-37 -208 75 -345.5t520 -137.5z" />
    <glyph glyph-name="scaron" unicode="&#x161;" horiz-adv-x="1437" 
d="M626 -9q251 0 457.5 91.5t238.5 305.5q28 184 -89 262t-349 99q-153 16 -249.5 25t-88.5 57q4 33 52 52.5t134 19.5q95 0 159.5 -38.5t82.5 -93.5l420 145q-28 155 -191 217.5t-421 62.5q-260 0 -456 -85t-224 -280q-28 -190 85 -274.5t331 -108.5q161 -18 262 -28.5
t93 -57.5q-6 -36 -59 -56.5t-140 -20.5q-112 0 -178 37t-82 97l-420 -147q34 -152 206.5 -216.5t425.5 -64.5zM667 1229h283l276 233h-255l-147 -147l-101 147h-251z" />
    <glyph glyph-name="uni0162" unicode="&#x162;" horiz-adv-x="1379" 
d="M351 0h457l183 1042h391l55 308h-1240l-55 -308h392zM530 -405q71 0 143 15t134 43.5t103.5 70.5t50.5 95q13 69 -29.5 104.5t-126.5 35.5q-64 0 -116 -18.5t-82 -45.5l-20 -69q10 9 31 16.5t41 7.5q24 0 33.5 -5t6.5 -19q-3 -19 -36.5 -32.5t-97.5 -13.5q-45 0 -85 7
t-67 14l-91 -182q52 -11 106.5 -17.5t101.5 -6.5zM587 -174l95 174h-173l-77 -161z" />
    <glyph glyph-name="uni0163" unicode="&#x163;" horiz-adv-x="1160" 
d="M617 -17q158 0 308 31l52 296q-77 -27 -152 -27q-66 0 -99 25t-18 110l82 460h340l55 308h-341l48 273h-452l-48 -273h-264l-54 -308h264l-99 -556q-33 -189 82 -264t296 -75zM505 -405q71 0 143 15t134 43.5t103.5 70.5t50.5 95q13 69 -29.5 104.5t-126.5 35.5
q-64 0 -116 -18.5t-82 -45.5l-20 -69q10 9 31 16.5t41 7.5q24 0 33.5 -5t6.5 -19q-3 -19 -36.5 -32.5t-97.5 -13.5q-45 0 -85 7t-67 14l-91 -182q52 -11 106.5 -17.5t101.5 -6.5zM562 -174l95 174h-173l-77 -161z" />
    <glyph glyph-name="Tcaron" unicode="&#x164;" horiz-adv-x="1379" 
d="M351 0h457l183 1042h391l55 308h-1240l-55 -308h392zM693 1393h283l276 233h-255l-147 -147l-101 147h-251z" />
    <glyph glyph-name="tcaron" unicode="&#x165;" horiz-adv-x="1373" 
d="M1199 1160h206l124 301h-228zM617 -17q158 0 308 31l52 296q-77 -27 -152 -27q-66 0 -99 25t-18 110l82 460h340l55 308h-341l48 273h-452l-48 -273h-264l-54 -308h264l-99 -556q-33 -189 82 -264t296 -75z" />
    <glyph glyph-name="Tbar" unicode="&#x166;" horiz-adv-x="1379" 
d="M173 598h1059l47 264h-1058zM351 0h457l183 1042h391l55 308h-1240l-55 -308h392z" />
    <glyph glyph-name="tbar" unicode="&#x167;" horiz-adv-x="1134" 
d="M85 466h832l41 237h-832zM617 -17q158 0 308 31l52 296q-77 -27 -152 -27q-66 0 -99 25t-18 110l82 460h340l55 308h-341l48 273h-452l-48 -273h-264l-54 -308h264l-99 -556q-33 -189 82 -264t296 -75z" />
    <glyph glyph-name="Utilde" unicode="&#x168;" horiz-adv-x="1509" 
d="M639 -7q346 0 531 110.5t231 369.5l154 877h-457l-146 -830q-21 -121 -74 -170t-184 -49q-130 0 -165.5 49.5t-14.5 169.5l146 830h-457l-154 -877q-46 -259 99.5 -369.5t490.5 -110.5zM1048 1400q85 0 142 29.5t91 72.5t51.5 85.5t22.5 68.5h-213q-3 -15 -14.5 -35
t-31.5 -34t-47 -14q-29 0 -52.5 13.5t-49 32t-59.5 32t-85 13.5q-88 0 -147 -28.5t-93 -71t-50.5 -84t-22.5 -68.5h215q4 15 13.5 35t29 34t51.5 14q29 0 52.5 -14.5t50 -33t61 -33t85.5 -14.5z" />
    <glyph glyph-name="utilde" unicode="&#x169;" horiz-adv-x="1426" 
d="M860 0h345l209 1186h-451l-178 -1006zM603 1186h-451l-107 -609q-46 -261 13 -423.5t313 -162.5q293 0 478.5 173t214.5 339l-206 78q-23 -134 -100.5 -208t-165.5 -74q-78 0 -102 55.5t10 246.5zM962 1236q85 0 142 29.5t91 72.5t51.5 85.5t22.5 68.5h-213
q-3 -15 -14.5 -35t-31.5 -34t-47 -14q-29 0 -52.5 13.5t-49 32t-59.5 32t-85 13.5q-88 0 -147 -28.5t-93 -71t-50.5 -84t-22.5 -68.5h215q4 15 13.5 35t29 34t51.5 14q29 0 52.5 -14.5t50 -33t61 -33t85.5 -14.5z" />
    <glyph glyph-name="Umacron" unicode="&#x16a;" horiz-adv-x="1509" 
d="M639 -7q346 0 531 110.5t231 369.5l154 877h-457l-146 -830q-21 -121 -74 -170t-184 -49q-130 0 -165.5 49.5t-14.5 169.5l146 830h-457l-154 -877q-46 -259 99.5 -369.5t490.5 -110.5zM526 1437h762l29 161h-762z" />
    <glyph glyph-name="umacron" unicode="&#x16b;" horiz-adv-x="1426" 
d="M860 0h345l209 1186h-451l-178 -1006zM603 1186h-451l-107 -609q-46 -261 13 -423.5t313 -162.5q293 0 478.5 173t214.5 339l-206 78q-23 -134 -100.5 -208t-165.5 -74q-78 0 -102 55.5t10 246.5zM439 1273h762l29 161h-762z" />
    <glyph glyph-name="Ubreve" unicode="&#x16c;" horiz-adv-x="1509" 
d="M639 -7q346 0 531 110.5t231 369.5l154 877h-457l-146 -830q-21 -121 -74 -170t-184 -49q-130 0 -165.5 49.5t-14.5 169.5l146 830h-457l-154 -877q-46 -259 99.5 -369.5t490.5 -110.5zM903 1409q93 0 164.5 31t117 82.5t55.5 114.5h-207q-5 -28 -17 -47t-33.5 -28
t-54.5 -9q-29 0 -47.5 9t-25.5 27.5t-2 47.5h-208q-10 -63 17 -114.5t88.5 -82.5t152.5 -31z" />
    <glyph glyph-name="ubreve" unicode="&#x16d;" horiz-adv-x="1426" 
d="M860 0h345l209 1186h-451l-178 -1006zM603 1186h-451l-107 -609q-46 -261 13 -423.5t313 -162.5q293 0 478.5 173t214.5 339l-206 78q-23 -134 -100.5 -208t-165.5 -74q-78 0 -102 55.5t10 246.5zM817 1245q93 0 164.5 31t117 82.5t55.5 114.5h-207q-5 -28 -17 -47
t-33.5 -28t-54.5 -9q-29 0 -47.5 9t-25.5 27.5t-2 47.5h-208q-10 -63 17 -114.5t88.5 -82.5t152.5 -31z" />
    <glyph glyph-name="Uring" unicode="&#x16e;" horiz-adv-x="1509" 
d="M639 -7q346 0 531 110.5t231 369.5l154 877h-457l-146 -830q-21 -121 -74 -170t-184 -49q-130 0 -165.5 49.5t-14.5 169.5l146 830h-457l-154 -877q-46 -259 99.5 -369.5t490.5 -110.5zM904 1394q58 0 108.5 27.5t84.5 74t43 104.5q16 88 -34.5 146.5t-137.5 58.5
q-58 0 -108 -26.5t-83.5 -73t-44.5 -105.5q-15 -87 35 -146.5t137 -59.5zM927 1548q-19 0 -31 15.5t-9 36.5q5 22 22 36t36 14q21 0 33 -14t7 -36q-3 -21 -20 -36.5t-38 -15.5z" />
    <glyph glyph-name="uring" unicode="&#x16f;" horiz-adv-x="1426" 
d="M860 0h345l209 1186h-451l-178 -1006zM603 1186h-451l-107 -609q-46 -261 13 -423.5t313 -162.5q293 0 478.5 173t214.5 339l-206 78q-23 -134 -100.5 -208t-165.5 -74q-78 0 -102 55.5t10 246.5zM817 1230q58 0 108.5 27.5t84.5 74t43 104.5q16 88 -34.5 146.5
t-137.5 58.5q-58 0 -108 -26.5t-83.5 -73t-44.5 -105.5q-15 -87 35 -146.5t137 -59.5zM840 1384q-19 0 -31 15.5t-9 36.5q5 22 22 36t36 14q21 0 33 -14t7 -36q-3 -21 -20 -36.5t-38 -15.5z" />
    <glyph glyph-name="Uhungarumlaut" unicode="&#x170;" horiz-adv-x="1509" 
d="M639 -7q346 0 531 110.5t231 369.5l154 877h-457l-146 -830q-21 -121 -74 -170t-184 -49q-130 0 -165.5 49.5t-14.5 169.5l146 830h-457l-154 -877q-46 -259 99.5 -369.5t490.5 -110.5zM758 1416h201l278 221h-267zM611 1416h200l269 221h-260z" />
    <glyph glyph-name="uhungarumlaut" unicode="&#x171;" horiz-adv-x="1426" 
d="M860 0h345l209 1186h-451l-178 -1006zM603 1186h-451l-107 -609q-46 -261 13 -423.5t313 -162.5q293 0 478.5 173t214.5 339l-206 78q-23 -134 -100.5 -208t-165.5 -74q-78 0 -102 55.5t10 246.5zM671 1252h201l278 221h-267zM524 1252h200l269 221h-260z" />
    <glyph glyph-name="Uogonek" unicode="&#x172;" horiz-adv-x="1509" 
d="M639 -7q346 0 531 110.5t231 369.5l154 877h-457l-146 -830q-21 -121 -74 -170t-184 -49q-130 0 -165.5 49.5t-14.5 169.5l146 830h-457l-154 -877q-46 -259 99.5 -369.5t490.5 -110.5zM528 -420q58 0 111.5 5.5t92.5 13t50 11.5l39 216q-13 -5 -45 -13t-70.5 -13.5
t-73.5 -5.5q-36 0 -52.5 12t-16.5 31q0 21 16 52.5t37.5 62.5t37.5 48h-215q-34 -31 -68 -76t-56 -96.5t-22 -102.5q0 -56 33.5 -87.5t87.5 -44.5t114 -13z" />
    <glyph glyph-name="uogonek" unicode="&#x173;" horiz-adv-x="1426" 
d="M860 0h345l209 1186h-451l-178 -1006zM603 1186h-451l-107 -609q-46 -261 13 -423.5t313 -162.5q293 0 478.5 173t214.5 339l-206 78q-23 -134 -100.5 -208t-165.5 -74q-78 0 -102 55.5t10 246.5zM1079 -420q58 0 111.5 5.5t92.5 13t50 11.5l39 216q-13 -5 -45 -13
t-70.5 -13.5t-73.5 -5.5q-36 0 -52.5 12t-16.5 31q0 21 16 52.5t37.5 62.5t37.5 48h-215q-34 -31 -68 -76t-56 -96.5t-22 -102.5q0 -56 33.5 -87.5t87.5 -44.5t114 -13z" />
    <glyph glyph-name="Wcircumflex" unicode="&#x174;" horiz-adv-x="2219" 
d="M147 0h694l328 1042h3l-43 -1042h696l476 1350h-500l-299 -1020h-3l15 1020h-595l-344 -1019h-3l68 1019h-484zM865 1403h252l150 148l98 -148h254l-196 233h-283z" />
    <glyph glyph-name="wcircumflex" unicode="&#x175;" horiz-adv-x="2098" 
d="M196 0h601l268 734l10 -734h596l475 1186h-472l-269 -889h-3l-36 889h-447l-355 -892h-3l40 892h-462zM784 1239h252l150 148l98 -148h254l-196 233h-283z" />
    <glyph glyph-name="Ycircumflex" unicode="&#x176;" horiz-adv-x="1539" 
d="M427 0h456l84 479l694 871h-499l-364 -520h-3l-184 520h-489l388 -873zM539 1403h252l150 148l98 -148h254l-196 233h-283z" />
    <glyph glyph-name="ycircumflex" unicode="&#x177;" horiz-adv-x="1393" 
d="M244 0h690l531 1186h-472l-353 -894h-2l-41 894h-471zM-47 -469q377 0 607.5 82t373.5 387l-418 1q-49 -111 -160.5 -139t-349.5 -28zM435 1239h252l150 148l98 -148h254l-196 233h-283z" />
    <glyph glyph-name="Ydieresis" unicode="&#x178;" horiz-adv-x="1539" 
d="M427 0h456l84 479l694 871h-499l-364 -520h-3l-184 520h-489l388 -873zM679 1406q50 0 91.5 39t41.5 92q0 43 -28.5 72t-71.5 29q-52 0 -93 -39t-41 -92q0 -43 28 -72t73 -29zM1148 1406q52 0 92.5 39t40.5 92q0 43 -27.5 72t-72.5 29q-51 0 -92 -39t-41 -92
q0 -43 28.5 -72t71.5 -29z" />
    <glyph glyph-name="Zacute" unicode="&#x179;" horiz-adv-x="1252" 
d="M-55 0h1115l54 307h-608l727 736l55 307h-1090l-53 -305h583l-727 -728zM537 1392h205l318 245h-304z" />
    <glyph glyph-name="zacute" unicode="&#x17a;" horiz-adv-x="1192" 
d="M-35 0h1045l54 306h-504l1 2l596 579l53 299h-1036l-54 -306h512l-1 -1l-612 -578zM466 1228h205l318 245h-304z" />
    <glyph glyph-name="Zdotaccent" unicode="&#x17b;" horiz-adv-x="1252" 
d="M-55 0h1115l54 307h-608l727 736l55 307h-1090l-53 -305h583l-727 -728zM802 1392q51 0 86.5 35.5t35.5 85.5t-35.5 85.5t-85.5 35.5t-85.5 -35.5t-35.5 -85.5t35 -85.5t85 -35.5z" />
    <glyph glyph-name="zdotaccent" unicode="&#x17c;" horiz-adv-x="1192" 
d="M-35 0h1045l54 306h-504l1 2l596 579l53 299h-1036l-54 -306h512l-1 -1l-612 -578zM730 1228q51 0 86.5 35.5t35.5 85.5t-35.5 85.5t-85.5 35.5t-85.5 -35.5t-35.5 -85.5t35 -85.5t85 -35.5z" />
    <glyph glyph-name="Zcaron" unicode="&#x17d;" horiz-adv-x="1252" 
d="M-55 0h1115l54 307h-608l727 736l55 307h-1090l-53 -305h583l-727 -728zM638 1393h283l276 233h-255l-147 -147l-101 147h-251z" />
    <glyph glyph-name="zcaron" unicode="&#x17e;" horiz-adv-x="1192" 
d="M-35 0h1045l54 306h-504l1 2l596 579l53 299h-1036l-54 -306h512l-1 -1l-612 -578zM566 1229h283l276 233h-255l-147 -147l-101 147h-251z" />
    <glyph glyph-name="uni018F" unicode="&#x18f;" horiz-adv-x="1434" 
d="M601 -11v0q379 0 555 171q175 171 237 521q63 355 -54 519q-118 164 -504 164l-53 -291q128 0 176 -59q47 -59 -2 -338q-52 -295 -122 -347q-69 -52 -184 -52q-93 0 -149 44q-47 39 -24 217h492l49 274h-932q-19 -57 -33 -136q-60 -337 49 -511q108 -176 499 -176z
M550 943v0q16 32 41 56.5t57 40.5t66 24.5t68 8.5l58 172l-5 119q-89 0 -174 -10t-161.5 -31t-141 -54.5t-112.5 -80.5t-74 -108z" />
    <glyph glyph-name="florin" unicode="&#x192;" horiz-adv-x="1147" 
d="M-457 -441h221q183 0 325 37t238 118.5t141 211.5l312 954h348l104 306h-348l5 14q19 52 61.5 69t101.5 17h214l97 284h-218q-182 0 -323.5 -37t-238 -117.5t-142.5 -211.5l-6 -18h-246l-102 -306h242l-309 -950q-18 -51 -61 -69t-102 -18h-214z" />
    <glyph glyph-name="Ohorn" unicode="&#x1a0;" horiz-adv-x="1498" 
d="M634 -12q410 0 592 181t230 506q47 326 -61.5 507t-518.5 181t-592.5 -180.5t-230.5 -507.5q-47 -324 61.5 -505.5t519.5 -181.5zM688 296q-115 0 -168.5 53.5t-11.5 325.5q44 278 121.5 329t192.5 51q114 0 168.5 -51t10.5 -329q-44 -272 -121.5 -325.5t-191.5 -53.5z
M1337 1206l-24 -143q150 0 268 37.5t193 112t94 186.5h-253q-12 -69 -45 -111.5t-89.5 -62t-143.5 -19.5z" />
    <glyph glyph-name="ohorn" unicode="&#x1a1;" horiz-adv-x="1452" 
d="M615 -9q376 0 554.5 164t219.5 444q39 274 -78 437.5t-493 163.5q-377 0 -556 -160.5t-219 -440.5q-39 -274 78 -441t494 -167zM663 294q-97 0 -147 55.5t-22 247.5q29 190 103.5 245t171.5 55q98 0 147.5 -54.5t21.5 -245.5q-29 -191 -103.5 -247t-171.5 -56zM1250 1055
l-24 -143q150 0 268 37.5t193 112t94 186.5h-253q-12 -69 -45 -111.5t-89.5 -62t-143.5 -19.5z" />
    <glyph glyph-name="Uhorn" unicode="&#x1af;" horiz-adv-x="1509" 
d="M639 -7q346 0 531 110.5t231 369.5l154 877h-457l-146 -830q-21 -121 -74 -170t-184 -49q-130 0 -165.5 49.5t-14.5 169.5l146 830h-457l-154 -877q-46 -259 99.5 -369.5t490.5 -110.5zM1524 1223l-24 -143q150 0 268 37.5t193 112t94 186.5h-253q-12 -69 -45 -111.5
t-89.5 -62t-143.5 -19.5z" />
    <glyph glyph-name="uhorn" unicode="&#x1b0;" horiz-adv-x="1426" 
d="M860 0h345l209 1186h-451l-178 -1006zM603 1186h-451l-107 -609q-46 -261 13 -423.5t313 -162.5q293 0 478.5 173t214.5 339l-206 78q-23 -134 -100.5 -208t-165.5 -74q-78 0 -102 55.5t10 246.5zM1413 1186l-24 -143q150 0 268 37.5t193 112t94 186.5h-253
q-12 -69 -45 -111.5t-89.5 -62t-143.5 -19.5z" />
    <glyph glyph-name="uni01C4" unicode="&#x1c4;" horiz-adv-x="2718" 
d="M-23 0h810q304 0 443 154t195 522q54 362 -31.5 518t-388.5 156h-790zM487 308l129 734h220q104 0 142 -48.5t-9 -317.5q-48 -270 -103 -319t-159 -49h-220zM1412 0h1115l54 307h-608l727 736l55 307h-1090l-53 -305h583l-727 -728zM2104 1393h283l276 233h-255
l-147 -147l-101 147h-251z" />
    <glyph glyph-name="uni01C5" unicode="&#x1c5;" horiz-adv-x="2659" 
d="M-23 0h810q304 0 443 154t195 522q54 362 -31.5 518t-388.5 156h-790zM487 308l129 734h220q104 0 142 -48.5t-9 -317.5q-48 -270 -103 -319t-159 -49h-220zM1432 0h1045l54 306h-504l1 2l596 579l53 299h-1036l-54 -306h512l-1 -1l-612 -578zM2032 1229h283l276 233
h-255l-147 -147l-101 147h-251z" />
    <glyph glyph-name="uni01C6" unicode="&#x1c6;" horiz-adv-x="2646" 
d="M828 0h420l276 1570h-450l-247 -1408zM427 -7q229 0 417.5 98.5t212.5 230.5l-169 182q-17 -95 -91.5 -150.5t-160.5 -55.5q-95 0 -130.5 54t-8.5 242q29 185 88.5 239.5t154.5 54.5q86 0 141 -55t39 -148l232 179q24 132 -132.5 231.5t-385.5 99.5q-274 0 -424.5 -184
t-169.5 -463q-19 -226 56.5 -390.5t330.5 -164.5zM1419 0h1045l54 306h-504l1 2l596 579l53 299h-1036l-54 -306h512l-1 -1l-612 -578zM2019 1229h283l276 233h-255l-147 -147l-101 147h-251z" />
    <glyph glyph-name="uni01C7" unicode="&#x1c7;" horiz-adv-x="2579" 
d="M-23 0h967l54 306h-511l185 1044h-457zM1722 -11q329 0 505.5 103.5t211.5 300.5l169 957h-455l-157 -891q-15 -83 -64.5 -124.5t-167.5 -41.5t-150.5 46.5t-14.5 131.5l24 134h-456l-33 -186q-43 -218 110.5 -324t477.5 -106z" />
    <glyph glyph-name="uni01C8" unicode="&#x1c8;" horiz-adv-x="1814" 
d="M-23 0h967l54 306h-511l185 1044h-457zM803 -460q350 0 552 112t261 453l192 1081h-451l-194 -1099q-26 -150 -102 -193.5t-202 -43.5zM1424 1570l-50 -283h452l50 283h-452z" />
    <glyph glyph-name="uni01C9" unicode="&#x1c9;" horiz-adv-x="1353" 
d="M-9 0h453l276 1570h-452zM343 -460q350 0 552 112t261 453l192 1081h-451l-194 -1099q-26 -150 -102 -193.5t-202 -43.5zM964 1570l-50 -283h452l50 283h-452z" />
    <glyph glyph-name="uni01CA" unicode="&#x1ca;" horiz-adv-x="3194" 
d="M-23 0h454l181 1029h3l212 -1029h708l238 1350h-455l-181 -1005h-4l-205 1005h-713zM2336 -11q329 0 505.5 103.5t211.5 300.5l169 957h-455l-157 -891q-15 -83 -64.5 -124.5t-167.5 -41.5t-150.5 46.5t-14.5 131.5l24 134h-456l-33 -186q-43 -218 110.5 -324t477.5 -106
z" />
    <glyph glyph-name="uni01CB" unicode="&#x1cb;" horiz-adv-x="2427" 
d="M-23 0h454l181 1029h3l212 -1029h708l238 1350h-455l-181 -1005h-4l-205 1005h-713zM1417 -460q350 0 552 112t261 453l192 1081h-451l-194 -1099q-26 -150 -102 -193.5t-202 -43.5zM2038 1570l-50 -283h452l50 283h-452z" />
    <glyph glyph-name="uni01CC" unicode="&#x1cc;" horiz-adv-x="2117" 
d="M-26 0h451l177 1011l-72 175h-347zM772 0h451l104 595q46 262 -14 431t-309 169q-271 0 -467.5 -172.5t-226.5 -339.5l204 -86q24 133 100 211.5t163 78.5q78 0 105 -55.5t-7 -245.5zM1107 -460q350 0 552 112t261 453l192 1081h-451l-194 -1099q-26 -150 -102 -193.5
t-202 -43.5zM1728 1570l-50 -283h452l50 283h-452z" />
    <glyph glyph-name="uni01CD" unicode="&#x1cd;" horiz-adv-x="1574" 
d="M-51 0h469l120 289h392l17 -289h470l-176 1351h-643zM663 587l210 499h4l33 -499h-247zM800 1393h283l276 233h-255l-147 -147l-101 147h-251z" />
    <glyph glyph-name="uni01CE" unicode="&#x1ce;" horiz-adv-x="1457" 
d="M437 -14q70 0 136 11t123 30t100 43.5t67 52.5l18 -123h375l129 727q31 173 -27.5 276t-198.5 149t-354 46q-112 0 -218 -16t-198.5 -51t-163 -94t-111.5 -145l419 -125q24 52 62 80.5t82 39.5t87 11q62 0 103 -12.5t58.5 -44.5t9.5 -89l-5 -27h-363q-76 0 -153.5 -9.5
t-147.5 -34t-126 -67t-91.5 -109t-43.5 -159.5q-15 -137 29.5 -215.5t146 -111.5t256.5 -33zM587 272q-46 0 -75 9t-40 32t-6 66q4 34 16.5 55t33 31.5t49.5 14.5t67 4h249l-22 -128q-26 -25 -71 -44t-98 -29.5t-103 -10.5zM693 1229h283l276 233h-255l-147 -147l-101 147
h-251z" />
    <glyph glyph-name="uni01CF" unicode="&#x1cf;" horiz-adv-x="700" 
d="M5 0h455l238 1350h-454zM357 1393h283l276 233h-255l-147 -147l-101 147h-251z" />
    <glyph glyph-name="uni01D0" unicode="&#x1d0;" horiz-adv-x="648" 
d="M-34 0h454l209 1186h-454zM270 1229h283l276 233h-255l-147 -147l-101 147h-251z" />
    <glyph glyph-name="uni01D1" unicode="&#x1d1;" horiz-adv-x="1498" 
d="M634 -12q410 0 592 181t230 506q47 326 -61.5 507t-518.5 181t-592.5 -180.5t-230.5 -507.5q-47 -324 61.5 -505.5t519.5 -181.5zM688 296q-115 0 -168.5 53.5t-11.5 325.5q44 278 121.5 329t192.5 51q114 0 168.5 -51t10.5 -329q-44 -272 -121.5 -325.5t-191.5 -53.5z
M740 1393h283l276 233h-255l-147 -147l-101 147h-251z" />
    <glyph glyph-name="uni01D2" unicode="&#x1d2;" horiz-adv-x="1452" 
d="M615 -9q376 0 554.5 164t219.5 444q39 274 -78 437.5t-493 163.5q-377 0 -556 -160.5t-219 -440.5q-39 -274 78 -441t494 -167zM663 294q-97 0 -147 55.5t-22 247.5q29 190 103.5 245t171.5 55q98 0 147.5 -54.5t21.5 -245.5q-29 -191 -103.5 -247t-171.5 -56zM686 1229
h283l276 233h-255l-147 -147l-101 147h-251z" />
    <glyph glyph-name="uni01D3" unicode="&#x1d3;" horiz-adv-x="1509" 
d="M639 -7q346 0 531 110.5t231 369.5l154 877h-457l-146 -830q-21 -121 -74 -170t-184 -49q-130 0 -165.5 49.5t-14.5 169.5l146 830h-457l-154 -877q-46 -259 99.5 -369.5t490.5 -110.5zM760 1393h283l276 233h-255l-147 -147l-101 147h-251z" />
    <glyph glyph-name="uni01D4" unicode="&#x1d4;" horiz-adv-x="1426" 
d="M860 0h345l209 1186h-451l-178 -1006zM603 1186h-451l-107 -609q-46 -261 13 -423.5t313 -162.5q293 0 478.5 173t214.5 339l-206 78q-23 -134 -100.5 -208t-165.5 -74q-78 0 -102 55.5t10 246.5zM673 1229h283l276 233h-255l-147 -147l-101 147h-251z" />
    <glyph glyph-name="uni01D5" unicode="&#x1d5;" horiz-adv-x="1509" 
d="M639 -7q346 0 531 110.5t231 369.5l154 877h-457l-146 -830q-21 -121 -74 -170t-184 -49q-130 0 -165.5 49.5t-14.5 169.5l146 830h-457l-154 -877q-46 -259 99.5 -369.5t490.5 -110.5zM663 1406q50 0 91.5 39t41.5 92q0 43 -28.5 72t-71.5 29q-52 0 -93 -39t-41 -92
q0 -43 28 -72t73 -29zM1132 1406q52 0 92.5 39t40.5 92q0 43 -27.5 72t-72.5 29q-51 0 -92 -39t-41 -92q0 -43 28.5 -72t71.5 -29zM559 1732h762l29 161h-762z" />
    <glyph glyph-name="uni01D6" unicode="&#x1d6;" horiz-adv-x="1426" 
d="M860 0h345l209 1186h-451l-178 -1006zM603 1186h-451l-107 -609q-46 -261 13 -423.5t313 -162.5q293 0 478.5 173t214.5 339l-206 78q-23 -134 -100.5 -208t-165.5 -74q-78 0 -102 55.5t10 246.5zM577 1242q50 0 91.5 39t41.5 92q0 43 -28.5 72t-71.5 29q-52 0 -93 -39
t-41 -92q0 -43 28 -72t73 -29zM1046 1242q52 0 92.5 39t40.5 92q0 43 -27.5 72t-72.5 29q-51 0 -92 -39t-41 -92q0 -43 28.5 -72t71.5 -29zM482 1563h762l29 161h-762z" />
    <glyph glyph-name="uni01D7" unicode="&#x1d7;" horiz-adv-x="1509" 
d="M639 -7q346 0 531 110.5t231 369.5l154 877h-457l-146 -830q-21 -121 -74 -170t-184 -49q-130 0 -165.5 49.5t-14.5 169.5l146 830h-457l-154 -877q-46 -259 99.5 -369.5t490.5 -110.5zM663 1406q50 0 91.5 39t41.5 92q0 43 -28.5 72t-71.5 29q-52 0 -93 -39t-41 -92
q0 -43 28 -72t73 -29zM1132 1406q52 0 92.5 39t40.5 92q0 43 -27.5 72t-72.5 29q-51 0 -92 -39t-41 -92q0 -43 28.5 -72t71.5 -29zM728 1714h205l318 245h-304z" />
    <glyph glyph-name="uni01D8" unicode="&#x1d8;" horiz-adv-x="1426" 
d="M860 0h345l209 1186h-451l-178 -1006zM603 1186h-451l-107 -609q-46 -261 13 -423.5t313 -162.5q293 0 478.5 173t214.5 339l-206 78q-23 -134 -100.5 -208t-165.5 -74q-78 0 -102 55.5t10 246.5zM577 1242q50 0 91.5 39t41.5 92q0 43 -28.5 72t-71.5 29q-52 0 -93 -39
t-41 -92q0 -43 28 -72t73 -29zM1046 1242q52 0 92.5 39t40.5 92q0 43 -27.5 72t-72.5 29q-51 0 -92 -39t-41 -92q0 -43 28.5 -72t71.5 -29zM692 1472h205l318 245h-304z" />
    <glyph glyph-name="uni01D9" unicode="&#x1d9;" horiz-adv-x="1509" 
d="M639 -7q346 0 531 110.5t231 369.5l154 877h-457l-146 -830q-21 -121 -74 -170t-184 -49q-130 0 -165.5 49.5t-14.5 169.5l146 830h-457l-154 -877q-46 -259 99.5 -369.5t490.5 -110.5zM663 1406q50 0 91.5 39t41.5 92q0 43 -28.5 72t-71.5 29q-52 0 -93 -39t-41 -92
q0 -43 28 -72t73 -29zM1132 1406q52 0 92.5 39t40.5 92q0 43 -27.5 72t-72.5 29q-51 0 -92 -39t-41 -92q0 -43 28.5 -72t71.5 -29zM784 1722h283l276 233h-255l-147 -147l-101 147h-251z" />
    <glyph glyph-name="uni01DA" unicode="&#x1da;" horiz-adv-x="1426" 
d="M860 0h345l209 1186h-451l-178 -1006zM603 1186h-451l-107 -609q-46 -261 13 -423.5t313 -162.5q293 0 478.5 173t214.5 339l-206 78q-23 -134 -100.5 -208t-165.5 -74q-78 0 -102 55.5t10 246.5zM577 1242q50 0 91.5 39t41.5 92q0 43 -28.5 72t-71.5 29q-52 0 -93 -39
t-41 -92q0 -43 28 -72t73 -29zM1046 1242q52 0 92.5 39t40.5 92q0 43 -27.5 72t-72.5 29q-51 0 -92 -39t-41 -92q0 -43 28.5 -72t71.5 -29zM715 1519h283l276 233h-255l-147 -147l-101 147h-251z" />
    <glyph glyph-name="uni01DB" unicode="&#x1db;" horiz-adv-x="1509" 
d="M639 -7q346 0 531 110.5t231 369.5l154 877h-457l-146 -830q-21 -121 -74 -170t-184 -49q-130 0 -165.5 49.5t-14.5 169.5l146 830h-457l-154 -877q-46 -259 99.5 -369.5t490.5 -110.5zM663 1406q50 0 91.5 39t41.5 92q0 43 -28.5 72t-71.5 29q-52 0 -93 -39t-41 -92
q0 -43 28 -72t73 -29zM1132 1406q52 0 92.5 39t40.5 92q0 43 -27.5 72t-72.5 29q-51 0 -92 -39t-41 -92q0 -43 28.5 -72t71.5 -29zM906 1711h195l-134 245h-293z" />
    <glyph glyph-name="uni01DC" unicode="&#x1dc;" horiz-adv-x="1426" 
d="M860 0h345l209 1186h-451l-178 -1006zM603 1186h-451l-107 -609q-46 -261 13 -423.5t313 -162.5q293 0 478.5 173t214.5 339l-206 78q-23 -134 -100.5 -208t-165.5 -74q-78 0 -102 55.5t10 246.5zM577 1242q50 0 91.5 39t41.5 92q0 43 -28.5 72t-71.5 29q-52 0 -93 -39
t-41 -92q0 -43 28 -72t73 -29zM1046 1242q52 0 92.5 39t40.5 92q0 43 -27.5 72t-72.5 29q-51 0 -92 -39t-41 -92q0 -43 28.5 -72t71.5 -29zM791 1478h195l-134 245h-293z" />
    <glyph glyph-name="Gcaron" unicode="&#x1e6;" horiz-adv-x="1495" 
d="M587 -8q298 0 421 145l28 -137h255l129 739h-644l-46 -266h177l-2 -6q-30 -104 -77 -136t-148 -32q-109 0 -157.5 68t-11.5 298q48 286 120.5 338.5t178.5 52.5q100 0 143 -30.5t31 -166.5h457q23 186 -93.5 345t-493.5 159q-408 0 -580.5 -179t-219.5 -504
q-45 -318 55 -503t478 -185zM750 1393h283l276 233h-255l-147 -147l-101 147h-251z" />
    <glyph glyph-name="gcaron" unicode="&#x1e7;" horiz-adv-x="1468" 
d="M500 -473q211 0 353.5 48.5t259 171.5t155.5 343l194 1096h-328l-165 -226l-162 -918q-28 -165 -90.5 -198t-150.5 -33q-52 0 -91.5 14.5t-59.5 49.5t-17 83h-440q-16 -237 147 -334t395 -97zM428 -7q229 0 418 98.5t212 230.5l-170 182q-16 -95 -90.5 -150.5
t-160.5 -55.5q-95 0 -133 54.5t-5 241.5q33 185 90 239.5t152 54.5q86 0 141 -55t39 -148l231 169q23 132 -132.5 236.5t-384.5 104.5q-265 0 -410 -167.5t-182 -431.5q-37 -263 41.5 -433t343.5 -170zM695 1229h283l276 233h-255l-147 -147l-101 147h-251z" />
    <glyph glyph-name="uni01EA" unicode="&#x1ea;" horiz-adv-x="1498" 
d="M634 -12q410 0 592 181t230 506q47 326 -61.5 507t-518.5 181t-592.5 -180.5t-230.5 -507.5q-47 -324 61.5 -505.5t519.5 -181.5zM688 296q-115 0 -168.5 53.5t-11.5 325.5q44 278 121.5 329t192.5 51q114 0 168.5 -51t10.5 -329q-44 -272 -121.5 -325.5t-191.5 -53.5z
M1005 -337q58 0 111.5 5.5t92.5 13t50 11.5l39 216q-13 -5 -45 -13t-70.5 -13.5t-73.5 -5.5q-36 0 -52.5 12t-16.5 31q0 21 16 52.5t37.5 62.5t37.5 48h-215q-34 -31 -68 -76t-56 -96.5t-22 -102.5q0 -56 33.5 -87.5t87.5 -44.5t114 -13z" />
    <glyph glyph-name="uni01EB" unicode="&#x1eb;" horiz-adv-x="1452" 
d="M615 -9q376 0 554.5 164t219.5 444q39 274 -78 437.5t-493 163.5q-377 0 -556 -160.5t-219 -440.5q-39 -274 78 -441t494 -167zM663 294q-97 0 -147 55.5t-22 247.5q29 190 103.5 245t171.5 55q98 0 147.5 -54.5t21.5 -245.5q-29 -191 -103.5 -247t-171.5 -56zM485 -420
q58 0 111.5 5.5t92.5 13t50 11.5l39 216q-13 -5 -45 -13t-70.5 -13.5t-73.5 -5.5q-36 0 -52.5 12t-16.5 31q0 21 16 52.5t37.5 62.5t37.5 48h-215q-34 -31 -68 -76t-56 -96.5t-22 -102.5q0 -56 33.5 -87.5t87.5 -44.5t114 -13z" />
    <glyph glyph-name="Aringacute" unicode="&#x1fa;" horiz-adv-x="1574" 
d="M-51 0h469l120 289h392l17 -289h470l-176 1351h-643zM663 587l210 499h4l33 -499h-247zM934 1367q58 0 108.5 27.5t84.5 74t43 104.5q16 88 -34.5 146.5t-137.5 58.5q-58 0 -108 -26.5t-83.5 -73t-44.5 -105.5q-15 -87 35 -146.5t137 -59.5zM957 1521q-19 0 -31 15.5
t-9 36.5q5 22 22 36t36 14q21 0 33 -14t7 -36q-3 -21 -20 -36.5t-38 -15.5zM770 1820h205l318 245h-304z" />
    <glyph glyph-name="aringacute" unicode="&#x1fb;" horiz-adv-x="1457" 
d="M437 -14q70 0 136 11t123 30t100 43.5t67 52.5l18 -123h375l129 727q31 173 -27.5 276t-198.5 149t-354 46q-112 0 -218 -16t-198.5 -51t-163 -94t-111.5 -145l419 -125q24 52 62 80.5t82 39.5t87 11q62 0 103 -12.5t58.5 -44.5t9.5 -89l-5 -27h-363q-76 0 -153.5 -9.5
t-147.5 -34t-126 -67t-91.5 -109t-43.5 -159.5q-15 -137 29.5 -215.5t146 -111.5t256.5 -33zM587 272q-46 0 -75 9t-40 32t-6 66q4 34 16.5 55t33 31.5t49.5 14.5t67 4h249l-22 -128q-26 -25 -71 -44t-98 -29.5t-103 -10.5zM838 1230q58 0 108.5 27.5t84.5 74t43 104.5
q16 88 -34.5 146.5t-137.5 58.5q-58 0 -108 -26.5t-83.5 -73t-44.5 -105.5q-15 -87 35 -146.5t137 -59.5zM861 1384q-19 0 -31 15.5t-9 36.5q5 22 22 36t36 14q21 0 33 -14t7 -36q-3 -21 -20 -36.5t-38 -15.5zM673 1683h205l318 245h-304z" />
    <glyph glyph-name="AEacute" unicode="&#x1fc;" horiz-adv-x="2167" 
d="M-51 0h479l739 1189l31 161h-393zM358 227h676l53 299h-589zM910 0h1067l54 308h-609l39 224h560l52 293h-560l38 217h609l55 308h-1067zM980 1392h205l318 245h-304z" />
    <glyph glyph-name="aeacute" unicode="&#x1fd;" horiz-adv-x="2310" 
d="M1262 217l85 483q40 229 -66 363t-455 134q-346 0 -476.5 -100.5t-212.5 -228.5l409 -127q54 120 104.5 145.5t128.5 25.5q88 0 132.5 -36t27.5 -137l-84 -480l63 -24zM455 -14q290 0 453 84.5t209 256.5l-224 136q-22 -119 -87 -162.5t-176 -43.5q-112 0 -138 28t-20 65
q9 48 51 70.5t153 22.5h227l45 252h-382q-217 0 -371.5 -67.5t-190.5 -276.5q-34 -191 89.5 -278t361.5 -87zM1487 -12l51 288q-108 0 -166 54q-58 52 -21 261q36 205 112 263q75 57 179 57t154 -49q28 -36 25 -133h-484l-47 -269h932q19 58 32 131q46 267 -62 438
q-109 170 -500 170q-380 0 -554 -167q-175 -166 -223 -440q-48 -275 68 -440q117 -164 504 -164zM1538 276l-51 -288q202 0 316 31q113 30 209 91q94 59 139 172l-382 116q-32 -43 -61 -71q-29 -27 -66 -39q-39 -12 -104 -12zM1006 1228h205l318 245h-304z" />
    <glyph glyph-name="Oslashacute" unicode="&#x1fe;" horiz-adv-x="1465" 
d="M-92 0h230l1442 1348h-228zM634 -12q410 0 592 181t230 506q47 326 -61.5 507t-518.5 181t-592.5 -180.5t-230.5 -507.5q-47 -324 61.5 -505.5t519.5 -181.5zM688 296q-115 0 -168.5 53.5t-11.5 325.5q44 278 121.5 329t192.5 51q114 0 168.5 -51t10.5 -329
q-44 -272 -121.5 -325.5t-191.5 -53.5zM645 1392h205l318 245h-304z" />
    <glyph glyph-name="oslashacute" unicode="&#x1ff;" horiz-adv-x="1452" 
d="M-126 27l118 -116l1561 1264l-127 104zM615 -9q376 0 554.5 164t219.5 444q39 274 -78 437.5t-493 163.5q-377 0 -556 -160.5t-219 -440.5q-39 -274 78 -441t494 -167zM663 294q-97 0 -147 55.5t-22 247.5q29 190 103.5 245t171.5 55q98 0 147.5 -54.5t21.5 -245.5
q-29 -191 -103.5 -247t-171.5 -56zM581 1220h205l318 245h-304z" />
    <glyph glyph-name="uni0200" unicode="&#x200;" horiz-adv-x="1574" 
d="M-51 0h469l120 289h392l17 -289h470l-176 1351h-643zM663 587l210 499h4l33 -499h-247zM1167 1414h195l-134 245h-293zM811 1414h195l-134 245h-293z" />
    <glyph glyph-name="uni0201" unicode="&#x201;" horiz-adv-x="1457" 
d="M437 -14q70 0 136 11t123 30t100 43.5t67 52.5l18 -123h375l129 727q31 173 -27.5 276t-198.5 149t-354 46q-112 0 -218 -16t-198.5 -51t-163 -94t-111.5 -145l419 -125q24 52 62 80.5t82 39.5t87 11q62 0 103 -12.5t58.5 -44.5t9.5 -89l-5 -27h-363q-76 0 -153.5 -9.5
t-147.5 -34t-126 -67t-91.5 -109t-43.5 -159.5q-15 -137 29.5 -215.5t146 -111.5t256.5 -33zM587 272q-46 0 -75 9t-40 32t-6 66q4 34 16.5 55t33 31.5t49.5 14.5t67 4h249l-22 -128q-26 -25 -71 -44t-98 -29.5t-103 -10.5zM1061 1250h195l-134 245h-293zM704 1250h195
l-134 245h-293z" />
    <glyph glyph-name="uni0202" unicode="&#x202;" horiz-adv-x="1574" 
d="M-51 0h469l120 289h392l17 -289h470l-176 1351h-643zM663 587l210 499h4l33 -499h-247zM996 1645q-92 0 -164 -30t-117 -82t-56 -116h207q5 29 17.5 47.5t33.5 27.5t54 9q30 0 48 -8.5t25 -27t2 -48.5h208q11 64 -16.5 116t-89 82t-152.5 30z" />
    <glyph glyph-name="uni0203" unicode="&#x203;" horiz-adv-x="1457" 
d="M437 -14q70 0 136 11t123 30t100 43.5t67 52.5l18 -123h375l129 727q31 173 -27.5 276t-198.5 149t-354 46q-112 0 -218 -16t-198.5 -51t-163 -94t-111.5 -145l419 -125q24 52 62 80.5t82 39.5t87 11q62 0 103 -12.5t58.5 -44.5t9.5 -89l-5 -27h-363q-76 0 -153.5 -9.5
t-147.5 -34t-126 -67t-91.5 -109t-43.5 -159.5q-15 -137 29.5 -215.5t146 -111.5t256.5 -33zM587 272q-46 0 -75 9t-40 32t-6 66q4 34 16.5 55t33 31.5t49.5 14.5t67 4h249l-22 -128q-26 -25 -71 -44t-98 -29.5t-103 -10.5zM885 1481q-92 0 -164 -30t-117 -82t-56 -116h207
q5 29 17.5 47.5t33.5 27.5t54 9q30 0 48 -8.5t25 -27t2 -48.5h208q11 64 -16.5 116t-89 82t-152.5 30z" />
    <glyph glyph-name="uni0204" unicode="&#x204;" horiz-adv-x="1213" 
d="M-44 0h1067l54 308h-609l39 224h560l52 293h-560l38 217h609l55 308h-1067zM970 1414h195l-134 245h-293zM613 1414h195l-134 245h-293z" />
    <glyph glyph-name="uni0205" unicode="&#x205;" horiz-adv-x="1448" 
d="M624 -12l51 288q-108 0 -165 54q-59 52 -21 261q36 205 111 263q76 57 179 57q105 0 155 -49q27 -36 24 -133h-483l-47 -269h932q19 58 31 131q47 267 -62 438q-109 170 -500 170q-379 0 -554 -167q-174 -166 -223 -440q-48 -275 69 -440q116 -164 503 -164zM675 276
l-51 -288q202 0 317 31q113 30 208 91q94 59 140 172l-382 116q-33 -43 -61 -71q-30 -27 -67 -39q-39 -12 -104 -12zM1066 1250h195l-134 245h-293zM709 1250h195l-134 245h-293z" />
    <glyph glyph-name="uni0206" unicode="&#x206;" horiz-adv-x="1213" 
d="M-44 0h1067l54 308h-609l39 224h560l52 293h-560l38 217h609l55 308h-1067zM798 1645q-92 0 -164 -30t-117 -82t-56 -116h207q5 29 17.5 47.5t33.5 27.5t54 9q30 0 48 -8.5t25 -27t2 -48.5h208q11 64 -16.5 116t-89 82t-152.5 30z" />
    <glyph glyph-name="uni0207" unicode="&#x207;" horiz-adv-x="1448" 
d="M624 -12l51 288q-108 0 -165 54q-59 52 -21 261q36 205 111 263q76 57 179 57q105 0 155 -49q27 -36 24 -133h-483l-47 -269h932q19 58 31 131q47 267 -62 438q-109 170 -500 170q-379 0 -554 -167q-174 -166 -223 -440q-48 -275 69 -440q116 -164 503 -164zM675 276
l-51 -288q202 0 317 31q113 30 208 91q94 59 140 172l-382 116q-33 -43 -61 -71q-30 -27 -67 -39q-39 -12 -104 -12zM891 1481q-92 0 -164 -30t-117 -82t-56 -116h207q5 29 17.5 47.5t33.5 27.5t54 9q30 0 48 -8.5t25 -27t2 -48.5h208q11 64 -16.5 116t-89 82t-152.5 30z
" />
    <glyph glyph-name="uni0208" unicode="&#x208;" horiz-adv-x="700" 
d="M5 0h455l238 1350h-454zM723 1414h195l-134 245h-293zM367 1414h195l-134 245h-293z" />
    <glyph glyph-name="uni0209" unicode="&#x209;" horiz-adv-x="648" 
d="M-34 0h454l209 1186h-454zM638 1250h195l-134 245h-293zM281 1250h195l-134 245h-293z" />
    <glyph glyph-name="uni020A" unicode="&#x20a;" horiz-adv-x="700" 
d="M5 0h455l238 1350h-454zM552 1645q-92 0 -164 -30t-117 -82t-56 -116h207q5 29 17.5 47.5t33.5 27.5t54 9q30 0 48 -8.5t25 -27t2 -48.5h208q11 64 -16.5 116t-89 82t-152.5 30z" />
    <glyph glyph-name="uni020B" unicode="&#x20b;" horiz-adv-x="648" 
d="M-34 0h454l209 1186h-454zM462 1481q-92 0 -164 -30t-117 -82t-56 -116h207q5 29 17.5 47.5t33.5 27.5t54 9q30 0 48 -8.5t25 -27t2 -48.5h208q11 64 -16.5 116t-89 82t-152.5 30z" />
    <glyph glyph-name="uni020C" unicode="&#x20c;" horiz-adv-x="1498" 
d="M634 -12q410 0 592 181t230 506q47 326 -61.5 507t-518.5 181t-592.5 -180.5t-230.5 -507.5q-47 -324 61.5 -505.5t519.5 -181.5zM688 296q-115 0 -168.5 53.5t-11.5 325.5q44 278 121.5 329t192.5 51q114 0 168.5 -51t10.5 -329q-44 -272 -121.5 -325.5t-191.5 -53.5z
M1106 1414h195l-134 245h-293zM750 1414h195l-134 245h-293z" />
    <glyph glyph-name="uni020D" unicode="&#x20d;" horiz-adv-x="1452" 
d="M615 -9q376 0 554.5 164t219.5 444q39 274 -78 437.5t-493 163.5q-377 0 -556 -160.5t-219 -440.5q-39 -274 78 -441t494 -167zM663 294q-97 0 -147 55.5t-22 247.5q29 190 103.5 245t171.5 55q98 0 147.5 -54.5t21.5 -245.5q-29 -191 -103.5 -247t-171.5 -56zM1054 1250
h195l-134 245h-293zM697 1250h195l-134 245h-293z" />
    <glyph glyph-name="uni020E" unicode="&#x20e;" horiz-adv-x="1498" 
d="M634 -12q410 0 592 181t230 506q47 326 -61.5 507t-518.5 181t-592.5 -180.5t-230.5 -507.5q-47 -324 61.5 -505.5t519.5 -181.5zM688 296q-115 0 -168.5 53.5t-11.5 325.5q44 278 121.5 329t192.5 51q114 0 168.5 -51t10.5 -329q-44 -272 -121.5 -325.5t-191.5 -53.5z
M935 1645q-92 0 -164 -30t-117 -82t-56 -116h207q5 29 17.5 47.5t33.5 27.5t54 9q30 0 48 -8.5t25 -27t2 -48.5h208q11 64 -16.5 116t-89 82t-152.5 30z" />
    <glyph glyph-name="uni020F" unicode="&#x20f;" horiz-adv-x="1452" 
d="M615 -9q376 0 554.5 164t219.5 444q39 274 -78 437.5t-493 163.5q-377 0 -556 -160.5t-219 -440.5q-39 -274 78 -441t494 -167zM663 294q-97 0 -147 55.5t-22 247.5q29 190 103.5 245t171.5 55q98 0 147.5 -54.5t21.5 -245.5q-29 -191 -103.5 -247t-171.5 -56zM878 1481
q-92 0 -164 -30t-117 -82t-56 -116h207q5 29 17.5 47.5t33.5 27.5t54 9q30 0 48 -8.5t25 -27t2 -48.5h208q11 64 -16.5 116t-89 82t-152.5 30z" />
    <glyph glyph-name="uni0210" unicode="&#x210;" horiz-adv-x="1450" 
d="M-23 0h458l88 503h398q258 0 369 118.5t137 294.5q27 173 -30.5 303.5t-306.5 130.5h-875zM804 0h495l-233 637l-454 -15zM572 780l46 262h264q62 0 80 -32t5 -100q-11 -67 -40 -98.5t-91 -31.5h-264zM1080 1414h195l-134 245h-293zM724 1414h195l-134 245h-293z" />
    <glyph glyph-name="uni0211" unicode="&#x211;" horiz-adv-x="1431" 
d="M875 575h451q55 316 -5.5 468.5t-323.5 152.5q-237 0 -408 -121t-203 -302l156 -93q15 82 78.5 145t148.5 63q73 0 107.5 -53t-1.5 -260zM-27 0h451l177 1001l-71 185h-348zM1058 1250h195l-134 245h-293zM701 1250h195l-134 245h-293z" />
    <glyph glyph-name="uni0212" unicode="&#x212;" horiz-adv-x="1450" 
d="M-23 0h458l88 503h398q258 0 369 118.5t137 294.5q27 173 -30.5 303.5t-306.5 130.5h-875zM804 0h495l-233 637l-454 -15zM572 780l46 262h264q62 0 80 -32t5 -100q-11 -67 -40 -98.5t-91 -31.5h-264zM909 1645q-92 0 -164 -30t-117 -82t-56 -116h207q5 29 17.5 47.5
t33.5 27.5t54 9q30 0 48 -8.5t25 -27t2 -48.5h208q11 64 -16.5 116t-89 82t-152.5 30z" />
    <glyph glyph-name="uni0213" unicode="&#x213;" horiz-adv-x="1431" 
d="M875 575h451q55 316 -5.5 468.5t-323.5 152.5q-237 0 -408 -121t-203 -302l156 -93q15 82 78.5 145t148.5 63q73 0 107.5 -53t-1.5 -260zM-27 0h451l177 1001l-71 185h-348zM882 1481q-92 0 -164 -30t-117 -82t-56 -116h207q5 29 17.5 47.5t33.5 27.5t54 9q30 0 48 -8.5
t25 -27t2 -48.5h208q11 64 -16.5 116t-89 82t-152.5 30z" />
    <glyph glyph-name="uni0214" unicode="&#x214;" horiz-adv-x="1509" 
d="M639 -7q346 0 531 110.5t231 369.5l154 877h-457l-146 -830q-21 -121 -74 -170t-184 -49q-130 0 -165.5 49.5t-14.5 169.5l146 830h-457l-154 -877q-46 -259 99.5 -369.5t490.5 -110.5zM1127 1414h195l-134 245h-293zM770 1414h195l-134 245h-293z" />
    <glyph glyph-name="uni0215" unicode="&#x215;" horiz-adv-x="1426" 
d="M860 0h345l209 1186h-451l-178 -1006zM603 1186h-451l-107 -609q-46 -261 13 -423.5t313 -162.5q293 0 478.5 173t214.5 339l-206 78q-23 -134 -100.5 -208t-165.5 -74q-78 0 -102 55.5t10 246.5zM1040 1250h195l-134 245h-293zM684 1250h195l-134 245h-293z" />
    <glyph glyph-name="uni0216" unicode="&#x216;" horiz-adv-x="1509" 
d="M639 -7q346 0 531 110.5t231 369.5l154 877h-457l-146 -830q-21 -121 -74 -170t-184 -49q-130 0 -165.5 49.5t-14.5 169.5l146 830h-457l-154 -877q-46 -259 99.5 -369.5t490.5 -110.5zM955 1645q-92 0 -164 -30t-117 -82t-56 -116h207q5 29 17.5 47.5t33.5 27.5t54 9
q30 0 48 -8.5t25 -27t2 -48.5h208q11 64 -16.5 116t-89 82t-152.5 30z" />
    <glyph glyph-name="uni0217" unicode="&#x217;" horiz-adv-x="1426" 
d="M860 0h345l209 1186h-451l-178 -1006zM603 1186h-451l-107 -609q-46 -261 13 -423.5t313 -162.5q293 0 478.5 173t214.5 339l-206 78q-23 -134 -100.5 -208t-165.5 -74q-78 0 -102 55.5t10 246.5zM865 1481q-92 0 -164 -30t-117 -82t-56 -116h207q5 29 17.5 47.5
t33.5 27.5t54 9q30 0 48 -8.5t25 -27t2 -48.5h208q11 64 -16.5 116t-89 82t-152.5 30z" />
    <glyph glyph-name="uni0218" unicode="&#x218;" horiz-adv-x="1474" 
d="M379 -356h151l198 304h-243zM623 -7q398 0 562 136t185 327q20 161 -65 235t-402 135q-176 30 -267.5 48.5t-79.5 92.5q9 52 80 69t164 17q83 0 145.5 -21.5t40.5 -148.5h457q34 195 -79.5 337.5t-507.5 142.5q-395 0 -567.5 -134t-183.5 -318q-14 -152 70 -242t390 -148
q164 -27 259.5 -46.5t84.5 -83.5q-10 -56 -78 -74t-157 -18q-90 0 -150.5 23.5t-38.5 153.5h-457q-37 -208 75 -345.5t520 -137.5z" />
    <glyph glyph-name="uni0219" unicode="&#x219;" horiz-adv-x="1437" 
d="M626 -9q251 0 457.5 91.5t238.5 305.5q28 184 -89 262t-349 99q-153 16 -249.5 25t-88.5 57q4 33 52 52.5t134 19.5q95 0 159.5 -38.5t82.5 -93.5l420 145q-28 155 -191 217.5t-421 62.5q-260 0 -456 -85t-224 -280q-28 -190 85 -274.5t331 -108.5q161 -18 262 -28.5
t93 -57.5q-6 -36 -59 -56.5t-140 -20.5q-112 0 -178 37t-82 97l-420 -147q34 -152 206.5 -216.5t425.5 -64.5zM371 -358h151l198 304h-243z" />
    <glyph glyph-name="uni021A" unicode="&#x21a;" horiz-adv-x="1379" 
d="M351 0h457l183 1042h391l55 308h-1240l-55 -308h392zM339 -358h151l198 304h-243z" />
    <glyph glyph-name="uni021B" unicode="&#x21b;" horiz-adv-x="1134" 
d="M617 -17q158 0 308 31l52 296q-77 -27 -152 -27q-66 0 -99 25t-18 110l82 460h340l55 308h-341l48 273h-452l-48 -273h-264l-54 -308h264l-99 -556q-33 -189 82 -264t296 -75zM375 -358h151l198 304h-243z" />
    <glyph glyph-name="uni022A" unicode="&#x22a;" horiz-adv-x="1498" 
d="M634 -12q410 0 592 181t230 506q47 326 -61.5 507t-518.5 181t-592.5 -180.5t-230.5 -507.5q-47 -324 61.5 -505.5t519.5 -181.5zM688 296q-115 0 -168.5 53.5t-11.5 325.5q44 278 121.5 329t192.5 51q114 0 168.5 -51t10.5 -329q-44 -272 -121.5 -325.5t-191.5 -53.5z
M643 1406q50 0 91.5 39t41.5 92q0 43 -28.5 72t-71.5 29q-52 0 -93 -39t-41 -92q0 -43 28 -72t73 -29zM1112 1406q52 0 92.5 39t40.5 92q0 43 -27.5 72t-72.5 29q-51 0 -92 -39t-41 -92q0 -43 28.5 -72t71.5 -29zM549 1727h762l29 161h-762z" />
    <glyph glyph-name="uni022B" unicode="&#x22b;" horiz-adv-x="1452" 
d="M615 -9q376 0 554.5 164t219.5 444q39 274 -78 437.5t-493 163.5q-377 0 -556 -160.5t-219 -440.5q-39 -274 78 -441t494 -167zM663 294q-97 0 -147 55.5t-22 247.5q29 190 103.5 245t171.5 55q98 0 147.5 -54.5t21.5 -245.5q-29 -191 -103.5 -247t-171.5 -56zM590 1242
q50 0 91.5 39t41.5 92q0 43 -28.5 72t-71.5 29q-52 0 -93 -39t-41 -92q0 -43 28 -72t73 -29zM1059 1242q52 0 92.5 39t40.5 92q0 43 -27.5 72t-72.5 29q-51 0 -92 -39t-41 -92q0 -43 28.5 -72t71.5 -29zM495 1563h762l29 161h-762z" />
    <glyph glyph-name="uni022C" unicode="&#x22c;" horiz-adv-x="1498" 
d="M634 -12q410 0 592 181t230 506q47 326 -61.5 507t-518.5 181t-592.5 -180.5t-230.5 -507.5q-47 -324 61.5 -505.5t519.5 -181.5zM688 296q-115 0 -168.5 53.5t-11.5 325.5q44 278 121.5 329t192.5 51q114 0 168.5 -51t10.5 -329q-44 -272 -121.5 -325.5t-191.5 -53.5z
M1028 1400q85 0 142 29.5t91 72.5t51.5 85.5t22.5 68.5h-213q-3 -15 -14.5 -35t-31.5 -34t-47 -14q-29 0 -52.5 13.5t-49 32t-59.5 32t-85 13.5q-88 0 -147 -28.5t-93 -71t-50.5 -84t-22.5 -68.5h215q4 15 13.5 35t29 34t51.5 14q29 0 52.5 -14.5t50 -33t61 -33t85.5 -14.5z
M558 1745h762l29 161h-762z" />
    <glyph glyph-name="uni022D" unicode="&#x22d;" horiz-adv-x="1452" 
d="M615 -9q376 0 554.5 164t219.5 444q39 274 -78 437.5t-493 163.5q-377 0 -556 -160.5t-219 -440.5q-39 -274 78 -441t494 -167zM663 294q-97 0 -147 55.5t-22 247.5q29 190 103.5 245t171.5 55q98 0 147.5 -54.5t21.5 -245.5q-29 -191 -103.5 -247t-171.5 -56zM975 1236
q85 0 142 29.5t91 72.5t51.5 85.5t22.5 68.5h-213q-3 -15 -14.5 -35t-31.5 -34t-47 -14q-29 0 -52.5 13.5t-49 32t-59.5 32t-85 13.5q-88 0 -147 -28.5t-93 -71t-50.5 -84t-22.5 -68.5h215q4 15 13.5 35t29 34t51.5 14q29 0 52.5 -14.5t50 -33t61 -33t85.5 -14.5zM506 1581
h762l29 161h-762z" />
    <glyph glyph-name="uni0230" unicode="&#x230;" horiz-adv-x="1498" 
d="M634 -12q410 0 592 181t230 506q47 326 -61.5 507t-518.5 181t-592.5 -180.5t-230.5 -507.5q-47 -324 61.5 -505.5t519.5 -181.5zM688 296q-115 0 -168.5 53.5t-11.5 325.5q44 278 121.5 329t192.5 51q114 0 168.5 -51t10.5 -329q-44 -272 -121.5 -325.5t-191.5 -53.5z
M904 1392q51 0 86.5 35.5t35.5 85.5t-35.5 85.5t-85.5 35.5t-85.5 -35.5t-35.5 -85.5t35 -85.5t85 -35.5zM559 1720h762l29 161h-762z" />
    <glyph glyph-name="uni0231" unicode="&#x231;" horiz-adv-x="1452" 
d="M615 -9q376 0 554.5 164t219.5 444q39 274 -78 437.5t-493 163.5q-377 0 -556 -160.5t-219 -440.5q-39 -274 78 -441t494 -167zM663 294q-97 0 -147 55.5t-22 247.5q29 190 103.5 245t171.5 55q98 0 147.5 -54.5t21.5 -245.5q-29 -191 -103.5 -247t-171.5 -56zM850 1228
q51 0 86.5 35.5t35.5 85.5t-35.5 85.5t-85.5 35.5t-85.5 -35.5t-35.5 -85.5t35 -85.5t85 -35.5zM506 1556h762l29 161h-762z" />
    <glyph glyph-name="uni0232" unicode="&#x232;" horiz-adv-x="1539" 
d="M427 0h456l84 479l694 871h-499l-364 -520h-3l-184 520h-489l388 -873zM541 1437h762l29 161h-762z" />
    <glyph glyph-name="uni0233" unicode="&#x233;" horiz-adv-x="1393" 
d="M244 0h690l531 1186h-472l-353 -894h-2l-41 894h-471zM-47 -469q377 0 607.5 82t373.5 387l-418 1q-49 -111 -160.5 -139t-349.5 -28zM437 1273h762l29 161h-762z" />
    <glyph glyph-name="uni0237" unicode="&#x237;" horiz-adv-x="688" 
d="M-322 -460q350 0 552 112t261 453l192 1081h-451l-195 -1099q-25 -150 -101 -193.5t-202 -43.5z" />
    <glyph glyph-name="uni0259" unicode="&#x259;" horiz-adv-x="1448" 
d="M824 1200l-51 -289q108 0 166 -53q58 -54 20 -263q-36 -205 -111 -262q-76 -56 -179 -56q-105 0 -155 48q-27 37 -24 132h483l47 269h-932q-19 -56 -31 -131q-47 -266 62 -436t500 -170q379 0 555 166q173 165 222 441q48 275 -69 439q-116 165 -503 165zM773 911l51 289
q-202 0 -316 -31t-209 -91q-94 -60 -140 -172l382 -117q33 44 61 71q30 27 68 39t103 12z" />
    <glyph glyph-name="uni02BC" unicode="&#x2bc;" horiz-adv-x="448" 
d="M570 1559h-321l-51 -286h24l-135 -318h289l143 319z" />
    <glyph glyph-name="circumflex" unicode="&#x2c6;" horiz-adv-x="920" 
d="M205 1205h252l150 148l98 -148h254l-196 233h-283z" />
    <glyph glyph-name="caron" unicode="&#x2c7;" horiz-adv-x="920" 
d="M390 1205h283l276 233h-255l-147 -147l-101 147h-251z" />
    <glyph glyph-name="uni02C9" unicode="&#x2c9;" horiz-adv-x="999" 
d="M195 1170h762l29 161h-762z" />
    <glyph glyph-name="breve" unicode="&#x2d8;" horiz-adv-x="866" 
d="M522 1221q93 0 164.5 31t117 82.5t55.5 114.5h-207q-5 -28 -17 -47t-33.5 -28t-54.5 -9q-29 0 -47.5 9t-25.5 27.5t-2 47.5h-208q-10 -63 17 -114.5t88.5 -82.5t152.5 -31z" />
    <glyph glyph-name="dotaccent" unicode="&#x2d9;" horiz-adv-x="507" 
d="M366 1174q51 0 86.5 35.5t35.5 85.5t-35.5 85.5t-85.5 35.5t-85.5 -35.5t-35.5 -85.5t35 -85.5t85 -35.5z" />
    <glyph glyph-name="ring" unicode="&#x2da;" horiz-adv-x="531" 
d="M366 1206q58 0 108.5 27.5t84.5 74t43 104.5q16 88 -34.5 146.5t-137.5 58.5q-58 0 -108 -26.5t-83.5 -73t-44.5 -105.5q-15 -87 35 -146.5t137 -59.5zM389 1360q-19 0 -31 15.5t-9 36.5q5 22 22 36t36 14q21 0 33 -14t7 -36q-3 -21 -20 -36.5t-38 -15.5z" />
    <glyph glyph-name="ogonek" unicode="&#x2db;" horiz-adv-x="890" 
d="M273 -420q58 0 111.5 5.5t92.5 13t50 11.5l39 216q-13 -5 -45 -13t-70.5 -13.5t-73.5 -5.5q-42 0 -57 15.5t-12 39.5q4 21 19.5 49.5t35.5 57t36 44.5h-215q-23 -20 -53 -56t-55.5 -83t-34.5 -101q-13 -71 18.5 -110t89.5 -54.5t124 -15.5z" />
    <glyph glyph-name="tilde" unicode="&#x2dc;" horiz-adv-x="900" 
d="M709 1242q85 0 142 29.5t91 72.5t51.5 85.5t22.5 68.5h-213q-3 -15 -14.5 -35t-31.5 -34t-47 -14q-29 0 -52.5 13.5t-49 32t-59.5 32t-85 13.5q-88 0 -147 -28.5t-93 -71t-50.5 -84t-22.5 -68.5h215q4 15 13.5 35t29 34t51.5 14q29 0 52.5 -14.5t50 -33t61 -33
t85.5 -14.5z" />
    <glyph glyph-name="hungarumlaut" unicode="&#x2dd;" horiz-adv-x="1190" 
d="M547 1222h201l278 221h-267zM400 1222h200l269 221h-260z" />
    <glyph glyph-name="gravecomb" unicode="&#x300;" 
d="M390 1114h195l-134 245h-293z" />
    <glyph glyph-name="acutecomb" unicode="&#x301;" 
d="M122 1114h205l318 245h-304z" />
    <glyph glyph-name="uni0302" unicode="&#x302;" 
d="M110 1115h252l150 148l98 -148h254l-196 233h-283z" />
    <glyph glyph-name="tildecomb" unicode="&#x303;" 
d="M695 1160q85 0 142 29.5t91 72.5t51.5 85.5t22.5 68.5h-213q-3 -15 -14.5 -35t-31.5 -34t-47 -14q-29 0 -52.5 13.5t-49 32t-59.5 32t-85 13.5q-88 0 -147 -28.5t-93 -71t-50.5 -84t-22.5 -68.5h215q4 15 13.5 35t29 34t51.5 14q29 0 52.5 -14.5t50 -33t61 -33
t85.5 -14.5z" />
    <glyph glyph-name="uni0304" unicode="&#x304;" 
d="M195 1170h762l29 161h-762z" />
    <glyph glyph-name="uni0306" unicode="&#x306;" 
d="M423 1131q93 0 164.5 31t117 82.5t55.5 114.5h-207q-5 -28 -17 -47t-33.5 -28t-54.5 -9q-29 0 -47.5 9t-25.5 27.5t-2 47.5h-208q-10 -63 17 -114.5t88.5 -82.5t152.5 -31z" />
    <glyph glyph-name="uni0307" unicode="&#x307;" 
d="M261 1114q51 0 86.5 35.5t35.5 85.5t-35.5 85.5t-85.5 35.5t-85.5 -35.5t-35.5 -85.5t35 -85.5t85 -35.5z" />
    <glyph glyph-name="uni0308" unicode="&#x308;" 
d="M264 1128q50 0 91.5 39t41.5 92q0 43 -28.5 72t-71.5 29q-52 0 -93 -39t-41 -92q0 -43 28 -72t73 -29zM733 1128q52 0 92.5 39t40.5 92q0 43 -27.5 72t-72.5 29q-51 0 -92 -39t-41 -92q0 -43 28.5 -72t71.5 -29z" />
    <glyph glyph-name="hookabovecomb" unicode="&#x309;" 
d="M182 1507l-24 -131q110 0 169.5 -1t82 -5.5t21.5 -13.5q-1 -8 -23 -13.5t-64 -7.5t-106 -2l-28 -157h154l11 56q46 0 92 7.5t85 23.5t63.5 42.5t28.5 64.5q3 38 -19 64.5t-75.5 42.5t-144 23t-223.5 7z" />
    <glyph glyph-name="uni030A" unicode="&#x30a;" 
d="M313 1126q58 0 108.5 27.5t84.5 74t43 104.5q16 88 -34.5 146.5t-137.5 58.5q-58 0 -108 -26.5t-83.5 -73t-44.5 -105.5q-15 -87 35 -146.5t137 -59.5zM336 1280q-19 0 -31 15.5t-9 36.5q5 22 22 36t36 14q21 0 33 -14t7 -36q-3 -21 -20 -36.5t-38 -15.5z" />
    <glyph glyph-name="uni030B" unicode="&#x30b;" 
d="M400 1138h201l278 221h-267zM253 1138h200l269 221h-260z" />
    <glyph glyph-name="uni030C" unicode="&#x30c;" 
d="M334 1115h283l276 233h-255l-147 -147l-101 147h-251z" />
    <glyph glyph-name="uni030F" unicode="&#x30f;" 
d="M730 1204h195l-134 245h-293zM373 1204h195l-134 245h-293z" />
    <glyph glyph-name="uni0311" unicode="&#x311;" 
d="M509 1339q-92 0 -164 -30t-117 -82t-56 -116h207q5 29 17.5 47.5t33.5 27.5t54 9q30 0 48 -8.5t25 -27t2 -48.5h208q11 64 -16.5 116t-89 82t-152.5 30z" />
    <glyph glyph-name="uni0312" unicode="&#x312;" 
d="M303 1192h263l114 330h-163z" />
    <glyph glyph-name="uni031B" unicode="&#x31b;" 
d="M137 1259l-24 -143q150 0 268 37.5t193 112t94 186.5h-253q-12 -69 -45 -111.5t-89.5 -62t-143.5 -19.5z" />
    <glyph glyph-name="dotbelowcomb" unicode="&#x323;" 
d="M95 -360q51 0 86.5 35.5t35.5 85.5t-35.5 85.5t-85.5 35.5t-85.5 -35.5t-35.5 -85.5t35 -85.5t85 -35.5z" />
    <glyph glyph-name="uni0324" unicode="&#x324;" 
d="M43 -299q50 0 91.5 39t41.5 92q0 43 -28.5 72t-71.5 29q-52 0 -93 -39t-41 -92q0 -43 28 -72t73 -29zM512 -299q52 0 92.5 39t40.5 92q0 43 -27.5 72t-72.5 29q-51 0 -92 -39t-41 -92q0 -43 28.5 -72t71.5 -29z" />
    <glyph glyph-name="uni0326" unicode="&#x326;" 
d="M-102 -358h151l198 304h-243z" />
    <glyph glyph-name="uni0327" unicode="&#x327;" 
d="M193 -405q71 0 143 15t134 43.5t103.5 70.5t50.5 95q13 69 -29.5 104.5t-126.5 35.5q-64 0 -116 -18.5t-82 -45.5l-20 -69q10 9 31 16.5t41 7.5q24 0 33.5 -5t6.5 -19q-3 -19 -36.5 -32.5t-97.5 -13.5q-45 0 -85 7t-67 14l-91 -182q52 -11 106.5 -17.5t101.5 -6.5z
M250 -174l95 174h-173l-77 -161z" />
    <glyph glyph-name="uni0328" unicode="&#x328;" 
d="M273 -420q58 0 111.5 5.5t92.5 13t50 11.5l39 216q-13 -5 -45 -13t-70.5 -13.5t-73.5 -5.5q-36 0 -52.5 12t-16.5 31q0 21 16 52.5t37.5 62.5t37.5 48h-215q-34 -31 -68 -76t-56 -96.5t-22 -102.5q0 -56 33.5 -87.5t87.5 -44.5t114 -13z" />
    <glyph glyph-name="uni032E" unicode="&#x32e;" 
d="M184 -321q93 0 164.5 31t117 82.5t55.5 114.5h-207q-5 -28 -17 -47t-33.5 -28t-54.5 -9q-29 0 -47.5 9t-25.5 27.5t-2 47.5h-208q-10 -63 17 -114.5t88.5 -82.5t152.5 -31z" />
    <glyph glyph-name="uni0331" unicode="&#x331;" 
d="M-154 -257h762l29 161h-762z" />
    <glyph glyph-name="uni0335" unicode="&#x335;" 
d="M163 1303h865l53 294h-864z" />
    <glyph glyph-name="uni0336" unicode="&#x336;" 
d="M195 1170h762l29 161h-762z" />
    <glyph glyph-name="uni0337" unicode="&#x337;" 
d="M26 0h215l577 972h-216z" />
    <glyph glyph-name="uni0338" unicode="&#x338;" 
d="M-83 0h383l930 1348h-386z" />
    <glyph glyph-name="uni1E08" unicode="&#x1e08;" horiz-adv-x="1454" 
d="M628 -8q415 0 570.5 179.5t191.5 387.5h-461q-30 -171 -94 -215t-161 -44q-100 0 -152 52t-9 327q43 278 118.5 327t175.5 49q98 0 145 -42.5t18 -217.5h462q33 214 -62 391t-511 177q-410 0 -584 -182.5t-224 -501.5q-51 -316 57 -501.5t520 -185.5zM561 -405
q71 0 143 15t134 43.5t103.5 70.5t50.5 95q13 69 -29.5 104.5t-126.5 35.5q-64 0 -116 -18.5t-82 -45.5l-20 -69q10 9 31 16.5t41 7.5q24 0 33.5 -5t6.5 -19q-3 -19 -36.5 -32.5t-97.5 -13.5q-45 0 -85 7t-67 14l-91 -182q52 -11 106.5 -17.5t101.5 -6.5zM618 -174l95 174
h-173l-77 -161zM624 1392h205l318 245h-304z" />
    <glyph glyph-name="uni1E09" unicode="&#x1e09;" horiz-adv-x="1365" 
d="M598 -12q333 0 475.5 124t188.5 248l-374 148q-31 -121 -93.5 -167t-146.5 -46q-83 0 -128.5 50.5t-22.5 230.5q25 204 99.5 258t156.5 54q83 0 129.5 -46t34.5 -172l425 142q-2 129 -104.5 257t-435.5 128q-383 0 -562.5 -168.5t-202.5 -473.5q-22 -263 78 -415
t483 -152zM529 -405q71 0 143 15t134 43.5t103.5 70.5t50.5 95q13 69 -29.5 104.5t-126.5 35.5q-64 0 -116 -18.5t-82 -45.5l-20 -69q10 9 31 16.5t41 7.5q24 0 33.5 -5t6.5 -19q-3 -19 -36.5 -32.5t-97.5 -13.5q-45 0 -85 7t-67 14l-91 -182q52 -11 106.5 -17.5t101.5 -6.5
zM586 -174l95 174h-173l-77 -161zM561 1228h205l318 245h-304z" />
    <glyph glyph-name="uni1E0C" unicode="&#x1e0c;" horiz-adv-x="1467" 
d="M-23 0h810q304 0 443 154t195 522q54 362 -31.5 518t-388.5 156h-790zM487 308l129 734h220q104 0 142 -48.5t-9 -317.5q-48 -270 -103 -319t-159 -49h-220zM586 -329q51 0 86.5 35.5t35.5 85.5t-35.5 85.5t-85.5 35.5t-85.5 -35.5t-35.5 -85.5t35 -85.5t85 -35.5z" />
    <glyph glyph-name="uni1E0D" unicode="&#x1e0d;" horiz-adv-x="1454" 
d="M828 0h420l276 1570h-450l-247 -1408zM427 -7q229 0 417.5 98.5t212.5 230.5l-169 182q-17 -95 -91.5 -150.5t-160.5 -55.5q-95 0 -130.5 54t-8.5 242q29 185 88.5 239.5t154.5 54.5q86 0 141 -55t39 -148l232 179q24 132 -132.5 231.5t-385.5 99.5q-274 0 -424.5 -184
t-169.5 -463q-19 -226 56.5 -390.5t330.5 -164.5zM598 -360q51 0 86.5 35.5t35.5 85.5t-35.5 85.5t-85.5 35.5t-85.5 -35.5t-35.5 -85.5t35 -85.5t85 -35.5z" />
    <glyph glyph-name="Dmacronbelow" unicode="&#x1e0e;" horiz-adv-x="1467" 
d="M-23 0h810q304 0 443 154t195 522q54 362 -31.5 518t-388.5 156h-790zM487 308l129 734h220q104 0 142 -48.5t-9 -317.5q-48 -270 -103 -319t-159 -49h-220zM190 -257h762l29 161h-762z" />
    <glyph glyph-name="dmacronbelow" unicode="&#x1e0f;" horiz-adv-x="1454" 
d="M828 0h420l276 1570h-450l-247 -1408zM427 -7q229 0 417.5 98.5t212.5 230.5l-169 182q-17 -95 -91.5 -150.5t-160.5 -55.5q-95 0 -130.5 54t-8.5 242q29 185 88.5 239.5t154.5 54.5q86 0 141 -55t39 -148l232 179q24 132 -132.5 231.5t-385.5 99.5q-274 0 -424.5 -184
t-169.5 -463q-19 -226 56.5 -390.5t330.5 -164.5zM213 -257h762l29 161h-762z" />
    <glyph glyph-name="uni1E14" unicode="&#x1e14;" horiz-adv-x="1213" 
d="M-44 0h1067l54 308h-609l39 224h560l52 293h-560l38 217h609l55 308h-1067zM369 1437h762l29 161h-762zM832 1649h195l-134 245h-293z" />
    <glyph glyph-name="uni1E15" unicode="&#x1e15;" horiz-adv-x="1448" 
d="M624 -12l51 288q-108 0 -165 54q-59 52 -21 261q36 205 111 263q76 57 179 57q105 0 155 -49q27 -36 24 -133h-483l-47 -269h932q19 58 31 131q47 267 -62 438q-109 170 -500 170q-379 0 -554 -167q-174 -166 -223 -440q-48 -275 69 -440q116 -164 503 -164zM675 276
l-51 -288q202 0 317 31q113 30 208 91q94 59 140 172l-382 116q-33 -43 -61 -71q-30 -27 -67 -39q-39 -12 -104 -12zM465 1273h762l29 161h-762zM922 1476h195l-134 245h-293z" />
    <glyph glyph-name="uni1E16" unicode="&#x1e16;" horiz-adv-x="1213" 
d="M-44 0h1067l54 308h-609l39 224h560l52 293h-560l38 217h609l55 308h-1067zM369 1437h762l29 161h-762zM546 1640h205l318 245h-304z" />
    <glyph glyph-name="uni1E17" unicode="&#x1e17;" horiz-adv-x="1448" 
d="M624 -12l51 288q-108 0 -165 54q-59 52 -21 261q36 205 111 263q76 57 179 57q105 0 155 -49q27 -36 24 -133h-483l-47 -269h932q19 58 31 131q47 267 -62 438q-109 170 -500 170q-379 0 -554 -167q-174 -166 -223 -440q-48 -275 69 -440q116 -164 503 -164zM675 276
l-51 -288q202 0 317 31q113 30 208 91q94 59 140 172l-382 116q-33 -43 -61 -71q-30 -27 -67 -39q-39 -12 -104 -12zM465 1273h762l29 161h-762zM642 1476h205l318 245h-304z" />
    <glyph glyph-name="uni1E1C" unicode="&#x1e1c;" horiz-adv-x="1213" 
d="M-44 0h1067l54 308h-609l39 224h560l52 293h-560l38 217h609l55 308h-1067zM439 -405q71 0 143 15t134 43.5t103.5 70.5t50.5 95q13 69 -29.5 104.5t-126.5 35.5q-64 0 -116 -18.5t-82 -45.5l-20 -69q10 9 31 16.5t41 7.5q24 0 33.5 -5t6.5 -19q-3 -19 -36.5 -32.5
t-97.5 -13.5q-45 0 -85 7t-67 14l-91 -182q52 -11 106.5 -17.5t101.5 -6.5zM496 -174l95 174h-173l-77 -161zM746 1409q93 0 164.5 31t117 82.5t55.5 114.5h-207q-5 -28 -17 -47t-33.5 -28t-54.5 -9q-29 0 -47.5 9t-25.5 27.5t-2 47.5h-208q-10 -63 17 -114.5t88.5 -82.5
t152.5 -31z" />
    <glyph glyph-name="uni1E1D" unicode="&#x1e1d;" horiz-adv-x="1448" 
d="M624 -12l51 288q-108 0 -165 54q-59 52 -21 261q36 205 111 263q76 57 179 57q105 0 155 -49q27 -36 24 -133h-483l-47 -269h932q19 58 31 131q47 267 -62 438q-109 170 -500 170q-379 0 -554 -167q-174 -166 -223 -440q-48 -275 69 -440q116 -164 503 -164zM675 276
l-51 -288q202 0 317 31q113 30 208 91q94 59 140 172l-382 116q-33 -43 -61 -71q-30 -27 -67 -39q-39 -12 -104 -12zM571 -405q71 0 143 15t134 43.5t103.5 70.5t50.5 95q13 69 -29.5 104.5t-126.5 35.5q-64 0 -116 -18.5t-82 -45.5l-20 -69q10 9 31 16.5t41 7.5
q24 0 33.5 -5t6.5 -19q-3 -19 -36.5 -32.5t-97.5 -13.5q-45 0 -85 7t-67 14l-91 -182q52 -11 106.5 -17.5t101.5 -6.5zM628 -174l95 174h-173l-77 -161zM842 1245q93 0 164.5 31t117 82.5t55.5 114.5h-207q-5 -28 -17 -47t-33.5 -28t-54.5 -9q-29 0 -47.5 9t-25.5 27.5
t-2 47.5h-208q-10 -63 17 -114.5t88.5 -82.5t152.5 -31z" />
    <glyph glyph-name="uni1E20" unicode="&#x1e20;" horiz-adv-x="1495" 
d="M587 -8q298 0 421 145l28 -137h255l129 739h-644l-46 -266h177l-2 -6q-30 -104 -77 -136t-148 -32q-109 0 -157.5 68t-11.5 298q48 286 120.5 338.5t178.5 52.5q100 0 143 -30.5t31 -166.5h457q23 186 -93.5 345t-493.5 159q-408 0 -580.5 -179t-219.5 -504
q-45 -318 55 -503t478 -185zM516 1437h762l29 161h-762z" />
    <glyph glyph-name="uni1E21" unicode="&#x1e21;" horiz-adv-x="1468" 
d="M500 -473q211 0 353.5 48.5t259 171.5t155.5 343l194 1096h-328l-165 -226l-162 -918q-28 -165 -90.5 -198t-150.5 -33q-52 0 -91.5 14.5t-59.5 49.5t-17 83h-440q-16 -237 147 -334t395 -97zM428 -7q229 0 418 98.5t212 230.5l-170 182q-16 -95 -90.5 -150.5
t-160.5 -55.5q-95 0 -133 54.5t-5 241.5q33 185 90 239.5t152 54.5q86 0 141 -55t39 -148l231 169q23 132 -132.5 236.5t-384.5 104.5q-265 0 -410 -167.5t-182 -431.5q-37 -263 41.5 -433t343.5 -170zM461 1273h762l29 161h-762z" />
    <glyph glyph-name="uni1E24" unicode="&#x1e24;" horiz-adv-x="1499" 
d="M-23 0h457l88 506h405l-89 -506h457l238 1350h-457l-95 -536h-404l95 536h-457zM615 -329q51 0 86.5 35.5t35.5 85.5t-35.5 85.5t-85.5 35.5t-85.5 -35.5t-35.5 -85.5t35 -85.5t85 -35.5z" />
    <glyph glyph-name="uni1E25" unicode="&#x1e25;" horiz-adv-x="1445" 
d="M-27 0h452l278 1570h-452zM788 0h451l107 609q46 262 -15.5 424t-310.5 162q-271 0 -467.5 -172.5t-226.5 -339.5l204 -86q24 133 100 211.5t163 78.5q78 0 105 -55.5t-7 -245.5zM585 -360q51 0 86.5 35.5t35.5 85.5t-35.5 85.5t-85.5 35.5t-85.5 -35.5t-35.5 -85.5
t35 -85.5t85 -35.5z" />
    <glyph glyph-name="uni1E2A" unicode="&#x1e2a;" horiz-adv-x="1499" 
d="M-23 0h457l88 506h405l-89 -506h457l238 1350h-457l-95 -536h-404l95 536h-457zM590 -321q93 0 164.5 31t117 82.5t55.5 114.5h-207q-5 -28 -17 -47t-33.5 -28t-54.5 -9q-29 0 -47.5 9t-25.5 27.5t-2 47.5h-208q-10 -63 17 -114.5t88.5 -82.5t152.5 -31z" />
    <glyph glyph-name="uni1E2B" unicode="&#x1e2b;" horiz-adv-x="1445" 
d="M-27 0h452l278 1570h-452zM788 0h451l107 609q46 262 -15.5 424t-310.5 162q-271 0 -467.5 -172.5t-226.5 -339.5l204 -86q24 133 100 211.5t163 78.5q78 0 105 -55.5t-7 -245.5zM571 -321q93 0 164.5 31t117 82.5t55.5 114.5h-207q-5 -28 -17 -47t-33.5 -28t-54.5 -9
q-29 0 -47.5 9t-25.5 27.5t-2 47.5h-208q-10 -63 17 -114.5t88.5 -82.5t152.5 -31z" />
    <glyph glyph-name="uni1E2E" unicode="&#x1e2e;" horiz-adv-x="700" 
d="M5 0h455l238 1350h-454zM260 1406q50 0 91.5 39t41.5 92q0 43 -28.5 72t-71.5 29q-52 0 -93 -39t-41 -92q0 -43 28 -72t73 -29zM729 1406q52 0 92.5 39t40.5 92q0 43 -27.5 72t-72.5 29q-51 0 -92 -39t-41 -92q0 -43 28.5 -72t71.5 -29zM299 1682h205l318 245h-304z" />
    <glyph glyph-name="uni1E2F" unicode="&#x1e2f;" horiz-adv-x="648" 
d="M-34 0h454l209 1186h-454zM174 1242q50 0 91.5 39t41.5 92q0 43 -28.5 72t-71.5 29q-52 0 -93 -39t-41 -92q0 -43 28 -72t73 -29zM643 1242q52 0 92.5 39t40.5 92q0 43 -27.5 72t-72.5 29q-51 0 -92 -39t-41 -92q0 -43 28.5 -72t71.5 -29zM213 1518h205l318 245h-304z
" />
    <glyph glyph-name="uni1E36" unicode="&#x1e36;" horiz-adv-x="1125" 
d="M-23 0h967l54 306h-511l185 1044h-457zM449 -329q51 0 86.5 35.5t35.5 85.5t-35.5 85.5t-85.5 35.5t-85.5 -35.5t-35.5 -85.5t35 -85.5t85 -35.5z" />
    <glyph glyph-name="uni1E37" unicode="&#x1e37;" horiz-adv-x="665" 
d="M-9 0h453l276 1570h-452zM181 -360q51 0 86.5 35.5t35.5 85.5t-35.5 85.5t-85.5 35.5t-85.5 -35.5t-35.5 -85.5t35 -85.5t85 -35.5z" />
    <glyph glyph-name="Lmacronbelow" unicode="&#x1e3a;" horiz-adv-x="1125" 
d="M-23 0h967l54 306h-511l185 1044h-457zM53 -257h762l29 161h-762z" />
    <glyph glyph-name="lmacronbelow" unicode="&#x1e3b;" horiz-adv-x="665" 
d="M-9 0h453l276 1570h-452zM-204 -257h762l29 161h-762z" />
    <glyph glyph-name="uni1E42" unicode="&#x1e42;" horiz-adv-x="2013" 
d="M-24 0h451l184 1037h2l18 -1032h525l382 1032h2l-182 -1037h451l237 1350h-740l-362 -1021h-2l-2 1021h-725zM873 -329q51 0 86.5 35.5t35.5 85.5t-35.5 85.5t-85.5 35.5t-85.5 -35.5t-35.5 -85.5t35 -85.5t85 -35.5z" />
    <glyph glyph-name="uni1E43" unicode="&#x1e43;" horiz-adv-x="2104" 
d="M-26 0h452l180 1023l-76 163h-348zM713 0h451l117 664q36 206 -18.5 368.5t-312.5 162.5q-219 0 -417 -166t-227 -331l223 -88q27 149 84.5 213t129.5 64q65 0 86.5 -53.5t-6.5 -208.5zM1447 0h451l116 664q37 205 -15 368t-310 163q-219 0 -418 -169t-226 -328l224 -88
q26 149 83.5 213t129.5 64q65 0 83.5 -53.5t-8.5 -208.5zM931 -360q51 0 86.5 35.5t35.5 85.5t-35.5 85.5t-85.5 35.5t-85.5 -35.5t-35.5 -85.5t35 -85.5t85 -35.5z" />
    <glyph glyph-name="uni1E44" unicode="&#x1e44;" horiz-adv-x="1739" 
d="M-23 0h454l181 1029h3l212 -1029h708l238 1350h-455l-181 -1005h-4l-205 1005h-713zM1059 1392q51 0 86.5 35.5t35.5 85.5t-35.5 85.5t-85.5 35.5t-85.5 -35.5t-35.5 -85.5t35 -85.5t85 -35.5z" />
    <glyph glyph-name="uni1E45" unicode="&#x1e45;" horiz-adv-x="1429" 
d="M-26 0h451l177 1011l-72 175h-347zM772 0h451l104 595q46 262 -14 431t-309 169q-271 0 -467.5 -172.5t-226.5 -339.5l204 -86q24 133 100 211.5t163 78.5q78 0 105 -55.5t-7 -245.5zM855 1228q51 0 86.5 35.5t35.5 85.5t-35.5 85.5t-85.5 35.5t-85.5 -35.5t-35.5 -85.5
t35 -85.5t85 -35.5z" />
    <glyph glyph-name="uni1E46" unicode="&#x1e46;" horiz-adv-x="1739" 
d="M-23 0h454l181 1029h3l212 -1029h708l238 1350h-455l-181 -1005h-4l-205 1005h-713zM758 -329q51 0 86.5 35.5t35.5 85.5t-35.5 85.5t-85.5 35.5t-85.5 -35.5t-35.5 -85.5t35 -85.5t85 -35.5z" />
    <glyph glyph-name="uni1E47" unicode="&#x1e47;" horiz-adv-x="1429" 
d="M-26 0h451l177 1011l-72 175h-347zM772 0h451l104 595q46 262 -14 431t-309 169q-271 0 -467.5 -172.5t-226.5 -339.5l204 -86q24 133 100 211.5t163 78.5q78 0 105 -55.5t-7 -245.5zM590 -360q51 0 86.5 35.5t35.5 85.5t-35.5 85.5t-85.5 35.5t-85.5 -35.5t-35.5 -85.5
t35 -85.5t85 -35.5z" />
    <glyph glyph-name="Nmacronbelow" unicode="&#x1e48;" horiz-adv-x="1739" 
d="M-23 0h454l181 1029h3l212 -1029h708l238 1350h-455l-181 -1005h-4l-205 1005h-713zM362 -257h762l29 161h-762z" />
    <glyph glyph-name="nmacronbelow" unicode="&#x1e49;" horiz-adv-x="1429" 
d="M-26 0h451l177 1011l-72 175h-347zM772 0h451l104 595q46 262 -14 431t-309 169q-271 0 -467.5 -172.5t-226.5 -339.5l204 -86q24 133 100 211.5t163 78.5q78 0 105 -55.5t-7 -245.5zM206 -257h762l29 161h-762z" />
    <glyph glyph-name="uni1E4C" unicode="&#x1e4c;" horiz-adv-x="1498" 
d="M634 -12q410 0 592 181t230 506q47 326 -61.5 507t-518.5 181t-592.5 -180.5t-230.5 -507.5q-47 -324 61.5 -505.5t519.5 -181.5zM688 296q-115 0 -168.5 53.5t-11.5 325.5q44 278 121.5 329t192.5 51q114 0 168.5 -51t10.5 -329q-44 -272 -121.5 -325.5t-191.5 -53.5z
M1028 1400q85 0 142 29.5t91 72.5t51.5 85.5t22.5 68.5h-213q-3 -15 -14.5 -35t-31.5 -34t-47 -14q-29 0 -52.5 13.5t-49 32t-59.5 32t-85 13.5q-88 0 -147 -28.5t-93 -71t-50.5 -84t-22.5 -68.5h215q4 15 13.5 35t29 34t51.5 14q29 0 52.5 -14.5t50 -33t61 -33t85.5 -14.5z
M692 1700h205l318 245h-304z" />
    <glyph glyph-name="uni1E4D" unicode="&#x1e4d;" horiz-adv-x="1452" 
d="M615 -9q376 0 554.5 164t219.5 444q39 274 -78 437.5t-493 163.5q-377 0 -556 -160.5t-219 -440.5q-39 -274 78 -441t494 -167zM663 294q-97 0 -147 55.5t-22 247.5q29 190 103.5 245t171.5 55q98 0 147.5 -54.5t21.5 -245.5q-29 -191 -103.5 -247t-171.5 -56zM975 1236
q85 0 142 29.5t91 72.5t51.5 85.5t22.5 68.5h-213q-3 -15 -14.5 -35t-31.5 -34t-47 -14q-29 0 -52.5 13.5t-49 32t-59.5 32t-85 13.5q-88 0 -147 -28.5t-93 -71t-50.5 -84t-22.5 -68.5h215q4 15 13.5 35t29 34t51.5 14q29 0 52.5 -14.5t50 -33t61 -33t85.5 -14.5zM639 1536
h205l318 245h-304z" />
    <glyph glyph-name="uni1E4E" unicode="&#x1e4e;" horiz-adv-x="1498" 
d="M634 -12q410 0 592 181t230 506q47 326 -61.5 507t-518.5 181t-592.5 -180.5t-230.5 -507.5q-47 -324 61.5 -505.5t519.5 -181.5zM688 296q-115 0 -168.5 53.5t-11.5 325.5q44 278 121.5 329t192.5 51q114 0 168.5 -51t10.5 -329q-44 -272 -121.5 -325.5t-191.5 -53.5z
M1028 1400q85 0 142 29.5t91 72.5t51.5 85.5t22.5 68.5h-213q-3 -15 -14.5 -35t-31.5 -34t-47 -14q-29 0 -52.5 13.5t-49 32t-59.5 32t-85 13.5q-88 0 -147 -28.5t-93 -71t-50.5 -84t-22.5 -68.5h215q4 15 13.5 35t29 34t51.5 14q29 0 52.5 -14.5t50 -33t61 -33t85.5 -14.5z
M696 1714q50 0 91.5 39t41.5 92q0 43 -28.5 72t-71.5 29q-52 0 -93 -39t-41 -92q0 -43 28 -72t73 -29zM1165 1714q52 0 92.5 39t40.5 92q0 43 -27.5 72t-72.5 29q-51 0 -92 -39t-41 -92q0 -43 28.5 -72t71.5 -29z" />
    <glyph glyph-name="uni1E4F" unicode="&#x1e4f;" horiz-adv-x="1452" 
d="M615 -9q376 0 554.5 164t219.5 444q39 274 -78 437.5t-493 163.5q-377 0 -556 -160.5t-219 -440.5q-39 -274 78 -441t494 -167zM663 294q-97 0 -147 55.5t-22 247.5q29 190 103.5 245t171.5 55q98 0 147.5 -54.5t21.5 -245.5q-29 -191 -103.5 -247t-171.5 -56zM975 1236
q85 0 142 29.5t91 72.5t51.5 85.5t22.5 68.5h-213q-3 -15 -14.5 -35t-31.5 -34t-47 -14q-29 0 -52.5 13.5t-49 32t-59.5 32t-85 13.5q-88 0 -147 -28.5t-93 -71t-50.5 -84t-22.5 -68.5h215q4 15 13.5 35t29 34t51.5 14q29 0 52.5 -14.5t50 -33t61 -33t85.5 -14.5zM643 1550
q50 0 91.5 39t41.5 92q0 43 -28.5 72t-71.5 29q-52 0 -93 -39t-41 -92q0 -43 28 -72t73 -29zM1112 1550q52 0 92.5 39t40.5 92q0 43 -27.5 72t-72.5 29q-51 0 -92 -39t-41 -92q0 -43 28.5 -72t71.5 -29z" />
    <glyph glyph-name="uni1E50" unicode="&#x1e50;" horiz-adv-x="1498" 
d="M634 -12q410 0 592 181t230 506q47 326 -61.5 507t-518.5 181t-592.5 -180.5t-230.5 -507.5q-47 -324 61.5 -505.5t519.5 -181.5zM688 296q-115 0 -168.5 53.5t-11.5 325.5q44 278 121.5 329t192.5 51q114 0 168.5 -51t10.5 -329q-44 -272 -121.5 -325.5t-191.5 -53.5z
M506 1437h762l29 161h-762zM969 1649h195l-134 245h-293z" />
    <glyph glyph-name="uni1E51" unicode="&#x1e51;" horiz-adv-x="1452" 
d="M615 -9q376 0 554.5 164t219.5 444q39 274 -78 437.5t-493 163.5q-377 0 -556 -160.5t-219 -440.5q-39 -274 78 -441t494 -167zM663 294q-97 0 -147 55.5t-22 247.5q29 190 103.5 245t171.5 55q98 0 147.5 -54.5t21.5 -245.5q-29 -191 -103.5 -247t-171.5 -56zM452 1273
h762l29 161h-762zM909 1476h195l-134 245h-293z" />
    <glyph glyph-name="uni1E52" unicode="&#x1e52;" horiz-adv-x="1498" 
d="M634 -12q410 0 592 181t230 506q47 326 -61.5 507t-518.5 181t-592.5 -180.5t-230.5 -507.5q-47 -324 61.5 -505.5t519.5 -181.5zM688 296q-115 0 -168.5 53.5t-11.5 325.5q44 278 121.5 329t192.5 51q114 0 168.5 -51t10.5 -329q-44 -272 -121.5 -325.5t-191.5 -53.5z
M506 1437h762l29 161h-762zM682 1640h205l318 245h-304z" />
    <glyph glyph-name="uni1E53" unicode="&#x1e53;" horiz-adv-x="1452" 
d="M615 -9q376 0 554.5 164t219.5 444q39 274 -78 437.5t-493 163.5q-377 0 -556 -160.5t-219 -440.5q-39 -274 78 -441t494 -167zM663 294q-97 0 -147 55.5t-22 247.5q29 190 103.5 245t171.5 55q98 0 147.5 -54.5t21.5 -245.5q-29 -191 -103.5 -247t-171.5 -56zM452 1273
h762l29 161h-762zM630 1476h205l318 245h-304z" />
    <glyph glyph-name="uni1E5A" unicode="&#x1e5a;" horiz-adv-x="1450" 
d="M-23 0h458l88 503h398q258 0 369 118.5t137 294.5q27 173 -30.5 303.5t-306.5 130.5h-875zM804 0h495l-233 637l-454 -15zM572 780l46 262h264q62 0 80 -32t5 -100q-11 -67 -40 -98.5t-91 -31.5h-264zM575 -329q51 0 86.5 35.5t35.5 85.5t-35.5 85.5t-85.5 35.5
t-85.5 -35.5t-35.5 -85.5t35 -85.5t85 -35.5z" />
    <glyph glyph-name="uni1E5B" unicode="&#x1e5b;" horiz-adv-x="1431" 
d="M875 575h451q55 316 -5.5 468.5t-323.5 152.5q-237 0 -408 -121t-203 -302l156 -93q15 82 78.5 145t148.5 63q73 0 107.5 -53t-1.5 -260zM-27 0h451l177 1001l-71 185h-348zM584 -360q51 0 86.5 35.5t35.5 85.5t-35.5 85.5t-85.5 35.5t-85.5 -35.5t-35.5 -85.5t35 -85.5
t85 -35.5z" />
    <glyph glyph-name="Rmacronbelow" unicode="&#x1e5e;" horiz-adv-x="1450" 
d="M-23 0h458l88 503h398q258 0 369 118.5t137 294.5q27 173 -30.5 303.5t-306.5 130.5h-875zM804 0h495l-233 637l-454 -15zM572 780l46 262h264q62 0 80 -32t5 -100q-11 -67 -40 -98.5t-91 -31.5h-264zM179 -257h762l29 161h-762z" />
    <glyph glyph-name="rmacronbelow" unicode="&#x1e5f;" horiz-adv-x="1431" 
d="M875 575h451q55 316 -5.5 468.5t-323.5 152.5q-237 0 -408 -121t-203 -302l156 -93q15 82 78.5 145t148.5 63q73 0 107.5 -53t-1.5 -260zM-27 0h451l177 1001l-71 185h-348zM199 -257h762l29 161h-762z" />
    <glyph glyph-name="uni1E60" unicode="&#x1e60;" horiz-adv-x="1474" 
d="M623 -7q398 0 562 136t185 327q20 161 -65 235t-402 135q-176 30 -267.5 48.5t-79.5 92.5q9 52 80 69t164 17q83 0 145.5 -21.5t40.5 -148.5h457q34 195 -79.5 337.5t-507.5 142.5q-395 0 -567.5 -134t-183.5 -318q-14 -152 70 -242t390 -148q164 -27 259.5 -46.5
t84.5 -83.5q-10 -56 -78 -74t-157 -18q-90 0 -150.5 23.5t-38.5 153.5h-457q-37 -208 75 -345.5t520 -137.5zM890 1393q51 0 86.5 35.5t35.5 85.5t-35.5 85.5t-85.5 35.5t-85.5 -35.5t-35.5 -85.5t35 -85.5t85 -35.5z" />
    <glyph glyph-name="uni1E61" unicode="&#x1e61;" horiz-adv-x="1437" 
d="M626 -9q251 0 457.5 91.5t238.5 305.5q28 184 -89 262t-349 99q-153 16 -249.5 25t-88.5 57q4 33 52 52.5t134 19.5q95 0 159.5 -38.5t82.5 -93.5l420 145q-28 155 -191 217.5t-421 62.5q-260 0 -456 -85t-224 -280q-28 -190 85 -274.5t331 -108.5q161 -18 262 -28.5
t93 -57.5q-6 -36 -59 -56.5t-140 -20.5q-112 0 -178 37t-82 97l-420 -147q34 -152 206.5 -216.5t425.5 -64.5zM831 1228q51 0 86.5 35.5t35.5 85.5t-35.5 85.5t-85.5 35.5t-85.5 -35.5t-35.5 -85.5t35 -85.5t85 -35.5z" />
    <glyph glyph-name="uni1E62" unicode="&#x1e62;" horiz-adv-x="1474" 
d="M623 -7q398 0 562 136t185 327q20 161 -65 235t-402 135q-176 30 -267.5 48.5t-79.5 92.5q9 52 80 69t164 17q83 0 145.5 -21.5t40.5 -148.5h457q34 195 -79.5 337.5t-507.5 142.5q-395 0 -567.5 -134t-183.5 -318q-14 -152 70 -242t390 -148q164 -27 259.5 -46.5
t84.5 -83.5q-10 -56 -78 -74t-157 -18q-90 0 -150.5 23.5t-38.5 153.5h-457q-37 -208 75 -345.5t520 -137.5zM588 -329q51 0 86.5 35.5t35.5 85.5t-35.5 85.5t-85.5 35.5t-85.5 -35.5t-35.5 -85.5t35 -85.5t85 -35.5z" />
    <glyph glyph-name="uni1E63" unicode="&#x1e63;" horiz-adv-x="1437" 
d="M626 -9q251 0 457.5 91.5t238.5 305.5q28 184 -89 262t-349 99q-153 16 -249.5 25t-88.5 57q4 33 52 52.5t134 19.5q95 0 159.5 -38.5t82.5 -93.5l420 145q-28 155 -191 217.5t-421 62.5q-260 0 -456 -85t-224 -280q-28 -190 85 -274.5t331 -108.5q161 -18 262 -28.5
t93 -57.5q-6 -36 -59 -56.5t-140 -20.5q-112 0 -178 37t-82 97l-420 -147q34 -152 206.5 -216.5t425.5 -64.5zM554 -360q51 0 86.5 35.5t35.5 85.5t-35.5 85.5t-85.5 35.5t-85.5 -35.5t-35.5 -85.5t35 -85.5t85 -35.5z" />
    <glyph glyph-name="uni1E64" unicode="&#x1e64;" horiz-adv-x="1474" 
d="M623 -7q398 0 562 136t185 327q20 161 -65 235t-402 135q-176 30 -267.5 48.5t-79.5 92.5q9 52 80 69t164 17q83 0 145.5 -21.5t40.5 -148.5h457q34 195 -79.5 337.5t-507.5 142.5q-395 0 -567.5 -134t-183.5 -318q-14 -152 70 -242t390 -148q164 -27 259.5 -46.5
t84.5 -83.5q-10 -56 -78 -74t-157 -18q-90 0 -150.5 23.5t-38.5 153.5h-457q-37 -208 75 -345.5t520 -137.5zM626 1393h205l318 245h-304zM941 1680q51 0 86.5 35.5t35.5 85.5t-35.5 85.5t-85.5 35.5t-85.5 -35.5t-35.5 -85.5t35 -85.5t85 -35.5z" />
    <glyph glyph-name="uni1E65" unicode="&#x1e65;" horiz-adv-x="1437" 
d="M626 -9q251 0 457.5 91.5t238.5 305.5q28 184 -89 262t-349 99q-153 16 -249.5 25t-88.5 57q4 33 52 52.5t134 19.5q95 0 159.5 -38.5t82.5 -93.5l420 145q-28 155 -191 217.5t-421 62.5q-260 0 -456 -85t-224 -280q-28 -190 85 -274.5t331 -108.5q161 -18 262 -28.5
t93 -57.5q-6 -36 -59 -56.5t-140 -20.5q-112 0 -178 37t-82 97l-420 -147q34 -152 206.5 -216.5t425.5 -64.5zM567 1228h205l318 245h-304zM882 1515q51 0 86.5 35.5t35.5 85.5t-35.5 85.5t-85.5 35.5t-85.5 -35.5t-35.5 -85.5t35 -85.5t85 -35.5z" />
    <glyph glyph-name="uni1E66" unicode="&#x1e66;" horiz-adv-x="1474" 
d="M623 -7q398 0 562 136t185 327q20 161 -65 235t-402 135q-176 30 -267.5 48.5t-79.5 92.5q9 52 80 69t164 17q83 0 145.5 -21.5t40.5 -148.5h457q34 195 -79.5 337.5t-507.5 142.5q-395 0 -567.5 -134t-183.5 -318q-14 -152 70 -242t390 -148q164 -27 259.5 -46.5
t84.5 -83.5q-10 -56 -78 -74t-157 -18q-90 0 -150.5 23.5t-38.5 153.5h-457q-37 -208 75 -345.5t520 -137.5zM726 1394h283l276 233h-255l-147 -147l-101 147h-251zM940 1669q51 0 86.5 35.5t35.5 85.5t-35.5 85.5t-85.5 35.5t-85.5 -35.5t-35.5 -85.5t35 -85.5t85 -35.5z
" />
    <glyph glyph-name="uni1E67" unicode="&#x1e67;" horiz-adv-x="1437" 
d="M626 -9q251 0 457.5 91.5t238.5 305.5q28 184 -89 262t-349 99q-153 16 -249.5 25t-88.5 57q4 33 52 52.5t134 19.5q95 0 159.5 -38.5t82.5 -93.5l420 145q-28 155 -191 217.5t-421 62.5q-260 0 -456 -85t-224 -280q-28 -190 85 -274.5t331 -108.5q161 -18 262 -28.5
t93 -57.5q-6 -36 -59 -56.5t-140 -20.5q-112 0 -178 37t-82 97l-420 -147q34 -152 206.5 -216.5t425.5 -64.5zM667 1229h283l276 233h-255l-147 -147l-101 147h-251zM881 1504q51 0 86.5 35.5t35.5 85.5t-35.5 85.5t-85.5 35.5t-85.5 -35.5t-35.5 -85.5t35 -85.5t85 -35.5z
" />
    <glyph glyph-name="uni1E68" unicode="&#x1e68;" horiz-adv-x="1474" 
d="M623 -7q398 0 562 136t185 327q20 161 -65 235t-402 135q-176 30 -267.5 48.5t-79.5 92.5q9 52 80 69t164 17q83 0 145.5 -21.5t40.5 -148.5h457q34 195 -79.5 337.5t-507.5 142.5q-395 0 -567.5 -134t-183.5 -318q-14 -152 70 -242t390 -148q164 -27 259.5 -46.5
t84.5 -83.5q-10 -56 -78 -74t-157 -18q-90 0 -150.5 23.5t-38.5 153.5h-457q-37 -208 75 -345.5t520 -137.5zM588 -329q51 0 86.5 35.5t35.5 85.5t-35.5 85.5t-85.5 35.5t-85.5 -35.5t-35.5 -85.5t35 -85.5t85 -35.5zM890 1393q51 0 86.5 35.5t35.5 85.5t-35.5 85.5
t-85.5 35.5t-85.5 -35.5t-35.5 -85.5t35 -85.5t85 -35.5z" />
    <glyph glyph-name="uni1E69" unicode="&#x1e69;" horiz-adv-x="1437" 
d="M626 -9q251 0 457.5 91.5t238.5 305.5q28 184 -89 262t-349 99q-153 16 -249.5 25t-88.5 57q4 33 52 52.5t134 19.5q95 0 159.5 -38.5t82.5 -93.5l420 145q-28 155 -191 217.5t-421 62.5q-260 0 -456 -85t-224 -280q-28 -190 85 -274.5t331 -108.5q161 -18 262 -28.5
t93 -57.5q-6 -36 -59 -56.5t-140 -20.5q-112 0 -178 37t-82 97l-420 -147q34 -152 206.5 -216.5t425.5 -64.5zM554 -360q51 0 86.5 35.5t35.5 85.5t-35.5 85.5t-85.5 35.5t-85.5 -35.5t-35.5 -85.5t35 -85.5t85 -35.5zM831 1228q51 0 86.5 35.5t35.5 85.5t-35.5 85.5
t-85.5 35.5t-85.5 -35.5t-35.5 -85.5t35 -85.5t85 -35.5z" />
    <glyph glyph-name="uni1E6C" unicode="&#x1e6c;" horiz-adv-x="1379" 
d="M351 0h457l183 1042h391l55 308h-1240l-55 -308h392zM555 -329q51 0 86.5 35.5t35.5 85.5t-35.5 85.5t-85.5 35.5t-85.5 -35.5t-35.5 -85.5t35 -85.5t85 -35.5z" />
    <glyph glyph-name="uni1E6D" unicode="&#x1e6d;" horiz-adv-x="1134" 
d="M617 -17q158 0 308 31l52 296q-77 -27 -152 -27q-66 0 -99 25t-18 110l82 460h340l55 308h-341l48 273h-452l-48 -273h-264l-54 -308h264l-99 -556q-33 -189 82 -264t296 -75zM559 -360q51 0 86.5 35.5t35.5 85.5t-35.5 85.5t-85.5 35.5t-85.5 -35.5t-35.5 -85.5
t35 -85.5t85 -35.5z" />
    <glyph glyph-name="Tmacronbelow" unicode="&#x1e6e;" horiz-adv-x="1379" 
d="M351 0h457l183 1042h391l55 308h-1240l-55 -308h392zM159 -257h762l29 161h-762z" />
    <glyph glyph-name="tmacronbelow" unicode="&#x1e6f;" horiz-adv-x="1134" 
d="M617 -17q158 0 308 31l52 296q-77 -27 -152 -27q-66 0 -99 25t-18 110l82 460h340l55 308h-341l48 273h-452l-48 -273h-264l-54 -308h264l-99 -556q-33 -189 82 -264t296 -75zM174 -257h762l29 161h-762z" />
    <glyph glyph-name="uni1E78" unicode="&#x1e78;" horiz-adv-x="1509" 
d="M639 -7q346 0 531 110.5t231 369.5l154 877h-457l-146 -830q-21 -121 -74 -170t-184 -49q-130 0 -165.5 49.5t-14.5 169.5l146 830h-457l-154 -877q-46 -259 99.5 -369.5t490.5 -110.5zM1048 1400q85 0 142 29.5t91 72.5t51.5 85.5t22.5 68.5h-213q-3 -15 -14.5 -35
t-31.5 -34t-47 -14q-29 0 -52.5 13.5t-49 32t-59.5 32t-85 13.5q-88 0 -147 -28.5t-93 -71t-50.5 -84t-22.5 -68.5h215q4 15 13.5 35t29 34t51.5 14q29 0 52.5 -14.5t50 -33t61 -33t85.5 -14.5zM712 1700h205l318 245h-304z" />
    <glyph glyph-name="uni1E79" unicode="&#x1e79;" horiz-adv-x="1426" 
d="M860 0h345l209 1186h-451l-178 -1006zM603 1186h-451l-107 -609q-46 -261 13 -423.5t313 -162.5q293 0 478.5 173t214.5 339l-206 78q-23 -134 -100.5 -208t-165.5 -74q-78 0 -102 55.5t10 246.5zM962 1236q85 0 142 29.5t91 72.5t51.5 85.5t22.5 68.5h-213
q-3 -15 -14.5 -35t-31.5 -34t-47 -14q-29 0 -52.5 13.5t-49 32t-59.5 32t-85 13.5q-88 0 -147 -28.5t-93 -71t-50.5 -84t-22.5 -68.5h215q4 15 13.5 35t29 34t51.5 14q29 0 52.5 -14.5t50 -33t61 -33t85.5 -14.5zM626 1536h205l318 245h-304z" />
    <glyph glyph-name="uni1E7A" unicode="&#x1e7a;" horiz-adv-x="1509" 
d="M639 -7q346 0 531 110.5t231 369.5l154 877h-457l-146 -830q-21 -121 -74 -170t-184 -49q-130 0 -165.5 49.5t-14.5 169.5l146 830h-457l-154 -877q-46 -259 99.5 -369.5t490.5 -110.5zM526 1437h762l29 161h-762zM707 1654q50 0 91.5 39t41.5 92q0 43 -28.5 72t-71.5 29
q-52 0 -93 -39t-41 -92q0 -43 28 -72t73 -29zM1176 1654q52 0 92.5 39t40.5 92q0 43 -27.5 72t-72.5 29q-51 0 -92 -39t-41 -92q0 -43 28.5 -72t71.5 -29z" />
    <glyph glyph-name="uni1E7B" unicode="&#x1e7b;" horiz-adv-x="1426" 
d="M860 0h345l209 1186h-451l-178 -1006zM603 1186h-451l-107 -609q-46 -261 13 -423.5t313 -162.5q293 0 478.5 173t214.5 339l-206 78q-23 -134 -100.5 -208t-165.5 -74q-78 0 -102 55.5t10 246.5zM439 1273h762l29 161h-762zM620 1490q50 0 91.5 39t41.5 92
q0 43 -28.5 72t-71.5 29q-52 0 -93 -39t-41 -92q0 -43 28 -72t73 -29zM1089 1490q52 0 92.5 39t40.5 92q0 43 -27.5 72t-72.5 29q-51 0 -92 -39t-41 -92q0 -43 28.5 -72t71.5 -29z" />
    <glyph glyph-name="Wgrave" unicode="&#x1e80;" horiz-adv-x="2219" 
d="M147 0h694l328 1042h3l-43 -1042h696l476 1350h-500l-299 -1020h-3l15 1020h-595l-344 -1019h-3l68 1019h-484zM1281 1392h195l-134 245h-293z" />
    <glyph glyph-name="wgrave" unicode="&#x1e81;" horiz-adv-x="2098" 
d="M196 0h601l268 734l10 -734h596l475 1186h-472l-269 -889h-3l-36 889h-447l-355 -892h-3l40 892h-462zM1200 1228h195l-134 245h-293z" />
    <glyph glyph-name="Wacute" unicode="&#x1e82;" horiz-adv-x="2219" 
d="M147 0h694l328 1042h3l-43 -1042h696l476 1350h-500l-299 -1020h-3l15 1020h-595l-344 -1019h-3l68 1019h-484zM1001 1392h205l318 245h-304z" />
    <glyph glyph-name="wacute" unicode="&#x1e83;" horiz-adv-x="2098" 
d="M196 0h601l268 734l10 -734h596l475 1186h-472l-269 -889h-3l-36 889h-447l-355 -892h-3l40 892h-462zM920 1228h205l318 245h-304z" />
    <glyph glyph-name="Wdieresis" unicode="&#x1e84;" horiz-adv-x="2219" 
d="M147 0h694l328 1042h3l-43 -1042h696l476 1350h-500l-299 -1020h-3l15 1020h-595l-344 -1019h-3l68 1019h-484zM1005 1406q50 0 91.5 39t41.5 92q0 43 -28.5 72t-71.5 29q-52 0 -93 -39t-41 -92q0 -43 28 -72t73 -29zM1474 1406q52 0 92.5 39t40.5 92q0 43 -27.5 72
t-72.5 29q-51 0 -92 -39t-41 -92q0 -43 28.5 -72t71.5 -29z" />
    <glyph glyph-name="wdieresis" unicode="&#x1e85;" horiz-adv-x="2098" 
d="M196 0h601l268 734l10 -734h596l475 1186h-472l-269 -889h-3l-36 889h-447l-355 -892h-3l40 892h-462zM923 1242q50 0 91.5 39t41.5 92q0 43 -28.5 72t-71.5 29q-52 0 -93 -39t-41 -92q0 -43 28 -72t73 -29zM1392 1242q52 0 92.5 39t40.5 92q0 43 -27.5 72t-72.5 29
q-51 0 -92 -39t-41 -92q0 -43 28.5 -72t71.5 -29z" />
    <glyph glyph-name="uni1E8E" unicode="&#x1e8e;" horiz-adv-x="1539" 
d="M427 0h456l84 479l694 871h-499l-364 -520h-3l-184 520h-489l388 -873zM939 1392q51 0 86.5 35.5t35.5 85.5t-35.5 85.5t-85.5 35.5t-85.5 -35.5t-35.5 -85.5t35 -85.5t85 -35.5z" />
    <glyph glyph-name="uni1E8F" unicode="&#x1e8f;" horiz-adv-x="1393" 
d="M244 0h690l531 1186h-472l-353 -894h-2l-41 894h-471zM-47 -469q377 0 607.5 82t373.5 387l-418 1q-49 -111 -160.5 -139t-349.5 -28zM835 1228q51 0 86.5 35.5t35.5 85.5t-35.5 85.5t-85.5 35.5t-85.5 -35.5t-35.5 -85.5t35 -85.5t85 -35.5z" />
    <glyph glyph-name="uni1E92" unicode="&#x1e92;" horiz-adv-x="1252" 
d="M-55 0h1115l54 307h-608l727 736l55 307h-1090l-53 -305h583l-727 -728zM499 -329q51 0 86.5 35.5t35.5 85.5t-35.5 85.5t-85.5 35.5t-85.5 -35.5t-35.5 -85.5t35 -85.5t85 -35.5z" />
    <glyph glyph-name="uni1E93" unicode="&#x1e93;" horiz-adv-x="1192" 
d="M-35 0h1045l54 306h-504l1 2l596 579l53 299h-1036l-54 -306h512l-1 -1l-612 -578zM456 -360q51 0 86.5 35.5t35.5 85.5t-35.5 85.5t-85.5 35.5t-85.5 -35.5t-35.5 -85.5t35 -85.5t85 -35.5z" />
    <glyph glyph-name="uni1E97" unicode="&#x1e97;" horiz-adv-x="1134" 
d="M617 -17q158 0 308 31l52 296q-77 -27 -152 -27q-66 0 -99 25t-18 110l82 460h340l55 308h-341l48 273h-452l-48 -273h-264l-54 -308h264l-99 -556q-33 -189 82 -264t296 -75zM459 1515q50 0 91.5 39t41.5 92q0 43 -28.5 72t-71.5 29q-52 0 -93 -39t-41 -92q0 -43 28 -72
t73 -29zM928 1515q52 0 92.5 39t40.5 92q0 43 -27.5 72t-72.5 29q-51 0 -92 -39t-41 -92q0 -43 28.5 -72t71.5 -29z" />
    <glyph glyph-name="uni1E9E" unicode="&#x1e9e;" horiz-adv-x="1430" 
d="M-23 0h455l181 1031h242l-170 -190l-46 -270q44 -3 85.5 -10.5t74.5 -22.5t49 -41t9 -64q-9 -56 -37 -84.5t-83 -38.5t-145 -11l-53 -299q226 1 371 28.5t228.5 80.5t124 130.5t57.5 179.5q13 72 3 127t-43 95t-88 64.5t-134 36.5l315 316l52 292h-1210z" />
    <glyph glyph-name="uni1EA0" unicode="&#x1ea0;" horiz-adv-x="1574" 
d="M-51 0h469l120 289h392l17 -289h470l-176 1351h-643zM663 587l210 499h4l33 -499h-247zM644 -329q51 0 86.5 35.5t35.5 85.5t-35.5 85.5t-85.5 35.5t-85.5 -35.5t-35.5 -85.5t35 -85.5t85 -35.5z" />
    <glyph glyph-name="uni1EA1" unicode="&#x1ea1;" horiz-adv-x="1457" 
d="M437 -14q70 0 136 11t123 30t100 43.5t67 52.5l18 -123h375l129 727q31 173 -27.5 276t-198.5 149t-354 46q-112 0 -218 -16t-198.5 -51t-163 -94t-111.5 -145l419 -125q24 52 62 80.5t82 39.5t87 11q62 0 103 -12.5t58.5 -44.5t9.5 -89l-5 -27h-363q-76 0 -153.5 -9.5
t-147.5 -34t-126 -67t-91.5 -109t-43.5 -159.5q-15 -137 29.5 -215.5t146 -111.5t256.5 -33zM587 272q-46 0 -75 9t-40 32t-6 66q4 34 16.5 55t33 31.5t49.5 14.5t67 4h249l-22 -128q-26 -25 -71 -44t-98 -29.5t-103 -10.5zM589 -360q51 0 86.5 35.5t35.5 85.5t-35.5 85.5
t-85.5 35.5t-85.5 -35.5t-35.5 -85.5t35 -85.5t85 -35.5z" />
    <glyph glyph-name="uni1EA2" unicode="&#x1ea2;" horiz-adv-x="1574" 
d="M-51 0h469l120 289h392l17 -289h470l-176 1351h-643zM663 587l210 499h4l33 -499h-247zM838 1741l-24 -131q110 0 169.5 -1t82 -5.5t21.5 -13.5q-1 -8 -23 -13.5t-64 -7.5t-106 -2l-28 -157h154l11 56q46 0 92 7.5t85 23.5t63.5 42.5t28.5 64.5q3 38 -19 64.5t-75.5 42.5
t-144 23t-223.5 7z" />
    <glyph glyph-name="uni1EA3" unicode="&#x1ea3;" horiz-adv-x="1457" 
d="M437 -14q70 0 136 11t123 30t100 43.5t67 52.5l18 -123h375l129 727q31 173 -27.5 276t-198.5 149t-354 46q-112 0 -218 -16t-198.5 -51t-163 -94t-111.5 -145l419 -125q24 52 62 80.5t82 39.5t87 11q62 0 103 -12.5t58.5 -44.5t9.5 -89l-5 -27h-363q-76 0 -153.5 -9.5
t-147.5 -34t-126 -67t-91.5 -109t-43.5 -159.5q-15 -137 29.5 -215.5t146 -111.5t256.5 -33zM587 272q-46 0 -75 9t-40 32t-6 66q4 34 16.5 55t33 31.5t49.5 14.5t67 4h249l-22 -128q-26 -25 -71 -44t-98 -29.5t-103 -10.5zM724 1577l-24 -131q110 0 169.5 -1t82 -5.5
t21.5 -13.5q-1 -8 -23 -13.5t-64 -7.5t-106 -2l-28 -157h154l11 56q46 0 92 7.5t85 23.5t63.5 42.5t28.5 64.5q3 38 -19 64.5t-75.5 42.5t-144 23t-223.5 7z" />
    <glyph glyph-name="uni1EA4" unicode="&#x1ea4;" horiz-adv-x="1574" 
d="M-51 0h469l120 289h392l17 -289h470l-176 1351h-643zM663 587l210 499h4l33 -499h-247zM568 1414h252l150 148l98 -148h254l-196 233h-283zM1183 1602h205l318 245h-304z" />
    <glyph glyph-name="uni1EA5" unicode="&#x1ea5;" horiz-adv-x="1457" 
d="M437 -14q70 0 136 11t123 30t100 43.5t67 52.5l18 -123h375l129 727q31 173 -27.5 276t-198.5 149t-354 46q-112 0 -218 -16t-198.5 -51t-163 -94t-111.5 -145l419 -125q24 52 62 80.5t82 39.5t87 11q62 0 103 -12.5t58.5 -44.5t9.5 -89l-5 -27h-363q-76 0 -153.5 -9.5
t-147.5 -34t-126 -67t-91.5 -109t-43.5 -159.5q-15 -137 29.5 -215.5t146 -111.5t256.5 -33zM587 272q-46 0 -75 9t-40 32t-6 66q4 34 16.5 55t33 31.5t49.5 14.5t67 4h249l-22 -128q-26 -25 -71 -44t-98 -29.5t-103 -10.5zM462 1250h252l150 148l98 -148h254l-196 233h-283
zM1077 1438h205l318 245h-304z" />
    <glyph glyph-name="uni1EA6" unicode="&#x1ea6;" horiz-adv-x="1574" 
d="M-51 0h469l120 289h392l17 -289h470l-176 1351h-643zM663 587l210 499h4l33 -499h-247zM570 1414h252l150 148l98 -148h254l-196 233h-283zM1272 1602h195l-134 245h-293z" />
    <glyph glyph-name="uni1EA7" unicode="&#x1ea7;" horiz-adv-x="1457" 
d="M437 -14q70 0 136 11t123 30t100 43.5t67 52.5l18 -123h375l129 727q31 173 -27.5 276t-198.5 149t-354 46q-112 0 -218 -16t-198.5 -51t-163 -94t-111.5 -145l419 -125q24 52 62 80.5t82 39.5t87 11q62 0 103 -12.5t58.5 -44.5t9.5 -89l-5 -27h-363q-76 0 -153.5 -9.5
t-147.5 -34t-126 -67t-91.5 -109t-43.5 -159.5q-15 -137 29.5 -215.5t146 -111.5t256.5 -33zM587 272q-46 0 -75 9t-40 32t-6 66q4 34 16.5 55t33 31.5t49.5 14.5t67 4h249l-22 -128q-26 -25 -71 -44t-98 -29.5t-103 -10.5zM463 1250h252l150 148l98 -148h254l-196 233h-283
zM1165 1438h195l-134 245h-293z" />
    <glyph glyph-name="uni1EA8" unicode="&#x1ea8;" horiz-adv-x="1574" 
d="M-51 0h469l120 289h392l17 -289h470l-176 1351h-643zM663 587l210 499h4l33 -499h-247zM564 1403h252l150 148l98 -148h254l-196 233h-283zM879 2027l-24 -131q110 0 169.5 -1t82 -5.5t21.5 -13.5q-1 -8 -23 -13.5t-64 -7.5t-106 -2l-28 -157h154l11 56q46 0 92 7.5
t85 23.5t63.5 42.5t28.5 64.5q3 38 -19 64.5t-75.5 42.5t-144 23t-223.5 7z" />
    <glyph glyph-name="uni1EA9" unicode="&#x1ea9;" horiz-adv-x="1457" 
d="M437 -14q70 0 136 11t123 30t100 43.5t67 52.5l18 -123h375l129 727q31 173 -27.5 276t-198.5 149t-354 46q-112 0 -218 -16t-198.5 -51t-163 -94t-111.5 -145l419 -125q24 52 62 80.5t82 39.5t87 11q62 0 103 -12.5t58.5 -44.5t9.5 -89l-5 -27h-363q-76 0 -153.5 -9.5
t-147.5 -34t-126 -67t-91.5 -109t-43.5 -159.5q-15 -137 29.5 -215.5t146 -111.5t256.5 -33zM587 272q-46 0 -75 9t-40 32t-6 66q4 34 16.5 55t33 31.5t49.5 14.5t67 4h249l-22 -128q-26 -25 -71 -44t-98 -29.5t-103 -10.5zM458 1239h252l150 148l98 -148h254l-196 233h-283
zM772 1863l-24 -131q110 0 169.5 -1t82 -5.5t21.5 -13.5q-1 -8 -23 -13.5t-64 -7.5t-106 -2l-28 -157h154l11 56q46 0 92 7.5t85 23.5t63.5 42.5t28.5 64.5q3 38 -19 64.5t-75.5 42.5t-144 23t-223.5 7z" />
    <glyph glyph-name="uni1EAA" unicode="&#x1eaa;" horiz-adv-x="1574" 
d="M-51 0h469l120 289h392l17 -289h470l-176 1351h-643zM663 587l210 499h4l33 -499h-247zM564 1403h252l150 148l98 -148h254l-196 233h-283zM1137 1686q85 0 142 29.5t91 72.5t51.5 85.5t22.5 68.5h-213q-3 -15 -14.5 -35t-31.5 -34t-47 -14q-29 0 -52.5 13.5t-49 32
t-59.5 32t-85 13.5q-88 0 -147 -28.5t-93 -71t-50.5 -84t-22.5 -68.5h215q4 15 13.5 35t29 34t51.5 14q29 0 52.5 -14.5t50 -33t61 -33t85.5 -14.5z" />
    <glyph glyph-name="uni1EAB" unicode="&#x1eab;" horiz-adv-x="1457" 
d="M437 -14q70 0 136 11t123 30t100 43.5t67 52.5l18 -123h375l129 727q31 173 -27.5 276t-198.5 149t-354 46q-112 0 -218 -16t-198.5 -51t-163 -94t-111.5 -145l419 -125q24 52 62 80.5t82 39.5t87 11q62 0 103 -12.5t58.5 -44.5t9.5 -89l-5 -27h-363q-76 0 -153.5 -9.5
t-147.5 -34t-126 -67t-91.5 -109t-43.5 -159.5q-15 -137 29.5 -215.5t146 -111.5t256.5 -33zM587 272q-46 0 -75 9t-40 32t-6 66q4 34 16.5 55t33 31.5t49.5 14.5t67 4h249l-22 -128q-26 -25 -71 -44t-98 -29.5t-103 -10.5zM458 1239h252l150 148l98 -148h254l-196 233h-283
zM1031 1522q85 0 142 29.5t91 72.5t51.5 85.5t22.5 68.5h-213q-3 -15 -14.5 -35t-31.5 -34t-47 -14q-29 0 -52.5 13.5t-49 32t-59.5 32t-85 13.5q-88 0 -147 -28.5t-93 -71t-50.5 -84t-22.5 -68.5h215q4 15 13.5 35t29 34t51.5 14q29 0 52.5 -14.5t50 -33t61 -33t85.5 -14.5
z" />
    <glyph glyph-name="uni1EAC" unicode="&#x1eac;" horiz-adv-x="1574" 
d="M-51 0h469l120 289h392l17 -289h470l-176 1351h-643zM663 587l210 499h4l33 -499h-247zM644 -329q51 0 86.5 35.5t35.5 85.5t-35.5 85.5t-85.5 35.5t-85.5 -35.5t-35.5 -85.5t35 -85.5t85 -35.5zM564 1403h252l150 148l98 -148h254l-196 233h-283z" />
    <glyph glyph-name="uni1EAD" unicode="&#x1ead;" horiz-adv-x="1457" 
d="M437 -14q70 0 136 11t123 30t100 43.5t67 52.5l18 -123h375l129 727q31 173 -27.5 276t-198.5 149t-354 46q-112 0 -218 -16t-198.5 -51t-163 -94t-111.5 -145l419 -125q24 52 62 80.5t82 39.5t87 11q62 0 103 -12.5t58.5 -44.5t9.5 -89l-5 -27h-363q-76 0 -153.5 -9.5
t-147.5 -34t-126 -67t-91.5 -109t-43.5 -159.5q-15 -137 29.5 -215.5t146 -111.5t256.5 -33zM587 272q-46 0 -75 9t-40 32t-6 66q4 34 16.5 55t33 31.5t49.5 14.5t67 4h249l-22 -128q-26 -25 -71 -44t-98 -29.5t-103 -10.5zM589 -360q51 0 86.5 35.5t35.5 85.5t-35.5 85.5
t-85.5 35.5t-85.5 -35.5t-35.5 -85.5t35 -85.5t85 -35.5zM458 1239h252l150 148l98 -148h254l-196 233h-283z" />
    <glyph glyph-name="uni1EAE" unicode="&#x1eae;" horiz-adv-x="1574" 
d="M-51 0h469l120 289h392l17 -289h470l-176 1351h-643zM663 587l210 499h4l33 -499h-247zM944 1409q93 0 164.5 31t117 82.5t55.5 114.5h-207q-5 -28 -17 -47t-33.5 -28t-54.5 -9q-29 0 -47.5 9t-25.5 27.5t-2 47.5h-208q-10 -63 17 -114.5t88.5 -82.5t152.5 -31zM751 1679
h205l318 245h-304z" />
    <glyph glyph-name="uni1EAF" unicode="&#x1eaf;" horiz-adv-x="1457" 
d="M437 -14q70 0 136 11t123 30t100 43.5t67 52.5l18 -123h375l129 727q31 173 -27.5 276t-198.5 149t-354 46q-112 0 -218 -16t-198.5 -51t-163 -94t-111.5 -145l419 -125q24 52 62 80.5t82 39.5t87 11q62 0 103 -12.5t58.5 -44.5t9.5 -89l-5 -27h-363q-76 0 -153.5 -9.5
t-147.5 -34t-126 -67t-91.5 -109t-43.5 -159.5q-15 -137 29.5 -215.5t146 -111.5t256.5 -33zM587 272q-46 0 -75 9t-40 32t-6 66q4 34 16.5 55t33 31.5t49.5 14.5t67 4h249l-22 -128q-26 -25 -71 -44t-98 -29.5t-103 -10.5zM837 1245q93 0 164.5 31t117 82.5t55.5 114.5
h-207q-5 -28 -17 -47t-33.5 -28t-54.5 -9q-29 0 -47.5 9t-25.5 27.5t-2 47.5h-208q-10 -63 17 -114.5t88.5 -82.5t152.5 -31zM644 1515h205l318 245h-304z" />
    <glyph glyph-name="uni1EB0" unicode="&#x1eb0;" horiz-adv-x="1574" 
d="M-51 0h469l120 289h392l17 -289h470l-176 1351h-643zM663 587l210 499h4l33 -499h-247zM944 1409q93 0 164.5 31t117 82.5t55.5 114.5h-207q-5 -28 -17 -47t-33.5 -28t-54.5 -9q-29 0 -47.5 9t-25.5 27.5t-2 47.5h-208q-10 -63 17 -114.5t88.5 -82.5t152.5 -31z
M1031 1679h195l-134 245h-293z" />
    <glyph glyph-name="uni1EB1" unicode="&#x1eb1;" horiz-adv-x="1457" 
d="M437 -14q70 0 136 11t123 30t100 43.5t67 52.5l18 -123h375l129 727q31 173 -27.5 276t-198.5 149t-354 46q-112 0 -218 -16t-198.5 -51t-163 -94t-111.5 -145l419 -125q24 52 62 80.5t82 39.5t87 11q62 0 103 -12.5t58.5 -44.5t9.5 -89l-5 -27h-363q-76 0 -153.5 -9.5
t-147.5 -34t-126 -67t-91.5 -109t-43.5 -159.5q-15 -137 29.5 -215.5t146 -111.5t256.5 -33zM587 272q-46 0 -75 9t-40 32t-6 66q4 34 16.5 55t33 31.5t49.5 14.5t67 4h249l-22 -128q-26 -25 -71 -44t-98 -29.5t-103 -10.5zM837 1245q93 0 164.5 31t117 82.5t55.5 114.5
h-207q-5 -28 -17 -47t-33.5 -28t-54.5 -9q-29 0 -47.5 9t-25.5 27.5t-2 47.5h-208q-10 -63 17 -114.5t88.5 -82.5t152.5 -31zM924 1515h195l-134 245h-293z" />
    <glyph glyph-name="uni1EB2" unicode="&#x1eb2;" horiz-adv-x="1574" 
d="M-51 0h469l120 289h392l17 -289h470l-176 1351h-643zM663 587l210 499h4l33 -499h-247zM944 1409q93 0 164.5 31t117 82.5t55.5 114.5h-207q-5 -28 -17 -47t-33.5 -28t-54.5 -9q-29 0 -47.5 9t-25.5 27.5t-2 47.5h-208q-10 -63 17 -114.5t88.5 -82.5t152.5 -31zM881 2028
l-24 -131q110 0 169.5 -1t82 -5.5t21.5 -13.5q-1 -8 -23 -13.5t-64 -7.5t-106 -2l-28 -157h154l11 56q46 0 92 7.5t85 23.5t63.5 42.5t28.5 64.5q3 38 -19 64.5t-75.5 42.5t-144 23t-223.5 7z" />
    <glyph glyph-name="uni1EB3" unicode="&#x1eb3;" horiz-adv-x="1457" 
d="M437 -14q70 0 136 11t123 30t100 43.5t67 52.5l18 -123h375l129 727q31 173 -27.5 276t-198.5 149t-354 46q-112 0 -218 -16t-198.5 -51t-163 -94t-111.5 -145l419 -125q24 52 62 80.5t82 39.5t87 11q62 0 103 -12.5t58.5 -44.5t9.5 -89l-5 -27h-363q-76 0 -153.5 -9.5
t-147.5 -34t-126 -67t-91.5 -109t-43.5 -159.5q-15 -137 29.5 -215.5t146 -111.5t256.5 -33zM587 272q-46 0 -75 9t-40 32t-6 66q4 34 16.5 55t33 31.5t49.5 14.5t67 4h249l-22 -128q-26 -25 -71 -44t-98 -29.5t-103 -10.5zM837 1245q93 0 164.5 31t117 82.5t55.5 114.5
h-207q-5 -28 -17 -47t-33.5 -28t-54.5 -9q-29 0 -47.5 9t-25.5 27.5t-2 47.5h-208q-10 -63 17 -114.5t88.5 -82.5t152.5 -31zM774 1864l-24 -131q110 0 169.5 -1t82 -5.5t21.5 -13.5q-1 -8 -23 -13.5t-64 -7.5t-106 -2l-28 -157h154l11 56q46 0 92 7.5t85 23.5t63.5 42.5
t28.5 64.5q3 38 -19 64.5t-75.5 42.5t-144 23t-223.5 7z" />
    <glyph glyph-name="uni1EB4" unicode="&#x1eb4;" horiz-adv-x="1574" 
d="M-51 0h469l120 289h392l17 -289h470l-176 1351h-643zM663 587l210 499h4l33 -499h-247zM944 1409q93 0 164.5 31t117 82.5t55.5 114.5h-207q-5 -28 -17 -47t-33.5 -28t-54.5 -9q-29 0 -47.5 9t-25.5 27.5t-2 47.5h-208q-10 -63 17 -114.5t88.5 -82.5t152.5 -31z
M1139 1687q85 0 142 29.5t91 72.5t51.5 85.5t22.5 68.5h-213q-3 -15 -14.5 -35t-31.5 -34t-47 -14q-29 0 -52.5 13.5t-49 32t-59.5 32t-85 13.5q-88 0 -147 -28.5t-93 -71t-50.5 -84t-22.5 -68.5h215q4 15 13.5 35t29 34t51.5 14q29 0 52.5 -14.5t50 -33t61 -33t85.5 -14.5z
" />
    <glyph glyph-name="uni1EB5" unicode="&#x1eb5;" horiz-adv-x="1457" 
d="M437 -14q70 0 136 11t123 30t100 43.5t67 52.5l18 -123h375l129 727q31 173 -27.5 276t-198.5 149t-354 46q-112 0 -218 -16t-198.5 -51t-163 -94t-111.5 -145l419 -125q24 52 62 80.5t82 39.5t87 11q62 0 103 -12.5t58.5 -44.5t9.5 -89l-5 -27h-363q-76 0 -153.5 -9.5
t-147.5 -34t-126 -67t-91.5 -109t-43.5 -159.5q-15 -137 29.5 -215.5t146 -111.5t256.5 -33zM587 272q-46 0 -75 9t-40 32t-6 66q4 34 16.5 55t33 31.5t49.5 14.5t67 4h249l-22 -128q-26 -25 -71 -44t-98 -29.5t-103 -10.5zM837 1245q93 0 164.5 31t117 82.5t55.5 114.5
h-207q-5 -28 -17 -47t-33.5 -28t-54.5 -9q-29 0 -47.5 9t-25.5 27.5t-2 47.5h-208q-10 -63 17 -114.5t88.5 -82.5t152.5 -31zM1033 1523q85 0 142 29.5t91 72.5t51.5 85.5t22.5 68.5h-213q-3 -15 -14.5 -35t-31.5 -34t-47 -14q-29 0 -52.5 13.5t-49 32t-59.5 32t-85 13.5
q-88 0 -147 -28.5t-93 -71t-50.5 -84t-22.5 -68.5h215q4 15 13.5 35t29 34t51.5 14q29 0 52.5 -14.5t50 -33t61 -33t85.5 -14.5z" />
    <glyph glyph-name="uni1EB6" unicode="&#x1eb6;" horiz-adv-x="1574" 
d="M-51 0h469l120 289h392l17 -289h470l-176 1351h-643zM663 587l210 499h4l33 -499h-247zM644 -329q51 0 86.5 35.5t35.5 85.5t-35.5 85.5t-85.5 35.5t-85.5 -35.5t-35.5 -85.5t35 -85.5t85 -35.5zM944 1409q93 0 164.5 31t117 82.5t55.5 114.5h-207q-5 -28 -17 -47
t-33.5 -28t-54.5 -9q-29 0 -47.5 9t-25.5 27.5t-2 47.5h-208q-10 -63 17 -114.5t88.5 -82.5t152.5 -31z" />
    <glyph glyph-name="uni1EB7" unicode="&#x1eb7;" horiz-adv-x="1457" 
d="M437 -14q70 0 136 11t123 30t100 43.5t67 52.5l18 -123h375l129 727q31 173 -27.5 276t-198.5 149t-354 46q-112 0 -218 -16t-198.5 -51t-163 -94t-111.5 -145l419 -125q24 52 62 80.5t82 39.5t87 11q62 0 103 -12.5t58.5 -44.5t9.5 -89l-5 -27h-363q-76 0 -153.5 -9.5
t-147.5 -34t-126 -67t-91.5 -109t-43.5 -159.5q-15 -137 29.5 -215.5t146 -111.5t256.5 -33zM587 272q-46 0 -75 9t-40 32t-6 66q4 34 16.5 55t33 31.5t49.5 14.5t67 4h249l-22 -128q-26 -25 -71 -44t-98 -29.5t-103 -10.5zM589 -360q51 0 86.5 35.5t35.5 85.5t-35.5 85.5
t-85.5 35.5t-85.5 -35.5t-35.5 -85.5t35 -85.5t85 -35.5zM837 1245q93 0 164.5 31t117 82.5t55.5 114.5h-207q-5 -28 -17 -47t-33.5 -28t-54.5 -9q-29 0 -47.5 9t-25.5 27.5t-2 47.5h-208q-10 -63 17 -114.5t88.5 -82.5t152.5 -31z" />
    <glyph glyph-name="uni1EB8" unicode="&#x1eb8;" horiz-adv-x="1213" 
d="M-44 0h1067l54 308h-609l39 224h560l52 293h-560l38 217h609l55 308h-1067zM465 -329q51 0 86.5 35.5t35.5 85.5t-35.5 85.5t-85.5 35.5t-85.5 -35.5t-35.5 -85.5t35 -85.5t85 -35.5z" />
    <glyph glyph-name="uni1EB9" unicode="&#x1eb9;" horiz-adv-x="1448" 
d="M624 -12l51 288q-108 0 -165 54q-59 52 -21 261q36 205 111 263q76 57 179 57q105 0 155 -49q27 -36 24 -133h-483l-47 -269h932q19 58 31 131q47 267 -62 438q-109 170 -500 170q-379 0 -554 -167q-174 -166 -223 -440q-48 -275 69 -440q116 -164 503 -164zM675 276
l-51 -288q202 0 317 31q113 30 208 91q94 59 140 172l-382 116q-33 -43 -61 -71q-30 -27 -67 -39q-39 -12 -104 -12zM586 -360q51 0 86.5 35.5t35.5 85.5t-35.5 85.5t-85.5 35.5t-85.5 -35.5t-35.5 -85.5t35 -85.5t85 -35.5z" />
    <glyph glyph-name="uni1EBA" unicode="&#x1eba;" horiz-adv-x="1213" 
d="M-44 0h1067l54 308h-609l39 224h560l52 293h-560l38 217h609l55 308h-1067zM642 1741l-24 -131q110 0 169.5 -1t82 -5.5t21.5 -13.5q-1 -8 -23 -13.5t-64 -7.5t-106 -2l-28 -157h154l11 56q46 0 92 7.5t85 23.5t63.5 42.5t28.5 64.5q3 38 -19 64.5t-75.5 42.5t-144 23
t-223.5 7z" />
    <glyph glyph-name="uni1EBB" unicode="&#x1ebb;" horiz-adv-x="1448" 
d="M624 -12l51 288q-108 0 -165 54q-59 52 -21 261q36 205 111 263q76 57 179 57q105 0 155 -49q27 -36 24 -133h-483l-47 -269h932q19 58 31 131q47 267 -62 438q-109 170 -500 170q-379 0 -554 -167q-174 -166 -223 -440q-48 -275 69 -440q116 -164 503 -164zM675 276
l-51 -288q202 0 317 31q113 30 208 91q94 59 140 172l-382 116q-33 -43 -61 -71q-30 -27 -67 -39q-39 -12 -104 -12zM729 1577l-24 -131q110 0 169.5 -1t82 -5.5t21.5 -13.5q-1 -8 -23 -13.5t-64 -7.5t-106 -2l-28 -157h154l11 56q46 0 92 7.5t85 23.5t63.5 42.5t28.5 64.5
q3 38 -19 64.5t-75.5 42.5t-144 23t-223.5 7z" />
    <glyph glyph-name="uni1EBC" unicode="&#x1ebc;" horiz-adv-x="1213" 
d="M-44 0h1067l54 308h-609l39 224h560l52 293h-560l38 217h609l55 308h-1067zM891 1400q85 0 142 29.5t91 72.5t51.5 85.5t22.5 68.5h-213q-3 -15 -14.5 -35t-31.5 -34t-47 -14q-29 0 -52.5 13.5t-49 32t-59.5 32t-85 13.5q-88 0 -147 -28.5t-93 -71t-50.5 -84t-22.5 -68.5
h215q4 15 13.5 35t29 34t51.5 14q29 0 52.5 -14.5t50 -33t61 -33t85.5 -14.5z" />
    <glyph glyph-name="uni1EBD" unicode="&#x1ebd;" horiz-adv-x="1448" 
d="M624 -12l51 288q-108 0 -165 54q-59 52 -21 261q36 205 111 263q76 57 179 57q105 0 155 -49q27 -36 24 -133h-483l-47 -269h932q19 58 31 131q47 267 -62 438q-109 170 -500 170q-379 0 -554 -167q-174 -166 -223 -440q-48 -275 69 -440q116 -164 503 -164zM675 276
l-51 -288q202 0 317 31q113 30 208 91q94 59 140 172l-382 116q-33 -43 -61 -71q-30 -27 -67 -39q-39 -12 -104 -12zM987 1236q85 0 142 29.5t91 72.5t51.5 85.5t22.5 68.5h-213q-3 -15 -14.5 -35t-31.5 -34t-47 -14q-29 0 -52.5 13.5t-49 32t-59.5 32t-85 13.5
q-88 0 -147 -28.5t-93 -71t-50.5 -84t-22.5 -68.5h215q4 15 13.5 35t29 34t51.5 14q29 0 52.5 -14.5t50 -33t61 -33t85.5 -14.5z" />
    <glyph glyph-name="uni1EBE" unicode="&#x1ebe;" horiz-adv-x="1213" 
d="M-44 0h1067l54 308h-609l39 224h560l52 293h-560l38 217h609l55 308h-1067zM371 1414h252l150 148l98 -148h254l-196 233h-283zM987 1602h205l318 245h-304z" />
    <glyph glyph-name="uni1EBF" unicode="&#x1ebf;" horiz-adv-x="1448" 
d="M624 -12l51 288q-108 0 -165 54q-59 52 -21 261q36 205 111 263q76 57 179 57q105 0 155 -49q27 -36 24 -133h-483l-47 -269h932q19 58 31 131q47 267 -62 438q-109 170 -500 170q-379 0 -554 -167q-174 -166 -223 -440q-48 -275 69 -440q116 -164 503 -164zM675 276
l-51 -288q202 0 317 31q113 30 208 91q94 59 140 172l-382 116q-33 -43 -61 -71q-30 -27 -67 -39q-39 -12 -104 -12zM467 1250h252l150 148l98 -148h254l-196 233h-283zM1083 1438h205l318 245h-304z" />
    <glyph glyph-name="uni1EC0" unicode="&#x1ec0;" horiz-adv-x="1213" 
d="M-44 0h1067l54 308h-609l39 224h560l52 293h-560l38 217h609l55 308h-1067zM373 1414h252l150 148l98 -148h254l-196 233h-283zM1074 1602h195l-134 245h-293z" />
    <glyph glyph-name="uni1EC1" unicode="&#x1ec1;" horiz-adv-x="1448" 
d="M624 -12l51 288q-108 0 -165 54q-59 52 -21 261q36 205 111 263q76 57 179 57q105 0 155 -49q27 -36 24 -133h-483l-47 -269h932q19 58 31 131q47 267 -62 438q-109 170 -500 170q-379 0 -554 -167q-174 -166 -223 -440q-48 -275 69 -440q116 -164 503 -164zM675 276
l-51 -288q202 0 317 31q113 30 208 91q94 59 140 172l-382 116q-33 -43 -61 -71q-30 -27 -67 -39q-39 -12 -104 -12zM469 1250h252l150 148l98 -148h254l-196 233h-283zM1170 1438h195l-134 245h-293z" />
    <glyph glyph-name="uni1EC2" unicode="&#x1ec2;" horiz-adv-x="1213" 
d="M-44 0h1067l54 308h-609l39 224h560l52 293h-560l38 217h609l55 308h-1067zM367 1403h252l150 148l98 -148h254l-196 233h-283zM682 2027l-24 -131q110 0 169.5 -1t82 -5.5t21.5 -13.5q-1 -8 -23 -13.5t-64 -7.5t-106 -2l-28 -157h154l11 56q46 0 92 7.5t85 23.5
t63.5 42.5t28.5 64.5q3 38 -19 64.5t-75.5 42.5t-144 23t-223.5 7z" />
    <glyph glyph-name="uni1EC3" unicode="&#x1ec3;" horiz-adv-x="1448" 
d="M624 -12l51 288q-108 0 -165 54q-59 52 -21 261q36 205 111 263q76 57 179 57q105 0 155 -49q27 -36 24 -133h-483l-47 -269h932q19 58 31 131q47 267 -62 438q-109 170 -500 170q-379 0 -554 -167q-174 -166 -223 -440q-48 -275 69 -440q116 -164 503 -164zM675 276
l-51 -288q202 0 317 31q113 30 208 91q94 59 140 172l-382 116q-33 -43 -61 -71q-30 -27 -67 -39q-39 -12 -104 -12zM463 1239h252l150 148l98 -148h254l-196 233h-283zM778 1863l-24 -131q110 0 169.5 -1t82 -5.5t21.5 -13.5q-1 -8 -23 -13.5t-64 -7.5t-106 -2l-28 -157
h154l11 56q46 0 92 7.5t85 23.5t63.5 42.5t28.5 64.5q3 38 -19 64.5t-75.5 42.5t-144 23t-223.5 7z" />
    <glyph glyph-name="uni1EC4" unicode="&#x1ec4;" horiz-adv-x="1213" 
d="M-44 0h1067l54 308h-609l39 224h560l52 293h-560l38 217h609l55 308h-1067zM367 1403h252l150 148l98 -148h254l-196 233h-283zM941 1686q85 0 142 29.5t91 72.5t51.5 85.5t22.5 68.5h-213q-3 -15 -14.5 -35t-31.5 -34t-47 -14q-29 0 -52.5 13.5t-49 32t-59.5 32
t-85 13.5q-88 0 -147 -28.5t-93 -71t-50.5 -84t-22.5 -68.5h215q4 15 13.5 35t29 34t51.5 14q29 0 52.5 -14.5t50 -33t61 -33t85.5 -14.5z" />
    <glyph glyph-name="uni1EC5" unicode="&#x1ec5;" horiz-adv-x="1448" 
d="M624 -12l51 288q-108 0 -165 54q-59 52 -21 261q36 205 111 263q76 57 179 57q105 0 155 -49q27 -36 24 -133h-483l-47 -269h932q19 58 31 131q47 267 -62 438q-109 170 -500 170q-379 0 -554 -167q-174 -166 -223 -440q-48 -275 69 -440q116 -164 503 -164zM675 276
l-51 -288q202 0 317 31q113 30 208 91q94 59 140 172l-382 116q-33 -43 -61 -71q-30 -27 -67 -39q-39 -12 -104 -12zM463 1239h252l150 148l98 -148h254l-196 233h-283zM1037 1522q85 0 142 29.5t91 72.5t51.5 85.5t22.5 68.5h-213q-3 -15 -14.5 -35t-31.5 -34t-47 -14
q-29 0 -52.5 13.5t-49 32t-59.5 32t-85 13.5q-88 0 -147 -28.5t-93 -71t-50.5 -84t-22.5 -68.5h215q4 15 13.5 35t29 34t51.5 14q29 0 52.5 -14.5t50 -33t61 -33t85.5 -14.5z" />
    <glyph glyph-name="uni1EC6" unicode="&#x1ec6;" horiz-adv-x="1213" 
d="M-44 0h1067l54 308h-609l39 224h560l52 293h-560l38 217h609l55 308h-1067zM465 -329q51 0 86.5 35.5t35.5 85.5t-35.5 85.5t-85.5 35.5t-85.5 -35.5t-35.5 -85.5t35 -85.5t85 -35.5zM367 1403h252l150 148l98 -148h254l-196 233h-283z" />
    <glyph glyph-name="uni1EC7" unicode="&#x1ec7;" horiz-adv-x="1448" 
d="M624 -12l51 288q-108 0 -165 54q-59 52 -21 261q36 205 111 263q76 57 179 57q105 0 155 -49q27 -36 24 -133h-483l-47 -269h932q19 58 31 131q47 267 -62 438q-109 170 -500 170q-379 0 -554 -167q-174 -166 -223 -440q-48 -275 69 -440q116 -164 503 -164zM675 276
l-51 -288q202 0 317 31q113 30 208 91q94 59 140 172l-382 116q-33 -43 -61 -71q-30 -27 -67 -39q-39 -12 -104 -12zM586 -360q51 0 86.5 35.5t35.5 85.5t-35.5 85.5t-85.5 35.5t-85.5 -35.5t-35.5 -85.5t35 -85.5t85 -35.5zM463 1239h252l150 148l98 -148h254l-196 233
h-283z" />
    <glyph glyph-name="uni1EC8" unicode="&#x1ec8;" horiz-adv-x="700" 
d="M5 0h455l238 1350h-454zM395 1741l-24 -131q110 0 169.5 -1t82 -5.5t21.5 -13.5q-1 -8 -23 -13.5t-64 -7.5t-106 -2l-28 -157h154l11 56q46 0 92 7.5t85 23.5t63.5 42.5t28.5 64.5q3 38 -19 64.5t-75.5 42.5t-144 23t-223.5 7z" />
    <glyph glyph-name="uni1EC9" unicode="&#x1ec9;" horiz-adv-x="648" 
d="M-34 0h454l209 1186h-454zM301 1577l-24 -131q110 0 169.5 -1t82 -5.5t21.5 -13.5q-1 -8 -23 -13.5t-64 -7.5t-106 -2l-28 -157h154l11 56q46 0 92 7.5t85 23.5t63.5 42.5t28.5 64.5q3 38 -19 64.5t-75.5 42.5t-144 23t-223.5 7z" />
    <glyph glyph-name="uni1ECA" unicode="&#x1eca;" horiz-adv-x="700" 
d="M5 0h455l238 1350h-454zM205 -329q51 0 86.5 35.5t35.5 85.5t-35.5 85.5t-85.5 35.5t-85.5 -35.5t-35.5 -85.5t35 -85.5t85 -35.5z" />
    <glyph glyph-name="uni1ECB" unicode="&#x1ecb;" horiz-adv-x="663" 
d="M-3 0h452l208 1186h-452zM273 1570l-50 -283h452l50 283h-452zM200 -360q51 0 86.5 35.5t35.5 85.5t-35.5 85.5t-85.5 35.5t-85.5 -35.5t-35.5 -85.5t35 -85.5t85 -35.5z" />
    <glyph glyph-name="uni1ECC" unicode="&#x1ecc;" horiz-adv-x="1498" 
d="M634 -12q410 0 592 181t230 506q47 326 -61.5 507t-518.5 181t-592.5 -180.5t-230.5 -507.5q-47 -324 61.5 -505.5t519.5 -181.5zM688 296q-115 0 -168.5 53.5t-11.5 325.5q44 278 121.5 329t192.5 51q114 0 168.5 -51t10.5 -329q-44 -272 -121.5 -325.5t-191.5 -53.5z
M601 -329q51 0 86.5 35.5t35.5 85.5t-35.5 85.5t-85.5 35.5t-85.5 -35.5t-35.5 -85.5t35 -85.5t85 -35.5z" />
    <glyph glyph-name="uni1ECD" unicode="&#x1ecd;" horiz-adv-x="1452" 
d="M615 -9q376 0 554.5 164t219.5 444q39 274 -78 437.5t-493 163.5q-377 0 -556 -160.5t-219 -440.5q-39 -274 78 -441t494 -167zM663 294q-97 0 -147 55.5t-22 247.5q29 190 103.5 245t171.5 55q98 0 147.5 -54.5t21.5 -245.5q-29 -191 -103.5 -247t-171.5 -56zM589 -360
q51 0 86.5 35.5t35.5 85.5t-35.5 85.5t-85.5 35.5t-85.5 -35.5t-35.5 -85.5t35 -85.5t85 -35.5z" />
    <glyph glyph-name="uni1ECE" unicode="&#x1ece;" horiz-adv-x="1498" 
d="M634 -12q410 0 592 181t230 506q47 326 -61.5 507t-518.5 181t-592.5 -180.5t-230.5 -507.5q-47 -324 61.5 -505.5t519.5 -181.5zM688 296q-115 0 -168.5 53.5t-11.5 325.5q44 278 121.5 329t192.5 51q114 0 168.5 -51t10.5 -329q-44 -272 -121.5 -325.5t-191.5 -53.5z
M778 1741l-24 -131q110 0 169.5 -1t82 -5.5t21.5 -13.5q-1 -8 -23 -13.5t-64 -7.5t-106 -2l-28 -157h154l11 56q46 0 92 7.5t85 23.5t63.5 42.5t28.5 64.5q3 38 -19 64.5t-75.5 42.5t-144 23t-223.5 7z" />
    <glyph glyph-name="uni1ECF" unicode="&#x1ecf;" horiz-adv-x="1452" 
d="M615 -9q376 0 554.5 164t219.5 444q39 274 -78 437.5t-493 163.5q-377 0 -556 -160.5t-219 -440.5q-39 -274 78 -441t494 -167zM663 294q-97 0 -147 55.5t-22 247.5q29 190 103.5 245t171.5 55q98 0 147.5 -54.5t21.5 -245.5q-29 -191 -103.5 -247t-171.5 -56zM717 1577
l-24 -131q110 0 169.5 -1t82 -5.5t21.5 -13.5q-1 -8 -23 -13.5t-64 -7.5t-106 -2l-28 -157h154l11 56q46 0 92 7.5t85 23.5t63.5 42.5t28.5 64.5q3 38 -19 64.5t-75.5 42.5t-144 23t-223.5 7z" />
    <glyph glyph-name="uni1ED0" unicode="&#x1ed0;" horiz-adv-x="1498" 
d="M634 -12q410 0 592 181t230 506q47 326 -61.5 507t-518.5 181t-592.5 -180.5t-230.5 -507.5q-47 -324 61.5 -505.5t519.5 -181.5zM688 296q-115 0 -168.5 53.5t-11.5 325.5q44 278 121.5 329t192.5 51q114 0 168.5 -51t10.5 -329q-44 -272 -121.5 -325.5t-191.5 -53.5z
M507 1414h252l150 148l98 -148h254l-196 233h-283zM1123 1602h205l318 245h-304z" />
    <glyph glyph-name="uni1ED1" unicode="&#x1ed1;" horiz-adv-x="1452" 
d="M615 -9q376 0 554.5 164t219.5 444q39 274 -78 437.5t-493 163.5q-377 0 -556 -160.5t-219 -440.5q-39 -274 78 -441t494 -167zM663 294q-97 0 -147 55.5t-22 247.5q29 190 103.5 245t171.5 55q98 0 147.5 -54.5t21.5 -245.5q-29 -191 -103.5 -247t-171.5 -56zM455 1250
h252l150 148l98 -148h254l-196 233h-283zM1070 1438h205l318 245h-304z" />
    <glyph glyph-name="uni1ED2" unicode="&#x1ed2;" horiz-adv-x="1498" 
d="M634 -12q410 0 592 181t230 506q47 326 -61.5 507t-518.5 181t-592.5 -180.5t-230.5 -507.5q-47 -324 61.5 -505.5t519.5 -181.5zM688 296q-115 0 -168.5 53.5t-11.5 325.5q44 278 121.5 329t192.5 51q114 0 168.5 -51t10.5 -329q-44 -272 -121.5 -325.5t-191.5 -53.5z
M510 1414h252l150 148l98 -148h254l-196 233h-283zM1211 1602h195l-134 245h-293z" />
    <glyph glyph-name="uni1ED3" unicode="&#x1ed3;" horiz-adv-x="1452" 
d="M615 -9q376 0 554.5 164t219.5 444q39 274 -78 437.5t-493 163.5q-377 0 -556 -160.5t-219 -440.5q-39 -274 78 -441t494 -167zM663 294q-97 0 -147 55.5t-22 247.5q29 190 103.5 245t171.5 55q98 0 147.5 -54.5t21.5 -245.5q-29 -191 -103.5 -247t-171.5 -56zM456 1250
h252l150 148l98 -148h254l-196 233h-283zM1158 1438h195l-134 245h-293z" />
    <glyph glyph-name="uni1ED4" unicode="&#x1ed4;" horiz-adv-x="1498" 
d="M634 -12q410 0 592 181t230 506q47 326 -61.5 507t-518.5 181t-592.5 -180.5t-230.5 -507.5q-47 -324 61.5 -505.5t519.5 -181.5zM688 296q-115 0 -168.5 53.5t-11.5 325.5q44 278 121.5 329t192.5 51q114 0 168.5 -51t10.5 -329q-44 -272 -121.5 -325.5t-191.5 -53.5z
M503 1403h252l150 148l98 -148h254l-196 233h-283zM819 2027l-24 -131q110 0 169.5 -1t82 -5.5t21.5 -13.5q-1 -8 -23 -13.5t-64 -7.5t-106 -2l-28 -157h154l11 56q46 0 92 7.5t85 23.5t63.5 42.5t28.5 64.5q3 38 -19 64.5t-75.5 42.5t-144 23t-223.5 7z" />
    <glyph glyph-name="uni1ED5" unicode="&#x1ed5;" horiz-adv-x="1452" 
d="M615 -9q376 0 554.5 164t219.5 444q39 274 -78 437.5t-493 163.5q-377 0 -556 -160.5t-219 -440.5q-39 -274 78 -441t494 -167zM663 294q-97 0 -147 55.5t-22 247.5q29 190 103.5 245t171.5 55q98 0 147.5 -54.5t21.5 -245.5q-29 -191 -103.5 -247t-171.5 -56zM451 1239
h252l150 148l98 -148h254l-196 233h-283zM765 1863l-24 -131q110 0 169.5 -1t82 -5.5t21.5 -13.5q-1 -8 -23 -13.5t-64 -7.5t-106 -2l-28 -157h154l11 56q46 0 92 7.5t85 23.5t63.5 42.5t28.5 64.5q3 38 -19 64.5t-75.5 42.5t-144 23t-223.5 7z" />
    <glyph glyph-name="uni1ED6" unicode="&#x1ed6;" horiz-adv-x="1498" 
d="M634 -12q410 0 592 181t230 506q47 326 -61.5 507t-518.5 181t-592.5 -180.5t-230.5 -507.5q-47 -324 61.5 -505.5t519.5 -181.5zM688 296q-115 0 -168.5 53.5t-11.5 325.5q44 278 121.5 329t192.5 51q114 0 168.5 -51t10.5 -329q-44 -272 -121.5 -325.5t-191.5 -53.5z
M503 1403h252l150 148l98 -148h254l-196 233h-283zM1077 1686q85 0 142 29.5t91 72.5t51.5 85.5t22.5 68.5h-213q-3 -15 -14.5 -35t-31.5 -34t-47 -14q-29 0 -52.5 13.5t-49 32t-59.5 32t-85 13.5q-88 0 -147 -28.5t-93 -71t-50.5 -84t-22.5 -68.5h215q4 15 13.5 35t29 34
t51.5 14q29 0 52.5 -14.5t50 -33t61 -33t85.5 -14.5z" />
    <glyph glyph-name="uni1ED7" unicode="&#x1ed7;" horiz-adv-x="1452" 
d="M615 -9q376 0 554.5 164t219.5 444q39 274 -78 437.5t-493 163.5q-377 0 -556 -160.5t-219 -440.5q-39 -274 78 -441t494 -167zM663 294q-97 0 -147 55.5t-22 247.5q29 190 103.5 245t171.5 55q98 0 147.5 -54.5t21.5 -245.5q-29 -191 -103.5 -247t-171.5 -56zM451 1239
h252l150 148l98 -148h254l-196 233h-283zM1024 1522q85 0 142 29.5t91 72.5t51.5 85.5t22.5 68.5h-213q-3 -15 -14.5 -35t-31.5 -34t-47 -14q-29 0 -52.5 13.5t-49 32t-59.5 32t-85 13.5q-88 0 -147 -28.5t-93 -71t-50.5 -84t-22.5 -68.5h215q4 15 13.5 35t29 34t51.5 14
q29 0 52.5 -14.5t50 -33t61 -33t85.5 -14.5z" />
    <glyph glyph-name="uni1ED8" unicode="&#x1ed8;" horiz-adv-x="1498" 
d="M634 -12q410 0 592 181t230 506q47 326 -61.5 507t-518.5 181t-592.5 -180.5t-230.5 -507.5q-47 -324 61.5 -505.5t519.5 -181.5zM688 296q-115 0 -168.5 53.5t-11.5 325.5q44 278 121.5 329t192.5 51q114 0 168.5 -51t10.5 -329q-44 -272 -121.5 -325.5t-191.5 -53.5z
M601 -329q51 0 86.5 35.5t35.5 85.5t-35.5 85.5t-85.5 35.5t-85.5 -35.5t-35.5 -85.5t35 -85.5t85 -35.5zM503 1403h252l150 148l98 -148h254l-196 233h-283z" />
    <glyph glyph-name="uni1ED9" unicode="&#x1ed9;" horiz-adv-x="1452" 
d="M615 -9q376 0 554.5 164t219.5 444q39 274 -78 437.5t-493 163.5q-377 0 -556 -160.5t-219 -440.5q-39 -274 78 -441t494 -167zM663 294q-97 0 -147 55.5t-22 247.5q29 190 103.5 245t171.5 55q98 0 147.5 -54.5t21.5 -245.5q-29 -191 -103.5 -247t-171.5 -56zM589 -360
q51 0 86.5 35.5t35.5 85.5t-35.5 85.5t-85.5 35.5t-85.5 -35.5t-35.5 -85.5t35 -85.5t85 -35.5zM451 1239h252l150 148l98 -148h254l-196 233h-283z" />
    <glyph glyph-name="uni1EDA" unicode="&#x1eda;" horiz-adv-x="1498" 
d="M634 -12q410 0 592 181t230 506q47 326 -61.5 507t-518.5 181t-592.5 -180.5t-230.5 -507.5q-47 -324 61.5 -505.5t519.5 -181.5zM688 296q-115 0 -168.5 53.5t-11.5 325.5q44 278 121.5 329t192.5 51q114 0 168.5 -51t10.5 -329q-44 -272 -121.5 -325.5t-191.5 -53.5z
M1337 1206l-24 -143q150 0 268 37.5t193 112t94 186.5h-253q-12 -69 -45 -111.5t-89.5 -62t-143.5 -19.5zM639 1392h205l318 245h-304z" />
    <glyph glyph-name="uni1EDB" unicode="&#x1edb;" horiz-adv-x="1452" 
d="M615 -9q376 0 554.5 164t219.5 444q39 274 -78 437.5t-493 163.5q-377 0 -556 -160.5t-219 -440.5q-39 -274 78 -441t494 -167zM663 294q-97 0 -147 55.5t-22 247.5q29 190 103.5 245t171.5 55q98 0 147.5 -54.5t21.5 -245.5q-29 -191 -103.5 -247t-171.5 -56zM1250 1055
l-24 -143q150 0 268 37.5t193 112t94 186.5h-253q-12 -69 -45 -111.5t-89.5 -62t-143.5 -19.5zM586 1228h205l318 245h-304z" />
    <glyph glyph-name="uni1EDC" unicode="&#x1edc;" horiz-adv-x="1498" 
d="M634 -12q410 0 592 181t230 506q47 326 -61.5 507t-518.5 181t-592.5 -180.5t-230.5 -507.5q-47 -324 61.5 -505.5t519.5 -181.5zM688 296q-115 0 -168.5 53.5t-11.5 325.5q44 278 121.5 329t192.5 51q114 0 168.5 -51t10.5 -329q-44 -272 -121.5 -325.5t-191.5 -53.5z
M1337 1206l-24 -143q150 0 268 37.5t193 112t94 186.5h-253q-12 -69 -45 -111.5t-89.5 -62t-143.5 -19.5zM925 1401h195l-134 245h-293z" />
    </font>
</defs>
</svg>
